<?xml version="1.0" encoding="utf-8"?>
<!-- Generator: Adobe Illustrator 23.0.3, SVG Export Plug-In . SVG Version: 6.00 Build 0)  -->
<svg version="1.1" id="Layer_1" xmlns="http://www.w3.org/2000/svg" xmlns:xlink="http://www.w3.org/1999/xlink" x="0px" y="0px"
	 width="788.5px" height="283.5px" viewBox="0 0 788.5 283.5" enable-background="new 0 0 788.5 283.5" xml:space="preserve">
<g>
	<path fill="#29338A" d="M157.1,132.6c-1.5,0-4.1-0.1-7.8-0.3c-3.7-0.2-5.8-1-6.3-2.4c-0.5-1.3-0.4-3,0.3-5.3
		c0.7-2.3,1.1-3.9,1.3-4.8L175.4,0h-42.5c-0.2,0-4.5,4-13,11.9c-8.5,7.9-18.1,17.2-28.8,27.7C77.9,52.6,67.8,63,60.9,70.9
		c-7.9,9.1-16.9,20.4-27.2,34c-8.1,10.5-15.9,21.2-23.7,32.1c-3.4,4.8-6.7,9.5-10.1,14.2h87.4l-12.1,47.3h50.6
		c1.2-8.1,2.3-14.2,3.5-18.3c3.5-12.7,8.4-21,14.6-24.7c3.2-1.8,6.8-3,11-3.5c4.1-0.5,8.4-0.8,13-0.8c0.7,0,1.6,0,2.8,0l5.3-18.4
		L157.1,132.6L157.1,132.6L157.1,132.6z M111.6,56.7c-0.8,2.9-1.3,5-1.6,6.4l-17.8,69.5H83c-36.9,0-37.9,0-39.2,0
		c-2.5,0-4.4-0.8-5.5-2.4c-0.8-1.2,1-5.2,5.5-11.8c5.4-7.8,14.1-18.9,26.2-33.2c7.9-9.3,15.9-18,24.2-26.2
		c9.2-9.1,14.6-13.3,16.1-12.6c1.7,0.7,2.5,2.1,2.5,4.3C112.8,51.9,112.4,53.8,111.6,56.7z"/>
	<g>
		<path fill="#29338A" d="M339.8,10.3l-13.3,57.6h-18.7c0.4-1.8,0.8-3.8,1.2-6.1c0.4-2.2,0.5-5.1,0.5-8.5c0-7.9-1.3-14.1-3.9-18.6
			c-3.6-6.3-9.6-9.4-18-9.4c-10.9,0-22.4,7.5-34.6,22.4C240.3,63.3,234,79.2,234,95.3c0,12.2,3,21.9,8.9,28.9
			c5.9,7,13.6,10.5,23.1,10.5c7.7,0,17.2-4,28.3-12c3.7-2.7,8.6-6.7,14.6-12.2l18.7,12.5c-2.7,2.7-5.4,5.3-7.9,7.8
			c-7.2,6.2-14.9,11.2-23.2,14.7c-12.2,5.4-24.8,8-37.8,8c-18.9,0-34.6-4.9-47.2-14.8c-14-11-21-26.3-21-45.7
			c0-26.1,10.9-47.4,32.6-63.8C243.6,13.8,268.9,6,299,6c6.9,0,15.6,0.7,26.2,2C328.8,8.5,333.6,9.2,339.8,10.3z"/>
		<path fill="#29338A" d="M475,132.7c-4.6,4.5-8.4,7.8-11.6,9.9c-9.9,6.7-19.5,10.1-28.8,10.1c-11.7,0-18-9.4-18.7-28.1
			c-0.7-18.8-3.4-28.1-8.2-28.1c-5.6,0-11.9,4.7-18.9,14.1c-4.9,6.6-10,15.4-15.5,26.5c-2.1,4.8-4.3,9.6-6.4,14.4h-29L370.5,8.5
			h34.8l-17.8,75.4c-0.7,3.3-1.1,5.4-1.1,6.3c0,1.2,0.3,1.8,0.9,1.8c8.2-9,16-16.7,23.6-23.3c8.3-7.3,15.5-11,21.7-11
			c10.6,0,16.2,11.2,16.7,33.6c0.6,22.4,2.9,34.4,7.1,35.9c1.1,0.3,2,0.4,2.6,0.4c2.7,0,5.8-1,9.2-3.1c0.6-0.3,1.4-0.8,2.4-1.6
			L475,132.7z"/>
		<path fill="#29338A" d="M549.7,138.3c-5.7,3.1-10.4,5.5-14,6.9c-11,4.8-20,7.2-26.8,7.2c-7.4,0-14.1-3-19.9-9.1
			c-5.8-6.1-8.7-13-8.7-20.7c0-10.3,2.4-23.9,7.3-40.8c1.6-5.5,4-12.9,7.3-22.2h34.1l-12.4,51.1c-0.4,2.1-0.6,4.3-0.6,6.7
			c0,4,0.8,7.5,2.3,10.5c1.5,3,3.8,4.5,6.8,4.5c3.1,0,7.2-1.3,12-3.8c1.6-0.8,3.7-2,6.4-3.8L549.7,138.3z M541.5,21
			c0,6.9-2.4,12.6-7.1,17c-4.7,4.5-10.7,6.7-17.8,6.7c-4.9,0-9.3-1.8-13.2-5.3c-3.9-3.5-5.9-7.8-5.9-12.9c0-5.7,2.5-10.7,7.4-15.1
			c4.9-4.4,10.6-6.6,16.8-6.6c5.2,0,9.7,1.5,13.7,4.5C539.5,12.4,541.5,16.2,541.5,21z"/>
		<path fill="#29338A" d="M635.1,133.6c-5.1,4.3-9.4,7.6-12.9,9.6c-10.6,6.4-20.7,9.6-30.5,9.6c-9.9,0-17.9-2.5-24.1-7.4
			c-7.2-5.7-10.7-14-10.7-24.9c0-5.2,0.5-10.2,1.5-15c0.3-1.2,1.6-6.1,3.9-14.8l23.2-84.1H620l-24.2,96.7c-0.6,2.5-1.1,5.6-1.7,9.1
			c-0.6,3.5-0.9,6.6-0.9,9.3c0,4,0.7,7.3,2.1,9.8c1.4,2.5,3.9,3.7,7.3,3.7c4.1,0,9.1-2.6,14.8-7.8c1.9-1.6,4.3-4.3,7.3-7.9
			L635.1,133.6z"/>
		<path fill="#29338A" d="M788.5,137.4c-5,3.3-9,5.9-12,7.5c-9.4,5.2-17.2,7.7-23.2,7.7c-9.1,0-16-3.5-20.4-10.4
			c-2.9-7.5-5.7-15.1-8.6-22.8c-9.3,8.5-18.7,16-28.1,22.4c-10.6,7.2-19.7,10.8-27.2,10.8c-7.7,0-14.5-3.6-20.3-10.6
			c-5.8-7.1-8.7-15-8.7-23.7c0-12.7,3.9-24.4,11.8-35c5.6-7.5,12.9-14,21.9-19.7c6.6-4.2,10.5-6.3,11.8-6.3l50.6,11.4l16.1-60.5
			h35.2l-22.8,94c-0.7,2.7-1.4,5.5-2,8.4c-0.6,2.9-1,5.4-1,7.5c0,4.6,1.6,8.2,4.9,10.5c1.6,1,3.7,1.6,6.2,1.6c3,0,6.3-0.6,9.9-1.8
			c1.1-0.3,2.7-1,4.7-2L788.5,137.4z M731,78.4c-0.4-0.4-1.6-0.7-3.4-0.7c-9.2,0-19,2.9-29.6,8.7c-13.7,7.5-20.6,17-20.6,28.5
			c0,4.6,1.2,8,3.5,10.2c2.4,2.2,5.4,3.3,9.1,3.3c4,0,8.3-1.1,12.8-3.3c4.5-2.2,8.1-4.8,10.8-8c5.2-5.8,9.4-12.3,12.9-19.5
			c3.4-7.2,5.1-12.6,5.1-16.4C731.7,80.2,731.4,79.2,731,78.4z"/>
	</g>
</g>
<g id="Layer_3">
	<g>
		<path fill="#B20933" d="M165.4,215.6c0-1-0.4-1.2-1.8-1.4v-0.5H180c0,1.7,0.1,3.4,0.2,5.1h-0.7c-0.4-2.8-1.6-3.2-3.1-3.2h-7.6v8.1
			h5c1.6-0.1,2-0.4,2.1-1.9h0.7c-0.1,1.1-0.2,2-0.2,2.8c0,1,0.1,1.9,0.2,3h-0.7c-0.2-1.6-0.6-1.8-2.1-1.9h-5v8.2
			c0,1,0.4,1.2,1.8,1.4v0.5c-0.7,0-2.1-0.2-3.4-0.2s-2.7,0.2-3.4,0.2v-0.5c1.3-0.2,1.8-0.5,1.8-1.4
			C165.4,233.8,165.4,215.6,165.4,215.6z"/>
		<path fill="#B20933" d="M189.7,219.1c5.2,0,8.1,4.2,8.1,8.5c0,5.4-3.6,8.5-8.4,8.5c-4.8,0-8.1-3.6-8.1-8.6
			C181.4,222.7,184.9,219.1,189.7,219.1z M190,234.2c3.3,0,4.9-2.9,4.9-5.9c0-3-1.4-7.2-5.3-7.2c-2.3,0-5.2,1.5-5.2,5.8
			C184.4,230.4,186.2,234.2,190,234.2z"/>
		<path fill="#B20933" d="M202.1,222.5c0-1.2-0.4-1.5-1.6-1.5v-0.3c1.5-0.4,3.4-1.1,4.6-1.6c-0.1,0.8-0.1,1.9-0.1,3.1v9.5
			c0,1.1,0.6,2.2,2.4,2.2c3,0,4.6-2.7,4.6-7v-4.4c0-1.2-0.4-1.5-1.6-1.5v-0.3c1.5-0.4,3.4-1.1,4.6-1.6c-0.1,0.8-0.1,1.9-0.1,3.1
			v11.4c0,1,0.3,1.5,1.6,1.6v0.5c-0.7-0.1-1.6-0.2-2.4-0.2c-0.6,0-1.8,0.1-2.4,0.2c0.1-0.7,0.2-1.5,0.2-2.2v-1H212
			c-0.8,2.2-2.6,3.5-5.1,3.5c-2.2,0-4.9-1.3-4.9-5L202.1,222.5L202.1,222.5z"/>
		<path fill="#B20933" d="M220.9,222.5c0-1.2-0.4-1.5-1.6-1.5v-0.3c1.5-0.4,3.4-1.1,4.6-1.6c-0.1,0.8-0.1,1.9-0.1,3.1h0.1
			c0.9-1.7,2.6-2.8,4.3-2.8c0.7,0,1.1,0.1,1.3,0.3c0.1,0.8,0.1,1.7,0.1,2.9c-0.8-0.5-1.2-0.8-2.2-0.8c-2.2,0-3.6,2-3.6,4.2v7.9
			c0,0.8,0.9,1.2,1.9,1.3v0.5c-1.2-0.1-2.1-0.2-3.3-0.2c-1.2,0-2.2,0.1-3.3,0.2v-0.5c1-0.1,1.9-0.5,1.9-1.3L220.9,222.5L220.9,222.5
			z"/>
		<path fill="#B20933" d="M257.1,233.4c-1.8,1.8-4.7,2.7-7.6,2.7c-4.5,0-10.6-3.3-10.6-11.4c0-8.4,7.3-11.6,12.1-11.6
			c1.8,0,3.6,0.3,5.2,1.1c0,1.7,0.2,3.4,0.3,5.2h-0.5c-0.7-3.1-3.6-4.1-6-4.1c-4.6,0-8,3.3-8,8.3c0,5.3,3.8,10.2,8.6,10.2
			c2.4,0,4.7-1,6.6-2.2L257.1,233.4z"/>
		<path fill="#B20933" d="M267.9,219.1c5.2,0,8.1,4.2,8.1,8.5c0,5.4-3.6,8.5-8.4,8.5c-4.8,0-8.1-3.6-8.1-8.6
			C259.5,222.7,263.1,219.1,267.9,219.1z M268.1,234.2c3.3,0,4.9-2.9,4.9-5.9c0-3-1.4-7.2-5.3-7.2c-2.3,0-5.2,1.5-5.2,5.8
			C262.5,230.4,264.3,234.2,268.1,234.2z"/>
		<path fill="#B20933" d="M280.2,222.5c0-1.2-0.4-1.5-1.6-1.5v-0.3c1.5-0.4,3.4-1.1,4.6-1.6c-0.1,0.8-0.1,1.9-0.1,3.1v9.5
			c0,1.1,0.6,2.2,2.4,2.2c3,0,4.6-2.7,4.6-7v-4.4c0-1.2-0.4-1.5-1.6-1.5v-0.3c1.5-0.4,3.4-1.1,4.6-1.6c-0.1,0.8-0.1,1.9-0.1,3.1
			v11.4c0,1,0.3,1.5,1.6,1.6v0.5c-0.7-0.1-1.6-0.2-2.4-0.2c-0.6,0-1.8,0.1-2.4,0.2c0.1-0.7,0.2-1.5,0.2-2.2v-1h-0.1
			c-0.8,2.2-2.5,3.5-5.1,3.5c-2.2,0-4.9-1.3-4.9-5L280.2,222.5L280.2,222.5L280.2,222.5z"/>
		<path fill="#B20933" d="M299.1,222.5c0-1.2-0.4-1.5-1.6-1.5v-0.3c1.5-0.4,3.4-1.1,4.6-1.6c-0.1,0.8-0.1,1.9-0.1,2.8h0.1
			c0.9-1.7,2.5-2.8,4.4-2.8c3.3,0,5.5,1.9,5.5,6.1v8.4c0,1,0.3,1.5,1.6,1.6v0.5c-0.7-0.1-1.6-0.2-2.4-0.2c-0.6,0-1.8,0.1-2.4,0.2
			c0.1-0.7,0.2-1.5,0.2-2.2v-8.8c0-2.5-1.3-3.4-2.9-3.4c-2.3,0-4.1,2-4.1,4.9v7.8c0,0.8,0.9,1.2,1.9,1.3v0.5
			c-1.2-0.1-2.1-0.2-3.3-0.2c-1.2,0-2.2,0.1-3.3,0.2v-0.5c1-0.1,1.9-0.5,1.9-1.3L299.1,222.5L299.1,222.5z"/>
		<path fill="#B20933" d="M315.7,219.5h2.2v-2.7c1.3-0.5,2.3-1.3,3-2.3v5h4.7v1.7h-4.7v10.3c0,1.6,0.3,2.9,1.9,2.9
			c1.1,0,2.1-0.4,3-1l-0.3,2c-1,0.5-2.1,0.8-3.3,0.8c-3.1,0-4.2-1.3-4.2-4.3v-10.6h-2.2L315.7,219.5L315.7,219.5z"/>
		<path fill="#B20933" d="M329.4,222.4c0-0.9-0.4-1.1-1.5-1.3c-0.2,0-0.3-0.1-0.6-0.1v-0.3c1.8-0.4,3.5-1,5.2-1.5
			c-0.1,1.1-0.2,2.4-0.2,3.5v11.3c0,0.8,0.9,1.2,1.9,1.3v0.5c-1.2-0.1-2.1-0.2-3.3-0.2c-1.2,0-2.2,0.1-3.3,0.2v-0.5
			c1-0.1,1.9-0.5,1.9-1.3L329.4,222.4L329.4,222.4L329.4,222.4z M330.9,212.8c1.1,0,2,0.9,2,2c0,1.1-0.9,2-2,2c-1.1,0-2-0.9-2-2
			C328.9,213.7,329.8,212.8,330.9,212.8z"/>
		<path fill="#B20933" d="M339.9,227c0,3.9,2.6,6.7,6.6,6.7c1.8,0,2.8-0.3,5.6-2.3l-0.2,2.2c-1.7,1.5-4.1,2.4-7.1,2.4
			c-4.8,0-8.1-3.6-8.1-8.6c0-4.8,3.5-8.4,8.3-8.4c5.2,0,7.8,3.1,7.8,7.9L339.9,227L339.9,227z M349.5,225.3c0-2.6-1.7-4.4-4.4-4.4
			c-2.6,0-4.7,1.9-5,4.4H349.5z"/>
		<path fill="#B20933" d="M355.8,231.3h0.4c1.2,2.6,3.3,3.1,5.5,3.1c2.6,0,4-1.1,4-2.6c0-1.8-0.9-2.1-4.9-2.9
			c-3.2-0.7-5.1-2-5.1-4.5c0-3.1,2.7-5.2,7.1-5.2c1.5,0,3,0.4,4.5,0.7v3.9h-0.5c-0.6-1.9-2.3-2.8-4.2-2.8c-2.5,0-4.1,1-4.1,2.9
			c0,1.6,1.5,2,4.5,2.6c3.6,0.7,5.3,1.6,5.3,4.6c0,3.2-2.6,5.1-7.2,5.1c-1.7,0-3.5-0.4-5-1.2L355.8,231.3z"/>
		<path fill="#B20933" d="M387.7,213.7c8.7,0,13.4,4.3,13.4,10.8c0,6.6-5.6,11-12.4,11h-9.1V235c1.3-0.2,1.8-0.5,1.8-1.4v-18
			c0-1-0.4-1.2-1.8-1.4v-0.5L387.7,213.7L387.7,213.7z M384.7,233.6h4.8c3.5,0,8.2-3.2,8.2-8.5c0-3.9-1.9-9.5-11.3-9.5h-1.7
			L384.7,233.6L384.7,233.6z"/>
		<path fill="#B20933" d="M405.5,220.1c1.7-0.7,3.4-1,5.2-1c3.8,0,6.5,1.6,6.5,6v8.1c0,1.1,0.1,1.9,1.4,2v0.5
			c-0.7-0.1-1.4-0.2-2.1-0.2c-0.7,0-1.3,0.1-2,0.2v-3.3h-0.1c-1.2,2.5-3,3.6-5.7,3.6c-3,0-5.1-1.6-5.1-4.6c0-2.8,1.8-4.4,5.3-4.9
			l4.9-0.6c0.7-0.1,0.7-0.7,0.7-1.2c0-2.4-1.3-3.6-3.8-3.6c-2.3,0-4,0.8-5,2.8h-0.4L405.5,220.1z M410,228.2
			c-2.4,0.4-3.4,1.4-3.4,3.1c0,1.9,1.3,2.7,3.1,2.7c3.3,0,4.6-3.5,4.6-5.8v-0.7L410,228.2z"/>
		<path fill="#B20933" d="M420.1,219.5h2.2v-2.7c1.3-0.5,2.3-1.3,3-2.3v5h4.7v1.7h-4.7v10.3c0,1.6,0.3,2.9,1.9,2.9
			c1.1,0,2.1-0.4,3-1l-0.3,2c-1,0.5-2.1,0.8-3.3,0.8c-3.1,0-4.2-1.3-4.2-4.3v-10.6h-2.2L420.1,219.5L420.1,219.5z"/>
		<path fill="#B20933" d="M433.7,220.1c1.7-0.7,3.4-1,5.2-1c3.7,0,6.5,1.6,6.5,6v8.1c0,1.1,0.1,1.9,1.4,2v0.5
			c-0.7-0.1-1.4-0.2-2.1-0.2c-0.7,0-1.3,0.1-2,0.2v-3.3h-0.1c-1.2,2.5-3,3.6-5.8,3.6c-3,0-5.1-1.6-5.1-4.6c0-2.8,1.8-4.4,5.3-4.9
			l4.9-0.6c0.7-0.1,0.7-0.7,0.7-1.2c0-2.4-1.3-3.6-3.7-3.6c-2.3,0-4,0.8-5,2.8h-0.4L433.7,220.1z M438.2,228.2
			c-2.4,0.4-3.4,1.4-3.4,3.1c0,1.9,1.3,2.7,3.1,2.7c3.3,0,4.6-3.5,4.6-5.8v-0.7L438.2,228.2z"/>
		<path fill="#B20933" d="M450.5,213.6c0-0.8-0.3-1-1.2-1.2c-0.2-0.1-0.5-0.1-0.8-0.2v-0.3c1.6-0.4,3.9-1.1,5.2-1.5
			c-0.1,1.6-0.2,3.2-0.2,4.9v6.6h0.1c1.3-1.8,3.5-2.7,5.7-2.7c4,0,7.6,3,7.6,8.2c0,4.4-3.1,8.7-8.2,8.7c-2.6,0-4.8-0.7-6.3-2.3
			l-1.7,2h-0.4c0.1-1,0.2-2,0.2-2.9L450.5,213.6L450.5,213.6L450.5,213.6z M458.7,221.3c-3.4,0-5.3,2.5-5.3,6.4
			c0,4.4,1.8,6.4,4.8,6.4c3.6,0,5.4-3.2,5.4-6.4C463.7,223.1,461.4,221.3,458.7,221.3z"/>
		<path fill="#B20933" d="M471.5,220.1c1.7-0.7,3.4-1,5.2-1c3.8,0,6.5,1.6,6.5,6v8.1c0,1.1,0.1,1.9,1.4,2v0.5
			c-0.7-0.1-1.4-0.2-2.1-0.2c-0.7,0-1.3,0.1-2,0.2v-3.3h-0.1c-1.2,2.5-3,3.6-5.7,3.6c-3,0-5.1-1.6-5.1-4.6c0-2.8,1.8-4.4,5.3-4.9
			l4.9-0.6c0.7-0.1,0.7-0.7,0.7-1.2c0-2.4-1.3-3.6-3.8-3.6c-2.3,0-4,0.8-5,2.8h-0.4L471.5,220.1z M475.9,228.2
			c-2.4,0.4-3.4,1.4-3.4,3.1c0,1.9,1.3,2.7,3.1,2.7c3.3,0,4.6-3.5,4.6-5.8v-0.7L475.9,228.2z"/>
		<path fill="#B20933" d="M486.6,231.3h0.4c1.2,2.6,3.3,3.1,5.5,3.1c2.6,0,4-1.1,4-2.6c0-1.8-0.9-2.1-4.9-2.9
			c-3.2-0.7-5.1-2-5.1-4.5c0-3.1,2.7-5.2,7.1-5.2c1.5,0,3,0.4,4.5,0.7v3.9h-0.5c-0.6-1.9-2.3-2.8-4.2-2.8c-2.5,0-4.1,1-4.1,2.9
			c0,1.6,1.5,2,4.5,2.6c3.6,0.7,5.3,1.6,5.3,4.6c0,3.2-2.6,5.1-7.2,5.1c-1.7,0-3.5-0.4-5-1.2L486.6,231.3z"/>
		<path fill="#B20933" d="M504.7,227c0,3.9,2.6,6.7,6.6,6.7c1.8,0,2.8-0.3,5.6-2.3l-0.2,2.2c-1.7,1.5-4.1,2.4-7.1,2.4
			c-4.8,0-8.1-3.6-8.1-8.6c0-4.8,3.5-8.4,8.3-8.4c5.2,0,7.9,3.1,7.9,7.9L504.7,227L504.7,227L504.7,227z M514.3,225.3
			c0-2.6-1.7-4.4-4.4-4.4c-2.6,0-4.7,1.9-5,4.4H514.3z"/>
		<path fill="#B20933" d="M537.1,219.1c5.2,0,8.1,4.2,8.1,8.5c0,5.4-3.6,8.5-8.4,8.5c-4.8,0-8.1-3.6-8.1-8.6
			C528.8,222.7,532.3,219.1,537.1,219.1z M537.4,234.2c3.3,0,4.9-2.9,4.9-5.9c0-3-1.4-7.2-5.3-7.2c-2.3,0-5.2,1.5-5.2,5.8
			C531.7,230.4,533.5,234.2,537.4,234.2z"/>
		<path fill="#B20933" d="M549.4,221.2h-2v-0.9c1.8-0.2,2-0.5,2-2.8c0-5.7,4-6.5,5.1-6.5c0.7,0,1.3,0.1,2,0.2l0.1,2.5h-0.4
			c-0.1-0.6-0.9-0.9-1.5-0.9c-1.9,0-2.5,1.4-2.5,2.6v4.1h3.8v1.7h-3.8v12.7c0,0.8,0.9,1.2,1.9,1.3v0.5c-1.2-0.1-2.1-0.2-3.3-0.2
			c-1.2,0-2.2,0.1-3.3,0.2v-0.5c1-0.1,1.9-0.5,1.9-1.3L549.4,221.2L549.4,221.2L549.4,221.2z"/>
		<path fill="#B20933" d="M583.7,233.4c-1.8,1.8-4.7,2.7-7.6,2.7c-4.5,0-10.6-3.3-10.6-11.4c0-8.4,7.3-11.6,12.1-11.6
			c1.8,0,3.6,0.3,5.2,1.1c0,1.7,0.2,3.4,0.3,5.2h-0.5c-0.7-3.1-3.6-4.1-6-4.1c-4.6,0-8,3.3-8,8.3c0,5.3,3.8,10.2,8.6,10.2
			c2.4,0,4.7-1,6.6-2.2L583.7,233.4z"/>
		<path fill="#B20933" d="M589.3,227c0,3.9,2.6,6.7,6.6,6.7c1.8,0,2.8-0.3,5.6-2.3l-0.2,2.2c-1.7,1.5-4.1,2.4-7.1,2.4
			c-4.8,0-8.1-3.6-8.1-8.6c0-4.8,3.5-8.4,8.3-8.4c5.2,0,7.9,3.1,7.9,7.9L589.3,227L589.3,227L589.3,227z M598.9,225.3
			c0-2.6-1.7-4.4-4.4-4.4c-2.6,0-4.7,1.9-5,4.4H598.9z"/>
		<path fill="#B20933" d="M606.8,222.5c0-1.2-0.4-1.5-1.6-1.5v-0.3c1.5-0.4,3.4-1.1,4.6-1.6c-0.1,0.8-0.1,1.9-0.1,3.1h0.1
			c0.9-1.7,2.6-2.8,4.3-2.8c0.7,0,1.1,0.1,1.3,0.3c0.1,0.8,0.1,1.7,0.1,2.9c-0.8-0.5-1.2-0.8-2.2-0.8c-2.2,0-3.6,2-3.6,4.2v7.9
			c0,0.8,0.9,1.2,1.9,1.3v0.5c-1.2-0.1-2.1-0.2-3.3-0.2c-1.2,0-2.2,0.1-3.3,0.2v-0.5c1-0.1,1.9-0.5,1.9-1.3L606.8,222.5L606.8,222.5
			z"/>
		<path fill="#B20933" d="M619.4,227c0,3.9,2.7,6.7,6.6,6.7c1.8,0,2.8-0.3,5.6-2.3l-0.2,2.2c-1.7,1.5-4.1,2.4-7.1,2.4
			c-4.8,0-8.1-3.6-8.1-8.6c0-4.8,3.5-8.4,8.3-8.4c5.2,0,7.9,3.1,7.9,7.9L619.4,227L619.4,227L619.4,227z M629,225.3
			c0-2.6-1.7-4.4-4.4-4.4c-2.6,0-4.7,1.9-5,4.4H629z"/>
		<path fill="#B20933" d="M636.9,213.6c0-0.8-0.3-1-1.2-1.2c-0.2-0.1-0.5-0.1-0.8-0.2v-0.3c1.6-0.4,3.9-1.1,5.2-1.5
			c-0.1,1.6-0.2,3.2-0.2,4.9v6.6h0.1c1.3-1.8,3.5-2.7,5.6-2.7c4,0,7.6,3,7.6,8.2c0,4.4-3.1,8.7-8.2,8.7c-2.6,0-4.8-0.7-6.3-2.3
			l-1.7,2h-0.4c0.1-1,0.2-2,0.2-2.9L636.9,213.6L636.9,213.6z M645.1,221.3c-3.4,0-5.3,2.5-5.3,6.4c0,4.4,1.8,6.4,4.8,6.4
			c3.6,0,5.4-3.2,5.4-6.4C650.1,223.1,647.7,221.3,645.1,221.3z"/>
		<path fill="#B20933" d="M657.7,222.5c0-1.2-0.4-1.5-1.6-1.5v-0.3c1.5-0.4,3.4-1.1,4.6-1.6c-0.1,0.8-0.1,1.9-0.1,3.1h0.1
			c0.9-1.7,2.6-2.8,4.3-2.8c0.7,0,1.1,0.1,1.3,0.3c0.1,0.8,0.1,1.7,0.1,2.9c-0.8-0.5-1.2-0.8-2.2-0.8c-2.2,0-3.6,2-3.6,4.2v7.9
			c0,0.8,0.9,1.2,1.9,1.3v0.5c-1.2-0.1-2.1-0.2-3.3-0.2c-1.2,0-2.2,0.1-3.3,0.2v-0.5c1-0.1,1.9-0.5,1.9-1.3L657.7,222.5L657.7,222.5
			z"/>
		<path fill="#B20933" d="M669,220.1c1.7-0.7,3.4-1,5.2-1c3.8,0,6.5,1.6,6.5,6v8.1c0,1.1,0.1,1.9,1.4,2v0.5
			c-0.7-0.1-1.4-0.2-2.1-0.2c-0.7,0-1.3,0.1-2,0.2v-3.3h-0.1c-1.2,2.5-3,3.6-5.8,3.6c-3,0-5.1-1.6-5.1-4.6c0-2.8,1.8-4.4,5.3-4.9
			l4.9-0.6c0.7-0.1,0.7-0.7,0.7-1.2c0-2.4-1.3-3.6-3.8-3.6c-2.3,0-4,0.8-5,2.8h-0.4L669,220.1z M673.5,228.2
			c-2.4,0.4-3.4,1.4-3.4,3.1c0,1.9,1.3,2.7,3.1,2.7c3.3,0,4.6-3.5,4.6-5.8v-0.7L673.5,228.2z"/>
		<path fill="#B20933" d="M686,213.6c0-0.8-0.3-1-1.2-1.2c-0.2-0.1-0.5-0.1-0.8-0.2v-0.3c1.6-0.4,3.9-1.1,5.2-1.5
			c-0.1,1.6-0.2,3.2-0.2,4.9v18.7c0,0.8,0.9,1.2,1.9,1.3v0.5c-1.2-0.1-2.1-0.2-3.3-0.2c-1.2,0-2.2,0.1-3.3,0.2v-0.5
			c1-0.1,1.9-0.5,1.9-1.3L686,213.6L686,213.6z"/>
		<path fill="#B20933" d="M704,215.6c0-1-0.4-1.2-1.8-1.4v-0.5h10.1c4.5,0,6.8,2.6,6.8,6.4c0,4.2-3.3,6.9-7.9,6.9
			c-0.8,0-2.7-0.3-3.3-0.9c-0.1-0.1-0.2-0.2-0.2-0.3c0-0.2,0.2-0.3,0.5-0.3h2.1c3.2,0,5.7-1.8,5.7-5c0-4.4-3.1-5.1-7.7-5.1h-0.9
			v18.4c0,1,0.4,1.2,1.8,1.4v0.5c-0.7,0-2.1-0.2-3.4-0.2c-1.3,0-2.7,0.2-3.4,0.2v-0.5c1.3-0.2,1.8-0.5,1.8-1.4L704,215.6L704,215.6
			L704,215.6z"/>
		<path fill="#B20933" d="M722.6,220.1c1.7-0.7,3.4-1,5.2-1c3.7,0,6.5,1.6,6.5,6v8.1c0,1.1,0.1,1.9,1.4,2v0.5
			c-0.7-0.1-1.4-0.2-2.1-0.2c-0.7,0-1.3,0.1-2,0.2v-3.3h-0.1c-1.2,2.5-3,3.6-5.7,3.6c-3,0-5.1-1.6-5.1-4.6c0-2.8,1.8-4.4,5.3-4.9
			l4.9-0.6c0.7-0.1,0.7-0.7,0.7-1.2c0-2.4-1.3-3.6-3.7-3.6c-2.3,0-4,0.8-5,2.8h-0.4L722.6,220.1z M727,228.2
			c-2.4,0.4-3.4,1.4-3.4,3.1c0,1.9,1.3,2.7,3.1,2.7c3.3,0,4.6-3.5,4.6-5.8v-0.7L727,228.2z"/>
		<path fill="#B20933" d="M739.6,213.6c0-0.8-0.3-1-1.2-1.2c-0.2-0.1-0.5-0.1-0.8-0.2v-0.3c1.6-0.4,3.9-1.1,5.2-1.5
			c-0.1,1.6-0.2,3.2-0.2,4.9v18.7c0,0.8,0.9,1.2,1.9,1.3v0.5c-1.2-0.1-2.1-0.2-3.3-0.2c-1.2,0-2.2,0.1-3.3,0.2v-0.5
			c1-0.1,1.9-0.5,1.9-1.3L739.6,213.6L739.6,213.6z"/>
		<path fill="#B20933" d="M747.1,231.3h0.4c1.2,2.6,3.3,3.1,5.5,3.1c2.6,0,4-1.1,4-2.6c0-1.8-0.9-2.1-4.9-2.9
			c-3.2-0.7-5.1-2-5.1-4.5c0-3.1,2.7-5.2,7.1-5.2c1.5,0,3,0.4,4.5,0.7v3.9h-0.5c-0.6-1.9-2.3-2.8-4.2-2.8c-2.5,0-4.1,1-4.1,2.9
			c0,1.6,1.5,2,4.5,2.6c3.6,0.7,5.3,1.6,5.3,4.6c0,3.2-2.6,5.1-7.2,5.1c-1.7,0-3.5-0.4-5-1.2L747.1,231.3z"/>
		<path fill="#B20933" d="M762.4,220.8c-0.2-0.6-1-0.8-1.6-0.8v-0.5c1.3,0.1,2.3,0.2,3.5,0.2c1.2,0,2.3-0.1,3.3-0.2v0.5
			c-0.6,0.1-1.6,0.2-1.6,1c0,0.3,0.1,0.8,1.6,4.5l2.6,6.7h0.1l1.3-3.7c2.1-6.1,2.3-6.8,2.3-7.2c0-0.9-0.7-1.2-1.4-1.3v-0.5
			c1,0.1,2,0.2,3,0.2c0.7,0,1.4-0.1,2.1-0.2v0.5c-1.1,0.1-1.4,0.7-1.8,1.7l-5.2,14c-0.7,1.9-1.3,3-2,4.3c-0.6,1.2-2.2,2.2-3.5,2.2
			c-0.6,0-1.1-0.1-1.6-0.2l-0.2-3.9h0.4c0.2,0.8,0.5,1.6,1.4,1.6c1,0.1,1.7-0.4,2.3-1.3c0.7-1.1,1.1-1.8,1.1-2.5
			c0-0.2-0.6-1.5-1.9-4.8L762.4,220.8z"/>
		<path fill="#B20933" d="M781.7,231.7v1c0,0.9-0.4,3.3-1,4.5c-1,2.1-1.8,2.7-2,2.7c-0.2,0-0.4-0.1-0.4-0.3c0-0.2,0.6-1.6,0.6-3.2
			c0-1.6-0.3-3.1-0.6-4.7L781.7,231.7L781.7,231.7z"/>
		<path fill="#B20933" d="M168.1,254.8c1.4,0,2.8,0.2,4.2,0.2c1,0,2-0.2,3-0.2v0.5c-1.3,0-1.8,0.3-1.8,1c0,0.4,0.2,1.1,0.4,1.5
			l5.5,15.3h0.1l4.9-14.8c0.3-0.9,0.4-1.5,0.4-1.9c0-0.7-0.9-0.9-1.6-1v-0.5c1,0,2.1,0.2,3.1,0.2c0.9,0,1.7-0.2,2.6-0.2v0.5
			c-1.1,0.1-1.7,0.8-2.1,1.9l-6.7,19.9h-2.3l-7.6-20.2c-0.3-0.8-0.6-1.4-2.1-1.5L168.1,254.8L168.1,254.8L168.1,254.8z"/>
		<path fill="#B20933" d="M192.1,263.7c0-0.9-0.4-1.1-1.5-1.3c-0.2,0-0.3-0.1-0.6-0.1V262c1.8-0.4,3.5-1,5.2-1.5
			c-0.1,1.1-0.2,2.4-0.2,3.5v11.3c0,0.8,0.9,1.2,1.9,1.3v0.5c-1.2-0.1-2.1-0.2-3.3-0.2c-1.2,0-2.2,0.1-3.3,0.2v-0.5
			c1-0.1,1.9-0.5,1.9-1.3L192.1,263.7L192.1,263.7L192.1,263.7z M193.7,254.1c1.1,0,2,0.9,2,2c0,1.1-0.9,2-2,2c-1.1,0-2-0.9-2-2
			C191.7,255,192.6,254.1,193.7,254.1z"/>
		<path fill="#B20933" d="M199.7,272.6h0.4c1.2,2.6,3.3,3.1,5.5,3.1c2.6,0,4-1.1,4-2.6c0-1.8-0.9-2.1-4.9-2.9
			c-3.2-0.6-5.1-2-5.1-4.5c0-3.1,2.7-5.2,7.1-5.2c1.5,0,3,0.4,4.5,0.7v3.9h-0.5c-0.6-1.9-2.3-2.8-4.2-2.8c-2.5,0-4.1,1-4.1,2.9
			c0,1.6,1.5,2,4.5,2.6c3.6,0.7,5.3,1.6,5.3,4.6c0,3.2-2.7,5.1-7.2,5.1c-1.7,0-3.5-0.4-5-1.2L199.7,272.6z"/>
		<path fill="#B20933" d="M216.6,263.7c0-0.9-0.4-1.1-1.5-1.3c-0.2,0-0.3-0.1-0.5-0.1V262c1.8-0.4,3.5-1,5.2-1.5
			c-0.1,1.1-0.2,2.4-0.2,3.5v11.3c0,0.8,0.9,1.2,1.9,1.3v0.5c-1.2-0.1-2.1-0.2-3.3-0.2c-1.2,0-2.2,0.1-3.3,0.2v-0.5
			c1-0.1,1.9-0.5,1.9-1.3L216.6,263.7L216.6,263.7L216.6,263.7z M218.1,254.1c1.1,0,2,0.9,2,2c0,1.1-0.9,2-2,2s-2-0.9-2-2
			C216.1,255,217,254.1,218.1,254.1z"/>
		<path fill="#B20933" d="M232.3,260.4c5.2,0,8.1,4.2,8.1,8.5c0,5.4-3.6,8.5-8.4,8.5c-4.8,0-8.1-3.6-8.1-8.6
			C224,264,227.5,260.4,232.3,260.4z M232.5,275.4c3.3,0,4.9-2.9,4.9-5.9c0-3-1.4-7.2-5.3-7.2c-2.3,0-5.2,1.5-5.2,5.8
			C226.9,271.7,228.7,275.4,232.5,275.4z"/>
		<path fill="#B20933" d="M244.6,263.8c0-1.2-0.4-1.5-1.6-1.5V262c1.5-0.4,3.4-1.1,4.6-1.5c-0.1,0.8-0.1,1.9-0.1,2.8h0.1
			c0.9-1.7,2.5-2.8,4.4-2.8c3.3,0,5.5,1.9,5.5,6.1v8.4c0,1,0.3,1.5,1.6,1.6v0.5c-0.7-0.1-1.6-0.2-2.4-0.2c-0.6,0-1.8,0.1-2.4,0.2
			c0.1-0.7,0.2-1.5,0.2-2.2v-8.8c0-2.5-1.3-3.4-2.9-3.4c-2.3,0-4.1,2-4.1,4.9v7.7c0,0.8,0.9,1.2,1.9,1.3v0.5
			c-1.2-0.1-2.1-0.2-3.3-0.2c-1.2,0-2.2,0.1-3.3,0.2v-0.5c1-0.1,1.9-0.5,1.9-1.3L244.6,263.8L244.6,263.8L244.6,263.8z"/>
		<path fill="#B20933" d="M272.5,256.7c0-1-0.4-1.2-1.8-1.4v-0.5c0.7,0,2.1,0.2,3.4,0.2c1.3,0,2.7-0.2,3.9-0.2v0.5
			c-1.8,0.1-2.2,0.7-2.2,1.4v18.2h6.5c3.2,0,4.1-0.9,4.4-4.1h0.6c-0.2,2-0.2,4-0.3,6h-16.4v-0.5c1.3-0.2,1.8-0.5,1.8-1.4
			L272.5,256.7L272.5,256.7z"/>
		<path fill="#B20933" d="M297.5,260.4c5.2,0,8.1,4.2,8.1,8.5c0,5.4-3.6,8.5-8.4,8.5c-4.8,0-8.1-3.6-8.1-8.6
			C289.1,264,292.6,260.4,297.5,260.4z M297.7,275.4c3.3,0,4.9-2.9,4.9-5.9c0-3-1.4-7.2-5.3-7.2c-2.3,0-5.2,1.5-5.2,5.8
			C292.1,271.7,293.9,275.4,297.7,275.4z"/>
		<path fill="#B20933" d="M308.2,272.6h0.4c1.2,2.6,3.3,3.1,5.5,3.1c2.6,0,4-1.1,4-2.6c0-1.8-0.9-2.1-4.9-2.9
			c-3.2-0.6-5.1-2-5.1-4.5c0-3.1,2.6-5.2,7.1-5.2c1.5,0,3,0.4,4.5,0.7v3.9h-0.5c-0.6-1.9-2.3-2.8-4.2-2.8c-2.5,0-4.1,1-4.1,2.9
			c0,1.6,1.5,2,4.5,2.6c3.6,0.7,5.3,1.6,5.3,4.6c0,3.2-2.7,5.1-7.2,5.1c-1.7,0-3.5-0.4-5-1.2L308.2,272.6z"/>
		<path fill="#B20933" d="M323.3,272.6h0.4c1.2,2.6,3.3,3.1,5.5,3.1c2.6,0,4-1.1,4-2.6c0-1.8-0.9-2.1-4.9-2.9
			c-3.2-0.6-5.1-2-5.1-4.5c0-3.1,2.7-5.2,7.1-5.2c1.5,0,3,0.4,4.5,0.7v3.9h-0.5c-0.6-1.9-2.3-2.8-4.2-2.8c-2.5,0-4.1,1-4.1,2.9
			c0,1.6,1.5,2,4.5,2.6c3.6,0.7,5.3,1.6,5.3,4.6c0,3.2-2.7,5.1-7.2,5.1c-1.7,0-3.5-0.4-5-1.2L323.3,272.6z"/>
		<path fill="#B20933" d="M348.5,261.4c1.7-0.7,3.4-1,5.2-1c3.8,0,6.5,1.6,6.5,6v8.1c0,1.1,0.1,1.9,1.4,2v0.5
			c-0.7-0.1-1.4-0.2-2.1-0.2c-0.7,0-1.3,0.1-2,0.2v-3.3h-0.1c-1.2,2.5-3,3.6-5.7,3.6c-3,0-5.1-1.5-5.1-4.6c0-2.8,1.8-4.4,5.3-4.9
			l4.9-0.6c0.7-0.1,0.7-0.7,0.7-1.2c0-2.4-1.3-3.6-3.8-3.6c-2.3,0-4,0.8-5,2.8h-0.4L348.5,261.4z M352.9,269.5
			c-2.4,0.4-3.4,1.4-3.4,3.1c0,1.9,1.3,2.7,3.1,2.7c3.3,0,4.6-3.5,4.6-5.8v-0.7L352.9,269.5z"/>
		<path fill="#B20933" d="M365.3,263.8c0-1.2-0.4-1.5-1.6-1.5V262c1.5-0.4,3.4-1.1,4.6-1.5c-0.1,0.8-0.1,1.9-0.1,2.8h0.1
			c0.9-1.7,2.5-2.8,4.4-2.8c3.3,0,5.5,1.9,5.5,6.1v8.4c0,1,0.3,1.5,1.6,1.6v0.5c-0.7-0.1-1.6-0.2-2.4-0.2c-0.6,0-1.8,0.1-2.4,0.2
			c0.1-0.7,0.2-1.5,0.2-2.2v-8.8c0-2.5-1.3-3.4-2.9-3.4c-2.3,0-4.1,2-4.1,4.9v7.7c0,0.8,0.9,1.2,1.9,1.3v0.5
			c-1.2-0.1-2.1-0.2-3.3-0.2c-1.2,0-2.2,0.1-3.3,0.2v-0.5c1-0.1,1.9-0.5,1.9-1.3L365.3,263.8L365.3,263.8L365.3,263.8z"/>
		<path fill="#B20933" d="M400.8,277c-0.8-0.1-1.6-0.2-2.3-0.2s-1.5,0.1-2.2,0.2v-2.7h-0.1c-1.5,2.4-3.5,3.1-6.1,3.1
			c-2.6,0-7.4-2.1-7.4-8.1c0-6.1,4.9-8.8,8.4-8.8c2.1,0,3.8,0.9,5.1,2.7h0.1v-8.2c0-0.8-0.3-1-1.2-1.2c-0.2-0.1-0.5-0.1-0.8-0.2
			v-0.3c1.6-0.4,3.9-1.1,5.2-1.5c-0.1,1.6-0.2,3.2-0.2,4.9v18.9c0,0.6,0.2,1,1.6,1.1L400.8,277L400.8,277z M385.9,269
			c0,3.4,2.3,6.4,5.5,6.4c2.8,0,4.9-2,4.9-6.4c0-4.9-2.6-6.5-5.2-6.5C388.9,262.6,385.9,263.9,385.9,269z"/>
		<path fill="#B20933" d="M412.2,276.5c1.3-0.2,1.8-0.5,1.8-1.4v-18.4c0-1-0.4-1.2-1.8-1.4v-0.5c0.7,0,2.1,0.2,3.4,0.2
			c1.3,0,2.7-0.2,3.4-0.2v0.5c-1.3,0.2-1.8,0.5-1.8,1.4v7.6h10.9v-7.6c0-1-0.4-1.2-1.8-1.4v-0.5c0.7,0,2.1,0.2,3.4,0.2
			s2.7-0.2,3.4-0.2v0.5c-1.3,0.2-1.8,0.5-1.8,1.4v18.4c0,1,0.4,1.2,1.8,1.4v0.5c-0.7,0-2.1-0.2-3.4-0.2s-2.7,0.2-3.4,0.2v-0.5
			c1.3-0.2,1.8-0.5,1.8-1.4v-8.7h-10.9v8.7c0,1,0.4,1.2,1.8,1.4v0.5c-0.7,0-2.1-0.2-3.4-0.2c-1.3,0-2.7,0.2-3.4,0.2
			C412.2,277,412.2,276.5,412.2,276.5z"/>
		<path fill="#B20933" d="M439.5,268.3c0,3.9,2.7,6.7,6.6,6.7c1.8,0,2.8-0.3,5.6-2.3l-0.2,2.2c-1.6,1.5-4.1,2.4-7.1,2.4
			c-4.8,0-8.1-3.6-8.1-8.6c0-4.8,3.5-8.4,8.3-8.4c5.2,0,7.9,3.1,7.9,7.9L439.5,268.3L439.5,268.3z M449.1,266.6
			c0-2.7-1.7-4.4-4.4-4.4c-2.6,0-4.7,1.9-5,4.4H449.1z"/>
		<path fill="#B20933" d="M457.2,261.4c1.7-0.7,3.4-1,5.2-1c3.8,0,6.5,1.6,6.5,6v8.1c0,1.1,0.1,1.9,1.4,2v0.5
			c-0.7-0.1-1.4-0.2-2.1-0.2c-0.7,0-1.3,0.1-2,0.2v-3.3h-0.1c-1.2,2.5-3,3.6-5.8,3.6c-3,0-5.1-1.5-5.1-4.6c0-2.8,1.8-4.4,5.3-4.9
			l4.9-0.6c0.7-0.1,0.7-0.7,0.7-1.2c0-2.4-1.3-3.6-3.8-3.6c-2.3,0-4,0.8-5,2.8H457L457.2,261.4z M461.6,269.5
			c-2.4,0.4-3.4,1.4-3.4,3.1c0,1.9,1.3,2.7,3.1,2.7c3.3,0,4.6-3.5,4.6-5.8v-0.7L461.6,269.5z"/>
		<path fill="#B20933" d="M474,263.8c0-1.2-0.4-1.5-1.6-1.5V262c1.5-0.4,3.4-1.1,4.6-1.5c-0.1,0.8-0.1,1.9-0.1,3.1h0.1
			c0.9-1.7,2.6-2.8,4.3-2.8c0.7,0,1.1,0.1,1.3,0.3c0.1,0.8,0.1,1.7,0.1,2.9c-0.8-0.5-1.2-0.8-2.2-0.8c-2.2,0-3.6,2-3.6,4.2v7.9
			c0,0.8,0.9,1.2,1.9,1.3v0.5c-1.2-0.1-2.1-0.2-3.3-0.2c-1.2,0-2.2,0.1-3.3,0.2v-0.5c1-0.1,1.9-0.5,1.9-1.3L474,263.8L474,263.8
			L474,263.8z"/>
		<path fill="#B20933" d="M485.5,263.7c0-0.9-0.4-1.1-1.5-1.3c-0.2,0-0.3-0.1-0.6-0.1V262c1.8-0.4,3.5-1,5.2-1.5
			c-0.1,1.1-0.2,2.4-0.2,3.5v11.3c0,0.8,0.9,1.2,1.9,1.3v0.5c-1.2-0.1-2.1-0.2-3.3-0.2c-1.2,0-2.2,0.1-3.3,0.2v-0.5
			c1-0.1,1.9-0.5,1.9-1.3L485.5,263.7L485.5,263.7L485.5,263.7z M487,254.1c1.1,0,2,0.9,2,2c0,1.1-0.9,2-2,2c-1.1,0-2-0.9-2-2
			C485,255,485.9,254.1,487,254.1z"/>
		<path fill="#B20933" d="M494.6,263.8c0-1.2-0.4-1.5-1.6-1.5V262c1.5-0.4,3.4-1.1,4.6-1.5c-0.1,0.8-0.1,1.9-0.1,2.8h0.1
			c0.9-1.7,2.5-2.8,4.4-2.8c3.3,0,5.5,1.9,5.5,6.1v8.4c0,1,0.3,1.5,1.6,1.6v0.5c-0.6-0.1-1.6-0.2-2.4-0.2c-0.6,0-1.8,0.1-2.4,0.2
			c0.1-0.7,0.2-1.5,0.2-2.2v-8.8c0-2.5-1.3-3.4-2.9-3.4c-2.3,0-4.1,2-4.1,4.9v7.7c0,0.8,0.9,1.2,1.9,1.3v0.5
			c-1.2-0.1-2.1-0.2-3.3-0.2c-1.2,0-2.2,0.1-3.3,0.2v-0.5c1-0.1,1.9-0.5,1.9-1.3L494.6,263.8L494.6,263.8L494.6,263.8z"/>
		<path fill="#B20933" d="M514.4,270.1c-1-1.1-1.6-2.5-1.6-4c0-2.6,1.9-5.7,6.4-5.7c1,0,2.1,0.1,3.1,0.2c1,0.1,2.1,0.3,3.1,0.3
			c0.6,0,1.2-0.1,1.9-0.2l-0.4,1.7c-0.4,0.1-0.9,0.2-1.4,0.2c-0.6,0-1.2-0.1-1.7-0.2l-0.1,0.1c1,0.9,1.6,2.3,1.6,3.7
			c0,2.8-1.9,5.5-6.7,5.5c-1.1,0-2.2-0.3-3.2-0.9c-1.4,1-1.7,1.3-1.7,2c0,0.6,0.7,1.3,2,1.3h5.7c4.4,0,5.6,2,5.6,4
			c0,3-3.3,5.3-7.6,5.3c-2.4,0-6.1-0.5-6.1-3.6c0-0.6,0.1-0.9,0.4-1.6l2.2-1c-0.2,0.5-0.3,0.9-0.3,1.5c0,2,1.9,3.2,3.8,3.2
			c1.9,0,4.8-0.9,4.8-3.2c0-1.6-1-1.8-2.5-1.8h-5.3c-2.9,0-5.1-0.8-5.2-3.4c0-0.5,0-1.1,0.2-1.5L514.4,270.1z M519.2,270
			c2.1,0,2.9-1.7,2.9-3.4c0-2-1-4.4-3.5-4.4c-1.8,0-2.9,1.4-2.9,3.1C515.8,267.3,516.8,270,519.2,270z"/>
		<path fill="#B20933" d="M539.4,256.7c0-1-0.4-1.2-1.8-1.4v-0.5c0.7,0,2.1,0.2,3.4,0.2c1.3,0,2.7-0.2,3.9-0.2v0.5
			c-1.8,0.1-2.2,0.7-2.2,1.4v18.2h6.5c3.2,0,4.1-0.9,4.4-4.1h0.6c-0.2,2-0.2,4-0.3,6h-16.4v-0.5c1.3-0.2,1.8-0.5,1.8-1.4
			L539.4,256.7L539.4,256.7z"/>
		<path fill="#B20933" d="M564.4,260.4c5.2,0,8.1,4.2,8.1,8.5c0,5.4-3.6,8.5-8.4,8.5c-4.8,0-8.1-3.6-8.1-8.6
			C556.1,264,559.6,260.4,564.4,260.4z M564.7,275.4c3.3,0,4.9-2.9,4.9-5.9c0-3-1.4-7.2-5.3-7.2c-2.3,0-5.2,1.5-5.2,5.8
			C559.1,271.7,560.8,275.4,564.7,275.4z"/>
		<path fill="#B20933" d="M575.1,272.6h0.4c1.2,2.6,3.3,3.1,5.5,3.1c2.6,0,4-1.1,4-2.6c0-1.8-0.9-2.1-4.9-2.9
			c-3.2-0.6-5.1-2-5.1-4.5c0-3.1,2.7-5.2,7.1-5.2c1.5,0,3,0.4,4.5,0.7v3.9h-0.5c-0.6-1.9-2.3-2.8-4.2-2.8c-2.5,0-4.1,1-4.1,2.9
			c0,1.6,1.5,2,4.5,2.6c3.6,0.7,5.3,1.6,5.3,4.6c0,3.2-2.7,5.1-7.2,5.1c-1.7,0-3.5-0.4-5-1.2L575.1,272.6z"/>
		<path fill="#B20933" d="M590.2,272.6h0.4c1.2,2.6,3.3,3.1,5.5,3.1c2.6,0,4-1.1,4-2.6c0-1.8-0.9-2.1-4.9-2.9
			c-3.2-0.6-5.1-2-5.1-4.5c0-3.1,2.6-5.2,7.1-5.2c1.5,0,3,0.4,4.5,0.7v3.9h-0.5c-0.6-1.9-2.3-2.8-4.2-2.8c-2.5,0-4.1,1-4.1,2.9
			c0,1.6,1.5,2,4.5,2.6c3.6,0.7,5.3,1.6,5.3,4.6c0,3.2-2.6,5.1-7.2,5.1c-1.7,0-3.5-0.4-5-1.2L590.2,272.6z"/>
		<path fill="#B20933" d="M615.5,263.7c0-0.9-0.4-1.1-1.5-1.3c-0.2,0-0.3-0.1-0.6-0.1V262c1.8-0.4,3.5-1,5.2-1.5
			c-0.1,1.1-0.2,2.4-0.2,3.5v11.3c0,0.8,0.9,1.2,1.9,1.3v0.5c-1.2-0.1-2.1-0.2-3.3-0.2c-1.2,0-2.2,0.1-3.3,0.2v-0.5
			c1-0.1,1.9-0.5,1.9-1.3L615.5,263.7L615.5,263.7z M617.1,254.1c1.1,0,2,0.9,2,2c0,1.1-0.9,2-2,2c-1.1,0-2-0.9-2-2
			C615.1,255,615.9,254.1,617.1,254.1z"/>
		<path fill="#B20933" d="M624.7,263.8c0-1.2-0.4-1.5-1.6-1.5V262c1.5-0.4,3.4-1.1,4.6-1.5c-0.1,0.8-0.1,1.9-0.1,2.8h0.1
			c0.9-1.7,2.5-2.8,4.4-2.8c3.3,0,5.5,1.9,5.5,6.1v8.4c0,1,0.3,1.5,1.6,1.6v0.5c-0.6-0.1-1.6-0.2-2.4-0.2c-0.6,0-1.8,0.1-2.4,0.2
			c0.1-0.7,0.2-1.5,0.2-2.2v-8.8c0-2.5-1.3-3.4-2.9-3.4c-2.3,0-4.1,2-4.1,4.9v7.7c0,0.8,0.9,1.2,1.9,1.3v0.5
			c-1.2-0.1-2.1-0.2-3.3-0.2c-1.2,0-2.2,0.1-3.3,0.2v-0.5c1-0.1,1.9-0.5,1.9-1.3L624.7,263.8L624.7,263.8L624.7,263.8z"/>
		<path fill="#B20933" d="M668.6,274.7c-1.8,1.8-4.7,2.6-7.6,2.6c-4.5,0-10.6-3.3-10.6-11.4c0-8.4,7.3-11.6,12.1-11.6
			c1.8,0,3.7,0.3,5.2,1.1c0,1.7,0.2,3.4,0.3,5.2h-0.5c-0.7-3.1-3.6-4.1-6-4.1c-4.6,0-8,3.3-8,8.3c0,5.3,3.8,10.2,8.6,10.2
			c2.4,0,4.7-1,6.6-2.2L668.6,274.7z"/>
		<path fill="#B20933" d="M672.8,254.9c0-0.8-0.3-1-1.2-1.2c-0.2-0.1-0.5-0.1-0.8-0.2v-0.3c1.6-0.4,3.9-1.1,5.2-1.5
			c-0.1,1.6-0.2,3.2-0.2,4.9v6.6h0.1c0.9-1.7,2.5-2.8,4.4-2.8c3.3,0,5.5,1.9,5.5,6.1v8.4c0,1,0.3,1.5,1.6,1.6v0.5
			c-0.7-0.1-1.6-0.2-2.4-0.2c-0.6,0-1.8,0.1-2.4,0.2c0.1-0.7,0.2-1.5,0.2-2.2v-8.8c0-2.5-1.3-3.4-2.9-3.4c-2.3,0-4.1,2-4.1,4.9v7.7
			c0,0.8,0.9,1.2,1.9,1.3v0.5c-1.2-0.1-2.1-0.2-3.3-0.2c-1.2,0-2.2,0.1-3.3,0.2v-0.5c1-0.1,1.9-0.5,1.9-1.3L672.8,254.9L672.8,254.9
			L672.8,254.9z"/>
		<path fill="#B20933" d="M691.9,263.7c0-0.9-0.4-1.1-1.5-1.3c-0.2,0-0.3-0.1-0.5-0.1V262c1.8-0.4,3.5-1,5.2-1.5
			c-0.1,1.1-0.2,2.4-0.2,3.5v11.3c0,0.8,0.9,1.2,1.9,1.3v0.5c-1.2-0.1-2.1-0.2-3.3-0.2s-2.2,0.1-3.3,0.2v-0.5c1-0.1,1.9-0.5,1.9-1.3
			L691.9,263.7L691.9,263.7L691.9,263.7z M693.5,254.1c1.1,0,2,0.9,2,2c0,1.1-0.9,2-2,2c-1.1,0-2-0.9-2-2
			C691.5,255,692.4,254.1,693.5,254.1z"/>
		<path fill="#B20933" d="M701.3,254.9c0-0.8-0.3-1-1.2-1.2c-0.2-0.1-0.5-0.1-0.8-0.2v-0.3c1.6-0.4,3.9-1.1,5.2-1.5
			c-0.1,1.6-0.2,3.2-0.2,4.9v18.7c0,0.8,0.9,1.2,1.9,1.3v0.5c-1.2-0.1-2.1-0.2-3.3-0.2c-1.2,0-2.2,0.1-3.3,0.2v-0.5
			c1-0.1,1.9-0.5,1.9-1.3L701.3,254.9L701.3,254.9z"/>
		<path fill="#B20933" d="M727,277c-0.8-0.1-1.5-0.2-2.3-0.2s-1.6,0.1-2.2,0.2v-2.7h-0.1c-1.5,2.4-3.5,3.1-6.1,3.1
			c-2.6,0-7.4-2.1-7.4-8.1c0-6.1,4.9-8.8,8.4-8.8c2.1,0,3.8,0.9,5.1,2.7h0.1v-8.2c0-0.8-0.3-1-1.2-1.2c-0.2-0.1-0.5-0.1-0.8-0.2
			v-0.3c1.6-0.4,3.9-1.1,5.2-1.5c-0.1,1.6-0.2,3.2-0.2,4.9v18.9c0,0.6,0.2,1,1.6,1.1V277z M712.1,269c0,3.4,2.3,6.4,5.5,6.4
			c2.8,0,4.9-2,4.9-6.4c0-4.9-2.6-6.5-5.2-6.5C715,262.6,712.1,263.9,712.1,269z"/>
		<path fill="#B20933" d="M731.2,263.8c0-1.2-0.4-1.5-1.6-1.5V262c1.5-0.4,3.4-1.1,4.6-1.5c-0.1,0.8-0.1,1.9-0.1,3.1h0.1
			c0.9-1.7,2.6-2.8,4.3-2.8c0.7,0,1.1,0.1,1.3,0.3c0.1,0.8,0.1,1.7,0.1,2.9c-0.8-0.5-1.2-0.8-2.2-0.8c-2.2,0-3.6,2-3.6,4.2v7.9
			c0,0.8,0.9,1.2,1.9,1.3v0.5c-1.2-0.1-2.1-0.2-3.3-0.2c-1.2,0-2.2,0.1-3.3,0.2v-0.5c1-0.1,1.9-0.5,1.9-1.3L731.2,263.8L731.2,263.8
			L731.2,263.8z"/>
		<path fill="#B20933" d="M743.9,268.3c0,3.9,2.7,6.7,6.6,6.7c1.8,0,2.8-0.3,5.6-2.3l-0.2,2.2c-1.7,1.5-4.1,2.4-7.1,2.4
			c-4.8,0-8.1-3.6-8.1-8.6c0-4.8,3.5-8.4,8.3-8.4c5.2,0,7.9,3.1,7.9,7.9L743.9,268.3L743.9,268.3z M753.5,266.6
			c0-2.7-1.7-4.4-4.4-4.4c-2.6,0-4.7,1.9-5,4.4H753.5z"/>
		<path fill="#B20933" d="M761.4,263.8c0-1.2-0.4-1.5-1.6-1.5V262c1.5-0.4,3.4-1.1,4.6-1.5c-0.1,0.8-0.1,1.9-0.1,2.8h0.1
			c0.9-1.7,2.5-2.8,4.4-2.8c3.3,0,5.5,1.9,5.5,6.1v8.4c0,1,0.3,1.5,1.6,1.6v0.5c-0.7-0.1-1.6-0.2-2.4-0.2c-0.6,0-1.8,0.1-2.4,0.2
			c0.1-0.7,0.2-1.5,0.2-2.2v-8.8c0-2.5-1.3-3.4-2.9-3.4c-2.3,0-4.1,2-4.1,4.9v7.7c0,0.8,0.9,1.2,1.9,1.3v0.5
			c-1.2-0.1-2.1-0.2-3.3-0.2c-1.2,0-2.2,0.1-3.3,0.2v-0.5c1-0.1,1.9-0.5,1.9-1.3L761.4,263.8L761.4,263.8L761.4,263.8z"/>
	</g>
</g>
</svg>
