<?xml version="1.0" encoding="utf-8"?>
<!-- Generator: Adobe Illustrator 23.0.3, SVG Export Plug-In . SVG Version: 6.00 Build 0)  -->
<svg version="1.1" id="Layer_1" xmlns="http://www.w3.org/2000/svg" xmlns:xlink="http://www.w3.org/1999/xlink" x="0px" y="0px"
	 width="1474.7px" height="283.5px" viewBox="0 0 1474.7 283.5" enable-background="new 0 0 1474.7 283.5" xml:space="preserve">
<path fill="#B51A82" d="M730.2,41.7C702.3,13.9,669.1,0,630.3,0C591.4,0,558,13.9,530.2,41.7c-27.7,27.7-41.5,61-41.5,100.1
	c0,38.9,13.8,72.2,41.5,99.9c27.8,27.8,61.2,41.7,100.1,41.7c38.7,0,72-13.9,99.9-41.7c27.8-27.8,41.8-61.1,41.8-99.9
	C771.9,102.9,758,69.6,730.2,41.7z M630,258.5c-64.4,0-116.7-52.4-116.7-116.7C513.2,77.4,565.6,25,630,25
	c64.4,0,116.7,52.4,116.7,116.7C746.7,206.1,694.4,258.5,630,258.5z"/>
<g>
	<path fill="#009590" d="M844.6,212.6c0,4.1-1.5,7.6-4.4,10.5c-2.9,2.9-6.4,4.4-10.5,4.4c-4.1,0-7.6-1.5-10.5-4.4
		c-2.9-2.9-4.4-6.4-4.4-10.5c0-4.1,1.5-7.6,4.4-10.5c3-3,6.5-4.4,10.5-4.4c4.1,0,7.6,1.5,10.5,4.4
		C843.1,205.1,844.6,208.6,844.6,212.6z M840.5,212.6c0-3-1.1-5.6-3.2-7.7c-2.2-2.2-4.7-3.2-7.7-3.2c-3,0-5.6,1.1-7.7,3.2
		c-2.2,2.2-3.2,4.7-3.2,7.7s1.1,5.6,3.2,7.7s4.7,3.2,7.7,3.2c3,0,5.6-1.1,7.7-3.2S840.5,215.6,840.5,212.6z"/>
	<path fill="#009590" d="M874.6,214.5c0,3.6-1.3,6.7-3.9,9.2c-2.6,2.6-5.7,3.8-9.3,3.8c-3.7,0-6.7-1.3-9.1-4v9.3
		c0,0.5-0.2,1-0.6,1.4c-0.4,0.4-0.9,0.6-1.4,0.6c-0.5,0-1-0.2-1.4-0.6c-0.4-0.4-0.6-0.9-0.6-1.4v-29.5c0-0.5,0.2-1,0.6-1.4
		c0.4-0.4,0.9-0.6,1.4-0.6c0.5,0,1,0.2,1.4,0.6c0.4,0.4,0.6,0.9,0.6,1.4v2.1c2.4-2.7,5.5-4.1,9.1-4.1c3.6,0,6.7,1.3,9.3,3.9
		C873.3,207.8,874.6,210.9,874.6,214.5z M870.6,214.5c0-2.5-0.9-4.7-2.7-6.4c-1.8-1.8-3.9-2.7-6.4-2.7c-2.5,0-4.7,0.9-6.5,2.7
		c-1.8,1.8-2.7,3.9-2.7,6.4c0,2.5,0.9,4.6,2.7,6.4c1.8,1.8,4,2.7,6.5,2.7c2.5,0,4.6-0.9,6.4-2.7C869.7,219.1,870.6,217,870.6,214.5z
		"/>
	<path fill="#009590" d="M892.3,225.6c0,0.5-0.2,1-0.6,1.4c-0.4,0.4-0.9,0.6-1.4,0.6h-8c-0.5,0-1-0.2-1.4-0.6
		c-0.4-0.4-0.6-0.8-0.6-1.4v-20.2H877c-0.3,0-0.5-0.1-0.8-0.2c-0.2-0.1-0.5-0.3-0.6-0.4c-0.2-0.2-0.3-0.4-0.4-0.6
		c-0.1-0.2-0.2-0.5-0.2-0.8c0-0.5,0.2-1,0.6-1.4c0.4-0.4,0.9-0.6,1.4-0.6h3.3v-1.6c0-0.3,0.1-0.5,0.2-0.7c0.1-0.2,0.3-0.5,0.4-0.6
		c0.2-0.2,0.4-0.3,0.6-0.4c0.2-0.1,0.5-0.2,0.7-0.2c0.5,0,1,0.2,1.4,0.6c0.4,0.4,0.6,0.9,0.6,1.4v1.6h3.3c0.5,0,1,0.2,1.4,0.6
		c0.4,0.4,0.6,0.9,0.6,1.4c0,0.5-0.2,1-0.6,1.4c-0.4,0.4-0.9,0.6-1.4,0.6h-3.3v18.2h6c0.5,0,1,0.2,1.4,0.6
		C892.1,224.6,892.3,225.1,892.3,225.6z"/>
	<path fill="#009590" d="M898.6,225.6c0,0.3-0.1,0.5-0.2,0.8c-0.1,0.2-0.3,0.5-0.4,0.6c-0.2,0.2-0.4,0.3-0.6,0.4
		c-0.2,0.1-0.5,0.1-0.8,0.1c-0.5,0-1-0.2-1.4-0.6c-0.4-0.4-0.6-0.8-0.6-1.4v-22.3c0-0.5,0.2-1,0.6-1.4c0.4-0.4,0.9-0.6,1.4-0.6
		s1,0.2,1.4,0.6c0.4,0.4,0.6,0.9,0.6,1.4V225.6z"/>
	<path fill="#009590" d="M938.7,225.6c0,0.5-0.2,1-0.6,1.4c-0.4,0.4-0.9,0.6-1.4,0.6c-0.3,0-0.5,0-0.8-0.1c-0.2-0.1-0.5-0.2-0.6-0.4
		c-0.2-0.2-0.3-0.4-0.4-0.6c-0.1-0.2-0.2-0.5-0.2-0.8v-14.4c0-1.6-0.6-3-1.7-4.1c-1.2-1.2-2.5-1.7-4.1-1.7c-1.6,0-3,0.6-4.1,1.7
		c-1.2,1.2-1.7,2.5-1.7,4.1v14.4c0,0.3-0.1,0.5-0.2,0.8c-0.1,0.2-0.3,0.5-0.4,0.6c-0.2,0.2-0.4,0.3-0.6,0.4
		c-0.2,0.1-0.5,0.1-0.8,0.1c-0.3,0-0.5,0-0.8-0.1c-0.2-0.1-0.5-0.2-0.6-0.4c-0.2-0.2-0.3-0.4-0.4-0.6c-0.1-0.2-0.2-0.5-0.2-0.8
		v-14.4c0-1.6-0.6-3-1.7-4.1c-1.1-1.2-2.5-1.7-4.1-1.7c-1.6,0-2.9,0.6-4.1,1.7c-1.1,1.2-1.7,2.5-1.7,4.1v14.4c0,0.3-0.1,0.5-0.2,0.8
		c-0.1,0.2-0.3,0.5-0.4,0.6c-0.2,0.2-0.4,0.3-0.6,0.4c-0.2,0.1-0.5,0.1-0.8,0.1c-0.5,0-1-0.2-1.4-0.6c-0.4-0.4-0.6-0.8-0.6-1.4
		v-22.3c0-0.5,0.2-1,0.6-1.4c0.4-0.4,0.9-0.6,1.4-0.6c0.6,0,1.1,0.2,1.5,0.6c0.4,0.4,0.6,0.9,0.6,1.5c1.7-1.4,3.6-2.2,5.8-2.2
		c1.6,0,3.2,0.4,4.6,1.3c1.4,0.8,2.5,2,3.3,3.4c0.8-1.4,1.9-2.6,3.3-3.4c1.4-0.8,2.9-1.3,4.6-1.3c2.7,0,5,1,6.9,2.9
		c1.9,1.9,2.9,4.3,2.9,6.9V225.6z"/>
	<path fill="#009590" d="M947.4,225.6c0,0.3-0.1,0.5-0.2,0.8c-0.1,0.2-0.3,0.5-0.4,0.6c-0.2,0.2-0.4,0.3-0.6,0.4s-0.5,0.1-0.8,0.1
		c-0.5,0-1-0.2-1.4-0.6c-0.4-0.4-0.6-0.8-0.6-1.4v-22.3c0-0.5,0.2-1,0.6-1.4c0.4-0.4,0.9-0.6,1.4-0.6c0.5,0,1,0.2,1.4,0.6
		c0.4,0.4,0.6,0.9,0.6,1.4V225.6z"/>
	<path fill="#009590" d="M966.1,220c0,2.1-0.7,3.8-2.2,5.3c-1.5,1.5-3.3,2.2-5.3,2.2c-1.4,0-2.6-0.3-3.8-0.9
		c-1.3-0.7-2.2-1.7-2.7-2.8c-0.2-0.4-0.3-0.7-0.3-1c0-0.3,0-0.5,0.2-0.8c0.1-0.2,0.2-0.5,0.4-0.6c0.2-0.2,0.4-0.3,0.6-0.4
		c0.2-0.1,0.5-0.1,0.8-0.1c0.6,0,1.3,0.5,2.1,1.4c0.9,0.9,1.8,1.4,2.7,1.4c0.9,0,1.7-0.4,2.5-1.1c0.7-0.7,1.1-1.5,1.1-2.5
		c0-0.9-0.4-1.7-1.1-2.5c-0.7-0.7-1.5-1.1-2.5-1.1c-2.1,0-3.8-0.7-5.3-2.2c-1.5-1.5-2.2-3.3-2.2-5.3s0.7-3.8,2.2-5.3
		c1.5-1.5,3.2-2.2,5.3-2.2c1.3,0,2.6,0.3,3.8,1c1.2,0.7,2.1,1.7,2.7,2.8c0.2,0.3,0.3,0.7,0.3,1c0,0.5-0.2,1-0.6,1.4
		s-0.9,0.6-1.4,0.6c-0.5,0-1.2-0.5-2.1-1.4c-0.8-0.9-1.8-1.4-2.7-1.4c-1,0-1.8,0.4-2.5,1.1c-0.7,0.7-1,1.5-1,2.5c0,1,0.4,1.8,1,2.5
		s1.5,1,2.5,1c2.1,0,3.8,0.7,5.3,2.2C965.3,216.2,966.1,217.9,966.1,220z"/>
	<path fill="#009590" d="M973.7,225.6c0,0.3-0.1,0.5-0.2,0.8c-0.1,0.2-0.3,0.5-0.4,0.6c-0.2,0.2-0.4,0.3-0.6,0.4
		c-0.2,0.1-0.5,0.1-0.8,0.1c-0.5,0-1-0.2-1.4-0.6c-0.4-0.4-0.6-0.8-0.6-1.4v-22.3c0-0.5,0.2-1,0.6-1.4c0.4-0.4,0.9-0.6,1.4-0.6
		c0.5,0,1,0.2,1.4,0.6c0.4,0.4,0.6,0.9,0.6,1.4V225.6z"/>
	<path fill="#009590" d="M1004.7,225.6c0,0.3-0.1,0.5-0.2,0.8c-0.1,0.2-0.3,0.5-0.4,0.6c-0.2,0.2-0.4,0.3-0.6,0.4
		c-0.2,0.1-0.5,0.1-0.8,0.1c-0.5,0-1-0.2-1.4-0.6c-0.4-0.4-0.6-0.8-0.6-1.4v-11.1c0-2.5-0.9-4.7-2.7-6.4c-1.8-1.8-3.9-2.7-6.4-2.7
		c-2.5,0-4.7,0.9-6.5,2.7c-1.8,1.8-2.7,3.9-2.7,6.4v11.1c0,0.3-0.1,0.5-0.2,0.8c-0.1,0.2-0.3,0.5-0.4,0.6c-0.2,0.2-0.4,0.3-0.6,0.4
		c-0.2,0.1-0.5,0.1-0.8,0.1c-0.5,0-1-0.2-1.4-0.6c-0.4-0.4-0.6-0.8-0.6-1.4v-22.3c0-0.5,0.2-1,0.6-1.4c0.4-0.4,0.9-0.6,1.4-0.6
		c0.5,0,1,0.2,1.4,0.6c0.4,0.4,0.6,0.9,0.6,1.4v2.1c2.4-2.7,5.6-4.1,9.4-4.1c3.5,0,6.5,1.3,9,3.9c2.5,2.6,3.8,5.7,3.8,9.2V225.6z"/>
	<path fill="#009590" d="M1034.2,232.9c0,0.3-0.1,0.5-0.2,0.7c-0.1,0.2-0.3,0.5-0.4,0.6c-0.2,0.2-0.4,0.3-0.6,0.4
		c-0.2,0.1-0.5,0.2-0.8,0.2h-15c-0.5,0-1-0.2-1.4-0.6c-0.4-0.4-0.6-0.9-0.6-1.4c0-0.3,0.1-0.5,0.2-0.8c0.1-0.2,0.3-0.5,0.4-0.6
		c0.2-0.2,0.4-0.3,0.6-0.4c0.2-0.1,0.5-0.2,0.8-0.2h13v-7.3c-2.4,2.7-5.5,4-9.1,4c-3.6,0-6.7-1.3-9.3-3.8c-2.6-2.6-3.8-5.6-3.8-9.2
		s1.3-6.7,3.8-9.3c2.6-2.6,5.7-3.9,9.3-3.9c3.6,0,6.7,1.4,9.1,4.1v-2.1c0-0.5,0.2-1,0.6-1.4c0.4-0.4,0.9-0.6,1.4-0.6
		c0.3,0,0.5,0.1,0.8,0.2c0.2,0.1,0.5,0.3,0.6,0.4c0.2,0.2,0.3,0.4,0.4,0.6c0.1,0.2,0.2,0.5,0.2,0.7V232.9z M1030.2,214.5
		c0-2.5-0.9-4.7-2.7-6.4c-1.8-1.8-3.9-2.7-6.4-2.7c-2.5,0-4.7,0.9-6.5,2.7c-1.8,1.8-2.7,3.9-2.7,6.4c0,2.5,0.9,4.6,2.7,6.4
		c1.8,1.8,4,2.7,6.5,2.7c2.5,0,4.7-0.9,6.4-2.7C1029.3,219.1,1030.2,217,1030.2,214.5z"/>
	<path fill="#009590" d="M1059,225.6c0,0.3-0.1,0.5-0.2,0.8c-0.1,0.2-0.3,0.5-0.4,0.6c-0.2,0.2-0.4,0.3-0.6,0.4s-0.5,0.1-0.8,0.1
		c-0.5,0-1-0.2-1.4-0.6c-0.4-0.4-0.6-0.8-0.6-1.4v-25.9c0-0.3,0.1-0.5,0.2-0.7c0.1-0.2,0.3-0.5,0.4-0.6s0.4-0.3,0.6-0.4
		c0.2-0.1,0.5-0.2,0.7-0.2c0.5,0,1,0.2,1.4,0.6c0.4,0.4,0.6,0.9,0.6,1.4V225.6z"/>
	<path fill="#009590" d="M1089.8,225.6c0,0.3-0.1,0.5-0.2,0.8c-0.1,0.2-0.3,0.5-0.4,0.6c-0.2,0.2-0.4,0.3-0.6,0.4
		c-0.2,0.1-0.5,0.1-0.8,0.1c-0.5,0-1-0.2-1.4-0.6c-0.4-0.4-0.6-0.8-0.6-1.4v-2.1c-2.4,2.7-5.6,4-9.4,4c-3.5,0-6.6-1.3-9-3.9
		c-2.5-2.6-3.8-5.7-3.8-9.2v-11.1c0-0.5,0.2-1,0.6-1.4c0.4-0.4,0.9-0.6,1.4-0.6c0.5,0,1,0.2,1.4,0.6c0.4,0.4,0.6,0.9,0.6,1.4v11.1
		c0,2.5,0.9,4.6,2.7,6.4c1.8,1.8,4,2.7,6.5,2.7c2.5,0,4.6-0.9,6.4-2.7c1.8-1.8,2.7-3.9,2.7-6.4v-11.1c0-0.5,0.2-1,0.6-1.4
		c0.4-0.4,0.9-0.6,1.4-0.6c0.5,0,1,0.2,1.4,0.6c0.4,0.4,0.6,0.9,0.6,1.4V225.6z"/>
	<path fill="#009590" d="M1129.9,225.6c0,0.5-0.2,1-0.6,1.4c-0.4,0.4-0.9,0.6-1.4,0.6c-0.3,0-0.5,0-0.8-0.1
		c-0.2-0.1-0.5-0.2-0.6-0.4c-0.2-0.2-0.3-0.4-0.4-0.6c-0.1-0.2-0.2-0.5-0.2-0.8v-14.4c0-1.6-0.6-3-1.7-4.1c-1.2-1.2-2.5-1.7-4.1-1.7
		c-1.6,0-3,0.6-4.1,1.7c-1.2,1.2-1.7,2.5-1.7,4.1v14.4c0,0.3-0.1,0.5-0.2,0.8c-0.1,0.2-0.3,0.5-0.4,0.6c-0.2,0.2-0.4,0.3-0.6,0.4
		c-0.2,0.1-0.5,0.1-0.8,0.1s-0.5,0-0.8-0.1s-0.5-0.2-0.6-0.4c-0.2-0.2-0.3-0.4-0.4-0.6c-0.1-0.2-0.2-0.5-0.2-0.8v-14.4
		c0-1.6-0.6-3-1.7-4.1c-1.1-1.2-2.5-1.7-4.1-1.7c-1.6,0-2.9,0.6-4.1,1.7c-1.1,1.2-1.7,2.5-1.7,4.1v14.4c0,0.3-0.1,0.5-0.2,0.8
		c-0.1,0.2-0.3,0.5-0.4,0.6c-0.2,0.2-0.4,0.3-0.6,0.4s-0.5,0.1-0.8,0.1c-0.5,0-1-0.2-1.4-0.6c-0.4-0.4-0.6-0.8-0.6-1.4v-22.3
		c0-0.5,0.2-1,0.6-1.4c0.4-0.4,0.9-0.6,1.4-0.6c0.6,0,1.1,0.2,1.5,0.6c0.4,0.4,0.6,0.9,0.6,1.5c1.7-1.4,3.6-2.2,5.8-2.2
		c1.6,0,3.2,0.4,4.6,1.3c1.4,0.8,2.5,2,3.3,3.4c0.8-1.4,1.9-2.6,3.3-3.4c1.4-0.8,2.9-1.3,4.6-1.3c2.7,0,5,1,6.9,2.9s2.9,4.3,2.9,6.9
		V225.6z"/>
	<path fill="#009590" d="M1160.9,214.5c0,3.6-1.3,6.7-3.9,9.2c-2.6,2.6-5.7,3.8-9.3,3.8c-3.7,0-6.7-1.3-9.1-4v2.1
		c0,0.3-0.1,0.5-0.2,0.8c-0.1,0.2-0.3,0.5-0.4,0.6c-0.2,0.2-0.4,0.3-0.6,0.4s-0.5,0.1-0.8,0.1c-0.5,0-1-0.2-1.4-0.6
		c-0.4-0.4-0.6-0.8-0.6-1.4v-25.9c0-0.3,0.1-0.5,0.2-0.7c0.1-0.2,0.3-0.5,0.4-0.6c0.2-0.2,0.4-0.3,0.6-0.4c0.2-0.1,0.5-0.2,0.7-0.2
		c0.5,0,1,0.2,1.4,0.6c0.4,0.4,0.6,0.9,0.6,1.4v5.7c2.4-2.7,5.5-4.1,9.1-4.1c3.6,0,6.7,1.3,9.3,3.9
		C1159.6,207.8,1160.9,210.9,1160.9,214.5z M1156.8,214.5c0-2.5-0.9-4.7-2.7-6.4c-1.8-1.8-3.9-2.7-6.4-2.7c-2.5,0-4.7,0.9-6.5,2.7
		c-1.8,1.8-2.7,3.9-2.7,6.4c0,2.5,0.9,4.6,2.7,6.4c1.8,1.8,4,2.7,6.5,2.7c2.5,0,4.6-0.9,6.4-2.7
		C1155.9,219.1,1156.8,217,1156.8,214.5z"/>
	<path fill="#009590" d="M1189.4,225.6c0,0.3-0.1,0.5-0.2,0.8c-0.1,0.2-0.3,0.5-0.4,0.6c-0.2,0.2-0.4,0.3-0.6,0.4
		c-0.2,0.1-0.5,0.1-0.8,0.1c-0.3,0-0.5,0-0.8-0.1c-0.2-0.1-0.5-0.2-0.6-0.4c-0.2-0.2-0.3-0.4-0.4-0.6c-0.1-0.2-0.2-0.5-0.2-0.8v-2.1
		c-2.4,2.7-5.5,4-9.1,4c-3.6,0-6.7-1.3-9.3-3.8c-2.6-2.6-3.8-5.6-3.8-9.2s1.3-6.7,3.8-9.3c2.6-2.6,5.7-3.9,9.3-3.9
		c3.6,0,6.7,1.4,9.1,4.1v-2.1c0-0.5,0.2-1,0.6-1.4c0.4-0.4,0.9-0.6,1.4-0.6c0.3,0,0.5,0.1,0.8,0.2c0.2,0.1,0.5,0.3,0.6,0.4
		c0.2,0.2,0.3,0.4,0.4,0.6c0.1,0.2,0.2,0.5,0.2,0.7V225.6z M1185.4,214.5c0-2.5-0.9-4.7-2.7-6.4c-1.8-1.8-3.9-2.7-6.4-2.7
		c-2.5,0-4.7,0.9-6.5,2.7c-1.8,1.8-2.7,3.9-2.7,6.4c0,2.5,0.9,4.6,2.7,6.4c1.8,1.8,4,2.7,6.5,2.7c2.5,0,4.7-0.9,6.4-2.7
		C1184.5,219.1,1185.4,217,1185.4,214.5z"/>
	<path fill="#009590" d="M1209.3,203.3c0,0.5-0.2,1-0.6,1.4c-0.4,0.4-0.9,0.6-1.4,0.6c-2.5,0-4.7,0.9-6.5,2.7
		c-1.8,1.8-2.7,3.9-2.7,6.4v11.1c0,0.3-0.1,0.5-0.2,0.8c-0.1,0.2-0.3,0.5-0.4,0.6c-0.2,0.2-0.4,0.3-0.6,0.4
		c-0.2,0.1-0.5,0.1-0.8,0.1c-0.5,0-1-0.2-1.4-0.6c-0.4-0.4-0.6-0.8-0.6-1.4v-22.3c0-0.5,0.2-1,0.6-1.4c0.4-0.4,0.9-0.6,1.4-0.6
		s1,0.2,1.4,0.6c0.4,0.4,0.6,0.9,0.6,1.4v2.1c2.4-2.7,5.4-4.1,9.1-4.1c0.5,0,1,0.2,1.4,0.6C1209.1,202.4,1209.3,202.8,1209.3,203.3z
		"/>
	<path fill="#009590" d="M1255.5,214.5c0,3.6-1.3,6.7-3.9,9.2c-2.6,2.6-5.7,3.8-9.3,3.8c-3.7,0-6.7-1.3-9.1-4v9.3
		c0,0.5-0.2,1-0.6,1.4c-0.4,0.4-0.9,0.6-1.4,0.6c-0.5,0-1-0.2-1.4-0.6c-0.4-0.4-0.6-0.9-0.6-1.4v-29.5c0-0.5,0.2-1,0.6-1.4
		c0.4-0.4,0.9-0.6,1.4-0.6c0.5,0,1,0.2,1.4,0.6c0.4,0.4,0.6,0.9,0.6,1.4v2.1c2.4-2.7,5.5-4.1,9.1-4.1c3.6,0,6.7,1.3,9.3,3.9
		C1254.2,207.8,1255.5,210.9,1255.5,214.5z M1251.4,214.5c0-2.5-0.9-4.7-2.7-6.4c-1.8-1.8-3.9-2.7-6.4-2.7c-2.5,0-4.7,0.9-6.5,2.7
		c-1.8,1.8-2.7,3.9-2.7,6.4c0,2.5,0.9,4.6,2.7,6.4c1.8,1.8,4,2.7,6.5,2.7c2.5,0,4.6-0.9,6.4-2.7
		C1250.5,219.1,1251.4,217,1251.4,214.5z"/>
	<path fill="#009590" d="M1284.9,225.6c0,0.3-0.1,0.5-0.2,0.8c-0.1,0.2-0.3,0.5-0.4,0.6c-0.2,0.2-0.4,0.3-0.6,0.4
		c-0.2,0.1-0.5,0.1-0.8,0.1c-0.5,0-1-0.2-1.4-0.6c-0.4-0.4-0.6-0.8-0.6-1.4v-2.1c-2.4,2.7-5.6,4-9.4,4c-3.5,0-6.6-1.3-9-3.9
		c-2.5-2.6-3.8-5.7-3.8-9.2v-11.1c0-0.5,0.2-1,0.6-1.4c0.4-0.4,0.9-0.6,1.4-0.6s1,0.2,1.4,0.6c0.4,0.4,0.6,0.9,0.6,1.4v11.1
		c0,2.5,0.9,4.6,2.7,6.4c1.8,1.8,4,2.7,6.5,2.7c2.5,0,4.6-0.9,6.4-2.7c1.8-1.8,2.7-3.9,2.7-6.4v-11.1c0-0.5,0.2-1,0.6-1.4
		c0.4-0.4,0.9-0.6,1.4-0.6c0.5,0,1,0.2,1.4,0.6c0.4,0.4,0.6,0.9,0.6,1.4V225.6z"/>
	<path fill="#009590" d="M1315.9,225.6c0,0.3-0.1,0.5-0.2,0.8c-0.1,0.2-0.3,0.5-0.4,0.6c-0.2,0.2-0.4,0.3-0.6,0.4
		c-0.2,0.1-0.5,0.1-0.8,0.1c-0.5,0-1-0.2-1.4-0.6c-0.4-0.4-0.6-0.8-0.6-1.4v-11.1c0-2.5-0.9-4.7-2.7-6.4c-1.8-1.8-3.9-2.7-6.4-2.7
		c-2.5,0-4.7,0.9-6.5,2.7c-1.8,1.8-2.7,3.9-2.7,6.4v11.1c0,0.3-0.1,0.5-0.2,0.8c-0.1,0.2-0.3,0.5-0.4,0.6c-0.2,0.2-0.4,0.3-0.6,0.4
		c-0.2,0.1-0.5,0.1-0.8,0.1c-0.5,0-1-0.2-1.4-0.6c-0.4-0.4-0.6-0.8-0.6-1.4v-22.3c0-0.5,0.2-1,0.6-1.4c0.4-0.4,0.9-0.6,1.4-0.6
		s1,0.2,1.4,0.6c0.4,0.4,0.6,0.9,0.6,1.4v2.1c2.4-2.7,5.6-4.1,9.4-4.1c3.5,0,6.5,1.3,9,3.9c2.5,2.6,3.8,5.7,3.8,9.2V225.6z"/>
	<path fill="#009590" d="M1342.2,206.6c0,0.5-0.2,1-0.6,1.4c-0.4,0.4-0.9,0.6-1.4,0.6c-0.2,0-0.5,0-0.7-0.1
		c-0.2-0.1-0.4-0.2-0.6-0.4c-0.2-0.1-0.4-0.3-0.6-0.5c-0.2-0.2-0.4-0.3-0.6-0.5c-1.4-1.2-3.2-1.8-5.4-1.8c-2.5,0-4.7,0.9-6.5,2.7
		c-1.8,1.8-2.7,3.9-2.7,6.4c0,2.5,0.9,4.6,2.7,6.4c1.8,1.8,4,2.7,6.5,2.7c2.2,0,4-0.6,5.4-1.8c0.2-0.2,0.4-0.3,0.5-0.5
		c0.2-0.2,0.4-0.3,0.5-0.5c0.5-0.3,0.9-0.5,1.4-0.5c0.3,0,0.5,0.1,0.8,0.2c0.2,0.1,0.5,0.3,0.6,0.4c0.2,0.2,0.3,0.4,0.4,0.7
		c0.1,0.2,0.2,0.5,0.2,0.8c0,0.8-0.7,1.7-2,2.6c-2.5,1.7-5.2,2.6-7.8,2.6c-3.6,0-6.7-1.3-9.3-3.8c-2.6-2.6-3.8-5.6-3.8-9.2
		s1.3-6.7,3.8-9.3c2.6-2.6,5.7-3.9,9.3-3.9c2.7,0,5.3,0.9,7.8,2.6C1341.5,204.9,1342.2,205.8,1342.2,206.6z"/>
	<path fill="#009590" d="M1361.5,225.6c0,0.5-0.2,1-0.6,1.4c-0.4,0.4-0.9,0.6-1.4,0.6h-8c-0.5,0-1-0.2-1.4-0.6
		c-0.4-0.4-0.6-0.8-0.6-1.4v-20.2h-3.3c-0.3,0-0.5-0.1-0.8-0.2c-0.2-0.1-0.5-0.3-0.6-0.4c-0.2-0.2-0.3-0.4-0.4-0.6
		c-0.1-0.2-0.2-0.5-0.2-0.8c0-0.5,0.2-1,0.6-1.4c0.4-0.4,0.9-0.6,1.4-0.6h3.3v-1.6c0-0.3,0.1-0.5,0.2-0.7c0.1-0.2,0.3-0.5,0.4-0.6
		c0.2-0.2,0.4-0.3,0.6-0.4c0.2-0.1,0.5-0.2,0.7-0.2c0.5,0,1,0.2,1.4,0.6c0.4,0.4,0.6,0.9,0.6,1.4v1.6h3.3c0.5,0,1,0.2,1.4,0.6
		c0.4,0.4,0.6,0.9,0.6,1.4c0,0.5-0.2,1-0.6,1.4c-0.4,0.4-0.9,0.6-1.4,0.6h-3.3v18.2h6c0.5,0,1,0.2,1.4,0.6
		C1361.3,224.6,1361.5,225.1,1361.5,225.6z"/>
	<path fill="#009590" d="M1388.8,225.6c0,0.3-0.1,0.5-0.2,0.8c-0.1,0.2-0.3,0.5-0.4,0.6c-0.2,0.2-0.4,0.3-0.6,0.4
		c-0.2,0.1-0.5,0.1-0.8,0.1c-0.5,0-1-0.2-1.4-0.6c-0.4-0.4-0.6-0.8-0.6-1.4v-2.1c-2.4,2.7-5.6,4-9.4,4c-3.5,0-6.6-1.3-9-3.9
		c-2.5-2.6-3.8-5.7-3.8-9.2v-11.1c0-0.5,0.2-1,0.6-1.4c0.4-0.4,0.9-0.6,1.4-0.6s1,0.2,1.4,0.6c0.4,0.4,0.6,0.9,0.6,1.4v11.1
		c0,2.5,0.9,4.6,2.7,6.4c1.8,1.8,4,2.7,6.5,2.7c2.5,0,4.6-0.9,6.4-2.7c1.8-1.8,2.7-3.9,2.7-6.4v-11.1c0-0.5,0.2-1,0.6-1.4
		c0.4-0.4,0.9-0.6,1.4-0.6c0.5,0,1,0.2,1.4,0.6c0.4,0.4,0.6,0.9,0.6,1.4V225.6z"/>
	<path fill="#009590" d="M1408.7,203.3c0,0.5-0.2,1-0.6,1.4c-0.4,0.4-0.9,0.6-1.4,0.6c-2.5,0-4.7,0.9-6.5,2.7
		c-1.8,1.8-2.7,3.9-2.7,6.4v11.1c0,0.3-0.1,0.5-0.2,0.8c-0.1,0.2-0.3,0.5-0.4,0.6c-0.2,0.2-0.4,0.3-0.6,0.4s-0.5,0.1-0.8,0.1
		c-0.5,0-1-0.2-1.4-0.6c-0.4-0.4-0.6-0.8-0.6-1.4v-22.3c0-0.5,0.2-1,0.6-1.4c0.4-0.4,0.9-0.6,1.4-0.6c0.5,0,1,0.2,1.4,0.6
		c0.4,0.4,0.6,0.9,0.6,1.4v2.1c2.4-2.7,5.4-4.1,9.1-4.1c0.5,0,1,0.2,1.4,0.6C1408.5,202.4,1408.7,202.8,1408.7,203.3z"/>
	<path fill="#009590" d="M1432.1,206.6c0,0.6-0.2,1-0.6,1.4l-14.2,14.2c1.5,0.9,3.1,1.4,4.9,1.4c2.2,0,4-0.6,5.4-1.8
		c0.2-0.2,0.4-0.3,0.6-0.5c0.2-0.2,0.4-0.3,0.6-0.5c0.4-0.3,0.8-0.5,1.3-0.5c0.3,0,0.5,0.1,0.8,0.2c0.2,0.1,0.5,0.3,0.6,0.4
		c0.2,0.2,0.3,0.4,0.4,0.7c0.1,0.2,0.2,0.5,0.2,0.8c0,0.8-0.7,1.7-2,2.6c-2.5,1.7-5.2,2.6-7.8,2.6c-3.6,0-6.7-1.3-9.3-3.8
		c-2.6-2.6-3.8-5.6-3.8-9.2s1.3-6.7,3.8-9.3c2.6-2.6,5.7-3.9,9.3-3.9c2.6,0,5.2,0.9,7.8,2.6C1431.4,204.9,1432.1,205.7,1432.1,206.6
		z M1427.3,206.9c-1.4-1-3.1-1.6-5.1-1.6c-2.5,0-4.7,0.9-6.5,2.7c-1.8,1.8-2.7,3.9-2.7,6.4c0,2,0.5,3.6,1.6,5.1L1427.3,206.9z"/>
	<path fill="#009590" d="M1449.9,220c0,2.1-0.7,3.8-2.2,5.3c-1.5,1.5-3.3,2.2-5.3,2.2c-1.4,0-2.6-0.3-3.8-0.9
		c-1.3-0.7-2.2-1.7-2.7-2.8c-0.2-0.4-0.3-0.7-0.3-1c0-0.3,0-0.5,0.2-0.8c0.1-0.2,0.2-0.5,0.4-0.6c0.2-0.2,0.4-0.3,0.6-0.4
		c0.2-0.1,0.5-0.1,0.8-0.1c0.6,0,1.3,0.5,2.1,1.4c0.9,0.9,1.8,1.4,2.7,1.4c0.9,0,1.7-0.4,2.5-1.1c0.7-0.7,1.1-1.5,1.1-2.5
		c0-0.9-0.4-1.7-1.1-2.5c-0.7-0.7-1.5-1.1-2.5-1.1c-2.1,0-3.8-0.7-5.3-2.2c-1.5-1.5-2.2-3.3-2.2-5.3s0.7-3.8,2.2-5.3
		c1.5-1.5,3.2-2.2,5.3-2.2c1.3,0,2.6,0.3,3.8,1c1.2,0.7,2.1,1.7,2.7,2.8c0.2,0.3,0.3,0.7,0.3,1c0,0.5-0.2,1-0.6,1.4
		s-0.9,0.6-1.4,0.6c-0.5,0-1.2-0.5-2.1-1.4c-0.8-0.9-1.8-1.4-2.7-1.4c-1,0-1.8,0.4-2.5,1.1c-0.7,0.7-1,1.5-1,2.5c0,1,0.4,1.8,1,2.5
		s1.5,1,2.5,1c2.1,0,3.8,0.7,5.3,2.2C1449.2,216.2,1449.9,217.9,1449.9,220z"/>
	<path fill="#009590" d="M819.6,278.1c0,0.3-0.1,0.5-0.2,0.8c-0.1,0.2-0.3,0.5-0.4,0.6c-0.2,0.2-0.4,0.3-0.6,0.4
		c-0.2,0.1-0.5,0.1-0.8,0.1c-0.5,0-1-0.2-1.4-0.6c-0.4-0.4-0.6-0.8-0.6-1.4v-22.3c0-0.5,0.2-1,0.6-1.4c0.4-0.4,0.9-0.6,1.4-0.6
		c0.5,0,1,0.2,1.4,0.6c0.4,0.4,0.6,0.9,0.6,1.4V278.1z"/>
	<path fill="#009590" d="M850.6,278.1c0,0.3-0.1,0.5-0.2,0.8c-0.1,0.2-0.3,0.5-0.4,0.6c-0.2,0.2-0.4,0.3-0.6,0.4
		c-0.2,0.1-0.5,0.1-0.8,0.1c-0.5,0-1-0.2-1.4-0.6c-0.4-0.4-0.6-0.8-0.6-1.4V267c0-2.5-0.9-4.7-2.7-6.4c-1.8-1.8-3.9-2.7-6.4-2.7
		c-2.5,0-4.7,0.9-6.5,2.7c-1.8,1.8-2.7,3.9-2.7,6.4v11.1c0,0.3-0.1,0.5-0.2,0.8c-0.1,0.2-0.3,0.5-0.4,0.6c-0.2,0.2-0.4,0.3-0.6,0.4
		c-0.2,0.1-0.5,0.1-0.8,0.1c-0.5,0-1-0.2-1.4-0.6c-0.4-0.4-0.6-0.8-0.6-1.4v-22.3c0-0.5,0.2-1,0.6-1.4c0.4-0.4,0.9-0.6,1.4-0.6
		c0.5,0,1,0.2,1.4,0.6c0.4,0.4,0.6,0.9,0.6,1.4v2.1c2.4-2.7,5.6-4.1,9.4-4.1c3.5,0,6.5,1.3,9,3.9c2.5,2.6,3.8,5.7,3.8,9.2V278.1z"/>
	<path fill="#009590" d="M897.6,278.1c0,0.3-0.1,0.5-0.2,0.8c-0.1,0.2-0.3,0.5-0.4,0.6c-0.2,0.2-0.4,0.3-0.6,0.4
		c-0.2,0.1-0.5,0.1-0.8,0.1c-0.5,0-1-0.2-1.4-0.6c-0.4-0.4-0.6-0.8-0.6-1.4V267c0-2.5-0.9-4.7-2.7-6.4c-1.8-1.8-3.9-2.7-6.4-2.7
		c-2.5,0-4.7,0.9-6.5,2.7c-1.8,1.8-2.7,3.9-2.7,6.4v11.1c0,0.3-0.1,0.5-0.2,0.8c-0.1,0.2-0.3,0.5-0.4,0.6c-0.2,0.2-0.4,0.3-0.6,0.4
		c-0.2,0.1-0.5,0.1-0.8,0.1c-0.5,0-1-0.2-1.4-0.6c-0.4-0.4-0.6-0.8-0.6-1.4v-22.3c0-0.5,0.2-1,0.6-1.4c0.4-0.4,0.9-0.6,1.4-0.6
		s1,0.2,1.4,0.6c0.4,0.4,0.6,0.9,0.6,1.4v2.1c2.4-2.7,5.6-4.1,9.4-4.1c3.5,0,6.5,1.3,9,3.9c2.5,2.6,3.8,5.7,3.8,9.2V278.1z"/>
	<path fill="#009590" d="M923.8,259.1c0,0.6-0.2,1-0.6,1.4l-14.2,14.2c1.5,0.9,3.1,1.4,4.9,1.4c2.2,0,4-0.6,5.4-1.8
		c0.2-0.2,0.4-0.3,0.6-0.5c0.2-0.2,0.4-0.3,0.6-0.5c0.4-0.3,0.8-0.5,1.3-0.5c0.3,0,0.5,0.1,0.8,0.2s0.5,0.3,0.6,0.4
		c0.2,0.2,0.3,0.4,0.4,0.7c0.1,0.2,0.2,0.5,0.2,0.8c0,0.8-0.7,1.7-2,2.6c-2.5,1.7-5.2,2.6-7.8,2.6c-3.6,0-6.7-1.3-9.3-3.8
		c-2.6-2.6-3.8-5.6-3.8-9.2s1.3-6.7,3.8-9.3c2.6-2.6,5.7-3.9,9.3-3.9c2.6,0,5.2,0.9,7.8,2.6C923.2,257.4,923.8,258.3,923.8,259.1z
		 M919.1,259.4c-1.4-1-3.1-1.6-5.1-1.6c-2.5,0-4.7,0.9-6.5,2.7c-1.8,1.8-2.7,3.9-2.7,6.4c0,2,0.5,3.6,1.6,5.1L919.1,259.4z"/>
	<path fill="#009590" d="M960.7,255.9c0,0.3-0.1,0.5-0.2,0.8l-9.7,21.9c0,0.1,0,0.1-0.1,0.2s-0.1,0.2-0.1,0.3c-0.3,0.7-0.9,1-1.8,1
		c-0.9,0-1.5-0.3-1.8-1c0-0.1,0-0.1-0.1-0.2s-0.1-0.2-0.1-0.3l-3.5-7.8l-3.5,7.8c0,0.1,0,0.1-0.1,0.2s-0.1,0.2-0.1,0.3
		c-0.3,0.7-0.9,1-1.8,1c-0.9,0-1.5-0.3-1.8-1c0-0.1,0-0.1-0.1-0.2s-0.1-0.2-0.1-0.3l-9.7-21.9c-0.1-0.3-0.2-0.5-0.2-0.8
		c0-0.5,0.2-1,0.6-1.4c0.4-0.4,0.9-0.6,1.4-0.6c0.8,0,1.4,0.4,1.8,1.2l8.1,18l3.3-7.3l-4-9.1c-0.1-0.3-0.2-0.5-0.2-0.8
		c0-0.5,0.2-1,0.6-1.4c0.4-0.4,0.9-0.6,1.4-0.6c0.8,0,1.4,0.4,1.8,1.2l2.6,5.8l2.6-5.8c0.4-0.8,1-1.2,1.8-1.2c0.5,0,1,0.2,1.4,0.6
		c0.4,0.4,0.6,0.9,0.6,1.4c0,0.3-0.1,0.5-0.2,0.8l-4,9.1l3.3,7.3l8.1-18c0.4-0.8,1-1.2,1.8-1.2c0.5,0,1,0.2,1.4,0.6
		C960.5,254.9,960.7,255.4,960.7,255.9z"/>
	<path fill="#009590" d="M989.4,267c0,3.6-1.3,6.7-3.9,9.2c-2.6,2.6-5.7,3.8-9.3,3.8c-3.7,0-6.7-1.3-9.1-4v2.1
		c0,0.3-0.1,0.5-0.2,0.8c-0.1,0.2-0.3,0.5-0.4,0.6c-0.2,0.2-0.4,0.3-0.6,0.4c-0.2,0.1-0.5,0.1-0.8,0.1c-0.5,0-1-0.2-1.4-0.6
		c-0.4-0.4-0.6-0.8-0.6-1.4v-25.9c0-0.3,0.1-0.5,0.2-0.7c0.1-0.2,0.3-0.5,0.4-0.6c0.2-0.2,0.4-0.3,0.6-0.4c0.2-0.1,0.5-0.2,0.7-0.2
		c0.5,0,1,0.2,1.4,0.6c0.4,0.4,0.6,0.9,0.6,1.4v5.7c2.4-2.7,5.5-4.1,9.1-4.1c3.6,0,6.7,1.3,9.3,3.9
		C988.2,260.3,989.4,263.4,989.4,267z M985.4,267c0-2.5-0.9-4.7-2.7-6.4c-1.8-1.8-3.9-2.7-6.4-2.7c-2.5,0-4.7,0.9-6.5,2.7
		c-1.8,1.8-2.7,3.9-2.7,6.4c0,2.5,0.9,4.6,2.7,6.4c1.8,1.8,4,2.7,6.5,2.7c2.5,0,4.6-0.9,6.4-2.7C984.5,271.7,985.4,269.5,985.4,267z
		"/>
	<path fill="#009590" d="M1018,267c0,3.6-1.3,6.7-3.9,9.2c-2.6,2.6-5.6,3.8-9.3,3.8s-6.7-1.3-9.3-3.8c-2.6-2.6-3.8-5.6-3.8-9.2
		s1.3-6.7,3.8-9.3c2.6-2.6,5.7-3.9,9.3-3.9s6.7,1.3,9.3,3.9C1016.7,260.3,1018,263.4,1018,267z M1014,267c0-2.5-0.9-4.7-2.7-6.4
		c-1.8-1.8-3.9-2.7-6.4-2.7s-4.7,0.9-6.5,2.7c-1.8,1.8-2.7,3.9-2.7,6.4c0,2.5,0.9,4.6,2.7,6.4c1.8,1.8,4,2.7,6.5,2.7
		c2.5,0,4.7-0.9,6.4-2.7C1013.1,271.7,1014,269.5,1014,267z"/>
	<path fill="#009590" d="M1036.7,255.9c0,0.5-0.2,1-0.6,1.4c-0.4,0.4-0.9,0.6-1.4,0.6c-2.5,0-4.7,0.9-6.5,2.7
		c-1.8,1.8-2.7,3.9-2.7,6.4v11.1c0,0.3-0.1,0.5-0.2,0.8c-0.1,0.2-0.3,0.5-0.4,0.6c-0.2,0.2-0.4,0.3-0.6,0.4s-0.5,0.1-0.8,0.1
		c-0.5,0-1-0.2-1.4-0.6c-0.4-0.4-0.6-0.8-0.6-1.4v-22.3c0-0.5,0.2-1,0.6-1.4c0.4-0.4,0.9-0.6,1.4-0.6c0.5,0,1,0.2,1.4,0.6
		c0.4,0.4,0.6,0.9,0.6,1.4v2.1c2.4-2.7,5.4-4.1,9.1-4.1c0.5,0,1,0.2,1.4,0.6C1036.5,254.9,1036.7,255.4,1036.7,255.9z"/>
	<path fill="#009590" d="M1065.7,278.1c0,0.3-0.1,0.5-0.2,0.8c-0.1,0.2-0.3,0.5-0.4,0.6c-0.2,0.2-0.4,0.3-0.6,0.4
		c-0.2,0.1-0.5,0.1-0.8,0.1c-0.5,0-1-0.2-1.4-0.6c-0.4-0.4-0.6-0.8-0.6-1.4V267c0-2.5-0.9-4.7-2.7-6.4c-1.8-1.8-3.9-2.7-6.4-2.7
		c-2.5,0-4.7,0.9-6.5,2.7c-1.8,1.8-2.7,3.9-2.7,6.4v11.1c0,0.3-0.1,0.5-0.2,0.8c-0.1,0.2-0.3,0.5-0.4,0.6c-0.2,0.2-0.4,0.3-0.6,0.4
		s-0.5,0.1-0.8,0.1c-0.5,0-1-0.2-1.4-0.6c-0.4-0.4-0.6-0.8-0.6-1.4v-22.3c0-0.5,0.2-1,0.6-1.4c0.4-0.4,0.9-0.6,1.4-0.6
		c0.5,0,1,0.2,1.4,0.6c0.4,0.4,0.6,0.9,0.6,1.4v2.1c2.4-2.7,5.6-4.1,9.4-4.1c3.5,0,6.5,1.3,9,3.9c2.5,2.6,3.8,5.7,3.8,9.2V278.1z"/>
	<path fill="#009590" d="M1083.9,272.5c0,2.1-0.7,3.8-2.2,5.3c-1.5,1.5-3.3,2.2-5.3,2.2c-1.4,0-2.6-0.3-3.8-0.9
		c-1.3-0.7-2.2-1.7-2.7-2.8c-0.2-0.4-0.3-0.7-0.3-1c0-0.3,0-0.5,0.2-0.8c0.1-0.2,0.2-0.5,0.4-0.6c0.2-0.2,0.4-0.3,0.6-0.4
		s0.5-0.1,0.8-0.1c0.6,0,1.3,0.5,2.1,1.4c0.9,0.9,1.8,1.4,2.7,1.4c0.9,0,1.7-0.4,2.5-1.1c0.7-0.7,1.1-1.5,1.1-2.5
		c0-0.9-0.4-1.7-1.1-2.5c-0.7-0.7-1.5-1.1-2.5-1.1c-2.1,0-3.8-0.7-5.3-2.2c-1.5-1.5-2.2-3.3-2.2-5.3s0.7-3.8,2.2-5.3
		c1.5-1.5,3.2-2.2,5.3-2.2c1.3,0,2.6,0.3,3.8,1c1.2,0.7,2.1,1.7,2.7,2.8c0.2,0.3,0.3,0.7,0.3,1c0,0.5-0.2,1-0.6,1.4
		s-0.9,0.6-1.4,0.6c-0.5,0-1.2-0.5-2.1-1.4c-0.8-0.9-1.8-1.4-2.7-1.4c-1,0-1.8,0.4-2.5,1.1c-0.7,0.7-1,1.5-1,2.5c0,1,0.4,1.8,1,2.5
		s1.5,1,2.5,1c2.1,0,3.8,0.7,5.3,2.2S1083.9,270.5,1083.9,272.5z"/>
</g>
<g>
	<path fill="#009590" d="M868.8,108.5c-14.8,0-27.6-5.4-38.2-16c-10.6-10.6-16-23.5-16-38.3c0-14.8,5.4-27.6,16-38.2
		c10.6-10.6,23.5-16,38.2-16c11,0,21.9,3.6,32.4,10.8c5.6,3.9,8.3,7.3,8.3,10.5c0,1-0.2,2-0.7,3c-0.4,0.9-1,1.7-1.7,2.4
		c-0.7,0.7-1.5,1.2-2.4,1.7c-2.8,1.3-5.9,0.7-8.6-1.6c-1.5-1.2-2.9-2.4-4.1-3.6c-6.2-5.2-14-7.8-23.3-7.8
		c-10.5,0-19.7,3.9-27.4,11.5c-7.6,7.6-11.5,16.8-11.5,27.3c0,10.6,3.9,19.8,11.5,27.4c7.7,7.6,16.9,11.5,27.4,11.5
		c9.2,0,17.1-2.6,23.4-7.8c1.1-1.1,2.5-2.3,4-3.5c2.6-2.2,5.8-2.9,8.6-1.6c0.9,0.4,1.7,1,2.4,1.7c0.7,0.7,1.2,1.5,1.7,2.4
		c0.4,1,0.7,2,0.7,3c0,3.3-2.7,6.7-8.3,10.5C890.6,104.8,879.7,108.5,868.8,108.5z"/>
</g>
<g>
	<path fill="#009590" d="M1031.4,108.5h-60.3c-2.1,0-3.9-0.8-5.4-2.3c-1.5-1.5-2.3-3.3-2.3-5.4V7.6c0-1,0.2-2,0.7-3
		c0.4-0.9,1-1.7,1.6-2.3c0.7-0.7,1.5-1.2,2.4-1.7c1.9-0.9,4-0.9,6,0c0.9,0.4,1.7,1,2.4,1.7c0.7,0.7,1.2,1.5,1.7,2.3
		c0.4,0.9,0.7,1.9,0.7,3v85.5h52.6c2.1,0,3.9,0.8,5.4,2.3c1.5,1.5,2.3,3.3,2.3,5.4s-0.8,3.9-2.3,5.4
		C1035.3,107.7,1033.5,108.5,1031.4,108.5z"/>
</g>
<g>
	<path fill="#009590" d="M1161,108.5h-60.3c-2.1,0-3.9-0.8-5.4-2.3c-1.5-1.5-2.3-3.3-2.3-5.4V7.6c0-1,0.2-2,0.7-3
		c0.4-0.9,1-1.7,1.7-2.3c0.7-0.7,1.5-1.2,2.4-1.7c1-0.4,2-0.7,3-0.7h60.3c1,0,2,0.2,3,0.7c0.9,0.4,1.7,1,2.4,1.7
		c0.7,0.7,1.2,1.5,1.7,2.3c0.4,0.9,0.7,1.9,0.7,3c0,2.1-0.8,3.9-2.3,5.4c-1.5,1.5-3.3,2.3-5.4,2.3h-52.6v31.3h39.6
		c2,0,3.8,0.8,5.3,2.3c1.5,1.5,2.3,3.3,2.3,5.3c0,1-0.2,2-0.7,3c-0.4,0.9-1,1.7-1.7,2.4c-0.7,0.7-1.5,1.2-2.3,1.7
		c-0.9,0.4-1.9,0.7-3,0.7h-39.6v31.2h52.6c2.1,0,3.9,0.8,5.4,2.3c1.5,1.5,2.3,3.3,2.3,5.4c0,2.1-0.8,3.9-2.3,5.4
		C1164.9,107.7,1163.1,108.5,1161,108.5z"/>
</g>
<path fill="#009590" d="M1313.3,97.9l-37.8-92.3c-1.8-4.6-4.9-5.6-7.3-5.6c-2.3,0-5.4,1-7.3,5.6l-37.8,92.3
	c-0.3,0.9-0.5,1.8-0.5,2.9c0,2.1,0.7,3.9,2.2,5.4c1.5,1.5,3.3,2.3,5.4,2.3c3.5,0,6-1.7,7.3-4.8l8.7-21.4h44l8.8,21.4
	c1.2,3.2,3.7,4.8,7.3,4.8c2.1,0,3.9-0.8,5.4-2.3c1.4-1.5,2.2-3.3,2.2-5.4C1313.8,99.7,1313.6,98.8,1313.3,97.9z M1252.5,66.9
	l15.7-38.8l15.7,38.8H1252.5z"/>
<path fill="#009590" d="M1425.3,72.8c6.8-2.4,12.4-6.6,16.9-12.5c5.1-6.7,7.7-14.4,7.7-22.8c0-10.2-3.7-19.1-11-26.4
	c-7.3-7.3-16.2-11-26.4-11h-44.8v100.8c0,2.1,0.8,3.9,2.3,5.4c3,3,7.8,3,10.8,0c1.5-1.5,2.3-3.3,2.3-5.4V75h22.7l31.2,31.2
	c1.5,1.5,3.3,2.2,5.3,2.2c1,0,2-0.2,3-0.7c0.9-0.4,1.7-1,2.3-1.6c0.7-0.7,1.2-1.5,1.7-2.4c0.4-0.9,0.7-1.9,0.7-3
	c0-2.1-0.7-3.9-2.2-5.4L1425.3,72.8z M1383.1,59.6V15.3h29.4c6.1,0,11.2,2.1,15.6,6.6c4.4,4.4,6.5,9.5,6.5,15.6
	c0,6.1-2.1,11.2-6.5,15.7c-4.4,4.4-9.5,6.5-15.6,6.5H1383.1z"/>
<path fill="#B51A82" d="M630,111.9c16.5,0,29.8,13.3,29.8,29.8c0,16.5-13.3,29.8-29.8,29.8c-16.5,0-29.8-13.3-29.8-29.8
	C600.2,125.3,613.5,111.9,630,111.9"/>
<path fill="#009590" d="M1461.9,129H687.5c0.9,4.1,1.4,8.4,1.4,12.8c0,4.4-0.5,8.7-1.4,12.8h774.4c7.1,0,12.8-5.7,12.8-12.8
	C1474.7,134.7,1469,129,1461.9,129z"/>
<path fill="#009590" d="M297.8,280c-3.4,0-6.2-1.2-8.8-3.8c-2.5-2.5-3.8-5.4-3.8-8.8V15.8c0-1.6,0.3-3,1-4.4c0.7-1.5,1.7-2.9,2.9-4
	c1.2-1.2,2.5-2.1,4.1-2.9c1.5-0.7,3-1,4.6-1h183.9c1.6,0,3.1,0.3,4.6,1c1.6,0.7,2.9,1.7,4.1,2.9c1.2,1.2,2.1,2.5,2.9,4
	c0.7,1.4,1,2.9,1,4.4c0,3.4-1.2,6.2-3.8,8.8c-2.5,2.5-5.4,3.8-8.8,3.8H310.3v226.6h171c3.4,0,6.2,1.2,8.8,3.8
	c2.5,2.5,3.8,5.4,3.8,8.8c0,3.4-1.2,6.2-3.8,8.8c-2.5,2.5-5.4,3.8-8.8,3.8H297.8z"/>
<path fill="#B51A82" d="M228.7,280c-3.7,0-7.3-2.1-10.9-6.3L25.1,51v216.5c0,3.4-1.2,6.2-3.8,8.8c-2.5,2.5-5.4,3.8-8.8,3.8
	c-3.4,0-6.2-1.2-8.8-3.8c-2.5-2.5-3.8-5.4-3.8-8.8V15.8c0-1.6,0.3-3,1-4.4c0.7-1.5,1.7-2.9,2.9-4C5,6.2,6.4,5.2,8,4.5
	c1.5-0.7,3-1,4.6-1c4,0,6.9,1.1,8.8,3.4l194.8,225.7V15.8c0-1.6,0.3-3,1-4.4c0.7-1.5,1.7-2.9,2.9-4c1.2-1.2,2.5-2.1,4.1-2.8
	c1.5-0.7,3-1,4.6-1c1.6,0,3.1,0.3,4.6,1c1.6,0.7,2.9,1.7,4.1,2.8c1.2,1.2,2.1,2.5,2.9,4c0.7,1.4,1,2.9,1,4.4v251.7
	c0,3.4-1.2,6.2-3.8,8.8C235,278.8,232.1,280,228.7,280z"/>
<path fill="#009590" d="M571,141.7c0-4.4,0.5-8.6,1.4-12.8H366c-7.1,0-12.8,5.7-12.8,12.8c0,7.1,5.7,12.8,12.8,12.8h206.5
	C571.5,150.4,571,146.1,571,141.7z"/>
</svg>
