<?xml version="1.0" encoding="utf-8"?>
<!-- Generator: Adobe Illustrator 24.0.2, SVG Export Plug-In . SVG Version: 6.00 Build 0)  -->
<svg version="1.1" xmlns="http://www.w3.org/2000/svg" xmlns:xlink="http://www.w3.org/1999/xlink" x="0px" y="0px" width="794.9px"
	 height="283.5px" viewBox="0 0 794.9 283.5" enable-background="new 0 0 794.9 283.5" xml:space="preserve">
<g id="Layer_1">
	<rect x="0.3" y="210.7" fill="#5C6DAA" width="794.7" height="72.7"/>
	<path fill="#BCC0DC" d="M0,0v196.6h580.6c-2.6-0.8-5.1-1.6-7.5-2.6c-9.3-3.9-17.4-9.5-24.1-16.7c-6.6-7.1-11.7-15.5-15.2-25.1
		c-3.4-9.3-5.2-19.6-5.2-30.5c0-11,1.8-21.3,5.4-30.6c3.7-9.6,8.9-18,15.6-24.9c3.2-3.4,6.8-6.4,10.6-9c-2.3,1-4.6,2.1-6.9,3.3
		c-18,9.6-31.3,24.5-38.4,41.1c1.8-21.7,13.3-41.3,32.7-51.7c5.2-2.8,10.6-4.7,16.2-5.8c-5.4-0.6-10.8-1-16.3-1
		c-72.8,0-132.4,54.5-138.3,123.8H4.2V4.2h785.4v162.4H665.1c-2.4,3.8-5,7.4-8,10.6c-6.7,7.2-14.8,12.8-24.1,16.7
		c-2.4,1-4.9,1.9-7.5,2.7h168.3V0H0z"/>
	<path fill="#BCC0DC" d="M605.2,29c25.9,4.8,48,17.1,63.5,33.6c-11-23.9-33-42.3-60.9-47.5c-27.9-5.2-55,4.1-73.8,22.5
		C554.2,27.8,579.3,24.2,605.2,29z"/>
	<g>
		<g>
			<path fill="#5C6DAA" d="M654.6,121.6c0,8.3-1.2,15.8-3.6,22.7c-2.4,6.9-5.9,12.7-10.4,17.6c-4.5,4.9-10,8.6-16.3,11.3
				c-6.3,2.7-13.4,4-21.3,4c-7.7,0-14.7-1.3-21.1-4c-6.3-2.7-11.8-6.4-16.3-11.3c-4.5-4.9-8.1-10.7-10.6-17.6
				c-2.5-6.9-3.8-14.4-3.8-22.7c0-8.3,1.3-15.8,3.9-22.6c2.6-6.8,6.2-12.6,10.8-17.4c4.6-4.8,10-8.5,16.4-11.2
				c6.3-2.7,13.2-4,20.7-4c7.6,0,14.5,1.3,20.9,4c6.3,2.7,11.7,6.4,16.3,11.2c4.5,4.8,8.1,10.6,10.6,17.4
				C653.4,105.8,654.6,113.3,654.6,121.6z M624.3,121.6c0-9.2-1.8-16.4-5.5-21.7c-3.7-5.3-8.9-7.9-15.7-7.9c-6.8,0-12,2.6-15.8,7.9
				c-3.7,5.3-5.6,12.5-5.6,21.7s1.9,16.5,5.6,21.9c3.7,5.4,9,8.1,15.8,8.1c6.8,0,12-2.7,15.7-8.1C622.5,138,624.3,130.7,624.3,121.6
				z"/>
		</g>
		<path fill="#5C6DAA" d="M399.3,19.3c5.6,0,10.7,0.6,15.4,1.7c4.7,1.1,8.3,2.2,10.8,3.3l-5.8,23.8c-2.7-1.2-5.6-2.1-8.7-2.7
			c-3.1-0.6-6-0.9-8.7-0.9c-3.6,0-6.6,0.5-9.1,1.5c-2.5,1-4.4,2.4-5.8,4.1c-1.4,1.7-2.4,3.8-3,6.2c-0.6,2.4-0.9,5-0.9,7.8v5.2h36.7
			V94h-36.7v80.3h-29.8V63.7c0-13.6,3.8-24.4,11.5-32.3C372.9,23.3,384.3,19.3,399.3,19.3z"/>
		<path fill="#5C6DAA" d="M75.5,150.5c4.4,0,8-0.4,10.9-1.1c2.9-0.7,5.2-1.7,6.9-3c1.7-1.3,2.9-2.8,3.6-4.5c0.7-1.7,1-3.7,1-5.8
			c0-4.5-2.1-8.3-6.4-11.3c-4.3-3-11.6-6.2-22-9.7c-4.5-1.6-9.1-3.4-13.6-5.5c-4.5-2.1-8.6-4.7-12.2-7.8c-3.6-3.1-6.5-6.9-8.8-11.4
			c-2.3-4.5-3.4-9.9-3.4-16.3c0-6.4,1.2-12.1,3.6-17.3c2.4-5.1,5.8-9.5,10.2-13.1c4.4-3.6,9.7-6.4,16-8.3c6.3-1.9,13.3-2.9,21.2-2.9
			c9.3,0,17.4,1,24.2,3c6.8,2,12.4,4.2,16.8,6.6l-9,24.6c-3.9-2-8.2-3.8-12.9-5.3c-4.7-1.5-10.4-2.3-17.1-2.3
			c-7.5,0-12.8,1-16.1,3.1c-3.3,2.1-4.9,5.2-4.9,9.5c0,2.5,0.6,4.7,1.8,6.4c1.2,1.7,2.9,3.3,5.1,4.7c2.2,1.4,4.7,2.7,7.6,3.8
			c2.9,1.1,6,2.3,9.5,3.5c7.2,2.7,13.4,5.3,18.8,7.9c5.3,2.6,9.7,5.6,13.3,9.1c3.5,3.5,6.2,7.5,7.9,12.2c1.7,4.7,2.6,10.3,2.6,17
			c0,12.9-4.5,22.9-13.6,30c-9.1,7.1-22.7,10.7-40.9,10.7c-6.1,0-11.6-0.4-16.6-1.1c-4.9-0.7-9.3-1.6-13.1-2.7
			c-3.8-1.1-7.1-2.2-9.8-3.4c-2.7-1.2-5-2.3-6.9-3.4l8.8-24.8c4.1,2.3,9.2,4.3,15.3,6.1C59.3,149.6,66.7,150.5,75.5,150.5z"/>
		<path fill="#5C6DAA" d="M332.8,95.6c-2.7-0.7-5.8-1.4-9.4-2.1c-3.6-0.7-7.5-1.1-11.6-1.1c-1.9,0-4.1,0.2-6.7,0.5
			c-2.6,0.3-4.6,0.7-5.9,1.1v80.3h-29.8V74.8c5.3-1.9,11.6-3.6,18.9-5.3c7.3-1.7,15.3-2.5,24.3-2.5c1.6,0,3.5,0.1,5.8,0.3
			c2.3,0.2,4.5,0.5,6.8,0.8c2.3,0.3,4.5,0.7,6.8,1.2c2.3,0.5,4.2,1,5.8,1.7L332.8,95.6z"/>
		<path fill="#5C6DAA" d="M241.6,170.7c-5.1,1.5-11.6,2.8-19.6,4.1c-8,1.3-16.4,1.9-25.2,1.9c-8.9,0-16.3-1.2-22.3-3.6
			c-5.9-2.4-10.6-5.8-14.1-10.1c-3.5-4.3-5.9-9.5-7.4-15.5c-1.5-6-2.2-12.6-2.2-19.8V69.3h29.8v54.9c0,9.6,1.3,16.5,3.8,20.8
			c2.5,4.3,7.3,6.4,14.2,6.4c2.1,0,4.4-0.1,6.8-0.3c2.4-0.2,4.5-0.4,6.4-0.7V69.3h29.8V170.7z"/>
		<g>
			<g>
				<path fill="#5C6DAA" d="M764.7,174.6H740l-1.1-2c-6.2-11-13-22.1-20.3-32.9c-5.1-7.7-10.6-15.1-16.3-22.2v57.1h-29.5V69h23.4
					l1.1,1.1c3.2,3.2,6.7,7.1,10.5,11.7c3.8,4.6,7.7,9.5,11.6,14.6c3.9,5.1,7.9,10.6,11.7,16.1c1.3,1.8,2.5,3.6,3.8,5.4V69h29.7
					V174.6z"/>
			</g>
		</g>
	</g>
	<g>
		<path fill="#FFFFFF" d="M166.5,262.6c1.3,0,2.5-0.1,3.3-0.3c0.9-0.2,1.6-0.5,2.1-0.9c0.5-0.4,0.9-0.8,1.1-1.4
			c0.2-0.5,0.3-1.1,0.3-1.8c0-1.4-0.7-2.5-2-3.4c-1.3-0.9-3.5-1.9-6.7-3c-1.4-0.5-2.8-1-4.1-1.7c-1.4-0.6-2.6-1.4-3.7-2.4
			c-1.1-1-2-2.1-2.7-3.5c-0.7-1.4-1-3-1-5s0.4-3.7,1.1-5.3c0.7-1.6,1.8-2.9,3.1-4c1.3-1.1,3-1.9,4.9-2.5c1.9-0.6,4.1-0.9,6.5-0.9
			c2.8,0,5.3,0.3,7.4,0.9c2.1,0.6,3.8,1.3,5.1,2l-2.7,7.5c-1.2-0.6-2.5-1.1-3.9-1.6c-1.4-0.5-3.2-0.7-5.2-0.7
			c-2.3,0-3.9,0.3-4.9,0.9c-1,0.6-1.5,1.6-1.5,2.9c0,0.8,0.2,1.4,0.5,2c0.4,0.5,0.9,1,1.6,1.4c0.7,0.4,1.4,0.8,2.3,1.2
			c0.9,0.3,1.8,0.7,2.9,1.1c2.2,0.8,4.1,1.6,5.7,2.4c1.6,0.8,3,1.7,4.1,2.8c1.1,1.1,1.9,2.3,2.4,3.7c0.5,1.4,0.8,3.2,0.8,5.2
			c0,3.9-1.4,7-4.1,9.2c-2.8,2.2-6.9,3.3-12.5,3.3c-1.9,0-3.6-0.1-5.1-0.3c-1.5-0.2-2.8-0.5-4-0.8c-1.2-0.3-2.2-0.7-3-1
			c-0.8-0.4-1.5-0.7-2.1-1l2.7-7.6c1.3,0.7,2.8,1.3,4.7,1.9C161.6,262.4,163.9,262.6,166.5,262.6z"/>
		<path fill="#FFFFFF" d="M216.8,268.8c-1.5,0.4-3.5,0.9-6,1.3c-2.4,0.4-5,0.6-7.7,0.6c-2.7,0-5-0.4-6.8-1.1
			c-1.8-0.7-3.2-1.8-4.3-3.1c-1.1-1.3-1.8-2.9-2.3-4.7c-0.4-1.8-0.7-3.8-0.7-6v-17.9h9.1v16.8c0,2.9,0.4,5,1.2,6.3
			c0.8,1.3,2.2,2,4.3,2c0.7,0,1.3,0,2.1-0.1c0.7-0.1,1.4-0.1,2-0.2v-24.8h9.1V268.8z"/>
		<path fill="#FFFFFF" d="M244.3,245.8c-0.8-0.2-1.8-0.4-2.9-0.6s-2.3-0.3-3.5-0.3c-0.6,0-1.3,0.1-2,0.2c-0.8,0.1-1.4,0.2-1.8,0.3
			v24.5h-9.1v-30.4c1.6-0.6,3.5-1.1,5.8-1.6c2.2-0.5,4.7-0.8,7.4-0.8c0.5,0,1.1,0,1.8,0.1c0.7,0.1,1.4,0.1,2.1,0.2
			c0.7,0.1,1.4,0.2,2.1,0.4c0.7,0.1,1.3,0.3,1.8,0.5L244.3,245.8z"/>
		<path fill="#FFFFFF" d="M264.4,222.5c1.7,0,3.3,0.2,4.7,0.5c1.4,0.3,2.5,0.7,3.3,1l-1.8,7.3c-0.8-0.4-1.7-0.6-2.7-0.8
			c-1-0.2-1.8-0.3-2.7-0.3c-1.1,0-2,0.2-2.8,0.5c-0.8,0.3-1.3,0.7-1.8,1.3c-0.4,0.5-0.7,1.2-0.9,1.9c-0.2,0.7-0.3,1.5-0.3,2.4v1.6
			h11.2v7.6h-11.2v24.5h-9.1v-33.8c0-4.1,1.2-7.4,3.5-9.9C256.3,223.8,259.8,222.5,264.4,222.5z"/>
		<path fill="#FFFFFF" d="M285.1,237.6c2.1,0,3.8,0.3,5.3,0.9c1.4,0.6,2.6,1.4,3.5,2.4c0.9,1,1.5,2.3,2,3.7c0.4,1.4,0.6,3,0.6,4.6
			v19.9c-0.4,0.1-1,0.3-1.8,0.4c-0.8,0.1-1.7,0.3-2.7,0.5c-1,0.2-2.1,0.3-3.4,0.4c-1.2,0.1-2.5,0.2-3.8,0.2c-1.7,0-3.2-0.2-4.6-0.5
			c-1.4-0.4-2.6-0.9-3.7-1.7c-1-0.8-1.9-1.8-2.4-3.1c-0.6-1.2-0.9-2.8-0.9-4.5c0-1.7,0.3-3.2,1-4.4c0.7-1.2,1.6-2.2,2.7-3
			c1.2-0.8,2.6-1.4,4.2-1.7c1.6-0.4,3.4-0.5,5.3-0.5c0.6,0,1.2,0,1.8,0.1c0.6,0.1,1.2,0.1,1.8,0.2c0.6,0.1,1.1,0.2,1.5,0.3
			c0.4,0.1,0.7,0.2,0.9,0.3v-2c0-1.1-0.1-2.2-0.2-3.2s-0.5-2-1.1-2.8c-0.5-0.8-1.3-1.5-2.3-2c-1-0.5-2.3-0.8-3.9-0.8
			c-2.3,0-4,0.2-5.2,0.5c-1.1,0.3-2,0.6-2.5,0.8l-0.5-3.5c0.7-0.3,1.8-0.6,3.2-0.9C281.4,237.8,283.1,237.6,285.1,237.6z M285.5,267
			c1.5,0,2.9-0.1,4.1-0.2c1.2-0.1,2.1-0.2,3-0.4v-11.1c-0.4-0.2-1.2-0.4-2.1-0.6c-1-0.2-2.3-0.3-4-0.3c-1,0-2,0.1-3.1,0.2
			c-1.1,0.1-2,0.4-2.9,0.9c-0.9,0.5-1.6,1.1-2.2,1.9c-0.6,0.8-0.9,1.9-0.9,3.2c0,1.2,0.2,2.2,0.6,3c0.4,0.8,0.9,1.5,1.6,2
			c0.7,0.5,1.6,0.8,2.6,1.1C283.1,266.9,284.2,267,285.5,267z"/>
		<path fill="#FFFFFF" d="M319,270.6c-2.4,0-4.6-0.4-6.5-1.2c-1.9-0.8-3.4-1.9-4.7-3.3c-1.2-1.4-2.2-3.2-2.8-5.2c-0.7-2-1-4.2-1-6.7
			c0-2.5,0.3-4.7,1-6.8c0.7-2,1.6-3.8,2.9-5.2c1.3-1.5,2.8-2.6,4.6-3.4c1.8-0.8,3.8-1.2,6-1.2c1.7,0,3.3,0.1,4.8,0.4
			c1.5,0.3,2.6,0.7,3.4,1.1l-1,3.4c-0.8-0.4-1.7-0.7-2.7-1c-1-0.2-2.4-0.4-4.1-0.4c-3.5,0-6.2,1.1-8,3.4c-1.8,2.3-2.7,5.5-2.7,9.6
			c0,1.9,0.2,3.6,0.6,5.2c0.4,1.6,1.1,2.9,2,4c0.9,1.1,2.1,2,3.5,2.6c1.4,0.6,3.2,0.9,5.3,0.9c1.7,0,3.1-0.2,4.3-0.6
			c1.2-0.4,2-0.7,2.5-1l0.9,3.4c-0.7,0.4-1.9,0.8-3.4,1.2C322.3,270.4,320.7,270.6,319,270.6z"/>
		<path fill="#FFFFFF" d="M336.9,238.3h12.6v3.4h-12.6v16.8c0,1.8,0.2,3.2,0.5,4.4c0.3,1.1,0.7,2,1.3,2.6c0.6,0.6,1.3,1,2.1,1.2
			c0.8,0.2,1.7,0.3,2.7,0.3c1.7,0,3-0.2,4-0.6c1-0.4,1.8-0.7,2.4-1.1l1,3.3c-0.6,0.4-1.6,0.8-3,1.3c-1.4,0.5-3,0.7-4.6,0.7
			c-2,0-3.6-0.3-4.9-0.8c-1.3-0.5-2.4-1.3-3.2-2.3c-0.8-1-1.4-2.3-1.7-3.9c-0.3-1.5-0.5-3.4-0.5-5.5v-29l4-0.7V238.3z"/>
		<path fill="#FFFFFF" d="M366.7,237.6c2.1,0,3.8,0.3,5.3,0.9c1.4,0.6,2.6,1.4,3.5,2.4c0.9,1,1.5,2.3,2,3.7c0.4,1.4,0.6,3,0.6,4.6
			v19.9c-0.4,0.1-1,0.3-1.8,0.4c-0.8,0.1-1.7,0.3-2.7,0.5c-1,0.2-2.1,0.3-3.4,0.4c-1.2,0.1-2.5,0.2-3.8,0.2c-1.7,0-3.2-0.2-4.6-0.5
			c-1.4-0.4-2.6-0.9-3.7-1.7c-1-0.8-1.9-1.8-2.4-3.1c-0.6-1.2-0.9-2.8-0.9-4.5c0-1.7,0.3-3.2,1-4.4c0.7-1.2,1.6-2.2,2.7-3
			c1.2-0.8,2.6-1.4,4.2-1.7c1.6-0.4,3.4-0.5,5.3-0.5c0.6,0,1.2,0,1.8,0.1c0.6,0.1,1.2,0.1,1.8,0.2c0.6,0.1,1.1,0.2,1.5,0.3
			c0.4,0.1,0.7,0.2,0.9,0.3v-2c0-1.1-0.1-2.2-0.2-3.2c-0.2-1-0.5-2-1.1-2.8c-0.5-0.8-1.3-1.5-2.3-2c-1-0.5-2.3-0.8-3.9-0.8
			c-2.3,0-4,0.2-5.2,0.5c-1.1,0.3-2,0.6-2.5,0.8l-0.5-3.5c0.7-0.3,1.8-0.6,3.2-0.9C362.9,237.8,364.6,237.6,366.7,237.6z M367,267
			c1.5,0,2.9-0.1,4.1-0.2c1.2-0.1,2.1-0.2,3-0.4v-11.1c-0.4-0.2-1.2-0.4-2.1-0.6c-1-0.2-2.3-0.3-4-0.3c-1,0-2,0.1-3.1,0.2
			c-1.1,0.1-2,0.4-2.9,0.9c-0.9,0.5-1.6,1.1-2.2,1.9c-0.6,0.8-0.9,1.9-0.9,3.2c0,1.2,0.2,2.2,0.6,3c0.4,0.8,0.9,1.5,1.6,2
			c0.7,0.5,1.6,0.8,2.6,1.1C364.6,266.9,365.8,267,367,267z"/>
		<path fill="#FFFFFF" d="M387.2,239.4c1.2-0.3,2.8-0.7,4.8-1.1c2-0.4,4.4-0.6,7.3-0.6c2.4,0,4.4,0.3,6,1c1.6,0.7,2.9,1.7,3.8,3
			c1,1.3,1.6,2.8,2,4.6c0.4,1.8,0.6,3.8,0.6,5.9v17.6h-4v-16.4c0-2.2-0.2-4.1-0.5-5.7c-0.3-1.5-0.8-2.8-1.5-3.8
			c-0.7-1-1.6-1.7-2.8-2.1c-1.2-0.4-2.6-0.6-4.4-0.6c-1.9,0-3.5,0.1-4.9,0.3c-1.4,0.2-2.2,0.4-2.7,0.5v27.7h-4V239.4z"/>
		<path fill="#FFFFFF" d="M424.6,238.3h12.6v3.4h-12.6v16.8c0,1.8,0.2,3.2,0.5,4.4c0.3,1.1,0.7,2,1.3,2.6c0.6,0.6,1.3,1,2.1,1.2
			c0.8,0.2,1.7,0.3,2.7,0.3c1.7,0,3-0.2,4-0.6c1-0.4,1.8-0.7,2.4-1.1l1,3.3c-0.6,0.4-1.6,0.8-3,1.3c-1.4,0.5-3,0.7-4.6,0.7
			c-2,0-3.6-0.3-4.9-0.8c-1.3-0.5-2.4-1.3-3.2-2.3c-0.8-1-1.4-2.3-1.7-3.9c-0.3-1.5-0.5-3.4-0.5-5.5v-29l4-0.7V238.3z"/>
		<path fill="#FFFFFF" d="M499.6,248.7c0,3.6-0.5,6.8-1.6,9.6c-1.1,2.7-2.6,5-4.4,6.9c-1.9,1.9-4.1,3.2-6.7,4.2
			c-2.6,0.9-5.4,1.4-8.3,1.4c-2.9,0-5.6-0.5-8.2-1.4c-2.6-0.9-4.8-2.3-6.7-4.2c-1.9-1.9-3.4-4.1-4.5-6.9c-1.1-2.7-1.6-5.9-1.6-9.6
			c0-3.6,0.6-6.8,1.7-9.6c1.1-2.7,2.7-5.1,4.6-6.9c1.9-1.9,4.2-3.3,6.7-4.2c2.5-0.9,5.2-1.4,8-1.4c2.9,0,5.6,0.5,8.2,1.4
			c2.6,0.9,4.8,2.3,6.7,4.2c1.9,1.9,3.4,4.2,4.5,6.9C499,241.9,499.6,245.1,499.6,248.7z M467.3,248.7c0,2.1,0.3,3.9,0.8,5.6
			c0.5,1.7,1.2,3.1,2.2,4.3c1,1.2,2.1,2.1,3.5,2.8c1.4,0.7,3,1,4.8,1c1.7,0,3.3-0.3,4.7-1c1.4-0.7,2.6-1.6,3.5-2.8
			c1-1.2,1.7-2.6,2.2-4.3c0.5-1.7,0.8-3.5,0.8-5.6c0-2.1-0.3-4-0.8-5.6c-0.5-1.7-1.2-3.1-2.2-4.3c-1-1.2-2.1-2.1-3.5-2.8
			c-1.4-0.7-3-1-4.7-1c-1.8,0-3.4,0.3-4.8,1c-1.4,0.7-2.6,1.6-3.5,2.8c-1,1.2-1.7,2.6-2.2,4.3C467.5,244.8,467.3,246.7,467.3,248.7z
			"/>
		<path fill="#FFFFFF" d="M517.8,237.7c1.3,0,2.5,0.1,3.7,0.3c1.2,0.2,2,0.4,2.4,0.6l-0.8,3.4c-0.3-0.2-1-0.3-2-0.5
			c-1-0.2-2.3-0.3-3.9-0.3c-1.7,0-3.1,0.1-4.1,0.4c-1,0.2-1.7,0.4-2,0.6v27.6h-4v-30.1c1-0.4,2.4-0.9,4.2-1.4
			C513.1,238,515.3,237.7,517.8,237.7z"/>
		<path fill="#FFFFFF" d="M573,269.9c-2.7-4.8-5.7-9.6-8.8-14.3c-3.2-4.7-6.6-9.2-10.1-13.4v27.7h-9.4v-42.3h7.8
			c1.3,1.3,2.8,3,4.5,4.9c1.6,2,3.3,4,5,6.3c1.7,2.2,3.4,4.5,5,6.9c1.7,2.4,3.2,4.7,4.7,6.9v-25h9.5v42.3H573z"/>
		<path fill="#FFFFFF" d="M617.3,254.1c0,2.5-0.4,4.7-1.1,6.8c-0.7,2-1.7,3.8-3,5.2c-1.3,1.4-2.8,2.5-4.5,3.3
			c-1.7,0.8-3.7,1.2-5.8,1.2c-2.1,0-4-0.4-5.8-1.2c-1.7-0.8-3.3-1.9-4.5-3.3c-1.3-1.4-2.3-3.2-3-5.2c-0.7-2-1.1-4.3-1.1-6.8
			c0-2.5,0.4-4.7,1.1-6.8c0.7-2,1.7-3.8,3-5.2c1.3-1.4,2.8-2.6,4.5-3.4c1.7-0.8,3.7-1.2,5.8-1.2c2.1,0,4,0.4,5.8,1.2
			c1.7,0.8,3.3,1.9,4.5,3.4c1.3,1.4,2.3,3.2,3,5.2C616.9,249.4,617.3,251.7,617.3,254.1z M613.1,254.1c0-3.9-0.9-7.1-2.7-9.4
			c-1.8-2.3-4.3-3.5-7.4-3.5c-3.1,0-5.6,1.2-7.4,3.5c-1.8,2.3-2.7,5.5-2.7,9.4c0,3.9,0.9,7.1,2.7,9.4s4.3,3.5,7.4,3.5
			c3.1,0,5.6-1.2,7.4-3.5C612.1,261.2,613.1,258.1,613.1,254.1z"/>
		<path fill="#FFFFFF" d="M628.7,238.3h12.6v3.4h-12.6v16.8c0,1.8,0.2,3.2,0.5,4.4c0.3,1.1,0.7,2,1.3,2.6c0.6,0.6,1.3,1,2.1,1.2
			c0.8,0.2,1.7,0.3,2.7,0.3c1.7,0,3-0.2,4-0.6c1-0.4,1.8-0.7,2.4-1.1l1,3.3c-0.6,0.4-1.6,0.8-3,1.3c-1.4,0.5-3,0.7-4.6,0.7
			c-2,0-3.6-0.3-4.9-0.8c-1.3-0.5-2.4-1.3-3.2-2.3c-0.8-1-1.4-2.3-1.7-3.9c-0.3-1.5-0.5-3.4-0.5-5.5v-29l4-0.7V238.3z"/>
	</g>
</g>
<g id="Layer_2">
</g>
</svg>
