<?xml version="1.0" encoding="utf-8"?>
<!-- Generator: Adobe Illustrator 23.0.3, SVG Export Plug-In . SVG Version: 6.00 Build 0)  -->
<svg version="1.1" id="Layer_1" xmlns="http://www.w3.org/2000/svg" xmlns:xlink="http://www.w3.org/1999/xlink" x="0px" y="0px"
	 width="892.2px" height="283.5px" viewBox="0 0 892.2 283.5" enable-background="new 0 0 892.2 283.5" xml:space="preserve">
<g>
	<path fill="#009A96" d="M646.4,259.5c0.7,4.7,2.9,9.1,6.5,12.8c3.2,3.3,9,7.6,18.3,9.7c4,0.9,8.3,1.4,12.8,1.5
		c5.4,0.1,9.6-0.3,13.2-1.1c4.4-0.9,8.8-2.2,13.1-3.8c1.9-0.7,4.1-1.6,6.1-2.6c1.5-0.8,3-1.6,4.4-2.5c-1.5-4.3-4.6-8.1-9.1-11.1
		c-5.2-3.5-12-6-19.6-7.3c-3.9-0.7-8-1-12-1c-4.9-0.1-8.7,0-12.3,0.4c-3.5,0.4-7.1,1-11.8,2.2C652.7,257.4,649.4,258.4,646.4,259.5z
		"/>
	<path fill="#88CCCB" d="M698.3,239.4c1.5,4.3,4.4,8.1,8.3,10.8c4.8,3.4,11.3,5.5,18.8,6c7.2,0.7,15.1-0.6,24.3-3.9
		c2-0.7,4-1.5,6-2.4c1.6-0.7,3.1-1.6,4.7-2.6l0.9-0.5c3.1-2,6.1-4.1,8.9-6.4c-4.6-8.2-15.5-12.8-29.6-12.6l0,0l0,0
		c-7.7-0.2-15.3,1-22.7,3.4h-0.1C710.9,232.9,704.4,235.7,698.3,239.4z"/>
	<path fill="#009A96" d="M743,212.3c4.6,8.4,15,12.8,28.1,11.8c7.2-0.8,14.9-3.3,22.2-7.1c6.5-3.8,12.5-8.7,17.3-14
		c-5.5-6.9-16.4-9.9-29.7-7.8c-7.9,1.4-15,3.6-21,6.5c-1.6,0.8-3.2,1.6-4.8,2.6l-2.3,1.4c-0.9,0.5-1.6,0.9-2.4,1.4
		C747.8,208.7,745.3,210.4,743,212.3z"/>
	<path fill="#88CCCB" d="M783.2,178.3c5.6,7.2,16.1,9.8,27.8,6.7c3.4-0.9,6.9-2.1,10.3-3.8c1.6-0.7,3.2-1.6,4.8-2.7
		c1.6-1,3.1-2.2,4.6-3.3c6.3-5,11.1-10.2,14.3-15.4c-2.8-2.6-6.6-4.3-11.1-5c-2.5-0.4-5.3-0.4-8.2,0c-3.1,0.3-6.3,0.9-9.6,1.9
		C803.7,160.6,791.8,168.5,783.2,178.3z"/>
	<path fill="#009A96" d="M863.7,132.2c-1.7,1.7-3.4,3.3-5.2,4.8v100.3c0,7.1-5.8,12.9-12.9,12.9h-82.3l-0.8,0.5
		c-1.6,1-3.3,2-5.1,2.8c-2,0.9-4.1,1.8-6.2,2.5c-2,0.7-4,1.3-5.9,1.9h100.4c11.4,0,20.6-9.2,20.6-20.6V129.6
		C865.4,130.5,864.6,131.4,863.7,132.2z"/>
	<path fill="#009A96" d="M816.8,139.2c6.2,5.8,16.2,6.7,27.1,2.3c1.8-0.7,3.3-1.4,4.6-2.2c1.4-0.8,2.9-1.8,4.3-2.8
		c2.8-2,5.5-4.4,8.1-7c4.4-4.3,8.1-9.8,11.1-16.4c-6.6-4.4-16.6-4-27.3,1.3h-0.1c-5.9,2.7-11.4,6.5-16.2,11.2
		C823.4,130.2,819.6,134.7,816.8,139.2z"/>
	<path fill="#88CCCB" d="M844.7,94.2c2.9,1.9,6.4,2.9,10.3,2.9c5.1-0.1,10.5-1.8,15.1-4.8c5.4-3.4,10.3-8.2,14.3-13.8
		c3.4-5.2,6.1-11,7.8-16.9c-6.8-3.1-16.1-1.2-25.4,5.3l0,0c-2.1,1.4-3.9,3.1-5.9,4.8c-0.4,0.4-0.9,0.8-1.3,1.2
		c-2.3,2.1-4.4,4.4-6.4,6.9c-1.9,2.4-3.6,5-5.1,7.7C846.9,89.8,845.6,92,844.7,94.2z"/>
	<path fill="#009A96" d="M671.8,179.2c-0.9,0.4-1.7,0.8-2.6,1.3c-0.4,0.2-0.8,0.4-1.2,0.6c-1,0.5-2,1-3,1.5
		c-2.6,1.5-5.2,3.3-7.5,5.4c-0.5,0.5-1,1-1.5,1.5c-1.9,1.8-3.7,3.5-5.4,5.4c-2.2,2.5-4.1,5.3-5.8,8.3c-3.6,6.4-5.8,12.2-6.5,17.8
		c-0.7,5.3-0.2,10.2,1.5,14.4c3-0.6,5.9-1.5,8.7-2.7c3-1.3,6.1-3.1,9.5-5.4c3.4-2.4,6-4.7,8.2-7.1c2.4-2.8,4.4-5.9,6.1-9l0,0
		c3.2-6.1,4.6-12.3,4.1-18.2C676,187.9,674.5,183.2,671.8,179.2z"/>
	<path fill="#88CCCB" d="M708.6,158.5c-2,1.2-4,2.7-5.8,4.3c-0.6,0.5-1.2,1.1-1.8,1.7c-0.5,0.5-1,1-1.6,1.5c-1.1,1-2.1,2.1-3.1,3.2
		c-3.5,4.1-6.8,9.6-9.7,16.6c-2.3,5.9-3.4,12.1-3.1,17.8c0.3,5.2,1.5,9.5,3.8,13.2c5.5-2.4,11-6,15.8-10.6c5-5.4,8.7-11.4,10.9-17.6
		C717.6,177,715.6,166.1,708.6,158.5z"/>
	<path fill="#009A96" d="M740.3,133.8c-4,3.3-7.4,7.3-10,12l-0.1,0.1c-3.3,5.1-5.6,10.8-6.8,17c-2.6,11.6-0.7,22.3,5.2,28.9
		c2.3-1.4,4.5-3.1,6.6-4.9c0.6-0.5,1.2-1.1,1.9-1.7c0.5-0.5,1.1-1.2,1.6-1.8c1.1-1.3,2.1-2.6,3.1-4c4.4-6.2,6.9-12.1,7.7-18.1l0,0
		C751.2,149.9,747.9,140,740.3,133.8z"/>
	<path fill="#88CCCB" d="M768.3,104.1c-2.7,3.4-5.8,7.7-7.9,12.7c-0.5,1.3-1,2.7-1.4,4.1l-1.2,4.4c-0.7,2.8-1.2,5.8-1.4,8.8
		c-0.5,11.6,2.8,21.1,9.2,26.4c9.2-8,15.1-20.3,15.1-31.8l0,0c0.1-3-0.2-5.9-0.9-8.6c-0.7-2.5-1.7-5-3-7.2
		C774.7,109.1,771.7,106.2,768.3,104.1z"/>
	<path fill="#009A96" d="M791.2,71c-2.7,4.3-4.3,9.2-5.5,13.2c-0.7,2.6-1.1,5.3-1.3,8.1c-0.1,1.4-0.1,2.9-0.1,4.3
		c0,1.3,0,2.8,0.1,4.3c0.8,10.5,5.5,19.2,12.3,23.4c3.7-4.5,6.3-9.3,7.9-14.1c1.8-6,2.4-12.2,1.7-17.8
		C804.8,82.2,799.2,74.3,791.2,71z"/>
	<path fill="#88CCCB" d="M809.5,33.9c-1.8,3.9-2.8,8.3-3.1,12.9v0.1c-0.6,5.4-0.2,10.7,1.2,15.7c1.6,5.7,3.7,10,6.4,13.4
		c2.4,3,5.4,5.3,8.5,6.6c1.1-1.7,2.2-3.8,3.1-6c0.9-2.7,1.6-5.5,2.1-8.3c0.5-2.9,0.6-5.7,0.5-8.5c0-2.9-0.9-5.9-1.6-8.3
		C823.6,42.1,817.4,35.8,809.5,33.9z"/>
	<path fill="#009A96" d="M843.5,70l-2.1,0.9l-0.8-2.1c-0.4-1.1-0.7-2.2-1-3.3C800,164.8,710.5,236.6,604.1,250c-1,0.1-9,0.2-19,0.2
		H21.6c-7.6,0-13.7-6.1-13.7-13.7V30.1c0-7.6,6.1-13.7,13.7-13.7H846c1.3-2.6,2.6-5,3.9-7.3c0.1-0.2,0.3-0.4,0.4-0.6H21.6
		C9.7,8.5,0,18.2,0,30.1v206.4C0,248.3,9.7,258,21.6,258H585c7.2,0,18.3,0,19.9-0.2c62.9-7.9,120.6-35.1,166.9-78.5
		c33.1-31.1,58.6-68.8,75.3-111C846,68.9,844.8,69.4,843.5,70z"/>
	<path fill="#009A96" d="M863.3,0c-3.6,3-6.9,6.8-9.7,11.3c-3,5.2-6.3,11.5-8.4,18.7l0,0c-0.5,1.7-0.9,3.5-1.3,5.2l-0.2,1.1
		c-0.3,1.4-0.5,2.8-0.8,4.2c-0.6,3.2-0.9,6.5-0.9,9.7c0,3.1,0.2,6.2,0.7,9.1c0.3,1.9,0.7,3.9,1.2,5.7c1.9-1,3.5-2,4.8-3.1
		c2.3-1.9,4.4-4.1,6.5-6.7c2.1-2.6,4.1-5.6,5.8-8.7c0.9-1.5,1.6-3.1,2.3-4.9c0.7-1.8,1.3-3.7,1.8-5.5c2.3-8.2,3.1-15.4,2.2-21.4
		C866.8,8.9,865.4,4,863.3,0z"/>
	<path fill="#009A96" d="M39.5,67.8h13.8l27.4,96.7l38.5-96.7h2.8l38,96.7l27.9-96.7h13.7L163,201.9h-2.5l-39.8-101.5L80.1,201.9
		h-2.5L39.5,67.8z"/>
	<path fill="#009A96" d="M220.2,67.8h13.4V124H302V67.8h13.4V202H302v-64.8h-68.3V202h-13.4V67.8H220.2z"/>
	<path fill="#009A96" d="M346.3,67.8h76.9v13.1h-63.5v42h62.9V136h-62.9v52.7h62.9v13.1h-76.3V67.8z"/>
	<path fill="#009A96" d="M502.2,67.8L564.8,202h-14.5l-21.1-44.1h-57.8L450.5,202h-15l63.4-134.2H502.2z M500.5,96.3l-23,48.6h45.9
		L500.5,96.3z"/>
	<path fill="#009A96" d="M559.2,80.9V67.8h73.5v13.1h-29.9v121h-13.7v-121C589.1,80.9,559.2,80.9,559.2,80.9z"/>
</g>
<g display="none">
	<g display="inline">
		<g>
			<circle fill-rule="evenodd" clip-rule="evenodd" fill="#009A96" cx="535.3" cy="143" r="73.7"/>
		</g>
		<g>
			<path fill="#FFFFFF" d="M465.8,125.4h3.3l6.5,22.9l9.1-22.9h0.7l9,22.9l6.6-22.9h3.2l-9.1,31.7h-0.6l-9.4-24l-9.6,24h-0.6
				L465.8,125.4z"/>
		</g>
		<g>
			<path fill="#FFFFFF" d="M509.5,124.6h3v13.3c1.2-1.6,2.6-2.8,4-3.6c1.5-0.8,3.1-1.2,4.8-1.2c1.8,0,3.3,0.4,4.7,1.3
				c1.4,0.9,2.4,2.1,3,3.6s1,3.9,1,7.1v12.1h-3V146c0-2.7-0.1-4.5-0.3-5.4c-0.4-1.6-1.1-2.7-2-3.5c-1-0.8-2.3-1.2-3.9-1.2
				c-1.8,0-3.5,0.6-4.9,1.8s-2.4,2.7-2.9,4.5c-0.3,1.1-0.4,3.3-0.4,6.4v8.6h-3L509.5,124.6L509.5,124.6z"/>
		</g>
		<g>
			<path fill-rule="evenodd" clip-rule="evenodd" fill="#FFFFFF" d="M524.2,222.6c11.7-24.8,99.3-29.3,99.3-121.8
				C615,120.5,506.7,123.6,524.2,222.6"/>
		</g>
		<g>
			<g>
				<path fill="#FFFFFF" d="M556.2,149.4l2.5,1.3c-0.8,1.6-1.8,3-2.9,4c-1.1,1-2.3,1.8-3.7,2.3s-2.9,0.8-4.6,0.8
					c-3.8,0-6.8-1.3-9-3.8s-3.2-5.3-3.2-8.5c0-3,0.9-5.6,2.7-8c2.3-3,5.4-4.4,9.3-4.4c4,0,7.2,1.5,9.6,4.6c1.7,2.1,2.6,4.8,2.6,8
					h-21.1c0.1,2.7,0.9,5,2.6,6.7c1.7,1.7,3.8,2.6,6.2,2.6c1.2,0,2.4-0.2,3.5-0.6c1.1-0.4,2.1-1,2.9-1.7
					C554.4,152,555.3,150.9,556.2,149.4z M556.2,143c-0.4-1.6-1-2.9-1.8-3.9s-1.8-1.7-3.1-2.3s-2.6-0.9-4-0.9
					c-2.3,0-4.3,0.7-5.9,2.2c-1.2,1.1-2.1,2.7-2.7,4.9H556.2z"/>
			</g>
		</g>
		<g>
			<g>
				<path fill="#009A96" d="M554.4,139.2c0.8,1,1.4,2.3,1.8,3.9h-7.5c-1,0.8-1.9,1.7-2.9,2.6h13.7c0-3.2-0.9-5.9-2.6-8
					c-0.2-0.2-0.4-0.4-0.6-0.6c-0.8,0.6-1.6,1.1-2.4,1.7C554.2,138.9,554.3,139,554.4,139.2z"/>
			</g>
			<g>
				<path fill="#009A96" d="M538.5,154c2.2,2.5,5.2,3.8,9,3.8c1.7,0,3.3-0.3,4.6-0.8c1.4-0.5,2.6-1.3,3.7-2.3c1.1-1,2.1-2.3,2.9-4
					l-2.5-1.3c-0.9,1.5-1.8,2.6-2.6,3.3s-1.8,1.2-2.9,1.7c-1.1,0.4-2.3,0.6-3.5,0.6c-2.5,0-4.6-0.9-6.2-2.6
					c-0.3-0.3-0.5-0.6-0.8-0.9c-0.7,0.8-1.3,1.5-1.9,2.3C538.4,153.8,538.5,153.9,538.5,154z"/>
			</g>
		</g>
		<g>
			<g>
				<path fill="#009A96" d="M588.5,133.7v23.5h-3v-4c-1.3,1.5-2.7,2.7-4.3,3.5s-3.3,1.2-5.2,1.2c-3.3,0-6.2-1.2-8.5-3.6
					c-2.4-2.4-3.5-5.3-3.5-8.8c0-3.4,1.2-6.3,3.6-8.7c2.4-2.4,5.2-3.6,8.6-3.6c1.9,0,3.7,0.4,5.2,1.2c1.6,0.8,2.9,2.1,4.1,3.7v-4.3
					L588.5,133.7L588.5,133.7z M576.5,136c-1.7,0-3.2,0.4-4.7,1.2c-1.4,0.8-2.6,2-3.4,3.5c-0.8,1.5-1.3,3.1-1.3,4.7
					c0,1.7,0.4,3.2,1.3,4.7c0.8,1.5,2,2.7,3.4,3.5s3,1.3,4.6,1.3c1.7,0,3.2-0.4,4.7-1.2s2.6-2,3.4-3.4c0.8-1.4,1.2-3,1.2-4.8
					c0-2.7-0.9-5-2.7-6.8C581.3,136.9,579.1,136,576.5,136z"/>
			</g>
		</g>
		<g>
			<g>
				<path fill="#009A96" d="M598,125h3v8.7h4.8v2.6H601v20.9h-3v-20.9h-4.1v-2.6h4.1V125z"/>
			</g>
		</g>
	</g>
	<g display="inline">
		<g>
			<circle fill-rule="evenodd" clip-rule="evenodd" fill="#009A96" cx="776.9" cy="144.2" r="73.7"/>
		</g>
		<g>
			<path fill-rule="evenodd" clip-rule="evenodd" fill="#FFFFFF" d="M813.1,132.5c-26.3-13.7-19.2-57.5,0-76.7
				C832.3,75,839.4,118.7,813.1,132.5"/>
		</g>
		<g>
			<path fill-rule="evenodd" clip-rule="evenodd" fill="#FFFFFF" d="M813.1,159.9c-21.9-7.1-45.9-31.6-45.9-60.2
				c16.8,0,37.2,13.3,45.9,31.7c8.6-18.3,29.1-31.7,45.9-31.7C859,128.3,835.3,152.7,813.1,159.9"/>
		</g>
		<g>
			<path fill-rule="evenodd" clip-rule="evenodd" fill="#FFFFFF" d="M813.1,212.3c-31.1-10.1-65.2-45-65.2-85.6
				c23.9,0,52.9,18.9,65.2,45c12.3-26.1,41.4-45,65.2-45C878.4,167.4,844.7,202,813.1,212.3"/>
		</g>
		<g>
			<g>
				<path fill="#FFFFFF" d="M707.4,126.6h3.3l6.5,22.9l9.1-22.9h0.7l9,22.9l6.6-22.9h3.2l-9.1,31.7H736l-9.4-24l-9.6,24h-0.6
					L707.4,126.6z"/>
			</g>
		</g>
		<g>
			<g>
				<path fill="#009A96" d="M751.1,125.8h3v13.3c1.2-1.6,2.6-2.8,4-3.6c1.5-0.8,3.1-1.2,4.8-1.2c1.8,0,3.3,0.4,4.7,1.3
					s2.4,2.1,3,3.6s1,3.9,1,7.1v12.1h-3v-11.2c0-2.7-0.1-4.5-0.3-5.4c-0.4-1.6-1.1-2.7-2-3.5c-1-0.8-2.3-1.2-3.9-1.2
					c-1.8,0-3.5,0.6-4.9,1.8s-2.4,2.7-2.9,4.5c-0.3,1.1-0.4,3.3-0.4,6.4v8.6h-3L751.1,125.8L751.1,125.8z"/>
			</g>
		</g>
		<rect x="797.7" y="83.8" fill="#FFFFFF" width="72.8" height="87.3"/>
		<g>
			<g>
				<path fill="#009A96" d="M797.8,150.6l2.5,1.3c-0.8,1.6-1.8,3-2.9,4c-1.1,1-2.3,1.8-3.7,2.3s-2.9,0.8-4.6,0.8
					c-3.8,0-6.8-1.3-9-3.8s-3.2-5.3-3.2-8.5c0-3,0.9-5.6,2.7-8c2.3-3,5.4-4.4,9.3-4.4c4,0,7.2,1.5,9.6,4.6c1.7,2.1,2.6,4.8,2.6,8
					H780c0.1,2.7,0.9,5,2.6,6.7c1.7,1.7,3.8,2.6,6.2,2.6c1.2,0,2.4-0.2,3.5-0.6c1.1-0.4,2.1-1,2.9-1.7
					C796,153.2,796.9,152.1,797.8,150.6z M797.8,144.3c-0.4-1.6-1-2.9-1.8-3.9s-1.8-1.7-3.1-2.3s-2.6-0.9-4-0.9
					c-2.3,0-4.3,0.7-5.9,2.2c-1.2,1.1-2.1,2.7-2.7,4.9H797.8z"/>
			</g>
		</g>
		<g>
			<g>
				<path fill="#009A96" d="M830.2,134.9v23.5h-3v-4c-1.3,1.5-2.7,2.7-4.3,3.5s-3.3,1.2-5.2,1.2c-3.3,0-6.2-1.2-8.5-3.6
					c-2.4-2.4-3.5-5.3-3.5-8.8c0-3.4,1.2-6.3,3.6-8.7c2.4-2.4,5.2-3.6,8.6-3.6c1.9,0,3.7,0.4,5.2,1.2c1.6,0.8,2.9,2.1,4.1,3.7V135
					L830.2,134.9L830.2,134.9z M818.1,137.2c-1.7,0-3.2,0.4-4.7,1.2c-1.4,0.8-2.6,2-3.4,3.5c-0.8,1.5-1.3,3.1-1.3,4.7
					c0,1.7,0.4,3.2,1.3,4.7c0.8,1.5,2,2.7,3.4,3.5s3,1.3,4.6,1.3c1.7,0,3.2-0.4,4.7-1.2s2.6-2,3.4-3.4c0.8-1.4,1.2-3,1.2-4.8
					c0-2.7-0.9-5-2.7-6.8C822.9,138.1,820.7,137.2,818.1,137.2z"/>
			</g>
		</g>
		<g>
			<g>
				<path fill="#009A96" d="M839.6,126.2h3v8.7h4.8v2.6h-4.8v20.9h-3v-20.9h-4.1v-2.6h4.1V126.2z"/>
			</g>
		</g>
		<path fill-rule="evenodd" clip-rule="evenodd" fill="#009A96" d="M825.4,107.7c1.7-2.1,2.8-4.7,2.8-7.5c-2,0-4.2,0.9-6,2.4
			c1-3.7-0.5-8.6-3.1-11.2c-2.6,2.6-4.1,7.5-3.1,11.2c-1.9-1.5-4.1-2.4-6-2.4c0,2.8,1.2,5.4,2.9,7.5c-2.2-1.3-4.6-2.1-6.8-2.1
			c0,8.1,6.8,15.1,13,17.1c6.3-2.1,13-9,13-17.1C830,105.6,827.6,106.4,825.4,107.7z"/>
	</g>
	<g display="inline">
		<g>
			<circle fill-rule="evenodd" clip-rule="evenodd" fill="#009A96" cx="541.7" cy="359.8" r="73.3"/>
		</g>
		<g>
			<path fill-rule="evenodd" clip-rule="evenodd" fill="#66C1C1" d="M589.4,348.4c4-1.9,4.7-15.9,19.5-15.9
				C605.7,333.9,605.2,351.2,589.4,348.4"/>
		</g>
		<g>
			<path fill-rule="evenodd" clip-rule="evenodd" fill="#FFFFFF" d="M589.4,350.6c4,1.9,4.7,15.9,19.5,15.9
				C605.7,365.2,605.2,347.8,589.4,350.6"/>
		</g>
		<g>
			<path fill-rule="evenodd" clip-rule="evenodd" fill="#FFFFFF" d="M601.2,349.5c4-7.7,17-5.5,22.5,0
				C617.9,355.2,605.2,357.2,601.2,349.5"/>
		</g>
		<g>
			<path fill-rule="evenodd" clip-rule="evenodd" fill="#FFFFFF" d="M586.2,348.4c-4-1.9-4.7-15.9-19.5-15.9
				C569.8,333.9,570.3,351.2,586.2,348.4"/>
		</g>
		<g>
			<path fill-rule="evenodd" clip-rule="evenodd" fill="#FFFFFF" d="M574.3,349.6c-4,7.7-17,5.5-22.5,0
				C557.6,343.8,570.3,341.9,574.3,349.6"/>
		</g>
		<g>
			<g>
				<path fill="#FFFFFF" d="M474,353.2h2.8l5.5,19.5l7.7-19.5h0.6l7.7,19.5l5.6-19.5h2.8l-7.8,27h-0.5l-8-20.4l-8.2,20.4h-0.5
					L474,353.2z"/>
			</g>
			<g>
				<path fill="#FFFFFF" d="M511.2,352.5h2.6v11.3c1-1.4,2.2-2.4,3.4-3.1s2.6-1,4.1-1s2.8,0.4,4,1.1c1.2,0.8,2,1.8,2.6,3.1
					c0.6,1.3,0.8,3.3,0.8,6v10.3h-2.6v-9.5c0-2.3-0.1-3.8-0.3-4.6c-0.3-1.3-0.9-2.3-1.7-3s-1.9-1-3.3-1c-1.6,0-2.9,0.5-4.2,1.5
					s-2,2.3-2.4,3.8c-0.2,1-0.4,2.8-0.4,5.4v7.3h-2.6L511.2,352.5L511.2,352.5z"/>
			</g>
			<g>
				<path fill="#FFFFFF" d="M551,373.6l2.2,1.1c-0.7,1.4-1.5,2.5-2.5,3.4c-0.9,0.9-2,1.5-3.1,2s-2.5,0.7-4,0.7
					c-3.3,0-5.8-1.1-7.6-3.2s-2.8-4.6-2.8-7.2c0-2.5,0.8-4.8,2.3-6.8c2-2.5,4.6-3.8,7.9-3.8c3.4,0,6.1,1.3,8.2,3.9
					c1.4,1.8,2.2,4.1,2.2,6.8h-18c0,2.3,0.8,4.2,2.2,5.7s3.2,2.2,5.3,2.2c1,0,2-0.2,3-0.5c1-0.4,1.8-0.8,2.5-1.4
					C549.5,375.9,550.2,374.9,551,373.6z M551,368.2c-0.3-1.4-0.8-2.5-1.5-3.3s-1.5-1.5-2.6-2s-2.2-0.8-3.4-0.8
					c-2,0-3.6,0.6-5.1,1.9c-1,0.9-1.8,2.3-2.3,4.1L551,368.2L551,368.2z"/>
			</g>
			<g>
				<path fill="#FFFFFF" d="M578.5,360.2v20H576v-3.4c-1.1,1.3-2.3,2.3-3.6,3s-2.8,1-4.4,1c-2.8,0-5.2-1-7.2-3.1s-3-4.5-3-7.5
					c0-2.9,1-5.3,3-7.4c2-2,4.5-3.1,7.3-3.1c1.6,0,3.1,0.3,4.5,1c1.3,0.7,2.5,1.7,3.5,3.1v-3.7h2.4V360.2z M568.3,362.2
					c-1.4,0-2.8,0.4-4,1.1s-2.2,1.7-2.9,3s-1.1,2.6-1.1,4s0.4,2.8,1.1,4s1.7,2.3,2.9,3s2.5,1.1,3.9,1.1s2.7-0.4,4-1.1
					s2.2-1.7,2.9-2.9c0.7-1.2,1-2.6,1-4.1c0-2.3-0.8-4.2-2.3-5.8C572.4,363,570.5,362.2,568.3,362.2z"/>
			</g>
			<g>
				<path fill="#FFFFFF" d="M586.6,352.8h2.6v7.4h4.1v2.2h-4.1v17.8h-2.6v-17.8h-3.5v-2.2h3.5V352.8z"/>
			</g>
		</g>
		<g>
			<path fill-rule="evenodd" clip-rule="evenodd" fill="#66C1C1" d="M586.2,350.6c-4,1.9-4.7,15.9-19.5,15.9
				C569.8,365.2,570.3,347.8,586.2,350.6"/>
		</g>
	</g>
	<g display="inline">
		<g>
			<circle fill-rule="evenodd" clip-rule="evenodd" fill="#009A96" cx="771.4" cy="359.9" r="73.7"/>
		</g>
		<g>
			<g>
				<path fill="#FFFFFF" d="M701.4,344.1h3.3l6.5,22.9l9.1-22.9h0.7l9,22.9l6.6-22.9h3.2l-9.1,31.7H730l-9.4-24l-9.6,24h-0.6
					L701.4,344.1z"/>
			</g>
		</g>
		<g>
			<g>
				<path fill="#FFFFFF" d="M745.1,343.3h3v13.3c1.2-1.6,2.6-2.8,4-3.6c1.5-0.8,3.1-1.2,4.8-1.2c1.8,0,3.3,0.4,4.7,1.3
					s2.4,2.1,3,3.6s1,3.9,1,7.1v12.1h-3v-11.2c0-2.7-0.1-4.5-0.3-5.4c-0.4-1.6-1.1-2.7-2-3.5c-1-0.8-2.3-1.2-3.9-1.2
					c-1.8,0-3.5,0.6-4.9,1.8c-1.4,1.2-2.4,2.7-2.9,4.5c-0.3,1.1-0.4,3.3-0.4,6.4v8.6h-3L745.1,343.3L745.1,343.3z"/>
			</g>
		</g>
		<g>
			<g>
				<path fill="#FFFFFF" d="M833.6,343.7h3v8.7h4.8v2.6h-4.8v20.9h-3V355h-4.1v-2.6h4.1V343.7z"/>
			</g>
		</g>
		<g>
			<path fill-rule="evenodd" clip-rule="evenodd" fill="#FFFFFF" d="M798.3,416.4c-45.3-23.7-32.4-99.7,0-132.1
				C832.1,318.1,843.6,392.8,798.3,416.4"/>
		</g>
		<g>
			<g>
				<path fill="#66C1C1" d="M792.6,368.1l2.5,1.3c-0.8,1.6-1.8,3-2.9,4c-1.1,1-2.3,1.8-3.7,2.3s-2.9,0.8-4.6,0.8
					c-3.8,0-6.8-1.3-9-3.8s-3.2-5.3-3.2-8.5c0-3,0.9-5.6,2.7-8c2.3-3,5.4-4.4,9.3-4.4c4,0,7.2,1.5,9.6,4.6c1.7,2.1,2.6,4.8,2.6,8
					h-21.1c0.1,2.7,0.9,5,2.6,6.7c1.7,1.7,3.8,2.6,6.2,2.6c1.2,0,2.4-0.2,3.5-0.6s2.1-1,2.9-1.7
					C790.8,370.7,791.7,369.6,792.6,368.1z M792.6,361.7c-0.4-1.6-1-2.9-1.8-3.9s-1.8-1.7-3.1-2.3c-1.3-0.6-2.6-0.9-4-0.9
					c-2.3,0-4.3,0.7-5.9,2.2c-1.2,1.1-2.1,2.7-2.7,4.9L792.6,361.7L792.6,361.7z"/>
			</g>
		</g>
		<g>
			<g>
				<path fill="#66C1C1" d="M823.4,352.4v23.5h-3v-4c-1.3,1.5-2.7,2.7-4.3,3.5s-3.3,1.2-5.2,1.2c-3.3,0-6.2-1.2-8.5-3.6
					c-2.4-2.4-3.5-5.3-3.5-8.8c0-3.4,1.2-6.3,3.6-8.7c2.4-2.4,5.2-3.6,8.6-3.6c1.9,0,3.7,0.4,5.2,1.2c1.6,0.8,2.9,2.1,4.1,3.7v-4.3
					h3V352.4z M811.3,354.7c-1.7,0-3.2,0.4-4.7,1.2c-1.4,0.8-2.6,2-3.4,3.5c-0.8,1.5-1.3,3.1-1.3,4.7c0,1.7,0.4,3.2,1.3,4.7
					c0.8,1.5,2,2.7,3.4,3.5s3,1.3,4.6,1.3c1.7,0,3.2-0.4,4.7-1.2c1.5-0.8,2.6-2,3.4-3.4c0.8-1.4,1.2-3,1.2-4.8c0-2.7-0.9-5-2.7-6.8
					S813.9,354.7,811.3,354.7z"/>
			</g>
		</g>
	</g>
</g>
</svg>
