<svg viewBox="0 0 966.4 283.5" role="img" aria-labelledby="aztec--title" xmlns="http://www.w3.org/2000/svg" xmlns:xlink="http://www.w3.org/1999/xlink"><title id="aztec--title">AZTEC: Azithromycin Therapy for Chronic Lung Disease</title><path d="M208.7,202.8h-53l-13.9-40.2H68.2l-13.9,40.2H2.7L76.1,3.9h59L208.7,202.8L208.7,202.8z M129.5,126.1  L105,54.8l-24.5,71.3H129.5z M395.7,202.8H228.6v-37.3l99.1-123.2h-94.3V3.9h157v37.9l-99.1,122.5h104.4L395.7,202.8L395.7,202.8z   M591.6,42.3h-62.1v160.4h-51.4V42.3H416V3.9h175.5L591.6,42.3L591.6,42.3z M769.7,202.8H625.7V3.9h143.9v38.5h-92.8v34.3h86.2v38.5  h-86.2v49.2h92.8V202.8L769.7,202.8z" fill="#C41C1C"  /><path d="M896,206.7c-14.8,0-28.4-2.2-40.9-6.5c-12.5-4.4-23.3-10.9-32.3-19.5c-9-8.6-16-19.4-20.9-32.3  c-4.9-12.9-7.4-27.8-7.4-44.8c0-15.8,2.4-30.1,7.1-42.9c4.7-12.8,11.6-23.8,20.6-33c8.6-8.8,19.3-15.6,32.1-20.4  C867.1,2.4,881,0,896.2,0c8.4,0,15.9,0.5,22.6,1.4c6.7,0.9,12.9,2.2,18.6,3.7c6,1.7,11.4,3.6,16.2,5.7c4.9,2.1,9.1,4,12.8,5.8v48.2  h-5.9c-2.5-2.1-5.6-4.7-9.4-7.6c-3.8-2.9-8.1-5.8-12.9-8.6c-4.9-2.8-10.2-5.2-15.9-7.2c-5.7-1.9-11.8-2.9-18.3-2.9  c-7.2,0-14.1,1.1-20.6,3.4c-6.5,2.3-12.5,6-18,11.3c-5.3,5.1-9.5,11.8-12.8,20.1c-3.3,8.4-4.9,18.5-4.9,30.4  c0,12.4,1.8,22.8,5.3,31.2s7.9,14.9,13.3,19.7c5.4,4.9,11.5,8.4,18.2,10.5c6.7,2.1,13.3,3.1,19.8,3.1c6.2,0,12.4-0.9,18.5-2.8  c6.1-1.9,11.7-4.4,16.9-7.6c4.4-2.6,8.4-5.3,12.2-8.2c3.7-2.9,6.8-5.5,9.2-7.6h5.3v47.6c-5,2.2-9.8,4.3-14.3,6.3s-9.3,3.7-14.3,5.1  c-6.5,1.9-12.6,3.3-18.3,4.3C913.8,206.2,906,206.7,896,206.7L896,206.7z" fill="#263684"  /><g><path d="M27.8,274.8h-4.3l-3-8.6H7.1l-3,8.6H0l11.2-30.7h5.4L27.8,274.8z M19.2,262.8l-5.4-15.1l-5.4,15.1   C8.4,262.8,19.2,262.8,19.2,262.8z M47.8,274.8H29.2v-2.9l13.4-16.8H29.5v-3.2h18v2.8l-13.5,17h13.8V274.8z M56.4,248H52v-4h4.4   V248z M56.2,274.8h-3.9v-23h3.9V274.8z M74.8,274.6c-0.7,0.2-1.5,0.4-2.4,0.5s-1.6,0.2-2.3,0.2c-2.4,0-4.1-0.6-5.4-1.9   c-1.2-1.3-1.8-3.3-1.8-6.1v-12.2h-2.6v-3.3h2.6v-6.6h3.9v6.6h8v3.3h-8v10.5c0,1.2,0,2.2,0.1,2.8c0.1,0.7,0.2,1.3,0.6,1.9   c0.3,0.5,0.7,1,1.2,1.2c0.5,0.3,1.3,0.4,2.4,0.4c0.6,0,1.3-0.1,2-0.3s1.2-0.3,1.5-0.5h0.2L74.8,274.6L74.8,274.6z M97.7,274.8h-3.9   v-13.1c0-1.1-0.1-2.1-0.2-3s-0.3-1.7-0.7-2.2c-0.3-0.6-0.8-1-1.5-1.3c-0.6-0.3-1.5-0.4-2.5-0.4c-1.1,0-2.2,0.3-3.3,0.8   c-1.2,0.5-2.3,1.2-3.3,2v17.2h-3.9v-32.1h3.9v11.6c1.2-1,2.5-1.8,3.8-2.4c1.3-0.6,2.6-0.8,4-0.8c2.5,0,4.4,0.8,5.7,2.2   c1.3,1.5,2,3.7,2,6.5v15H97.7z M118.5,256.1h-0.2c-0.6-0.1-1.1-0.2-1.7-0.3c-0.5-0.1-1.2-0.1-1.9-0.1c-1.2,0-2.4,0.3-3.5,0.8   c-1.1,0.5-2.2,1.2-3.2,2.1v16.3h-3.9v-23h3.9v3.4c1.5-1.2,2.9-2.1,4.1-2.6c1.2-0.5,2.4-0.8,3.6-0.8c0.7,0,1.2,0,1.5,0.1   c0.3,0,0.8,0.1,1.4,0.2v3.9L118.5,256.1z M140.8,263.3c0,3.8-1,6.7-2.9,8.9c-1.9,2.2-4.5,3.3-7.7,3.3c-3.3,0-5.8-1.1-7.8-3.3   c-1.9-2.2-2.9-5.1-2.9-8.9c0-3.8,1-6.7,2.9-8.9c1.9-2.2,4.5-3.3,7.8-3.3c3.2,0,5.8,1.1,7.7,3.3   C139.8,256.6,140.8,259.6,140.8,263.3z M136.8,263.3c0-3-0.6-5.2-1.8-6.6c-1.2-1.5-2.8-2.2-4.9-2.2c-2.1,0-3.7,0.7-4.9,2.2   c-1.2,1.5-1.7,3.7-1.7,6.6c0,2.9,0.6,5.1,1.8,6.6c1.2,1.5,2.8,2.2,4.9,2.2c2.1,0,3.7-0.7,4.9-2.2   C136.2,268.5,136.8,266.3,136.8,263.3z M179.4,274.8h-3.9v-13.1c0-1,0-1.9-0.1-2.9c-0.1-0.9-0.3-1.7-0.6-2.2   c-0.3-0.6-0.8-1-1.4-1.3c-0.6-0.3-1.4-0.5-2.6-0.5c-1.1,0-2.2,0.3-3.3,0.8s-2.2,1.2-3.3,2.1c0,0.3,0.1,0.7,0.1,1.1v15.9h-3.9v-13.1   c0-1,0-2-0.1-2.9c-0.1-0.9-0.3-1.6-0.6-2.2c-0.3-0.6-0.8-1-1.4-1.3c-0.6-0.3-1.4-0.4-2.6-0.4c-1.1,0-2.1,0.3-3.2,0.8   c-1.1,0.5-2.1,1.2-3.2,2v17.2h-3.9v-23h3.9v2.6c1.2-1,2.4-1.8,3.6-2.4c1.2-0.6,2.5-0.8,3.8-0.8c1.6,0,2.9,0.3,4,1   c1.1,0.7,1.9,1.6,2.4,2.7c1.6-1.3,3-2.3,4.3-2.9c1.3-0.6,2.7-0.9,4.1-0.9c2.5,0,4.4,0.8,5.6,2.3c1.2,1.5,1.8,3.7,1.8,6.4v15   L179.4,274.8z M205.3,251.8l-13.4,31.5h-4.1l4.3-9.6l-9.2-21.9h4.2l7.1,17.1l7.1-17.1L205.3,251.8L205.3,251.8z M226.1,273.4   c-1.3,0.6-2.5,1.1-3.7,1.4s-2.4,0.5-3.7,0.5c-1.7,0-3.2-0.2-4.6-0.7c-1.4-0.5-2.6-1.2-3.6-2.2c-1-1-1.8-2.2-2.3-3.8   c-0.5-1.5-0.8-3.3-0.8-5.3c0-3.8,1-6.7,3.1-8.9c2.1-2.1,4.8-3.2,8.2-3.2c1.3,0,2.6,0.2,3.9,0.6c1.3,0.4,2.4,0.8,3.5,1.4v4.3h-0.2   c-1.2-0.9-2.4-1.6-3.7-2.1c-1.3-0.5-2.5-0.7-3.7-0.7c-2.2,0-3.9,0.7-5.2,2.2c-1.3,1.5-1.9,3.6-1.9,6.5c0,2.8,0.6,4.9,1.9,6.4   c1.2,1.5,3,2.2,5.2,2.2c0.8,0,1.6-0.1,2.4-0.3c0.8-0.2,1.5-0.5,2.2-0.8c0.6-0.3,1.1-0.6,1.6-0.9c0.5-0.3,0.9-0.6,1.2-0.8h0.2   L226.1,273.4L226.1,273.4z M234.2,248h-4.4v-4h4.4V248z M234,274.8h-3.9v-23h3.9L234,274.8L234,274.8z M259.9,274.8H256v-13.1   c0-1.1-0.1-2.1-0.2-3s-0.3-1.7-0.7-2.2c-0.3-0.6-0.8-1-1.5-1.3c-0.6-0.3-1.5-0.4-2.5-0.4c-1.1,0-2.2,0.3-3.3,0.8   c-1.2,0.5-2.3,1.2-3.3,2v17.2h-3.9v-23h3.9v2.6c1.2-1,2.5-1.8,3.8-2.4c1.3-0.6,2.6-0.8,4-0.8c2.5,0,4.4,0.8,5.7,2.2   c1.3,1.5,2,3.7,2,6.5v14.9H259.9z M302.4,247.8h-11v27.1h-4.1v-27.1h-11v-3.6h26v3.6L302.4,247.8z M324.4,274.8h-3.9v-13.1   c0-1.1-0.1-2.1-0.2-3c-0.1-0.9-0.3-1.7-0.7-2.2c-0.3-0.6-0.8-1-1.5-1.3c-0.6-0.3-1.5-0.4-2.5-0.4c-1.1,0-2.2,0.3-3.3,0.8   c-1.2,0.5-2.3,1.2-3.3,2v17.2h-3.9v-32.1h3.9v11.6c1.2-1,2.5-1.8,3.8-2.4c1.3-0.6,2.6-0.8,4-0.8c2.5,0,4.4,0.8,5.7,2.2   c1.3,1.5,2,3.7,2,6.5v15H324.4z M350.1,263.7h-17c0,1.4,0.2,2.6,0.6,3.7s1,1.9,1.8,2.6c0.7,0.7,1.6,1.2,2.5,1.5   c1,0.3,2.1,0.5,3.2,0.5c1.6,0,3.1-0.3,4.7-0.9c1.6-0.6,2.7-1.2,3.4-1.8h0.2v4.2c-1.3,0.5-2.6,1-4,1.4c-1.4,0.4-2.8,0.6-4.3,0.6   c-3.8,0-6.8-1-8.9-3.1s-3.2-5-3.2-8.8c0-3.8,1-6.8,3.1-9c2.1-2.2,4.8-3.3,8.1-3.3c3.1,0,5.5,0.9,7.2,2.7c1.7,1.8,2.5,4.4,2.5,7.7   L350.1,263.7L350.1,263.7z M346.4,260.8c0-2-0.5-3.6-1.5-4.7c-1-1.1-2.5-1.7-4.6-1.7c-2.1,0-3.7,0.6-5,1.8   c-1.2,1.2-1.9,2.7-2.1,4.6H346.4z M369.4,256.1h-0.2c-0.6-0.1-1.1-0.2-1.7-0.3c-0.5-0.1-1.2-0.1-1.9-0.1c-1.2,0-2.4,0.3-3.5,0.8   c-1.1,0.5-2.2,1.2-3.2,2.1v16.3H355v-23h3.9v3.4c1.5-1.2,2.9-2.1,4.1-2.6c1.2-0.5,2.4-0.8,3.6-0.8c0.7,0,1.2,0,1.5,0.1   c0.3,0,0.8,0.1,1.4,0.2v3.9L369.4,256.1z M389.1,274.8h-3.9v-2.5c-0.3,0.2-0.8,0.6-1.4,1c-0.6,0.4-1.2,0.8-1.7,1   c-0.6,0.3-1.4,0.6-2.2,0.8c-0.8,0.2-1.8,0.3-2.9,0.3c-2.1,0-3.8-0.7-5.3-2.1c-1.4-1.4-2.2-3.1-2.2-5.3c0-1.7,0.4-3.2,1.1-4.2   c0.7-1.1,1.8-1.9,3.2-2.5c1.4-0.6,3.1-1,5.1-1.3c2-0.2,4.1-0.4,6.3-0.5v-0.6c0-0.9-0.2-1.6-0.5-2.2c-0.3-0.6-0.8-1-1.3-1.4   c-0.5-0.3-1.2-0.5-2-0.6c-0.8-0.1-1.6-0.2-2.4-0.2c-1,0-2.2,0.1-3.4,0.4s-2.5,0.7-3.9,1.2h-0.2v-3.9c0.8-0.2,1.8-0.4,3.3-0.7   c1.4-0.2,2.8-0.4,4.2-0.4c1.6,0,3,0.1,4.2,0.4c1.2,0.3,2.2,0.7,3.1,1.4c0.9,0.6,1.5,1.5,2,2.5c0.5,1,0.7,2.2,0.7,3.7L389.1,274.8   L389.1,274.8z M385.3,269.2v-6.4c-1.2,0.1-2.6,0.2-4.2,0.3c-1.6,0.1-2.9,0.3-3.8,0.6c-1.1,0.3-2,0.8-2.7,1.5c-0.7,0.7-1,1.6-1,2.8   c0,1.3,0.4,2.3,1.2,3c0.8,0.7,2,1,3.6,1c1.4,0,2.6-0.3,3.7-0.8C383.3,270.6,384.3,269.9,385.3,269.2L385.3,269.2z M415.9,263.1   c0,1.9-0.3,3.6-0.8,5.1s-1.3,2.9-2.3,3.9c-0.9,1-2,1.8-3.2,2.4c-1.2,0.6-2.5,0.8-3.9,0.8c-1.2,0-2.3-0.1-3.2-0.4   c-1-0.3-2-0.7-3-1.2v9.6h-3.9v-31.5h3.9v2.4c1-0.9,2.2-1.6,3.5-2.2c1.3-0.6,2.7-0.9,4.1-0.9c2.8,0,4.9,1,6.5,3.1   C415.1,256.4,415.9,259.3,415.9,263.1z M411.9,263.2c0-2.8-0.5-4.8-1.4-6.2c-0.9-1.4-2.4-2.1-4.4-2.1c-1.1,0-2.2,0.2-3.4,0.7   c-1.2,0.5-2.2,1.1-3.2,1.9v13c1.1,0.5,2,0.8,2.8,1c0.8,0.2,1.7,0.3,2.7,0.3c2.2,0,3.8-0.7,5.1-2.2   C411.3,268.2,411.9,266,411.9,263.2L411.9,263.2z M440.7,251.8l-13.4,31.5h-4.2l4.3-9.6l-9.2-21.9h4.2l7.1,17.1l7.1-17.1   L440.7,251.8L440.7,251.8z M471,246.5h-0.2c-0.4-0.1-1-0.3-1.7-0.4c-0.7-0.1-1.3-0.2-1.8-0.2c-1.7,0-2.9,0.4-3.6,1.1   c-0.7,0.7-1.1,2.1-1.1,4v0.8h7v3.3h-6.9v19.8h-3.9v-19.8h-2.6v-3.3h2.6v-0.7c0-2.7,0.7-4.8,2-6.3c1.4-1.5,3.3-2.2,5.9-2.2   c0.9,0,1.6,0,2.3,0.1c0.7,0.1,1.3,0.2,1.9,0.3v3.5L471,246.5z M492,263.3c0,3.8-1,6.7-2.9,8.9c-1.9,2.2-4.5,3.3-7.7,3.3   c-3.3,0-5.8-1.1-7.8-3.3c-1.9-2.2-2.9-5.1-2.9-8.9c0-3.8,1-6.7,2.9-8.9c1.9-2.2,4.5-3.3,7.8-3.3c3.2,0,5.8,1.1,7.7,3.3   C491.1,256.6,492,259.6,492,263.3z M488,263.3c0-3-0.6-5.2-1.8-6.6c-1.2-1.5-2.8-2.2-4.9-2.2s-3.7,0.7-4.9,2.2   c-1.2,1.5-1.7,3.7-1.7,6.6c0,2.9,0.6,5.1,1.8,6.6c1.2,1.5,2.8,2.2,4.9,2.2c2.1,0,3.7-0.7,4.9-2.2C487.4,268.5,488,266.3,488,263.3z    M511.4,256.1h-0.2c-0.6-0.1-1.1-0.2-1.7-0.3c-0.5-0.1-1.2-0.1-1.9-0.1c-1.2,0-2.4,0.3-3.5,0.8c-1.1,0.5-2.2,1.2-3.2,2.1v16.3H497   v-23h3.9v3.4c1.5-1.2,2.9-2.1,4.1-2.6c1.2-0.5,2.4-0.8,3.6-0.8c0.7,0,1.2,0,1.5,0.1c0.3,0,0.8,0.1,1.4,0.2L511.4,256.1L511.4,256.1   z M551.8,272.6c-0.8,0.3-1.4,0.6-2.1,0.9c-0.6,0.3-1.4,0.6-2.4,0.9c-0.8,0.3-1.7,0.5-2.7,0.7c-1,0.2-2.1,0.3-3.2,0.3   c-2.2,0-4.2-0.3-6.1-0.9c-1.8-0.6-3.4-1.6-4.8-2.9c-1.3-1.3-2.3-3-3.1-5s-1.1-4.4-1.1-7c0-2.5,0.4-4.8,1.1-6.8   c0.7-2,1.7-3.7,3.1-5.1c1.3-1.3,2.9-2.3,4.7-3.1c1.8-0.7,3.9-1.1,6.2-1.1c1.6,0,3.3,0.2,4.9,0.6c1.6,0.4,3.5,1.1,5.5,2.1v4.8h-0.3   c-1.7-1.4-3.4-2.4-5-3.1c-1.7-0.6-3.4-1-5.3-1c-1.6,0-2.9,0.3-4.2,0.8c-1.2,0.5-2.4,1.3-3.3,2.3c-0.9,1-1.7,2.3-2.2,3.9   c-0.5,1.6-0.8,3.4-0.8,5.5c0,2.2,0.3,4,0.9,5.6c0.6,1.6,1.3,2.8,2.3,3.8c1,1,2.1,1.8,3.4,2.3c1.3,0.5,2.6,0.7,4.1,0.7   c2,0,3.8-0.3,5.5-1c1.7-0.7,3.3-1.7,4.8-3h0.3v4.8L551.8,272.6z M575.5,274.8h-3.9v-13.1c0-1.1-0.1-2.1-0.2-3s-0.3-1.7-0.7-2.2   c-0.3-0.6-0.8-1-1.5-1.3c-0.6-0.3-1.5-0.4-2.5-0.4c-1.1,0-2.2,0.3-3.3,0.8c-1.2,0.5-2.3,1.2-3.3,2v17.2h-3.9v-32.1h3.9v11.6   c1.2-1,2.5-1.8,3.8-2.4c1.3-0.6,2.6-0.8,4-0.8c2.5,0,4.4,0.8,5.7,2.2c1.3,1.5,2,3.7,2,6.5L575.5,274.8L575.5,274.8z M596.3,256.1   h-0.2c-0.6-0.1-1.1-0.2-1.7-0.3c-0.5-0.1-1.2-0.1-1.9-0.1c-1.2,0-2.4,0.3-3.5,0.8c-1.1,0.5-2.2,1.2-3.2,2.1v16.3h-3.9v-23h3.9v3.4   c1.5-1.2,2.9-2.1,4.1-2.6c1.2-0.5,2.4-0.8,3.6-0.8c0.7,0,1.2,0,1.5,0.1c0.3,0,0.8,0.1,1.4,0.2L596.3,256.1L596.3,256.1z    M618.6,263.3c0,3.8-1,6.7-2.9,8.9c-1.9,2.2-4.5,3.3-7.7,3.3c-3.3,0-5.8-1.1-7.8-3.3c-1.9-2.2-2.9-5.1-2.9-8.9c0-3.8,1-6.7,2.9-8.9   c1.9-2.2,4.5-3.3,7.8-3.3c3.2,0,5.8,1.1,7.7,3.3S618.6,259.6,618.6,263.3z M614.6,263.3c0-3-0.6-5.2-1.8-6.6   c-1.2-1.5-2.8-2.2-4.9-2.2c-2.1,0-3.7,0.7-4.9,2.2c-1.2,1.5-1.7,3.7-1.7,6.6c0,2.9,0.6,5.1,1.8,6.6c1.2,1.5,2.8,2.2,4.9,2.2   c2.1,0,3.7-0.7,4.9-2.2C614,268.5,614.6,266.3,614.6,263.3z M642.8,274.8h-3.9v-13.1c0-1.1-0.1-2.1-0.2-3s-0.3-1.7-0.7-2.2   c-0.3-0.6-0.8-1-1.5-1.3c-0.6-0.3-1.5-0.4-2.5-0.4c-1.1,0-2.2,0.3-3.3,0.8c-1.2,0.5-2.3,1.2-3.3,2v17.2h-3.9v-23h3.9v2.6   c1.2-1,2.5-1.8,3.8-2.4c1.3-0.6,2.6-0.8,4-0.8c2.5,0,4.4,0.8,5.7,2.2c1.3,1.5,2,3.7,2,6.5v14.9H642.8z M653.4,248h-4.3v-4h4.4v4   H653.4z M653.2,274.8h-3.9v-23h3.9V274.8z M677,273.4c-1.3,0.6-2.5,1.1-3.7,1.4c-1.2,0.3-2.4,0.5-3.7,0.5c-1.7,0-3.2-0.2-4.6-0.7   c-1.4-0.5-2.6-1.2-3.6-2.2c-1-1-1.8-2.2-2.3-3.8c-0.5-1.5-0.8-3.3-0.8-5.3c0-3.8,1-6.7,3.1-8.9c2.1-2.1,4.8-3.2,8.2-3.2   c1.3,0,2.6,0.2,3.9,0.6c1.3,0.4,2.4,0.8,3.5,1.4v4.3h-0.2c-1.2-0.9-2.4-1.6-3.7-2.1c-1.3-0.5-2.5-0.7-3.7-0.7   c-2.2,0-3.9,0.7-5.2,2.2c-1.3,1.5-1.9,3.6-1.9,6.5c0,2.8,0.6,4.9,1.9,6.4c1.2,1.5,3,2.2,5.2,2.2c0.8,0,1.6-0.1,2.4-0.3   c0.8-0.2,1.5-0.5,2.2-0.8c0.6-0.3,1.1-0.6,1.6-0.9s0.9-0.6,1.2-0.8h0.2L677,273.4L677,273.4z M714.5,274.8h-19.4v-30.7h4.1v27.1   h15.3L714.5,274.8L714.5,274.8z M736.3,274.8h-3.9v-2.6c-1.3,1-2.6,1.8-3.8,2.4c-1.2,0.5-2.5,0.8-4,0.8c-2.4,0-4.3-0.7-5.6-2.2   s-2-3.6-2-6.5v-14.9h3.9v13.1c0,1.2,0.1,2.2,0.2,3c0.1,0.8,0.3,1.5,0.7,2.1c0.4,0.6,0.8,1,1.4,1.3c0.6,0.3,1.4,0.4,2.6,0.4   c1,0,2.1-0.3,3.3-0.8c1.2-0.5,2.3-1.2,3.3-2v-17.2h3.9L736.3,274.8L736.3,274.8z M762.2,274.8h-3.9v-13.1c0-1.1-0.1-2.1-0.2-3   c-0.1-0.9-0.4-1.7-0.7-2.2c-0.3-0.6-0.8-1-1.5-1.3c-0.6-0.3-1.5-0.4-2.5-0.4c-1.1,0-2.2,0.3-3.3,0.8c-1.2,0.5-2.3,1.2-3.3,2v17.2   h-3.9v-23h3.9v2.6c1.2-1,2.5-1.8,3.8-2.4c1.3-0.6,2.6-0.8,4-0.8c2.5,0,4.4,0.8,5.7,2.2c1.3,1.5,2,3.7,2,6.5v14.9H762.2z    M787.3,272.2c0,3.9-0.9,6.8-2.7,8.6c-1.8,1.8-4.5,2.7-8.2,2.7c-1.2,0-2.4-0.1-3.6-0.3c-1.2-0.2-2.3-0.4-3.4-0.7v-4h0.2   c0.6,0.2,1.6,0.6,3,0.9c1.4,0.4,2.7,0.5,4.1,0.5c1.3,0,2.4-0.2,3.3-0.5c0.9-0.3,1.5-0.8,2-1.3c0.5-0.5,0.8-1.2,1-1.9   c0.2-0.8,0.3-1.6,0.3-2.5v-2.1c-1.2,0.9-2.3,1.6-3.3,2.1c-1,0.5-2.4,0.7-4.1,0.7c-2.7,0-4.9-1-6.5-3s-2.4-4.8-2.4-8.4   c0-2,0.3-3.7,0.8-5.1c0.6-1.4,1.3-2.7,2.3-3.7c0.9-1,2-1.7,3.3-2.3c1.3-0.5,2.5-0.8,3.8-0.8s2.4,0.1,3.3,0.4   c0.9,0.3,1.9,0.7,2.9,1.2l0.2-1h3.6v20.5L787.3,272.2z M783.4,268.5v-12.6c-1-0.5-2-0.8-2.9-1c-0.9-0.2-1.8-0.3-2.6-0.3   c-2.1,0-3.8,0.7-5,2.1c-1.2,1.4-1.8,3.5-1.8,6.2c0,2.6,0.5,4.5,1.4,5.9c0.9,1.3,2.4,2,4.5,2c1.1,0,2.3-0.2,3.4-0.6   C781.4,269.8,782.5,269.2,783.4,268.5L783.4,268.5z M834,259.5c0,2.8-0.6,5.3-1.8,7.6c-1.2,2.3-2.8,4-4.9,5.3   c-1.4,0.9-3,1.5-4.7,1.9c-1.7,0.4-4,0.6-6.8,0.6H808v-30.7h7.7c3,0,5.4,0.2,7.1,0.6c1.7,0.4,3.3,1,4.5,1.8c2.1,1.3,3.7,3,4.9,5.2   C833.4,254,834,256.6,834,259.5z M829.7,259.5c0-2.4-0.4-4.4-1.3-6.1c-0.8-1.6-2.1-2.9-3.8-3.9c-1.2-0.7-2.5-1.2-3.9-1.4   c-1.4-0.3-3-0.4-4.9-0.4H812v23.7h3.8c2,0,3.7-0.1,5.1-0.4c1.5-0.3,2.8-0.8,4-1.6c1.5-1,2.7-2.3,3.4-3.9   C829.3,263.9,829.7,261.9,829.7,259.5L829.7,259.5z M843.4,248H839v-4h4.4V248z M843.2,274.8h-3.9v-23h3.9V274.8z M866.3,268.2   c0,2.1-0.9,3.8-2.6,5.2c-1.7,1.3-4.1,2-7.1,2c-1.7,0-3.3-0.2-4.7-0.6s-2.6-0.8-3.6-1.3v-4.4h0.2c1.2,0.9,2.6,1.7,4.1,2.2   c1.5,0.5,2.9,0.8,4.3,0.8c1.7,0,3-0.3,4-0.8c1-0.5,1.4-1.4,1.4-2.6c0-0.9-0.3-1.6-0.8-2.1s-1.5-0.9-3-1.2c-0.5-0.1-1.3-0.3-2.2-0.4   c-0.9-0.2-1.7-0.3-2.4-0.5c-2-0.5-3.5-1.3-4.3-2.4c-0.8-1-1.3-2.3-1.3-3.8c0-0.9,0.2-1.8,0.6-2.7c0.4-0.8,1-1.6,1.8-2.2   c0.8-0.6,1.8-1.2,2.9-1.5c1.2-0.4,2.5-0.6,4-0.6c1.4,0,2.8,0.2,4.2,0.5c1.4,0.3,2.6,0.7,3.5,1.2v4.1h-0.1c-1-0.7-2.2-1.3-3.6-1.8   c-1.4-0.5-2.8-0.8-4.2-0.8c-1.4,0-2.6,0.3-3.6,0.8c-1,0.5-1.5,1.4-1.5,2.4c0,0.9,0.3,1.7,0.9,2.1c0.6,0.5,1.5,0.9,2.8,1.2   c0.7,0.2,1.5,0.3,2.4,0.5c0.9,0.2,1.6,0.3,2.2,0.5c1.8,0.4,3.2,1.1,4.2,2.1C865.8,265.2,866.3,266.5,866.3,268.2L866.3,268.2z    M890.1,263.7h-17c0,1.4,0.2,2.6,0.6,3.7c0.4,1.1,1,1.9,1.8,2.6c0.7,0.7,1.6,1.2,2.5,1.5c1,0.3,2.1,0.5,3.2,0.5   c1.6,0,3.1-0.3,4.7-0.9c1.6-0.6,2.7-1.2,3.4-1.8h0.2v4.2c-1.3,0.5-2.6,1-4,1.4c-1.4,0.4-2.8,0.6-4.3,0.6c-3.8,0-6.8-1-8.9-3.1   c-2.1-2.1-3.2-5-3.2-8.8c0-3.8,1-6.8,3.1-9s4.8-3.3,8.1-3.3c3.1,0,5.5,0.9,7.2,2.7c1.7,1.8,2.5,4.4,2.5,7.7v2L890.1,263.7z    M886.3,260.8c0-2-0.5-3.6-1.5-4.7c-1-1.1-2.5-1.7-4.6-1.7c-2.1,0-3.7,0.6-5,1.8c-1.2,1.2-1.9,2.7-2.1,4.6H886.3L886.3,260.8z    M912.8,274.8h-3.9v-2.5c-0.3,0.2-0.8,0.6-1.4,1c-0.6,0.4-1.2,0.8-1.7,1c-0.6,0.3-1.4,0.6-2.2,0.8c-0.8,0.2-1.8,0.3-2.9,0.3   c-2.1,0-3.8-0.7-5.3-2.1c-1.4-1.4-2.2-3.1-2.2-5.3c0-1.7,0.4-3.2,1.1-4.2c0.7-1.1,1.8-1.9,3.2-2.5c1.4-0.6,3.1-1,5.1-1.3   c2-0.2,4.1-0.4,6.3-0.5v-0.6c0-0.9-0.2-1.6-0.5-2.2c-0.3-0.6-0.8-1-1.3-1.4c-0.5-0.3-1.2-0.5-2-0.6c-0.8-0.1-1.6-0.2-2.4-0.2   c-1,0-2.2,0.1-3.4,0.4c-1.3,0.3-2.5,0.7-3.9,1.2h-0.2v-3.9c0.8-0.2,1.8-0.4,3.3-0.7c1.4-0.2,2.8-0.4,4.2-0.4c1.6,0,3,0.1,4.2,0.4   c1.2,0.3,2.2,0.7,3.1,1.4c0.9,0.6,1.5,1.5,2,2.5c0.5,1,0.7,2.2,0.7,3.7v15.7L912.8,274.8z M909,269.2v-6.4   c-1.2,0.1-2.6,0.2-4.2,0.3c-1.6,0.1-2.9,0.3-3.8,0.6c-1.1,0.3-2,0.8-2.7,1.5c-0.7,0.7-1,1.6-1,2.8c0,1.3,0.4,2.3,1.2,3   c0.8,0.7,2,1,3.6,1c1.4,0,2.6-0.3,3.7-0.8C907,270.6,908,269.9,909,269.2z M935.7,268.2c0,2.1-0.9,3.8-2.6,5.2   c-1.7,1.4-4.1,2-7.1,2c-1.7,0-3.3-0.2-4.7-0.6s-2.6-0.8-3.6-1.3v-4.4h0.2c1.2,0.9,2.6,1.7,4.1,2.2c1.5,0.5,2.9,0.8,4.3,0.8   c1.7,0,3-0.3,4-0.8c1-0.5,1.4-1.4,1.4-2.6c0-0.9-0.3-1.6-0.8-2.1s-1.5-0.9-3-1.2c-0.5-0.1-1.3-0.3-2.2-0.4   c-0.9-0.2-1.7-0.3-2.4-0.5c-2-0.5-3.5-1.3-4.3-2.4c-0.8-1-1.3-2.3-1.3-3.8c0-0.9,0.2-1.8,0.6-2.7c0.4-0.8,1-1.6,1.8-2.2   c0.8-0.6,1.7-1.2,2.9-1.5c1.2-0.4,2.5-0.6,4-0.6c1.4,0,2.8,0.2,4.2,0.5c1.4,0.3,2.6,0.7,3.5,1.2v4.1h-0.2c-1-0.7-2.2-1.3-3.6-1.8   c-1.4-0.5-2.8-0.8-4.2-0.8s-2.6,0.3-3.6,0.8c-1,0.5-1.5,1.4-1.5,2.4c0,0.9,0.3,1.7,0.9,2.1c0.6,0.5,1.5,0.9,2.8,1.2   c0.7,0.2,1.5,0.3,2.4,0.5c0.9,0.2,1.6,0.3,2.2,0.5c1.8,0.4,3.2,1.1,4.2,2.1C935.2,265.2,935.7,266.5,935.7,268.2L935.7,268.2z    M959.5,263.7h-17c0,1.4,0.2,2.6,0.6,3.7c0.4,1.1,1,1.9,1.8,2.6c0.7,0.7,1.6,1.2,2.5,1.5c1,0.3,2.1,0.5,3.2,0.5   c1.6,0,3.1-0.3,4.7-0.9c1.6-0.6,2.7-1.2,3.4-1.8h0.2v4.2c-1.3,0.5-2.6,1-4,1.4c-1.4,0.4-2.8,0.6-4.3,0.6c-3.8,0-6.8-1-8.9-3.1   c-2.1-2.1-3.2-5-3.2-8.8c0-3.8,1-6.8,3.1-9s4.8-3.3,8.1-3.3c3.1,0,5.5,0.9,7.2,2.7c1.7,1.8,2.5,4.4,2.5,7.7v2L959.5,263.7z    M955.8,260.8c0-2-0.5-3.6-1.5-4.7c-1-1.1-2.5-1.7-4.6-1.7s-3.7,0.6-5,1.8c-1.2,1.2-1.9,2.7-2.1,4.6H955.8L955.8,260.8z" fill="#1E1E1C"  />
	
</g></svg>