<svg viewBox="0 0 1068.7 283.5" role="img" aria-labelledby="bradford-teaching-hospitals-nhs--title" xmlns="http://www.w3.org/2000/svg" xmlns:xlink="http://www.w3.org/1999/xlink"><title id="bradford-teaching-hospitals-nhs--title">NHS - Bradford Teaching Hospitals NHS Foundation Trust</title><g><rect x="774.7" y="4.1" width="286.3" height="110.8" fill="#FFFFFF"  /><g><path d="M1057.5,14.2l-6.3,19.2c-5-2.3-11.8-4.4-21.4-4.4c-10.3,0-18.6,1.5-18.6,9.3c0,13.7,37.6,8.6,37.6,37.8    c0,26.6-24.9,33.6-47.3,33.6c-10,0-21.5-2.4-30-5l6.1-19.6c5.1,3.3,15.4,5.5,23.9,5.5c8.1,0,20.7-1.5,20.7-11.5    c0-15.5-37.6-9.7-37.6-36.9c0-24.9,21.9-32.3,43.2-32.3C1039.8,9.9,1051,11.2,1057.5,14.2 M983,11.6L962.9,108h-25.9l8.6-41.3    h-30.7l-8.6,41.3h-25.9l20.1-96.4h25.9l-7.6,36.9h30.7l7.6-36.9H983z M890.8,11.6L870.3,108h-32.2l-20.3-66.7h-0.3L804.1,108    h-24.4l20.7-96.4h32.3l19.9,66.9h0.3l13.6-66.9H890.8z M1068.7,0H771.2v119.8h297.4V0z" fill="#0072BC"  />
		
	</g>
	
	
</g><g><path d="M0,155.9h18c0.4,0,0.9,0,1.4,0c0.5,0,1,0,1.5,0.1c4.2,0.3,8.1,1.4,11.6,3.4c3.5,2,5.3,5.5,5.3,10.7c0,3.8-1,6.7-2.9,8.7   c-1.9,2-4.7,3.4-8.2,4.1c3.8,0.5,6.9,1.9,9.4,4.2c2.5,2.4,3.7,5.6,3.7,9.6c0,2.6-0.6,5.1-1.9,7.4c-1.3,2.3-3.1,4.1-5.4,5.4   c-2.1,1.2-4.3,2-6.6,2.3c-2.3,0.3-4.7,0.5-7.1,0.5c-0.3,0-0.6,0-0.9,0c-0.3,0-0.6,0-0.9,0H0V155.9z M16.8,178.7c0.2,0,0.3,0,0.5,0   c0.1,0,0.3,0,0.5,0c2.1-0.1,4.1-0.6,6-1.6c1.8-1,2.7-2.7,2.7-5.3c0-2.8-0.9-4.7-2.8-5.7c-1.9-1-4-1.5-6.5-1.5h-5.7v14.1H16.8z    M16.9,203.6c0.3,0,0.6,0,0.9,0c0.3,0,0.6,0,0.9-0.1c2.5-0.2,4.7-0.8,6.8-2s3-3.2,3-6.1c0-3.2-1.1-5.3-3.4-6.5   c-2.3-1.2-4.7-1.8-7.4-1.8h-6.3v16.5H16.9z" /><path d="M49.9,212.3V183c0-0.3,0-0.7,0-1.1c0-0.4,0-0.7,0-1.1c-0.1-0.3-0.1-0.7-0.1-1.1c0-0.4,0-0.7,0-1.1c0-1.4,0-2.8,0-4.2   c0-1.4-0.1-2.8-0.2-4.2h9.8l0.3,10.6c0.8-2.9,2.1-5.5,4-7.6c1.9-2.2,4.5-3.3,7.8-3.3c0.3,0,0.5,0,0.8,0c0.3,0,0.5,0,0.8,0   c0.3,0.1,0.5,0.1,0.8,0.2c0.3,0.1,0.5,0.1,0.8,0.2v10.1c-0.6-0.2-1.3-0.3-1.9-0.4c-0.6-0.1-1.3-0.2-1.9-0.2c-3.8,0-6.3,1.3-7.7,3.8   c-1.4,2.6-2.1,5.4-2.3,8.4c-0.1,0.3-0.1,0.6-0.1,0.9s0,0.6,0,0.9v0.8v17.2H49.9z" /><path d="M106.5,212.3l-0.2-6.3c-1.4,2.3-3.2,4-5.5,5.2c-2.3,1.1-4.8,1.7-7.5,1.7c-4.1,0-7.5-1.1-10.3-3.2c-2.8-2.1-4.2-5.4-4.2-9.8   c0-4.7,1.6-8,4.9-9.9c3.3-1.9,6.9-3,10.9-3.4c0.9-0.1,1.8-0.2,2.7-0.2c0.9,0,1.8,0,2.6,0c0.5,0,1,0,1.5,0c0.5,0,1,0,1.5,0   c0.2,0,0.3,0,0.5,0c0.2,0,0.3,0,0.5,0c0.3,0,0.7,0,1,0c0.3,0,0.6,0,1,0c0-3.2-0.8-5.5-2.3-7c-1.5-1.5-3.9-2.2-7-2.2   c-0.2,0-0.3,0-0.5,0c-0.1,0-0.3,0-0.5,0c-2.2,0.1-4.3,0.6-6.4,1.4c-2.1,0.8-3.9,1.9-5.6,3.2l-0.3-9.4c2.3-1,4.7-1.7,7.1-2.2   c2.5-0.5,4.9-0.7,7.4-0.7c0.6,0,1.3,0,1.9,0c0.6,0,1.3,0.1,1.9,0.2c2.2,0.3,4.3,0.9,6.4,1.8c2.1,0.9,3.8,2.3,5.1,4.1   c0.9,1.3,1.5,2.7,1.9,4.3c0.4,1.6,0.6,3.2,0.6,4.8c0.1,0.5,0.1,0.9,0.1,1.4c0,0.5,0,0.9,0,1.4c0,4.1,0,8.2,0,12.3   c0,4.1,0.2,8.2,0.4,12.3H106.5z M105.3,193.2c-0.2,0-0.4,0-0.6,0h-1.4c-0.7,0-1.5,0-2.4,0c-0.8,0-1.7,0.1-2.6,0.1   c-2.2,0.2-4.2,0.8-6.1,1.8c-1.9,1-2.8,2.6-2.8,5.1c0,1.7,0.7,3.1,2,4c1.4,0.9,2.8,1.4,4.5,1.4c3.4,0,5.9-1.2,7.5-3.7   c1.6-2.5,2.4-5.2,2.5-8.1c0-0.1,0-0.2,0-0.3c0-0.1,0-0.2,0-0.2C105.7,193.2,105.5,193.2,105.3,193.2z" /><path d="M155.1,212.3l-0.2-7.1c-1.3,2.6-3.1,4.5-5.4,5.8c-2.3,1.3-4.9,1.9-7.7,1.9c-6.3,0-10.8-2.2-13.5-6.6   c-2.7-4.4-4.1-9.4-4.1-15c0-0.1,0-0.1,0-0.1c0,0,0-0.1,0-0.1c0.1-5.3,1.4-10.2,4.1-14.6c2.7-4.4,7.1-6.7,13.2-6.7   c3,0,5.5,0.6,7.7,1.9c2.1,1.3,3.9,3.2,5.3,5.7c-0.2-1.2-0.3-2.5-0.3-3.7c-0.1-1.2-0.1-2.5-0.1-3.7v-18.5H165v48.7   c0,0.3,0,0.6,0,0.8c0,0.3,0,0.6,0,0.8c0,0.3,0,0.6,0,0.9c0,0.3,0,0.6,0,0.8c0,0.7,0,1.5,0,2.2c0,0.7,0,1.4,0.1,2.1   c0,0.7,0,1.5,0,2.2c0,0.7,0.1,1.5,0.1,2.2H155.1z M154.3,190.4c0-0.4-0.1-0.8-0.1-1.2c-0.3-2.6-1.3-5-2.8-7.2   c-1.5-2.2-3.8-3.3-6.8-3.3c-3.1,0-5.3,1.1-6.7,3.3c-1.4,2.2-2.1,4.6-2.4,7.4c0,0.3,0,0.7,0,1.1c0,0.4,0,0.7,0,1.1   c0,0.5,0,1,0.1,1.6c0.1,0.5,0.1,1.1,0.2,1.6c0.4,2.4,1.3,4.6,2.7,6.7c1.4,2,3.5,3,6.3,3c2.9,0,5.1-1.1,6.6-3.2   c1.5-2.1,2.4-4.5,2.7-7.1c0.1-0.4,0.1-0.8,0.1-1.2c0-0.4,0-0.8,0-1.2C154.3,191.2,154.3,190.8,154.3,190.4z" /><path d="M176.4,212.3v-33.5H168v-8h8.4c0-0.2,0-0.3,0-0.5c0-0.1,0-0.3,0-0.4c0-0.1,0-0.2,0-0.4c0-0.1,0-0.3,0-0.5   c0-0.4,0-0.9,0-1.4c0-0.5,0-1,0-1.4c0.1-1.6,0.3-3.2,0.6-4.8c0.3-1.6,0.9-3,1.6-4.4c1.1-1.8,2.6-3.1,4.6-4c1.9-0.9,3.9-1.4,5.9-1.6   c0.3,0,0.7,0,1.1,0c0.4,0,0.7,0,1.1,0c1,0,1.9,0.1,2.9,0.2c1,0.1,2,0.3,2.9,0.6l-0.7,8.7c-0.3-0.1-0.5-0.2-0.8-0.3   c-0.3-0.1-0.5-0.1-0.8-0.2c-0.3,0-0.5,0-0.8,0c-0.3,0-0.5,0-0.8,0c-2.4,0-3.9,0.8-4.7,2.4c-0.8,1.6-1.2,3.3-1.3,5.2   c-0.1,0.5-0.1,1-0.1,1.5s0,1,0,1.4h9.5v8h-9.5v33.5H176.4z" /><path d="M238.6,207.4c-4,3.9-9.3,5.9-15.8,5.9c-6.6,0-11.8-2.1-15.8-6.2c-3.9-4.1-5.9-9.4-5.9-16c0-6.5,2-11.7,6-15.8   c4-4,9.2-6,15.7-6c6.6,0,11.9,2.1,15.8,6.3c3.9,4.2,5.9,9.6,5.9,16.1C244.6,198.2,242.6,203.4,238.6,207.4z M233.4,190.1   c0-0.5-0.1-0.9-0.1-1.4c-0.4-2.8-1.4-5.4-3-7.8c-1.6-2.4-4.1-3.5-7.3-3.5c-3.1,0-5.5,1.1-7.1,3.4c-1.7,2.3-2.7,4.8-3.2,7.6   c-0.1,0.5-0.1,1-0.1,1.4c0,0.5,0,0.9,0,1.4c0,0.4,0,0.8,0,1.2c0,0.4,0,0.8,0,1.2c0.3,2.9,1.3,5.6,3,8.1c1.6,2.5,4.2,3.7,7.6,3.7   c3,0,5.4-1.1,7-3.3s2.6-4.7,3.1-7.4c0.1-0.5,0.2-1,0.2-1.6c0-0.5,0-1.1,0-1.6C233.4,191,233.4,190.5,233.4,190.1z" /><path d="M253.6,212.3V183c0-0.3,0-0.7,0-1.1c0-0.4,0-0.7,0-1.1c-0.1-0.3-0.1-0.7-0.1-1.1c0-0.4,0-0.7,0-1.1c0-1.4,0-2.8,0-4.2   c0-1.4-0.1-2.8-0.2-4.2h9.8l0.3,10.6c0.8-2.9,2.1-5.5,4-7.6c1.9-2.2,4.5-3.3,7.8-3.3c0.3,0,0.5,0,0.8,0c0.3,0,0.5,0,0.8,0   c0.3,0.1,0.5,0.1,0.8,0.2c0.3,0.1,0.5,0.1,0.8,0.2v10.1c-0.6-0.2-1.3-0.3-1.9-0.4c-0.6-0.1-1.3-0.2-1.9-0.2c-3.8,0-6.3,1.3-7.7,3.8   c-1.4,2.6-2.1,5.4-2.3,8.4c-0.1,0.3-0.1,0.6-0.1,0.9s0,0.6,0,0.9v0.8v17.2H253.6z" /><path d="M313.4,212.3l-0.2-7.1c-1.3,2.6-3.1,4.5-5.4,5.8c-2.3,1.3-4.9,1.9-7.7,1.9c-6.3,0-10.8-2.2-13.5-6.6   c-2.7-4.4-4.1-9.4-4.1-15c0-0.1,0-0.1,0-0.1c0,0,0-0.1,0-0.1c0.1-5.3,1.4-10.2,4.1-14.6c2.7-4.4,7.1-6.7,13.2-6.7   c3,0,5.5,0.6,7.7,1.9c2.1,1.3,3.9,3.2,5.3,5.7c-0.2-1.2-0.3-2.5-0.3-3.7c-0.1-1.2-0.1-2.5-0.1-3.7v-18.5h10.8v48.7   c0,0.3,0,0.6,0,0.8c0,0.3,0,0.6,0,0.8c0,0.3,0,0.6,0,0.9c0,0.3,0,0.6,0,0.8c0,0.7,0,1.5,0,2.2c0,0.7,0,1.4,0.1,2.1   c0,0.7,0,1.5,0,2.2c0,0.7,0.1,1.5,0.1,2.2H313.4z M312.5,190.4c0-0.4-0.1-0.8-0.1-1.2c-0.3-2.6-1.3-5-2.8-7.2   c-1.5-2.2-3.8-3.3-6.8-3.3c-3.1,0-5.3,1.1-6.7,3.3s-2.1,4.6-2.4,7.4c0,0.3,0,0.7,0,1.1c0,0.4,0,0.7,0,1.1c0,0.5,0,1,0.1,1.6   c0.1,0.5,0.1,1.1,0.2,1.6c0.4,2.4,1.3,4.6,2.7,6.7c1.4,2,3.5,3,6.3,3c2.9,0,5.1-1.1,6.6-3.2c1.5-2.1,2.4-4.5,2.7-7.1   c0.1-0.4,0.1-0.8,0.1-1.2c0-0.4,0-0.8,0-1.2C312.6,191.2,312.6,190.8,312.5,190.4z" /><path d="M369.4,212.3v-47.1h-16.1v-9.3H397v9.3h-16.2v47.1H369.4z" /><path d="M437.2,210.5c-1.9,0.8-3.9,1.5-6,1.9c-2.1,0.4-4.2,0.7-6.3,0.8c-0.3,0.1-0.7,0.1-1.1,0.1c-0.4,0-0.7,0-1.1,0   c-6.9,0-12.2-1.9-16.1-5.7c-3.9-3.8-5.8-9.2-5.8-16.1c0-6.3,1.8-11.6,5.3-15.8c3.5-4.2,8.6-6.3,15.1-6.3c6.5,0,11.2,2.2,14.2,6.5   c3,4.3,4.4,9.4,4.4,15.3c0,0.3,0,0.7,0,1c0,0.3,0,0.6,0,0.9c0,0.1,0,0.2,0,0.3c0,0.1,0,0.2,0,0.3c0,0.2,0,0.4,0,0.6   c0,0.2,0,0.4,0,0.6h-28.1c0.3,3.4,1.6,6,4,7.8c2.4,1.8,5.2,2.7,8.5,2.7c2.4,0,4.6-0.4,6.8-1.2c2.1-0.8,4.2-1.8,6.3-3L437.2,210.5z    M427.6,180.1c-1.3-2.1-3.5-3.2-6.5-3.2s-5.3,1-6.9,3.1c-1.6,2.1-2.5,4.5-2.7,7.3h18.3C429.6,184.7,428.9,182.3,427.6,180.1z" /><path d="M473.8,212.3l-0.2-6.3c-1.4,2.3-3.2,4-5.5,5.2c-2.3,1.1-4.8,1.7-7.5,1.7c-4.1,0-7.5-1.1-10.3-3.2c-2.8-2.1-4.2-5.4-4.2-9.8   c0-4.7,1.6-8,4.9-9.9c3.3-1.9,6.9-3,10.9-3.4c0.9-0.1,1.8-0.2,2.7-0.2c0.9,0,1.8,0,2.6,0c0.5,0,1,0,1.5,0c0.5,0,1,0,1.5,0   c0.2,0,0.3,0,0.5,0c0.2,0,0.3,0,0.5,0c0.3,0,0.7,0,1,0c0.3,0,0.6,0,1,0c0-3.2-0.8-5.5-2.3-7c-1.5-1.5-3.9-2.2-7-2.2   c-0.2,0-0.3,0-0.5,0c-0.1,0-0.3,0-0.5,0c-2.2,0.1-4.3,0.6-6.4,1.4c-2.1,0.8-3.9,1.9-5.6,3.2l-0.3-9.4c2.3-1,4.7-1.7,7.1-2.2   c2.5-0.5,4.9-0.7,7.4-0.7c0.6,0,1.3,0,1.9,0c0.6,0,1.3,0.1,1.9,0.2c2.2,0.3,4.3,0.9,6.4,1.8c2.1,0.9,3.8,2.3,5.1,4.1   c0.9,1.3,1.5,2.7,1.9,4.3c0.4,1.6,0.6,3.2,0.6,4.8c0.1,0.5,0.1,0.9,0.1,1.4c0,0.5,0,0.9,0,1.4c0,4.1,0,8.2,0,12.3   c0,4.1,0.2,8.2,0.4,12.3H473.8z M472.7,193.2c-0.2,0-0.4,0-0.6,0h-1.4c-0.7,0-1.5,0-2.4,0c-0.8,0-1.7,0.1-2.6,0.1   c-2.2,0.2-4.2,0.8-6.1,1.8c-1.9,1-2.8,2.6-2.8,5.1c0,1.7,0.7,3.1,2,4c1.4,0.9,2.8,1.4,4.5,1.4c3.4,0,5.9-1.2,7.5-3.7   c1.6-2.5,2.4-5.2,2.5-8.1c0-0.1,0-0.2,0-0.3c0-0.1,0-0.2,0-0.2C473.1,193.2,472.9,193.2,472.7,193.2z" /><path d="M522.9,211c-1.6,0.5-3.2,0.8-4.8,1.1c-1.6,0.3-3.3,0.4-4.9,0.4c-6.6,0-11.8-1.9-15.7-5.7c-3.9-3.8-5.8-9-5.8-15.7   c0-6.3,2-11.3,5.9-15.2c3.9-3.9,9-5.8,15.3-5.8c1.6,0,3.2,0.1,4.7,0.3c1.5,0.2,3,0.6,4.5,1l-0.8,8.7c-0.3-0.1-0.6-0.2-0.8-0.3   c-0.3-0.1-0.5-0.2-0.8-0.3c-0.8-0.3-1.7-0.5-2.5-0.6c-0.8-0.1-1.7-0.2-2.6-0.2c-3.5,0-6.3,1.2-8.4,3.6c-2.1,2.4-3.2,5.3-3.2,8.7   c0,3.7,1.1,6.7,3.3,9c2.2,2.3,5.1,3.5,8.9,3.5c1.3,0,2.5-0.2,3.8-0.5c1.2-0.3,2.4-0.7,3.5-1.2L522.9,211z" /><path d="M558.1,212.3V192c0-0.6,0-1.3,0-2c0-0.7,0-1.4-0.1-2.2c-0.2-2.3-0.7-4.3-1.7-6.3c-1-1.9-2.8-2.9-5.7-2.9   c-3.1,0-5.3,1.1-6.6,3.3c-1.3,2.2-2.2,4.6-2.5,7.1c-0.1,0.6-0.2,1.3-0.2,1.9c0,0.7,0,1.3,0,1.9v2.1v17.2h-10.8v-60.8h10.8v24.9   c1.6-2.3,3.5-4,5.7-5.1c2.2-1.1,4.7-1.6,7.5-1.6c6,0,9.9,1.8,11.7,5.4c1.8,3.6,2.7,8,2.7,13.2v24H558.1z" /><path d="M579.4,162.8v-10.2h11.2v10.2H579.4z M579.5,212.3v-41.8h10.8v41.8H579.5z" /><path d="M611.8,177.1c1.7-2.5,3.8-4.4,6-5.6c2.3-1.2,5-1.8,8.1-1.8c6.1,0,10.1,1.9,11.7,5.7c1.7,3.8,2.5,8.2,2.5,13.3v23.6h-10.8   v-21c0-0.5,0-1,0-1.5c0-0.5,0-1-0.1-1.5c-0.2-2.4-0.7-4.5-1.7-6.5c-1-2-2.9-3-5.8-3c-3,0-5.2,1.1-6.5,3.2c-1.3,2.1-2.1,4.4-2.4,7   c-0.1,0.6-0.2,1.2-0.2,1.8c0,0.6,0,1.2,0,1.7v19.9h-10.8v-26.6c0-2.5,0-5.1-0.1-7.6c-0.1-2.5-0.2-5.1-0.3-7.6h10.2L611.8,177.1z" /><path d="M689.2,170.4v36.7c0,7.3-1.7,13-5.1,16.9c-3.4,3.9-9,5.9-16.7,5.9c-2.5,0-5-0.3-7.5-0.8c-2.4-0.5-4.8-1.2-7.1-2.2l0.8-9.3   c2,1,4.1,1.8,6.2,2.4c2.1,0.6,4.3,1,6.5,1c0.1,0,0.2,0,0.4,0c0.1,0,0.3,0,0.5,0c2.1-0.1,4.1-0.6,6-1.6c1.9-1,3.4-2.4,4.3-4.4   c0.4-0.9,0.8-1.9,1-2.9c0.2-1,0.3-2.1,0.4-3.2c0.1-0.6,0.1-1.1,0.1-1.7c0-0.6,0-1.1,0-1.6c0-0.2,0-0.3,0-0.5c0-0.2,0-0.3,0-0.5   c0-0.2,0-0.3,0-0.5c0-0.1,0-0.3,0-0.4c-1.4,2.5-3.3,4.6-5.7,6.1c-2.4,1.5-5.1,2.3-8.1,2.3c-5.9,0-10.2-2.2-12.8-6.5   c-2.6-4.3-4-9.1-4-14.3c0-0.1,0-0.2,0-0.3c0-0.1,0-0.2,0-0.2c0-5.4,1.3-10.3,4-14.7c2.6-4.4,7-6.6,13.1-6.6c2.9,0,5.5,0.6,7.9,1.8   c2.3,1.2,4.1,3.1,5.4,5.7l0.2-6.7H689.2z M678.4,189.8c0-0.4-0.1-0.7-0.1-1.1c-0.3-2.5-1.3-4.9-2.9-7c-1.6-2.1-3.8-3.2-6.6-3.2   c-3,0-5.3,1.1-6.7,3.3c-1.4,2.2-2.2,4.6-2.5,7.2c-0.1,0.3-0.1,0.6-0.1,0.8c0,0.3,0,0.6,0,0.8c0,0.5,0,0.9,0,1.4   c0,0.5,0.1,0.9,0.1,1.4c0.4,2.5,1.3,4.7,2.7,6.8c1.4,2.1,3.5,3.1,6.3,3.1c2.9,0,5.1-1.1,6.6-3.2c1.5-2.1,2.5-4.4,2.8-7   c0.1-0.5,0.1-0.9,0.1-1.3c0-0.4,0-0.8,0-1.2C678.4,190.5,678.4,190.2,678.4,189.8z" /><path d="M758.4,212.3V188h-22.5v24.3h-11.4v-56.4h11.4v22.9h22.5v-22.9h11.3v56.4H758.4z" /><path d="M816.9,207.4c-4,3.9-9.3,5.9-15.8,5.9c-6.6,0-11.8-2.1-15.8-6.2c-3.9-4.1-5.9-9.4-5.9-16c0-6.5,2-11.7,6-15.8   c4-4,9.2-6,15.7-6c6.6,0,11.9,2.1,15.8,6.3c3.9,4.2,5.9,9.6,5.9,16.1C822.9,198.2,820.9,203.4,816.9,207.4z M811.6,190.1   c0-0.5-0.1-0.9-0.1-1.4c-0.4-2.8-1.4-5.4-3-7.8c-1.6-2.4-4.1-3.5-7.3-3.5c-3.1,0-5.5,1.1-7.1,3.4s-2.7,4.8-3.2,7.6   c-0.1,0.5-0.1,1-0.1,1.4c0,0.5,0,0.9,0,1.4c0,0.4,0,0.8,0,1.2c0,0.4,0,0.8,0,1.2c0.3,2.9,1.3,5.6,3,8.1c1.6,2.5,4.2,3.7,7.6,3.7   c3,0,5.4-1.1,7-3.3c1.6-2.2,2.6-4.7,3.1-7.4c0.1-0.5,0.2-1,0.2-1.6c0-0.5,0-1.1,0-1.6C811.7,191,811.7,190.5,811.6,190.1z" /><path d="M830.2,202c1.6,0.8,3.4,1.6,5.2,2.1c1.8,0.6,3.6,0.8,5.5,0.8c0.4,0,0.8,0,1.3-0.1c0.4-0.1,0.9-0.1,1.3-0.2   c1.2-0.3,2.4-0.8,3.4-1.4c1-0.7,1.5-1.7,1.5-3c0-1.1-0.5-2-1.5-2.7c-1-0.7-2.3-1.3-3.8-1.9c-0.6-0.3-1.3-0.5-2-0.8   c-0.7-0.2-1.4-0.5-2.1-0.8c-2.4-1-4.5-2.3-6.5-4c-1.9-1.7-2.9-4.3-2.9-7.7c0-4,1.4-7,4.4-8.9c2.9-1.9,6.1-3.1,9.5-3.6   c0.7-0.1,1.3-0.2,1.9-0.2c0.6,0,1.2,0,1.9,0c1.7,0,3.5,0.2,5.2,0.5c1.7,0.3,3.4,0.7,5.1,1.1l-0.8,8.1c-1-0.3-1.9-0.6-2.9-0.8   c-1-0.2-2-0.4-3-0.6c-0.5-0.1-1-0.1-1.5-0.1c-0.5,0-1,0-1.5,0c-0.4,0-0.8,0-1.4,0c-0.5,0-1,0.1-1.6,0.2c-1.1,0.2-2.2,0.6-3.2,1.2   c-1,0.6-1.5,1.5-1.5,2.7c0,1.1,0.5,2,1.6,2.6c1,0.6,2.3,1.2,3.8,1.8c0.6,0.2,1.3,0.4,2,0.6c0.7,0.2,1.4,0.5,2.1,0.8   c2.4,0.9,4.5,2.2,6.5,3.9c2,1.7,3,4.4,3,8c0,4.4-1.6,7.6-4.8,9.7c-3.2,2.1-6.7,3.2-10.6,3.5c-0.3,0.1-0.7,0.1-1,0.1   c-0.3,0-0.6,0-1,0c-2.1,0-4.1-0.2-6.2-0.5c-2-0.3-4-0.8-6-1.3L830.2,202z" /><path d="M868.3,229.4v-46.8c0-1,0-2,0-3c0-1,0-2.1-0.1-3.1c-0.1-1-0.1-2-0.1-3c0-1-0.1-2-0.2-3h10.4l0.2,6.6   c1.6-2.4,3.6-4.2,5.9-5.5c2.3-1.2,4.9-1.8,7.8-1.8c5.9,0,10.1,2.2,12.8,6.6c2.7,4.4,4.1,9.2,4.1,14.5c0,5.6-1.3,10.6-3.9,15.2   c-2.6,4.6-7.1,6.8-13.5,6.8c-0.1,0-0.1,0-0.2,0c-0.1,0-0.2,0-0.3,0c-2.4-0.1-4.7-0.6-7-1.7c-2.2-1.1-4-2.7-5.2-4.8   c0.1,0.5,0.1,1,0.1,1.6c0,0.5,0,1.1,0,1.6c0,0.6,0,1.1,0,1.6c0,0.5,0,1,0,1.5v16.7H868.3z M897.8,190.4c0-0.4,0-0.7,0-1.1   c-0.2-2.7-1-5.2-2.3-7.4c-1.3-2.2-3.5-3.3-6.6-3.3c-3,0-5.3,1.1-6.8,3.3s-2.4,4.6-2.7,7.3c-0.1,0.4-0.1,0.8-0.1,1.1   c0,0.4,0,0.7,0,1.1c0,0.3,0,0.7,0,1.1c0,0.4,0,0.7,0,1.1c0.3,2.7,1.1,5.2,2.5,7.4c1.4,2.2,3.7,3.3,6.8,3.3c2.7,0,4.8-1,6.2-3   c1.4-2,2.4-4.2,2.8-6.5c0.1-0.6,0.1-1.1,0.2-1.7c0.1-0.6,0.1-1.1,0.1-1.6C897.8,191.1,897.8,190.8,897.8,190.4z" /><path d="M917.5,162.8v-10.2h11.2v10.2H917.5z M917.7,212.3v-41.8h10.8v41.8H917.7z" /><path d="M963.2,211.7c-0.6,0.1-1.2,0.2-1.8,0.3c-0.6,0.1-1.2,0.2-1.8,0.2c-0.6,0.1-1.2,0.2-1.8,0.2s-1.2,0-1.8,0   c-5.5,0-9.2-1.5-11.2-4.4c-1.9-3-2.9-6.9-2.9-11.9v-17.5h-7.9v-8h8v-8.5l10.8-3.5v12.1h9.5v8h-9.5v15.2c0,0.2,0,0.3,0,0.5   c0,0.1,0,0.3,0,0.5c0,2.3,0.3,4.3,0.9,6.2c0.6,1.9,2.4,2.8,5.3,2.8c0.3,0,0.7,0,1,0c0.3,0,0.6-0.1,0.9-0.1c0.3-0.1,0.6-0.1,0.9-0.2   c0.3-0.1,0.6-0.2,1-0.2L963.2,211.7z" /><path d="M995.9,212.3l-0.2-6.3c-1.4,2.3-3.2,4-5.5,5.2c-2.3,1.1-4.8,1.7-7.5,1.7c-4.1,0-7.5-1.1-10.3-3.2c-2.8-2.1-4.2-5.4-4.2-9.8   c0-4.7,1.6-8,4.9-9.9c3.3-1.9,6.9-3,10.9-3.4c0.9-0.1,1.8-0.2,2.7-0.2c0.9,0,1.8,0,2.6,0c0.5,0,1,0,1.5,0c0.5,0,1,0,1.5,0   c0.2,0,0.3,0,0.5,0c0.2,0,0.3,0,0.5,0c0.3,0,0.7,0,1,0c0.3,0,0.6,0,1,0c0-3.2-0.8-5.5-2.3-7c-1.5-1.5-3.9-2.2-7-2.2   c-0.2,0-0.3,0-0.5,0c-0.1,0-0.3,0-0.5,0c-2.2,0.1-4.3,0.6-6.4,1.4c-2.1,0.8-3.9,1.9-5.6,3.2l-0.3-9.4c2.3-1,4.7-1.7,7.1-2.2   c2.5-0.5,4.9-0.7,7.4-0.7c0.6,0,1.3,0,1.9,0c0.6,0,1.3,0.1,1.9,0.2c2.2,0.3,4.3,0.9,6.4,1.8c2.1,0.9,3.8,2.3,5.1,4.1   c0.9,1.3,1.5,2.7,1.9,4.3c0.4,1.6,0.6,3.2,0.6,4.8c0.1,0.5,0.1,0.9,0.1,1.4c0,0.5,0,0.9,0,1.4c0,4.1,0,8.2,0,12.3   c0,4.1,0.2,8.2,0.4,12.3H995.9z M994.8,193.2c-0.2,0-0.4,0-0.6,0h-1.4c-0.7,0-1.5,0-2.4,0c-0.8,0-1.7,0.1-2.6,0.1   c-2.2,0.2-4.2,0.8-6.1,1.8c-1.9,1-2.8,2.6-2.8,5.1c0,1.7,0.7,3.1,2,4c1.4,0.9,2.8,1.4,4.5,1.4c3.4,0,5.9-1.2,7.5-3.7   c1.6-2.5,2.4-5.2,2.5-8.1c0-0.1,0-0.2,0-0.3c0-0.1,0-0.2,0-0.2C995.2,193.2,995,193.2,994.8,193.2z" /><path d="M1016,212.3v-60.8h10.8v60.8H1016z" /><path d="M1036.5,202c1.6,0.8,3.4,1.6,5.2,2.1c1.8,0.6,3.6,0.8,5.5,0.8c0.4,0,0.8,0,1.3-0.1c0.4-0.1,0.9-0.1,1.3-0.2   c1.2-0.3,2.4-0.8,3.4-1.4c1-0.7,1.5-1.7,1.5-3c0-1.1-0.5-2-1.5-2.7c-1-0.7-2.3-1.3-3.8-1.9c-0.6-0.3-1.3-0.5-2-0.8   c-0.7-0.2-1.4-0.5-2.1-0.8c-2.4-1-4.5-2.3-6.5-4c-1.9-1.7-2.9-4.3-2.9-7.7c0-4,1.4-7,4.4-8.9c2.9-1.9,6.1-3.1,9.5-3.6   c0.7-0.1,1.3-0.2,1.9-0.2c0.6,0,1.2,0,1.9,0c1.7,0,3.5,0.2,5.2,0.5c1.7,0.3,3.4,0.7,5.1,1.1l-0.8,8.1c-1-0.3-1.9-0.6-2.9-0.8   c-1-0.2-2-0.4-3-0.6c-0.5-0.1-1-0.1-1.5-0.1c-0.5,0-1,0-1.5,0c-0.4,0-0.8,0-1.4,0c-0.5,0-1,0.1-1.6,0.2c-1.1,0.2-2.2,0.6-3.2,1.2   c-1,0.6-1.5,1.5-1.5,2.7c0,1.1,0.5,2,1.6,2.6c1,0.6,2.3,1.2,3.8,1.8c0.6,0.2,1.3,0.4,2,0.6c0.7,0.2,1.4,0.5,2.1,0.8   c2.4,0.9,4.5,2.2,6.5,3.9c2,1.7,3,4.4,3,8c0,4.4-1.6,7.6-4.8,9.7c-3.2,2.1-6.7,3.2-10.6,3.5c-0.3,0.1-0.7,0.1-1,0.1   c-0.3,0-0.6,0-1,0c-2.1,0-4.1-0.2-6.2-0.5c-2-0.3-4-0.8-6-1.3L1036.5,202z" /><path d="M533.9,282.7L521.6,260c-0.6-1.1-1.1-2.2-1.6-3.3c-0.5-1.1-1-2.2-1.5-3.4c0.1,0.8,0.2,1.6,0.3,2.4   c0.1,0.8,0.2,1.6,0.3,2.5c0.1,0.8,0.1,1.6,0.2,2.5c0,0.8,0.1,1.6,0.1,2.4v19.7h-7.2v-37.6h9l12.6,22.8c0.3,0.6,0.6,1.3,0.9,2   c0.3,0.7,0.6,1.4,0.8,2c0,0,0.1,0.1,0.1,0.1c0,0,0,0.1,0,0.2c0.1,0.4,0.3,0.8,0.5,1.2c0.1,0.4,0.3,0.8,0.5,1.2   c-0.2-0.9-0.3-1.8-0.4-2.7c-0.1-0.9-0.2-1.9-0.2-2.8c0-0.6-0.1-1.2-0.1-1.8c0-0.6,0-1.2,0-1.8v-20.2h7.2v37.6H533.9z" fill="#0072BC"  /><path d="M574.6,282.7v-16.2h-15v16.2h-7.6v-37.6h7.6v15.3h15v-15.3h7.5v37.6H574.6z" fill="#0072BC"  /><path d="M591.3,275.1c1.3,0.7,2.7,1.3,4.1,1.7c1.4,0.5,2.9,0.7,4.4,0.7c0.1,0,0.2,0,0.3,0c0.1,0,0.2,0,0.3,0   c1.5-0.1,2.8-0.6,4.1-1.4c1.2-0.8,1.9-2,1.9-3.7c0-1.6-0.6-2.8-1.7-3.6c-1.2-0.8-2.6-1.5-4.2-2.2c-0.4-0.1-0.8-0.3-1.2-0.5   c-0.4-0.2-0.8-0.3-1.2-0.5c-2.1-0.9-4-2-5.7-3.6c-1.7-1.5-2.6-3.9-2.6-7.1c0-3.8,1.4-6.5,4.1-8.2c2.7-1.7,5.8-2.5,9.1-2.5   c1.5,0,3.1,0.1,4.6,0.3c1.5,0.2,3,0.6,4.4,1.1l-0.6,6.2c-1.2-0.6-2.5-1-3.8-1.4c-1.3-0.3-2.6-0.5-4-0.5c-0.2,0-0.3,0-0.5,0   c-0.1,0-0.3,0-0.5,0.1c-1.2,0.1-2.4,0.5-3.5,1.2c-1.1,0.7-1.6,1.8-1.6,3.2c0,1.3,0.5,2.3,1.6,3.1c1.1,0.8,2.4,1.4,3.9,2.1   c0.5,0.2,1,0.4,1.4,0.6c0.5,0.2,1,0.4,1.5,0.6c2.1,0.9,4,2.1,5.7,3.7c1.7,1.5,2.6,3.9,2.6,7c0,4.2-1.4,7.2-4.3,9   c-2.9,1.8-6.2,2.7-9.9,2.7c-1.6,0-3.2-0.1-4.8-0.4c-1.6-0.3-3.2-0.7-4.7-1.2L591.3,275.1z" fill="#0072BC"  /><path d="M645,282.7h-7.7v-37.6h20.8v6.2h-13.2v8.9h12.7v6.2H645V282.7z" fill="#0072BC"  /><path d="M687.4,279.4c-2.7,2.6-6.2,3.9-10.5,3.9c-4.4,0-7.9-1.4-10.5-4.1c-2.6-2.7-3.9-6.3-3.9-10.6   c0-4.3,1.3-7.8,4-10.5c2.7-2.7,6.2-4,10.5-4c4.4,0,7.9,1.4,10.5,4.2c2.6,2.8,3.9,6.4,3.9,10.7C691.4,273.3,690.1,276.8,687.4,279.4   z M683.9,267.9c0-0.3,0-0.6-0.1-0.9c-0.3-1.9-0.9-3.6-2-5.2c-1.1-1.6-2.7-2.4-4.8-2.4c-2.1,0-3.7,0.8-4.8,2.3   c-1.1,1.5-1.8,3.2-2.1,5c0,0.3-0.1,0.7-0.1,1c0,0.3,0,0.6,0,0.9c0,0.3,0,0.5,0,0.8c0,0.3,0,0.5,0,0.8c0.2,2,0.9,3.8,2,5.4   c1.1,1.7,2.8,2.5,5.1,2.5c2,0,3.6-0.7,4.6-2.2c1.1-1.5,1.8-3.1,2.1-4.9c0.1-0.3,0.1-0.7,0.1-1c0-0.4,0-0.7,0-1   C683.9,268.5,683.9,268.2,683.9,267.9z" fill="#0072BC"  /><path d="M722.3,271.8c0,0.5,0,0.9,0,1.4c0,0.4,0,0.9,0,1.4c0,0.4,0.1,0.9,0.1,1.4c0,0.4,0,0.9,0.1,1.4   c0,0.9,0.1,1.9,0.1,2.8c0,0.9,0.1,1.8,0.1,2.7h-6.8l-0.2-4.3c-0.9,1.5-2.2,2.7-3.8,3.5c-1.6,0.8-3.2,1.2-5,1.2   c-4.1,0-6.8-1.2-8-3.6c-1.2-2.4-1.9-5.4-1.9-8.9v-15.7h7.2v13.4c0,0.4,0,0.8,0,1.3c0,0.4,0,0.9,0.1,1.3c0.1,1.6,0.5,3,1.1,4.3   c0.6,1.3,1.9,2,3.9,2c1.9,0,3.2-0.7,4.1-2c0.8-1.3,1.4-2.8,1.6-4.4c0-0.5,0.1-1,0.1-1.5c0-0.5,0.1-1,0.1-1.4v-13.1h7.2V271.8z" fill="#0072BC"  /><path d="M736.9,259.2c1.2-1.7,2.5-2.9,4-3.7s3.3-1.2,5.4-1.2c4.1,0,6.7,1.3,7.8,3.8c1.1,2.5,1.7,5.5,1.7,8.8v15.7   h-7.2v-14c0-0.3,0-0.7,0-1c0-0.3,0-0.7-0.1-1c-0.1-1.6-0.5-3-1.1-4.3c-0.6-1.3-1.9-2-3.9-2c-2,0-3.5,0.7-4.4,2.1   c-0.9,1.4-1.4,3-1.6,4.6c-0.1,0.4-0.1,0.8-0.1,1.2c0,0.4,0,0.8,0,1.2v13.2h-7.2v-17.7c0-1.7,0-3.4-0.1-5.1c0-1.7-0.1-3.4-0.2-5.1   h6.8L736.9,259.2z" fill="#0072BC"  /><path d="M781.8,282.7l-0.1-4.7c-0.9,1.7-2.1,3-3.6,3.9c-1.5,0.8-3.2,1.3-5.2,1.3c-4.2,0-7.2-1.5-9-4.4   c-1.8-2.9-2.7-6.3-2.7-10c0,0,0-0.1,0-0.1c0,0,0,0,0-0.1c0-3.5,1-6.8,2.8-9.7c1.8-3,4.7-4.5,8.8-4.5c2,0,3.7,0.4,5.1,1.3   c1.4,0.9,2.6,2.1,3.5,3.8c-0.1-0.8-0.2-1.7-0.2-2.5c0-0.8-0.1-1.7-0.1-2.5v-12.3h7.2v32.5c0,0.2,0,0.4,0,0.6c0,0.2,0,0.4,0,0.6   c0,0.2,0,0.4,0,0.6c0,0.2,0,0.4,0,0.6c0,0.5,0,1,0,1.5s0,1,0.1,1.4c0,0.5,0,1,0,1.5c0,0.5,0,1,0.1,1.5H781.8z M781.3,268.1   c0-0.3,0-0.6-0.1-0.8c-0.2-1.7-0.8-3.3-1.9-4.8c-1-1.5-2.5-2.2-4.5-2.2c-2.1,0-3.6,0.7-4.5,2.2c-0.9,1.5-1.4,3.1-1.6,4.9   c0,0.2,0,0.5,0,0.7c0,0.2,0,0.5,0,0.7c0,0.3,0,0.7,0.1,1c0,0.4,0.1,0.7,0.1,1.1c0.3,1.6,0.9,3.1,1.8,4.5c1,1.4,2.4,2,4.2,2   c2,0,3.4-0.7,4.4-2.1c1-1.4,1.6-3,1.8-4.7c0-0.3,0.1-0.5,0.1-0.8c0-0.3,0-0.6,0-0.8C781.3,268.7,781.3,268.4,781.3,268.1z" fill="#0072BC"  /><path d="M812.8,282.7l-0.1-4.2c-0.9,1.5-2.1,2.7-3.7,3.4c-1.6,0.8-3.2,1.1-5,1.1c-2.7,0-5-0.7-6.9-2.1   c-1.9-1.4-2.8-3.6-2.8-6.5c0-3.2,1.1-5.4,3.3-6.6c2.2-1.3,4.6-2,7.2-2.3c0.6-0.1,1.2-0.1,1.8-0.1c0.6,0,1.2,0,1.7,0   c0.3,0,0.7,0,1,0c0.3,0,0.6,0,1,0c0.1,0,0.2,0,0.3,0c0.1,0,0.2,0,0.3,0c0.2,0,0.4,0,0.6,0c0.2,0,0.4,0,0.6,0c0-2.1-0.5-3.7-1.5-4.6   c-1-1-2.6-1.5-4.7-1.5c-0.1,0-0.2,0-0.3,0c-0.1,0-0.2,0-0.3,0c-1.5,0.1-2.9,0.4-4.3,0.9c-1.4,0.5-2.6,1.2-3.7,2.1l-0.2-6.3   c1.5-0.6,3.1-1.1,4.8-1.4c1.6-0.3,3.3-0.5,4.9-0.5c0.4,0,0.8,0,1.3,0c0.4,0,0.9,0.1,1.3,0.1c1.5,0.2,2.9,0.6,4.3,1.2   c1.4,0.6,2.5,1.5,3.4,2.7c0.6,0.9,1,1.8,1.3,2.9c0.2,1.1,0.4,2.1,0.4,3.2c0,0.3,0.1,0.6,0.1,0.9c0,0.3,0,0.6,0,0.9   c0,2.7,0,5.5,0,8.2c0,2.7,0.1,5.5,0.3,8.2H812.8z M812,269.9c-0.1,0-0.3,0-0.4,0h-0.9c-0.5,0-1,0-1.6,0c-0.6,0-1.1,0-1.7,0.1   c-1.5,0.1-2.8,0.5-4.1,1.2c-1.2,0.6-1.9,1.8-1.9,3.4c0,1.2,0.5,2.1,1.4,2.7c0.9,0.6,1.9,0.9,3,0.9c2.3,0,4-0.8,5-2.5   c1.1-1.7,1.6-3.5,1.6-5.4c0-0.1,0-0.1,0-0.2s0-0.1,0-0.1C812.3,270,812.2,269.9,812,269.9z" fill="#0072BC"  /><path d="M842.1,282.3c-0.4,0.1-0.8,0.1-1.2,0.2c-0.4,0.1-0.8,0.1-1.2,0.1c-0.4,0.1-0.8,0.1-1.2,0.1   c-0.4,0-0.8,0-1.2,0c-3.7,0-6.2-1-7.4-3c-1.3-2-1.9-4.6-1.9-7.9v-11.7h-5.2V255h5.4v-5.7l7.2-2.4v8.1h6.4v5.4h-6.4v10.1   c0,0.1,0,0.2,0,0.3c0,0.1,0,0.2,0,0.3c0,1.5,0.2,2.9,0.6,4.1c0.4,1.3,1.6,1.9,3.5,1.9c0.2,0,0.4,0,0.6,0c0.2,0,0.4,0,0.6-0.1   c0.2,0,0.4-0.1,0.6-0.1s0.4-0.1,0.6-0.1L842.1,282.3z" fill="#0072BC"  /><path d="M846.9,249.7v-6.8h7.4v6.8H846.9z M847,282.7v-27.9h7.2v27.9H847z" fill="#0072BC"  /><path d="M884.9,279.4c-2.7,2.6-6.2,3.9-10.5,3.9c-4.4,0-7.9-1.4-10.5-4.1c-2.6-2.7-3.9-6.3-3.9-10.6   c0-4.3,1.3-7.8,4-10.5c2.7-2.7,6.2-4,10.5-4c4.4,0,7.9,1.4,10.5,4.2c2.6,2.8,3.9,6.4,3.9,10.7C888.9,273.3,887.6,276.8,884.9,279.4   z M881.4,267.9c0-0.3,0-0.6-0.1-0.9c-0.3-1.9-0.9-3.6-2-5.2c-1.1-1.6-2.7-2.4-4.8-2.4c-2.1,0-3.7,0.8-4.8,2.3   c-1.1,1.5-1.8,3.2-2.1,5c0,0.3-0.1,0.7-0.1,1c0,0.3,0,0.6,0,0.9c0,0.3,0,0.5,0,0.8c0,0.3,0,0.5,0,0.8c0.2,2,0.9,3.8,2,5.4   c1.1,1.7,2.8,2.5,5.1,2.5c2,0,3.6-0.7,4.6-2.2c1.1-1.5,1.8-3.1,2.1-4.9c0.1-0.3,0.1-0.7,0.1-1c0-0.4,0-0.7,0-1   C881.4,268.5,881.4,268.2,881.4,267.9z" fill="#0072BC"  /><path d="M901.6,259.2c1.2-1.7,2.5-2.9,4-3.7c1.5-0.8,3.3-1.2,5.4-1.2c4.1,0,6.7,1.3,7.8,3.8   c1.1,2.5,1.7,5.5,1.7,8.8v15.7h-7.2v-14c0-0.3,0-0.7,0-1c0-0.3,0-0.7-0.1-1c-0.1-1.6-0.5-3-1.1-4.3c-0.6-1.3-1.9-2-3.9-2   c-2,0-3.5,0.7-4.4,2.1c-0.9,1.4-1.4,3-1.6,4.6c-0.1,0.4-0.1,0.8-0.1,1.2c0,0.4,0,0.8,0,1.2v13.2h-7.2v-17.7c0-1.7,0-3.4-0.1-5.1   c0-1.7-0.1-3.4-0.2-5.1h6.8L901.6,259.2z" fill="#0072BC"  /><path d="M950.8,282.7v-31.4h-10.7v-6.2h29.1v6.2h-10.8v31.4H950.8z" fill="#0072BC"  /><path d="M973.7,282.7v-19.5c0-0.2,0-0.5,0-0.7c0-0.2,0-0.5,0-0.7c0-0.2-0.1-0.5-0.1-0.7c0-0.2,0-0.5,0-0.7   c0-0.9,0-1.9,0-2.8c0-0.9-0.1-1.8-0.1-2.8h6.5l0.2,7c0.5-2,1.4-3.7,2.6-5.1c1.2-1.4,3-2.2,5.2-2.2c0.2,0,0.4,0,0.5,0   c0.2,0,0.3,0,0.5,0c0.2,0,0.4,0.1,0.5,0.1c0.2,0,0.3,0.1,0.5,0.1v6.8c-0.4-0.1-0.8-0.2-1.3-0.3c-0.4-0.1-0.9-0.1-1.3-0.1   c-2.5,0-4.2,0.9-5.1,2.6c-0.9,1.7-1.4,3.6-1.5,5.6c0,0.2-0.1,0.4-0.1,0.6s0,0.4,0,0.6v0.6v11.5H973.7z" fill="#0072BC"  /><path d="M1019.7,271.8c0,0.5,0,0.9,0,1.4c0,0.4,0,0.9,0,1.4c0,0.4,0.1,0.9,0.1,1.4c0,0.4,0,0.9,0.1,1.4   c0,0.9,0.1,1.9,0.1,2.8c0,0.9,0.1,1.8,0.1,2.7h-6.8l-0.2-4.3c-0.9,1.5-2.2,2.7-3.8,3.5s-3.2,1.2-5,1.2c-4.1,0-6.8-1.2-8-3.6   c-1.2-2.4-1.9-5.4-1.9-8.9v-15.7h7.2v13.4c0,0.4,0,0.8,0,1.3c0,0.4,0,0.9,0.1,1.3c0.1,1.6,0.5,3,1.1,4.3c0.6,1.3,1.9,2,3.9,2   c1.9,0,3.2-0.7,4.1-2c0.8-1.3,1.4-2.8,1.6-4.4c0-0.5,0.1-1,0.1-1.5c0-0.5,0.1-1,0.1-1.4v-13.1h7.2V271.8z" fill="#0072BC"  /><path d="M1026.4,275.9c1.1,0.6,2.2,1,3.4,1.4c1.2,0.4,2.4,0.6,3.7,0.6c0.3,0,0.5,0,0.8-0.1c0.3,0,0.6-0.1,0.8-0.1   c0.8-0.2,1.6-0.5,2.3-1c0.7-0.5,1-1.1,1-2c0-0.7-0.3-1.4-1-1.8c-0.7-0.5-1.5-0.9-2.5-1.2c-0.4-0.2-0.9-0.4-1.3-0.5   c-0.5-0.1-0.9-0.3-1.4-0.6c-1.6-0.6-3-1.5-4.3-2.6c-1.3-1.1-1.9-2.8-1.9-5.1c0-2.7,1-4.6,2.9-5.9c1.9-1.3,4-2.1,6.3-2.4   c0.4-0.1,0.9-0.1,1.3-0.1c0.4,0,0.8,0,1.2,0c1.2,0,2.3,0.1,3.5,0.3c1.1,0.2,2.3,0.5,3.4,0.8l-0.5,5.4c-0.6-0.2-1.3-0.4-1.9-0.6   c-0.7-0.1-1.3-0.3-2-0.4c-0.3,0-0.7-0.1-1-0.1s-0.6,0-1,0c-0.3,0-0.6,0-0.9,0c-0.3,0-0.7,0.1-1.1,0.1c-0.8,0.1-1.5,0.4-2.1,0.8   c-0.7,0.4-1,1-1,1.8c0,0.8,0.3,1.3,1,1.7c0.7,0.4,1.5,0.8,2.6,1.2c0.4,0.1,0.9,0.2,1.3,0.4c0.5,0.1,0.9,0.3,1.4,0.5   c1.6,0.6,3,1.5,4.3,2.6c1.3,1.1,2,2.9,2,5.4c0,2.9-1.1,5.1-3.2,6.5c-2.1,1.4-4.5,2.1-7,2.3c-0.2,0-0.4,0.1-0.6,0.1   c-0.2,0-0.4,0-0.6,0c-1.4,0-2.8-0.1-4.1-0.3s-2.7-0.5-4-0.8L1026.4,275.9z" fill="#0072BC"  /><path d="M1067.4,282.3c-0.4,0.1-0.8,0.1-1.2,0.2c-0.4,0.1-0.8,0.1-1.2,0.1c-0.4,0.1-0.8,0.1-1.2,0.1   c-0.4,0-0.8,0-1.2,0c-3.7,0-6.2-1-7.4-3c-1.3-2-1.9-4.6-1.9-7.9v-11.7h-5.2V255h5.4v-5.7l7.2-2.4v8.1h6.4v5.4h-6.4v10.1   c0,0.1,0,0.2,0,0.3c0,0.1,0,0.2,0,0.3c0,1.5,0.2,2.9,0.6,4.1c0.4,1.3,1.6,1.9,3.5,1.9c0.2,0,0.4,0,0.6,0c0.2,0,0.4,0,0.6-0.1   c0.2,0,0.4-0.1,0.6-0.1c0.2-0.1,0.4-0.1,0.6-0.1L1067.4,282.3z" fill="#0072BC"  />
	
	
	
	
	
	
	
	
	
	
	
	
	
	
	
	
	
	
	
	
	
	
	
	
	
	
	
	
	
	
	
	
	
	
	
	
	
	
	
	
	
	
	
</g></svg>