<svg viewBox="0 0 294.7 283.5" role="img" aria-labelledby="cardiff-university--title" xmlns="http://www.w3.org/2000/svg" xmlns:xlink="http://www.w3.org/1999/xlink"><title id="cardiff-university--title">Cardiff University / Prifysgol Caerdydd</title><path d="M0,136.8h294.7v9.5H0V136.8z" fill="#FFFFFF"  /><path d="M0,145.2h294.7v138.3H0V145.2z" fill="#D11242"  /><path d="M69.4,235.9l6-14l5.5,14H69.4z M93.7,247.6l-14.4-32.9c-0.5-1.2-0.9-2.1-2.4-2.1H76l-16.6,35.3  c-0.3,0.7-0.4,1.1-0.4,1.7c0,0.7,0.8,0.8,1.4,0.8h3.7c-0.1-0.2-0.1-0.6-0.1-0.8c0-0.6,0.1-1.3,0.4-2.1l3.5-8.6h14.2l3.9,9.6  c0.5,1.2,1,1.8,2.4,1.8h7.1C94.9,249.9,94,248.4,93.7,247.6 M36.8,180.3c-0.7,0-1.6-0.1-2.1-0.1v-11.5l2.7-0.1  c3.5-0.1,6.2,1.4,6.2,5.3C43.6,178.2,40.6,180.3,36.8,180.3 M39,166.3l-9.7-0.1c0.4,0.6,0.6,2.8,0.6,4.8c0.1,3.9,0,7.8,0,11.6  c0,2.7-0.1,5.3-0.1,8c0,1.2,0.6,2.2,1.9,2.2H35c-0.3-3.2-0.3-7-0.3-10.4c0.8,0.1,1.7,0.1,2.5,0.1c5.5,0,11.4-2.6,11.4-8.9  C48.5,168,43.8,166.4,39,166.3 M62.6,180h-1.5v-2.7c0-2,0.1-6.8,0.1-8.9c0.8,0,1.6-0.1,2.4-0.1c3.5,0,6.8,2,6.8,5.8  C70.4,178.8,66.4,180.1,62.6,180 M68.5,181.5c3.6-1.1,6.7-3.6,6.7-7.9c0-5.7-5-7.4-9.8-7.4c-2.1,0-4.4-0.1-6.5-0.1  c-1,0-2.1,0.1-3.2,0.1c0.3,0.5,0.6,1.2,0.6,1.8c0.2,3,0.1,7.5,0.1,11.3c0,2.6-0.1,5.3-0.1,8c-0.1,1.3-0.1,2.6-0.1,3.9  c0,1.2,0.8,1.7,1.9,1.7c1.2,0,2.4-0.1,3.5-0.1c-0.4-2.2-0.5-7.1-0.5-10.4H64c2.1,3.3,4.1,6.5,6.5,9.7c2,2.8,4.3,3.9,7.7,3.9h1.5  C78,194.7,72.1,187.1,68.5,181.5 M131.2,234.8c-1.7,0-3.2,0.1-4.8,0.1v-8.4c0-5,0.1-10.6,0.4-15.5c1.5-0.1,3.1-0.3,4.7-0.3  c7.1,0,12.7,3.7,12.7,11.3C144.2,229.7,138.6,234.8,131.2,234.8 M139.9,236.7c7.2-2.3,12.4-7.9,12.4-15.8c0-10-8.9-13.6-17.6-13.6  c-5.6,0-11.3,0.1-16.9,0.2c0.7,1.2,1,4,1,5.5c0,6.8,0.1,13.1,0.1,17.8c0,13.2-0.6,20.8-0.6,23.3c0,1,0.4,1.2,1.3,1.2  c3,0,5.8-0.1,8.7-0.1c-0.4-0.4-0.7-1.4-0.9-2.6c-0.6-4.4-0.9-9.6-0.9-14.4c1.9,0,4-0.1,5.9-0.1c2.4,3.9,5.5,8.4,8.9,12.9  c5.2,6.8,12.3,14.7,20.5,14.7c2.1,0,4-0.2,6.1-0.4C158.3,261.9,145.7,245.4,139.9,236.7 M177,251.3h-5.9c-1.4,0-2.1-0.5-2.3-1.9  c-0.2-1.4-0.3-3.4-0.3-4.8c-0.1-3.1-0.2-7.7-0.2-11.6c0-7.1,0.3-14.2,0.6-21.3c1.7-0.3,3.4-0.4,5.1-0.4c12.3,0,20.8,7,20.8,19.9  C194.8,242.6,189.3,251.3,177,251.3 M176.9,207.7c-6.2,0-12.9,0.1-18.2,0.1c1,1.5,1.5,4.2,1.7,9.8c0.2,4.1,0.3,8.2,0.3,12.4  c0,5-0.1,10.1-0.2,15.1c-0.1,2.8-0.3,5.5-0.3,8.2c0,1.3,1.1,2,2.3,2h13.8c15.3,0,26.8-8.5,26.8-24.6  C203.2,214.3,192.2,207.7,176.9,207.7 M243.5,260.1h-4.8c-1.2,0-1.9-0.6-1.9-1.5c-0.3-4.6-0.4-8.7-0.4-13.3c0-5.7,0.1-11.8,0.5-17.3  c1.5-0.2,2.5-0.3,4.1-0.3c0.7,0,1.4,0,2,0.1c0,5.6-0.1,11.2-0.4,16.8c0,1,0.8,1.6,1.9,1.6h11.2c0.7,0,1.4,0,2.1-0.1  C257,254.2,252.6,260.1,243.5,260.1 M256.1,242.9h-4.7c-1.2,0-1.8-0.6-1.9-1.6c-0.3-4.1-0.5-8.3-0.5-12c5.1,2.3,8.4,7,8.7,13.6  C257.2,242.8,256.7,242.9,256.1,242.9 M264.5,240.5c-1-9.4-6.8-14-15.3-15.3c0-5.2,0.2-9.7,0.4-14.4c1.6-0.2,2.4-0.3,4.1-0.3  c10,0,16.9,5.9,16.9,16.2C270.5,232.6,268.6,237.7,264.5,240.5 M256.3,207.6c-4.9,0-10,0-15,0.1c0.6,0.8,1,2.4,1.1,3.5  c0.3,4.6,0.6,9,0.6,13.6c-4.7,0-9.7,0-14.4,0.1c0.6,0.8,1,2.4,1.1,3.5c0.4,4.9,0.6,9.5,0.6,14.5c0,6.3-0.1,12.7-0.4,18.9  c-0.1,1,0.8,1.7,1.9,1.7H243c12.1,0,21.1-6.5,21.7-18.7c7.7-2.6,12.7-8.9,12.7-18.5C277.3,212.8,268.7,207.6,256.3,207.6   M229.6,190.6c-6.2,0-9.3-5.3-9.3-10.9c0-5.7,3.1-11,9.3-11c6.3,0,9.4,5.1,9.4,11C239,186,236.7,190.6,229.6,190.6 M229.6,165.9  c-8.8,0-14.9,4.7-14.9,13.8c0,8.5,6.6,13.7,14.9,13.7s14.9-5.1,14.9-13.7C244.5,171.1,237.9,165.9,229.6,165.9 M65.9,207.1  c-4.7-2.4-10.8-3.8-16.3-3.8c-18.5,0-30.8,14.9-30.8,33.2c0,17.7,13.5,29.2,30.7,29.2c5.7,0,13.4-1.7,18-5.2l-0.7-5.9  c-3.1,3.2-9.3,5.9-13.8,5.9c-15.3,0-25.4-12.7-25.4-27.4c0-12.6,7.2-25,21-25c4.6,0,9.3,1.5,12.8,4.5c1.7,1.5,3.8,4.4,4,6.5  c1.3-2,3.5-5.5,3.5-7.9C68.9,209.3,67.3,207.9,65.9,207.1 M111.9,233.8c-2.8,1.4-6.4,1.4-10.4,1.4c-1,0-1.2-0.6-1.2-1.9v-9.7  c3.7,0,7.7,0.1,10.2,1l0.1-2.1c0.1-1.5-0.8-2-2.8-2c-2.2,0-4.8,0.3-7.6,0.3c0-1.7,0.1-3.8,0.1-5.5c0-1.4,0.1-3.5,0.1-4.8  c8.1,0,10.1,0.7,11.3,1.2v-1.5c0-1.4-1-2.7-2.6-2.7H93.8c0.7,0.8,0.8,3.5,0.8,4.5c0.1,4.1,0.1,9.9,0.1,14.9c0,2.9-0.1,5.9-0.2,8.9  c-0.1,1.5,0.3,2.4,1.9,2.4h13.1c1.4,0,2.5-0.7,2.5-2.1L111.9,233.8L111.9,233.8z M90.9,178.2c0-5.3,0.3-6.6,0.3-9.9  c0-1.5-0.6-2.3-2.2-2.3h-3.2c0.3,2.6,0.4,5.5,0.4,12.4c0,6.6-0.3,8.1-0.3,12.2c0,1.4,0.7,2.2,2.1,2.2h3.3  C91.1,189.9,90.9,185.4,90.9,178.2 M119.1,166.2h-15.2l0.3,4.2c0.1,2.6,0.1,8,0.1,9.9c0,4.6-0.2,7.1-0.2,10.7c0,1.4,0.8,1.9,2.1,1.9  h3.3c-0.2-3.1-0.4-6.1-0.4-9.3v-3.5c2.4,0,8.5,0.1,10.6,0.7c0-1.2,0.3-3.6-1.5-3.6c-2,0-5.5,0.4-9.1,0.4V172c0-1,0.1-2.1,0.1-3.1  c2.8,0,8.7-0.1,11.4,1C120.7,168.6,121.1,166.2,119.1,166.2 M149.8,166l-3.6,0.1c0,1-1.5,3.6-3,6.2c-1.5,2.4-3,4.8-3.7,5.8  c-2.1-3.5-4.2-7-6.3-10.4c-0.7-1.2-1.7-1.5-3-1.5h-4.4c3.7,5.1,7.2,10.4,10.5,15.8v3c0.1,2.5-0.2,5.2-0.2,6.6c0,1.1,1,1.4,1.8,1.4  h3.7c-0.4-3.8-0.4-7.7-0.4-11.6c1.9-3.3,4.1-6.5,6.4-9.6c0.9-1.4,1.9-2.7,2.8-4c0.1-0.3,0.3-0.6,0.3-0.9  C150.7,166.3,150.3,166,149.8,166 M160.6,172.3c0-2.4,2.1-3.8,4.4-3.8c2.5,0,4.5,1.4,5.8,3.3c0.5-0.8,1.5-2.1,1.5-3.3  c0-2.3-5.2-2.8-6.9-2.8c-4.6,0-9.2,2.6-9.2,7.6c0,9,12.6,6.5,12.6,12.4c0,2.8-2,4.6-4.8,4.6c-2.9,0-6.1-1.6-7.7-3.9  c-0.2,1-0.7,2.1-0.7,3.2s0.4,1.9,1.5,2.4c1.7,0.9,3.8,1.3,5.7,1.3c5.3,0,10.4-3,10.4-8.8C173.2,176,160.6,178.5,160.6,172.3   M231.1,212.5h-4.4c0.1,0.6-0.1,1.7-0.3,2.2c-0.9,1.9-2,3.8-3,5.7c-1.2,2.1-3.3,5.7-4.4,7.4c-2.7-4.4-5-8.9-7.4-13.3  c-0.6-1-1.5-1.9-3.5-1.9h-5.4c4.6,6.6,8.2,12.7,12.1,19.2c0,3.8,0.1,8.7-0.3,12.7c-0.1,1.2,0.7,1.9,2.2,1.9h4.9  c-0.5-4.8-0.5-10.3-0.5-14.9c3.2-5.7,6.8-11.1,10.8-16.9c0.3-0.4,0.4-0.8,0.3-1.2C232.2,212.9,231.9,212.5,231.1,212.5 M204.9,179.7  l-3,0.1c0.3,1,0.3,3.9,0.3,5.8c0,1.3-0.1,2.6-0.1,3.9c-1.6,0.7-4,0.9-5.7,0.9c-6.4,0-10.2-4.6-10.2-10.7c0-6.2,3.5-11,10-11  c3.5,0,7.2,2.1,8.9,3.7l0.8-2.3c0.3-1.2-0.1-2-0.9-2.4c-2.8-1.2-5-1.8-8.9-1.8c-9,0-15.6,4.2-15.6,13.8c0,9.1,6.7,13.7,15.3,13.7  c3.2,0,7.8-0.9,11.1-1.9V188c0-2.1,0-4.1,0.1-6.3C207.2,180.6,206.4,179.6,204.9,179.7 M268.7,188.9c-1.6,1-7.7,1-11.5,1  c-0.1-4.5-0.1-9.4-0.1-14c0-2.5,0.1-5.2,0.2-7.8c0.1-1.3-0.3-2-2.7-2h-2.8c0.2,3.4,0.3,6.7,0.3,9.9v7.3c0,2.6-0.1,5.1-0.2,7.7  c-0.1,1,0.1,2,2.5,2h12.4c1,0,1.8-1.2,1.8-1.9v-2.2H268.7z" fill="#FFFFFF"  /><path d="M0,0h294.7v138.3H0V0z" fill="#D11242"  /><path d="M115.8,47.6c-1.7,0-3.2,0.1-4.8,0.1v-8.4c0-5,0.1-10.6,0.4-15.5c1.5-0.1,3.1-0.3,4.7-0.3  c7.1,0,12.7,3.7,12.7,11.3C128.8,42.6,123.2,47.6,115.8,47.6 M124.5,49.6c7.2-2.3,12.4-8,12.4-15.8c0-10-8.9-13.6-17.6-13.6  c-5.6,0-11.3,0.1-16.9,0.2c0.7,1.2,1,4,1,5.5c0,6.8,0.1,13.1,0.1,17.8c0,13.2-0.6,20.8-0.6,23.3c0,1,0.4,1.2,1.3,1.2  c3,0,5.8-0.1,8.7-0.1c-0.4-0.4-0.7-1.4-0.9-2.6c-0.6-4.4-0.9-9.6-0.9-14.5c1.9,0,4-0.1,5.9-0.1c2.4,3.9,5.5,8.4,8.9,12.9  c5.2,6.8,12.3,14.7,20.5,14.7c2.1,0,4-0.2,6.1-0.4C142.9,74.7,130.3,58.3,124.5,49.6 M72.2,48.5l6.1-14l5.5,14H72.2z M96.5,60.3  L82.1,27.4c-0.6-1.2-0.9-2.1-2.3-2.1l-0.9,0.1L62.3,60.6c-0.3,0.8-0.4,1.1-0.4,1.7c0,0.6,0.8,0.8,1.4,0.8H67  c-0.1-0.2-0.1-0.6-0.1-0.8c0-0.6,0.1-1.3,0.4-2.1l3.5-8.6H85l3.9,9.7c0.5,1.2,1,1.7,2.4,1.7h7.1C97.7,62.5,96.9,61,96.5,60.3   M167.7,104.4h-1.5v-2.7c0-2,0.1-6.8,0.2-8.9c0.8,0,1.5-0.1,2.3-0.1c3.5,0,6.8,2,6.8,5.8C175.5,103.1,171.5,104.4,167.7,104.4   M173.6,105.8c3.6-1,6.7-3.5,6.7-7.8c0-5.7-5-7.4-9.8-7.4c-2.1,0-4.3-0.1-6.5-0.1c-1,0-2.1,0-3.2,0.1c0.4,0.5,0.6,1.2,0.6,1.8  c0.2,3,0.1,7.5,0.1,11.2c0,2.7-0.1,5.4-0.1,8c-0.1,1.2-0.1,2.6-0.1,3.8c0,1.3,0.8,1.7,1.9,1.7s2.4-0.1,3.5-0.1  c-0.4-2.2-0.5-7.1-0.5-10.4h2.8c2.1,3.3,4.1,6.4,6.5,9.7c2,2.8,4.3,3.9,7.7,3.9h1.4C183.1,119,177.3,111.4,173.6,105.8 M162.9,64.1  H157c-1.5,0-2.1-0.5-2.4-1.9c-0.3-1.4-0.3-3.3-0.3-4.8c-0.1-3.1-0.2-7.7-0.2-11.6c0-7.1,0.3-14.2,0.6-21.4c1.7-0.3,3.5-0.3,5.2-0.3  c12.3,0,20.7,7,20.7,19.9C180.6,55.3,175.2,64.1,162.9,64.1 M162.8,20.5c-6.2,0-12.9,0.1-18.2,0.1c1,1.5,1.4,4.3,1.7,9.9  c0.3,4.1,0.3,8.2,0.3,12.4c0,5-0.1,10-0.2,15.1c-0.1,2.8-0.3,5.5-0.3,8.3c0,1.2,1.1,2,2.3,2h13.8c15.4,0,26.9-8.5,26.9-24.6  C189.1,27,178.2,20.5,162.8,20.5 M52.1,90.4h-2.5c0.4,2.8,0.5,4.6,0.5,7.5c0,1.6-0.1,4.5-0.1,6.8c0,5.5-1.7,9.7-8,9.7  c-7.3,0-8.1-4.4-8.1-10.6c0-4,0.4-8.7,0.4-12.1c0-0.9-0.6-1.2-1.5-1.2H29c0.2,3,0.3,4.9,0.3,9.5c0,1.9-0.1,4.6-0.1,6.6  c0,8,4.5,11.1,12.1,11.1c7.3,0,11.8-3.9,12.1-11.3c0.2-7.1,0.6-12.2,0.6-14.5C53.9,90.7,53.1,90.4,52.1,90.4 M85.2,90.6h-2.8  c0.2,4.5,0.3,9,0.3,13.5v4.6c-6.5-6-12.5-12.2-18.9-18.4h-1.9c0.1,1.2,0.1,2.6,0.1,3.9c0,5.2,0.1,12.2-0.2,15.6  c-0.2,3.5-0.5,4.4-0.5,6.4c0,0.9,0.5,1.2,1.4,1.2c1,0,1.9-0.1,3-0.1c-0.4-2.8-0.5-5.7-0.5-8.6c0-3.3,0.1-6.4,0.1-9.7  c6.4,6.3,12.8,12.2,18.9,18.8h1.9c-0.1-4.5-0.2-9-0.2-13.4c0-2.5,0.2-4.8,0.3-7.1c0.1-1.9,0.3-4.1,0.3-5.3  C86.5,91,86,90.6,85.2,90.6 M99.7,102.6c0-5.3,0.3-6.6,0.3-9.9c0-1.5-0.5-2.3-2.1-2.3h-3.2c0.3,2.6,0.4,5.5,0.4,12.4  c0,6.6-0.3,8.2-0.3,12.2c0,1.4,0.7,2.2,2.1,2.2h3.2C99.8,114.2,99.7,109.7,99.7,102.6 M66,19.8C61.4,17.4,55.3,16,49.8,16  c-18.6,0-30.9,15-30.9,33.2c0,17.8,13.5,29.2,30.7,29.2c5.7,0,13.4-1.7,18-5.2L67,67.3c-3.1,3.3-9.3,5.9-13.9,5.9  c-15.2,0-25.4-12.6-25.4-27.4c0-12.6,7.2-25,21-25c4.6,0,9.3,1.5,12.8,4.5c1.6,1.4,3.8,4.3,4,6.5c1.3-2.1,3.5-5.6,3.5-8  C69.1,22,67.5,20.6,66,19.8 M131.5,90.4h-3.7c0.3,1-0.5,3.4-0.9,4.3c-2.1,5.1-4.8,11.5-7,15.9c-1.4-2.9-3.5-8.1-5.2-12.2  c-0.9-2.1-1.6-3.9-2.5-6c-0.7-1.6-1.7-1.9-3.4-1.9c-1,0-2.3-0.1-3.4-0.1c4.1,8.9,8.3,17.8,12,26.9h3.5c3.5-8.6,7.5-16.9,11.5-25.3  c0.1-0.1,0.1-0.3,0.1-0.5C132.4,90.9,132.1,90.4,131.5,90.4 M153.6,113.2c-2.1,1-5.7,1.1-8.1,1.1h-1.9c-1,0-1-0.6-1-1.5  c-0.1-0.7-0.1-5.6-0.1-6.3v-2.1c2.7,0,7.3,0.1,9.7,0.8c0.1-0.7,0.1-1.5,0.1-2.1c0-1.2-0.9-1.6-2-1.6c-2.6,0-5.3,0.3-7.9,0.3v-4.6  c0-1.3,0.1-2.7,0.2-4.1c2.6,0,8.3,0,10.6,1c0-1.6,0-3.7-2.3-3.7H137c0.3,0.3,0.5,1.1,0.6,1.5c0.2,3.2,0.2,6.5,0.2,9.7  c0,4.5-0.2,9-0.2,13.5c0,1.1,0.3,1.8,1.6,1.8h12.4c1.2,0,2.1-0.6,2.1-1.9L153.6,113.2L153.6,113.2z M192.2,96.6  c0-2.4,2.1-3.7,4.4-3.7c2.5,0,4.5,1.3,5.8,3.2c0.5-0.8,1.5-2.1,1.5-3.3c0-2.3-5.2-2.8-6.8-2.8c-4.7,0-9.3,2.5-9.3,7.5  c0,9,12.6,6.5,12.6,12.4c0,2.8-2,4.6-4.8,4.6c-2.9,0-6.2-1.7-7.7-4c-0.2,1-0.7,2.1-0.7,3.2s0.4,1.9,1.4,2.4c1.7,0.9,3.8,1.4,5.7,1.4  c5.3,0,10.4-3,10.4-8.9C204.7,100.3,192.2,102.9,192.2,96.6 M216.5,102.6c0-5.3,0.3-6.6,0.3-9.9c0-1.5-0.6-2.3-2.2-2.3h-3.2  c0.3,2.6,0.4,5.5,0.4,12.4c0,6.6-0.3,8.2-0.3,12.2c0,1.4,0.7,2.2,2.1,2.2h3.3C216.6,114.2,216.5,109.7,216.5,102.6 M243.4,90.6  h-19.6c-1.4,0-2.9,0.8-2.9,2.4v1.5c2-0.4,6.4-0.5,8.8-0.5c0.1,3.2,0.1,6.3,0.1,9.5c0,5.5-0.3,8-0.3,12c0,1.4,0.8,1.8,2.1,1.8h3.3  c-0.4-3.8-0.4-7.6-0.4-13.6c0-3.2-0.1-7.3,0.1-9.7c2.6,0,5.2,0.3,7.1,0.3c1.3,0,1.7-1.3,1.7-2.4L243.4,90.6L243.4,90.6z M269.5,90.5  l-3.5,0.1c-0.1,0.9-1.5,3.6-3,6.2c-1.5,2.4-3,4.8-3.7,5.7c-2.2-3.4-4.2-6.9-6.4-10.4c-0.7-1.2-1.6-1.5-2.9-1.5h-4.4  c3.8,5.1,7.3,10.4,10.6,15.8v3c0,2.6-0.3,5.1-0.3,6.6c0,1,1,1.4,1.9,1.4h3.6c-0.3-3.8-0.4-7.6-0.4-11.5c1.9-3.3,4.1-6.5,6.4-9.6  c1-1.4,1.9-2.7,2.8-4c0.2-0.3,0.3-0.6,0.3-0.9C270.5,90.7,270,90.5,269.5,90.5 M203.9,45c0-3.9,0.1-7.9,0.2-11.8  c0.1-2.1,0.3-4.2,0.3-6.3c0-1-1-1.6-1.9-1.6h-6.6c1,4.9,0.9,13.1,0.9,18.3c0,3.8-0.1,7.7-0.2,11.5c0,1.7-0.1,3.6-0.1,5.3  c0,1.3,0.8,2.3,2.1,2.3c2.1,0,4.2-0.1,6.4-0.1C204,59.5,203.9,48.7,203.9,45 M238.6,20.3H214c1.4,2.4,1.3,19.6,1.3,23.1  c0,7.4-0.7,18-0.7,22.2c0,1.4,0.6,2.7,2.2,2.7h7.3c-0.7-1.9-1-5.2-1.2-9.5c-0.1-3.9-0.1-8.6-0.1-14c1,0,3-0.2,4.3-0.2  c3.9,0,7.7,0.1,11.3,1.6c0-1,0.3-2.1,0.3-3.1c0-1.6-1.4-2.3-2.8-2.3H223c0-5.5,0.3-10.9,0.5-16.3c1.6,0,3.2-0.1,4.8-0.1  c4.5,0,10.9,0.1,14.9,2v-0.2C243.1,23,242.2,20.3,238.6,20.3 M275,17.2h-28.5c1,5.6,1.1,15.8,1.1,27.5c0,9.5-0.8,25.5-0.8,28.3  c0,1.8,1,2.8,2.8,2.8h7.3c-0.5-1.1-0.7-2.8-0.8-4c-0.6-8.5-0.8-17.1-0.8-25.6c1.2-0.1,3.9-0.3,4.4-0.3c4.1,0,9.7,0,13.5,1.6  c0.3-0.9,0.8-1.9,0.8-2.8c0-2.1-2.2-2.6-3.9-2.6h-14.7c0-6.9,0.3-13.8,0.6-20.7h4.6c4.1,0,14.7,0,18,2c0.3-1,0.3-2.1,0.3-3.2  C278.7,18.2,277,17.2,275,17.2" fill="#FFFFFF"  /></svg>