<svg viewBox="0 0 460.5 283.5" role="img" aria-labelledby="fertility-network-uk--title" xmlns="http://www.w3.org/2000/svg" xmlns:xlink="http://www.w3.org/1999/xlink"><title id="fertility-network-uk--title">Fertility Network UK</title><circle cx="186.1" cy="26" r="12.5" fill="#35BBDA"  /><circle cx="210.5" cy="26" r="7.7" fill="#35BBDA"  /><path d="M198.5,7.7c0-4.2,3.4-7.7,7.7-7.7s7.7,3.4,7.7,7.7c0,4.2-3.5,7.7-7.7,7.7S198.5,11.9,198.5,7.7z" fill="#35BBDA"  /><circle cx="153" cy="58.6" r="12.5" fill="#35BBDA"  /><path d="M167.5,50.2c-2.1-3.7-0.9-8.4,2.8-10.5c3.7-2.1,8.4-0.9,10.5,2.8c2.1,3.7,0.9,8.4-2.8,10.5  C174.3,55.1,169.6,53.9,167.5,50.2z M154.6,36.5c-2.1-3.7-0.9-8.4,2.8-10.5c3.7-2.1,8.4-0.9,10.5,2.8s0.9,8.4-2.8,10.5  C161.4,41.4,156.7,40.2,154.6,36.5z M134.4,114.1c-6-3.4-8-11.1-4.6-17c3.4-6,11.1-8,17-4.6c6,3.4,8,11.1,4.6,17  C148,115.5,140.4,117.6,134.4,114.1z" fill="#35BBDA"  /><circle cx="152.8" cy="82.2" r="7.7" fill="#35BBDA"  /><path d="M131,83.4c-3.7-2.1-4.9-6.8-2.8-10.5c2.1-3.7,6.8-4.9,10.5-2.8c3.7,2.1,4.9,6.8,2.8,10.5  C139.4,84.3,134.7,85.5,131,83.4z" fill="#35BBDA"  /><circle cx="152.3" cy="148.3" r="12.5" fill="#35BBDA"  /><circle cx="152.3" cy="123.9" r="7.7" fill="#35BBDA"  /><path d="M134,135.8c-4.3,0-7.7-3.4-7.7-7.7s3.5-7.7,7.7-7.7c4.2,0,7.7,3.4,7.7,7.7  C141.7,132.4,138.2,135.8,134,135.8z M191.1,192.2c-6,3.4-13.6,1.4-17-4.5c-3.4-6-1.4-13.6,4.6-17s13.6-1.4,17,4.6  C199.1,181.1,197.1,188.7,191.1,192.2z M176.5,166.9c-3.7,2.1-8.4,0.9-10.5-2.8s-0.9-8.4,2.8-10.5c3.7-2.1,8.4-0.9,10.5,2.8  C181.4,160.1,180.2,164.8,176.5,166.9z M162.8,179.7c-3.7,2.1-8.4,0.9-10.5-2.8c-2.1-3.7-0.9-8.4,2.8-10.5c3.7-2.1,8.4-0.9,10.5,2.8  C167.7,172.9,166.5,177.6,162.8,179.7z M240.4,200c-3.4,6-11.1,8-17,4.6c-6-3.4-8-11.1-4.6-17c3.4-6,11.1-8,17-4.6  C241.8,186.4,243.9,194,240.4,200z M215.1,185.4c-2.1,3.7-6.8,4.9-10.5,2.8s-4.9-6.8-2.8-10.5c2.1-3.7,6.8-4.9,10.5-2.8  C216,177,217.3,181.7,215.1,185.4z M209.7,203.4c-2.1,3.7-6.8,4.9-10.5,2.8c-3.7-2.1-4.9-6.8-2.8-10.5c2.1-3.7,6.8-4.9,10.5-2.8  C210.6,195,211.8,199.7,209.7,203.4z M287,182.1c0,6.9-5.6,12.5-12.4,12.5c-6.9,0-12.5-5.6-12.5-12.5c0-6.9,5.6-12.5,12.5-12.5  C281.5,169.6,287,175.2,287,182.1z M257.8,182.1c0,4.2-3.4,7.7-7.7,7.7c-4.2,0-7.7-3.4-7.7-7.7c0-4.2,3.4-7.7,7.7-7.7  C254.4,174.4,257.8,177.8,257.8,182.1z M262.1,200.4c0,4.2-3.4,7.7-7.7,7.7c-4.3,0-7.7-3.4-7.7-7.7c0-4.2,3.4-7.7,7.7-7.7  C258.7,192.7,262.1,196.1,262.1,200.4z" fill="#35BBDA"  /><circle cx="307.7" cy="149.5" r="12.5" fill="#35BBDA"  /><path d="M293.2,157.9c2.1,3.7,0.9,8.4-2.8,10.5c-3.7,2.1-8.4,0.9-10.5-2.8c-2.1-3.7-0.9-8.4,2.8-10.5  C286.4,152.9,291.1,154.2,293.2,157.9z M306,171.6c2.1,3.7,0.9,8.4-2.8,10.5c-3.7,2.1-8.4,0.9-10.5-2.8c-2.1-3.7-0.9-8.4,2.8-10.5  C299.2,166.6,303.9,167.9,306,171.6z M326.3,93.9c6,3.4,8,11.1,4.6,17c-3.4,6-11.1,8-17,4.6c-6-3.4-8-11.1-4.6-17  C312.7,92.5,320.3,90.5,326.3,93.9z M311.7,119.2c3.7,2.1,4.9,6.8,2.8,10.5c-2.1,3.7-6.8,4.9-10.5,2.8c-3.7-2.1-4.9-6.8-2.8-10.5  C303.3,118.4,308,117.1,311.7,119.2z M329.7,124.7c3.7,2.1,4.9,6.8,2.8,10.5c-2.1,3.7-6.8,4.9-10.5,2.8c-3.7-2.1-4.9-6.8-2.8-10.5  C321.3,123.8,326,122.5,329.7,124.7z M308.4,47.3c6.9,0,12.5,5.6,12.5,12.5s-5.6,12.5-12.5,12.5s-12.5-5.6-12.5-12.5  S301.5,47.3,308.4,47.3z M308.4,76.5c4.2,0,7.7,3.4,7.7,7.7c0,4.2-3.4,7.7-7.7,7.7c-4.2,0-7.7-3.4-7.7-7.7  C300.7,80,304.1,76.5,308.4,76.5z M326.7,72.2c4.2,0,7.7,3.4,7.7,7.7c0,4.3-3.5,7.7-7.7,7.7c-4.3,0-7.7-3.4-7.7-7.7  C319,75.7,322.4,72.2,326.7,72.2z" fill="#35BBDA"  /><path d="M269.6,15.9c6-3.4,13.6-1.4,17,4.5c3.4,6,1.4,13.6-4.6,17c-6,3.4-13.6,1.4-17-4.6  C261.6,27,263.6,19.3,269.6,15.9z" fill="#69B650"  /><path d="M284.2,41.2c3.7-2.1,8.4-0.9,10.5,2.8c2.1,3.7,0.9,8.4-2.8,10.5c-3.7,2.1-8.4,0.9-10.5-2.8  C279.2,48,280.5,43.3,284.2,41.2z M297.9,28.3c3.7-2.1,8.4-0.9,10.5,2.8s0.9,8.4-2.8,10.5s-8.4,0.9-10.5-2.8  C292.9,35.1,294.2,30.5,297.9,28.3z M220.2,8.1c3.4-6,11.1-8,17-4.6c6,3.4,8,11.1,4.6,17c-3.4,6-11.1,8-17,4.5  C218.8,21.7,216.8,14.1,220.2,8.1z" fill="#35BBDA"  /><circle cx="252.2" cy="26.5" r="7.7" fill="#35BBDA"  /><path d="M251,4.7c2.1-3.7,6.8-4.9,10.5-2.8s4.9,6.8,2.8,10.5c-2.1,3.7-6.8,4.9-10.5,2.8S248.8,8.4,251,4.7L251,4.7z" fill="#35BBDA"  /><path d="M2.8,245.8c-2,0-2.8-0.8-2.8-2.4V243c0-1.5,0.8-2.3,2.8-2.3h3.5v-2.3c0-7.7,3.6-11.2,9.7-11.2  c4.7,0,6.8,2,6.8,4.1c0,1.8-1.4,2.9-1.5,2.7c-0.9-0.9-2.7-1.8-4.6-1.8c-3,0-4.4,1.9-4.4,6.2v2.2h5.1c2,0,2.8,0.8,2.8,2.3v0.4  c0,1.5-0.8,2.3-2.8,2.3h-5v22.6c0,2.3-1.1,3-2.7,3H9.2c-1.6,0-2.8-0.7-2.8-3v-22.6C6.4,245.6,2.8,245.8,2.8,245.8z M38.1,267  c5.3,0,8-2.3,9.5-5.1c0.1-0.1,3.3,0.4,3.3,3.1s-4.7,6.9-13,6.9c-9.6,0-16.1-6.4-16.1-15.9c0-9.2,6.6-16.1,15.6-16.1  c8.8,0,14.6,6.2,14.6,15.3v0.5c0,1.3-0.4,1.8-1.9,1.8H27.8C28.3,263.2,32.4,267,38.1,267z M46,253.4c-0.3-5.3-3.5-8.7-8.6-8.7  c-5,0-8.9,3.6-9.6,8.7H46z M70.6,239.9c3.2,0,5,1.5,5,4c0,2.4-1.8,3.3-1.9,3.2c-0.9-0.8-2.1-1.3-3.9-1.3c-4.9,0-6.9,4.8-6.9,11.8  v10.7c0,2.3-1.2,3-2.8,3h-0.7c-1.6,0-2.8-0.7-2.8-3V241c0-0.2,1-0.7,2.3-0.7c1.9,0,3.9,1,3.9,5.3C64.2,242,66.7,239.9,70.6,239.9  L70.6,239.9z M80.3,245.8c-2,0-2.7-0.8-2.7-2.3V243c0-1.5,0.8-2.3,2.7-2.3h2.2V236c0-2.2,1.1-3,2.8-3h0.6c1.6,0,2.7,0.6,2.7,3v4.7  h6.9c2,0,2.7,0.8,2.7,2.3v0.4c0,1.6-0.8,2.4-2.7,2.4h-6.9v15.4c0,3.8,1.1,5.6,4,5.6c2,0,3.4-0.9,4.3-2.1c0.2-0.2,1.8,0.7,1.8,2.7  c0,2.3-2.6,4.6-7.1,4.6c-6.3,0-9.1-3.5-9.1-10.1v-16.1C82.5,245.8,80.3,245.8,80.3,245.8z M103.4,230.7c0-2.3,1.4-3.5,3.8-3.5  c2.3,0,3.7,1.3,3.7,3.5c0,2.3-1.3,3.5-3.7,3.5C104.7,234.2,103.4,232.9,103.4,230.7z M103.9,268.4v-25c0-2.3,1.2-3,2.8-3h0.6  c1.6,0,2.8,0.7,2.8,3v25c0,2.3-1.1,3-2.8,3h-0.6C105.1,271.4,103.9,270.7,103.9,268.4z M118.5,268.4v-40c0-0.2,1.1-0.7,2.3-0.7  c2,0,4,1,4,5.4v35.4c0,2.3-1.1,3-2.8,3h-0.6C119.7,271.4,118.5,270.7,118.5,268.4z M132.4,230.7c0-2.3,1.4-3.5,3.8-3.5  c2.3,0,3.7,1.3,3.7,3.5c0,2.3-1.3,3.5-3.7,3.5C133.8,234.2,132.4,232.9,132.4,230.7z M133,268.4v-25c0-2.3,1.2-3,2.8-3h0.6  c1.6,0,2.8,0.7,2.8,3v25c0,2.3-1.1,3-2.8,3h-0.6C134.2,271.4,133,270.7,133,268.4z M146.1,245.8c-2,0-2.7-0.8-2.7-2.3V243  c0-1.5,0.8-2.3,2.7-2.3h2.2V236c0-2.2,1.1-3,2.8-3h0.6c1.6,0,2.7,0.6,2.7,3v4.7h6.9c2,0,2.7,0.8,2.7,2.3v0.4c0,1.6-0.8,2.4-2.7,2.4  h-6.9v15.4c0,3.8,1.1,5.6,4,5.6c2,0,3.4-0.9,4.3-2.1c0.2-0.2,1.8,0.7,1.8,2.7c0,2.3-2.6,4.6-7.1,4.6c-6.3,0-9.1-3.5-9.1-10.1v-16.1  H146.1z M175,281.8l5.1-12.3c-1.4-0.1-2.2-0.5-2.7-1.8l-10.9-25.4c-0.1-0.4,1.3-1.8,3.3-1.8c1.8,0,3,0.8,4,3.5l8.2,21l7.3-20.9  c0.9-2.8,2.3-3.7,3.9-3.7c1.7,0,3.4,1.4,3.3,1.7L182.1,280c-1,2.7-2.4,3.5-3.9,3.5C176.5,283.5,174.8,282.1,175,281.8L175,281.8z" fill="#69B650"  /><path d="M215.7,240.3c8,0,12,5.3,12,13.3v15.9c0,1.5-0.8,2-1.8,2h-0.4c-1.1,0-1.8-0.4-1.8-2v-15.6c0-6-3-9.7-8.1-9.7  c-4.7,0-8.2,2.6-9.9,6.4v18.9c0,1.5-0.8,2-1.8,2h-0.4c-1.1,0-1.8-0.4-1.8-2v-28.2c0-0.1,0.6-0.4,1.4-0.4c1.4,0,2.7,0.7,2.7,4v0.9  C207.5,242.5,211,240.3,215.7,240.3L215.7,240.3z M246.9,268.2c5.9,0,8.5-2.5,10.3-5.4c0.1-0.2,2.4,0.4,2.4,2.3  c0,2.1-4.6,6.7-12.7,6.7c-9.2,0-15.6-6.5-15.6-15.7s6.4-16,15.2-16c8.5,0,14,6,14,15.2v0.4c0,1.1-0.4,1.4-1.7,1.4h-23.4  C235.7,263.6,240.5,268.2,246.9,268.2L246.9,268.2z M256.2,253.7c-0.4-5.9-4-9.8-9.7-9.8s-10,4.1-10.9,9.8H256.2z M262.2,244.7  c-1.5,0-2-0.6-2-1.6v-0.4c0-1.1,0.4-1.6,2-1.6h2.8v-5.2c0-1.5,0.8-2,1.8-2h0.4c1.1,0,1.8,0.4,1.8,2v5.2h8c1.5,0,2,0.6,2,1.6v0.4  c0,1.1-0.4,1.6-2,1.6h-8v17.1c0,4.4,1.1,6.5,4.5,6.5c2.1,0,3.6-0.9,4.7-2.2c0.1-0.1,1.4,0.4,1.4,2c0,1.7-2.2,3.7-6.2,3.7  c-5.9,0-8.4-3.4-8.4-9.6v-17.6L262.2,244.7L262.2,244.7z M289.6,269.9l-7.3-28c-0.1-0.3,1.1-1.2,2.4-1.2c0.9,0,2,0.7,2.5,2.9  l5.5,23.7l6.5-20.3c0.4-1.2,1-1.7,3.1-1.7s2.7,0.5,3.1,1.7l6.4,20.3l5.4-23.7c0.4-2.2,1.5-2.9,2.5-2.9c1.3,0,2.3,1,2.3,1.2l-7.2,28  c-0.3,1.1-0.7,1.6-3,1.6c-2.1,0-2.4-0.5-2.8-1.6l-6.6-20.6l-6.8,20.6c-0.4,1.1-0.7,1.6-2.8,1.6C290.3,271.5,289.8,271,289.6,269.9z   M321.8,256c0-9.1,6.5-15.8,15.6-15.8c9,0,15.5,6.7,15.5,15.9c0,9.1-6.5,15.8-15.5,15.8C328.3,271.9,321.8,265.2,321.8,256z   M348.7,256.1c0-7-4.8-12.3-11.3-12.3c-6.5,0-11.4,5.2-11.4,12.2s4.9,12.3,11.4,12.3C343.8,268.3,348.7,263.2,348.7,256.1  L348.7,256.1z M367.6,240.3c2.8,0,4.4,1.1,4.4,3.1c0,1.5-1,2.3-1.1,2.1c-0.9-0.8-2-1.3-3.7-1.3c-5.4,0-7.5,5.6-7.5,13.3v11.8  c0,1.5-0.8,2-1.8,2h-0.4c-1.1,0-1.8-0.4-1.8-2v-28.2c0-0.1,0.6-0.4,1.4-0.4c1.4,0,2.7,0.7,2.7,4v1.8  C361,242.4,363.6,240.3,367.6,240.3z M378.6,269.4c0,1.5-0.8,2-1.8,2h-0.4c-1.1,0-1.8-0.4-1.8-2v-40.9c0-0.1,0.6-0.4,1.4-0.4  c1.4,0,2.7,0.7,2.7,4v22.8l12.1-12.4c1.1-1.2,2-1.6,2.8-1.6c1.6,0,2.2,1.8,2,2l-12.5,12.3l14.4,14.1c0.2,0.2-0.5,2.2-2.2,2.2  c-0.8,0-1.5-0.4-2.7-1.6l-14-14V269.4L378.6,269.4z M413.4,271.9c-8,0-11.7-5.4-11.7-13v-15.4c0-2.3,1.1-3,2.7-3h0.7  c1.6,0,2.8,0.7,2.8,3v14.7c0,5.3,2.7,8.4,7.3,8.4c3.8,0,6.8-2.1,8.4-5.4v-17.7c0-2.3,1.1-3,2.7-3h0.7c1.6,0,2.8,0.7,2.8,3v27.3  c0,0.2-1,0.7-2.2,0.7c-1.9,0-3.8-1-4-4.8C421.5,269.7,418.1,271.9,413.4,271.9L413.4,271.9z M441.2,268.4c0,2.3-1.2,3-2.8,3h-0.7  c-1.6,0-2.8-0.7-2.8-3v-40c0-0.2,1-0.7,2.3-0.7c1.9,0,4,1,4,5.4v21.3l10.6-11.8c1.3-1.6,2.6-2.2,3.7-2.2c2.2,0,3.5,2.2,3.2,2.5  l-11.1,12.2l12.8,13.8c0.2,0.3-1.2,2.5-3.4,2.5c-1.2,0-2.4-0.5-3.7-2.1l-12.1-13V268.4z" fill="#35BBDA"  /></svg>