<svg viewBox="0 0 795 283.5" role="img" aria-labelledby="firefly-unofficial--title" xmlns="http://www.w3.org/2000/svg" xmlns:xlink="http://www.w3.org/1999/xlink"><title id="firefly-unofficial--title">Firefly</title><path d="M0,219.9V3.7h145.9v25.5H28.6v67h101.5v25.5H28.6v98.2H0z M179.8,34.2V3.7h26.5v30.5H179.8z M179.8,219.9V63.3h26.5v156.6  L179.8,219.9L179.8,219.9z M246.5,219.9V63.3h23.9V87c6.1-11.1,11.7-18.4,16.9-22c5.2-3.5,10.8-5.3,17-5.3c8.9,0,18,2.9,27.3,8.6  l-9.1,24.6c-6.5-3.8-13-5.8-19.5-5.8c-5.8,0-11,1.7-15.6,5.2c-4.6,3.5-7.9,8.3-9.9,14.5c-2.9,9.4-4.4,19.8-4.4,31v82h-26.6  L246.5,219.9z M454.6,169.5l27.4,3.4c-4.3,16-12.3,28.5-24,37.3s-26.6,13.3-44.8,13.3c-22.9,0-41.1-7.1-54.5-21.2  c-13.4-14.1-20.1-33.9-20.1-59.4c0-26.3,6.8-46.8,20.4-61.4c13.5-14.5,31.1-21.8,52.7-21.8c20.9,0,38.1,7.1,51.3,21.4  c13.3,14.3,19.9,34.3,19.9,60.2c0,1.6-0.1,3.9-0.1,7.1H366c1,17.2,5.8,30.4,14.6,39.5c8.8,9.1,19.7,13.7,32.7,13.7  c9.7,0,18-2.6,24.9-7.7C445.2,188.8,450.6,180.7,454.6,169.5L454.6,169.5z M367.5,126.5H455c-1.2-13.2-4.5-23.1-10-29.6  c-8.5-10.2-19.4-15.3-32.9-15.3c-12.2,0-22.4,4.1-30.8,12.2C373,102,368.4,112.9,367.5,126.5L367.5,126.5z M521.8,219.9v-136h-23.4  V63.3h23.4V46.6c0-10.5,0.9-18.3,2.8-23.4c2.6-6.9,7.1-12.5,13.5-16.7c6.4-4.4,15.4-6.5,27-6.5c7.5,0,15.7,0.9,24.8,2.7l-4,23.2  c-5.5-1-10.7-1.5-15.6-1.5c-8.1,0-13.8,1.7-17.1,5.2c-3.3,3.4-5,9.9-5,19.3v14.5h30.5V84h-30.5v136h-26.4V219.9z M598.7,219.9V3.7  h26.5v216.2H598.7z M665.3,280.3l-2.9-24.9c5.8,1.6,10.9,2.4,15.2,2.4c5.9,0,10.6-1,14.2-2.9c3.5-2,6.4-4.7,8.7-8.3  c1.7-2.7,4.4-9.2,8.1-19.8c0.5-1.5,1.3-3.6,2.4-6.5L651.4,63.3H680l32.6,90.7c4.2,11.5,8,23.6,11.4,36.3c3-12.2,6.7-24.1,10.9-35.7  l33.5-91.3H795l-59.6,159.3c-6.4,17.2-11.4,29.1-14.9,35.5c-4.7,8.8-10.1,15.2-16.2,19.2c-6.1,4.1-13.4,6.1-21.8,6.1  C677.2,283.6,671.5,282.5,665.3,280.3z" /></svg>