<svg viewBox="0 0 301.1 283.5" role="img" aria-labelledby="gloss--title" xmlns="http://www.w3.org/2000/svg" xmlns:xlink="http://www.w3.org/1999/xlink"><title id="gloss--title">Global Maternal Sepsis Study</title><g><g><g><linearGradient id="SVGID_1_" gradientUnits="userSpaceOnUse" x1="114.0833" y1="150.4025" x2="191.8921" y2="225.7013" gradientTransform="matrix(1 0 0 -1 0 286.0646)"><stop offset="0" stop-color="#FFEC00" ></stop><stop offset="1" stop-color="#007375" ></stop>
				
				
			</linearGradient><path d="M261.4,33.2c0-18.3-14.9-33.2-33.2-33.2c-17,0-31,12.8-33,29.3c-12.5-6.2-26.9-9.6-42.1-9.6     c-22.9,0-43.7,7.8-59.3,20.7l14.4,14.4C119.9,45,135.7,39,153,39c36.3,0,65.8,26.3,65.8,58.7c0,17.9-8.9,33.9-23,44.6l14.4,14.5     c18.5-14.3,30.2-35.5,30.2-59.1c0-11.3-2.7-22-7.5-31.7C249.1,63.7,261.4,49.9,261.4,33.2z" fill="url(#SVGID_1_)"  /><linearGradient id="SVGID_2_" gradientUnits="userSpaceOnUse" x1="113.3938" y1="151.1141" x2="191.2035" y2="226.4138" gradientTransform="matrix(1 0 0 -1 0 286.0646)"><stop offset="0" stop-color="#FFEC00" ></stop><stop offset="1" stop-color="#007375" ></stop>
				
				
			</linearGradient><path d="M153,156.5c-15.1,0-29-4.5-40.1-12.2c1,0.2,2.2,0.4,3.3,0.4c7.7,0,13.9-6.3,13.9-13.9     c0-7.7-6.3-14-13.9-14c-7.7,0-14,6.3-14,14c0,2,0.4,3.9,1.2,5.6C93.3,126,87.2,112.5,87.2,97.7c0-14.5,5.9-27.8,15.7-38.1     L88.4,45.1C74.2,59,65.6,77.5,65.6,97.7c0,43.1,39.1,78.1,87.4,78.1c19.1,0,36.8-5.5,51.2-14.8l-14.5-14.5     C179.2,152.8,166.6,156.5,153,156.5z" fill="url(#SVGID_2_)"  />
			
				
			
			
				
			
		</g>
		
	</g><path d="M21.2,212.6h-9.4c-0.6,0-1,0.1-1.2,0.4c-0.2,0.2-0.4,0.6-0.3,1.2v2.4c0,0.6,0.1,1,0.3,1.2s0.6,0.3,1.2,0.3   h4.7v1.4c0,0.7-0.2,1.2-0.6,1.7c-0.4,0.5-1,0.9-1.7,1.2c-0.8,0.3-1.7,0.5-2.8,0.5c-1.7,0-3-0.4-3.8-1.1c-0.9-0.8-1.3-2-1.3-3.5   v-7.9c0-1.5,0.5-2.7,1.3-3.5c0.9-0.8,2.1-1.2,3.8-1.2c1.3,0,2.3,0.2,3.1,0.7c0.8,0.5,1.4,1.2,1.7,2.1c0.1,0.4,0.3,0.6,0.5,0.8   s0.4,0.3,0.6,0.3s0.5,0,0.9-0.1l3-1.1c0.6-0.2,0.9-0.4,1.1-0.7c0.1-0.3,0.1-0.7-0.1-1.2c-0.8-2.1-2-3.7-3.8-4.8   c-1.8-1.1-4.1-1.7-7-1.7c-2.5,0-4.5,0.4-6.2,1.3c-1.7,0.8-3,2-3.8,3.6c-0.9,1.5-1.4,3.4-1.4,5.5v7.8c0,2.2,0.5,4,1.4,5.6   c0.9,1.5,2.2,2.7,3.8,3.6c1.7,0.9,3.8,1.3,6.2,1.3c1.8,0,3.5-0.2,4.9-0.7c1.4-0.5,2.6-1.1,3.6-1.9c1-0.9,1.7-1.8,2.2-2.9   c0.5-1.1,0.7-2.3,0.7-3.7v-5.3c0-0.6-0.1-1-0.4-1.2C22.2,212.7,21.8,212.6,21.2,212.6L21.2,212.6z M34.2,226.8V201   c0-0.5-0.1-0.9-0.3-1.1c-0.2-0.2-0.6-0.3-1.1-0.3h-3c-0.5,0-0.9,0.1-1.1,0.3s-0.3,0.6-0.3,1.1v25.7c0,0.6,0.1,0.9,0.3,1.1   c0.2,0.2,0.6,0.3,1.1,0.3h3c0.6,0,0.9-0.1,1.1-0.3C34,227.7,34.2,227.4,34.2,226.8L34.2,226.8z M39.6,215.6v5c0,1.7,0.4,3.1,1,4.3   c0.7,1.2,1.7,2.1,3.1,2.8c1.4,0.7,3.1,1,5.1,1c2,0,3.7-0.3,5.1-1c1.4-0.6,2.4-1.6,3.1-2.8c0.7-1.2,1-2.7,1-4.3v-5   c0-1.7-0.4-3.1-1-4.4c-0.7-1.2-1.7-2.1-3.1-2.8c-1.4-0.7-3.1-1-5.1-1c-2,0-3.7,0.3-5.1,1c-1.4,0.6-2.4,1.6-3.1,2.8   C39.9,212.5,39.6,213.9,39.6,215.6L39.6,215.6z M52.2,215.5v5.1c0,0.9-0.3,1.6-0.9,2.1c-0.6,0.5-1.4,0.7-2.6,0.7   c-1.1,0-2-0.2-2.5-0.7c-0.6-0.5-0.9-1.2-0.9-2.1v-5.1c0-1,0.3-1.7,0.9-2.2c0.6-0.5,1.4-0.7,2.5-0.7s2,0.2,2.6,0.7   C51.9,213.9,52.2,214.6,52.2,215.5L52.2,215.5z M67.8,199.5h-3c-0.5,0-0.9,0.1-1.1,0.3c-0.2,0.2-0.3,0.6-0.3,1.1v24.3   c0,0.4,0,0.7,0.1,1c0.1,0.2,0.2,0.4,0.4,0.6c0.2,0.2,0.5,0.4,0.9,0.6c0.5,0.2,1.1,0.4,1.8,0.6c0.7,0.2,1.6,0.4,2.5,0.5   c1,0.1,2,0.2,3.1,0.2c3.1,0,5.3-0.7,6.8-2.2c1.5-1.4,2.3-3.5,2.2-6.3v-4.8c0-1.7-0.3-3.1-0.9-4.3s-1.5-2.1-2.8-2.7   c-1.2-0.6-2.8-0.9-4.7-0.9c-0.7,0-1.3,0-1.9,0.1c-0.6,0.1-1.2,0.1-1.7,0.3V201c0-0.5-0.1-0.9-0.3-1.1   C68.7,199.6,68.4,199.5,67.8,199.5L67.8,199.5z M75.3,215.5v4.8c0,1.1-0.3,1.9-0.9,2.4c-0.6,0.5-1.5,0.8-2.7,0.8   c-0.4,0-0.9,0-1.3-0.1c-0.4,0-0.8-0.1-1.2-0.2c0,0-0.1,0-0.1-0.1v-0.1v-9.9c0.4-0.1,0.8-0.2,1.3-0.3c0.5-0.1,1-0.1,1.6-0.1   c1,0,1.8,0.2,2.4,0.7C75.1,213.9,75.3,214.6,75.3,215.5L75.3,215.5z M86.4,211.5c-0.2,0.5-0.3,1-0.2,1.3c0.1,0.3,0.5,0.6,1,0.8   l2.1,0.9c0.3,0.1,0.6,0.2,0.8,0.2c0.2,0,0.4-0.1,0.6-0.2c0.1-0.1,0.4-0.4,0.5-0.6c0.4-0.5,0.8-0.8,1.3-1.1c0.5-0.2,1.2-0.4,1.9-0.4   c1.1,0,1.8,0.2,2.3,0.7c0.5,0.5,0.7,1.2,0.7,2.1v0.9c-0.2,0-0.5,0-0.7,0c-0.3,0-0.6,0-1,0c-0.4,0-0.7,0-1,0c-1.6,0-3,0.1-4.1,0.3   s-2.1,0.6-2.8,1c-0.7,0.5-1.2,1.1-1.6,2c-0.4,0.8-0.5,1.8-0.5,3.1c0,1,0.1,1.9,0.4,2.7c0.2,0.8,0.7,1.5,1.4,2   c0.6,0.5,1.6,1,2.7,1.2c1.1,0.3,2.6,0.4,4.4,0.4c1.7,0,3.1-0.1,4.3-0.3c1.2-0.2,2.2-0.4,3-0.7c0.4-0.1,0.7-0.3,0.9-0.5   c0.2-0.2,0.4-0.4,0.4-0.7c0.1-0.2,0.1-0.6,0.1-1.1v-9.9c0-1.2-0.1-2.3-0.4-3.3s-0.7-1.9-1.4-2.6c-0.7-0.7-1.5-1.3-2.7-1.7   c-1.1-0.4-2.5-0.6-4.1-0.6c-2.1,0-3.8,0.4-5.2,1C88.1,209.2,87.1,210.2,86.4,211.5L86.4,211.5z M97.5,220.6v3.3   c0,0.1,0,0.1-0.1,0.2c0,0-0.1,0.1-0.2,0.1c-0.2,0.1-0.6,0.1-1.1,0.1c-0.5,0-1.1,0-1.9,0c-0.7,0-1.3-0.1-1.6-0.2   c-0.4-0.1-0.6-0.4-0.8-0.7c-0.1-0.3-0.2-0.6-0.2-1s0-0.6,0.2-0.9c0.1-0.3,0.4-0.5,0.8-0.7c0.4-0.1,0.9-0.3,1.7-0.3   c0.4,0,0.7,0,1.1,0s0.8,0,1.2,0C96.9,220.6,97.2,220.6,97.5,220.6L97.5,220.6z M114.9,226.8V201c0-0.5-0.1-0.9-0.3-1.1   c-0.2-0.2-0.6-0.3-1.1-0.3h-3c-0.5,0-0.9,0.1-1.1,0.3s-0.3,0.6-0.3,1.1v25.7c0,0.6,0.1,0.9,0.3,1.1c0.2,0.2,0.6,0.3,1.1,0.3h3   c0.5,0,0.9-0.1,1.1-0.3S114.9,227.4,114.9,226.8L114.9,226.8z M162.3,200.7h-2.7c-0.4,0-0.7,0-1,0.1c-0.2,0.1-0.4,0.2-0.6,0.4   c-0.1,0.2-0.3,0.4-0.5,0.7l-7.1,13.1l-7.1-13.1c-0.2-0.3-0.4-0.5-0.5-0.7c-0.2-0.2-0.4-0.3-0.6-0.4c-0.3-0.1-0.6-0.1-1-0.1h-2.5   c-0.6,0-1,0.1-1.2,0.4c-0.2,0.2-0.4,0.6-0.4,1.2v24.4c0,0.6,0.1,1,0.4,1.2c0.2,0.2,0.6,0.4,1.2,0.4h2.8c0.6,0,1-0.1,1.2-0.4   c0.2-0.2,0.4-0.6,0.4-1.2V218c0-0.6,0-1.3,0-1.9c0-0.6-0.1-1.3-0.2-2c-0.1-0.7-0.2-1.4-0.4-2.2s-0.4-1.7-0.6-2.7h0.4   c0.4,1.4,0.8,2.7,1.3,3.9c0.4,1.2,1,2.3,1.6,3.3l2.8,4.9c0.1,0.3,0.3,0.5,0.5,0.7c0.1,0.2,0.3,0.3,0.5,0.4c0.2,0.1,0.5,0.1,0.8,0.1   h1.8c0.3,0,0.6-0.1,0.8-0.1c0.2-0.1,0.4-0.2,0.5-0.4c0.1-0.1,0.3-0.4,0.4-0.6l2.7-4.9c0.6-1.1,1.1-2.2,1.7-3.4   c0.5-1.2,1-2.5,1.4-3.8h0.4c-0.3,1.3-0.6,2.4-0.7,3.5c-0.2,1-0.3,2-0.4,2.8c-0.1,0.9-0.1,1.7-0.1,2.5v8.8c0,0.6,0.1,1,0.4,1.2   c0.2,0.2,0.6,0.4,1.2,0.4h2.9c0.6,0,1-0.1,1.2-0.4c0.2-0.2,0.4-0.6,0.4-1.2v-24.4c0-0.6-0.1-1-0.4-1.2   C163.4,200.8,162.9,200.7,162.3,200.7L162.3,200.7z M170.1,211.5c-0.3,0.5-0.3,1-0.2,1.3c0.1,0.3,0.5,0.6,1,0.8l2.1,0.9   c0.4,0.1,0.6,0.2,0.9,0.2c0.2,0,0.4-0.1,0.6-0.2c0.2-0.1,0.4-0.4,0.6-0.6c0.4-0.5,0.7-0.8,1.3-1.1c0.5-0.2,1.2-0.4,1.9-0.4   c1.1,0,1.8,0.2,2.3,0.7c0.5,0.5,0.7,1.2,0.7,2.1v0.9c-0.2,0-0.5,0-0.7,0c-0.3,0-0.6,0-1,0s-0.7,0-1,0c-1.6,0-3,0.1-4.1,0.3   c-1.1,0.2-2.1,0.6-2.8,1c-0.7,0.5-1.2,1.1-1.6,2c-0.4,0.8-0.5,1.8-0.5,3.1c0,1,0.1,1.9,0.4,2.7c0.3,0.8,0.7,1.5,1.4,2   c0.6,0.5,1.6,1,2.7,1.2c1.1,0.3,2.6,0.4,4.3,0.4c1.7,0,3.1-0.1,4.4-0.3c1.2-0.2,2.2-0.4,3-0.7c0.4-0.1,0.7-0.3,0.9-0.5   s0.4-0.4,0.5-0.7c0.1-0.2,0.1-0.6,0.1-1.1v-9.9c0-1.2-0.1-2.3-0.4-3.3c-0.3-1-0.7-1.9-1.4-2.6c-0.7-0.7-1.6-1.3-2.7-1.7   c-1.1-0.4-2.5-0.6-4.1-0.6c-2.1,0-3.8,0.4-5.2,1C171.8,209.2,170.8,210.2,170.1,211.5L170.1,211.5z M181.2,220.6v3.3   c0,0.1,0,0.1-0.1,0.2c-0.1,0-0.1,0.1-0.2,0.1c-0.2,0.1-0.6,0.1-1.1,0.1c-0.5,0-1.1,0-2,0c-0.7,0-1.2-0.1-1.6-0.2   c-0.4-0.1-0.6-0.4-0.7-0.7c-0.1-0.3-0.2-0.6-0.2-1s0-0.6,0.2-0.9c0.1-0.3,0.4-0.5,0.8-0.7c0.4-0.1,0.9-0.3,1.7-0.3   c0.4,0,0.7,0,1.1,0c0.4,0,0.8,0,1.2,0C180.6,220.6,180.9,220.6,181.2,220.6L181.2,220.6z M198.9,203.4h-3c-0.5,0-0.9,0.1-1.1,0.3   c-0.2,0.2-0.3,0.6-0.3,1.1v3.2h-2.1c-0.5,0-0.9,0.1-1.1,0.3c-0.2,0.2-0.3,0.6-0.3,1.1v2.3c0,0.5,0.1,0.9,0.3,1.1   c0.2,0.2,0.6,0.3,1.1,0.3h2.1v6.7c0,1.7,0.2,3.1,0.5,4.3c0.4,1.1,0.9,2.1,1.7,2.7c0.8,0.7,1.7,1.1,2.9,1.4s2.6,0.4,4.3,0.3   c0.4,0,0.6-0.1,0.9-0.1c0.2-0.1,0.4-0.2,0.5-0.5c0.1-0.2,0.1-0.5,0.1-0.9v-2.5c0-0.6-0.1-0.9-0.3-1.1c-0.2-0.2-0.6-0.3-1.1-0.3   c-0.6,0-1.2,0-1.6-0.1c-0.5-0.1-0.8-0.3-1.1-0.5c-0.3-0.2-0.5-0.6-0.6-1.1c-0.1-0.5-0.2-1.1-0.2-1.8v-6.5h3.6   c0.5,0,0.9-0.1,1.1-0.3c0.2-0.2,0.3-0.6,0.3-1.1v-2.3c0-0.5-0.1-0.9-0.3-1.1c-0.2-0.2-0.6-0.3-1.1-0.3h-3.6v-3.2   c0-0.5-0.1-0.9-0.3-1.1C199.7,203.5,199.4,203.4,198.9,203.4L198.9,203.4z M209.5,216v4.1c0,1.2,0.2,2.3,0.5,3.4   c0.4,1,0.9,2,1.6,2.7c0.7,0.8,1.7,1.4,2.9,1.8c1.2,0.4,2.6,0.6,4.2,0.6c2.2,0,4-0.3,5.4-0.9c1.4-0.6,2.5-1.5,3.1-2.7   c0.3-0.5,0.4-1,0.4-1.3c-0.1-0.4-0.4-0.7-1-1l-1.9-1c-0.4-0.2-0.7-0.3-1-0.3c-0.2,0-0.5,0-0.7,0.2c-0.2,0.1-0.4,0.4-0.6,0.7   c-0.4,0.5-0.8,0.8-1.4,1.1c-0.6,0.3-1.4,0.4-2.3,0.4c-1.1,0-1.9-0.2-2.6-0.7c-0.6-0.5-0.9-1.3-0.9-2.3v-1h10.8   c0.7,0,1.2-0.2,1.6-0.5c0.3-0.4,0.5-0.8,0.4-1.4v-2.4c0-1.1-0.2-2.2-0.5-3.1c-0.4-1-1-1.9-1.7-2.6c-0.8-0.8-1.7-1.4-2.9-1.8   c-1.2-0.4-2.6-0.6-4.2-0.6c-2,0-3.7,0.3-5.1,1c-1.4,0.7-2.4,1.6-3.1,2.9C209.8,212.6,209.5,214.2,209.5,216L209.5,216z    M222.3,215.1v0.6h-6.9v-0.6c0-1,0.3-1.7,0.9-2.2c0.6-0.5,1.5-0.8,2.6-0.8c1.1,0,2,0.3,2.6,0.8C222,213.4,222.3,214.1,222.3,215.1   L222.3,215.1z M242.2,207.5c-1.8,0.1-3.3,0.2-4.5,0.4s-2.2,0.5-3,0.7c-0.4,0.2-0.7,0.4-1,0.5c-0.2,0.2-0.4,0.4-0.5,0.7   c-0.1,0.3-0.1,0.6-0.1,1.1v15.8c0,0.6,0.1,0.9,0.3,1.1c0.2,0.2,0.6,0.3,1.1,0.3h3c0.5,0,0.9-0.1,1.1-0.3c0.2-0.2,0.3-0.6,0.3-1.1   v-13.5c0-0.1,0-0.1,0-0.2c0,0,0.1-0.1,0.2-0.1c0.4-0.1,0.9-0.2,1.3-0.2c0.4,0,0.9,0,1.5,0h1.4c0.5,0,0.9-0.1,1.1-0.3   c0.2-0.2,0.3-0.6,0.3-1.1v-2.4c0-0.5-0.1-0.9-0.3-1.1c-0.2-0.2-0.6-0.3-1.1-0.3L242.2,207.5L242.2,207.5z M250.7,208.8   c-0.4,0.1-0.7,0.3-1,0.5c-0.2,0.2-0.4,0.4-0.5,0.7c-0.1,0.2-0.1,0.6-0.1,1v15.6c0,0.6,0.1,0.9,0.3,1.1c0.2,0.2,0.6,0.3,1.1,0.3h3   c0.5,0,0.9-0.1,1.1-0.3c0.2-0.2,0.3-0.6,0.3-1.1v-13.4v-0.1h0.1c0.4-0.1,0.8-0.2,1.3-0.3c0.4-0.1,0.9-0.1,1.4-0.1   c1.1,0,2,0.2,2.5,0.7c0.5,0.5,0.8,1.2,0.8,2.2v11.1c0,0.6,0.1,0.9,0.3,1.1c0.2,0.2,0.6,0.3,1.1,0.3h3c0.5,0,0.9-0.1,1.1-0.3   c0.2-0.2,0.3-0.6,0.3-1.1v-11.2c0-1.7-0.3-3.1-0.9-4.3c-0.6-1.2-1.5-2.1-2.7-2.7c-1.2-0.6-2.8-0.9-4.7-0.9c-1.3,0-2.4,0.1-3.4,0.2   c-1,0.1-1.9,0.3-2.6,0.5C251.9,208.4,251.3,208.6,250.7,208.8L250.7,208.8z M272.6,211.5c-0.3,0.5-0.3,1-0.2,1.3   c0.1,0.3,0.5,0.6,1,0.8l2.1,0.9c0.4,0.1,0.6,0.2,0.9,0.2c0.2,0,0.4-0.1,0.6-0.2c0.2-0.1,0.4-0.4,0.6-0.6c0.3-0.5,0.7-0.8,1.3-1.1   c0.5-0.2,1.2-0.4,1.9-0.4c1.1,0,1.8,0.2,2.3,0.7c0.5,0.5,0.7,1.2,0.7,2.1v0.9c-0.2,0-0.5,0-0.7,0c-0.3,0-0.6,0-1,0   c-0.3,0-0.7,0-1,0c-1.6,0-3,0.1-4.1,0.3c-1.1,0.2-2.1,0.6-2.8,1c-0.7,0.5-1.3,1.1-1.6,2c-0.4,0.8-0.5,1.8-0.5,3.1   c0,1,0.1,1.9,0.4,2.7s0.7,1.5,1.4,2c0.6,0.5,1.5,1,2.7,1.2c1.1,0.3,2.6,0.4,4.3,0.4s3.1-0.1,4.4-0.3c1.2-0.2,2.2-0.4,3-0.7   c0.4-0.1,0.7-0.3,0.9-0.5s0.4-0.4,0.5-0.7c0.1-0.2,0.1-0.6,0.1-1.1v-9.9c0-1.2-0.1-2.3-0.4-3.3s-0.8-1.9-1.4-2.6   c-0.7-0.7-1.6-1.3-2.7-1.7c-1.1-0.4-2.5-0.6-4.1-0.6c-2.1,0-3.8,0.4-5.2,1C274.3,209.2,273.3,210.2,272.6,211.5L272.6,211.5z    M283.7,220.6v3.3c0,0.1,0,0.1-0.1,0.2c-0.1,0-0.1,0.1-0.2,0.1c-0.2,0.1-0.6,0.1-1.1,0.1s-1.1,0-2,0c-0.7,0-1.2-0.1-1.6-0.2   s-0.6-0.4-0.7-0.7c-0.1-0.3-0.2-0.6-0.2-1s0.1-0.6,0.2-0.9s0.4-0.5,0.8-0.7c0.4-0.1,0.9-0.3,1.7-0.3c0.3,0,0.7,0,1.1,0s0.8,0,1.2,0   C283.1,220.6,283.4,220.6,283.7,220.6L283.7,220.6z M301.1,226.8V201c0-0.5-0.1-0.9-0.3-1.1c-0.2-0.2-0.6-0.3-1.1-0.3h-3   c-0.5,0-0.9,0.1-1.1,0.3c-0.2,0.2-0.3,0.6-0.3,1.1v25.7c0,0.6,0.1,0.9,0.3,1.1c0.2,0.2,0.6,0.3,1.1,0.3h3c0.5,0,0.9-0.1,1.1-0.3   S301.1,227.4,301.1,226.8L301.1,226.8z M23.8,255.3c0,1.4,0.2,2.6,0.7,3.6c0.4,1,1,1.7,1.8,2.3c0.7,0.6,1.6,1.1,2.5,1.4   c0.9,0.3,1.9,0.6,2.9,0.7c1,0.2,2,0.3,2.9,0.4c0.7,0.1,1.4,0.2,2,0.3c0.6,0.1,1.2,0.3,1.7,0.5c0.5,0.2,0.9,0.5,1.1,0.8   c0.2,0.3,0.4,0.7,0.4,1.2c0,1.1-0.4,1.8-1.3,2.3c-0.9,0.5-2.2,0.7-3.8,0.7c-1.2,0-2.3-0.2-3.1-0.7c-0.9-0.5-1.5-1.1-1.9-2   c-0.1-0.4-0.3-0.7-0.5-0.9c-0.2-0.2-0.4-0.3-0.6-0.3s-0.5,0-0.9,0.2l-2.8,1c-0.5,0.2-0.9,0.4-1,0.7c-0.2,0.3-0.1,0.7,0,1.3   c0.5,1.4,1.2,2.5,2.1,3.5c1,0.9,2.1,1.6,3.6,2.1c1.5,0.5,3.2,0.7,5.2,0.7c1.8,0,3.4-0.2,4.8-0.6c1.4-0.4,2.6-1,3.6-1.8   c1-0.8,1.8-1.7,2.3-2.8s0.8-2.3,0.8-3.6c0-1.4-0.2-2.5-0.6-3.5c-0.4-0.9-1-1.7-1.6-2.3c-0.7-0.6-1.5-1.1-2.3-1.5   c-0.9-0.4-1.7-0.6-2.7-0.9c-0.9-0.2-1.8-0.3-2.8-0.4c-0.8-0.1-1.5-0.2-2.2-0.3c-0.7-0.1-1.3-0.3-1.8-0.5c-0.5-0.2-0.9-0.5-1.2-0.8   c-0.3-0.3-0.5-0.7-0.5-1.2c0-0.9,0.4-1.6,1.1-2.1c0.7-0.4,1.9-0.6,3.4-0.6c0.8,0,1.5,0.1,2.1,0.3c0.6,0.2,1.1,0.5,1.5,0.9   s0.7,0.9,1,1.4c0.2,0.4,0.4,0.6,0.5,0.8c0.2,0.2,0.4,0.2,0.6,0.2c0.2,0,0.5-0.1,0.8-0.2l3-1.3c0.5-0.2,0.9-0.5,1-0.8   c0.1-0.3,0.1-0.7-0.2-1.3c-0.6-1.2-1.3-2.3-2.2-3.1c-0.9-0.9-2-1.5-3.3-1.9s-2.9-0.6-4.8-0.6c-1.8,0-3.4,0.2-4.8,0.7   c-1.4,0.4-2.5,1-3.4,1.8c-0.9,0.8-1.6,1.7-2.1,2.7C24,252.9,23.8,254,23.8,255.3L23.8,255.3z M50.5,262.6v4.1   c0,1.2,0.2,2.3,0.5,3.4c0.4,1,0.9,1.9,1.6,2.7c0.7,0.8,1.7,1.4,2.8,1.8c1.2,0.4,2.6,0.6,4.3,0.7c2.2,0,4-0.4,5.4-1   c1.4-0.6,2.4-1.5,3.1-2.7c0.3-0.5,0.4-1,0.3-1.3c-0.1-0.4-0.4-0.7-0.9-1l-1.9-1c-0.4-0.2-0.7-0.3-0.9-0.3c-0.2,0-0.5,0-0.7,0.2   c-0.2,0.1-0.4,0.4-0.6,0.6c-0.3,0.5-0.8,0.9-1.4,1.1c-0.6,0.2-1.4,0.4-2.2,0.4c-1.1,0-2-0.3-2.6-0.7c-0.6-0.5-0.9-1.3-0.9-2.3v-1   h10.8c0.7,0,1.2-0.2,1.6-0.5c0.3-0.3,0.4-0.8,0.4-1.4v-2.3c0-1.1-0.2-2.2-0.6-3.2c-0.4-1-0.9-1.9-1.7-2.6c-0.8-0.7-1.7-1.4-2.9-1.8   c-1.2-0.4-2.6-0.6-4.2-0.6c-2,0-3.7,0.4-5.1,1c-1.4,0.6-2.4,1.6-3.1,2.9C50.9,259.1,50.5,260.7,50.5,262.6L50.5,262.6z M63.3,261.6   v0.6h-6.9v-0.6c0-1,0.3-1.7,0.9-2.2c0.6-0.5,1.4-0.7,2.6-0.7c1.1,0,2,0.2,2.6,0.7C63,259.9,63.3,260.6,63.3,261.6L63.3,261.6z    M75.8,255.2c-0.4,0.1-0.7,0.3-1,0.5c-0.2,0.2-0.4,0.4-0.5,0.7c-0.1,0.2-0.1,0.6-0.1,1v24.3c0,0.5,0.1,0.9,0.3,1.1   c0.2,0.2,0.6,0.3,1.1,0.3h3c0.5,0,0.9-0.1,1.1-0.3c0.2-0.2,0.3-0.6,0.3-1.1v-6.8c0.5,0.1,1,0.2,1.5,0.2s1,0.1,1.6,0.1   c3,0,5.2-0.7,6.7-2.2c1.5-1.4,2.2-3.5,2.2-6.3v-4.9c0-1.7-0.3-3.1-0.9-4.3c-0.6-1.2-1.6-2.1-2.8-2.7c-1.2-0.6-2.8-1-4.7-1   c-1.3,0-2.4,0.1-3.4,0.2s-1.8,0.3-2.6,0.4C76.9,254.8,76.3,255,75.8,255.2L75.8,255.2z M86.2,262v4.8c0,1.1-0.3,1.9-0.9,2.4   s-1.5,0.8-2.6,0.8c-0.5,0-0.9,0-1.4-0.1c-0.4-0.1-0.9-0.1-1.2-0.2v-10.1v-0.1c0-0.1,0.1-0.1,0.1-0.1c0.4-0.1,0.8-0.1,1.2-0.2   c0.5,0,0.9-0.1,1.5-0.1c1.1,0,1.8,0.3,2.4,0.7C85.9,260.4,86.1,261.1,86.2,262L86.2,262z" fill="#007B7F"  /><path d="M96.7,260.4c0,1.2,0.2,2.2,0.7,3c0.4,0.8,1,1.4,1.8,1.8c0.7,0.5,1.6,0.8,2.5,1c1,0.2,2,0.4,3,0.5   c1,0.1,1.8,0.2,2.4,0.3s1,0.3,1.3,0.5c0.2,0.2,0.4,0.6,0.4,1c0,0.6-0.3,1-0.9,1.2c-0.5,0.2-1.4,0.4-2.5,0.4c-1,0-1.8-0.1-2.3-0.4   c-0.5-0.2-1-0.6-1.2-1.1c-0.1-0.4-0.3-0.6-0.5-0.7c-0.2-0.1-0.4-0.2-0.6-0.2s-0.5,0.1-0.8,0.2l-2.4,0.8c-0.5,0.1-0.8,0.4-1,0.7   c-0.1,0.3-0.1,0.7,0.1,1.2c0.6,1.5,1.6,2.6,3.1,3.4s3.4,1.2,5.8,1.2c1.9,0,3.5-0.3,4.8-0.9c1.3-0.6,2.3-1.4,2.9-2.3   c0.7-1,1-2.2,1-3.5c0-1.1-0.2-2.1-0.5-2.8c-0.4-0.8-0.9-1.4-1.6-1.8c-0.7-0.5-1.6-0.9-2.6-1.1c-1-0.2-2.2-0.4-3.4-0.5   c-0.9-0.1-1.6-0.2-2.2-0.3c-0.5-0.1-0.9-0.3-1.2-0.5c-0.2-0.2-0.4-0.5-0.4-0.9c0-0.3,0.1-0.6,0.3-0.8c0.2-0.2,0.5-0.4,0.9-0.5   s1-0.1,1.7-0.1c0.6,0,1.2,0.1,1.6,0.2s0.8,0.3,1.1,0.5c0.3,0.2,0.5,0.5,0.7,0.7c0.2,0.3,0.4,0.5,0.6,0.7c0.1,0.1,0.4,0.2,0.6,0.2   s0.5-0.1,0.9-0.2l2.3-1c0.5-0.2,0.9-0.5,1-0.8c0.1-0.3,0-0.7-0.2-1.2c-0.5-0.9-1.1-1.6-1.8-2.2c-0.7-0.6-1.7-1.1-2.8-1.4   c-1.1-0.3-2.4-0.5-4-0.5c-1.8,0-3.4,0.3-4.6,0.9c-1.2,0.5-2.1,1.3-2.8,2.2C97,258.1,96.7,259.2,96.7,260.4L96.7,260.4z    M122.6,246.9h-0.8c-0.7,0-1.2,0.1-1.6,0.2c-0.4,0.2-0.7,0.5-0.9,0.9c-0.2,0.4-0.2,1-0.2,1.6v0.4c0,0.7,0.1,1.2,0.2,1.6   c0.2,0.4,0.5,0.7,0.9,0.9s1,0.3,1.6,0.2h0.8c0.7,0,1.2-0.1,1.6-0.2c0.4-0.1,0.7-0.4,0.9-0.9c0.2-0.4,0.2-0.9,0.2-1.6v-0.4   c0-0.7-0.1-1.2-0.2-1.6c-0.2-0.4-0.4-0.7-0.9-0.9C123.8,246.9,123.2,246.9,122.6,246.9L122.6,246.9z M123.7,254.5h-3   c-0.5,0-0.9,0.1-1.1,0.3s-0.3,0.6-0.3,1.1v17.2c0,0.5,0.1,0.9,0.3,1.1c0.2,0.2,0.6,0.3,1.1,0.3h3c0.5,0,0.9-0.1,1.1-0.3   s0.3-0.6,0.3-1.1v-17.2c0-0.5-0.1-0.9-0.3-1.1C124.6,254.6,124.2,254.5,123.7,254.5L123.7,254.5z M130.4,260.4c0,1.2,0.2,2.2,0.6,3   c0.5,0.8,1,1.4,1.8,1.8c0.7,0.5,1.6,0.8,2.6,1c0.9,0.2,1.9,0.4,3,0.5c1,0.1,1.8,0.2,2.4,0.3c0.6,0.1,1,0.3,1.3,0.5   c0.2,0.2,0.4,0.6,0.4,1c0,0.6-0.3,1-0.9,1.2c-0.5,0.2-1.4,0.4-2.5,0.4c-1,0-1.8-0.1-2.3-0.4c-0.6-0.2-1-0.6-1.2-1.1   c-0.1-0.4-0.3-0.6-0.5-0.7c-0.2-0.1-0.4-0.2-0.6-0.2c-0.2,0-0.5,0.1-0.9,0.2l-2.3,0.8c-0.5,0.1-0.9,0.4-1,0.7   c-0.2,0.3-0.1,0.7,0.1,1.2c0.6,1.5,1.6,2.6,3.1,3.4c1.5,0.8,3.4,1.2,5.8,1.2c1.9,0,3.4-0.3,4.8-0.9c1.3-0.6,2.3-1.4,2.9-2.3   c0.7-1,1-2.2,1-3.5c0-1.1-0.2-2.1-0.6-2.8c-0.4-0.8-0.9-1.4-1.6-1.8c-0.7-0.5-1.6-0.9-2.6-1.1c-1-0.2-2.2-0.4-3.5-0.5   c-0.9-0.1-1.6-0.2-2.2-0.3c-0.6-0.1-1-0.3-1.2-0.5c-0.2-0.2-0.4-0.5-0.4-0.9c0-0.3,0.1-0.6,0.3-0.8c0.2-0.2,0.5-0.4,0.9-0.5   s1-0.1,1.7-0.1c0.6,0,1.2,0.1,1.6,0.2c0.5,0.1,0.8,0.3,1.1,0.5c0.3,0.2,0.5,0.5,0.7,0.7c0.2,0.3,0.4,0.5,0.5,0.7   c0.1,0.1,0.4,0.2,0.6,0.2c0.2,0,0.5-0.1,0.9-0.2l2.3-1c0.5-0.2,0.9-0.5,1-0.8c0.1-0.3,0.1-0.7-0.2-1.2c-0.5-0.9-1-1.6-1.8-2.2   c-0.7-0.6-1.7-1.1-2.8-1.4c-1.1-0.3-2.5-0.5-4-0.5c-1.8,0-3.4,0.3-4.6,0.9c-1.2,0.5-2.2,1.3-2.8,2.2   C130.6,258.1,130.4,259.2,130.4,260.4L130.4,260.4z M168,255.3c0,1.4,0.2,2.6,0.7,3.6c0.4,1,1,1.7,1.7,2.3c0.7,0.6,1.6,1.1,2.5,1.4   c0.9,0.3,1.9,0.6,2.9,0.7c1,0.2,2,0.3,2.9,0.4c0.7,0.1,1.4,0.2,2,0.3c0.6,0.1,1.2,0.3,1.7,0.5c0.5,0.2,0.9,0.5,1.1,0.8   c0.2,0.3,0.4,0.7,0.4,1.2c0,1.1-0.5,1.8-1.4,2.3c-0.9,0.5-2.1,0.7-3.8,0.7c-1.2,0-2.3-0.2-3.1-0.7s-1.5-1.1-1.9-2   c-0.1-0.4-0.3-0.7-0.5-0.9s-0.4-0.3-0.6-0.3c-0.3,0-0.5,0-0.9,0.2l-2.8,1c-0.5,0.2-0.9,0.4-1.1,0.7c-0.1,0.3-0.1,0.7,0.1,1.3   c0.5,1.4,1.2,2.5,2.1,3.5c0.9,0.9,2.1,1.6,3.6,2.1c1.5,0.5,3.2,0.7,5.2,0.7c1.8,0,3.4-0.2,4.8-0.6c1.4-0.4,2.6-1,3.6-1.8   s1.7-1.7,2.3-2.8c0.5-1.1,0.8-2.3,0.8-3.6c0-1.4-0.2-2.5-0.6-3.5c-0.4-0.9-1-1.7-1.6-2.3c-0.7-0.6-1.5-1.1-2.3-1.5   c-0.9-0.4-1.8-0.6-2.7-0.9c-0.9-0.2-1.8-0.3-2.8-0.4c-0.8-0.1-1.5-0.2-2.2-0.3c-0.7-0.1-1.3-0.3-1.9-0.5c-0.5-0.2-1-0.5-1.2-0.8   c-0.3-0.3-0.5-0.7-0.5-1.2c0-0.9,0.4-1.6,1.1-2.1c0.7-0.4,1.9-0.6,3.5-0.6c0.8,0,1.5,0.1,2.1,0.3s1.1,0.5,1.5,0.9s0.7,0.9,1,1.4   c0.2,0.4,0.4,0.6,0.6,0.8c0.2,0.2,0.4,0.2,0.6,0.2c0.2,0,0.5-0.1,0.9-0.2l3-1.3c0.5-0.2,0.9-0.5,1-0.8c0.1-0.3,0.1-0.7-0.2-1.3   c-0.6-1.2-1.4-2.3-2.2-3.1c-0.9-0.9-2-1.5-3.3-1.9s-2.9-0.6-4.8-0.6c-1.8,0-3.4,0.2-4.8,0.7c-1.4,0.4-2.5,1-3.5,1.8   c-0.9,0.8-1.6,1.7-2.1,2.7C168.2,252.9,168,254,168,255.3L168,255.3z M201.3,249.9h-3c-0.5,0-0.9,0.1-1.1,0.3   c-0.2,0.2-0.3,0.6-0.3,1.1v3.2h-2c-0.5,0-0.9,0.1-1.1,0.3c-0.2,0.2-0.3,0.6-0.3,1.1v2.3c0,0.5,0.1,0.9,0.3,1.1   c0.2,0.2,0.6,0.3,1.1,0.3h2v6.8c0,1.7,0.2,3.1,0.6,4.3c0.4,1.1,0.9,2,1.7,2.7c0.7,0.7,1.7,1.2,2.9,1.4c1.2,0.3,2.6,0.4,4.3,0.3   c0.4,0,0.6,0,0.9-0.1c0.2-0.1,0.4-0.2,0.4-0.4c0.1-0.2,0.1-0.5,0.1-0.9v-2.4c0-0.6-0.1-1-0.3-1.2c-0.2-0.2-0.6-0.3-1.1-0.3   c-0.6,0-1.2,0-1.7-0.1c-0.4-0.1-0.8-0.2-1.1-0.5c-0.3-0.3-0.5-0.6-0.6-1.1c-0.1-0.5-0.2-1.1-0.2-1.8v-6.5h3.6   c0.5,0,0.9-0.1,1.1-0.3c0.2-0.2,0.3-0.6,0.3-1.1v-2.3c0-0.5-0.1-0.9-0.3-1.1c-0.2-0.2-0.6-0.3-1.1-0.3h-3.6v-3.2   c0-0.5-0.1-0.9-0.3-1.1C202.2,250,201.8,249.9,201.3,249.9L201.3,249.9z M228.9,254.5h-3c-0.5,0-0.9,0.1-1.1,0.3   c-0.2,0.2-0.3,0.6-0.3,1.1v13.3c0,0.1,0,0.2-0.1,0.3c0,0-0.1,0.1-0.2,0.1c-0.3,0.1-0.5,0.1-0.8,0.1c-0.2,0-0.5,0.1-0.8,0.1   s-0.6,0-1,0c-1.1,0-1.9-0.2-2.5-0.7c-0.6-0.5-0.8-1.2-0.8-2.2v-11.1c0-0.5-0.1-0.9-0.3-1.1c-0.2-0.2-0.6-0.3-1.1-0.3h-3   c-0.5,0-0.9,0.1-1.1,0.3c-0.2,0.2-0.3,0.6-0.3,1.1V267c0,1.7,0.3,3.2,0.9,4.3c0.6,1.2,1.5,2.1,2.7,2.7c1.2,0.6,2.8,0.9,4.7,1   c1.3,0,2.4-0.1,3.4-0.2s1.9-0.3,2.6-0.5c0.7-0.2,1.4-0.4,1.9-0.7c0.4-0.1,0.7-0.3,0.9-0.5c0.2-0.2,0.4-0.4,0.5-0.7   c0.1-0.2,0.1-0.6,0.1-1v-15.6c0-0.5-0.1-0.9-0.3-1.1C229.8,254.6,229.4,254.5,228.9,254.5L228.9,254.5z M235.7,262.4v4.9   c0,1.7,0.3,3.2,0.9,4.3c0.6,1.2,1.6,2.1,2.8,2.7c1.3,0.6,2.9,0.9,4.9,1c1.2,0,2.3-0.1,3.3-0.2c0.9-0.1,1.8-0.3,2.5-0.5   c0.7-0.2,1.3-0.4,1.8-0.6c0.4-0.2,0.7-0.4,1-0.5c0.3-0.2,0.4-0.4,0.5-0.6c0.1-0.3,0.1-0.6,0.1-1v-24.4c0-0.5-0.1-0.9-0.3-1.1   c-0.2-0.2-0.6-0.3-1.1-0.3h-3c-0.5,0-0.9,0.1-1.1,0.3c-0.2,0.2-0.3,0.6-0.3,1.1v6.8c-0.5-0.1-1-0.1-1.6-0.2c-0.6,0-1.2-0.1-1.9-0.1   c-2.8,0-4.9,0.7-6.3,2.2C236.4,257.6,235.7,259.6,235.7,262.4L235.7,262.4z M247.6,259.5v10.1v0.1c0,0,0,0-0.1,0.1   c-0.4,0.1-0.8,0.2-1.3,0.2c-0.5,0-1,0.1-1.5,0.1c-1,0-1.9-0.2-2.4-0.7c-0.6-0.5-0.9-1.2-0.9-2.1v-4.8c0-1.1,0.3-1.9,0.9-2.4   c0.6-0.5,1.5-0.8,2.7-0.8c0.5,0,1,0,1.4,0.1C246.8,259.3,247.3,259.4,247.6,259.5L247.6,259.5z M275.6,254.5h-3   c-0.5,0-0.9,0.1-1.1,0.3c-0.2,0.2-0.3,0.6-0.3,1.1v12.5c-0.4,0.1-0.9,0.1-1.4,0.2c-0.5,0-1,0.1-1.5,0.1c-1.1,0-1.9-0.2-2.5-0.7   c-0.6-0.5-0.8-1.2-0.8-2.2v-9.9c0-0.5-0.1-0.9-0.3-1.1c-0.2-0.2-0.6-0.3-1.1-0.3h-3c-0.5,0-0.9,0.1-1.1,0.3   c-0.2,0.2-0.3,0.6-0.3,1.1v10.2c0,1.7,0.3,3.1,0.9,4.3c0.6,1.2,1.5,2.1,2.7,2.7c1.2,0.6,2.8,1,4.7,1c0.7,0,1.4,0,2-0.1   c0.6,0,1.1-0.1,1.7-0.2v1.6c0,1-0.3,1.8-0.8,2.3c-0.5,0.5-1.3,0.8-2.3,0.8c-0.8,0-1.4-0.1-1.9-0.4c-0.5-0.2-0.9-0.6-1.2-1.1   c-0.2-0.3-0.4-0.5-0.6-0.7c-0.2-0.1-0.5-0.2-0.7-0.2c-0.2,0-0.6,0.1-0.9,0.4l-2.2,1.1c-0.5,0.2-0.8,0.6-0.9,1   c-0.1,0.4,0,0.8,0.4,1.3c0.7,1.2,1.7,2,3.1,2.7c1.4,0.6,3.1,0.9,5.2,0.9c1.6,0,2.9-0.2,4-0.6s2-1,2.7-1.8c0.7-0.7,1.2-1.7,1.6-2.7   c0.3-1.1,0.5-2.2,0.5-3.5v-19c0-0.5-0.1-0.9-0.3-1.1C276.5,254.6,276.1,254.5,275.6,254.5L275.6,254.5z" fill="#007B7F"  />
	
	
	
</g></svg>