<svg viewBox="0 0 748.9 283.5" role="img" aria-labelledby="hfea--title" xmlns="http://www.w3.org/2000/svg" xmlns:xlink="http://www.w3.org/1999/xlink"><title id="hfea--title">Human Fertilisation and Embryology Authority</title><path d="M269.4,134.7c0,37.2-15.1,70.9-39.5,95.3s-58.1,39.5-95.2,39.5c-37.2,0-70.9-15.1-95.3-39.5  C15.1,205.6,0,171.9,0,134.7s15.1-70.9,39.5-95.3C63.8,15.1,97.5,0,134.7,0s70.9,15.1,95.2,39.5C254.3,63.8,269.4,97.5,269.4,134.7" fill="#008F91"  /><path d="M192.8,98.7l-8.9-10l-8.9-10c3.7-4,5.2-9.8,3.7-14.6c-1.5-4.8-6-8.6-14.1-8.6c-5.2,0-10,3-12.8,7.7  s-3.6,11.1-0.7,17.8c3.6,8.5,9.4,17.5,14.9,24.6s10.6,12.6,12.7,14.1l-12,8l-12,8c-6-6.7-16-10.3-26.8-10.8s-22.4,2.1-31.5,7.7  c-9.2,5.6-17,13.8-21.1,23.1c-4,9.3-4.3,19.7,1.7,30c5.5,9.4,14.8,13.8,24.8,14.8s20.7-1.4,28.9-5.7c6.1-3.1,12.4-7.5,17.8-14.2  c5.4-6.7,9.8-15.6,12-27.8c0,0,0.1,3.5,1.6,8.3c1.6,4.8,4.6,10.9,10.5,16.1c5.8,5.1,12.9,6.8,18.6,7.2c5.7,0.4,10-0.4,10-0.4  l-0.1,14.5L201,213c-3.1,0.2-6,0.3-9.2,0.3c-3.2-0.1-6.5-0.4-10.3-1.1c-3.6-0.7-6.7-1.2-9.5-2.1c-2.8-0.9-5.5-2.2-8.4-4.4  c-16.1,16.6-37.8,24.7-58.4,24.3c-20.5-0.4-39.8-9.3-50.9-27c-13.9-22.1-12.4-45-2.4-63.8s28.4-33.5,48.2-39.5  c1.4-0.9,6.3-2.2,11.8-3.2c5.6-1,11.9-1.5,16.3-1c-9.6-22.5-5-41.5,6.1-53.3c11.1-11.9,28.6-16.7,44.8-10.9  c10.7,3.8,20.5,12.6,24.3,24.4C207.7,67.7,205.7,82.7,192.8,98.7" fill="#FFFFFF"  /><path d="M340.9,59.5V35.7h-22.3v23.8h-10.9V5.2h10.9v21.4h22.3V5.2h10.8v54.3h-5.4 M374,60.9c-5.3,0-9.5-1.2-12.4-3.7  s-4.4-6.1-4.4-11.1V23.7h10.1v20.5c0,2.7,0.5,4.7,1.6,6c1.1,1.3,2.8,1.9,5.2,1.9c2.2,0,3.9-0.7,5-2c1.1-1.3,1.7-3.3,1.7-5.9V23.7  H391v22.5c0,4.8-1.5,8.5-4.4,11C383.6,59.6,379.4,60.9,374,60.9 M440.7,59.5v-19c0-2.6-0.2-4.9-1-6.5c-0.8-1.7-2.2-2.7-4.7-2.7  c-2.9,0-4.5,1.2-5.4,3.2c-0.9,2-1,4.8-1,8v17h-10.2V40.7c0-2.7-0.2-5.1-1-6.8c-0.8-1.7-2.3-2.7-4.8-2.7c-2.6,0-4.2,1.1-5.1,2.8  c-1,1.8-1.3,4.3-1.3,7.2v18.2h-10.2V23.8h10.2v4.4c1.4-1.9,3-3.2,4.8-4.1c1.8-0.9,3.7-1.2,5.8-1.2c2.5,0,4.7,0.5,6.5,1.6  c1.8,1.1,3.3,2.7,4.3,4.8c1.5-2.2,3.2-3.8,5.1-4.9c1.9-1,4.1-1.5,6.5-1.5c3.4,0,6.3,1.1,8.3,3.4c2,2.2,3.1,5.6,3.1,10.1v23.2  L440.7,59.5L440.7,59.5z M475.1,31.7c-2.6,0-4.9,1.1-6.6,2.9c-1.6,1.8-2.6,4.3-2.6,7.1c0,2.8,1,5.3,2.6,7.1c1.7,1.8,4,2.9,6.6,2.9  c2.6,0,4.9-1.1,6.6-2.9c1.7-1.8,2.6-4.3,2.6-7.1c0-2.8-1-5.3-2.6-7.1C480,32.8,477.7,31.7,475.1,31.7 M483.9,59.5v-4.4  c-1.3,1.8-3,3.2-4.9,4.2c-1.9,0.9-4,1.4-6.4,1.4c-4.9,0-9.2-2.1-12.3-5.5c-3.1-3.4-4.9-8.2-4.9-13.7c0-5.3,1.8-10.1,4.9-13.5  c3-3.4,7.3-5.4,12.1-5.4c2.3,0,4.4,0.4,6.3,1.3s3.6,2.2,5.1,4v-4.2h10v35.8H483.9z M522.9,59.5V40.3c0-2.7-0.3-5-1.2-6.5  c-0.9-1.5-2.5-2.4-5.1-2.4s-4.4,0.9-5.6,2.5c-1.2,1.7-1.7,4.2-1.7,7.6v18h-10.2V23.8h10.2v4.5c1.3-1.8,2.8-3.1,4.7-4  c1.8-0.9,3.9-1.4,6.3-1.4c4.1,0,7.3,1.3,9.5,3.7c2.2,2.4,3.3,5.9,3.3,10.4v22.6L522.9,59.5L522.9,59.5z M318.6,83.1v11.6h16v9.7h-16  v23.3h-10.9V73.4h28.1v9.7h-8.6 M357.1,98c-2.1,0-4,0.7-5.3,1.9c-1.4,1.2-2.3,3.1-2.6,5.3h16.2c-0.3-2.2-1.3-4-2.7-5.3  C361.2,98.8,359.3,98,357.1,98 M348.8,112.7c0.2,2.5,1,4.6,2.4,6.1c1.4,1.5,3.5,2.3,6.1,2.3c2.2,0,3.9-0.7,5-1.5  c1.1-0.8,1.8-1.8,2.1-2.4h9.8c-0.9,3.3-2.7,6.2-5.6,8.4c-2.9,2.1-6.7,3.5-11.6,3.5c-5.6,0-10.3-1.9-13.5-5.2  c-3.3-3.3-5.1-8.1-5.1-13.8c0-5.9,1.8-10.7,5-14c3.2-3.4,7.9-5.3,13.5-5.3c5.8,0,10.2,2,13.3,5.7c3,3.7,4.6,9.2,4.6,16.3  L348.8,112.7L348.8,112.7z M403.9,101.2c-0.6-0.2-1.3-0.3-2.1-0.5c-0.8-0.1-1.8-0.2-3-0.2c-3.3,0-5.5,1.1-6.9,2.9  c-1.4,1.9-1.9,4.6-1.9,8v16.2H380V91.9h10.1v5.8c1.1-2.1,2.6-3.7,4.4-4.8c1.8-1.1,3.9-1.7,6.1-1.7c0.5,0,1.2,0,1.8,0.1  c0.6,0.1,1.2,0.2,1.6,0.3C403.9,91.6,403.9,101.2,403.9,101.2z M423.8,100.8v26.9h-10.1v-26.9h-4.9v-8.9h4.9V80.4h10.1v11.5h7.9v8.9  h-4 M437.2,91.9h10.2v35.8h-10.2V91.9z M442.3,71.5c1.7,0,3.3,0.7,4.4,1.8c1.1,1.1,1.8,2.7,1.8,4.4c0,1.8-0.7,3.3-1.8,4.4  s-2.7,1.8-4.4,1.8c-1.8,0-3.3-0.7-4.4-1.8c-1.1-1.1-1.8-2.7-1.8-4.4c0-1.7,0.7-3.3,1.8-4.4C439,72.2,440.5,71.5,442.3,71.5   M455.2,69.7h10.1v58h-10.1v-29 M472.6,91.9h10.1v35.8h-10.1V91.9z M477.6,71.5c1.7,0,3.3,0.7,4.4,1.8c1.1,1.1,1.8,2.7,1.8,4.4  c0,1.8-0.7,3.3-1.8,4.4c-1.1,1.1-2.7,1.8-4.4,1.8c-1.8,0-3.3-0.7-4.4-1.8c-1.1-1.1-1.8-2.7-1.8-4.4c0-1.7,0.7-3.3,1.8-4.4  S475.9,71.5,477.6,71.5 M501.3,129c-2.5,0-4.9-0.4-7.1-1.3c-2.2-0.9-4.2-2.2-6.1-4l2.3-3.5l2.3-3.5c1.4,1.3,2.9,2.3,4.4,3  c1.5,0.7,3.1,1.1,4.6,1.1c1.3,0,2.4-0.4,3.2-1c0.8-0.7,1.3-1.6,1.3-2.7c0-2.6-3.9-3.5-7.8-5.1s-7.8-3.9-7.8-9.3  c0-3.6,1.4-6.6,3.8-8.6c2.4-2.1,5.8-3.3,9.9-3.3c2,0,3.8,0.3,5.5,0.9s3.4,1.5,4.9,2.6l-2.1,3.2l-2.1,3.2c-1-0.8-2-1.3-3-1.7  s-2.1-0.6-3.1-0.6c-1.1,0-2.1,0.3-2.8,0.9c-0.7,0.6-1.1,1.3-1.1,2.2c0,2.6,4,3.2,7.9,4.7c4,1.5,7.9,3.8,7.9,9.9  c0,3.9-1.5,7.1-4.1,9.4C509.5,127.7,505.8,129,501.3,129 M539.4,99.9c-2.6,0-4.9,1.1-6.6,2.9c-1.7,1.8-2.7,4.3-2.7,7.1  c0,2.8,1,5.3,2.7,7.1c1.6,1.8,4,2.9,6.6,2.9c2.6,0,4.9-1.1,6.6-2.9c1.6-1.8,2.6-4.3,2.6-7.1c0-2.8-1-5.3-2.6-7.1  C544.3,101,542,99.9,539.4,99.9 M548.2,127.7v-4.4c-1.3,1.8-3,3.2-4.9,4.2c-1.9,0.9-4,1.4-6.4,1.4c-4.9,0-9.2-2.1-12.3-5.5  c-3.1-3.4-4.9-8.2-4.9-13.7c0-5.3,1.8-10.1,4.9-13.5c3.1-3.4,7.3-5.4,12.2-5.4c2.3,0,4.4,0.4,6.3,1.3c1.9,0.9,3.6,2.2,5.2,4v-4.2h10  v35.8H548.2z M578.1,100.8v26.9H568v-26.9h-4.8v-8.9h4.8V80.4h10.1v11.5h8v8.9h-4 M591,91.9h10.2v35.8H591V91.9z M596.1,71.5  c1.7,0,3.3,0.7,4.4,1.8c1.1,1.1,1.8,2.7,1.8,4.4c0,1.8-0.7,3.3-1.8,4.4s-2.7,1.8-4.4,1.8c-1.7,0-3.3-0.7-4.4-1.8  c-1.1-1.1-1.8-2.7-1.8-4.4c0-1.7,0.7-3.3,1.8-4.4S594.3,71.5,596.1,71.5 M625.9,100c-2.6,0-5,1.1-6.6,2.9c-1.7,1.8-2.7,4.2-2.7,7  c0,2.8,1,5.2,2.7,7c1.7,1.7,4,2.8,6.6,2.8s5-1.1,6.7-2.9c1.7-1.8,2.7-4.3,2.7-7.1c0-2.7-1-5.2-2.7-6.9  C630.9,101.1,628.6,100,625.9,100 M625.9,129c-5.8,0-10.8-2-14.4-5.4s-5.7-8.2-5.7-13.7s2.1-10.3,5.7-13.7c3.6-3.4,8.6-5.4,14.4-5.4  c5.8,0,10.8,2,14.4,5.4c3.6,3.4,5.7,8.2,5.7,13.7s-2.1,10.3-5.7,13.7C636.7,127,631.7,129,625.9,129 M674.7,127.7v-19.2  c0-2.7-0.3-5-1.2-6.5c-0.9-1.5-2.5-2.4-5.1-2.4s-4.4,0.9-5.6,2.6c-1.2,1.7-1.7,4.2-1.7,7.6v18h-10.2V91.9H661v4.6  c1.3-1.8,2.9-3.1,4.7-4c1.8-0.9,3.9-1.4,6.3-1.4c4.1,0,7.3,1.3,9.5,3.7c2.2,2.4,3.3,5.9,3.3,10.4v22.6L674.7,127.7L674.7,127.7z   M741.5,111.9c-0.2,5.1-2.2,9.4-5.6,12.4c-3.4,3-8.4,4.7-14.6,4.7c-5.7,0-10.6-1.8-14-4.8c-3.4-3-5.3-7.3-5.3-12.4  c0-3.3,0.9-6.5,2.6-9.1c1.7-2.6,4.2-4.5,7.3-5.5c-1.8-1.1-3.2-2.5-4.2-4.3c-1-1.8-1.5-3.8-1.5-6.2c0-4.4,1.7-8.1,4.6-10.7  c3-2.6,7.2-4.1,12.2-4.1c5.3,0,9.4,1.9,12.1,4.9c2.8,3,4.2,7.1,4.3,11.7h-9.1c-0.1-1.9-0.7-3.8-1.8-5.2c-1.1-1.4-2.8-2.4-5-2.4  c-2,0-3.8,0.7-5,1.9c-1.2,1.2-1.9,2.9-1.9,4.9c0,2.2,0.8,3.9,2,5c1.2,1.1,2.9,1.7,4.6,1.7v7.2c-2.7,0-5.4,0.6-7.3,2.1  c-1.9,1.5-3.2,3.8-3.2,7.3c0,2.7,1,5,2.7,6.6c1.7,1.6,4.2,2.5,7,2.5c2.7,0,5.1-0.8,6.7-2.2c1.7-1.4,2.7-3.5,2.8-6.1h-7.6v-7.7h24.6  v7.8H741.5z M307.7,195.9v-54.4h29v9.8h-18.1v11.6h17.3v9.7h-17.3v13.6h18.1v9.7h-14.5 M386.9,195.9v-19c0-2.6-0.2-4.9-1-6.5  c-0.8-1.7-2.2-2.7-4.7-2.7c-2.9,0-4.5,1.2-5.4,3.2c-0.9,2-1,4.8-1,8v17h-10.2v-18.8c0-2.7-0.2-5.1-1-6.8s-2.3-2.7-4.8-2.7  c-2.6,0-4.2,1.1-5.1,2.8c-1,1.8-1.3,4.3-1.3,7.3v18.2h-10.2v-35.8h10.2v4.4c1.4-1.9,3-3.2,4.8-4.1c1.8-0.9,3.7-1.2,5.9-1.2  c2.5,0,4.7,0.5,6.5,1.6c1.8,1.1,3.3,2.7,4.3,4.8c1.5-2.2,3.2-3.8,5.1-4.9c1.9-1,4.1-1.5,6.5-1.5c3.4,0,6.3,1.1,8.3,3.4  c2,2.2,3.1,5.6,3.1,10.1v23.2H386.9L386.9,195.9z M421.7,168.1c-2.6,0-4.9,1.1-6.6,2.9c-1.6,1.8-2.6,4.3-2.6,7.1s1,5.3,2.6,7.1  c1.7,1.8,4,2.9,6.6,2.9c2.6,0,4.9-1.1,6.6-2.9c1.6-1.8,2.6-4.3,2.6-7.1s-1-5.3-2.6-7.1C426.6,169.2,424.3,168.1,421.7,168.1   M424.1,197.1c-2.3,0-4.5-0.5-6.4-1.4s-3.6-2.3-4.9-4v4.2h-10.2v-57h10.2v25.3c1.5-1.7,3.2-3,5.2-3.9c1.9-0.8,4-1.3,6.3-1.3  c4.8,0,9.1,2.1,12.1,5.4c3,3.4,4.9,8.1,4.9,13.5c0,5.5-1.8,10.3-4.9,13.7C433.3,195.1,429,197.1,424.1,197.1 M470.1,169.4  c-0.6-0.2-1.3-0.3-2.1-0.5c-0.8-0.1-1.8-0.2-3-0.2c-3.3,0-5.5,1.1-6.9,3c-1.4,1.9-1.9,4.6-1.9,8v16.2H446v-35.8h10.2v5.8  c1.1-2.1,2.6-3.7,4.4-4.8c1.8-1.1,3.9-1.7,6.1-1.7c0.5,0,1.2,0,1.8,0.1c0.6,0.1,1.2,0.2,1.6,0.3V169.4L470.1,169.4z M535.6,168.2  c-2.6,0-5,1.1-6.6,2.9c-1.7,1.8-2.7,4.2-2.7,7s1,5.2,2.7,7c1.7,1.7,4,2.8,6.6,2.8s5-1.1,6.7-2.9c1.7-1.8,2.7-4.3,2.7-7.1  c0-2.7-1-5.2-2.7-6.9C540.6,169.3,538.2,168.2,535.6,168.2 M535.6,197.2c-5.8,0-10.8-2-14.4-5.4s-5.7-8.2-5.7-13.7  s2.1-10.3,5.7-13.7c3.6-3.4,8.6-5.4,14.4-5.4c5.8,0,10.8,2,14.4,5.4c3.6,3.4,5.7,8.2,5.7,13.7s-2.1,10.3-5.7,13.7  S541.4,197.2,535.6,197.2 M560.2,138.8h10.1v57.1h-10.1v-28.5 M594.8,168.2c-2.6,0-5,1.1-6.6,2.9c-1.7,1.8-2.7,4.2-2.7,7  s1,5.2,2.7,7c1.7,1.7,4,2.8,6.6,2.8c2.6,0,5-1.1,6.7-2.9c1.7-1.8,2.7-4.3,2.7-7.1c0-2.7-1-5.2-2.7-6.9  C599.8,169.3,597.4,168.2,594.8,168.2 M594.8,197.2c-5.8,0-10.8-2-14.4-5.4c-3.6-3.4-5.7-8.2-5.7-13.7s2.1-10.3,5.7-13.7  c3.6-3.4,8.6-5.4,14.4-5.4c5.8,0,10.8,2,14.4,5.4c3.6,3.4,5.7,8.2,5.7,13.7s-2.1,10.3-5.7,13.7C605.6,195.2,600.6,197.2,594.8,197.2   M638,168.1c-2.6,0-4.9,1.1-6.5,2.8c-1.6,1.8-2.6,4.3-2.6,7.1s1,5.3,2.6,7c1.7,1.8,4,2.8,6.6,2.8s4.9-1.1,6.5-2.9s2.6-4.3,2.6-7.1  s-1-5.3-2.6-7C642.9,169.2,640.6,168.1,638,168.1 M637.7,215.6c-5.1,0-9.6-1.5-12.9-4c-3.3-2.5-5.4-6.1-5.8-10.4h11  c0.4,1.9,1.3,3.4,2.5,4.4c1.3,1,3,1.5,5,1.5c2.9,0,5.1-1,6.7-2.7c1.5-1.8,2.4-4.4,2.4-7.6v-5.2c-1.7,1.9-3.4,3.2-5.3,4.1  c-1.9,0.9-3.9,1.2-6.2,1.2c-4.9,0-9.1-1.9-12.1-5.1c-3-3.2-4.7-7.8-4.7-13.2c0-5.5,1.8-10.4,4.9-13.8c3.1-3.4,7.4-5.5,12.4-5.5  c2.2,0,4.2,0.4,6,1.2c1.8,0.8,3.4,2.1,5,4v-4.2h10v36.2c0,6-1.7,10.8-4.9,14.1C648.7,213.8,643.9,215.6,637.7,215.6 M675.8,215.3  h-11.3l6.1-12l6-12l-8.2-15.6l-8.2-15.6h11.9l5.1,10.2l5.1,10.3l4.8-10.3l4.9-10.2h11.5l-13.8,27.6 M488.8,215.3h-11.3l6.1-12l6-12  l-8.2-15.6l-8.2-15.6h11.9l5.1,10.2l5,10.3l4.9-10.3l4.9-10.2h11.5l-13.8,27.6 M329.3,224.8l-3.6,9.5l-3.6,9.5h14.2l-3.5-9.5  L329.3,224.8z M343.8,264.1l-2.1-5.6l-2.1-5.6h-21l-2.2,5.6l-2.2,5.6h-11.6l11-27.2l11-27.2h9l10.9,27.2l10.9,27.2H343.8  L343.8,264.1z M374.5,265.5c-5.3,0-9.5-1.2-12.4-3.7s-4.4-6.1-4.4-11.1v-22.4h10.2v20.4c0,2.7,0.5,4.7,1.6,6  c1.1,1.3,2.8,1.9,5.2,1.9c2.2,0,3.9-0.7,5-2c1.1-1.3,1.7-3.3,1.7-5.9v-20.4h10.1v22.4c0,4.8-1.5,8.5-4.4,11  C384.1,264.2,379.9,265.5,374.5,265.5 M411,237.2v26.9h-10.1v-26.9h-4.8v-8.9h4.8v-11.6H411v11.6h8v8.9h-4 M448.1,264.1v-19.2  c0-2.7-0.3-5-1.2-6.5c-0.9-1.5-2.5-2.4-5.1-2.4c-2.6,0-4.4,0.9-5.6,2.6c-1.2,1.7-1.7,4.2-1.7,7.6v18h-10.2v-58h10.2V233  c1.3-1.7,2.9-3.1,4.7-4c1.8-0.9,3.9-1.4,6.3-1.4c4.1,0,7.3,1.3,9.5,3.7c2.2,2.4,3.3,5.9,3.3,10.4v22.6h-10.2L448.1,264.1z   M483.3,236.4c-2.6,0-5,1.1-6.6,2.9c-1.7,1.8-2.7,4.2-2.7,7c0,2.8,1,5.2,2.7,7s4,2.8,6.6,2.8c2.7,0,5-1.1,6.7-2.9  c1.7-1.8,2.7-4.3,2.7-7.1c0-2.7-1-5.2-2.7-6.9C488.3,237.4,485.9,236.4,483.3,236.4 M483.3,265.4c-5.8,0-10.8-2-14.4-5.4  s-5.7-8.2-5.7-13.7s2.1-10.3,5.7-13.7s8.6-5.4,14.4-5.4s10.8,2,14.4,5.4c3.6,3.4,5.7,8.2,5.7,13.7s-2.1,10.3-5.7,13.7  C494.1,263.4,489.1,265.4,483.3,265.4 M532,237.6c-0.6-0.2-1.3-0.3-2.1-0.5c-0.8-0.1-1.8-0.2-2.9-0.2c-3.3,0-5.5,1.1-6.9,3  s-1.9,4.6-1.9,8v16.2H508v-35.8h10.2v5.8c1.1-2.1,2.6-3.7,4.4-4.8c1.8-1.1,3.9-1.7,6.1-1.7c0.5,0,1.2,0,1.8,0.1  c0.6,0.1,1.2,0.2,1.6,0.3L532,237.6L532,237.6z M536.7,228.3h10.2v35.8h-10.2V228.3z M541.7,207.9c1.7,0,3.3,0.7,4.4,1.8  c1.1,1.1,1.8,2.7,1.8,4.4c0,1.8-0.7,3.3-1.8,4.4c-1.1,1.1-2.7,1.8-4.4,1.8c-1.8,0-3.3-0.7-4.4-1.8s-1.8-2.7-1.8-4.4  c0-1.8,0.7-3.3,1.8-4.4C538.4,208.6,540,207.9,541.7,207.9 M566.8,237.2v26.9h-10.1v-26.9h-4.8v-8.9h4.8v-11.6h10.1v11.6h8v8.9h-4   M593.5,283.5h-11.3l6.1-12l6-12l-8.2-15.6l-8.2-15.6h11.9l5.1,10.2l5.1,10.3l4.8-10.3l4.9-10.2h11.5l-13.8,27.6" /></svg>