<svg version="1.1" id="Layer_1" xmlns="http://www.w3.org/2000/svg" x="0" y="0" width="921.3" height="283.5" viewBox="0 0 921.3 283.5" xml:space="preserve"><style>.st0{fill:#22284b}.st1{fill:#fff}</style><path class="st0" d="M0 0h921.2v283.5H0z"/><path class="st1" d="M375.3 176.8c0 26.3-20.3 45.3-45.6 45.3-25.8 0-45.6-19.3-45.6-44.4 0-26.3 20.3-45.4 45.6-45.4 25.9 0 45.6 19.4 45.6 44.5zm-14.4.4c0-23.9-11.6-40.6-31.1-40.6-21.2 0-31.1 20-31.1 40.6 0 23.9 11.6 40.5 31.1 40.5 21.2.1 31.1-19.9 31.1-40.5zM653.8 176.8c0 26.3-20.3 45.3-45.6 45.3-25.8 0-45.6-19.3-45.6-44.4 0-26.3 20.3-45.4 45.6-45.4 25.8 0 45.6 19.4 45.6 44.5zm-14.5.4c0-23.9-11.6-40.6-31.1-40.6-21.2 0-31.1 20-31.1 40.6 0 23.9 11.6 40.5 31.1 40.5 21.2.1 31.1-19.9 31.1-40.5zM689 177.7h10.9c16.4 0 20-10.4 20-20.3 0-7.5-3.4-14.5-11.1-17.9-4.1-1.7-8-1.7-13.3-1.7H689v39.9zm20 14c-5.1-7.2-7-9.9-13.3-9.9h-6.8v29.4c0 2.4 1 3.6 3.6 4.1l9.9 2.2v3.2h-38.9v-3.2l8.9-2.2c2.6-.7 3.6-1.7 3.6-4.1v-68.1c0-2.4-1-3.4-3.6-4.1l-8.9-2.2v-3.1h37.9c8 0 13.5.7 18.1 2.4 9.4 3.6 14.7 12.6 14.7 21 0 10.6-8 19.6-21.2 22.7v.5c2.7 1.2 4.1 2.9 13.5 15.2l11.8 15.7c1.7 2.4 3.9 3.8 6.5 4.3l8.7 1.9v3.2h-20.6c-2.4 0-3.6-.7-5.8-3.6L709 191.7zM538.9 163.5h3.6v29h-3.6l-2.2-8.7c-.7-3.2-2.7-4.3-5.5-4.3h-21v31.9c0 2.4 1 3.6 3.6 4.1l9.9 2.2v3.2h-38.9v-3.2l8.9-2.2c2.7-.7 3.6-1.7 3.6-4.1v-68.1c0-2.4-1-3.4-3.6-4.1l-8.9-2.2v-3.1h65.6v21.7h-3.6l-4.1-13.1c-1-3.4-2.4-4.6-5.3-4.6h-27.3v37.4h21c2.9 0 4.6-1.2 5.5-4.3l2.3-7.5zM760.7 220.7v-3.2l8.9-2.2c2.7-.7 3.6-1.7 3.6-4.1v-68.1c0-2.4-1-3.4-3.6-4.1l-8.9-2.2v-3.1h40.8c11.1 0 19.1 1.5 25.6 4.3 16.4 7.5 23.9 23.7 23.9 39.6 0 15.5-5.8 29.9-20.5 37.6-6.8 3.6-16.2 5.3-28.5 5.3h-41.3v.2zm25.3-82.8v74.8c0 3.2.7 3.9 3.9 3.9h10.6c10.1 0 17.6-1.5 22.9-5.3 8.9-6.5 13-18.3 13-33.3 0-14.7-4.1-29.2-16.2-36.2-5.1-2.9-11.6-3.9-21.7-3.9H786zM409.3 217.5v3.2h-30.7v-3.2l7.7-1.9c2.9-.7 4.8-1.7 6.8-3.9l26.6-33.3-26.6-35.2c-1.7-2.4-3.8-3.6-6.5-4.3l-7.2-1.9v-3.1h38.1v3.1l-8.2 1.7c-2.9.5-2.2 1.7-.7 3.6l19.6 28h.5l20-28c1.4-1.9 1.9-2.7-.7-3.4l-7.7-1.9v-3.1H471v3.1l-7.7 1.9c-2.9.7-4.8 1.7-6.8 3.9l-25.1 31.6 28 36.9c1.7 2.4 3.9 3.6 6.5 4.3l7.2 1.9v3.2h-38.2v-3.2l8.2-1.7c2.9-.5 2.4-1.4 1-3.4l-21.2-29.9h-.5l-21.5 29.7c-1.5 1.9-1.9 2.6.7 3.4l7.7 1.9zM318 92.9c-2.4 2.4-6 4-11 4-4.4 0-8.4-1.4-11.2-4.1-3.8-3.7-3.6-8.5-3.6-13.6V55h4.9v26c0 3.3-.1 6.5 2.4 9 1.8 1.8 4.5 2.7 7.6 2.7 3 0 5.5-1 7-2.6 2.8-2.8 2.6-5.9 2.6-13.3V55h4.9v20.5c0 7.7.3 13.4-3.6 17.4zM361.7 96.1l-19.8-33.7.1 33.7h-4.5V55h5.1l19.9 33.9-.2-33.9h4.5v41.2l-5.1-.1zM384 96.1V55h5v41.2l-5-.1zM419.6 96.1h-5.7L399.8 55h5.2l12 36.3L429.3 55h4.8l-14.5 41.1zM445.3 96.1V55h22.4v4.1h-17.5v13.6h16.5v4h-16.5v15.2h18v4.2h-22.9zM499.4 61.2c-2.4-2.4-5.4-2.3-8.8-2.3H486v15.4h1.6c4.2 0 8.6.2 11.5-2.6 1.4-1.4 2.1-3.3 2.1-5.4.1-2.3-.8-4.2-1.8-5.1zm4.5 34.9l-4.7-10.7c-2.9-6.6-4.3-7.2-10.2-7.2h-2.9v17.9h-4.9V55h8.9c5.5 0 9.6 0 12.9 3.2 2.1 2.1 3.2 4.8 3.2 8.2 0 2.9-.8 5.2-2.6 7.1-1.5 1.6-3.9 3-6.6 3.2 1.5.1 2.6.9 3.4 1.6 1.1 1.1 1.9 2.8 3.1 5.5l5.5 12.3h-5.1zM557.2 96.1V55h5v41.2l-5-.1zM590.4 59.1v37.1h-4.9V59.1h-12.2V55h29.4v4.1h-12.3zM626.3 79.8v16.3h-4.9V79.8L608.3 55h5.7l10.1 19.3L634 55h5.4l-13.1 24.8zM685.5 58.4c-8.1 0-13.3 6.8-13.3 17.1 0 10.2 5.8 17.2 13.6 17.2 8.6 0 13.4-7.3 13.4-17.5 0-10.1-5.7-16.8-13.7-16.8zm0 38.5c-10.6 0-18.4-8.8-18.4-21.2 0-12.7 7.7-21.5 18.8-21.5 10.8 0 18.4 8.7 18.4 21.2 0 12.7-7.6 21.5-18.8 21.5zM722.7 59.1v13.6h15.9v4h-15.9v19.5h-4.9V55h21.9v4.1h-17zM519.1 65c0-6.3 5.1-10.8 12.5-10.8 7.5 0 11.1 3.9 11.5 4.3l-2.4 2.9c-.9-.7-4.2-3.1-8.8-3.1-5.3 0-8.2 2.7-8.2 6.5 0 1.8.7 3.1 1.9 4.2 1.4 1.3 3.5 2.2 5.7 3.2 2.8 1.3 6.5 2.7 9.1 5.3 1.8 1.8 3.1 4.2 3.1 7.4 0 6.8-4.8 12.1-13.3 12.1-7.3 0-11.9-4-12.3-4.4l2.3-3.3c1.2.9 5.7 3.6 9.9 3.6 6.2 0 8.5-3.4 8.5-7.5 0-1.9-.9-3.4-2.1-4.7-1.9-1.8-4.8-3.1-7.6-4.4s-5.4-2.6-7.3-4.6c-1.3-1.3-2.5-3.5-2.5-6.7zM140.9 110.8c0-3.6-1.2-6.6-3.9-8.1-1.7-1-3.9-1.3-6.7-1.3H110v41h22.1c5.1 0 8.1 1.1 8.3 5.7h.5v-37.3zM143.7 110.8c0-3.6 1.2-6.6 3.9-8.1 1.7-1 3.9-1.3 6.7-1.3h20.4v41h-22.2c-5.1 0-8.1 1.1-8.3 5.7h-.5v-37.3z"/><path class="st1" d="M179.1 104.3v43.3h-31.4l-.4.9c-.5 1.4-1.5 2.6-4.9 2.6s-4.4-1.3-4.9-2.6l-.4-.9h-31.3v-43.3H103v1.3l-2.7-.8c-.3-1.1-1.3-1.9-2.5-1.9-1.4 0-2.6 1.2-2.6 2.6 0 1.4 1.2 2.6 2.6 2.6.6 0 1.2-.2 1.6-.6l3.5 1.1v3.5l-2.7-.5c-.4-.9-1.3-1.6-2.4-1.6-1.4 0-2.6 1.2-2.6 2.6 0 1.4 1.2 2.6 2.6 2.6.7 0 1.4-.3 1.9-.8l3.2.6v3.5l-2.8-.1c-.4-.8-1.3-1.3-2.2-1.3-1.4 0-2.6 1.2-2.6 2.6 0 1.4 1.2 2.6 2.6 2.6.9 0 1.6-.4 2.1-1.1l2.9.1v3.9l-2.8.1c-.5-.7-1.2-1.1-2.1-1.1-1.4 0-2.6 1.2-2.6 2.6 0 1.4 1.2 2.6 2.6 2.6.9 0 1.7-.5 2.2-1.2l2.7-.1v3.6l-3.1.5c-.5-.5-1.1-.8-1.9-.8-1.4 0-2.6 1.2-2.6 2.6s1.2 2.6 2.6 2.6c1.1 0 2-.6 2.4-1.5l2.6-.5v3.5l-3.4 1c-.4-.4-1-.6-1.6-.6-1.4 0-2.6 1.2-2.6 2.6 0 1.4 1.2 2.6 2.6 2.6 1.2 0 2.1-.8 2.5-1.9l2.6-.8v3.4l-3.8 1.6c-.4-.3-.9-.4-1.4-.4-1.4 0-2.6 1.2-2.6 2.6s1.2 2.6 2.6 2.6c1.3 0 2.3-.9 2.5-2.1l2.6-1.1v3.1h32.4c1.3 2.3 3.6 3.5 7.1 3.5s5.7-1.2 7.1-3.5H182v-46.1h-2.9v-.3z"/><ellipse class="st1" cx="121" cy="92.2" rx="11.9" ry="2.3"/><path class="st1" d="M137.4 75.7l-6.8 4.8-.1.5 1.6.7c.3.2.3.4.2.6l-4.3 3.6h-.4l-3-4.5c-.2-.3-.1-.6.2-.6l2-.3V80l-5.3-7.5h-.9l-5.3 7.5v.5l2 .3c.4.1.4.4.2.6l-3 4.5h-.4l-4-3.6c-.2-.2-.2-.4.2-.6l1.6-.7-.1-.5-7.1-4.8-.6.2 4.2 12.8c2.1-1 7-1.6 12.7-1.7 5.7 0 10.6.7 12.7 1.7l4.2-12.8-.5-.2z"/><ellipse class="st1" cx="142.3" cy="178" rx="11.9" ry="2.3"/><path class="st1" d="M158.6 161.5l-6.8 4.8-.1.5 1.6.7c.3.2.3.4.2.6l-4.3 3.6h-.4l-3-4.5c-.2-.3-.1-.6.2-.6l2-.3v-.5l-5.3-7.5h-.9l-5.3 7.5v.5l2 .3c.4.1.4.4.2.6l-3 4.5h-.4l-4-3.6c-.2-.2-.2-.4.2-.6l1.6-.7-.1-.5-7.1-4.8-.6.2 4.2 12.8c2.1-1 7-1.6 12.7-1.7 5.7 0 10.6.7 12.7 1.7l4.2-12.8-.5-.2zM163.5 89.9c-6.6 0-11.9 1-11.9 2.3s5.3 2.3 11.9 2.3c6.5 0 11.9-1 11.9-2.3s-5.3-2.3-11.9-2.3zM179.8 75.7l-6.8 4.8-.1.5 1.6.7c.3.2.3.4.2.6l-4.3 3.6h-.4l-3-4.5c-.2-.3-.1-.6.2-.6l2-.3V80l-5.3-7.5h-.9l-5.3 7.5v.5l2 .3c.4.1.4.4.2.6l-3 4.5h-.4l-4-3.7c-.2-.2-.2-.4.2-.6l1.6-.7-.1-.5-7.1-4.8-.6.2 4.2 12.8c2.1-1 7-1.6 12.7-1.7 5.7 0 10.6.7 12.7 1.7l4.2-12.8-.5-.1z"/><path class="st0" d="M115.2 107.8c1.1 0 2 .2 2.6.8.4.4.8 1.1.8 1.9 0 2.2-1.7 3.2-3.8 3.2h-2.3v-.4c.7-.1.7-.1.7-1.1v-3c0-1-.1-1-.7-1.1v-.4l2.7.1zm-.4 4.4c0 .8.2 1 .6 1 .8 0 1.6-.9 1.6-2.5 0-1.9-1-2.5-1.8-2.5-.2 0-.3 0-.4.1 0 0-.1.2-.1.4.1.1.1 3.5.1 3.5zM125.5 110.7c0 1.9-1.3 3.1-3.1 3.1s-3-1.3-3-3c0-1.5 1-3.2 3.1-3.2 1.7.1 3 1.3 3 3.1zm-4.4-.2c0 1.6.6 2.8 1.5 2.8.8 0 1.2-.7 1.2-2.4 0-1.8-.6-2.8-1.4-2.8-.7 0-1.3.8-1.3 2.4zM133.5 107.8v.4c-.7.1-.7.1-.7 1l.1 3c0 1 0 1 .7 1.1v.4h-2.8v-.4c.7-.1.7-.1.7-1.1V109l-1.7 4.5h-.5l-1.7-4.2-.1 2v1.5c0 .3.2.4.8.5v.4H126v-.4c.4 0 .6-.1.7-.5 0-.3.1-.8.1-1.6l.1-1.8c.1-1.1 0-1.2-.7-1.3v-.4h2.1l1.6 3.6 1.4-3.6c0 .1 2.2.1 2.2.1zM136.4 112.2c0 1 .1 1 .7 1.1v.4h-2.9v-.4c.6-.1.7-.1.7-1.1v-3c0-1-.1-1-.7-1.1v-.4h2.9v.4c-.6.1-.7.1-.7 1.1v3zM121.9 124.6h-.8l-3.3-4.3v1.7c0 .9 0 1.4.1 1.7 0 .3.3.4.9.5v.4h-2.2v-.4c.4 0 .6-.1.7-.5 0-.3.1-.8.1-1.7v-1.7c0-.7 0-.8-.2-1-.1-.2-.4-.3-.7-.3v-.4h2l3 3.7v-1.2c0-.9 0-1.4-.1-1.7 0-.3-.3-.4-.9-.5v-.4h2.3v.4c-.4 0-.7.1-.7.5 0 .3-.1.8-.1 1.7l-.1 3.5zM125.5 124.6c-.6-1.6-1.5-3.9-1.8-4.7-.3-.8-.5-.8-.9-.9v-.4h2.9v.4h-.3c-.3 0-.3.1-.2.4.2.5.9 2.3 1.2 3.2.3-.8.9-2.5 1-2.9.2-.6.1-.7-.3-.7h-.3v-.4h2.2v.4c-.5.1-.6.1-1 .9-.1.1-1.2 2.8-1.8 4.7h-.7zM129.6 122.7c.2.5.7 1.5 1.6 1.5.5 0 .8-.3.8-.9 0-.5-.4-.8-.9-1.1l-.1-.1c-.7-.3-1.6-.8-1.6-1.8s.7-1.9 2.2-1.9c.3 0 .6 0 .8.1s.4.1.5.1c0 .4.1.8.2 1.4l-.4.1c-.2-.6-.5-1.2-1.2-1.2-.5 0-.8.4-.8.8 0 .5.4.7.9 1l.2.1c.8.4 1.5.8 1.5 1.9 0 1.1-.9 1.9-2.3 1.9-.4 0-.7-.1-1-.2-.3-.1-.5-.2-.6-.2-.1-.4-.2-.9-.3-1.5h.5zM117.8 133.9c0 1 .1 1 .7 1.1v.4h-2.9v-.4c.6-.1.7-.1.7-1.1v-3c0-1-.1-1-.7-1.1v-.4h2.9v.4c-.6.1-.7.1-.7 1.1v3zM121.4 134c0 .5 0 .7.2.8.1.1.4.1.6.1.3 0 .7 0 .9-.3.1-.2.3-.4.4-.9l.4.1c-.1.3-.2 1.3-.3 1.6h-4.5v-.4c.7-.1.8-.1.8-1.1v-3c0-1-.1-1-.7-1.1v-.4h2.9v.4c-.7.1-.7.1-.7 1.1v3.1zM126.4 134c0 .5 0 .7.2.8.1.1.4.1.6.1.3 0 .7 0 .9-.3.1-.2.3-.4.4-.9l.4.1c-.1.3-.2 1.3-.3 1.6h-4.5v-.4c.7-.1.8-.1.8-1.1v-3c0-1-.1-1-.7-1.1v-.4h2.9v.4c-.7.1-.7.1-.7 1.1v3.1zM130.8 135.4c-.6-1.6-1.5-3.9-1.8-4.7-.3-.8-.5-.8-.9-.9v-.4h2.9v.4h-.3c-.3 0-.3.1-.2.4.2.5.9 2.3 1.2 3.2.3-.8.9-2.5 1-2.9.2-.6.1-.7-.3-.7h-.3v-.4h2.2v.4c-.5.1-.6.1-1 .9-.1.1-1.2 2.8-1.8 4.6l-.7.1zM155 107.8v.4c-.7.1-.7.1-.7 1l.1 3c0 1 0 1 .7 1.1v.4h-2.8v-.4c.7-.1.7-.1.7-1.1V109l-1.7 4.5h-.5l-1.7-4.2-.1 2v1.5c0 .3.2.4.8.5v.4h-2.2v-.4c.4 0 .6-.1.7-.5 0-.3.1-.8.1-1.6l.1-1.8c.1-1.1 0-1.2-.7-1.3v-.4h2.1l1.6 3.6 1.4-3.6c-.1.1 2.1.1 2.1.1zM157.9 112.2c0 1 .1 1 .7 1.1v.4h-2.9v-.4c.6-.1.7-.1.7-1.1v-3c0-1-.1-1-.7-1.1v-.4h2.9v.4c-.6.1-.7.1-.7 1.1v3zM164.7 113.7h-.8l-3.3-4.3v1.7c0 .9 0 1.4.1 1.7 0 .3.3.4.9.5v.4h-2.3v-.4c.4 0 .6-.1.7-.5 0-.3.1-.8.1-1.7v-1.7c0-.7 0-.8-.2-1-.1-.2-.4-.3-.7-.3v-.4h2l3 3.7v-1.2c0-.9 0-1.4-.1-1.7 0-.3-.3-.4-.9-.5v-.4h2.3v.4c-.5 0-.7.1-.7.5 0 .3-.1.8-.1 1.7v3.5zM168.4 113.3h.3c.3 0 .4-.1.2-.5l-.3-.9h-1.5l-.3.9c-.1.4-.1.5.3.5h.3v.4h-2.1v-.4c.5-.1.6-.1.9-.9l1.8-4.7.6-.1.6 1.7c.4 1.1.8 2.1 1.1 3.1.3.8.5.8.9.9v.4h-2.8v-.4zm-1.1-1.9h1.2l-.6-1.7-.6 1.7z"/><g><path class="st0" d="M154.9 123.1c0 1 .1 1 .8 1.1v.4h-3.2v-.4c.7-.1.8-.1.8-1.1v-4h-.2c-.6 0-.8.1-1 .3-.1.1-.2.4-.3.9h-.4c0-.8.1-1.4.1-1.8h.3c.1.2.2.2.5.2h3.6c.2 0 .3-.1.4-.2h.3c0 .4.1 1.1.1 1.8h-.4c-.1-.5-.2-.8-.4-.9-.2-.2-.5-.2-.9-.2h-.2l.1 3.9zM159.7 123.1c0 1 .1 1 .7 1.1v.4h-2.9v-.4c.6-.1.7-.1.7-1.1v-3c0-1-.1-1-.7-1.1v-.4h2.9v.4c-.6.1-.7.1-.7 1.1v3zM167.2 121.5c0 1.9-1.3 3.1-3.1 3.1s-3-1.3-3-3c0-1.5 1-3.2 3.1-3.2 1.7.1 3 1.3 3 3.1zm-4.4-.1c0 1.6.6 2.8 1.5 2.8.8 0 1.2-.8 1.2-2.4 0-1.8-.6-2.8-1.4-2.8-.7 0-1.3.8-1.3 2.4z"/></g><g><path class="st0" d="M157.6 129.5v.4c-.7.1-.7.1-.7 1l.1 3c0 1 0 1 .7 1.1v.4h-2.8v-.4c.7-.1.7-.1.7-1.1v-3.2l-1.7 4.5h-.5l-1.7-4.2-.1 2v1.5c0 .3.2.4.8.5v.4h-2.2v-.4c.4 0 .6-.1.7-.5 0-.3.1-.8.1-1.6l.1-1.8c.1-1.1 0-1.2-.7-1.3v-.4h2.1l1.6 3.6 1.4-3.6 2.1.1zM159 130.9c0-1-.1-1-.7-1.1v-.4h4.3c0 .2.1.8.1 1.5h-.4c-.1-.4-.2-.7-.3-.8-.1-.2-.4-.2-.9-.2h-.2c-.3 0-.4 0-.4.3v1.7h.4c.8 0 .8-.1.9-.7h.4v2.1h-.4c-.1-.8-.1-.8-.9-.8h-.4v1.5c0 .5 0 .7.2.8.1.1.4.1.6.1.4 0 .8-.1 1-.3.2-.2.3-.5.4-.9l.4.1c0 .4-.2 1.4-.3 1.6h-4.6v-.4c.7-.1.8-.1.8-1.1v-3zM166.3 135h.3c.3 0 .4-.1.2-.5l-.3-.9H165l-.3.9c-.1.4-.1.5.3.5h.3v.4h-2.1v-.4c.5-.1.6-.1.9-.9l1.8-4.7.6-.1.6 1.7c.4 1.1.8 2.1 1.1 3.1.3.8.5.8.9.9v.4h-2.8v-.4zm-1.1-2h1.2l-.6-1.7-.6 1.7z"/></g><path class="st1" d="M134.2 208c0 1.3-1.1 2.4-2.4 2.4-1.3 0-2.4-1.1-2.4-2.4 0-1.3 1.1-2.4 2.4-2.4 1.3 0 2.4 1.1 2.4 2.4z"/><circle class="st1" cx="155.7" cy="211.9" r="2.4"/><path class="st1" d="M66.3 79.2zM165.6 36.5zM203.7 83.5zM222 160.3zM144.6 41.3c0 1.3-1.1 2.4-2.4 2.4-1.3 0-2.4-1.1-2.4-2.4 0-1.3 1.1-2.4 2.4-2.4 1.3 0 2.4 1.1 2.4 2.4z"/><circle class="st1" cx="198.4" cy="63.3" r="2.4"/><g><path class="st1" d="M82.3 164.7c.9 1.3 1.4 2.7 1.4 4.2 0 1.6-.6 3-3.5 5l-8.5 6.1-1.6-2.3s8.7-6.2 8.9-6.3c1.5-1 2.1-1.8 2.2-3 0-.8-.3-1.6-.8-2.4-.9-1.2-1.9-1.6-2.9-1.6-.9 0-1.8.6-3.5 1.8l-8 5.4-1.5-2.2 7.6-5.2c2.1-1.5 3.8-2.5 5.4-2.5 2.1.1 3.8 1.6 4.8 3z"/></g><g><path class="st1" d="M55.1 148.1l16.2-5.7.9 2.5-9.3 11.3 11.7-4.6.9 2.4-16 6.2-.9-2.5 9.3-11.4-12 4.2-.8-2.4z"/></g><g><path class="st1" d="M52.6 135.2l17-2.5.4 2.7-17 2.5-.4-2.7z"/></g><g><path class="st1" d="M52.1 114.7l.1-2.8 16.9 6.9-.1 2.8-17.4 5.2v-2.9l14.1-4-13.6-5.2z"/></g><path class="st1" d="M67.6 76.3c-2.4 0-3.5 1.4-5.1 4.2l-2 3.6 15.1 8.2 1.3-2.4-6.3-3.4.4-.7c1.1-1.9 1.4-2.2 4.1-2l4.9.4 1.4-2.5-5.6-.5c-1.1-.1-2-.2-2.8 0-.2.1-.5.2-.8.4.1-.3.2-.6.2-.9 0-.5-.1-1-.2-1.4-.3-1-1-1.8-2.1-2.4-.8-.4-1.6-.6-2.5-.6zm-3 5.2c1-1.8 1.7-2.5 2.8-2.5.4 0 .9.1 1.4.4.6.4 1.1.9 1.3 1.6.1.2.1.5.1.7 0 1-.6 2-1.2 3.1l-.4.6-4.8-2.6.8-1.3z"/><g><path class="st1" d="M86.4 52l2.2-1.7L99 64l-2.2 1.7L86.4 52z"/></g><g><path class="st1" d="M95.9 45.3l11.1-5.8 1.1 2.1-4.3 2.2 6.8 13.1-2.4 1.3-6.8-13.1-4.3 2.3-1.2-2.1z"/></g><g><path class="st1" d="M123.6 34.3l2.9-.8-2.4 11.5 1.9 6.5-2.6.8-1.8-6.5-8.2-8.5 2.8-.8 5.9 6.1 1.5-8.3z"/></g><g><path class="st1" d="M175.9 57.8l8.7-14.8 8.2 4.8-1.2 2-5.9-3.5-2.4 4.1 5.5 3.2-1.2 2-5.5-3.2-3.9 6.7-2.3-1.3z"/></g><g><path class="st1" d="M220.1 96l6.3-7.5 1 3-4.7 5.3 6.9 1.6.9 2.8-9.5-2.3-6.7 8.1-1-2.9 5.1-5.9-7.6-1.7-.9-2.8 10.2 2.3z"/></g><g><path class="st1" d="M215.1 112.9l17.1-1.4.8 9.5-2.3.2-.6-6.8-4.7.4.5 6.4-2.3.2-.5-6.4-7.7.6-.3-2.7z"/></g><path class="st1" d="M222.7 128.2c-2 0-3.8.5-5.3 1.6-2.6 1.9-3.1 4.6-3.1 6.2 0 5.8 5.5 8.1 9.5 8.1 2 0 3.8-.5 5.2-1.6 2.9-2.1 3-5.2 3-6.3.2-5-4.5-8-9.3-8zm1.4 13.1c-3.3 0-7.3-1.8-7.3-5.2 0-1.2.4-2.9 1.9-4 1-.7 2.3-1.1 3.8-1.1 1.7 0 4.8.5 6.4 2.7.6.8.8 1.7.8 2.6 0 1.3-.5 2.9-1.9 3.9-.9.7-2.3 1.1-3.7 1.1zM212.7 71.1c-1.7 0-3.6.6-5.4 1.7-3.3 2.1-4.5 5.1-4.5 7.3 0 1.4.4 2.8 1.2 4.1 1.8 2.9 4.6 3.6 6.4 3.6s3.6-.6 5.4-1.7c2.1-1.3 4.5-3.8 4.5-7.2 0-1.4-.4-2.8-1.2-4.1-1.4-2.5-3.8-3.7-6.4-3.7zm-2.6 14c-1.5 0-2.9-.6-3.9-2.2-.5-.8-.7-1.6-.7-2.4 0-1.9 1.2-3.9 3.5-5.4 1.5-.9 3-1.4 4.3-1.4 1.7 0 3 .7 3.9 2.1.5.8.8 1.7.8 2.6 0 1.9-1.2 3.8-3.4 5.1-1.6 1-3.2 1.6-4.5 1.6zM165.9 35.7c-3.6 0-6.7 2.4-7.9 6.7-.3.9-.5 1.9-.5 2.8 0 1.7.3 3.1 1 4.4 1.6 2.9 4.5 3.9 6.7 3.9 1.3 0 2.5-.3 3.6-.9 2.9-1.6 4.8-5.3 4.8-8.8 0-1.5-.3-3-1-4.2-1.4-2.5-4-3.9-6.7-3.9zM165 51c-1.2 0-3-.6-4-2.4-.5-.9-.7-2-.7-3.1 0-3.1 2.1-7.4 5.8-7.4 2.1 0 4.7 1.6 4.7 5.4 0 2.5-1.7 7.5-5.8 7.5zM70.8 98l2.3.7-2.6 9.4-16.6-4.6 2.8-9.5 2.3.6-2.1 6.9 4.6 1.3 1.8-6.2 2.2.6-1.8 6.2 5.2 1.4 1.9-6.8z"/><g><path class="st1" d="M75.2 62.1c2.4-2.7 4.8-2.5 4.8-2.5l.4 2.3s-1.9.1-3.4 1.7c-.6.7-1 1.5-1 2.1 0 .6.2 1 .7 1.4 1.2 1.1 3.2-.1 4.5-.6 1-.4 2.4-1 3.8-1 1 0 2.1.3 3.1 1.2 1.1 1 1.7 2.3 1.7 3.6 0 1.5-.6 2.8-1.7 4C85.9 76.8 83 77 83 77l-.6-2.3c1.7-.4 3-1.1 3.8-2 .6-.7.9-1.5.9-2.2 0-.6-.3-1.3-.8-1.7-.4-.4-1-.5-1.5-.5-1.1 0-2.4.6-3.5 1.1-2.1.9-4.3 1.6-6.3-.2-1-.9-1.5-2-1.5-3.3 0-1.1.6-2.5 1.7-3.8z"/></g><path class="st1" d="M210.6 150.4l6.5 2.9-.3.7c-.9 2-1.2 2.3-3.9 2.3H208l-1.2 2.6h5.7c1.1 0 2 0 2.7-.3.2-.1.5-.2.7-.4 0 .1-.1.3-.1.4 0 .6.1 1.3.3 1.8.8 1.8 2.9 2.7 4.4 2.7 2.7 0 3.8-1.6 5.1-4.6 0-.1 1.6-3.7 1.6-3.7l-15.6-7-1 2.6zm10.1 10.2c-.8 0-2.1-.4-2.6-1.7-.1-.3-.2-.7-.2-1 0-.9.5-1.9.9-2.9l.3-.7 4.9 2.2-.5 1.3c-.9 2.1-1.5 2.8-2.8 2.8zM201.5 166.7c-1.8 2.2-3.1 4.2-3.1 6.8 0 2.2 1 4.7 3.5 6.7 1.7 1.3 3.5 2 5.5 2 2.4 0 4.3-.7 7.3-4.4l2.7-3.4-13.4-10.8-2.5 3.1zm6.2 12.9c-1.4 0-2.6-.5-4-1.6-1.3-1.1-2.8-2.8-2.8-4.9 0-1.5.8-2.9 2.1-4.5l1.1-1.4 9.8 7.8-.8.9c-1.8 2.4-3 3.7-5.4 3.7z"/><path class="st1" d="M240.7 123.3c0-54.1-44.1-98.2-98.3-98.2S44 69.1 44 123.3c0 32.5 16 62.8 42.9 81.1 2.6 9.8 11.6 17.1 22.4 17.1 2.9 0 5.7-.5 8.4-1.6 3.6 1.2 7.3 2.2 11 2.9-1 3-2.6 5.8-4 8.3h.1s-.1 0-.1.1l2.1 2.1c.5-.3 1.1-.5 1.8-.5 2 0 3.7 1.6 3.7 3.7 0 2-1.6 3.7-3.7 3.7-1.8 0-3.3-1.1-4.1-2.3 0 0-.5 1.7-.5 3.8 0 7.1 7.7 15.1 18.4 18.5 10.7-3.3 18.4-11.4 18.4-18.5 0-2.4-.5-3.8-.5-3.8-.8 1-2.1 2.3-4.2 2.3-2 0-3.7-1.6-3.7-3.7 0-2 1.7-3.7 3.7-3.7.7 0 1.4.2 1.9.6l2-2h.1c-1.1-2.7-1.9-5.2-2.5-7.5 17.7-2.4 32.6-9.9 44.5-22.3 24.4-18.9 38.6-47.4 38.6-78.3zm-131.5 95.4c-11.2 0-20.3-9.1-20.3-20.3 0-3.5.9-6.8 2.5-9.7 1 .9 2.2 1.9 3.3 2.9-1 2.1-1.5 4.4-1.5 6.8 0 6.1 3.1 11.1 8.9 14.6 3.3 2 7.1 3.7 11.1 5.3-1.3.3-2.6.4-4 .4zm33.1-29.5c-4.2 0-8.4-.4-12.4-1.2-3.9-7.7-12-12.6-20.7-12.6-2.1 0-4.2.3-6.2.9-16.7-12.4-26.7-32.1-26.7-52.9 0-36.3 29.6-65.9 65.9-65.9s65.9 29.6 65.9 65.9c.1 36.2-29.4 65.8-65.8 65.8zm14.7 1.2c-2 2.8-3.2 6.7-3.5 10.7-6.2-1.6-11.9-3.8-16.8-6 .9-1.8 3.6-3.1 5.7-3.1 5-.1 9.9-.6 14.6-1.6zm-20.9 1.3c-.8.6-1.5 1.4-2 2.2-2.5-1.2-5.6-2.8-7.7-3.9 2.9.6 6.7 1.4 9.7 1.7zm-26.9-13.6c6.8 0 13.1 3.5 16.9 9.1-3.3-.8-6.5-1.9-9.6-3.2l-.1-.1c-2.2-1-4.5-1.6-6.9-1.6-5.4 0-10.2 2.7-13.1 6.7-1.2-.7-2.5-1.4-3.7-2.2 3.6-5.2 9.6-8.7 16.5-8.7zm46.7 51.8c-3.6 0-6.6 2.6-6.6 6.5s3 6.5 6.6 6.5c.5 0 1.1-.1 1.6-.2-.8 5.5-7.1 11.6-15.3 14.3-8.1-2.7-14.5-8.9-15.3-14.3.5.1 1 .2 1.6.2 3.9 0 6.6-2.7 6.6-6.5 0-3.6-2.8-6.4-6.5-6.5 1.1-2 2.2-4.2 3-6.5 4.5.8 8.9 1.2 13.1 1.2 3.4 0 6.7-.2 9.9-.5.4 1.9 1.1 3.8 1.8 5.8h-.5zm-11.3-8c-13.2 0-29.6-4.5-41-11.2-3.4-2-7.5-5.8-7.5-12.2 0-1.7.3-3.4.9-4.9 4.2 3.5 8.6 6.8 11.3 8.3.6.3 1 .5 1.7.5 1.8 0 3.2-1.4 3.2-3.2 0-1.3-.7-2.4-1.9-3-2.3-1-7.2-3-12.5-5.8 2.4-3.2 6.3-5.3 10.6-5.3 2 0 3.9.4 5.7 1.3l3.6 2.1c11.5 7 41.1 25 76.8 15.1-13.6 12.2-30.3 18.3-50.9 18.3zm55.3-22.6c-16 5.6-30.9 5.3-43.6 2.4.4-5.7 2.8-11.8 6.4-12.9 28-8.7 48.4-34.8 48.4-65.6 0-37.9-30.9-68.7-68.8-68.7s-68.8 30.8-68.8 68.7c0 21.1 9.8 41.1 26.4 54.1-3.9 1.7-7.3 4.5-9.7 8-1.3-.9-2.5-1.7-3.6-2.7l-.6.6c.8.9 1.9 2.1 3.3 3.4-2 3.4-3.2 7.4-3.2 11.7 0 .7 0 1.3.1 2-24.6-18-39.3-46.5-39.3-77.1 0-52.6 42.8-95.4 95.4-95.4s95.4 42.8 95.4 95.4c.1 30.2-13.7 57.9-37.8 76.1z"/></svg>