<svg viewBox="0 0 284.6 283.6" role="img" aria-labelledby="planet-2--title" xmlns="http://www.w3.org/2000/svg" xmlns:xlink="http://www.w3.org/1999/xlink"><title id="planet-2--title">PLANET 2</title><path d="M146,0C72,0,11.8,50.4,11.8,112.3S72,224.6,146,224.6s134.2-50.4,134.2-112.3S220,0,146,0z" fill="#09658D"  /><path d="M146,6.1c70.8,0,128.1,47.6,128.1,106.2c0,58.7-57.4,106.2-128.1,106.2c-70.8,0-128.1-47.6-128.1-106.2  C17.9,53.6,75.2,6.1,146,6.1" fill="#ABEFFF"  /><path d="M240.4,107.4c-3.6-3.3-8.5-3.9-10.9-4c-6.5-34.7-42.2-60.6-83.6-60.6c-1.6,0-3.2,0.1-4.8,0.2c0-0.6-0.1-2.1,0.2-2.8  c0.3-0.8,0.5-2.1,1.4-2.9c0,0,4.8,3.1,7,3s4.2-2.8,4.2-2.8s1.8-3.6,1-4.9c-0.8-1.3-1.8-2.8-6.1-1.9s-6.6,3.6-6.6,3.8  c-0.1,0.2-2-2.6-1.9-4.1c0.2-1.5,8-6.5,9.4-7.5l-2-0.4c-0.9,0.3-8.7,6.2-8.7,6.2s-0.7,1.1-0.6,2.4c0.1,1.3,2.4,4.3,2.4,4.3  c-3.2,2.1-3.6,6.7-3.7,7.9c-37.7,3.2-69.1,28-75,60.5c-2.3,0.1-7.1,0.8-10.4,4c-2.4,2.3-3.7,5.5-3.7,9.5c0,3.8,1.2,6.9,3.6,9.2  c3.7,3.5,9.1,4.1,11.5,4.2c8.6,32.7,43.1,56.3,82.7,56.3s74.2-23.6,82.7-56.4c2.5,0.1,8.1-0.2,11.9-3.5c2.6-2.3,3.9-5.5,3.9-9.6  C244.3,113.2,243,109.8,240.4,107.4L240.4,107.4z M149.7,32.8c2-0.4,3,0.7,3,1.7s-0.7,3.4-2,3.9s-2.7,0.2-3.9-0.4  c-1.3-0.7-2.9-1.9-2.9-1.9S147.8,33.2,149.7,32.8L149.7,32.8z" /><path d="M64.4,127.6c0.7,0,1.3,0.5,1.5,1.2c7.7,31.9,41.4,55.1,80,55.1c38.7,0,72.4-23.3,80.1-55.3  c0.2-0.8,0.9-1.2,1.7-1.2c0.1,0,6.9,0.8,10.9-2.7c1.9-1.7,2.8-4.1,2.8-7.3c0-3.3-1-6-3-7.8c-3.8-3.5-10-3.1-10-3.1  c-0.8,0-1.5-0.5-1.6-1.3c-5.6-33.9-40.4-59.4-80.9-59.4c-40.7,0-75.5,25.7-80.9,59.7c-0.1,0.8-0.8,1.3-1.6,1.3c0,0-6-0.2-9.6,3.2  c-1.8,1.7-2.7,4.2-2.7,7.3c0,2.9,0.9,5.3,2.7,7C57.6,127.9,64.2,127.7,64.4,127.6C64.3,127.6,64.4,127.6,64.4,127.6z" fill="#FFE0AB"  /><path d="M35.6,241.6c-2.4-2.4-4.6-3.8-7.1-4.6c-2.4-1.4-5.6-2.5-11-3.5c-1.2-0.4-2.6-0.8-4-1.1C7.4,230.7,3,229.2,3,225.6  c0-0.8-0.7-1.5-1.5-1.5S0,224.8,0,225.6v2.4c0,0.2,0.1,0.5,0.2,0.7c0.7,1.4,1.7,2.3,2.6,3.1c0.5,0.5,1.1,1,1.3,1.3  c0.5,1.1,0.8,2.5,0.8,4.2v23.3c0,1.2-0.2,2-0.4,2.5C4.1,263,3.6,262.6,3,262v-0.9c0-0.8-0.7-1.5-1.5-1.5S0,260.2,0,261.1v1.5  c0,0.1,0,0.3,0.1,0.4c0.7,6,9,7.8,15.6,9.3c1.5,0.3,3,0.7,4.4,1c0.1,0,0.3,0.1,0.4,0.1c0.3,0,0.7-0.1,0.9-0.3  c0.4-0.3,0.6-0.7,0.6-1.2v-1c0-0.8-0.7-1.5-1.5-1.5c-0.3,0-0.4-0.1-0.7-0.2c-0.3-0.1-0.7-0.3-0.9-0.3c-1.8-0.5-3-1.4-3.7-2  c-0.5-0.5-0.5-1.5-0.5-3.3v-8.3c0.8,0.4,1.6,0.8,2.4,1.1c1.6,0.5,3.2,1.1,4.1,1c5.5,1.1,9.6,0.9,12.6-0.6c3.3-1.6,4.7-4,4.7-7.7  C38.5,246.7,38.1,244.1,35.6,241.6L35.6,241.6z M25.1,251.5c-1.7,0.8-3.2,1.2-5.6,0.4c-0.2-0.1-0.2-0.1-0.4-0.1  c-0.1,0-0.3-0.1-0.5-0.1c-0.4-0.1-1-0.3-1.7-0.3l-1.5-0.6c-0.3-0.1-0.5-0.2-0.7-0.3v-12.4c0.4,0,0.7,0.1,1,0.1  c0.7,0.1,1.3,0.2,1.9,0.2c0.7,0.4,1.5,0.7,2.2,0.9c1,0.4,1.9,0.8,2.8,1.3c1.6,0.8,2.4,2,3.3,3.4c0.9,1.3,1.2,2.4,1.2,4  C27.2,249.5,26.4,250.8,25.1,251.5L25.1,251.5z M59.8,275.1c-1,0-1.7-0.1-2.3-0.3c-0.3-0.1-0.6-0.1-0.9-0.2l-0.7-0.7  c0-0.1-0.1-0.3-0.1-0.4c-0.1-0.5-0.3-1.1-0.3-1.8v-32.5c0-0.8-0.7-1.6-1.6-1.6c-0.4-0.2-1.1-0.6-1.8-0.3c-3.3,0.9-6.7,1.4-10,1.9  c-0.7,0.1-1.3,0.7-1.3,1.5c0,0.7,0.3,1.1,0.6,1.4c0.2,0.6,0.8,1.1,1.5,1.1h2.8c0.3,0.3,0.3,0.3,0.5,0.7v28.6  c-0.2,0.2-0.3,0.4-0.4,0.6c-0.2,0-0.3,0.1-0.4,0.3c-0.2,0.1-0.9,0.1-2-0.2c-0.5-0.2-1-0.1-1.4,0.2c-0.4,0.3-0.6,0.7-0.6,1.2v1  c0,0.7,0.5,1.4,1.3,1.5c5.9,1,11.2,1.5,17.1,2h0.1c0.4,0,0.7-0.1,1-0.4c0.3-0.3,0.5-0.7,0.5-1.1v-1  C61.3,275.8,60.6,275.1,59.8,275.1z M95.9,273.8c-0.5-0.3-1.1-0.2-1.6,0.1c-0.6,0.4-1.1,0.8-1.5,1.1c-0.3,0.3-0.7,0.6-0.5,0.6h-1.1  c-0.1-0.1-0.2-0.3-0.3-0.5V263c0-1.8-0.3-3.1-0.4-3.9c0-0.2-0.1-0.4-0.1-0.4c0-0.3-0.1-0.6-0.3-0.8c-0.9-1.3-2.1-2.8-4-3.4  c-2.2-1.1-4.8-1.6-8.3-1.6c-3.7-0.5-7-0.1-10.1,1.1c-2.7,1.3-4.2,3.3-4.2,5.2c0,1.6,0.9,2.5,1.4,3c0.7,0.7,2.1,1.4,3.5,1.4  c1.1,0,1.8,0,3.1-0.6c0.1-0.1,0.3-0.2,0.4-0.3c0.9-0.9,0.9-1.9,0.9-3v-1.4c0-0.1,0.2-0.5,0.6-0.7c0.6-0.3,2-0.3,3.2-0.3  c1.9,0,3.3,0.5,3.8,1s1,1.7,1,4c-5.6,1-9.4,1.9-11.7,2.8c-3,1.2-4.8,2.2-5.8,3.2c-1.4,1.4-1.4,2.9-1.4,4c0,2.5,0.7,4.3,2.5,6.1  c2.2,1.7,4.4,2.2,7.2,2.7c1.5,0,3,0,4.3-0.5c1.4-0.2,3.5-1.1,5.3-2.1c0.2,0.6,0.5,1.2,0.8,1.7c0.1,0.3,0.4,0.5,0.7,0.7  c1.1,0.5,2.3,1.1,4.1,1.1c3.1,0,5.9-1.4,8.8-4.3c0.3-0.3,0.4-0.7,0.4-1.1v-1.5C96.7,274.6,96.4,274.1,95.9,273.8L95.9,273.8z   M81.5,273.3c-2,1.2-3.8,1.7-5.8,1.7c-1.1,0-2.2-0.4-2.8-1c-0.7-0.7-1-1.8-1-2.3s0.3-1.1,0.6-1.8l0.3-0.2c0.9-0.5,2-1.1,3.6-1.5  c0.5-0.3,2.1-0.6,4-1.1l1.1-0.3L81.5,273.3L81.5,273.3z" /><path d="M150,243.5h-17.5c-0.8,0-1.5,0.7-1.5,1.5v1c0,0.8,0.7,1.5,1.5,1.5h1.5c1.5,0,2.6,0.3,3.3,1c0.1,0.1,0.2,0.2,0.4,0.3  s0.6,0.9,0.6,2.5v17.6c-1.9-1.7-3.9-3.3-5.8-5c-7.7-6.6-15.7-13.3-23.2-20.5c-0.3-0.3-0.7-0.4-1-0.4c-2.4,0-4.7-0.1-7-0.2  s-4.7-0.2-7.1-0.2c-0.8,0-1.5,0.7-1.5,1.5v1c0,0.8,0.7,1.5,1.5,1.5h2.3c0.2,0.2,0.4,0.3,0.6,0.4c0.7,0.2,1.3,0.4,1.9,0.5  c0.4,0.1,0.9,0.2,0.9,0.1c0.1,0.1,0.2,0.2,0.4,0.3c0.7,0.3,1.5,1.1,2.6,2.2v24.6c0,1.9,0,2.3-0.4,2.7c-0.3,0.2-1.8,0.6-3.4,0.6h-1.9  c-0.8,0-1.5,0.7-1.5,1.5v1c0,0.8,0.7,1.5,1.5,1.5c2.9,0,5.9,0.1,8.9,0.2c3.1,0.1,6.1,0.2,9,0.2c0.8,0,1.5-0.7,1.5-1.5v-1  c0-0.8-0.7-1.5-1.5-1.5h-1.9c-1.5,0-2.6-0.3-3.3-1c-0.2-0.2-0.5-1.2-0.5-2.8v-18.9c10.4,9.4,20.8,18.5,31,27.3  c0.3,0.2,0.6,0.4,1,0.4h1.5c0.8,0,1.5-0.7,1.5-1.5v-30.6c0-1.6,0.4-2.6,0.5-2.8c0.7-0.7,1.8-1,3.3-1h1.9c0.8,0,1.5-0.7,1.5-1.5v-1  C151.6,244.2,150.9,243.5,150,243.5L150,243.5z M182.1,269.8c-0.6,0-1.1,0.3-1.4,0.8c-1,1.9-2.4,3.1-3.2,3.7  c-1.7,0.9-3.5,1.3-5.6,1.8c-3.1,0-5.6-0.8-7.7-2.5c-1.8-1.8-3-3.5-3.3-6.2c3.6,0,7.1-0.1,10.6-0.2c4-0.1,8-0.2,12.1-0.2  c0.8,0,1.5-0.7,1.5-1.5c0-3.2-1.5-6.1-4.6-8.6c-2.8-1.7-6.6-2.6-10.5-2.6c-4.5,0-8.9,1.5-12,4.2c-3.6,2.6-5.5,6.3-5.5,10.9  c0,4.2,1.6,7.6,4.9,10.4c2.9,2.5,7,3.8,11.6,3.8c3.9,0,7.6-1.3,10.7-3.7c3-2.4,4.9-5.1,5.4-7.7c0.1-0.5-0.1-1-0.4-1.4  C183.7,269.8,182.7,269.8,182.1,269.8L182.1,269.8z M163.1,260.8c1.5-1.1,3-1.6,4.9-1.6c0.9,0,1.5,0.2,2.5,0.6l0.7,0.2  c0.8,0.4,1.6,0.8,2.3,1.5c0.1,0.3,0.2,0.7,0.2,1.1c-4.1,0.3-8.3,0.4-12.3,0.4C161.9,262,162.4,261.3,163.1,260.8L163.1,260.8z   M232.1,244.9c-0.1-1.5-0.3-3-0.5-4.5c-0.1-0.8-0.9-1.4-1.7-1.3c-12.1,1.7-25.7,2.8-41.6,3.4c-0.8,0-1.5,0.7-1.5,1.5  c0,1.4-0.1,2.8-0.2,4.2c-0.1,1.5-0.2,3-0.2,4.5c0,0.8,0.7,1.5,1.5,1.5c0.6,0,1.1-0.2,1.5-0.5c0.8,0,1.5-0.7,1.5-1.5  c0-1.1,0.4-2.2,1-2.8c0.5-0.5,1.4-0.9,2.2-1.3c0.3-0.1,0.6-0.3,0.8-0.4c0.3-0.2,1.3-0.3,2.2-0.4c0.8-0.1,1.8-0.2,2.5-0.4h4.8V273  c0,1.6-0.4,2.6-0.5,2.8c-0.5,0.5-1.3,1-3.8,1c-0.6,0-1.1,0.2-1.5,0.5c-0.8,0-1.5,0.7-1.5,1.5v1c0,0.4,0.2,0.8,0.5,1.1  c0.3,0.3,0.7,0.4,1,0.4h0.1c7.5-0.5,14.2-1,21.5-2c0.8-0.1,1.3-0.7,1.3-1.5v-1c0-1.3-1.4-2.3-3.5-1c-1.4-0.1-2.5-0.5-3.1-0.7  c-0.2-0.3-0.2-1.6-0.2-2.6v-26.6c1.7,0,3.5-0.1,5.3-0.5c2.3,0,3.6,0,4.9,0.4c0.2,0.1,0.3,0.1,0.5,0.1c0.9,0,1.3,0.7,1.6,1.1  c0.1,0.1,0.2,0.3,0.3,0.4c0.1,0.1,0.5,0.6,1.1,2.3c0.2,0.6,0.8,1,1.4,1h1.5c0.4,0,0.9-0.2,1.2-0.5s0.4-0.8,0.3-1.2  C232.3,247.8,232.2,246.4,232.1,244.9L232.1,244.9z" /><path d="M249.1,259.4c-0.3-0.3-0.8-0.4-1.2-0.3c-6.2,0.9-12.5,1.9-19.3,2.4c-0.8,0.1-1.4,0.7-1.4,1.5v3.9c0,0.4,0.2,0.8,0.5,1.1  c0.3,0.3,0.6,0.4,1,0.4h0.1c6.9-0.5,13.3-1.5,19.5-2.4c0.7-0.1,1.3-0.8,1.3-1.5v-3.9C249.6,260.1,249.4,259.7,249.1,259.4  L249.1,259.4z M283,253.7c-0.8,0-1.5,0.7-1.5,1.5v0.8c-0.1,0.3-0.2,0.6-0.2,0.9c-0.2,0.9-0.3,1.2-0.8,1.6c-0.2,0.2-0.3,0.4-0.4,0.6  c-0.4,1.3-1.3,1.9-1.7,2c-0.9,0.5-2.8,1.4-5.1,2.3c-2.4,0.8-4.7,1.4-7.1,2c2-2,4.5-4.6,7.3-7.9c3.9-4.8,6.9-8.9,8.5-13.5  c1-2.5,1.6-5.1,1.6-7.4c0-3.1-1.4-4.7-4.4-5.3c-3.3-1.1-6.7-0.5-11.1,0.5c-3.3,0.9-6.9,2.8-9.9,5.2c-3,3-4.8,6.3-5.3,9.6  c-0.1,0.4,0.1,0.9,0.4,1.2c0.3,0.3,0.7,0.5,1.1,0.5c0.6,0,1.6,0,2.5-0.9c0.1-0.1,0.2-0.2,0.3-0.4c0.7-1.4,1.9-3.3,3.9-4.8  c1.9-1.4,3.6-2.2,5.9-2.7c1.9-0.6,3.9-0.6,5.6-0.1c1.5,0.7,2.1,1.7,2.1,3.5c0,1.9-0.8,5.4-4.6,10.8c-3.4,4.9-10.3,11.1-18.2,18.2  c-0.3,0.3-0.5,0.7-0.5,1.1v1c0,0.5,0.2,0.9,0.6,1.2c0.3,0.2,0.6,0.3,1,0.3h0.3c1.9-0.4,4-0.7,6-1.1c8.5-1.4,17.2-2.8,23.4-8.6  c0.2-0.2,0.3-0.4,0.4-0.7c0.9-3,1.4-6.1,1.5-8.9v-1.3C284.5,254.4,283.9,253.7,283,253.7L283,253.7z" /><ellipse cx="96" cy="110.4" rx="12.5" ry="10.2" /><ellipse cx="97.7" cy="107.7" rx="4.1" ry="3.2" fill="#FFFFFF"  /><ellipse cx="93" cy="116.1" rx="1.9" ry="1.4" fill="#FFFFFF"  /><ellipse cx="201.8" cy="110.9" rx="12.5" ry="10.2" /><ellipse cx="203.5" cy="108.1" rx="4.1" ry="3.2" fill="#FFFFFF"  /><ellipse cx="198.8" cy="116.6" rx="1.9" ry="1.4" fill="#FFFFFF"  /><path d="M139.4,140.8c5.6-0.7,13.6-1.7,14.8-7.9c2,3.1-1.4,7.3-4.5,8.6S139.4,140.8,139.4,140.8L139.4,140.8z" /><g><path d="M104.7,151.5c7,9.1,23.5,15.5,42.7,15.5c19.1,0,35.5-6.3,42.6-15.4h3.6c-7.1,10.7-25.1,18.4-46.2,18.4s-39.2-7.7-46.2-18.4   L104.7,151.5L104.7,151.5z" />
	
</g><path d="M58.8,121.6c1-2,3.3-3.4,3.3-3.4c2.2-0.3,2.6,4.5,2.6,4.5s0.3-4-1.5-6.6c-1.8-2.6-6.1-2.6-6.1-2.6s3.8,1.9,4,3l-2.3,2.3  C58.7,118.8,57.9,120.5,58.8,121.6z M233.5,121.6c-1-2-3.3-3.4-3.3-3.4c-2.2-0.3-2.6,4.5-2.6,4.5s-0.3-4,1.5-6.6s6.1-2.6,6.1-2.6  s-3.8,1.9-4,3l2.3,2.3C233.5,118.8,234.3,120.5,233.5,121.6z" /></svg>