<svg viewBox="0 0 937.8 283.5" role="img" aria-labelledby="prevail--title" xmlns="http://www.w3.org/2000/svg" xmlns:xlink="http://www.w3.org/1999/xlink"><title id="prevail--title">PREVAIL</title><g><path d="M95.5,4.6l22.4,55h72.9l-58.4,33.9l21.9,56.9l-58.8-34.5l-58.7,34.5l21.8-56.9L0,59.6h72.9" fill="#B5B5B5"  /><path d="M95.5,0l22.4,55h72.9l-58.4,33.9l21.9,56.9l-58.8-34.5l-58.7,34.5l21.8-56.9L0,55h72.9" fill="#604C7C"  /><path d="M95.5,9.4l19.2,47l0.8,2.2h62.2L130.6,86l-2.6,1.5l1.1,2.8l18.3,47.4l-50.2-29.3l-1.7-1.1l-1.8,1.1   l-50,29.3l18.2-47.4l1-2.8L60.3,86L13.2,58.5h62.2l0.9-2.2L95.5,9.4" fill="#FDCD0B"  />
	
	
	
</g><g><path d="M842.5,137.6l22.4,55h72.9l-58.4,33.9l21.9,56.9L842.5,249l-58.7,34.5l21.8-56.9l-58.6-34h72.9" fill="#B5B5B5"  /><path d="M842.5,133l22.4,55h72.9l-58.4,34l21.9,56.9l-58.8-34.5l-58.7,34.5l21.8-56.9L747,188.1h72.9" fill="#604C7C"  /><path d="M842.5,142.4l19.2,47l0.8,2.2h62.2L877.6,219l-2.6,1.5l1.1,2.8l18.3,47.4l-50.2-29.3l-1.7-1.1l-1.8,1.1   l-50,29.3l18.2-47.4l1-2.8l-2.6-1.5l-47.1-27.4h62.2l0.9-2.2L842.5,142.4" fill="#FDCD0B"  />
	
	
	
</g><path d="M235.3,198.9V77.2H287c13,0,22.4,1.1,28.4,3.3c5.9,2.2,10.7,6,14.2,11.7c3.5,5.6,5.3,12,5.3,19.2  c0,9.2-2.7,16.7-8,22.6c-5.3,5.9-13.4,9.7-24,11.3c5.3,3.1,9.7,6.5,13.2,10.3c3.4,3.7,8.1,10.3,14,19.8l14.9,23.7h-29.4l-17.8-26.5  c-6.3-9.5-10.7-15.4-13-17.9c-2.3-2.4-4.8-4.1-7.3-5c-2.6-0.9-6.7-1.4-12.4-1.4h-5v50.8h-24.6v-0.2H235.3z M259.8,128.7H278  c11.8,0,19.1-0.5,22.1-1.5c2.9-1,5.2-2.7,6.9-5.1c1.7-2.4,2.5-5.5,2.5-9.2c0-4.1-1.1-7.4-3.3-10c-2.2-2.5-5.2-4.1-9.3-4.7  c-2-0.3-7.9-0.4-17.9-0.4h-19.2L259.8,128.7L259.8,128.7z" fill="#46C8F5"  /><path d="M358.3,198.9V77.2h90.2v20.6h-65.7v27H444v20.5h-61.2v33.1h68v20.5H358.3L358.3,198.9z" fill="#EE3C96"  /><path d="M502.5,198.9L459,77.2h26.7l30.8,90.1l29.8-90.1h26.1l-43.6,121.7H502.5L502.5,198.9z" fill="#45B864"  /><path d="M682,198.9h-26.8l-10.7-27.7h-48.7l-10.1,27.7h-26.1L607,77.2h25.9L682,198.9L682,198.9z M636.9,150.7  l-16.8-45.2l-16.4,45.2H636.9L636.9,150.7z" fill="#A271B0"  /><g><path d="M693.9,198.9V77.2h24.5v121.7H693.9z" fill="#4A68B1"  />
	
</g><g><path d="M742.4,198.9V78.2h24.5v100.3h61.2V199L742.4,198.9L742.4,198.9z" fill="#4E81BE"  />
	
</g><g><path d="M121.9,198.9V77.2h39.4c15,0,24.6,0.6,29.3,1.8c6.9,1.8,12.8,5.8,17.5,11.9s7,14,7,23.7   c0,7.4-1.3,13.8-4,18.8c-2.7,5.1-6.1,9.1-10.4,12c-4.2,2.9-8.4,4.8-12.8,5.7c-5.8,1.2-14.4,1.7-25.4,1.7h-16v46L121.9,198.9   L121.9,198.9z M146.4,97.7v34.5h13.5c9.7,0,16.2-0.6,19.4-1.9c3.2-1.3,5.8-3.2,7.6-5.9c1.8-2.7,2.8-5.8,2.8-9.5c0-4.4-1.3-8-3.9-11   c-2.6-2.9-5.9-4.7-9.9-5.4c-2.9-0.6-8.9-0.8-17.7-0.8H146.4z" fill="#4E81BE"  />
	
</g></svg>