<svg viewBox="0 0 455.5 283.5" role="img" aria-labelledby="public-health-england--title" xmlns="http://www.w3.org/2000/svg" xmlns:xlink="http://www.w3.org/1999/xlink"><title id="public-health-england--title">Public Health England</title><rect y="0" width="6.3" height="267.6" fill="#00A297"  /><path d="M38,134.2h23.7c10.7,0,16.5,6,16.5,15.9c0,10-5.8,16-16.5,15.9H45.2v22.1H38V134.2 M45.2,160.1h14.1  c8.1,0.1,11.8-3.5,11.8-9.9c0-6.4-3.7-9.9-11.8-9.9H45.2V160.1z" /><path d="M115.6,188.2h-6V182h-0.2c-2.7,4.8-7.1,7.1-12.7,7.1c-10.3,0-13.5-5.9-13.5-14.3v-25.7h6.4v26.5c0,4.8,3,7.9,7.9,7.9  c7.8,0,11.6-5.2,11.6-12.2v-22.1h6.4V188.2" /><path d="M123.5,134.2h6.4v20.2h0.2c2.1-4.3,7.1-6.2,12.5-6.2c12,0,18,9.5,18,20.6c0,11-5.9,20.3-17.8,20.3c-4,0-9.7-1.5-12.6-6.1  h-0.2v5.2h-6.4V134.2 M141.7,153.9c-8.6,0-11.9,7.4-11.9,14.7c0,7.7,3.5,14.8,12.3,14.8c8.8,0,11.7-7.5,11.7-15.1  C153.7,161,150,153.9,141.7,153.9" /><rect x="166.7" y="134.2" width="6.4" height="54" /><path d="M187.6,142.1h-6.4v-7.9h6.4V142.1z M181.2,149.1h6.4v39.1h-6.4V149.1z" /><path d="M222.3,161.7c-1-4.9-4.4-7.8-9.7-7.8c-9.3,0-12.2,7.3-12.2,15.3c0,7.2,3.2,14.3,11.4,14.3c6.2,0,9.9-3.6,10.7-9.5h6.6  c-1.4,9.5-7.4,15.2-17.2,15.2c-11.9,0-18.3-8.3-18.3-20c0-11.7,6-20.9,18.4-20.9c8.8,0,15.9,4.2,16.9,13.5H222.3" /><polygon points="256.9,134.2 264.1,134.2 264.1,157.4 292.5,157.4 292.5,134.2 299.7,134.2 299.7,188.2 292.5,188.2 292.5,163.5 264.1,163.5 264.1,188.2 256.9,188.2" /><path d="M341.9,175.8c-1.7,8.6-7.9,13.3-16.7,13.3c-12.5,0-18.4-8.6-18.7-20.6c0-11.7,7.7-20.3,18.4-20.3  c13.8,0,18.1,12.9,17.7,22.4h-29.2c-0.2,6.8,3.6,12.8,12.2,12.8c5.3,0,9-2.6,10.1-7.6H341.9 M335.7,164.9c-0.3-6.1-4.9-11-11.3-11  c-6.7,0-10.7,5.1-11.2,11H335.7z" /><path d="M382.4,188c-1.1,0.7-2.6,1.1-4.6,1.1c-3.3,0-5.4-1.8-5.4-6c-3.6,4.2-8.3,6-13.8,6c-7.1,0-12.9-3.2-12.9-11  c0-8.8,6.6-10.7,13.2-12c7.1-1.4,13.2-0.9,13.2-5.7c0-5.6-4.6-6.5-8.7-6.5c-5.4,0-9.4,1.7-9.7,7.4h-6.4c0.4-9.7,7.9-13.1,16.6-13.1  c7,0,14.7,1.6,14.7,10.7v20.1c0,3,0,4.4,2,4.4c0.5,0,1.1-0.1,2-0.4V188 M372,168c-2.5,1.8-7.3,1.9-11.6,2.6c-4.2,0.8-7.9,2.3-7.9,7  c0,4.2,3.6,5.7,7.6,5.7c8.5,0,11.9-5.3,11.9-8.8V168z" /><rect x="387.2" y="134.2" width="6.4" height="54" /><path d="M410.6,149.1h7.8v5.7h-7.8v24.3c0,2.9,0.8,3.5,4.8,3.5h3v5.7h-4.9c-6.7,0-9.3-1.4-9.3-8.5v-24.9h-6.7v-5.7h6.7v-11.7h6.4  V149.1" /><path d="M423.2,134.2h6.4v20.6h0.2c2.1-4.7,7.6-6.7,12.3-6.7c10.3,0,13.4,5.9,13.4,14.3v25.7h-6.4v-26.5c0-4.8-3-7.9-7.9-7.9  c-7.8,0-11.6,5.2-11.6,12.2v22.1h-6.4V134.2" /><polygon points="38,213.6 75.3,213.6 75.3,219.7 45.2,219.7 45.2,236.8 73.3,236.8 73.3,242.9 45.2,242.9 45.2,261.5 75.5,261.5 75.5,267.6 38,267.6" /><path d="M80.8,228.5h6v6.2H87c2.7-4.8,7.1-7.1,12.7-7.1c10.3,0,13.4,5.9,13.4,14.3v25.7h-6.4v-26.5c0-4.8-3-7.9-7.9-7.9  c-7.8,0-11.6,5.2-11.6,12.2v22.1h-6.4V228.5" /><path d="M154.6,264.3c0,12.7-5.8,19.2-18.1,19.2c-7.3,0-15.8-2.9-16.2-11.5h6.4c0.3,4.7,5.9,6.3,10.1,6.3c8.4,0,11.7-6,11.7-14.8  v-2.6h-0.1c-2.1,4.8-7.3,7.1-12.2,7.1c-11.6,0-17.5-9.1-17.5-19.8c0-9.2,4.5-20.6,18.1-20.6c4.9,0,9.3,2.2,11.6,6.5h0.1v-5.6h6  V264.3 M148.3,247.3c0-6.9-3-14-11.1-14c-8.2,0-11.6,6.7-11.6,14.2c0,7,2.6,14.9,11,14.9C145.1,262.4,148.3,254.6,148.3,247.3" /><rect x="162.6" y="213.6" width="6.4" height="54" /><path d="M211.7,267.4c-1.1,0.7-2.6,1.1-4.6,1.1c-3.3,0-5.4-1.8-5.4-6c-3.6,4.2-8.3,6-13.8,6c-7.1,0-12.9-3.2-12.9-11  c0-8.8,6.6-10.7,13.2-12c7.1-1.4,13.2-0.9,13.2-5.7c0-5.6-4.6-6.5-8.7-6.5c-5.4,0-9.4,1.7-9.8,7.4h-6.4c0.4-9.7,7.9-13.1,16.6-13.1  c7,0,14.7,1.6,14.7,10.7v20.1c0,3,0,4.4,2,4.4c0.5,0,1.1-0.1,2-0.4V267.4 M201.2,247.4c-2.5,1.8-7.3,1.9-11.6,2.6  c-4.2,0.8-7.9,2.3-7.9,7c0,4.2,3.6,5.7,7.6,5.7c8.5,0,11.9-5.3,11.9-8.8V247.4z" /><path d="M216.1,228.5h6v6.2h0.2c2.7-4.8,7.1-7.1,12.7-7.1c10.3,0,13.5,5.9,13.5,14.3v25.7h-6.4v-26.5c0-4.8-3-7.9-7.9-7.9  c-7.8,0-11.6,5.2-11.6,12.2v22.1h-6.4V228.5" /><path d="M291.3,267.6h-6.4v-5.3h-0.2c-2.1,4.3-7.1,6.2-12.5,6.2c-12,0-18-9.5-18-20.6s5.9-20.3,17.8-20.3c4,0,9.8,1.5,12.6,6.1h0.2  v-20.1h6.4V267.6 M273.2,262.8c8.6,0,11.9-7.4,11.9-14.7c0-7.7-3.5-14.8-12.3-14.8c-8.8,0-11.7,7.5-11.7,15.1  C261.1,255.7,264.8,262.8,273.2,262.8" /><path d="M88.6,17.6c-0.6,1.2-1.2,1.9-1.1,2.8c0.1,0.9,1,1.6,1.5,2.5c0.4-1.1,1.1-1.9,1-2.7C89.9,19.3,88.8,18.2,88.6,17.6" /><path d="M104.4,17.6c0.6,1.2,1.1,1.9,1.1,2.8c-0.1,0.9-1,1.6-1.5,2.5c-0.4-1.1-1.1-1.9-1-2.7C103,19.3,104.2,18.2,104.4,17.6" /><path d="M79.4,17c0.6,0,1.1-0.5,1.1-1.1c0-0.6-0.5-1.1-1.1-1.1c-0.6,0-1.1,0.5-1.1,1.1C78.4,16.5,78.8,17,79.4,17" /><path d="M80.2,18.5c0-0.6-0.5-1.1-1.1-1.1c-0.6,0-1.1,0.5-1.1,1.1c0,0.6,0.5,1.1,1.1,1.1C79.7,19.5,80.2,19.1,80.2,18.5" /><path d="M80.7,21.1c0-0.6-0.5-1.1-1.1-1.1c-0.6,0-1.1,0.5-1.1,1.1c0,0.6,0.5,1.1,1.1,1.1C80.2,22.1,80.7,21.7,80.7,21.1" /><path d="M85.4,11.9c0.6,0,1.1-0.5,1.1-1.1c0-0.6-0.5-1.1-1.1-1.1c-0.6,0-1.1,0.5-1.1,1.1C84.3,11.4,84.8,11.9,85.4,11.9" /><path d="M82.7,12.7c0.6,0,1.1-0.5,1.1-1.1c0-0.6-0.5-1.1-1.1-1.1c-0.6,0-1.1,0.5-1.1,1.1C81.6,12.2,82.1,12.7,82.7,12.7" /><path d="M80.6,14.5c0.6,0,1.1-0.5,1.1-1.1c0-0.6-0.5-1.1-1.1-1.1c-0.6,0-1.1,0.5-1.1,1.1C79.5,14,80,14.5,80.6,14.5" /><path d="M88.2,12.1c0.6,0,1.1-0.5,1.1-1.1c0-0.6-0.5-1.1-1.1-1.1c-0.6,0-1.1,0.5-1.1,1.1C87.1,11.6,87.6,12.1,88.2,12.1" /><path d="M90.8,12.9c0.6,0,1.1-0.5,1.1-1.1c0-0.6-0.5-1.1-1.1-1.1c-0.6,0-1.1,0.5-1.1,1.1C89.7,12.4,90.2,12.9,90.8,12.9" /><path d="M93.3,14c0.6,0,1.1-0.5,1.1-1.1c0-0.6-0.5-1.1-1.1-1.1c-0.6,0-1.1,0.5-1.1,1.1C92.2,13.6,92.7,14,93.3,14" /><path d="M112.4,15.9c0,0.6,0.5,1.1,1.1,1.1c0.6,0,1.1-0.5,1.1-1.1c0-0.6-0.5-1.1-1.1-1.1C112.9,14.8,112.4,15.3,112.4,15.9" /><path d="M113.8,17.4c-0.6,0-1.1,0.5-1.1,1.1c0,0.6,0.5,1.1,1.1,1.1c0.6,0,1.1-0.5,1.1-1.1C114.9,17.9,114.4,17.4,113.8,17.4" /><path d="M113.3,20c-0.6,0-1.1,0.5-1.1,1.1s0.5,1.1,1.1,1.1c0.6,0,1.1-0.5,1.1-1.1S113.9,20,113.3,20" /><path d="M107.5,11.9c0.6,0,1.1-0.5,1.1-1.1c0-0.6-0.5-1.1-1.1-1.1c-0.6,0-1.1,0.5-1.1,1.1C106.5,11.4,107,11.9,107.5,11.9" /><path d="M110.2,12.7c0.6,0,1.1-0.5,1.1-1.1c0-0.6-0.5-1.1-1.1-1.1c-0.6,0-1.1,0.5-1.1,1.1C109.1,12.2,109.6,12.7,110.2,12.7" /><path d="M112.3,14.5c0.6,0,1.1-0.5,1.1-1.1c0-0.6-0.5-1.1-1.1-1.1c-0.6,0-1.1,0.5-1.1,1.1C111.2,14,111.7,14.5,112.3,14.5" /><path d="M104.7,12.1c0.6,0,1.1-0.5,1.1-1.1c0-0.6-0.5-1.1-1.1-1.1c-0.6,0-1.1,0.5-1.1,1.1C103.7,11.6,104.2,12.1,104.7,12.1" /><path d="M102.1,12.9c0.6,0,1.1-0.5,1.1-1.1c0-0.6-0.5-1.1-1.1-1.1c-0.6,0-1.1,0.5-1.1,1.1C101,12.4,101.5,12.9,102.1,12.9" /><path d="M98.5,13c0,0.6,0.5,1.1,1.1,1.1c0.6,0,1.1-0.5,1.1-1.1c0-0.6-0.5-1.1-1.1-1.1C99,11.9,98.5,12.4,98.5,13" /><path d="M94.6,18.8h1.2v-4.6c-0.4-0.1-0.8-0.2-1.2-0.4V18.8" /><path d="M98.3,13.8c-0.4,0.2-0.8,0.3-1.2,0.4v4.6h1.2V13.8" /><path d="M95.8,8.8V6c-1.3,0.3-2.4,1.4-2.6,2.7H95.8" /><path d="M97.2,8.8h2.6c-0.2-1.4-1.3-2.4-2.6-2.7V8.8" /><path d="M93.2,10.1c0.3,1.5,1.7,2.6,3.3,2.6c1.6,0,2.9-1.1,3.3-2.6H93.2" /><path d="M98.3,5.6c-0.8-0.6-1.4-1.5-1.5-2.4c0.9,0.2,1.9,0.8,2.4,1.5V1.1c-0.6,0.8-1.6,1.4-2.4,1.5c0.1-0.9,0.7-1.7,1.4-2.6h-3.6  c0.7,0.9,1.3,1.7,1.4,2.6c-0.9-0.2-1.9-0.8-2.4-1.5v3.7c0.6-0.8,1.6-1.4,2.4-1.5C96,4.1,95.4,5,94.6,5.6H98.3" /><path d="M98.4,82.4c-0.7,0-1.3-0.6-1.3-1.3c0-0.7,0.6-1.3,1.3-1.3c0.7,0,1.3,0.6,1.3,1.3C99.7,81.8,99.1,82.4,98.4,82.4 M92.1,80.5  c-0.8,0-1.4-0.6-1.4-1.4c0-0.8,0.6-1.4,1.4-1.4c0.8,0,1.4,0.6,1.4,1.4C93.5,79.8,92.9,80.5,92.1,80.5 M89.9,74l-0.4-0.3  c-0.6-0.5-1.2-0.5-1.8,0c-0.3,0.2-0.5,0.5-0.8,0.8L86.6,75l0.2,0.2c0.7,0.6,0.8,1.2,0.6,1.5c-0.1,0.1-0.2,0.2-0.4,0.3  c-0.3,0.1-0.8,0-1.3-0.3l-0.3-0.2l-0.2,0.3c0,0.1-0.1,0.1-0.1,0.2c-0.1,0.1-0.1,0.2-0.2,0.3c-0.3,0.5-0.4,0.9-0.4,1.2  c0,0.1,0,0.2,0,0.3c0.1,0.4,0.4,0.6,0.7,0.7l0.2,0.1c0.3,0.2,0.7,0.5,1.1,0.6c-0.6,0.3-1.2,0.4-1.8,0.1c-0.9-0.4-1.5-1.5-1.5-2  c0-0.8,0.4-1.8,1-2.8l0.1-0.2l-0.1-0.2c-0.2-0.3-0.4-0.6-0.5-0.9c0.3,0,0.7,0.1,1,0.2l0.2,0l0.1-0.1c0.4-0.4,1.8-1.9,3.1-1.9  c0.6,0,1.2,0.3,1.7,0.8c0.3,0.4,0.5,0.8,0.6,1.3C90.3,74.4,90.1,74.2,89.9,74 M102.2,79.1c-3.4-0.8-7.4-2.3-11.1-4l0,0  c0.1-0.8-0.2-1.6-0.8-2.3c-0.6-0.7-1.4-1-2.1-1c-0.3,0-0.7,0.1-1,0.2c-0.5-0.5-1.1-1-1.5-1.6c-1.4-1.7-2.5-3.6-3.3-5.7  c-0.4-1.2-0.8-2.5-1-3.8c-0.2,1.1-1.4,2.5-3.5,2.6c0-0.2,0-0.8-0.2-0.8c-0.6,0.6-1.4,1.3-3.3,0.6c0.3,1.5,0.7,3,1.2,4.4  c1.1,3,2.8,5.8,4.8,8.1c0.7,0.8,1.4,1.5,2.2,2.2c0,0.1,0,0.3,0,0.4c0,0.8,0.8,2,1.9,2.6c0.9,0.4,1.9,0.3,2.7-0.3  c1.6,0.9,3.7,1.7,6,2.3c2.5,0.7,5,1.1,6.9,1.1c1.6,0,3.8-0.8,6-2.1c0.9-0.5,1.7-1.1,2.3-1.7c0.1-0.1,0.2-0.1,0.2-0.2  C106.8,80.1,104.3,79.6,102.2,79.1" /><path d="M101.3,92.8c-0.2-0.5-0.6-0.7-0.9-0.7c-1.4,0-0.8,3.6-2.5,3.6c-0.7,0-1.1-0.5-1.1-1c0-0.5,0.4-0.7,0.4-1.1  c0-0.4-0.3-0.6-0.7-0.6c-0.4,0-0.7,0.1-0.7,0.6c0,0.4,0.4,0.6,0.4,1.1c0,0.5-0.4,1-1.1,1c-1.6,0-1.1-3.6-2.5-3.6  c-0.3,0-0.7,0.3-0.9,0.7c-0.3-0.5-0.4-1-0.4-1.4c0-0.7,0.5-1.6,1.6-1.6c1.8,0,1.4,2.5,2.3,2.5c0.4,0,0.7-0.2,0.7-0.6  c0-0.7-1.3-1.4-1.3-2.4c0-1,0.9-1.9,2-2.7c1,0.8,2,1.7,2,2.7c0,1-1.3,1.7-1.3,2.4c0,0.4,0.3,0.6,0.7,0.6c0.9,0,0.4-2.5,2.3-2.5  c1.1,0,1.6,0.9,1.6,1.6C101.7,91.7,101.6,92.3,101.3,92.8 M96.5,97.8c-0.5,0-0.9-0.4-0.9-0.9c0-0.5,0.4-0.9,0.9-0.9  c0.5,0,0.9,0.4,0.9,0.9C97.4,97.4,97,97.8,96.5,97.8 M100.1,89.1c-0.2,0-0.5,0-0.7,0.1v-4c-1.8-0.1-3.8-0.4-5.9-0.9v4.9  c-0.2-0.1-0.5-0.1-0.7-0.1c-1.4,0-2.3,1.2-2.3,2.3c0,1,0.6,2,1.1,2.6c0.3-0.6,0.5-1.1,0.9-1.1c0.7,0,0.4,3.5,2.4,3.6  c-0.1,0.2-0.1,0.4-0.1,0.6c0,0.9,0.7,1.6,1.6,1.6s1.6-0.7,1.6-1.6c0-0.2,0-0.4-0.1-0.6c2.1-0.1,1.7-3.6,2.4-3.6  c0.4,0,0.6,0.5,0.9,1.1c0.5-0.6,1.1-1.6,1.1-2.6C102.4,90.2,101.5,89.1,100.1,89.1" /><path d="M147.4,93.9c-0.1-0.2-0.3-0.3-0.5-0.3c-4.7,1.4-10.6-2.5-16.2-6.3c-4.8-3.2-9.3-6.2-13.1-6.2c-1.4,0-2.7,0.3-3.8,0.9  c-1.4,0.7-2.4,1.9-3,3.5c-0.6,1.6-1.3,2.7-1.9,3.5c-0.7,1-1.1,1.8-1.1,2.7c0,0.8,0.3,1.4,1,2.1c0.5,0.6,1.3,1.1,2.5,1.7  c0.2,0.1,0.5,0.2,0.7,0.4c0.9,0.5,1.5,0.8,1.6,1.3c-1.9,0.8-4.3,1.5-7,2c-3.1,0.5-6.5,0.8-10.1,0.8c-3.6,0-7-0.3-10.1-0.8  c-2.7-0.5-5.2-1.2-7-2c0.1-0.8,0.7-1.1,1.7-1.6c0.2-0.1,0.5-0.2,0.7-0.4c0.9-0.5,1.8-1,2.4-1.5c0.7-0.6,1-1.2,1-2  c0-0.9-0.5-1.7-1.1-2.7c-0.5-0.9-1.2-1.9-1.9-3.5c-0.6-1.6-1.7-2.7-3-3.5c-1.1-0.6-2.4-0.9-3.8-0.9c-3.9,0-8.4,3-13.1,6.2  C56.6,91.1,50.7,95,46,93.6c-0.2-0.1-0.4,0.1-0.5,0.3c-0.1,0.2,0,0.4,0.2,0.5c1.4,0.6,2.7,1.6,3.9,2.6c1.7,1.3,3.3,2.6,5.1,2.6  c1.7,0,3.5-0.5,5.7-1.7c1.9-1,3.9-2.3,5.8-3.6c3.7-2.5,7.6-5.2,11.2-5.5c-0.4,0.4-0.8,0.7-1.1,1c-1.1,1-2,1.8-2,3.5  c0,1.3,0.5,2.3,1.1,3.6c0.2,0.4,0.4,0.8,0.6,1.3c0.4,0.9,0.6,1.6,0.8,2.6c0.1,0.4,0.2,0.9,0.4,1.5c0.2,0.9,0.7,2.5,3.3,3.9  c3.1,1.6,8.5,2.4,15.9,2.4c7.5,0,12.8-0.8,15.9-2.4c2.7-1.4,3.1-3,3.3-3.9c0.2-0.6,0.3-1.1,0.4-1.5c0.2-1,0.4-1.7,0.8-2.6  c0.3-0.7,0.6-1.2,0.8-1.7c0.6-1.1,1-1.9,1-3.1c0-1.7-1-2.6-2.1-3.6c-0.4-0.3-0.7-0.7-1.1-1.1c3.7,0.3,7.5,2.9,11.2,5.5  c1.9,1.3,3.9,2.6,5.8,3.6c2.2,1.1,4,1.7,5.7,1.7c1.8,0,3.4-1.3,5.1-2.6c1.2-0.9,2.5-1.9,3.9-2.6C147.4,94.4,147.5,94.1,147.4,93.9" /><path d="M97.1,57.3V39.6c1.8,0.1,3.6,0.5,5.3,1.4c1.8,0.9,3.5,2.2,4.9,3.9c1.4,1.7,2.5,3.6,3.3,5.7c0.8,2.1,1.2,4.4,1.2,6.7H97.1   M96.5,32.2c-5,0-8.5,1.5-10.5,2.8c-1.2-0.7-1.7-1.4-1.7-2.2c0-2.9,8.1-3.1,12.2-3.1h0c4.1,0,12.2,0.3,12.2,3.1  c0,0.8-0.5,1.5-1.7,2.2C105,33.6,101.5,32.2,96.5,32.2 M96.2,57.3H81.1c0-2.3,0.4-4.6,1.2-6.7c0.8-2.1,1.9-4.1,3.3-5.7  c1.4-1.7,3.1-2.9,4.9-3.9c1.8-0.9,3.7-1.4,5.7-1.4V57.3z M119.1,56.1c-0.5-0.4-1.4-1.2-1.8-2.1c-0.6-1.2-2.9-5.8-3.3-6.4  c-0.3-0.5-0.5-1-0.5-1.4c0-0.5,0.2-0.9,0.5-1.2c0.2-0.2,0.7-0.7,0.9-1c0.1-0.2,0.3-0.4,0.4-0.5c-0.9-1.5-1.7-2.6-2.8-3.8  c-1.4-1.5-2.9-2.9-4.6-4c0.9-0.6,1.8-1.4,1.8-2.8c0-0.8-0.3-1.5-0.9-2c0.9-3,2.6-6.7,4.1-8.3l-3-1.3c0.8,1.2,0.8,2.6,0.7,3.4  c-0.8-0.5-1.5-1.3-1.7-2.3c-0.2,0.9-0.7,2.4-1.1,3.3c0.9-0.4,1.6-0.6,2.5-0.2c-0.5,0.7-1.8,1.8-3.8,1.3c-1.1-0.3-2.2-0.8-2.1-1.7  c0-0.5,0.4-1.1,1.1-1c0.7,0.1,0.7,1.1,0.5,1.5c0.9-0.5,1.8-3,0.4-3.4c-1.1-0.3-2,1.2-2.4,2.3c-0.2-1.4-0.8-2.6-1.8-2.6  c-1.4,0.1-0.9,2.7-0.4,3.3c0.1-0.9,0.6-1.4,1-1.4c0.4,0,0.9,0.3,0.8,1.1c-0.1,0.8-1.3,1.3-2.6,1.3c-1.3,0-3.5-0.4-3.7-2.9  c0.8,0.2,2.1,0.8,2.7,1.6c-0.2-1.5-0.2-2.6,0-4.1c-0.7,1-1.9,1.5-2.7,1.6c0.2-1.1,1.1-2.2,2.2-2.8h-5.5c1.1,0.7,2,1.8,2.2,2.8  c-0.8-0.1-1.9-0.6-2.6-1.6c0.2,1.5,0.2,2.6,0,4.1c0.5-0.8,1.8-1.4,2.6-1.6c-0.2,2.5-2.5,2.9-3.7,2.9c-1.3,0-2.5-0.5-2.6-1.3  c-0.1-0.8,0.4-1.1,0.8-1.1c0.4,0,0.9,0.4,1,1.4c0.5-0.7,0.9-3.2-0.5-3.3c-1.1-0.1-1.6,1.2-1.8,2.6c-0.4-1.1-1.3-2.6-2.4-2.3  c-1.4,0.4-0.5,2.9,0.4,3.4c-0.2-0.5-0.2-1.5,0.5-1.5c0.7-0.1,1,0.5,1.1,1c0,0.8-1,1.4-2.1,1.7c-2,0.5-3.3-0.6-3.8-1.3  c0.9-0.4,1.6-0.2,2.5,0.2c-0.5-0.9-1-2.4-1.1-3.3c-0.2,1-0.9,1.8-1.7,2.3c-0.2-0.8-0.1-2.2,0.7-3.4l-3,1.3c1.4,1.6,3.1,5.3,4.1,8.3  c-0.6,0.5-0.9,1.2-0.9,2c0,1.4,0.9,2.3,1.8,2.8c-1.7,1.1-3.2,2.4-4.6,4c-2.1,2.3-3.7,5-4.8,8.1c0.4,0.4,2.2,2.4,2.7,2.9  c0.8,0.9,1.2,1.9,1.2,2.6c0,1.4,0.3,1.9,1.1,2.8c0.2,0.3,0.6,1.4,0.6,2h15.1v16.4c-0.6,0-1.2,0.2-1.7,0.8c1.7,0.7,3.4,1.3,5.1,1.8  c0.2-1.1,0.4-1.7,0.9-2.4c0,0-2.2-0.2-3.4-0.3V58.1h14.7c-0.1,2.2-0.5,4.4-1.2,6.5c-0.8,2.1-1.9,4.1-3.3,5.7c-1.4,1.7-3.1,3-4.9,3.9  c-0.3,0.1-0.3,0.4-0.6,0.5c-0.3,0.3-0.5,0.8-0.7,1.3c-0.2,0.5-0.3,0.8-0.3,1.5c0.7,0.2,1.1,0.3,1.7,0.5c5.2,1.3,6.4,0.9,6.7,0.7l0,0  c1.2-0.9,2.2-1.9,3.2-3.1c2.1-2.3,3.7-5.1,4.8-8.1c1.2-3.1,1.8-6.5,1.8-9.9C119.1,57,119.1,56.8,119.1,56.1" /><path d="M105.3,46.7c-0.1,0.1-0.2,0.3-0.1,0.4c0,0.1,0.2,0.3,0.4,0.3c-0.2,0.1-0.3,0.3-0.3,0.6c0.3,0,0.5,0,0.7-0.2  c-0.1,0.3,0,0.4,0.2,0.5c0.1,0.1,0.3,0.1,0.4,0c1.1,1.8,1.9,3.9,2.2,6c-0.1-0.1-0.3-0.2-0.5-0.2c0,0.3,0.1,0.5,0.3,0.7h-3.7  c0-0.2-0.1-0.4-0.2-0.5c-0.1-0.1-0.3,0-0.5,0.2c0-0.2-0.1-0.4-0.3-0.6c-0.2,0.2-0.3,0.4-0.3,0.6c-0.2-0.2-0.3-0.2-0.5-0.2  c-0.1,0.1-0.3,0.3-0.2,0.5h-3.1c0.1-0.2,0.2-0.4,0.2-0.6c-0.3,0-0.5,0.1-0.6,0.2v-5.1c0.2,0,0.5-0.1,0.5-0.2c0.1-0.1,0-0.3-0.2-0.5  c0.2,0,0.4-0.1,0.6-0.3c-0.2-0.2-0.4-0.3-0.6-0.3c0.2-0.2,0.2-0.4,0.2-0.5c-0.1-0.2-0.3-0.3-0.5-0.2v-4.3c0.1,0.1,0.3,0.2,0.5,0.2  c0-0.3,0-0.5-0.1-0.6c1,0.3,1.9,0.8,2.8,1.4C103.5,44.8,104.5,45.7,105.3,46.7 M109.5,54.4c0.3,0.2,0.2,0.6-0.2,0.5  c-0.3-2.7-1.3-5.3-2.8-7.5c0,0,0,0,0,0c0.3-0.1,0.6-0.3,0.6-0.8c-0.5-0.1-0.8,0.2-0.9,0.4c-0.1-0.1-0.2-0.3-0.3-0.4  c-0.9-1.2-2-2.2-3.2-3c-1.1-0.7-2.3-1.3-3.5-1.6c0-0.3,0.4-0.3,0.5-0.1c0-0.5-0.4-0.7-0.6-0.6c-0.1,0-0.2,0.2-0.3,0.4  c-0.1-0.2-0.4-0.3-0.7-0.4c0,0.3,0.1,0.5,0.2,0.7c-0.2,0-0.3,0.1-0.4,0.2c-0.1,0.2,0,0.7,0.5,0.7c-0.2-0.2-0.1-0.5,0.2-0.5v5.8  c-0.3-0.1-0.6-0.1-1,0.2c0.3,0.3,0.7,0.3,1,0.2v6.3c-0.3,0-0.4-0.4-0.1-0.5c-0.5,0-0.7,0.4-0.6,0.6c0.1,0.1,0.2,0.3,0.5,0.2  c-0.1,0.2-0.2,0.4-0.3,0.7c0.3,0,0.5-0.1,0.7-0.3c0,0.3,0.1,0.4,0.2,0.5c0.2,0.1,0.6-0.1,0.6-0.6c-0.2,0.2-0.5,0.2-0.5-0.1h4.3  c-0.1,0.3,0,0.6,0.2,1c0.3-0.3,0.3-0.7,0.3-1h4.8c0,0.3-0.4,0.4-0.5,0.2c0,0.5,0.4,0.7,0.7,0.5c0.1-0.1,0.3-0.2,0.2-0.5  c0.2,0.1,0.4,0.2,0.7,0.2c0-0.3-0.1-0.5-0.3-0.7c0.3,0,0.4-0.1,0.5-0.2C110.2,54.8,110,54.4,109.5,54.4" /><path d="M106.9,52.8c0.2-0.1,0.3-0.2,0.4-0.4c-0.2,0.1-0.4,0-0.4-0.1c0.1-0.1,0.3,0,0.1-0.3c-0.2-0.3-0.3-0.3-0.5-0.1  c-0.2,0.2-1.3-0.1-1.3-0.9c0.1,0.2,0.2,0.3,0.4,0.3c0,0,0.1,0,0.1,0.1c0.1,0,0.1,0,0.2,0c0.1,0,0.2,0.1,0.3,0.1c0,0,0.1,0,0.1,0v0  c0.2-0.1,0.4-0.2,0.5-0.5c0-0.5-0.4-0.7-0.9-1.1c-0.2-0.2-0.3-0.3-0.5-0.4c-0.2-0.3-0.1-0.7-0.5-1.3c0-0.2-0.1-0.3-0.1-0.6  c-0.2,0.4-0.3,1.2,0.3,1.9c0.5,0.5,1.5,1,1.5,1.5c0,0.1-0.1,0.2-0.3,0.2c0,0-0.1,0-0.1,0c0,0-0.1,0-0.1,0c-0.1,0-0.1-0.1-0.2-0.1  c-0.1-0.1-0.2-0.1-0.4-0.3c-0.4-0.4-0.8-1-1.1-1.3c-0.5-0.6-0.3-1.2-0.2-1.7c0.3-0.5-0.2-1.4-0.5-1.7c0,0,0.1-0.2,0-0.5  c-0.1,0.1-0.2,0-0.3,0c-0.1-0.2-0.1-0.2-0.2-0.2c-0.2,0-0.2-0.2-0.2-0.2c-0.1,0.1-0.2,0.2-0.3,0.2c-0.2,0-0.2,0-0.3,0.1  c-0.1,0.1-0.2,0.1-0.4,0.1c-0.2,0-0.2,0.1-0.2,0.3c0,0.1,0,0.2,0.1,0.3c0,0,0,0,0.1,0l0.2,0.2l0.1-0.2c0.1-0.1,0.3-0.1,0.4,0.1  c0,0.1,0.1,0.2-0.1,0.2c-0.2,0-0.3,0-0.4,0c-0.1,0-0.1,0.1-0.1,0.2c0,0.1,0.1,0.2,0.4,0.1c0.2-0.1,0.6-0.1,0.6,0.1  c0,0.5-0.6,0.5-0.7,1.1c-0.2-0.1-0.3-0.2-0.4-0.3c-0.1-0.2-0.2-0.3-0.4-0.5c-0.1-0.1-0.3-0.3-0.4-0.4c-0.2-0.1-0.2-0.2-0.2-0.4  c0-0.2,0.1-0.4,0.1-0.5c0,0,0-0.1,0-0.2c0-0.1-0.2-0.2-0.3-0.2c0,0,0.1,0.1,0.1,0.2c0,0-0.1,0.1-0.1,0.1c0,0-0.1,0.1,0,0.2  c0,0,0,0,0,0c0,0,0,0.1,0,0.1c0,0,0,0,0,0c-0.1-0.1-0.1-0.3-0.2-0.3c0,0-0.1,0-0.1,0c0,0,0,0,0,0c0-0.1-0.2-0.2-0.3-0.1  c0,0,0.1,0,0.1,0.1c0,0,0,0.1,0,0.1c0,0.1,0.1,0.2,0.2,0.2c0,0,0,0,0,0c0,0,0,0,0,0.1c0,0,0,0,0,0c-0.2-0.1-0.3,0-0.4,0.1  c0,0,0,0.1,0,0.1c-0.1,0.1-0.1,0.2,0.1,0.3c0,0,0-0.1,0-0.2c0,0,0,0,0,0c0,0,0.1,0.1,0.1,0.1c0,0,0.1,0,0.1,0c0,0,0,0,0.1,0  c0,0,0,0,0.1,0c0,0,0,0,0,0c-0.2,0.2-0.1,0.3,0.1,0.3c-0.1,0.2-0.4,0.1-0.4-0.1c-0.2,0.3,0.1,0.6,0.4,0.4c0,0.1,0,0.4,0.1,0.4  c0,0,0-0.1,0.1-0.1c0,0,0,0,0,0c0,0.1,0,0.2,0.1,0.2c0-0.1,0-0.1,0-0.1c0,0.1,0.1,0.2,0.1,0.2c0.1,0.2,0.4,0.9,1,1.1  c-0.3,0.2-0.5,0.5-0.7,0.7c-0.2,0.2-0.4,0.4-0.6,0.3c-0.1-0.1-0.1-0.1-0.2-0.2c-0.1-0.1-0.1-0.1-0.2-0.1c0,0-0.1,0-0.1,0  c-0.1,0-0.3,0-0.3,0.1c0.1,0,0.1,0,0.2,0c0,0,0,0.1,0,0.1c0,0.1,0.1,0.2,0.4,0.1c0,0,0.1,0,0,0c0,0-0.1,0.1-0.2,0.1  c-0.1,0-0.2-0.2-0.3,0c0,0,0,0.1-0.1,0.1c0,0,0,0,0,0c-0.1,0-0.2,0.3-0.1,0.4c0,0,0-0.1,0.1-0.2c0,0,0.1,0.1,0.1,0.1  c0.1,0.1,0.2,0.2,0.4-0.1c0,0,0,0,0,0c0,0.2-0.2,0.4,0,0.4c0,0,0.1,0,0.1,0c0,0,0,0,0,0c0,0.2,0.3,0.2,0.4,0.2  c-0.1,0-0.2-0.1-0.2-0.2c0,0,0.1,0,0.1,0c0.1-0.1,0-0.3,0-0.3c0,0,0,0,0,0c0,0.1,0.1,0.2,0.3,0.1c0.1-0.1,0.1-0.1,0.1-0.2  c0.2-0.1,0.4-0.2,0.6-0.1c0-0.1,0.1-0.3,0.3-0.3c0.2-0.1,0.3,0,0.4,0.1c0-0.1,0.1-0.3,0.2-0.4c0,0.9,1.2,0.9,1.5,1.4  c-0.4-0.2-0.8-0.2-1-0.2c-0.3,0.1-0.8,0.3-0.9,0.7c-0.1,0.3,0.2,0.8,0.5,1c-0.4,0.1-0.5,0-0.8,0c0,0,0,0,0,0c-0.3,0-0.3-0.5-0.7-0.3  c0,0-0.1,0-0.1,0.1h0c-0.1,0-0.3,0.2-0.3,0.3c0,0,0.1-0.1,0.2-0.1c0,0,0,0.1,0,0.1c0,0.1,0,0.1,0.1,0.1c0.1,0,0.1,0,0.1,0  c0,0,0,0,0,0c0,0.1-0.4-0.1-0.3,0.3c0,0,0,0.1,0.1,0.1c0,0.1,0.1,0.2,0.3,0.2c0,0-0.1-0.1-0.1-0.1c0,0,0.1,0,0.1,0c0,0,0,0,0-0.1  c0,0,0,0,0,0c0,0,0,0,0,0c0,0,0,0,0,0.1c0,0,0,0.1,0,0.1c0,0.1,0.2,0.3,0.4,0.1c-0.1,0-0.2,0-0.2-0.1c0,0,0.1,0,0.1,0  c0,0,0-0.1,0-0.1c0,0,0,0,0,0c0,0,0.1,0,0.1,0c0,0,0,0,0.1,0c0,0.1,0.1,0.1,0.3,0.1c0.1,0,0.1-0.1,0.1-0.1c0.1,0,0.1,0.1,0.2,0.1  c0-0.1,0.1-0.2,0.3-0.1l0.2-0.2c0,0,0.3,0.1,0.4,0c0.2-0.2,0.1-0.2,0.1-0.3c-0.1-0.3-0.2-0.2-0.3-0.5c-0.1-0.5,0.5-0.7,0.9-0.6  c0.1,0.3,0.5,1.1,1.2,1.3c0.4,0.1,0.6-0.3,0.7-0.3c0,0,0.1,0.1,0.1,0.1c0,0.2,0,0.4,0,0.5c0,0.1-0.3,0-0.4,0c-0.1,0-0.2,0.1-0.2,0.1  c-0.1,0-0.3,0.1-0.3,0.3c0.1,0,0.1-0.1,0.2-0.1c0,0,0,0,0,0.1c0,0.2,0.2,0.2,0.3,0.1c0,0,0.1,0,0,0c-0.1,0.1-0.3,0.3-0.1,0.3  c0,0,0.1,0,0.1,0c0,0.1,0.1,0.2,0.2,0.2c0-0.1,0-0.1,0-0.2c0,0,0.1,0,0.1,0c0.1,0,0.1-0.2,0.2-0.3c0,0,0,0,0,0c0,0.1-0.1,0.3,0,0.3  c0,0,0.1,0,0.1,0c0,0.1,0.2,0.2,0.3,0.1c0,0-0.1-0.1-0.2-0.1c0,0,0.1-0.1,0.1-0.1c0.1-0.3-0.2-0.3-0.2-0.4c0-0.1,0.3-0.1,0.3-0.3  c0,0,0,0,0,0c0.1-0.1,0.3-0.2,0.3-0.3C107.1,52.9,106.9,52.8,106.9,52.8L106.9,52.8" /><path d="M93.2,61L93,61c-0.2,0-0.5,0.1-0.6,0.4c0,0.3,0.2,0.5,0.5,0.5l0.1,0c0,0.1,0,0.1,0,0.2c-0.1,0.4-0.2,1.2-0.3,2.1L90.5,61  c1-0.4,1.9-0.9,2.4-0.9C93.2,60.1,93.3,60.3,93.2,61 M92.4,66.6l-3.5-5.1c0.4-0.1,0.8-0.2,1.1-0.3l2.7,3.8  C92.5,65.5,92.4,66,92.4,66.6 M92,68.9l-5-7.2c0.2,0,0.3,0,0.5,0c0.3,0,0.5,0,0.8-0.1l4,5.8C92.1,67.9,92.1,68.5,92,68.9 M86.3,61.7  l5.5,7.9C88.9,68.5,85.9,65.8,86.3,61.7 M94.5,61.1l-0.3,0l0-0.2c0-0.9-0.5-1.5-1.4-1.5c-0.8,0-2.5,1.1-4.8,1.1  c-1,0-2.1-0.5-2.9-0.9l-0.3,0.7c0,0,0,0,0-0.1c0-0.3-0.3-0.6-0.6-0.6c-0.3,0-0.6,0.3-0.6,0.6c0,0.3,0.3,0.6,0.6,0.6  c0.2,0,0.3-0.1,0.4-0.2l-0.3,0.7c0.1,0,0.2,0.1,0.3,0.1c-0.3,3.5,2.2,7.9,6.8,9.2c0.7-0.2,1.4-0.1,1.4,0.7c0,0.4-0.2,0.6-0.6,0.6  c-0.3,0-0.4-0.2-0.4-0.3c0-0.3,0.5-0.1,0.6-0.3c0.1-0.3-0.1-0.4-0.4-0.4c-0.3,0-0.8,0.2-0.8,0.7c0,0.6,0.5,1,1,1  c0.5,0,1.6-0.3,1.4-1.5c0.2,0,0.5,0,0.6-0.3l0.1-0.7l-0.2,0l0.2-7.9l0.2,0c0.3,0,0.5-0.1,0.6-0.4C95,61.3,94.8,61.1,94.5,61.1" /><path d="M90.5,44.3c0-0.1,0.1-0.1,0.1-0.1c0.1,0,0.1,0,0.1-0.1c0-0.1,0-0.1-0.1-0.1c0.1,0,0.1,0,0.1-0.1c0,0-0.1,0-0.1,0  c0,0,0-0.1,0.1-0.1c0,0,0.1,0,0.1,0L91,44c0,0,0.1,0,0.1,0.1c0,0,0,0.1,0,0.1c0,0,0-0.1-0.1-0.1c0,0,0,0,0,0.1c-0.1,0-0.1-0.1-0.2,0  c0,0.1,0,0.1,0,0.1c0,0,0,0.1,0,0.1c0,0.1-0.1,0.2-0.2,0.1C90.4,44.5,90.5,44.4,90.5,44.3 M90.8,43.6c0,0.1-0.2,0.1-0.2,0.1  c-0.1-0.1,0-0.1-0.1-0.2C90.6,43.5,90.8,43.6,90.8,43.6 M91,43.7c0,0,0.2,0.1,0.4,0.1c-0.2,0-0.1,0.1-0.2,0.1  C91.1,43.9,91,43.8,91,43.7 M90.3,43.9C90.3,43.9,90.3,43.9,90.3,43.9C90.3,43.9,90.3,43.9,90.3,43.9 M93.5,45.1  c1.1,0,1.6-0.3,1.6-0.7c0-1.2-3-0.5-3-1.2c0-0.1,0.1-0.2,0.2-0.3h0c1.5-0.1,1.5-1.2,2.6-1.4c-1.3-0.2-1.5,0.8-2,0.9  c0.3-0.1,0.4-0.5,0.4-0.6c-0.3,0.3-0.8,0.4-1.2,0.8c-0.1,0.1-0.1,0.1-0.1,0.2c-0.2,0.1-0.3,0.3-0.3,0.4c0,1.1,3,0.4,3,1.2  c0,0.3-0.5,0.5-1.3,0.5c-0.6,0-1.1-0.4-2.2-0.1c0-0.2,0.4-0.6,0.2-0.7c0.1,0,0.2-0.1,0.2-0.2c-0.1-0.1-0.1-0.1-0.2-0.1  c0-0.1,0-0.1-0.1-0.2c0,0,0-0.1-0.1-0.2c0,0-0.1-0.1-0.3-0.2c-0.1-0.1-0.2-0.1-0.3-0.1c0,0-0.2,0-0.2,0c-0.1,0-0.1,0-0.2,0.1  c-0.1-0.1-0.1-0.1-0.2-0.1c0,0.1-0.1,0.2,0,0.3c-0.1,0-0.2,0.3-0.3,0.3c0,0.1,0.1,0.1,0.1,0.1c-0.1,0.2-0.1,0.3-0.2,0.4  c0,0,0.1,0.1,0.1,0.1c-0.1,0.2-0.1,0.5-0.2,0.7h0c-0.1-0.1-0.1-0.1-0.2-0.2c-0.2-0.1-0.2-0.2-0.1-0.4c0-0.1,0.1-0.3,0.1-0.4  c0,0,0-0.1,0-0.1c0-0.1-0.1-0.2-0.2-0.2c0,0,0.1,0.1,0.1,0.2c0,0-0.1,0.1-0.1,0.1c0,0-0.1,0.1,0,0.2c0,0,0,0,0,0c0,0,0,0,0,0.1  c0,0,0,0,0,0c0-0.1-0.1-0.3-0.2-0.3c0,0-0.1,0-0.1,0c0,0,0,0,0,0c0-0.1-0.1-0.2-0.3-0.1c0,0,0.1,0,0.1,0c0,0,0,0.1-0.1,0.1  c0,0.1,0.1,0.2,0.2,0.2c0,0,0,0,0,0c0,0,0,0,0,0.1c0,0,0,0,0,0c-0.2-0.1-0.3,0-0.3,0.1c0,0,0,0.1,0,0.1c-0.1,0-0.1,0.1,0,0.2  c0,0,0-0.1,0.1-0.1c0,0,0,0,0,0c0,0,0,0.1,0,0.1c0,0,0.1,0,0.1,0c0,0,0,0,0.1,0c0,0,0,0,0.1,0c0,0,0,0,0,0c-0.2,0.1-0.2,0.3,0,0.3  c0,0,0,0,0,0c-0.1,0.2-0.4,0.2-0.3-0.1c-0.2,0.3,0.1,0.5,0.4,0.4c0,0,0,0,0,0c0,0,0,0.1,0.1,0.1c0,0,0-0.1,0.1-0.1c0,0,0,0,0,0  c0,0.1,0,0.1,0.1,0.2c0-0.1,0-0.1,0.1-0.1c0,0,0.1,0.2,0.3,0.4c-0.2,0.1-0.6,0.2-0.7,0.2c-0.1,0-0.4,0-0.5,0  c-0.2,0.1-0.6,0.2-0.7,0.1c0-0.1,0-0.1-0.1-0.2c0-0.1-0.1-0.1-0.1-0.1c0,0-0.1,0-0.1,0c-0.1-0.1-0.2-0.1-0.3,0c0.1,0,0.1,0,0.2,0.1  c0,0,0,0.1-0.1,0.1c0,0.1,0,0.1,0.3,0.2c0,0,0,0,0,0c0,0-0.1,0-0.2,0c-0.1-0.1-0.1-0.2-0.2-0.1c0,0,0,0-0.1,0c0,0,0,0,0,0  c-0.1,0-0.3,0.1-0.2,0.3c0,0,0.1-0.1,0.1-0.1c0,0,0,0.1,0,0.1c0,0.1,0.1,0.2,0.4,0.1c0,0,0,0,0,0c-0.1,0.1-0.2,0.2-0.1,0.3  c0,0,0,0,0.1,0c0,0,0,0,0,0c0,0.2,0.1,0.3,0.2,0.3c0,0-0.1-0.1-0.1-0.2c0,0,0.1,0,0.1,0c0.1-0.1,0.1-0.2,0.1-0.3c0,0,0,0,0,0  c0,0.1,0,0.2,0.2,0.2c0.1,0,0.2-0.1,0.2-0.2c0,0,0,0,0,0c0.1,0,0.1,0.1,0.1,0.2c0,0,0.1-0.1,0.1-0.1c0,0.1,0,0.2-0.1,0.3  c0.1,0,0.2-0.1,0.3-0.3c0,0,0,0.1,0.1,0.1c0,0,0,0,0,0c0.1,0,0.2,0,0.3,0c0,0,0,0,0,0c0,0.1,0,0.1,0,0.2c0,0,0-0.1,0.1-0.1  c0,0,0,0.2,0.1,0.3c0-0.4,0.3-0.2,0.5-0.4c0,0,0,0,0,0c0,0-0.1,0.1-0.1,0.1c0.1,0,0.3-0.1,0.3-0.2c0,0,0.1-0.1,0.2-0.1  c0.1,0,0.2,0,0.3-0.1c0,0,0.1,0.2,0,0.2c0.3,0,0.5-0.3,0.6-0.3c0.6-0.1-0.4-0.5,0.8-0.5c0.1,0,0.3-0.1,0.3-0.1  C92,45.6,92,46,92.2,46c0.1,0,0.2,0.1,0.3,0.1c0,0,0,0,0,0c-0.1,0-0.2,0-0.2,0.1c-0.3,0.2-0.3-0.4-0.6-0.3c0,0-0.1,0-0.1,0.1  c-0.1,0-0.3,0.1-0.2,0.3c0,0,0.1-0.1,0.2-0.1c0,0,0,0.1,0,0.1c0,0,0,0.1,0.1,0.1c0.1,0,0.1,0,0.1,0c0,0,0,0,0,0  c0,0.1-0.4-0.1-0.3,0.2c0,0,0,0.1,0.1,0.1c0,0.1,0.1,0.2,0.2,0.1c0,0-0.1-0.1-0.1-0.1c0,0,0.1,0,0.1,0c0,0,0,0,0-0.1c0,0,0,0,0,0  c0,0,0,0,0,0c0,0,0,0,0,0.1c0,0,0,0.1,0,0.1c0,0.1,0.1,0.2,0.3,0.1c0,0-0.1,0-0.2-0.1c0,0,0.1,0,0.1,0c0,0,0-0.1,0-0.1c0,0,0,0,0,0  c0,0,0.1,0,0.1,0c0,0,0,0,0.1,0c0,0.1,0.1,0.1,0.2,0.1c0.2-0.1,0-0.2,0.2-0.3c0,0,0.1,0,0.1,0c0.2,0,0.4,0,0.4,0  c0-0.1,0-0.3-0.1-0.4c-0.1,0,0-0.2-0.1-0.3c0.2,0.1,0.3,0.1,0.6,0.1c0.4,0,0-0.1,0.2-0.2c0.2-0.1,0.4-0.1,0.5-0.1  c0.1,0,0.1,0,0.1,0.1c0,0.2,0,0.2,0,0.3c0,0.1-0.2,0-0.3,0c-0.1,0-0.1,0-0.1,0.1c-0.1,0-0.2,0.1-0.2,0.2c0,0,0.1-0.1,0.2-0.1  c0,0,0,0,0,0c0,0.2,0.2,0.2,0.3,0.1c0,0,0.1,0,0,0c-0.1,0.1-0.2,0.2-0.1,0.3c0,0,0,0,0.1,0c0,0.1,0.1,0.2,0.1,0.2c0,0,0-0.1,0-0.2  c0,0,0.1,0,0.1,0c0.1,0,0.1-0.2,0.2-0.2c0,0,0,0,0,0c0,0.1-0.1,0.2,0,0.3c0,0,0,0,0.1,0c0,0.1,0.1,0.1,0.2,0.1c0,0-0.1,0-0.1-0.1  c0,0,0.1-0.1,0.1-0.1c0.1-0.2-0.1-0.2-0.1-0.3c0-0.1,0.2,0,0.2-0.3c0,0,0-0.1-0.1-0.1c0,0,0,0,0,0h0c0.1,0,0.1,0,0.2-0.1  c-0.2,0-0.1-0.1-0.1-0.2c0,0,0,0,0,0c0.1,0,0.1-0.1,0.1-0.2c-0.1,0.1-0.2,0.2-0.3,0c0,0,0-0.1-0.2-0.1  C94.2,45.3,94.1,45.2,93.5,45.1C93.5,45.1,93.5,45.1,93.5,45.1" /><path d="M88.7,50.8C88.7,50.7,88.7,50.7,88.7,50.8C88.7,50.7,88.7,50.8,88.7,50.8 M87.8,48.9c0-0.1,0.1-0.1,0.1-0.1  c0.1,0,0.1,0,0.1-0.1c0-0.1,0-0.1-0.1-0.2c0.1,0,0.1-0.1,0.1-0.1c-0.1,0-0.1,0-0.1,0c0,0,0-0.1,0.1-0.1c0,0,0.1,0,0.1,0l0.3,0.2  c0,0,0.1,0,0.1,0.1c0,0,0,0.1,0,0.1c0,0,0-0.1-0.1-0.1c-0.1,0-0.1,0.1,0,0.1c-0.1,0-0.2-0.1-0.2,0c0,0.1,0,0.1,0,0.2  c0,0,0,0.1,0,0.2c0,0.1-0.1,0.2-0.2,0.1C87.8,49.1,87.8,49,87.8,48.9 M88.2,48.1c-0.1,0.1-0.2,0.2-0.3,0.1c-0.1-0.1,0-0.1-0.1-0.3  C88,47.9,88.2,48.1,88.2,48.1 M88.5,48.2c0,0,0.3,0.1,0.4,0.2c-0.2,0-0.1,0.1-0.3,0.1C88.5,48.5,88.5,48.3,88.5,48.2 M86.8,49.7  C86.8,49.7,86.8,49.7,86.8,49.7C86.8,49.7,86.8,49.7,86.8,49.7 M95,49.1c0-0.3-0.4-0.5-1.4-0.5c-1.1,0-3.4,0.4-3.4-0.2  c0-0.3,0.5-0.3,1-0.2c0,0,0.1,0.1,0.2,0.1c1.4,0.4,3-0.3,3.8-0.1c-1-0.7-1.8,0-2.8-0.2c0.6,0,0.8-0.2,0.8-0.3  c-0.5,0.3-1.4-0.2-1.9,0.2c0,0-0.1,0.1-0.1,0.1c-0.8,0-1.4,0-1.4,0.5c0,1.1,2.8,0.4,3.7,0.4c0.9,0,1.1,0.1,1.1,0.3  c0,0.3-0.9,0.3-1.4,0.3c-0.8,0-3.1-0.4-4.5-0.1c0.1-0.2,0.4-0.5,0.2-0.7c0.1,0,0.2-0.2,0.2-0.3c-0.1-0.1-0.2-0.1-0.3-0.1  c0-0.1,0-0.1-0.1-0.2c0,0,0-0.2-0.1-0.2c-0.1,0-0.2-0.1-0.3-0.2c-0.2-0.1-0.3-0.1-0.3-0.1c0,0-0.2,0-0.2,0c-0.1,0-0.2,0-0.2,0.1  c-0.1-0.1-0.2-0.1-0.2-0.1c-0.1,0.1-0.1,0.2,0,0.4c-0.1,0-0.3,0.3-0.4,0.3c0,0.1,0.1,0.1,0.1,0.1c-0.1,0.2-0.1,0.4-0.3,0.4  c0.1,0.1,0.1,0.1,0.2,0.2c0,0.1,0,0.3,0,0.4L87,49.2c0,0,0,0-0.1,0c0,0-0.1,0-0.1,0c0,0,0.1,0,0.1,0l-0.1,0  c-0.1-0.1-0.3-0.3-0.5-0.4c-0.2-0.1-0.2-0.2-0.2-0.4c0-0.2,0.1-0.4,0.1-0.5c0,0,0-0.1,0-0.2c0-0.1-0.2-0.2-0.3-0.2  c0,0,0.1,0.1,0.1,0.2c0,0-0.1,0.1-0.1,0.1c0,0.1-0.1,0.1,0,0.2c0,0,0,0,0,0c0,0,0,0,0,0.1c0,0,0,0,0,0c0-0.1-0.1-0.3-0.2-0.3  c0,0-0.1,0-0.1,0c0,0,0,0,0,0c0-0.1-0.1-0.2-0.3-0.1c0,0,0.1,0,0.1,0.1c0,0,0,0.1,0,0.1c0,0.1,0.1,0.2,0.2,0.2c0,0,0,0,0,0  s0,0,0,0.1c0,0,0,0,0,0c-0.2-0.1-0.3,0-0.3,0.1c0,0,0,0.1,0,0.1c-0.1,0.1-0.1,0.2,0,0.3c0-0.1,0-0.1,0.1-0.2c0,0,0,0,0,0  c0,0,0,0.1,0.1,0.1c0,0,0.1,0,0.1,0c0,0,0,0,0.1,0c0,0,0,0,0.1,0c0,0,0,0,0,0c-0.2,0.2-0.2,0.3,0.1,0.3c0,0,0,0,0,0  c0,0.3-0.4,0.2-0.4-0.1c-0.2,0.3,0.1,0.6,0.4,0.4c0,0,0,0,0,0c0,0.1,0,0.1,0.1,0.1c0,0,0-0.1,0.1-0.1c0,0,0,0,0,0  c0,0.1,0,0.2,0.1,0.2c0-0.1,0-0.1,0-0.1c0.1,0,0.2,0.2,0.4,0.4c0.2,0.1,0.3,0.3,0.5,0.2c0,0.2,0.2,0.4,0.1,0.4c-0.1,0-0.6,0-0.7,0  c-0.2,0.1-0.7,0.3-0.8,0.1c-0.1-0.1,0-0.1-0.1-0.2c0-0.1-0.1-0.1-0.2-0.1c0,0-0.1,0-0.1,0c-0.1-0.1-0.3-0.1-0.3,0  c0.1,0,0.1,0,0.2,0.1c0,0,0,0.1-0.1,0.1c0,0.1,0,0.2,0.3,0.3c0,0,0,0,0,0c0,0-0.1,0-0.2,0c-0.1-0.1-0.1-0.2-0.3-0.1c0,0-0.1,0-0.1,0  c0,0,0,0,0,0c-0.1,0-0.3,0.2-0.3,0.3c0,0,0.1-0.1,0.2-0.1c0,0,0,0.1,0,0.1c0,0.2,0.1,0.3,0.4,0.1c0,0,0,0,0,0  c-0.1,0.1-0.3,0.3-0.1,0.4c0,0,0,0,0.1,0.1c0,0,0,0,0,0c0,0.2,0.2,0.3,0.3,0.3c0,0-0.1-0.1-0.1-0.3c0,0,0.1,0,0.1,0  c0.2-0.1,0.1-0.3,0.2-0.3c0,0,0,0,0,0c0,0.1,0.1,0.3,0.2,0.2c0.2,0,0.3-0.2,0.2-0.3c0,0,0,0,0,0c0.1,0,0.1,0.1,0.1,0.2  c0,0,0.1-0.1,0.1-0.1c0,0.1,0,0.2-0.1,0.3c0.1,0,0.3-0.1,0.3-0.3c0,0,0.1,0.1,0.1,0.1c0,0,0,0,0,0c0.1,0,0.2,0,0.4,0c0,0,0,0,0,0  c0,0.1,0,0.1,0,0.2c0,0,0.1-0.1,0.1-0.1c0.1,0,0,0.2,0.1,0.3c0-0.5,0.3-0.3,0.6-0.5c0,0,0,0,0,0c0,0.1-0.1,0.1-0.1,0.2  c0.3,0.1,0.8-0.4,0.9-0.6c0.1,0,0.2,0,0.3,0c0.9,0.1,0.3-0.8,1.8-0.6c0.1,0,0.3-0.1,0.4-0.2c-0.1,0.2-0.1,0.6,0.1,0.6  c0.1,0,0.3,0.1,0.4,0.2c0,0,0,0,0,0c-0.1,0-0.2,0-0.3,0.1C91,51,91,50.3,90.7,50.5c0,0-0.1,0-0.1,0.1c-0.1,0-0.3,0.2-0.3,0.3  c0,0,0.1-0.1,0.2-0.1v0.1c0,0,0,0.1,0.1,0.1c0.1,0,0.1,0,0.1,0c0,0,0,0,0,0c0,0.1-0.4-0.1-0.3,0.3c0,0,0,0.1,0.1,0.1  c0,0.1,0.1,0.2,0.3,0.2c0,0-0.1-0.1-0.1-0.1c0,0,0.1,0,0.1,0c0,0,0,0,0-0.1c0,0,0,0,0,0c0,0,0,0,0,0c0,0,0,0,0,0.1c0,0,0,0.1,0,0.1  c0,0.1,0.2,0.3,0.4,0.1c-0.1,0-0.2,0-0.2-0.1c0,0,0.1,0,0.1,0c0,0,0-0.1,0-0.1c0,0,0,0,0,0c0,0,0.1,0,0.1,0c0,0,0.1,0,0.1,0  c0,0.1,0.1,0.2,0.3,0.1c0.2-0.1,0-0.3,0.2-0.3c0,0,0.1,0,0.1,0c0.2,0,0.4,0,0.5,0c0.1-0.1,0-0.4-0.2-0.5c-0.1-0.1,0-0.2-0.1-0.4  c0.2,0.1,0.4,0.2,0.7,0.2c0.5,0,0.6-0.1,0.8-0.2c0.2-0.1,0.5-0.1,0.6-0.1c0.1,0,0.1,0,0.1,0.1c-0.1,0.3,0,0.3,0,0.4  c0,0.1-0.3,0-0.4,0c-0.1,0-0.1,0-0.2,0.1c-0.1,0-0.3,0.1-0.2,0.3c0,0,0.1-0.1,0.2-0.1c0,0,0,0.1,0,0.1c0,0.2,0.2,0.2,0.3,0.1  c0,0,0.1,0,0,0c-0.1,0.1-0.3,0.2-0.1,0.3c0,0,0,0,0.1,0.1c0,0.1,0.1,0.2,0.2,0.2c0-0.1,0-0.1,0-0.2c0,0,0.1,0,0.1,0  c0.1,0,0.1-0.2,0.2-0.3c0,0,0,0,0,0c0,0.1-0.1,0.3,0.1,0.3c0,0,0.1,0,0.1,0c0,0.1,0.1,0.2,0.3,0.1c0,0-0.1-0.1-0.1-0.1  c0,0,0.1-0.1,0.1-0.1c0.1-0.3-0.1-0.3-0.1-0.4c0-0.1,0.3,0,0.3-0.3c0,0,0-0.1-0.1-0.2c0,0,0,0,0,0h0c0.1,0,0.1,0,0.2-0.1  c-0.2,0-0.1-0.1-0.2-0.3c0,0,0,0,0,0c0.1,0,0.1-0.1,0.1-0.3c-0.1,0.1-0.3,0.2-0.3,0c0,0,0-0.1-0.2-0.1c-0.3,0-0.5,0-1.1-0.1  C94,49.7,95,49.5,95,49.1" /><path d="M86.6,53.6c0-0.1,0.1-0.1,0.1-0.1c0.1,0,0.1,0,0.1-0.1c0-0.1,0-0.1-0.1-0.2c0.1,0,0.1-0.1,0.1-0.1c0,0-0.1,0-0.1,0  c0,0,0-0.1,0.1-0.1c0,0,0.1,0,0.1,0l0.3,0.2c0,0,0.1,0,0.1,0.1c0,0,0,0.1,0,0.1s0-0.1-0.1-0.1c0,0,0,0,0,0.1c-0.1,0-0.2-0.1-0.2,0  c0,0.1,0,0.1,0,0.2c0,0,0,0.1,0,0.2c0,0.1-0.1,0.2-0.2,0.1C86.6,53.8,86.6,53.6,86.6,53.6 M87,52.8c-0.1,0.1-0.2,0.2-0.3,0.1  c-0.1-0.1,0-0.1-0.1-0.3C86.8,52.6,86.9,52.8,87,52.8 M87.2,52.9c0,0,0.3,0.1,0.4,0.2c-0.2,0-0.1,0.1-0.3,0.1  C87.3,53.1,87.2,53,87.2,52.9 M94.6,53.7c0-0.3-0.3-0.5-1.3-0.5c-1,0-4.1,0.4-4.1-0.2c0-0.4,1-0.2,1.8-0.2c0,0.1,0.1,0.1,0.2,0.1  c1.3,0.4,2.6-0.5,3.6-0.2c-0.7-0.7-1.7,0.1-2.6-0.1c0.6,0,1.2-0.1,1.2-0.3c-0.4,0.3-1.7-0.2-2.2,0.1c0,0-0.1,0-0.1,0.1  c-1,0-2.1-0.1-2.1,0.4c0,1,3.5,0.4,4.4,0.4c0.8,0,1,0.1,1,0.3c0,0.2-0.8,0.3-1.3,0.3c-0.8,0-4.1-0.4-5.4,0c0.1-0.2,0.4-0.6,0.2-0.7  c0.1-0.1,0.2-0.1,0.2-0.2c-0.1-0.1-0.2-0.1-0.2-0.1c0-0.1,0-0.1-0.1-0.2c0,0,0-0.1-0.1-0.2c-0.1,0-0.2-0.1-0.3-0.2  c-0.1-0.1-0.2-0.1-0.3-0.1c0,0-0.2,0-0.2,0c-0.1,0-0.2,0-0.2,0.1c-0.1-0.1-0.1-0.1-0.2-0.1c-0.1,0.1-0.1,0.2,0,0.4  c-0.1,0-0.2,0.3-0.4,0.3c0,0.1,0.1,0.1,0.1,0.1c-0.1,0.2-0.1,0.4-0.3,0.4c0,0.1,0.1,0.1,0.1,0.1c0,0.1,0,0.2,0,0.3l-0.1,0  c-0.1,0-0.1,0-0.2,0c-0.1,0-0.1,0-0.2,0c-0.2,0-0.3-0.3-0.5-0.4c-0.2-0.1-0.2-0.2-0.2-0.4c0-0.2,0.1-0.3,0.1-0.5c0,0,0-0.1,0-0.2  c0-0.1-0.2-0.2-0.3-0.2c0,0,0.1,0.1,0.1,0.2c0,0-0.1,0.1-0.1,0.1c0,0-0.1,0.1,0,0.2c0,0,0,0,0,0c0,0,0,0,0,0.1c0,0,0,0,0,0  c-0.1-0.1-0.1-0.3-0.2-0.3c0,0-0.1,0-0.1,0c0,0,0,0,0,0c0-0.1-0.1-0.2-0.3-0.1c0,0,0.1,0,0.1,0.1c0,0,0,0.1,0,0.1  c0,0.1,0.1,0.2,0.2,0.2c0,0,0,0,0,0c0,0,0,0,0,0.1c0,0,0,0,0,0c-0.2-0.1-0.3,0-0.3,0.1c0,0,0,0.1,0,0.1c-0.1,0.1-0.1,0.2,0,0.3  c0,0,0-0.1,0.1-0.1c0,0,0,0,0,0c0,0,0.1,0.1,0.1,0.1c0,0,0.1,0,0.1,0c0,0,0,0,0.1,0c0,0,0,0,0.1,0c0,0,0,0,0,0  c-0.2,0.1-0.1,0.3,0.1,0.3c0,0,0,0,0,0c0,0.3-0.4,0.2-0.4-0.1c-0.2,0.3,0.2,0.6,0.4,0.4c0,0,0,0,0,0c0,0.1,0,0.1,0.1,0.1  c0,0,0-0.1,0.1-0.1c0,0,0,0,0,0c0,0.1,0,0.2,0.1,0.2c0-0.1,0-0.1,0-0.1c0.1,0,0.3,0.4,0.7,0.6c0.1,0,0.2,0,0.2-0.1  c0,0,0,0.1,0.1,0.1c0,0.2,0.1,0.4,0.1,0.4c-0.1,0-0.7,0-0.8,0c-0.2,0.1-0.6,0.3-0.8,0.1c0-0.1,0-0.1-0.1-0.2c0-0.1-0.1-0.1-0.2-0.1  c0,0-0.1,0-0.1,0c-0.1-0.1-0.2-0.1-0.3,0c0.1,0,0.1,0,0.2,0.1c0,0,0,0.1-0.1,0.1c0,0.1,0,0.2,0.3,0.3c0,0,0,0,0,0c0,0-0.1,0-0.2,0  C84,55.1,84,55,83.8,55c0,0-0.1,0-0.1,0c0,0,0,0,0,0c-0.1,0-0.3,0.2-0.2,0.3c0,0,0.1-0.1,0.2-0.1c0,0,0,0.1,0,0.1  c0,0.1,0.1,0.3,0.4,0.1c0,0,0,0,0,0c-0.1,0.1-0.3,0.3-0.1,0.4c0,0,0,0,0.1,0.1c0,0,0,0,0,0c0,0.2,0.2,0.3,0.3,0.3  c0,0-0.1-0.1-0.1-0.3c0,0,0.1,0,0.1,0c0.1-0.1,0.1-0.2,0.2-0.3c0,0,0,0,0,0c0,0.1,0,0.2,0.2,0.2c0.2,0,0.2-0.2,0.2-0.2c0,0,0,0,0,0  c0.1,0,0.1,0.1,0.1,0.2c0,0,0.1-0.1,0.1-0.1c0,0.1,0,0.2-0.1,0.3c0.1,0,0.2-0.1,0.3-0.3c0,0,0.1,0.1,0.1,0.1c0,0,0,0,0,0  c0.1,0,0.2,0,0.4,0c0,0,0,0,0,0c0,0.1,0,0.1,0,0.2c0,0,0-0.1,0.1-0.1c0,0,0,0.2,0.1,0.3c0-0.4,0.6-0.2,0.8-0.4c0,0,0,0,0,0  c0,0-0.1,0.1-0.1,0.1c0.1,0,0.2-0.1,0.4-0.1c0,0,0,0,0,0l0.4-0.2c0-0.1,0-0.1,0-0.1c0.1,0,0.1,0,0.2,0c0,0,0,0,0,0  c0.3,0,0.3-0.2,0.4-0.2c1.6,0.2,0.7-0.7,2.6-0.5c0.1,0,0.1,0,0.2-0.1c-0.1,0.2-0.1,0.5,0.1,0.5c0.1,0,0.3,0.1,0.3,0.1c0,0,0,0,0,0  c-0.1,0-0.2,0-0.3,0.1c-0.3,0.2-0.3-0.4-0.6-0.3c0,0-0.1,0.1-0.1,0.1c-0.1,0-0.3,0.1-0.3,0.3c0,0,0.1-0.1,0.2-0.1c0,0,0,0.1,0,0.1  c0,0.1,0,0.1,0.1,0.1c0.1,0,0.1,0,0.1,0c0,0,0,0,0,0c0,0.1-0.4-0.1-0.3,0.3c0,0,0,0.1,0.1,0.1c0,0.1,0.1,0.2,0.3,0.1  c0,0-0.1-0.1-0.1-0.1h0.1c0,0,0,0,0-0.1c0,0,0,0,0,0c0,0,0,0,0,0c0,0,0,0,0,0.1c0,0,0,0.1,0,0.1c0,0.1,0.2,0.2,0.3,0.1  c-0.1,0-0.2,0-0.2-0.1c0,0,0.1,0,0.1,0c0,0,0-0.1,0-0.1c0,0,0,0,0,0c0,0,0.1,0,0.1,0c0,0,0.1,0,0.1,0c0,0.1,0.1,0.1,0.2,0.1  c0.2-0.1,0-0.3,0.2-0.3c0,0,0.1,0,0.1,0c0.2,0,0.4,0,0.5-0.1c0-0.1,0-0.4-0.2-0.5c-0.1-0.1,0-0.2-0.1-0.3c0.2,0.1,0.4,0.2,0.6,0.2  c0.5,0,0.6-0.1,0.8-0.2c0.2-0.1,0.5-0.1,0.6-0.1c0.1,0,0.1,0,0.1,0.1c-0.1,0.2,0,0.3,0,0.4c0,0.1-0.2,0-0.4,0  c-0.1,0-0.1,0.1-0.1,0.1c-0.1,0-0.2,0.1-0.2,0.3c0,0,0.1-0.1,0.2-0.1c0,0,0,0,0,0c0,0.2,0.2,0.2,0.3,0.1c0,0,0.1,0,0,0  c-0.1,0.1-0.3,0.2-0.1,0.3c0,0,0,0,0.1,0c0,0.1,0.1,0.2,0.1,0.2c0-0.1,0-0.1,0-0.2c0,0,0.1,0,0.1,0c0.1,0,0.1-0.2,0.2-0.3  c0,0,0,0,0,0c0,0.1-0.1,0.3,0,0.3c0,0,0,0,0.1,0c0,0.1,0.1,0.2,0.3,0.1c0,0-0.1,0-0.1-0.1c0,0,0.1-0.1,0.1-0.1  c0.1-0.2-0.1-0.3-0.1-0.4c0-0.1,0.2,0,0.2-0.3c0,0,0-0.1-0.1-0.2c0,0,0,0,0,0v0c0.1,0,0.1,0,0.2-0.1c-0.2,0-0.1-0.1-0.2-0.2  c0,0,0,0,0,0c0.1,0,0.1-0.1,0.1-0.3c-0.1,0.1-0.3,0.2-0.3,0c0,0,0-0.1-0.2-0.1c-0.3,0-0.5,0-1.1-0.1C93.5,54.2,94.6,54.1,94.6,53.7" /><path d="M102.3,61.8C102.3,61.8,102.3,61.8,102.3,61.8 M100.8,59.4C100.8,59.4,100.8,59.4,100.8,59.4  C100.8,59.4,100.8,59.4,100.8,59.4 M100.7,59.8L100.7,59.8L100.7,59.8z M101,60.2c0-0.1,0.1-0.1,0.1-0.1c0.1,0,0.1,0,0.1-0.1  c0-0.1,0-0.1-0.1-0.2c0.1,0,0.1-0.1,0.1-0.1c0,0-0.1,0-0.1,0c0,0,0-0.1,0.1-0.1c0,0,0.1,0,0.1,0l0.3,0.2c0,0,0.1,0,0.1,0.1  c0,0,0,0.1,0,0.1c0,0,0-0.1-0.1-0.1c-0.1,0-0.1,0,0,0.1c-0.1,0-0.1-0.1-0.2,0c0,0.1,0,0.1,0,0.2c0,0,0,0.1,0,0.2  c0,0.1-0.1,0.2-0.2,0.1C100.9,60.4,101,60.3,101,60.2 M101.4,59.4c-0.1,0.1-0.2,0.2-0.3,0.1c-0.1-0.1,0-0.1-0.1-0.3  C101.1,59.3,101.3,59.4,101.4,59.4 M101.6,59.6c0,0,0.3,0.1,0.4,0.2c-0.2,0-0.1,0.1-0.2,0.1C101.6,59.8,101.6,59.7,101.6,59.6   M108.8,61.4C108.8,61.4,108.8,61.4,108.8,61.4c0.1-0.1,0.1-0.2,0.1-0.3c-0.1,0.1-0.3,0.2-0.3,0c0,0,0-0.1-0.2-0.1  c-0.3,0-0.6,0-1.2-0.1c0,0-0.1,0,0,0c0.6,0,1.6-0.1,1.6-0.5c0-0.3-0.3-0.5-1.3-0.5c-1,0-4.1,0.4-4.1-0.2c0-0.4,1-0.2,1.8-0.2  c0,0.1,0.1,0.1,0.2,0.1c1.3,0.4,2.8-0.6,3.5-0.4c-1-0.4-1.7,0.3-2.6,0.1c0.6,0,1.2-0.1,1.2-0.3c-0.4,0.3-1.7-0.2-2.2,0.1  c0,0-0.1,0-0.1,0.1c-0.9,0-2.1-0.1-2.1,0.4c0,1,3.5,0.4,4.3,0.4c0.8,0,1,0.1,1,0.2c0,0.2-0.8,0.3-1.3,0.3c-0.8,0-4.1-0.4-5.4,0  c0.1-0.2,0.4-0.6,0.2-0.7c0.1-0.1,0.2-0.1,0.2-0.3c-0.1-0.1-0.2-0.1-0.2-0.1c0-0.1,0-0.1-0.1-0.2c0,0,0-0.1-0.1-0.2  c0,0-0.1-0.1-0.3-0.2c-0.1-0.1-0.2-0.1-0.3-0.1c0,0-0.2,0-0.2,0c-0.1,0-0.2,0-0.2,0.1c-0.1-0.1-0.1-0.1-0.2-0.1  c-0.1,0.1-0.1,0.2,0,0.4c-0.1,0-0.2,0.3-0.4,0.3c0,0.1,0.1,0.1,0.1,0.1c-0.1,0.2-0.1,0.4-0.3,0.4c0.1,0.1,0.1,0.1,0.2,0.1  c0,0.1,0,0.2,0,0.3l-0.2-0.1c-0.1,0-0.1,0-0.2,0c0,0-0.1,0-0.2,0c-0.2,0-0.3-0.3-0.5-0.4c-0.2-0.1-0.2-0.2-0.2-0.4  c0-0.2,0.1-0.3,0.1-0.5c0,0,0-0.1-0.1-0.2c0-0.1-0.2-0.2-0.3-0.2c0,0,0.1,0.1,0.1,0.2C99,59,99,59,99,59c0,0.1,0,0.1,0,0.2  c0,0,0,0,0,0c0,0,0,0,0,0.1c0,0,0,0,0,0c0-0.1-0.1-0.3-0.2-0.3c0,0-0.1,0-0.1,0c0,0,0,0,0,0c0-0.1-0.1-0.2-0.3-0.1  c0,0,0.1,0,0.1,0.1c0,0,0,0.1,0,0.1c0,0.1,0.1,0.2,0.2,0.2c0,0,0,0,0,0c0,0,0,0,0,0.1c0,0,0,0,0,0c-0.2-0.1-0.3,0-0.3,0.1  c0,0,0,0.1,0,0.1c-0.1,0.1-0.1,0.2,0.1,0.3c0,0,0-0.1,0.1-0.1c0,0,0,0,0,0c0,0,0.1,0,0.1,0c0,0,0.1,0,0.1,0c0,0,0,0,0.1,0  c0,0,0,0,0.1,0c0,0,0,0,0,0c-0.2,0.2-0.1,0.3,0.1,0.3c0,0,0,0,0,0c0,0.3-0.4,0.2-0.4-0.1c-0.2,0.3,0.2,0.6,0.4,0.4c0,0,0,0,0,0  c0,0,0,0.1,0.1,0.1c0,0,0-0.1,0.1-0.1c0,0,0,0,0,0c0,0.1,0,0.2,0.1,0.2c0-0.1,0-0.1,0-0.1c0.1,0,0.2,0.4,0.6,0.6  c0,0,0.2-0.1,0.2-0.2c0,0.1,0.1,0.2,0.1,0.2l0.1,0c0,0.2,0.2,0.4,0.2,0.4c-0.1,0-0.4-0.1-0.6,0c-0.2,0.1-0.7,0.3-0.8,0.1  c0-0.1,0-0.1-0.1-0.2c0-0.1-0.1-0.1-0.1-0.1c0,0-0.1,0-0.1,0c-0.1-0.1-0.2-0.1-0.3,0c0.1,0,0.1,0,0.2,0.1c0,0,0,0.1,0,0.1  c0,0.1,0,0.2,0.3,0.3c0,0,0,0,0,0.1c0,0-0.1,0-0.2,0c-0.1-0.1-0.1-0.2-0.3-0.1c0,0-0.1,0-0.1,0c0,0,0,0,0,0c-0.1,0-0.3,0.2-0.2,0.3  c0,0,0.1-0.1,0.2-0.1c0,0,0,0.1,0,0.1c0,0.2,0.1,0.3,0.4,0.1c0,0,0,0,0,0c-0.1,0.1-0.3,0.3-0.1,0.4c0,0,0,0,0.1,0.1c0,0,0,0,0,0  c0,0.2,0.2,0.3,0.3,0.3c0,0-0.1-0.1-0.1-0.3c0,0,0.1,0,0.1,0c0.1-0.1,0.1-0.2,0.2-0.3c0,0,0,0,0,0c0,0.1,0,0.2,0.2,0.2  c0.2,0,0.2-0.2,0.2-0.2c0,0,0,0,0,0c0.1,0,0.1,0.1,0.1,0.2c0,0,0.1-0.1,0.1-0.1c0,0.1,0,0.2-0.1,0.3c0.1,0,0.2-0.1,0.3-0.3  c0,0,0.1,0.1,0.1,0.1c0,0,0,0,0,0c0.1,0,0.2,0,0.4,0c0,0,0,0,0,0c0,0.1,0,0.1,0,0.2c0,0,0-0.1,0.1-0.1c0.1,0,0,0.2,0.1,0.3  c0-0.4,0.3-0.3,0.6-0.4c0,0,0,0,0,0c0,0-0.1,0.1-0.1,0.1c0.1,0.1,0.5-0.2,0.5-0.3c0,0,0.2-0.1,0.3-0.1c0.3,0,0.2-0.2,0.4-0.2  c1.6,0.2,0.7-0.7,2.6-0.5c0.1,0,0.1-0.1,0.2-0.2c-0.1,0.2-0.1,0.6,0.1,0.6c0.1,0,0.3,0.1,0.3,0.1c0,0,0,0,0,0c-0.1,0-0.2,0-0.3,0.1  c-0.3,0.2-0.3-0.4-0.6-0.3c0,0-0.1,0.1-0.1,0.1c-0.1,0-0.3,0.2-0.3,0.3c0,0,0.1-0.1,0.2-0.1V62c0,0.1,0,0.1,0.1,0.1  c0.1,0,0.1,0,0.1,0c0,0,0,0,0,0c0,0.1-0.4-0.1-0.3,0.3c0,0,0,0.1,0.1,0.1c0,0.1,0.1,0.2,0.2,0.1c0,0-0.1-0.1-0.1-0.1  c0,0,0.1,0,0.1,0c0,0,0,0,0-0.1c0,0,0,0,0,0c0,0,0,0,0,0c0,0,0,0,0,0.1c0,0,0,0.1,0,0.1c0,0.1,0.2,0.3,0.3,0.1c-0.1,0-0.2,0-0.2-0.1  c0,0,0.1,0,0.1,0c0,0,0-0.1,0-0.1c0,0,0,0,0,0c0,0,0.1,0,0.1,0c0,0,0,0,0.1,0c0,0.1,0.1,0.1,0.2,0.1c0.2-0.1,0-0.3,0.2-0.3  c0,0,0.1,0,0.1,0c0.2,0,0.4,0,0.5,0c0-0.1,0-0.4-0.2-0.5c-0.1-0.1,0-0.2-0.1-0.3c0.2,0.1,0.4,0.2,0.6,0.2c0.5,0,0.6-0.1,0.8-0.2  c0.2-0.1,0.5-0.1,0.6-0.1c0.1,0,0.1,0,0.1,0.1c-0.1,0.2,0,0.3-0.1,0.4c-0.1,0.1-0.2,0-0.4,0c-0.1,0-0.1,0.1-0.1,0.1  c-0.1,0-0.3,0.1-0.3,0.3c0,0,0.1-0.1,0.2-0.1v0c0,0.2,0.2,0.2,0.3,0.1c0,0,0.1,0,0,0c-0.1,0.1-0.3,0.2-0.1,0.3c0,0,0,0,0.1,0  c0,0.1,0,0.2,0.1,0.2c0-0.1,0-0.1,0-0.2h0.1c0.1,0,0.1-0.2,0.2-0.3c0,0,0,0,0,0c0,0.1-0.1,0.3,0,0.3c0,0,0,0,0.1,0  c0,0.1,0.1,0.2,0.3,0.1c0,0-0.1-0.1-0.1-0.1c0,0,0.1-0.1,0.1-0.1c0.1-0.2-0.1-0.3-0.1-0.3c0-0.1,0.2,0,0.3-0.3c0,0,0-0.1-0.1-0.1  c0,0,0,0,0,0h0c0.1,0,0.1,0,0.2-0.1C108.8,61.7,108.8,61.5,108.8,61.4" /><path d="M101.6,64.3c-0.1,0-0.1-0.2-0.1-0.3c0,0,0.3,0.1,0.4,0.2C101.7,64.2,101.7,64.3,101.6,64.3 M101.4,64.5c0,0,0-0.1-0.1-0.1  c-0.1,0,0,0,0,0.1c-0.1,0-0.1-0.1-0.2,0c0,0.1,0,0.1,0,0.2c0,0,0,0.1,0,0.2c0,0.1-0.1,0.2-0.2,0.1c-0.1-0.1-0.1-0.2-0.1-0.2  c0-0.1,0.1-0.1,0.1-0.1c0.1,0,0.1,0,0.1-0.1c0-0.1,0-0.1-0.1-0.2c0.1,0,0.1-0.1,0.1-0.1c-0.1,0-0.1,0-0.1,0c0,0,0-0.1,0.1-0.1  c0,0,0.1,0,0.1,0l0.3,0.1c0,0,0.1,0,0.1,0.1C101.4,64.4,101.5,64.5,101.4,64.5 M101.2,63.9c-0.1,0.1-0.2,0.2-0.2,0.1  c-0.1-0.1,0-0.1-0.1-0.3C101,63.8,101.2,63.9,101.2,63.9 M104.3,64c0,0.1,0.1,0.1,0.2,0.2c1.2,0.4,2.6-0.6,3.4-0.4  c-1-0.3-1.6,0.2-2.5,0.1c0.5,0,1.1-0.1,1.2-0.3c-0.4,0.3-1.6-0.2-2.1,0.1c0,0-0.1,0-0.1,0.1c-0.7,0-1.2,0-1.2,0.4  c0,1,2.6,0.4,3.4,0.4c0.8,0,0.7,0.1,0.7,0.2c0,0.2-0.9,0.3-1.4,0.3c-0.7,0-2.8-0.4-4-0.1c0.1-0.2,0.3-0.5,0.2-0.6  c0.1-0.1,0.2-0.1,0.2-0.2C102.1,64,102,64,102,64c0-0.1,0-0.1-0.1-0.2c0,0,0-0.1-0.1-0.2c0,0-0.1-0.1-0.3-0.2  c-0.1-0.1-0.2-0.1-0.3-0.1c0,0-0.2,0-0.2,0c-0.1,0-0.1,0-0.2,0.1c-0.1-0.1-0.1-0.1-0.2-0.1c-0.1,0.1-0.1,0.2,0,0.3  c-0.1,0-0.2,0.3-0.3,0.3c0,0.1,0.1,0.1,0.1,0.1c-0.1,0.2-0.1,0.4-0.2,0.4c0,0.1,0.1,0.1,0.1,0.1c0,0.1-0.1,0.2-0.1,0.4l-0.1,0  c0,0,0,0-0.1,0c-0.2,0-0.2,0-0.5-0.1c-0.2-0.1-0.2-0.2-0.2-0.4c0-0.2,0.1-0.3,0.1-0.5c0,0,0-0.1,0-0.2c0-0.1-0.2-0.2-0.3-0.2  c0,0,0.1,0.1,0.1,0.2c0,0-0.1,0.1-0.1,0.1c0,0.1-0.1,0.1,0,0.2c0,0,0,0,0,0c0,0,0,0,0,0.1c0,0,0,0,0,0c0-0.1-0.1-0.3-0.2-0.3  c0,0-0.1,0-0.1,0c0,0,0,0,0,0c0-0.1-0.1-0.2-0.3-0.1c0,0,0.1,0,0.1,0.1c0,0,0,0.1,0,0.1c0,0.1,0.1,0.2,0.2,0.2c0,0,0,0,0,0  c0,0,0,0,0,0.1c0,0,0,0,0,0c-0.2-0.1-0.3,0-0.3,0.1c0,0,0,0.1,0,0.1c-0.1,0.1-0.1,0.2,0,0.3c0,0,0-0.1,0-0.1c0,0,0,0,0,0  c0,0,0.1,0.1,0.1,0.1c0,0,0.1,0,0.1,0c0,0,0,0,0.1,0c0,0,0,0,0.1,0c0,0,0,0,0,0c-0.1,0.1-0.1,0.3,0.1,0.3c0,0,0,0,0,0.1  c0,0.3-0.4,0.2-0.4-0.1c-0.2,0.3,0.2,0.5,0.4,0.4c0,0,0,0,0,0c0,0.1,0,0.1,0.1,0.1c0,0,0-0.1,0.1-0.1c0,0,0,0,0,0  c0,0.1,0,0.2,0.1,0.2c0-0.1,0-0.1,0-0.1c0.1,0,0-0.1,0.4,0.1c0,0.1,0.1,0.1,0.1,0.1l0.2,0c0,0.2,0,0.5,0,0.5c-0.1,0-0.4,0-0.6,0  c-0.2,0.1-0.6,0.3-0.7,0.1c0-0.1,0-0.1-0.1-0.2c0-0.1-0.1-0.1-0.1-0.1h-0.1c-0.1-0.1-0.2-0.1-0.3,0c0.1,0,0.1,0,0.2,0.1  c0,0,0,0.1,0,0.1c0,0.1,0,0.2,0.3,0.3c0,0,0,0,0,0c0,0-0.1,0-0.2,0c-0.1-0.1-0.1-0.2-0.2-0.1c0,0-0.1,0-0.1,0c0,0,0,0,0,0  c-0.1,0-0.3,0.1-0.2,0.3c0,0,0.1-0.1,0.1-0.1c0,0,0,0.1,0,0.1c0,0.1,0.1,0.3,0.4,0.1c0,0,0,0,0,0c-0.1,0.1-0.3,0.2-0.1,0.3  c0,0,0,0,0.1,0c0,0,0,0,0,0c0,0.2,0.2,0.3,0.2,0.3c0,0-0.1-0.1-0.1-0.2c0,0,0.1,0,0.1,0c0.1-0.1,0.1-0.2,0.2-0.3c0,0,0,0,0,0  c0,0.1,0,0.2,0.2,0.2c0.2,0,0.2-0.1,0.2-0.2c0,0,0,0,0,0c0.1,0,0.1,0.1,0.1,0.2c0,0,0.1-0.1,0.1-0.1c0,0.1,0,0.2-0.1,0.3  c0.1,0,0.2-0.1,0.3-0.3c0,0,0.1,0.1,0.1,0.1c0,0,0,0,0,0c0,0,0.2,0,0.3,0c0,0,0,0,0,0c0,0.1,0,0.1,0,0.2c0,0,0-0.1,0.1-0.1  c0,0,0,0.2,0.1,0.3c0-0.4,0.4-0.3,0.6-0.5c0,0,0,0,0,0c0,0.1-0.1,0.1-0.1,0.1c0.3,0.2,0.6-0.2,0.7-0.4c0,0,0.1-0.1,0.1-0.1  c0,0,0,0.1,0,0.1c0.3,0,0.2-0.2,0.4-0.2c0.8,0.1,0.2-0.7,1.5-0.5c0.1,0,0.3-0.1,0.3-0.1c-0.1,0.2-0.1,0.5,0.1,0.6  c0.1,0,0.3,0.1,0.3,0.1c0,0,0,0,0,0c-0.1,0-0.2,0-0.3,0.1c-0.3,0.2-0.3-0.4-0.6-0.3c0,0-0.1,0-0.1,0.1c-0.1,0-0.3,0.1-0.3,0.3  c0,0,0.1-0.1,0.2-0.1c0,0,0,0.1,0,0.1c0,0,0,0.1,0.1,0.1c0.1,0,0.1,0,0.1,0c0,0,0,0,0,0c0,0.1-0.4-0.1-0.3,0.3c0,0,0,0.1,0.1,0.1  c0,0.1,0.1,0.2,0.2,0.1c0,0-0.1-0.1-0.1-0.1c0,0,0.1,0,0.1,0c0,0,0,0,0,0c0,0,0,0,0,0c0,0,0,0,0,0c0,0,0,0,0,0.1c0,0,0,0.1,0,0.1  c0,0.1,0.2,0.2,0.3,0.1c0,0-0.2,0-0.2-0.1c0,0,0.1,0,0.1,0c0,0,0-0.1,0-0.1c0,0,0,0,0,0c0,0,0.1,0,0.1,0c0,0,0.1,0,0.1,0  c0,0.1,0.1,0.1,0.2,0.1c0.2-0.1,0-0.3,0.2-0.3c0,0,0.1,0,0.1,0c0.2,0,0.4,0,0.4,0c0-0.1,0-0.4-0.2-0.5c-0.1,0,0-0.2-0.1-0.3  c0.2,0.1,0.4,0.1,0.6,0.1c0.4,0,0.6-0.1,0.9-0.2c0.3-0.1,0.5-0.1,0.5-0.1c0.1,0,0.1,0,0.1,0.1c-0.1,0.2,0,0.3-0.1,0.3  c-0.1,0.1-0.2,0-0.4,0c-0.1,0-0.1,0.1-0.1,0.1c-0.1,0-0.3,0.1-0.3,0.3c0,0,0.1-0.1,0.2-0.1c0,0,0,0,0,0.1c0,0.2,0.1,0.2,0.3,0.1  c0,0,0.1,0,0,0c-0.1,0.1-0.3,0.2-0.2,0.3c0,0,0,0,0.1,0c0,0.1,0,0.2,0.1,0.2c0-0.1,0-0.1,0.1-0.2c0,0,0.1,0,0.1,0  c0.1,0,0.1-0.2,0.2-0.3c0,0,0,0,0,0c-0.1,0.1-0.1,0.2,0,0.3c0,0,0,0,0.1,0c0,0.1,0.1,0.1,0.3,0.1c0,0-0.1-0.1-0.1-0.1  c0,0,0.1-0.1,0.1-0.1c0.1-0.2-0.1-0.2-0.1-0.3c0-0.1,0.2,0,0.3-0.3c0,0,0-0.1-0.1-0.1c0,0,0,0,0,0h0c0.1,0,0.1,0,0.2-0.1  c-0.2,0-0.1-0.1-0.1-0.2c0,0,0,0,0,0c0.1,0,0.1-0.1,0.1-0.3c-0.1,0.1-0.3,0.2-0.3,0c0,0,0-0.1-0.2-0.1c-0.3,0-0.7,0-1.3-0.1  c0,0-0.1,0,0,0c0.5,0,1.7-0.1,1.7-0.5c0-0.3-0.1-0.5-1-0.5c-1,0-3.1,0.4-3.1-0.2C103.4,63.9,103.8,63.9,104.3,64" /><path d="M100.5,69.1c0-0.1,0.1-0.1,0.1-0.1c0.1,0,0.1,0,0.1-0.1c0-0.1,0-0.1-0.1-0.1c0.1,0,0.1-0.1,0.1-0.1c0,0-0.1,0-0.1,0  c0,0,0-0.1,0.1-0.1c0,0,0.1,0,0.1,0l0.3,0.1c0,0,0.1,0,0.1,0.1c0,0,0,0.1,0,0.1c0,0,0-0.1-0.1-0.1c0,0,0,0,0,0.1  c-0.1,0-0.1-0.1-0.2,0c0,0.1,0,0.1,0,0.1c0,0,0,0.1,0,0.1c0,0.1-0.1,0.2-0.2,0.1C100.4,69.3,100.4,69.2,100.5,69.1 M100.8,68.4  c-0.1,0.1-0.2,0.1-0.2,0.1c-0.1-0.1,0-0.1-0.1-0.2C100.6,68.3,100.8,68.4,100.8,68.4 M101,68.5c0,0,0.2,0.1,0.4,0.1  c-0.2,0-0.1,0.1-0.2,0.1C101,68.7,101,68.6,101,68.5 M103.3,68.4c0,0.1,0.1,0.1,0.2,0.2c1.2,0.3,2.6-0.6,3.4-0.4  c-1-0.3-1.6,0.3-2.5,0.1c0.5,0,1.1-0.1,1.1-0.3c-0.4,0.3-1.6-0.2-2.1,0.1c0,0-0.1,0.1-0.1,0.1c-0.4,0.1-0.7,0.3-0.7,0.6  c0,0.8,3.1,0.2,3.1,0.4c0,0.2-0.6,0.4-1.4,0.4c-0.6,0-1.7-0.4-3.1-0.1v0c0.1-0.2,0.4-0.6,0.3-0.7c0.1,0,0.2-0.1,0.2-0.2  c-0.1-0.1-0.1-0.1-0.2-0.1c0-0.1,0-0.1-0.1-0.2c0,0,0-0.1-0.1-0.2c0,0-0.1-0.1-0.3-0.2c-0.1-0.1-0.2-0.1-0.3-0.1c0,0-0.1,0-0.2,0  c-0.1,0-0.1,0-0.2,0.1c-0.1,0-0.1-0.1-0.2-0.1c-0.1,0.1-0.1,0.2,0,0.3c-0.1,0-0.2,0.3-0.3,0.2c0,0.1,0.1,0.1,0.1,0.1  c-0.1,0.2-0.1,0.4-0.2,0.4c0,0.1,0.1,0.1,0.1,0.1c-0.1,0.2-0.1,0.5-0.1,0.8c-0.2-0.2-0.5-0.7-0.7-0.8c-0.2-0.1-0.2-0.2-0.2-0.4  c0-0.2,0.1-0.3,0.1-0.4c0,0,0-0.1,0-0.1c0-0.1-0.2-0.2-0.2-0.2c0,0,0.1,0.1,0.1,0.2c0,0-0.1,0.1-0.1,0.1c0,0-0.1,0.1,0,0.2  c0,0,0,0,0,0c0,0,0,0,0,0.1c0,0,0,0,0,0c0-0.1-0.1-0.3-0.2-0.3c0,0-0.1,0-0.1,0c0,0,0,0,0,0c0-0.1-0.1-0.2-0.3-0.1c0,0,0.1,0,0.1,0  c0,0,0,0.1,0,0.1c0,0.1,0.1,0.2,0.2,0.2c0,0,0,0,0,0c0,0,0,0,0,0c0,0,0,0,0,0c-0.2-0.1-0.3,0-0.3,0.1c0,0,0,0.1,0,0.1  c-0.1,0.1-0.1,0.2,0,0.2c0,0,0-0.1,0-0.1c0,0,0,0,0,0c0,0,0.1,0,0.1,0.1c0,0,0,0,0.1,0c0,0,0,0,0,0c0,0,0,0,0.1,0c0,0,0,0,0,0  c-0.1,0.1-0.1,0.3,0.1,0.3c0,0,0,0,0,0c0,0.3-0.4,0.2-0.3-0.1c-0.2,0.3,0.1,0.5,0.4,0.4c0,0,0,0,0,0c0,0,0,0.1,0.1,0.1  c0,0,0-0.1,0.1-0.1c0,0,0,0,0,0c0,0.1,0,0.2,0.1,0.2c0-0.1,0-0.1,0-0.1c0,0,0,0.4,0.4,0.6c0.1,0.2,0.2,0.3,0.4,0.3  c0.1,0.2,0.2,0.3,0.1,0.3c-0.1,0-0.5-0.1-0.6,0c-0.1,0-0.3,0.1-0.4,0.1l0,0c0,0,0,0,0,0c-0.1,0-0.2,0-0.3-0.1c0-0.1,0-0.1-0.1-0.2  c0-0.1-0.1-0.1-0.1-0.1c0,0-0.1,0-0.1,0c-0.1-0.1-0.2-0.1-0.3,0c0.1,0,0.1,0,0.2,0.1c0,0,0,0.1,0,0.1c0,0.1,0,0.1,0.2,0.2  c0,0,0,0,0,0c0,0-0.1,0-0.1,0c-0.1-0.1-0.1-0.2-0.2-0.1c0,0,0,0-0.1,0c0,0,0,0,0,0c-0.1,0-0.3,0.1-0.2,0.3c0,0,0.1-0.1,0.1-0.1  c0,0,0,0.1,0,0.1c0,0.1,0.1,0.2,0.3,0.1c0,0,0,0,0,0c-0.1,0.1-0.3,0.2-0.1,0.3c0,0,0,0,0.1,0c0,0,0,0,0,0c0,0.2,0.1,0.3,0.2,0.3  c0,0-0.1-0.1-0.1-0.2c0,0,0.1,0,0.1,0c0.1-0.1,0.1-0.2,0.1-0.3c0,0,0,0,0,0c0,0.1,0,0.2,0.2,0.2c0.2,0,0.2-0.1,0.2-0.2c0,0,0,0,0,0  c0.1,0,0.1,0.1,0.1,0.2c0,0,0.1-0.1,0.1-0.1c0,0.1,0,0.2-0.1,0.3c0.1,0,0.2-0.1,0.3-0.3c0,0,0,0.1,0.1,0.1c0,0,0,0,0,0  c0.1,0,0.2,0,0.3,0c0,0,0,0,0,0c0,0.1,0,0.1,0,0.2c0,0,0-0.1,0.1-0.1c0,0,0,0.2,0.1,0.2c0-0.4,0.3-0.2,0.5-0.4c0,0,0,0,0,0  c0,0-0.1,0.1-0.1,0.1c0.1,0,0.4-0.1,0.4-0.3c0-0.1,0.2-0.2,0.2-0.7c0,0,0.1,0,0.1,0c0.3,0,0.5-0.3,0.8-0.3c-0.1,0.1-0.1,0.3-0.1,0.5  c0,0.2,0.2,0.4,0.3,0.4c0,0,0,0,0,0c-0.1,0-0.2,0-0.2,0.1c-0.3,0.2-0.3-0.4-0.6-0.3c0,0-0.1,0-0.1,0.1c-0.1,0-0.3,0.1-0.2,0.3  c0,0,0.1-0.1,0.2-0.1v0.1c0,0.1,0,0.1,0.1,0.1c0.1,0,0.1,0,0.1,0c0,0,0,0,0,0c0,0.1-0.4-0.1-0.3,0.2c0,0,0,0.1,0,0.1  c0,0.1,0.1,0.2,0.2,0.1c0,0-0.1-0.1-0.1-0.1c0,0,0.1,0,0.1,0c0,0,0,0,0-0.1c0,0,0,0,0,0c0,0,0,0,0,0c0,0,0,0,0,0.1c0,0,0,0.1,0,0.1  c0,0.1,0.1,0.2,0.3,0.1c0,0-0.1,0-0.2-0.1c0,0,0.1,0,0.1,0c0,0,0-0.1,0-0.1c0,0,0,0,0,0c0,0,0.1,0,0.1,0c0,0,0,0,0.1,0  c0,0.1,0.1,0.1,0.2,0.1c0.2-0.1,0-0.2,0.2-0.3c0,0,0.1,0,0.1,0c0.2,0,0.3,0.1,0.3,0c0-0.1,0-0.3-0.1-0.4c-0.1-0.1,0.1-0.6-0.3-0.9  c0.2,0.1,0.9,0.2,1,0c0.2,0.1,0.4,0.2,0.5,0.2c0,0,0,0.1,0,0.1c-0.2,0.1-0.2,0.2-0.3,0.2l0,0c-0.1-0.1-0.1-0.2-0.2-0.2  c-0.1,0-0.1,0-0.1,0c-0.1,0-0.2,0-0.3,0.1c0,0,0.1,0,0.2,0c0,0,0,0,0,0c0,0,0,0.1,0,0.1h0h0c0,0,0,0,0,0c0,0,0,0,0,0  c-0.1,0-0.3,0-0.3,0.1c0,0,0,0,0,0.1c-0.1,0.1-0.1,0.2,0,0.2c0,0,0-0.1,0.1-0.1c0,0,0,0.1,0.1,0.1c0.1,0.1,0.2-0.1,0.3-0.1  c0,0,0,0,0,0c-0.1,0-0.2,0.1-0.2,0.2c0,0,0,0,0,0.1c0,0.1,0,0.2,0.1,0.2c0,0,0-0.1,0-0.1c0,0,0.1,0,0.1,0c0.2-0.1,0.1-0.2,0.1-0.3  c0.1-0.1,0.2,0.1,0.3,0c0,0,0.1-0.1,0-0.2c0,0,0,0,0,0v0c0,0,0.1,0.1,0.2,0.1c-0.1-0.1,0-0.2,0.1-0.2c0,0,0,0,0,0  c0.1,0,0.1,0,0.2-0.1c-0.1,0-0.3-0.1-0.2-0.2c0.2-0.1,0.3-0.2,0.2-0.3c-0.2-0.2-0.5-0.2-0.5-0.5c0.1,0,0.3,0,0.3,0  c1.1,0,1.7-0.3,1.7-0.6c0-0.7-3.2,0.1-3.2-0.5C102.9,68.6,103.1,68.5,103.3,68.4" /><path d="M51.9,13c0-0.4-0.3-0.8-0.8-0.8c-0.4,0-0.8,0.3-0.8,0.8c0,0.4,0.3,0.8,0.8,0.8C51.6,13.8,51.9,13.5,51.9,13" /><path d="M51.6,11c0-0.4-0.3-0.8-0.8-0.8c-0.4,0-0.8,0.3-0.8,0.8c0,0.4,0.3,0.8,0.8,0.8C51.3,11.8,51.6,11.4,51.6,11" /><path d="M52.1,10.1c0.4,0,0.8-0.3,0.8-0.8c0-0.4-0.3-0.8-0.8-0.8c-0.4,0-0.8,0.3-0.8,0.8C51.3,9.7,51.6,10.1,52.1,10.1" /><path d="M54.1,10c0.4,0,0.8-0.3,0.8-0.8c0-0.4-0.3-0.8-0.8-0.8c-0.4,0-0.8,0.4-0.8,0.8C53.4,9.6,53.7,10,54.1,10" /><path d="M62.9,8.5c0.3,0.3,0.8,0.3,1.1,0c0.3-0.3,0.3-0.8,0-1.1c-0.3-0.3-0.8-0.3-1.1,0C62.6,7.7,62.6,8.2,62.9,8.5" /><path d="M62.7,6.9c0.3-0.3,0.3-0.8,0-1.1c-0.3-0.3-0.8-0.3-1.1,0c-0.3,0.3-0.3,0.8,0,1.1C61.9,7.2,62.4,7.2,62.7,6.9" /><path d="M60.6,6.6c0.3-0.3,0.3-0.8,0-1.1c-0.3-0.3-0.8-0.3-1.1,0c-0.3,0.3-0.3,0.8,0,1.1C59.9,6.9,60.3,6.9,60.6,6.6" /><path d="M58.9,7.9c0.3-0.3,0.3-0.8,0-1.1c-0.3-0.3-0.8-0.3-1.1,0c-0.3,0.3-0.3,0.8,0,1.1C58.1,8.2,58.6,8.2,58.9,7.9" /><path d="M54,6.8l0.6,1.3l0.8-0.9c0,0,0.1,0,0.1,0c0.1,0.5,0.1,1.2,0.1,1.7c0,0.5,0.4,1,1,1c0.5,0,1-0.4,1-1c0-0.4-0.2-0.7-0.5-0.9  c-0.4-0.3-0.8-0.7-1.1-1c0,0,0-0.1,0-0.1L57.3,7l-0.5-1.4l-1,0.8c0,0,0,0-0.1,0L55.7,5l-1.3,0.5l0.9,1.1c0,0,0,0.1-0.1,0.1L54,6.8" /><path d="M62.9,9.2c0.3,0.5,0.4,0.7,0.4,1.1c-0.2-0.1-0.5-0.3-0.8-0.7l0.2,1.8c0.2-0.3,0.4-0.5,0.6-0.6c-0.1,1.2-0.5,1.7-0.9,1.7  c-0.5,0.1-0.9-0.2-0.9-0.6c-0.1-0.5,0.4-0.8,0.8-0.4c0.1-1.1-0.8-1.1-1.2-0.6c0.5-1,0.3-1.7-0.7-2.3c-0.6,1-0.3,1.6,0.4,2.3  c-0.7-0.4-1.4,0.2-0.7,1c0.1-0.7,0.7-0.5,0.9,0c0.1,0.5-0.3,1.1-1.1,1.3c-1.1,0.3-1.5-0.4-1.7-1c0.2-0.2,0.8-0.1,1.4,0.3l-0.5-1.8  c-0.3,0.6-0.6,0.9-1.1,1.1c0-0.5,0.3-1.5,0.3-1.5l-2.1,0.9c0,0,1,0.5,1.3,0.9c-0.4,0.2-0.9,0.2-1.5,0l0.8,1.6  c0.2-0.7,0.5-1.2,0.8-1.2c0.2,0.6,0.5,1.4-0.6,1.9c-0.7,0.4-1.5,0.3-1.7-0.2c-0.3-0.5,0-1,0.6-0.6c-0.1-1-1-1-1.2-0.2  c0-1-0.3-1.7-1.4-2c-0.3,1,0.1,1.7,1.1,2.1c-0.6-0.1-1.2,0.5-0.4,1.2c0-0.7,0.5-0.7,0.9-0.3c0.2,0.3,0.2,0.8-0.3,1.1  c-0.3,0.2-1,0.2-1.9-0.6c0.3-0.1,0.5-0.1,0.9,0l-1.1-1.4c0.1,0.5,0,0.9-0.1,1.1c-0.2-0.3-0.3-0.5-0.4-1.1l-0.9,0.8  c0.8,0.5,1.8,1.3,2.9,2.9c1.2-0.8,3.4-1.8,4.7-2.3c1.3-0.5,3.6-1.3,5-1.6c-0.3-1.9-0.2-3.1,0.1-4.1L62.9,9.2" /><path d="M65.3,19.4c-1.1,0.8-2.5,0.1-3.1-1c1.5-0.6,3.2-1.3,4.3-2C65.5,18,66.2,18.7,65.3,19.4 M65.1,30.6c-1.4,0.6-2.5-0.6-2.7-1.4  c-0.3-0.8-0.5-1.5-0.2-1.8c0.6-0.6,0.8-1.1,0.4-1.8c-0.4-0.9-1.3-0.4-2.3-0.2c0.4-0.8,0.5-1.4-0.1-1.3c-0.7,0.1-0.7,1.3-1.2,1.1  c-0.4-0.1-0.2-0.8-0.2-1.2c0-0.5,0.3-0.7,0.8-0.9l4-1.5c0.5-0.2,0.9-0.3,1.2,0.1c0.3,0.3,0.9,0.6,0.7,1c-0.2,0.4-1-0.5-1.6,0  c-0.5,0.4-0.1,0.8,0.8,1c-0.9,0.5-1.8,0.8-1.5,1.7c0.3,0.8,0.7,1,1.5,1c0.5,0,0.8,0.7,1.2,1.4C66.5,28.5,66.6,29.9,65.1,30.6   M57.5,22.5c-1.1,0.1-1.1-0.9-3-1.4c1.3-0.3,3-0.9,4.5-1.5C59.3,20.8,58.8,22.3,57.5,22.5 M79.8,58.2c0.3-0.8-1.2-1.8-1.4-2.9  c-0.2-1.2,0-2.3-1.4-3.9c-1.3-1.5-5.9-6.5-7.3-8c0.4,0,1.2-0.2,2,0.6c0.5,0.5,1.5,1.4,2.4,2.3c1.2-3.1,2.7-5.4,4.9-7.9  c0.3-0.3,0.6-0.6,0.8-0.9c-0.8,0.2-2,0.4-2.7,0.9c-0.1-1.4,0.1-2.5-0.9-3.3c0.4-1.9,0-4.2-4.2-7c2.2,0.5,3.5,2.5,5.1,1  c-1.5,0-1.5-3.3-6.9-6c2.1,0,3.7,3.3,6,1.4c-2.2-0.3-3-4.2-7-5.5c1.4,0.2,2.8,0.8,4-0.8c-1.4,0.3-2.2-1-3.7-1.1  c0.6-1.7,0.4-2.8-0.2-4.1c-1.1,0.1-2.1,0.4-2.9,1c-0.1-1-1.1-1-2-0.9c0,0.4,0.2,1-0.2,1.1c-0.7,0.1-3.1,0.8-5,1.5  c-1.9,0.7-4,2-4.6,2.5c-0.4,0.3-0.7-0.4-0.9-0.6c-0.7,0.6-1.3,1.3-0.8,2c-1,0.1-2.2,0.4-3.1,1.1c0,1.2,1,2.4,2.5,3  c-2.5,2.5-0.2,4.8-2.4,6.9c3.1,0.1,2.5-4.2,4.1-4.8c-0.2,3-1.8,3.6-1.8,6.8c0,1.7,1,3.6,0.1,4.8c2.6-0.7,1.9-6.4,3.5-8.1  c0.3,1,0.1,1.9-0.2,2.9c-0.9,2.7,0.1,6.3-1.3,7.5c2.6-0.3,2.9-4.5,5.1-6c-1.9,3.8-3.8,11.9-6.6,16C48.3,55.6,45.7,63,41.6,63  c-1.8,0-3.2-1.1-3.2-3.4c0-6.9,11.8-11.6,11.8-19c0-3.3-2.7-4.5-4.3-4.5c-1.1,0-2.5,0.6-3.6,1.5c-0.5-0.2-1-0.3-1.4-0.3  c-4.2,0-3.1,7.5-6.7,7.4c1.4,0.8,3.9-0.8,5.4-2.9c-0.6,4.9-7.6,3.6-7.1,9.4c1-4.6,12.1-3.9,12.1-10.9c0-0.8-0.4-1.4-1-2  c0.8-0.5,1.6-0.7,2.4-0.7c1.3,0,2.6,1,2.6,3c0,6.1-11.7,11.3-11.7,18.9c0,1.3,0.4,2.3,1,3.2c-0.8,0.4-1.7,0.2-2.4-0.6  c-0.1,1.9,2.7,3.2,4.5,2.2c0.4,0.1,0.8,0.2,1.2,0.2c-0.5,1.4-2.3,1.9-3.3,1.8c2.9,2.3,7.9-0.7,7.6-3.3c2.3-1.8,3.7-5,5.4-7.1  c-0.1,0.5-0.2,1-0.3,1.4c-1.7,3.1-3.3,5.8-3.7,9.8c-0.4,3.4-2.1,6.4-4.4,6.4c-0.5,0-1.4-0.7-1.8-0.3c-0.7,0.6,0,1.3,0,1.9  c0,1-1.9,1.9-1.9,4.9c0,1.3,0.8,2.9,0.5,3.8c0.8-0.4,1.8-1.7,2.2-3.3c0.8,3.9-1.7,3.7,0.1,7.2c0.2-1.1,1.4-1.6,2.1-1.1  c0.7,0.5,0.4,0.8-0.1,1.3c-0.5,0.5-1,3.1,1.4,3c-0.4-0.3-0.5-1,0.7-1.2c1.6-0.3,2.1,0.4,3.9,0.4c1.1,0,1.4-1.4,2.2-1.4  c0.9,0,0.9,0.7,0.6,1.1c1.4-0.4,1.6-1.1,1.6-1.9c0-0.8-0.6-1.3-0.1-1.5c0.5-0.3,2.1,0,1.4,1.3c0.8-0.1,1.3-0.7,1.3-1.7  c0-1-1.1-1.6-2.2-1.4c-0.2-0.6-1.1-1-2-1c-1.9,0-1.6,1.5-3,1.5c-2.1,0-4.2-2.7-4.2-7.4c0-2.5,2.7-3.1,4.6-3.9  c1.9-0.8,5.2-2.9,7.2-6.2c1.6-2.6,1.6-5.5,1.4-8.8c2.7,1.5,3,3.7,3,5.3c0,2.1-1.1,2.9-1.9,3.3c-0.7,0.3-1,0.2-1,0.6  c-0.1,0.5,0.3,0.8,0.6,1c1,0.5,0.8,1.4,1,2.4c0.3,1,1.2,2.6,2.7,3.7c0.2-0.6,0.1-1.6,0-2.9c2,1,0.4,5.1,4.4,5.1  c-0.7-0.4-0.5-1.5-0.1-1.7c0.4-0.2,1,0.3,1.7,1.3c0.8,1.1,0.6,1,2.4,1c1.9,0,1-0.6,2-0.6c1,0,0.9,1.1,0.4,2c1.7-0.5,2.2-1.8,1.6-3.1  c1.5-0.8,2.3,0.3,2.5,1.1c1.5-1.5,0-3.2-1.1-3.3c0-0.5-0.5-1.1-1.1-1.1c-0.6,0-1.2-0.1-1.9,0c-0.7,0-1.1,1-1.9,1  c-2.5,0-7.4-4.5-7.4-6.5c0-2,4.7-3.1,4.7-6.2c0-4-3.9-5.3-7.2-7.8c1.2-1.3,4.6-1.6,6.5-0.7c0.2-1.1,0.9-0.8,1.2-2.7  c0.7,1.7,0,3.1,0.7,3.8c0.5-0.8,2-0.7,1.9-2.8c0.4,1.3-0.5,3.3,0.4,4.2c0.2-1.1,0.8-1.3,1.2-1.3c0.4,0,0.8,0.3,0.8,0.9  c0,1.6-2,0.8-2,2.6c0,0.7,0.9,1,0.9,1.5c0,0.5-0.8,1.2-1.7,0.6c0.3,0.7,0.9,1.3,1.8,1.3c0.9,0,1.8-0.7,2.1-1.6  c0.5,1.1,0.1,2.4-0.7,2.6c0.9,0.4,2.9,0,2.7-2.6c1.2,0.2,1.8,1,1.1,2.4c0.9-0.2,1.8-0.7,1.8-1.7C80.3,59.4,79.4,59.2,79.8,58.2" /><path d="M155.9,77.1c0-1.4,1.1-2.5,2.5-2.5c1.4,0,2.5,1.1,2.5,2.5c0,1.4-1.1,2.5-2.5,2.5C157,79.6,155.9,78.5,155.9,77.1   M155.1,77.1c0,1.8,1.5,3.3,3.3,3.3c1.8,0,3.3-1.5,3.3-3.3c0-1.8-1.5-3.3-3.3-3.3C156.6,73.8,155.1,75.3,155.1,77.1" /><path d="M144.2,83.2c-1-0.2-1.6-0.9-1.5-1.6c0.1-0.3,0.3-0.6,0.5-0.7c0.4-0.3,0.9-0.4,1.5-0.3c0.9,0.2,1.5,0.8,1.5,1.4  c0,0.1,0,0.1,0,0.2C146,82.9,145.1,83.3,144.2,83.2 M142.7,80.2c-0.4,0.3-0.7,0.7-0.8,1.2c-0.1,0.6,0.1,1.2,0.5,1.7  c0.4,0.5,1,0.8,1.7,0.9c0.7,0.1,1.3,0,1.9-0.3c0.6-0.3,1-0.8,1.1-1.4c0.2-1.2-0.8-2.3-2.2-2.6C144,79.6,143.3,79.8,142.7,80.2" /><path d="M124.2,35.5c0-0.4,0.3-0.9,0.7-1.3c0.4-0.3,0.9-0.4,1.3-0.4c0.2,0,0.4,0.1,0.6,0.3c0.2,0.2,0.2,0.5,0.2,0.7  c-0.1,0.4-0.3,0.8-0.7,1.1c-0.6,0.5-1.5,0.5-1.9,0.1C124.3,35.9,124.2,35.7,124.2,35.5 M124.4,33.6c-1,0.8-1.3,2.2-0.7,3h0  c0.7,0.9,2,0.9,3.1,0.1c0.6-0.4,0.9-1.1,1-1.7c0.1-0.5-0.1-1-0.3-1.3c-0.3-0.4-0.7-0.6-1.2-0.7C125.7,33,125,33.2,124.4,33.6" /><path d="M140.1,79.3L140.1,79.3L140.1,79.3 M140.1,78.4L140.1,78.4c-0.3,0-0.6-0.2-0.8-0.3c-0.3-0.3-0.5-0.9-0.5-1.4  c0-0.6,0.2-1.1,0.6-1.4c0.2-0.2,0.4-0.3,0.8-0.3c0.7,0,1.3,0.8,1.2,1.8c0,0.5-0.2,1.1-0.6,1.4C140.7,78.3,140.4,78.5,140.1,78.4   M138.8,74.7c-0.5,0.5-0.8,1.2-0.8,2v0.1c0,0.8,0.3,1.5,0.7,2c0.4,0.4,0.9,0.6,1.3,0.6c0.5,0,1-0.2,1.4-0.6c0.5-0.5,0.8-1.2,0.8-2  c0-0.7-0.2-1.3-0.6-1.8c-0.4-0.5-0.9-0.8-1.5-0.8C139.7,74.1,139.2,74.3,138.8,74.7" /><path d="M123.2,51.1c-0.9-0.4-1.3-1.3-1-1.9c0.1-0.3,0.4-0.5,0.6-0.5c0.5-0.2,1-0.1,1.5,0.1c0.5,0.2,0.9,0.6,1,1.1  c0.1,0.2,0.1,0.5,0,0.8c-0.2,0.3-0.4,0.5-0.6,0.5C124.3,51.4,123.7,51.3,123.2,51.1 M122.5,47.8c-0.5,0.2-0.9,0.5-1.1,1  c-0.5,1.1,0.1,2.4,1.4,3c0.7,0.3,1.5,0.4,2.1,0.2c0.5-0.2,0.9-0.5,1.1-1c0.2-0.4,0.2-1,0.1-1.5c-0.2-0.7-0.8-1.2-1.5-1.6  C124,47.7,123.2,47.6,122.5,47.8" /><path d="M146.6,63c-0.5,0.8-1.5,1-2.1,0.6c-0.6-0.4-0.6-1.4-0.1-2.2c0.5-0.8,1.5-1,2.1-0.6C147.1,61.2,147.1,62.2,146.6,63   M142.7,69.1c-0.5,0.8-1.5,1-2.1,0.6c-0.6-0.4-0.7-1.4-0.1-2.2c0.5-0.8,1.5-1,2.1-0.6C143.2,67.4,143.2,68.4,142.7,69.1 M129.3,35.3  c0.5-1.4,1.3-4.3,1.3-4.3l1.5,0.6c-0.4,0.2-1,0.6-1.4,1c0.3,0.2,1,0.2,1.4-0.1l-0.6,1.5c-0.1-0.2-0.6-0.8-1-0.9  c-0.3,1.2,0.5,1.7,1,2c0.9,0.5,1.5,0.5,1.8,0.1c0.3-0.5-0.3-1.3-1.1-0.9c-0.1-0.8,0.4-1.2,0.9-1.2c0.4,0,0.7,0.4,0.9,0.9  c-0.1-1.3,0.5-2.3,1.7-2.7c0.4,1.2,0.1,2.1-0.9,3c0.5-0.2,1.1-0.2,1.3,0.2c0.3,0.4,0.2,1-0.5,1.4c-0.2-0.8-1.1-0.9-1.4-0.4  c-0.3,0.5,0.1,1,1,1.5c1,0.5,1.8,0.2,2.3-0.6c-0.3-0.1-0.9,0-1.4,0.3l1-1.9c0.1,0.3,0.2,0.7,0.6,1.1c0.1-0.4,0.4-1.2,0.1-1.8  l2.2,1.3c-0.7,0.1-1.3,0.6-1.5,1c0.5,0.2,1,0.1,1.3,0l-1.1,1.8c0-0.6-0.2-1.1-0.5-1.4c-0.5,0.9-0.4,1.7,0.6,2.3  c0.8,0.5,1.5,0.6,1.8,0.1c0.3-0.5-0.2-1.3-1-1c0-0.8,0.4-1.2,1-1.2c0.4,0,0.7,0.5,0.8,1c0.3-1.3,0.9-2,2.2-2.2  c0.3,1.2-0.3,2.2-1.4,2.8c0.5-0.2,1-0.1,1.2,0.3c0.3,0.5,0.1,1-0.6,1.4c-0.1-0.8-1-1-1.3-0.5c-0.2,0.4,0.1,0.9,1,1.5  c0.5,0.3,1.3,0.8,2.2-0.1c-0.3-0.3-1-0.4-1.3-0.4l1-1.3c0,0.5,0.3,1,0.6,1.2c0.2-0.6,0.2-1.3,0.2-1.8l1.3,1c0,0-2,2.2-3.1,3.3  L129.3,35.3z M145.5,53.8c0-0.2,0.1-0.5,0.3-0.8c0.3-0.2,0.6-0.3,0.8-0.3c0.5,0,1,0.3,1.4,0.7c0.4,0.4,0.6,0.9,0.6,1.4  c0,0.2-0.1,0.5-0.3,0.7l0,0c-0.2,0.2-0.6,0.3-0.8,0.3c-0.5,0-1-0.3-1.3-0.7C145.7,54.8,145.5,54.2,145.5,53.8 M151.5,81.1  c0.1-0.5,0.4-0.9,0.9-1.2c0.5-0.3,1-0.4,1.5-0.3c0.2,0.1,0.5,0.2,0.7,0.5v0c0.2,0.3,0.2,0.6,0.1,0.8c-0.1,0.5-0.4,0.9-0.9,1.2  c-0.8,0.5-1.8,0.5-2.2-0.1C151.4,81.6,151.4,81.3,151.5,81.1 M123.2,39.9c0,0.5-0.2,0.9-0.5,1.2c-0.1,0.1-0.4,0.3-0.6,0.2  c-0.6,0-1-0.7-1-1.4c0,0,0-0.1,0-0.1c0-0.5,0.2-0.9,0.5-1.2c0.1-0.1,0.4-0.3,0.6-0.3c0.3,0,0.5,0.2,0.6,0.3  C123.1,39,123.2,39.4,123.2,39.9 M131.9,21.9c0.5-0.9,0-2.2,1.6-2.2c0.8,0,1.5,0.8,2.5,1.1C134.5,20.9,133.1,21.3,131.9,21.9   M157.4,44.4c1.1,3,3.2,4,4.9,3.3c-3.7-0.4-0.7-6.7-5.4-6.7c-0.3,0-0.5,0-0.8,0.1c-0.8-0.8-1.7-1.2-3.1-1.2c-2,0-5.4,1.9-5.4,5.9  c0,8.6,10,9.3,10,16.9c0,2.2-1.7,3.6-3.5,3.6c-1.7,0-3-1.9-4.4-4.8c-0.7-1.4-2.1-3.3-3.7-5.3c0.5,0.3,1,0.5,1.5,0.5  c0.5,0,1-0.2,1.4-0.5c0.4-0.3,0.6-0.8,0.6-1.3v-0.1c0-0.7-0.3-1.4-0.8-1.9c-0.5-0.6-1.3-0.9-2-0.9c-0.5,0-1,0.2-1.4,0.5  c-0.4,0.3-0.6,0.8-0.6,1.3v0.1c0,0.3,0.1,0.6,0.2,0.9c-2.1-2.8-4.1-5.5-4.1-7c0-1.3,0.9-2.5,2-3.9c0.1,0,0.4,0.2,0.4,0.2l0.3-0.3  c0.4-0.4,1.2-1.3,3-3.2l0.1-0.1l0,0l0.4-0.4l-1.1-0.9c0.3-0.6,0.5-1.3,0.7-2.1c0.3,1.4,1,2.2,2,2c-0.6-1.4,0.7-3.3-0.2-6.8  c0.8,1.3,2,2.1,2.8,1.8c-2.2-2,0.7-4.7-2.2-8.9c0.9,0.3,1.6,0.1,2-0.3c-2.6-0.4-1.4-3.7-6-4.9c1.1-0.2,1.8-0.9,1.6-1.5  c-1.2,0.9-2.3-1.6-6.3-1.6c-0.2-1.5-1.6-3.1-3.2-3.8c0.3,1.2,0,2.2-0.3,3.1l-13-12.7c-0.4-0.4-0.6-0.4-0.7-0.3  c-0.1,0.1-0.1,0.4,0.1,0.6l11.1,14c-0.8,0.3-1.7,0.6-2.5,1c-0.5,0.2-1,0.7-1,1.4c-2.1,1-3.9,2.3-4.8,3.1c-0.7,0.6-1.2,0.8-0.6,2.2  c0.2,0.5-0.5,1.9,1.1,0.9c1.1-0.6,3.5-2,3.8-1.1c0.2,0.4-1,1-1.8,1.3c-0.8,0.3-1.7,0.9-1.6,1.3c0.1,0.3,0.8,0,0.8,0.3  c0,0.4,0.3,0.7,0.6,0.7c0.3,0,0.7-0.7,1-0.5c0.3,0.2-0.1,1.8-0.4,2.1c1.3-0.2,2.1-1.4,2.1-2.3c0-0.9,0.3-1.2,0.5-1.3  c0.2-0.1,0.4,1,0.2,1.7c0.7-0.1,1.4-1,1.3-2.6c0.3-0.3,0.7-0.5,0.9-0.5c0.4,0,1.3,1.2,2.5,1.2c2.2,0,3.4-1.8,3.6-2.6  c0.1-0.7,0.1-1.3-0.3-1.8c0.8,0.6,1,1.6,1,2.4c0,3.1-5.5,4.6-7.8,6.8c-0.1,0.1-0.2,0.2-0.3,0.2l-2.6-1l-0.2,0.6c0,0,0,0.1-0.2,0.5  c-0.3,0.9-0.8,2.7-1.2,3.8c0,0-0.1,0.4-0.1,0.4l0.2,0.1c-1.5,2-2.8,4.3-3.1,6.7c-0.6-0.6-1.2-1.2-1.9-1.7c0.1-0.2,0.1-0.5,0.1-0.7  c0-0.7-0.2-1.4-0.6-1.8c-0.3-0.4-0.7-0.6-1.2-0.6c-0.5,0-0.9,0.1-1.3,0.5c-0.1,0.1-0.2,0.2-0.2,0.2c-0.1-0.1-0.2-0.1-0.3-0.2  c-0.9-0.7-1.9-1.4-2.6-2.1c-0.3-0.3-0.5-0.5-1.1-0.5c-0.2,0-0.8,0-1.2,0c-0.4,0-0.6,0.3-1,0.7c-0.2,0.2-0.8,0.6-1.5,1.2  c0.3,0.3,0.6,0.7,0.9,1c0.2,0.2,0.3,0.4,0.5,0.6c0.2-0.1,0.3-0.3,0.5-0.4c0.3-0.2,0.6-0.3,1-0.3c0.3,0,0.8,0.2,1.1,0.7  c0.2,0.4,2.3,3.1,4.1,5c-0.2,0.1-0.4,0.1-0.6,0.2c-0.7,0.3-2.4,0.2-3.2,0.2c-0.7-0.1-0.9-0.3-1.4,0.5c-0.2,0.3-0.4,0.7-0.7,1  c-0.2,0.3-0.4,0.6,0.1,1.5c0.8,1.3,2.7,4.7,3.3,6.2c0.6,1.5,1.4,1.8,2.6,2.3c1.2,0.5,3.3,1.7,3.5,2l0.1-1.2  c-0.4-0.4-1.5-0.8-1.9-0.9c-0.4-0.2-0.6-0.3,0-0.3c0.5,0,2,0.5,3,0.9c-0.3-1.2-1.4-2.4-2.1-3.1c-0.9-0.3-1.8-0.3-2.1,0  c0,0.2-0.1,0.5-0.5,0.5c-0.3,0-0.6-0.3-0.5-0.6c0.1-0.3,0.6-0.5,0.5-1.1c-0.1-0.7-0.9-0.8-1.5-0.8c-0.7-1.1-1.6-2.6-2-3.3  c-0.4-0.6-0.2-1,0.1-1.2c0.6-0.5,2,0.3,4.6,0.4c0.9,0.1,2.1,0.1,3.3,0.2c0.3,3.1,1.6,6,5.8,7c2.1,0.5,4.2,2,5,4  c-8.5-0.2-9.9,3.2-9.9,6.3c0,3.6,3,3.4,3,6c0,2.3-7.2,3.3-9.3,3.6c-1.8,0.3-2.9,0.7-3.8,1.6c-0.9,0.9-1.8,1.7-3.4,3.3  c0,0,0.7,0.2,1.4,0.1l1.2-1.6c0.4-0.5,0.6-1,0.8-0.9c0.2,0,0.1,0.4-0.2,1l-1,1.7c4.2,0.3,4.5-1.3,4.5-1.9c0-0.6-1-1.1-0.4-1.5  c0.6-0.4,1.1-0.1,1.6,0.4c0.5,0.6,0.6,1,1.8,0.6c0,0,9.2-3.8,10.3-4.3c1-0.5,0.7-0.9,0.1-1.4c-0.7-0.6-0.8-1.5-0.8-2.4  c0-2.8,1.7-3.6,4.6-3.6c-0.1,0.5-0.1,0.9-0.1,1.3c0,4.3,6.5,8.6,8.3,8.6c0.8,0,1.9-0.6,1.9,2c0.1,1.9,0.4,3.3,0.1,5.5  c-0.3,2.2-1,2.6-2.3,3.5c-1.3,0.9-2.6,3.9-3.1,4.5c0.6,0.4,1.2,0.4,1.7-1c0.4-1.2,0.9-2,1.4-2.3c-0.5,1.3-0.9,3.2-1.1,3.8  c1.7,0.3,4.4-1.2,4.4-2.4c0-1.2-0.9-1.1-0.9-1.9c0-0.3,0.4-0.7,0.9-0.7c0.7,0,1.2,0.5,1.2,0.8c0.7-0.4,1.2-1.1,1.2-2.9  c0-0.7,0-1.4-0.1-2.1c0,0.1,0.1,0.2,0.1,0.3c0.3,0.5,0.9,0.8,1.5,0.9c0.6,0,1.3-0.1,1.8-0.5c0.7-0.4,1.1-1.1,1.2-1.8  c0-0.1,0.1-0.3,0.1-0.4c0-0.4-0.1-0.7-0.3-1c-0.3-0.4-0.7-0.7-1.2-0.8c-0.7-0.1-1.5,0-2.1,0.5c-0.6,0.4-1,1-1.2,1.6  c-0.1-2.4-0.3-4.6-0.2-5.5c0.1-1.3,0.1-1.9-0.3-2.1c-0.4-0.2-0.9,0.5-1.6,0.5c-0.6,0-2.6-1.8-2.6-3.6c0-1.9,2-4.3,1.9-6.8  c0-0.8,0.5-1.2,0.8-0.5c0.4,0.9,1,2.1,1.8,3c-0.5,3.2,3,6.4,5.9,4c-1.4,0.2-2.4-1.1-3.1-2.4c0.2,0,0.5,0.1,0.8,0.1  c0.1,0,0.3,0,0.4,0c1,1.3,4.3,1.2,5.1-2c-0.6,0.7-1.7,1.2-2.6,1c1.2-1,1.9-2.5,1.9-4.2c0-8.2-9.9-9.1-9.9-16.5  c0-2.8,2.4-4.5,4.1-4.5c0.6,0,1.1,0.2,1.5,0.5c-0.6,0.6-1,1.6-0.9,2.8c0.3,5.9,9.8,5.6,10,8.4C164.8,48.8,157.7,50.2,157.4,44.4" /></svg>