<svg viewBox="0 0 194.4 283.5" role="img" aria-labelledby="rcm-accredited--title" xmlns="http://www.w3.org/2000/svg" xmlns:xlink="http://www.w3.org/1999/xlink"><title id="rcm-accredited--title">RCM Accredited</title><path d="M2.2,1.5h190v280.3H2.2V1.5z" fill="#84CEF2"  /><path d="M3.7,279.6h187.1V3.6L3.7,3.7 M194.4,283.5H0V0h194.4V283.5z M23.6,179.4h20.2c13.3,0,19.9,4.1,19.9,13.1  c0,4.6-2.3,7.9-6.9,10c2.4,1.3,3.9,3.4,5.2,6.4l6.5,14.8H53.4l-4.3-9.9c-2.7-6.2-4.3-8.6-8.1-8.6h-2.1v18.6H23.6V179.4z M41.7,197.6  c4.9,0,7.3-1.2,7.3-5.1c0-3.8-2.3-5.2-7-5.2h-3.2v10.3H41.7z M96.6,190.3c-7.4,0-12.2,4.6-12.2,11.2c0,6.8,4.8,11.3,12.2,11.3  c4.7,0,9-1.4,13.4-4.3l0.4,12c-5.2,2.7-10.6,4-16.8,4c-6.9,0-12.7-2.3-17.3-6.6c-4.7-4.4-7.1-9.8-7.1-16.4c0-6.6,2.3-12,7.1-16.4  c4.8-4.5,10.7-6.5,18.2-6.5c5.4,0,10.4,1.2,15.5,3.7v12.1C105.6,191.7,101.2,190.3,96.6,190.3" fill="#FFFFFF"  /><path d="M116.7,179.4h14.1l13,17.8l13-17.8h14.1v44.3h-15.3v-23.8l-11.8,16.2L132,199.9v23.8h-15.3V179.4z   M164.2,89.9c0,23.9-12.6,44.9-31.4,56.8c-7.5,4.7-15.9,7.9-25,9.4c-3.4,0.5-7,0.8-10.6,0.8c-16.4,0-31.5-5.9-43.1-15.7  c-14.6-12.3-23.9-30.7-23.9-51.3c0-37,30-67,67-67S164.2,52.9,164.2,89.9" fill="#FFFFFF"  /><path d="M164.2,89.9c0,23.9-12.6,44.9-31.4,56.8  c-7.5,4.7-15.9,7.9-25,9.4c-3.4,0.5-7,0.8-10.6,0.8c-16.4,0-31.5-5.9-43.1-15.7c-14.6-12.3-23.9-30.7-23.9-51.3c0-37,30-67,67-67  S164.2,52.9,164.2,89.9L164.2,89.9z" fill="none"  stroke="#FFFFFF"  stroke-width="1.457"  stroke-miterlimit="10"  /><path d="M139.8,75.9c-1.5-2.4-4.8-4.3-9.2-5.3c-4.9-1.2-7.6-0.8-10.8-1.8c-0.5-0.1-1.1-0.8-1.6-1.5  c4.5-3.3,7.1-9.6,6.4-16.4c-1-9.6-8.1-16.7-15.9-15.9s-13.3,9.2-12.3,18.8c0.8,7.5,5.3,13.4,10.9,15.3c-0.2,0.6-0.5,1.1-0.6,1.4  c-1,1.6-5.1,2.2-5.9,2.5c-1.9,0.6-3.8,0.7-5.4,1.6c-1.1,0.7-1.4,0.8-2.4,3.1c-0.6,1.7-0.7,3.3-0.8,5l-3.9,70.8v0.2  c6.4,2,13.2,3.1,20.3,3.1c3.6,0,7.5-2.5,11-3.1c8.8-1.4,13-7.1,20.3-11.6l-0.6-0.9c-4.7-6.5-5.3-6.1-9.4-12.3c0,0,8-5.5,10.9-8.9  c3.5-4,5.1-4.3,6.2-14.4C148.1,96,144.3,83.3,139.8,75.9" fill="#1C9CD8"  /><path d="M105.4,157.2c-16.7,0-35.3-1.3-47-11.2l-0.5-0.4l0.4-0.5c0.1-0.1,6.9-9.6,7.7-10.9c0-0.1,0-0.2,0.1-0.3  c0.2-0.8,0.2-0.9,0-1l-2.7-0.9c-2.8-1-5.4-1.9-8.2-3.3c-2.1-1.1-4.5-3-6.1-4.8c-2.3-2.9-3.1-5.9-2.5-9.3c1.4-7.8,3.5-13.2,5.4-17.4  c2.8-6.3,5.4-12.3,10.6-16.5c2.5-2,4-2.9,7.7-4c0.1,0,0.5-0.2,2.8-1.2c0,0,0.8-0.3,1.5-0.9c0.7-0.6,1.2-1.8,1.2-2  c0-0.1,0-0.3,0.1-0.5C70.6,68,68.7,60,71.3,52.4s9-13,15.8-13c1.3,0,2.7,0.2,3.9,0.6c7.7,2.6,11.4,12.4,8.2,21.7  c-2,5.8-6.1,10.3-11.2,12.1c-0.1,0.8-0.1,1.7,0.1,2c1.6,1.3,4,1.3,6.2,1.2h1.3c2.6,0,5.8,0.4,7.1,1.3c3,2,6.8,6.4,8.4,8.5l0.2,0.2  c2.6,3.3,6.4,8.4,9.4,14.4c1.7,3.4,4.1,12.2,2.9,17.6c-0.7,3.1-2.3,5-3.9,6.4c-3.4,3.2-7.2,4.7-11.1,6.3c-1.2,0.5-2.4,1-3.7,1.5  c0.9,3.4,2.3,5.6,4.3,8.7c0.5,0.8,1,1.6,1.6,2.5c1.5,2.4,2.4,4.4,3.4,6.8c0.3,0.7,0.6,1.4,1,2.3l0.4,0.8l-0.9,0.1  c-1.3,0.2-2.6,0.7-3.9,1.2C109.2,156.5,107.5,157.2,105.4,157.2 M126.6,112.2c-5.6,6.1-14,7.6-18.7,3.2c-4.7-4.3-4-12.8,1.6-18.9  s14-7.6,18.7-3.2C132.9,97.6,132.2,106.1,126.6,112.2" fill="#0059A2"  /><path d="M97.2,25c-35.8,0-64.9,29.1-64.9,64.9c0,19.2,8.4,37.3,23.1,49.7c11.7,9.8,26.5,15.2,41.8,15.2  c3.4,0,6.9-0.3,10.2-0.8c8.6-1.4,16.8-4.4,24.2-9.1c19.1-12,30.5-32.5,30.5-55C162.2,54.1,133,25,97.2,25 M97.2,158.5  c-16.2,0-31.8-5.7-44.2-16.1c-15.5-13.1-24.4-32.2-24.4-52.5c0-37.8,30.8-68.6,68.6-68.6s68.6,30.8,68.6,68.6  c0,23.8-12,45.5-32.2,58.2c-7.9,4.9-16.5,8.2-25.6,9.6C104.5,158.2,100.8,158.5,97.2,158.5" fill="#FFFFFF"  /><path d="M31.8,240.3L31.8,240.3l-2.6,11.6h5.1L31.8,240.3z M35.9,259.9l-1.2-4.9h-6.1l-1.2,4.9h-4l5.8-23.4h5  l5.7,23.4H35.9z M53.2,259.6c-1,0.6-2.2,0.9-3.6,0.9c-1.3,0-2.5-0.3-3.6-0.9c-1.1-0.6-2-1.5-2.7-2.6c-0.7-1.1-1.3-2.4-1.7-3.9  S41,250,41,248.2c0-1.8,0.2-3.4,0.6-4.9c0.4-1.5,1-2.8,1.7-3.9c0.8-1.1,1.7-1.9,2.7-2.5c1.1-0.6,2.2-0.9,3.5-0.9  c1.3,0,2.5,0.2,3.5,0.7c1,0.5,1.8,1.2,2.5,2.1l-2.3,2.8c-0.9-1.3-2.1-1.9-3.5-1.9c-0.8,0-1.5,0.2-2.1,0.7c-0.6,0.5-1.1,1.1-1.5,1.8  c-0.4,0.8-0.7,1.7-0.9,2.7c-0.2,1-0.3,2.2-0.3,3.3c0,1.2,0.1,2.3,0.3,3.3c0.2,1,0.5,1.9,0.9,2.7c0.4,0.8,0.9,1.4,1.5,1.8  c0.6,0.5,1.3,0.7,2.1,0.7c0.8,0,1.4-0.2,2-0.6c0.6-0.4,1-0.9,1.4-1.4l2.3,2.7C54.9,258.3,54.1,259.1,53.2,259.6 M68.5,259.6  c-1,0.6-2.2,0.9-3.6,0.9c-1.3,0-2.5-0.3-3.6-0.9c-1.1-0.6-2-1.5-2.7-2.6c-0.7-1.1-1.3-2.4-1.7-3.9s-0.6-3.1-0.6-4.9  c0-1.8,0.2-3.4,0.6-4.9c0.4-1.5,1-2.8,1.7-3.9s1.7-1.9,2.7-2.5c1.1-0.6,2.2-0.9,3.5-0.9c1.3,0,2.5,0.2,3.5,0.7s1.8,1.2,2.5,2.1  l-2.3,2.8c-0.9-1.3-2.1-1.9-3.5-1.9c-0.8,0-1.5,0.2-2.1,0.7s-1.1,1.1-1.5,1.8c-0.4,0.8-0.7,1.7-0.9,2.7c-0.2,1-0.3,2.2-0.3,3.3  c0,1.2,0.1,2.3,0.3,3.3c0.2,1,0.5,1.9,0.9,2.7c0.4,0.8,0.9,1.4,1.5,1.8c0.6,0.5,1.3,0.7,2.1,0.7s1.4-0.2,2-0.6  c0.6-0.4,1-0.9,1.4-1.4l2.3,2.7C70.2,258.3,69.4,259.1,68.5,259.6" fill="#0059A2"  /><path d="M82.6,243.4c0-0.7-0.1-1.3-0.3-1.7c-0.2-0.5-0.5-0.8-0.8-1.1c-0.3-0.3-0.7-0.5-1.1-0.6  c-0.4-0.1-0.8-0.2-1.2-0.2H77v7.2h2.2c1,0,1.8-0.3,2.4-0.9C82.2,245.5,82.6,244.6,82.6,243.4 M82.8,259.9l-3.6-10H77v10h-3.8v-23.4  h6.7c1,0,1.9,0.1,2.7,0.4c0.8,0.3,1.5,0.7,2.1,1.2c0.6,0.6,1,1.2,1.4,2.1c0.3,0.8,0.5,1.8,0.5,3c0,0.9-0.1,1.7-0.3,2.4  c-0.2,0.7-0.5,1.3-0.9,1.8c-0.4,0.5-0.7,0.9-1.2,1.2c-0.4,0.3-0.9,0.5-1.3,0.6l4.2,10.8L82.8,259.9L82.8,259.9z M89.6,259.9v-23.4  H100v3.5h-6.6v6.2h6.1v3.3h-6.1v6.9h7v3.5H89.6z M114.5,248.3c0-1.4-0.1-2.6-0.4-3.6c-0.3-1-0.6-1.9-1.1-2.6c-0.5-0.7-1-1.2-1.7-1.5  c-0.6-0.3-1.3-0.5-2.1-0.5h-1.9v16.4h1.9c0.7,0,1.4-0.2,2.1-0.5c0.6-0.3,1.2-0.9,1.7-1.5c0.5-0.7,0.8-1.5,1.1-2.6  C114.4,250.8,114.5,249.6,114.5,248.3 M118.5,248.3c0,3.7-0.8,6.6-2.3,8.6c-1.6,2-3.8,3.1-6.8,3.1h-5.8v-23.4h5.9c3,0,5.3,1,6.8,3.1  C117.7,241.7,118.5,244.6,118.5,248.3" fill="#0059A2"  /><path d="M121.3,236.5h4v23.4h-4V236.5z M135.9,239.9v20H132v-20h-4.3v-3.4h12.6v3.4H135.9z M142.5,259.9v-23.4H153  v3.5h-6.7v6.2h6.2v3.3h-6.2v6.9h7v3.5H142.5z M166.9,248.3c0-1.4-0.1-2.6-0.4-3.6c-0.3-1-0.6-1.9-1.1-2.6c-0.5-0.7-1-1.2-1.6-1.5  c-0.6-0.3-1.3-0.5-2.1-0.5h-1.9v16.4h1.9c0.7,0,1.4-0.2,2.1-0.5c0.6-0.3,1.2-0.9,1.6-1.5c0.5-0.7,0.8-1.5,1.1-2.6  C166.8,250.8,166.9,249.6,166.9,248.3 M170.9,248.3c0,3.7-0.8,6.6-2.3,8.6s-3.8,3.1-6.8,3.1H156v-23.4h5.9c3,0,5.3,1,6.8,3.1  C170.1,241.7,170.9,244.6,170.9,248.3" fill="#0059A2"  /></svg>