<svg viewBox="0 0 1333 283.5" role="img" aria-labelledby="spring--title" xmlns="http://www.w3.org/2000/svg" xmlns:xlink="http://www.w3.org/1999/xlink"><title id="spring--title">SPRING</title><g><path d="M20.3,217c2.7,11.9,6.4,21.3,11,28.2s10.6,12,17.9,15.3c7.3,3.3,16.7,5,28.2,5c15.8,0,28-4.1,36.4-12.4   c8.4-8.3,12.7-20.3,12.7-36.1c0-10.1-1.8-18.7-5.3-25.6c-3.5-6.9-9.3-13.4-17.2-19.5c-8-6.1-20.2-13.2-36.5-21.3   c-15.8-7.8-28.3-15.5-37.5-23s-16.1-15.7-20.6-24.5s-7-18.3-7-28.7C2.4,59.3,6,46.2,13.1,35S30.6,15.2,44.3,9.1S73.8,0,91.5,0   c10.3,0,20.3,0.5,30.1,1.6s22.1,3.5,36.8,7.3v54.8h-20.1c-3.1-11.9-7-21.2-11.8-27.8c-4.7-6.6-10.3-11.3-16.6-13.9   c-6.4-2.6-14.6-4-24.8-4c-8.8,0-16.7,1.6-23.6,4.9c-6.9,3.3-12.4,8.2-16.5,14.7S39,52,39,61.1c0,9.6,1.7,17.7,5.2,24.3   c3.4,6.6,8.8,12.8,16.1,18.5s18.1,12,32.5,19.1c17.3,8.7,30.7,16.7,40.3,24.1c9.5,7.4,17,15.9,22.3,25.5c5.3,9.5,8,20.7,8,33.4   c0,14.2-2.2,26.2-6.7,36c-4.5,9.8-10.7,17.8-18.6,23.9c-7.9,6.2-17.4,10.6-28.4,13.4s-23.1,4.2-36.2,4.2   c-21.2,0-45.7-3.6-73.5-10.8V217H20.3z M269.2,228.8c0,8,0.4,14.3,1.3,19.1c0.9,4.7,2.2,8.5,4.1,11.3c1.8,2.8,4.3,4.9,7.4,6.5   c3.1,1.6,8,3.1,14.6,4.6v9.9h-89.1v-9.9c8.4-2.2,14-4.6,16.8-7.2c2.8-2.6,4.7-6.4,5.6-11.3c0.9-4.9,1.3-12.3,1.3-22.3V54   c0-9.3-0.3-16.1-1-20.4s-1.8-7.6-3.3-9.9s-3.6-4.3-6.2-5.7c-2.6-1.4-7-3-13.2-4.8v-10h100.6c31.7,0,55.2,6.1,70.7,18.2   c15.5,12.1,23.2,30.5,23.2,55.3c0,14.1-2.4,26.7-7.3,37.9c-4.9,11.2-11.8,20.4-20.7,27.6c-8.9,7.2-19.5,12.3-31.7,15.4   s-25,4.7-38.3,4.7c-15,0-26.6-0.3-34.9-0.8L269.2,228.8L269.2,228.8z M269.2,144.6h23.5c15.3,0,27.9-2,37.8-6s17.6-10.6,22.8-19.9   c5.3-9.3,7.9-21.5,7.9-36.8c0-11.6-1.6-21.3-4.7-29.1c-3.1-7.8-7.4-14-12.9-18.8s-12-8.1-19.6-10c-7.6-2-15.8-2.9-24.8-2.9   c-13.4,0-23.5,0.3-30.2,0.8v122.6H269.2z M506.1,159.8v69c0,9.7,0.4,16.8,1.1,21.2c0.7,4.4,1.9,7.7,3.3,9.9   c1.5,2.2,3.5,4.1,6.1,5.5s7,3,13.2,4.8v9.9h-85.6v-9.9c8.4-2.2,14-4.6,16.8-7.2c2.8-2.6,4.7-6.4,5.6-11.3s1.3-12.3,1.3-22.3V54   c0-9.3-0.3-16.1-1-20.4s-1.8-7.6-3.3-9.9c-1.5-2.3-3.6-4.3-6.2-5.7c-2.6-1.4-7-3-13.2-4.8v-10h100.4c31.7,0,55.3,5.7,71,17.2   S639,49.8,639,74c0,18.5-5.1,34.3-15.3,47.3c-10.2,13-25.5,23.1-46,30.4v1.6c8.3,3.4,15.3,8.2,21.2,14.5   c5.9,6.3,12.4,16.1,19.6,29.3l18.3,33.3c5.3,9.7,9.8,17.2,13.6,22.3c3.8,5.1,7.6,9.1,11.6,11.8c3.9,2.7,9.1,4.6,15.6,5.7v9.9h-56.2   c-5.1-7.2-10-14.9-14.6-23.1c-4.6-8.3-9.1-16.6-13.6-25.2l-17.8-33.8c-5.4-10.3-9.8-17.9-13.3-22.7c-3.4-4.9-6.6-8.3-9.5-10.2   c-2.9-1.9-6-3.3-9.3-4.1c-3.3-0.7-8.3-1.1-14.9-1.1H506.1L506.1,159.8z M506.1,21.9v120.4h22.9c11.8,0,21.3-0.8,28.6-2.5   c7.3-1.7,14.1-4.9,20.3-9.6c6.2-4.7,11.2-11.3,14.9-19.8s5.6-18.8,5.6-31.1c0-12.9-2.2-23.5-6.6-32.1c-4.4-8.5-11.1-15-20-19.5   c-8.9-4.5-21-6.7-36.1-6.7C523.4,21.1,513.6,21.4,506.1,21.9L506.1,21.9z M763.6,229.4c0,9.1,0.3,15.7,0.9,19.9   c0.6,4.2,1.6,7.5,3,9.9c1.4,2.4,3.5,4.5,6.3,6.1s7.3,3.2,13.5,4.9v9.9h-85.6v-9.9c8.4-2.2,14-4.6,16.8-7.2   c2.8-2.6,4.7-6.4,5.6-11.3s1.3-12.3,1.3-22.3V54c0-9.3-0.3-16.1-1-20.4c-0.7-4.3-1.8-7.6-3.3-9.9c-1.6-2.4-3.6-4.3-6.2-5.7   c-2.6-1.4-7-3-13.2-4.8v-10h85.6v9.9c-6,1.5-10.2,3-12.9,4.5c-2.7,1.5-4.7,3.3-6.3,5.6c-1.6,2.3-2.7,5.6-3.4,10   c-0.7,4.4-1.1,11.4-1.1,20.8V229.4z M999.2,170.3c4.9,8.1,9,15.2,12.3,21.3c3.3,6.1,6.7,12.9,10.2,20.5h2.6   c-0.7-8.3-1.3-24.7-1.8-49.2c-0.5-24.6-0.8-46.7-0.8-66.5V54c0-9.3-0.3-16.2-0.8-20.5s-1.5-7.6-2.9-9.9s-3.4-4.2-5.9-5.6   c-2.5-1.4-6.9-3-13.1-4.8v-10h73v9.9c-6.1,1.6-10.4,3.1-12.9,4.5c-2.5,1.4-4.5,3.1-6.1,5.3c-1.6,2.2-2.7,5.4-3.6,9.7   c-0.9,4.3-1.2,11.4-1.2,21.3v227.4h-25.4L909.9,91.9c-7-11.8-12-20.4-15-25.8c-3-5.4-5.7-10.8-8.3-16h-3.4   c0.9,10.4,1.6,29.3,2,56.5c0.4,27.2,0.6,54.4,0.6,81.5v41.4c0,9.1,0.3,15.7,0.9,19.9c0.6,4.2,1.6,7.5,3,9.9   c1.4,2.4,3.5,4.5,6.3,6.1s7.3,3.2,13.5,4.9v9.9h-73.9v-9.9c8.4-2.2,14-4.6,16.8-7.2c2.8-2.6,4.7-6.4,5.6-11.3s1.3-12.3,1.3-22.3V54   c0-9.3-0.3-16.1-1-20.4c-0.7-4.3-1.8-7.6-3.3-9.9c-1.6-2.4-3.6-4.3-6.2-5.7c-2.6-1.4-7-3-13.2-4.8v-10h63.5L999.2,170.3   L999.2,170.3z M1313.2,279.1l-15.8,4.3l-14.8-15.8c-8.8,5.4-18,9.4-27.6,12c-9.6,2.6-20.6,3.9-33.1,3.9c-34.2,0-60-11.7-77.3-35.2   c-17.3-23.5-26-58.3-26-104.6c0-28.8,4.7-54.1,14.2-75.9s23.1-38.5,40.8-50.2C1191.4,5.9,1212.2,0,1236.1,0   c12.6,0,24.7,0.7,36.3,2.1c11.6,1.4,24.6,3.9,38.8,7.4v55.8h-20.1c-3.7-12.2-8-21.7-13-28.5c-5-6.8-11-11.7-18-14.6   c-7-2.9-15.8-4.4-26.5-4.4c-14.7,0-27.7,4.7-38.8,14.2c-11.1,9.5-19.7,23.4-25.9,41.9c-6.2,18.5-9.2,40.8-9.2,66.9   c0,26.5,2.6,49.2,7.8,68s13,33,23.2,42.5c10.3,9.5,22.9,14.3,37.9,14.3c16,0,27.8-3.5,35.5-10.4c7.7-7,11.6-17.7,11.6-32.2v-12.2   c0-12.2-0.6-21-1.9-26.4s-3.6-9.6-6.8-12.6s-8.6-5.4-16-7.3v-9.9h82v9.9c-4.9,1.6-8.5,3.5-11,5.6c-2.4,2.1-4.3,4.7-5.6,7.8   c-1.3,3.1-2.2,6.9-2.6,11.5c-0.5,4.5-0.7,11-0.7,19.4L1313.2,279.1L1313.2,279.1z" fill="#010101"  />
	
</g></svg>