<svg viewBox="0 0 769.8 283.5" role="img" aria-labelledby="university-of-nottingham--title" xmlns="http://www.w3.org/2000/svg" xmlns:xlink="http://www.w3.org/1999/xlink"><title id="university-of-nottingham--title">University of Nottingham: UK, China, Malaysia</title><g id="Symbols"><g id="UK-Header" transform="translate(-19.000000, -15.000000)"><g><g id="Group-10" transform="translate(19.000000, 15.000000)"><g id="UoN_Logo_RGB"><g id="New_Logo"><g id="Uni_of_Notts" transform="translate(109.825149, 24.610173)"><path id="Shape" d="M332.4,254.1l-0.9-2.6c-3.7,1.2-6.1,1.7-7.9,1.7c-5,0-7.8-4.4-7.8-12.4         c0-7.4,2.9-11.7,8.4-11.7c1.8,0,4.1,0.3,6.9,0.9l0.6-2.6c-2.7-0.8-5.5-1.4-7.6-1.4c-7.8,0-11.9,5.3-11.9,15.2         c0,9.6,4.1,15.2,11,15.2C325.6,256.4,328.9,255.5,332.4,254.1L332.4,254.1z" fill="#1B296B"  /><polygon id="Shape_1_" points="359.2,255.8 359.2,226.5 355.7,226.5 355.7,239.1 341.6,239.1 341.6,226.5 338.1,226.5 338.1,255.8 341.6,255.8 341.6,241.7 355.7,241.7 355.7,255.8" fill="#1B296B"  /><polygon id="Shape_2_" points="369.9,255.8 369.9,226.5 366.4,226.5 366.4,255.8" fill="#1B296B"  /><polygon id="Shape_3_" points="398.1,255.8 398.1,226.5 395.2,226.5 395.2,252.5 381.9,226.5 376.9,226.5 376.9,255.8 380,255.8 380,230.2 393,255.8" fill="#1B296B"  /><path id="Shape_4_" d="M416.7,226.5h-4l-10.5,29.3h3.2l2.9-7.9h12.6l2.9,7.9h3.7L416.7,226.5z M409.2,245.2         l5.3-15.6l5.5,15.6H409.2z" fill="#1B296B"  /><polygon id="Shape_5_" points="502.2,255.8 501.2,226.5 496.2,226.5 487.8,252.9 479.2,226.5 474.2,226.5 473.2,255.8 476.5,255.8 477,229.9 485.3,255.8 489.6,255.8 498.1,229.9 498.6,255.8" fill="#1B296B"  /><path id="Shape_6_" d="M520.8,226.5h-4l-10.4,29.3h3.2l2.7-7.9h12.6l2.9,7.9h3.7L520.8,226.5z M513.2,245.2         l5.3-15.8l5.5,15.8H513.2z" fill="#1B296B"  /><polygon id="Shape_7_" points="552.5,255.8 552.5,253.2 539.4,253.2 539.4,226.5 535.9,226.5 535.9,255.8" fill="#1B296B"  /><path id="Shape_8_" d="M569.6,226.5h-4l-10.4,29.3h3.2l2.7-7.9h12.6l2.9,7.9h3.7L569.6,226.5z M561.9,245.2         l5.3-15.8l5.5,15.8H561.9z" fill="#1B296B"  /><polygon id="Shape_9_" points="601.8,226.5 598.2,226.5 590.4,240 582.5,226.5 578.4,226.5 588.4,242.9 588.4,255.8 591.9,255.8 591.9,242.9" fill="#1B296B"  /><path id="Shape_10_" d="M621.3,247.5c0-4.4-1.7-6.4-8.1-8.4c-5.5-1.7-6.2-2.4-6.2-5.2c0-3.2,2.3-4.9,5.5-4.9         c1.8,0,4.1,0.3,7,0.9l0.6-2.6c-2.7-0.8-5.3-1.2-7.8-1.2c-5.3,0-8.8,3-8.8,8c0,6.8,6.7,7.1,11.6,9.3c2.3,1.1,2.9,2.1,2.9,4.3         c0,3.2-2.7,5.3-6.5,5.3c-2.1,0-4.4-0.5-7.5-1.2l-0.8,2.7c3.2,0.9,5.6,1.4,8.4,1.4C617.4,256.1,621.3,252.8,621.3,247.5         L621.3,247.5z" fill="#1B296B"  /><polygon id="Shape_11_" points="630.3,255.8 630.3,226.5 626.8,226.5 626.8,255.8" fill="#1B296B"  /><path id="Shape_12_" d="M649.2,226.5h-4l-10.5,29.3h3.2l2.9-7.9h12.6l2.9,7.9h3.7L649.2,226.5z M641.6,245.2         l5.3-15.8l5.5,15.8H641.6z" fill="#1B296B"  /><path id="Shape_13_" d="M243.5,244v-17.3h-3v18.5c0,2.7-0.2,4.1-0.8,5.3c-1.1,2-3.2,2.9-6.4,2.9         c-4.9,0-7.3-2.1-7.3-7v-19.7h-3.5v17c0,5.6,0.2,7,1.5,8.8c1.5,2.3,4.9,3.6,8.8,3.6c3.7,0,6.4-0.9,8.4-2.7         C243,251.6,243.5,250,243.5,244L243.5,244z" fill="#1B296B"  /><polygon id="Shape_14_" points="270.5,255.8 257,240.2 270.1,226.5 266,226.5 253.2,239.9 253.2,226.5 249.7,226.5 249.7,255.8 253.2,255.8 253.2,240.6 266.2,255.8" fill="#1B296B"  /><rect id="Rectangle-path" x="289.2" y="223.6" width="1.5" height="35.2" fill="#1B296B"  /><rect id="Rectangle-path_1_" x="447.6" y="223.6" width="1.5" height="35.2" fill="#1B296B"  /><path id="Shape_15_" d="M648.7,183.5v-35.2c0-4.4-2.4-8-8.4-8c-3.4,0-5.8,0.9-7.8,2.9         c0.6,1.7,0.8,3.3,0.8,6.8v33.6h-11.3v-35.2c0-4.1-1.1-8.4-8.4-8.4c-3.7,0-5,0.6-7,1.5v42.1h-11.3v-46.5         c4.3-1.8,10.4-4.1,18.9-4.1c7,0,11.6,1.7,14.5,4.1c3.4-2.4,7.8-4.1,14.2-4.1c11.9,0,17.1,6.8,17.1,15.3v35.2H648.7         L648.7,183.5z" fill="#1B296B"  /><path id="Shape_16_" d="M530,183.5v-34.5c0-4.9-2-8.4-8.4-8.4c-3.5,0-5.9,0.9-8.4,2.4v40.4h-11.3v-66.3h11.3         v18.4c2.9-1.4,7.2-2.3,11.1-2.3c12.3,0,16.8,7.4,16.8,14.9v35.2H530V183.5z" fill="#1B296B"  /><path id="Shape_17_" d="M392.7,126.9c-4.3,0-6.5-2.7-6.5-5.9s2.3-5.9,6.5-5.9c4.1,0,6.5,2.7,6.5,5.9         C399.3,124,396.9,126.9,392.7,126.9L392.7,126.9z" fill="#1B296B"  /><path id="Shape_18_" d="M434.5,183.5v-35.2c0-4.1-1.7-8.4-8.8-8.4c-3.7,0-5.5,0.6-7.6,1.5v42.1h-11.3v-46.5         c4.3-1.8,11-4.1,19.3-4.1c14.8,0,19.6,7.1,19.6,15v35.4h-11.3V183.5z" fill="#1B296B"  /><polygon id="Shape_19_" points="387.1,183.5 387.1,134.1 398.4,134.1 398.4,183.5" fill="#1B296B"  /><path id="Shape_20_" d="M372.3,184.2c-9.7,0-13.7-5.5-13.7-13.5v-29.5h-5.5v-7.1h5.5v-10l11.3-3.2v13.1h7.9         v7.1h-7.9v29.5c0,4.4,2.4,5.8,5.5,5.8c0.9,0,2.3,0,3.4-0.2v7.4C377.7,183.7,374.8,184.2,372.3,184.2L372.3,184.2z" fill="#1B296B"  /><path id="Shape_21_" d="M342.3,184.2c-9.7,0-13.7-5.5-13.7-13.5v-29.5h-5.5v-7.1h5.5v-10l11.3-3.2v13.1h7.9         v7.1h-7.9v29.5c0,4.4,2.4,5.8,5.5,5.8c0.9,0,2.3,0,3.4-0.2v7.4C347.7,183.7,344.8,184.2,342.3,184.2L342.3,184.2z" fill="#1B296B"  /><path id="Shape_22_" d="M260.4,183.5l-23.6-39.8c-1.5-2.4-2.6-4.9-3.8-7.7h-0.2c0.3,3.2,0.6,5.8,0.6,8v39.5         h-11v-63.2h11.6l21.9,37.2c1.2,2.3,2.4,4.3,3.5,7.1h0.2c-0.3-3.2-0.3-5.3-0.3-7.6v-36.9h11v63.2h-9.9V183.5z" fill="#1B296B"  /><path id="Shape_23_" d="M568,133.1c-7.8,0-13.7,2.3-17.1,3.6l2.6,6.8c2.9-1.5,7.6-3.2,12.3-3.2         c5.9,0,9.7,1.7,9.7,8v2.7c-0.9-0.2-4.3-0.8-7.2-0.8c-11.4,0-20.7,5.9-20.7,17.6c0,9.6,6.4,16.7,20.6,16.7         c7.8,0,14-1.5,18.3-3.5v-31.1C586.8,137.5,578.4,133.1,568,133.1L568,133.1z M575.8,177.3c-1.4,0.6-4.1,1.4-6.7,1.4         c-5.9,0-10.1-3.8-10.1-10.6c0-6.4,3.5-10.9,10.4-10.9c3.2,0,5.2,0.6,6.2,0.8v19.4H575.8z" fill="#1B296B"  /><path id="Shape_24_" d="M476.5,133.1c-16,0-23.9,10.2-23.9,26.1c0,15.5,7.9,24.6,20,24.6         c4.4,0,7.8-0.8,9.7-1.8v3.2c0,6.7-3.5,10.9-11.7,10.9c-5.5,0-9-1.5-12-2.7l-3.2,7c3.7,2,9.6,3.6,17.2,3.6         c12.3,0,20.9-6.8,20.9-19.9v-47.5C489.9,134.8,484,133.1,476.5,133.1L476.5,133.1z M482.3,174.9c-1.7,0.9-3.8,1.7-6.4,1.7         c-7.9,0-11.4-5.9-11.4-17.3c0-11.8,3.7-19.1,12-19.1c2.4,0,4.3,0.2,5.9,1.1v33.7H482.3z" fill="#1B296B"  /><path id="Shape_25_" d="M298.6,133.1c-14,0-21,10.6-21,25.8c0,14.9,7,25.7,21,25.7c14,0,21-10.6,21-25.7         C319.6,143.8,312.6,133.1,298.6,133.1L298.6,133.1z M299.2,177.6c-7.8,0-9-10-9-18.8c0-9,1.2-19,9-19s9,9.9,9,19         C308.4,167.8,307,177.6,299.2,177.6L299.2,177.6z" fill="#1B296B"  /><path id="Shape_26_" d="M562.2,56.9c-4.1,0-5,2-5,5v1.5h5.9v6.1h-5.9v27.8h-9V69.5h-3.7v-6.1h3.7V61         c0-6.8,4.4-10.5,11.9-10.5c1.5,0,2.6,0,4,0.2v6.1h-1.8V56.9z" fill="#1B296B"  /><path id="Shape_27_" d="M478,111c-5,0-9-1.1-11.6-2.4l2-5.3c2,0.9,4.6,1.8,8.4,1.8c5.6,0,7.5-2.6,7.5-7v-2.1         c-1.1,0.6-3.4,1.5-7,1.5c-8.4,0-12-4.1-12-10.9V63.6h9v22.5c0,3,1.1,5.5,5.5,5.5c2.1,0,3.5-0.6,4.6-1.1V63.6h9v32.6         C493.3,106.9,486.9,111,478,111L478,111z" fill="#1B296B"  /><path id="Shape_28_" d="M454,97.9c-6.5,0-9.9-3.5-9.9-9.3v-19h-3.8v-6.1h3.8v-7l9-2.4v9.4h5.5v6.1h-5.5v18.2         c0,3,1.5,3.9,3.7,3.9c1.1,0,2,0,3-0.2v5.6C459,97.5,457.2,97.9,454,97.9L454,97.9z" fill="#1B296B"  /><polygon id="Shape_29_" points="425.2,97.5 425.2,63.6 434.2,63.6 434.2,97.5" fill="#1B296B"  /><path id="Shape_30_" d="M406.6,98.1c-4.4,0-7.9-1.1-10.5-2.4l2.1-5.6c1.8,0.9,4.1,2,7,2         c3.4,0,5.3-1.1,5.3-3.6c0-2.4-1.5-3.5-5.5-5c-6.5-2.6-7.9-6.5-7.9-10.3c0-5.5,4.1-10,11.6-10c4.1,0,7.3,1.1,9.6,2.4l-2.4,5.3         c-1.1-0.6-3.5-1.8-6.1-1.8c-3,0-4.6,1.4-4.6,3.5c0,2.4,2.4,3.3,5.5,4.6c6.9,2.6,8.4,6.5,8.4,10.8         C419.1,93.7,414.1,98.1,406.6,98.1L406.6,98.1z" fill="#1B296B"  /><path id="Shape_31_" d="M393.2,69.7c-0.6-0.2-2.6-0.5-4.1-0.5c-1.5,0-2.9,0.2-3.8,0.5v27.8h-9V65.6         c1.4-0.6,6.5-2.4,12.5-2.4c3.5,0,4.4,0.2,5.6,0.5L393.2,69.7L393.2,69.7z" fill="#1B296B"  /><path id="Shape_32_" d="M298.8,59.4c-3.4,0-4.9-2-4.9-4.4c0-2.4,1.5-4.4,4.9-4.4c3,0,4.9,2,4.9,4.4         C303.7,57.4,301.8,59.4,298.8,59.4L298.8,59.4z" fill="#1B296B"  /><path id="Shape_33_" d="M327.9,97.5h-8.5l-11.6-33.9h9.6l4.4,15.9c0.5,1.5,1.5,5.5,2,7.4h0.2         c0.2-2,1.4-5.9,1.8-7.4l4.6-15.9h9L327.9,97.5L327.9,97.5z" fill="#1B296B"  /><polygon id="Shape_34_" points="294.1,97.5 294.1,63.6 303,63.6 303,97.5" fill="#1B296B"  /><path id="Shape_35_" d="M429.9,59.4c-3.4,0-4.9-2-4.9-4.4c0-2.4,1.5-4.4,4.9-4.4c3,0,4.9,2,4.9,4.4         C434.6,57.4,432.9,59.4,429.9,59.4L429.9,59.4z" fill="#1B296B"  /><path id="Shape_36_" d="M278.7,97.5V73.6c0-2.4-1.1-4.9-5.5-4.9c-2.1,0-3.5,0.5-4.6,0.9v27.8h-9V65.6         c3.8-1.5,8.4-2.6,14-2.6c10.4,0,14,5,14,10.8v23.8h-9V97.5z" fill="#1B296B"  /><path id="Shape_37_" d="M237.7,98.1c-8.8,0-15.4-4.6-15.4-13.5V54.3h9.4v30.2c0,4.1,2.1,6.4,5.9,6.4         c3.7,0,5.9-2.1,5.9-6.4V54.3h9.4v30.2C253.1,93.5,246.5,98.1,237.7,98.1L237.7,98.1z" fill="#1B296B"  /><path id="Shape_38_" d="M526.2,62.8c-10.1,0-14.9,7.4-14.9,17.5c0,10.3,4.9,17.8,14.9,17.8         c10.1,0,14.9-7.4,14.9-17.8C541.1,70.3,536.2,62.8,526.2,62.8L526.2,62.8z M526.2,92.1c-4.6,0-5.6-5.3-5.6-11.8         c0-6.4,1.1-11.5,5.6-11.5s5.8,5.3,5.8,11.5C531.8,87,530.7,92.1,526.2,92.1L526.2,92.1z" fill="#1B296B"  /><path id="Shape_39_" d="M370.5,79.7c0-10.8-5.5-16.9-14.8-16.9c-9.4,0-15.1,6.5-15.1,17.5         c0,11.4,6.4,17.8,16.4,17.8c5.3,0,9.3-1.1,12-2.6l-2.1-5.9c-2.4,1.1-5,2-9,2c-4.1,0-7.9-1.8-8.5-8.4h21V79.7L370.5,79.7z          M362,77.6h-12.8c0-6.5,2.6-9,6.4-9c3.5,0,6.4,2.1,6.4,8.5V77.6L362,77.6z" fill="#1B296B"  />
							
							
							
							
							
							
							
							
							
							
							
							
							
							
							
							
							
							
							
							
							
							
							
							
							
							
							
							
							
							
							
							
							
							
							
							
							
							
							
							
							
							
						</g><radialGradient id="Rectangle-path_3_" cx="103.4515" cy="286.9578" r="3.8246" gradientTransform="matrix(94.0567 0 0 -93.7698 -9732.7959 26882.3359)" gradientUnits="userSpaceOnUse"><stop offset="0" stop-color="#009BBD" ></stop><stop offset="0.1735" stop-color="#009BBD" ></stop><stop offset="1" stop-color="#1B296B" ></stop>
							
							
							
						</radialGradient><rect id="Rectangle-path_2_" width="284.3" height="283.5" fill="url(#Rectangle-path_3_)"  /><g id="Castle" transform="translate(23.174114, 18.583192)"><g id="Group" transform="translate(0.000000, 0.000000)"><path id="Shape_40_" d="M168.9,49.6c-6.4-3.5-12.5-6.2-20.7-8.2v16.9c7.3,1.7,14.3,4.3,20.7,7.1V49.6z" fill="#FFFFFF"  /><path id="Shape_41_" d="M140.7,104.9c-2,0-3.7,1.7-3.7,3.8l-1.1,34.5h9.7l-1.2-34.5          C144.3,106.4,143,104.9,140.7,104.9z" fill="#FFFFFF"  /><path id="Shape_42_" d="M149.4,199.7c-10.4,0-17.7-2.4-27.1-7.1c-10.1-5.2-21.3-9.6-35.6-9.6          c-13.4,0-27.7,4.7-38.7,21c13.1-8,25.1-10.6,35.3-10.6c10.8,0,19.2,2.7,27.6,7.1c9.6,5,17.8,8.5,29.8,8.5          c11.6,0,24.7-4.4,35.9-19.1C167.6,197.3,158.1,199.7,149.4,199.7z" fill="#FFFFFF"  /><path id="Shape_43_" d="M92.1,177.4c9.1,0,19.8,2.6,31.8,9.1v-34l-5-6.2V98.9l9.7-15l-4.1,14.4          c2.7-0.3,5.5-0.6,8.5-0.6c9.6,0,18.4,1.7,25.9,4.6l9.7-9V69c-6.4-2.9-13.4-5.3-20.7-7.1c-4.4-1.1-9.1-1.8-14-2.4V38.4          c-5.2-0.8-10.5-1.1-16-1.1c-5.2,0-10.4,0.3-15.2,0.9v20c-4.7,0.6-9.4,1.5-13.9,2.6V41.1c-7.9,2.1-15.4,5.3-22.2,9.1v41.1          l9.4,9l-2.7,46.2l-7.6,7.6v26.7l2.6,2.7C74.8,180.2,82.7,177.4,92.1,177.4z M90.7,108.6c0-2.1,1.7-3.8,3.7-3.8          s3.7,1.7,3.7,3.8l1.2,34.5h-9.7L90.7,108.6z" fill="#FFFFFF"  />
								
								
								
								
							</g>
							
						</g>
						
						
							
						
						
					</g>
					
				</g>
				
			</g>
			
		</g>
		
	</g>
	
</g></svg>