<svg viewBox="0 0 1063.3 283.5" role="img" aria-labelledby="university-of-leicester--title" xmlns="http://www.w3.org/2000/svg" xmlns:xlink="http://www.w3.org/1999/xlink"><title id="university-of-leicester--title">University of Leicester</title><path d="M113.4,259.1c45.6-29.7,92.7-74.1,92.7-105.2V20.7H20.7v133.1C20.7,185,67.8,229.4,113.4,259.1z" fill="#C10230"  /><path d="M113.4,0H0v153.8c0,61.8,111.3,128.4,113.4,129.6c2.1-1.2,113.4-67.8,113.4-129.6V0H113.4z M216.4,153.8  c0,42.1-64.6,93.4-103,117.5c-38.5-24.1-103-75.4-103-117.5V10.4h206.1v143.4L216.4,153.8z" fill="#5B6670"  /><path d="M10.4,10.4v143.5c0,42.1,64.6,93.4,103,117.5c38.5-24.1,103-75.4,103-117.5V10.4  C216.4,10.4,10.4,10.4,10.4,10.4z M206.1,153.8c0,31.1-47,75.4-92.7,105.2c-45.6-29.7-92.7-74-92.7-105.2V20.7H206v133.1  L206.1,153.8z" fill="#FFFFFF"  /><g><path d="M71,66c-2.9,0-5.3-2.4-5.3-5.3s2.4-5.3,5.3-5.3c2.9,0,5.3,2.4,5.3,5.3S74,66,71,66 M95.6,50.2   c-1.5-1.8-4.8-6.6-10.1-4.9c-5,1.6-3.3,5.3-6.8,6.3c-0.2,0.1-0.5,0.1-0.8-0.1c-0.3-0.2-0.3-0.5-0.3-0.7c-0.1-3.7,3.9-3.2,3.9-8.4   c0-5.6-5.6-7.3-7.8-8.1c-2.2-0.8-2.5-3.5-2.5-3.5s-0.3,2.7-2.5,3.5c-2.2,0.8-7.8,2.5-7.8,8.1c0,5.3,4,4.8,3.9,8.4   c0,0.2-0.1,0.5-0.4,0.7s-0.6,0.2-0.8,0.1c-3.5-1-1.8-4.7-6.8-6.3c-5.4-1.7-8.7,3.1-10.1,4.9c-1.5,1.8-4.1,1.3-4.1,1.3   s2.4,1.1,2.5,3.4c0.1,2.3,0,8.2,5.3,9.9c5,1.6,5.8-2.4,9.2-1.1c0.2,0.1,0.5,0.2,0.6,0.5c0.1,0.3,0,0.6-0.1,0.8   c-2.1,3-5,0.3-8.1,4.5c-3.3,4.6,0.3,9.2,1.5,11.2c1.3,1.9,0,4.3,0,4.3s1.8-2,4.1-1.4c2.2,0.6,7.8,2.6,11.1-2   c3.1-4.3-0.5-6.2,1.8-9.1c0.1-0.2,0.4-0.4,0.7-0.4c0.3,0,0.6,0.2,0.7,0.4c2.2,2.9-1.3,4.9,1.8,9.1c3.3,4.6,8.9,2.6,11.1,2   C87,83,88.9,85,88.9,85s-1.3-2.3,0-4.3c1.3-1.9,4.9-6.6,1.5-11.2c-3.1-4.3-6.1-1.5-8.1-4.5c-0.1-0.2-0.2-0.5-0.1-0.8   c0.1-0.3,0.4-0.5,0.6-0.6c3.4-1.2,4.2,2.7,9.2,1.1c5.4-1.7,5.2-7.6,5.3-9.9c0.1-2.3,2.6-3.4,2.6-3.4S97,52,95.6,50.2 M155.6,66   c-2.9,0-5.3-2.4-5.3-5.3s2.4-5.3,5.3-5.3c2.9,0,5.3,2.4,5.3,5.3S158.6,66,155.6,66 M180.2,50.2c-1.5-1.8-4.8-6.6-10.1-4.9   c-5,1.6-3.3,5.3-6.8,6.3c-0.2,0.1-0.5,0.1-0.8-0.1c-0.3-0.2-0.3-0.5-0.3-0.7c-0.1-3.7,3.9-3.2,3.9-8.4c0-5.6-5.7-7.3-7.8-8.1   c-2.2-0.8-2.5-3.5-2.5-3.5s-0.3,2.7-2.5,3.5s-7.8,2.5-7.8,8.1c0,5.3,4,4.8,3.9,8.4c0,0.2-0.1,0.5-0.4,0.7c-0.3,0.2-0.6,0.2-0.8,0.1   c-3.5-1-1.8-4.7-6.8-6.3c-5.4-1.7-8.7,3.1-10.1,4.9c-1.5,1.8-4.1,1.3-4.1,1.3s2.4,1.1,2.5,3.4c0.1,2.3,0,8.2,5.3,9.9   c5,1.6,5.8-2.4,9.2-1.1c0.2,0.1,0.5,0.2,0.6,0.5c0.1,0.3,0,0.6-0.1,0.8c-2.1,3-5,0.3-8.1,4.5c-3.3,4.6,0.3,9.2,1.5,11.2   c1.3,1.9,0,4.3,0,4.3s1.8-2,4.1-1.4c2.2,0.6,7.8,2.6,11.1-2c3.1-4.3-0.5-6.2,1.8-9.1c0.1-0.2,0.4-0.4,0.7-0.4   c0.3,0,0.6,0.2,0.7,0.4c2.3,2.9-1.3,4.9,1.8,9.1c3.3,4.6,8.9,2.6,11.1,2c2.2-0.6,4.1,1.4,4.1,1.4s-1.3-2.3,0-4.3   c1.3-1.9,4.9-6.6,1.5-11.2c-3.1-4.3-6.1-1.5-8.1-4.5c-0.1-0.2-0.2-0.5-0.1-0.8c0.1-0.3,0.4-0.5,0.6-0.6c3.4-1.2,4.2,2.7,9.2,1.1   c5.4-1.7,5.2-7.6,5.3-9.9c0.1-2.3,2.6-3.4,2.6-3.4S181.6,52,180.2,50.2" fill="#FFFFFF"  />
	
</g><g><path d="M134.4,229.7l-8.1-4.1c-0.9-0.5-2.1-0.2-2.5,0.7l-0.9,1.8c-0.4,0.9,0,2,0.9,2.4l8.1,4.1   c0.9,0.5,2.1,0.2,2.5-0.7l0.9-1.8C135.8,231.2,135.4,230.1,134.4,229.7z" fill="#FFFFFF"  /><path d="M144.3,195.7v-2c0-0.5,0-1.2-0.1-1.9l-0.2-2.1c-0.5-2.6-1-5.2-2.1-7.6c-1-2.5-2.5-4.8-4.1-6.8   c-1.7-2.1-3.7-3.7-5.6-5c-1-0.7-2-1.2-3-1.8c-1-0.4-2-0.9-2.9-1.3c-1-0.3-1.9-0.6-2.7-0.9c-0.9-0.2-1.7-0.4-2.5-0.6   c-0.7-0.2-1.4-0.3-2-0.3c-0.9-0.1-3-0.3-5.5-0.4c-2.5,0-4.6,0.2-5.5,0.4c-0.6,0.1-1.3,0.2-2,0.3c-0.8,0.2-1.6,0.4-2.5,0.6l-2.7,0.9   c-0.9,0.4-1.9,0.8-2.9,1.3c-1,0.6-2,1.1-3,1.8c-2,1.4-4,3-5.6,5c-1.7,2-3.1,4.3-4.1,6.8c-1.1,2.5-1.7,5.1-2.1,7.6l-0.2,2.1   c-0.1,0.7-0.1,1.4-0.1,1.9v3.6c0.1,2.4,0.4,4.7,0.7,6.9c0.7,4.4,1.8,8.3,2.9,11.6s2.2,6,3.1,7.8c0.4,0.9,0.8,1.7,1,2.2   c0.3,0.5,0.4,0.8,0.4,0.8l1.2-0.6l0.8-0.4l4.5-2.3l0.8-0.4l0.6-0.3l0.6-0.3l-0.3-0.6c-0.2-0.4-0.4-1.1-0.8-1.9   c-0.7-1.6-1.6-4-2.4-7c-0.8-2.9-1.6-6.4-2-10.1c-0.2-1.8-0.4-3.8-0.3-5.7v-1.2l0.1-1.6c0-0.6,0.1-1,0.2-1.4l0.2-1.2   c0.4-1.7,0.8-3.4,1.6-4.8c0.7-1.5,1.6-2.7,2.5-3.8c0,0,0.5-0.6,1.4-1.3c0.1-0.1,0.2-0.2,0.4-0.3c0.3-0.2,0.6-0.5,1-0.7   c0.2-0.1,0.3-0.2,0.5-0.3c0.1,0,0.1-0.1,0.2-0.1c0.4-0.2,0.8-0.5,1.3-0.7c0.1-0.1,0.2-0.1,0.3-0.2h0.1c2.5-1.2,5.8-2.2,10.3-2.2   s7.9,1,10.3,2.2h0.1c0.1,0.1,0.2,0.1,0.3,0.2c0.5,0.2,0.9,0.5,1.3,0.7c0.1,0,0.1,0.1,0.2,0.1c0.2,0.1,0.3,0.2,0.5,0.3   c0.4,0.3,0.7,0.5,1,0.7c0.1,0.1,0.3,0.2,0.4,0.3c0.9,0.7,1.4,1.3,1.4,1.3c1,1.1,1.9,2.3,2.5,3.8c0.8,1.4,1.2,3.1,1.6,4.8l0.2,1.2   c0.1,0.4,0.1,0.8,0.2,1.4l0.1,1.6v1.2c0,1.9-0.1,3.8-0.3,5.7c-0.4,3.7-1.2,7.2-2,10.1c-0.8,2.9-1.7,5.3-2.4,7   c-0.3,0.8-0.6,1.4-0.8,1.9l-0.3,0.6l0.6,0.3l0.6,0.3l0.8,0.4l4.5,2.3l0.8,0.4l1.2,0.6c0,0,0.1-0.3,0.4-0.8c0.2-0.5,0.6-1.2,1-2.2   c0.9-1.9,2-4.5,3.1-7.8s2.2-7.2,2.9-11.6c0.3-2.2,0.6-4.5,0.7-6.9V196L144.3,195.7z" fill="#FFFFFF"  /><path d="M103,226.3c-0.4-0.9-1.6-1.2-2.5-0.7l-8.1,4.1c-0.9,0.5-1.4,1.6-0.9,2.4l0.9,1.8c0.4,0.9,1.6,1.2,2.5,0.7   l8.1-4.1c0.9-0.5,1.4-1.6,0.9-2.4L103,226.3z" fill="#FFFFFF"  />
	
	
	
</g><g><path d="M101.8,154.2H42.5l15.1-50.7h-0.7l-16.2,50.3l-0.7,2.1h61.6C101.6,155.3,101.7,154.8,101.8,154.2   L101.8,154.2z" fill="#FFFFFF"  /><path d="M109,145.8c-0.2-0.5-0.7-1.2-1.2-1.6l-0.3-0.3l-0.1-0.1l-0.3-0.3c-2.1-1.8-4.3-2.5-5.4-2.7   c-1-0.2-2-0.3-3.2-0.3c-6.9,0-17.3,1.9-25.4,3.7c0,0-17,3.7-19.8,3.2l12.2-47.7c-1.2,0.6-2.2,1.2-2.8,1.7l-14.3,48.1h55.3   C104.9,146.8,109,145.8,109,145.8L109,145.8z" fill="#FFFFFF"  /><path d="M101.3,91c-1.9,0-4.2,0.3-6.7,0.7c-0.5,0.1-8,1.6-12.1,2.8c-4.2,1.2-11,3.1-12.2,2.8l-11.6,45.2   c2.1,0.1,13.2-2.4,13.2-2.4c8.4-1.8,19.2-3.8,26.5-3.8c6.6,0,10.3,2.4,12.3,4.9V97c0-0.3-0.1-0.5-0.1-0.6   C109.5,94.3,106.8,91,101.3,91z M120.5,155v-0.1c-0.1-0.3-0.2-0.6-0.5-0.8c-0.1-0.2-0.4-0.5-0.6-0.8c-0.8-0.8-2.2-1.7-4.6-2.1   l-0.9-0.1h-1l-0.9,0.1c-2.3,0.3-3.8,1.3-4.6,2.1c-0.3,0.3-0.5,0.6-0.6,0.8c-0.2,0.3-0.4,0.6-0.5,0.8v0.1c0,0.2,0,0.4,0.2,0.6   c0.2,0.2,0.3,0.4,0.6,0.4c0.1,0,0.2-0.1,0.4-0.2c0.6-0.5,1.8-1.4,5.9-1.4c4.1,0.1,5.3,0.9,5.9,1.4c0.2,0.2,0.3,0.2,0.4,0.2   c0.2,0,0.4-0.1,0.6-0.4C120.5,155.4,120.5,155.2,120.5,155z M125,154.2h59.3l-15.1-50.7h0.7l16.2,50.3l0.7,2.1h-61.6   C125.2,155.3,125.1,154.8,125,154.2L125,154.2z" fill="#FFFFFF"  /><path d="M117.8,145.8c0.2-0.5,0.7-1.2,1.2-1.6l0.3-0.3l0.1-0.1l0.3-0.3c2.1-1.8,4.3-2.5,5.4-2.7   c1-0.2,2-0.3,3.2-0.3c6.9,0,17.3,1.9,25.4,3.7c0,0,17,3.7,19.8,3.2l-12.2-47.7c1.2,0.6,2.2,1.2,2.8,1.7l14.3,48.1h-55.3   C121.9,146.8,117.8,145.8,117.8,145.8L117.8,145.8z" fill="#FFFFFF"  /><path d="M125.5,91c1.9,0,4.2,0.3,6.7,0.7c0.5,0.1,8,1.6,12.1,2.8c4.2,1.2,11,3.1,12.2,2.8l11.6,45.2   c-2.1,0.1-13.2-2.4-13.2-2.4c-8.4-1.8-19.2-3.8-26.5-3.8c-6.6,0-10.3,2.4-12.3,4.9V97c0-0.3,0.1-0.5,0.1-0.6   C117.3,94.3,120,91,125.5,91z" fill="#FFFFFF"  />
	
	
	
	
	
</g><g><path d="M926.1,77.1c0-19,14.3-33.6,33.9-33.6c22,0,33,15.9,33,32.6c0,19.2-14.7,33.2-33,33.2   C938.8,109.4,926.1,94.2,926.1,77.1z M983.5,79.1c0-15.7-6.9-32.6-25.1-32.6c-9.9,0-22.7,6.8-22.7,27.6c0,14.1,6.9,32.4,25.6,32.4   C972.6,106.4,983.5,97.9,983.5,79.1z M329.9,45c-0.3,0.5-0.4,1.5,0.1,2l2.4,0.2c2.4,0.2,4.1,0.9,4.8,2c1.6,2.9,1.8,13.8,1.8,19.7   v10.9c0,14.5-5.2,25.3-19,25.3c-14.6,0-19.3-10.1-19.3-25.4V59.2c0-9.9,0.2-11.5,5.7-12l2.3-0.2c0.5-0.3,0.4-1.4,0.1-2h-24   c-0.3,0.6-0.4,1.7,0.1,2l2.4,0.2c5.5,0.5,5.7,2.1,5.7,12v22.5c0,11.3,2.4,18.3,7.4,22.5c4.7,4,11.2,5.2,17.8,5.2   c7,0,14.1-2.5,18.2-6.9c5.3-5.7,6.7-14.5,6.7-22.7V68.9c0-5.3-0.1-16.3,1.3-19.4c0.5-1.2,2.4-2.1,4.8-2.3l2.3-0.2   c0.4-0.5,0.5-1.4,0.1-2H329.9L329.9,45z M522.8,45c-0.4,0.6-0.4,1.6,0.1,2.1l1.7,0.2c3.3,0.4,4.3,1.1,4.3,1.8   c0,0.7-0.1,1.7-0.9,3.7c-1.6,4.1-6,14.8-8.9,21.3c-2.1,5-6.2,14.8-9.1,21.1c-4.8-10.9-9.1-21.8-13.5-32.8   c-2.9-7.2-4.6-12.4-4.8-13.3c0.1-0.8,0.9-1.3,4.5-1.8l1.4-0.2c0.6-0.5,0.5-1.5,0.1-2.1h-22c-0.5,0.6-0.4,1.6,0.1,2.1l1.7,0.2   c4.1,0.5,5.5,2.5,7.7,7.8L502,96.4c1.7,4,3.3,8.7,4.4,12.7c0.5,0.2,1,0.3,1.4,0.3s0.8-0.1,1-0.3c1.6-5,6.1-16.1,9.9-24.8l5.1-11.7   c4.3-9.7,8-17.4,10.7-21.9c1.2-2,2.7-3.1,5-3.3l2.9-0.2c0.4-0.4,0.5-1.5,0.1-2.1h-19.7L522.8,45z M430.4,45h-21.7   c-0.4,0.5-0.4,1.6,0.2,2.1l1.6,0.2c3.8,0.5,5.3,1,5.9,1.9c1.8,2.9,1.9,15.2,1.9,19.7v20.4c0,2,0,3.5-0.4,4h-0.2   c-4.5-4.6-9.2-9.8-15.7-17.2l-9.2-10.4c-3-3.5-13.9-15.6-16.2-20.7H361c-0.4,0.6-0.3,1.6,0.1,2.1l1.6,0.2c2.3,0.3,4.6,1,5.9,2.3   c2,2.2,2.1,4.2,2.1,6.9V84c0,4.6,0.1,16.2-1.2,19.6c-0.5,1-2,1.7-4.2,1.9l-2.6,0.3c-0.5,0.5-0.5,1.5-0.1,2.1h21.6   c0.4-0.6,0.4-1.5-0.1-2.1l-3-0.3c-2.4-0.2-4.2-0.8-4.9-1.8c-1.5-2.9-1.7-15.2-1.7-19.7V63.2c0-2.9,0.1-5,0.5-6.2h0.2   c2,2.1,8.5,9.9,11,12.8L408.5,95c8.3,9.4,11,12.8,12.2,14.4c1,0,1.6-0.5,1.8-1c-0.3-2.5-0.3-13.8-0.3-16.7V68.9   c0-4.4-0.2-16.2,1.4-19.6c0.4-0.8,2.3-1.5,5.3-2l1.3-0.2C430.7,46.6,430.8,45.6,430.4,45z M444.1,47.3c5.6,0.5,5.8,2.1,5.8,12.2   v33.9c0,10.1-0.2,11.4-5.8,12.1l-2.4,0.3c-0.5,0.5-0.4,1.5-0.1,2.1h24.3c0.3-0.6,0.4-1.8-0.1-2.1l-2.4-0.3c-5.6-0.7-5.8-2-5.8-12.1   V59.5c0-10.1,0.2-11.7,5.8-12.2l2.4-0.2c0.5-0.3,0.4-1.5,0.1-2.1h-24.3c-0.3,0.6-0.4,1.8,0.1,2.1L444.1,47.3z M730.4,47.3   c5.6,0.5,5.8,2.1,5.8,12.2v33.9c0,10.1-0.2,11.4-5.8,12.1l-2.4,0.3c-0.5,0.5-0.4,1.5-0.1,2.1h24.3c0.3-0.6,0.4-1.8-0.1-2.1   l-2.4-0.3c-5.6-0.7-5.8-2-5.8-12.1V59.5c0-10.1,0.2-11.7,5.8-12.2l2.4-0.2c0.5-0.3,0.4-1.5,0.1-2.1h-24.3c-0.3,0.6-0.4,1.8,0.1,2.1   L730.4,47.3z M835.3,47.6c2.9,0.5,4.3,1,7.5,7.2L854,76.7c2.8,5.3,3,6.6,3,11.8v4.9c0,10.2-0.2,11.5-5.7,12.1l-3,0.3   c-0.5,0.5-0.4,1.5-0.1,2.1h26c0.3-0.5,0.4-1.6-0.1-2.1l-3.6-0.3c-5.1-0.4-5.7-1.9-5.7-12.1v-4.9c0-7.3,0.2-8.3,4.5-15.4l6-10.4   c4.8-8.2,7.6-14.3,12.6-15l2.7-0.5c0.6-0.5,0.6-1.5,0.1-2.1h-18.6c-0.4,0.5-0.4,1.5,0.1,2.1l1.7,0.2c2.3,0.3,4,1,4,1.5   c0,1.1-3.5,7.6-6.2,12.6c-2.9,5.5-6,11-8.9,16.1c-3.7-6.6-7.2-14.1-10.8-21.1c-0.5-1-2.9-6.4-2.9-7.3c0-0.8,0.7-1.1,4-1.7l1.2-0.2   c0.5-0.5,0.5-1.5,0.1-2.1h-21.9c-0.4,0.5-0.4,1.5,0.1,2.1L835.3,47.6L835.3,47.6z M1044.7,45H1003c-0.3,0.6-0.4,1.8,0.1,2.1   l1.5,0.2c5.5,0.7,5.7,2,5.7,12v34.3c0,10-0.2,11.2-5.7,11.9l-2.4,0.3c-0.5,0.5-0.4,1.5-0.1,2.1h25.1c0.3-0.6,0.4-1.8-0.1-2.1   l-3.2-0.3c-5.6-0.5-5.8-1.9-5.8-11.9V80.3c0-2.5,0.3-2.6,3.1-2.6h6.5c3.6,0,6,0.1,7.3,0.5c1.8,0.6,2.7,1.9,3,3.6l1,3.7   c0.5,0.4,1.5,0.5,2.1,0.3V66.5c-0.6-0.3-1.7-0.2-2.1,0.3l-0.9,3.8c-0.6,2.5-1.3,3-2.4,3.3c-1.1,0.4-4.2,0.6-8.1,0.6h-6.5   c-2.9,0-3.1,0-3.1-2.6V51.8c0-3.6,0-3.8,2.9-3.8h5.8c4,0,7.1,0.1,9.2,0.6c4.8,1.3,5.9,4.8,6.7,9c0.7,0.6,2,0.3,2.3-0.3   C1044.8,53.8,1044.7,49.3,1044.7,45L1044.7,45z M670.6,107.1c-2.6-0.2-5-1.2-6.6-2.7c-6.5-5.4-11.5-13-19.1-25.3   c-0.5-0.8-1-1.7-0.5-2.3c4.8-1.9,11.9-6.9,11.9-15.9c0-6.7-3.3-10.9-7.9-13.3c-2-1.1-4.2-1.8-6.6-2.2c-0.3,0-1.4-0.2-2.4-0.3   c0,0-1.4-0.1-2.4-0.1h-16.8c-1.1,0-2.8,0.1-3.2,0.1c-2.1,0.1-4,0.2-5.7,0.4c-0.8,0.4-0.8,1.9-0.1,2.4l3,0.4   c3.9,0.5,4.2,2.1,4.2,11.1v34.2c0,10-0.2,11.2-5.7,11.9l-2.4,0.3c-0.5,0.5-0.4,1.6-0.1,2.1h23.8c0.3-0.6,0.4-1.7-0.1-2.1l-2-0.3   c-5.5-0.8-5.7-1.9-5.7-11.9v-12c0-2,0.2-2.1,4.5-2.1c3.8,0,5.3,1,6.8,3c3,4.3,6.9,10.9,9.3,14.4c6.8,9.6,11.6,12,19.7,12   c1.8,0,3.3-0.2,4.2-0.5C671.1,108,671,107.3,670.6,107.1z M642.8,74.2c-2.8,2.1-6.4,2.5-9.8,2.5c-4.9,0-6.3-0.2-6.6-0.5   c-0.3-0.4-0.3-1.4-0.3-3.1V50.7c0-2.7,0.3-3,6.2-3c10.6,0,15.2,7.1,15.2,14.7C647.5,68.8,645.3,72.2,642.8,74.2L642.8,74.2z    M599.2,94.2c-2.5,4.9-5,8.3-6.8,9.2c-2.1,1-4.9,1.4-12.2,1.4c-8.4,0-10.4-1-11.5-2.2c-1.5-1.6-1.8-4.9-1.8-9.9V79.4   c0-2.5,0.3-2.6,3.1-2.6h5.5c3.7,0,6,0.1,7.3,0.5c1.9,0.5,2.6,1.9,3,3.6l0.9,3.7c0.4,0.5,1.5,0.5,2.1,0.2V65.5   c-0.6-0.3-1.7-0.2-2.1,0.2l-0.8,3.9c-0.5,2.4-1.1,3-2.3,3.3c-1.1,0.4-4.1,0.6-8.1,0.6H570c-2.9,0-3.1,0-3.1-2.7v-19   c0-3.6,0-3.8,2.9-3.8h6.9c4.2,0,7.2,0.1,9.2,0.6c4.9,1.2,5.8,4.6,7.2,9c0.5,0.6,2,0.4,2.4-0.2L594,45h-42.3   c-0.3,0.6-0.4,1.8,0.1,2.1l1.5,0.2c5.6,0.7,5.8,2.1,5.8,12v34.3c0,10-0.5,11.4-5.9,11.9l-3.1,0.3c-0.5,0.5-0.4,1.5-0.1,2.1h47.4   l4.2-12.9C601.2,94.1,599.8,93.8,599.2,94.2L599.2,94.2z M701.1,73.5l-7.6-4.8c-3.5-2.3-8.1-6.2-8.1-11.7c0-4.4,2-10.6,11.3-10.6   c9.1,0,11.7,6.2,12.9,10.8c0.5,0.6,2,0.3,2.4-0.3l-1.7-11.6c-0.8,0-2.1-0.3-3.3-0.6c-2.5-0.8-5.9-1.2-8.9-1.2   c-12.4,0-19.4,7.3-19.4,16.4c0,7.8,5.5,13.2,10.3,16.4l9,5.9c6.9,4.5,7.8,9.1,7.8,13.3c0,5.7-3.9,10.9-11.9,10.9   c-11,0-14.9-9.3-16.4-14.2c-0.4-0.6-1.8-0.4-2.3,0.3l2.6,13.3c1.8,1,6.9,3.5,14.8,3.5c12.4,0,20.3-7.1,20.3-17.6   C713,82.7,707.1,77.2,701.1,73.5L701.1,73.5z M814.4,45h-49l-3,11.2c0.4,0.8,1.7,1.2,2.5,0.7c1-2.4,2-4.5,4.3-6.6   c2.4-2.2,7.6-2.4,11.7-2.4h5.2c2.9,0,2.9,0.1,2.9,3v42.5c0,10-0.5,11.4-5.9,11.9l-3.4,0.3c-0.6,0.4-0.6,1.5-0.3,2.1h26.2   c0.3-0.6,0.4-1.8-0.1-2.1l-3-0.3c-5.5-0.6-5.7-1.9-5.7-11.9V51.2c0-3.1-0.1-3.2,2.8-3.2h6.8c5.2,0,8.9,0.8,11,2.4   c1.4,1,2.1,4.6,2.4,6.9c0.5,0.6,2.1,0.6,2.5-0.2l0.9-12.1H814.4z" fill="#5B6670"  />
	
</g><g><path d="M467.1,223.7l-3.1,0.4c-0.8,0.8-0.9,2.7-0.2,3.6h38.5c0.7-0.9,0.6-2.8-0.2-3.6l-3.1-0.4   c-6.6-0.8-7.8-1.3-7.8-16.1v-52.1c0-14.9,1.3-15.3,7.8-16.1l3.1-0.4c0.8-0.8,0.9-2.7,0.2-3.6h-38.5c-0.7,0.9-0.6,2.8,0.2,3.6   l3.1,0.4c6.6,0.8,7.8,1.3,7.8,16.1v52.1C474.9,222.5,473.7,222.9,467.1,223.7z M1062.7,225.3c-1.7-0.1-5.7-1-9.7-4.3   c-6.6-5.5-13.6-17.4-24.8-36.3c-0.6-0.8-0.8-2,0-2.4c6.9-2.8,16.8-9.2,16.8-22.1c0-10.1-5.2-16.7-12.3-20.5   c-4.1-2.3-9.8-3.6-16.3-4.3c-0.2,0-1.1-0.1-3.2-0.1h-24.8c-1.5,0-3.6,0.1-4,0.1c-3.8,0.2-7.4,0.4-10.6,0.7   c-1.1,0.7-1.1,2.9-0.1,3.9l3.6,0.4c6.6,0.7,6.7,2.4,6.7,15.8v51.3c0,14.9-1.3,15.3-7.8,16.1l-3.1,0.4c-1.1,0.8-0.9,2.7-0.2,3.6   h38.5c0.7-0.9,0.6-2.8-0.2-3.6l-3.1-0.4c-6.6-0.8-7.8-1.3-7.8-16.1v-17.9c0-2.9,0.1-3.1,4.3-3.1c4.6,0,6.2,0.6,8.7,4.8   c3.4,5.5,7.3,13.2,11.1,19.1c8.5,13,15.8,18.5,29.3,18.5c4.9,0,7.6-0.4,9.2-0.8C1063.4,227.4,1063.4,225.8,1062.7,225.3   L1062.7,225.3z M1007.1,181.2c-6.7,0-6.7-0.3-6.7-4.8v-29.1c0-6.4,0.1-6.9,7.4-6.9c12.2,0,19.3,9.7,19.3,20.7   C1027.1,174.5,1020.8,181.2,1007.1,181.2z M355.1,207c-6.4,14.4-8.7,15.1-24.2,15.1c-11.2,0-13.5-1.1-15.1-3.1   c-2.1-2.4-2.4-7.4-2.4-14.4v-49.2c0-14.6,1.3-15,7.8-16l3.1-0.6c0.9-0.6,1-2.7,0.2-3.6h-39.4c-0.7,1-0.6,3.1,0.2,3.6l3.9,0.6   c6.6,1,7.8,1.4,7.8,16v52.1c0,14.6-1.3,15-7.8,15.8l-4.2,0.7c-1.1,0.6-0.9,2.7-0.2,3.6h68.9l5.7-19.9   C358.8,206.7,356.5,206.3,355.1,207L355.1,207z M445,207c-4.9,11.3-8,15.4-25.8,15.1c-11.8,0-14.2-1.1-15.8-3.1   c-2.1-2.4-2.4-7.4-2.4-14.6v-17.8c0-3.5,0.1-3.8,3.4-3.8h6.7c12.2,0,14.6,0.3,15.6,6.2l1,5.6c1,0.7,3,0.8,4.1,0.2v-29.5   c-1-0.7-3.1-0.6-4.1,0.3l-1,4.8c-1,6-3.4,6.2-15.6,6.2h-6.7c-3.2,0-3.4-0.1-3.4-3.8v-23.7c0-8,0-8.3,6-8.3h9.4   c3.8,0,8,0.3,11.2,1.3c4.5,1.1,6.6,4.6,8.8,12.8c1.1,0.8,3.9,0.6,4.5-0.6l-2.2-19.1h-64.1c-0.7,0.9-0.6,2.8,0.2,3.6l2.2,0.3   c6.6,1,7.8,1.4,7.8,16.3v52.1c0,14.9-1.3,15.3-7.8,16l-5.2,0.6c-0.8,0.8-0.9,2.7-0.2,3.6h72.3l5.7-19.9   C448.7,206.4,446.3,206,445,207L445,207z M600.6,225.2l6.6-21.1c-0.7-1.3-2.9-1.8-4.2-0.6c-3.9,9.1-11.6,20.9-29.3,20.9   c-18.1,0-36.7-14.6-36.7-44.4c0-28.7,17.9-41.3,35.7-41.3c18.5,0,24.8,11.6,27.2,20.5c1,1,3.5,0.8,4.5-0.3l-2-21.9   c-1.3-0.3-2.2-0.4-3.9-0.8c-6.6-1.7-16.3-3.1-24.2-3.1c-14.2,0-28.3,4.1-38.7,11.9c-10.4,8-17.7,20.7-17.7,37.1   c0,18.4,8.5,31.1,19.9,38.5c10.1,6.6,22,9.4,35.9,9.4c7.3,0,14.9-1.5,19.2-2.6C593.5,227.3,600.3,225.3,600.6,225.2L600.6,225.2z    M693.5,207c-4.9,11.3-8,15.4-25.8,15.1c-11.8,0-14.2-1.1-15.8-3.1c-2.1-2.4-2.4-7.4-2.4-14.6v-17.8c0-3.5,0.1-3.8,3.4-3.8h6.7   c12.2,0,14.6,0.3,15.6,6.2l1,5.6c1,0.7,3,0.8,4.1,0.2v-29.5c-1-0.7-3.1-0.6-4.1,0.3l-1,4.8c-1,6-3.4,6.2-15.6,6.2h-6.7   c-3.2,0-3.4-0.1-3.4-3.8v-23.7c0-8,0-8.3,6-8.3h9.4c3.8,0,8,0.3,11.2,1.3c4.5,1.1,6.6,4.6,8.8,12.8c1.1,0.8,3.9,0.6,4.5-0.6   l-2.2-19.1h-64.3c-0.7,0.9-0.6,2.8,0.2,3.6l2.2,0.3c6.6,1,7.8,1.4,7.8,16.3v52.1c0,14.9-1.3,15.3-7.8,16l-5.2,0.6   c-0.8,0.8-0.9,2.7-0.2,3.6h72.3l5.7-19.9C697.1,206.4,694.7,206,693.5,207L693.5,207z M751.9,175l-8.7-4.6   c-9.2-4.9-13.3-11.2-13.3-17.1c0-7.4,4.6-14.7,15.8-14.7c11.9,0,16.8,9.4,18.9,16.7c1.3,1,3.8,0.8,4.5-0.4l-2.9-18.9   c-6.6-1.3-11.9-2.9-19.2-2.9c-20.5,0-30.8,11.8-30.8,25.6c0,12.6,9.2,21.2,19.8,27l6,3.4c10.5,5.9,14.3,12.3,14.3,20.3   c0,8.5-6,15-16.7,15c-13.7,0-21.3-15-23.8-22.1c-1.1-1-3.5-0.8-4.3,0.6l4.2,21.3c2.8,1.7,10.1,5.9,23,5.9   c20.3,0,32.5-11.3,32.5-27.3C771.1,188.5,761,179.8,751.9,175z M860.9,135.2h-73.1l-4.7,17.5c0.6,1.4,3.5,1.8,4.5,1   c5.2-11.3,9-12.9,21.9-12.9h7.8c3.6,0,3.8,0.3,3.8,6.2v60.5c0,14.9-1.3,15.3-7.8,15.8l-5.9,0.7c-0.8,0.6-0.9,2.7-0.2,3.6h43.2   c0.7-0.9,0.6-2.8-0.2-3.6l-5-0.6c-6.6-0.7-7.8-1.1-7.8-16V147c0-5.9,0.1-6.2,3.8-6.2h8c15,0,17.7,2.7,19.5,13.6   c1.3,1,3.6,0.7,4.3-0.4l1.4-18.8L860.9,135.2L860.9,135.2z M958.2,207c-4.9,11.3-8,15.4-25.8,15.1c-11.8,0-14.2-1.1-15.8-3.1   c-2.1-2.4-2.4-7.4-2.4-14.6v-17.8c0-3.5,0.1-3.8,3.4-3.8h6.7c12.2,0,14.6,0.3,15.6,6.2l1,5.6c1,0.7,3,0.8,4.1,0.2v-29.5   c-1-0.7-3.1-0.6-4.1,0.3l-1,4.8c-1,6-3.4,6.2-15.6,6.2h-6.7c-3.2,0-3.4-0.1-3.4-3.8v-23.7c0-8,0-8.3,6-8.3h9.4   c3.8,0,8,0.3,11.2,1.3c4.5,1.1,6.6,4.6,8.8,12.8c1.1,0.8,3.9,0.6,4.5-0.6l-2.2-19.1h-64.2c-0.7,0.9-0.6,2.8,0.2,3.6l2.2,0.3   c6.6,1,7.8,1.4,7.8,16.3v52.1c0,14.9-1.3,15.3-7.8,16l-5.2,0.6c-0.8,0.8-0.9,2.7-0.2,3.6H957l5.7-19.9   C961.8,206.4,959.5,206,958.2,207L958.2,207z" fill="#C10230"  />
	
</g></svg>