<svg viewBox="0 0 1161.8 283.5" role="img" aria-labelledby="wellbeing-of-women--title" xmlns="http://www.w3.org/2000/svg" xmlns:xlink="http://www.w3.org/1999/xlink"><title id="wellbeing-of-women--title">Wellbeing of Women</title><g><path d="M283.5,141.7C283.5,63.5,220,0,141.7,0S0,63.5,0,141.7s63.5,141.7,141.7,141.7S283.5,220,283.5,141.7" fill="#7CC8C9"  /><path d="M178.3,45.8c0,11.1-1.5,23.2-4.5,36.3c-4.2,18-9.9,27.1-17,27.1c-5.1,0-8.9-3.4-11.4-10.2   c-1.7-4.5-2.9-11.4-3.8-20.9c-0.9-10-1.6-15.9-2.1-17.7c-0.3,1.1-2.2,9.5-5.6,25.2c-3.7,17.4-8.1,26.1-13.2,26.1   c-2.8,0-5.4-1.3-7.9-3.9c-3.7-4-6.5-16.7-8.4-38.1c-1.2-14.6-1.8-29.4-1.8-44.3c0-5.7,2.2-8.6,6.5-8.6c1.6,0,3.5,0.6,5.7,1.8v3.8   c-1.4,0.3-2.4,0.8-2.9,1.6c-0.5,0.8-0.9,2.3-1.1,4.6c-0.1,1.7-0.1,3.9,0,6.6l0.1,5.3c0,11.7,0.6,23.4,1.8,35.1   c1.8,17.2,4.4,25.8,7.9,25.8c1.8,0,3.8-3.5,6.2-10.7c1.7-4.9,2.9-9.4,3.8-13.7c3.4-16.3,5-29.7,5-40.4c0-0.7,0.6-1.4,1.8-2.4   c1.2-0.9,2.1-1.4,2.8-1.4c2,0,3.9,0.7,5.7,2.2c1.8,1.5,2.8,3.1,2.9,5c-1.7,2.7-2.5,7-2.5,12.9c0,9,0.6,18.2,1.8,27.6   c1.9,13.6,4.6,20.5,8.3,20.5c5,0,9.1-8.3,12.2-24.8c2.2-12.1,3.4-22.7,3.4-31.8c0-5.1-0.5-9.2-1.4-12.2c-0.7-2-1.5-4-2.2-6   c-0.9-2.5-1.4-4.5-1.4-5.9c0-5,1.3-7.4,3.8-7.4c2.6,0,4.6,4.7,6,14.2C177.8,33.4,178.3,39.7,178.3,45.8" fill="#5D4B9A"  /><path d="M63.2,77.6c10.6,3.4,21.6,8.6,33.1,15.5c15.9,9.6,22.7,17.7,20.5,24.5c-1.6,4.9-6,7.4-13.2,7.6   c-4.8,0.2-11.8-0.7-21-2.9c-9.8-2.2-15.6-3.4-17.5-3.5c1,0.6,8.4,5,22.3,13.1c15.4,8.9,22.3,15.8,20.7,20.6   c-0.9,2.7-2.9,4.7-6.2,6.3c-5,2.3-17.9,1.1-38.9-3.8c-14.2-3.4-28.5-7.3-42.7-12c-5.4-1.8-7.5-4.7-6.1-8.8c0.5-1.5,1.7-3.1,3.5-4.9   l3.6,1.2c-0.2,1.4,0,2.5,0.6,3.2c0.6,0.7,1.9,1.5,4,2.4c1.6,0.6,3.7,1.3,6.3,2l5.1,1.5c11.1,3.6,22.4,6.6,33.9,9.1   c16.9,3.6,25.9,3.8,27,0.5c0.5-1.7-2.2-4.7-8.2-9.2c-4.1-3.1-8.1-5.7-11.9-7.8c-14.4-8.2-26.7-14-36.8-17.3c-0.6-0.2-1.2-1-1.7-2.5   c-0.5-1.4-0.7-2.5-0.5-3.1c0.6-1.9,1.9-3.4,3.8-4.7c1.9-1.3,3.8-1.7,5.6-1.2c2.1,2.4,5.9,4.6,11.5,6.4c8.5,2.8,17.5,5,26.8,6.8   c13.6,2.4,20.9,1.9,22-1.5c1.6-4.8-5.1-11.2-19.8-19.3c-10.8-5.9-20.5-10.2-29.2-13c-4.9-1.6-8.9-2.4-12-2.4   c-2.1,0.1-4.2,0.2-6.4,0.3c-2.7,0.1-4.7,0-6-0.5c-4.7-1.5-6.7-3.5-5.9-5.9c0.8-2.5,5.9-2.9,15.3-1.4C51.3,74.2,57.4,75.7,63.2,77.6   " fill="#FFFFFF"  /><path d="M53.8,197.2c6.5-9,14.9-17.9,25-26.7c14-12.1,23.9-16.1,29.6-11.9c4.2,3,5.2,8,3.2,15   c-1.3,4.6-4.3,11-9.2,19.1c-5.1,8.6-8,13.8-8.7,15.5c0.9-0.7,7.3-6.5,19.4-17.1c13.2-11.9,21.9-16.3,26-13.4c2.3,1.7,3.6,4.2,4,7.8   c0.7,5.4-4.5,17.4-15.6,35.8c-7.6,12.5-15.8,24.8-24.6,36.9c-3.3,4.6-6.8,5.7-10.2,3.1c-1.3-0.9-2.5-2.5-3.6-4.9l2.2-3.1   c1.3,0.6,2.4,0.7,3.3,0.4c0.9-0.3,2.1-1.4,3.5-3.1c1.1-1.3,2.4-3.1,3.9-5.3l3-4.4c6.9-9.5,13.2-19.3,19.1-29.4   c8.7-15,11.6-23.5,8.8-25.5c-1.4-1-5.2,0.6-11.3,5c-4.2,2.9-7.9,5.9-11.1,8.9C98.3,211.1,89,221,82.7,229.7   c-0.4,0.5-1.3,0.8-2.9,0.9c-1.5,0-2.6-0.1-3.1-0.5c-1.6-1.2-2.7-2.9-3.3-5.1c-0.6-2.2-0.4-4.1,0.6-5.7c3-1.2,6.2-4.2,9.6-9   c5.3-7.3,10.2-15.1,14.8-23.4c6.5-12.1,8.3-19.3,5.3-21.4c-4.1-3-12.2,1.3-24.5,12.9c-8.9,8.4-16,16.4-21.4,23.8   c-3,4.2-5,7.7-6,10.7c-0.5,2-1.1,4.1-1.7,6.2c-0.7,2.6-1.5,4.5-2.3,5.6c-2.9,4-5.4,5.3-7.4,3.8c-2.1-1.5-1-6.5,3.4-15   C46.9,207.5,50.2,202.1,53.8,197.2" fill="#FFFFFF"  /><path d="M165.6,241.1c-6.5-9-12.4-19.7-17.7-32c-7.2-17.1-7.9-27.7-2.2-31.9c4.2-3,9.2-2.5,15.2,1.6   c4,2.6,9.1,7.5,15.3,14.7c6.6,7.5,10.7,11.9,12.1,13.1c-0.4-1.1-3.9-9-10.3-23.7c-7.2-16.3-8.7-25.9-4.7-28.8   c2.3-1.6,5.2-2.1,8.7-1.4c5.4,1.1,15.1,9.7,29.2,25.9c9.6,11.1,18.7,22.7,27.5,34.8c3.4,4.6,3.3,8.2-0.2,10.7   c-1.3,0.9-3.2,1.6-5.7,1.9l-2.2-3.1c1-1,1.4-2.1,1.4-3c0-0.9-0.7-2.4-1.8-4.3c-0.9-1.4-2.2-3.2-3.9-5.3l-3.2-4.2   c-6.9-9.5-14.2-18.5-22.1-27.3c-11.5-12.9-18.7-18.3-21.5-16.3c-1.4,1-1,5.1,1.3,12.2c1.5,4.9,3.2,9.4,5,13.3   c6.8,15.1,13.4,27,19.7,35.6c0.4,0.5,0.4,1.5-0.1,3c-0.4,1.5-0.9,2.4-1.4,2.8c-1.6,1.2-3.5,1.7-5.9,1.6c-2.3-0.1-4.1-0.9-5.3-2.3   c-0.2-3.2-2.1-7.2-5.5-11.9c-5.3-7.3-11.2-14.3-17.7-21.3c-9.5-9.9-15.8-13.8-18.7-11.7c-4.1,3-2.5,12.1,4.7,27.3   c5.3,11.1,10.6,20.3,16,27.7c3,4.2,5.8,7.2,8.3,9c1.8,1.1,3.5,2.3,5.4,3.6c2.2,1.5,3.8,2.8,4.6,3.9c2.9,4,3.3,6.8,1.3,8.2   c-2.1,1.5-6.5-1.1-13.2-7.9C173.3,250.9,169.2,246.1,165.6,241.1" fill="#FFFFFF"  /><path d="M241.8,148.7c-10.6,3.4-22.6,5.8-35.9,7c-18.5,1.6-28.8-1-31-7.8c-1.6-4.9,0.5-9.5,6.2-14   c3.7-3,10-6.3,18.7-10.1c9.2-4,14.6-6.5,16.2-7.5c-1.2,0.1-9.7,0.9-25.7,2.5c-17.7,1.8-27.3,0.3-28.9-4.5c-0.9-2.7-0.4-5.6,1.3-8.7   c2.7-4.8,13.9-11.4,33.7-19.8c13.5-5.7,27.4-10.8,41.6-15.4c5.4-1.8,8.8-0.6,10.1,3.5c0.5,1.5,0.5,3.5,0,6l-3.6,1.2   c-0.7-1.2-1.5-2-2.4-2.2c-0.9-0.2-2.5-0.1-4.7,0.4c-1.6,0.4-3.7,1.1-6.3,2l-5,1.8c-11.1,3.6-22,7.8-32.8,12.6   c-15.8,7-23.2,12.2-22.1,15.4c0.5,1.7,4.6,2.5,12,2.6c5.1,0.1,9.9-0.1,14.2-0.6c16.5-1.8,29.8-4.4,40-7.7c0.6-0.2,1.6,0.1,2.8,1   c1.3,0.9,2,1.6,2.2,2.2c0.6,1.9,0.5,3.9-0.3,6.1c-0.8,2.2-2.1,3.6-3.8,4.3c-3.1-0.8-7.4-0.2-13,1.6c-8.5,2.8-17.1,6.2-25.7,10.3   c-12.4,6-18,10.7-16.9,14.2c1.6,4.8,10.7,6.1,27.4,3.9c12.2-1.6,22.6-3.8,31.3-6.6c4.9-1.6,8.6-3.3,11.2-5.1c1.6-1.3,3.3-2.6,5-4   c2.1-1.7,3.8-2.7,5.2-3.2c4.7-1.5,7.5-1.1,8.2,1.3c0.8,2.5-3.1,5.9-11.6,10.1C253.4,144.4,247.6,146.8,241.8,148.7" fill="#FFFFFF"  /><polygon points="363.1,120.6 390.5,34.5 417.4,120.6 423.9,120.6 458.7,22.2 450.8,22.2 420.6,109 393.4,21.9 387.3,21.9 360.4,109 330.1,22.2 322,22.2 357,120.6" fill="#5D4B9A"  /><polygon points="486.2,70.7 535.9,70.7 535.9,64.1 486.2,64.1 486.2,28.6 546.3,28.6 546.3,22.2 479,22.2 479,120.1 548.6,120.1 548.6,113.6 486.2,113.6" fill="#5D4B9A"  /><polygon points="634.4,113.6 576.4,113.6 576.4,22.2 569.2,22.2 569.2,120.1 634.4,120.1" fill="#5D4B9A"  /><polygon points="660.3,22.2 653.1,22.2 653.1,120.1 718.3,120.1 718.3,113.6 660.3,113.6" fill="#5D4B9A"  /><path d="M816.5,92.9c0-14.4-8.6-24.1-22.8-26.1c8.6-3.2,13.8-10.3,13.8-21c0-14.5-10.3-23.6-28.2-23.6h-42.3v97.9   h47.1C804.8,120.1,816.5,109.2,816.5,92.9 M744.2,28.6h34.2c14,0,22.1,6.6,22.1,18.2c0,11.6-8,18-22.1,18h-34.2V28.6z M744.2,113.6   V71H783c16.5,0,25.8,7.7,25.8,21.3c0,13.7-9.3,21.4-25.8,21.4H744.2z" fill="#5D4B9A"  /><polygon points="908.8,113.6 846.3,113.6 846.3,70.7 896,70.7 896,64.1 846.3,64.1 846.3,28.6 906.5,28.6 906.5,22.2 839.2,22.2 839.2,120.1 908.8,120.1" fill="#5D4B9A"  /><rect x="930.4" y="22.2" width="7.2" height="97.9" fill="#5D4B9A"  /><polygon points="1048.2,120.1 1048.2,22.2 1041.1,22.2 1041.1,107.9 973.5,22.2 967.2,22.2 967.2,120.1 974.3,120.1 974.3,34.2 1042.1,120.1" fill="#5D4B9A"  /><path d="M1123.3,121.7c16.9,0,29.9-6.4,38.4-15.4V64h-7.2v39.7c-7.4,7.7-18.8,11.5-31.2,11.5   c-23.9,0-43.1-18.3-43.1-43.9c0-25.9,19-44,43.7-44c11.3,0,22.8,3.6,32.1,10.8v-7.4c-8.7-6.6-20.2-10.1-32.7-10.1   c-28.4,0-50.4,21.1-50.4,50.6C1072.9,100.6,1095.1,121.7,1123.3,121.7" fill="#5D4B9A"  /><path d="M372.4,150.7c-31.5,0-55.3,24-55.3,55.9s23.8,55.9,55.3,55.9c31.4,0,55.1-24,55.1-55.9   S403.8,150.7,372.4,150.7 M413.7,206.6c0,24.5-17.7,42.9-41.3,42.9c-23.6,0-41.4-18.5-41.4-42.9c0-24.4,17.8-42.8,41.4-42.8   C395.9,163.8,413.7,182.2,413.7,206.6" fill="#5D4B9A"  /><polygon points="447,260.7 460.7,260.7 460.7,210.5 512,210.5 512,197.5 460.7,197.5 460.7,165.3 522.7,165.3 522.7,152.5 447,152.5" fill="#5D4B9A"  /><polygon points="674.3,236.2 648,152.2 637.1,152.2 611.2,236.2 581.9,152.5 566.9,152.5 605.6,261.3 616.5,261.3 642.7,178.7 668.5,261.3 679.8,261.3 718.2,152.5 703.4,152.5" fill="#5D4B9A"  /><path d="M776.8,150.7c-31.5,0-55.3,24-55.3,55.9s23.8,55.9,55.3,55.9c31.4,0,55.1-24,55.1-55.9   S808.2,150.7,776.8,150.7 M818.1,206.6c0,24.5-17.7,42.9-41.3,42.9c-23.6,0-41.4-18.5-41.4-42.9c0-24.4,17.8-42.8,41.4-42.8   C800.3,163.8,818.1,182.2,818.1,206.6" fill="#5D4B9A"  /><polygon points="902.3,202.1 863.7,152.5 851.4,152.5 851.4,260.7 865.1,260.7 865.1,175.7 898.4,218.2 906.2,218.2 939.2,175.8 939.2,260.7 952.9,260.7 952.9,152.5 941,152.5" fill="#5D4B9A"  /><polygon points="990.6,209.2 1042.4,209.2 1042.4,196.2 990.6,196.2 990.6,165.3 1053.4,165.3 1053.4,152.5 976.9,152.5 976.9,260.7 1055.8,260.7 1055.8,247.9 990.6,247.9" fill="#5D4B9A"  /><polygon points="1148.2,152.5 1148.2,236 1082.3,152.5 1071,152.5 1071,260.7 1084.7,260.7 1084.7,177 1150.8,260.7 1161.8,260.7 1161.8,152.5" fill="#5D4B9A"  />
	
	
	
	
	
	
	
	
	
	
	
	
	
	
	
	
	
	
	
	
	
	
</g></svg>