<svg viewBox="0 0 925.3 283.5" role="img" aria-labelledby="who--title" xmlns="http://www.w3.org/2000/svg" xmlns:xlink="http://www.w3.org/1999/xlink"><title id="who--title">World Health Organisation</title><g id="Layer_2_1_"><g id="ENGLISH"><path d="M261.3,51.9c6.2,7.3,16.9,11.6,23.2,19c-4.5-21.7-21.3-39.5-41.1-43.7C253.1,34.5,255.2,44.6,261.3,51.9z     M23.1,107c13.7-29.7,34-23.4,42.7-51.7C61,64,38.7,67.6,28.3,89.9c5.3-13.2,2.6-33.5,11.6-44.4C13.1,65.1,24.5,97,23.1,107z     M47.8,178.2c2.5,11.6-4.8,28.3,6.7,44.2c-11.9-13.3-37-16.7-47.2-36.9c12.7,49.5,46.2,39.3,61.2,50    C56.1,217.7,66.2,205.9,47.8,178.2z M44,209.2c-7.3-27.6,5.7-37.1-4.2-63.6c-1,14.9-11,22.2-4.3,49.4C23.6,172,5.3,163.4,0,147.5    C0.4,190.8,35.2,197.3,44,209.2z M97.4,255.4c-10.2-14.2-3.2-22.2-32-47.9c6.1,9.4-0.2,21.2,19.2,39.6    c-19-11.2-45.2-6.4-57.8-21.4C48.5,267.3,86.6,250.3,97.4,255.4L97.4,255.4z M236.7,247.1c19.4-18.4,13.1-30.3,19.2-39.6    c-28.8,25.7-21.8,33.8-32,47.9c10.8-5.2,48.9,11.8,70.6-29.7C281.9,240.7,255.7,235.9,236.7,247.1L236.7,247.1z M266.8,222.4    c11.4-15.9,4.2-32.7,6.7-44.2c-18.4,27.7-8.3,39.5-20.7,57.4c15-10.7,48.4-0.6,61.2-49.9C303.7,205.8,278.6,209.2,266.8,222.4    L266.8,222.4z M220.8,257.4c-10.3-2.8-20.8-4.4-31.5-4.8c-9.8-0.2-19.5,1.4-28.7,4.9c-9.2-3.5-18.9-5.1-28.7-4.9    c-10.6,0.4-21.2,2-31.5,4.8c-17.3,4.6-32.3,8.2-45.3,1.6c12.5,11.2,27.1,15.1,48.2,12.7c17.5-1.9,31.7-10.7,48.3-10.5h0.7    c-10.4,5.2-19.7,12.4-27.3,21.2l8,1.1c0,0,8.4-16.9,27.7-21.3c19.3,4.4,27.7,21.3,27.7,21.3l8-1.1c-7.6-8.7-16.9-15.9-27.3-21.1    h0.7c16.5-0.1,30.7,8.7,48.2,10.5c21.1,2.3,35.7-1.7,48.2-12.7C253.1,265.6,238.1,262,220.8,257.4L220.8,257.4z M40.9,115.7    c-7.1,13.7-18.2,16.8-17,45.2c-6-25.2-20.3-34.5-20.2-50.6c-9.9,41.9,16.6,46.9,23.5,64.4C26.2,149.6,42.3,144.5,40.9,115.7z     M50.9,83.4c-2.5,3.5-4.2,5-10.9,10.4c-10,7.9-16.8,19-19.3,31.5c0.7-15.4-8.8-37.4-2.5-53.5c-24.4,34.5,1.4,55.2,2.3,67.7    C26.9,115.4,41.4,115.2,50.9,83.4z M300.5,125.3c-2.5-12.4-9.4-23.6-19.3-31.5c-6.6-5.5-8.4-6.9-10.9-10.4    c9.4,31.9,24,32,30.3,56.1c0.9-12.5,26.7-33.2,2.3-67.7C309.3,87.9,299.9,109.9,300.5,125.3z M321.3,147.6    c-5.3,15.8-23.6,24.4-35.5,47.5c6.7-27.3-3.2-34.5-4.3-49.4c-10,26.5,3.2,36-4.2,63.6C286.1,197.3,320.9,190.8,321.3,147.6    L321.3,147.6z M280.4,115.7c-1.4,28.8,14.7,33.9,13.7,59c6.8-17.5,33.5-22.5,23.5-64.4c0.2,16.1-14.1,25.5-20.1,50.5    C298.6,132.6,287.5,129.4,280.4,115.7z M60,52c6.2-7.3,8.3-17.4,17.9-24.7c-19.8,4.2-36.6,22-41.1,43.7C43,63.6,53.8,59.2,60,52    L60,52z M255.6,55.3c8.6,28.3,29,22,42.6,51.7c-1.4-10,9.9-41.8-16.7-61.5c8.9,10.9,6.3,31.1,11.6,44.4    C282.7,67.6,260.4,63.9,255.6,55.3L255.6,55.3z M186.4,71.3c-5.2-2.1-10.7-3.6-16.3-4.4c0,1.2,0,2.4,0,3.6    c5.1,0.8,10.2,2.1,15,4.1C185.7,73.6,186.2,72.5,186.4,71.3z M182.3,36.2l1.1-1l-2.1-0.9l-5.4-0.1l-1.4,1l-3.2-0.3v0.8    c1.9,0.1,3.8,0.3,5.6,0.6l2.7-0.2L182.3,36.2z M171.7,153.8c0-0.9-1.2-1.8-3-2.7h-0.3c0,0.7,0,4.4-0.1,6.2    C170.5,156.3,171.7,155.2,171.7,153.8z M108.6,84.4c0.1-0.7,0.3-1.3,0.5-2c-0.7,0.2-1.5,0.2-2.2,0.2L108.6,84.4z M160.7,244.7    c61.4-0.2,111-50.2,110.7-111.5c-0.2-56.7-43-104.1-99.4-110.1c0,0.2,0,0.4-0.1,0.6c-0.2,1.1-0.4,2.1-0.6,2.9    c24.4,2.4,47.2,13.1,64.7,30.3l-12.3,12.3l0.5-2.2l-1.6-0.7l-2.2-0.1l0.5-1.4l-1.5-5l-3.1-3.4l-9.6-5.1l-0.8,0.9l-1.7,0.5    c3.3,4.7,5,10.4,5.1,16.1c0,0.7,0,1.5,0,2.2l4.8,6l-2.2,0.5l1.5,2.2l-4.2,4.2l-1.7-3.2c-0.8,2.2-1.9,4.3-3.2,6.3l0.9,0.9    l-12.9,12.9c-0.8-0.7-1.6-1.5-2.4-2.2c-1.2,0.6-2.5,1.1-3.8,1.6l1.1,0.9l-0.7,0.7l-1.6,0.8l-0.6,1.6l-0.9-0.9l-2.7,0.9l0.7,1.2    l1.9-0.5l1.2,0.1l0.1-0.7l0.9-0.5l0.3-0.6l1.7-0.5h1.3c0.3,0.2,0.5,0.5,0.8,0.7l-5.2,4.9l-0.4-0.5l-5.4,0.9l-1.2,1.2l-1.2,0.1    l3.3-3.2l-1.2-0.6l-3.1,4.1l0.9-0.1v1.6l1.1,0.4l0.2,1.6l-1.9-0.4l-1.9,0.4l-4.8-2.4c0,0-0.3,12.6-0.4,19    c11.2,3.7,22.9,9.1,22.9,23.3c0.1,6-2.9,11.7-8,14.9l0,0l-0.2,0.2l0,0l-0.4,0.2c-4.5,3-10.3,4.6-15.3,6.1l-0.1,9.9    c8,4,17.6,9.7,16.7,26.2c-0.1,4-1.7,5.2-3,5.5l0,0c-4.7,1.2-9.5,1.9-14.3,2.3c0,1.3,0,2.5,0,3.6c20.8-1.4,40.4-10.1,55.4-24.5    L235,211c-41.5,39.9-107,40.1-148.7,0.3l12.9-12.9c14.9,14.1,34.2,22.6,54.6,24.1c0-1.1,0-2.3,0-3.6c-19.5-1.5-37.9-9.6-52.1-23.1    l3.4-3.5l4.8,0.5l2.5-2.7l6.6,0.2l1-2.3l-0.2-1c9.8,7.5,21.4,12.1,33.6,13.4c0-1.4,0-2.6,0-3.6c-13.5-1.5-26.2-7.3-36.2-16.6    l12.9-12.9c3.2,2.8,6.7,5.2,10.5,7c0.3-1.2,0.7-2.3,1.3-3.4c-3.3-1.6-6.4-3.7-9.2-6.2l13-12.9c2.1,1.7,4.4,3,6.9,3.8    c0-1.3,0-2.6,0-3.9c-1.5-0.7-3-1.5-4.3-2.5l3.6-3.6c-1.3-0.4-2.6-0.8-3.9-1.2l-2.5,2.5c-1.2-1.4-2.3-2.9-3.1-4.6    c-2.2-1-4.3-2.1-6.4-3.4c-7.7-4.6-12.3-13-12.1-22c-0.2-6,1.6-11.9,5.2-16.7l-12.9-12.9c9.5-9.1,21.5-15,34.5-17    c0-1.2,0-2.5-0.1-3.6c-13.9,2-26.8,8.3-36.9,18.1l-2.2-2.1c-0.5,0.9-1.1,2-1.7,3.4l1.4,1.4c-11.5,12.2-18,28.2-18.3,44.9H75.1    c0.3-21.6,8.8-42.3,23.7-57.9l5.8,5.8c0.3,0,0.6,0,0.8,0c1.2-0.1,2.3-0.4,3.3-1l-7.4-7.4c3.9-3.8,8.2-7.2,12.7-10.2    c0.2-0.9,0.6-1.8,0.9-2.7c0.9-1.3,1.8-2.5,2.8-3.7c-6.9,3.8-13.3,8.5-19,14L85.9,56.6c17.3-16.9,39.8-27.5,63.9-30    c-0.1-0.4-0.2-0.8-0.2-0.8c-0.2-0.8-0.4-1.8-0.5-2.8C88,29.6,43.8,84.3,50.3,145.4C56.3,201.8,103.9,244.7,160.7,244.7    L160.7,244.7z M184.8,168L184.8,168L184.8,168L184.8,168z M238.6,59.5c18.8,19.7,29.5,45.8,29.7,73H250c-0.2-13.6-3.4-26.9-9.6-39    l0.2-0.3l1.3,0.7l0.3-1l-3.2-5.7l-3.9-5.4l-4.6-3.7c-1.6-1.9-3.2-3.8-4.9-5.6L238.6,59.5z M215.3,82.9l4.4,0.2l1.1,1.3l-0.5,1.9    l6,3.8l1.2-0.1l7.8,8.9l3.2-1.1c5.1,10.9,7.8,22.8,8,34.9h-18.3c-0.1-4.7-0.6-9.3-1.7-13.9l0.8-1.1l1.1-5.7l-0.9-6.2l-2.2-7.1    l-5.1-7.5l1.2,0.7l0.6-0.6l-4.1-2.8l-0.3,0.9l4.1,5.8l2.3,4.8l1.6,4.8l0.5,3.2l0.8,5.4l-1.6,0.1c0,0-1.8-3.3-2.3-4.7l0.8-1.2    l-1.6-2.2V103l-1.1-1.4l-1.4,0.2c-0.5-0.9-1-1.8-1.6-2.7l1,0.5l0.3-0.3l-0.5-1.1l1.2-0.7l-0.5-0.7l-1.8,0.7l0.7-2.8l-1.1-0.6    l-0.9,2.2c-2-3-4.2-5.8-6.6-8.4L215.3,82.9z M211.6,125.7l3.3-1.8l3.3-0.5l0.7-1.6l1.9-1.1l0.7-1.6l0.6-2.7    c0.3,0.9,0.5,1.9,0.7,2.9l-1.8,5.3v1.8l2.6-3.4c0.6,3.2,0.9,6.4,0.9,9.6h-15.9l-0.4-1.4l1.9-1.5l0.4-0.9l0.8-0.6l2.2-0.2l0.2-1    L211.6,125.7z M189.7,113.1l1.6-0.4v-0.4l-1.6-1.1l0.6-3.4l2-2c1.2,1.4,2.4,2.9,3.4,4.4l-0.7,2.1l-1.8-1.3l-1.4,0.4l0.7,1.3h0.7    l-0.7,1.9l-0.5-0.7L189.7,113.1z M196.7,173.8l-4-1.1l-1.2,0.4l-2.2-1.7l-2.1-0.7c1-0.7,2-1.6,3-2.4l3.2,2.3l2.5,1.3l1.2,1.2    L196.7,173.8z M194.7,103.3l12.9-12.9c3,3.3,5.7,6.9,8,10.7l-1.6,0.4l0.1,2.9l4.8,3.1c1.2,2.6,2.2,5.4,3,8.2l-0.8,1.2l-1.8,1.1    l-0.4,2.7l-1.2,0.7l-1,1.2l-1-0.4h-1.8l1-1.4l0.7-3.6l1.2-0.7l-3.3-3.4l-2.6,0.9l-0.6,2.4l-1.6,1.8l-1.7-1.4l-0.6-1.5l1-0.6l0.5,1    l0.8-0.3l-0.4-1.6h-1.1l-0.1,0.7l-0.7,0.1l-4.1-4.8l-1.4-1l0.5-0.6l1.2-0.4l-1.1-0.4c0,0-1.4,0.3-1.6,0.3l0.8,1h-2    C197.6,106.7,196.2,105,194.7,103.3z M201.3,172.1l-1.8-1.8l1.3-1.7l1.7-3.4l-0.7-1l1.1-2.5l-0.1-2.3l-0.7-2.4l-1.6-0.6l-0.6,1.3    l-1-0.3c1.5-2.1,2.7-4.3,3.8-6.7l1.6-0.7l0.9-1.2l0.4,0.5l1.1-1.3l-0.9-1.1l0.8-0.2l1.5,0.6h2.8l1.7-0.9l4.5-1.2l-0.8-1.5    l-0.3-1.8l2.4,1.1l0.9-0.5l-0.4-1.8l-2.9,1.2l-3.2-0.7l-2.5-5h14c-0.6,15.5-6.9,30.3-17.6,41.6l-1.9-1.9l0.8-2.6l-1.5-5.7    L201.3,172.1z M203.8,207.7l1.7-3.7l-0.7-1.6l2.5-2.2v-1.3l-2.2-1.4l1.8-3.6l2.7-3.5l-2.7-2.9h-2l-1.2-2c1.1-0.9,2.1-1.8,3.2-2.8    l12.9,12.9C214.9,200.3,209.6,204.4,203.8,207.7L203.8,207.7z M219.9,190.7l1.4-1.6L220,182l-0.9-0.4l0.6-1.2l-3.1-1L216,182    l-0.3,3.2l-0.6,0.6l-5.6-5.6c11.4-11.9,18.1-27.6,18.7-44.1h18.3c-0.6,21.3-9.2,41.7-24.1,57L219.9,190.7z M224.9,195.7    c15.5-16,24.5-37.3,25.1-59.6h18.3c-0.6,27.1-11.5,53-30.5,72.5L224.9,195.7z M115,178c-1.3-1.4-2.6-2.8-3.8-4.3l0.6-4.6l-1.9-4.4    l-0.5-6.9l-2.2-4.2l0.4-2.6l-2.6-5l-2.3-1.1l0.9-2.7l-0.9-2.1l0.9-2.4h2.5l0.9-1.4h4.3l0.7,1.3l-0.8,4.4l-0.5,0.7l1.6,3.5    l-1.1,0.6l-0.7-0.9l-0.3,0.4l0.7,2.1l1.3,2.4h0.6l0.4-2.4l-0.6-0.8v-1.5l-0.2-3l0.8-5.3l-0.9-1.4h3.1c0.6,10.8,5.1,21.1,12.6,29    L115,178z M102.9,142.3l-1.7,2.7h-3l-0.2-0.2c-0.5-2.9-0.8-5.8-0.9-8.7h5.5l-1.3,4.4L102.9,142.3z M108.9,129.7l0.3-3.6l2.2-1.3    l3.9,0.7l0.6,0.7c-0.3,2.1-0.5,4.2-0.6,6.3h-4.4L108.9,129.7z M127.5,143.4l0.9-0.5l2.3,1.8l-1,0.8l2.7,1.8l-0.1-1.9l1.4-2.4    l1.5,1.6l1.6,2.2l-2.9,0.6l1.3,2.5l1.9-1l-0.2-0.8l1.4-1l0.8-4c1,2.3,2.5,4.5,4.2,6.4l-12.9,12.9c-6.3-6.6-10.3-15.1-11.3-24.3    l2.6,2.8h2.5L127.5,143.4z M114.2,90.1l12.9,12.9c-2.7,3-5,6.3-6.9,9.9h-0.9l-1.8,0.6h-0.6l-1.9,1.8l2.4-0.5l2.2-0.6l-0.4,0.8    l-1.9,1.2h-1l-2.8,2.2l-2.7-0.2l-4,7.4l0.8,1.5l-2.2,2.4l-0.3,3.2H97C97.2,116.8,103.4,101.6,114.2,90.1z M97.5,187.5l4.1,2.4    l0.8,0.6l-3,3c-1.4-1.4-2.7-2.9-4-4.4L97.5,187.5z M93.4,136.1c0,1.8,0.2,3.5,0.4,5.3l-2.2,0.5l-0.5,2.3l-4.7,5.9l0.1,8.1    l-4.8,1.6h-2.6c-2.5-7.7-3.8-15.7-4.1-23.7L93.4,136.1z M75.4,159.7l-1.1-0.2l-1-1.1l-5.1-0.4l1.6,2.2l-4.8-0.9l1.2-1.1l-1.2-1.1    l-3.4,1.5l-1.2,2.3l0.5,5.2l4,9.4l1.9,3l1.1,0.4l-3-5.7l-0.7-2.9l0.7-0.7l-0.4-1.6l1.8,0.2l2.8,4.2l0.7,0.3v-3l1.1,0.7l0.2,1.6    l2.9,0.8l1.2-0.9l0.4,0.3v2.2l1.3,1.6l1.6,0.4l3.4,5.7l2.1,0.6l0.6-2.7c3.6,5.9,7.8,11.3,12.6,16.3l-12.9,12.9    c-19.2-19.4-30.2-45.4-30.9-72.7h18.3C71.7,144.1,73,152.1,75.4,159.7z M83.3,59.2l12.9,12.9C80.6,88.4,71.8,110,71.5,132.5H53.2    C53.5,105.1,64.2,78.9,83.3,59.2L83.3,59.2z M215.6,52.5l-1.1-1.8l-2.4-1.2l-1.9,1.4l2.4,1.3l2.6,2L215.6,52.5z M204.4,104v1.4    l3.2-0.9l1-1.9l-2.2-2.9l1.2-1.8l2.9,2.1l0.5-0.4l-0.6-0.4l-0.7-1.3l1.2-0.7l-1.2-1.6L207,97l-0.9,1.7l-0.6,1.5l1.2,2.1l-0.4,1    L204.4,104z M72.3,186l0.2-0.8l-1.6-3.6l-1.9-0.7L72.3,186z M147,117.3c0,3.1,1.9,5.2,5.3,7.1c0,0,0-0.5,0-1.4l-2.1-2.1l1.1-2.1    l0.9-0.3c0-3.6-0.1-7.6-0.2-8.1h-0.2C148.7,112.2,147,114.3,147,117.3z" fill="#0093D5"  /><path d="M167.4,196.5c5.7,2.9,11,6.9,13.2,14.5c1-12.6-6.1-18-13.1-21.7C167.6,189.3,167.4,196.5,167.4,196.5z" fill="#0093D5"  /><path d="M205.5,68.8c0-11.4-8.3-24.1-28.6-28.6c-2-0.4-4.1-0.6-6.2-0.7c0,1.7-0.1,5.7-0.1,5.7    c0,1.2-0.1,5.8-0.2,6.8c1.3,0.1,2.6,0.3,3.9,0.5c11.8,2.8,16,9.6,16,16.3c0,10.9-9.3,14.9-20.7,18l-3.8,1c-3.5,0.9-7,1.7-10.5,2.6    c-1.3,0.3-2.5,0.7-3.7,1.1l0,0c-12.6,3.9-23.5,9.9-23.5,25.5s12.4,21.3,24.5,25c-0.1-4.5-0.2-8.9-0.3-13.4    c-5.3-2.5-9.1-5.8-9.1-11.3s3.4-8.7,8.7-11.2c1.2-0.5,2.4-1,3.7-1.4c3-1,6.4-1.9,10-2.8l3.8-0.9l0,0    C186.4,97,205.5,91.7,205.5,68.8z" fill="#0093D5"  /><path d="M144.3,177.9c0,6.2,4.6,9.6,9.2,12.2c0-1.1-0.2-10.7-0.2-10.9c0.1-1.9,2-3.1,3.5-3.8    c2.4-1.1,4.8-2,7.3-2.8c1.4-0.5,2.5-0.9,3.8-1.3l0,0c9.2-2.8,19.9-6.4,19.9-17.5s-9.2-15.9-19.1-19.3c0,3.6-0.2,8.8-0.3,12.4    c4.2,1.6,7,3.7,7,6.9c0,4-4.3,6.4-7.3,7.5c-1.3,0.5-3.2,1.1-3.7,1.3c-2.5,0.8-5.1,1.6-7.6,2.5c-1.3,0.5-2.5,1-3.7,1.6    C148.8,169,144.3,172.2,144.3,177.9z" fill="#0093D5"  /><path d="M150.6,41.3c-3.8,1.2-7.6,2.7-11.2,4.5c-4,1.3-9.6,1.6-15.4,7.9c-1.9,2.2-3.7,4.5-5.3,6.8    c-1.8,2.5-1.8,6.6-3.2,8.7c-1.8,3.2-1.4,5-1.4,5v0.1c-0.3,1.5-1.1,2.9-2.1,4c-1.8,2.2-4.6,3.4-7.4,3c2.6,1.3,6.4-0.5,6.4-0.5    c-0.6,1.7-1,3.5-1.4,5.3c3-6.7,5.7-9.2,6.5-9.8c1.3,0.3,3.9,0.2,8.8-2.6c5.5-3.2,13.9-8.4,16.2-11.6c2.5-3.4,5.9-5.9,9.8-7.4    C150.7,49.4,150.6,45,150.6,41.3z M127.2,62.3l-2.9,0.6l3.4-5.5l4,0.1L127.2,62.3z" fill="#0093D5"  /><path d="M162,177.1c-0.5,0.2-1.9,0.8-2.8,1.1c-0.9,0.3-2.1,0.8-2.1,1.1c0,0.3,0.9,48.5,0.9,49.5c0,10,5.1,10,5.1,0    c0-0.7,1-52.4,1-52.4S162.9,176.9,162,177.1z" fill="#0093D5"  /><path d="M156.7,161.2c1.6-0.5,3.2-1,4.6-1.5l3.1-1c0-3,0.9-45.1,1.1-52.8c-3.3,0.8-6.6,1.7-9.8,2.8    C155.8,114.5,156.7,156.6,156.7,161.2z" fill="#0093D5"  /><path d="M160.9,0c-14.2,0-8.2,21.1-7.1,28c0,0.3,1.1,47.8,1.4,58.6c2.2-0.6,4.3-1.1,6.4-1.6l4.3-1.1    c0.2-10.5,1.3-55.8,1.3-56C168.1,20.6,175.6,0,160.9,0z" fill="#0093D5"  /><path d="M393.8,67.3h-0.2l-12.1,65.9H365l-15.5-80.4h13.2l10.8,62h0.2l11.5-62h17.1l11.4,62h0.2l11.2-62h12.7    l-15.8,80.4h-16.8L393.8,67.3z" fill="#0093D5"  /><path d="M461,73c11.5,0,24.8,6.4,24.8,30.5c0,24.9-13.3,30.6-24.8,30.6s-24.9-5.8-24.9-30.6    C436.1,79.3,449.5,73,461,73z M461,124c8.8,0,10.7-10.6,10.7-20.5s-2-20.4-10.7-20.4c-8.8,0-10.9,10.5-10.9,20.4    S452.3,124,461,124L461,124z" fill="#0093D5"  /><path d="M494.3,83.7c0-3.3-0.1-6.5-0.4-9.8h12.3c0.1,3.6,0.4,7.2,0.4,10.8h0.2c1.6-4.6,5.9-11.7,14.3-11.7    c0.8,0,1.6,0.2,2.3,0.4v13.4c-1.2-0.4-2.5-0.6-3.8-0.6c-5.6,0-11.7,3.6-11.7,14.6v32.5h-13.6V83.7z" fill="#0093D5"  /><path d="M532.1,46.8h13.6v86.4h-13.6V46.8z" fill="#0093D5"  /><path d="M602.4,46.8V123c-0.1,3.4,0.1,6.8,0.4,10.1h-12.7c-0.3-3.1-0.5-6.1-0.4-9.2h-0.3    c-2.2,5.1-6.2,10.1-15,10.1c-14,0-19.9-14.1-19.9-30.5c0-19.4,7.3-30.6,19.5-30.6c6.4-0.2,12.2,3.5,14.6,9.4h0.2V46.8H602.4z     M578,123.7c8,0,10.8-9.1,10.8-20.3c0-11.5-3.1-19.9-10.5-19.9c-7.5,0-10.2,7.7-10.2,19.6C568.1,116.8,570.1,123.7,578,123.7z" fill="#0093D5"  /><path d="M647.2,52.8h14.1v32.7h22.6V52.8H698v80.4h-14.1V97.7h-22.7v35.5h-14.1L647.2,52.8z" fill="#0093D5"  /><path d="M750.1,130.3c-5.3,2.5-11.1,3.8-16.9,3.8c-18.2,0-26.1-13.7-26.1-29.7c0-17.7,8.9-31.4,23.3-31.4    c12.2,0,22.6,7.5,22.6,31.7v2.8h-32.7c0,10.1,3.8,16.3,14.3,16.3c8.3,0,12.3-2.7,14.8-4.6L750.1,130.3z M739.8,98.5    c0-10.5-3.3-15.8-9.4-15.8c-7.1,0-10.1,8-10.1,15.8H739.8z" fill="#0093D5"  /><path d="M765.1,77.4c5.5-2.9,11.6-4.4,17.9-4.4c17.5,0,21.6,9,21.6,23.9v25.8c0,3.5,0.3,7,0.8,10.5h-12.3    c-0.6-2.6-0.9-5.3-0.8-8h-0.2c-3.4,4.8-7.7,9-15.8,9c-8.8,0-16.9-6.4-16.9-17.4c0-16.1,12.5-20.2,29.7-20.2h2.7v-2.2    c0-5.9-2.7-11.3-10.5-11.3c-5.7,0.1-11.1,2.2-15.5,5.8L765.1,77.4z M791.9,104.2h-1.2c-11.6,0-18.5,2.5-18.5,11.2    c0,5.4,3.4,9.1,8.7,9.1c8.1,0,11.2-6.4,11.2-16.9L791.9,104.2z" fill="#0093D5"  /><path d="M818,46.8h13.6v86.4H818V46.8z" fill="#0093D5"  /><path d="M848.6,61.7l13.6-4.3V74h11.3v10.5h-11.3v30.8c0,6.4,2.2,8.2,6.1,8.2c1.8,0,3.6-0.4,5.2-1.3v10.1    c-2.8,1.4-6,2-9.1,2c-10.1,0-15.8-4.8-15.8-17.3V84.4h-9V73.9h9V61.7z" fill="#0093D5"  /><path d="M880.5,46.8h13.6v34.7h0.3c2.4-3.7,5.6-8.5,14-8.5c12.7,0,16.7,10,16.7,22v38.2h-13.6V97.6    c0-9.1-2.2-12.9-7.8-12.9c-7.1,0-9.7,6.4-9.7,13.9v34.5h-13.6L880.5,46.8z" fill="#0093D5"  /><path d="M379.4,154.6c15.9,0,30.5,12.4,30.5,41.4s-14.6,41.3-30.5,41.3s-30.5-12.4-30.5-41.3    S363.5,154.6,379.4,154.6z M379.4,226c8.9,0,16-8,16-30s-7.1-30.1-16-30.1c-8.9,0-15.9,8-15.9,30.1S370.5,226,379.4,226L379.4,226    z" fill="#0093D5"  /><path d="M418.9,186.6c0-3.3-0.1-6.5-0.4-9.8h12.3c0.1,3.6,0.4,7.3,0.4,10.8h0.2c1.6-4.6,5.9-11.7,14.3-11.7    c0.8,0,1.5,0.2,2.3,0.3v13.3c-1.2-0.4-2.5-0.6-3.8-0.6c-5.6,0-11.7,3.6-11.7,14.6V236h-13.6V186.6z" fill="#0093D5"  /><path d="M456.6,245.4c5,3.1,10.8,4.8,16.7,5.1c12.7,0,14.9-9.3,14.9-18.7v-5.6H488c-2.2,4.6-6,10-14.9,10    c-8,0-19.7-5.5-19.7-29.5c0-16.4,5.6-30.8,20.4-30.8c8.2,0,12.1,5,14.9,10.1h0.4c0-3.2,0.3-6.1,0.4-9.2h12.3    c-0.2,3.2-0.4,6.2-0.4,9.3v43.8c0,18.5-5.4,31.9-26.1,31.9c-6.6,0-13.2-1.3-19.4-3.7L456.6,245.4z M477.7,225.7    c8.6,0,11.9-6.4,11.9-19.9c0-12.4-4.5-19.1-11-19c-7.1,0.1-9.9,7-9.9,19.1C468.9,219.9,473.1,225.7,477.7,225.7z" fill="#0093D5"  /><path d="M516.1,180.3c5.5-2.9,11.7-4.4,17.9-4.4c17.5,0,21.6,9,21.6,23.9v25.9c0,3.5,0.3,7,0.8,10.5h-12.3    c-0.6-2.6-0.9-5.4-0.8-8.1h-0.2c-3.4,4.8-7.7,9-15.8,9c-8.8,0-16.9-6.4-16.9-17.4c0-16.1,12.5-20.2,29.7-20.2h2.7v-2.2    c0-5.9-2.7-11.3-10.5-11.3c-5.6,0.1-11.1,2.2-15.5,5.8L516.1,180.3z M542.8,207.1h-1.2c-11.6,0-18.5,2.5-18.5,11.2    c0,5.4,3.4,9.1,8.7,9.1c8.1,0,11.1-6.4,11.1-16.9L542.8,207.1L542.8,207.1z" fill="#0093D5"  /><path d="M569.3,186.6c0-3.3-0.1-6.5-0.4-9.8h12.7c0.1,3,0.4,6.1,0.4,9.1h0.2c2-3.6,5.8-10,15-10    c12.8,0,16.7,10,16.7,22v38.2h-13.6v-35.6c0-9.1-2.2-12.9-7.8-12.9c-7.1,0-9.7,6.4-9.7,13.9V236h-13.6L569.3,186.6z" fill="#0093D5"  /><path d="M626.2,151.6h14v14.1h-14V151.6z M626.4,176.8H640v59.3h-13.6V176.8z" fill="#0093D5"  /><path d="M652.6,223.8l24.1-36.2h-23.4v-10.8h37V189l-23.7,36.3h24.5v10.8h-38.5L652.6,223.8L652.6,223.8z" fill="#0093D5"  /><path d="M704,180.3c5.5-2.9,11.7-4.4,17.9-4.4c17.5,0,21.6,9,21.6,23.9v25.9c0,3.5,0.3,7,0.8,10.5H732    c-0.6-2.6-0.9-5.4-0.8-8.1H731c-3.4,4.8-7.7,9-15.8,9c-8.8,0-16.9-6.4-16.9-17.4c0-16.1,12.5-20.2,29.7-20.2h2.7v-2.2    c0-5.9-2.7-11.3-10.5-11.3c-5.6,0.1-11.1,2.2-15.5,5.8L704,180.3z M730.8,207.1h-1.1c-11.6,0-18.5,2.5-18.5,11.2    c0,5.4,3.4,9.1,8.7,9.1c8.1,0,11.2-6.4,11.2-16.9L730.8,207.1z" fill="#0093D5"  /><path d="M759.1,164.6l13.6-4.4v16.6H784v10.5h-11.3v30.8c0,6.4,2.2,8.2,6.2,8.2c1.8,0,3.6-0.4,5.1-1.3v10.1    c-2.8,1.4-6,2-9.1,2c-10.1,0-15.8-4.8-15.8-17.3v-32.5h-9v-10.5h9V164.6z" fill="#0093D5"  /><path d="M793.4,151.6h14v14.1h-14V151.6z M795.1,176.9h13.6v59.3h-13.6V176.9z" fill="#0093D5"  /><path d="M844,175.9c11.5,0,24.8,6.4,24.8,30.5c0,24.9-13.3,30.6-24.8,30.6s-24.9-5.8-24.9-30.6    C819.1,182.3,832.5,175.9,844,175.9z M844,226.9c8.8,0,10.7-10.6,10.7-20.5s-2-20.4-10.7-20.4s-10.9,10.5-10.9,20.4    C833.2,216.4,835.3,227,844,226.9L844,226.9z" fill="#0093D5"  /><path d="M880.7,186.6c0-3.3-0.1-6.5-0.4-9.8H893c0.1,3,0.4,6.1,0.4,9.1h0.2c2-3.6,5.8-10,15-10    c12.8,0,16.7,10,16.7,22v38.2h-13.6v-35.6c0-9.1-2.2-12.9-7.8-12.9c-7.1,0-9.6,6.4-9.6,13.9V236h-13.7L880.7,186.6L880.7,186.6z" fill="#0093D5"  />
		
		
		
		
		
		
		
		
		
		
		
		
		
		
		
		
		
		
		
		
		
		
		
		
		
		
		
		
		
		
		
	</g>
	
</g></svg>