<svg viewBox="0 0 1381.1 283.5" role="img" aria-labelledby="nihr--title" xmlns="http://www.w3.org/2000/svg" xmlns:xlink="http://www.w3.org/1999/xlink"><title id="nihr--title">Funded by NIHR - National Institute for Health Research</title><path d="M105.7,126.9v95.9l-73.9-95.9H0v155.7h34.2v-99l76.3,99h29.4V126.9H105.7z M167.5,126.9h34.7v155.7h-34.7  V126.9z M328.3,126.9v62.8h-63.9v-62.8h-34.6v155.7h34.6v-59.9h63.9v59.9H363V126.9H328.3z M469.3,189.6l-1.8,0.1h-42.1v-31.8h42.1  l1.8,0.1c7.5,0.2,18,3.1,18,15.8S476.8,189.4,469.3,189.6 M487,217.2c19.8-4.1,34.5-19.4,34.5-44.5c0-28-19.6-44.9-44-45.6v-0.2  h-86.9v155.7h34.6v-59.9h25.7l36.9,59.9h39.6C527.3,282.7,487,217.2,487,217.2z M655.9,127c0.3,0,0.6,0.1,0.9,0.3  c0.3,0.1,0.5,0.3,0.8,0.6c0.3,0.2,0.5,0.6,0.8,1l31.7,41.2c-0.1-1-0.2-2-0.2-2.9c0-0.9-0.1-1.8-0.1-2.7v-37.6h9.9v61.7h-5.8  c-0.9,0-1.6-0.1-2.2-0.4c-0.6-0.3-1.2-0.8-1.7-1.5l-31.6-41.1c0.1,0.9,0.1,1.8,0.2,2.7c0,0.9,0.1,1.7,0.1,2.5v37.9h-10v-61.8h5.9  C655.1,126.9,655.6,127,655.9,127 M724.9,182c1.1,0,2-0.1,2.9-0.3c0.9-0.2,1.7-0.5,2.5-0.9c0.8-0.4,1.6-0.9,2.3-1.4  c0.7-0.6,1.5-1.2,2.2-2v-7.3c-3,0-5.5,0.2-7.5,0.6c-2,0.4-3.7,0.9-4.9,1.5s-2.1,1.3-2.6,2.1s-0.8,1.7-0.8,2.6c0,1.9,0.5,3.2,1.6,4  C721.8,181.6,723.2,182,724.9,182 M744.9,188.6h-4.6c-1,0-1.7-0.1-2.3-0.5c-0.6-0.3-1-0.9-1.3-1.8l-0.9-3.1c-1.1,1-2.1,1.9-3.2,2.6  c-1,0.8-2.1,1.4-3.2,1.9c-1.1,0.5-2.3,0.9-3.6,1.1c-1.3,0.3-2.7,0.4-4.2,0.4c-1.8,0-3.5-0.2-5-0.7c-1.5-0.5-2.8-1.3-3.9-2.2  c-1.1-1-2-2.2-2.6-3.7c-0.6-1.5-0.9-3.2-0.9-5.2c0-1.6,0.4-3.3,1.3-4.9c0.9-1.6,2.3-3.1,4.2-4.4c2-1.3,4.6-2.4,7.9-3.2  c3.3-0.9,7.4-1.3,12.3-1.3V161c0-2.9-0.6-5.1-1.8-6.6c-1.2-1.4-3-2.1-5.3-2.1c-1.7,0-3.1,0.2-4.2,0.6s-2.1,0.8-2.9,1.3  c-0.8,0.5-1.6,0.9-2.3,1.3c-0.7,0.4-1.5,0.6-2.3,0.6c-0.7,0-1.3-0.2-1.8-0.6c-0.5-0.4-0.9-0.8-1.2-1.4l-1.9-3.4  c4.9-4.6,10.9-6.9,17.8-6.9c2.5,0,4.8,0.4,6.7,1.3c2,0.8,3.6,2,5,3.5s2.4,3.3,3.1,5.3c0.7,2.1,1.1,4.4,1.1,6.8L744.9,188.6  L744.9,188.6z M769.1,189.3c-3.7,0-6.6-1.1-8.6-3.2s-3-5.1-3-8.9v-24.4h-4.3c-0.6,0-1-0.2-1.4-0.6c-0.4-0.4-0.6-0.9-0.6-1.7v-4.2  l6.9-1.1l2.2-11.9c0.1-0.6,0.4-1,0.8-1.3c0.4-0.3,0.9-0.5,1.5-0.5h5.4v13.8h11.3v7.5H768v23.7c0,1.4,0.3,2.4,1,3.2  c0.7,0.8,1.6,1.1,2.7,1.1c0.6,0,1.2-0.1,1.6-0.2c0.4-0.2,0.8-0.3,1.1-0.5c0.3-0.2,0.6-0.3,0.9-0.5c0.2-0.2,0.5-0.2,0.8-0.2  s0.6,0.1,0.8,0.2c0.2,0.2,0.4,0.4,0.6,0.7l3.1,5.1c-1.5,1.3-3.2,2.2-5.2,2.9C773.3,189,771.2,189.3,769.1,189.3 M798.4,188.6h-10.3  v-43.8h10.3V188.6z M799.9,132.1c0,0.9-0.2,1.8-0.5,2.6c-0.4,0.8-0.8,1.5-1.4,2.1c-0.6,0.6-1.3,1.1-2.1,1.4  c-0.8,0.4-1.7,0.5-2.6,0.5c-0.9,0-1.7-0.2-2.5-0.5c-0.8-0.4-1.5-0.8-2.1-1.4c-0.6-0.6-1.1-1.3-1.4-2.1c-0.4-0.8-0.5-1.6-0.5-2.6  c0-0.9,0.2-1.8,0.5-2.6c0.3-0.8,0.8-1.5,1.4-2.1c0.6-0.6,1.3-1.1,2.1-1.4c0.8-0.4,1.6-0.5,2.5-0.5s1.8,0.2,2.6,0.5  c0.8,0.4,1.5,0.8,2.1,1.4c0.6,0.6,1.1,1.3,1.4,2.1C799.8,130.3,799.9,131.2,799.9,132.1 M828.4,181.1c3.6,0,6.2-1.2,7.9-3.7  c1.7-2.5,2.6-6,2.6-10.8c0-4.7-0.9-8.3-2.6-10.8c-1.7-2.5-4.4-3.7-7.9-3.7c-3.6,0-6.3,1.3-8,3.7c-1.7,2.5-2.6,6.1-2.6,10.8  c0,4.7,0.9,8.3,2.6,10.7C822.1,179.9,824.8,181.1,828.4,181.1 M828.4,144.2c3.2,0,6.1,0.5,8.7,1.6c2.6,1.1,4.8,2.5,6.7,4.5  c1.8,1.9,3.3,4.3,4.3,7.1c1,2.8,1.5,5.9,1.5,9.3c0,3.5-0.5,6.6-1.5,9.4c-1,2.8-2.4,5.2-4.3,7.1c-1.8,2-4.1,3.5-6.7,4.5  c-2.6,1-5.5,1.6-8.7,1.6s-6.1-0.5-8.7-1.6c-2.6-1.1-4.9-2.6-6.7-4.5c-1.9-2-3.3-4.3-4.3-7.1s-1.5-5.9-1.5-9.4c0-3.5,0.5-6.6,1.5-9.3  c1-2.8,2.5-5.1,4.3-7.1c1.9-1.9,4.1-3.4,6.7-4.5C822.3,144.7,825.2,144.2,828.4,144.2 M857.6,188.6v-43.8h6.3c1.3,0,2.2,0.6,2.6,1.9  l0.7,3.5c0.9-0.9,1.8-1.7,2.7-2.5c1-0.7,2-1.4,3.1-1.9c1.1-0.5,2.2-0.9,3.4-1.2c1.2-0.3,2.6-0.4,4-0.4c2.3,0,4.4,0.4,6.2,1.2  s3.3,1.9,4.5,3.4c1.2,1.5,2.1,3.2,2.8,5.2c0.6,2,0.9,4.3,0.9,6.7v27.9h-10.3v-27.9c0-2.7-0.6-4.7-1.8-6.2c-1.2-1.5-3-2.2-5.5-2.2  c-1.8,0-3.5,0.4-5,1.2c-1.6,0.8-3,1.9-4.4,3.4v31.6L857.6,188.6L857.6,188.6z M918.7,182c1.1,0,2-0.1,2.9-0.3  c0.9-0.2,1.7-0.5,2.5-0.9c0.8-0.4,1.6-0.9,2.3-1.4c0.7-0.6,1.5-1.2,2.2-2v-7.3c-3,0-5.5,0.2-7.5,0.6s-3.7,0.9-4.9,1.5  c-1.2,0.6-2.1,1.3-2.6,2.1s-0.8,1.7-0.8,2.6c0,1.9,0.5,3.2,1.6,4C915.6,181.6,917,182,918.7,182 M938.8,188.6h-4.6  c-1,0-1.8-0.1-2.3-0.5c-0.6-0.3-1-0.9-1.3-1.8l-0.9-3.1c-1.1,1-2.1,1.9-3.2,2.6c-1,0.8-2.1,1.4-3.2,1.9c-1.1,0.5-2.3,0.9-3.6,1.1  c-1.3,0.3-2.7,0.4-4.2,0.4c-1.8,0-3.5-0.2-5-0.7s-2.9-1.3-3.9-2.2c-1.1-1-2-2.2-2.6-3.7s-0.9-3.2-0.9-5.2c0-1.6,0.4-3.3,1.3-4.9  c0.9-1.6,2.3-3.1,4.3-4.4s4.6-2.4,7.9-3.2c3.3-0.9,7.4-1.3,12.3-1.3V161c0-2.9-0.6-5.1-1.8-6.6c-1.2-1.4-3-2.1-5.3-2.1  c-1.7,0-3.1,0.2-4.2,0.6c-1.1,0.4-2.1,0.8-2.9,1.3c-0.8,0.5-1.6,0.9-2.3,1.3c-0.7,0.4-1.5,0.6-2.3,0.6c-0.7,0-1.3-0.2-1.8-0.6  s-0.9-0.8-1.2-1.4l-1.9-3.4c4.9-4.6,10.9-6.9,17.8-6.9c2.5,0,4.8,0.4,6.7,1.3c2,0.8,3.6,2,5,3.5s2.4,3.3,3.1,5.3  c0.7,2.1,1.1,4.4,1.1,6.8L938.8,188.6L938.8,188.6z M949.5,125.2h10.3v63.4h-10.3V125.2z M989.6,126.9h11.3v61.7h-11.3V126.9z   M1013.9,188.6v-43.8h6.3c1.3,0,2.2,0.6,2.6,1.9l0.7,3.5c0.9-0.9,1.8-1.7,2.7-2.5c1-0.7,2-1.4,3.1-1.9c1.1-0.5,2.2-0.9,3.4-1.2  c1.2-0.3,2.6-0.4,4-0.4c2.3,0,4.4,0.4,6.2,1.2c1.8,0.8,3.3,1.9,4.5,3.4c1.2,1.5,2.1,3.2,2.8,5.2c0.6,2,0.9,4.3,0.9,6.7v27.9h-10.3  v-27.9c0-2.7-0.6-4.7-1.8-6.2c-1.2-1.5-3-2.2-5.5-2.2c-1.8,0-3.5,0.4-5,1.2c-1.6,0.8-3,1.9-4.4,3.4v31.6L1013.9,188.6L1013.9,188.6z   M1086.9,153.4c-0.3,0.5-0.6,0.8-0.9,1c-0.3,0.2-0.7,0.3-1.2,0.3s-1-0.1-1.6-0.4l-2-1c-0.8-0.4-1.6-0.7-2.6-1s-2.1-0.4-3.4-0.4  c-2,0-3.6,0.4-4.8,1.3c-1.2,0.9-1.8,2-1.8,3.5c0,0.9,0.3,1.7,0.9,2.4c0.6,0.6,1.4,1.2,2.4,1.7c1,0.5,2.1,0.9,3.4,1.3  c1.2,0.4,2.5,0.8,3.8,1.3c1.3,0.5,2.6,1,3.9,1.6c1.2,0.6,2.4,1.3,3.4,2.2c1,0.9,1.8,2,2.4,3.2c0.6,1.2,0.9,2.8,0.9,4.5  c0,2.1-0.4,4-1.1,5.8c-0.8,1.8-1.9,3.3-3.3,4.6c-1.4,1.3-3.2,2.3-5.4,3c-2.1,0.7-4.6,1.1-7.3,1.1c-1.5,0-2.9-0.1-4.3-0.4  c-1.4-0.3-2.8-0.7-4.1-1.1c-1.3-0.5-2.5-1.1-3.6-1.7c-1.1-0.7-2.1-1.4-2.9-2.1l2.4-4c0.3-0.5,0.7-0.9,1.1-1.1  c0.4-0.3,0.9-0.4,1.6-0.4s1.2,0.2,1.8,0.6c0.6,0.4,1.2,0.8,2,1.2c0.7,0.4,1.6,0.8,2.7,1.2c1,0.4,2.3,0.6,3.9,0.6  c1.2,0,2.3-0.1,3.2-0.4c0.9-0.3,1.6-0.7,2.2-1.2c0.6-0.5,1-1.1,1.2-1.7c0.3-0.6,0.4-1.3,0.4-2c0-1-0.3-1.9-0.9-2.5  c-0.6-0.7-1.4-1.2-2.4-1.7c-1-0.5-2.1-0.9-3.4-1.3c-1.3-0.4-2.6-0.8-3.9-1.3c-1.3-0.5-2.6-1-3.9-1.6s-2.4-1.4-3.4-2.3  c-1-0.9-1.8-2.1-2.4-3.5c-0.6-1.4-0.9-3-0.9-4.9c0-1.8,0.3-3.5,1.1-5.1c0.7-1.6,1.7-3,3.1-4.2c1.3-1.2,3-2.2,5-2.9s4.4-1.1,7-1.1  c2.9,0,5.6,0.5,8.1,1.5c2.4,1,4.4,2.3,6.1,3.9L1086.9,153.4L1086.9,153.4z M1112,189.3c-3.7,0-6.6-1.1-8.6-3.2s-3-5.1-3-8.9v-24.4  h-4.3c-0.6,0-1-0.2-1.4-0.6c-0.4-0.4-0.6-0.9-0.6-1.7v-4.2l6.9-1.1l2.2-11.9c0.1-0.6,0.4-1,0.8-1.3c0.4-0.3,0.9-0.5,1.5-0.5h5.4  v13.8h11.3v7.5h-11.3v23.7c0,1.4,0.3,2.4,1,3.2s1.6,1.1,2.7,1.1c0.6,0,1.2-0.1,1.6-0.2c0.4-0.2,0.8-0.3,1.1-0.5  c0.3-0.2,0.6-0.3,0.9-0.5c0.2-0.2,0.5-0.2,0.7-0.2c0.3,0,0.6,0.1,0.8,0.2c0.2,0.2,0.4,0.4,0.6,0.7l3.1,5.1c-1.5,1.3-3.2,2.2-5.2,2.9  C1116.2,189,1114.1,189.3,1112,189.3 M1141.3,188.6H1131v-43.8h10.3V188.6z M1142.9,132.1c0,0.9-0.2,1.8-0.5,2.6  c-0.4,0.8-0.8,1.5-1.4,2.1c-0.6,0.6-1.3,1.1-2.1,1.4c-0.8,0.4-1.7,0.5-2.6,0.5c-0.9,0-1.7-0.2-2.5-0.5c-0.8-0.4-1.5-0.8-2.1-1.4  c-0.6-0.6-1.1-1.3-1.4-2.1c-0.4-0.8-0.5-1.6-0.5-2.6c0-0.9,0.2-1.8,0.5-2.6s0.8-1.5,1.4-2.1c0.6-0.6,1.3-1.1,2.1-1.4  c0.8-0.4,1.6-0.5,2.5-0.5c0.9,0,1.8,0.2,2.6,0.5c0.8,0.4,1.5,0.8,2.1,1.4c0.6,0.6,1.1,1.3,1.4,2.1  C1142.7,130.3,1142.9,131.2,1142.9,132.1 M1167,189.3c-3.7,0-6.6-1.1-8.6-3.2c-2-2.1-3-5.1-3-8.9v-24.4h-4.3c-0.6,0-1-0.2-1.4-0.6  c-0.4-0.4-0.6-0.9-0.6-1.7v-4.2l6.9-1.1l2.2-11.9c0.1-0.6,0.4-1,0.8-1.3c0.4-0.3,0.9-0.5,1.5-0.5h5.4v13.8h11.3v7.5h-11.3v23.7  c0,1.4,0.3,2.4,1,3.2c0.7,0.8,1.6,1.1,2.7,1.1c0.6,0,1.2-0.1,1.6-0.2c0.4-0.2,0.8-0.3,1.1-0.5c0.3-0.2,0.6-0.3,0.9-0.5  c0.2-0.2,0.5-0.2,0.8-0.2c0.3,0,0.6,0.1,0.8,0.2c0.2,0.2,0.4,0.4,0.6,0.7l3.1,5.1c-1.5,1.3-3.2,2.2-5.2,2.9  C1171.1,189,1169.1,189.3,1167,189.3 M1194.7,144.8v27.8c0,2.7,0.6,4.7,1.8,6.2c1.2,1.5,3,2.2,5.5,2.2c1.8,0,3.5-0.4,5-1.2  c1.6-0.8,3-1.9,4.4-3.3v-31.7h10.3v43.8h-6.3c-1.3,0-2.2-0.6-2.6-1.9l-0.7-3.5c-0.9,0.9-1.8,1.7-2.8,2.5c-0.9,0.8-2,1.4-3,1.9  c-1.1,0.5-2.2,0.9-3.5,1.2c-1.2,0.3-2.6,0.4-4,0.4c-2.3,0-4.4-0.4-6.2-1.2c-1.8-0.8-3.3-2-4.5-3.4c-1.2-1.5-2.2-3.2-2.8-5.3  c-0.6-2-0.9-4.3-0.9-6.7v-27.8H1194.7L1194.7,144.8z M1246.9,189.3c-3.7,0-6.6-1.1-8.6-3.2s-3-5.1-3-8.9v-24.4h-4.3  c-0.6,0-1-0.2-1.4-0.6c-0.4-0.4-0.6-0.9-0.6-1.7v-4.2l6.9-1.1l2.2-11.9c0.1-0.6,0.4-1,0.8-1.3c0.4-0.3,0.9-0.5,1.5-0.5h5.4v13.8  h11.3v7.5h-11.3v23.7c0,1.4,0.3,2.4,1,3.2c0.7,0.8,1.6,1.1,2.7,1.1c0.6,0,1.2-0.1,1.6-0.2c0.4-0.2,0.8-0.3,1.1-0.5s0.6-0.3,0.9-0.5  c0.2-0.2,0.5-0.2,0.8-0.2s0.6,0.1,0.8,0.2c0.2,0.2,0.4,0.4,0.6,0.7l3.1,5.1c-1.5,1.3-3.2,2.2-5.2,2.9  C1251,189,1249,189.3,1246.9,189.3 M1283.1,151.7c-3,0-5.4,0.9-7.1,2.6c-1.7,1.7-2.8,4.2-3.3,7.4h19.4c0-1.4-0.2-2.6-0.5-3.9  c-0.4-1.2-0.9-2.3-1.7-3.2c-0.7-0.9-1.7-1.6-2.8-2.2C1285.9,152,1284.6,151.7,1283.1,151.7 M1282.9,144.2c2.7,0,5.2,0.4,7.5,1.3  s4.2,2.2,5.9,3.9c1.6,1.7,2.9,3.8,3.8,6.2c0.9,2.5,1.4,5.3,1.4,8.4c0,0.8,0,1.5-0.1,2c-0.1,0.5-0.2,0.9-0.4,1.2  c-0.2,0.3-0.4,0.5-0.7,0.6s-0.7,0.2-1.2,0.2h-26.5c0.3,4.5,1.5,7.8,3.6,9.9c2.1,2.1,4.8,3.2,8.2,3.2c1.7,0,3.1-0.2,4.3-0.6  c1.2-0.4,2.3-0.8,3.2-1.3c0.9-0.5,1.7-0.9,2.4-1.3c0.7-0.4,1.3-0.6,2-0.6c0.4,0,0.8,0.1,1.1,0.2c0.3,0.2,0.6,0.4,0.8,0.7l3,3.8  c-1.1,1.4-2.4,2.5-3.8,3.4c-1.4,0.9-2.9,1.7-4.4,2.2c-1.5,0.6-3.1,0.9-4.7,1.2c-1.6,0.2-3.2,0.3-4.7,0.3c-3,0-5.8-0.5-8.3-1.5  c-2.6-1-4.8-2.5-6.7-4.5s-3.4-4.4-4.5-7.3c-1.1-2.9-1.6-6.3-1.6-10.1c0-3,0.5-5.8,1.4-8.4c0.9-2.6,2.3-4.9,4.1-6.9  c1.8-1.9,3.9-3.5,6.5-4.6C1276.8,144.7,1279.7,144.2,1282.9,144.2 M650,282.7v-35.8l-3.7-0.6c-0.8-0.1-1.5-0.4-1.9-0.9  c-0.5-0.4-0.7-1-0.7-1.8v-4.3h6.4v-3.2c0-2.5,0.4-4.7,1.1-6.7c0.7-2,1.8-3.7,3.2-5.1c1.4-1.4,3.1-2.4,5-3.2c2-0.7,4.2-1.1,6.7-1.1  c2,0,3.8,0.3,5.5,0.8l-0.2,5.3c-0.1,0.8-0.4,1.3-1.1,1.5c-0.7,0.2-1.5,0.3-2.4,0.3c-1.2,0-2.3,0.1-3.3,0.4c-1,0.3-1.8,0.7-2.4,1.4  c-0.7,0.7-1.2,1.6-1.5,2.7c-0.3,1.1-0.5,2.4-0.5,4.1v2.9h11.2v7.5h-10.8v35.9L650,282.7L650,282.7z M695.8,275.2  c3.6,0,6.2-1.2,7.9-3.7c1.7-2.5,2.6-6,2.6-10.8c0-4.7-0.9-8.3-2.6-10.8c-1.7-2.5-4.4-3.7-7.9-3.7c-3.6,0-6.3,1.3-8,3.7  c-1.7,2.5-2.6,6.1-2.6,10.8c0,4.7,0.9,8.3,2.6,10.7C689.5,274,692.2,275.2,695.8,275.2 M695.8,238.2c3.2,0,6.1,0.5,8.7,1.6  c2.6,1.1,4.8,2.5,6.7,4.5c1.8,1.9,3.3,4.3,4.3,7.1c1,2.8,1.5,5.9,1.5,9.3c0,3.5-0.5,6.6-1.5,9.4s-2.4,5.2-4.3,7.1  c-1.8,2-4.1,3.5-6.7,4.5c-2.6,1-5.5,1.6-8.7,1.6s-6.1-0.5-8.7-1.6c-2.6-1.1-4.9-2.6-6.7-4.5c-1.9-2-3.3-4.3-4.3-7.1  s-1.5-5.9-1.5-9.4c0-3.4,0.5-6.6,1.5-9.3c1-2.8,2.5-5.1,4.3-7.1c1.9-1.9,4.1-3.4,6.7-4.5C689.7,238.8,692.6,238.2,695.8,238.2   M725,282.7v-43.8h6.1c1.1,0,1.8,0.2,2.2,0.6s0.7,1.1,0.8,2l0.6,5.3c1.5-2.7,3.3-4.8,5.4-6.4c2.1-1.6,4.4-2.4,6.9-2.4  c2.1,0,3.9,0.5,5.3,1.5l-1.3,7.9c-0.1,0.5-0.3,0.9-0.5,1.1c-0.3,0.2-0.7,0.3-1.1,0.3c-0.4,0-1-0.1-1.7-0.3c-0.7-0.2-1.7-0.3-2.9-0.3  c-2.1,0-4,0.6-5.5,1.8c-1.5,1.2-2.8,3-3.9,5.3v27.3L725,282.7L725,282.7z M815.5,221v26.5h-28.4V221h-11.3v61.7h11.3v-27h28.4v27  h11.3V221L815.5,221z M856.4,245.8c-3,0-5.4,0.9-7.1,2.6c-1.7,1.7-2.8,4.2-3.3,7.4h19.4c0-1.3-0.2-2.6-0.5-3.9  c-0.4-1.2-0.9-2.3-1.7-3.2c-0.7-0.9-1.7-1.6-2.8-2.2C859.2,246.1,857.9,245.8,856.4,245.8 M856.1,238.2c2.7,0,5.2,0.4,7.5,1.3  s4.2,2.2,5.9,3.9c1.6,1.7,2.9,3.8,3.8,6.2c0.9,2.5,1.4,5.3,1.4,8.4c0,0.8,0,1.5-0.1,2s-0.2,0.9-0.4,1.2c-0.2,0.3-0.4,0.5-0.7,0.6  c-0.3,0.1-0.7,0.2-1.2,0.2h-26.5c0.3,4.5,1.5,7.8,3.6,9.9c2.1,2.1,4.8,3.2,8.2,3.2c1.7,0,3.1-0.2,4.3-0.6c1.2-0.4,2.3-0.8,3.2-1.3  s1.7-0.9,2.4-1.3c0.7-0.4,1.3-0.6,2-0.6c0.4,0,0.8,0.1,1.1,0.3c0.3,0.2,0.6,0.4,0.8,0.7l3,3.8c-1.1,1.4-2.4,2.5-3.8,3.4  c-1.4,0.9-2.9,1.7-4.4,2.2c-1.5,0.6-3.1,0.9-4.7,1.2c-1.6,0.2-3.2,0.4-4.7,0.4c-3,0-5.8-0.5-8.3-1.5c-2.6-1-4.8-2.5-6.7-4.5  s-3.4-4.4-4.5-7.3c-1.1-2.9-1.6-6.3-1.6-10.1c0-3,0.5-5.8,1.4-8.4c0.9-2.6,2.3-4.9,4.1-6.9c1.8-1.9,3.9-3.5,6.5-4.6  C850.1,238.8,852.9,238.2,856.1,238.2 M896.7,276.1c1.1,0,2-0.1,2.9-0.3s1.7-0.5,2.5-0.9c0.8-0.4,1.6-0.9,2.3-1.4  c0.7-0.6,1.5-1.2,2.2-2v-7.3c-3,0-5.5,0.2-7.5,0.6c-2,0.4-3.7,0.9-4.9,1.5c-1.2,0.6-2.1,1.3-2.6,2.1c-0.5,0.8-0.8,1.7-0.8,2.6  c0,1.9,0.5,3.2,1.6,4C893.5,275.7,894.9,276.1,896.7,276.1 M916.7,282.7h-4.6c-1,0-1.8-0.1-2.3-0.5c-0.6-0.3-1-0.9-1.3-1.8l-0.9-3.1  c-1.1,1-2.1,1.9-3.2,2.6c-1,0.8-2.1,1.4-3.2,1.9c-1.1,0.5-2.3,0.9-3.6,1.1c-1.3,0.3-2.7,0.4-4.2,0.4c-1.8,0-3.5-0.2-5-0.7  s-2.9-1.3-3.9-2.2c-1.1-1-2-2.2-2.6-3.7c-0.6-1.5-0.9-3.2-0.9-5.2c0-1.6,0.4-3.3,1.3-4.9c0.9-1.6,2.3-3.1,4.2-4.4  c2-1.3,4.6-2.4,7.9-3.2c3.3-0.9,7.4-1.3,12.3-1.3v-2.6c0-2.9-0.6-5.1-1.8-6.6c-1.2-1.4-3-2.1-5.3-2.1c-1.7,0-3.1,0.2-4.2,0.6  c-1.1,0.4-2.1,0.8-2.9,1.3c-0.8,0.5-1.6,0.9-2.3,1.3c-0.7,0.4-1.5,0.6-2.3,0.6c-0.7,0-1.3-0.2-1.8-0.6c-0.5-0.4-0.9-0.8-1.2-1.4  l-1.9-3.4c4.9-4.6,10.9-6.9,17.9-6.9c2.5,0,4.7,0.4,6.7,1.3c2,0.8,3.6,2,5,3.5s2.4,3.3,3.1,5.4c0.7,2.1,1.1,4.4,1.1,6.8L916.7,282.7  L916.7,282.7z M927.5,219.3h10.3v63.4h-10.3V219.3z M963.5,283.4c-3.7,0-6.6-1.1-8.6-3.2c-2-2.2-3-5.1-3-8.9v-24.4h-4.3  c-0.6,0-1-0.2-1.4-0.6c-0.4-0.4-0.6-0.9-0.6-1.7v-4.2l6.9-1.1l2.2-11.9c0.1-0.6,0.4-1,0.8-1.3c0.4-0.3,0.9-0.5,1.5-0.5h5.4v13.8  h11.3v7.5h-11.3v23.7c0,1.4,0.3,2.4,1,3.2c0.7,0.8,1.6,1.1,2.7,1.1c0.6,0,1.2-0.1,1.6-0.2c0.4-0.2,0.8-0.3,1.1-0.5  c0.3-0.2,0.6-0.3,0.9-0.5c0.2-0.2,0.5-0.2,0.8-0.2c0.3,0,0.6,0.1,0.8,0.2c0.2,0.2,0.4,0.4,0.6,0.7l3.1,5.1c-1.5,1.3-3.2,2.2-5.2,2.9  C967.7,283,965.6,283.4,963.5,283.4 M981.8,282.7v-63.4h10.3v24.4c1.7-1.6,3.5-2.9,5.5-3.9c2-1,4.4-1.5,7.1-1.5  c2.3,0,4.4,0.4,6.2,1.2c1.8,0.8,3.3,1.9,4.5,3.4c1.2,1.5,2.1,3.2,2.8,5.2c0.6,2,0.9,4.3,0.9,6.7v27.9h-10.3v-27.9  c0-2.7-0.6-4.7-1.8-6.2s-3-2.2-5.4-2.2c-1.8,0-3.5,0.4-5,1.2c-1.6,0.8-3,1.9-4.4,3.4v31.7H981.8L981.8,282.7z M1057.7,250.3h7  c2.1,0,4-0.3,5.5-0.8c1.6-0.5,2.9-1.3,3.9-2.2c1-1,1.8-2.1,2.3-3.4c0.5-1.3,0.8-2.7,0.8-4.3c0-3.1-1-5.5-3-7.2  c-2-1.7-5.1-2.5-9.3-2.5h-7.2L1057.7,250.3L1057.7,250.3z M1057.7,258.6v24.1h-11.2V221h18.4c4.1,0,7.7,0.4,10.6,1.3  c2.9,0.9,5.4,2.1,7.2,3.6c1.9,1.6,3.3,3.4,4.1,5.6c0.9,2.2,1.3,4.6,1.3,7.2c0,2.1-0.3,4-0.9,5.9c-0.6,1.8-1.5,3.5-2.6,5  s-2.5,2.8-4.2,4c-1.7,1.1-3.6,2-5.7,2.7c1.4,0.8,2.6,2,3.7,3.5l15.1,22.8h-10c-1,0-1.8-0.2-2.5-0.6c-0.7-0.4-1.3-1-1.7-1.7  l-12.7-19.8c-0.5-0.7-1-1.3-1.6-1.6c-0.6-0.3-1.4-0.5-2.5-0.5h-4.8L1057.7,258.6z M1118.2,245.8c-3,0-5.4,0.9-7.1,2.6  c-1.7,1.7-2.8,4.2-3.3,7.4h19.4c0-1.3-0.2-2.6-0.5-3.9c-0.4-1.2-0.9-2.3-1.7-3.2c-0.7-0.9-1.7-1.6-2.8-2.2  C1121.1,246.1,1119.7,245.8,1118.2,245.8 M1118,238.2c2.7,0,5.2,0.4,7.5,1.3s4.2,2.2,5.9,3.9c1.6,1.7,2.9,3.8,3.8,6.2  c0.9,2.5,1.4,5.3,1.4,8.4c0,0.8,0,1.5-0.1,2c-0.1,0.5-0.2,0.9-0.4,1.2c-0.2,0.3-0.4,0.5-0.7,0.6c-0.3,0.1-0.7,0.2-1.2,0.2h-26.5  c0.3,4.5,1.5,7.8,3.6,9.9c2.1,2.1,4.8,3.2,8.2,3.2c1.7,0,3.1-0.2,4.3-0.6s2.3-0.8,3.2-1.3s1.7-0.9,2.4-1.3c0.7-0.4,1.3-0.6,2-0.6  c0.4,0,0.8,0.1,1.1,0.3c0.3,0.2,0.6,0.4,0.8,0.7l3,3.8c-1.1,1.4-2.4,2.5-3.8,3.4c-1.4,0.9-2.9,1.7-4.4,2.2c-1.6,0.6-3.1,0.9-4.7,1.2  c-1.6,0.2-3.2,0.4-4.7,0.4c-3,0-5.8-0.5-8.3-1.5c-2.6-1-4.8-2.5-6.7-4.5s-3.4-4.4-4.5-7.3c-1.1-2.9-1.6-6.3-1.6-10.1  c0-3,0.5-5.8,1.4-8.4c0.9-2.6,2.3-4.9,4.1-6.9c1.8-1.9,3.9-3.5,6.5-4.6C1111.9,238.8,1114.8,238.2,1118,238.2 M1170.3,247.5  c-0.3,0.5-0.6,0.8-0.9,1c-0.3,0.2-0.7,0.3-1.2,0.3s-1-0.1-1.6-0.4l-2-1c-0.8-0.4-1.6-0.7-2.6-1c-1-0.3-2.1-0.4-3.4-0.4  c-2,0-3.6,0.4-4.8,1.3c-1.2,0.9-1.8,2-1.8,3.5c0,0.9,0.3,1.7,0.9,2.4c0.6,0.6,1.4,1.2,2.4,1.7c1,0.5,2.1,0.9,3.4,1.3  c1.2,0.4,2.5,0.8,3.8,1.3s2.6,1,3.9,1.6c1.3,0.6,2.4,1.3,3.4,2.2s1.8,2,2.4,3.2c0.6,1.3,0.9,2.8,0.9,4.5c0,2.1-0.4,4-1.1,5.8  c-0.8,1.8-1.9,3.3-3.3,4.6c-1.4,1.3-3.2,2.3-5.4,3c-2.1,0.7-4.6,1.1-7.3,1.1c-1.5,0-2.9-0.1-4.3-0.4c-1.4-0.3-2.8-0.6-4.1-1.1  c-1.3-0.5-2.5-1.1-3.6-1.7c-1.1-0.7-2.1-1.4-2.9-2.1l2.4-4c0.3-0.5,0.7-0.9,1.1-1.1c0.4-0.3,0.9-0.4,1.6-0.4c0.7,0,1.2,0.2,1.8,0.6  c0.6,0.4,1.2,0.8,2,1.2c0.7,0.4,1.6,0.8,2.7,1.2c1,0.4,2.3,0.6,3.9,0.6c1.2,0,2.3-0.1,3.2-0.4c0.9-0.3,1.6-0.7,2.2-1.2  c0.6-0.5,1-1.1,1.2-1.7c0.3-0.6,0.4-1.3,0.4-2c0-1-0.3-1.9-0.9-2.5c-0.6-0.7-1.4-1.2-2.4-1.7c-1-0.5-2.1-0.9-3.4-1.3  c-1.3-0.4-2.6-0.8-3.9-1.3s-2.6-1-3.9-1.6s-2.4-1.4-3.4-2.3s-1.8-2.1-2.4-3.5c-0.6-1.4-0.9-3-0.9-4.9c0-1.8,0.4-3.5,1.1-5.1  s1.7-3,3.1-4.2c1.3-1.2,3-2.2,5.1-2.9c2-0.7,4.4-1.1,7-1.1c2.9,0,5.6,0.5,8.1,1.5c2.4,1,4.4,2.3,6.1,3.9L1170.3,247.5L1170.3,247.5z   M1199.3,245.8c-3,0-5.4,0.9-7.1,2.6c-1.7,1.7-2.8,4.2-3.3,7.4h19.4c0-1.3-0.2-2.6-0.5-3.9c-0.4-1.2-0.9-2.3-1.7-3.2  c-0.8-0.9-1.7-1.6-2.8-2.2C1202.2,246.1,1200.9,245.8,1199.3,245.8 M1199.1,238.2c2.7,0,5.2,0.4,7.5,1.3s4.2,2.2,5.9,3.9  c1.7,1.7,2.9,3.8,3.8,6.2c0.9,2.5,1.4,5.3,1.4,8.4c0,0.8,0,1.5-0.1,2s-0.2,0.9-0.4,1.2c-0.2,0.3-0.4,0.5-0.7,0.6  c-0.3,0.1-0.7,0.2-1.2,0.2h-26.5c0.3,4.5,1.5,7.8,3.6,9.9c2.1,2.1,4.8,3.2,8.2,3.2c1.7,0,3.1-0.2,4.3-0.6c1.2-0.4,2.3-0.8,3.2-1.3  c0.9-0.5,1.7-0.9,2.4-1.3c0.7-0.4,1.3-0.6,2-0.6c0.4,0,0.8,0.1,1.1,0.3c0.3,0.2,0.6,0.4,0.8,0.7l3,3.8c-1.1,1.4-2.4,2.5-3.9,3.4  c-1.4,0.9-2.9,1.7-4.4,2.2c-1.5,0.6-3.1,0.9-4.7,1.2c-1.6,0.2-3.2,0.4-4.7,0.4c-3,0-5.8-0.5-8.3-1.5c-2.6-1-4.8-2.5-6.7-4.5  c-1.9-2-3.4-4.4-4.5-7.3c-1.1-2.9-1.6-6.3-1.6-10.1c0-3,0.5-5.8,1.4-8.4c0.9-2.6,2.3-4.9,4.1-6.9c1.8-1.9,3.9-3.5,6.5-4.6  C1193,238.8,1195.9,238.2,1199.1,238.2 M1239.6,276.1c1.1,0,2-0.1,2.9-0.3c0.9-0.2,1.7-0.5,2.5-0.9c0.8-0.4,1.6-0.9,2.3-1.4  c0.7-0.6,1.5-1.2,2.2-2v-7.3c-3,0-5.5,0.2-7.5,0.6c-2,0.4-3.7,0.9-4.9,1.5c-1.2,0.6-2.1,1.3-2.6,2.1c-0.5,0.8-0.8,1.7-0.8,2.6  c0,1.9,0.5,3.2,1.6,4C1236.5,275.7,1237.9,276.1,1239.6,276.1 M1259.7,282.7h-4.6c-1,0-1.7-0.1-2.3-0.5c-0.6-0.3-1-0.9-1.3-1.8  l-0.9-3.1c-1.1,1-2.1,1.9-3.2,2.6c-1,0.8-2.1,1.4-3.2,1.9c-1.1,0.5-2.3,0.9-3.6,1.1c-1.3,0.3-2.7,0.4-4.2,0.4c-1.8,0-3.5-0.2-5-0.7  s-2.8-1.3-3.9-2.2c-1.1-1-2-2.2-2.6-3.7c-0.6-1.5-0.9-3.2-0.9-5.2c0-1.6,0.4-3.3,1.3-4.9c0.9-1.6,2.3-3.1,4.2-4.4  c2-1.3,4.6-2.4,7.9-3.2c3.3-0.9,7.4-1.3,12.3-1.3v-2.6c0-2.9-0.6-5.1-1.8-6.6c-1.2-1.4-3-2.1-5.3-2.1c-1.7,0-3.1,0.2-4.2,0.6  c-1.1,0.4-2.1,0.8-2.9,1.3c-0.8,0.5-1.6,0.9-2.3,1.3c-0.7,0.4-1.5,0.6-2.3,0.6c-0.7,0-1.3-0.2-1.8-0.6c-0.5-0.4-0.9-0.8-1.2-1.4  l-1.9-3.4c4.9-4.6,10.9-6.9,17.8-6.9c2.5,0,4.8,0.4,6.7,1.3c2,0.8,3.6,2,5,3.5c1.4,1.5,2.4,3.3,3.1,5.4c0.7,2.1,1.1,4.4,1.1,6.8  L1259.7,282.7L1259.7,282.7z M1269.9,282.7v-43.8h6.1c1.1,0,1.8,0.2,2.2,0.6s0.7,1.1,0.8,2l0.6,5.3c1.5-2.7,3.3-4.8,5.4-6.4  c2.1-1.6,4.4-2.4,6.9-2.4c2.1,0,3.9,0.5,5.3,1.5l-1.3,7.9c-0.1,0.5-0.3,0.9-0.5,1.1c-0.3,0.2-0.7,0.3-1.1,0.3c-0.4,0-1-0.1-1.7-0.3  c-0.7-0.2-1.7-0.3-2.9-0.3c-2.2,0-4,0.6-5.5,1.8c-1.5,1.2-2.8,3-3.9,5.3v27.3L1269.9,282.7L1269.9,282.7z M1334.2,248.2  c-0.3,0.4-0.6,0.7-0.9,0.9c-0.3,0.2-0.7,0.3-1.3,0.3c-0.5,0-1-0.2-1.5-0.5s-1.1-0.7-1.8-1.1c-0.7-0.4-1.5-0.8-2.5-1.1  c-1-0.3-2.1-0.5-3.6-0.5c-1.8,0-3.4,0.3-4.8,1c-1.4,0.7-2.5,1.6-3.4,2.9c-0.9,1.3-1.6,2.8-2,4.5c-0.4,1.8-0.7,3.8-0.7,6  c0,2.3,0.2,4.4,0.7,6.2s1.2,3.4,2.1,4.6c0.9,1.2,2,2.2,3.4,2.8c1.3,0.6,2.8,1,4.4,1c1.6,0,3-0.2,4-0.6s1.9-0.9,2.6-1.4  c0.7-0.5,1.3-1,1.8-1.4s1.1-0.6,1.7-0.6c0.8,0,1.5,0.3,1.9,1l3,3.8c-1.1,1.4-2.4,2.5-3.7,3.4c-1.3,0.9-2.7,1.7-4.2,2.2  c-1.4,0.6-2.9,0.9-4.5,1.2c-1.5,0.2-3.1,0.3-4.6,0.3c-2.6,0-5.1-0.5-7.5-1.5c-2.3-1-4.4-2.5-6.1-4.4c-1.7-1.9-3.1-4.3-4.1-7.1  c-1-2.8-1.5-6-1.5-9.6c0-3.2,0.5-6.2,1.4-8.9c0.9-2.7,2.2-5.1,4-7.1c1.7-2,3.9-3.6,6.5-4.7c2.6-1.1,5.6-1.7,9-1.7  c3.2,0,6,0.5,8.4,1.6c2.4,1,4.6,2.6,6.5,4.5L1334.2,248.2L1334.2,248.2z M1343.9,282.7v-63.4h10.3v24.4c1.7-1.6,3.5-2.9,5.5-3.9  s4.4-1.5,7.1-1.5c2.3,0,4.4,0.4,6.2,1.2c1.8,0.8,3.3,1.9,4.5,3.4c1.2,1.5,2.1,3.2,2.8,5.2c0.6,2,0.9,4.3,0.9,6.7v27.9h-10.3v-27.9  c0-2.7-0.6-4.7-1.8-6.2c-1.2-1.5-3-2.2-5.4-2.2c-1.8,0-3.5,0.4-5,1.2c-1.6,0.8-3,1.9-4.4,3.4v31.7H1343.9L1343.9,282.7z" fill="#193F70"  /><path d="M578.9,127h13.6v155.6h-13.6V127z M268.5,27.2c-0.9-1-2.1-1.8-3.4-2.4s-2.8-0.8-4.5-0.8H254v24.3h6.6  c1.7,0,3.2-0.3,4.5-0.8c1.3-0.6,2.4-1.4,3.4-2.4c0.9-1,1.6-2.3,2.1-3.8c0.5-1.5,0.7-3.2,0.7-5.1c0-1.9-0.2-3.6-0.7-5.1  C270.1,29.5,269.4,28.2,268.5,27.2 M187.2,27.2c-0.9-1-2.1-1.8-3.4-2.4c-1.3-0.6-2.8-0.8-4.5-0.8h-6.6v24.3h6.6  c1.7,0,3.2-0.3,4.5-0.8c1.3-0.6,2.4-1.4,3.4-2.4c0.9-1,1.6-2.3,2.1-3.8c0.5-1.5,0.7-3.2,0.7-5.1c0-1.9-0.2-3.6-0.7-5.1  C188.8,29.5,188.1,28.2,187.2,27.2 M329.6,32.6c1.1-0.8,1.6-2.1,1.6-3.8c0-1.8-0.5-3.1-1.5-3.9c-1-0.8-2.6-1.1-4.7-1.1h-5.4v10h5  C326.9,33.8,328.5,33.4,329.6,32.6 M330.9,39.5c-0.5-0.4-1.1-0.7-1.9-1c-0.8-0.2-1.7-0.3-2.9-0.3h-6.4v10.1h6.4c1.2,0,2.2-0.1,3-0.4  c0.8-0.3,1.4-0.7,1.9-1.1c0.5-0.5,0.8-1,1-1.7c0.2-0.6,0.3-1.3,0.3-2c0-0.8-0.1-1.4-0.4-2C331.7,40.5,331.4,40,330.9,39.5" fill="#EA5D4E"  /><path d="M367.1,40v13.4h-6.3V40l-12.4-21.2h5.6c0.6,0,1,0.1,1.3,0.4c0.3,0.3,0.6,0.6,0.8,1l6.2,11.5  c0.4,0.7,0.7,1.3,0.9,1.9c0.3,0.6,0.5,1.2,0.7,1.8c0.2-0.6,0.4-1.2,0.7-1.8c0.3-0.6,0.6-1.2,0.9-1.9l6.2-11.5c0.2-0.4,0.4-0.7,0.8-1  c0.4-0.3,0.8-0.5,1.3-0.5h5.6L367.1,40z M337.7,47.3c-0.6,1.2-1.4,2.3-2.4,3.2c-1,0.9-2.3,1.6-3.9,2.1c-1.5,0.5-3.3,0.8-5.2,0.8  h-12.8V18.8h11.7c2.2,0,4.1,0.2,5.7,0.6c1.6,0.4,2.9,1,3.9,1.8c1,0.8,1.7,1.8,2.2,2.9c0.5,1.1,0.7,2.4,0.7,3.8  c0,0.8-0.1,1.6-0.4,2.3c-0.2,0.7-0.6,1.4-1.1,2.1c-0.5,0.6-1.1,1.2-1.9,1.8c-0.8,0.5-1.7,1-2.7,1.3c4.7,1.1,7,3.6,7,7.7  C338.6,44.7,338.3,46,337.7,47.3 M276.6,43.1c-0.8,2.1-2,3.9-3.5,5.5c-1.5,1.5-3.3,2.7-5.4,3.6c-2.1,0.8-4.5,1.3-7,1.3h-12.9V18.8  h12.9c2.6,0,4.9,0.4,7,1.3c2.1,0.9,3.9,2,5.4,3.6c1.5,1.5,2.7,3.3,3.5,5.5c0.8,2.1,1.2,4.4,1.2,7C277.8,38.6,277.4,41,276.6,43.1   M232.8,23.9h-15v9.6h11.9v4.9h-11.9v9.8h15v5.1h-21.4V18.8h21.4C232.8,18.8,232.8,23.9,232.8,23.9z M195.3,43.1  c-0.8,2.1-2,3.9-3.5,5.5c-1.5,1.5-3.3,2.7-5.4,3.6c-2.1,0.8-4.4,1.3-7,1.3h-12.9V18.8h12.9c2.6,0,4.9,0.4,7,1.3  c2.1,0.9,3.9,2,5.4,3.6c1.5,1.5,2.7,3.3,3.5,5.5c0.8,2.1,1.2,4.4,1.2,7C196.5,38.6,196.1,41,195.3,43.1 M149.5,53.4h-3.2  c-0.5,0-0.9-0.1-1.3-0.3c-0.3-0.2-0.7-0.4-1-0.8l-17.7-23c0.1,1.1,0.1,2,0.1,2.9v21.2h-5.5V18.8h4c0.2,0,0.4,0.1,0.5,0.1  c0.1,0.1,0.3,0.2,0.4,0.3l0.5,0.5L144.1,43c-0.1-0.6-0.1-1.1-0.1-1.6V18.9h5.5L149.5,53.4L149.5,53.4z M104.5,39.5  c0,2.1-0.3,4-1,5.7c-0.6,1.7-1.6,3.3-2.8,4.5c-1.2,1.3-2.7,2.3-4.4,3s-3.7,1.1-5.9,1.1s-4.2-0.4-5.9-1.1c-1.7-0.7-3.2-1.7-4.4-3  C79,48.5,78,47,77.4,45.2c-0.6-1.7-1-3.6-1-5.7V18.8h6.3v20.7c0,1.3,0.2,2.5,0.5,3.6c0.4,1.1,0.9,2,1.5,2.7c0.7,0.8,1.5,1.3,2.4,1.8  c1,0.4,2.1,0.6,3.3,0.6c1.2,0,2.3-0.2,3.3-0.6c1-0.4,1.8-1,2.4-1.7c0.7-0.7,1.2-1.7,1.5-2.7c0.4-1.1,0.5-2.3,0.5-3.6V18.8h6.3  L104.5,39.5L104.5,39.5z M62.3,23.9h-15v10.2H60v5.1H47.3v14.1H41V18.8h21.4L62.3,23.9L62.3,23.9z M0,72.6h420.1V0H0V72.6z" fill="#EA5D4E"  /></svg>