<svg viewBox="0 0 788.8 283.5" role="img" aria-labelledby="4child--title" xmlns="http://www.w3.org/2000/svg" xmlns:xlink="http://www.w3.org/1999/xlink"><title id="4child--title">4Child - Four Counties Database of Cerebral Palsy, Vision Loss and Hearing Loss in Children</title><g><path d="M157.2,132.6c-1.5,0-4.1-0.1-7.8-0.3c-3.7-0.2-5.8-1-6.3-2.4c-0.5-1.3-0.4-3,0.3-5.3   c0.7-2.3,1.1-3.9,1.3-4.8L175.5,0H133c-0.2,0-4.5,4-13,11.9s-18.1,17.2-28.8,27.7C78,52.6,67.9,63,61,70.9   c-7.9,9.1-16.9,20.4-27.2,34c-8.1,10.5-15.9,21.2-23.7,32.1c-3.4,4.8-6.7,9.5-10.1,14.2h87.4l-12.1,47.3h50.6   c1.2-8.1,2.3-14.2,3.5-18.3c3.5-12.7,8.4-21,14.6-24.7c3.2-1.8,6.8-3,11-3.5c4.1-0.5,8.4-0.8,13-0.8h2.8l5.3-18.4L157.2,132.6   L157.2,132.6z M111.7,56.7c-0.8,2.9-1.3,5-1.6,6.4l-17.8,69.5H43.9c-2.5,0-4.4-0.8-5.5-2.4c-0.8-1.2,1-5.2,5.5-11.8   c5.4-7.8,14.1-18.9,26.2-33.2C78,75.9,86,67.2,94.3,59c9.2-9.1,14.6-13.3,16.1-12.6c1.7,0.7,2.5,2.1,2.5,4.3   C112.9,51.9,112.5,53.8,111.7,56.7z M340,10.3l-13.3,57.6H308c0.4-1.8,0.8-3.8,1.2-6.1c0.4-2.2,0.5-5.1,0.5-8.5   c0-7.9-1.3-14.1-3.9-18.6c-3.6-6.3-9.6-9.4-18-9.4c-10.9,0-22.4,7.5-34.6,22.4c-12.7,15.6-19,31.5-19,47.6c0,12.2,3,21.9,8.9,28.9   c5.9,7,13.6,10.5,23.1,10.5c7.7,0,17.2-4,28.3-12c3.7-2.7,8.6-6.7,14.6-12.2l18.7,12.5c-2.7,2.7-5.4,5.3-7.9,7.8   c-7.2,6.2-14.9,11.2-23.2,14.7c-12.2,5.4-24.8,8-37.8,8c-18.9,0-34.6-4.9-47.2-14.8c-14-11-21-26.3-21-45.7   c0-26.1,10.9-47.4,32.6-63.8C243.8,13.8,269.1,6,299.2,6c6.9,0,15.6,0.7,26.2,2C329,8.5,333.8,9.2,340,10.3L340,10.3z M475.2,132.7   c-4.6,4.5-8.4,7.8-11.6,9.9c-9.9,6.7-19.5,10.1-28.8,10.1c-11.7,0-18-9.4-18.7-28.1c-0.7-18.8-3.4-28.1-8.2-28.1   c-5.6,0-11.9,4.7-18.9,14.1c-4.9,6.6-10,15.4-15.5,26.5c-2.1,4.8-4.3,9.6-6.4,14.4h-29l32.6-143h34.8l-17.8,75.4   c-0.7,3.3-1.1,5.4-1.1,6.3c0,1.2,0.3,1.8,0.9,1.8c8.2-9,16-16.7,23.6-23.3c8.3-7.3,15.5-11,21.7-11c10.6,0,16.2,11.2,16.7,33.6   c0.6,22.4,2.9,34.4,7.1,35.9c1.1,0.3,2,0.4,2.6,0.4c2.7,0,5.8-1,9.2-3.1c0.6-0.3,1.4-0.8,2.4-1.6L475.2,132.7L475.2,132.7z    M549.9,138.3c-5.7,3.1-10.4,5.5-14,6.9c-11,4.8-20,7.2-26.8,7.2c-7.4,0-14.1-3-19.9-9.1c-5.8-6.1-8.7-13-8.7-20.7   c0-10.3,2.4-23.9,7.3-40.8c1.6-5.5,4-12.9,7.3-22.2h34.1l-12.4,51.1c-0.4,2.1-0.6,4.3-0.6,6.7c0,4,0.8,7.5,2.3,10.5   c1.5,3,3.8,4.5,6.8,4.5c3.1,0,7.2-1.3,12-3.8c1.6-0.8,3.7-2,6.4-3.8L549.9,138.3L549.9,138.3z M541.7,21c0,6.9-2.4,12.6-7.1,17   c-4.7,4.5-10.7,6.7-17.8,6.7c-4.9,0-9.3-1.8-13.2-5.3c-3.9-3.5-5.9-7.8-5.9-12.9c0-5.7,2.5-10.7,7.4-15.1   c4.9-4.4,10.6-6.6,16.8-6.6c5.2,0,9.7,1.5,13.7,4.5C539.7,12.4,541.7,16.2,541.7,21z M635.3,133.6c-5.1,4.3-9.4,7.6-12.9,9.6   c-10.6,6.4-20.7,9.6-30.5,9.6c-9.9,0-17.9-2.5-24.1-7.4c-7.2-5.7-10.7-14-10.7-24.9c0-5.2,0.5-10.2,1.5-15   c0.3-1.2,1.6-6.1,3.9-14.8l23.2-84.1h34.5L596,103.3c-0.6,2.5-1.1,5.6-1.7,9.1c-0.6,3.5-0.9,6.6-0.9,9.3c0,4,0.7,7.3,2.1,9.8   c1.4,2.5,3.9,3.7,7.3,3.7c4.1,0,9.1-2.6,14.8-7.8c1.9-1.6,4.3-4.3,7.3-7.9L635.3,133.6L635.3,133.6z M788.8,137.4   c-5,3.3-9,5.9-12,7.5c-9.4,5.2-17.2,7.7-23.2,7.7c-9.1,0-16-3.5-20.4-10.4c-2.9-7.5-5.7-15.1-8.6-22.8c-9.3,8.5-18.7,16-28.1,22.4   c-10.6,7.2-19.7,10.8-27.2,10.8c-7.7,0-14.5-3.6-20.3-10.6c-5.8-7.1-8.7-15-8.7-23.7c0-12.7,3.9-24.4,11.8-35   c5.6-7.5,12.9-14,21.9-19.7c6.6-4.2,10.5-6.3,11.8-6.3l50.6,11.4l16.1-60.5h35.2l-22.8,94c-0.7,2.7-1.4,5.5-2,8.4   c-0.6,2.9-1,5.4-1,7.5c0,4.6,1.6,8.2,4.9,10.5c1.6,1,3.7,1.6,6.2,1.6c3,0,6.3-0.6,9.9-1.8c1.1-0.3,2.7-1,4.7-2L788.8,137.4   L788.8,137.4z M731.3,78.4c-0.4-0.4-1.6-0.7-3.4-0.7c-9.2,0-19,2.9-29.6,8.7c-13.7,7.5-20.6,17-20.6,28.5c0,4.6,1.2,8,3.5,10.2   c2.4,2.2,5.4,3.3,9.1,3.3c4,0,8.3-1.1,12.8-3.3c4.5-2.2,8.1-4.8,10.8-8c5.2-5.8,9.4-12.3,12.9-19.5c3.4-7.2,5.1-12.6,5.1-16.4   C732,80.2,731.7,79.2,731.3,78.4z" fill="#29338A"  />
	
</g><g><path d="M165.5,215.6c0-1-0.4-1.2-1.8-1.4v-0.5h16.4c0,1.7,0.1,3.4,0.2,5.1h-0.7c-0.4-2.8-1.6-3.2-3.1-3.2h-7.6v8.1   h5c1.6-0.1,2-0.4,2.1-1.9h0.7c-0.1,1.1-0.2,2-0.2,2.8c0,1,0.1,1.9,0.2,3H176c-0.2-1.6-0.6-1.8-2.1-1.9h-5v8.2c0,1,0.4,1.2,1.8,1.4   v0.5c-0.7,0-2.1-0.2-3.4-0.2c-1.3,0-2.7,0.2-3.4,0.2v-0.5c1.3-0.2,1.8-0.5,1.8-1.4C165.5,233.9,165.5,215.6,165.5,215.6   L165.5,215.6z M189.8,219.1c5.2,0,8.1,4.2,8.1,8.5c0,5.4-3.6,8.5-8.4,8.5s-8.1-3.6-8.1-8.6C181.5,222.8,185,219.1,189.8,219.1z    M190.1,234.3c3.3,0,4.9-2.9,4.9-5.9s-1.4-7.2-5.3-7.2c-2.3,0-5.2,1.5-5.2,5.8C184.5,230.5,186.3,234.3,190.1,234.3L190.1,234.3z    M202.2,222.6c0-1.2-0.4-1.5-1.6-1.5v-0.3c1.5-0.4,3.4-1.1,4.6-1.6c-0.1,0.8-0.1,1.9-0.1,3.1v9.5c0,1.1,0.6,2.2,2.4,2.2   c3,0,4.6-2.7,4.6-7v-4.4c0-1.2-0.4-1.5-1.6-1.5v-0.3c1.5-0.4,3.4-1.1,4.6-1.6c-0.1,0.8-0.1,1.9-0.1,3.1v11.4c0,1,0.3,1.5,1.6,1.6   v0.5c-0.7-0.1-1.6-0.2-2.4-0.2c-0.6,0-1.8,0.1-2.4,0.2c0.1-0.7,0.2-1.5,0.2-2.2v-1h0.1c-0.8,2.2-2.6,3.5-5.1,3.5   c-2.2,0-4.9-1.3-4.9-5L202.2,222.6L202.2,222.6z M221.1,222.6c0-1.2-0.4-1.5-1.6-1.5v-0.3c1.5-0.4,3.4-1.1,4.6-1.6   c-0.1,0.8-0.1,1.9-0.1,3.1h0.1c0.9-1.7,2.6-2.8,4.3-2.8c0.7,0,1.1,0.1,1.3,0.3c0.1,0.8,0.1,1.7,0.1,2.9c-0.8-0.5-1.2-0.8-2.2-0.8   c-2.2,0-3.6,2-3.6,4.2v7.9c0,0.8,0.9,1.2,1.9,1.3v0.5c-1.2-0.1-2.1-0.2-3.3-0.2s-2.2,0.1-3.3,0.2v-0.5c1-0.1,1.9-0.5,1.9-1.3   L221.1,222.6L221.1,222.6z M257.3,233.5c-1.8,1.8-4.7,2.7-7.6,2.7c-4.5,0-10.6-3.3-10.6-11.4c0-8.4,7.3-11.6,12.1-11.6   c1.8,0,3.6,0.3,5.2,1.1c0,1.7,0.2,3.4,0.3,5.2h-0.5c-0.7-3.1-3.6-4.1-6-4.1c-4.6,0-8,3.3-8,8.3c0,5.3,3.8,10.2,8.6,10.2   c2.4,0,4.7-1,6.6-2.2L257.3,233.5z M268.1,219.1c5.2,0,8.1,4.2,8.1,8.5c0,5.4-3.6,8.5-8.4,8.5c-4.8,0-8.1-3.6-8.1-8.6   C259.7,222.8,263.3,219.1,268.1,219.1z M268.3,234.3c3.3,0,4.9-2.9,4.9-5.9s-1.4-7.2-5.3-7.2c-2.3,0-5.2,1.5-5.2,5.8   C262.7,230.5,264.5,234.3,268.3,234.3L268.3,234.3z M280.4,222.6c0-1.2-0.4-1.5-1.6-1.5v-0.3c1.5-0.4,3.4-1.1,4.6-1.6   c-0.1,0.8-0.1,1.9-0.1,3.1v9.5c0,1.1,0.6,2.2,2.4,2.2c3,0,4.6-2.7,4.6-7v-4.4c0-1.2-0.4-1.5-1.6-1.5v-0.3c1.5-0.4,3.4-1.1,4.6-1.6   c-0.1,0.8-0.1,1.9-0.1,3.1v11.4c0,1,0.3,1.5,1.6,1.6v0.5c-0.7-0.1-1.6-0.2-2.4-0.2c-0.6,0-1.8,0.1-2.4,0.2c0.1-0.7,0.2-1.5,0.2-2.2   v-1h-0.1c-0.8,2.2-2.5,3.5-5.1,3.5c-2.2,0-4.9-1.3-4.9-5L280.4,222.6z M299.3,222.6c0-1.2-0.4-1.5-1.6-1.5v-0.3   c1.5-0.4,3.4-1.1,4.6-1.6c-0.1,0.8-0.1,1.9-0.1,2.8h0.1c0.9-1.7,2.5-2.8,4.4-2.8c3.3,0,5.5,1.9,5.5,6.1v8.4c0,1,0.3,1.5,1.6,1.6   v0.5c-0.7-0.1-1.6-0.2-2.4-0.2c-0.6,0-1.8,0.1-2.4,0.2c0.1-0.7,0.2-1.5,0.2-2.2v-8.8c0-2.5-1.3-3.4-2.9-3.4c-2.3,0-4.1,2-4.1,4.9   v7.8c0,0.8,0.9,1.2,1.9,1.3v0.5c-1.2-0.1-2.1-0.2-3.3-0.2c-1.2,0-2.2,0.1-3.3,0.2v-0.5c1-0.1,1.9-0.5,1.9-1.3L299.3,222.6   L299.3,222.6z M315.9,219.6h2.2v-2.7c1.3-0.5,2.3-1.3,3-2.3v5h4.7v1.7h-4.7v10.3c0,1.6,0.3,2.9,1.9,2.9c1.1,0,2.1-0.4,3-1l-0.3,2   c-1,0.5-2.1,0.8-3.3,0.8c-3.1,0-4.2-1.3-4.2-4.3v-10.6H316L315.9,219.6L315.9,219.6z M329.6,222.5c0-0.9-0.4-1.1-1.5-1.3   c-0.2,0-0.3-0.1-0.6-0.1v-0.3c1.8-0.4,3.5-1,5.2-1.5c-0.1,1.1-0.2,2.4-0.2,3.5v11.3c0,0.8,0.9,1.2,1.9,1.3v0.5   c-1.2-0.1-2.1-0.2-3.3-0.2c-1.2,0-2.2,0.1-3.3,0.2v-0.5c1-0.1,1.9-0.5,1.9-1.3L329.6,222.5z M331.1,212.8c1.1,0,2,0.9,2,2   c0,1.1-0.9,2-2,2s-2-0.9-2-2C329.1,213.7,330,212.8,331.1,212.8z M340.1,227.1c0,3.9,2.6,6.7,6.6,6.7c1.8,0,2.8-0.3,5.6-2.3   l-0.2,2.2c-1.7,1.5-4.1,2.4-7.1,2.4c-4.8,0-8.1-3.6-8.1-8.6c0-4.8,3.5-8.4,8.3-8.4c5.2,0,7.8,3.1,7.8,7.9L340.1,227.1L340.1,227.1z    M349.7,225.4c0-2.6-1.7-4.4-4.4-4.4c-2.6,0-4.7,1.9-5,4.4H349.7z M356,231.4h0.4c1.2,2.6,3.3,3.1,5.5,3.1c2.6,0,4-1.1,4-2.6   c0-1.8-0.9-2.1-4.9-2.9c-3.2-0.7-5.1-2-5.1-4.5c0-3.1,2.7-5.2,7.1-5.2c1.5,0,3,0.4,4.5,0.7v3.9H367c-0.6-1.9-2.3-2.8-4.2-2.8   c-2.5,0-4.1,1-4.1,2.9c0,1.6,1.5,2,4.5,2.6c3.6,0.7,5.3,1.6,5.3,4.6c0,3.2-2.6,5.1-7.2,5.1c-1.7,0-3.5-0.4-5-1.2L356,231.4   L356,231.4z M387.9,213.7c8.7,0,13.4,4.3,13.4,10.8c0,6.6-5.6,11-12.4,11h-9.1v-0.5c1.3-0.2,1.8-0.5,1.8-1.4v-18   c0-1-0.4-1.2-1.8-1.4v-0.5L387.9,213.7L387.9,213.7z M384.9,233.7h4.8c3.5,0,8.2-3.2,8.2-8.5c0-3.9-1.9-9.5-11.3-9.5h-1.7V233.7z    M405.7,220.2c1.7-0.7,3.4-1,5.2-1c3.8,0,6.5,1.6,6.5,6v8.1c0,1.1,0.1,1.9,1.4,2v0.5c-0.7-0.1-1.4-0.2-2.1-0.2s-1.3,0.1-2,0.2v-3.3   h-0.1c-1.2,2.5-3,3.6-5.7,3.6c-3,0-5.1-1.6-5.1-4.6c0-2.8,1.8-4.4,5.3-4.9l4.9-0.6c0.7-0.1,0.7-0.7,0.7-1.2c0-2.4-1.3-3.6-3.8-3.6   c-2.3,0-4,0.8-5,2.8h-0.4L405.7,220.2z M410.2,228.3c-2.4,0.4-3.4,1.4-3.4,3.1c0,1.9,1.3,2.7,3.1,2.7c3.3,0,4.6-3.5,4.6-5.8v-0.7   L410.2,228.3L410.2,228.3z M420.3,219.6h2.2v-2.7c1.3-0.5,2.3-1.3,3-2.3v5h4.7v1.7h-4.7v10.3c0,1.6,0.3,2.9,1.9,2.9   c1.1,0,2.1-0.4,3-1l-0.3,2c-1,0.5-2.1,0.8-3.3,0.8c-3.1,0-4.2-1.3-4.2-4.3v-10.6h-2.2L420.3,219.6L420.3,219.6z M433.9,220.2   c1.7-0.7,3.4-1,5.2-1c3.7,0,6.5,1.6,6.5,6v8.1c0,1.1,0.1,1.9,1.4,2v0.5c-0.7-0.1-1.4-0.2-2.1-0.2s-1.3,0.1-2,0.2v-3.3h-0.1   c-1.2,2.5-3,3.6-5.8,3.6c-3,0-5.1-1.6-5.1-4.6c0-2.8,1.8-4.4,5.3-4.9l4.9-0.6c0.7-0.1,0.7-0.7,0.7-1.2c0-2.4-1.3-3.6-3.7-3.6   c-2.3,0-4,0.8-5,2.8h-0.4L433.9,220.2z M438.4,228.3c-2.4,0.4-3.4,1.4-3.4,3.1c0,1.9,1.3,2.7,3.1,2.7c3.3,0,4.6-3.5,4.6-5.8v-0.7   L438.4,228.3L438.4,228.3z M450.7,213.6c0-0.8-0.3-1-1.2-1.2c-0.2-0.1-0.5-0.1-0.8-0.2v-0.3c1.6-0.4,3.9-1.1,5.2-1.5   c-0.1,1.6-0.2,3.2-0.2,4.9v6.6h0.1c1.3-1.8,3.5-2.7,5.7-2.7c4,0,7.6,3,7.6,8.2c0,4.4-3.1,8.7-8.2,8.7c-2.6,0-4.8-0.7-6.3-2.3   l-1.7,2h-0.4c0.1-1,0.2-2,0.2-2.9L450.7,213.6L450.7,213.6z M458.9,221.4c-3.4,0-5.3,2.5-5.3,6.4c0,4.4,1.8,6.4,4.8,6.4   c3.6,0,5.4-3.2,5.4-6.4C463.9,223.2,461.6,221.4,458.9,221.4z M471.7,220.2c1.7-0.7,3.4-1,5.2-1c3.8,0,6.5,1.6,6.5,6v8.1   c0,1.1,0.1,1.9,1.4,2v0.5c-0.7-0.1-1.4-0.2-2.1-0.2s-1.3,0.1-2,0.2v-3.3h-0.1c-1.2,2.5-3,3.6-5.7,3.6c-3,0-5.1-1.6-5.1-4.6   c0-2.8,1.8-4.4,5.3-4.9l4.9-0.6c0.7-0.1,0.7-0.7,0.7-1.2c0-2.4-1.3-3.6-3.8-3.6c-2.3,0-4,0.8-5,2.8h-0.4L471.7,220.2z M476.1,228.3   c-2.4,0.4-3.4,1.4-3.4,3.1c0,1.9,1.3,2.7,3.1,2.7c3.3,0,4.6-3.5,4.6-5.8v-0.7L476.1,228.3L476.1,228.3z M486.8,231.4h0.4   c1.2,2.6,3.3,3.1,5.5,3.1c2.6,0,4-1.1,4-2.6c0-1.8-0.9-2.1-4.9-2.9c-3.2-0.7-5.1-2-5.1-4.5c0-3.1,2.7-5.2,7.1-5.2   c1.5,0,3,0.4,4.5,0.7v3.9h-0.5c-0.6-1.9-2.3-2.8-4.2-2.8c-2.5,0-4.1,1-4.1,2.9c0,1.6,1.5,2,4.5,2.6c3.6,0.7,5.3,1.6,5.3,4.6   c0,3.2-2.6,5.1-7.2,5.1c-1.7,0-3.5-0.4-5-1.2L486.8,231.4L486.8,231.4z M504.9,227.1c0,3.9,2.6,6.7,6.6,6.7c1.8,0,2.8-0.3,5.6-2.3   l-0.2,2.2c-1.7,1.5-4.1,2.4-7.1,2.4c-4.8,0-8.1-3.6-8.1-8.6c0-4.8,3.5-8.4,8.3-8.4c5.2,0,7.9,3.1,7.9,7.9L504.9,227.1L504.9,227.1z    M514.5,225.4c0-2.6-1.7-4.4-4.4-4.4c-2.6,0-4.7,1.9-5,4.4H514.5z M537.3,219.1c5.2,0,8.1,4.2,8.1,8.5c0,5.4-3.6,8.5-8.4,8.5   c-4.8,0-8.1-3.6-8.1-8.6C529,222.8,532.5,219.1,537.3,219.1z M537.6,234.3c3.3,0,4.9-2.9,4.9-5.9s-1.4-7.2-5.3-7.2   c-2.3,0-5.2,1.5-5.2,5.8C531.9,230.5,533.7,234.3,537.6,234.3L537.6,234.3z M549.6,221.3h-2v-0.9c1.8-0.2,2-0.5,2-2.8   c0-5.7,4-6.5,5.1-6.5c0.7,0,1.3,0.1,2,0.2l0.1,2.5h-0.4c-0.1-0.6-0.9-0.9-1.5-0.9c-1.9,0-2.5,1.4-2.5,2.6v4.1h3.8v1.7h-3.8V234   c0,0.8,0.9,1.2,1.9,1.3v0.5c-1.2-0.1-2.1-0.2-3.3-0.2c-1.2,0-2.2,0.1-3.3,0.2v-0.5c1-0.1,1.9-0.5,1.9-1.3V221.3L549.6,221.3z    M583.9,233.5c-1.8,1.8-4.7,2.7-7.6,2.7c-4.5,0-10.6-3.3-10.6-11.4c0-8.4,7.3-11.6,12.1-11.6c1.8,0,3.6,0.3,5.2,1.1   c0,1.7,0.2,3.4,0.3,5.2h-0.5c-0.7-3.1-3.6-4.1-6-4.1c-4.6,0-8,3.3-8,8.3c0,5.3,3.8,10.2,8.6,10.2c2.4,0,4.7-1,6.6-2.2L583.9,233.5z    M589.5,227.1c0,3.9,2.6,6.7,6.6,6.7c1.8,0,2.8-0.3,5.6-2.3l-0.2,2.2c-1.7,1.5-4.1,2.4-7.1,2.4c-4.8,0-8.1-3.6-8.1-8.6   c0-4.8,3.5-8.4,8.3-8.4c5.2,0,7.9,3.1,7.9,7.9L589.5,227.1L589.5,227.1z M599.1,225.4c0-2.6-1.7-4.4-4.4-4.4c-2.6,0-4.7,1.9-5,4.4   H599.1z M607,222.6c0-1.2-0.4-1.5-1.6-1.5v-0.3c1.5-0.4,3.4-1.1,4.6-1.6c-0.1,0.8-0.1,1.9-0.1,3.1h0.1c0.9-1.7,2.6-2.8,4.3-2.8   c0.7,0,1.1,0.1,1.3,0.3c0.1,0.8,0.1,1.7,0.1,2.9c-0.8-0.5-1.2-0.8-2.2-0.8c-2.2,0-3.6,2-3.6,4.2v7.9c0,0.8,0.9,1.2,1.9,1.3v0.5   c-1.2-0.1-2.1-0.2-3.3-0.2c-1.2,0-2.2,0.1-3.3,0.2v-0.5c1-0.1,1.9-0.5,1.9-1.3L607,222.6L607,222.6z M619.6,227.1   c0,3.9,2.7,6.7,6.6,6.7c1.8,0,2.8-0.3,5.6-2.3l-0.2,2.2c-1.7,1.5-4.1,2.4-7.1,2.4c-4.8,0-8.1-3.6-8.1-8.6c0-4.8,3.5-8.4,8.3-8.4   c5.2,0,7.9,3.1,7.9,7.9L619.6,227.1L619.6,227.1z M629.2,225.4c0-2.6-1.7-4.4-4.4-4.4c-2.6,0-4.7,1.9-5,4.4H629.2z M637.1,213.6   c0-0.8-0.3-1-1.2-1.2c-0.2-0.1-0.5-0.1-0.8-0.2v-0.3c1.6-0.4,3.9-1.1,5.2-1.5c-0.1,1.6-0.2,3.2-0.2,4.9v6.6h0.1   c1.3-1.8,3.5-2.7,5.6-2.7c4,0,7.6,3,7.6,8.2c0,4.4-3.1,8.7-8.2,8.7c-2.6,0-4.8-0.7-6.3-2.3l-1.7,2h-0.4c0.1-1,0.2-2,0.2-2.9   L637.1,213.6L637.1,213.6z M645.3,221.4c-3.4,0-5.3,2.5-5.3,6.4c0,4.4,1.8,6.4,4.8,6.4c3.6,0,5.4-3.2,5.4-6.4   C650.3,223.2,647.9,221.4,645.3,221.4z M657.9,222.6c0-1.2-0.4-1.5-1.6-1.5v-0.3c1.5-0.4,3.4-1.1,4.6-1.6c-0.1,0.8-0.1,1.9-0.1,3.1   h0.1c0.9-1.7,2.6-2.8,4.3-2.8c0.7,0,1.1,0.1,1.3,0.3c0.1,0.8,0.1,1.7,0.1,2.9c-0.8-0.5-1.2-0.8-2.2-0.8c-2.2,0-3.6,2-3.6,4.2v7.9   c0,0.8,0.9,1.2,1.9,1.3v0.5c-1.2-0.1-2.1-0.2-3.3-0.2c-1.2,0-2.2,0.1-3.3,0.2v-0.5c1-0.1,1.9-0.5,1.9-1.3L657.9,222.6L657.9,222.6z    M669.3,220.2c1.7-0.7,3.4-1,5.2-1c3.8,0,6.5,1.6,6.5,6v8.1c0,1.1,0.1,1.9,1.4,2v0.5c-0.7-0.1-1.4-0.2-2.1-0.2s-1.3,0.1-2,0.2v-3.3   h-0.1c-1.2,2.5-3,3.6-5.8,3.6c-3,0-5.1-1.6-5.1-4.6c0-2.8,1.8-4.4,5.3-4.9l4.9-0.6c0.7-0.1,0.7-0.7,0.7-1.2c0-2.4-1.3-3.6-3.8-3.6   c-2.3,0-4,0.8-5,2.8H669L669.3,220.2L669.3,220.2z M673.8,228.3c-2.4,0.4-3.4,1.4-3.4,3.1c0,1.9,1.3,2.7,3.1,2.7   c3.3,0,4.6-3.5,4.6-5.8v-0.7L673.8,228.3L673.8,228.3z M686.3,213.6c0-0.8-0.3-1-1.2-1.2c-0.2-0.1-0.5-0.1-0.8-0.2v-0.3   c1.6-0.4,3.9-1.1,5.2-1.5c-0.1,1.6-0.2,3.2-0.2,4.9v18.7c0,0.8,0.9,1.2,1.9,1.3v0.5c-1.2-0.1-2.1-0.2-3.3-0.2   c-1.2,0-2.2,0.1-3.3,0.2v-0.5c1-0.1,1.9-0.5,1.9-1.3L686.3,213.6L686.3,213.6z M704.3,215.6c0-1-0.4-1.2-1.8-1.4v-0.5h10.1   c4.5,0,6.8,2.6,6.8,6.4c0,4.2-3.3,6.9-7.9,6.9c-0.8,0-2.7-0.3-3.3-0.9c-0.1-0.1-0.2-0.2-0.2-0.3c0-0.2,0.2-0.3,0.5-0.3h2.1   c3.2,0,5.7-1.8,5.7-5c0-4.4-3.1-5.1-7.7-5.1h-0.9v18.4c0,1,0.4,1.2,1.8,1.4v0.5c-0.7,0-2.1-0.2-3.4-0.2s-2.7,0.2-3.4,0.2v-0.5   c1.3-0.2,1.8-0.5,1.8-1.4L704.3,215.6L704.3,215.6z M722.9,220.2c1.7-0.7,3.4-1,5.2-1c3.7,0,6.5,1.6,6.5,6v8.1c0,1.1,0.1,1.9,1.4,2   v0.5c-0.7-0.1-1.4-0.2-2.1-0.2s-1.3,0.1-2,0.2v-3.3h-0.1c-1.2,2.5-3,3.6-5.7,3.6c-3,0-5.1-1.6-5.1-4.6c0-2.8,1.8-4.4,5.3-4.9   l4.9-0.6c0.7-0.1,0.7-0.7,0.7-1.2c0-2.4-1.3-3.6-3.7-3.6c-2.3,0-4,0.8-5,2.8h-0.4L722.9,220.2L722.9,220.2z M727.3,228.3   c-2.4,0.4-3.4,1.4-3.4,3.1c0,1.9,1.3,2.7,3.1,2.7c3.3,0,4.6-3.5,4.6-5.8v-0.7L727.3,228.3L727.3,228.3z M739.9,213.6   c0-0.8-0.3-1-1.2-1.2c-0.2-0.1-0.5-0.1-0.8-0.2v-0.3c1.6-0.4,3.9-1.1,5.2-1.5c-0.1,1.6-0.2,3.2-0.2,4.9v18.7c0,0.8,0.9,1.2,1.9,1.3   v0.5c-1.2-0.1-2.1-0.2-3.3-0.2c-1.2,0-2.2,0.1-3.3,0.2v-0.5c1-0.1,1.9-0.5,1.9-1.3L739.9,213.6L739.9,213.6z M747.4,231.4h0.4   c1.2,2.6,3.3,3.1,5.5,3.1c2.6,0,4-1.1,4-2.6c0-1.8-0.9-2.1-4.9-2.9c-3.2-0.7-5.1-2-5.1-4.5c0-3.1,2.7-5.2,7.1-5.2   c1.5,0,3,0.4,4.5,0.7v3.9h-0.5c-0.6-1.9-2.3-2.8-4.2-2.8c-2.5,0-4.1,1-4.1,2.9c0,1.6,1.5,2,4.5,2.6c3.6,0.7,5.3,1.6,5.3,4.6   c0,3.2-2.6,5.1-7.2,5.1c-1.7,0-3.5-0.4-5-1.2L747.4,231.4L747.4,231.4z M762.7,220.9c-0.2-0.6-1-0.8-1.6-0.8v-0.5   c1.3,0.1,2.3,0.2,3.5,0.2s2.3-0.1,3.3-0.2v0.5c-0.6,0.1-1.6,0.2-1.6,1c0,0.3,0.1,0.8,1.6,4.5l2.6,6.7h0.1l1.3-3.7   c2.1-6.1,2.3-6.8,2.3-7.2c0-0.9-0.7-1.2-1.4-1.3v-0.5c1,0.1,2,0.2,3,0.2c0.7,0,1.4-0.1,2.1-0.2v0.5c-1.1,0.1-1.4,0.7-1.8,1.7   l-5.2,14c-0.7,1.9-1.3,3-2,4.3c-0.6,1.2-2.2,2.2-3.5,2.2c-0.6,0-1.1-0.1-1.6-0.2l-0.2-3.9h0.4c0.2,0.8,0.5,1.6,1.4,1.6   c1,0.1,1.7-0.4,2.3-1.3c0.7-1.1,1.1-1.8,1.1-2.5c0-0.2-0.6-1.5-1.9-4.8L762.7,220.9L762.7,220.9z M782,231.8v1c0,0.9-0.4,3.3-1,4.5   c-1,2.1-1.8,2.7-2,2.7s-0.4-0.1-0.4-0.3s0.6-1.6,0.6-3.2s-0.3-3.1-0.6-4.7H782z M168.2,254.9c1.4,0,2.8,0.2,4.2,0.2   c1,0,2-0.2,3-0.2v0.5c-1.3,0-1.8,0.3-1.8,1c0,0.4,0.2,1.1,0.4,1.5l5.5,15.3h0.1l4.9-14.8c0.3-0.9,0.4-1.5,0.4-1.9   c0-0.7-0.9-0.9-1.6-1V255c1,0,2.1,0.2,3.1,0.2c0.9,0,1.7-0.2,2.6-0.2v0.5c-1.1,0.1-1.7,0.8-2.1,1.9l-6.7,19.9h-2.3l-7.6-20.2   c-0.3-0.8-0.6-1.4-2.1-1.5L168.2,254.9L168.2,254.9z M192.2,263.8c0-0.9-0.4-1.1-1.5-1.3c-0.2,0-0.3-0.1-0.6-0.1v-0.3   c1.8-0.4,3.5-1,5.2-1.5c-0.1,1.1-0.2,2.4-0.2,3.5v11.3c0,0.8,0.9,1.2,1.9,1.3v0.5c-1.2-0.1-2.1-0.2-3.3-0.2s-2.2,0.1-3.3,0.2v-0.5   c1-0.1,1.9-0.5,1.9-1.3L192.2,263.8L192.2,263.8z M193.8,254.2c1.1,0,2,0.9,2,2s-0.9,2-2,2c-1.1,0-2-0.9-2-2   S192.7,254.2,193.8,254.2z M199.8,272.7h0.4c1.2,2.6,3.3,3.1,5.5,3.1c2.6,0,4-1.1,4-2.6c0-1.8-0.9-2.1-4.9-2.9   c-3.2-0.6-5.1-2-5.1-4.5c0-3.1,2.7-5.2,7.1-5.2c1.5,0,3,0.4,4.5,0.7v3.9h-0.5c-0.6-1.9-2.3-2.8-4.2-2.8c-2.5,0-4.1,1-4.1,2.9   c0,1.6,1.5,2,4.5,2.6c3.6,0.7,5.3,1.6,5.3,4.6c0,3.2-2.7,5.1-7.2,5.1c-1.7,0-3.5-0.4-5-1.2L199.8,272.7z M216.7,263.8   c0-0.9-0.4-1.1-1.5-1.3c-0.2,0-0.3-0.1-0.5-0.1v-0.3c1.8-0.4,3.5-1,5.2-1.5c-0.1,1.1-0.2,2.4-0.2,3.5v11.3c0,0.8,0.9,1.2,1.9,1.3   v0.5c-1.2-0.1-2.1-0.2-3.3-0.2s-2.2,0.1-3.3,0.2v-0.5c1-0.1,1.9-0.5,1.9-1.3L216.7,263.8L216.7,263.8z M218.2,254.2   c1.1,0,2,0.9,2,2s-0.9,2-2,2c-1.1,0-2-0.9-2-2S217.1,254.2,218.2,254.2z M232.5,260.5c5.2,0,8.1,4.2,8.1,8.5c0,5.4-3.6,8.5-8.4,8.5   s-8.1-3.6-8.1-8.6C224.2,264.1,227.7,260.5,232.5,260.5z M232.7,275.5c3.3,0,4.9-2.9,4.9-5.9c0-3-1.4-7.2-5.3-7.2   c-2.3,0-5.2,1.5-5.2,5.8C227.1,271.8,228.9,275.5,232.7,275.5L232.7,275.5z M244.8,263.9c0-1.2-0.4-1.5-1.6-1.5v-0.3   c1.5-0.4,3.4-1.1,4.6-1.5c-0.1,0.8-0.1,1.9-0.1,2.8h0.1c0.9-1.7,2.5-2.8,4.4-2.8c3.3,0,5.5,1.9,5.5,6.1v8.4c0,1,0.3,1.5,1.6,1.6   v0.5c-0.7-0.1-1.6-0.2-2.4-0.2c-0.6,0-1.8,0.1-2.4,0.2c0.1-0.7,0.2-1.5,0.2-2.2v-8.8c0-2.5-1.3-3.4-2.9-3.4c-2.3,0-4.1,2-4.1,4.9   v7.7c0,0.8,0.9,1.2,1.9,1.3v0.5c-1.2-0.1-2.1-0.2-3.3-0.2s-2.2,0.1-3.3,0.2v-0.5c1-0.1,1.9-0.5,1.9-1.3L244.8,263.9L244.8,263.9z    M272.7,256.8c0-1-0.4-1.2-1.8-1.4v-0.5c0.7,0,2.1,0.2,3.4,0.2s2.7-0.2,3.9-0.2v0.5c-1.8,0.1-2.2,0.7-2.2,1.4V275h6.5   c3.2,0,4.1-0.9,4.4-4.1h0.6c-0.2,2-0.2,4-0.3,6h-16.4v-0.5c1.3-0.2,1.8-0.5,1.8-1.4L272.7,256.8z M297.7,260.5   c5.2,0,8.1,4.2,8.1,8.5c0,5.4-3.6,8.5-8.4,8.5c-4.8,0-8.1-3.6-8.1-8.6C289.3,264.1,292.8,260.5,297.7,260.5z M297.9,275.5   c3.3,0,4.9-2.9,4.9-5.9c0-3-1.4-7.2-5.3-7.2c-2.3,0-5.2,1.5-5.2,5.8C292.3,271.8,294.1,275.5,297.9,275.5L297.9,275.5z    M308.4,272.7h0.4c1.2,2.6,3.3,3.1,5.5,3.1c2.6,0,4-1.1,4-2.6c0-1.8-0.9-2.1-4.9-2.9c-3.2-0.6-5.1-2-5.1-4.5c0-3.1,2.6-5.2,7.1-5.2   c1.5,0,3,0.4,4.5,0.7v3.9h-0.5c-0.6-1.9-2.3-2.8-4.2-2.8c-2.5,0-4.1,1-4.1,2.9c0,1.6,1.5,2,4.5,2.6c3.6,0.7,5.3,1.6,5.3,4.6   c0,3.2-2.7,5.1-7.2,5.1c-1.7,0-3.5-0.4-5-1.2L308.4,272.7L308.4,272.7z M323.5,272.7h0.4c1.2,2.6,3.3,3.1,5.5,3.1   c2.6,0,4-1.1,4-2.6c0-1.8-0.9-2.1-4.9-2.9c-3.2-0.6-5.1-2-5.1-4.5c0-3.1,2.7-5.2,7.1-5.2c1.5,0,3,0.4,4.5,0.7v3.9h-0.5   c-0.6-1.9-2.3-2.8-4.2-2.8c-2.5,0-4.1,1-4.1,2.9c0,1.6,1.5,2,4.5,2.6c3.6,0.7,5.3,1.6,5.3,4.6c0,3.2-2.7,5.1-7.2,5.1   c-1.7,0-3.5-0.4-5-1.2L323.5,272.7L323.5,272.7z M348.7,261.5c1.7-0.7,3.4-1,5.2-1c3.8,0,6.5,1.6,6.5,6v8.1c0,1.1,0.1,1.9,1.4,2   v0.5c-0.7-0.1-1.4-0.2-2.1-0.2c-0.7,0-1.3,0.1-2,0.2v-3.3h-0.1c-1.2,2.5-3,3.6-5.7,3.6c-3,0-5.1-1.5-5.1-4.6c0-2.8,1.8-4.4,5.3-4.9   l4.9-0.6c0.7-0.1,0.7-0.7,0.7-1.2c0-2.4-1.3-3.6-3.8-3.6c-2.3,0-4,0.8-5,2.8h-0.4L348.7,261.5z M353.1,269.6   c-2.4,0.4-3.4,1.4-3.4,3.1c0,1.9,1.3,2.7,3.1,2.7c3.3,0,4.6-3.5,4.6-5.8v-0.7L353.1,269.6L353.1,269.6z M365.5,263.9   c0-1.2-0.4-1.5-1.6-1.5v-0.3c1.5-0.4,3.4-1.1,4.6-1.5c-0.1,0.8-0.1,1.9-0.1,2.8h0.1c0.9-1.7,2.5-2.8,4.4-2.8c3.3,0,5.5,1.9,5.5,6.1   v8.4c0,1,0.3,1.5,1.6,1.6v0.5c-0.7-0.1-1.6-0.2-2.4-0.2c-0.6,0-1.8,0.1-2.4,0.2c0.1-0.7,0.2-1.5,0.2-2.2v-8.8   c0-2.5-1.3-3.4-2.9-3.4c-2.3,0-4.1,2-4.1,4.9v7.7c0,0.8,0.9,1.2,1.9,1.3v0.5c-1.2-0.1-2.1-0.2-3.3-0.2c-1.2,0-2.2,0.1-3.3,0.2v-0.5   c1-0.1,1.9-0.5,1.9-1.3L365.5,263.9L365.5,263.9z M401,277.1c-0.8-0.1-1.6-0.2-2.3-0.2s-1.5,0.1-2.2,0.2v-2.7h-0.1   c-1.5,2.4-3.5,3.1-6.1,3.1c-2.6,0-7.4-2.1-7.4-8.1c0-6.1,4.9-8.8,8.4-8.8c2.1,0,3.8,0.9,5.1,2.7h0.1v-8.2c0-0.8-0.3-1-1.2-1.2   c-0.2-0.1-0.5-0.1-0.8-0.2v-0.3c1.6-0.4,3.9-1.1,5.2-1.5c-0.1,1.6-0.2,3.2-0.2,4.9v18.9c0,0.6,0.2,1,1.6,1.1L401,277.1z    M386.1,269.1c0,3.4,2.3,6.4,5.5,6.4c2.8,0,4.9-2,4.9-6.4c0-4.9-2.6-6.5-5.2-6.5C389.1,262.7,386.1,264,386.1,269.1L386.1,269.1z    M412.4,276.6c1.3-0.2,1.8-0.5,1.8-1.4v-18.4c0-1-0.4-1.2-1.8-1.4v-0.5c0.7,0,2.1,0.2,3.4,0.2c1.3,0,2.7-0.2,3.4-0.2v0.5   c-1.3,0.2-1.8,0.5-1.8,1.4v7.6h10.9v-7.6c0-1-0.4-1.2-1.8-1.4v-0.5c0.7,0,2.1,0.2,3.4,0.2s2.7-0.2,3.4-0.2v0.5   c-1.3,0.2-1.8,0.5-1.8,1.4v18.4c0,1,0.4,1.2,1.8,1.4v0.5c-0.7,0-2.1-0.2-3.4-0.2s-2.7,0.2-3.4,0.2v-0.5c1.3-0.2,1.8-0.5,1.8-1.4   v-8.7h-10.9v8.7c0,1,0.4,1.2,1.8,1.4v0.5c-0.7,0-2.1-0.2-3.4-0.2c-1.3,0-2.7,0.2-3.4,0.2V276.6z M439.7,268.4   c0,3.9,2.7,6.7,6.6,6.7c1.8,0,2.8-0.3,5.6-2.3l-0.2,2.2c-1.6,1.5-4.1,2.4-7.1,2.4c-4.8,0-8.1-3.6-8.1-8.6c0-4.8,3.5-8.4,8.3-8.4   c5.2,0,7.9,3.1,7.9,7.9L439.7,268.4L439.7,268.4z M449.3,266.7c0-2.7-1.7-4.4-4.4-4.4c-2.6,0-4.7,1.9-5,4.4H449.3z M457.4,261.5   c1.7-0.7,3.4-1,5.2-1c3.8,0,6.5,1.6,6.5,6v8.1c0,1.1,0.1,1.9,1.4,2v0.5c-0.7-0.1-1.4-0.2-2.1-0.2s-1.3,0.1-2,0.2v-3.3h-0.1   c-1.2,2.5-3,3.6-5.8,3.6c-3,0-5.1-1.5-5.1-4.6c0-2.8,1.8-4.4,5.3-4.9l4.9-0.6c0.7-0.1,0.7-0.7,0.7-1.2c0-2.4-1.3-3.6-3.8-3.6   c-2.3,0-4,0.8-5,2.8h-0.3L457.4,261.5L457.4,261.5z M461.8,269.6c-2.4,0.4-3.4,1.4-3.4,3.1c0,1.9,1.3,2.7,3.1,2.7   c3.3,0,4.6-3.5,4.6-5.8v-0.7L461.8,269.6L461.8,269.6z M474.2,263.9c0-1.2-0.4-1.5-1.6-1.5v-0.3c1.5-0.4,3.4-1.1,4.6-1.5   c-0.1,0.8-0.1,1.9-0.1,3.1h0.1c0.9-1.7,2.6-2.8,4.3-2.8c0.7,0,1.1,0.1,1.3,0.3c0.1,0.8,0.1,1.7,0.1,2.9c-0.8-0.5-1.2-0.8-2.2-0.8   c-2.2,0-3.6,2-3.6,4.2v7.9c0,0.8,0.9,1.2,1.9,1.3v0.5c-1.2-0.1-2.1-0.2-3.3-0.2c-1.2,0-2.2,0.1-3.3,0.2v-0.5c1-0.1,1.9-0.5,1.9-1.3   L474.2,263.9L474.2,263.9z M485.7,263.8c0-0.9-0.4-1.1-1.5-1.3c-0.2,0-0.3-0.1-0.6-0.1v-0.3c1.8-0.4,3.5-1,5.2-1.5   c-0.1,1.1-0.2,2.4-0.2,3.5v11.3c0,0.8,0.9,1.2,1.9,1.3v0.5c-1.2-0.1-2.1-0.2-3.3-0.2c-1.2,0-2.2,0.1-3.3,0.2v-0.5   c1-0.1,1.9-0.5,1.9-1.3L485.7,263.8z M487.2,254.2c1.1,0,2,0.9,2,2s-0.9,2-2,2c-1.1,0-2-0.9-2-2S486.1,254.2,487.2,254.2z    M494.8,263.9c0-1.2-0.4-1.5-1.6-1.5v-0.3c1.5-0.4,3.4-1.1,4.6-1.5c-0.1,0.8-0.1,1.9-0.1,2.8h0.1c0.9-1.7,2.5-2.8,4.4-2.8   c3.3,0,5.5,1.9,5.5,6.1v8.4c0,1,0.3,1.5,1.6,1.6v0.5c-0.6-0.1-1.6-0.2-2.4-0.2c-0.6,0-1.8,0.1-2.4,0.2c0.1-0.7,0.2-1.5,0.2-2.2   v-8.8c0-2.5-1.3-3.4-2.9-3.4c-2.3,0-4.1,2-4.1,4.9v7.7c0,0.8,0.9,1.2,1.9,1.3v0.5c-1.2-0.1-2.1-0.2-3.3-0.2c-1.2,0-2.2,0.1-3.3,0.2   v-0.5c1-0.1,1.9-0.5,1.9-1.3L494.8,263.9L494.8,263.9z M514.6,270.2c-1-1.1-1.6-2.5-1.6-4c0-2.6,1.9-5.7,6.4-5.7   c1,0,2.1,0.1,3.1,0.2c1,0.1,2.1,0.3,3.1,0.3c0.6,0,1.2-0.1,1.9-0.2l-0.4,1.7c-0.4,0.1-0.9,0.2-1.4,0.2c-0.6,0-1.2-0.1-1.7-0.2   l-0.1,0.1c1,0.9,1.6,2.3,1.6,3.7c0,2.8-1.9,5.5-6.7,5.5c-1.1,0-2.2-0.3-3.2-0.9c-1.4,1-1.7,1.3-1.7,2c0,0.6,0.7,1.3,2,1.3h5.7   c4.4,0,5.6,2,5.6,4c0,3-3.3,5.3-7.6,5.3c-2.4,0-6.1-0.5-6.1-3.6c0-0.6,0.1-0.9,0.4-1.6l2.2-1c-0.2,0.5-0.3,0.9-0.3,1.5   c0,2,1.9,3.2,3.8,3.2s4.8-0.9,4.8-3.2c0-1.6-1-1.8-2.5-1.8h-5.3c-2.9,0-5.1-0.8-5.2-3.4c0-0.5,0-1.1,0.2-1.5L514.6,270.2z    M519.4,270.1c2.1,0,2.9-1.7,2.9-3.4c0-2-1-4.4-3.5-4.4c-1.8,0-2.9,1.4-2.9,3.1C516,267.4,517,270.1,519.4,270.1L519.4,270.1z    M539.6,256.8c0-1-0.4-1.2-1.8-1.4v-0.5c0.7,0,2.1,0.2,3.4,0.2s2.7-0.2,3.9-0.2v0.5c-1.8,0.1-2.2,0.7-2.2,1.4V275h6.5   c3.2,0,4.1-0.9,4.4-4.1h0.6c-0.2,2-0.2,4-0.3,6h-16.4v-0.5c1.3-0.2,1.8-0.5,1.8-1.4L539.6,256.8z M564.6,260.5   c5.2,0,8.1,4.2,8.1,8.5c0,5.4-3.6,8.5-8.4,8.5c-4.8,0-8.1-3.6-8.1-8.6C556.3,264.1,559.8,260.5,564.6,260.5z M564.9,275.5   c3.3,0,4.9-2.9,4.9-5.9c0-3-1.4-7.2-5.3-7.2c-2.3,0-5.2,1.5-5.2,5.8C559.3,271.8,561,275.5,564.9,275.5L564.9,275.5z M575.3,272.7   h0.4c1.2,2.6,3.3,3.1,5.5,3.1c2.6,0,4-1.1,4-2.6c0-1.8-0.9-2.1-4.9-2.9c-3.2-0.6-5.1-2-5.1-4.5c0-3.1,2.7-5.2,7.1-5.2   c1.5,0,3,0.4,4.5,0.7v3.9h-0.5c-0.6-1.9-2.3-2.8-4.2-2.8c-2.5,0-4.1,1-4.1,2.9c0,1.6,1.5,2,4.5,2.6c3.6,0.7,5.3,1.6,5.3,4.6   c0,3.2-2.7,5.1-7.2,5.1c-1.7,0-3.5-0.4-5-1.2L575.3,272.7z M590.4,272.7h0.4c1.2,2.6,3.3,3.1,5.5,3.1c2.6,0,4-1.1,4-2.6   c0-1.8-0.9-2.1-4.9-2.9c-3.2-0.6-5.1-2-5.1-4.5c0-3.1,2.6-5.2,7.1-5.2c1.5,0,3,0.4,4.5,0.7v3.9h-0.5c-0.6-1.9-2.3-2.8-4.2-2.8   c-2.5,0-4.1,1-4.1,2.9c0,1.6,1.5,2,4.5,2.6c3.6,0.7,5.3,1.6,5.3,4.6c0,3.2-2.6,5.1-7.2,5.1c-1.7,0-3.5-0.4-5-1.2L590.4,272.7z    M615.7,263.8c0-0.9-0.4-1.1-1.5-1.3c-0.2,0-0.3-0.1-0.6-0.1v-0.3c1.8-0.4,3.5-1,5.2-1.5c-0.1,1.1-0.2,2.4-0.2,3.5v11.3   c0,0.8,0.9,1.2,1.9,1.3v0.5c-1.2-0.1-2.1-0.2-3.3-0.2c-1.2,0-2.2,0.1-3.3,0.2v-0.5c1-0.1,1.9-0.5,1.9-1.3L615.7,263.8L615.7,263.8z    M617.3,254.2c1.1,0,2,0.9,2,2s-0.9,2-2,2c-1.1,0-2-0.9-2-2S616.1,254.2,617.3,254.2z M624.9,263.9c0-1.2-0.4-1.5-1.6-1.5v-0.3   c1.5-0.4,3.4-1.1,4.6-1.5c-0.1,0.8-0.1,1.9-0.1,2.8h0.1c0.9-1.7,2.5-2.8,4.4-2.8c3.3,0,5.5,1.9,5.5,6.1v8.4c0,1,0.3,1.5,1.6,1.6   v0.5c-0.6-0.1-1.6-0.2-2.4-0.2c-0.6,0-1.8,0.1-2.4,0.2c0.1-0.7,0.2-1.5,0.2-2.2v-8.8c0-2.5-1.3-3.4-2.9-3.4c-2.3,0-4.1,2-4.1,4.9   v7.7c0,0.8,0.9,1.2,1.9,1.3v0.5c-1.2-0.1-2.1-0.2-3.3-0.2c-1.2,0-2.2,0.1-3.3,0.2v-0.5c1-0.1,1.9-0.5,1.9-1.3L624.9,263.9   L624.9,263.9z M668.9,274.8c-1.8,1.8-4.7,2.6-7.6,2.6c-4.5,0-10.6-3.3-10.6-11.4c0-8.4,7.3-11.6,12.1-11.6c1.8,0,3.7,0.3,5.2,1.1   c0,1.7,0.2,3.4,0.3,5.2h-0.5c-0.7-3.1-3.6-4.1-6-4.1c-4.6,0-8,3.3-8,8.3c0,5.3,3.8,10.2,8.6,10.2c2.4,0,4.7-1,6.6-2.2L668.9,274.8z    M673.1,255c0-0.8-0.3-1-1.2-1.2c-0.2-0.1-0.5-0.1-0.8-0.2v-0.3c1.6-0.4,3.9-1.1,5.2-1.5c-0.1,1.6-0.2,3.2-0.2,4.9v6.6h0.1   c0.9-1.7,2.5-2.8,4.4-2.8c3.3,0,5.5,1.9,5.5,6.1v8.4c0,1,0.3,1.5,1.6,1.6v0.5c-0.7-0.1-1.6-0.2-2.4-0.2c-0.6,0-1.8,0.1-2.4,0.2   c0.1-0.7,0.2-1.5,0.2-2.2v-8.8c0-2.5-1.3-3.4-2.9-3.4c-2.3,0-4.1,2-4.1,4.9v7.7c0,0.8,0.9,1.2,1.9,1.3v0.5   c-1.2-0.1-2.1-0.2-3.3-0.2c-1.2,0-2.2,0.1-3.3,0.2v-0.5c1-0.1,1.9-0.5,1.9-1.3L673.1,255L673.1,255z M692.2,263.8   c0-0.9-0.4-1.1-1.5-1.3c-0.2,0-0.3-0.1-0.5-0.1v-0.3c1.8-0.4,3.5-1,5.2-1.5c-0.1,1.1-0.2,2.4-0.2,3.5v11.3c0,0.8,0.9,1.2,1.9,1.3   v0.5c-1.2-0.1-2.1-0.2-3.3-0.2c-1.2,0-2.2,0.1-3.3,0.2v-0.5c1-0.1,1.9-0.5,1.9-1.3L692.2,263.8L692.2,263.8z M693.8,254.2   c1.1,0,2,0.9,2,2s-0.9,2-2,2s-2-0.9-2-2S692.7,254.2,693.8,254.2z M701.6,255c0-0.8-0.3-1-1.2-1.2c-0.2-0.1-0.5-0.1-0.8-0.2v-0.3   c1.6-0.4,3.9-1.1,5.2-1.5c-0.1,1.6-0.2,3.2-0.2,4.9v18.7c0,0.8,0.9,1.2,1.9,1.3v0.5c-1.2-0.1-2.1-0.2-3.3-0.2   c-1.2,0-2.2,0.1-3.3,0.2v-0.5c1-0.1,1.9-0.5,1.9-1.3L701.6,255L701.6,255z M727.3,277.1c-0.8-0.1-1.5-0.2-2.3-0.2s-1.6,0.1-2.2,0.2   v-2.7h-0.1c-1.5,2.4-3.5,3.1-6.1,3.1s-7.4-2.1-7.4-8.1c0-6.1,4.9-8.8,8.4-8.8c2.1,0,3.8,0.9,5.1,2.7h0.1v-8.2c0-0.8-0.3-1-1.2-1.2   c-0.2-0.1-0.5-0.1-0.8-0.2v-0.3c1.6-0.4,3.9-1.1,5.2-1.5c-0.1,1.6-0.2,3.2-0.2,4.9v18.9c0,0.6,0.2,1,1.6,1.1L727.3,277.1   L727.3,277.1z M712.4,269.1c0,3.4,2.3,6.4,5.5,6.4c2.8,0,4.9-2,4.9-6.4c0-4.9-2.6-6.5-5.2-6.5C715.3,262.7,712.4,264,712.4,269.1z    M731.5,263.9c0-1.2-0.4-1.5-1.6-1.5v-0.3c1.5-0.4,3.4-1.1,4.6-1.5c-0.1,0.8-0.1,1.9-0.1,3.1h0.1c0.9-1.7,2.6-2.8,4.3-2.8   c0.7,0,1.1,0.1,1.3,0.3c0.1,0.8,0.1,1.7,0.1,2.9c-0.8-0.5-1.2-0.8-2.2-0.8c-2.2,0-3.6,2-3.6,4.2v7.9c0,0.8,0.9,1.2,1.9,1.3v0.5   c-1.2-0.1-2.1-0.2-3.3-0.2c-1.2,0-2.2,0.1-3.3,0.2v-0.5c1-0.1,1.9-0.5,1.9-1.3L731.5,263.9L731.5,263.9z M744.2,268.4   c0,3.9,2.7,6.7,6.6,6.7c1.8,0,2.8-0.3,5.6-2.3l-0.2,2.2c-1.7,1.5-4.1,2.4-7.1,2.4c-4.8,0-8.1-3.6-8.1-8.6c0-4.8,3.5-8.4,8.3-8.4   c5.2,0,7.9,3.1,7.9,7.9L744.2,268.4L744.2,268.4z M753.8,266.7c0-2.7-1.7-4.4-4.4-4.4c-2.6,0-4.7,1.9-5,4.4H753.8z M761.7,263.9   c0-1.2-0.4-1.5-1.6-1.5v-0.3c1.5-0.4,3.4-1.1,4.6-1.5c-0.1,0.8-0.1,1.9-0.1,2.8h0.1c0.9-1.7,2.5-2.8,4.4-2.8c3.3,0,5.5,1.9,5.5,6.1   v8.4c0,1,0.3,1.5,1.6,1.6v0.5c-0.7-0.1-1.6-0.2-2.4-0.2c-0.6,0-1.8,0.1-2.4,0.2c0.1-0.7,0.2-1.5,0.2-2.2v-8.8   c0-2.5-1.3-3.4-2.9-3.4c-2.3,0-4.1,2-4.1,4.9v7.7c0,0.8,0.9,1.2,1.9,1.3v0.5c-1.2-0.1-2.1-0.2-3.3-0.2c-1.2,0-2.2,0.1-3.3,0.2v-0.5   c1-0.1,1.9-0.5,1.9-1.3L761.7,263.9L761.7,263.9z" fill="#B20933"  />
	
</g></svg>