<svg viewBox="0 0 933.9 283.7" role="img" aria-labelledby="aimes--title" xmlns="http://www.w3.org/2000/svg" xmlns:xlink="http://www.w3.org/1999/xlink"><title id="aimes--title">AIMES - Assessing the Impact of Early Surgical Care</title><g><path d="M18.3,267.2H4.9l-2.6,7   c-0.2,0.4-0.5,0.7-1,0.7c-0.1,0-0.3,0-0.4,0c-0.5-0.2-0.8-0.8-0.6-1.3l10.2-27.3c0.2-0.4,0.6-0.6,1-0.6c0.5,0,0.9,0.3,1,0.6   l10.2,27.3c0.2,0.5,0,1.1-0.5,1.3c-0.2,0-0.3,0-0.4,0c-0.4,0-0.8-0.3-1-0.7L18.3,267.2z M5.6,265.1h11.9l-5.9-15.8   C11.6,249.3,5.6,265.1,5.6,265.1z M27.4,270.5c0.3-0.4,1-0.5,1.4-0.1c1.4,1.1,3.7,2.4,6.3,2.4c1.6,0,3-0.5,3.9-1.3   c1-0.7,1.6-1.6,1.6-2.5c0-1-0.4-1.6-1.5-2.5c-0.9-0.7-2.4-1.2-4.4-1.5l-0.1,0c-1.9-0.3-3.5-0.8-4.7-1.6c-1.3-0.8-2.2-2.1-2.2-3.7   c0-1.6,0.9-3.1,2.2-4c1.2-0.8,2.9-1.4,5.1-1.4c2.7,0,4.5,1.2,6.1,2.2c0.5,0.3,0.6,1,0.3,1.4c-0.3,0.5-0.9,0.6-1.4,0.3   c-1.5-1-3-2.1-5.1-2.1c-1.7,0-3,0.5-3.9,1.2c-0.8,0.7-1.3,1.5-1.3,2.4c0,0.8,0.4,1.4,1.2,2.1c0.9,0.6,2.3,1.1,4.2,1.4h0.1   c2,0.3,3.6,0.9,5,1.7c1.3,0.9,2.3,2.5,2.3,4.2c0,1.7-1,3.1-2.4,4.2c-1.4,1.1-3.1,1.6-5.1,1.6c-3.3,0-5.9-1.6-7.6-2.9   C27.1,271.5,27.1,271,27.4,270.5z M47.6,270.5c0.3-0.4,1-0.5,1.4-0.1c1.4,1.1,3.7,2.4,6.3,2.4c1.6,0,3-0.5,3.9-1.3   c1-0.7,1.6-1.6,1.6-2.5c0-1-0.4-1.6-1.5-2.5c-0.9-0.7-2.4-1.2-4.4-1.5l-0.1,0c-1.9-0.3-3.5-0.8-4.7-1.6c-1.3-0.8-2.2-2.1-2.2-3.7   c0-1.6,0.9-3.1,2.2-4c1.2-0.8,2.9-1.4,5.1-1.4c2.7,0,4.5,1.2,6.1,2.2c0.5,0.3,0.6,1,0.3,1.4c-0.3,0.5-0.9,0.6-1.4,0.3   c-1.5-1-3-2.1-5.1-2.1c-1.7,0-3,0.5-3.9,1.2c-0.8,0.7-1.3,1.5-1.3,2.4c0,0.8,0.4,1.4,1.2,2.1c0.9,0.6,2.3,1.1,4.2,1.4h0.1   c2,0.3,3.6,0.9,5,1.7c1.3,0.9,2.3,2.5,2.3,4.2c0,1.7-1,3.1-2.4,4.2c-1.4,1.1-3.1,1.6-5.1,1.6c-3.3,0-5.9-1.6-7.6-2.9   C47.3,271.5,47.3,271,47.6,270.5z M68.2,264.6c0-5.7,4.5-10.4,10-10.4c5.3,0,9.5,4.2,9.9,9.6v0.2c0,0.5-0.5,0.9-1,0.9H70.2   c0.2,4.5,3.7,7.9,8,7.9c2.7,0,5.2-1.4,6.7-3.8c0.3-0.5,0.9-0.6,1.3-0.3c0.5,0.3,0.6,0.9,0.3,1.4c-1.8,2.8-4.8,4.7-8.3,4.7   C72.7,274.8,68.2,270.2,68.2,264.6L68.2,264.6z M70.4,262.9H86c-0.7-3.9-4-6.7-7.8-6.7C74.4,256.2,71.1,259,70.4,262.9z    M93.8,270.5c0.3-0.4,1-0.5,1.4-0.1c1.4,1.1,3.7,2.4,6.3,2.4c1.6,0,3-0.5,3.9-1.3c1-0.7,1.6-1.6,1.6-2.5c0-1-0.4-1.6-1.5-2.5   c-0.9-0.7-2.4-1.2-4.4-1.5l-0.1,0c-1.9-0.3-3.5-0.8-4.7-1.6c-1.3-0.8-2.2-2.1-2.2-3.7c0-1.6,0.9-3.1,2.2-4c1.2-0.8,2.9-1.4,5.1-1.4   c2.7,0,4.5,1.2,6.1,2.2c0.5,0.3,0.6,1,0.3,1.4c-0.3,0.5-0.9,0.6-1.4,0.3c-1.5-1-3-2.1-5.1-2.1c-1.7,0-3,0.5-3.9,1.2   c-0.8,0.7-1.3,1.5-1.3,2.4c0,0.8,0.4,1.4,1.2,2.1c0.9,0.6,2.3,1.1,4.2,1.4h0.1c2,0.3,3.6,0.9,5,1.7c1.3,0.9,2.3,2.5,2.3,4.2   c0,1.7-1,3.1-2.4,4.2c-1.4,1.1-3.1,1.6-5.1,1.6c-3.3,0-5.9-1.6-7.6-2.9C93.5,271.5,93.5,271,93.8,270.5z M114,270.5   c0.3-0.4,1-0.5,1.4-0.1c1.4,1.1,3.7,2.4,6.3,2.4c1.6,0,3-0.5,3.9-1.3c1-0.7,1.6-1.6,1.6-2.5c0-1-0.4-1.6-1.5-2.5   c-0.9-0.7-2.4-1.2-4.4-1.5l-0.1,0c-1.9-0.3-3.5-0.8-4.7-1.6c-1.3-0.8-2.2-2.1-2.2-3.7c0-1.6,0.9-3.1,2.2-4c1.2-0.8,2.9-1.4,5.1-1.4   c2.7,0,4.5,1.2,6.1,2.2c0.5,0.3,0.6,1,0.3,1.4c-0.3,0.5-0.9,0.6-1.4,0.3c-1.5-1-3-2.1-5.1-2.1c-1.7,0-3,0.5-3.9,1.2   c-0.8,0.7-1.3,1.5-1.3,2.4c0,0.8,0.4,1.4,1.2,2.1c0.9,0.6,2.3,1.1,4.2,1.4h0.1c2,0.3,3.6,0.9,5,1.7c1.3,0.9,2.3,2.5,2.3,4.2   c0,1.7-1,3.1-2.4,4.2c-1.4,1.1-3.1,1.6-5.1,1.6c-3.3,0-5.9-1.6-7.6-2.9C113.7,271.5,113.7,271,114,270.5z M136.1,248.5   c0-0.5,0.5-1,1-1c0.6,0,1.1,0.5,1.1,1v1c0,0.6-0.5,1.1-1.1,1.1c-0.5,0-1-0.5-1-1.1V248.5z M136.1,255.2c0-0.6,0.4-1,1-1   c0,0,0,0,0,0c0.6,0,1.1,0.4,1.1,1v18.6c0,0.5-0.5,1-1.1,1c-0.6,0-1-0.5-1-1V255.2z M162.6,262.6c0-3.5-2.8-6.4-6.4-6.4c0,0,0,0,0,0   c-3.5,0-6.3,2.9-6.4,6.4V274c0,0.2-0.1,0.3-0.2,0.5c-0.2,0.3-0.5,0.4-0.8,0.4h-0.3c-0.3-0.1-0.5-0.3-0.7-0.5c0,0,0-0.1,0-0.1   c0,0,0-0.1,0-0.1v-18.8c0-0.6,0.4-1,1-1c0,0,0,0,0,0c0.5,0,1,0.5,1,1v2c1.6-1.9,3.9-3,6.4-3c4.6,0,8.4,3.8,8.4,8.4v11.2   c0,0.6-0.4,1-1,1c0,0,0,0,0,0c-0.6,0-1-0.4-1-1c0,0,0,0,0,0L162.6,262.6L162.6,262.6z M191.6,273.2c0,5.3-4.3,9.7-9.7,9.7   c-1.5,0-2.9-0.4-4.3-1c-0.4-0.3-0.7-0.9-0.4-1.3c0.3-0.5,0.8-0.8,1.3-0.5c1.1,0.5,2.1,0.8,3.4,0.8c4.3,0,7.7-3.4,7.7-7.7v-2.5   c-1.7,2.5-4.5,4-7.7,4c-5.4,0-9.7-4.6-9.7-10.3c0-5.6,4.3-10.2,9.7-10.2c3.2,0,6,1.6,7.7,4v-3c0-0.5,0.5-1,1.1-1c0.5,0,1,0.5,1,1   L191.6,273.2L191.6,273.2z M189.6,264.4c0-4.6-3.5-8.2-7.7-8.2c-4.2,0-7.7,3.6-7.7,8.2c0,4.6,3.5,8.3,7.7,8.3   C186.1,272.7,189.6,269.1,189.6,264.4L189.6,264.4z M221,255.2c0,0.5-0.5,1-1,1h-2.7v15c0,1,1,1.5,1.5,1.5c0.5,0,1.1,0.5,1.1,1.1   c0,0.5-0.5,1-1.1,1c-2.1,0-3.6-1.5-3.6-3.6v-15h-2.6c-1,0-1-0.5-1-1c0-0.5,0-1,1-1h2.6v-7.7c0-0.5,0.5-1,1-1c0.5,0,1.1,0.5,1.1,1   v7.7h2.7C220.5,254.2,221,254.7,221,255.2L221,255.2z M244.9,262.3c0-3.6-2.9-6.1-6.6-6.1c-3.6,0-6.5,2.4-6.5,6.1v11.6   c0,0.1,0,0.1,0,0.2c0,0.1,0,0.1-0.1,0.2c-0.1,0.3-0.4,0.4-0.6,0.5c0,0,0,0-0.1,0h-0.2c-0.3,0-0.6-0.1-0.8-0.3   c-0.1-0.1-0.1-0.2-0.2-0.3c0-0.1,0-0.2,0-0.3v-27.5c0-0.5,0.5-1,1-1c0.6,0,1.1,0.5,1.1,1v10.9c1.6-1.9,4-3,6.5-3   c4.8,0,8.6,3.4,8.6,8.1v11.5c0,0.5-0.5,1-1.1,1c-0.6,0-1-0.5-1-1L244.9,262.3L244.9,262.3z M254,264.6c0-5.7,4.5-10.4,10-10.4   c5.3,0,9.5,4.2,9.9,9.6v0.2c0,0.5-0.5,0.9-1,0.9H256c0.2,4.5,3.7,7.9,8,7.9c2.7,0,5.2-1.4,6.7-3.8c0.3-0.5,0.9-0.6,1.3-0.3   c0.5,0.3,0.6,0.9,0.3,1.4c-1.8,2.8-4.8,4.7-8.3,4.7C258.5,274.8,254,270.2,254,264.6z M256.1,262.9h15.6c-0.7-3.9-4-6.7-7.8-6.7   C260.1,256.2,256.9,259,256.1,262.9z M294.3,246.4c0-0.5,0.5-1,1-1c0.6,0,1.1,0.5,1.1,1v27.5c0,0.5-0.5,1-1.1,1c-0.6,0-1-0.5-1-1   V246.4z M335.9,262.6c-0.1-3.5-2.9-6.4-6.4-6.4c-3.5,0-6.4,2.9-6.4,6.4V274c0,0,0,0.1,0,0.1v0.1c-0.1,0.3-0.3,0.4-0.5,0.5   c-0.2,0.1-0.3,0.1-0.5,0.1h-0.2c0,0-0.1,0-0.1,0c-0.1,0-0.2-0.1-0.3-0.1c0,0-0.1,0-0.1-0.1l-0.1-0.1c0,0,0-0.1-0.1-0.1   c0,0,0,0,0-0.1c0,0,0,0,0-0.1c0,0,0-0.1,0-0.1v-11.5c0-3.5-2.8-6.4-6.4-6.4c-3.5,0-6.4,2.9-6.4,6.4v11.2c0,0.3-0.2,0.6-0.5,0.8   c0,0-0.2,0.1-0.3,0.1c0,0-0.1,0-0.2,0h-0.3c-0.4,0-0.7-0.4-0.8-0.8v-18.9c0-0.5,0.4-1,1-1c0.6,0,1,0.4,1,1v2c1.6-1.9,3.9-3,6.4-2.9   c3.2,0,5.9,1.8,7.4,4.4c1.5-2.6,4.3-4.4,7.4-4.4c4.6,0,8.4,3.7,8.4,8.4c0,0,0,0,0,0v11.2c0,0.5-0.4,1-1,1c-0.5,0-1-0.4-1-1   L335.9,262.6L335.9,262.6z M346.3,264.8v-9.6c0-0.5,0.5-1,1-1c0.6,0,1.1,0.5,1.1,1v3c1.8-2.4,4.6-4,7.8-4c5.6,0,10,4.6,10,10.2   c0,5.6-4.4,10.3-10,10.3c-3.2,0-6.1-1.6-7.8-4v11.8c0,0.5-0.5,1-1.1,1c-0.5,0-1-0.5-1-1V264.8z M348.4,264.4c0,4.5,3.6,8.2,7.8,8.3   c4.4,0,7.9-3.7,7.9-8.3c0-4.6-3.5-8.2-7.9-8.2c-4.2,0-7.7,3.5-7.8,7.8V264.4z M391.3,255.2v18.6c0,0.5-0.5,1-1,1c-0.5,0-1-0.5-1-1   v-3.1c-1.8,2.4-4.6,4.1-7.8,4.1c-5.4,0-9.8-4.7-9.8-10.3s4.3-10.3,9.8-10.3c3.2,0,6,1.6,7.8,4v-3c0-0.6,0.4-1,1-1c0,0,0,0,0,0   C390.9,254.2,391.3,254.6,391.3,255.2C391.3,255.2,391.3,255.2,391.3,255.2L391.3,255.2z M389.3,264.5c0-4.6-3.5-8.3-7.8-8.3   c-4.2,0-7.8,3.7-7.8,8.3s3.5,8.3,7.8,8.3C385.8,272.8,389.3,269.1,389.3,264.5z M398.5,264.5c0-5.7,4.7-10.3,10.6-10.3   c2.4,0,4.8,0.8,6.6,2.3c0.4,0.3,0.5,0.9,0.1,1.4c-0.3,0.4-0.9,0.5-1.4,0.2c-1.5-1.2-3.4-1.9-5.3-1.9c-4.8,0-8.6,3.7-8.6,8.3   c0,4.6,3.8,8.3,8.6,8.3c1.9,0,3.8-0.6,5.3-1.8c0.5-0.3,1.1-0.2,1.4,0.2c0.4,0.5,0.3,1.1-0.2,1.5c-1.7,1.3-4,2.2-6.5,2.2   C403.2,274.8,398.5,270.3,398.5,264.5L398.5,264.5z M431.2,255.2c0,0.5-0.5,1-1,1h-2.7v15c0,1,1,1.5,1.5,1.5c0.5,0,1.1,0.5,1.1,1.1   c0,0.5-0.5,1-1.1,1c-2.1,0-3.6-1.5-3.6-3.6v-15h-2.6c-1,0-1-0.5-1-1c0-0.5,0-1,1-1h2.6v-7.7c0-0.5,0.5-1,1-1c0.5,0,1.1,0.5,1.1,1   v7.7h2.7C430.7,254.2,431.2,254.7,431.2,255.2L431.2,255.2z M462.1,254.2c5.4,0,9.8,4.7,9.8,10.3c0,5.6-4.3,10.3-9.8,10.3   c-5.4,0-9.8-4.7-9.8-10.3C452.3,258.9,456.7,254.2,462.1,254.2L462.1,254.2z M462.1,272.8c4.2,0,7.8-3.7,7.8-8.3s-3.5-8.3-7.8-8.3   s-7.8,3.7-7.8,8.3S457.9,272.8,462.1,272.8z M487.1,246.4c0,0.5-0.5,1-1,1c-1.4,0-2.2,0.3-2.6,0.8c-0.5,0.5-0.8,1.5-0.8,3.4v2.2   h2.9c0.6,0,1.1,0.5,1.1,1c0,0.6-0.5,1.1-1.1,1.1h-2.9v17.9c0,0.5-0.5,1-1,1c-0.6,0-1.1-0.5-1.1-1v-17.9h-2.7c-0.5,0-1-0.5-1-1.1   c0-0.5,0.5-1,1-1h2.7v-2.2c0-2.1,0.4-3.7,1.3-4.8c1-1.1,2.5-1.5,4.2-1.5C486.7,245.4,487.1,245.9,487.1,246.4L487.1,246.4z    M506.2,246.4c0-0.5,0.5-1,1-1h15.2c0.6,0,1,0.5,1,1c0,0.6-0.4,1.1-1,1.1h-14.1v11.7h12.3c0.5,0,1,0.5,1,1.1c0,0.5-0.5,1-1,1h-12.3   v11.6h14.1c0.6,0,1,0.5,1,1.1c0,0.6-0.4,1-1,1c0,0,0,0,0,0h-15.2c-0.5,0-0.9-0.5-0.9-1V246.4L506.2,246.4z M547.9,255.2v18.6   c0,0.5-0.5,1-1,1c-0.5,0-1-0.5-1-1v-3.1c-1.8,2.4-4.6,4.1-7.8,4.1c-5.4,0-9.8-4.7-9.8-10.3s4.3-10.3,9.8-10.3c3.2,0,6,1.6,7.8,4v-3   c0-0.6,0.4-1,1-1c0,0,0,0,0,0C547.5,254.2,547.9,254.6,547.9,255.2C547.9,255.2,547.9,255.2,547.9,255.2L547.9,255.2z M545.9,264.5   c0-4.6-3.5-8.3-7.8-8.3c-4.2,0-7.8,3.7-7.8,8.3s3.5,8.3,7.8,8.3C542.4,272.8,545.9,269.1,545.9,264.5z M556.6,255.2   c0-0.6,0.5-1,1.1-1c0.5,0,1,0.4,1,1v4.5c0.1-0.2,0.2-0.3,0.3-0.5c1.6-2.4,4.3-5.1,8.3-5.1c0.6,0,1,0.4,1,1c0,0,0,0,0,0   c0,0.5-0.5,1-1,1c-2.7,0-4.5,1.5-6,3.4c-1.4,1.9-2.2,4-2.5,4.8c-0.1,0.2-0.1,0.3-0.1,0.3v9.1c0,0.6-0.5,1-1,1c-0.6,0-1.1-0.4-1.1-1   L556.6,255.2L556.6,255.2z M575.3,246.4c0-0.5,0.5-1,1-1c0.6,0,1.1,0.5,1.1,1v27.5c0,0.5-0.5,1-1.1,1c-0.6,0-1-0.5-1-1V246.4z    M586.4,255.2c0-0.5,0.5-1,1-1c0.6,0,1.1,0.4,1.1,1v11.2c0,3.5,2.8,6.4,6.3,6.4c3.5,0,6.4-2.8,6.4-6.4v-11.2c0-0.2,0-0.4,0.2-0.5   c0,0,0-0.1,0-0.1c0,0,0,0,0.1,0c0.1-0.1,0.3-0.2,0.4-0.3h0.1c0,0,0.1,0,0.1,0h0.3c0.2,0,0.3,0.1,0.5,0.2c0.1,0.1,0.2,0.2,0.3,0.3   c0.1,0.1,0.1,0.3,0.1,0.4v18c0,5.4-4.4,9.7-9.8,9.7c-1.5,0-2.9-0.4-4.3-1c-0.5-0.3-0.7-0.9-0.4-1.3c0.3-0.5,0.8-0.6,1.3-0.5   c1,0.5,2.2,0.8,3.4,0.8c4.3,0,7.8-3.4,7.8-7.7v-1.3c-1.6,1.8-3.8,2.9-6.4,2.9c-4.6,0-8.3-3.8-8.3-8.4V255.2L586.4,255.2z    M624.5,269.3c0.3-0.4,0.9-0.5,1.3-0.2c0,0,0,0,0,0c2.2,1.8,5.9,3.8,9.7,3.8c2.6,0,4.9-0.8,6.5-1.9c1.6-1.2,2.5-2.7,2.5-4.4   c0-1.7-0.8-2.9-2.4-4c-1.6-1.1-4-1.9-6.8-2.4h-0.1c-2.7-0.5-5.1-1.3-7-2.5c-1.8-1.2-3-2.9-3-5.1c0-2.2,1.2-4.2,3.1-5.5   c1.9-1.3,4.3-2.1,7.1-2.1c3.9,0,6.8,1.9,9.1,3.4c0.4,0.3,0.5,0.8,0.3,1.3c-0.3,0.4-0.8,0.5-1.3,0.3c-2.3-1.5-4.8-3.1-8.1-3.1   c-2.4,0-4.5,0.7-6,1.8c-1.5,1.1-2.3,2.5-2.3,4c0,1.5,0.7,2.6,2.2,3.6c1.5,1,3.7,1.7,6.3,2.2h0.1c2.9,0.5,5.6,1.4,7.5,2.7   c1.9,1.3,3.2,3.2,3.2,5.6c0,2.4-1.3,4.5-3.3,5.9c-2,1.4-4.6,2.3-7.6,2.3c-4.5,0-8.4-2.3-10.9-4.3   C624.2,270.3,624.2,269.7,624.5,269.3L624.5,269.3z M653,255.2c0-0.6,0.4-1,1-1c0,0,0,0,0,0c0.6,0,1,0.4,1,1c0,0,0,0,0,0v11.2   c0,3.5,2.8,6.4,6.3,6.4c3.5,0,6.4-2.9,6.4-6.4v-11.2c0-0.6,0.5-1,1-1c0.6,0,1.1,0.4,1.1,1v11.2c0,4.6-3.7,8.4-8.5,8.4   c-4.6,0-8.3-3.8-8.3-8.4L653,255.2L653,255.2z M679.1,255.2c0-0.6,0.5-1,1.1-1c0.5,0,1,0.4,1,1v4.5c0.1-0.2,0.2-0.3,0.3-0.5   c1.6-2.4,4.3-5.1,8.3-5.1c0.6,0,1,0.4,1,1c0,0,0,0,0,0c0,0.5-0.5,1-1,1c-2.7,0-4.5,1.5-6,3.4c-1.4,1.9-2.2,4-2.5,4.8   c-0.1,0.2-0.1,0.3-0.1,0.3v9.1c0,0.6-0.5,1-1,1c-0.6,0-1.1-0.4-1.1-1L679.1,255.2L679.1,255.2z M715.5,273.2c0,5.3-4.3,9.7-9.7,9.7   c-1.5,0-2.9-0.4-4.3-1c-0.4-0.3-0.7-0.9-0.4-1.3c0.3-0.5,0.8-0.8,1.3-0.5c1.1,0.5,2.1,0.8,3.4,0.8c4.3,0,7.7-3.4,7.7-7.7v-2.5   c-1.7,2.5-4.5,4-7.7,4c-5.4,0-9.7-4.6-9.7-10.3c0-5.6,4.3-10.2,9.7-10.2c3.2,0,6,1.6,7.7,4v-3c0-0.5,0.5-1,1.1-1c0.5,0,1,0.5,1,1   L715.5,273.2L715.5,273.2z M713.5,264.4c0-4.6-3.5-8.2-7.7-8.2c-4.2,0-7.7,3.6-7.7,8.2c0,4.6,3.5,8.3,7.7,8.3   C710.1,272.7,713.5,269.1,713.5,264.4z M725.3,248.5c0-0.5,0.5-1,1-1c0.6,0,1.1,0.5,1.1,1v1c0,0.6-0.5,1.1-1.1,1.1   c-0.5,0-1-0.5-1-1.1V248.5z M725.3,255.2c0-0.6,0.4-1,1-1c0,0,0,0,0,0c0.6,0,1.1,0.4,1.1,1v18.6c0,0.5-0.5,1-1.1,1   c-0.6,0-1-0.5-1-1V255.2z M735.5,264.5c0-5.7,4.7-10.3,10.6-10.3c2.4,0,4.8,0.8,6.6,2.3c0.4,0.3,0.5,0.9,0.1,1.4   c-0.3,0.4-0.9,0.5-1.4,0.2c-1.5-1.2-3.4-1.9-5.3-1.9c-4.8,0-8.6,3.7-8.6,8.3c0,4.6,3.8,8.3,8.6,8.3c1.9,0,3.8-0.6,5.3-1.8   c0.5-0.3,1.1-0.2,1.4,0.2c0.4,0.5,0.3,1.1-0.2,1.5c-1.7,1.3-4,2.2-6.5,2.2C740.2,274.8,735.5,270.3,735.5,264.5L735.5,264.5z    M778.2,255.2v18.6c0,0.5-0.5,1-1,1c-0.5,0-1-0.5-1-1v-3.1c-1.8,2.4-4.6,4.1-7.8,4.1c-5.4,0-9.8-4.7-9.8-10.3s4.3-10.3,9.8-10.3   c3.2,0,6,1.6,7.8,4v-3c0-0.6,0.4-1,1-1c0,0,0,0,0,0C777.8,254.2,778.2,254.6,778.2,255.2C778.2,255.2,778.2,255.2,778.2,255.2   L778.2,255.2z M776.2,264.5c0-4.6-3.5-8.3-7.8-8.3c-4.2,0-7.8,3.7-7.8,8.3s3.5,8.3,7.8,8.3C772.7,272.8,776.2,269.1,776.2,264.5z    M787.8,246.4c0-0.5,0.5-1,1-1c0.6,0,1.1,0.5,1.1,1v27.5c0,0.5-0.5,1-1.1,1c-0.6,0-1-0.5-1-1V246.4z M824.9,244.9   c3.6,0,7,1.3,9.5,3.2c0.5,0.4,0.5,1.1,0.2,1.5c-0.3,0.5-1,0.5-1.4,0.2c-2.3-1.8-5.1-2.9-8.3-2.9c-7.4,0-13.3,5.8-13.3,13   c0,7,5.9,12.8,13.3,12.8c3.1,0,6-1,8.2-2.9c0.5-0.3,1.2-0.3,1.5,0.3c0.4,0.4,0.3,1.1-0.1,1.5c-2.6,2-5.9,3.2-9.5,3.2   c-8.5,0-15.3-6.7-15.3-14.9C809.6,251.6,816.5,245,824.9,244.9L824.9,244.9z M860.1,255.2v18.6c0,0.5-0.5,1-1,1c-0.5,0-1-0.5-1-1   v-3.1c-1.8,2.4-4.6,4.1-7.8,4.1c-5.4,0-9.8-4.7-9.8-10.3s4.3-10.3,9.8-10.3c3.2,0,6,1.6,7.8,4v-3c0-0.6,0.4-1,1-1c0,0,0,0,0,0   C859.7,254.2,860.1,254.6,860.1,255.2C860.1,255.2,860.1,255.2,860.1,255.2L860.1,255.2z M858.1,264.5c0-4.6-3.5-8.3-7.8-8.3   c-4.2,0-7.8,3.7-7.8,8.3s3.5,8.3,7.8,8.3C854.6,272.8,858.1,269.1,858.1,264.5z M868.8,255.2c0-0.6,0.5-1,1.1-1c0.5,0,1,0.4,1,1   v4.5c0.1-0.2,0.2-0.3,0.3-0.5c1.6-2.4,4.3-5.1,8.3-5.1c0.6,0,1,0.4,1,1c0,0,0,0,0,0c0,0.5-0.5,1-1,1c-2.7,0-4.5,1.5-6,3.4   c-1.4,1.9-2.2,4-2.5,4.8c-0.1,0.2-0.1,0.3-0.1,0.3v9.1c0,0.6-0.5,1-1,1c-0.6,0-1.1-0.4-1.1-1L868.8,255.2L868.8,255.2z    M883.6,264.6c0-5.7,4.5-10.4,10-10.4c5.3,0,9.5,4.2,9.9,9.6v0.2c0,0.5-0.5,0.9-1,0.9h-16.9c0.2,4.5,3.8,7.9,8,7.9   c2.7,0,5.2-1.4,6.7-3.8c0.3-0.5,0.9-0.6,1.3-0.3c0.5,0.3,0.6,0.9,0.3,1.4c-1.8,2.8-4.8,4.7-8.3,4.7   C888.1,274.8,883.6,270.2,883.6,264.6z M885.8,262.9h15.6c-0.7-3.9-4-6.7-7.8-6.7C889.8,256.2,886.5,259,885.8,262.9z" fill="#005DAA"  stroke="#005DAA"  stroke-width="0.504"  stroke-miterlimit="10"  />
	
</g><g><path d="M4,224.7h902.9 M906.8,227.7H4c-1.6,0-3-1.2-3-2.9c0-1.6,1.2-3,2.9-3c0.1,0,0.1,0,0.2,0h902.9   c1.6,0,2.9,1.3,2.9,3C909.8,226.3,908.5,227.6,906.8,227.7L906.8,227.7z" fill="#0096D6"  />
	
</g><path d="M101.2,153.5H28.8l-14.1,37.4  c-0.9,2.3-2.9,3.6-5.2,3.6c-0.5,0-1.4-0.2-2-0.2c-2.7-1.1-4.3-4.5-3.2-7.3L59.4,39.9c0.9-2,3.2-3.4,5.4-3.4c2.5,0,4.8,1.4,5.4,3.4  l55.1,147.2c1.1,2.7-0.2,6.1-2.9,7.3c-0.9,0-1.4,0.2-2,0.2c-2,0-4.3-1.4-5.2-3.6C115.2,190.9,101.2,153.5,101.2,153.5z M32.9,142.4  h64.2l-32-85.3L32.9,142.4L32.9,142.4z M167.5,41.9c0-2.9,2.5-5.4,5.4-5.4c3.2,0,5.7,2.5,5.7,5.4v147.9c0,3-2.5,5.5-5.7,5.5  c-3,0-5.4-2.5-5.4-5.5V41.9z M342.7,58.5L291.9,129c-1.1,1.8-2.9,2.5-4.5,2.5h-0.5c-2,0-3.6-0.7-4.8-2.5l-50.8-70.3v130.4  c0,3-2.5,5.5-5.4,5.5c-3.2,0-5.7-2.5-5.7-5.5v-147c0-1.8,0.9-3.4,2.3-4.3c0-0.2,0.2-0.2,0.5-0.5c2.5-1.6,5.9-1.1,7.7,1.4l56.5,78.2  l56.2-78.2c1.6-2.5,5.2-3,7.7-1.4c0.7,0.7,1.1,1.1,1.6,1.8c0.5,0.9,0.9,2,0.9,2.9v147c0,3-2.5,5.5-5.4,5.5c-3.2,0-5.4-2.5-5.4-5.5  L342.7,58.5L342.7,58.5z M395.3,41.9c0-2.9,2.5-5.4,5.4-5.4h81.6c3.2,0,5.4,2.5,5.4,5.4c0,3.2-2.3,5.7-5.4,5.7h-76v62.8h66.4  c2.9,0,5.4,2.5,5.4,5.7c0,3-2.5,5.5-5.4,5.5h-66.4v62.6h76c3.2,0,5.4,2.5,5.4,5.7c0,3-2.3,5.5-5.4,5.5h-82.1c-2.8-0.2-5-2.6-5-5.5  L395.3,41.9L395.3,41.9z" fill="#005DAA"  stroke="#005DAA"  stroke-width="1.68"  stroke-miterlimit="10"  /><path d="M560.7,175.4L560.7,175.4c-22.4-0.2-41-12.3-50.1-19.5c-2.9-2.6-3.4-7-1.1-10c2.5-3.1,7.2-3.5,10.1-0.9  c4.6,3.7,21.4,16.1,40.5,16.1l0.5,0c10.3,0,20.2-2.9,27.1-8c6.5-4.6,10-10.7,10-17.1c0-6.3-2.9-11.1-9.4-15.5  c-6.5-4.3-16.3-7.7-28.9-10.2l-0.6,0c-13.8-2.5-24.3-6.3-32-11.5c-9.5-6.2-14.8-15.2-14.8-25.3c0-10.4,5.3-19.9,14.9-26.9  c9-6.5,20.8-10.1,33.4-10.1c18.2,0,32,9,42,15.6c3.3,2.3,4.1,6.5,2,9.9c-1.2,2-3.4,3.2-5.8,3.2c-1.4,0-2.8-0.4-4-1.3  c-9.5-6.2-20.3-13.3-34.2-13.3c-9.4,0-18.5,2.7-25,7.3c-5.8,4.3-9,9.9-9,15.5c0.2,5.5,2.7,9.5,8.4,13.5c5.7,3.9,14.7,7.1,26.7,9.4  l0.6,0.1c14.8,2.7,26.1,6.8,34.4,12.4c10.1,6.6,15.7,16.3,15.7,27.2c0,10.8-5.8,21.2-16,28.6C586.5,171.6,573.9,175.4,560.7,175.4  L560.7,175.4z" fill="#005DAA"  /><path d="M641,199c0.4,1.2,2,1.2,3.4,1.7c0.5,0.2,1.3-0.1,0.8-0.6  c0,0-0.1-0.1-0.1-0.1c-0.2-0.3,0.2-0.1,0.6-0.1c0.4-0.1,1.3,1,1.6,0.9c0.3-0.1,0.1-0.8-0.6-1.2c-0.2-0.1-0.2-0.1,0-0.1  c0.1,0,0.2,0,0.3,0c0.2,0,0.2-0.1,0.3,0.1c0.2,0.2,0.5,0.4,0.7,0.6c0.2,0.2,0.7,0.1,0.6-0.2c0-0.1-0.1-0.1-0.1-0.1  c-0.1-0.1-0.1-0.1,0-0.1c0.2,0.1,0.4,0.1,0.4-0.1c0.1-0.3-0.6-0.8-1.2-1.1c0,0-0.1-0.1-0.1-0.1c-0.1-0.1-0.2-0.2-0.4-0.2  c-0.1,0-0.2,0-0.3-0.1c-0.4-0.2-0.8-0.2-1.2-0.1c-0.3,0.1-0.3,0.1-0.6-0.1c-0.3-0.2-0.6-0.3-0.9-0.3c-0.4-0.1-0.4,0-0.4-0.3  c0.1-0.5,0-1-0.1-1.5c-0.1-0.3,0-0.6,0-0.9c0.1-1.7,0.2-3.5-0.4-5.3c-0.3-1-0.4-2.1-0.3-3.1c0-0.6,0.1-1,0.3-1.5  c0.5-1.8,0.3-3.4-0.4-4.9c-0.4-0.9-0.6-0.7,0.4-0.5c0.5,0.1,1.1,0.2,1.6,0.1c1.1,0.1,1.8-0.4,2-1.4c0.1-0.5,0-0.4,0.4-0.8  c0.2-0.2,0.5-0.5,0.6-0.9c0.1-0.3,0-0.4,0.3-0.6c0.3-0.2,0.5-0.2,0.6-0.5c0.1-0.2,0-0.6,0-1c0-0.2-0.1-0.2,0.1-0.4  c1-0.8,0.2-1.3-0.3-2.1c-0.3-0.6,0.3-1.1,0.8-1.9c0.9-1.8,0-3.2-0.6-4.9c-0.9-2.6-3.3-4.9-8-5c-6.4,0.2-9.4,5.5-6.1,12.3  c0.5,1.8-3.3,0.6-6.6,4.1c-1.8,1.4-2.8,1.2-6.2,1c-10.7-0.6-12,5.9-11.6,10.6c0,1.1-0.5,1.8-1,2.5c-0.3,0.4-0.3,0.1-0.7-0.2  c-1.3-1.1-3.7-1.6-6.7-1.8c-0.1,0-0.2,0-0.3-0.1c-0.2-0.1-0.5-0.3-0.8-0.3c-0.1,0-0.1-0.1-0.2-0.2c-0.9-1.1-2.2-1.2-4.1-0.2  c-0.3,0.2-0.7,0.2-1,0.3c-2.3,0.6-2.3,1.4-3.3,1.5c-0.5,0-0.9,0.2-0.9,0.6c0,0.1,0,0.1,0,0.1c-0.1,0.1-0.2,0.3-0.2,0.4  c0,0.1,0,0.1,0,0.1c-0.2,0.1-0.2,0.4-0.1,0.6c0,0.1,0.1,0.1,0,0.1c-0.6,0.4-0.3,0.9,0.3,1.1c1.6,0.5,3.4,0.4,5.4-0.4  c1.5-0.5,4.8,0.7,7.1,1.5c0.7,0.2,0.5,0.1,0,0.4c-1.1,0.6-2.1,1.9-2.9,3.4c-0.2,0.4-0.2,0.3-0.6,0.4c-0.3,0-0.5,0.1-0.8,0.3  c-0.3,0.2-0.2,0.2-0.5,0.1c-1.3-0.2-1.8,0.7-1.2,1.3c0.7,0.7,1.7,0.7,2.4,0.7c1.6,0,3.2-0.3,4.7-0.8c0.8-0.3,1.1-0.1,1.9,0.1  c3.9,1.1,7.8,2.2,11.3,2.3c2,0.2,3.3-0.3,3.9-1.4c1.3-2.2,1.2-7.1,0.5-9.8c-0.1-0.4-0.3-0.5,0.2-0.4c1.3,0.3,2,0.2,3.2,0  c0.6-0.1,0.6-0.2,0.4,0.4c-1,3.1-1.4,7.2-0.6,10c0.1,0.3,0.1,0.4,0.1,0.6c-0.1,1.4,1.7,0.7,2.9,1.4c0.6,0.3,1.2,0.3,0.9-0.2  c-0.1-0.1-0.1-0.1,0.1-0.1c0.9,0,1.8,0.2,2.2,0.3c0.2,0,0.4,0,0.4-0.2c0-0.1,0-0.1,0.1,0c0.4,0.1,0.7,0,0.5-0.3c0-0.1-0.1-0.1,0,0  c0.3,0.1,0.4-0.2,0.2-0.3c-0.5-0.6-1.8-1-2.4-1c-0.4,0-0.2,0-0.5-0.3c-0.2-0.2-0.5-0.4-0.8-0.6c-0.2-0.1-0.2-0.1-0.1-0.2  c0.2-0.7,0.4-1.4,0.4-2.1c0-0.7,0.1-1.1,0.3-1.7c0.5-1.5,0.9-3.1,1-4.7c0-0.4-0.1-0.6,0.3-0.9c0.2-0.1,0.3-0.3,0.4-0.5  c0.1-0.3,0.1-0.2,0.4-0.3c1-0.3,2-0.6,2.7-1.1c0.5-0.4,0.6-0.4,1.2-0.6c1-0.2,1.9-0.7,2.8-1.1c0.6-0.3,0.4-0.3,0.4,0.3  c-0.1,1.1-0.1,2.1,0.1,2.9c0.1,0.6,0.2,1.1,0.3,1.7C639.5,194.8,640,197.5,641,199L641,199z M613.9,195.6c-0.2-0.3-0.4-0.6-0.5-0.9  c-0.1-0.4,0-0.5-0.3-0.1c-0.3,0.3-0.6,0.7-0.9,0.9c-0.3,0.3-0.3,0.2,0.1,0.2c0.5-0.1,1.1,0,1.6,0  C614.1,195.8,614.1,195.9,613.9,195.6L613.9,195.6z M664.5,167.9c0.3,0.5,0,1.3,0.2,2.1c0,0.4,0.7,0.3,0.8,0  c0.1-0.2,0.2-0.5,0.2-0.8c0.2,0.2,0.3,0.3,0.6,0.5c0.4,0.2,0.6-0.5,0.4-0.9c0-0.1-0.1-0.2-0.2-0.3c-0.1-0.1-0.2-0.3-0.3-0.4  c-0.1-0.1-0.1-0.1,0-0.3c0.1-0.2,0.1-0.4,0.1-0.6c0-0.2,0-0.4,0.1-0.5c0.1-0.2,0.1-0.5,0.1-0.7c0-0.3,0-0.4,0.1-0.7  c0.1-0.2,0.2-0.5,0.3-0.7c0.1-0.5,0.2-0.6,0.4-0.1c0.2,0.6,0.2,0.8,0.5,1.3c0.7,0.9,1.4,0.3,1.3-0.4c-0.1-0.8-0.4-1.2-0.5-1.8  c0-1.7-0.5-3.4-1.2-4.8c-0.2-0.5,0.2-1.4,0.3-2.4c0.2-1,0.1-1.1,0.6-2c0.6-1.1,1.3-2.9,1.8-4.5c1-3,0.8-3,0.8,0c0,2.3,0.2,4.3,1,7.6  c2.2,7.9-8.5,15.3-4.8,16.7c0.5,0.2,0.4,0.5,0.7,0.9c1.4,2.4,5.1,2.7,7.6,3.1c1.7,0.3,1.4,0.2,0.9,1.5c-1.4,4.5,0.7,12.9-0.6,15.9  c-0.6,1.6-0.2,3.6,1,4.1c2.6,1.2,5.3,1.4,7.8,2.9c0.8,0.5,1.5,0.3,1.6,0c0-0.1,0-0.2,0.2-0.1c0.5,0.2,0.8-0.1,0.8-0.3  c0-0.1,0-0.1,0.1-0.1c0.8,0.2,1.1-0.3,0.8-0.6c-0.1-0.1-0.1-0.1,0.1-0.1c0.4,0.1,1-0.1,0.7-0.6c0,0,0-0.1,0-0.1  c0.4,0,0.8-0.2,0.8-0.7c0-0.8-1.9-0.6-3.2-1.4c-1.3-0.8-2-1.7-3.4-2.5c-0.8-0.5-1.2-0.9,0.2-1.3c2.1-0.6,6.6,0.2,7.8-1.2  c0.4-0.5-0.2-1-0.8-0.9c-0.1,0-0.2,0-0.1-0.1c0.2-0.3-0.1-0.6-0.5-0.5c-0.1,0-0.1,0,0,0c0.2-0.3,0-0.6-0.4-0.5c-0.1,0-0.1,0-0.1-0.1  c0.1-0.2-0.2-0.4-0.7-0.3c-0.2,0-0.6,0.1-0.9,0.1c-2.7-0.6-4,0.3-3.8-0.7c0.5-2,1.5-7.2,1.6-11.9c2.9,0,4.9-0.3,6-0.6  c2-0.5,0.5-1.5,2.5-1.6c1.4-0.1,3.5-0.1,3.8-1.3c0.9-3.5,2.2-2,3.8-3.6c3.6-4.2-5.1-10.8-6.4-16.8c-0.3-6.9,1-6.6-0.3-13.4  c1.2,2,4,3.1,4.4,3.9c0.5,1.1,1,2.2,1.6,2.8c0.3,0.9,0.9,1.7,1.2,2.1c0.3,0.4,0.8,0,0.7-0.4c-0.1-0.3-0.3-0.9-0.2-1.2  c0.1-0.5,0.5-0.3,1,0c0.7,0.6,1.4,1.8,1.5,2c0.4,0.6,1,0.2,0.9-0.3c-0.1-0.5-0.5-1.4-0.8-2c0.6,0.2,1.7,1.9,1.8,2  c0.4,0.5,1.1-0.1,0.8-0.6c0-0.1-0.2-0.8-1.4-2c0.8,0.5,1.1,0.9,1.8,0.9c0.4,0,0.5-0.4,0.1-0.8c-1.1-0.9-2.1-1.9-2.6-2.3  c-0.6-0.6-3.3-1.4-3.7-2.3c-1.7-3.1-2-6-4.4-8.7c-2-3.6,0.3-8.1-6.2-9.9c1.3-1.3,1.9-3.5,1.9-4.6c0.1-2.1-0.7-5-0.7-6  c0-1,0.7-2.3,0.9-3.6c0.3-2.7,0.2-5.5-3.9-6.6c-0.8-0.2-1.4-0.5-2.1-0.8c-2.6-1.1-5.1-0.7-7.6-0.1c-0.3,0.1-0.5,0.1-0.5-0.3  c0.1-1,0.7-1.4,0.1-2.2c-0.9-1.1-2.4-0.6-2.9,0.2c-0.3,0.7-0.2,1.3,0.2,1.8c0.1,0.2,0,0.2-0.1,0.1c-0.4-0.3-0.8-0.7-1.4-1.3  c-1.5-1.7-3.7,1.6-2.9,2.7c0.4,0.5,1.4,0.6,2.6,0.6c0.1,0,0.1,0.1,0,0.2c-1.3,0-3,0-3.2,1.3c-0.1,1.4,0.4,2.5,1.2,2.3  c0.8-0.4,1.6-1.2,2.3-1.6c0.1,0,0.1,0,0.1,0.1c-0.9,1-1.8,2.4-2,3.6c-0.4,2,0.3,3.7,1,5.3c-1.4,0.6-0.6,2.3,0,3.6  c1.2,2.7,1.7,3,2.2,2.8c0.7,0.5,1.1,1.6,1,2.7c0,1.7-4.3,4.5-6.7,6.4c-3,1.9-4.2,10.1-6.3,15.1c-1.3,3.5-1.5,8.4-1.1,11.8  c0.3,1.5-0.5,4.1-0.2,5.7C663.4,165.7,663.9,166.8,664.5,167.9L664.5,167.9z M725.9,201c-0.4,3,8.6,3,9.4-0.1  c1.3-5.1,3.6-6.8,2.7-9.9c-0.1-0.5-0.2-0.7-0.2-1.2c0-0.4,0-0.7-0.1-1c-0.1-0.7-0.2-0.8,0-1.6l0.6-2.5c0.7-2.4,8.7-0.5,9.5-2.3  c0.8-1.7,1.1-4,1.3-6.3c0.2-2,0.4-3.6,0.9-5.5c1.1-4.5,2.1-9.9,2.6-14.5c0.3-2.7,0.2-2.6,1.3-0.1c3.3,8,2.6,15.7,4.6,22.8  c0.4,1.4,2.5,2.3,4,3c0.6,0.2,0.7,0.8,0.4,1.3c-0.2,0.4-0.6,0.6-1,1.6c-0.5,1.1-0.4,2.8-0.3,4.5c-0.1,1.4,0.7,2.9,2.6,3.7  c1.5,0.7,1.3,2.5,1.9,3.9c1,3.1,9.8,2.1,9-1c0-0.1,0-0.2,0-0.4c0.6-3.5-2.7-6.6-4.5-10.1c-0.8-1.6-1-2.2-0.9-3.7  c0.1-1.2,2.5-1.2,2.6-3c0-6.2,0.1-12.6-1-18.9c-0.3-1.5-0.4-2.9-0.6-4.5c-0.1-0.7-0.2-1.3-0.3-1.9c-0.5-2-0.5-2.8-0.4-4.8  c0.2-3.3-0.1-6.7-0.3-10c-0.1-0.5,0.7-0.4,0.9-1c0.3-1.7-2-3.4-2.7-5.6c-1.5-3.6-1.5-9.8-0.9-12.1c0.5-1.8,0.6-3.5,0.5-5.4  c-0.1-2-0.2-1.8,0.8-0.2c1,1.7,2,3.4,2.7,5.3c1.8,5.2,4.9,10.2,5.3,15.5c0.2,1.9-0.6,2.2-1,4.2c-0.4,1.3,0,4.7,0,6.3  c0,0.8,1.3,0.8,1.4,0c0.1-1.1,0.1-1.7,0.3-2.7c0.1-0.6,0.4-0.9,0.8-0.5c0.6,0.9,1,1.3,0.6,2.4c-0.3,0.4-0.8,0.4-1,0.5  c-0.4,0.1-0.3,0.6,0,0.7c0,0,0.1,0,0,0c-0.6,0.2-0.5,0.6-0.3,0.7c0,0,0,0,0,0c-0.3,0.2-0.3,0.6,0,0.6c0,0,0,0,0,0  c-0.3,0.1-0.3,0.7,0.3,0.7c1.4-0.1,2-0.4,2.7-1.1c1-1.1,1.5-1.9,1.7-2.6c0.1-0.6,0.1-1.2,0.1-1.8c0.1-2,0-4-1-6  c-0.4-0.9-0.7-1.3-0.9-2.3c-0.9-5.2-1.3-10.6-2.7-15.8c-0.4-2.5-1.8-4.7-2.5-7.1c-0.6-1.3,2.8-3,2-3.9c-0.2-0.4-0.5-0.8-0.7-1.2  c-1.2-4.2-3.6-10.7-6.1-12.9c-2.1-2.1-4.8-1.6-6.6-3.9c-1.2-1.5-2-2.2-3.3-2.5c-1.1-0.3-1-0.1-0.2-0.9c1.2-1.3,1.8-2.8,2-4.5  c0.1-0.5,0-0.4,0.4-0.7c0.6-0.5,0.7-1.7,0.4-3.5c-0.1-0.8,0-0.9,0.4-1.6c3.7-6.9-4.2-12-10.4-10.4c-0.6,0.2-0.9,0.2-1.5,0.2  c-1.6,0-3.5,0.7-4.7,2.5c-1.5,2.3-1.6,5.1-1,7.3c0.2,0.5,0.2,0.7,0.2,1.3c-0.2,2,0.2,3.6,1,4.4c0.5,0.5,0.5,0.5,0.6,1.2  c0.2,1,0.5,1.9,0.8,2.7c0.2,0.6,0.1,0.5-0.5,0.6c-1.1,0.2-2.2,0.7-3.3,1.7c-1.6,1.6-1.8,1.5-3.9,2.2c-3.6,1.3-6.5,4.2-8.8,11.5  c-1,2.6-3,4.6-4.2,7.3c-0.5,1.1,2.6,1.4,2.1,2.8c-1,3.4-2.5,8.1-3.1,11.8c-0.6,2.1-0.8,8.8-1.2,14.1c-0.5,4.3-4,6.6-3,9.6  c0.1,0.2,0.1,0.2,0,0.4c-0.3,0.9-0.1,1.6,0.2,2.1c0.1,0.2,0.1,0.3,0.1,0.5c0.2,1.2,0.4,1.5,0.6,2.9c0.1,0.9,1.2,0.4,1.2-0.3  c-0.3-2.4,0.2-3.6,1.5-4.8c0.4-0.3,0.3-0.3,0.3,0.1c0.1,2,0.1,3,1.5,4.3c0.4,0.4,1.3,0,1.1-0.5c-0.4-1-0.6-1.9-0.4-3  c0.3-1.8,0.8-2.7,1.3-3.3c0.3-0.3,1-0.4,1,0.4c0,0.8,0.1,1.6,0.2,2.4c0.2,1.3,1.8,0.7,1.7-0.2c-0.3-2.6,0.6-4.7-0.5-6.8  c-0.6-1.1-0.8-1.1-0.8-2.4c0-4.7,0.1-9.1,1.1-13.7c0.8-2.1,2.4-6.7,3.4-9.4c0.3-1,0.1-0.8,1-0.6c0.4,0.1,0.7,0.1,1,0.1  c0.1,0,0.4,0,0.4,0.4c0.4,4-0.1,7.7,0.3,11.7c-0.6,3.9-0.1,7.5-1.5,11.9c-0.5,1.5-0.9,1.6-0.9,2.2c0,0.7,1.9,0.5,1.5,1.1  c-1.8,4.4-1.6,10.2-2.5,15.7c0,1.1-2.1,1-1.6,2c0.5,1.8,0.4,2.6,0.6,4.9c0.5,5.3-2.1,10.8-2.4,16.4c-0.2,1.2,1.8,0.9,1.4,2.3  c-0.2,0.8-0.4,1.8-0.5,2.7c-0.1,0.7-0.1,1.1-0.7,1.2c-2.4,0.3-3.2,3.8-3.6,7.1c-0.1,0.5-0.1,0.7-0.4,1.2c-1.2,1.9-1.9,3.7-1.7,5.4  C725.9,200.8,725.9,200.9,725.9,201L725.9,201z M794.9,47.9c-0.1-2.9,0.4-5.9,2-9c0.9-1.7,1.3-4.4,1.5-7.6  c0.7-8.2,5.1-11.1,9.9-11.9c2.7-1.1,5.7-0.9,8.1,0.9c1,0.8,1.5,1.2,2.6,1.7c3.1,1.6,4.2,5.2,3.9,9c0,2.2,0.7,4.2,2.2,6.1  c1.9,3.1,0.3,6.7-0.9,8.8c-2.1,2.7-2.3,4.8-0.7,5.2c2.7,0.6,4.4,3.2,5.4,5.8c2.2,4.1,3.8,7.9,6,12c1.4,2.6,1.6,4.4,1.5,7.4  c-0.3,6.1-0.9,11.9-1.2,17.9c0,0.4,0,0.7,0.1,1.1c0.2,1.3,0.3,2.3,0,3.5c-0.2,0.9-0.2,0.8,0.3,1.7c1.8,3.4,1.1,5.2,4.6,13.2  c1.1,2-6.4,2-6.8,4.7c-1.4,9.4-4.3,16.2-5.4,20c-0.4,1.1-0.4,2.1-0.5,3.2c-0.2,1.4-0.6,2.5-1,3.7c-0.4,1.2-0.3,2.2-0.4,3.5  c-0.4,11.5-5,20.9-5.8,34.1c-0.1,2.6,1.9,6.2,3.1,9.6c0.6,2.7,2.3,3.3,2.9,4.2c1.3,1.6,0.4,2.8-2.1,2.8c-0.5,0-0.4,0-0.1,0.3  c3.3,3.5-1.3,3.8-8.1,3.1c-2.6-0.3-4.1-2.9-5.1-5.9c-0.1-0.4-0.1-0.6-0.2,0c0,0.7-0.1,1.4-0.1,2.1c0,0.3-1,0.3-1,0  c-0.2-3,0.2-6.2-1.9-8.7c-1-1.1-1.2-1.9-1.2-2.9c0.1-1.1,0.7-2.8,1.3-4.1c0.5-1,0.7-1.6,0.8-2.8c0.8-8.6-2.5-22.5,3.5-31.6  c1.3-1.8,1.8-4,0.8-6.6c-2.5-7.8-5.9-15.6-10.8-23.6c-0.5-0.7-2.4-0.3-2.9-1.1c-2.2-3.4-1.4-8.4-1.3-12.9c0-2.2-0.2-2.4-1.6-4  c-4.7-5.3-7.7-10-10.7-16.5c-0.4-0.9-0.9-1.7-1.4-2.6c-0.7-1.2-1.1-2.5-0.9-4c0.1-1,0.3-1.9,0.4-2.9c0.4-3.2,1.7-6.5,3.1-9.9  c0.7-1.8,0.9-2.2,1.3-4c1.1-5.4,2.3-10.7,6.4-12C795.1,48.7,795,48.8,794.9,47.9L794.9,47.9z M825.7,71.6c-0.2,5.1-1.9,9.1,0.5,14.9  c0.5,1.3,2,2.2,3.1,3.6c1.5,1.9,1.1,2.1,1-0.6c-0.1-3.2-0.1-6.9-0.3-9.7c-0.1-1.8,0-4.2-1-5.6c-0.6-0.8-1.4-2-2.1-3.1  C825.4,68.9,825.8,69.2,825.7,71.6z M794,75.5c-0.1,0.3-0.3,0.6-0.4,0.9c-0.9,1.8-1,2.3-0.2,4.2c1.2,3.1,2.1,6,3.8,8.9  c0.5,0.9,1.1,1.2,1.2-0.4c0.2-2.4,0.8-3.8,0.3-6.4c-0.4-2.2-1.3-4.3-2.7-7.1C794.9,73.4,795.2,73.2,794,75.5L794,75.5z M874.9,191.5  c-1.4,1.9-2,3.8-1.6,5.6c0.1,0.4,0.1,0.4,0,0.7c-0.2,0.5-0.1,1.2,0,1.7c1.1,3.4,7.9,3.7,11.6,1.9c1.1-0.6,0.8-1.9,0.7-2.6  c-0.2-2.6,1.1-4.3,0.3-7.4c-0.3-0.7,1-1.1,2-1.5c1.6-0.5,2.4-1.7,2-2.8c-0.7-2.9-2.9-4.9-2.5-7.8c0.7-3.9,0.4-6.7-0.7-10.4  c-1.1-3.5-1.7-6.7-1.2-9.7c0.9-2.8,1.4-6.6,1.6-11.6c1.2-7.5,2.8-15.1,5.3-22.9c0.2-0.8,0.8-0.4,0.8,0.8c0.3,6,0.6,11.9,2,16.8  c2.6,5.2,2.9,8,2.4,12.7c-0.3,2.9-0.1,5.5-0.6,8.5c-0.7,4-1.9,8.2-3.6,13.2c-1.6,5.7-0.9,10.1,1.4,13.4c0.3,0.4,0.3,0.4,0.2,1  c-0.4,2.1-0.3,4,1,4.8c2,1.2,4.3,1.4,6.6,1.4c1.7,0.2,0.9,3.7,5.7,5.4c4.3,1.2,10,0.8,11.4-1.6c0.1-0.2,0-0.4,0-0.6  c0.2-2-1.4-3.7-3.2-5c-1-0.7-2.2-1.2-3-1.9c-0.8-0.7-1.8-1.6-2.4-2.5c-0.2-0.4-0.2-0.5-0.3-0.9c-0.2-1.1-1.2-2.2-1.9-3.3  c-0.3-0.5-0.3-0.4,0.1-0.7c4.9-3.3,0.9-8.6,2.2-14.8c3.2-9.4,2.1-19,3.6-28.5c0.8-3.7-0.3-5.6-0.2-8.8c1-13.4,0-26.9-3.3-41.8  c0-0.1,0-0.1,0-0.2c0.1-1,0-2-0.2-3.1c-0.1-0.2,0.1-0.3,0.1-0.5c0-4.6-2.6-21.2-1.6-23.7c0.1-0.1,0-0.1,0.2,0  c0.6,0.6,1.3,0.9,2.1,1.1c0.2,0.1,0.2,0.1,0.2,0.3c1.9,6.7,5,13,10,19c0.7,1.1,0.8,2.3-0.5,3.9c-1.2,1.6-0.7,4.1-1.1,6.5  c-0.1,0.9-0.3,2.2-0.1,3c0.2,0.8,2,0.5,2.5-0.6c0.4-0.7,0.6-1.7,0.6-2.7c0-0.4,0.1-0.6,0.5-0.7c1.7-0.4,2.2,1.1,1.8,3.4  c-0.2,1.5-1,2.9-1.1,4.8c0,1,0.6,1.3,1.4,1.1c0.1,0,0.1-0.1,0.1,0.1c0.1,1.4,1.2,1.4,2,0.8c0.1-0.1,0.1-0.1,0.1,0  c0.4,0.6,1.1,0.9,1.7,0.3c0.5-0.6,0.9-1.5,1.3-2.3c0-0.1,0-0.1,0.1,0c0.2,0.2,0.7,0.1,0.8-0.3c1.1-2.6,1.2-2.5,1.6-3.7  c0.2-1,0-2.1-0.3-2.7c-0.9-2.6-1.9-5.1-4.1-7.9c-0.2-0.3-0.2-0.3-0.2-0.6c0-1.2-0.2-2.4-0.6-3.7c-1.5-7.8-3.6-15.2-7.2-21.6  c-0.2-0.7,0.3-1.2,1.3-1.5c2.5-0.7,2.5-1.9,1.9-3.2c-2.6-6.1-6.1-12.3-9.6-18.4c-1.1-2.5-3.1-4.6-5.7-6.5c-3-2-7.9-3.7-12.5-5.4  c-0.2-0.1-0.2-0.1-0.1-0.2c0.5-0.7,0.7-1.2,0.9-2.2c0.2-0.8,0.5-1.6,0.6-2.4c0-0.3,0-0.3,0.3-0.5c0.4-0.3,0.7-0.7,0.7-1.2  c0-0.4,0-0.5,0.1-0.9c0.9-2.8,1.3-5-0.3-5.7c-0.4-0.2-0.3-0.1-0.3-0.6c0.5-4.1,1.3-7.7-2.9-10.1c-0.3-0.2-0.6-0.4-0.9-0.6  c-3.5-2.9-8.2-3.1-11.5-1.3c-0.2,0.1-0.5,0.2-0.8,0.3c-5.4,1.5-5.5,6-4.1,12.7c0.2,1,0.2,0.7-0.8,0.9c-2.3,0.3-2.1,2.5-0.4,5.9  c0.2,0.3,0.3,0.7,0.5,1c0.4,0.8,0.8,1.1,1.2,1.1c0.3,0,0.4,0,0.4,0.3c0,0.1,0,0.2,0,0.3c0,0.2,0,0.3-0.3,0.5c-0.7,0.6-1.3,2-1.8,3.5  c-0.4,1.1-0.7,1.1-1.8,1.5c-6.4,2.8-12.6,5.8-15.7,11.8c-1.4,2.2-1.3,6-2.7,8.3c-3.5,5.6-5.1,11.4-7.2,17.8c-1,2.2,3.5,3.1,5.4,3.8  c0.5,0.2,0.5,0.6,0.5,1.4c0.2,2.9-1.3,10.2-1.6,14.3c-0.1,3.2,0.5,12.7,2.1,19.5c0.2,1,0.2,1.4,0,2.4c-0.2,1.7-0.2,3.6-0.8,5  c-0.7,1.4-0.3,3-0.5,6.7c-0.1,1.3,0.7,2,1.4,2.2c0.1,0,0.1,0,0.1,0.1c0.4,1.1,0.6,1.4,1.6,1.3c0.2,0,0.1,0,0.2,0.1  c0.5,0.8,1.2,0.6,2.1,1.7c0.9,1.1,1.8,0.8,2.7,0.9c0.5,0.1,1,0.1,1.5,0.1c0.6,0,1.3,0.5,1.5,0.7c0.6,0.3,1.1-0.9,0.4-1.5  c-1-0.9-1.5-2-2.2-2.8c-0.4-0.4-0.3-0.3-0.3-0.9c0-0.8-0.2-1.4-0.4-1.9c-0.1-0.3-0.2-0.5-0.2-0.9c0-0.4,0.1-0.8,0-1.2  c-0.1-0.6,0.2-1.1,0.4-1.3c0.4-0.3,1-0.1,1.2,0.2c0.6,0.8,0.6,2,0.9,2.9c0.4,1.1,1,1.9,1.9,2.3c1.1,0.3,1.4-0.3,1.2-0.9  c-0.3-1.3-0.2-2.7-0.7-3.6c-1.3-2.8-1.8-6.3-4.6-9.3c-1.5-2.3-1.1-8.4-1.1-12c-0.1-3.7,1-5.9,1.4-10.5c0.1-1.1,1.1-13.8,2-13.8  c1.6,0.1,2.2,0.2,3.7,0c0.6-0.1-0.8,14.2-1,14.9c-0.3,1.3-0.6,2.3-0.7,3.7c-0.1,1-0.4,2.9-0.3,4.4c0.1,6.8,0.3,11.3,0.3,11.8  c0.2,3.7,1.4,7.3,1.8,10.8c0.1,0.6,0.1,1.3,0.1,1.9c-0.7,5.2-1,10.3-0.3,15.3c0.5,8.3,2,15.1,3,22.6c1.2,7.6-0.9,14.8,1.7,22.3  c0.1,0.2,0,0.3-0.1,0.5c-1.3,3.8-1.5,7.4,0.4,10.5C875.1,191.2,875.1,191.2,874.9,191.5L874.9,191.5z" fill-rule="evenodd"  clip-rule="evenodd"  fill="#0096D6"  /></svg>