<svg viewBox="0 0 794.7 283.7" role="img" aria-labelledby="aimes-gs--title" xmlns="http://www.w3.org/2000/svg" xmlns:xlink="http://www.w3.org/1999/xlink"><title id="aimes-gs--title">AIMES - Assessing the Impact of Early Surgical Care in Gastroshisis</title><g><path d="M16,226.8H4.6l-2.2,5.9c-0.1,0.4-0.5,0.6-0.8,0.6c-0.1,0-0.2,0-0.3,0c-0.4-0.2-0.7-0.7-0.5-1.1l8.7-23.2   c0.1-0.3,0.5-0.5,0.9-0.5c0.4,0,0.8,0.2,0.9,0.5l8.7,23.2c0.2,0.4,0,1-0.5,1.1c-0.1,0-0.2,0-0.3,0c-0.3,0-0.7-0.2-0.8-0.6L16,226.8   z M5.3,225h10.1l-5-13.4L5.3,225z" fill="#005DAA"  /><path d="M23.8,229.6c0.3-0.4,0.8-0.4,1.2-0.1c1.2,0.9,3.1,2,5.4,2c1.4,0,2.5-0.4,3.3-1.1c0.9-0.6,1.3-1.4,1.3-2.1   c0-0.8-0.4-1.4-1.3-2.1c-0.8-0.6-2-1-3.7-1.3l-0.1,0c-1.6-0.3-3-0.6-4-1.4c-1.1-0.6-1.9-1.8-1.9-3.1c0-1.4,0.8-2.6,1.9-3.4   c1-0.7,2.5-1.2,4.3-1.2c2.3,0,3.9,1,5.2,1.9c0.4,0.3,0.5,0.8,0.3,1.2c-0.3,0.4-0.8,0.5-1.2,0.3c-1.3-0.9-2.6-1.8-4.3-1.8   c-1.4,0-2.6,0.4-3.3,1c-0.7,0.6-1.1,1.3-1.1,2s0.3,1.2,1,1.8c0.8,0.5,2,1,3.6,1.2h0.1c1.7,0.3,3,0.8,4.3,1.4c1.1,0.8,2,2.1,2,3.6   s-0.8,2.6-2,3.5c-1.2,0.9-2.6,1.4-4.4,1.4c-2.8,0-5-1.4-6.5-2.5C23.6,230.4,23.5,230,23.8,229.6z" fill="#005DAA"  /><path d="M41,229.6c0.3-0.4,0.8-0.4,1.2-0.1c1.2,0.9,3.1,2,5.4,2c1.4,0,2.5-0.4,3.3-1.1c0.9-0.6,1.3-1.4,1.3-2.1   c0-0.8-0.4-1.4-1.3-2.1c-0.8-0.6-2-1-3.7-1.3l-0.1,0c-1.6-0.3-3-0.6-4-1.4c-1.1-0.6-1.9-1.8-1.9-3.1c0-1.4,0.8-2.6,1.9-3.4   c1-0.7,2.5-1.2,4.3-1.2c2.3,0,3.9,1,5.2,1.9c0.4,0.3,0.5,0.8,0.3,1.2c-0.3,0.4-0.8,0.5-1.2,0.3c-1.3-0.9-2.6-1.8-4.3-1.8   c-1.4,0-2.6,0.4-3.3,1c-0.7,0.6-1.1,1.3-1.1,2s0.3,1.2,1,1.8c0.8,0.5,2,1,3.6,1.2h0.1c1.7,0.3,3,0.8,4.3,1.4c1.1,0.8,2,2.1,2,3.6   s-0.8,2.6-2,3.5c-1.2,0.9-2.6,1.4-4.4,1.4c-2.8,0-5-1.4-6.5-2.5C40.8,230.4,40.7,230,41,229.6z" fill="#005DAA"  /><path d="M58.6,224.5c0-4.9,3.8-8.8,8.5-8.8c4.5,0,8.1,3.6,8.4,8.1v0v0.1c0,0.5-0.4,0.8-0.9,0.8H60.3   c0.2,3.8,3.2,6.7,6.8,6.7c2.3,0,4.5-1.2,5.6-3.2c0.3-0.4,0.8-0.5,1.1-0.3c0.4,0.3,0.5,0.8,0.3,1.2c-1.5,2.4-4.1,4-7.1,4   C62.4,233.3,58.6,229.3,58.6,224.5z M60.4,223.1h13.3c-0.6-3.3-3.4-5.7-6.6-5.7C63.8,217.5,61,219.8,60.4,223.1z" fill="#005DAA"  /><path d="M80.4,229.6c0.3-0.4,0.8-0.4,1.2-0.1c1.2,0.9,3.1,2,5.4,2c1.4,0,2.5-0.4,3.3-1.1c0.9-0.6,1.3-1.4,1.3-2.1   c0-0.8-0.4-1.4-1.3-2.1c-0.8-0.6-2-1-3.7-1.3l-0.1,0c-1.6-0.3-3-0.6-4-1.4c-1.1-0.6-1.9-1.8-1.9-3.1c0-1.4,0.8-2.6,1.9-3.4   c1-0.7,2.5-1.2,4.3-1.2c2.3,0,3.9,1,5.2,1.9c0.4,0.3,0.5,0.8,0.3,1.2c-0.3,0.4-0.8,0.5-1.2,0.3c-1.3-0.9-2.6-1.8-4.3-1.8   c-1.4,0-2.6,0.4-3.3,1c-0.7,0.6-1.1,1.3-1.1,2s0.3,1.2,1,1.8c0.8,0.5,2,1,3.6,1.2h0.1c1.7,0.3,3,0.8,4.3,1.4c1.1,0.8,2,2.1,2,3.6   s-0.8,2.6-2,3.5c-1.2,0.9-2.6,1.4-4.4,1.4c-2.8,0-5-1.4-6.5-2.5C80.1,230.4,80.1,230,80.4,229.6z" fill="#005DAA"  /><path d="M97.6,229.6c0.3-0.4,0.8-0.4,1.2-0.1c1.2,0.9,3.1,2,5.4,2c1.4,0,2.5-0.4,3.3-1.1c0.9-0.6,1.3-1.4,1.3-2.1   c0-0.8-0.4-1.4-1.3-2.1c-0.8-0.6-2-1-3.7-1.3l-0.1,0c-1.6-0.3-3-0.6-4-1.4c-1.1-0.6-1.9-1.8-1.9-3.1c0-1.4,0.8-2.6,1.9-3.4   c1-0.7,2.5-1.2,4.3-1.2c2.3,0,3.9,1,5.2,1.9c0.4,0.3,0.5,0.8,0.3,1.2c-0.3,0.4-0.8,0.5-1.2,0.3c-1.3-0.9-2.6-1.8-4.3-1.8   c-1.4,0-2.6,0.4-3.3,1c-0.7,0.6-1.1,1.3-1.1,2s0.3,1.2,1,1.8c0.8,0.5,2,1,3.6,1.2h0.1c1.7,0.3,3,0.8,4.3,1.4c1.1,0.8,2,2.1,2,3.6   s-0.8,2.6-2,3.5c-1.2,0.9-2.6,1.4-4.4,1.4c-2.8,0-5-1.4-6.5-2.5C97.4,230.4,97.3,230,97.6,229.6z" fill="#005DAA"  /><path d="M116.4,210.9c0-0.5,0.4-0.9,0.9-0.9c0.5,0,0.9,0.4,0.9,0.9v0.8c0,0.5-0.4,0.9-0.9,0.9   c-0.5,0-0.9-0.4-0.9-0.9V210.9z M116.4,216.6c0-0.5,0.4-0.9,0.9-0.9c0.5,0,0.9,0.4,0.9,0.9v15.8c0,0.5-0.4,0.9-0.9,0.9   c-0.5,0-0.9-0.4-0.9-0.9V216.6z" fill="#005DAA"  /><path d="M139,222.9c0-3-2.4-5.4-5.4-5.4c-3,0-5.4,2.4-5.4,5.4v9.5v0.1c0,0.1-0.1,0.3-0.2,0.4   c-0.1,0.2-0.4,0.3-0.6,0.3h-0.2c-0.3-0.1-0.5-0.3-0.6-0.5c0,0,0-0.1,0-0.1c0,0,0-0.1,0-0.1v-0.2v-9.5v-0.3v-6   c0-0.5,0.4-0.9,0.9-0.9c0.5,0,0.8,0.4,0.8,0.9v1.7c1.3-1.5,3.3-2.5,5.4-2.5c3.9,0,7.1,3.2,7.1,7.1v9.5c0,0.5-0.4,0.9-0.9,0.9   c-0.5,0-0.9-0.4-0.9-0.9V222.9z" fill="#005DAA"  /><path d="M163.7,231.9c0,4.5-3.7,8.2-8.3,8.2c-1.3,0-2.5-0.3-3.6-0.8c-0.4-0.3-0.6-0.8-0.4-1.1   c0.2-0.5,0.7-0.6,1.1-0.4c0.9,0.4,1.8,0.6,2.9,0.6c3.6,0,6.5-2.9,6.5-6.5v-2.1c-1.5,2.1-3.9,3.4-6.5,3.4c-4.6,0-8.2-3.9-8.2-8.7   c0-4.7,3.6-8.7,8.2-8.7c2.7,0,5.1,1.4,6.5,3.4v-2.6c0-0.5,0.4-0.9,0.9-0.9c0.4,0,0.8,0.4,0.8,0.9V231.9z M161.9,224.4   c0-3.9-2.9-7-6.5-7c-3.6,0-6.5,3.1-6.5,7c0,3.9,2.9,7,6.5,7C159,231.5,161.9,228.4,161.9,224.4z" fill="#005DAA"  /><path d="M188.8,216.6c0,0.4-0.4,0.9-0.9,0.9h-2.3v12.8c0,0.9,0.9,1.3,1.3,1.3s0.9,0.5,0.9,0.9s-0.5,0.9-0.9,0.9   c-1.8,0-3.1-1.3-3.1-3v-12.8h-2.2c-0.9,0-0.9-0.4-0.9-0.9s0-0.9,0.9-0.9h2.2v-6.5c0-0.4,0.4-0.9,0.9-0.9c0.5,0,0.9,0.4,0.9,0.9v6.5   h2.3C188.3,215.7,188.8,216.2,188.8,216.6z" fill="#005DAA"  /><path d="M209.1,222.6c0-3.1-2.5-5.1-5.6-5.1c-3,0-5.5,2.1-5.5,5.1v9.8v0.1c0,0.1,0,0.1,0,0.1c0,0.1,0,0.1-0.1,0.1   c-0.1,0.2-0.3,0.4-0.5,0.4c0,0,0,0-0.1,0h-0.1h-0.1c-0.3,0-0.5-0.1-0.7-0.3c-0.1-0.1-0.1-0.2-0.1-0.3c0-0.1,0-0.2,0-0.3v-9.8v-0.3   v-13.3c0-0.5,0.4-0.9,0.9-0.9c0.5,0,0.9,0.4,0.9,0.9v9.2c1.3-1.6,3.3-2.6,5.5-2.6c4,0,7.3,2.9,7.3,6.9v9.8c0,0.5-0.4,0.9-0.9,0.9   c-0.5,0-0.9-0.4-0.9-0.9V222.6z" fill="#005DAA"  /><path d="M216.9,224.5c0-4.9,3.8-8.8,8.5-8.8c4.5,0,8.1,3.6,8.4,8.1v0v0.1c0,0.5-0.4,0.8-0.9,0.8h-14.4   c0.2,3.8,3.2,6.7,6.8,6.7c2.3,0,4.5-1.2,5.6-3.2c0.3-0.4,0.8-0.5,1.1-0.3c0.4,0.3,0.5,0.8,0.3,1.2c-1.5,2.4-4.1,4-7.1,4   C220.7,233.3,216.9,229.3,216.9,224.5z M218.7,223.1H232c-0.6-3.3-3.4-5.7-6.6-5.7C222.1,217.5,219.4,219.8,218.7,223.1z" fill="#005DAA"  /><path d="M251.3,209.1c0-0.5,0.4-0.9,0.9-0.9c0.5,0,0.9,0.4,0.9,0.9v23.3c0,0.5-0.4,0.9-0.9,0.9   c-0.5,0-0.9-0.4-0.9-0.9V209.1z" fill="#005DAA"  /><path d="M286.6,222.9c-0.1-3-2.4-5.4-5.4-5.4c-3,0-5.4,2.5-5.4,5.4v9.5v0.1c0,0,0,0.1,0,0.1v0.1   c-0.1,0.2-0.3,0.4-0.4,0.5c-0.1,0.1-0.3,0.1-0.4,0.1h-0.1h-0.1c0,0-0.1,0-0.1,0c-0.1,0-0.1-0.1-0.2-0.1c0,0-0.1,0-0.1-0.1l-0.1-0.1   c0,0,0-0.1-0.1-0.1c0,0,0,0,0-0.1c0,0,0,0,0-0.1c0,0,0-0.1,0-0.1v-0.1v-0.1v-9.5c0-3-2.4-5.4-5.4-5.4c-3,0-5.4,2.5-5.4,5.4v9.5   c0,0.3-0.1,0.5-0.4,0.7c0,0-0.1,0.1-0.2,0.1c0,0-0.1,0-0.1,0h-0.1h-0.1c-0.3,0-0.6-0.3-0.7-0.6v-0.2v-9.5v-0.3v-6   c0-0.5,0.4-0.8,0.8-0.8c0.5,0,0.9,0.4,0.9,0.8v1.7c1.3-1.5,3.2-2.5,5.4-2.5c2.7,0,5,1.5,6.3,3.7c1.3-2.2,3.6-3.7,6.3-3.7   c3.9,0,7.1,3.2,7.1,7.1v9.5c0,0.4-0.4,0.8-0.9,0.8c-0.5,0-0.8-0.4-0.8-0.8V222.9z" fill="#005DAA"  /><path d="M295.5,224.8v-0.4v-0.4v-7.5c0-0.5,0.4-0.9,0.9-0.9c0.5,0,0.9,0.4,0.9,0.9v2.5c1.5-2,3.9-3.4,6.6-3.4   c4.7,0,8.5,3.9,8.5,8.7c0,4.8-3.8,8.7-8.5,8.7c-2.7,0-5.1-1.4-6.6-3.4v10c0,0.5-0.4,0.9-0.9,0.9c-0.5,0-0.9-0.4-0.9-0.9V224.8z    M297.3,224.4c0,3.9,3,7,6.6,7c3.7,0,6.7-3.1,6.7-7s-3-6.9-6.7-6.9c-3.5,0-6.5,2.9-6.6,6.6V224.4z" fill="#005DAA"  /><path d="M333.8,216.6v15.8c0,0.5-0.4,0.9-0.9,0.9s-0.9-0.4-0.9-0.9v-2.6c-1.5,2.1-3.9,3.5-6.6,3.5   c-4.6,0-8.3-4-8.3-8.8c0-4.8,3.7-8.8,8.3-8.8c2.7,0,5.1,1.4,6.6,3.4v-2.6c0-0.5,0.4-0.9,0.9-0.9S333.8,216.1,333.8,216.6z    M332.1,224.5c0-3.9-3-7.1-6.6-7.1c-3.6,0-6.6,3.1-6.6,7.1c0,3.9,3,7,6.6,7C329.1,231.5,332.1,228.4,332.1,224.5z" fill="#005DAA"  /><path d="M340,224.5c0-4.9,4-8.7,9-8.7c2.1,0,4,0.7,5.6,1.9c0.4,0.3,0.4,0.8,0.1,1.2c-0.3,0.3-0.8,0.4-1.2,0.1   c-1.3-1-2.8-1.6-4.5-1.6c-4.1,0-7.3,3.2-7.3,7c0,3.9,3.2,7.1,7.3,7.1c1.7,0,3.3-0.6,4.5-1.5c0.4-0.3,0.9-0.2,1.2,0.1   c0.3,0.4,0.3,0.9-0.2,1.3c-1.5,1.1-3.4,1.9-5.5,1.9C344,233.3,340,229.4,340,224.5z" fill="#005DAA"  /><path d="M367.8,216.6c0,0.4-0.4,0.9-0.9,0.9h-2.3v12.8c0,0.9,0.9,1.3,1.3,1.3c0.4,0,0.9,0.5,0.9,0.9   s-0.5,0.9-0.9,0.9c-1.8,0-3.1-1.3-3.1-3v-12.8h-2.2c-0.9,0-0.9-0.4-0.9-0.9s0-0.9,0.9-0.9h2.2v-6.5c0-0.4,0.4-0.9,0.9-0.9   c0.5,0,0.9,0.4,0.9,0.9v6.5h2.3C367.3,215.7,367.8,216.2,367.8,216.6z" fill="#005DAA"  /><path d="M394.1,215.7c4.6,0,8.3,4,8.3,8.8s-3.7,8.8-8.3,8.8c-4.6,0-8.3-4-8.3-8.8S389.6,215.7,394.1,215.7z    M394.1,231.5c3.6,0,6.6-3.1,6.6-7c0-3.9-3-7.1-6.6-7.1c-3.6,0-6.6,3.2-6.6,7.1C387.6,228.4,390.6,231.5,394.1,231.5z" fill="#005DAA"  /><path d="M415.5,209.2c0,0.5-0.4,0.9-0.9,0.9c-1.2,0-1.9,0.3-2.2,0.7c-0.4,0.4-0.7,1.3-0.7,2.9v1.9h2.5   c0.5,0,0.9,0.4,0.9,0.9c0,0.5-0.4,0.9-0.9,0.9h-2.5v15.2c0,0.5-0.4,0.9-0.9,0.9c-0.5,0-0.9-0.4-0.9-0.9v-15.2h-2.3   c-0.5,0-0.9-0.4-0.9-0.9c0-0.5,0.4-0.9,0.9-0.9h2.3v-1.9c0-1.8,0.3-3.1,1.1-4.1c0.9-0.9,2.1-1.3,3.5-1.3   C415.1,208.3,415.5,208.7,415.5,209.2z" fill="#005DAA"  /><path d="M431.8,209.1c0-0.5,0.4-0.9,0.9-0.9h0.1h12.8c0.5,0,0.9,0.4,0.9,0.9c0,0.5-0.4,0.9-0.9,0.9h-12v9.9H444   c0.5,0,0.9,0.4,0.9,0.9c0,0.5-0.4,0.9-0.9,0.9h-10.5v9.9h12c0.5,0,0.9,0.4,0.9,0.9c0,0.5-0.4,0.9-0.9,0.9h-12.8h-0.1h-0.1   c-0.4,0-0.8-0.4-0.8-0.9V209.1z" fill="#005DAA"  /><path d="M467.3,216.6v15.8c0,0.5-0.4,0.9-0.9,0.9s-0.9-0.4-0.9-0.9v-2.6c-1.5,2.1-3.9,3.5-6.6,3.5   c-4.6,0-8.3-4-8.3-8.8c0-4.8,3.7-8.8,8.3-8.8c2.7,0,5.1,1.4,6.6,3.4v-2.6c0-0.5,0.4-0.9,0.9-0.9S467.3,216.1,467.3,216.6z    M465.6,224.5c0-3.9-3-7.1-6.6-7.1c-3.6,0-6.6,3.1-6.6,7.1c0,3.9,3,7,6.6,7C462.6,231.5,465.6,228.4,465.6,224.5z" fill="#005DAA"  /><path d="M474.7,216.6c0-0.5,0.4-0.9,0.9-0.9c0.4,0,0.8,0.4,0.8,0.9v3.9c0.1-0.1,0.1-0.3,0.3-0.4   c1.3-2.1,3.6-4.3,7-4.3c0.5,0,0.9,0.4,0.9,0.9c0,0.5-0.4,0.9-0.9,0.9c-2.3,0-3.9,1.3-5.1,2.9c-1.2,1.6-1.9,3.4-2.1,4.1   c-0.1,0.1-0.1,0.2-0.1,0.3v7.7c0,0.5-0.4,0.9-0.8,0.9c-0.5,0-0.9-0.4-0.9-0.9V216.6z" fill="#005DAA"  /><path d="M490.7,209.1c0-0.5,0.4-0.9,0.9-0.9c0.5,0,0.9,0.4,0.9,0.9v23.3c0,0.5-0.4,0.9-0.9,0.9   c-0.5,0-0.9-0.4-0.9-0.9V209.1z" fill="#005DAA"  /><path d="M500.2,216.6c0-0.5,0.4-0.8,0.8-0.8c0.5,0,0.9,0.4,0.9,0.8v9.5c0,3,2.4,5.4,5.4,5.4c3,0,5.4-2.4,5.4-5.4   v-9.5c0-0.1,0-0.3,0.1-0.4c0,0,0-0.1,0-0.1c0,0,0,0,0.1,0c0.1-0.1,0.2-0.2,0.3-0.2h0.1c0,0,0.1,0,0.1,0h0.1h0.1   c0.1,0,0.3,0.1,0.4,0.2c0.1,0.1,0.2,0.2,0.2,0.3c0.1,0.1,0.1,0.3,0.1,0.4v9.5v0.3v5.5c0,4.6-3.7,8.2-8.3,8.2   c-1.3,0-2.5-0.3-3.6-0.8c-0.4-0.3-0.6-0.8-0.4-1.1c0.2-0.4,0.7-0.5,1.1-0.4c0.9,0.4,1.9,0.7,2.9,0.7c3.6,0,6.6-2.9,6.6-6.5v-1.1   c-1.3,1.5-3.3,2.5-5.4,2.5c-3.9,0-7.1-3.2-7.1-7.1V216.6z" fill="#005DAA"  /><path d="M532.6,228.6c0.3-0.4,0.8-0.4,1.1-0.1c1.9,1.5,5,3.3,8.2,3.2c2.2,0,4.1-0.6,5.5-1.6c1.4-1,2.1-2.3,2.1-3.7   c0-1.4-0.7-2.5-2-3.4c-1.4-0.9-3.4-1.6-5.8-2h-0.1c-2.3-0.4-4.4-1.1-5.9-2.1c-1.5-1-2.6-2.5-2.6-4.4c0-1.9,1-3.5,2.6-4.7   s3.7-1.8,6-1.8c3.3,0,5.8,1.6,7.7,2.9c0.4,0.3,0.5,0.7,0.2,1.1c-0.2,0.4-0.7,0.5-1.1,0.2c-2-1.3-4.1-2.6-6.9-2.6   c-2,0-3.9,0.6-5.1,1.5c-1.3,0.9-2,2.1-2,3.4c0,1.3,0.6,2.2,1.9,3s3.1,1.5,5.4,1.9h0.1c2.5,0.5,4.7,1.2,6.4,2.3   c1.6,1.1,2.8,2.7,2.8,4.7s-1.1,3.8-2.8,5s-3.9,2-6.4,2c-3.8,0-7.1-2-9.2-3.6C532.4,229.4,532.4,228.9,532.6,228.6z" fill="#005DAA"  /><path d="M556.9,216.6c0-0.5,0.4-0.9,0.9-0.9c0.5,0,0.9,0.4,0.9,0.9v9.5c0,3,2.4,5.4,5.4,5.4c3,0,5.4-2.4,5.4-5.4   v-9.5c0-0.5,0.4-0.9,0.9-0.9c0.5,0,0.9,0.4,0.9,0.9v9.5c0,3.9-3.2,7.1-7.2,7.1c-3.9,0-7.1-3.2-7.1-7.1V216.6z" fill="#005DAA"  /><path d="M579.1,216.6c0-0.5,0.4-0.9,0.9-0.9c0.4,0,0.8,0.4,0.8,0.9v3.9c0.1-0.1,0.1-0.3,0.3-0.4   c1.3-2.1,3.6-4.3,7-4.3c0.5,0,0.9,0.4,0.9,0.9c0,0.5-0.4,0.9-0.9,0.9c-2.3,0-3.9,1.3-5.1,2.9c-1.2,1.6-1.9,3.4-2.1,4.1   c-0.1,0.1-0.1,0.2-0.1,0.3v7.7c0,0.5-0.4,0.9-0.8,0.9c-0.5,0-0.9-0.4-0.9-0.9V216.6z" fill="#005DAA"  /><path d="M610.1,231.9c0,4.5-3.7,8.2-8.3,8.2c-1.3,0-2.5-0.3-3.6-0.8c-0.4-0.3-0.6-0.8-0.4-1.1   c0.2-0.5,0.7-0.6,1.1-0.4c0.9,0.4,1.8,0.6,2.9,0.6c3.6,0,6.5-2.9,6.5-6.5v-2.1c-1.5,2.1-3.9,3.4-6.5,3.4c-4.6,0-8.2-3.9-8.2-8.7   c0-4.7,3.6-8.7,8.2-8.7c2.7,0,5.1,1.4,6.5,3.4v-2.6c0-0.5,0.4-0.9,0.9-0.9c0.4,0,0.8,0.4,0.8,0.9V231.9z M608.4,224.4   c0-3.9-2.9-7-6.5-7c-3.6,0-6.5,3.1-6.5,7c0,3.9,2.9,7,6.5,7C605.5,231.5,608.4,228.4,608.4,224.4z" fill="#005DAA"  /><path d="M618.4,210.9c0-0.5,0.4-0.9,0.9-0.9c0.5,0,0.9,0.4,0.9,0.9v0.8c0,0.5-0.4,0.9-0.9,0.9   c-0.5,0-0.9-0.4-0.9-0.9V210.9z M618.4,216.6c0-0.5,0.4-0.9,0.9-0.9c0.5,0,0.9,0.4,0.9,0.9v15.8c0,0.5-0.4,0.9-0.9,0.9   c-0.5,0-0.9-0.4-0.9-0.9V216.6z" fill="#005DAA"  /><path d="M627.2,224.5c0-4.9,4-8.7,9-8.7c2.1,0,4,0.7,5.6,1.9c0.4,0.3,0.4,0.8,0.1,1.2c-0.3,0.3-0.8,0.4-1.2,0.1   c-1.3-1-2.8-1.6-4.5-1.6c-4.1,0-7.3,3.2-7.3,7c0,3.9,3.2,7.1,7.3,7.1c1.7,0,3.3-0.6,4.5-1.5c0.4-0.3,0.9-0.2,1.2,0.1   c0.3,0.4,0.3,0.9-0.2,1.3c-1.5,1.1-3.4,1.9-5.5,1.9C631.2,233.3,627.2,229.4,627.2,224.5z" fill="#005DAA"  /><path d="M663.5,216.6v15.8c0,0.5-0.4,0.9-0.9,0.9s-0.9-0.4-0.9-0.9v-2.6c-1.5,2.1-3.9,3.5-6.6,3.5   c-4.6,0-8.3-4-8.3-8.8c0-4.8,3.7-8.8,8.3-8.8c2.7,0,5.1,1.4,6.6,3.4v-2.6c0-0.5,0.4-0.9,0.9-0.9S663.5,216.1,663.5,216.6z    M661.8,224.5c0-3.9-3-7.1-6.6-7.1c-3.6,0-6.6,3.1-6.6,7.1c0,3.9,3,7,6.6,7C658.9,231.5,661.8,228.4,661.8,224.5z" fill="#005DAA"  /><path d="M671.7,209.1c0-0.5,0.4-0.9,0.9-0.9c0.5,0,0.9,0.4,0.9,0.9v23.3c0,0.5-0.4,0.9-0.9,0.9   c-0.5,0-0.9-0.4-0.9-0.9V209.1z" fill="#005DAA"  /><path d="M703.4,207.9c3.1,0,5.9,1.1,8.1,2.8c0.4,0.3,0.5,0.9,0.1,1.3c-0.3,0.4-0.9,0.5-1.2,0.2   c-1.9-1.5-4.4-2.4-7-2.4c-6.3,0-11.3,4.9-11.3,11c0,6,5,10.9,11.3,10.9c2.6,0,5.1-0.9,6.9-2.4c0.4-0.3,1-0.2,1.3,0.2   c0.4,0.3,0.3,1-0.1,1.3c-2.2,1.7-5,2.7-8.1,2.7c-7.2,0-13-5.6-13-12.6C690.4,213.5,696.2,207.9,703.4,207.9z" fill="#005DAA"  /><path d="M733.3,216.6v15.8c0,0.5-0.4,0.9-0.9,0.9s-0.9-0.4-0.9-0.9v-2.6c-1.5,2.1-3.9,3.5-6.6,3.5   c-4.6,0-8.3-4-8.3-8.8c0-4.8,3.7-8.8,8.3-8.8c2.7,0,5.1,1.4,6.6,3.4v-2.6c0-0.5,0.4-0.9,0.9-0.9S733.3,216.1,733.3,216.6z    M731.6,224.5c0-3.9-3-7.1-6.6-7.1c-3.6,0-6.6,3.1-6.6,7.1c0,3.9,3,7,6.6,7C728.7,231.5,731.6,228.4,731.6,224.5z" fill="#005DAA"  /><path d="M740.8,216.6c0-0.5,0.4-0.9,0.9-0.9c0.4,0,0.8,0.4,0.8,0.9v3.9c0.1-0.1,0.1-0.3,0.3-0.4   c1.3-2.1,3.6-4.3,7-4.3c0.5,0,0.9,0.4,0.9,0.9c0,0.5-0.4,0.9-0.9,0.9c-2.3,0-3.9,1.3-5.1,2.9c-1.2,1.6-1.9,3.4-2.1,4.1   c-0.1,0.1-0.1,0.2-0.1,0.3v7.7c0,0.5-0.4,0.9-0.8,0.9c-0.5,0-0.9-0.4-0.9-0.9V216.6z" fill="#005DAA"  /><path d="M753.4,224.5c0-4.9,3.8-8.8,8.5-8.8c4.5,0,8.1,3.6,8.4,8.1v0v0.1c0,0.5-0.4,0.8-0.9,0.8h-14.4   c0.2,3.8,3.2,6.7,6.8,6.7c2.3,0,4.5-1.2,5.6-3.2c0.3-0.4,0.8-0.5,1.1-0.3c0.4,0.3,0.5,0.8,0.3,1.2c-1.5,2.4-4.1,4-7.1,4   C757.2,233.3,753.4,229.3,753.4,224.5z M755.2,223.1h13.3c-0.6-3.3-3.4-5.7-6.6-5.7C758.6,217.5,755.9,219.8,755.2,223.1z" fill="#005DAA"  />
	
	
	
	
	
	
	
	
	
	
	
	
	
	
	
	
	
	
	
	
	
	
	
	
	
	
	
	
	
	
	
	
	
	
	
	
	
</g><g><path d="M16,226.8H4.6l-2.2,5.9   c-0.1,0.4-0.5,0.6-0.8,0.6c-0.1,0-0.2,0-0.3,0c-0.4-0.2-0.7-0.7-0.5-1.1l8.7-23.2c0.1-0.3,0.5-0.5,0.9-0.5c0.4,0,0.8,0.2,0.9,0.5   l8.7,23.2c0.2,0.4,0,1-0.5,1.1c-0.1,0-0.2,0-0.3,0c-0.3,0-0.7-0.2-0.8-0.6L16,226.8z M5.3,225h10.1l-5-13.4L5.3,225z" fill="none"  stroke="#005DAA"  stroke-width="0.504"  stroke-miterlimit="10"  /><path d="M23.8,229.6c0.3-0.4,0.8-0.4,1.2-0.1   c1.2,0.9,3.1,2,5.4,2c1.4,0,2.5-0.4,3.3-1.1c0.9-0.6,1.3-1.4,1.3-2.1c0-0.8-0.4-1.4-1.3-2.1c-0.8-0.6-2-1-3.7-1.3l-0.1,0   c-1.6-0.3-3-0.6-4-1.4c-1.1-0.6-1.9-1.8-1.9-3.1c0-1.4,0.8-2.6,1.9-3.4c1-0.7,2.5-1.2,4.3-1.2c2.3,0,3.9,1,5.2,1.9   c0.4,0.3,0.5,0.8,0.3,1.2c-0.3,0.4-0.8,0.5-1.2,0.3c-1.3-0.9-2.6-1.8-4.3-1.8c-1.4,0-2.6,0.4-3.3,1c-0.7,0.6-1.1,1.3-1.1,2   s0.3,1.2,1,1.8c0.8,0.5,2,1,3.6,1.2h0.1c1.7,0.3,3,0.8,4.3,1.4c1.1,0.8,2,2.1,2,3.6s-0.8,2.6-2,3.5c-1.2,0.9-2.6,1.4-4.4,1.4   c-2.8,0-5-1.4-6.5-2.5C23.6,230.4,23.5,230,23.8,229.6z" fill="none"  stroke="#005DAA"  stroke-width="0.504"  stroke-miterlimit="10"  /><path d="M41,229.6c0.3-0.4,0.8-0.4,1.2-0.1   c1.2,0.9,3.1,2,5.4,2c1.4,0,2.5-0.4,3.3-1.1c0.9-0.6,1.3-1.4,1.3-2.1c0-0.8-0.4-1.4-1.3-2.1c-0.8-0.6-2-1-3.7-1.3l-0.1,0   c-1.6-0.3-3-0.6-4-1.4c-1.1-0.6-1.9-1.8-1.9-3.1c0-1.4,0.8-2.6,1.9-3.4c1-0.7,2.5-1.2,4.3-1.2c2.3,0,3.9,1,5.2,1.9   c0.4,0.3,0.5,0.8,0.3,1.2c-0.3,0.4-0.8,0.5-1.2,0.3c-1.3-0.9-2.6-1.8-4.3-1.8c-1.4,0-2.6,0.4-3.3,1c-0.7,0.6-1.1,1.3-1.1,2   s0.3,1.2,1,1.8c0.8,0.5,2,1,3.6,1.2h0.1c1.7,0.3,3,0.8,4.3,1.4c1.1,0.8,2,2.1,2,3.6s-0.8,2.6-2,3.5c-1.2,0.9-2.6,1.4-4.4,1.4   c-2.8,0-5-1.4-6.5-2.5C40.8,230.4,40.7,230,41,229.6z" fill="none"  stroke="#005DAA"  stroke-width="0.504"  stroke-miterlimit="10"  /><path d="M58.6,224.5c0-4.9,3.8-8.8,8.5-8.8   c4.5,0,8.1,3.6,8.4,8.1v0v0.1c0,0.5-0.4,0.8-0.9,0.8H60.3c0.2,3.8,3.2,6.7,6.8,6.7c2.3,0,4.5-1.2,5.6-3.2c0.3-0.4,0.8-0.5,1.1-0.3   c0.4,0.3,0.5,0.8,0.3,1.2c-1.5,2.4-4.1,4-7.1,4C62.4,233.3,58.6,229.3,58.6,224.5z M60.4,223.1h13.3c-0.6-3.3-3.4-5.7-6.6-5.7   C63.8,217.5,61,219.8,60.4,223.1z" fill="none"  stroke="#005DAA"  stroke-width="0.504"  stroke-miterlimit="10"  /><path d="M80.4,229.6c0.3-0.4,0.8-0.4,1.2-0.1   c1.2,0.9,3.1,2,5.4,2c1.4,0,2.5-0.4,3.3-1.1c0.9-0.6,1.3-1.4,1.3-2.1c0-0.8-0.4-1.4-1.3-2.1c-0.8-0.6-2-1-3.7-1.3l-0.1,0   c-1.6-0.3-3-0.6-4-1.4c-1.1-0.6-1.9-1.8-1.9-3.1c0-1.4,0.8-2.6,1.9-3.4c1-0.7,2.5-1.2,4.3-1.2c2.3,0,3.9,1,5.2,1.9   c0.4,0.3,0.5,0.8,0.3,1.2c-0.3,0.4-0.8,0.5-1.2,0.3c-1.3-0.9-2.6-1.8-4.3-1.8c-1.4,0-2.6,0.4-3.3,1c-0.7,0.6-1.1,1.3-1.1,2   s0.3,1.2,1,1.8c0.8,0.5,2,1,3.6,1.2h0.1c1.7,0.3,3,0.8,4.3,1.4c1.1,0.8,2,2.1,2,3.6s-0.8,2.6-2,3.5c-1.2,0.9-2.6,1.4-4.4,1.4   c-2.8,0-5-1.4-6.5-2.5C80.1,230.4,80.1,230,80.4,229.6z" fill="none"  stroke="#005DAA"  stroke-width="0.504"  stroke-miterlimit="10"  /><path d="M97.6,229.6c0.3-0.4,0.8-0.4,1.2-0.1   c1.2,0.9,3.1,2,5.4,2c1.4,0,2.5-0.4,3.3-1.1c0.9-0.6,1.3-1.4,1.3-2.1c0-0.8-0.4-1.4-1.3-2.1c-0.8-0.6-2-1-3.7-1.3l-0.1,0   c-1.6-0.3-3-0.6-4-1.4c-1.1-0.6-1.9-1.8-1.9-3.1c0-1.4,0.8-2.6,1.9-3.4c1-0.7,2.5-1.2,4.3-1.2c2.3,0,3.9,1,5.2,1.9   c0.4,0.3,0.5,0.8,0.3,1.2c-0.3,0.4-0.8,0.5-1.2,0.3c-1.3-0.9-2.6-1.8-4.3-1.8c-1.4,0-2.6,0.4-3.3,1c-0.7,0.6-1.1,1.3-1.1,2   s0.3,1.2,1,1.8c0.8,0.5,2,1,3.6,1.2h0.1c1.7,0.3,3,0.8,4.3,1.4c1.1,0.8,2,2.1,2,3.6s-0.8,2.6-2,3.5c-1.2,0.9-2.6,1.4-4.4,1.4   c-2.8,0-5-1.4-6.5-2.5C97.4,230.4,97.3,230,97.6,229.6z" fill="none"  stroke="#005DAA"  stroke-width="0.504"  stroke-miterlimit="10"  /><path d="M116.4,210.9c0-0.5,0.4-0.9,0.9-0.9   c0.5,0,0.9,0.4,0.9,0.9v0.8c0,0.5-0.4,0.9-0.9,0.9c-0.5,0-0.9-0.4-0.9-0.9V210.9z M116.4,216.6c0-0.5,0.4-0.9,0.9-0.9   c0.5,0,0.9,0.4,0.9,0.9v15.8c0,0.5-0.4,0.9-0.9,0.9c-0.5,0-0.9-0.4-0.9-0.9V216.6z" fill="none"  stroke="#005DAA"  stroke-width="0.504"  stroke-miterlimit="10"  /><path d="M139,222.9c0-3-2.4-5.4-5.4-5.4   c-3,0-5.4,2.4-5.4,5.4v9.5v0.1c0,0.1-0.1,0.3-0.2,0.4c-0.1,0.2-0.4,0.3-0.6,0.3h-0.2c-0.3-0.1-0.5-0.3-0.6-0.5c0,0,0-0.1,0-0.1   c0,0,0-0.1,0-0.1v-0.2v-9.5v-0.3v-6c0-0.5,0.4-0.9,0.9-0.9c0.5,0,0.8,0.4,0.8,0.9v1.7c1.3-1.5,3.3-2.5,5.4-2.5   c3.9,0,7.1,3.2,7.1,7.1v9.5c0,0.5-0.4,0.9-0.9,0.9c-0.5,0-0.9-0.4-0.9-0.9V222.9z" fill="none"  stroke="#005DAA"  stroke-width="0.504"  stroke-miterlimit="10"  /><path d="M163.7,231.9c0,4.5-3.7,8.2-8.3,8.2   c-1.3,0-2.5-0.3-3.6-0.8c-0.4-0.3-0.6-0.8-0.4-1.1c0.2-0.5,0.7-0.6,1.1-0.4c0.9,0.4,1.8,0.6,2.9,0.6c3.6,0,6.5-2.9,6.5-6.5v-2.1   c-1.5,2.1-3.9,3.4-6.5,3.4c-4.6,0-8.2-3.9-8.2-8.7c0-4.7,3.6-8.7,8.2-8.7c2.7,0,5.1,1.4,6.5,3.4v-2.6c0-0.5,0.4-0.9,0.9-0.9   c0.4,0,0.8,0.4,0.8,0.9V231.9z M161.9,224.4c0-3.9-2.9-7-6.5-7c-3.6,0-6.5,3.1-6.5,7c0,3.9,2.9,7,6.5,7   C159,231.5,161.9,228.4,161.9,224.4z" fill="none"  stroke="#005DAA"  stroke-width="0.504"  stroke-miterlimit="10"  /><path d="M188.8,216.6c0,0.4-0.4,0.9-0.9,0.9h-2.3v12.8   c0,0.9,0.9,1.3,1.3,1.3s0.9,0.5,0.9,0.9s-0.5,0.9-0.9,0.9c-1.8,0-3.1-1.3-3.1-3v-12.8h-2.2c-0.9,0-0.9-0.4-0.9-0.9s0-0.9,0.9-0.9   h2.2v-6.5c0-0.4,0.4-0.9,0.9-0.9c0.5,0,0.9,0.4,0.9,0.9v6.5h2.3C188.3,215.7,188.8,216.2,188.8,216.6z" fill="none"  stroke="#005DAA"  stroke-width="0.504"  stroke-miterlimit="10"  /><path d="M209.1,222.6c0-3.1-2.5-5.1-5.6-5.1   c-3,0-5.5,2.1-5.5,5.1v9.8v0.1c0,0.1,0,0.1,0,0.1c0,0.1,0,0.1-0.1,0.1c-0.1,0.2-0.3,0.4-0.5,0.4c0,0,0,0-0.1,0h-0.1h-0.1   c-0.3,0-0.5-0.1-0.7-0.3c-0.1-0.1-0.1-0.2-0.1-0.3c0-0.1,0-0.2,0-0.3v-9.8v-0.3v-13.3c0-0.5,0.4-0.9,0.9-0.9c0.5,0,0.9,0.4,0.9,0.9   v9.2c1.3-1.6,3.3-2.6,5.5-2.6c4,0,7.3,2.9,7.3,6.9v9.8c0,0.5-0.4,0.9-0.9,0.9c-0.5,0-0.9-0.4-0.9-0.9V222.6z" fill="none"  stroke="#005DAA"  stroke-width="0.504"  stroke-miterlimit="10"  /><path d="M216.9,224.5c0-4.9,3.8-8.8,8.5-8.8   c4.5,0,8.1,3.6,8.4,8.1v0v0.1c0,0.5-0.4,0.8-0.9,0.8h-14.4c0.2,3.8,3.2,6.7,6.8,6.7c2.3,0,4.5-1.2,5.6-3.2c0.3-0.4,0.8-0.5,1.1-0.3   c0.4,0.3,0.5,0.8,0.3,1.2c-1.5,2.4-4.1,4-7.1,4C220.7,233.3,216.9,229.3,216.9,224.5z M218.7,223.1H232c-0.6-3.3-3.4-5.7-6.6-5.7   C222.1,217.5,219.4,219.8,218.7,223.1z" fill="none"  stroke="#005DAA"  stroke-width="0.504"  stroke-miterlimit="10"  /><path d="M251.3,209.1c0-0.5,0.4-0.9,0.9-0.9   c0.5,0,0.9,0.4,0.9,0.9v23.3c0,0.5-0.4,0.9-0.9,0.9c-0.5,0-0.9-0.4-0.9-0.9V209.1z" fill="none"  stroke="#005DAA"  stroke-width="0.504"  stroke-miterlimit="10"  /><path d="M286.6,222.9c-0.1-3-2.4-5.4-5.4-5.4   c-3,0-5.4,2.5-5.4,5.4v9.5v0.1c0,0,0,0.1,0,0.1v0.1c-0.1,0.2-0.3,0.4-0.4,0.5c-0.1,0.1-0.3,0.1-0.4,0.1h-0.1h-0.1c0,0-0.1,0-0.1,0   c-0.1,0-0.1-0.1-0.2-0.1c0,0-0.1,0-0.1-0.1l-0.1-0.1c0,0,0-0.1-0.1-0.1c0,0,0,0,0-0.1c0,0,0,0,0-0.1c0,0,0-0.1,0-0.1v-0.1v-0.1   v-9.5c0-3-2.4-5.4-5.4-5.4c-3,0-5.4,2.5-5.4,5.4v9.5c0,0.3-0.1,0.5-0.4,0.7c0,0-0.1,0.1-0.2,0.1c0,0-0.1,0-0.1,0h-0.1h-0.1   c-0.3,0-0.6-0.3-0.7-0.6v-0.2v-9.5v-0.3v-6c0-0.5,0.4-0.8,0.8-0.8c0.5,0,0.9,0.4,0.9,0.8v1.7c1.3-1.5,3.2-2.5,5.4-2.5   c2.7,0,5,1.5,6.3,3.7c1.3-2.2,3.6-3.7,6.3-3.7c3.9,0,7.1,3.2,7.1,7.1v9.5c0,0.4-0.4,0.8-0.9,0.8c-0.5,0-0.8-0.4-0.8-0.8V222.9z" fill="none"  stroke="#005DAA"  stroke-width="0.504"  stroke-miterlimit="10"  /><path d="M295.5,224.8v-0.4v-0.4v-7.5   c0-0.5,0.4-0.9,0.9-0.9c0.5,0,0.9,0.4,0.9,0.9v2.5c1.5-2,3.9-3.4,6.6-3.4c4.7,0,8.5,3.9,8.5,8.7c0,4.8-3.8,8.7-8.5,8.7   c-2.7,0-5.1-1.4-6.6-3.4v10c0,0.5-0.4,0.9-0.9,0.9c-0.5,0-0.9-0.4-0.9-0.9V224.8z M297.3,224.4c0,3.9,3,7,6.6,7   c3.7,0,6.7-3.1,6.7-7s-3-6.9-6.7-6.9c-3.5,0-6.5,2.9-6.6,6.6V224.4z" fill="none"  stroke="#005DAA"  stroke-width="0.504"  stroke-miterlimit="10"  /><path d="M333.8,216.6v15.8c0,0.5-0.4,0.9-0.9,0.9   s-0.9-0.4-0.9-0.9v-2.6c-1.5,2.1-3.9,3.5-6.6,3.5c-4.6,0-8.3-4-8.3-8.8c0-4.8,3.7-8.8,8.3-8.8c2.7,0,5.1,1.4,6.6,3.4v-2.6   c0-0.5,0.4-0.9,0.9-0.9S333.8,216.1,333.8,216.6z M332.1,224.5c0-3.9-3-7.1-6.6-7.1c-3.6,0-6.6,3.1-6.6,7.1c0,3.9,3,7,6.6,7   C329.1,231.5,332.1,228.4,332.1,224.5z" fill="none"  stroke="#005DAA"  stroke-width="0.504"  stroke-miterlimit="10"  /><path d="M340,224.5c0-4.9,4-8.7,9-8.7   c2.1,0,4,0.7,5.6,1.9c0.4,0.3,0.4,0.8,0.1,1.2c-0.3,0.3-0.8,0.4-1.2,0.1c-1.3-1-2.8-1.6-4.5-1.6c-4.1,0-7.3,3.2-7.3,7   c0,3.9,3.2,7.1,7.3,7.1c1.7,0,3.3-0.6,4.5-1.5c0.4-0.3,0.9-0.2,1.2,0.1c0.3,0.4,0.3,0.9-0.2,1.3c-1.5,1.1-3.4,1.9-5.5,1.9   C344,233.3,340,229.4,340,224.5z" fill="none"  stroke="#005DAA"  stroke-width="0.504"  stroke-miterlimit="10"  /><path d="M367.8,216.6c0,0.4-0.4,0.9-0.9,0.9h-2.3v12.8   c0,0.9,0.9,1.3,1.3,1.3c0.4,0,0.9,0.5,0.9,0.9s-0.5,0.9-0.9,0.9c-1.8,0-3.1-1.3-3.1-3v-12.8h-2.2c-0.9,0-0.9-0.4-0.9-0.9   s0-0.9,0.9-0.9h2.2v-6.5c0-0.4,0.4-0.9,0.9-0.9c0.5,0,0.9,0.4,0.9,0.9v6.5h2.3C367.3,215.7,367.8,216.2,367.8,216.6z" fill="none"  stroke="#005DAA"  stroke-width="0.504"  stroke-miterlimit="10"  /><path d="M394.1,215.7c4.6,0,8.3,4,8.3,8.8   s-3.7,8.8-8.3,8.8c-4.6,0-8.3-4-8.3-8.8S389.6,215.7,394.1,215.7z M394.1,231.5c3.6,0,6.6-3.1,6.6-7c0-3.9-3-7.1-6.6-7.1   c-3.6,0-6.6,3.2-6.6,7.1C387.6,228.4,390.6,231.5,394.1,231.5z" fill="none"  stroke="#005DAA"  stroke-width="0.504"  stroke-miterlimit="10"  /><path d="M415.5,209.2c0,0.5-0.4,0.9-0.9,0.9   c-1.2,0-1.9,0.3-2.2,0.7c-0.4,0.4-0.7,1.3-0.7,2.9v1.9h2.5c0.5,0,0.9,0.4,0.9,0.9c0,0.5-0.4,0.9-0.9,0.9h-2.5v15.2   c0,0.5-0.4,0.9-0.9,0.9c-0.5,0-0.9-0.4-0.9-0.9v-15.2h-2.3c-0.5,0-0.9-0.4-0.9-0.9c0-0.5,0.4-0.9,0.9-0.9h2.3v-1.9   c0-1.8,0.3-3.1,1.1-4.1c0.9-0.9,2.1-1.3,3.5-1.3C415.1,208.3,415.5,208.7,415.5,209.2z" fill="none"  stroke="#005DAA"  stroke-width="0.504"  stroke-miterlimit="10"  /><path d="M431.8,209.1c0-0.5,0.4-0.9,0.9-0.9h0.1h12.8   c0.5,0,0.9,0.4,0.9,0.9c0,0.5-0.4,0.9-0.9,0.9h-12v9.9H444c0.5,0,0.9,0.4,0.9,0.9c0,0.5-0.4,0.9-0.9,0.9h-10.5v9.9h12   c0.5,0,0.9,0.4,0.9,0.9c0,0.5-0.4,0.9-0.9,0.9h-12.8h-0.1h-0.1c-0.4,0-0.8-0.4-0.8-0.9V209.1z" fill="none"  stroke="#005DAA"  stroke-width="0.504"  stroke-miterlimit="10"  /><path d="M467.3,216.6v15.8c0,0.5-0.4,0.9-0.9,0.9   s-0.9-0.4-0.9-0.9v-2.6c-1.5,2.1-3.9,3.5-6.6,3.5c-4.6,0-8.3-4-8.3-8.8c0-4.8,3.7-8.8,8.3-8.8c2.7,0,5.1,1.4,6.6,3.4v-2.6   c0-0.5,0.4-0.9,0.9-0.9S467.3,216.1,467.3,216.6z M465.6,224.5c0-3.9-3-7.1-6.6-7.1c-3.6,0-6.6,3.1-6.6,7.1c0,3.9,3,7,6.6,7   C462.6,231.5,465.6,228.4,465.6,224.5z" fill="none"  stroke="#005DAA"  stroke-width="0.504"  stroke-miterlimit="10"  /><path d="M474.7,216.6c0-0.5,0.4-0.9,0.9-0.9   c0.4,0,0.8,0.4,0.8,0.9v3.9c0.1-0.1,0.1-0.3,0.3-0.4c1.3-2.1,3.6-4.3,7-4.3c0.5,0,0.9,0.4,0.9,0.9c0,0.5-0.4,0.9-0.9,0.9   c-2.3,0-3.9,1.3-5.1,2.9c-1.2,1.6-1.9,3.4-2.1,4.1c-0.1,0.1-0.1,0.2-0.1,0.3v7.7c0,0.5-0.4,0.9-0.8,0.9c-0.5,0-0.9-0.4-0.9-0.9   V216.6z" fill="none"  stroke="#005DAA"  stroke-width="0.504"  stroke-miterlimit="10"  /><path d="M490.7,209.1c0-0.5,0.4-0.9,0.9-0.9   c0.5,0,0.9,0.4,0.9,0.9v23.3c0,0.5-0.4,0.9-0.9,0.9c-0.5,0-0.9-0.4-0.9-0.9V209.1z" fill="none"  stroke="#005DAA"  stroke-width="0.504"  stroke-miterlimit="10"  /><path d="M500.2,216.6c0-0.5,0.4-0.8,0.8-0.8   c0.5,0,0.9,0.4,0.9,0.8v9.5c0,3,2.4,5.4,5.4,5.4c3,0,5.4-2.4,5.4-5.4v-9.5c0-0.1,0-0.3,0.1-0.4c0,0,0-0.1,0-0.1c0,0,0,0,0.1,0   c0.1-0.1,0.2-0.2,0.3-0.2h0.1c0,0,0.1,0,0.1,0h0.1h0.1c0.1,0,0.3,0.1,0.4,0.2c0.1,0.1,0.2,0.2,0.2,0.3c0.1,0.1,0.1,0.3,0.1,0.4v9.5   v0.3v5.5c0,4.6-3.7,8.2-8.3,8.2c-1.3,0-2.5-0.3-3.6-0.8c-0.4-0.3-0.6-0.8-0.4-1.1c0.2-0.4,0.7-0.5,1.1-0.4c0.9,0.4,1.9,0.7,2.9,0.7   c3.6,0,6.6-2.9,6.6-6.5v-1.1c-1.3,1.5-3.3,2.5-5.4,2.5c-3.9,0-7.1-3.2-7.1-7.1V216.6z" fill="none"  stroke="#005DAA"  stroke-width="0.504"  stroke-miterlimit="10"  /><path d="M532.6,228.6c0.3-0.4,0.8-0.4,1.1-0.1   c1.9,1.5,5,3.3,8.2,3.2c2.2,0,4.1-0.6,5.5-1.6c1.4-1,2.1-2.3,2.1-3.7c0-1.4-0.7-2.5-2-3.4c-1.4-0.9-3.4-1.6-5.8-2h-0.1   c-2.3-0.4-4.4-1.1-5.9-2.1c-1.5-1-2.6-2.5-2.6-4.4c0-1.9,1-3.5,2.6-4.7s3.7-1.8,6-1.8c3.3,0,5.8,1.6,7.7,2.9   c0.4,0.3,0.5,0.7,0.2,1.1c-0.2,0.4-0.7,0.5-1.1,0.2c-2-1.3-4.1-2.6-6.9-2.6c-2,0-3.9,0.6-5.1,1.5c-1.3,0.9-2,2.1-2,3.4   c0,1.3,0.6,2.2,1.9,3s3.1,1.5,5.4,1.9h0.1c2.5,0.5,4.7,1.2,6.4,2.3c1.6,1.1,2.8,2.7,2.8,4.7s-1.1,3.8-2.8,5s-3.9,2-6.4,2   c-3.8,0-7.1-2-9.2-3.6C532.4,229.4,532.4,228.9,532.6,228.6z" fill="none"  stroke="#005DAA"  stroke-width="0.504"  stroke-miterlimit="10"  /><path d="M556.9,216.6c0-0.5,0.4-0.9,0.9-0.9   c0.5,0,0.9,0.4,0.9,0.9v9.5c0,3,2.4,5.4,5.4,5.4c3,0,5.4-2.4,5.4-5.4v-9.5c0-0.5,0.4-0.9,0.9-0.9c0.5,0,0.9,0.4,0.9,0.9v9.5   c0,3.9-3.2,7.1-7.2,7.1c-3.9,0-7.1-3.2-7.1-7.1V216.6z" fill="none"  stroke="#005DAA"  stroke-width="0.504"  stroke-miterlimit="10"  /><path d="M579.1,216.6c0-0.5,0.4-0.9,0.9-0.9   c0.4,0,0.8,0.4,0.8,0.9v3.9c0.1-0.1,0.1-0.3,0.3-0.4c1.3-2.1,3.6-4.3,7-4.3c0.5,0,0.9,0.4,0.9,0.9c0,0.5-0.4,0.9-0.9,0.9   c-2.3,0-3.9,1.3-5.1,2.9c-1.2,1.6-1.9,3.4-2.1,4.1c-0.1,0.1-0.1,0.2-0.1,0.3v7.7c0,0.5-0.4,0.9-0.8,0.9c-0.5,0-0.9-0.4-0.9-0.9   V216.6z" fill="none"  stroke="#005DAA"  stroke-width="0.504"  stroke-miterlimit="10"  /><path d="M610.1,231.9c0,4.5-3.7,8.2-8.3,8.2   c-1.3,0-2.5-0.3-3.6-0.8c-0.4-0.3-0.6-0.8-0.4-1.1c0.2-0.5,0.7-0.6,1.1-0.4c0.9,0.4,1.8,0.6,2.9,0.6c3.6,0,6.5-2.9,6.5-6.5v-2.1   c-1.5,2.1-3.9,3.4-6.5,3.4c-4.6,0-8.2-3.9-8.2-8.7c0-4.7,3.6-8.7,8.2-8.7c2.7,0,5.1,1.4,6.5,3.4v-2.6c0-0.5,0.4-0.9,0.9-0.9   c0.4,0,0.8,0.4,0.8,0.9V231.9z M608.4,224.4c0-3.9-2.9-7-6.5-7c-3.6,0-6.5,3.1-6.5,7c0,3.9,2.9,7,6.5,7   C605.5,231.5,608.4,228.4,608.4,224.4z" fill="none"  stroke="#005DAA"  stroke-width="0.504"  stroke-miterlimit="10"  /><path d="M618.4,210.9c0-0.5,0.4-0.9,0.9-0.9   c0.5,0,0.9,0.4,0.9,0.9v0.8c0,0.5-0.4,0.9-0.9,0.9c-0.5,0-0.9-0.4-0.9-0.9V210.9z M618.4,216.6c0-0.5,0.4-0.9,0.9-0.9   c0.5,0,0.9,0.4,0.9,0.9v15.8c0,0.5-0.4,0.9-0.9,0.9c-0.5,0-0.9-0.4-0.9-0.9V216.6z" fill="none"  stroke="#005DAA"  stroke-width="0.504"  stroke-miterlimit="10"  /><path d="M627.2,224.5c0-4.9,4-8.7,9-8.7   c2.1,0,4,0.7,5.6,1.9c0.4,0.3,0.4,0.8,0.1,1.2c-0.3,0.3-0.8,0.4-1.2,0.1c-1.3-1-2.8-1.6-4.5-1.6c-4.1,0-7.3,3.2-7.3,7   c0,3.9,3.2,7.1,7.3,7.1c1.7,0,3.3-0.6,4.5-1.5c0.4-0.3,0.9-0.2,1.2,0.1c0.3,0.4,0.3,0.9-0.2,1.3c-1.5,1.1-3.4,1.9-5.5,1.9   C631.2,233.3,627.2,229.4,627.2,224.5z" fill="none"  stroke="#005DAA"  stroke-width="0.504"  stroke-miterlimit="10"  /><path d="M663.5,216.6v15.8c0,0.5-0.4,0.9-0.9,0.9   s-0.9-0.4-0.9-0.9v-2.6c-1.5,2.1-3.9,3.5-6.6,3.5c-4.6,0-8.3-4-8.3-8.8c0-4.8,3.7-8.8,8.3-8.8c2.7,0,5.1,1.4,6.6,3.4v-2.6   c0-0.5,0.4-0.9,0.9-0.9S663.5,216.1,663.5,216.6z M661.8,224.5c0-3.9-3-7.1-6.6-7.1c-3.6,0-6.6,3.1-6.6,7.1c0,3.9,3,7,6.6,7   C658.9,231.5,661.8,228.4,661.8,224.5z" fill="none"  stroke="#005DAA"  stroke-width="0.504"  stroke-miterlimit="10"  /><path d="M671.7,209.1c0-0.5,0.4-0.9,0.9-0.9   c0.5,0,0.9,0.4,0.9,0.9v23.3c0,0.5-0.4,0.9-0.9,0.9c-0.5,0-0.9-0.4-0.9-0.9V209.1z" fill="none"  stroke="#005DAA"  stroke-width="0.504"  stroke-miterlimit="10"  /><path d="M703.4,207.9c3.1,0,5.9,1.1,8.1,2.8   c0.4,0.3,0.5,0.9,0.1,1.3c-0.3,0.4-0.9,0.5-1.2,0.2c-1.9-1.5-4.4-2.4-7-2.4c-6.3,0-11.3,4.9-11.3,11c0,6,5,10.9,11.3,10.9   c2.6,0,5.1-0.9,6.9-2.4c0.4-0.3,1-0.2,1.3,0.2c0.4,0.3,0.3,1-0.1,1.3c-2.2,1.7-5,2.7-8.1,2.7c-7.2,0-13-5.6-13-12.6   C690.4,213.5,696.2,207.9,703.4,207.9z" fill="none"  stroke="#005DAA"  stroke-width="0.504"  stroke-miterlimit="10"  /><path d="M733.3,216.6v15.8c0,0.5-0.4,0.9-0.9,0.9   s-0.9-0.4-0.9-0.9v-2.6c-1.5,2.1-3.9,3.5-6.6,3.5c-4.6,0-8.3-4-8.3-8.8c0-4.8,3.7-8.8,8.3-8.8c2.7,0,5.1,1.4,6.6,3.4v-2.6   c0-0.5,0.4-0.9,0.9-0.9S733.3,216.1,733.3,216.6z M731.6,224.5c0-3.9-3-7.1-6.6-7.1c-3.6,0-6.6,3.1-6.6,7.1c0,3.9,3,7,6.6,7   C728.7,231.5,731.6,228.4,731.6,224.5z" fill="none"  stroke="#005DAA"  stroke-width="0.504"  stroke-miterlimit="10"  /><path d="M740.8,216.6c0-0.5,0.4-0.9,0.9-0.9   c0.4,0,0.8,0.4,0.8,0.9v3.9c0.1-0.1,0.1-0.3,0.3-0.4c1.3-2.1,3.6-4.3,7-4.3c0.5,0,0.9,0.4,0.9,0.9c0,0.5-0.4,0.9-0.9,0.9   c-2.3,0-3.9,1.3-5.1,2.9c-1.2,1.6-1.9,3.4-2.1,4.1c-0.1,0.1-0.1,0.2-0.1,0.3v7.7c0,0.5-0.4,0.9-0.8,0.9c-0.5,0-0.9-0.4-0.9-0.9   V216.6z" fill="none"  stroke="#005DAA"  stroke-width="0.504"  stroke-miterlimit="10"  /><path d="M753.4,224.5c0-4.9,3.8-8.8,8.5-8.8   c4.5,0,8.1,3.6,8.4,8.1v0v0.1c0,0.5-0.4,0.8-0.9,0.8h-14.4c0.2,3.8,3.2,6.7,6.8,6.7c2.3,0,4.5-1.2,5.6-3.2c0.3-0.4,0.8-0.5,1.1-0.3   c0.4,0.3,0.5,0.8,0.3,1.2c-1.5,2.4-4.1,4-7.1,4C757.2,233.3,753.4,229.3,753.4,224.5z M755.2,223.1h13.3c-0.6-3.3-3.4-5.7-6.6-5.7   C758.6,217.5,755.9,219.8,755.2,223.1z" fill="none"  stroke="#005DAA"  stroke-width="0.504"  stroke-miterlimit="10"  />
	
	
	
	
	
	
	
	
	
	
	
	
	
	
	
	
	
	
	
	
	
	
	
	
	
	
	
	
	
	
	
	
	
	
	
	
	
</g><g><path d="M497.3,253.8c0-0.5,0.4-0.9,0.9-0.9c0.5,0,0.9,0.4,0.9,0.9v0.8c0,0.5-0.4,0.9-0.9,0.9   c-0.5,0-0.9-0.4-0.9-0.9V253.8z M497.3,259.5c0-0.5,0.4-0.9,0.9-0.9c0.5,0,0.9,0.4,0.9,0.9v15.8c0,0.5-0.4,0.9-0.9,0.9   c-0.5,0-0.9-0.4-0.9-0.9V259.5z" fill="#005DAA"  /><path d="M519.8,265.8c0-3-2.4-5.4-5.4-5.4c-3,0-5.4,2.4-5.4,5.4v9.5v0.1c0,0.1-0.1,0.3-0.2,0.4   c-0.1,0.2-0.4,0.3-0.6,0.3h-0.2c-0.3-0.1-0.5-0.3-0.6-0.5c0,0,0-0.1,0-0.1c0,0,0-0.1,0-0.1v-0.2v-9.5v-0.3v-6   c0-0.5,0.4-0.9,0.9-0.9c0.5,0,0.8,0.4,0.8,0.9v1.7c1.3-1.5,3.3-2.5,5.4-2.5c3.9,0,7.1,3.2,7.1,7.1v9.5c0,0.5-0.4,0.9-0.9,0.9   c-0.5,0-0.9-0.4-0.9-0.9V265.8z" fill="#005DAA"  />
	
	
</g><g><path d="M497.3,253.8c0-0.5,0.4-0.9,0.9-0.9   c0.5,0,0.9,0.4,0.9,0.9v0.8c0,0.5-0.4,0.9-0.9,0.9c-0.5,0-0.9-0.4-0.9-0.9V253.8z M497.3,259.5c0-0.5,0.4-0.9,0.9-0.9   c0.5,0,0.9,0.4,0.9,0.9v15.8c0,0.5-0.4,0.9-0.9,0.9c-0.5,0-0.9-0.4-0.9-0.9V259.5z" fill="none"  stroke="#005DAA"  stroke-width="0.504"  stroke-miterlimit="10"  /><path d="M519.8,265.8c0-3-2.4-5.4-5.4-5.4   c-3,0-5.4,2.4-5.4,5.4v9.5v0.1c0,0.1-0.1,0.3-0.2,0.4c-0.1,0.2-0.4,0.3-0.6,0.3h-0.2c-0.3-0.1-0.5-0.3-0.6-0.5c0,0,0-0.1,0-0.1   c0,0,0-0.1,0-0.1v-0.2v-9.5v-0.3v-6c0-0.5,0.4-0.9,0.9-0.9c0.5,0,0.8,0.4,0.8,0.9v1.7c1.3-1.5,3.3-2.5,5.4-2.5   c3.9,0,7.1,3.2,7.1,7.1v9.5c0,0.5-0.4,0.9-0.9,0.9c-0.5,0-0.9-0.4-0.9-0.9V265.8z" fill="none"  stroke="#005DAA"  stroke-width="0.504"  stroke-miterlimit="10"  />
	
	
</g><g><path d="M538.9,263.3c0-7.2,5.9-12.9,13.2-12.9c3,0,5.9,1,8.1,2.8c0.9,0.7,1.1,2,0.4,2.9c-0.7,0.9-2,1-2.9,0.3   c-1.5-1.2-3.5-1.9-5.6-1.9c-2.6,0-4.8,1-6.4,2.6c-1.7,1.6-2.7,3.8-2.7,6.2c0,2.4,1,4.5,2.7,6.1c1.6,1.6,3.9,2.6,6.4,2.6   c1.8,0,3.5-0.5,4.9-1.4v-4.9h-5.1c-1.1,0-2-0.9-2-2c0-1.1,0.9-2,2-2h7c0,0,0,0,0,0c0,0,0,0,0,0c1.1,0,2.1,0.9,2.1,2v7.9   c0,0.3-0.1,0.4-0.1,0.6c0,0.1,0,0.1-0.1,0.2v0c-0.1,0.3-0.3,0.6-0.7,0.9c-2.3,1.8-5.1,2.8-8.1,2.8   C544.8,276.2,538.9,270.5,538.9,263.3z" fill="#0096D6"  /><path d="M584.2,267.3v7c0,1-0.9,1.9-1.9,1.9c-0.9,0-1.6-0.7-1.9-1.5c-1.4,1-3,1.5-4.8,1.5c-2.4,0-4.5-1-6.1-2.6   c-1.5-1.6-2.4-3.9-2.4-6.3c0-2.5,0.9-4.7,2.4-6.3c1.5-1.6,3.6-2.7,6.1-2.7c1.8,0,3.4,0.6,4.8,1.6c0.2-0.9,0.9-1.6,1.9-1.6   c1,0,1.9,0.9,1.9,1.9V267.3z M580.4,267.3c0-1.5-0.5-2.8-1.4-3.7c-0.9-1-2.1-1.5-3.3-1.5c-1.3,0-2.5,0.5-3.3,1.5   c-0.9,0.9-1.4,2.2-1.4,3.7c0,1.5,0.5,2.8,1.4,3.7c0.8,0.9,2,1.4,3.3,1.4c1.3,0,2.5-0.5,3.3-1.4C579.9,270,580.4,268.7,580.4,267.3z   " fill="#0096D6"  /><path d="M590.3,271c0.6-0.9,1.9-1,2.7-0.3c0.9,0.8,2.5,1.6,3.9,1.6c1,0,1.9-0.3,2.4-0.7c0.5-0.4,0.6-0.8,0.6-1.1   c0-0.2,0-0.3-0.1-0.4c0-0.1-0.2-0.3-0.5-0.4c-0.5-0.4-1.6-0.8-2.9-1h0c-1.1-0.2-2.2-0.5-3.1-0.9c-1-0.5-1.8-1.1-2.5-2.1   c-0.4-0.6-0.6-1.4-0.6-2.3c0-1.6,0.9-3,2.1-3.9c1.3-0.9,2.8-1.3,4.4-1.3c2.5,0,4.2,1.2,5.4,2c0.9,0.6,1.1,1.8,0.6,2.6   c-0.6,0.9-1.8,1.1-2.6,0.5c-1.1-0.8-2.1-1.3-3.3-1.3c-0.9,0-1.7,0.3-2.1,0.6c-0.5,0.3-0.6,0.6-0.6,0.8c0,0.1,0,0.2,0.1,0.3   c0,0.1,0.1,0.2,0.4,0.4c0.5,0.3,1.4,0.6,2.6,0.9l0,0h0c1.2,0.2,2.3,0.5,3.3,1c1,0.4,1.9,1.1,2.5,2.1c0.4,0.7,0.7,1.5,0.7,2.4   c0,1.8-1,3.2-2.3,4.1c-1.3,0.9-2.9,1.4-4.6,1.4c-2.8,0-4.9-1.3-6.4-2.5C589.8,273,589.7,271.8,590.3,271z" fill="#0096D6"  /><path d="M617.4,260.2c0,1.1-0.9,2-2,2h-0.9v10c1.1,0,2,0.9,2,2c0,1.1-0.9,2-2,2c-2.2,0-4-1.8-4-4v-10h-1   c-1.1,0-2-0.9-2-2c0-1.1,0.9-2,2-2h1v-5.2c0-1.1,0.9-2,2-2c1.1,0,2,0.9,2,2v5.2h0.9C616.4,258.3,617.4,259.1,617.4,260.2z" fill="#0096D6"  /><path d="M632.1,260.2c0,1-0.8,1.9-1.9,1.9c-0.8,0-1.5,0.2-2.1,0.7c-0.7,0.4-1.2,1-1.6,1.7c-0.9,1.1-1.3,2.5-1.5,3   v6.8c0,1-0.9,1.9-2,1.9c-1,0-1.9-0.9-1.9-1.9v-14.1c0-1,0.9-1.9,1.9-1.9c1.1,0,2,0.8,2,1.9v0.3c0.2-0.3,0.5-0.5,0.8-0.7   c1.2-0.8,2.7-1.4,4.5-1.4C631.3,258.3,632.1,259.1,632.1,260.2z" fill="#0096D6"  /><path d="M637.6,273.5c-1.5-1.6-2.5-3.8-2.5-6.3c0-2.4,0.9-4.5,2.5-6.3c1.6-1.7,3.7-2.7,6.1-2.7c2.4,0,4.5,1,6,2.7   c1.6,1.7,2.5,3.8,2.5,6.3c0,2.5-0.9,4.7-2.5,6.3c-1.5,1.7-3.6,2.7-6,2.7C641.2,276.3,639.2,275.2,637.6,273.5z M639,267.3   c0,1.5,0.5,2.8,1.3,3.8c0.9,0.9,2.1,1.3,3.4,1.3c1.3,0,2.4-0.5,3.3-1.3c0.9-1,1.4-2.3,1.4-3.8c0-1.5-0.5-2.8-1.4-3.7   c-0.9-0.8-2-1.4-3.3-1.4c-1.4,0-2.5,0.6-3.4,1.4C639.5,264.5,639,265.8,639,267.3z" fill="#0096D6"  /><path d="M657.4,271c0.6-0.9,1.9-1,2.7-0.3c0.9,0.8,2.5,1.6,3.9,1.6c1,0,1.9-0.3,2.4-0.7c0.5-0.4,0.6-0.8,0.6-1.1   c0-0.2,0-0.3-0.1-0.4c0-0.1-0.2-0.3-0.5-0.4c-0.5-0.4-1.6-0.8-2.9-1h0c-1.1-0.2-2.2-0.5-3.1-0.9c-1-0.5-1.8-1.1-2.5-2.1   c-0.4-0.6-0.6-1.4-0.6-2.3c0-1.6,0.9-3,2.1-3.9c1.3-0.9,2.8-1.3,4.4-1.3c2.5,0,4.2,1.2,5.4,2c0.9,0.6,1.1,1.8,0.6,2.6   c-0.6,0.9-1.8,1.1-2.6,0.5c-1.1-0.8-2.1-1.3-3.3-1.3c-0.9,0-1.7,0.3-2.1,0.6c-0.5,0.3-0.6,0.6-0.6,0.8c0,0.1,0,0.2,0.1,0.3   c0,0.1,0.1,0.2,0.4,0.4c0.5,0.3,1.4,0.6,2.6,0.9l0,0h0c1.2,0.2,2.3,0.5,3.3,1c1,0.4,1.9,1.1,2.5,2.1c0.4,0.7,0.7,1.5,0.7,2.4   c0,1.8-1,3.2-2.3,4.1c-1.3,0.9-2.9,1.4-4.6,1.4c-2.8,0-4.9-1.3-6.4-2.5C656.9,273,656.8,271.8,657.4,271z" fill="#0096D6"  /><path d="M674.6,267.3c0-5,4.1-8.9,9.1-9c2.1,0,4.1,0.8,5.7,2c0.8,0.6,1,1.9,0.4,2.6c-0.7,0.9-1.9,1-2.7,0.4   c-0.9-0.7-2.1-1.1-3.4-1.1c-2.9,0-5.3,2.4-5.3,5.1s2.4,5.1,5.3,5.1c1.3,0,2.5-0.5,3.4-1.1c0.8-0.6,2-0.5,2.7,0.4   c0.6,0.8,0.4,1.9-0.4,2.6c-1.5,1.1-3.5,1.9-5.7,1.9C678.7,276.2,674.6,272.1,674.6,267.3z" fill="#0096D6"  /><path d="M700.2,274.2c0,1.1-0.9,2-2,2c-0.9,0-1.6-0.6-1.9-1.5c0-0.1-0.1-0.3-0.1-0.5v-21.1c0-1.1,0.9-2,2-2   c1.1,0,2,0.9,2,2v6.2c1.1-0.6,2.4-1,3.8-1c4.3,0,7.8,3.5,7.8,7.8v8.1c0,1.1-0.9,2-2,2c-1.1,0-2-0.9-2-2v-8.1c0-2.1-1.7-3.8-3.9-3.9   c-2.1,0-3.8,1.8-3.8,3.9V274.2z" fill="#0096D6"  /><path d="M722,253.8c0,1.1-0.8,2-1.9,2c-1.1,0-1.9-0.9-1.9-2v-0.8c0-1.1,0.9-1.9,1.9-1.9c1.1,0,1.9,0.9,1.9,1.9   V253.8z M722,260.3v13.9c0,1.1-0.8,1.9-1.9,1.9c-1.1,0-1.9-0.9-1.9-1.9v-13.9c0-1.1,0.9-2,1.9-2C721.2,258.3,722,259.1,722,260.3z" fill="#0096D6"  /><path d="M727.3,271c0.6-0.9,1.9-1,2.7-0.3c0.9,0.8,2.5,1.6,3.9,1.6c1,0,1.9-0.3,2.4-0.7c0.5-0.4,0.6-0.8,0.6-1.1   c0-0.2,0-0.3-0.1-0.4c0-0.1-0.2-0.3-0.5-0.4c-0.5-0.4-1.6-0.8-2.9-1h0c-1.1-0.2-2.2-0.5-3.1-0.9c-1-0.5-1.8-1.1-2.5-2.1   c-0.4-0.6-0.6-1.4-0.6-2.3c0-1.6,0.9-3,2.1-3.9c1.3-0.9,2.8-1.3,4.4-1.3c2.5,0,4.2,1.2,5.4,2c0.9,0.6,1.1,1.8,0.6,2.6   c-0.6,0.9-1.8,1.1-2.6,0.5c-1.1-0.8-2.1-1.3-3.3-1.3c-0.9,0-1.7,0.3-2.1,0.6c-0.5,0.3-0.6,0.6-0.6,0.8c0,0.1,0,0.2,0.1,0.3   c0,0.1,0.1,0.2,0.4,0.4c0.5,0.3,1.4,0.6,2.6,0.9l0,0h0c1.2,0.2,2.3,0.5,3.3,1c1,0.4,1.9,1.1,2.5,2.1c0.4,0.7,0.7,1.5,0.7,2.4   c0,1.8-1,3.2-2.3,4.1c-1.3,0.9-2.9,1.4-4.6,1.4c-2.8,0-4.9-1.3-6.4-2.5C726.8,273,726.7,271.8,727.3,271z" fill="#0096D6"  /><path d="M749.7,253.8c0,1.1-0.8,2-1.9,2c-1.1,0-1.9-0.9-1.9-2v-0.8c0-1.1,0.9-1.9,1.9-1.9c1.1,0,1.9,0.9,1.9,1.9   V253.8z M749.7,260.3v13.9c0,1.1-0.8,1.9-1.9,1.9c-1.1,0-1.9-0.9-1.9-1.9v-13.9c0-1.1,0.9-2,1.9-2   C748.8,258.3,749.7,259.1,749.7,260.3z" fill="#0096D6"  /><path d="M755,271c0.6-0.9,1.9-1,2.7-0.3c0.9,0.8,2.5,1.6,3.9,1.6c1,0,1.9-0.3,2.4-0.7c0.5-0.4,0.6-0.8,0.6-1.1   c0-0.2,0-0.3-0.1-0.4c0-0.1-0.2-0.3-0.5-0.4c-0.5-0.4-1.6-0.8-2.9-1h0c-1.1-0.2-2.2-0.5-3.1-0.9c-1-0.5-1.8-1.1-2.5-2.1   c-0.4-0.6-0.6-1.4-0.6-2.3c0-1.6,0.9-3,2.1-3.9c1.3-0.9,2.8-1.3,4.4-1.3c2.5,0,4.2,1.2,5.4,2c0.9,0.6,1.1,1.8,0.6,2.6   c-0.6,0.9-1.8,1.1-2.6,0.5c-1.1-0.8-2.1-1.3-3.3-1.3c-0.9,0-1.7,0.3-2.1,0.6c-0.5,0.3-0.6,0.6-0.6,0.8c0,0.1,0,0.2,0.1,0.3   c0,0.1,0.1,0.2,0.4,0.4c0.5,0.3,1.4,0.6,2.6,0.9l0,0h0c1.2,0.2,2.3,0.5,3.3,1c1,0.4,1.9,1.1,2.5,2.1c0.4,0.7,0.7,1.5,0.7,2.4   c0,1.8-1,3.2-2.3,4.1c-1.3,0.9-2.9,1.4-4.6,1.4c-2.8,0-4.9-1.3-6.4-2.5C754.4,273,754.3,271.8,755,271z" fill="#0096D6"  />
	
	
	
	
	
	
	
	
	
	
	
	
	
</g><g><path d="M538.9,263.3c0-7.2,5.9-12.9,13.2-12.9   c3,0,5.9,1,8.1,2.8c0.9,0.7,1.1,2,0.4,2.9c-0.7,0.9-2,1-2.9,0.3c-1.5-1.2-3.5-1.9-5.6-1.9c-2.6,0-4.8,1-6.4,2.6   c-1.7,1.6-2.7,3.8-2.7,6.2c0,2.4,1,4.5,2.7,6.1c1.6,1.6,3.9,2.6,6.4,2.6c1.8,0,3.5-0.5,4.9-1.4v-4.9h-5.1c-1.1,0-2-0.9-2-2   c0-1.1,0.9-2,2-2h7c0,0,0,0,0,0c0,0,0,0,0,0c1.1,0,2.1,0.9,2.1,2v7.9c0,0.3-0.1,0.4-0.1,0.6c0,0.1,0,0.1-0.1,0.2v0   c-0.1,0.3-0.3,0.6-0.7,0.9c-2.3,1.8-5.1,2.8-8.1,2.8C544.8,276.2,538.9,270.5,538.9,263.3z" fill="none"  stroke="#0096D6"  stroke-width="0.504"  stroke-miterlimit="10"  /><path d="M584.2,267.3v7c0,1-0.9,1.9-1.9,1.9   c-0.9,0-1.6-0.7-1.9-1.5c-1.4,1-3,1.5-4.8,1.5c-2.4,0-4.5-1-6.1-2.6c-1.5-1.6-2.4-3.9-2.4-6.3c0-2.5,0.9-4.7,2.4-6.3   c1.5-1.6,3.6-2.7,6.1-2.7c1.8,0,3.4,0.6,4.8,1.6c0.2-0.9,0.9-1.6,1.9-1.6c1,0,1.9,0.9,1.9,1.9V267.3z M580.4,267.3   c0-1.5-0.5-2.8-1.4-3.7c-0.9-1-2.1-1.5-3.3-1.5c-1.3,0-2.5,0.5-3.3,1.5c-0.9,0.9-1.4,2.2-1.4,3.7c0,1.5,0.5,2.8,1.4,3.7   c0.8,0.9,2,1.4,3.3,1.4c1.3,0,2.5-0.5,3.3-1.4C579.9,270,580.4,268.7,580.4,267.3z" fill="none"  stroke="#0096D6"  stroke-width="0.504"  stroke-miterlimit="10"  /><path d="M590.3,271c0.6-0.9,1.9-1,2.7-0.3   c0.9,0.8,2.5,1.6,3.9,1.6c1,0,1.9-0.3,2.4-0.7c0.5-0.4,0.6-0.8,0.6-1.1c0-0.2,0-0.3-0.1-0.4c0-0.1-0.2-0.3-0.5-0.4   c-0.5-0.4-1.6-0.8-2.9-1h0c-1.1-0.2-2.2-0.5-3.1-0.9c-1-0.5-1.8-1.1-2.5-2.1c-0.4-0.6-0.6-1.4-0.6-2.3c0-1.6,0.9-3,2.1-3.9   c1.3-0.9,2.8-1.3,4.4-1.3c2.5,0,4.2,1.2,5.4,2c0.9,0.6,1.1,1.8,0.6,2.6c-0.6,0.9-1.8,1.1-2.6,0.5c-1.1-0.8-2.1-1.3-3.3-1.3   c-0.9,0-1.7,0.3-2.1,0.6c-0.5,0.3-0.6,0.6-0.6,0.8c0,0.1,0,0.2,0.1,0.3c0,0.1,0.1,0.2,0.4,0.4c0.5,0.3,1.4,0.6,2.6,0.9l0,0h0   c1.2,0.2,2.3,0.5,3.3,1c1,0.4,1.9,1.1,2.5,2.1c0.4,0.7,0.7,1.5,0.7,2.4c0,1.8-1,3.2-2.3,4.1c-1.3,0.9-2.9,1.4-4.6,1.4   c-2.8,0-4.9-1.3-6.4-2.5C589.8,273,589.7,271.8,590.3,271z" fill="none"  stroke="#0096D6"  stroke-width="0.504"  stroke-miterlimit="10"  /><path d="M617.4,260.2c0,1.1-0.9,2-2,2h-0.9v10   c1.1,0,2,0.9,2,2c0,1.1-0.9,2-2,2c-2.2,0-4-1.8-4-4v-10h-1c-1.1,0-2-0.9-2-2c0-1.1,0.9-2,2-2h1v-5.2c0-1.1,0.9-2,2-2   c1.1,0,2,0.9,2,2v5.2h0.9C616.4,258.3,617.4,259.1,617.4,260.2z" fill="none"  stroke="#0096D6"  stroke-width="0.504"  stroke-miterlimit="10"  /><path d="M632.1,260.2c0,1-0.8,1.9-1.9,1.9   c-0.8,0-1.5,0.2-2.1,0.7c-0.7,0.4-1.2,1-1.6,1.7c-0.9,1.1-1.3,2.5-1.5,3v6.8c0,1-0.9,1.9-2,1.9c-1,0-1.9-0.9-1.9-1.9v-14.1   c0-1,0.9-1.9,1.9-1.9c1.1,0,2,0.8,2,1.9v0.3c0.2-0.3,0.5-0.5,0.8-0.7c1.2-0.8,2.7-1.4,4.5-1.4C631.3,258.3,632.1,259.1,632.1,260.2   z" fill="none"  stroke="#0096D6"  stroke-width="0.504"  stroke-miterlimit="10"  /><path d="M637.6,273.5c-1.5-1.6-2.5-3.8-2.5-6.3   c0-2.4,0.9-4.5,2.5-6.3c1.6-1.7,3.7-2.7,6.1-2.7c2.4,0,4.5,1,6,2.7c1.6,1.7,2.5,3.8,2.5,6.3c0,2.5-0.9,4.7-2.5,6.3   c-1.5,1.7-3.6,2.7-6,2.7C641.2,276.3,639.2,275.2,637.6,273.5z M639,267.3c0,1.5,0.5,2.8,1.3,3.8c0.9,0.9,2.1,1.3,3.4,1.3   c1.3,0,2.4-0.5,3.3-1.3c0.9-1,1.4-2.3,1.4-3.8c0-1.5-0.5-2.8-1.4-3.7c-0.9-0.8-2-1.4-3.3-1.4c-1.4,0-2.5,0.6-3.4,1.4   C639.5,264.5,639,265.8,639,267.3z" fill="none"  stroke="#0096D6"  stroke-width="0.504"  stroke-miterlimit="10"  /><path d="M657.4,271c0.6-0.9,1.9-1,2.7-0.3   c0.9,0.8,2.5,1.6,3.9,1.6c1,0,1.9-0.3,2.4-0.7c0.5-0.4,0.6-0.8,0.6-1.1c0-0.2,0-0.3-0.1-0.4c0-0.1-0.2-0.3-0.5-0.4   c-0.5-0.4-1.6-0.8-2.9-1h0c-1.1-0.2-2.2-0.5-3.1-0.9c-1-0.5-1.8-1.1-2.5-2.1c-0.4-0.6-0.6-1.4-0.6-2.3c0-1.6,0.9-3,2.1-3.9   c1.3-0.9,2.8-1.3,4.4-1.3c2.5,0,4.2,1.2,5.4,2c0.9,0.6,1.1,1.8,0.6,2.6c-0.6,0.9-1.8,1.1-2.6,0.5c-1.1-0.8-2.1-1.3-3.3-1.3   c-0.9,0-1.7,0.3-2.1,0.6c-0.5,0.3-0.6,0.6-0.6,0.8c0,0.1,0,0.2,0.1,0.3c0,0.1,0.1,0.2,0.4,0.4c0.5,0.3,1.4,0.6,2.6,0.9l0,0h0   c1.2,0.2,2.3,0.5,3.3,1c1,0.4,1.9,1.1,2.5,2.1c0.4,0.7,0.7,1.5,0.7,2.4c0,1.8-1,3.2-2.3,4.1c-1.3,0.9-2.9,1.4-4.6,1.4   c-2.8,0-4.9-1.3-6.4-2.5C656.9,273,656.8,271.8,657.4,271z" fill="none"  stroke="#0096D6"  stroke-width="0.504"  stroke-miterlimit="10"  /><path d="M674.6,267.3c0-5,4.1-8.9,9.1-9   c2.1,0,4.1,0.8,5.7,2c0.8,0.6,1,1.9,0.4,2.6c-0.7,0.9-1.9,1-2.7,0.4c-0.9-0.7-2.1-1.1-3.4-1.1c-2.9,0-5.3,2.4-5.3,5.1   s2.4,5.1,5.3,5.1c1.3,0,2.5-0.5,3.4-1.1c0.8-0.6,2-0.5,2.7,0.4c0.6,0.8,0.4,1.9-0.4,2.6c-1.5,1.1-3.5,1.9-5.7,1.9   C678.7,276.2,674.6,272.1,674.6,267.3z" fill="none"  stroke="#0096D6"  stroke-width="0.504"  stroke-miterlimit="10"  /><path d="M700.2,274.2c0,1.1-0.9,2-2,2   c-0.9,0-1.6-0.6-1.9-1.5c0-0.1-0.1-0.3-0.1-0.5v-21.1c0-1.1,0.9-2,2-2c1.1,0,2,0.9,2,2v6.2c1.1-0.6,2.4-1,3.8-1   c4.3,0,7.8,3.5,7.8,7.8v8.1c0,1.1-0.9,2-2,2c-1.1,0-2-0.9-2-2v-8.1c0-2.1-1.7-3.8-3.9-3.9c-2.1,0-3.8,1.8-3.8,3.9V274.2z" fill="none"  stroke="#0096D6"  stroke-width="0.504"  stroke-miterlimit="10"  /><path d="M722,253.8c0,1.1-0.8,2-1.9,2   c-1.1,0-1.9-0.9-1.9-2v-0.8c0-1.1,0.9-1.9,1.9-1.9c1.1,0,1.9,0.9,1.9,1.9V253.8z M722,260.3v13.9c0,1.1-0.8,1.9-1.9,1.9   c-1.1,0-1.9-0.9-1.9-1.9v-13.9c0-1.1,0.9-2,1.9-2C721.2,258.3,722,259.1,722,260.3z" fill="none"  stroke="#0096D6"  stroke-width="0.504"  stroke-miterlimit="10"  /><path d="M727.3,271c0.6-0.9,1.9-1,2.7-0.3   c0.9,0.8,2.5,1.6,3.9,1.6c1,0,1.9-0.3,2.4-0.7c0.5-0.4,0.6-0.8,0.6-1.1c0-0.2,0-0.3-0.1-0.4c0-0.1-0.2-0.3-0.5-0.4   c-0.5-0.4-1.6-0.8-2.9-1h0c-1.1-0.2-2.2-0.5-3.1-0.9c-1-0.5-1.8-1.1-2.5-2.1c-0.4-0.6-0.6-1.4-0.6-2.3c0-1.6,0.9-3,2.1-3.9   c1.3-0.9,2.8-1.3,4.4-1.3c2.5,0,4.2,1.2,5.4,2c0.9,0.6,1.1,1.8,0.6,2.6c-0.6,0.9-1.8,1.1-2.6,0.5c-1.1-0.8-2.1-1.3-3.3-1.3   c-0.9,0-1.7,0.3-2.1,0.6c-0.5,0.3-0.6,0.6-0.6,0.8c0,0.1,0,0.2,0.1,0.3c0,0.1,0.1,0.2,0.4,0.4c0.5,0.3,1.4,0.6,2.6,0.9l0,0h0   c1.2,0.2,2.3,0.5,3.3,1c1,0.4,1.9,1.1,2.5,2.1c0.4,0.7,0.7,1.5,0.7,2.4c0,1.8-1,3.2-2.3,4.1c-1.3,0.9-2.9,1.4-4.6,1.4   c-2.8,0-4.9-1.3-6.4-2.5C726.8,273,726.7,271.8,727.3,271z" fill="none"  stroke="#0096D6"  stroke-width="0.504"  stroke-miterlimit="10"  /><path d="M749.7,253.8c0,1.1-0.8,2-1.9,2   c-1.1,0-1.9-0.9-1.9-2v-0.8c0-1.1,0.9-1.9,1.9-1.9c1.1,0,1.9,0.9,1.9,1.9V253.8z M749.7,260.3v13.9c0,1.1-0.8,1.9-1.9,1.9   c-1.1,0-1.9-0.9-1.9-1.9v-13.9c0-1.1,0.9-2,1.9-2C748.8,258.3,749.7,259.1,749.7,260.3z" fill="none"  stroke="#0096D6"  stroke-width="0.504"  stroke-miterlimit="10"  /><path d="M755,271c0.6-0.9,1.9-1,2.7-0.3   c0.9,0.8,2.5,1.6,3.9,1.6c1,0,1.9-0.3,2.4-0.7c0.5-0.4,0.6-0.8,0.6-1.1c0-0.2,0-0.3-0.1-0.4c0-0.1-0.2-0.3-0.5-0.4   c-0.5-0.4-1.6-0.8-2.9-1h0c-1.1-0.2-2.2-0.5-3.1-0.9c-1-0.5-1.8-1.1-2.5-2.1c-0.4-0.6-0.6-1.4-0.6-2.3c0-1.6,0.9-3,2.1-3.9   c1.3-0.9,2.8-1.3,4.4-1.3c2.5,0,4.2,1.2,5.4,2c0.9,0.6,1.1,1.8,0.6,2.6c-0.6,0.9-1.8,1.1-2.6,0.5c-1.1-0.8-2.1-1.3-3.3-1.3   c-0.9,0-1.7,0.3-2.1,0.6c-0.5,0.3-0.6,0.6-0.6,0.8c0,0.1,0,0.2,0.1,0.3c0,0.1,0.1,0.2,0.4,0.4c0.5,0.3,1.4,0.6,2.6,0.9l0,0h0   c1.2,0.2,2.3,0.5,3.3,1c1,0.4,1.9,1.1,2.5,2.1c0.4,0.7,0.7,1.5,0.7,2.4c0,1.8-1,3.2-2.3,4.1c-1.3,0.9-2.9,1.4-4.6,1.4   c-2.8,0-4.9-1.3-6.4-2.5C754.4,273,754.3,271.8,755,271z" fill="none"  stroke="#0096D6"  stroke-width="0.504"  stroke-miterlimit="10"  />
	
	
	
	
	
	
	
	
	
	
	
	
	
</g><line x1="5.5" y1="190.7" x2="771.8" y2="190.7" fill="none"  stroke="#0096D6"  stroke-width="5.8897"  stroke-linecap="round"  stroke-linejoin="round"  stroke-miterlimit="10"  /><path d="M88,130.3H26.6L14.7,162  c-0.8,1.9-2.5,3.1-4.4,3.1c-0.4,0-1.2-0.2-1.7-0.2c-2.3-1-3.7-3.8-2.7-6.2L52.6,33.8c0.8-1.7,2.7-2.9,4.6-2.9c2.1,0,4,1.2,4.6,2.9  l46.8,124.9c1,2.3-0.2,5.2-2.5,6.2c-0.8,0-1.2,0.2-1.7,0.2c-1.7,0-3.7-1.2-4.4-3.1L88,130.3z M30.1,120.8h54.5L57.4,48.5L30.1,120.8  z" fill="#005DAA"  stroke="#005DAA"  stroke-width="1.68"  stroke-miterlimit="10"  /><path d="M144.3,35.6c0-2.5,2.1-4.6,4.6-4.6  c2.7,0,4.8,2.1,4.8,4.6v125.5c0,2.5-2.1,4.6-4.8,4.6c-2.5,0-4.6-2.1-4.6-4.6V35.6z" fill="#005DAA"  stroke="#005DAA"  stroke-width="1.68"  stroke-miterlimit="10"  /><path d="M293,49.6l-43.1,59.9c-1,1.5-2.5,2.1-3.8,2.1  h-0.4c-1.7,0-3.1-0.6-4-2.1l-43.1-59.7v110.7c0,2.5-2.1,4.6-4.6,4.6c-2.7,0-4.8-2.1-4.8-4.6V35.8c0-1.5,0.8-2.9,1.9-3.7  c0-0.2,0.2-0.2,0.4-0.4c2.1-1.4,5-1,6.5,1.2l47.9,66.4l47.7-66.4c1.3-2.1,4.4-2.5,6.5-1.2c0.6,0.6,1,1,1.3,1.5  c0.4,0.8,0.8,1.7,0.8,2.5v124.7c0,2.5-2.1,4.6-4.6,4.6c-2.7,0-4.6-2.1-4.6-4.6L293,49.6L293,49.6z" fill="#005DAA"  stroke="#005DAA"  stroke-width="1.68"  stroke-miterlimit="10"  /><path d="M337.6,35.6c0-2.5,2.1-4.6,4.6-4.6h0.4h68.9  c2.7,0,4.6,2.1,4.6,4.6c0,2.7-1.9,4.8-4.6,4.8H347v53.3h56.4c2.5,0,4.6,2.1,4.6,4.8c0,2.5-2.1,4.6-4.6,4.6H347v53.1h64.5  c2.7,0,4.6,2.1,4.6,4.8c0,2.5-1.9,4.6-4.6,4.6h-68.7h-0.6h-0.4c-2.3-0.2-4.2-2.1-4.2-4.6L337.6,35.6L337.6,35.6z" fill="#005DAA"  stroke="#005DAA"  stroke-width="1.68"  stroke-miterlimit="10"  /><g><path d="M478,148.9L478,148.9c-19-0.2-34.8-10.5-42.5-16.6c-2.5-2.2-2.8-6-0.9-8.4c2.1-2.6,6.2-3,8.6-0.8   c3.9,3.1,18.2,13.6,34.4,13.6h0.4c8.8,0,17.1-2.5,23-6.8c5.5-3.9,8.5-9.1,8.5-14.5c0-5.3-2.5-9.4-8-13.2   c-5.5-3.6-13.8-6.5-24.5-8.6h-0.5c-11.7-2.2-20.6-5.4-27.2-9.8c-8.1-5.3-12.5-12.9-12.5-21.5c0-8.8,4.5-16.9,12.6-22.8   C457,34,467,31,477.7,31c15.4,0,27.1,7.7,35.7,13.3c2.8,2,3.5,5.6,1.7,8.4c-1,1.7-2.9,2.7-5,2.7c-1.2,0-2.4-0.4-3.4-1.1   c-8.1-5.3-17.3-11.3-29-11.3c-8,0-15.7,2.3-21.2,6.2c-4.9,3.7-7.7,8.4-7.7,13.2c0.1,4.6,2.3,8.1,7.2,11.4c4.9,3.3,12.5,6,22.6,8   h0.5c12.6,2.3,22.1,5.8,29.2,10.5c8.6,5.6,13.3,13.8,13.3,23.1c0,9.2-5,18-13.6,24.3C499.8,145.6,489.2,148.9,478,148.9z" fill="#005DAA"  />
	
</g><g><path d="M532.3,49.3c0-10.2,8.4-18.4,18.8-18.4   c4.3,0,8.4,1.5,11.6,4c1.3,1,1.5,2.8,0.6,4.1c-1,1.2-2.8,1.5-4.1,0.5c-2.2-1.7-5-2.7-8-2.7c-3.7,0-6.9,1.4-9.2,3.7   c-2.4,2.3-3.8,5.4-3.8,8.9c0,3.4,1.4,6.5,3.8,8.7c2.3,2.3,5.5,3.7,9.2,3.7c2.5,0,4.9-0.8,7-1.9v-7h-7.3c-1.6,0-2.9-1.3-2.9-2.9   c0-1.6,1.3-2.8,2.9-2.8h10c0.1,0,0.1,0,0.1,0c0.1,0,0.1,0,0.1,0c1.6,0,2.9,1.2,2.9,2.8v11.2c0,0.4-0.1,0.6-0.2,0.9   c-0.1,0.1-0.1,0.2-0.1,0.3v0.1c-0.2,0.5-0.5,0.9-1,1.2c-3.2,2.5-7.2,4-11.5,4C540.8,67.6,532.3,59.5,532.3,49.3z" fill="#0096D6"  stroke="#0096D6"  stroke-width="0.373"  stroke-miterlimit="10"  /><path d="M574.9,58.7c0.9-1.1,2.6-1.3,3.7-0.4   c2.2,1.8,6.1,4,9.7,3.9c2.5,0,4.8-0.8,6.4-1.9c1.5-1.1,2.2-2.4,2.2-3.7c0-0.7-0.2-1.1-0.5-1.6s-0.8-1-1.5-1.5c-1.5-1-4-1.8-7-2.4   h-0.1c-2.4-0.5-4.6-1.1-6.6-2c-1.9-0.9-3.6-2.2-4.7-4c-0.8-1.2-1.2-2.6-1.2-4.2c0-3.1,1.7-5.7,4.1-7.4c2.4-1.7,5.5-2.7,8.8-2.7   c4.9,0,8.5,2.4,11.1,4.1c1.2,0.8,1.5,2.4,0.7,3.6c-0.8,1.2-2.4,1.6-3.6,0.8c-2.6-1.7-5.1-3.3-8.2-3.3c-2.3,0-4.3,0.7-5.7,1.7   s-1.9,2.1-1.9,3.2c0,0.6,0.1,1,0.4,1.4c0.3,0.4,0.7,0.9,1.4,1.3c1.3,0.9,3.6,1.7,6.4,2.2h0.1c2.6,0.5,5,1.2,7,2.1   c2.1,1,3.9,2.3,5.1,4.2c0.8,1.2,1.2,2.7,1.2,4.3c0,3.3-1.8,6.1-4.4,7.9c-2.5,1.8-5.8,2.9-9.4,2.9c-5.5,0-10.1-2.8-13-5.1   C574.2,61.5,574,59.8,574.9,58.7z" fill="#0096D6"  stroke="#0096D6"  stroke-width="0.373"  stroke-miterlimit="10"  />
	
	
</g><path d="M546.1,168.9c0.4,1,1.7,1,2.9,1.5c0.4,0.2,1.1-0.1,0.6-0.5  l-0.1-0.1c-0.2-0.3,0.2,0,0.5-0.1c0.3,0,1.1,0.8,1.4,0.8c0.3-0.1,0.1-0.7-0.5-1c-0.2-0.1-0.2-0.1,0,0c0.1,0,0.1,0,0.2,0  c0.2,0,0.1,0,0.3,0.1c0.2,0.2,0.4,0.4,0.6,0.5c0.2,0.1,0.6,0.1,0.5-0.2l-0.1-0.1c0-0.1-0.1-0.1,0-0.1c0.2,0,0.3,0.1,0.3-0.1  c0-0.3-0.5-0.7-1-0.9c0,0-0.1,0-0.1-0.1c-0.1-0.1-0.2-0.1-0.3-0.2c-0.1,0-0.1,0-0.2-0.1c-0.3-0.1-0.7-0.2-1-0.1  c-0.3,0.1-0.3,0-0.5-0.1s-0.5-0.2-0.8-0.3s-0.3,0-0.3-0.3c0.1-0.4,0-0.8-0.1-1.3c-0.1-0.3,0-0.5,0-0.8c0.1-1.5,0.2-3-0.3-4.5  c-0.2-0.9-0.3-1.8-0.3-2.7c0-0.5,0.1-0.8,0.2-1.3c0.4-1.5,0.3-2.9-0.4-4.1c-0.4-0.7-0.5-0.6,0.3-0.5c0.5,0.1,0.9,0.1,1.4,0.1  c1,0.1,1.5-0.3,1.7-1.2c0.1-0.5,0-0.4,0.3-0.7c0.2-0.2,0.4-0.4,0.5-0.7c0.1-0.2,0-0.3,0.3-0.5s0.4-0.2,0.5-0.4s0-0.5,0-0.8  c0-0.2-0.1-0.2,0.1-0.3c0.8-0.7,0.2-1.1-0.2-1.8c-0.2-0.5,0.3-1,0.6-1.6c0.7-1.6,0-2.7-0.5-4.1c-0.8-2.2-2.8-4.2-6.8-4.2  c-5.5,0.2-8,4.6-5.2,10.4c0.5,1.6-2.8,0.5-5.6,3.5c-1.6,1.2-2.4,1-5.2,0.8c-9-0.5-10.2,5-9.9,9c0,0.9-0.5,1.5-0.9,2.1  c-0.3,0.4-0.3,0.1-0.6-0.1c-1.1-0.9-3.1-1.4-5.7-1.5c-0.1,0-0.2,0-0.3-0.1c-0.2-0.1-0.4-0.2-0.7-0.3c-0.1,0-0.1-0.1-0.2-0.1  c-0.7-0.9-1.9-1-3.5-0.2c-0.3,0.1-0.6,0.2-0.9,0.3c-1.9,0.5-2,1.2-2.8,1.2c-0.4,0-0.7,0.1-0.8,0.5c0,0.1,0,0.1,0,0.1  c-0.1,0.1-0.2,0.2-0.1,0.4c0,0.1,0,0,0,0.1c-0.1,0.1-0.2,0.3-0.1,0.5c0,0.1,0.1,0.1,0,0.1c-0.5,0.3-0.3,0.8,0.3,0.9  c1.4,0.5,2.9,0.4,4.6-0.3c1.3-0.5,4.1,0.6,6,1.3c0.6,0.2,0.4,0.1,0,0.3c-1,0.5-1.8,1.6-2.5,2.9c-0.2,0.3-0.2,0.3-0.5,0.3  c-0.2,0-0.4,0.1-0.7,0.3c-0.2,0.1-0.2,0.2-0.4,0.1c-1.1-0.2-1.5,0.6-1,1.1c0.6,0.6,1.4,0.6,2,0.6c1.4,0,2.7-0.3,4-0.7  c0.7-0.2,0.9-0.1,1.6,0.1c3.3,1,6.7,1.9,9.6,1.9c1.7,0.1,2.8-0.2,3.3-1.1c1.1-1.9,1-6.1,0.4-8.3c-0.1-0.4-0.3-0.4,0.2-0.4  c1.1,0.2,1.7,0.2,2.7,0c0.5-0.1,0.5-0.2,0.4,0.3c-0.8,2.7-1.2,6.1-0.5,8.5c0.1,0.2,0.1,0.3,0.1,0.5c-0.1,1.2,1.5,0.6,2.5,1.2  c0.5,0.3,1,0.2,0.8-0.2c0-0.1,0-0.1,0.1-0.1c0.8,0,1.5,0.2,1.9,0.3c0.2,0,0.3,0,0.3-0.1s0-0.1,0.1,0c0.3,0.1,0.6,0,0.5-0.2l0,0  c0.2,0.1,0.3-0.1,0.2-0.3c-0.5-0.5-1.5-0.8-2.1-0.9c-0.3,0-0.2,0-0.4-0.2s-0.5-0.4-0.7-0.5s-0.2,0-0.1-0.2c0.2-0.6,0.3-1.2,0.3-1.8  s0.1-0.9,0.3-1.4c0.4-1.3,0.7-2.7,0.9-4c0-0.4-0.1-0.5,0.2-0.7c0.1-0.1,0.3-0.2,0.3-0.4c0.1-0.2,0.1-0.2,0.3-0.3  c0.9-0.2,1.7-0.5,2.3-0.9c0.4-0.3,0.5-0.4,1-0.5c0.9-0.2,1.6-0.6,2.3-1c0.5-0.3,0.4-0.2,0.3,0.3c-0.1,0.9-0.1,1.8,0.1,2.4  c0.1,0.5,0.2,0.9,0.3,1.4C544.9,165.4,545.3,167.6,546.1,168.9L546.1,168.9z M523.1,166c-0.2-0.2-0.3-0.5-0.5-0.8  c-0.1-0.4,0-0.4-0.3-0.1c-0.2,0.3-0.5,0.6-0.8,0.8s-0.2,0.2,0.1,0.1c0.5,0,0.9,0,1.3,0C523.3,166.2,523.3,166.2,523.1,166L523.1,166  z" fill-rule="evenodd"  clip-rule="evenodd"  fill="#0096D6"  /><path d="M566,142.5c0.3,0.4,0,1.1,0.1,1.8c0,0.3,0.6,0.3,0.7,0  c0.1-0.2,0.1-0.4,0.2-0.7c0.1,0.1,0.2,0.3,0.5,0.4c0.3,0.2,0.5-0.5,0.4-0.8c0-0.1-0.1-0.1-0.1-0.2c-0.1-0.1-0.1-0.2-0.2-0.3  c-0.1-0.1-0.1-0.1,0-0.2c0.1-0.2,0.1-0.4,0.1-0.5c0-0.2,0-0.3,0.1-0.4c0.1-0.2,0.1-0.4,0.1-0.6c0-0.3,0-0.4,0.1-0.6  c0.1-0.2,0.2-0.4,0.3-0.6c0.1-0.4,0.2-0.5,0.4-0.1c0.2,0.5,0.1,0.6,0.4,1.1c0.6,0.7,1.2,0.3,1.1-0.3c-0.1-0.7-0.4-1-0.4-1.5  c0-1.5-0.4-2.8-1-4c-0.2-0.4,0.2-1.2,0.3-2.1c0.1-0.9,0.1-0.9,0.5-1.7c0.5-0.9,1.1-2.5,1.5-3.8c0.9-2.5,0.6-2.6,0.7,0  c0,1.9,0.2,3.6,0.8,6.5c1.9,6.7-7.2,13-4.1,14.2c0.4,0.2,0.3,0.4,0.6,0.8c1.2,2.1,4.3,2.3,6.5,2.7c1.4,0.3,1.1,0.1,0.8,1.3  c-1.2,3.8,0.6,10.9-0.5,13.5c-0.5,1.3-0.1,3.1,0.9,3.5c2.2,1,4.5,1.2,6.6,2.4c0.7,0.4,1.3,0.3,1.4,0c0-0.1,0-0.1,0.1-0.1  c0.4,0.1,0.7-0.1,0.7-0.3c0-0.1,0-0.1,0.1-0.1c0.7,0.2,0.9-0.3,0.7-0.5c-0.1,0,0-0.1,0.1-0.1c0.4,0.1,0.9-0.1,0.6-0.5l0,0  c0.3,0,0.7-0.2,0.7-0.6c0-0.7-1.6-0.5-2.7-1.1c-1.1-0.7-1.7-1.4-2.9-2.2c-0.7-0.5-1-0.8,0.1-1.1c1.7-0.5,5.6,0.2,6.6-1  c0.3-0.4-0.2-0.8-0.7-0.8c-0.1,0-0.1,0-0.1,0c0.2-0.2-0.1-0.5-0.4-0.4c-0.1,0-0.1,0,0,0c0.2-0.2,0-0.5-0.3-0.5c-0.1,0-0.1,0-0.1-0.1  c0.1-0.2-0.1-0.3-0.6-0.3c-0.2,0-0.5,0.1-0.8,0.1c-2.3-0.5-3.4,0.2-3.2-0.6c0.4-1.7,1.2-6.1,1.4-10.1c2.5,0,4.1-0.2,5.1-0.5  c1.7-0.4,0.4-1.2,2.1-1.4c1.2-0.1,2.9-0.1,3.2-1.1c0.8-3,1.8-1.7,3.2-3.1c3.1-3.6-4.3-9.1-5.4-14.2c-0.3-5.9,0.8-5.6-0.3-11.4  c1,1.7,3.4,2.6,3.8,3.3c0.4,1,0.9,1.9,1.4,2.4c0.3,0.7,0.8,1.4,1,1.8c0.2,0.3,0.7,0,0.6-0.3c-0.1-0.2-0.2-0.7-0.2-1  c0.1-0.4,0.5-0.3,0.8,0c0.6,0.5,1.2,1.5,1.3,1.7c0.3,0.5,0.8,0.1,0.8-0.2c-0.1-0.4-0.4-1.2-0.7-1.7c0.5,0.1,1.4,1.6,1.5,1.7  c0.3,0.4,0.9-0.1,0.7-0.5c0-0.1-0.2-0.7-1.2-1.7c0.7,0.4,1,0.7,1.5,0.8c0.3,0,0.5-0.4,0.1-0.7c-1-0.7-1.8-1.6-2.2-2  c-0.5-0.5-2.8-1.2-3.2-2c-1.5-2.6-1.7-5.1-3.7-7.4c-1.7-3.1,0.3-6.9-5.2-8.4c1.1-1.1,1.6-3,1.6-3.9c0-1.8-0.6-4.2-0.6-5.1  s0.6-2,0.7-3c0.2-2.3,0.2-4.6-3.3-5.6c-0.7-0.2-1.2-0.4-1.8-0.6c-2.2-0.9-4.3-0.6-6.5-0.1c-0.3,0.1-0.5,0.1-0.4-0.2  c0.1-0.9,0.6-1.2,0.1-1.8c-0.7-0.9-2.1-0.5-2.4,0.1c-0.3,0.6-0.2,1.1,0.2,1.6c0.1,0.1,0,0.2-0.1,0.1c-0.3-0.2-0.7-0.6-1.2-1.1  c-1.3-1.4-3.2,1.4-2.5,2.3c0.3,0.4,1.2,0.5,2.2,0.5c0.1,0,0.1,0.1,0,0.1c-1.1,0-2.6,0-2.7,1.1c-0.1,1.1,0.4,2.2,1,2  c0.7-0.3,1.4-1,1.9-1.4c0.1,0,0.1,0,0.1,0.1c-0.8,0.8-1.5,2-1.7,3c-0.3,1.7,0.2,3.1,0.9,4.5c-1.2,0.5-0.5,1.9,0,3.1  c1,2.3,1.5,2.5,1.8,2.4c0.6,0.4,0.9,1.3,0.9,2.3c0,1.5-3.6,3.8-5.7,5.4c-2.6,1.6-3.6,8.6-5.3,12.8c-1.1,3-1.3,7.1-1,10  c0.2,1.3-0.5,3.5-0.2,4.8C565.2,140.6,565.5,141.5,566,142.5L566,142.5z" fill-rule="evenodd"  clip-rule="evenodd"  fill="#0096D6"  /><path d="M618.2,170.6c-0.3,2.6,7.3,2.6,8-0.1c1.1-4.4,3.1-5.8,2.3-8.4  c-0.1-0.4-0.1-0.6-0.1-1c0-0.3,0-0.6-0.1-0.9c-0.1-0.6-0.1-0.7,0-1.3c0.2-0.7,0.4-1.4,0.5-2.1c0.6-2.1,7.4-0.4,8-2  c0.6-1.4,1-3.4,1.1-5.4c0.2-1.7,0.4-3,0.8-4.6c1-3.8,1.8-8.4,2.2-12.3c0.3-2.3,0.2-2.2,1.1-0.1c2.8,6.7,2.2,13.3,3.9,19.3  c0.3,1.2,2.1,1.9,3.4,2.5c0.5,0.2,0.6,0.6,0.4,1.1c-0.2,0.4-0.5,0.5-0.9,1.4s-0.4,2.4-0.3,3.8c-0.1,1.2,0.6,2.5,2.2,3.1  c1.2,0.6,1.1,2.1,1.6,3.3c0.8,2.7,8.3,1.8,7.6-0.8c0-0.1,0-0.2,0-0.3c0.5-3-2.3-5.6-3.8-8.6c-0.7-1.3-0.8-1.9-0.8-3.1  c0-1.1,2.1-1,2.2-2.5c0-5.2,0.1-10.7-0.8-16.1c-0.2-1.3-0.4-2.5-0.5-3.8c-0.1-0.6-0.2-1.1-0.3-1.6c-0.4-1.7-0.4-2.4-0.3-4.1  c0.2-2.8-0.1-5.7-0.3-8.5c-0.1-0.4,0.6-0.3,0.8-0.9c0.2-1.5-1.7-2.9-2.3-4.7c-1.3-3-1.3-8.3-0.8-10.3c0.5-1.5,0.5-2.9,0.4-4.6  s-0.2-1.5,0.7-0.1c0.8,1.5,1.7,2.9,2.3,4.5c1.5,4.4,4.2,8.6,4.5,13.2c0.2,1.6-0.5,1.9-0.8,3.6c-0.3,1.1,0,4,0,5.4  c0,0.7,1.1,0.7,1.2,0c0.1-0.9,0.1-1.4,0.2-2.3c0.1-0.5,0.3-0.8,0.7-0.4c0.5,0.8,0.8,1.1,0.5,2c-0.2,0.4-0.7,0.4-0.8,0.4  c-0.3,0-0.3,0.5,0,0.6l0,0c-0.5,0.1-0.4,0.5-0.3,0.6l0,0c-0.2,0.2-0.2,0.5,0,0.5l0,0c-0.2,0.1-0.3,0.6,0.2,0.6  c1.2-0.1,1.7-0.4,2.3-0.9c0.9-0.9,1.3-1.6,1.4-2.2c0.1-0.5,0-1,0.1-1.5c0.1-1.7,0-3.4-0.9-5.1c-0.4-0.7-0.6-1.1-0.7-1.9  c-0.7-4.4-1.1-9-2.3-13.4c-0.4-2.1-1.5-4-2.2-6c-0.5-1.1,2.4-2.5,1.7-3.3c-0.2-0.3-0.4-0.7-0.6-1c-1-3.6-3.1-9-5.1-11  c-1.7-1.8-4-1.4-5.6-3.3c-1-1.2-1.7-1.8-2.8-2.2c-0.9-0.3-0.8,0-0.2-0.8c1-1.1,1.5-2.4,1.7-3.8c0.1-0.5,0-0.3,0.4-0.6  c0.5-0.4,0.6-1.4,0.4-3c-0.1-0.7,0-0.8,0.4-1.4c3.1-5.9-3.6-10.2-8.8-8.8c-0.5,0.1-0.7,0.1-1.3,0.1c-1.4,0-3,0.6-4,2.1  c-1.3,1.9-1.4,4.3-0.8,6.2c0.1,0.5,0.2,0.6,0.1,1.1c-0.1,1.7,0.1,3,0.8,3.7c0.4,0.4,0.4,0.4,0.5,1c0.2,0.8,0.4,1.6,0.7,2.3  c0.2,0.5,0.1,0.4-0.5,0.5c-0.9,0.2-1.8,0.6-2.8,1.4c-1.4,1.3-1.5,1.2-3.3,1.9c-3.1,1.1-5.5,3.5-7.5,9.8c-0.8,2.2-2.6,3.9-3.5,6.2  c-0.5,0.9,2.2,1.2,1.8,2.4c-0.9,2.9-2.1,6.9-2.6,10c-0.5,1.8-0.7,7.5-1.1,12c-0.4,3.7-3.4,5.6-2.6,8.1c0.1,0.2,0.1,0.2,0,0.3  c-0.2,0.8-0.1,1.3,0.2,1.8c0.1,0.2,0.1,0.2,0.1,0.4c0.1,1,0.4,1.3,0.5,2.4c0.1,0.7,1.1,0.4,1-0.3c-0.2-2.1,0.1-3,1.2-4.1  c0.3-0.3,0.3-0.2,0.3,0.1c0,1.7,0.1,2.6,1.2,3.7c0.4,0.3,1.1,0,0.9-0.4c-0.4-0.9-0.5-1.6-0.4-2.6c0.3-1.5,0.6-2.3,1.1-2.8  c0.3-0.3,0.8-0.3,0.8,0.3c0,0.7,0.1,1.4,0.2,2c0.1,1.1,1.5,0.6,1.4-0.2c-0.2-2.2,0.5-4-0.4-5.8c-0.5-0.9-0.6-0.9-0.6-2.1  c0-3.9,0.1-7.7,0.9-11.6c0.7-1.8,2-5.7,2.9-8c0.3-0.8,0.1-0.7,0.8-0.5c0.3,0.1,0.6,0.1,0.8,0.1c0.1,0,0.3,0,0.3,0.3  c0.3,3.4-0.1,6.6,0.3,9.9c-0.5,3.3-0.1,6.4-1.3,10.1c-0.4,1.2-0.7,1.4-0.8,1.8c0,0.6,1.6,0.5,1.3,0.9c-1.6,3.8-1.4,8.7-2.1,13.4  c0,1-1.8,0.9-1.3,1.7c0.4,1.5,0.4,2.2,0.5,4.1c0.4,4.5-1.8,9.1-2,13.9c-0.1,1,1.6,0.8,1.2,1.9c-0.2,0.7-0.3,1.5-0.5,2.3  c-0.1,0.6-0.1,0.9-0.6,1c-2,0.3-2.8,3.2-3.1,6c-0.1,0.5-0.1,0.6-0.3,1c-1,1.6-1.6,3.1-1.4,4.6C618.2,170.4,618.2,170.5,618.2,170.6  L618.2,170.6z" fill-rule="evenodd"  clip-rule="evenodd"  fill="#0096D6"  /><path d="M676.8,40.6c-0.1-2.5,0.4-5,1.7-7.6c0.8-1.4,1.1-3.7,1.3-6.4  c0.6-7,4.3-9.5,8.4-10.1c2.3-0.9,4.8-0.8,6.9,0.8c0.8,0.7,1.2,1,2.2,1.5c2.6,1.4,3.6,4.4,3.3,7.7c0,1.8,0.6,3.6,1.9,5.2  c1.6,2.6,0.3,5.7-0.8,7.5c-1.8,2.3-2,4.1-0.6,4.4c2.3,0.5,3.7,2.7,4.6,4.9c1.9,3.5,3.2,6.7,5.1,10.2c1.2,2.2,1.4,3.7,1.2,6.3  c-0.2,5.2-0.8,10.1-1,15.2c0,0.3,0,0.6,0,0.9c0.2,1.1,0.3,2,0,3c-0.2,0.8-0.1,0.7,0.2,1.4c1.6,2.9,1,4.4,3.9,11.2  c0.9,1.7-5.4,1.7-5.8,4c-1.1,8-3.6,13.8-4.6,16.9c-0.3,1-0.3,1.8-0.5,2.7c-0.2,1.2-0.5,2.1-0.9,3.1c-0.3,1-0.3,1.9-0.3,2.9  c-0.3,9.7-4.3,17.7-4.9,29c-0.1,2.2,1.6,5.2,2.6,8.1c0.5,2.2,1.9,2.8,2.5,3.6c1.1,1.3,0.3,2.4-1.8,2.4c-0.4,0-0.3,0-0.1,0.3  c2.8,2.9-1.1,3.2-6.9,2.6c-2.2-0.3-3.5-2.4-4.3-5c-0.1-0.4-0.1-0.5-0.1,0c0,0.6-0.1,1.2-0.1,1.8c0,0.3-0.8,0.2-0.8,0  c-0.2-2.6,0.2-5.3-1.6-7.3c-0.8-1-1-1.6-1-2.4c0.1-0.9,0.6-2.4,1.1-3.5c0.4-0.9,0.6-1.4,0.7-2.4c0.7-7.3-2.1-19.1,3-26.9  c1.1-1.6,1.6-3.4,0.7-5.6c-2.1-6.6-5-13.3-9.2-20c-0.4-0.6-2.1-0.3-2.5-0.9c-1.8-2.9-1.2-7.1-1.1-11c0-1.8-0.1-2-1.3-3.4  c-4-4.5-6.5-8.5-9.1-14c-0.4-0.8-0.7-1.5-1.2-2.2c-0.6-1-0.9-2.1-0.8-3.4c0.1-0.8,0.2-1.6,0.3-2.5c0.3-2.7,1.5-5.6,2.7-8.4  c0.6-1.5,0.8-1.9,1.1-3.4c0.9-4.6,1.9-9.1,5.4-10.2C676.9,41.3,676.8,41.4,676.8,40.6L676.8,40.6z M702.9,60.7  c-0.2,4.3-1.6,7.7,0.5,12.7c0.5,1.1,1.7,1.9,2.6,3.1c1.3,1.6,0.9,1.8,0.8-0.5c-0.1-2.7-0.1-5.9-0.2-8.2c-0.1-1.5,0-3.6-0.8-4.8  c-0.5-0.7-1.1-1.7-1.8-2.6C702.7,58.5,703,58.7,702.9,60.7L702.9,60.7z M676,64.1c-0.1,0.2-0.2,0.5-0.4,0.7  c-0.8,1.6-0.8,1.9-0.2,3.6c1,2.6,1.8,5.1,3.3,7.6c0.4,0.7,1,1.1,1-0.3c0.2-2,0.7-3.2,0.3-5.4c-0.4-1.9-1.1-3.6-2.3-6  C676.8,62.3,677,62.1,676,64.1L676,64.1z" fill-rule="evenodd"  clip-rule="evenodd"  fill="#0096D6"  /><path d="M744.6,162.5c-1.2,1.6-1.7,3.2-1.3,4.7c0.1,0.3,0.1,0.3,0,0.6  c-0.1,0.4-0.1,1,0,1.4c0.9,2.9,6.7,3.2,9.9,1.6c0.9-0.5,0.7-1.6,0.6-2.2c-0.2-2.2,0.9-3.6,0.3-6.2c-0.2-0.6,0.8-1,1.7-1.3  c1.3-0.5,2-1.4,1.7-2.3c-0.6-2.4-2.5-4.2-2.1-6.6c0.6-3.3,0.3-5.7-0.6-8.9c-1-2.9-1.4-5.7-1-8.2c0.7-2.4,1.2-5.6,1.4-9.9  c1.1-6.4,2.4-12.8,4.5-19.4c0.2-0.6,0.7-0.4,0.7,0.6c0.2,5.1,0.5,10.1,1.7,14.2c2.2,4.4,2.4,6.8,2,10.7c-0.3,2.5,0,4.7-0.5,7.2  c-0.6,3.4-1.6,6.9-3.1,11.2c-1.4,4.8-0.7,8.6,1.2,11.4c0.2,0.4,0.2,0.4,0.2,0.8c-0.3,1.8-0.2,3.4,0.8,4.1c1.7,1,3.6,1.1,5.6,1.2  c1.4,0.1,0.7,3.2,4.8,4.6c3.7,1,8.4,0.7,9.7-1.3c0.1-0.2,0-0.3,0-0.5c0.2-1.7-1.2-3.1-2.7-4.3c-0.8-0.6-1.9-1-2.6-1.6  c-0.7-0.6-1.5-1.3-2-2.1c-0.2-0.3-0.2-0.4-0.2-0.8c-0.2-1-1.1-1.9-1.7-2.8c-0.2-0.4-0.3-0.4,0.1-0.6c4.1-2.8,0.7-7.3,1.9-12.6  c2.7-8,1.8-16.1,3.1-24.2c0.7-3.2-0.3-4.8-0.2-7.4c0.8-11.4,0-22.8-2.8-35.5c0-0.1,0-0.1,0-0.2c0.1-0.8,0-1.7-0.2-2.6  c0-0.2,0-0.2,0-0.4c0-3.9-2.2-18-1.4-20.1c0.1-0.1,0-0.1,0.1,0c0.5,0.5,1.1,0.8,1.8,1c0.2,0,0.1,0.1,0.2,0.2  c1.6,5.7,4.3,11,8.5,16.1c0.6,0.9,0.7,1.9-0.4,3.3c-1,1.4-0.6,3.5-0.9,5.5c-0.1,0.8-0.2,1.9-0.1,2.5c0.2,0.7,1.7,0.4,2.1-0.5  c0.3-0.6,0.5-1.4,0.5-2.3c0-0.3,0.1-0.5,0.5-0.6c1.4-0.4,1.8,1,1.6,2.9c-0.2,1.3-0.9,2.4-0.9,4.1c0,0.9,0.5,1.1,1.2,0.9  c0.1,0,0.1-0.1,0.1,0.1c0,1.2,1,1.2,1.7,0.7c0.1-0.1,0.1-0.1,0.1,0c0.3,0.5,1,0.7,1.4,0.3c0.4-0.5,0.8-1.2,1.1-2c0-0.1,0-0.1,0.1,0  c0.2,0.2,0.6,0.1,0.7-0.2c0.9-2.2,1-2.1,1.3-3.2c0.2-0.8,0-1.8-0.3-2.3c-0.7-2.2-1.6-4.4-3.5-6.7c-0.2-0.2-0.2-0.3-0.2-0.5  c0-1-0.2-2-0.5-3.1c-1.3-6.6-3.1-12.9-6.1-18.3c-0.2-0.6,0.3-1,1.1-1.3c2.1-0.6,2.2-1.6,1.6-2.7c-2.2-5.2-5.2-10.4-8.2-15.6  c-0.9-2.1-2.6-3.9-4.8-5.5c-2.6-1.7-6.7-3.1-10.6-4.6c-0.2-0.1-0.2-0.1-0.1-0.2c0.5-0.6,0.6-1.1,0.8-1.9c0.1-0.7,0.4-1.4,0.5-2.1  c0-0.3,0-0.3,0.2-0.4c0.4-0.2,0.6-0.6,0.6-1.1c0-0.3,0-0.4,0.1-0.7c0.8-2.4,1.1-4.3-0.2-4.9c-0.4-0.2-0.3-0.1-0.2-0.5  c0.5-3.5,1.1-6.6-2.5-8.6c-0.3-0.2-0.5-0.3-0.8-0.5c-3-2.5-6.9-2.6-9.7-1.1c-0.2,0.1-0.4,0.2-0.6,0.3c-4.6,1.3-4.7,5.1-3.5,10.8  c0.2,0.8,0.1,0.6-0.6,0.7c-2,0.3-1.8,2.1-0.3,5c0.2,0.3,0.3,0.6,0.4,0.9c0.3,0.7,0.6,0.9,1,0.9c0.3,0,0.3,0,0.3,0.2  c0,0.1,0,0.2,0,0.2c0,0.1,0,0.2-0.2,0.4c-0.6,0.5-1.1,1.7-1.6,2.9c-0.4,0.9-0.6,0.9-1.5,1.3c-5.4,2.4-10.7,4.9-13.4,10  c-1.2,1.8-1.1,5.1-2.3,7.1c-3,4.7-4.3,9.7-6.1,15.1c-0.8,1.9,3,2.6,4.6,3.2c0.4,0.2,0.4,0.5,0.5,1.2c0.2,2.5-1.1,8.7-1.3,12.2  c-0.1,2.7,0.4,10.8,1.8,16.6c0.2,0.9,0.2,1.2,0,2c-0.2,1.4-0.2,3.1-0.7,4.2c-0.6,1.2-0.3,2.5-0.4,5.7c-0.1,1.1,0.6,1.7,1.2,1.9  c0.1,0,0.1,0,0.1,0.1c0.3,1,0.5,1.2,1.3,1.1c0.1,0,0.1,0,0.2,0.1c0.4,0.7,1,0.5,1.8,1.4s1.5,0.7,2.3,0.8c0.5,0.1,0.8,0.1,1.2,0.1  c0.5,0,1.1,0.5,1.3,0.6c0.5,0.3,1-0.7,0.3-1.3c-0.9-0.8-1.3-1.7-1.9-2.4c-0.3-0.4-0.3-0.3-0.3-0.8c0-0.7-0.1-1.2-0.4-1.6  c-0.1-0.3-0.2-0.4-0.2-0.7c0-0.3,0.1-0.7,0-1c-0.1-0.5,0.2-0.9,0.4-1.1c0.4-0.3,0.8-0.1,1,0.2c0.5,0.6,0.5,1.7,0.8,2.4  c0.3,0.9,0.9,1.6,1.6,2c0.9,0.2,1.2-0.2,1-0.8c-0.3-1.1-0.2-2.3-0.6-3.1c-1.1-2.3-1.5-5.3-3.9-7.9c-1.3-1.9-0.9-7.1-0.9-10.2  c-0.1-3.1,0.9-5,1.2-8.9c0.1-0.9,0.9-11.7,1.7-11.7c1.3,0.1,1.9,0.2,3.1,0c0.5-0.1-0.7,12.1-0.8,12.6c-0.3,1.1-0.5,2-0.6,3.1  c-0.1,0.9-0.3,2.5-0.3,3.8c0.1,5.8,0.2,9.6,0.2,10c0.2,3.2,1.2,6.2,1.6,9.2c0.1,0.5,0.1,1.1,0.1,1.6c-0.6,4.4-0.8,8.7-0.2,13  c0.4,7.1,1.7,12.8,2.5,19.2c1,6.5-0.7,12.6,1.4,18.9c0.1,0.2,0,0.3,0,0.4c-1.1,3.2-1.3,6.3,0.4,8.9  C744.8,162.3,744.8,162.2,744.6,162.5L744.6,162.5z" fill-rule="evenodd"  clip-rule="evenodd"  fill="#0096D6"  /></svg>