<svg viewBox="0 0 723.9 283.5" width="723.9" height="283.5" role="img" aria-labelledby="baby-oscar--title" xmlns="http://www.w3.org/2000/svg" xmlns:xlink="http://www.w3.org/1999/xlink"><title id="baby-oscar--title">Baby OSCAR - Outcome after selective early closure of PDA</title><path d="M239.4,241.6L239.4,241.6c-26.3-0.2-48.1-14.5-58.8-22.9c-3.6-3.2-4.1-8.6-1.3-12.2c1.7-2.1,4.2-3.3,6.8-3.3  c2.1,0,4.1,0.8,5.7,2.1c5.3,4.3,24.9,18.7,47.1,18.7l0.6,0c11.9,0,23.4-3.4,31.4-9.3c7.4-5.3,11.5-12.3,11.5-19.6  c0-7.2-3.3-12.7-10.8-17.8c-7.5-5-18.8-8.9-33.6-11.8l-0.8-0.1c-16.2-3-28.5-7.4-37.5-13.5c-11.2-7.3-17.5-18-17.5-29.9  c0-12.3,6.2-23.6,17.6-31.8c10.5-7.7,24.5-11.9,39.2-11.9c21.3,0,37.5,10.6,49.3,18.3c4.1,2.8,5.1,8,2.5,12.1c-1.4,2.4-4.2,4-7.2,4  c-1.8,0-3.5-0.5-4.9-1.5c-11-7.2-23.6-15.5-39.7-15.5c-10.9,0-21.5,3.1-29,8.4c-6.7,5-10.4,11.3-10.4,17.8  c0.2,6.2,3.1,10.8,9.7,15.4c6.6,4.6,17.1,8.2,30.9,10.9l0.8,0.1c17.4,3.2,30.6,8,40.4,14.6c11.9,7.8,18.5,19.2,18.5,32.1  c0,12.8-6.9,25.1-18.9,33.8C269.7,237,254.9,241.6,239.4,241.6L239.4,241.6z M399.6,241.3c-46,0-83.4-36.4-83.4-81  c0-44.9,37.4-81.7,83.4-81.9c18.6,0,37,6.3,51.8,17.6c2.2,1.8,3.5,4.3,3.6,7.1c0.1,2.3-0.6,4.5-2.1,6.1c-1.7,2.3-4.4,3.7-7.2,3.7  c-2.1,0-4.1-0.7-5.7-2c-11.8-9.1-25.8-14-40.4-14c-35.8,0-64.9,28.4-64.9,63.4c0,34.5,29.1,62.5,64.9,62.5  c15.1,0,29.3-4.9,39.9-13.9l0.4-0.3c1.6-1.1,3.6-1.7,5.5-1.7c3,0,5.7,1.4,7.3,3.8c1.6,1.6,2.4,3.9,2.3,6.3c-0.1,2.8-1.5,5.4-3.7,6.9  C436.8,235.1,418.4,241.3,399.6,241.3L399.6,241.3z M588.7,241.3c-3.7,0-7.2-2.4-8.6-5.9l-12.6-33.6h-64.3l-12.6,33.5  c-1.5,3.7-4.9,6-8.7,6c-0.3,0-0.8-0.1-1.4-0.1c-0.2,0-0.4-0.1-0.6-0.1l-0.7,0l-0.8-0.3c-2.3-0.9-4.1-2.8-5.1-5.2  c-0.9-2.3-1-4.7-0.1-6.9l53.1-141.9c1.5-3.3,5-5.6,8.8-5.6c4.2,0,7.8,2.4,8.9,6l53.1,141.7c0.9,2.1,0.9,4.6-0.1,6.9  c-0.9,2.3-2.7,4.1-4.9,5.1l-0.7,0.3h-0.8c-0.2,0-0.3,0-0.4,0.1C589.8,241.3,589.3,241.3,588.7,241.3L588.7,241.3z M510,183.3h50.6  l-25.2-67.2L510,183.3z M624.8,241.3c-5,0-9.1-4.2-9.1-9.1V89.7c0-4.7,3.8-8.8,8.4-9.1l1.4,0h42.6c26.1,0,47.4,21.4,47.4,47.6  c0,16-8.1,30.9-21.2,39.6c7.7,5.4,18.8,16.3,18.8,35.1c0,9.2,1,14,1.8,16.5c0.1,0.3,0.3,0.8,0.5,1.1c3.5,0.5,6.4,2.8,7.6,6l0.1,0.5  c1.1,4.9-1.3,9.8-5.9,11.5l-0.7,0.3h-0.5c-0.9,0.1-1.9,0.2-2.8,0.2h-0.4c-4.2,0-10.2-2.9-13.3-9.1c-3.1-6-4.6-14.3-4.6-26.9  c0-8.2-3.5-14.5-10.9-20c-6-4.3-13.5-6.5-16-6.9l-0.6-0.2c-0.2-0.1-0.4-0.1-0.6-0.2h-32.5v56.6C634.2,237.2,630,241.3,624.8,241.3  L624.8,241.3z M634.2,157.3h34.8c15.5-0.4,28.2-13.4,28.2-29.1c0-16-13.1-29.1-29.1-29.1h-33.9L634.2,157.3L634.2,157.3L634.2,157.3  z M80.9,243.2c-45.1,0-80.6-36.4-80.9-82.8c0.1-16.1,4.6-31.7,12.9-45c1.6-2.6,4.5-4.2,7.6-4.2c1.7,0,3.3,0.5,4.8,1.4  c2,1.3,3.5,3.3,4,5.6c0.5,2.3,0.1,4.8-1.2,6.8C21.6,135.5,18,147.7,18,160.4c0.2,36.3,27.8,64.8,62.9,64.8  c35.5,0,63.4-28.5,63.6-64.9c-0.2-36.3-28.1-64.8-63.6-64.8c-10.2,0-19.8,2.4-28.7,7.1c-4.4,2.3-9.8,0.6-12.1-3.8c0,0,0,0,0,0  c-1.1-2.1-1.3-4.6-0.6-6.8c0.7-2.3,2.3-4.2,4.4-5.3c11.5-6.1,24-9.1,37.1-9.1c45.5,0,81.3,36.4,81.5,82.8  C162.2,206.8,126.4,243.2,80.9,243.2L80.9,243.2z" fill="#2D649E"  /><path d="M48.5,177.8c-2.6,0-4.9-1.8-5.6-4.3c-0.6-1.6-5-7.4-12-12c-1.2-0.8-2.5-1.6-3.7-2.3  c-8.1-4.9-19.3-11.6-19.2-26.3c0.1-17.9,11.7-27.3,23.2-27.3c6.7,0,12.8,3,17.4,8.2c4.6-5,10.8-7.9,17.3-7.9  c11.4,0,23,9.2,23.1,26.8c0.1,14.2-10.5,20.8-18.3,25.6c-1.6,1-3.2,2-4.5,2.9c-6.5,4.6-11.4,10.5-12.1,12.3  C53.4,176,51.2,177.8,48.5,177.8C48.5,177.8,48.5,177.8,48.5,177.8L48.5,177.8z" fill="#9C2F33"  /><g><path d="M141.1,261.1c1.8,1.9,2.9,4.4,2.9,7.2c0,2.7-1,5.3-2.9,7.2c-1.7,1.9-4.2,3.1-6.8,3.1c-2.7,0-5.3-1.2-7-3.1   c-1.8-1.9-2.8-4.4-2.8-7.2c0-2.8,1.1-5.4,2.8-7.2c1.8-2,4.4-3.1,7-3.1C136.9,258,139.4,259.2,141.1,261.1z M140.7,268.3   c0-1.9-0.7-3.6-1.9-5c-1.2-1.3-2.8-2-4.5-2c-1.8,0-3.4,0.7-4.6,2c-1.2,1.3-1.9,3.1-1.9,5c0,1.9,0.7,3.8,1.9,5   c1.2,1.3,2.8,2.1,4.6,2.1c1.7,0,3.3-0.8,4.5-2.1C139.9,272,140.7,270.2,140.7,268.3z M154.2,278.6c-3.3,0-6-2.7-6-6v-6.8   c0-0.8,0.7-1.5,1.5-1.5c0.9,0,1.5,0.7,1.5,1.5v6.8c0,1.6,1.3,2.9,2.9,2.9c1.7,0,3-1.3,3-2.9v-6.8c0-0.8,0.6-1.5,1.5-1.5   c0.8,0,1.5,0.7,1.5,1.5v6.8C160.3,275.9,157.5,278.6,154.2,278.6z M171.8,265.9c0,0.9-0.7,1.6-1.6,1.6h-0.7v8   c0.9,0,1.6,0.7,1.6,1.6c0,0.9-0.7,1.6-1.6,1.6c-1.8,0-3.2-1.4-3.2-3.2v-8h-0.8c-0.9,0-1.6-0.7-1.6-1.6c0-0.9,0.7-1.6,1.6-1.6h0.8   v-4.2c0-0.9,0.7-1.6,1.6-1.6c0.9,0,1.6,0.7,1.6,1.6v4.2h0.7C171.1,264.3,171.8,265,171.8,265.9z M174.7,271.5c0-4,3.3-7.2,7.3-7.2   c1.7,0,3.3,0.6,4.5,1.6c0.7,0.5,0.8,1.5,0.3,2.1c-0.6,0.7-1.5,0.8-2.1,0.3c-0.7-0.5-1.7-0.9-2.7-0.9c-2.3,0-4.2,1.9-4.2,4.1   c0,2.2,1.9,4.1,4.2,4.1c1,0,2-0.4,2.7-0.9c0.6-0.5,1.6-0.4,2.1,0.3c0.5,0.6,0.3,1.5-0.3,2.1c-1.2,0.9-2.8,1.5-4.5,1.5   C178,278.6,174.7,275.4,174.7,271.5z M192.2,276.5c-1.2-1.3-2-3-2-5c0-1.9,0.7-3.6,2-5c1.3-1.3,2.9-2.2,4.9-2.2   c1.9,0,3.6,0.8,4.8,2.2c1.3,1.4,2,3.1,2,5c0,2-0.7,3.8-2,5c-1.2,1.4-2.9,2.2-4.8,2.2C195.2,278.7,193.5,277.9,192.2,276.5z    M193.4,271.5c0,1.2,0.4,2.2,1,3c0.7,0.7,1.7,1.1,2.7,1.1c1,0,1.9-0.4,2.6-1.1c0.7-0.8,1.1-1.8,1.1-3c0-1.2-0.4-2.2-1.1-3   c-0.7-0.6-1.6-1.1-2.6-1.1c-1.1,0-2,0.5-2.7,1.1C193.7,269.3,193.4,270.3,193.4,271.5z M220,270.2v6.9c0,0.8-0.7,1.5-1.5,1.5   c-0.8,0-1.5-0.7-1.5-1.5v-6.8v-0.1c0-1.6-1.3-2.9-2.9-2.9c-1.6,0-2.9,1.3-2.9,2.9v6.8c0,0.1,0,0.1,0,0.2v0.1c0,0.1,0,0.1-0.1,0.2   v0.1c-0.3,0.5-0.8,0.9-1.4,0.9c-0.1,0-0.2,0-0.3,0c-0.7-0.2-1.2-0.7-1.2-1.5v-6.8v-4.5c0-0.9,0.7-1.5,1.5-1.5   c0.6,0,1.1,0.3,1.4,0.9c0.9-0.6,2-0.9,3.1-0.9c1.8,0,3.4,0.7,4.5,2c1.1-1.2,2.7-2,4.5-2c3.3,0,6,2.7,6,6v6.8c0,0.8-0.7,1.5-1.5,1.5   s-1.5-0.7-1.5-1.5v-6.8c0-1.6-1.3-2.9-2.9-2.9C221.4,267.3,220.1,268.6,220,270.2L220,270.2z M233.6,271.4c0-3.9,3.1-7.2,7-7.2   c3.7,0,6.7,2.8,6.9,6.6v0.1c0,0.1,0,0.2,0,0.3c-0.1,0.7-0.7,1.1-1.5,1.1h-9.1c0.1,0.7,0.5,1.4,1,1.9c0.6,0.7,1.7,1.2,2.7,1.3   c1,0.1,2.3-0.2,3-0.7c0.6-0.6,1.8-0.5,2.1-0.1c0.4,0.4,0.7,1.3,0,1.9c-1.4,1.3-3.1,1.9-5.1,1.9   C236.6,278.6,233.6,275.3,233.6,271.4L233.6,271.4z M236.7,270h8.1c-0.3-1.1-1.7-2.8-4.2-3C238.1,267.1,236.9,268.9,236.7,270   L236.7,270z M271.3,271.5v5.6c0,0.8-0.7,1.5-1.5,1.5c-0.7,0-1.3-0.5-1.5-1.2c-1.1,0.8-2.4,1.2-3.8,1.2c-1.8,0-3.6-0.7-4.9-2.1   c-1.2-1.3-1.9-3.1-1.9-5c0-2,0.7-3.7,1.9-5c1.2-1.3,2.9-2.1,4.9-2.1c1.4,0,2.7,0.5,3.8,1.3c0.2-0.7,0.7-1.3,1.5-1.3   c0.8,0,1.5,0.7,1.5,1.5V271.5z M268.2,271.5c0-1.2-0.4-2.2-1.1-2.9c-0.7-0.8-1.6-1.2-2.7-1.2c-1,0-2,0.4-2.7,1.2   c-0.7,0.7-1.1,1.7-1.1,2.9c0,1.2,0.4,2.2,1.1,2.9c0.7,0.7,1.6,1.1,2.7,1.1c1,0,2-0.4,2.7-1.1C267.8,273.7,268.2,272.6,268.2,271.5z    M280.8,263.3v0.4h0.9c0.9,0,1.6,0.7,1.6,1.6c0,0.9-0.7,1.6-1.6,1.6h-0.9V277c0,0.9-0.7,1.6-1.6,1.6s-1.6-0.7-1.6-1.6v-10.1h-0.7   c-0.9,0-1.6-0.7-1.6-1.6c0-0.9,0.7-1.6,1.6-1.6h0.7v-0.4c0-1.1,0.1-2,0.5-2.8c0.4-0.9,1.2-1.5,2.1-1.8c0.6-0.2,1.1-0.2,1.7-0.2   c0.9,0,1.6,0.7,1.6,1.6c0,0.9-0.7,1.6-1.6,1.6c-0.4,0-0.6,0-0.7,0.1c-0.1,0-0.1,0.1-0.2,0.1C281.1,261.9,280.8,262.3,280.8,263.3   L280.8,263.3z M292.2,265.9c0,0.9-0.7,1.6-1.6,1.6h-0.7v8c0.9,0,1.6,0.7,1.6,1.6c0,0.9-0.7,1.6-1.6,1.6c-1.8,0-3.2-1.4-3.2-3.2v-8   h-0.8c-0.9,0-1.6-0.7-1.6-1.6c0-0.9,0.7-1.6,1.6-1.6h0.8v-4.2c0-0.9,0.7-1.6,1.6-1.6s1.6,0.7,1.6,1.6v4.2h0.7   C291.5,264.3,292.2,265,292.2,265.9z M294.4,271.4c0-3.9,3.1-7.2,7-7.2c3.7,0,6.7,2.8,6.9,6.6v0.1c0,0.1,0,0.2,0,0.3   c-0.1,0.7-0.7,1.1-1.5,1.1h-9.1c0.1,0.7,0.5,1.4,1,1.9c0.6,0.7,1.7,1.2,2.7,1.3c1,0.1,2.3-0.2,3-0.7c0.6-0.6,1.8-0.5,2.1-0.1   c0.4,0.4,0.7,1.3,0,1.9c-1.4,1.3-3.1,1.9-5.1,1.9C297.4,278.6,294.4,275.3,294.4,271.4L294.4,271.4z M297.5,270h8.1   c-0.3-1.1-1.7-2.8-4.2-3C298.9,267.1,297.7,268.9,297.5,270L297.5,270z M320.3,265.8c0,0.8-0.7,1.5-1.5,1.5c-0.7,0-1.2,0.2-1.7,0.5   c-0.5,0.3-1,0.8-1.3,1.4c-0.7,0.9-1,2-1.2,2.4v5.4c0,0.8-0.7,1.5-1.6,1.5c-0.8,0-1.5-0.7-1.5-1.5v-11.3c0-0.8,0.7-1.5,1.5-1.5   c0.9,0,1.6,0.7,1.6,1.5v0.2c0.2-0.2,0.4-0.4,0.6-0.6c0.9-0.6,2.2-1.1,3.6-1.1C319.6,264.3,320.3,265,320.3,265.8   C320.3,265.8,320.3,265.8,320.3,265.8L320.3,265.8z M330.5,274.5c0.5-0.7,1.4-0.8,2.1-0.3c0,0,0,0,0.1,0c0.7,0.6,2,1.3,3.1,1.3   c0.8,0,1.5-0.3,1.9-0.5c0.4-0.3,0.5-0.6,0.5-0.9c0-0.1,0-0.2-0.1-0.3c0-0.1-0.1-0.2-0.4-0.3c-0.4-0.3-1.3-0.6-2.3-0.8h0   c-0.9-0.2-1.7-0.4-2.5-0.7c-0.8-0.4-1.5-0.9-2-1.7c-0.3-0.5-0.5-1.2-0.5-1.8c0-1.3,0.7-2.4,1.7-3.2c1-0.7,2.2-1.1,3.5-1.1   c2,0,3.4,0.9,4.3,1.6c0.7,0.5,0.9,1.4,0.5,2.1c-0.5,0.7-1.4,0.9-2.1,0.4c0,0,0,0,0,0c-0.9-0.6-1.7-1.1-2.6-1.1   c-0.7,0-1.3,0.2-1.7,0.5c-0.4,0.3-0.5,0.5-0.5,0.7c0,0.1,0,0.1,0.1,0.2c0.1,0.1,0.2,0.2,0.3,0.3c0.4,0.3,1.1,0.5,2.1,0.7l0,0h0   c0.9,0.2,1.8,0.4,2.7,0.8c0.8,0.3,1.5,0.9,2,1.7c0.3,0.6,0.5,1.2,0.5,1.9c0,1.4-0.8,2.6-1.8,3.3c-1.1,0.8-2.4,1.1-3.7,1.1   c-2.2,0-4-1.1-5.1-2C330.1,276.1,330,275.2,330.5,274.5z M343.6,271.4c0-3.9,3.1-7.2,7-7.2c3.7,0,6.7,2.8,6.9,6.6v0.1   c0,0.1,0,0.2,0,0.3c-0.1,0.7-0.7,1.1-1.5,1.1h-9.1c0.1,0.7,0.5,1.4,1,1.9c0.6,0.7,1.7,1.2,2.7,1.3c1,0.1,2.3-0.2,3-0.7   c0.6-0.6,1.8-0.5,2.1-0.1c0.4,0.4,0.7,1.3,0,1.9c-1.4,1.3-3.1,1.9-5.1,1.9C346.6,278.6,343.6,275.3,343.6,271.4L343.6,271.4z    M346.7,270h8.1c-0.3-1.1-1.7-2.8-4.2-3C348.1,267.1,346.9,268.9,346.7,270z M363.1,258.6c0.9,0,1.6,0.7,1.6,1.6V277   c0,0.9-0.7,1.6-1.6,1.6c-0.9,0-1.6-0.7-1.6-1.6v-16.9C361.5,259.3,362.2,258.6,363.1,258.6z M368,271.4c0-3.9,3.1-7.2,7-7.2   c3.7,0,6.7,2.8,6.9,6.6v0.1c0,0.1,0,0.2,0,0.3c-0.1,0.7-0.7,1.1-1.5,1.1h-9.1c0.1,0.7,0.5,1.4,1,1.9c0.6,0.7,1.8,1.2,2.8,1.3   c1,0.1,2.3-0.2,3-0.7c0.6-0.6,1.8-0.5,2.1-0.1c0.4,0.4,0.7,1.3,0,1.9c-1.4,1.3-3.1,1.9-5.1,1.9C371,278.6,368,275.3,368,271.4   L368,271.4z M371.1,270h8.1c-0.3-1.1-1.7-2.8-4.2-3C372.5,267.1,371.3,268.9,371.1,270z M384.7,271.5c0-4,3.3-7.2,7.3-7.2   c1.7,0,3.3,0.6,4.6,1.6c0.7,0.5,0.8,1.5,0.3,2.1c-0.6,0.7-1.5,0.8-2.1,0.3c-0.7-0.5-1.7-0.9-2.7-0.9c-2.3,0-4.2,1.9-4.2,4.1   c0,2.2,1.9,4.1,4.2,4.1c1,0,2-0.4,2.7-0.9c0.6-0.5,1.6-0.4,2.1,0.3c0.5,0.6,0.3,1.5-0.3,2.1c-1.2,0.9-2.8,1.5-4.6,1.5   C388,278.6,384.7,275.4,384.7,271.5z M407.8,265.9c0,0.9-0.7,1.6-1.6,1.6h-0.7v8c0.9,0,1.6,0.7,1.6,1.6c0,0.9-0.7,1.6-1.6,1.6   c-1.8,0-3.2-1.4-3.2-3.2v-8h-0.8c-0.9,0-1.6-0.7-1.6-1.5c0,0,0,0,0,0c0-0.9,0.7-1.6,1.6-1.6h0.8v-4.2c0-0.9,0.7-1.6,1.6-1.6   c0.9,0,1.6,0.7,1.6,1.6v4.2h0.7C407,264.3,407.8,265,407.8,265.9z M415.2,260.7c0,0.9-0.7,1.6-1.5,1.6c-0.9,0-1.5-0.7-1.5-1.6v-0.6   c0-0.9,0.7-1.5,1.5-1.5c0.9,0,1.5,0.7,1.5,1.5V260.7z M415.2,265.9v11.2c0,0.9-0.7,1.5-1.5,1.5c-0.9,0-1.5-0.7-1.5-1.5c0,0,0,0,0,0   v-11.2c0-0.9,0.7-1.6,1.5-1.6C414.5,264.3,415.2,265,415.2,265.9z M430.7,266.6l-4.7,11.1c0,0.1-0.1,0.1-0.1,0.2c0,0,0,0,0,0   c-0.1,0.1-0.1,0.1-0.2,0.2c0,0,0,0,0,0c-0.1,0.1-0.1,0.1-0.2,0.2c0,0,0,0,0,0c-0.1,0.1-0.1,0.1-0.2,0.1h-0.1v0   c-0.1,0-0.2,0-0.2,0.1h-0.1c-0.1,0-0.2,0-0.3,0c-0.1,0-0.1,0-0.3,0h-0.1c-0.1,0-0.1-0.1-0.2-0.1v0H424c-0.1,0-0.1-0.1-0.3-0.1   c0,0,0,0,0,0c-0.1-0.1-0.1-0.1-0.2-0.2c0,0,0,0-0.1,0c0-0.1-0.1-0.1-0.1-0.2c0,0,0,0,0,0c-0.1,0-0.1-0.1-0.1-0.2l-4.6-11.1   c-0.3-0.8,0-1.6,0.8-1.9c0.7-0.3,1.6,0.1,1.9,0.8l3.3,7.8l3.3-7.8c0.3-0.8,1.2-1.2,1.9-0.8C430.7,265,431,265.8,430.7,266.6   L430.7,266.6z M433.5,271.4c0-3.9,3.1-7.2,7-7.2c3.7,0,6.7,2.8,6.9,6.6v0.1c0,0.1,0,0.2,0,0.3c-0.1,0.7-0.7,1.1-1.5,1.1h-9.1   c0.1,0.7,0.5,1.4,1,1.9c0.6,0.7,1.7,1.2,2.8,1.3c1,0.1,2.3-0.2,3-0.7c0.6-0.6,1.8-0.5,2.1-0.1c0.4,0.4,0.7,1.3,0,1.9   c-1.4,1.3-3.1,1.9-5.1,1.9C436.5,278.6,433.5,275.3,433.5,271.4L433.5,271.4z M436.6,270h8.1c-0.3-1.1-1.7-2.8-4.2-3   C438,267.1,436.8,268.9,436.6,270z M458,271.4c0-3.9,3.1-7.2,7-7.2c3.7,0,6.7,2.8,6.9,6.6v0.1c0,0.1,0,0.2,0,0.3   c-0.1,0.7-0.7,1.1-1.5,1.1h-9.1c0.1,0.7,0.5,1.4,1,1.9c0.6,0.7,1.8,1.2,2.8,1.3c1,0.1,2.3-0.2,3-0.7c0.6-0.6,1.8-0.5,2.1-0.1   c0.4,0.4,0.7,1.3,0,1.9c-1.4,1.3-3.1,1.9-5.1,1.9C461.1,278.6,458.1,275.3,458,271.4L458,271.4z M461.2,270h8.1   c-0.3-1.1-1.7-2.8-4.2-3C462.6,267.1,461.4,268.9,461.2,270z M487.9,271.5v5.6c0,0.8-0.7,1.5-1.5,1.5c-0.7,0-1.3-0.5-1.5-1.2   c-1.1,0.8-2.4,1.2-3.8,1.2c-1.8,0-3.6-0.7-4.9-2.1c-1.2-1.3-1.9-3.1-1.9-5c0-2,0.7-3.7,1.9-5c1.2-1.3,2.9-2.1,4.9-2.1   c1.4,0,2.7,0.5,3.8,1.3c0.2-0.7,0.7-1.3,1.5-1.3c0.8,0,1.5,0.7,1.5,1.5V271.5z M484.8,271.5c0-1.2-0.4-2.2-1.1-2.9   c-0.7-0.8-1.6-1.2-2.7-1.2c-1,0-2,0.4-2.7,1.2c-0.7,0.7-1.1,1.7-1.1,2.9c0,1.2,0.4,2.2,1.1,2.9c0.7,0.7,1.6,1.1,2.7,1.1   c1,0,2-0.4,2.7-1.1C484.4,273.7,484.8,272.6,484.8,271.5z M501.6,265.8c0,0.8-0.7,1.5-1.5,1.5c-0.7,0-1.2,0.2-1.7,0.5   c-0.5,0.4-1,0.8-1.3,1.4c-0.7,0.9-1,2-1.2,2.4v5.4c0,0.8-0.7,1.5-1.6,1.5c-0.8,0-1.5-0.7-1.5-1.5v-11.3c0-0.8,0.7-1.5,1.5-1.5   c0.9,0,1.6,0.7,1.6,1.5v0.2c0.2-0.2,0.4-0.4,0.6-0.6c0.9-0.6,2.2-1.1,3.6-1.1C500.9,264.3,501.6,265,501.6,265.8   C501.6,265.8,501.6,265.8,501.6,265.8L501.6,265.8z M506.4,258.6c0.9,0,1.6,0.7,1.6,1.6V277c0,0.9-0.7,1.6-1.6,1.6   c-0.9,0-1.6-0.7-1.6-1.6v-16.9C504.8,259.3,505.5,258.6,506.4,258.6z M523.7,265.8v10.8c0,3.7-3,6.8-6.7,6.8c0,0-0.1,0-0.1,0   c-1,0-2-0.3-2.9-0.7c-0.8-0.3-1.1-1.2-0.7-2c0.4-0.7,1.3-1,2-0.6c0.5,0.3,1.1,0.4,1.7,0.4c1.7,0,3.1-1.1,3.6-2.6   c-0.8,0.5-1.8,0.7-2.7,0.7c-3.3,0-6-2.7-6-6v-6.8c0-0.8,0.7-1.5,1.5-1.5c0.9,0,1.5,0.7,1.5,1.5v6.8c0,1.7,1.3,2.9,3,2.9   c1.6,0,3-1.3,3-2.9v-6.8c0-0.9,0.6-1.5,1.5-1.5C522.9,264.3,523.7,264.9,523.7,265.8z M535.8,271.5c0-4,3.3-7.2,7.3-7.2   c1.7,0,3.3,0.6,4.6,1.6c0.7,0.5,0.8,1.5,0.3,2.1c-0.6,0.7-1.5,0.8-2.2,0.3c-0.8-0.6-1.7-0.9-2.7-0.9c-2.3,0-4.2,1.9-4.2,4.1   c0,2.2,1.9,4.1,4.2,4.1c1,0,2-0.4,2.7-0.9c0.6-0.5,1.6-0.4,2.2,0.3c0.5,0.6,0.3,1.5-0.3,2.1c-1.2,0.9-2.8,1.5-4.6,1.5   C539.2,278.6,535.8,275.4,535.8,271.5z M554.3,258.6c0.9,0,1.6,0.7,1.6,1.6V277c0,0.9-0.7,1.6-1.6,1.6c-0.9,0-1.6-0.7-1.6-1.6   v-16.9C552.7,259.3,553.4,258.6,554.3,258.6z M560.2,276.5c-1.2-1.3-2-3-2-5c0-1.9,0.7-3.6,2-5c1.3-1.3,2.9-2.2,4.9-2.2   c1.9,0,3.6,0.8,4.8,2.2c1.3,1.4,2,3.1,2,5c0,2-0.7,3.8-2,5c-1.2,1.4-2.9,2.2-4.8,2.2C563.2,278.7,561.5,277.9,560.2,276.5z    M561.4,271.5c0,1.2,0.4,2.2,1,3c0.7,0.7,1.7,1.1,2.7,1.1c1,0,1.9-0.4,2.6-1.1c0.7-0.8,1.1-1.8,1.1-3c0-1.2-0.4-2.2-1.1-3   c-0.7-0.6-1.6-1.1-2.6-1.1c-1.1,0-2,0.5-2.7,1.1C561.7,269.3,561.4,270.3,561.4,271.5z M575.4,274.5c0.5-0.7,1.4-0.8,2.1-0.3   c0,0,0,0,0.1,0c0.7,0.6,2,1.3,3.1,1.3c0.8,0,1.5-0.3,2-0.5c0.4-0.3,0.5-0.6,0.5-0.9c0-0.1,0-0.2-0.1-0.3c0-0.1-0.1-0.2-0.4-0.3   c-0.4-0.3-1.3-0.6-2.3-0.8h0c-0.9-0.2-1.7-0.4-2.5-0.7c-0.8-0.4-1.5-0.9-2-1.7c-0.3-0.5-0.5-1.2-0.5-1.8c0-1.3,0.7-2.4,1.7-3.2   c1-0.7,2.2-1.1,3.5-1.1c2,0,3.4,0.9,4.3,1.6c0.7,0.5,0.9,1.4,0.5,2.1c-0.5,0.7-1.4,0.9-2.1,0.4c0,0,0,0,0,0   c-0.9-0.6-1.7-1.1-2.6-1.1c-0.7,0-1.3,0.2-1.7,0.5c-0.4,0.3-0.5,0.5-0.5,0.7c0,0.1,0,0.1,0.1,0.2c0.1,0.1,0.2,0.2,0.3,0.3   c0.4,0.3,1.1,0.5,2.1,0.7l0,0h0c0.9,0.2,1.8,0.4,2.7,0.8c0.8,0.3,1.5,0.9,2,1.7c0.3,0.6,0.5,1.2,0.5,1.9c0,1.4-0.8,2.6-1.8,3.3   c-1.1,0.8-2.4,1.1-3.7,1.1c-2.2,0-3.9-1.1-5.1-2C574.9,276.1,574.9,275.2,575.4,274.5L575.4,274.5z M595.1,278.6c-3.3,0-6-2.7-6-6   v-6.8c0-0.8,0.7-1.5,1.5-1.5c0.9,0,1.5,0.7,1.5,1.5v6.8c0,1.6,1.3,2.9,2.9,2.9c1.7,0,3-1.3,3-2.9v-6.8c0-0.8,0.6-1.5,1.5-1.5   c0.8,0,1.5,0.7,1.5,1.5v6.8C601.1,275.9,598.4,278.6,595.1,278.6L595.1,278.6z M615.1,265.8c0,0.8-0.7,1.5-1.5,1.5   c-0.7,0-1.2,0.2-1.7,0.5c-0.5,0.3-1,0.8-1.3,1.4c-0.7,0.9-1,2-1.2,2.4v5.4c0,0.8-0.7,1.5-1.6,1.5c-0.8,0-1.5-0.7-1.5-1.5v-11.3   c0-0.8,0.7-1.5,1.5-1.5c0.9,0,1.6,0.7,1.6,1.5v0.2c0.2-0.2,0.4-0.4,0.6-0.6c0.9-0.6,2.2-1.1,3.6-1.1   C614.4,264.3,615.1,265,615.1,265.8L615.1,265.8z M615.7,271.4c0-3.9,3.1-7.2,7-7.2c3.7,0,6.7,2.8,6.9,6.6v0.1c0,0.1,0,0.2,0,0.3   c-0.1,0.7-0.7,1.1-1.5,1.1h-9.1c0.1,0.7,0.5,1.4,1,1.9c0.6,0.7,1.7,1.2,2.7,1.3c1,0.1,2.3-0.2,3-0.7c0.6-0.6,1.8-0.5,2.1-0.1   c0.4,0.4,0.7,1.3,0,1.9c-1.4,1.3-3.1,1.9-5.1,1.9C618.7,278.6,615.7,275.3,615.7,271.4L615.7,271.4z M618.8,270h8.1   c-0.3-1.1-1.7-2.8-4.2-3C620.2,267.1,619,268.9,618.8,270z M642.6,276.5c-1.2-1.3-2-3-2-5c0-1.9,0.7-3.6,2-5   c1.3-1.3,2.9-2.2,4.9-2.2c1.9,0,3.6,0.8,4.8,2.2c1.3,1.4,2,3.1,2,5c0,2-0.7,3.8-2,5c-1.2,1.4-2.9,2.2-4.8,2.2   C645.5,278.7,643.9,277.9,642.6,276.5z M643.7,271.5c0,1.2,0.4,2.2,1,3c0.7,0.7,1.7,1.1,2.7,1.1c1,0,1.9-0.4,2.6-1.1   c0.7-0.8,1.1-1.8,1.1-3c0-1.2-0.4-2.2-1.1-3c-0.7-0.6-1.6-1.1-2.6-1.1c-1.1,0-2,0.5-2.7,1.1C644.1,269.3,643.7,270.3,643.7,271.5z    M662.1,263.3v0.4h0.9c0.9,0,1.6,0.7,1.6,1.6c0,0,0,0,0,0c0,0.9-0.7,1.6-1.6,1.6h-0.9V277c0,0.9-0.7,1.6-1.6,1.6   c-0.9,0-1.6-0.7-1.6-1.6c0,0,0,0,0,0v-10.1h-0.7c-0.9,0-1.6-0.7-1.6-1.6c0-0.9,0.7-1.6,1.6-1.6h0.7v-0.4c0-1.1,0.1-2,0.5-2.8   c0.4-0.9,1.2-1.5,2.1-1.8c0.6-0.2,1.1-0.2,1.7-0.2c0.9,0,1.6,0.7,1.6,1.6c0,0.9-0.7,1.6-1.6,1.6c-0.4,0-0.6,0-0.7,0.1   c-0.1,0-0.1,0.1-0.2,0.1C662.3,261.9,662.1,262.3,662.1,263.3L662.1,263.3z M681.9,270.8h-3.5v6.2c0,0.9-0.7,1.6-1.6,1.6   c-0.9,0-1.6-0.7-1.6-1.6l0,0v-16.9c0-0.9,0.7-1.6,1.6-1.6h5.1c3.4,0,6.1,2.7,6.2,6.1c0,0,0,0,0,0   C688.1,268.1,685.4,270.8,681.9,270.8z M678.4,267.6h3.5c1.6,0,2.9-1.3,3-2.9c0-1.7-1.3-3-3-3h-3.5V267.6L678.4,267.6z M691.2,277   v-16.9c0-0.9,0.7-1.6,1.6-1.6h3.4c5.5,0,10,4.5,10,10c0,5.6-4.5,10-10,10h-3.4C691.9,278.6,691.2,277.9,691.2,277   C691.2,277,691.2,277,691.2,277z M694.4,275.4h1.8c3.8,0,6.8-3.1,6.8-6.9c0,0,0,0,0,0c0-3.8-3-6.8-6.8-6.8c0,0,0,0,0,0h-1.8V275.4z    M719.4,273.9h-7l-1.4,3.7c-0.2,0.6-0.8,1-1.5,1c-0.2,0-0.4,0-0.5-0.1c-0.8-0.3-1.2-1.2-0.9-2.1l6.3-16.9c0.3-0.6,0.9-1,1.5-1   c0.7,0,1.3,0.4,1.5,1l6.3,16.9c0.3,0.8-0.1,1.7-0.9,2.1c-0.2,0.1-0.4,0.1-0.5,0.1c-0.6,0-1.2-0.4-1.5-1L719.4,273.9L719.4,273.9z    M718.3,270.7l-2.3-6.2l-2.3,6.2H718.3z" fill="#2D649E"  />
	
</g><g><path d="M123.6,2.3c0-1.2,1.1-2.3,2.3-2.3h15c9.2,0,16.7,7.5,16.7,16.8c0,5.3-2.6,10-6.4,13.1   c7.6,2.6,13.2,9.7,13.2,18.2c0,10.7-8.7,19.3-19.3,19.3h-19.4c-1.3,0-2.2-1.1-2.2-2.3C123.6,65.1,123.6,2.3,123.6,2.3z M141,28.8   c6.6,0,12-5.4,12-11.9c0-6.7-5.4-12.1-12-12.1h-12.6v24.1H141z M145.2,62.7c8,0,14.4-6.5,14.5-14.5c-0.1-8-6.5-14.5-14.5-14.5   h-16.8v29.1L145.2,62.7L145.2,62.7z M219.3,22.5v42.5c0,1.3-1.1,2.3-2.3,2.3s-2.3-1.1-2.3-2.3v-7c-4,5.6-10.5,9.3-17.7,9.3   c-12.4,0-22.3-10.7-22.3-23.6s9.9-23.6,22.3-23.6c7.2,0,13.7,3.7,17.7,9.2v-6.9c0-1.3,1.1-2.3,2.3-2.3S219.3,21.2,219.3,22.5z    M214.7,43.8c0-10.6-8-19.1-17.7-19.1c-9.6,0-17.7,8.5-17.7,19.1s8.1,19,17.7,19C206.7,62.8,214.7,54.4,214.7,43.8z M239.3,44.9   V2.3c0-1.3,1.1-2.3,2.3-2.3c1.3,0,2.4,1.1,2.4,2.3v27.1c4.1-5.6,10.7-9.2,18.1-9.2c12.7,0,22.8,10.6,22.8,23.7   c0,12.9-10.1,23.5-22.8,23.5c-7.4,0-14-3.6-18.1-9.1v6.8c0,1.3-1.1,2.3-2.4,2.3c-1.3,0-2.3-1-2.3-2.3V44.9z M244.1,43.9   c0,10.4,8.2,18.8,18.1,18.8c10,0,18.1-8.4,18.1-18.8c0-10.5-8.1-19-18.1-19c-9.7,0-17.7,8.1-18.1,18.2V43.9z M296.5,22.4   c0-1.3,1.1-2.2,2.2-2.2c1.3,0,2.4,1,2.4,2.2V48c0,8.1,6.4,14.5,14.4,14.5c8.1,0,14.5-6.4,14.6-14.5V22.4c0-0.4,0.1-0.9,0.4-1.2   c0-0.1,0.1-0.2,0.1-0.3c0.1,0,0.1-0.1,0.2-0.1c0.2-0.3,0.6-0.5,0.9-0.6h0.2c0.1,0,0.2-0.1,0.3-0.1h0.6c0.4,0.1,0.8,0.3,1.2,0.5   c0.2,0.2,0.5,0.5,0.6,0.8c0.2,0.3,0.3,0.7,0.3,1v41.2c0,12.3-10,22.1-22.4,22.1c-3.5,0-6.7-0.9-9.7-2.2c-1.1-0.7-1.5-2-1-3.1   c0.6-1.2,1.8-1.4,3-1.2c2.4,1.2,5,1.8,7.7,1.8c9.8,0,17.7-7.8,17.8-17.5v-3.1c-3.6,4-8.8,6.7-14.6,6.7   c-10.5-0.1-19.1-8.7-19.1-19.3C296.5,48,296.5,22.4,296.5,22.4z" fill="#2D649E"  />
	
</g></svg>