<svg viewBox="0 0 648.8 283.5" role="img" focusable="false" aria-labelledby="birth-after-previous-caesarean--title" xmlns="http://www.w3.org/2000/svg" xmlns:xlink="http://www.w3.org/1999/xlink"><title id="birth-after-previous-caesarean--title">Birth after previous caesarean</title><path d="M178.8,77.3c0-42.7-34.6-77.3-77.3-77.3C58.7,0,24.1,34.6,24.1,77.3c0,42.7,34.6,77.3,77.3,77.3 C144.2,154.7,178.8,120.1,178.8,77.3" fill="#604776"  /><path d="M283.4,65.4c5.8-14.7-1.4-31.4-16.1-37.2c-14.7-5.8-31.4,1.4-37.2,16.1c-5.8,14.7,1.4,31.4,16.1,37.2 C261,87.4,277.6,80.2,283.4,65.4" fill="#BC945B"  /><path d="M158.7,191.1c8.6,1.1,36.5,4.4,74-18.2c27.8-16.7,46-41.1,47.8-55.6c1.7-11.7-6.5-22.6-18.2-24.2 c-5-0.7-9.1,0.3-13.8,2.7c-14.6,7.6-18.1,34.5-31.7,54.5c-20.2,29.6-45.4,30.7-57.5,31.2c-2.6,0-4.8,2.1-4.8,4.8 C154.5,188.8,156.4,190.8,158.7,191.1" fill="#BC945B"  /><path d="M275.9,153.9c-12.7,15.7-51,50-97.4,50c-46.5,0-69.5-23.3-104.2-37.7c-27.2-11.5-58.6,1.3-70.1,28.5 c-8.5,20.1-3.7,42.5,10.4,57.4c23.7,26,71.9,44.8,150.1,18.8c78.2-26,116.1-100.9,121.5-110.7c1.5-3,0.2-6.5-2.8-8 C280.7,150.9,277.6,151.7,275.9,153.9" fill="#604776"  /><g><path d="M364.8,45.8c1.6,2.1,2.4,4.7,2.4,7.8c0,4.3-1.5,7.7-4.4,10c-3,2.4-7.1,3.6-12.4,3.6h-18.1 c-1.1,0-2-0.3-2.7-1c-0.6-0.6-1-1.5-1-2.6v-43c0-1.1,0.3-2,1-2.6c0.6-0.6,1.5-1,2.7-1h17.3c5.2,0,9.2,1.1,12.1,3.4 c2.9,2.3,4.4,5.5,4.4,9.6c0,2.7-0.7,4.9-2.1,6.9c-1.4,1.9-3.3,3.4-5.9,4.3C361,42.3,363.2,43.7,364.8,45.8z M335.8,38.8h12.6 c7,0,10.5-2.6,10.5-8c0-2.6-0.9-4.6-2.6-5.9c-1.7-1.3-4.4-1.9-7.9-1.9h-12.6V38.8z M357.6,59.4c1.7-1.3,2.6-3.4,2.6-6.2 c0-2.8-0.9-5-2.6-6.4s-4.4-2.1-8-2.1h-13.8v16.6h13.8C353.2,61.3,355.9,60.7,357.6,59.4z" fill="#604776"  /><path d="M376.1,23.8c-0.8-0.8-1.2-1.8-1.2-3c0-1.2,0.4-2.2,1.2-2.9s1.9-1.1,3.3-1.1c1.3,0,2.4,0.4,3.2,1.1 c0.8,0.7,1.2,1.7,1.2,2.9c0,1.2-0.4,2.2-1.2,3s-1.9,1.1-3.3,1.1C378,24.9,376.9,24.5,376.1,23.8z M376.8,66.7c-0.7-0.6-1-1.4-1-2.6 V35.4c0-1.1,0.3-2,1-2.6c0.7-0.6,1.5-0.9,2.6-0.9s1.9,0.3,2.6,0.9c0.7,0.6,1,1.5,1,2.6v28.8c0,1.1-0.3,2-1,2.6 c-0.7,0.6-1.5,0.9-2.6,0.9S377.5,67.3,376.8,66.7z" fill="#604776"  /><path d="M414.4,34.8c0,1-0.3,1.8-0.8,2.3c-0.5,0.5-1.4,0.8-2.7,0.9l-2.1,0.2c-3,0.3-5.2,1.3-6.6,3.1 c-1.4,1.8-2.2,4-2.2,6.5v16.3c0,1.1-0.3,2-1,2.6c-0.7,0.6-1.5,0.9-2.6,0.9c-1,0-1.9-0.3-2.6-0.9c-0.7-0.6-1-1.4-1-2.6V35.3 c0-1.1,0.3-1.9,1-2.5c0.7-0.6,1.5-0.9,2.6-0.9c0.9,0,1.7,0.3,2.4,0.9c0.6,0.6,1,1.4,1,2.5v3.4c0.9-2.1,2.3-3.7,4.1-4.8 c1.8-1.1,3.8-1.7,6.1-1.9l1-0.1C413.2,31.7,414.4,32.7,414.4,34.8z" fill="#604776"  /><path d="M437.8,62.9c0.4,0.5,0.7,1.1,0.7,1.9c0,0.9-0.4,1.7-1.1,2.2c-0.7,0.5-1.8,0.7-3.2,0.6l-1.9-0.1 c-3.8-0.3-6.7-1.5-8.6-3.5c-1.9-2.1-2.8-5.1-2.8-9.1V38.1h-4.3c-2.1,0-3.1-0.9-3.1-2.8c0-0.9,0.3-1.5,0.8-2 c0.5-0.5,1.3-0.7,2.3-0.7h4.3v-7.3c0-1.1,0.3-1.9,1-2.6c0.6-0.6,1.5-0.9,2.6-0.9c1.1,0,2,0.3,2.6,0.9c0.7,0.6,1,1.5,1,2.6v7.3h7 c1,0,1.8,0.2,2.3,0.7c0.5,0.5,0.8,1.2,0.8,2c0,0.9-0.3,1.6-0.8,2.1c-0.5,0.5-1.3,0.7-2.3,0.7h-7v17.2c0,2.2,0.5,3.9,1.4,4.9 s2.3,1.6,4.2,1.8l2,0.1C436.6,62.2,437.4,62.5,437.8,62.9z" fill="#604776"  /><path d="M474.7,45.7v18.5c0,1-0.3,1.9-1,2.5c-0.7,0.6-1.5,0.9-2.6,0.9c-1.1,0-2-0.3-2.6-0.9c-0.6-0.6-1-1.4-1-2.5 V45.8c0-2.8-0.6-4.9-1.7-6.2c-1.2-1.3-3-2-5.4-2c-2.9,0-5.2,0.9-7,2.7c-1.8,1.8-2.6,4.2-2.6,7.2v16.7c0,1-0.3,1.9-1,2.5 c-0.6,0.6-1.5,0.9-2.6,0.9s-2-0.3-2.6-0.9c-0.7-0.6-1-1.4-1-2.5V20.2c0-1,0.3-1.9,1-2.5c0.7-0.6,1.6-0.9,2.7-0.9 c1,0,1.9,0.3,2.5,0.9c0.6,0.6,1,1.4,1,2.4v17.7c1.2-2,2.8-3.5,4.8-4.5c2-1,4.3-1.6,6.8-1.6C470.5,31.7,474.7,36.4,474.7,45.7z" fill="#604776"  /><path d="M527.7,35.2c2.2,2.3,3.4,5.8,3.4,10.6v18.4c0,1.1-0.3,1.9-0.9,2.5c-0.6,0.6-1.5,0.9-2.6,0.9 c-1,0-1.9-0.3-2.5-0.9c-0.6-0.6-0.9-1.4-0.9-2.5v-2.6c-0.9,2-2.2,3.5-4,4.6c-1.8,1.1-3.8,1.6-6.2,1.6c-2.3,0-4.4-0.5-6.2-1.4 c-1.9-0.9-3.4-2.2-4.4-3.9c-1.1-1.7-1.6-3.5-1.6-5.5c0-2.5,0.7-4.5,2-5.9c1.3-1.4,3.5-2.5,6.5-3.1s7.1-0.9,12.4-0.9h1.6v-2.1 c0-2.7-0.5-4.6-1.6-5.8c-1.1-1.2-2.8-1.8-5.3-1.8c-1.7,0-3.2,0.2-4.7,0.6c-1.5,0.4-3.1,1-4.8,1.8c-1.3,0.7-2.2,1.1-2.7,1.1 c-0.7,0-1.3-0.3-1.7-0.8c-0.5-0.5-0.7-1.2-0.7-2c0-0.7,0.2-1.3,0.6-1.9c0.4-0.5,1.1-1.1,2-1.6c1.7-0.9,3.6-1.6,5.8-2.2 c2.2-0.5,4.4-0.8,6.5-0.8C522.1,31.7,525.5,32.9,527.7,35.2z M521.7,59.8c1.7-1.8,2.5-4.1,2.5-6.9v-1.8h-1.3 c-3.7,0-6.5,0.2-8.5,0.5c-2,0.3-3.4,0.9-4.3,1.7c-0.9,0.8-1.3,1.9-1.3,3.4c0,1.7,0.6,3.1,1.8,4.2c1.2,1.1,2.8,1.6,4.6,1.6 C517.9,62.4,520,61.5,521.7,59.8z" fill="#604776"  /><path d="M551.8,24.9c-1.1,1.3-1.7,3.2-1.7,5.7v2h7c1,0,1.8,0.2,2.3,0.7c0.5,0.5,0.8,1.2,0.8,2c0,0.9-0.3,1.5-0.8,2 c-0.5,0.5-1.3,0.7-2.3,0.7h-7v26c0,1.1-0.3,2-1,2.6c-0.7,0.6-1.6,0.9-2.6,0.9c-1,0-1.9-0.3-2.6-0.9c-0.7-0.6-1-1.5-1-2.6v-26h-4.3 c-1,0-1.8-0.2-2.3-0.7c-0.5-0.5-0.8-1.2-0.8-2c0-0.9,0.3-1.5,0.8-2c0.5-0.5,1.3-0.7,2.3-0.7h4.3v-0.9c0-4.4,1.1-7.8,3.3-10.3 c2.2-2.5,5.4-3.9,9.4-4.2l1.8-0.1c1.5-0.1,2.6,0.1,3.3,0.5c0.7,0.4,1,1.1,1,2.1c0,1.7-1,2.6-3,2.8l-1.8,0.1 C554.7,22.8,553,23.6,551.8,24.9z" fill="#604776"  /><path d="M584.1,62.9c0.4,0.5,0.7,1.1,0.7,1.9c0,0.9-0.4,1.7-1.1,2.2c-0.7,0.5-1.8,0.7-3.2,0.6l-1.9-0.1 c-3.8-0.3-6.7-1.5-8.6-3.5c-1.9-2.1-2.8-5.1-2.8-9.1V38.1h-4.3c-2.1,0-3.1-0.9-3.1-2.8c0-0.9,0.3-1.5,0.8-2 c0.5-0.5,1.3-0.7,2.3-0.7h4.3v-7.3c0-1.1,0.3-1.9,1-2.6c0.6-0.6,1.5-0.9,2.6-0.9c1.1,0,2,0.3,2.6,0.9c0.7,0.6,1,1.5,1,2.6v7.3h7 c1,0,1.8,0.2,2.3,0.7c0.5,0.5,0.8,1.2,0.8,2c0,0.9-0.3,1.6-0.8,2.1c-0.5,0.5-1.3,0.7-2.3,0.7h-7v17.2c0,2.2,0.5,3.9,1.4,4.9 s2.3,1.6,4.2,1.8l2,0.1C582.9,62.2,583.6,62.5,584.1,62.9z" fill="#604776"  /><path d="M618.6,59.3c0.4,0.5,0.6,1.2,0.6,2c0,1.4-0.9,2.5-2.6,3.5c-1.7,0.9-3.5,1.7-5.4,2.2c-2,0.5-3.8,0.8-5.6,0.8 c-5.5,0-9.8-1.6-13-4.8c-3.2-3.2-4.8-7.6-4.8-13.1c0-3.6,0.7-6.7,2.1-9.4c1.4-2.7,3.4-4.9,5.9-6.4c2.5-1.5,5.4-2.3,8.6-2.3 c4.6,0,8.3,1.5,11,4.5c2.7,3,4,7,4,12.1c0,1.9-0.9,2.8-2.6,2.8H595c0.5,7.3,4,11,10.6,11c1.8,0,3.3-0.2,4.5-0.7 c1.3-0.5,2.6-1.1,4-1.8c0.1-0.1,0.5-0.3,1.2-0.6c0.6-0.3,1.2-0.5,1.6-0.5C617.6,58.5,618.1,58.8,618.6,59.3z M598,39.6 c-1.7,1.8-2.7,4.2-3,7.4h18.3c-0.1-3.2-1-5.7-2.5-7.4c-1.5-1.7-3.6-2.6-6.3-2.6C601.8,37,599.6,37.9,598,39.6z" fill="#604776"  /><path d="M648.8,34.8c0,1-0.3,1.8-0.8,2.3c-0.5,0.5-1.4,0.8-2.7,0.9l-2.1,0.2c-3,0.3-5.2,1.3-6.6,3.1 c-1.4,1.8-2.2,4-2.2,6.5v16.3c0,1.1-0.3,2-1,2.6c-0.7,0.6-1.5,0.9-2.6,0.9c-1,0-1.9-0.3-2.6-0.9c-0.7-0.6-1-1.4-1-2.6V35.3 c0-1.1,0.3-1.9,1-2.5c0.7-0.6,1.5-0.9,2.6-0.9c0.9,0,1.7,0.3,2.4,0.9c0.6,0.6,1,1.4,1,2.5v3.4c0.9-2.1,2.3-3.7,4.1-4.8 c1.8-1.1,3.8-1.7,6.1-1.9l1-0.1C647.7,31.7,648.8,32.7,648.8,34.8z" fill="#604776"  /><path d="M354.4,119.2c2.3,1.5,4.2,3.6,5.5,6.4c1.3,2.7,2,5.9,2,9.5c0,3.6-0.6,6.7-1.9,9.4c-1.3,2.7-3.1,4.8-5.4,6.2 s-5,2.2-8.1,2.2c-2.6,0-4.9-0.6-6.9-1.7c-2-1.1-3.5-2.7-4.5-4.8v15.8c0,1-0.3,1.8-1,2.4c-0.6,0.6-1.5,0.9-2.5,0.9 c-1.1,0-2-0.3-2.7-0.9c-0.7-0.6-1-1.4-1-2.5v-41.6c0-1,0.3-1.9,1-2.5c0.7-0.6,1.5-1,2.6-1c1,0,1.9,0.3,2.6,1c0.7,0.6,1,1.5,1,2.5 v2.9c1-2.1,2.6-3.7,4.5-4.8c2-1.1,4.3-1.7,6.9-1.7C349.3,116.9,352,117.7,354.4,119.2z M351.9,144.1c1.7-2.1,2.6-5.1,2.6-9 c0-3.9-0.9-7-2.6-9.2s-4.1-3.3-7.2-3.3c-3.1,0-5.5,1.1-7.2,3.2c-1.7,2.1-2.5,5.2-2.5,9.1c0,3.9,0.8,7,2.5,9.1 c1.7,2.1,4.1,3.2,7.2,3.2C347.8,147.3,350.2,146.2,351.9,144.1z" fill="#604776"  /><path d="M391.2,120c0,1-0.3,1.8-0.8,2.3c-0.5,0.5-1.4,0.8-2.7,0.9l-2.1,0.2c-3,0.3-5.2,1.3-6.6,3.1 c-1.4,1.8-2.2,4-2.2,6.5v16.3c0,1.1-0.3,2-1,2.6c-0.7,0.6-1.5,0.9-2.6,0.9s-1.9-0.3-2.6-0.9c-0.7-0.6-1-1.4-1-2.6v-28.9 c0-1.1,0.3-1.9,1-2.5c0.7-0.6,1.5-0.9,2.6-0.9c0.9,0,1.7,0.3,2.4,0.9c0.6,0.6,1,1.4,1,2.5v3.4c0.9-2.1,2.3-3.7,4.1-4.8 c1.8-1.1,3.8-1.7,6.1-1.9l1-0.1C390,116.9,391.2,117.9,391.2,120z" fill="#604776"  /><path d="M424.2,144.5c0.4,0.5,0.6,1.2,0.6,2c0,1.4-0.9,2.5-2.6,3.5c-1.7,0.9-3.5,1.7-5.4,2.2 c-2,0.5-3.8,0.8-5.6,0.8c-5.5,0-9.8-1.6-13-4.8c-3.2-3.2-4.8-7.6-4.8-13.1c0-3.6,0.7-6.7,2.1-9.4c1.4-2.7,3.4-4.9,5.9-6.4 c2.5-1.5,5.4-2.3,8.6-2.3c4.6,0,8.3,1.5,11,4.5c2.7,3,4,7,4,12.1c0,1.9-0.9,2.8-2.6,2.8h-21.9c0.5,7.3,4,11,10.6,11 c1.8,0,3.3-0.2,4.5-0.7c1.3-0.5,2.6-1.1,4-1.8c0.1-0.1,0.5-0.3,1.2-0.6c0.6-0.3,1.2-0.5,1.6-0.5C423.2,143.7,423.8,144,424.2,144.5 z M403.6,124.8c-1.7,1.8-2.7,4.2-3,7.4h18.3c-0.1-3.2-1-5.7-2.5-7.4c-1.5-1.7-3.6-2.6-6.3-2.6C407.4,122.2,405.2,123.1,403.6,124.8 z" fill="#604776"  /><path d="M458.7,117.7c0.5-0.3,1.1-0.5,1.7-0.5c0.9,0,1.7,0.3,2.4,0.9c0.7,0.6,1,1.3,1,2.2c0,0.5-0.1,0.9-0.3,1.3 L450,150.4c-0.3,0.8-0.8,1.3-1.5,1.7s-1.4,0.6-2.2,0.6c-0.8,0-1.5-0.2-2.2-0.6c-0.7-0.4-1.2-1-1.5-1.7l-13.6-28.8 c-0.2-0.4-0.3-0.8-0.3-1.3c0-0.9,0.4-1.6,1.1-2.2c0.8-0.6,1.6-0.9,2.6-0.9c1.4,0,2.4,0.7,3.1,2l11,24.4l10.9-24.4 C457.8,118.5,458.2,118,458.7,117.7z" fill="#604776"  /><path d="M470,109c-0.8-0.8-1.2-1.8-1.2-3c0-1.2,0.4-2.2,1.2-2.9s1.9-1.1,3.3-1.1c1.3,0,2.4,0.4,3.2,1.1 c0.8,0.7,1.2,1.7,1.2,2.9c0,1.2-0.4,2.2-1.2,3s-1.9,1.1-3.3,1.1S470.8,109.7,470,109z M470.6,151.9c-0.7-0.6-1-1.4-1-2.6v-28.8 c0-1.1,0.3-2,1-2.6c0.7-0.6,1.5-0.9,2.6-0.9s1.9,0.3,2.6,0.9c0.7,0.6,1,1.5,1,2.6v28.8c0,1.1-0.3,2-1,2.6c-0.7,0.6-1.5,0.9-2.6,0.9 S471.3,152.5,470.6,151.9z" fill="#604776"  /><path d="M492.7,150.7c-2.6-1.5-4.6-3.6-6-6.3c-1.4-2.7-2.1-5.9-2.1-9.5c0-3.6,0.7-6.8,2.1-9.5 c1.4-2.7,3.4-4.8,6-6.3c2.6-1.5,5.6-2.2,9-2.2c3.4,0,6.4,0.7,9,2.2c2.6,1.5,4.6,3.6,6,6.3c1.4,2.7,2.1,5.9,2.1,9.5 c0,3.6-0.7,6.8-2.1,9.5c-1.4,2.7-3.4,4.8-6,6.3c-2.6,1.5-5.6,2.2-9,2.2C498.3,152.9,495.3,152.2,492.7,150.7z M509,144.1 c1.7-2.1,2.5-5.1,2.5-9.2c0-4-0.9-7-2.6-9.1c-1.7-2.1-4.1-3.2-7.2-3.2s-5.5,1.1-7.2,3.2c-1.7,2.1-2.6,5.1-2.6,9.1 c0,4,0.8,7.1,2.5,9.2c1.7,2.1,4.1,3.1,7.3,3.1S507.3,146.2,509,144.1z" fill="#604776"  /><path d="M556,118c0.6,0.6,1,1.5,1,2.6v28.9c0,1-0.3,1.8-1,2.4c-0.7,0.6-1.5,0.9-2.6,0.9c-1,0-1.8-0.3-2.4-0.9 c-0.6-0.6-0.9-1.4-0.9-2.4v-2.7c-1.1,2-2.6,3.5-4.5,4.5c-1.9,1-4.1,1.6-6.4,1.6c-8.4,0-12.6-4.6-12.6-13.9v-18.5 c0-1.1,0.3-1.9,1-2.6c0.6-0.6,1.5-0.9,2.7-0.9c1.1,0,2,0.3,2.6,0.9c0.6,0.6,1,1.5,1,2.6V139c0,2.8,0.6,4.9,1.7,6.2 c1.1,1.3,2.9,2,5.3,2c2.8,0,5-0.9,6.7-2.7c1.7-1.8,2.5-4.2,2.5-7.2v-16.7c0-1,0.3-1.9,1-2.5c0.7-0.6,1.5-1,2.6-1 C554.5,117.1,555.3,117.4,556,118z" fill="#604776"  /><path d="M567,150c-0.9-0.5-1.5-1.1-1.8-1.6c-0.4-0.6-0.5-1.2-0.5-1.9c0-0.8,0.2-1.4,0.6-1.9c0.4-0.5,1-0.8,1.6-0.8 c0.6,0,1.6,0.4,2.9,1.1c1.4,0.8,2.8,1.4,4.2,1.8c1.4,0.5,3,0.7,5.1,0.7c2.3,0,4-0.4,5.3-1.2c1.3-0.8,1.9-1.9,1.9-3.4 c0-0.9-0.2-1.7-0.7-2.3c-0.5-0.6-1.4-1.1-2.6-1.5c-1.2-0.4-3.1-0.9-5.5-1.5c-4.2-0.9-7.2-2.1-9-3.7c-1.8-1.5-2.7-3.6-2.7-6.3 c0-2,0.6-3.9,1.8-5.5c1.2-1.6,2.8-2.9,4.9-3.8c2.1-0.9,4.4-1.3,7.1-1.3c1.9,0,3.7,0.2,5.5,0.7c1.8,0.5,3.4,1.2,4.8,2.2 c1.6,1,2.3,2.2,2.3,3.6c0,0.8-0.2,1.4-0.7,1.9c-0.5,0.5-1,0.8-1.6,0.8c-0.4,0-0.9-0.1-1.3-0.3c-0.4-0.2-1-0.5-1.7-0.9 c-1.3-0.8-2.5-1.3-3.6-1.8c-1.1-0.4-2.5-0.6-4.2-0.6c-2,0-3.6,0.4-4.8,1.3c-1.2,0.9-1.8,2-1.8,3.5c0,1.3,0.6,2.4,1.7,3.1 c1.1,0.7,3.2,1.4,6.3,2.1c3.2,0.7,5.7,1.4,7.5,2.3c1.8,0.9,3.1,1.9,3.9,3.2c0.8,1.3,1.2,2.9,1.2,4.8c0,3.1-1.3,5.6-3.9,7.4 c-2.6,1.9-6,2.8-10.3,2.8C574,152.9,570.1,151.9,567,150z" fill="#604776"  /><path d="M333.8,235.9c-2.5-1.5-4.5-3.5-5.9-6.2c-1.4-2.7-2.1-5.8-2.1-9.4c0-3.6,0.7-6.8,2.2-9.5 c1.4-2.7,3.5-4.9,6.1-6.4c2.6-1.5,5.6-2.3,8.9-2.3c1.8,0,3.6,0.3,5.4,0.8c1.8,0.5,3.4,1.2,4.9,2.1c1.5,1,2.3,2.2,2.3,3.6 c0,0.8-0.2,1.5-0.6,2c-0.4,0.5-1,0.8-1.6,0.8c-0.4,0-0.9-0.1-1.3-0.3c-0.4-0.2-1-0.5-1.6-1c-1.2-0.8-2.3-1.3-3.3-1.7 c-1-0.4-2.2-0.6-3.7-0.6c-3.2,0-5.7,1.1-7.5,3.3c-1.8,2.2-2.7,5.2-2.7,9.1c0,3.9,0.9,6.9,2.6,9c1.7,2.1,4.2,3.2,7.5,3.2 c1.4,0,2.7-0.2,3.8-0.6c1.1-0.4,2.2-1,3.3-1.7c0.5-0.3,1-0.6,1.6-0.9c0.5-0.2,1-0.4,1.4-0.4c0.7,0,1.2,0.3,1.6,0.8 c0.4,0.5,0.6,1.2,0.6,2c0,0.7-0.2,1.3-0.5,1.8c-0.4,0.5-1,1.1-1.8,1.7c-1.4,0.9-3.1,1.7-5,2.2c-1.9,0.5-3.8,0.8-5.8,0.8 C339.2,238.1,336.3,237.4,333.8,235.9z" fill="#604776"  /><path d="M386.7,205.6c2.2,2.3,3.4,5.8,3.4,10.6v18.4c0,1.1-0.3,1.9-0.9,2.5s-1.5,0.9-2.6,0.9c-1,0-1.9-0.3-2.5-0.9 s-0.9-1.4-0.9-2.5V232c-0.9,2-2.2,3.5-4,4.6c-1.8,1.1-3.8,1.6-6.2,1.6c-2.3,0-4.4-0.5-6.2-1.4c-1.9-0.9-3.4-2.2-4.4-3.9 c-1.1-1.7-1.6-3.5-1.6-5.5c0-2.5,0.7-4.5,2-5.9c1.3-1.4,3.5-2.5,6.5-3.1c3-0.6,7.1-0.9,12.4-0.9h1.6v-2.1c0-2.7-0.5-4.6-1.6-5.8 c-1.1-1.2-2.8-1.8-5.3-1.8c-1.7,0-3.2,0.2-4.7,0.6c-1.5,0.4-3.1,1-4.8,1.8c-1.3,0.7-2.2,1.1-2.7,1.1c-0.7,0-1.3-0.3-1.7-0.8 c-0.5-0.5-0.7-1.2-0.7-2c0-0.7,0.2-1.3,0.6-1.9c0.4-0.5,1.1-1.1,2-1.6c1.7-0.9,3.6-1.6,5.8-2.2c2.2-0.5,4.4-0.8,6.5-0.8 C381.1,202.1,384.5,203.3,386.7,205.6z M380.7,230.1c1.7-1.8,2.5-4.1,2.5-6.9v-1.8h-1.3c-3.7,0-6.5,0.2-8.5,0.5 c-2,0.3-3.4,0.9-4.3,1.7c-0.9,0.8-1.3,1.9-1.3,3.4c0,1.7,0.6,3.1,1.8,4.2c1.2,1.1,2.8,1.6,4.6,1.6 C376.9,232.8,379,231.9,380.7,230.1z" fill="#604776"  /><path d="M428.5,229.7c0.4,0.5,0.6,1.2,0.6,2c0,1.4-0.9,2.5-2.6,3.5c-1.7,0.9-3.5,1.7-5.4,2.2 c-2,0.5-3.8,0.8-5.6,0.8c-5.5,0-9.8-1.6-13-4.8c-3.2-3.2-4.8-7.6-4.8-13.1c0-3.6,0.7-6.7,2.1-9.4c1.4-2.7,3.4-4.9,5.9-6.4 c2.5-1.5,5.4-2.3,8.6-2.3c4.6,0,8.3,1.5,11,4.5c2.7,3,4,7,4,12.1c0,1.9-0.9,2.8-2.6,2.8h-21.9c0.5,7.3,4,11,10.6,11 c1.8,0,3.3-0.2,4.5-0.7c1.3-0.5,2.6-1.1,4-1.8c0.1-0.1,0.5-0.3,1.2-0.6c0.6-0.3,1.2-0.5,1.6-0.5 C427.5,228.9,428.1,229.2,428.5,229.7z M407.9,210c-1.7,1.8-2.7,4.2-3,7.4h18.3c-0.1-3.2-1-5.7-2.5-7.4c-1.5-1.7-3.6-2.6-6.3-2.6 C411.8,207.4,409.6,208.3,407.9,210z" fill="#604776"  /><path d="M437.4,235.1c-0.9-0.5-1.5-1.1-1.8-1.6c-0.4-0.6-0.5-1.2-0.5-1.9c0-0.8,0.2-1.4,0.6-1.9 c0.4-0.5,1-0.8,1.6-0.8c0.6,0,1.6,0.4,2.9,1.1c1.4,0.8,2.8,1.4,4.2,1.8c1.4,0.5,3,0.7,5.1,0.7c2.3,0,4-0.4,5.3-1.2s1.9-1.9,1.9-3.4 c0-0.9-0.2-1.7-0.7-2.3c-0.5-0.6-1.4-1.1-2.6-1.5c-1.2-0.4-3.1-0.9-5.5-1.5c-4.2-0.9-7.2-2.1-9-3.7s-2.7-3.6-2.7-6.3 c0-2,0.6-3.9,1.8-5.5c1.2-1.6,2.8-2.9,4.9-3.8c2.1-0.9,4.4-1.3,7.1-1.3c1.9,0,3.7,0.2,5.5,0.7c1.8,0.5,3.4,1.2,4.8,2.2 c1.6,1,2.3,2.2,2.3,3.6c0,0.8-0.2,1.4-0.7,1.9c-0.5,0.5-1,0.8-1.6,0.8c-0.4,0-0.9-0.1-1.3-0.3c-0.4-0.2-1-0.5-1.7-0.9 c-1.3-0.8-2.5-1.3-3.6-1.8c-1.1-0.4-2.5-0.6-4.2-0.6c-2,0-3.6,0.4-4.8,1.3c-1.2,0.9-1.8,2-1.8,3.5c0,1.3,0.6,2.4,1.7,3.1 c1.1,0.7,3.2,1.4,6.3,2.1c3.2,0.7,5.7,1.4,7.5,2.3c1.8,0.9,3.1,1.9,3.9,3.2c0.8,1.3,1.2,2.9,1.2,4.8c0,3.1-1.3,5.6-3.9,7.4 c-2.6,1.9-6,2.8-10.3,2.8C444.4,238.1,440.5,237.1,437.4,235.1z" fill="#604776"  /><path d="M496.1,205.6c2.2,2.3,3.4,5.8,3.4,10.6v18.4c0,1.1-0.3,1.9-0.9,2.5c-0.6,0.6-1.5,0.9-2.6,0.9 c-1,0-1.9-0.3-2.5-0.9s-0.9-1.4-0.9-2.5V232c-0.9,2-2.2,3.5-4,4.6c-1.8,1.1-3.8,1.6-6.2,1.6c-2.3,0-4.4-0.5-6.2-1.4 c-1.9-0.9-3.4-2.2-4.4-3.9c-1.1-1.7-1.6-3.5-1.6-5.5c0-2.5,0.7-4.5,2-5.9c1.3-1.4,3.5-2.5,6.5-3.1c3-0.6,7.1-0.9,12.4-0.9h1.6v-2.1 c0-2.7-0.5-4.6-1.6-5.8c-1.1-1.2-2.8-1.8-5.3-1.8c-1.7,0-3.2,0.2-4.7,0.6c-1.5,0.4-3.1,1-4.8,1.8c-1.3,0.7-2.2,1.1-2.7,1.1 c-0.7,0-1.3-0.3-1.7-0.8c-0.5-0.5-0.7-1.2-0.7-2c0-0.7,0.2-1.3,0.6-1.9c0.4-0.5,1.1-1.1,2-1.6c1.7-0.9,3.6-1.6,5.8-2.2 c2.2-0.5,4.4-0.8,6.5-0.8C490.4,202.1,493.8,203.3,496.1,205.6z M490,230.1c1.7-1.8,2.5-4.1,2.5-6.9v-1.8h-1.3 c-3.7,0-6.5,0.2-8.5,0.5c-2,0.3-3.4,0.9-4.3,1.7c-0.9,0.8-1.3,1.9-1.3,3.4c0,1.7,0.6,3.1,1.8,4.2c1.2,1.1,2.8,1.6,4.6,1.6 C486.2,232.8,488.3,231.9,490,230.1z" fill="#604776"  /><path d="M530.7,205.2c0,1-0.3,1.8-0.8,2.3c-0.5,0.5-1.4,0.8-2.7,0.9l-2.1,0.2c-3,0.3-5.2,1.3-6.6,3.1 c-1.4,1.8-2.2,4-2.2,6.5v16.3c0,1.1-0.3,2-1,2.6c-0.7,0.6-1.5,0.9-2.6,0.9s-1.9-0.3-2.6-0.9c-0.7-0.6-1-1.4-1-2.6v-28.9 c0-1.1,0.3-1.9,1-2.5c0.7-0.6,1.5-0.9,2.6-0.9c0.9,0,1.7,0.3,2.4,0.9c0.6,0.6,1,1.4,1,2.5v3.4c0.9-2.1,2.3-3.7,4.1-4.8 c1.8-1.1,3.8-1.7,6.1-1.9l1-0.1C529.5,202.1,530.7,203.1,530.7,205.2z" fill="#604776"  /><path d="M563.7,229.7c0.4,0.5,0.6,1.2,0.6,2c0,1.4-0.9,2.5-2.6,3.5c-1.7,0.9-3.5,1.7-5.4,2.2 c-2,0.5-3.8,0.8-5.6,0.8c-5.5,0-9.8-1.6-13-4.8c-3.2-3.2-4.8-7.6-4.8-13.1c0-3.6,0.7-6.7,2.1-9.4c1.4-2.7,3.4-4.9,5.9-6.4 c2.5-1.5,5.4-2.3,8.6-2.3c4.6,0,8.3,1.5,11,4.5c2.7,3,4,7,4,12.1c0,1.9-0.9,2.8-2.6,2.8h-21.9c0.5,7.3,4,11,10.6,11 c1.8,0,3.3-0.2,4.5-0.7c1.3-0.5,2.6-1.1,4-1.8c0.1-0.1,0.5-0.3,1.2-0.6c0.6-0.3,1.2-0.5,1.6-0.5 C562.7,228.9,563.3,229.2,563.7,229.7z M543.1,210c-1.7,1.8-2.7,4.2-3,7.4h18.3c-0.1-3.2-1-5.7-2.5-7.4s-3.6-2.6-6.3-2.6 C547,207.4,544.7,208.3,543.1,210z" fill="#604776"  /><path d="M597.2,205.6c2.2,2.3,3.4,5.8,3.4,10.6v18.4c0,1.1-0.3,1.9-0.9,2.5s-1.5,0.9-2.6,0.9c-1,0-1.9-0.3-2.5-0.9 s-0.9-1.4-0.9-2.5V232c-0.9,2-2.2,3.5-4,4.6c-1.8,1.1-3.8,1.6-6.2,1.6c-2.3,0-4.4-0.5-6.2-1.4c-1.9-0.9-3.4-2.2-4.4-3.9 c-1.1-1.7-1.6-3.5-1.6-5.5c0-2.5,0.7-4.5,2-5.9c1.3-1.4,3.5-2.5,6.5-3.1c3-0.6,7.1-0.9,12.4-0.9h1.6v-2.1c0-2.7-0.5-4.6-1.6-5.8 c-1.1-1.2-2.8-1.8-5.3-1.8c-1.7,0-3.2,0.2-4.7,0.6c-1.5,0.4-3.1,1-4.8,1.8c-1.3,0.7-2.2,1.1-2.7,1.1c-0.7,0-1.3-0.3-1.7-0.8 c-0.5-0.5-0.7-1.2-0.7-2c0-0.7,0.2-1.3,0.6-1.9c0.4-0.5,1.1-1.1,2-1.6c1.7-0.9,3.6-1.6,5.8-2.2c2.2-0.5,4.4-0.8,6.5-0.8 C591.5,202.1,594.9,203.3,597.2,205.6z M591.1,230.1c1.7-1.8,2.5-4.1,2.5-6.9v-1.8h-1.3c-3.7,0-6.5,0.2-8.5,0.5 c-2,0.3-3.4,0.9-4.3,1.7c-0.9,0.8-1.3,1.9-1.3,3.4c0,1.7,0.6,3.1,1.8,4.2c1.2,1.1,2.8,1.6,4.6,1.6 C587.3,232.8,589.4,231.9,591.1,230.1z" fill="#604776"  /><path d="M641.3,216.1v18.5c0,1.1-0.3,1.9-1,2.5s-1.5,0.9-2.7,0.9c-1.1,0-2-0.3-2.6-0.9c-0.6-0.6-1-1.4-1-2.5v-18.1 c0-2.9-0.6-5.1-1.7-6.5c-1.2-1.4-3-2.1-5.4-2.1c-2.9,0-5.2,0.9-7,2.7c-1.8,1.8-2.6,4.2-2.6,7.2v16.7c0,1-0.3,1.9-1,2.5 c-0.6,0.6-1.5,0.9-2.6,0.9c-1.1,0-2-0.3-2.6-0.9c-0.7-0.6-1-1.4-1-2.5v-28.9c0-1,0.3-1.8,1-2.5s1.6-1,2.6-1c1,0,1.9,0.3,2.5,0.9 c0.6,0.6,0.9,1.4,0.9,2.4v2.9c1.1-2.1,2.7-3.7,4.8-4.8c2-1.1,4.3-1.6,6.9-1.6C637.1,202.1,641.3,206.8,641.3,216.1z" fill="#604776"  />
    
    
    
    
    
    
    
    
    
    
    
    
    
    
    
    
    
    
    
    
    
    
    
    
    
    
    
  </g><path d="M327.7,279.3c0-2.3,1.9-4.2,4.2-4.2h308.3c2.3,0,4.2,1.9,4.2,4.2s-1.9,4.2-4.2,4.2H331.9 C329.6,283.5,327.7,281.6,327.7,279.3" fill="#BC945B"  /></svg>