<svg viewBox="0 0 558.2 283.5" role="img" aria-labelledby="birthplace--title" xmlns="http://www.w3.org/2000/svg" xmlns:xlink="http://www.w3.org/1999/xlink"><title id="birthplace--title">Birthplace in England Research Programme</title><g><path d="M60.5,43.3c0,2.2-0.2,4.6-0.6,7C58.6,57.4,54.2,63,49,67.1c-4.8,4.3-12.8,8.2-17.9,10c-1.3,0.4-3,0.7-4.8,1   c-1.3,0.3-3.1,0.8-4.3,1.2c0.5,0.6,1.1,1.4,1.7,2.1c1,1.2,2.1,2.3,3.1,3.4l0,0.1c2.5-1.1,7.8-2.1,10.4-3.1   C49.1,77.4,61.1,69.2,63,57.7c1.5-9.4-0.3-17-3.7-23.8C60,36.9,60.5,40,60.5,43.3z M71,154.1c2.4,7.2,4.1,14,5,20.7l0,0.1l0,11.2   l0,0.1c-2.9,20.8-12.6,40.3-29.6,59.8c-8.5,9.7-16.1,17.1-26,25.3l-2.4,2.2c-2.1,2.1-4.9,4.9-8.7,5.9c-0.7,1-1.1,1.6,0.7,3.1   c7.5,3.7,11.6-3.4,15.6-6.7c9.8-8.4,17-15.6,24.9-24.9c13.5-15.9,24.8-34.9,28-57.9v-10.8C77.2,172,74.3,162.6,71,154.1L71,154.1z" fill="#00A297"  />
	
</g><path d="M97.7,155.2c-2,0-3.8-0.6-5.3-1.9c-1.5-1.3-2.2-3-2.2-5.3c0-2.1,0.7-3.8,2.2-5.1c1.5-1.3,3.2-2,5.2-2  c1.9,0,3.6,0.6,5.1,1.8c1.5,1.2,2.2,3,2.2,5.3c0,2.3-0.7,4-2.2,5.3C101.4,154.6,99.7,155.2,97.7,155.2z M105,170.4v42.5  c0,2.9-0.7,5.2-2.1,6.7c-1.4,1.5-3.2,2.3-5.3,2.3c-2.2,0-3.9-0.8-5.2-2.3c-1.3-1.5-2-3.8-2-6.6v-42c0-2.9,0.7-5.1,2-6.6  c1.3-1.5,3.1-2.2,5.2-2.2c2.2,0,3.9,0.7,5.3,2.2C104.3,165.7,105,167.8,105,170.4z M134.7,200.6v12.3c0,3-0.7,5.2-2.1,6.7  c-1.4,1.5-3.2,2.2-5.3,2.2c-2.1,0-3.9-0.8-5.2-2.3c-1.4-1.5-2-3.7-2-6.7v-40.9c0-6.6,2.4-9.9,7.2-9.9c2.4,0,4.2,0.8,5.3,2.3  c1.1,1.5,1.7,3.8,1.8,6.8c1.8-3,3.6-5.3,5.4-6.8c1.8-1.5,4.3-2.3,7.4-2.3c3.1,0,6.1,0.8,9,2.3c2.9,1.5,4.4,3.6,4.4,6.1  c0,1.8-0.6,3.3-1.9,4.4c-1.2,1.2-2.6,1.7-4,1.7c-0.5,0-1.8-0.3-3.9-1c-2.1-0.7-3.9-1-5.5-1c-2.2,0-3.9,0.6-5.3,1.7  c-1.4,1.1-2.4,2.8-3.2,5c-0.8,2.2-1.3,4.9-1.6,7.9C134.9,192.4,134.7,196.2,134.7,200.6L134.7,200.6z M170.6,163.3h1.6v-8.8  c0-2.4,0.1-4.2,0.2-5.6c0.1-1.3,0.5-2.5,1.1-3.5c0.6-1,1.4-1.8,2.5-2.4c1.1-0.6,2.3-0.9,3.6-0.9c1.9,0,3.6,0.7,5.1,2.1  c1,0.9,1.7,2.1,1.9,3.4c0.3,1.3,0.4,3.3,0.4,5.7v10h5.4c2.1,0,3.7,0.5,4.8,1.5c1.1,1,1.6,2.3,1.6,3.8c0,2-0.8,3.4-2.3,4.1  c-1.6,0.8-3.8,1.2-6.7,1.2h-2.7v27c0,2.3,0.1,4.1,0.2,5.3c0.2,1.2,0.6,2.2,1.3,3c0.7,0.8,1.8,1.2,3.4,1.2c0.9,0,2-0.2,3.5-0.5  c1.5-0.3,2.6-0.5,3.4-0.5c1.2,0,2.3,0.5,3.2,1.4c1,1,1.4,2.1,1.4,3.5c0,2.4-1.3,4.2-3.9,5.4c-2.6,1.3-6.3,1.9-11.1,1.9  c-4.6,0-8.1-0.8-10.4-2.3c-2.4-1.5-3.9-3.7-4.7-6.4c-0.7-2.7-1.1-6.4-1.1-10.9v-28.2h-1.9c-2.1,0-3.7-0.5-4.8-1.5  c-1.1-1-1.7-2.3-1.7-3.8c0-1.5,0.6-2.8,1.7-3.8C166.6,163.8,168.3,163.3,170.6,163.3L170.6,163.3z M223.1,149.1v21.8  c1.9-2.2,3.7-3.9,5.5-5.1c1.8-1.3,3.8-2.2,5.9-2.8c2.2-0.6,4.5-0.9,6.9-0.9c3.7,0,7,0.8,9.9,2.4c2.9,1.6,5.2,3.9,6.8,6.9  c1,1.8,1.7,3.7,2.1,5.9c0.4,2.2,0.5,4.7,0.5,7.5v28.2c0,2.9-0.7,5.2-2,6.7c-1.4,1.5-3.1,2.3-5.4,2.3c-4.8,0-7.3-3-7.3-8.9V188  c0-4.7-0.7-8.3-2.1-10.8c-1.4-2.5-4.1-3.8-8-3.8c-2.6,0-5,0.7-7.1,2.2c-2.1,1.5-3.7,3.5-4.7,6.1c-0.8,2.2-1.2,6.1-1.2,11.7v19.4  c0,2.9-0.7,5.1-2,6.6c-1.3,1.5-3.1,2.3-5.5,2.3c-4.8,0-7.3-3-7.3-8.9v-63.7c0-3,0.6-5.2,1.9-6.7c1.3-1.5,3.1-2.2,5.4-2.2  c2.3,0,4.2,0.8,5.5,2.3C222.5,144,223.1,146.2,223.1,149.1L223.1,149.1z M288.9,170.3v1.8c2.8-3.4,5.6-5.9,8.6-7.5  c3-1.6,6.4-2.4,10.1-2.4c4.5,0,8.7,1.2,12.5,3.5c3.8,2.3,6.8,5.7,9,10.2c2.2,4.5,3.3,9.8,3.3,15.9c0,4.5-0.6,8.7-1.9,12.5  c-1.3,3.8-3,7-5.3,9.5c-2.2,2.6-4.9,4.5-7.9,5.9c-3,1.4-6.3,2.1-9.8,2.1c-4.2,0-7.7-0.8-10.6-2.5c-2.8-1.7-5.6-4.2-8.1-7.4v22.1  c0,6.5-2.4,9.7-7.1,9.7c-2.8,0-4.6-0.8-5.5-2.5c-0.9-1.7-1.3-4.1-1.3-7.3v-63.4c0-2.8,0.6-4.9,1.8-6.3c1.2-1.4,2.9-2.1,5-2.1  c2.1,0,3.8,0.7,5.1,2.1C288.3,165.6,288.9,167.6,288.9,170.3L288.9,170.3z M317.7,191.6c0-3.9-0.6-7.2-1.8-10  c-1.2-2.8-2.8-4.9-4.9-6.4c-2.1-1.5-4.4-2.2-7-2.2c-4.1,0-7.5,1.6-10.3,4.8c-2.8,3.2-4.2,7.9-4.2,14.1c0,5.8,1.4,10.4,4.1,13.6  c2.8,3.2,6.2,4.9,10.3,4.9c2.4,0,4.7-0.7,6.8-2.1c2.1-1.4,3.7-3.5,5-6.4C317.1,199.1,317.7,195.7,317.7,191.6L317.7,191.6z   M344.2,212.9v-63.7c0-2.9,0.6-5.2,2-6.7c1.3-1.5,3.1-2.3,5.3-2.3s4,0.7,5.4,2.2c1.4,1.5,2,3.7,2,6.7v63.7c0,3-0.7,5.2-2.1,6.7  c-1.4,1.5-3.2,2.2-5.4,2.2c-2.2,0-3.9-0.8-5.3-2.3C344.9,217.9,344.2,215.7,344.2,212.9z M411.2,213.5c-3.5,2.8-7,4.8-10.3,6.2  c-3.3,1.4-7,2.1-11.2,2.1c-3.8,0-7.1-0.8-9.9-2.2c-2.9-1.5-5-3.5-6.6-6.1c-1.5-2.5-2.3-5.4-2.3-8.3c0-4,1.3-7.4,3.8-10.3  c2.5-2.8,6-4.7,10.5-5.7c0.9-0.2,3.3-0.7,6.9-1.5c3.2-0.6,6.3-1.3,9.5-2.1c2.9-0.7,5.7-1.5,8.6-2.3c-0.2-3.9-1-6.7-2.3-8.5  c-1.4-1.8-4.2-2.7-8.6-2.7c-3.7,0-6.5,0.5-8.4,1.6c-1.9,1-3.5,2.6-4.8,4.7c-1.3,2.1-2.3,3.5-2.9,4.1c-0.6,0.7-1.8,1-3.6,1  c-1.6,0-3.1-0.5-4.3-1.6c-1.2-1.1-1.8-2.4-1.8-4.1c0-2.6,0.9-5.1,2.7-7.5c1.8-2.4,4.7-4.4,8.6-6c3.9-1.6,8.7-2.4,14.5-2.4  c6.5,0,11.5,0.8,15.2,2.3c3.7,1.5,6.3,3.9,7.8,7.2c1.5,3.3,2.3,7.7,2.3,13.1c0,3.4,0,6.4,0,8.8c0,2.4-0.1,5.1-0.1,8  c0,2.8,0.5,5.6,1.4,8.6c0.9,3,1.4,4.9,1.4,5.8c0,1.5-0.7,2.9-2.1,4.1c-1.4,1.2-3,1.9-4.8,1.9c-1.5,0-3-0.7-4.5-2.1  C414.5,218.2,412.9,216.2,411.2,213.5z M410.3,192.2c-2.2,0.8-5.3,1.6-9.4,2.5c-4.1,0.9-7,1.5-8.5,1.9c-1.6,0.4-3.1,1.2-4.5,2.4  c-1.4,1.2-2.2,2.9-2.2,5c0,2.2,0.8,4.1,2.5,5.7c1.7,1.6,3.9,2.3,6.6,2.3c2.9,0,5.6-0.6,8.1-1.9c2.5-1.3,4.3-2.9,5.4-4.9  c1.3-2.2,2-5.9,2-11L410.3,192.2L410.3,192.2z M492.3,203.6c0,1.8-0.5,3.8-1.6,5.9c-1.1,2.1-2.8,4.1-5,6c-2.2,1.9-5.1,3.4-8.5,4.5  c-3.4,1.1-7.3,1.7-11.5,1.7c-9.1,0-16.2-2.6-21.3-7.9c-5.1-5.3-7.6-12.4-7.6-21.3c0-6,1.2-11.4,3.5-16c2.3-4.6,5.7-8.2,10.1-10.7  c4.4-2.5,9.7-3.8,15.8-3.8c3.8,0,7.3,0.6,10.5,1.7c3.2,1.1,5.9,2.5,8.1,4.3c2.2,1.8,3.9,3.6,5.1,5.6c1.2,2,1.7,3.8,1.7,5.6  c0,1.8-0.6,3.3-2,4.5c-1.3,1.2-2.9,1.8-4.8,1.8c-1.2,0-2.2-0.3-3-0.9c-0.8-0.6-1.7-1.6-2.7-3c-1.8-2.7-3.7-4.8-5.6-6.1  c-2-1.4-4.4-2-7.5-2c-4.3,0-7.8,1.7-10.5,5.1c-2.7,3.4-4,8-4,13.9c0,2.8,0.3,5.3,1,7.6c0.7,2.3,1.7,4.3,3,5.9  c1.2,1.6,2.8,2.9,4.7,3.7c1.8,0.8,3.8,1.3,6,1.3c2.9,0,5.5-0.7,7.6-2c2.1-1.4,4-3.4,5.6-6.2c0.9-1.6,1.9-2.9,2.9-3.9  c1-0.9,2.3-1.4,3.8-1.4c1.8,0,3.3,0.7,4.5,2.1C491.7,200.6,492.3,202.1,492.3,203.6L492.3,203.6z M546.1,195.5h-28.7  c0,3.3,0.7,6.3,2,8.8c1.3,2.5,3,4.5,5.2,5.8c2.2,1.3,4.6,1.9,7.2,1.9c1.8,0,3.4-0.2,4.8-0.6c1.5-0.4,2.9-1.1,4.2-1.9  c1.3-0.9,2.6-1.8,3.8-2.8c1.1-1,2.6-2.4,4.5-4.1c0.8-0.6,1.8-1,3.2-1c1.5,0,2.7,0.4,3.7,1.2c0.9,0.8,1.4,2,1.4,3.5  c0,1.3-0.5,2.9-1.6,4.7c-1,1.8-2.6,3.5-4.7,5.1c-2.1,1.6-4.7,3-7.9,4.1c-3.2,1.1-6.8,1.6-11,1.6c-9.4,0-16.8-2.7-22-8.1  c-5.2-5.4-7.9-12.7-7.9-21.9c0-4.3,0.6-8.4,1.9-12.1c1.3-3.7,3.2-6.9,5.6-9.5c2.5-2.7,5.5-4.7,9.2-6.1c3.6-1.4,7.6-2.1,12.1-2.1  c5.7,0,10.7,1.2,14.8,3.6c4.1,2.4,7.2,5.6,9.2,9.4c2,3.8,3.1,7.7,3.1,11.7c0,3.7-1.1,6.1-3.2,7.2C552.9,195,550,195.5,546.1,195.5  L546.1,195.5z M517.4,187.2H544c-0.4-5-1.7-8.8-4.1-11.3c-2.4-2.5-5.4-3.7-9.3-3.7c-3.7,0-6.7,1.3-9,3.8  C519.3,178.5,517.9,182.2,517.4,187.2z" fill="#0070BA"  /><path d="M94.4,252.8c-0.5,0-0.9-0.1-1.2-0.4c-0.3-0.3-0.5-0.7-0.5-1.2c0-0.5,0.2-0.9,0.5-1.2  c0.3-0.3,0.8-0.5,1.2-0.5c0.4,0,0.8,0.1,1.2,0.4c0.3,0.3,0.5,0.7,0.5,1.2c0,0.5-0.2,0.9-0.5,1.2C95.2,252.6,94.8,252.8,94.4,252.8  L94.4,252.8z M96.1,256.3v9.9c0,0.7-0.2,1.2-0.5,1.5c-0.3,0.4-0.7,0.5-1.2,0.5c-0.5,0-0.9-0.2-1.2-0.5c-0.3-0.4-0.5-0.9-0.5-1.5  v-9.8c0-0.7,0.2-1.2,0.5-1.5c0.3-0.3,0.7-0.5,1.2-0.5c0.5,0,0.9,0.2,1.2,0.5C95.9,255.2,96.1,255.7,96.1,256.3L96.1,256.3z   M104.7,256.2v0.4c0.6-0.8,1.3-1.4,2-1.7c0.7-0.4,1.5-0.6,2.5-0.6c0.9,0,1.7,0.2,2.4,0.6c0.7,0.4,1.2,0.9,1.6,1.7  c0.2,0.4,0.4,0.9,0.4,1.4c0.1,0.5,0.1,1.1,0.1,1.9v6.4c0,0.7-0.2,1.2-0.5,1.6c-0.3,0.3-0.7,0.5-1.2,0.5c-0.5,0-0.9-0.2-1.2-0.5  c-0.3-0.4-0.5-0.9-0.5-1.5v-5.7c0-1.1-0.2-2-0.5-2.6c-0.3-0.6-0.9-0.9-1.9-0.9c-0.6,0-1.2,0.2-1.7,0.5c-0.5,0.4-0.9,0.9-1.1,1.5  c-0.2,0.5-0.2,1.5-0.2,2.9v4.3c0,0.7-0.2,1.2-0.5,1.6c-0.3,0.3-0.8,0.5-1.2,0.5c-0.5,0-0.9-0.2-1.2-0.5c-0.3-0.4-0.5-0.9-0.5-1.5  v-9.9c0-0.6,0.1-1.1,0.4-1.5c0.3-0.3,0.7-0.5,1.2-0.5c0.3,0,0.6,0.1,0.8,0.2c0.2,0.1,0.4,0.4,0.6,0.6  C104.6,255.5,104.7,255.8,104.7,256.2L104.7,256.2z M139.9,252.5h-8.4v4.5h7.7c0.6,0,1,0.1,1.3,0.4c0.3,0.3,0.4,0.6,0.4,1  c0,0.4-0.1,0.8-0.4,1c-0.3,0.3-0.7,0.4-1.3,0.4h-7.7v5.2h8.7c0.6,0,1,0.1,1.3,0.4c0.3,0.3,0.4,0.6,0.4,1.1c0,0.4-0.1,0.8-0.4,1.1  c-0.3,0.3-0.7,0.4-1.3,0.4h-10.1c-0.8,0-1.4-0.2-1.7-0.5c-0.4-0.4-0.5-0.9-0.5-1.7v-13.8c0-0.5,0.1-1,0.2-1.3  c0.2-0.3,0.4-0.6,0.7-0.7c0.3-0.2,0.8-0.2,1.3-0.2h9.8c0.6,0,1,0.1,1.3,0.4c0.3,0.3,0.4,0.6,0.4,1c0,0.4-0.1,0.8-0.4,1  C140.9,252.3,140.5,252.5,139.9,252.5L139.9,252.5z M149.8,256.2v0.4c0.6-0.8,1.3-1.4,2-1.7c0.7-0.4,1.5-0.6,2.5-0.6  c0.9,0,1.7,0.2,2.4,0.6c0.7,0.4,1.2,0.9,1.6,1.7c0.2,0.4,0.4,0.9,0.4,1.4c0.1,0.5,0.1,1.1,0.1,1.9v6.4c0,0.7-0.2,1.2-0.5,1.6  c-0.3,0.3-0.7,0.5-1.2,0.5c-0.5,0-0.9-0.2-1.2-0.5c-0.3-0.4-0.5-0.9-0.5-1.5v-5.7c0-1.1-0.2-2-0.5-2.6c-0.3-0.6-0.9-0.9-1.9-0.9  c-0.6,0-1.2,0.2-1.7,0.5c-0.5,0.4-0.9,0.9-1.1,1.5c-0.2,0.5-0.2,1.5-0.2,2.9v4.3c0,0.7-0.2,1.2-0.5,1.6c-0.3,0.3-0.7,0.5-1.2,0.5  c-0.5,0-0.9-0.2-1.2-0.5c-0.3-0.4-0.5-0.9-0.5-1.5v-9.9c0-0.6,0.1-1.1,0.4-1.5c0.3-0.3,0.7-0.5,1.2-0.5c0.3,0,0.6,0.1,0.8,0.2  c0.2,0.1,0.4,0.4,0.6,0.6C149.8,255.5,149.8,255.8,149.8,256.2L149.8,256.2z M176.8,256.9v9.9c0,1.1-0.1,2.1-0.4,2.9  c-0.2,0.8-0.6,1.5-1.2,2c-0.5,0.5-1.2,0.9-2.1,1.2c-0.9,0.3-1.9,0.4-3.2,0.4c-1.2,0-2.2-0.2-3.2-0.5c-0.9-0.3-1.6-0.8-2.1-1.3  c-0.5-0.5-0.8-1.1-0.8-1.6c0-0.4,0.1-0.8,0.4-1c0.3-0.3,0.6-0.4,1-0.4c0.5,0,0.9,0.2,1.3,0.7c0.2,0.2,0.4,0.5,0.6,0.7  c0.2,0.2,0.4,0.4,0.6,0.6c0.2,0.2,0.5,0.3,0.9,0.4c0.3,0.1,0.7,0.1,1.2,0.1c0.9,0,1.6-0.1,2.1-0.4c0.5-0.3,0.8-0.6,1-1  c0.2-0.4,0.3-0.9,0.3-1.4c0-0.5,0.1-1.3,0.1-2.4c-0.5,0.7-1.1,1.3-1.8,1.7c-0.7,0.4-1.5,0.6-2.5,0.6c-1.1,0-2.1-0.3-3-0.9  c-0.9-0.6-1.5-1.4-2-2.5c-0.5-1.1-0.7-2.3-0.7-3.6c0-1,0.1-2,0.4-2.8c0.3-0.8,0.7-1.5,1.2-2.1c0.5-0.6,1.1-1,1.8-1.3  c0.7-0.3,1.4-0.4,2.2-0.4c1,0,1.8,0.2,2.5,0.6c0.7,0.4,1.4,1,2,1.7v-0.5c0-0.6,0.1-1.1,0.4-1.4c0.3-0.3,0.7-0.5,1.1-0.5  c0.7,0,1.1,0.2,1.3,0.6C176.7,255.4,176.8,256.1,176.8,256.9L176.8,256.9z M166.9,261.2c0,1.4,0.3,2.4,0.9,3.1  c0.6,0.7,1.4,1.1,2.3,1.1c0.6,0,1.1-0.2,1.6-0.5c0.5-0.3,0.9-0.8,1.2-1.4c0.3-0.6,0.5-1.4,0.5-2.2c0-1.4-0.3-2.5-0.9-3.3  c-0.6-0.8-1.4-1.2-2.4-1.2c-1,0-1.8,0.4-2.3,1.1C167.2,258.8,166.9,259.8,166.9,261.2L166.9,261.2z M182,266.2v-14.8  c0-0.7,0.2-1.2,0.5-1.5c0.3-0.3,0.7-0.5,1.2-0.5c0.5,0,0.9,0.2,1.2,0.5c0.3,0.3,0.5,0.9,0.5,1.6v14.8c0,0.7-0.2,1.2-0.5,1.6  c-0.3,0.3-0.7,0.5-1.2,0.5c-0.5,0-0.9-0.2-1.2-0.5C182.1,267.4,182,266.8,182,266.2z M199.6,266.3c-0.8,0.6-1.6,1.1-2.4,1.4  c-0.8,0.3-1.6,0.5-2.6,0.5c-0.9,0-1.6-0.2-2.3-0.5c-1.3-0.6-2.1-1.9-2.1-3.3c0-0.9,0.3-1.7,0.9-2.4c0.6-0.7,1.4-1.1,2.4-1.3  c0.2-0.1,0.8-0.2,1.6-0.3c0.7-0.1,1.5-0.3,2.2-0.5c0.6-0.1,1.3-0.3,2-0.5c0-0.9-0.2-1.6-0.5-2c-0.3-0.4-1-0.6-2-0.6  c-0.9,0-1.5,0.1-2,0.4c-0.4,0.2-0.8,0.6-1.1,1.1c-0.2,0.3-0.4,0.7-0.7,1c-0.1,0.2-0.4,0.2-0.8,0.2c-0.4,0-0.7-0.1-1-0.4  c-0.3-0.2-0.4-0.6-0.4-0.9c0-0.6,0.2-1.2,0.6-1.8c0.4-0.6,1.1-1,2-1.4c0.9-0.4,2-0.5,3.4-0.5c1.5,0,2.7,0.2,3.5,0.5  c0.9,0.4,1.5,0.9,1.8,1.7c0.4,0.8,0.5,1.8,0.5,3.1c0,0.8,0,1.5,0,2c0,0.6,0,1.2,0,1.9c0,0.6,0.1,1.3,0.3,2c0.2,0.7,0.3,1.1,0.3,1.3  c0,0.4-0.2,0.7-0.5,1c-0.3,0.3-0.7,0.4-1.1,0.4c-0.4,0-0.7-0.2-1-0.5C200.4,267.4,200,267,199.6,266.3L199.6,266.3z M199.4,261.4  c-0.5,0.2-1.2,0.4-2.2,0.6c-1,0.2-1.6,0.4-2,0.4c-0.4,0.1-0.7,0.3-1.1,0.6c-0.3,0.3-0.5,0.7-0.5,1.2c0,0.5,0.2,1,0.6,1.3  c0.4,0.4,0.9,0.5,1.5,0.5c0.7,0,1.3-0.1,1.9-0.4c0.6-0.3,1-0.7,1.3-1.1c0.3-0.5,0.5-1.4,0.5-2.6L199.4,261.4L199.4,261.4z   M211.3,256.2v0.4c0.6-0.8,1.3-1.4,2-1.7c0.7-0.4,1.5-0.6,2.5-0.6c0.9,0,1.7,0.2,2.4,0.6c0.7,0.4,1.2,0.9,1.6,1.7  c0.2,0.4,0.4,0.9,0.4,1.4c0.1,0.5,0.1,1.1,0.1,1.9v6.4c0,0.7-0.2,1.2-0.5,1.6c-0.3,0.3-0.7,0.5-1.2,0.5c-0.5,0-0.9-0.2-1.2-0.5  c-0.3-0.4-0.5-0.9-0.5-1.5v-5.7c0-1.1-0.2-2-0.5-2.6c-0.3-0.6-0.9-0.9-1.9-0.9c-0.6,0-1.2,0.2-1.7,0.5c-0.5,0.4-0.9,0.9-1.1,1.5  c-0.2,0.5-0.2,1.5-0.2,2.9v4.3c0,0.7-0.2,1.2-0.5,1.6c-0.3,0.3-0.7,0.5-1.2,0.5c-0.5,0-0.9-0.2-1.2-0.5c-0.3-0.4-0.5-0.9-0.5-1.5  v-9.9c0-0.6,0.1-1.1,0.4-1.5c0.3-0.3,0.7-0.5,1.2-0.5c0.3,0,0.6,0.1,0.8,0.2c0.2,0.1,0.4,0.4,0.6,0.6  C211.3,255.5,211.3,255.8,211.3,256.2L211.3,256.2z M235.1,266.3V266c-0.4,0.5-0.9,0.9-1.4,1.3c-0.4,0.3-0.9,0.6-1.5,0.8  c-0.6,0.2-1.1,0.3-1.7,0.3c-0.8,0-1.6-0.2-2.3-0.5c-0.7-0.4-1.3-0.9-1.8-1.5c-0.5-0.7-0.9-1.4-1.2-2.3c-0.3-0.9-0.4-1.9-0.4-2.8  c0-2.1,0.5-3.8,1.6-5c1-1.2,2.4-1.8,4.1-1.8c1,0,1.8,0.2,2.5,0.5c0.7,0.3,1.3,0.9,2,1.6v-5c0-0.7,0.1-1.2,0.4-1.6  c0.3-0.4,0.7-0.5,1.2-0.5c0.5,0,0.9,0.2,1.2,0.5c0.3,0.3,0.4,0.8,0.4,1.5v15.1c0,0.6-0.2,1.1-0.5,1.5c-0.3,0.3-0.7,0.5-1.2,0.5  c-0.4,0-0.9-0.2-1.2-0.5C235.3,267.4,235.1,266.9,235.1,266.3L235.1,266.3z M228.4,261.3c0,0.9,0.1,1.7,0.4,2.4  c0.3,0.6,0.7,1.1,1.2,1.5c0.5,0.3,1,0.5,1.6,0.5c0.6,0,1.1-0.2,1.6-0.5c0.5-0.3,0.9-0.8,1.2-1.4c0.3-0.6,0.4-1.5,0.4-2.4  c0-0.9-0.2-1.7-0.4-2.3c-0.3-0.7-0.7-1.2-1.2-1.5c-0.5-0.3-1.1-0.5-1.7-0.5c-0.6,0-1.2,0.2-1.7,0.5c-0.5,0.4-0.9,0.9-1.1,1.5  C228.5,259.6,228.4,260.4,228.4,261.3L228.4,261.3z M257.5,260.1h-1.3v5.9c0,0.8-0.2,1.4-0.5,1.7c-0.3,0.4-0.8,0.5-1.3,0.5  c-0.6,0-1.1-0.2-1.4-0.6c-0.3-0.4-0.5-0.9-0.5-1.7v-14.1c0-0.8,0.2-1.4,0.5-1.7c0.4-0.4,0.9-0.5,1.7-0.5h6c0.8,0,1.5,0,2.1,0.1  c0.6,0.1,1.1,0.2,1.6,0.4c0.6,0.2,1.1,0.6,1.5,1c0.4,0.4,0.8,1,1,1.6c0.2,0.6,0.3,1.2,0.3,1.9c0,1.4-0.4,2.5-1.2,3.3  c-0.8,0.8-1.9,1.4-3.5,1.7c0.7,0.4,1.3,0.9,1.9,1.5c0.6,0.7,1.1,1.4,1.6,2.2c0.5,0.8,0.8,1.5,1.1,2.1c0.3,0.6,0.4,1,0.4,1.3  c0,0.3-0.1,0.5-0.2,0.7c-0.2,0.2-0.4,0.4-0.6,0.6c-0.3,0.1-0.6,0.2-0.9,0.2c-0.4,0-0.8-0.1-1.1-0.3c-0.3-0.2-0.5-0.5-0.7-0.7  c-0.2-0.3-0.5-0.7-0.8-1.3l-1.5-2.5c-0.5-0.9-1-1.6-1.4-2.1c-0.4-0.5-0.9-0.8-1.3-1C258.7,260.2,258.2,260.1,257.5,260.1  L257.5,260.1z M259.6,252.4h-3.4v5h3.3c0.9,0,1.6-0.1,2.3-0.2s1.1-0.4,1.4-0.8c0.3-0.4,0.5-0.9,0.5-1.5c0-0.5-0.1-1-0.4-1.3  c-0.3-0.4-0.6-0.7-1.1-0.9C261.8,252.5,260.9,252.4,259.6,252.4L259.6,252.4z M281.6,262.1h-6.7c0,0.8,0.2,1.5,0.5,2.1  c0.3,0.6,0.7,1,1.2,1.3c0.5,0.3,1.1,0.5,1.7,0.5c0.4,0,0.8-0.1,1.1-0.1c0.3-0.1,0.7-0.2,1-0.4c0.3-0.2,0.6-0.4,0.9-0.7  c0.3-0.2,0.6-0.5,1-1c0.2-0.2,0.4-0.2,0.8-0.2c0.4,0,0.6,0.1,0.8,0.3c0.2,0.2,0.3,0.5,0.3,0.8c0,0.3-0.1,0.7-0.4,1.1  c-0.2,0.4-0.6,0.8-1.1,1.2c-0.5,0.4-1.1,0.7-1.8,0.9c-0.7,0.3-1.6,0.4-2.5,0.4c-2.2,0-3.9-0.6-5.1-1.9c-1.2-1.3-1.8-3-1.8-5.1  c0-1,0.1-1.9,0.5-2.8c0.3-0.8,0.7-1.6,1.3-2.2c0.6-0.6,1.3-1.1,2.1-1.4c0.8-0.3,1.8-0.5,2.8-0.5c1.3,0,2.5,0.3,3.4,0.8  c1,0.6,1.7,1.3,2.1,2.2c0.5,0.9,0.7,1.8,0.7,2.7c0,0.9-0.3,1.4-0.7,1.7C283.2,262,282.5,262.1,281.6,262.1L281.6,262.1z   M274.9,260.2h6.2c-0.1-1.2-0.4-2-0.9-2.6c-0.5-0.6-1.3-0.9-2.2-0.9c-0.9,0-1.6,0.3-2.1,0.9C275.4,258.2,275.1,259.1,274.9,260.2  L274.9,260.2z M300.3,263.8c0,0.9-0.2,1.7-0.7,2.4c-0.5,0.7-1.1,1.2-2,1.5c-0.9,0.3-2,0.5-3.3,0.5c-1.2,0-2.3-0.2-3.1-0.6  c-0.9-0.4-1.5-0.8-1.9-1.4c-0.4-0.6-0.6-1.1-0.6-1.7c0-0.4,0.1-0.7,0.4-1c0.3-0.3,0.6-0.4,1-0.4c0.4,0,0.6,0.1,0.8,0.3  c0.2,0.2,0.4,0.4,0.5,0.7c0.4,0.6,0.8,1.1,1.3,1.4c0.5,0.3,1.2,0.4,2,0.4c0.7,0,1.2-0.2,1.7-0.5c0.4-0.3,0.6-0.6,0.6-1  c0-0.6-0.2-1-0.7-1.3c-0.5-0.3-1.2-0.5-2.2-0.8c-1.2-0.3-2.1-0.6-2.9-0.9c-0.7-0.3-1.3-0.7-1.8-1.3c-0.4-0.5-0.7-1.2-0.7-1.9  c0-0.7,0.2-1.3,0.6-1.9c0.4-0.6,1-1.1,1.8-1.5c0.8-0.4,1.8-0.5,2.9-0.5c0.9,0,1.7,0.1,2.4,0.3c0.7,0.2,1.3,0.4,1.8,0.7  c0.5,0.3,0.8,0.6,1.1,1c0.3,0.4,0.4,0.7,0.4,1.1c0,0.4-0.1,0.7-0.4,1c-0.3,0.3-0.6,0.4-1.1,0.4c-0.3,0-0.6-0.1-0.9-0.3  c-0.3-0.3-0.6-0.6-0.8-0.9c-0.2-0.3-0.6-0.6-0.9-0.8c-0.4-0.2-0.8-0.3-1.4-0.3c-0.6,0-1.1,0.1-1.5,0.4c-0.4,0.3-0.6,0.6-0.6,1  c0,0.4,0.1,0.6,0.4,0.9c0.3,0.2,0.7,0.4,1.2,0.6c0.5,0.1,1.2,0.3,2.1,0.5c1.1,0.3,1.9,0.6,2.6,0.9c0.7,0.4,1.2,0.8,1.5,1.3  C300.2,262.6,300.3,263.2,300.3,263.8L300.3,263.8z M314.8,262.1h-6.7c0,0.8,0.2,1.5,0.5,2.1c0.3,0.6,0.7,1,1.2,1.3  c0.5,0.3,1.1,0.5,1.7,0.5c0.4,0,0.8-0.1,1.1-0.1c0.3-0.1,0.7-0.3,1-0.4c0.3-0.2,0.6-0.4,0.9-0.7c0.3-0.2,0.6-0.5,1-1  c0.2-0.2,0.4-0.2,0.8-0.2c0.4,0,0.6,0.1,0.9,0.3c0.2,0.2,0.3,0.5,0.3,0.8c0,0.3-0.1,0.7-0.4,1.1c-0.2,0.4-0.6,0.8-1.1,1.2  c-0.5,0.4-1.1,0.7-1.8,0.9c-0.7,0.3-1.6,0.4-2.5,0.4c-2.2,0-3.9-0.6-5.1-1.9c-1.2-1.3-1.8-3-1.8-5.1c0-1,0.1-1.9,0.5-2.8  c0.3-0.8,0.7-1.6,1.3-2.2c0.6-0.6,1.3-1.1,2.1-1.4c0.9-0.3,1.8-0.5,2.8-0.5c1.3,0,2.5,0.3,3.4,0.8c1,0.6,1.7,1.3,2.1,2.2  c0.5,0.9,0.7,1.8,0.7,2.7c0,0.9-0.2,1.4-0.7,1.7C316.4,262,315.7,262.1,314.8,262.1L314.8,262.1z M308.1,260.2h6.2  c-0.1-1.2-0.4-2-0.9-2.6c-0.5-0.6-1.3-0.9-2.2-0.9c-0.9,0-1.5,0.3-2.1,0.9C308.6,258.2,308.3,259.1,308.1,260.2L308.1,260.2z   M331.2,266.3c-0.8,0.6-1.6,1.1-2.4,1.4c-0.8,0.3-1.6,0.5-2.6,0.5c-0.9,0-1.6-0.2-2.3-0.5c-1.3-0.6-2.1-1.9-2.1-3.3  c0-0.9,0.3-1.7,0.9-2.4c0.6-0.7,1.4-1.1,2.4-1.3c0.2-0.1,0.8-0.2,1.6-0.3c0.7-0.1,1.5-0.3,2.2-0.5c0.6-0.1,1.3-0.3,2-0.5  c0-0.9-0.2-1.6-0.5-2c-0.3-0.4-1-0.6-2-0.6c-0.9,0-1.5,0.1-2,0.4c-0.5,0.3-0.8,0.6-1.1,1.1c-0.2,0.3-0.4,0.7-0.7,1  c-0.1,0.2-0.4,0.2-0.8,0.2c-0.4,0-0.7-0.1-1-0.4c-0.3-0.2-0.4-0.6-0.4-0.9c0-0.6,0.2-1.2,0.6-1.8c0.4-0.6,1.1-1,2-1.4  c0.9-0.4,2-0.5,3.4-0.5c1.5,0,2.7,0.2,3.5,0.5c0.9,0.4,1.5,0.9,1.8,1.7c0.4,0.8,0.5,1.8,0.5,3.1c0,0.8,0,1.5,0,2c0,0.6,0,1.2,0,1.9  c0,0.6,0.1,1.3,0.3,2c0.2,0.7,0.3,1.1,0.3,1.3c0,0.4-0.2,0.7-0.5,1c-0.3,0.3-0.7,0.4-1.1,0.4c-0.4,0-0.7-0.2-1-0.5  C331.9,267.4,331.6,267,331.2,266.3L331.2,266.3z M331,261.4c-0.5,0.2-1.2,0.4-2.2,0.6c-1,0.2-1.6,0.4-2,0.4  c-0.4,0.1-0.7,0.3-1.1,0.6c-0.3,0.3-0.5,0.7-0.5,1.2c0,0.5,0.2,1,0.6,1.3c0.4,0.4,0.9,0.5,1.5,0.5c0.7,0,1.3-0.1,1.9-0.4  c0.6-0.3,1-0.7,1.3-1.1c0.3-0.5,0.5-1.4,0.5-2.6L331,261.4L331,261.4z M343.2,263.3v2.9c0,0.7-0.2,1.2-0.5,1.6  c-0.3,0.3-0.8,0.5-1.2,0.5c-0.5,0-0.9-0.2-1.2-0.5c-0.3-0.3-0.5-0.9-0.5-1.5v-9.5c0-1.5,0.6-2.3,1.7-2.3c0.6,0,1,0.2,1.2,0.5  c0.3,0.4,0.4,0.9,0.4,1.6c0.4-0.7,0.8-1.2,1.3-1.6c0.4-0.4,1-0.5,1.7-0.5c0.7,0,1.4,0.2,2.1,0.5c0.7,0.4,1,0.8,1,1.4  c0,0.4-0.1,0.8-0.4,1c-0.3,0.3-0.6,0.4-0.9,0.4c-0.1,0-0.4-0.1-0.9-0.2c-0.5-0.2-0.9-0.2-1.3-0.2c-0.5,0-0.9,0.1-1.2,0.4  c-0.3,0.3-0.6,0.6-0.7,1.2s-0.3,1.1-0.4,1.8C343.2,261.6,343.2,262.5,343.2,263.3L343.2,263.3z M364.7,264c0,0.4-0.1,0.9-0.4,1.4  c-0.3,0.5-0.6,0.9-1.2,1.4c-0.5,0.4-1.2,0.8-2,1.1c-0.8,0.3-1.7,0.4-2.7,0.4c-2.1,0-3.8-0.6-4.9-1.9c-1.2-1.2-1.8-2.9-1.8-4.9  c0-1.4,0.3-2.6,0.8-3.7c0.5-1,1.3-1.9,2.4-2.5c1-0.6,2.3-0.9,3.7-0.9c0.9,0,1.7,0.1,2.4,0.4c0.7,0.3,1.4,0.6,1.9,1  c0.5,0.4,0.9,0.8,1.2,1.3c0.3,0.5,0.4,0.9,0.4,1.3c0,0.4-0.2,0.8-0.5,1c-0.3,0.3-0.7,0.4-1.1,0.4c-0.3,0-0.5-0.1-0.7-0.2  c-0.2-0.2-0.5-0.4-0.6-0.7c-0.4-0.6-0.9-1.1-1.3-1.4c-0.4-0.3-1-0.5-1.7-0.5c-1,0-1.8,0.4-2.4,1.2c-0.6,0.8-0.9,1.9-0.9,3.2  c0,0.6,0.1,1.2,0.2,1.8c0.2,0.5,0.4,1,0.7,1.4c0.3,0.4,0.7,0.7,1.1,0.9c0.4,0.2,0.9,0.3,1.4,0.3c0.7,0,1.3-0.2,1.8-0.5  c0.5-0.3,0.9-0.8,1.3-1.5c0.2-0.4,0.4-0.7,0.7-0.9c0.2-0.2,0.6-0.3,0.9-0.3c0.4,0,0.8,0.2,1,0.5C364.5,263.3,364.7,263.7,364.7,264  L364.7,264z M372.4,251.4v5.1c0.4-0.5,0.9-0.9,1.3-1.2c0.4-0.3,0.9-0.5,1.4-0.7c0.5-0.2,1.1-0.2,1.6-0.2c0.9,0,1.6,0.2,2.3,0.5  c0.7,0.4,1.2,0.9,1.6,1.6c0.2,0.4,0.4,0.9,0.5,1.4c0.1,0.5,0.1,1.1,0.1,1.7v6.5c0,0.7-0.2,1.2-0.5,1.5c-0.3,0.4-0.7,0.5-1.2,0.5  c-1.1,0-1.7-0.7-1.7-2.1v-5.8c0-1.1-0.2-1.9-0.5-2.5c-0.3-0.6-0.9-0.9-1.9-0.9c-0.6,0-1.2,0.2-1.7,0.5c-0.5,0.4-0.9,0.9-1.1,1.4  c-0.2,0.5-0.3,1.4-0.3,2.7v4.5c0,0.7-0.2,1.2-0.5,1.5c-0.3,0.4-0.7,0.5-1.3,0.5c-1.1,0-1.7-0.7-1.7-2.1v-14.8c0-0.7,0.2-1.2,0.4-1.6  c0.3-0.3,0.7-0.5,1.2-0.5c0.5,0,1,0.2,1.3,0.5C372.2,250.2,372.4,250.7,372.4,251.4L372.4,251.4z M402.4,260.8H399v5.2  c0,0.7-0.2,1.3-0.5,1.7c-0.3,0.4-0.8,0.6-1.3,0.6c-0.6,0-1-0.2-1.4-0.6c-0.3-0.4-0.5-0.9-0.5-1.7v-14.1c0-0.8,0.2-1.4,0.6-1.8  c0.4-0.3,1-0.5,1.8-0.5h4.8c1.4,0,2.5,0.1,3.3,0.3c0.7,0.2,1.4,0.5,2,1c0.5,0.5,1,1.1,1.2,1.8c0.3,0.7,0.4,1.5,0.4,2.4  c0,1.9-0.6,3.3-1.7,4.3C406.4,260.3,404.6,260.8,402.4,260.8L402.4,260.8z M401.5,252.4H399v5.6h2.5c0.9,0,1.6-0.1,2.2-0.3  c0.6-0.2,1-0.5,1.3-0.9c0.3-0.4,0.5-1,0.5-1.6c0-0.8-0.2-1.5-0.7-2C404.2,252.7,403.1,252.4,401.5,252.4z M417.5,263.3v2.9  c0,0.7-0.2,1.2-0.5,1.6c-0.3,0.3-0.8,0.5-1.2,0.5c-0.5,0-0.9-0.2-1.2-0.5c-0.3-0.3-0.5-0.9-0.5-1.5v-9.5c0-1.5,0.6-2.3,1.7-2.3  c0.6,0,1,0.2,1.2,0.5c0.3,0.4,0.4,0.9,0.4,1.6c0.4-0.7,0.8-1.2,1.3-1.6c0.4-0.4,1-0.5,1.7-0.5c0.7,0,1.4,0.2,2.1,0.5  c0.7,0.4,1,0.8,1,1.4c0,0.4-0.1,0.8-0.4,1c-0.3,0.3-0.6,0.4-0.9,0.4c-0.1,0-0.4-0.1-0.9-0.2c-0.5-0.2-0.9-0.2-1.3-0.2  c-0.5,0-0.9,0.1-1.2,0.4c-0.3,0.3-0.6,0.6-0.7,1.2c-0.2,0.5-0.3,1.1-0.4,1.8C417.6,261.6,417.5,262.5,417.5,263.3L417.5,263.3z   M439.2,261.3c0,1-0.2,2-0.5,2.8c-0.3,0.8-0.8,1.6-1.4,2.2c-0.6,0.6-1.3,1.1-2.2,1.4c-0.8,0.3-1.8,0.5-2.8,0.5s-2-0.2-2.8-0.5  c-0.8-0.3-1.5-0.8-2.1-1.4c-0.6-0.6-1.1-1.4-1.4-2.2c-0.3-0.9-0.5-1.9-0.5-2.8c0-1,0.2-2,0.5-2.8c0.3-0.8,0.8-1.6,1.4-2.2  c0.6-0.6,1.3-1.1,2.2-1.4c0.9-0.3,1.8-0.5,2.8-0.5c1,0,2,0.2,2.8,0.5c0.8,0.3,1.6,0.8,2.2,1.4c0.6,0.6,1.1,1.4,1.4,2.2  C439.1,259.3,439.2,260.3,439.2,261.3L439.2,261.3z M435.8,261.3c0-1.4-0.3-2.5-0.9-3.3c-0.6-0.8-1.4-1.2-2.5-1.2  c-0.7,0-1.3,0.2-1.8,0.5c-0.5,0.3-0.9,0.9-1.2,1.5c-0.3,0.7-0.4,1.5-0.4,2.4c0,0.9,0.1,1.7,0.4,2.3c0.3,0.7,0.7,1.2,1.2,1.5  c0.5,0.4,1.1,0.5,1.8,0.5c1,0,1.9-0.4,2.5-1.2C435.5,263.8,435.8,262.7,435.8,261.3L435.8,261.3z M456.5,256.9v9.9  c0,1.1-0.1,2.1-0.4,2.9c-0.2,0.8-0.6,1.5-1.2,2c-0.5,0.5-1.2,0.9-2.1,1.2c-0.9,0.3-1.9,0.4-3.2,0.4c-1.2,0-2.2-0.2-3.2-0.5  c-0.9-0.3-1.6-0.8-2.1-1.3c-0.5-0.5-0.8-1.1-0.8-1.6c0-0.4,0.1-0.8,0.4-1c0.3-0.3,0.6-0.4,1-0.4c0.5,0,0.9,0.2,1.3,0.7  c0.2,0.2,0.4,0.5,0.6,0.7c0.2,0.2,0.4,0.4,0.7,0.6c0.2,0.2,0.5,0.3,0.9,0.4c0.3,0.1,0.7,0.1,1.1,0.1c0.9,0,1.6-0.1,2.1-0.4  c0.5-0.3,0.8-0.6,1-1c0.2-0.4,0.3-0.9,0.3-1.4s0.1-1.3,0.1-2.4c-0.5,0.7-1.1,1.3-1.8,1.7c-0.7,0.4-1.5,0.6-2.5,0.6  c-1.1,0-2.1-0.3-3-0.9c-0.9-0.6-1.5-1.4-2-2.5c-0.5-1.1-0.7-2.3-0.7-3.6c0-1,0.1-2,0.4-2.8c0.3-0.8,0.7-1.5,1.2-2.1  c0.5-0.6,1.1-1,1.8-1.3c0.7-0.3,1.5-0.4,2.2-0.4c1,0,1.8,0.2,2.5,0.6c0.7,0.4,1.4,1,2,1.7v-0.5c0-0.6,0.1-1.1,0.4-1.4  c0.3-0.3,0.7-0.5,1.1-0.5c0.7,0,1.1,0.2,1.3,0.6C456.4,255.4,456.5,256.1,456.5,256.9L456.5,256.9z M446.6,261.2  c0,1.4,0.3,2.4,0.9,3.1c0.6,0.7,1.4,1.1,2.3,1.1c0.6,0,1.1-0.2,1.6-0.5c0.5-0.3,0.9-0.8,1.2-1.4c0.3-0.6,0.5-1.4,0.5-2.2  c0-1.4-0.3-2.5-0.9-3.3c-0.6-0.8-1.4-1.2-2.4-1.2c-1,0-1.8,0.4-2.3,1.1C446.9,258.8,446.6,259.8,446.6,261.2L446.6,261.2z   M465.1,263.3v2.9c0,0.7-0.2,1.2-0.5,1.6c-0.3,0.3-0.8,0.5-1.2,0.5c-0.5,0-0.9-0.2-1.2-0.5c-0.3-0.3-0.5-0.9-0.5-1.5v-9.5  c0-1.5,0.5-2.3,1.7-2.3c0.6,0,1,0.2,1.2,0.5c0.3,0.4,0.4,0.9,0.4,1.6c0.4-0.7,0.8-1.2,1.3-1.6c0.4-0.4,1-0.5,1.7-0.5  c0.7,0,1.4,0.2,2.1,0.5c0.7,0.4,1,0.8,1,1.4c0,0.4-0.1,0.8-0.4,1c-0.3,0.3-0.6,0.4-0.9,0.4c-0.1,0-0.4-0.1-0.9-0.2  c-0.4-0.1-0.8-0.2-1.3-0.2c-0.5,0-0.9,0.1-1.2,0.4c-0.3,0.3-0.6,0.6-0.7,1.2s-0.3,1.1-0.4,1.8C465.1,261.6,465.1,262.5,465.1,263.3  L465.1,263.3z M483,266.3c-0.8,0.6-1.6,1.1-2.4,1.4c-0.8,0.3-1.6,0.5-2.6,0.5c-0.9,0-1.6-0.2-2.3-0.5c-0.6-0.3-1.2-0.8-1.5-1.4  c-0.4-0.6-0.5-1.2-0.5-1.9c0-0.9,0.3-1.7,0.9-2.4c0.6-0.7,1.4-1.1,2.4-1.3c0.2-0.1,0.8-0.2,1.6-0.3c0.9-0.2,1.6-0.3,2.2-0.5  c0.6-0.1,1.3-0.3,2-0.5c0-0.9-0.2-1.6-0.5-2c-0.3-0.4-1-0.6-2-0.6c-0.9,0-1.5,0.1-2,0.4c-0.5,0.3-0.8,0.6-1.1,1.1  c-0.2,0.3-0.4,0.7-0.7,1c-0.1,0.2-0.4,0.2-0.8,0.2c-0.4,0-0.7-0.1-1-0.4c-0.3-0.2-0.4-0.6-0.4-0.9c0-0.6,0.2-1.2,0.6-1.8  c0.4-0.6,1.1-1,2-1.4c0.9-0.4,2-0.5,3.4-0.5c1.5,0,2.7,0.2,3.5,0.5c0.9,0.4,1.5,0.9,1.8,1.7c0.4,0.8,0.5,1.8,0.5,3.1  c0,0.8,0,1.5,0,2c0,0.6,0,1.2,0,1.9c0,0.6,0.1,1.3,0.3,2c0.2,0.7,0.3,1.1,0.3,1.3c0,0.4-0.2,0.7-0.5,1c-0.3,0.3-0.7,0.4-1.1,0.4  c-0.4,0-0.7-0.2-1-0.5C483.7,267.4,483.4,267,483,266.3L483,266.3z M482.7,261.4c-0.5,0.2-1.2,0.4-2.2,0.6c-1,0.2-1.6,0.4-2,0.4  c-0.4,0.1-0.7,0.3-1.1,0.6c-0.3,0.3-0.5,0.7-0.5,1.2c0,0.5,0.2,1,0.6,1.3c0.4,0.4,0.9,0.5,1.5,0.5c0.7,0,1.3-0.1,1.9-0.4  c0.6-0.3,1-0.7,1.3-1.1c0.3-0.5,0.5-1.4,0.5-2.6L482.7,261.4L482.7,261.4z M503,261.6v4.5c0,0.7-0.2,1.3-0.5,1.6  c-0.3,0.4-0.8,0.5-1.3,0.5c-0.5,0-0.9-0.2-1.3-0.5c-0.3-0.4-0.5-0.9-0.5-1.6v-5.4c0-0.9,0-1.5-0.1-2c-0.1-0.5-0.2-0.9-0.5-1.2  c-0.3-0.3-0.7-0.5-1.2-0.5c-1.1,0-1.9,0.4-2.2,1.1c-0.4,0.8-0.5,1.9-0.5,3.3v4.6c0,0.7-0.2,1.2-0.5,1.6c-0.3,0.4-0.7,0.5-1.3,0.5  c-0.5,0-0.9-0.2-1.3-0.5c-0.3-0.4-0.5-0.9-0.5-1.6v-9.8c0-0.6,0.1-1.1,0.4-1.5c0.3-0.3,0.7-0.5,1.2-0.5c0.5,0,0.9,0.2,1.2,0.5  c0.3,0.3,0.5,0.8,0.5,1.3v0.3c0.6-0.7,1.2-1.2,1.9-1.6c0.7-0.3,1.5-0.5,2.3-0.5c0.9,0,1.6,0.2,2.2,0.5c0.6,0.3,1.1,0.9,1.5,1.5  c0.6-0.7,1.2-1.2,1.8-1.6c0.7-0.3,1.4-0.5,2.2-0.5c0.9,0,1.7,0.2,2.4,0.5c0.7,0.4,1.2,0.9,1.5,1.6c0.3,0.6,0.4,1.6,0.4,2.9v6.7  c0,0.7-0.2,1.3-0.5,1.6c-0.3,0.4-0.8,0.5-1.3,0.5c-0.5,0-0.9-0.2-1.3-0.5c-0.3-0.4-0.5-0.9-0.5-1.6v-5.7c0-0.7,0-1.3-0.1-1.8  c-0.1-0.4-0.2-0.8-0.5-1.1c-0.3-0.3-0.7-0.4-1.3-0.4c-0.5,0-0.9,0.1-1.3,0.4c-0.4,0.3-0.7,0.6-0.9,1.1  C503.1,259.1,503,260.1,503,261.6L503,261.6z M527.7,261.6v4.5c0,0.7-0.2,1.3-0.5,1.6c-0.3,0.4-0.8,0.5-1.3,0.5  c-0.5,0-0.9-0.2-1.3-0.5c-0.3-0.4-0.5-0.9-0.5-1.6v-5.4c0-0.9,0-1.5-0.1-2c-0.1-0.5-0.2-0.9-0.5-1.2c-0.3-0.3-0.7-0.5-1.2-0.5  c-1.1,0-1.9,0.4-2.2,1.1c-0.4,0.8-0.5,1.9-0.5,3.3v4.6c0,0.7-0.2,1.2-0.5,1.6c-0.3,0.4-0.7,0.5-1.3,0.5c-0.5,0-0.9-0.2-1.3-0.5  c-0.3-0.4-0.5-0.9-0.5-1.6v-9.8c0-0.6,0.1-1.1,0.4-1.5c0.3-0.3,0.7-0.5,1.2-0.5c0.5,0,0.9,0.2,1.2,0.5c0.3,0.3,0.5,0.8,0.5,1.3v0.3  c0.6-0.7,1.2-1.2,1.9-1.6c0.7-0.3,1.5-0.5,2.3-0.5c0.9,0,1.6,0.2,2.2,0.5c0.6,0.3,1.1,0.9,1.5,1.5c0.6-0.7,1.2-1.2,1.8-1.6  c0.7-0.3,1.4-0.5,2.2-0.5c0.9,0,1.7,0.2,2.4,0.5c0.7,0.4,1.2,0.9,1.5,1.6c0.3,0.6,0.4,1.6,0.4,2.9v6.7c0,0.7-0.2,1.3-0.5,1.6  c-0.3,0.4-0.8,0.5-1.3,0.5c-0.5,0-0.9-0.2-1.3-0.5c-0.3-0.4-0.5-0.9-0.5-1.6v-5.7c0-0.7,0-1.3-0.1-1.8c0-0.4-0.2-0.8-0.5-1.1  c-0.3-0.3-0.7-0.4-1.3-0.4c-0.4,0-0.9,0.1-1.3,0.4c-0.4,0.3-0.7,0.6-1,1.1C527.8,259.1,527.7,260.1,527.7,261.6L527.7,261.6z   M550.6,262.1h-6.7c0,0.8,0.2,1.5,0.5,2.1c0.3,0.6,0.7,1,1.2,1.3c0.5,0.3,1.1,0.5,1.7,0.5c0.4,0,0.8-0.1,1.1-0.1  c0.3-0.1,0.7-0.2,1-0.4c0.3-0.2,0.6-0.4,0.9-0.7c0.3-0.2,0.6-0.5,1-1c0.2-0.2,0.4-0.2,0.8-0.2c0.3,0,0.6,0.1,0.8,0.3  c0.2,0.2,0.3,0.5,0.3,0.8c0,0.3-0.1,0.7-0.4,1.1c-0.2,0.4-0.6,0.8-1.1,1.2c-0.5,0.4-1.1,0.7-1.8,0.9c-0.7,0.3-1.6,0.4-2.5,0.4  c-2.2,0-3.9-0.6-5.1-1.9c-1.2-1.3-1.8-3-1.8-5.1c0-1,0.2-1.9,0.4-2.8c0.3-0.9,0.7-1.6,1.3-2.2c0.6-0.6,1.3-1.1,2.1-1.4  c0.8-0.3,1.8-0.5,2.8-0.5c1.3,0,2.5,0.3,3.4,0.8c1,0.6,1.7,1.3,2.1,2.2c0.5,0.8,0.7,1.8,0.7,2.7c0,0.9-0.3,1.4-0.7,1.7  C552.2,262,551.5,262.1,550.6,262.1L550.6,262.1z M543.9,260.2h6.2c-0.1-1.2-0.4-2-0.9-2.6c-0.5-0.6-1.3-0.9-2.2-0.9  c-0.9,0-1.5,0.3-2.1,0.9C544.4,258.2,544,259.1,543.9,260.2L543.9,260.2z" fill="#8AB1DF"  /><path d="M35.8,1l4.7,5.4C51,18.3,61.8,30.6,58.6,50.1c-2.4,14.6-20,22.6-27.4,25.4l-4.9,1.4c-2,0.5-5.2,1.3-6.3,2  c0.7,1.5,4.5,5.6,5.8,7l1,1.1c14.7,16.3,27.7,31.6,37.2,53.1c5.6,12.6,9,24,10.6,34.9l0,11c-2.9,20.5-12.5,39.8-29.3,59.1  c-8.5,9.7-16,17-25.9,25.2l-2.4,2.3c-3.4,3.4-8.1,8-15.1,4.7c-1.4-1-2-1.8-2.1-2.7c-0.1-1.1,0.5-1.8,1-2.5l0.5-0.7l0.2-0.2l0.3-0.2  c6.6-3.4,12-8.7,17.2-13.9l4.2-4.1c7.9-7.5,16.9-16.4,23.2-25.5c4.2-6.1,7.5-11.8,10.4-18.1c14.8-32.4-0.5-65.8-16-88.1l-1.9-2.7  c-4.4-6.4-9.4-13.6-15.7-20.9l-5-5c-9-8.7-15.2-15.1-12.9-18.9c1.6-2.7,6.6-3.3,11.8-4.1c2.6-0.4,5-0.7,6.6-1.2  c6.5-2.2,17.7-7.8,21.1-13c8.5-12.8-2.4-29.5-9.6-38.4c0,0-1.3-1.5-1.3-1.5c-4.2-5.1-7.6-9.5-6.8-12.5c0.2-0.7,0.7-1.7,2.1-2.2  c2.1-0.7,3.6-0.9,5.8,0l0.3,0.1C35.6,0.7,35.8,1,35.8,1z" fill="#0070BA"  /></svg>