<svg viewBox="0 0 454.5 283.5" role="img" aria-labelledby="carobb--title" xmlns="http://www.w3.org/2000/svg" xmlns:xlink="http://www.w3.org/1999/xlink"><title id="carobb--title">CAROBB - Congenital Anomaly Register for Oxfordshire, Berkshire and Buckinghamshire</title><path d="M17.6,245c-1.2,0.6-2.2,1-3.1,1.2c-0.9,0.2-1.9,0.3-3.1,0.3c-2.9,0-5.4-1-7.3-2.9c-1.9-1.9-2.9-4.3-2.9-7.2  c0-3.2,1-5.8,3.1-7.9c2.1-2.1,4.7-3.1,7.8-3.1c1,0,1.9,0.1,2.7,0.2c0.8,0.2,1.7,0.4,2.5,0.7v3.4c-0.8-0.6-1.7-1.1-2.6-1.4  c-1-0.3-2-0.5-3-0.5c-2,0-3.7,0.8-5.1,2.3c-1.4,1.5-2,3.5-2,5.8c0,2.3,0.6,4.2,1.9,5.8c1.3,1.5,2.9,2.3,4.8,2.3  c1.3,0,2.4-0.2,3.4-0.6c1-0.4,2-1,3.1-1.9C17.8,241.6,17.6,245,17.6,245z" fill="#398F3B"  /><g><path d="M20,244.5c-1.2-1.3-1.8-3-1.8-5c0-2.2,0.7-4.1,2-5.6c1.3-1.5,3-2.2,5-2.2c1.8,0,3.3,0.7,4.5,2   c1.2,1.3,1.8,3,1.8,5c0,2.2-0.7,4.1-2,5.6c-1.3,1.5-3,2.2-5,2.2C22.7,246.5,21.2,245.9,20,244.5z M27.9,242.8   c0.4-0.9,0.7-1.9,0.7-3c0-1.8-0.4-3.3-1.3-4.4c-0.9-1.1-2.1-1.7-3.5-1.7c-0.8,0.3-1.4,0.9-1.8,1.8c-0.4,0.9-0.7,1.9-0.7,3   c0,1.8,0.4,3.3,1.3,4.4c0.9,1.1,2.1,1.7,3.5,1.7C26.8,244.2,27.4,243.6,27.9,242.8z M33.3,242.1v-5.9c0-0.8,0-1.5-0.1-2.1   c-0.1-0.7-0.3-1.4-0.5-2.1h3.4v2.5l2.2-2.5c0.7-0.2,1.3-0.3,1.8-0.3c1.3,0,2.3,0.4,2.9,1.2c0.7,0.8,1,2,1,3.5v5.6   c0,1.2,0,2.1,0.1,2.7c0.1,0.6,0.2,1.1,0.4,1.5h-3.9c0.2-0.4,0.4-1,0.5-1.6c0.1-0.6,0.1-1.5,0.1-2.6v-5.2c0-0.8-0.2-1.4-0.6-1.8   c-0.4-0.4-1-0.6-1.8-0.6c-0.5,0-1.2,0.2-2.1,0.6l-0.6,0.3v6.8c0,1.1,0,2,0.1,2.6c0.1,0.6,0.3,1.1,0.5,1.6h-4c0.2-0.4,0.4-1,0.5-1.6   C33.3,244.1,33.3,243.2,33.3,242.1z M49.2,242.4c0,0.2,0.1,0.5,0.4,0.6c0.3,0.2,0.7,0.3,1.1,0.3h3.1c1.2,0,2.1,0.2,2.7,0.8   c0.6,0.5,0.8,1.3,0.8,2.4c0,1.2-0.6,2.3-1.8,3.1c-1.2,0.8-2.6,1.3-4.4,1.3c-1.7,0-3-0.2-3.9-0.5c-0.9-0.3-1.3-0.9-1.3-1.5   c0-0.3,0.2-0.7,0.5-1.2c0.3-0.4,1-1.1,2.1-2.1c-0.7-0.1-1.3-0.2-1.7-0.4c-0.6-0.3-0.9-0.6-0.9-1.1c0-0.4,0.2-0.7,0.5-1   c0.3-0.3,1.1-0.9,2.5-1.8c-0.5-0.2-1-0.5-1.4-0.9c-0.9-0.9-1.4-2-1.4-3.3c0-1.5,0.5-2.7,1.4-3.7c0.9-1,2.1-1.5,3.6-1.5   c1.1,0,2.1,0.3,2.9,0.8h1.5c0.6,0,1.1,0,1.7-0.1c0.5-0.1,0.9-0.1,1.2-0.2l-0.3,2.2l-2.3,0c0.3,0.6,0.4,1.4,0.4,2.2   c0,1.4-0.5,2.5-1.4,3.5c-1,0.9-2.1,1.4-3.6,1.4c-0.4,0-0.7,0-1.1-0.1c-0.2,0.1-0.4,0.3-0.6,0.4C49.3,242.1,49.3,242.2,49.2,242.4   L49.2,242.4z M51,233.7c-0.7,0-1.2,0.2-1.6,0.7c-0.4,0.5-0.6,1.1-0.6,1.9c0,0.9,0.2,1.7,0.7,2.3c0.5,0.6,1.1,1,1.8,1h0   c0.7,0,1.2-0.2,1.6-0.7c0.4-0.5,0.6-1.1,0.6-1.9c0-0.9-0.2-1.7-0.7-2.3C52.3,234,51.7,233.7,51,233.7C51,233.7,51,233.7,51,233.7z    M48.9,247c0,0.5,0.2,0.9,0.6,1.1c0.4,0.2,1.1,0.4,2,0.4c1,0,1.7-0.1,2.2-0.4c0.5-0.3,0.7-0.7,0.7-1.2c0-0.4-0.2-0.8-0.5-1   c-0.3-0.3-0.8-0.4-1.4-0.4h-2.8c-0.3,0.2-0.5,0.4-0.6,0.7C49,246.5,48.9,246.8,48.9,247L48.9,247z M64.7,246.5c-2,0-3.6-0.7-4.8-2   c-1.3-1.3-1.9-3-1.9-5c0-2.2,0.5-4.1,1.7-5.6c1.1-1.5,2.5-2.2,4.1-2.2h0c1.6,0,2.9,0.6,3.7,1.7c0.9,1.1,1.3,2.7,1.3,4.8v1.3H61   c0.1,1.3,0.5,2.4,1.1,3.2c0.8,1.1,1.8,1.6,3.2,1.6c0.6,0,1.2-0.1,1.8-0.2c0.6-0.1,1.1-0.4,1.6-0.7l-1.1,2.7c-0.5,0.1-1,0.2-1.5,0.3   C65.6,246.5,65.2,246.5,64.7,246.5L64.7,246.5z M66.5,237.5c0-1.2-0.2-2.2-0.7-2.8c-0.4-0.7-1.1-1-2-1h0c-0.9,0-1.7,0.4-2.2,1.2   c-0.4,0.6-0.7,1.5-0.7,2.6H66.5z M70.9,242.1v-5.9c0-0.8,0-1.5-0.1-2.1c-0.1-0.7-0.3-1.4-0.5-2.1h3.4v2.5l2.2-2.5   c0.7-0.2,1.3-0.3,1.8-0.3c1.3,0,2.3,0.4,2.9,1.2c0.7,0.8,1,2,1,3.5v5.6c0,1.2,0,2.1,0.1,2.7c0.1,0.6,0.2,1.1,0.4,1.5h-3.9   c0.2-0.4,0.4-1,0.5-1.6c0.1-0.6,0.1-1.5,0.1-2.6v-5.2c0-0.8-0.2-1.4-0.6-1.8c-0.4-0.4-1-0.6-1.8-0.6c-0.5,0-1.2,0.2-2.1,0.6   l-0.6,0.3v6.8c0,1.1,0,2,0.1,2.6c0.1,0.6,0.3,1.1,0.5,1.6h-4c0.2-0.4,0.4-1,0.5-1.6C70.8,244,70.9,243.2,70.9,242.1z M84.3,242.1   v-5.9c0-0.8,0-1.5-0.1-2.1c-0.1-0.7-0.3-1.4-0.5-2.1h4c-0.2,0.5-0.4,1-0.5,1.6c-0.1,0.6-0.1,1.5-0.1,2.6v5.9c0,1.1,0,2,0.1,2.6   c0.1,0.6,0.3,1.1,0.5,1.6h-4c0.2-0.4,0.4-1,0.5-1.6C84.3,244,84.3,243.2,84.3,242.1z M85.7,226.1c0.5,0,1,0.2,1.4,0.6   c0.4,0.4,0.6,0.9,0.6,1.6c0,0.6-0.2,1.1-0.6,1.6c-0.4,0.4-0.8,0.6-1.4,0.6c-0.5,0-1-0.2-1.4-0.6c-0.4-0.4-0.6-0.9-0.6-1.6   c0-0.6,0.2-1.1,0.6-1.6C84.7,226.3,85.2,226.1,85.7,226.1z M93.5,246.5c-1.1,0-1.9-0.3-2.4-1c-0.5-0.7-0.8-1.7-0.8-3.2V234h-2v0   l4.8-5.1h0v3.1h3.3v2h-3.3v7.2c0,1,0.2,1.7,0.5,2.2c0.3,0.5,0.8,0.7,1.5,0.7c0.4,0,0.8-0.1,1.1-0.1c0.3-0.1,0.7-0.3,1.2-0.5   l-1.1,2.7c-0.5,0.2-0.9,0.3-1.3,0.3C94.5,246.5,94,246.5,93.5,246.5L93.5,246.5z" fill="#398F3B"  /><path d="M101.3,246.5c-1.4,0-2.5-0.3-3.2-0.9c-0.7-0.6-1.1-1.4-1.1-2.5c0-0.7,0.3-1.4,0.8-2.1   c0.5-0.7,1.2-1.2,2.1-1.5l4.2-1.7v-1.3c0-0.8-0.2-1.4-0.7-1.9c-0.5-0.5-1.1-0.7-1.9-0.7c-0.5,0-1,0.1-1.5,0.3   c-0.5,0.2-1,0.5-1.6,0.9l0.8-2.7c0.6-0.2,1.1-0.4,1.6-0.5c0.5-0.1,1.1-0.2,1.6-0.2c1.5,0,2.7,0.4,3.5,1.2c0.8,0.8,1.2,2,1.2,3.6   v5.6c0,1.2,0,2.1,0.1,2.7c0.1,0.6,0.2,1.1,0.4,1.5h-3.3v-1.4l-2.2,1.6C101.9,246.5,101.3,246.5,101.3,246.5z M104.1,244.1v-3.9   h-3.7c-0.1,0-0.2,0.3-0.3,0.8c-0.1,0.5-0.2,1-0.2,1.3c0,0.7,0.2,1.2,0.7,1.5c0.4,0.3,1.1,0.5,2,0.5   C103.1,244.3,103.6,244.2,104.1,244.1L104.1,244.1L104.1,244.1z M109.6,242.1v-11.2c0-0.9,0-1.7-0.1-2.3c-0.1-0.6-0.3-1.3-0.5-1.9   l2-0.4l2-0.4c-0.2,0.6-0.4,1.4-0.5,2.2s-0.1,1.9-0.1,3.2v10.8c0,1.1,0,2,0.1,2.6c0.1,0.6,0.3,1.1,0.5,1.6h-4c0.2-0.4,0.4-1,0.5-1.6   C109.5,244,109.6,243.2,109.6,242.1L109.6,242.1z M124.4,240.3l7-14.9h0l7,14.9c0.8,1.7,1.5,3,2,3.9c0.5,0.9,1,1.6,1.5,2.1h-5.1   c0.1-0.4,0.1-1-0.2-1.9c-0.2-1-0.6-1.9-1-2.8l-0.7-1.6h-7.6l-0.1,0.3c-0.5,1.2-0.9,2.3-1.2,3.6c-0.3,1.2-0.4,2-0.2,2.5h-5.1   c0.6-0.6,1.1-1.3,1.6-2.1C123,243.2,123.7,241.9,124.4,240.3L124.4,240.3z M128.6,237.3h5.3l-2.7-6.2h0L128.6,237.3z M143.2,242.1   v-5.9c0-0.8,0-1.5-0.1-2.1c-0.1-0.7-0.3-1.4-0.5-2.1h3.4v2.5l2.2-2.5c0.7-0.2,1.3-0.3,1.8-0.3c1.3,0,2.3,0.4,2.9,1.2   c0.7,0.8,1,2,1,3.5v5.6c0,1.2,0,2.1,0.1,2.7c0.1,0.6,0.2,1.1,0.4,1.5h-3.9c0.2-0.4,0.4-1,0.5-1.6c0.1-0.6,0.1-1.5,0.1-2.6v-5.2   c0-0.8-0.2-1.4-0.6-1.8c-0.4-0.4-1-0.6-1.8-0.6c-0.5,0-1.2,0.2-2.1,0.6l-0.6,0.3v6.8c0,1.1,0,2,0.1,2.6c0.1,0.6,0.3,1.1,0.5,1.6   h-4.1c0.2-0.4,0.4-1,0.5-1.6C143.1,244.1,143.2,243.2,143.2,242.1z M157.4,244.5c-1.2-1.3-1.8-3-1.8-5c0-2.2,0.7-4.1,2-5.6   c1.3-1.5,3-2.2,5-2.2c1.8,0,3.3,0.7,4.5,2c1.2,1.3,1.8,3,1.8,5c0,2.2-0.7,4.1-2,5.6c-1.3,1.5-3,2.2-5,2.2   C160.1,246.5,158.6,245.9,157.4,244.5z M165.2,242.8c0.4-0.9,0.7-1.9,0.7-3c0-1.8-0.4-3.3-1.3-4.4c-0.9-1.1-2.1-1.7-3.5-1.7   c-0.8,0.3-1.4,0.9-1.8,1.8c-0.4,0.9-0.7,1.9-0.7,3c0,1.8,0.4,3.3,1.3,4.4c0.9,1.1,2,1.7,3.5,1.7   C164.2,244.2,164.8,243.6,165.2,242.8z M170.5,242.1v-5.9c0-0.8,0-1.5-0.1-2.1c-0.1-0.7-0.3-1.4-0.5-2.1h3.4v2.7l1.8-2.2l0.6-0.4   c0.6-0.3,1.3-0.5,2.1-0.5c1.1,0,2,0.4,2.6,1.1c0.4,0.5,0.7,1.2,0.8,2.1l2.1-2.3l0.6-0.3c0.6-0.3,1.3-0.5,2-0.5c1.1,0,1.9,0.3,2.5,1   c0.6,0.7,0.9,1.7,0.9,3v6.3c0,1.2,0,2.1,0.1,2.7c0.1,0.6,0.2,1.1,0.4,1.4h-3.9c0.2-0.4,0.4-1,0.5-1.6c0.1-0.6,0.1-1.5,0.1-2.6v-5.4   c0-0.8-0.2-1.3-0.5-1.7c-0.4-0.4-0.9-0.6-1.6-0.6c-0.7,0-1.4,0.2-2.3,0.7l-0.7,0.4v6.6c0,1.1,0,2,0.1,2.6c0.1,0.6,0.3,1.1,0.5,1.6   h-4.1c0.2-0.4,0.4-1,0.5-1.6c0.1-0.6,0.1-1.5,0.1-2.6v-5.4c0-0.8-0.2-1.4-0.5-1.7c-0.4-0.4-0.9-0.6-1.6-0.6c-0.6,0-1.4,0.2-2.3,0.7   l-0.6,0.3v6.7c0,1.1,0,2,0.1,2.6c0.1,0.6,0.3,1.1,0.5,1.6h-4c0.2-0.4,0.4-1,0.5-1.6C170.4,244.1,170.5,243.2,170.5,242.1   L170.5,242.1z M195.3,246.5c-1.4,0-2.5-0.3-3.2-0.9c-0.8-0.6-1.1-1.4-1.1-2.5c0-0.7,0.3-1.4,0.8-2.1c0.5-0.7,1.2-1.2,2.1-1.5   l4.2-1.7v-1.3c0-0.8-0.2-1.4-0.7-1.9c-0.5-0.5-1.1-0.7-1.9-0.7c-0.5,0-1,0.1-1.5,0.3c-0.5,0.2-1,0.5-1.6,0.9l0.8-2.7   c0.6-0.2,1.1-0.4,1.6-0.5c0.5-0.1,1.1-0.2,1.6-0.2c1.5,0,2.7,0.4,3.5,1.2c0.8,0.8,1.2,2,1.2,3.6v5.6c0,1.2,0,2.1,0.1,2.7   c0.1,0.6,0.2,1.1,0.4,1.5h-3.3v-1.4l-2.2,1.6L195.3,246.5z M198.1,244.1v-3.9h-3.7c-0.1,0-0.2,0.3-0.3,0.8   c-0.1,0.4-0.2,0.9-0.2,1.3c0,0.7,0.2,1.2,0.7,1.5c0.4,0.3,1.1,0.5,2,0.5C197.1,244.3,197.6,244.2,198.1,244.1L198.1,244.1   L198.1,244.1z M203.6,242.1v-11.2c0-0.9,0-1.7-0.1-2.3c-0.1-0.6-0.2-1.3-0.5-1.9l2-0.4l2-0.4c-0.2,0.7-0.4,1.4-0.5,2.2   c-0.1,0.8-0.1,1.9-0.1,3.2v10.8c0,1.1,0,2,0.1,2.6c0.1,0.6,0.3,1.1,0.5,1.6H203c0.2-0.5,0.4-1,0.5-1.6   C203.6,244,203.6,243.2,203.6,242.1L203.6,242.1z M218.9,236.2l-2.3,6.3c-0.9,2.4-1.7,4.2-2.4,5.4c-0.7,1.2-1.5,2.2-2.4,2.8H208   c0.9-0.7,1.8-1.6,2.5-2.5c0.7-0.9,1.4-2.1,2.1-3.5l0.4-0.7v0l-3.4-7.8c-0.4-0.9-0.8-1.7-1.1-2.3c-0.4-0.6-0.8-1.2-1.4-1.9h3.9   c0,0.3,0.2,0.7,0.3,1.1c0.2,0.4,0.4,1.1,0.7,1.9l2.5,6.1l2.1-6.1c0.2-0.6,0.3-1.1,0.4-1.6c0.1-0.5,0.1-0.9,0-1.4h4.1   c-0.4,0.5-0.8,1.1-1.1,1.7C219.6,234.4,219.3,235.2,218.9,236.2L218.9,236.2z M230.2,240.3v-8.6c0-1.3-0.1-2.4-0.2-3.2   c-0.1-0.9-0.3-1.8-0.6-2.7h3.8c2.6,0,4.6,0.5,6,1.6c1.4,1.1,2.1,2.5,2.1,4.5c0,1.7-0.8,3.1-2.3,4.2c-0.5,0.3-1.1,0.6-1.6,0.9   l1.5,2.2c0.7,1.1,1.5,2.1,2.3,3.1c0.9,1,2,2.4,3.5,4h-3.6c-1.1-0.9-2.3-2.2-3.7-3.8c-1.4-1.7-2.6-3.3-3.6-4.8l-0.5-0.8v3.5   c0,1.3,0.1,2.4,0.2,3.2c0.1,0.9,0.3,1.8,0.6,2.7h-4.5c0.3-0.9,0.4-1.8,0.5-2.7C230.2,242.7,230.2,241.6,230.2,240.3L230.2,240.3z    M233.4,236c1.4-0.1,2.4-0.5,3.3-1.2c1-0.8,1.5-1.9,1.5-3.2c0-1.2-0.5-2.2-1.4-2.9c-0.9-0.7-2-1-3.4-1.1L233.4,236L233.4,236z    M251.1,246.5c-2,0-3.6-0.7-4.8-2c-1.2-1.3-1.9-3-1.9-5c0-2.2,0.5-4.1,1.7-5.6c1.1-1.5,2.5-2.2,4.1-2.2h0c1.6,0,2.9,0.6,3.7,1.7   c0.9,1.1,1.3,2.7,1.3,4.8v1.3h-7.9c0.1,1.3,0.5,2.4,1.1,3.2c0.8,1.1,1.8,1.6,3.2,1.6c0.6,0,1.2-0.1,1.8-0.2   c0.6-0.1,1.1-0.4,1.6-0.7l-1.1,2.7c-0.5,0.1-1,0.2-1.5,0.3C252,246.5,251.6,246.5,251.1,246.5L251.1,246.5z M252.9,237.5   c0-1.2-0.2-2.2-0.7-2.8c-0.5-0.7-1.1-1-2-1h0c-0.9,0-1.7,0.4-2.2,1.2c-0.4,0.6-0.7,1.5-0.8,2.6H252.9z M259.7,242.4   c0,0.2,0.1,0.5,0.4,0.6c0.3,0.2,0.7,0.3,1.1,0.3h3.1c1.2,0,2.1,0.2,2.7,0.8c0.6,0.5,0.9,1.3,0.9,2.4c0,1.2-0.6,2.3-1.8,3.1   c-1.2,0.8-2.6,1.3-4.3,1.3c-1.7,0-3-0.2-3.9-0.5c-0.9-0.3-1.3-0.9-1.3-1.5c0-0.3,0.2-0.7,0.5-1.2c0.3-0.4,1-1.1,2.1-2.1   c-0.7-0.1-1.3-0.2-1.7-0.4c-0.6-0.3-0.9-0.6-0.9-1.1c0-0.4,0.2-0.7,0.5-1c0.3-0.3,1.1-0.9,2.5-1.8c-0.5-0.2-1-0.5-1.4-0.9   c-1-0.9-1.4-2-1.4-3.3c0-1.5,0.5-2.7,1.4-3.7c0.9-1,2.1-1.5,3.6-1.5c1.1,0,2.1,0.3,2.9,0.8h1.5c0.6,0,1.1,0,1.7-0.1   c0.5-0.1,0.9-0.1,1.2-0.2l-0.3,2.2l-2.3,0c0.3,0.6,0.4,1.4,0.4,2.2c0,1.4-0.5,2.5-1.4,3.5c-1,0.9-2.2,1.4-3.6,1.4   c-0.4,0-0.7,0-1.1-0.1c-0.2,0.1-0.4,0.3-0.6,0.4C259.8,242.1,259.7,242.2,259.7,242.4L259.7,242.4z M261.5,233.7   c-0.7,0-1.2,0.2-1.6,0.7c-0.4,0.5-0.6,1.1-0.6,1.9c0,0.9,0.2,1.7,0.7,2.3c0.5,0.6,1.1,1,1.8,1h0c0.7,0,1.2-0.2,1.6-0.7   c0.4-0.5,0.6-1.1,0.6-1.9c0-0.9-0.2-1.7-0.7-2.3C262.8,234,262.2,233.7,261.5,233.7L261.5,233.7z M259.4,247c0,0.5,0.2,0.9,0.6,1.1   c0.4,0.2,1.1,0.4,2,0.4c1,0,1.7-0.1,2.2-0.4c0.5-0.3,0.7-0.7,0.7-1.2c0-0.4-0.2-0.8-0.5-1c-0.3-0.3-0.8-0.4-1.4-0.4h-2.8   c-0.2,0.2-0.4,0.4-0.6,0.7C259.5,246.5,259.4,246.8,259.4,247L259.4,247z" fill="#398F3B"  /><path d="M269.3,242.1v-5.9c0-0.8,0-1.5-0.1-2.1c-0.1-0.7-0.3-1.4-0.5-2.1h4.1c-0.2,0.5-0.4,1-0.5,1.6   c-0.1,0.6-0.1,1.5-0.1,2.6v5.9c0,1.1,0.1,2,0.1,2.6c0.1,0.6,0.3,1.1,0.5,1.6h-4.1c0.2-0.4,0.4-1,0.5-1.6   C269.3,244,269.3,243.2,269.3,242.1L269.3,242.1z M270.7,226.1c0.5,0,1,0.2,1.4,0.6c0.4,0.4,0.6,0.9,0.6,1.6c0,0.6-0.2,1.1-0.6,1.6   c-0.4,0.4-0.8,0.6-1.4,0.6s-1-0.2-1.4-0.6c-0.4-0.4-0.6-0.9-0.6-1.6c0-0.6,0.2-1.1,0.6-1.6C269.6,226.3,270.1,226.1,270.7,226.1z    M281.5,235.1c-0.4-0.5-0.8-0.8-1.2-1c-0.4-0.2-0.9-0.3-1.4-0.3c-0.6,0-1,0.2-1.4,0.4c-0.4,0.3-0.6,0.7-0.6,1.1   c0,0.4,0.1,0.8,0.4,1.2c0.2,0.3,0.7,0.8,1.4,1.3c1.2,0.9,2,1.7,2.4,2.4c0.5,0.7,0.7,1.4,0.7,2.2c0,1.2-0.4,2.2-1.3,3   c-0.8,0.8-1.9,1.2-3.2,1.2c-0.7,0-1.3,0-1.8-0.1c-0.6-0.1-1.2-0.3-1.8-0.5v-3.4c0.5,0.7,1.1,1.2,1.6,1.5c0.5,0.3,1.1,0.5,1.7,0.5   c0.6,0,1-0.2,1.4-0.5c0.4-0.3,0.5-0.7,0.5-1.2c0-0.4-0.2-0.8-0.4-1.2c-0.3-0.4-0.9-0.9-1.7-1.5c-1-0.8-1.8-1.5-2.2-2.2   c-0.4-0.6-0.6-1.4-0.6-2.2c0-1.2,0.5-2.1,1.4-2.9c0.9-0.8,2.1-1.2,3.5-1.2c0.5,0,1,0,1.3,0.1c0.4,0.1,0.8,0.2,1.3,0.5L281.5,235.1   L281.5,235.1z M287,246.5c-1.1,0-1.9-0.3-2.4-1c-0.5-0.7-0.8-1.7-0.8-3.2V234h-2v0l4.8-5.1h0v3.1h3.3v2h-3.3v7.2   c0,1,0.2,1.7,0.5,2.2c0.3,0.5,0.8,0.7,1.5,0.7c0.4,0,0.8-0.1,1.1-0.1c0.3-0.1,0.7-0.3,1.2-0.5l-1.1,2.7c-0.5,0.2-0.9,0.3-1.3,0.3   C288.2,246.5,287.7,246.5,287,246.5L287,246.5z" fill="#398F3B"  /><path d="M297.4,246.5c-2,0-3.6-0.7-4.8-2c-1.2-1.3-1.9-3-1.9-5c0-2.2,0.5-4.1,1.7-5.6c1.1-1.5,2.5-2.2,4.1-2.2h0   c1.6,0,2.9,0.6,3.7,1.7c0.9,1.1,1.3,2.7,1.3,4.8v1.3h-7.9c0.1,1.3,0.5,2.4,1.1,3.2c0.8,1.1,1.8,1.6,3.2,1.6c0.6,0,1.2-0.1,1.8-0.2   c0.6-0.1,1.1-0.4,1.6-0.7l-1.1,2.7c-0.5,0.1-1,0.2-1.5,0.3C298.3,246.5,297.8,246.5,297.4,246.5L297.4,246.5z M299.2,237.5   c0-1.2-0.2-2.2-0.7-2.8c-0.5-0.7-1.1-1-2-1h0c-0.9,0-1.7,0.4-2.2,1.2c-0.4,0.6-0.7,1.5-0.7,2.6H299.2L299.2,237.5z M303.7,242.1   v-5.9c0-0.8,0-1.5-0.1-2.1c-0.1-0.7-0.3-1.4-0.5-2.1h3.4v2.5l2.2-2.5c0.7-0.2,1.3-0.4,1.9-0.4c0.5,0,0.9,0.1,1.3,0.3l-0.6,3.1   l-0.1-0.1c-0.5-0.4-1.2-0.6-1.9-0.6c-0.5,0-1.2,0.2-2.1,0.6l-0.6,0.3v6.8c0,1.1,0,2,0.1,2.6c0.1,0.6,0.3,1.1,0.5,1.6h-4.1   c0.2-0.4,0.4-1,0.5-1.6C303.6,244,303.7,243.2,303.7,242.1L303.7,242.1z M323.9,234v8.1c0,1.1,0.1,2,0.1,2.6   c0.1,0.6,0.3,1.1,0.5,1.6h-4.1c0.2-0.4,0.4-1,0.5-1.6c0.1-0.6,0.1-1.5,0.1-2.6V234h-1.5v0l1-1.9h0.5v-1.1c0-1.6,0.4-2.9,1.3-3.8   c0.8-0.9,2-1.4,3.6-1.4c0.5,0,1,0,1.4,0.1c0.4,0.1,0.8,0.2,1.3,0.3l-0.7,2.8c-0.4-0.4-0.7-0.7-1-0.9c-0.3-0.2-0.7-0.3-1-0.3   c-0.6,0-1.1,0.2-1.4,0.6c-0.3,0.4-0.5,1-0.5,1.8v1.8h2.8v2L323.9,234L323.9,234z M328.5,244.5c-1.2-1.3-1.8-3-1.8-5   c0-2.2,0.7-4.1,2-5.6c1.3-1.5,3-2.2,5-2.2c1.8,0,3.3,0.7,4.5,2c1.2,1.3,1.8,3,1.8,5c0,2.2-0.7,4.1-2,5.6c-1.3,1.5-3,2.2-5,2.2   C331.2,246.5,329.7,245.9,328.5,244.5z M336.4,242.8c0.4-0.9,0.7-1.9,0.7-3c0-1.8-0.4-3.3-1.3-4.4c-0.9-1.1-2.1-1.7-3.5-1.7   c-0.8,0.3-1.4,0.9-1.8,1.8c-0.4,0.9-0.7,1.9-0.7,3c0,1.8,0.4,3.3,1.3,4.4c0.9,1.1,2.1,1.7,3.5,1.7   C335.3,244.2,335.9,243.6,336.4,242.8L336.4,242.8z M341.9,242.1v-5.9c0-0.8,0-1.5-0.1-2.1c-0.1-0.7-0.3-1.4-0.5-2.1h3.4v2.5   l2.2-2.5c0.6-0.2,1.3-0.4,1.9-0.4c0.5,0,0.9,0.1,1.3,0.3l-0.6,3.1l-0.1-0.1c-0.5-0.4-1.2-0.6-1.9-0.6c-0.5,0-1.2,0.2-2.1,0.6   l-0.6,0.3v6.8c0,1.1,0,2,0.1,2.6c0.1,0.6,0.3,1.1,0.5,1.6h-4.1c0.2-0.4,0.4-1,0.5-1.6C341.9,244,341.9,243.2,341.9,242.1   L341.9,242.1z" fill="#398F3B"  />
	
	
	
	
</g><path d="M4.1,275.6c-1.9-2-2.9-4.6-2.9-7.7c0-3,1-5.5,3.1-7.4c2-2,4.6-3,7.7-3c2.9,0,5.3,1,7.2,3.1s2.9,4.6,2.9,7.7  c0,3-1,5.4-3.1,7.4c-2,2-4.6,3-7.7,3C8.4,278.6,6,277.6,4.1,275.6L4.1,275.6z M16.7,274.1c1.3-1.4,1.9-3.2,1.9-5.3  c0-2.5-0.7-4.6-2.1-6.3c-1.4-1.7-3.2-2.5-5.3-2.5c-1.9,0-3.5,0.7-4.8,2.1c-1.3,1.4-1.9,3.2-1.9,5.3c0,2.5,0.7,4.6,2.1,6.2  c1.4,1.7,3.1,2.5,5.3,2.5C13.8,276.2,15.4,275.5,16.7,274.1L16.7,274.1z" fill="#398F3B"  /><g><path d="M25.5,274.2l2-3l-1.8-2.9c-0.5-0.9-1.1-1.7-1.7-2.5c-0.5-0.6-1-1.2-1.6-1.7h4.4c0,0.4,0.2,0.9,0.3,1.3   c0.2,0.4,0.5,1,0.9,1.7l1,1.6l1-1.6c0.4-0.7,0.8-1.2,1-1.7c0.2-0.4,0.3-0.9,0.4-1.3h3.9c-0.6,0.5-1.1,1-1.5,1.6   c-0.5,0.6-1.1,1.5-1.8,2.5l-1.6,2.6l2.1,3.3c0.8,1.2,1.4,2.1,1.8,2.7c0.5,0.6,0.9,1.1,1.3,1.4h-4.2c0-0.4-0.2-0.9-0.3-1.3   c-0.2-0.4-0.5-1-0.9-1.7l-1.3-2l-1.3,2c-0.4,0.7-0.7,1.2-0.9,1.7c-0.2,0.4-0.3,0.9-0.3,1.3h-4c0.3-0.3,0.8-0.7,1.2-1.4   C23.9,276.4,24.6,275.4,25.5,274.2z M40,266.1v8.1c0,1.1,0,2,0.1,2.6c0.1,0.6,0.3,1.1,0.5,1.6h-4c0.2-0.4,0.4-1,0.5-1.6   c0.1-0.6,0.1-1.5,0.1-2.6v-8.1h-1.5v0l1-1.9h0.5V263c0-1.6,0.4-2.9,1.3-3.8c0.8-0.9,2-1.4,3.6-1.4c0.5,0,1,0,1.4,0.1   c0.4,0.1,0.8,0.2,1.3,0.3l-0.7,2.8c-0.4-0.4-0.7-0.7-1-0.9c-0.3-0.2-0.7-0.3-1-0.3c-0.6,0-1.1,0.2-1.4,0.6c-0.3,0.4-0.5,1-0.5,1.8   v1.8h2.8v2L40,266.1L40,266.1L40,266.1z M44.6,276.7c-1.2-1.3-1.8-3-1.8-5c0-2.2,0.7-4.1,2-5.6c1.3-1.5,3-2.2,5-2.2   c1.8,0,3.3,0.7,4.5,2c1.2,1.3,1.8,3,1.8,5c0,2.2-0.7,4.1-2,5.6c-1.3,1.5-3,2.2-5,2.2C47.3,278.6,45.8,278,44.6,276.7L44.6,276.7z    M52.4,274.9c0.4-0.9,0.7-1.9,0.7-3c0-1.8-0.4-3.3-1.3-4.4c-0.9-1.1-2.1-1.7-3.5-1.7c-0.8,0.3-1.4,0.9-1.8,1.8   c-0.4,0.9-0.7,1.9-0.7,3c0,1.8,0.4,3.3,1.3,4.3c0.9,1.1,2,1.7,3.5,1.7C51.4,276.3,52,275.8,52.4,274.9z M58,274.2v-5.9   c0-0.8,0-1.5-0.1-2.1c-0.1-0.7-0.3-1.4-0.5-2.1h3.4v2.5l2.2-2.5c0.6-0.2,1.3-0.4,1.9-0.4c0.5,0,0.9,0.1,1.3,0.3l-0.6,3.1l-0.1-0.1   c-0.5-0.4-1.2-0.6-1.9-0.6c-0.5,0-1.2,0.2-2.1,0.6l-0.6,0.3v6.8c0,1.1,0,2,0.1,2.6c0.1,0.6,0.3,1.1,0.5,1.6h-4   c0.2-0.4,0.4-1,0.5-1.6C57.9,276.2,58,275.3,58,274.2L58,274.2z M72,278.6c-1.8,0-3.1-0.5-4.2-1.6c-1-1.1-1.5-2.6-1.5-4.4   c0-2.5,0.7-4.6,2.1-6.2c1.4-1.7,3.2-2.5,5.3-2.5c0.6,0,1.1,0.1,1.6,0.2v-1.1c0-0.9,0-1.7-0.1-2.3c-0.1-0.6-0.2-1.3-0.5-1.9l2-0.4   l2-0.4c-0.2,0.6-0.4,1.3-0.4,2.1c-0.1,0.8-0.1,1.9-0.1,3.3v10.8c0,1.1,0,2,0.1,2.6c0.1,0.6,0.3,1.1,0.5,1.6h-3.4v-1.9l-1.7,1.9   C73,278.5,72.5,278.7,72,278.6L72,278.6z M72.8,265.8c-1.3,0-2.2,0.4-2.7,1.3s-0.8,2.3-0.8,4.2c0,1.5,0.3,2.8,1,3.7   c0.7,0.9,1.6,1.4,2.7,1.4c0.6,0,1.1-0.1,1.6-0.3l0.8-0.4v-9C74.7,266.1,73.8,265.8,72.8,265.8z M87.5,267.2c-0.4-0.5-0.8-0.8-1.2-1   c-0.4-0.2-0.9-0.3-1.4-0.3c-0.6,0-1,0.1-1.4,0.4c-0.4,0.3-0.6,0.7-0.6,1.1c0,0.4,0.1,0.8,0.4,1.2c0.2,0.3,0.7,0.8,1.4,1.3   c1.2,0.9,2,1.7,2.4,2.4c0.5,0.7,0.7,1.4,0.7,2.2c0,1.2-0.4,2.2-1.3,3c-0.9,0.8-1.9,1.2-3.2,1.2c-0.7,0-1.3,0-1.8-0.1   c-0.6-0.1-1.2-0.3-1.8-0.5v-3.4c0.5,0.7,1.1,1.2,1.6,1.5c0.6,0.3,1.1,0.5,1.7,0.5c0.6,0,1-0.2,1.4-0.5c0.4-0.3,0.6-0.7,0.6-1.2   c0-0.4-0.1-0.8-0.4-1.2c-0.3-0.4-0.8-0.9-1.7-1.5c-1-0.8-1.8-1.5-2.2-2.2c-0.4-0.6-0.6-1.4-0.6-2.2c0-1.2,0.5-2.1,1.4-2.9   c0.9-0.8,2.1-1.2,3.5-1.2c0.5,0,1,0,1.3,0.1c0.4,0.1,0.8,0.2,1.3,0.5L87.5,267.2L87.5,267.2L87.5,267.2z M89.4,274.2v-11.2   c0-0.9,0-1.7-0.1-2.3c-0.1-0.6-0.2-1.3-0.5-1.9l2-0.4l2-0.4c-0.2,0.7-0.4,1.4-0.5,2.2c-0.1,0.8-0.1,1.9-0.1,3.2v3.2l2.2-2.5   c0.7-0.2,1.3-0.3,1.8-0.3c1.3,0,2.3,0.4,2.9,1.2c0.7,0.8,1,2,1,3.5v5.6c0,1.2,0,2.1,0.1,2.7c0.1,0.6,0.2,1.1,0.4,1.5h-3.9   c0.2-0.4,0.4-1,0.5-1.6c0.1-0.6,0.1-1.5,0.1-2.6v-5.2c0-0.8-0.2-1.4-0.6-1.8c-0.4-0.4-1-0.6-1.8-0.6c-0.5,0-1.2,0.2-2.1,0.6   l-0.6,0.3v6.8c0,1.1,0,2,0.1,2.6c0.1,0.6,0.3,1.1,0.5,1.6h-4.1c0.2-0.4,0.4-1,0.5-1.6C89.4,276.2,89.4,275.3,89.4,274.2L89.4,274.2   z M103,274.2v-5.9c0-0.8,0-1.5-0.1-2.1c-0.1-0.7-0.3-1.4-0.5-2.1h4c-0.2,0.5-0.4,1-0.5,1.6c-0.1,0.6-0.1,1.5-0.1,2.6v5.9   c0,1.1,0,2,0.1,2.6c0.1,0.6,0.3,1.1,0.5,1.6h-4.1c0.2-0.4,0.4-1,0.5-1.6S103,275.3,103,274.2z M104.4,258.2c0.5,0,1,0.2,1.4,0.6   c0.4,0.4,0.6,1,0.6,1.6c0,0.6-0.2,1.1-0.6,1.6c-0.4,0.4-0.8,0.6-1.4,0.6c-0.5,0-1-0.2-1.4-0.6c-0.4-0.4-0.6-0.9-0.6-1.6   c0-0.6,0.2-1.1,0.6-1.6C103.4,258.4,103.8,258.2,104.4,258.2z M108.7,274.2v-5.9c0-0.8,0-1.5-0.1-2.1c-0.1-0.7-0.3-1.4-0.5-2.1h3.4   v2.5l2.2-2.5c0.7-0.2,1.3-0.4,1.9-0.4c0.5,0,0.9,0.1,1.3,0.3l-0.6,3.1l-0.1-0.1c-0.5-0.4-1.2-0.6-1.9-0.6c-0.5,0-1.2,0.2-2.1,0.6   l-0.6,0.3v6.8c0,1.1,0,2,0.1,2.6c0.1,0.6,0.3,1.1,0.5,1.6h-4.1c0.2-0.4,0.4-1,0.5-1.6C108.7,276.2,108.7,275.3,108.7,274.2   L108.7,274.2z M123.5,278.6c-2,0-3.6-0.7-4.8-2c-1.3-1.3-1.9-3-1.9-5c0-2.2,0.5-4.1,1.7-5.6c1.1-1.5,2.5-2.2,4.1-2.2h0   c1.6,0,2.9,0.6,3.7,1.7c0.9,1.1,1.3,2.7,1.3,4.8v1.3h-7.9c0.1,1.3,0.5,2.4,1.1,3.2c0.8,1.1,1.8,1.6,3.2,1.6c0.6,0,1.2-0.1,1.8-0.2   c0.6-0.2,1.1-0.4,1.6-0.7l-1.1,2.7c-0.5,0.1-1,0.2-1.5,0.3C124.4,278.6,123.9,278.7,123.5,278.6L123.5,278.6z M125.3,269.6   c0-1.2-0.2-2.2-0.7-2.8c-0.4-0.6-1.1-1-2-1h0c-0.9,0-1.7,0.4-2.2,1.2c-0.4,0.6-0.7,1.5-0.8,2.6H125.3z" fill="#398F3B"  />
	
</g><path d="M128.2,283.5c0.8-1.4,1.5-3.1,1.9-5c0.3-1.4,0.4-2.8,0.1-4.1h4c-0.1,1.4-0.5,2.8-1.1,4.1  c-0.8,1.8-1.9,3.5-3.1,5L128.2,283.5L128.2,283.5z" fill="#398F3B"  /><g><path d="M145.5,272.4v-8.6c0-1.3-0.1-2.4-0.2-3.2c-0.1-0.9-0.3-1.8-0.6-2.7h4.4c2.1,0,3.8,0.5,5,1.5   c1.2,1,1.9,2.3,1.9,3.9c0,1.5-0.7,2.7-2.2,3.7c-0.3,0.2-0.6,0.4-0.9,0.5c0.7,0.2,1.3,0.5,1.8,0.9c1.5,1.1,2.3,2.5,2.3,4.3   c0,1.8-0.7,3.2-2.2,4.2c-1.5,1-3.6,1.5-6.3,1.5h-3.7c0.3-0.9,0.4-1.8,0.5-2.7C145.5,274.8,145.5,273.7,145.5,272.4L145.5,272.4z    M148.6,266.7h0.1c1.3,0,2.2-0.3,3-1c0.7-0.7,1.1-1.5,1.1-2.7c0-1-0.4-1.8-1.1-2.4c-0.7-0.6-1.7-0.9-2.9-0.9h-0.2V266.7   L148.6,266.7z M148.6,276.3L148.6,276.3c1.6,0,2.8-0.3,3.8-1c0.9-0.7,1.4-1.6,1.4-2.8c0-1.3-0.5-2.3-1.4-3.1   c-0.9-0.7-2.2-1.1-3.7-1.1L148.6,276.3C148.6,276.3,148.6,276.3,148.6,276.3z M165.1,278.6c-2,0-3.6-0.7-4.8-2   c-1.3-1.3-1.9-3-1.9-5c0-2.2,0.5-4.1,1.7-5.6c1.1-1.5,2.5-2.2,4.1-2.2h0c1.6,0,2.9,0.6,3.7,1.7c0.9,1.1,1.3,2.7,1.3,4.8v1.3h-7.9   c0.1,1.3,0.5,2.4,1.1,3.2c0.8,1.1,1.8,1.6,3.2,1.6c0.6,0,1.2-0.1,1.8-0.2c0.6-0.2,1.1-0.4,1.6-0.7l-1.1,2.7c-0.5,0.1-1,0.2-1.5,0.3   C166,278.6,165.6,278.7,165.1,278.6L165.1,278.6z M167,269.6c0-1.2-0.2-2.2-0.7-2.8c-0.4-0.6-1.1-1-2-1h0c-0.9,0-1.7,0.4-2.2,1.2   c-0.4,0.6-0.7,1.5-0.7,2.6C161.4,269.6,167,269.6,167,269.6z M171.4,274.2v-5.9c0-0.8,0-1.5-0.1-2.1c-0.1-0.7-0.3-1.4-0.5-2.1h3.4   v2.5l2.2-2.5c0.6-0.2,1.2-0.3,1.9-0.4c0.5,0,0.9,0.1,1.3,0.3l-0.6,3.1l-0.1-0.1c-0.5-0.4-1.2-0.6-1.9-0.6c-0.5,0-1.2,0.2-2.1,0.6   l-0.6,0.3v6.8c0,1.1,0,2,0.1,2.6c0.1,0.6,0.3,1.1,0.5,1.6h-4.1c0.2-0.4,0.4-1,0.5-1.6C171.4,276.2,171.4,275.3,171.4,274.2   L171.4,274.2z M183.2,274.2c0,1.1,0,2,0.1,2.6c0.1,0.6,0.3,1.1,0.5,1.6h-4.1c0.2-0.4,0.4-1,0.5-1.6c0.1-0.6,0.1-1.5,0.1-2.6v-11.2   c0-0.9,0-1.7-0.1-2.3c-0.1-0.6-0.2-1.3-0.5-1.9l2-0.4l2-0.4c-0.2,0.7-0.4,1.4-0.5,2.2c-0.1,0.8-0.1,1.9-0.1,3.2v7.4h0l2.4-3.7   c0.5-0.7,0.8-1.3,1-1.7c0.2-0.4,0.3-0.9,0.2-1.3h4.6c-0.8,0.7-1.5,1.3-2,1.9c-0.6,0.7-1.2,1.4-1.7,2.2l-1.5,2.3l2.3,3.6   c0.7,1.1,1.3,2,1.8,2.6c0.5,0.6,0.9,1.1,1.4,1.5h-4.2c0-0.2,0-0.5-0.2-0.8c-0.2-0.4-0.4-0.9-0.7-1.3l-3.4-5.4h0L183.2,274.2   L183.2,274.2z" fill="#398F3B"  /><path d="M199,267.2c-0.4-0.5-0.8-0.8-1.2-1c-0.4-0.2-0.9-0.3-1.4-0.3c-0.6,0-1,0.1-1.4,0.4   c-0.4,0.3-0.6,0.7-0.6,1.1c0,0.4,0.1,0.8,0.4,1.2c0.2,0.3,0.7,0.8,1.4,1.3c1.2,0.9,2,1.7,2.4,2.4c0.5,0.7,0.7,1.4,0.7,2.2   c0,1.2-0.4,2.2-1.3,3c-0.9,0.8-1.9,1.2-3.2,1.2c-0.7,0-1.3,0-1.8-0.1c-0.6-0.1-1.2-0.3-1.8-0.5v-3.4c0.5,0.7,1.1,1.2,1.6,1.5   c0.5,0.3,1.1,0.5,1.7,0.5c0.6,0,1-0.2,1.4-0.5c0.4-0.3,0.6-0.8,0.5-1.2c0-0.4-0.2-0.8-0.4-1.2c-0.3-0.4-0.8-0.9-1.7-1.5   c-1-0.8-1.8-1.5-2.2-2.2c-0.4-0.6-0.6-1.4-0.6-2.2c0-1.2,0.5-2.1,1.4-2.9c0.9-0.8,2.1-1.2,3.5-1.2c0.5,0,1,0,1.3,0.1   c0.4,0.1,0.8,0.2,1.3,0.5L199,267.2L199,267.2z M200.9,274.2v-11.2c0-0.9,0-1.7-0.1-2.3c-0.1-0.6-0.2-1.3-0.5-1.9l2-0.4l2-0.4   c-0.2,0.7-0.4,1.4-0.5,2.2c-0.1,0.8-0.1,1.9-0.1,3.2v3.2l2.2-2.5c0.7-0.2,1.3-0.3,1.8-0.3c1.3,0,2.3,0.4,2.9,1.2c0.7,0.8,1,2,1,3.5   v5.6c0,1.2,0,2.1,0.1,2.7c0.1,0.6,0.2,1.1,0.4,1.5h-3.9c0.2-0.4,0.4-1,0.5-1.6c0.1-0.6,0.1-1.5,0.1-2.6v-5.2c0-0.8-0.2-1.4-0.6-1.8   c-0.4-0.4-1-0.6-1.8-0.6c-0.5,0-1.2,0.2-2.1,0.6l-0.6,0.3v6.8c0,1.1,0,2,0.1,2.6c0.1,0.6,0.3,1.1,0.5,1.6h-4.1   c0.2-0.4,0.4-1,0.5-1.6C200.9,276.2,200.9,275.3,200.9,274.2L200.9,274.2z M214.5,274.2v-5.9c0-0.8,0-1.5-0.1-2.1   c-0.1-0.7-0.3-1.4-0.5-2.1h4.1c-0.2,0.4-0.4,1-0.5,1.6c-0.1,0.6-0.1,1.5-0.1,2.6v5.9c0,1.1,0,2,0.1,2.6c0.1,0.6,0.3,1.1,0.5,1.6   h-4.1c0.2-0.4,0.4-1,0.5-1.6C214.4,276.2,214.5,275.3,214.5,274.2z M215.8,258.2c0.5,0,1,0.2,1.4,0.6c0.4,0.4,0.6,1,0.6,1.6   c0,0.6-0.2,1.1-0.6,1.6c-0.4,0.4-0.8,0.6-1.4,0.6s-1-0.2-1.4-0.6c-0.4-0.4-0.6-0.9-0.6-1.6c0-0.6,0.2-1.1,0.6-1.6   C214.8,258.4,215.3,258.2,215.8,258.2z M220.2,274.2v-5.9c0-0.8,0-1.5-0.1-2.1c-0.1-0.7-0.3-1.4-0.5-2.1h3.4v2.5l2.2-2.5   c0.7-0.2,1.3-0.4,1.9-0.4c0.5,0,0.9,0.1,1.3,0.3l-0.6,3.1l-0.1-0.1c-0.5-0.4-1.2-0.6-1.9-0.6c-0.5,0-1.2,0.2-2.1,0.6l-0.6,0.3v6.8   c0,1.1,0,2,0.1,2.6c0.1,0.6,0.3,1.1,0.5,1.6h-4.1c0.2-0.4,0.4-1,0.5-1.6C220.2,276.2,220.2,275.3,220.2,274.2L220.2,274.2z    M235,278.6c-2,0-3.6-0.7-4.8-2c-1.3-1.3-1.9-3-1.9-5c0-2.2,0.6-4.1,1.7-5.6c1.1-1.5,2.5-2.2,4.1-2.2h0c1.6,0,2.9,0.6,3.7,1.7   c0.9,1.1,1.3,2.7,1.3,4.8v1.3h-7.9c0.1,1.3,0.5,2.4,1.1,3.2c0.8,1.1,1.8,1.6,3.2,1.6c0.6,0,1.2-0.1,1.8-0.2   c0.6-0.2,1.1-0.4,1.6-0.7l-1.1,2.7c-0.5,0.1-1,0.2-1.5,0.3C235.9,278.6,235.4,278.7,235,278.6L235,278.6z M236.8,269.6   c0-1.2-0.2-2.2-0.7-2.8c-0.4-0.6-1.1-1-2-1h0c-0.9,0-1.7,0.4-2.2,1.2c-0.4,0.6-0.6,1.5-0.7,2.6H236.8L236.8,269.6z M249.5,265.4   c0-1.2,0.4-2.2,1.3-3c0.8-0.8,1.9-1.2,3.2-1.2c1.3,0,2.3,0.4,3.2,1.1c0.8,0.7,1.3,1.6,1.3,2.8c0,0.9-0.3,1.7-0.8,2.4   c-0.3,0.4-0.6,0.7-1,0.9l0.8,0.4c0.9,0.5,1.7,0.9,2.3,1.4l1.9,1.4c0.3-0.9,0.6-2.1,0.8-3.6c0.2-1.4,0.3-2.8,0.3-4.3   c-0.5,0-1,0.1-1.5,0.2c-0.6,0.1-1.1,0.2-1.4,0.4v-2.7h9v2.7c-0.4-0.1-0.8-0.3-1.4-0.4c-0.5-0.1-1.1-0.1-1.6-0.2h-0.5   c0.1,1.3,0,2.6-0.3,4.1c-0.3,2-0.8,3.7-1.4,5.2l1.6,1.3c0.7,0.5,1.5,1.1,2.3,1.5c0.9,0.5,1.6,0.8,2.2,0.9l-2.7,1.6   c-0.5-0.1-1-0.3-1.7-0.6c-0.6-0.3-1.1-0.6-1.6-1l-1.6-1.3c-0.7,0.7-1.4,1.3-2.3,1.8c-1.6,0.9-3.2,1.4-4.9,1.4c-2,0-3.7-0.5-5-1.5   c-1.3-1-2-2.3-2-3.8c0-1.3,0.4-2.4,1.3-3.3c0.6-0.6,1.2-1,1.9-1.4l-0.4-0.4C249.9,267.4,249.5,266.5,249.5,265.4L249.5,265.4z    M255.2,276.2c1.1,0,2.2-0.3,3.4-1c0.6-0.3,1.1-0.7,1.6-1.2l-2.2-1.6c-0.6-0.4-1.2-0.8-1.9-1.1c-0.8-0.4-1.6-0.8-2.4-1.2   c-0.5,0.3-1.1,0.6-1.5,1c-0.8,0.7-1.1,1.5-1.1,2.4c0,0.8,0.4,1.5,1.2,2C253,275.9,254,276.2,255.2,276.2z M252.1,265.3   c0,0.5,0.2,1,0.5,1.3c0.4,0.3,0.8,0.5,1.3,0.5c0.6,0,1.1-0.2,1.4-0.5c0.3-0.3,0.5-0.8,0.5-1.5c0-0.5-0.2-0.8-0.5-1.2   c-0.4-0.3-0.8-0.5-1.4-0.5c-0.5,0-1,0.2-1.3,0.5C252.3,264.4,252.1,264.8,252.1,265.3L252.1,265.3z M279.4,272.4v-8.6   c0-1.3-0.1-2.4-0.2-3.2c-0.1-0.9-0.3-1.8-0.6-2.7h4.4c2.1,0,3.8,0.5,5,1.5c1.2,1,1.9,2.3,1.9,3.9c0,1.5-0.7,2.7-2.2,3.7   c-0.3,0.2-0.6,0.4-0.9,0.5c0.7,0.2,1.3,0.5,1.8,0.9c1.5,1.1,2.3,2.5,2.3,4.3c0,1.8-0.7,3.2-2.2,4.2c-1.5,1-3.6,1.5-6.3,1.5h-3.7   c0.3-0.9,0.4-1.8,0.5-2.7C279.4,274.8,279.4,273.7,279.4,272.4L279.4,272.4z M282.6,266.7h0.1c1.3,0,2.3-0.3,3-1   c0.7-0.7,1.1-1.5,1.1-2.7c0-1-0.4-1.8-1.1-2.4c-0.7-0.6-1.7-0.9-2.9-0.9h-0.2L282.6,266.7L282.6,266.7L282.6,266.7z M282.6,276.3   L282.6,276.3c1.6,0,2.9-0.3,3.8-1c0.9-0.7,1.4-1.6,1.4-2.8c0-1.3-0.5-2.3-1.4-3.1c-0.9-0.7-2.2-1.1-3.7-1.1L282.6,276.3   L282.6,276.3z M295.8,268.3v5.3c0,0.8,0.2,1.4,0.6,1.8c0.4,0.4,1,0.6,1.7,0.6c0.6,0,1.4-0.2,2.2-0.5l0.5-0.2v-7   c0-0.8,0-1.5-0.1-2.1c-0.1-0.6-0.2-1.3-0.5-2.1h4.1c-0.2,0.5-0.4,1-0.5,1.6c-0.1,0.6-0.1,1.5-0.1,2.6v5.9c0,1.1,0,2,0.1,2.6   c0.1,0.6,0.3,1.1,0.5,1.6H301v-2.4l-2.2,2.4c-0.8,0.2-1.4,0.3-1.8,0.3c-1.3,0-2.3-0.3-2.9-1c-0.7-0.7-1-1.7-1-3v-6.4   c0-0.8,0-1.5-0.1-2.1c-0.1-0.7-0.3-1.4-0.5-2.1h4.1c-0.2,0.5-0.4,1-0.5,1.6C295.9,266.3,295.8,267.2,295.8,268.3L295.8,268.3z    M315.3,278.2c-0.5,0.1-1,0.2-1.6,0.3c-0.5,0.1-0.9,0.1-1.4,0.1c-1.9,0-3.5-0.7-4.7-2c-1.3-1.3-1.9-3-1.9-5c0-2.2,0.7-4.1,2.1-5.6   c1.4-1.5,3.1-2.2,5.2-2.2c0.6,0,1,0,1.5,0.1c0.4,0,1,0.1,1.7,0.3l-0.1,3.3c-0.5-0.6-1-1-1.6-1.2c-0.5-0.3-1.1-0.4-1.7-0.4   c-1.2,0-2.2,0.5-3,1.4c-0.7,0.9-1.1,2.2-1.1,3.8c0,1.6,0.4,3,1.2,3.9c0.8,1,1.8,1.5,3.1,1.5c0.5,0,0.9-0.1,1.4-0.2   c0.5-0.1,1.1-0.4,2-0.7L315.3,278.2L315.3,278.2z M321,274.2c0,1.1,0,2,0.1,2.6c0.1,0.6,0.3,1.1,0.5,1.6h-4.1   c0.2-0.4,0.4-1,0.5-1.6c0.1-0.6,0.1-1.5,0.1-2.6v-11.2c0-0.9,0-1.7-0.1-2.3c-0.1-0.6-0.2-1.3-0.5-1.9l2-0.4l2-0.4   c-0.2,0.7-0.4,1.4-0.5,2.2c-0.1,1.1-0.1,2.2-0.1,3.2v7.4h0l2.4-3.7c0.5-0.7,0.8-1.3,1-1.7c0.2-0.4,0.3-0.9,0.2-1.3h4.6   c-0.8,0.7-1.5,1.3-2,1.9c-0.6,0.7-1.2,1.4-1.7,2.2l-1.5,2.3l2.3,3.6c0.6,0.9,1.2,1.8,1.8,2.6c0.5,0.6,0.9,1.1,1.4,1.5h-4.1   c0-0.2,0-0.5-0.2-0.8s-0.4-0.7-0.7-1.3l-3.4-5.4h0L321,274.2L321,274.2z M330.3,274.2v-5.9c0-0.8,0-1.5-0.1-2.1   c-0.1-0.7-0.3-1.4-0.5-2.1h4.1c-0.2,0.5-0.4,1-0.5,1.6c-0.1,0.6-0.1,1.5-0.1,2.6v5.9c0,1.1,0,2,0.1,2.6c0.1,0.6,0.3,1.1,0.5,1.6   h-4.1c0.2-0.4,0.4-1,0.5-1.6C330.2,276.2,330.3,275.3,330.3,274.2z M331.6,258.2c0.5,0,1,0.2,1.4,0.6c0.4,0.4,0.6,1,0.6,1.6   c0,0.6-0.2,1.1-0.6,1.6c-0.4,0.4-0.8,0.6-1.4,0.6c-0.5,0-1-0.2-1.4-0.6c-0.4-0.4-0.5-0.9-0.5-1.6c0-0.6,0.2-1.1,0.5-1.6   C330.6,258.4,331.1,258.2,331.6,258.2z M335.9,274.2v-5.9c0-0.8,0-1.5-0.1-2.1c-0.1-0.6-0.2-1.3-0.5-2.1h3.4v2.5l2.2-2.5   c0.7-0.2,1.3-0.3,1.8-0.3c1.3,0,2.3,0.4,2.9,1.2c0.7,0.8,1,2,1,3.5v5.6c0,1.2,0,2.1,0.1,2.7c0.1,0.6,0.2,1.1,0.4,1.5h-3.9   c0.2-0.4,0.4-1,0.5-1.6c0.1-0.6,0.1-1.5,0.1-2.6v-5.2c0-0.8-0.2-1.4-0.6-1.8c-0.4-0.4-1-0.6-1.8-0.6c-0.5,0-1.2,0.2-2.1,0.6   l-0.7,0.3v6.8c0,1.1,0.1,2,0.1,2.6c0.1,0.6,0.3,1.1,0.5,1.6h-4.1c0.2-0.4,0.4-1,0.5-1.6C335.9,276.2,335.9,275.3,335.9,274.2   L335.9,274.2z" fill="#398F3B"  />
	
	
</g><path d="M351.8,274.5c0,0.2,0.2,0.5,0.4,0.6c0.3,0.2,0.7,0.3,1.1,0.3h3.1c1.2,0,2.1,0.2,2.7,0.8  c0.6,0.5,0.9,1.3,0.9,2.4c0,1.2-0.6,2.3-1.8,3.1c-1.2,0.8-2.6,1.3-4.3,1.3c-1.7,0-3-0.2-3.9-0.5c-0.9-0.3-1.3-0.9-1.3-1.5  c0-0.3,0.2-0.7,0.5-1.2c0.3-0.4,1-1.1,2.1-2.1c-0.7-0.1-1.3-0.2-1.7-0.4c-0.6-0.3-0.9-0.6-0.9-1.1c0-0.4,0.2-0.7,0.5-1  c0.3-0.3,1.1-0.9,2.5-1.8c-0.5-0.2-1-0.5-1.4-0.9c-0.9-0.9-1.4-2-1.4-3.3c0-1.5,0.5-2.7,1.4-3.7c0.9-1,2.1-1.5,3.6-1.5  c1.1,0,2.1,0.3,2.9,0.8h1.5c0.6,0,1.1,0,1.7-0.1c0.5-0.1,0.9-0.1,1.2-0.2l-0.3,2.2l-2.3,0c0.3,0.6,0.4,1.4,0.4,2.2  c0,1.4-0.5,2.5-1.4,3.5c-1,0.9-2.2,1.4-3.6,1.4c-0.4,0-0.7,0-1.1-0.1c-0.2,0.1-0.4,0.3-0.6,0.4C351.9,274.2,351.8,274.3,351.8,274.5  L351.8,274.5z M353.6,265.8c-0.7,0-1.2,0.2-1.6,0.7c-0.4,0.5-0.6,1.1-0.6,1.9c0,0.9,0.2,1.7,0.7,2.3c0.5,0.6,1.1,1,1.8,1h0  c0.7,0,1.2-0.2,1.6-0.7c0.4-0.5,0.6-1.1,0.6-1.9c0-0.9-0.2-1.7-0.7-2.3C354.9,266.1,354.3,265.8,353.6,265.8L353.6,265.8  L353.6,265.8z M351.5,279.1c0,0.5,0.2,0.9,0.6,1.1c0.4,0.2,1.1,0.4,2,0.4c1,0,1.7-0.1,2.2-0.4c0.5-0.3,0.7-0.6,0.7-1.2  c0-0.4-0.2-0.8-0.5-1c-0.3-0.3-0.8-0.4-1.4-0.4h-2.8c-0.2,0.2-0.5,0.4-0.6,0.7C351.6,278.6,351.5,278.9,351.5,279.1L351.5,279.1z" fill="#398F3B"  /><g><path d="M361.3,274.2v-11.2c0-0.9,0-1.7-0.1-2.3c-0.1-0.6-0.2-1.3-0.5-1.9l2-0.4l2-0.4c-0.2,0.7-0.4,1.4-0.5,2.2   c-0.1,1.1-0.1,2.2-0.1,3.2v3.2l2.2-2.5c0.7-0.2,1.3-0.3,1.8-0.3c1.3,0,2.3,0.4,2.9,1.2c0.7,0.8,1,2,1,3.5v5.6c0,1.2,0,2.1,0.1,2.7   c0.1,0.6,0.2,1.1,0.4,1.5h-3.9c0.2-0.4,0.4-1,0.5-1.6c0.1-0.6,0.1-1.5,0.1-2.6v-5.2c0-0.8-0.2-1.4-0.6-1.8c-0.4-0.4-1-0.6-1.8-0.6   c-0.5,0-1.2,0.2-2.1,0.6l-0.6,0.3v6.8c0,1.1,0,2,0.1,2.6c0.1,0.6,0.2,1.1,0.5,1.6h-4.1c0.2-0.4,0.4-1,0.5-1.6   C361.3,276.2,361.3,275.3,361.3,274.2L361.3,274.2z M378.2,278.6c-1.4,0-2.5-0.3-3.2-0.9c-0.8-0.6-1.1-1.4-1.1-2.5   c0-0.7,0.3-1.4,0.8-2.1c0.5-0.6,1.2-1.2,2.1-1.5l4.2-1.7v-1.3c0-0.8-0.2-1.4-0.7-1.9c-0.5-0.5-1.1-0.7-1.9-0.7   c-0.5,0-1,0.1-1.5,0.3c-0.5,0.2-1,0.5-1.6,0.9l0.8-2.7c1-0.4,2.1-0.7,3.2-0.7c1.5,0,2.7,0.4,3.5,1.2c0.8,0.8,1.2,2,1.2,3.6v5.6   c0,1.2,0,2.1,0.1,2.7c0.1,0.6,0.2,1.1,0.4,1.5H381V277l-2.2,1.6L378.2,278.6L378.2,278.6z M381,276.2v-3.9h-3.7   c-0.1,0-0.2,0.3-0.3,0.8c-0.1,0.4-0.2,0.9-0.2,1.3c0,0.7,0.2,1.2,0.7,1.5c0.4,0.3,1.1,0.5,2,0.5C379.9,276.4,380.4,276.3,381,276.2   L381,276.2L381,276.2z M386.2,274.2v-5.9c0-0.8,0-1.5-0.1-2.1c-0.1-0.6-0.2-1.3-0.5-2.1h3.4v2.7l1.8-2.2l0.6-0.4   c0.6-0.3,1.3-0.5,2.1-0.5c1.1,0,2,0.4,2.6,1.1c0.4,0.5,0.7,1.2,0.8,2.1l2.1-2.3l0.6-0.3c0.6-0.3,1.3-0.5,2-0.5c1.1,0,1.9,0.3,2.5,1   c0.6,0.7,0.9,1.7,0.9,3v6.3c0,1.2,0,2.1,0.1,2.7c0.1,0.6,0.2,1.1,0.4,1.4h-3.9c0.2-0.4,0.4-1,0.5-1.6c0.1-0.6,0.1-1.5,0.1-2.6v-5.4   c0-0.8-0.2-1.3-0.5-1.7c-0.4-0.4-0.9-0.6-1.6-0.6c-0.7,0-1.4,0.2-2.3,0.7l-0.7,0.4v6.6c0,1.1,0,2,0.1,2.6c0.1,0.6,0.3,1.1,0.5,1.6   h-4.1c0.2-0.4,0.4-1,0.5-1.6c0.1-0.6,0.1-1.5,0.1-2.6v-5.4c0-0.8-0.2-1.4-0.5-1.7c-0.4-0.4-0.9-0.6-1.6-0.6c-0.6,0-1.4,0.2-2.3,0.7   l-0.6,0.3v6.6c0,1.1,0.1,2,0.1,2.6c0.1,0.6,0.3,1.1,0.5,1.6h-4.1c0.2-0.4,0.4-1,0.5-1.6S386.2,275.3,386.2,274.2L386.2,274.2z    M414.3,267.2c-0.4-0.5-0.8-0.8-1.2-1c-0.4-0.2-0.9-0.3-1.4-0.3c-0.6,0-1,0.1-1.4,0.4c-0.4,0.3-0.6,0.7-0.6,1.1   c0,0.4,0.1,0.8,0.4,1.2c0.2,0.3,0.7,0.8,1.4,1.3c1.2,0.9,2,1.7,2.4,2.4c0.5,0.7,0.7,1.4,0.7,2.2c0,1.2-0.4,2.2-1.3,3   c-0.8,0.8-1.9,1.2-3.2,1.2c-0.7,0-1.3,0-1.8-0.1c-0.6-0.1-1.2-0.3-1.9-0.5v-3.4c0.5,0.7,1.1,1.2,1.6,1.5c0.5,0.3,1.1,0.5,1.7,0.5   c0.6,0,1-0.2,1.4-0.5c0.4-0.3,0.6-0.8,0.5-1.2c0-0.4-0.1-0.8-0.4-1.2c-0.3-0.4-0.8-0.9-1.7-1.5c-1-0.8-1.8-1.5-2.2-2.2   c-0.4-0.6-0.6-1.4-0.6-2.2c0-1.2,0.5-2.1,1.4-2.9c0.9-0.8,2.1-1.2,3.5-1.2c0.5,0,1,0,1.3,0.1c0.4,0.1,0.8,0.2,1.3,0.5L414.3,267.2   L414.3,267.2z M416.3,274.2v-11.2c0-0.9,0-1.7-0.1-2.3c-0.1-0.6-0.3-1.3-0.5-1.9l2-0.4l2-0.4c-0.2,0.7-0.4,1.4-0.5,2.2   c-0.1,0.8-0.1,1.9-0.1,3.2v3.2l2.2-2.5c0.7-0.2,1.3-0.3,1.8-0.3c1.3,0,2.3,0.4,2.9,1.2c0.7,0.8,1,2,1,3.5v5.6c0,1.2,0,2.1,0.1,2.7   c0.1,0.6,0.2,1.1,0.4,1.5h-3.9c0.2-0.4,0.4-1,0.5-1.6c0.1-0.6,0.1-1.5,0.1-2.6v-5.2c0-0.8-0.2-1.4-0.6-1.8c-0.4-0.4-1-0.6-1.8-0.6   c-0.5,0-1.2,0.2-2.1,0.6l-0.6,0.3v6.8c0,1.1,0,2,0.1,2.6c0.1,0.6,0.2,1.1,0.5,1.6h-4.1c0.2-0.4,0.4-1,0.5-1.6   C416.3,276.2,416.3,275.3,416.3,274.2L416.3,274.2z M429.9,274.2v-5.9c0-0.8,0-1.5-0.1-2.1c-0.1-0.7-0.3-1.4-0.5-2.1h4.1   c-0.2,0.4-0.4,1-0.5,1.6c-0.1,0.6-0.1,1.5-0.1,2.6v5.9c0,1.1,0,2,0.1,2.6c0.1,0.6,0.2,1.1,0.5,1.6h-4.1c0.2-0.4,0.4-1,0.5-1.6   C429.8,276.2,429.9,275.3,429.9,274.2L429.9,274.2z M431.2,258.2c0.5,0,1,0.2,1.4,0.6c0.4,0.4,0.6,1,0.6,1.6c0,0.6-0.2,1.1-0.6,1.6   c-0.4,0.4-0.8,0.6-1.4,0.6c-0.5,0-1-0.2-1.4-0.6c-0.4-0.4-0.6-0.9-0.6-1.6c0-0.6,0.2-1.1,0.6-1.6   C430.2,258.4,430.7,258.2,431.2,258.2z M435.6,274.2v-5.9c0-0.8,0-1.5-0.1-2.1c-0.1-0.7-0.3-1.4-0.5-2.1h3.4v2.5l2.2-2.5   c0.6-0.2,1.3-0.4,1.9-0.4c0.5,0,0.9,0.1,1.3,0.3l-0.6,3.1l-0.1-0.1c-0.5-0.4-1.2-0.6-1.9-0.6c-0.5,0-1.2,0.2-2.1,0.6l-0.6,0.3v6.8   c0,1.1,0,2,0.1,2.6c0.1,0.6,0.3,1.1,0.5,1.6h-4c0.2-0.4,0.4-1,0.5-1.6C435.5,276.2,435.6,275.3,435.6,274.2L435.6,274.2z    M450.4,278.6c-2,0-3.6-0.7-4.8-2c-1.3-1.3-1.9-3-1.9-5c0-2.2,0.5-4.1,1.7-5.6c1.1-1.5,2.5-2.2,4.1-2.2h0c1.6,0,2.9,0.6,3.7,1.7   c0.9,1.1,1.3,2.7,1.3,4.8v1.3h-7.9c0.1,1.3,0.5,2.4,1.1,3.2c0.8,1.1,1.8,1.6,3.2,1.6c0.6,0,1.2-0.1,1.8-0.2   c0.6-0.1,1.1-0.4,1.6-0.7l-1.1,2.7c-0.6,0.2-1.1,0.3-1.5,0.3C451.3,278.6,450.8,278.7,450.4,278.6L450.4,278.6z M452.2,269.6   c0-1.2-0.2-2.2-0.7-2.8c-0.4-0.6-1.1-1-2-1h0c-0.9,0-1.7,0.4-2.2,1.2c-0.4,0.6-0.7,1.5-0.7,2.6H452.2L452.2,269.6z" fill="#398F3B"  />
	
</g><path d="M0.6,0.6v205.5h218.5V0.6H0.6" fill="#398F3B"  /><path d="M0.6,0.6v205.5h218.5V0.6H0.6z" fill="none"  stroke="#FFFFFF"  stroke-width="0.429"  /><path d="M114.3,0c0,0-27.9,6.7-52,23.1c-22.1,13.9-30.3,20-45.3,35.8C6.6,70.1,0,78.6,0,78.6v45.2  c0,0,22,24.6,44.2,34.1c22.2,9.5,29.6,10.2,51.3,11c11.9-0.6,21.5-2.2,30.1-4.6c21.3-4.4,60.9-23.3,71.9-31.3  c10.5-7.5,22.3-15.6,22.3-15.6v-16.8c-9.3,16.8-30.7,31.3-40.1,37.1c-9.4,5.8-11,6.6-25.8,13.5c-9.5,3.8-19.4,6.6-31.3,9  c-11.8,2.4-20.3,1.1-29.3-1.9c-12.9-5.6-24.4-16.2-27.5-28.5c-3.1-12.4-2.9-27.8,0.3-37.9c5.9-12.4,6.6-14.5,15.5-26.9  C92.3,50.3,116.1,27.4,133,18c16.9-9.4,41.4-18,41.4-18L114.3,0" fill="#FFFFFF"  /><g><g><path d="M166.1,64.6l3.3-0.7l-3.7,12.6c-1.5,5-2.9,10.8-4.2,17.4c-0.7,3.6-1.1,5.9-1.1,6.9s0.4,1.5,1.2,1.5    c0.5,0,1.4-0.3,2.5-1c2.1-1.2,4-2.8,5.9-4.6l1.6,1.9c-3.8,3.5-6.2,5.6-7.3,6.3c-2.1,1.5-4.2,2.5-6.1,3.2c-1.3,0.5-2.5,0.7-3.7,0.7    c-0.9,0-1.5-0.2-1.9-0.6c-0.4-0.4-0.6-1-0.6-1.7c0-0.5,0.1-1.2,0.4-2.1l2-6.8c-2.9,3.4-6.3,6.4-10.2,8.8c-2.4,1.5-4.7,2.3-6.7,2.3    c-1.9,0-3.4-0.7-4.4-2c-1.4-1.8-2.1-4.2-2.1-7.2c0-3.5,0.9-7.4,2.8-11.8c1.9-4.3,4.4-8.3,7.6-11.8c3.2-3.5,6.5-6.1,10-7.8    c2.7-1.3,6.2-1.9,10.4-1.9c1.1,0,2.1,0.1,3.2,0.2C164.9,66.5,166.1,64.6,166.1,64.6z M159.9,72.2c-1.8-0.4-3.3-0.6-4.5-0.6    c-3,0-5.6,0.8-7.8,2.5c-2.2,1.6-4.3,4.6-6.2,8.9c-1.9,4.3-2.9,8.5-2.9,12.8c0,2.3,0.4,3.9,1.1,4.9c0.8,1,1.8,1.5,3,1.5    c2.3,0,4.8-1.2,7.4-3.7c2.6-2.5,4.6-6,5.8-10.7C155.7,87.8,159.9,72.2,159.9,72.2z M191.3,107.4h-7.4l3.5-13.4    c1.6-6.2,3.1-12.5,4.4-18.8c0.3-1.5,0.4-2.4,0.4-2.7c0-0.8-0.4-1.2-1.1-1.2c-0.5,0-1.3,0.3-2.3,1c-1,0.7-2.9,2.4-5.6,5.1l-1.5-1.7    c3.2-3.4,6.4-6,9.5-7.7c3.2-1.7,5.6-2.6,7.3-2.6c0.6,0,1.1,0.1,1.4,0.4c0.3,0.3,0.5,0.7,0.5,1.1c0,0.4-0.2,1.6-0.6,3.5l-2.2,9    c3.4-5.3,7.2-9.8,11.4-13.6c2-1.8,3.7-2.7,5.1-2.7c1,0,1.8,0.3,2.5,1c0.7,0.6,1,1.4,1,2.3c0,0.9-0.3,1.7-1,2.3    c-0.6,0.6-2.3,1.4-4.9,2.2c-2.5,0.8-4.5,1.8-6,3c-1.5,1.2-3.2,2.9-5.1,5.3c-1.8,2.4-3.1,4.5-3.9,6.3c-0.7,1.8-1.8,5.9-3.3,12.4    L191.3,107.4L191.3,107.4z" fill="#FFFFFF"  />
		
	</g><g><path d="M244.6,65.4c3.3,0,6,1.3,8.1,3.9c2.2,2.6,3.2,6.2,3.2,10.8c0,7.4-2.6,14-7.8,19.9    c-5.2,5.9-10.7,8.8-16.5,8.8c-3.6,0-6.4-1.2-8.6-3.5c-2.2-2.3-3.3-5.5-3.3-9.5c0-7,2-13.4,6-19.4    C230.9,69.1,237.1,65.4,244.6,65.4L244.6,65.4z M240.4,69.2c-2.8,0-5.6,2-8.2,6.1c-2.7,4-4,9.6-4,16.7c0,4.3,0.8,7.7,2.4,10.2    c1.2,1.8,2.8,2.8,4.8,2.8c2.8,0,5.3-1.7,7.6-5.2c2.9-4.5,4.4-10.1,4.4-16.7c0-5-0.7-8.5-2-10.7C244.1,70.2,242.4,69.2,240.4,69.2    L240.4,69.2z M283,74.1c2.7-3,5.4-5.1,8-6.5c2.6-1.4,4.9-2.1,6.9-2.1c2.3,0,4.2,0.9,5.6,2.8c1.4,1.9,2.1,4.7,2.1,8.4    c0,5.5-1.3,10.8-3.8,16c-2.6,5.2-5.7,9.2-9.5,11.9c-3.8,2.7-7.5,4.1-11,4.1c-3.1,0-5.5-0.9-7.3-2.7c-1.8-1.8-2.8-4.1-2.8-7    c0-2.3,0.4-5.5,1.4-9.6l5.9-26.4c1.4-6.4,3.2-11.4,5.4-14.7c2.2-3.4,5-6.1,8.5-8.1c3.5-2,6.9-3,10-3c1.9,0,3.3,0.3,4.2,1    c0.9,0.7,1.3,1.5,1.3,2.6c0,1-0.4,1.8-1.2,2.5c-0.8,0.7-1.9,1-3.4,1c-1.1,0-3-0.2-5.7-0.8c-1.2-0.2-2.3-0.3-3.2-0.3    c-1.7,0-3,0.9-4,2.7c-0.8,1.4-1.8,4.9-3.1,10.6L283,74.1L283,74.1z M292.8,71.1c-1.6,0-3.6,1-5.8,2.9c-2.2,2-4.4,5.4-6.4,10.4    c-2,5-3,9.9-3,14.6c0,1.8,0.6,3.3,1.7,4.5c1.1,1.2,2.5,1.8,4,1.8c3.7,0,7-2.9,9.9-8.8c2.9-5.8,4.3-11.6,4.3-17.4    c0-2.6-0.5-4.8-1.6-6.4C295.2,71.7,294.2,71.1,292.8,71.1L292.8,71.1z M333.1,74.1c2.7-3,5.3-5.1,8-6.5c2.6-1.4,4.9-2.1,6.9-2.1    c2.3,0,4.2,0.9,5.6,2.8c1.4,1.9,2.1,4.7,2.1,8.4c0,5.5-1.3,10.8-3.8,16c-2.6,5.2-5.7,9.2-9.5,11.9c-3.8,2.7-7.5,4.1-11,4.1    c-3.1,0-5.5-0.9-7.3-2.7c-1.8-1.8-2.7-4.1-2.7-7c0-2.3,0.4-5.5,1.4-9.6l5.9-26.4c1.4-6.4,3.2-11.4,5.4-14.7c2.2-3.4,5-6.1,8.5-8.1    c3.5-2,6.9-3,10-3c1.9,0,3.3,0.3,4.2,1c0.9,0.7,1.3,1.5,1.3,2.6c0,1-0.4,1.8-1.2,2.5c-0.8,0.7-1.9,1-3.4,1c-1.1,0-3-0.2-5.7-0.8    c-1.2-0.2-2.3-0.3-3.2-0.3c-1.7,0-3,0.9-4,2.7c-0.8,1.4-1.8,4.9-3.1,10.6C337.1,56.6,333.1,74.1,333.1,74.1z M342.9,71.1    c-1.6,0-3.6,1-5.8,2.9c-2.2,2-4.4,5.4-6.4,10.4c-2,5-3,9.9-3,14.6c0,1.8,0.6,3.3,1.7,4.5c1.1,1.2,2.5,1.8,4,1.8    c3.7,0,7-2.9,9.9-8.8c2.9-5.8,4.3-11.6,4.3-17.4c0-2.6-0.5-4.8-1.6-6.4C345.3,71.7,344.2,71.1,342.9,71.1L342.9,71.1z" fill="#398F3B"  />
		
	</g>
	
	
</g></svg>