<svg viewBox="0 0 835.8 283.5" role="img" aria-labelledby="cdr--title" xmlns="http://www.w3.org/2000/svg" xmlns:xlink="http://www.w3.org/1999/xlink"><title id="cdr--title">CDR - Child Death Review Database Development Project</title><g><path d="M412.8,120.6l36.4,11.5c-5.6,20.3-14.8,35.3-27.8,45.2c-13,9.8-29.4,14.8-49.3,14.8   c-24.7,0-44.9-8.4-60.8-25.3c-15.9-16.9-23.8-39.9-23.8-69.1c0-30.9,8-54.9,23.9-72c16-17.1,36.9-25.7,63-25.7   c22.7,0,41.2,6.7,55.4,20.1c8.4,7.9,14.8,19.3,19,34.2l-37.1,8.9c-2.2-9.6-6.8-17.2-13.7-22.8c-7-5.6-15.4-8.4-25.4-8.4   c-13.8,0-24.9,4.9-33.5,14.8c-8.6,9.9-12.9,25.9-12.9,48c0,23.5,4.2,40.2,12.7,50.2c8.4,10,19.4,14.9,32.9,14.9   c10,0,18.5-3.2,25.7-9.5C404.5,144.2,409.7,134.2,412.8,120.6L412.8,120.6z M481.2,3.2h68.5c15.5,0,27.2,1.2,35.3,3.5   c10.9,3.2,20.2,8.9,28,17.1c7.8,8.2,13.7,18.2,17.7,30.1c4.1,11.9,6.1,26.5,6.1,43.9c0,15.3-1.9,28.5-5.7,39.5   c-4.6,13.5-11.3,24.4-19.9,32.8c-6.5,6.3-15.3,11.3-26.3,14.8c-8.3,2.6-19.3,3.9-33.2,3.9h-70.6L481.2,3.2L481.2,3.2z M518.7,34.6   v123h28c10.5,0,18-0.6,22.7-1.8c6.1-1.5,11.1-4.1,15.1-7.7c4-3.6,7.3-9.6,9.8-17.9c2.5-8.3,3.8-19.7,3.8-34s-1.3-25.4-3.8-33.1   c-2.5-7.7-6.1-13.7-10.6-18c-4.6-4.3-10.3-7.2-17.4-8.7c-5.2-1.2-15.5-1.8-30.8-1.8L518.7,34.6L518.7,34.6z M668.8,188.9V3.2h78.9   c19.8,0,34.3,1.7,43.3,5c9,3.3,16.2,9.3,21.6,17.8c5.4,8.5,8.1,18.3,8.1,29.3c0,13.9-4.1,25.4-12.3,34.5   c-8.2,9.1-20.4,14.8-36.7,17.2c8.1,4.7,14.8,9.9,20.1,15.6c5.3,5.7,12.4,15.7,21.3,30.2l22.7,36.2H791l-27.1-40.4   c-9.6-14.4-16.2-23.5-19.8-27.3c-3.6-3.8-7.3-6.3-11.3-7.7c-4-1.4-10.3-2.1-18.9-2.1h-7.6v77.5H668.8z M706.3,81.7h27.7   c18,0,29.2-0.8,33.7-2.3c4.5-1.5,8-4.1,10.5-7.9c2.5-3.7,3.8-8.4,3.8-13.9c0-6.3-1.7-11.3-5-15.1c-3.3-3.8-8-6.3-14.1-7.3   c-3-0.4-12.2-0.6-27.4-0.6h-29.3C706.3,34.6,706.3,81.7,706.3,81.7z" fill="#61853F"  />
	
</g><g><path d="M550.7,228.2l3.1,0.8c-0.7,2.6-1.9,4.6-3.6,5.9c-1.7,1.4-3.8,2-6.3,2c-2.6,0-4.7-0.5-6.3-1.6   c-1.6-1-2.8-2.6-3.7-4.5c-0.8-2-1.3-4.1-1.3-6.4c0-2.5,0.5-4.6,1.4-6.5c0.9-1.8,2.3-3.2,4-4.2c1.8-1,3.7-1.4,5.8-1.4   c2.4,0,4.4,0.6,6,1.8s2.8,2.9,3.4,5.1l-3.1,0.7c-0.5-1.7-1.4-3-2.4-3.8c-1.1-0.8-2.4-1.2-4-1.2c-1.8,0-3.4,0.4-4.6,1.3   s-2.1,2.1-2.6,3.5c-0.5,1.5-0.7,3-0.7,4.6c0,2,0.3,3.8,0.9,5.3c0.6,1.5,1.5,2.6,2.8,3.4s2.6,1.1,4,1.1c1.8,0,3.3-0.5,4.5-1.5   C549.4,231.7,550.3,230.2,550.7,228.2z M558,236.5v-23.8h2.9v8.5c1.4-1.6,3.1-2.4,5.2-2.4c1.3,0,2.4,0.2,3.3,0.8   c0.9,0.5,1.6,1.2,2,2.1c0.4,0.9,0.6,2.2,0.6,3.9v10.9h-2.9v-10.9c0-1.5-0.3-2.5-0.9-3.2c-0.6-0.7-1.5-1-2.7-1   c-0.9,0-1.7,0.2-2.4,0.7c-0.8,0.4-1.3,1.1-1.6,1.8c-0.3,0.8-0.5,1.8-0.5,3.2v9.4L558,236.5L558,236.5z M577.3,216.1v-3.4h2.9v3.4   H577.3z M577.3,236.5v-17.2h2.9v17.2H577.3z M585.3,236.5v-23.8h2.9v23.8H585.3z M604.6,236.5v-2.2c-1.1,1.7-2.7,2.6-4.8,2.6   c-1.3,0-2.7-0.4-3.8-1.1c-1.2-0.8-2-1.8-2.7-3.2c-0.6-1.4-0.9-2.9-0.9-4.7c0-1.7,0.3-3.3,0.9-4.7c0.6-1.4,1.4-2.5,2.6-3.2   c1.1-0.7,2.4-1.1,3.8-1.1c1,0,2,0.2,2.8,0.7c0.8,0.4,1.5,1,2,1.7v-8.5h2.9v23.8L604.6,236.5L604.6,236.5z M595.4,227.9   c0,2.2,0.5,3.9,1.4,5c0.9,1.1,2,1.6,3.3,1.6c1.3,0,2.4-0.5,3.3-1.6c0.9-1,1.3-2.6,1.3-4.8c0-2.4-0.5-4.1-1.4-5.2   c-0.9-1.1-2-1.7-3.4-1.7c-1.3,0-2.4,0.5-3.3,1.6C595.8,224,595.4,225.7,595.4,227.9L595.4,227.9z M622.9,236.5v-23.8h8.2   c1.9,0,3.3,0.1,4.2,0.3c1.4,0.3,2.5,0.9,3.5,1.7c1.3,1.1,2.2,2.4,2.8,4.1c0.6,1.7,0.9,3.5,0.9,5.7c0,1.8-0.2,3.4-0.6,4.8   c-0.4,1.4-1,2.6-1.6,3.5c-0.7,0.9-1.4,1.6-2.2,2.2c-0.8,0.5-1.7,0.9-2.8,1.2c-1.1,0.3-2.4,0.4-3.8,0.4L622.9,236.5L622.9,236.5z    M626.1,233.7h5.1c1.6,0,2.8-0.1,3.7-0.4c0.9-0.3,1.6-0.7,2.1-1.2c0.7-0.7,1.3-1.8,1.7-3c0.4-1.3,0.6-2.8,0.6-4.6   c0-2.5-0.4-4.4-1.2-5.7c-0.8-1.3-1.8-2.2-3-2.7c-0.8-0.3-2.2-0.5-4.1-0.5h-5L626.1,233.7L626.1,233.7z M659.1,231l3,0.4   c-0.5,1.8-1.4,3.1-2.6,4.1c-1.3,1-2.9,1.5-4.9,1.5c-2.5,0-4.5-0.8-6-2.3c-1.5-1.6-2.2-3.7-2.2-6.5c0-2.9,0.7-5.1,2.2-6.8   c1.5-1.6,3.4-2.4,5.8-2.4c2.3,0,4.2,0.8,5.7,2.4c1.5,1.6,2.2,3.8,2.2,6.6c0,0.2,0,0.4,0,0.8h-12.9c0.1,1.9,0.6,3.3,1.6,4.3   c1,1,2.2,1.5,3.6,1.5c1.1,0,2-0.3,2.7-0.8C658,233.1,658.6,232.2,659.1,231L659.1,231z M649.5,226.3h9.6c-0.1-1.5-0.5-2.5-1.1-3.3   c-0.9-1.1-2.1-1.7-3.6-1.7c-1.3,0-2.5,0.5-3.4,1.3C650.1,223.6,649.6,224.8,649.5,226.3L649.5,226.3z M677.7,234.4   c-1.1,0.9-2.1,1.6-3.1,1.9c-1,0.4-2.1,0.6-3.2,0.6c-1.9,0-3.4-0.5-4.4-1.4c-1-0.9-1.5-2.1-1.5-3.6c0-0.8,0.2-1.6,0.6-2.3   c0.4-0.7,0.9-1.2,1.5-1.7c0.6-0.4,1.4-0.8,2.1-1c0.6-0.2,1.4-0.3,2.6-0.4c2.4-0.3,4.1-0.6,5.2-1c0-0.4,0-0.7,0-0.8   c0-1.2-0.3-2-0.8-2.5c-0.7-0.7-1.9-1-3.3-1c-1.4,0-2.4,0.2-3,0.7c-0.7,0.5-1.1,1.3-1.5,2.6l-2.9-0.4c0.3-1.2,0.7-2.2,1.3-3   c0.6-0.8,1.5-1.3,2.6-1.7c1.1-0.4,2.4-0.6,3.9-0.6c1.5,0,2.7,0.2,3.6,0.5c0.9,0.3,1.6,0.8,2,1.3c0.4,0.5,0.7,1.2,0.9,2   c0.1,0.5,0.1,1.4,0.1,2.7v3.9c0,2.7,0.1,4.4,0.2,5.2c0.1,0.7,0.4,1.4,0.7,2.1h-3.1C678,235.9,677.8,235.2,677.7,234.4L677.7,234.4z    M677.5,227.9c-1.1,0.4-2.7,0.8-4.8,1.1c-1.2,0.2-2.1,0.4-2.6,0.6c-0.5,0.2-0.9,0.5-1.2,0.9c-0.3,0.4-0.4,0.9-0.4,1.4   c0,0.8,0.3,1.4,0.9,1.9c0.6,0.5,1.5,0.8,2.6,0.8c1.1,0,2.1-0.3,3-0.7c0.9-0.5,1.5-1.2,1.9-2c0.3-0.7,0.5-1.6,0.5-2.9L677.5,227.9   L677.5,227.9z M692.1,233.9l0.4,2.6c-0.8,0.2-1.6,0.3-2.2,0.3c-1.1,0-1.9-0.2-2.5-0.5c-0.6-0.3-1-0.8-1.2-1.3   c-0.2-0.5-0.4-1.7-0.4-3.5v-9.9h-2.1v-2.3h2.1V215l2.9-1.8v6h2.9v2.3h-2.9v10.1c0,0.8,0.1,1.4,0.2,1.6c0.1,0.2,0.3,0.4,0.5,0.6   c0.2,0.1,0.6,0.2,1,0.2C691.2,234,691.6,234,692.1,233.9L692.1,233.9z M695.6,236.5v-23.8h2.9v8.5c1.4-1.6,3.1-2.4,5.2-2.4   c1.3,0,2.4,0.2,3.3,0.8c0.9,0.5,1.6,1.2,2,2.1c0.4,0.9,0.6,2.2,0.6,3.9v10.9h-2.9v-10.9c0-1.5-0.3-2.5-1-3.2c-0.6-0.7-1.5-1-2.7-1   c-0.9,0-1.7,0.2-2.4,0.7c-0.8,0.4-1.3,1.1-1.6,1.8c-0.3,0.8-0.5,1.8-0.5,3.2v9.4L695.6,236.5L695.6,236.5z M725.2,236.5v-23.8h10.6   c2.1,0,3.7,0.2,4.8,0.6c1.1,0.4,2,1.2,2.6,2.3c0.7,1.1,1,2.3,1,3.6c0,1.7-0.5,3.1-1.6,4.3c-1.1,1.2-2.8,1.9-5.1,2.2   c0.8,0.4,1.5,0.8,1.9,1.2c0.9,0.8,1.8,1.9,2.6,3.2l4.1,6.5h-4l-3.2-5c-0.9-1.4-1.7-2.5-2.3-3.3c-0.6-0.8-1.1-1.3-1.6-1.6   c-0.4-0.3-0.9-0.5-1.4-0.6c-0.4-0.1-0.9-0.1-1.8-0.1h-3.7v10.6H725.2z M728.3,223.2h6.8c1.4,0,2.6-0.2,3.4-0.5s1.4-0.8,1.9-1.4   c0.4-0.6,0.6-1.4,0.6-2.1c0-1.1-0.4-2-1.2-2.8c-0.8-0.7-2.1-1.1-3.9-1.1h-7.5L728.3,223.2L728.3,223.2z M761.3,231l3,0.4   c-0.5,1.8-1.4,3.1-2.7,4.1c-1.3,1-2.9,1.5-4.9,1.5c-2.5,0-4.5-0.8-6-2.3c-1.5-1.6-2.2-3.7-2.2-6.5c0-2.9,0.7-5.1,2.2-6.8   c1.5-1.6,3.4-2.4,5.8-2.4c2.3,0,4.2,0.8,5.7,2.4c1.5,1.6,2.2,3.8,2.2,6.6c0,0.2,0,0.4,0,0.8h-12.9c0.1,1.9,0.6,3.3,1.6,4.3   c1,1,2.2,1.5,3.6,1.5c1.1,0,2-0.3,2.7-0.8C760.2,233.1,760.8,232.2,761.3,231L761.3,231z M751.7,226.3h9.6   c-0.1-1.5-0.5-2.5-1.1-3.3c-0.9-1.1-2.1-1.7-3.6-1.7c-1.3,0-2.5,0.5-3.4,1.3C752.3,223.6,751.8,224.8,751.7,226.3L751.7,226.3z    M773.5,236.5l-6.6-17.2h3.1l3.7,10.3c0.4,1.1,0.8,2.3,1.1,3.5c0.3-0.9,0.6-2,1.1-3.3l3.8-10.5h3l-6.5,17.2L773.5,236.5   L773.5,236.5z M786,216.1v-3.4h2.9v3.4H786z M786,236.5v-17.2h2.9v17.2H786z M805.9,231l3,0.4c-0.5,1.8-1.4,3.1-2.6,4.1   c-1.3,1-2.9,1.5-4.9,1.5c-2.5,0-4.5-0.8-6-2.3c-1.5-1.6-2.2-3.7-2.2-6.5c0-2.9,0.7-5.1,2.2-6.8c1.5-1.6,3.4-2.4,5.8-2.4   c2.3,0,4.2,0.8,5.6,2.4c1.5,1.6,2.2,3.8,2.2,6.6c0,0.2,0,0.4,0,0.8h-12.9c0.1,1.9,0.6,3.3,1.6,4.3c1,1,2.2,1.5,3.6,1.5   c1.1,0,2-0.3,2.7-0.8C804.9,233.1,805.5,232.2,805.9,231L805.9,231z M796.3,226.3h9.6c-0.1-1.5-0.5-2.5-1.1-3.3   c-0.9-1.1-2.1-1.7-3.6-1.7c-1.3,0-2.5,0.5-3.4,1.3C796.9,223.6,796.4,224.8,796.3,226.3z M816.5,236.5l-5.3-17.2h3l2.7,10l1,3.7   c0-0.2,0.3-1.4,0.9-3.6l2.7-10.1h3l2.6,10l0.9,3.3l1-3.3l3-10h2.8l-5.4,17.2h-3l-2.7-10.3l-0.7-2.9l-3.5,13.3L816.5,236.5   L816.5,236.5z M358.4,276.5v-23.8h8.2c1.9,0,3.3,0.1,4.2,0.3c1.4,0.3,2.5,0.9,3.5,1.7c1.3,1.1,2.2,2.4,2.8,4.1   c0.6,1.6,0.9,3.5,0.9,5.7c0,1.8-0.2,3.4-0.6,4.8c-0.4,1.4-1,2.6-1.6,3.5c-0.7,0.9-1.4,1.6-2.2,2.2c-0.8,0.5-1.7,0.9-2.8,1.2   c-1.1,0.3-2.4,0.4-3.8,0.4L358.4,276.5L358.4,276.5z M361.6,273.7h5.1c1.6,0,2.8-0.1,3.7-0.4c0.9-0.3,1.6-0.7,2.1-1.2   c0.7-0.7,1.3-1.8,1.7-3c0.4-1.3,0.6-2.8,0.6-4.6c0-2.5-0.4-4.4-1.2-5.7c-0.8-1.3-1.8-2.2-3-2.7c-0.8-0.3-2.2-0.5-4.1-0.5h-5V273.7   L361.6,273.7z M394,274.3c-1.1,0.9-2.1,1.6-3.1,1.9c-1,0.4-2.1,0.6-3.2,0.6c-1.9,0-3.4-0.5-4.4-1.4c-1-0.9-1.5-2.1-1.5-3.5   c0-0.8,0.2-1.6,0.6-2.3s0.9-1.3,1.5-1.7c0.6-0.4,1.4-0.8,2.1-1c0.6-0.2,1.4-0.3,2.6-0.4c2.4-0.3,4.1-0.6,5.2-1c0-0.4,0-0.7,0-0.8   c0-1.2-0.3-2-0.8-2.5c-0.7-0.7-1.9-1-3.3-1c-1.4,0-2.4,0.2-3,0.7c-0.7,0.5-1.1,1.3-1.5,2.6l-2.9-0.4c0.3-1.2,0.7-2.2,1.3-3   c0.6-0.7,1.5-1.3,2.6-1.7c1.1-0.4,2.4-0.6,3.9-0.6c1.5,0,2.7,0.2,3.6,0.5c0.9,0.3,1.6,0.8,2,1.3c0.4,0.5,0.7,1.2,0.9,2   c0.1,0.5,0.1,1.4,0.1,2.7v3.9c0,2.7,0.1,4.4,0.2,5.2c0.1,0.7,0.4,1.4,0.7,2.1h-3.1C394.3,275.9,394.1,275.1,394,274.3z    M393.8,267.8c-1.1,0.4-2.7,0.8-4.8,1.1c-1.2,0.2-2.1,0.4-2.6,0.6c-0.5,0.2-0.9,0.5-1.2,0.9c-0.3,0.4-0.4,0.9-0.4,1.4   c0,0.8,0.3,1.4,0.9,1.9c0.6,0.5,1.5,0.8,2.6,0.8c1.1,0,2.1-0.2,3-0.7c0.9-0.5,1.5-1.2,1.9-2c0.3-0.7,0.5-1.6,0.5-2.9L393.8,267.8   L393.8,267.8z M408.4,273.8l0.4,2.6c-0.8,0.2-1.6,0.3-2.2,0.3c-1.1,0-1.9-0.2-2.5-0.5c-0.6-0.3-1-0.8-1.2-1.3   c-0.2-0.5-0.4-1.7-0.4-3.4v-9.9h-2.1v-2.3h2.1v-4.3l2.9-1.8v6h2.9v2.3h-2.9v10.1c0,0.8,0.1,1.4,0.2,1.6c0.1,0.2,0.3,0.4,0.5,0.6   c0.2,0.1,0.6,0.2,1,0.2C407.4,274,407.8,273.9,408.4,273.8z M423.2,274.3c-1.1,0.9-2.1,1.6-3.1,1.9c-1,0.4-2.1,0.6-3.2,0.6   c-1.9,0-3.4-0.5-4.4-1.4c-1-0.9-1.5-2.1-1.5-3.5c0-0.8,0.2-1.6,0.6-2.3c0.4-0.7,0.9-1.2,1.5-1.7c0.6-0.4,1.4-0.8,2.1-1   c0.6-0.2,1.4-0.3,2.6-0.4c2.4-0.3,4.1-0.6,5.2-1c0-0.4,0-0.7,0-0.8c0-1.2-0.3-2-0.8-2.5c-0.7-0.7-1.9-1-3.3-1c-1.4,0-2.4,0.2-3,0.7   c-0.7,0.5-1.1,1.3-1.5,2.6l-2.9-0.4c0.3-1.2,0.7-2.2,1.3-3c0.6-0.7,1.5-1.3,2.6-1.7c1.1-0.4,2.4-0.6,3.9-0.6c1.5,0,2.7,0.2,3.6,0.5   c0.9,0.3,1.6,0.8,2,1.3c0.4,0.5,0.7,1.2,0.9,2c0.1,0.5,0.1,1.4,0.1,2.7v3.9c0,2.7,0.1,4.4,0.2,5.2c0.1,0.7,0.4,1.4,0.7,2.1h-3.1   C423.5,275.9,423.3,275.1,423.2,274.3z M422.9,267.8c-1.1,0.4-2.7,0.8-4.8,1.1c-1.2,0.2-2.1,0.4-2.6,0.6c-0.5,0.2-0.9,0.5-1.2,0.9   c-0.3,0.4-0.4,0.9-0.4,1.4c0,0.8,0.3,1.4,0.9,1.9c0.6,0.5,1.5,0.8,2.6,0.8c1.1,0,2.1-0.2,3-0.7c0.9-0.5,1.5-1.2,1.9-2   c0.3-0.7,0.5-1.6,0.5-2.9L422.9,267.8L422.9,267.8z M433.8,276.5h-2.7v-23.8h2.9v8.5c1.2-1.6,2.8-2.3,4.7-2.3c1.1,0,2.1,0.2,3,0.6   c0.9,0.4,1.7,1,2.3,1.8c0.6,0.8,1.1,1.7,1.4,2.8c0.4,1.1,0.5,2.3,0.5,3.5c0,3-0.7,5.2-2.2,6.9c-1.5,1.6-3.2,2.4-5.3,2.4   c-2,0-3.6-0.8-4.8-2.6L433.8,276.5L433.8,276.5z M433.8,267.7c0,2.1,0.3,3.6,0.8,4.5c0.9,1.5,2.2,2.3,3.7,2.3   c1.3,0,2.4-0.5,3.3-1.7c0.9-1.1,1.4-2.8,1.4-5c0-2.2-0.5-3.9-1.3-5c-0.9-1.1-2-1.6-3.2-1.6c-1.3,0-2.4,0.5-3.3,1.7   C434.2,264,433.8,265.6,433.8,267.7z M461.6,274.3c-1.1,0.9-2.1,1.6-3.1,1.9c-1,0.4-2.1,0.6-3.2,0.6c-1.9,0-3.3-0.5-4.4-1.4   c-1-0.9-1.5-2.1-1.5-3.5c0-0.8,0.2-1.6,0.6-2.3c0.4-0.7,0.9-1.3,1.5-1.7c0.6-0.4,1.4-0.8,2.1-1c0.6-0.2,1.4-0.3,2.6-0.4   c2.4-0.3,4.1-0.6,5.2-1c0-0.4,0-0.7,0-0.8c0-1.2-0.3-2-0.8-2.5c-0.7-0.7-1.9-1-3.3-1c-1.4,0-2.4,0.2-3,0.7   c-0.7,0.5-1.1,1.3-1.5,2.6l-2.9-0.4c0.3-1.2,0.7-2.2,1.3-3c0.6-0.7,1.5-1.3,2.6-1.7c1.1-0.4,2.4-0.6,3.9-0.6c1.5,0,2.7,0.2,3.6,0.5   c0.9,0.3,1.6,0.8,2,1.3c0.4,0.5,0.7,1.2,0.9,2c0.1,0.5,0.1,1.4,0.1,2.7v3.9c0,2.7,0.1,4.4,0.2,5.2c0.1,0.7,0.4,1.4,0.7,2.1h-3   C461.9,275.9,461.7,275.1,461.6,274.3z M461.3,267.8c-1.1,0.4-2.7,0.8-4.8,1.1c-1.2,0.2-2.1,0.4-2.6,0.6c-0.5,0.2-0.9,0.5-1.2,0.9   c-0.3,0.4-0.4,0.9-0.4,1.4c0,0.8,0.3,1.4,0.9,1.9c0.6,0.5,1.5,0.8,2.6,0.8c1.1,0,2.1-0.2,3-0.7c0.9-0.5,1.5-1.2,1.9-2   c0.3-0.7,0.5-1.6,0.5-2.9L461.3,267.8L461.3,267.8z M468.3,271.3l2.9-0.5c0.2,1.2,0.6,2,1.4,2.7c0.7,0.6,1.8,0.9,3.1,0.9   c1.3,0,2.3-0.3,3-0.8c0.6-0.5,1-1.2,1-1.9c0-0.7-0.3-1.2-0.9-1.6c-0.4-0.3-1.4-0.6-3-1c-2.1-0.5-3.6-1-4.5-1.4   c-0.8-0.4-1.5-0.9-1.9-1.6c-0.4-0.7-0.7-1.5-0.6-2.3c0-0.8,0.2-1.5,0.5-2.1s0.8-1.2,1.4-1.6c0.5-0.3,1.1-0.6,1.9-0.8   c0.8-0.2,1.7-0.4,2.5-0.4c1.4,0,2.5,0.2,3.6,0.6c1,0.4,1.8,0.9,2.3,1.6c0.5,0.7,0.8,1.6,1,2.7l-2.9,0.4c-0.1-0.9-0.5-1.6-1.1-2.1   c-0.6-0.5-1.5-0.7-2.6-0.7c-1.3,0-2.3,0.2-2.9,0.7c-0.6,0.4-0.9,1-0.9,1.6c0,0.4,0.1,0.7,0.4,1c0.2,0.3,0.6,0.6,1.1,0.8   c0.3,0.1,1.2,0.4,2.6,0.7c2.1,0.6,3.5,1,4.3,1.4s1.5,0.9,1.9,1.5c0.5,0.7,0.7,1.5,0.7,2.5c0,1-0.3,1.9-0.9,2.8   c-0.6,0.9-1.4,1.5-2.5,2c-1.1,0.5-2.3,0.7-3.6,0.7c-2.2,0-3.9-0.5-5.1-1.4C469.4,274.5,468.7,273.1,468.3,271.3L468.3,271.3z    M498.7,270.9l3,0.4c-0.5,1.8-1.4,3.1-2.6,4.1c-1.3,1-2.9,1.5-4.9,1.5c-2.5,0-4.5-0.8-6-2.3c-1.5-1.6-2.2-3.7-2.2-6.5   c0-2.9,0.7-5.2,2.2-6.8c1.5-1.6,3.4-2.4,5.8-2.4c2.3,0,4.2,0.8,5.7,2.4c1.5,1.6,2.2,3.8,2.2,6.6c0,0.2,0,0.4,0,0.8h-12.9   c0.1,1.9,0.6,3.3,1.6,4.4c1,1,2.2,1.5,3.6,1.5c1.1,0,2-0.3,2.7-0.8C497.6,273,498.2,272.1,498.7,270.9L498.7,270.9z M489.1,266.2   h9.6c-0.1-1.5-0.5-2.5-1.1-3.3c-0.9-1.1-2.1-1.7-3.6-1.7c-1.3,0-2.5,0.4-3.4,1.3C489.7,263.5,489.2,264.7,489.1,266.2z    M516.4,276.5v-23.8h8.2c1.8,0,3.3,0.1,4.2,0.3c1.4,0.3,2.5,0.9,3.5,1.7c1.3,1.1,2.2,2.4,2.8,4.1c0.6,1.6,0.9,3.5,0.9,5.7   c0,1.8-0.2,3.4-0.6,4.8c-0.4,1.4-1,2.6-1.6,3.5c-0.7,0.9-1.4,1.6-2.2,2.2c-0.8,0.5-1.7,0.9-2.8,1.2c-1.1,0.3-2.4,0.4-3.8,0.4   L516.4,276.5L516.4,276.5z M519.5,273.7h5.1c1.6,0,2.8-0.1,3.7-0.4c0.9-0.3,1.6-0.7,2.1-1.2c0.7-0.7,1.3-1.8,1.7-3   c0.4-1.3,0.6-2.8,0.6-4.6c0-2.5-0.4-4.4-1.2-5.7c-0.8-1.3-1.8-2.2-3-2.7c-0.8-0.3-2.2-0.5-4.1-0.5h-5V273.7L519.5,273.7z    M552.5,270.9l3,0.4c-0.5,1.8-1.4,3.1-2.7,4.1c-1.3,1-2.9,1.5-4.9,1.5c-2.5,0-4.5-0.8-6-2.3c-1.5-1.6-2.2-3.7-2.2-6.5   c0-2.9,0.7-5.2,2.2-6.8c1.5-1.6,3.4-2.4,5.8-2.4c2.3,0,4.2,0.8,5.7,2.4c1.5,1.6,2.2,3.8,2.2,6.6c0,0.2,0,0.4,0,0.8h-12.9   c0.1,1.9,0.6,3.3,1.6,4.4c1,1,2.2,1.5,3.6,1.5c1.1,0,2-0.3,2.7-0.8C551.5,273,552.1,272.1,552.5,270.9L552.5,270.9z M542.9,266.2   h9.6c-0.1-1.5-0.5-2.5-1.1-3.3c-0.9-1.1-2.1-1.7-3.6-1.7c-1.3,0-2.5,0.4-3.4,1.3C543.5,263.5,543,264.7,542.9,266.2z M564.7,276.5   l-6.6-17.3h3.1l3.7,10.3c0.4,1.1,0.8,2.3,1.1,3.5c0.3-0.9,0.6-2,1.1-3.3l3.8-10.5h3l-6.5,17.3L564.7,276.5L564.7,276.5z M589,270.9   l3,0.4c-0.5,1.8-1.4,3.1-2.6,4.1c-1.3,1-2.9,1.5-4.9,1.5c-2.5,0-4.5-0.8-6-2.3c-1.5-1.6-2.2-3.7-2.2-6.5c0-2.9,0.8-5.2,2.2-6.8   c1.5-1.6,3.4-2.4,5.8-2.4c2.3,0,4.2,0.8,5.7,2.4c1.5,1.6,2.2,3.8,2.2,6.6c0,0.2,0,0.4,0,0.8h-12.9c0.1,1.9,0.6,3.3,1.6,4.4   c1,1,2.2,1.5,3.6,1.5c1.1,0,2-0.3,2.7-0.8C588,273,588.6,272.1,589,270.9L589,270.9z M579.4,266.2h9.6c-0.1-1.5-0.5-2.5-1.1-3.3   c-0.9-1.1-2.1-1.7-3.6-1.7c-1.3,0-2.5,0.4-3.4,1.3C580,263.5,579.5,264.7,579.4,266.2L579.4,266.2z M596.4,276.5v-23.8h2.9v23.8   H596.4z M603.4,267.8c0-3.2,0.9-5.6,2.7-7.1c1.5-1.3,3.3-1.9,5.4-1.9c2.4,0,4.3,0.8,5.8,2.3c1.5,1.6,2.3,3.7,2.3,6.4   c0,2.2-0.3,4-1,5.2c-0.7,1.3-1.6,2.3-2.9,3s-2.7,1.1-4.2,1.1c-2.4,0-4.4-0.8-5.9-2.3C604.2,273,603.4,270.7,603.4,267.8z    M606.4,267.8c0,2.2,0.5,3.9,1.4,5c1,1.1,2.2,1.6,3.6,1.6c1.5,0,2.7-0.5,3.6-1.6c1-1.1,1.4-2.8,1.4-5.1c0-2.1-0.5-3.8-1.5-4.9   c-1-1.1-2.2-1.6-3.6-1.6c-1.5,0-2.7,0.5-3.6,1.6C606.9,264,606.4,265.6,606.4,267.8L606.4,267.8z M623.7,283.1v-23.9h2.7v2.2   c0.6-0.9,1.3-1.5,2.1-2c0.8-0.4,1.8-0.7,2.9-0.7c1.5,0,2.8,0.4,3.9,1.1c1.1,0.8,2,1.8,2.6,3.2c0.6,1.4,0.9,2.9,0.9,4.5   c0,1.8-0.3,3.4-0.9,4.8s-1.6,2.5-2.8,3.2c-1.2,0.8-2.5,1.1-3.8,1.1c-1,0-1.9-0.2-2.6-0.6c-0.7-0.4-1.4-0.9-1.9-1.6v8.4H623.7z    M626.4,267.9c0,2.2,0.4,3.9,1.3,4.9c0.9,1.1,2,1.6,3.3,1.6c1.3,0,2.4-0.5,3.3-1.6c0.9-1.1,1.4-2.8,1.4-5.1c0-2.2-0.5-3.8-1.4-4.9   c-0.9-1.1-2-1.6-3.2-1.6c-1.2,0-2.3,0.6-3.3,1.7C626.8,264,626.4,265.7,626.4,267.9L626.4,267.9z M642.9,276.5v-17.3h2.6v2.4   c0.5-0.8,1.3-1.5,2.2-2c0.9-0.5,1.9-0.8,3.1-0.8c1.3,0,2.3,0.3,3.1,0.8c0.8,0.5,1.4,1.3,1.7,2.2c1.4-2,3.1-3,5.3-3   c1.7,0,3,0.5,3.9,1.4c0.9,0.9,1.4,2.4,1.4,4.4v11.8h-2.9v-10.9c0-1.2-0.1-2-0.3-2.5c-0.2-0.5-0.5-0.9-1-1.2   c-0.5-0.3-1.1-0.5-1.8-0.5c-1.2,0-2.2,0.4-3,1.2c-0.8,0.8-1.2,2.1-1.2,3.9v10h-2.9v-11.2c0-1.3-0.2-2.3-0.7-2.9   c-0.5-0.6-1.3-1-2.3-1c-0.8,0-1.6,0.2-2.3,0.6c-0.7,0.4-1.2,1.1-1.5,1.9c-0.3,0.8-0.5,2-0.5,3.6v9L642.9,276.5L642.9,276.5z    M683.1,270.9l3,0.4c-0.5,1.8-1.4,3.1-2.7,4.1c-1.3,1-2.9,1.5-4.9,1.5c-2.5,0-4.5-0.8-6-2.3c-1.5-1.6-2.2-3.7-2.2-6.5   c0-2.9,0.7-5.2,2.2-6.8c1.5-1.6,3.4-2.4,5.8-2.4c2.3,0,4.2,0.8,5.7,2.4c1.5,1.6,2.2,3.8,2.2,6.6c0,0.2,0,0.4,0,0.8h-12.9   c0.1,1.9,0.7,3.3,1.6,4.4c1,1,2.2,1.5,3.6,1.5c1.1,0,2-0.3,2.7-0.8C682.1,273,682.7,272.1,683.1,270.9L683.1,270.9z M673.5,266.2   h9.6c-0.1-1.5-0.5-2.5-1.1-3.3c-0.9-1.1-2.1-1.7-3.6-1.7c-1.3,0-2.5,0.4-3.4,1.3C674.1,263.5,673.6,264.7,673.5,266.2z    M690.5,276.5v-17.3h2.6v2.5c1.3-1.9,3.1-2.8,5.5-2.8c1,0,2,0.2,2.9,0.6c0.9,0.4,1.5,0.9,2,1.5c0.4,0.6,0.7,1.3,0.9,2.2   c0.1,0.5,0.2,1.5,0.2,2.8v10.6h-2.9V266c0-1.2-0.1-2.1-0.3-2.7c-0.2-0.6-0.6-1.1-1.2-1.4c-0.6-0.4-1.3-0.5-2-0.5   c-1.2,0-2.3,0.4-3.2,1.2c-0.9,0.8-1.4,2.3-1.4,4.5v9.4L690.5,276.5L690.5,276.5z M716.1,273.8l0.4,2.6c-0.8,0.2-1.6,0.3-2.2,0.3   c-1.1,0-1.9-0.2-2.5-0.5c-0.6-0.3-1-0.8-1.2-1.3c-0.2-0.5-0.4-1.7-0.4-3.4v-9.9h-2.1v-2.3h2.1v-4.3l2.9-1.8v6h2.9v2.3h-2.9v10.1   c0,0.8,0,1.4,0.2,1.6c0.1,0.2,0.3,0.4,0.5,0.6c0.2,0.1,0.6,0.2,1,0.2C715.1,274,715.6,273.9,716.1,273.8L716.1,273.8z M730,276.5   v-23.8h9c1.6,0,2.8,0.1,3.6,0.2c1.2,0.2,2.1,0.6,2.9,1.1c0.8,0.5,1.4,1.3,1.9,2.3c0.5,1,0.7,2.1,0.7,3.2c0,2-0.6,3.7-1.9,5.1   c-1.3,1.4-3.6,2.1-7,2.1h-6.1v9.7L730,276.5L730,276.5z M733.1,264h6.2c2,0,3.5-0.4,4.3-1.1c0.9-0.8,1.3-1.8,1.3-3.2   c0-1-0.3-1.9-0.8-2.6c-0.5-0.7-1.2-1.2-2-1.4c-0.5-0.1-1.5-0.2-2.9-0.2h-6.1L733.1,264L733.1,264z M752.5,276.5v-17.3h2.6v2.6   c0.7-1.2,1.3-2,1.9-2.4c0.6-0.4,1.2-0.6,1.9-0.6c1,0,2,0.3,3,0.9l-1,2.7c-0.7-0.4-1.4-0.6-2.1-0.6c-0.6,0-1.2,0.2-1.7,0.6   c-0.5,0.4-0.9,0.9-1.1,1.6c-0.3,1-0.5,2.2-0.5,3.4v9L752.5,276.5L752.5,276.5z M763.2,267.8c0-3.2,0.9-5.6,2.7-7.1   c1.5-1.3,3.3-1.9,5.4-1.9c2.4,0,4.3,0.8,5.8,2.3c1.5,1.6,2.3,3.7,2.3,6.4c0,2.2-0.3,4-1,5.2c-0.7,1.3-1.7,2.3-2.9,3   c-1.3,0.7-2.7,1.1-4.2,1.1c-2.4,0-4.4-0.8-5.9-2.3C763.9,273,763.2,270.7,763.2,267.8L763.2,267.8z M766.2,267.8   c0,2.2,0.5,3.9,1.4,5c1,1.1,2.2,1.6,3.6,1.6c1.4,0,2.7-0.5,3.6-1.6c1-1.1,1.4-2.8,1.4-5.1c0-2.1-0.5-3.8-1.5-4.9   c-1-1.1-2.2-1.6-3.6-1.6c-1.5,0-2.7,0.5-3.6,1.6C766.7,264,766.2,265.6,766.2,267.8L766.2,267.8z M779.7,283.2l0.6-2.5   c0.6,0.2,1,0.2,1.4,0.2c0.6,0,1-0.2,1.3-0.6c0.3-0.4,0.4-1.4,0.4-3v-18.1h2.9v18.2c0,2.1-0.3,3.6-0.8,4.4c-0.7,1.1-1.9,1.6-3.5,1.6   C781.3,283.5,780.5,283.4,779.7,283.2z M783.4,256v-3.4h2.9v3.4H783.4z M803.4,270.9l3,0.4c-0.5,1.8-1.4,3.1-2.6,4.1   c-1.3,1-2.9,1.5-4.9,1.5c-2.5,0-4.5-0.8-6-2.3c-1.5-1.6-2.2-3.7-2.2-6.5c0-2.9,0.7-5.2,2.2-6.8c1.5-1.6,3.4-2.4,5.8-2.4   c2.3,0,4.2,0.8,5.7,2.4c1.5,1.6,2.2,3.8,2.2,6.6c0,0.2,0,0.4,0,0.8h-12.9c0.1,1.9,0.6,3.3,1.6,4.4c1,1,2.2,1.5,3.6,1.5   c1.1,0,2-0.3,2.7-0.8C802.3,273,802.9,272.1,803.4,270.9L803.4,270.9z M793.8,266.2h9.6c-0.1-1.5-0.5-2.5-1.1-3.3   c-0.9-1.1-2.1-1.7-3.6-1.7c-1.3,0-2.5,0.4-3.4,1.3C794.4,263.5,793.9,264.7,793.8,266.2z M822,270.1l2.9,0.4   c-0.3,2-1.1,3.5-2.4,4.7c-1.3,1.1-2.9,1.7-4.8,1.7c-2.4,0-4.3-0.8-5.7-2.3c-1.4-1.5-2.2-3.8-2.2-6.6c0-1.9,0.3-3.5,0.9-4.9   c0.6-1.4,1.6-2.4,2.8-3.1c1.3-0.7,2.7-1.1,4.1-1c1.9,0,3.4,0.5,4.6,1.4c1.2,0.9,2,2.3,2.3,4l-2.8,0.4c-0.3-1.2-0.8-2-1.4-2.6   c-0.7-0.6-1.5-0.9-2.5-0.9c-1.5,0-2.7,0.5-3.6,1.6c-0.9,1.1-1.4,2.7-1.4,5c0,2.3,0.4,4,1.3,5.1c0.9,1.1,2,1.6,3.5,1.6   c1.1,0,2.1-0.4,2.9-1.1C821.3,272.7,821.8,271.6,822,270.1L822,270.1z M834.5,273.8l0.4,2.6c-0.8,0.2-1.6,0.3-2.2,0.3   c-1.1,0-1.9-0.2-2.5-0.5c-0.6-0.3-1-0.8-1.2-1.3c-0.2-0.5-0.4-1.7-0.4-3.4v-9.9h-2.1v-2.3h2.1v-4.3l2.9-1.8v6h2.9v2.3h-2.9v10.1   c0,0.8,0,1.4,0.2,1.6c0.1,0.2,0.3,0.4,0.5,0.6c0.2,0.1,0.6,0.2,1,0.2C833.5,274,833.9,273.9,834.5,273.8z" fill="#61853F"  />
	
</g><path d="M68.9,68.9h68.9V0H0v137.9h68.9V68.9z" fill="#A5BA84"  /><path d="M81,81h113.7v113.7H81V81z" fill="#61853F"  /><path d="M206.8,137.9v68.9h-75v68.9h137.9V137.9H206.8z" fill="#A5BA84"  /></svg>