<svg viewBox="0 0 1232 283.5" role="img" aria-labelledby="cohorts-routine--title" xmlns="http://www.w3.org/2000/svg" xmlns:xlink="http://www.w3.org/1999/xlink"><title id="cohorts-routine--title">Analysis of Cohorts and Routine Data</title><path d="M1232,209c0,40.1-32.5,72.6-72.6,72.6H384.6c-40.1,0-72.6-32.5-72.6-72.6V74.5c0-40.1,32.5-72.6,72.6-72.6  h774.8c40.1,0,72.6,32.5,72.6,72.6V209z" fill="#4E3E7F"  /><g><path d="M387.4,60.7h11.9l23.8,61.8h-12.2l-4.8-12.7h-25.2l-5,12.7h-12.2L387.4,60.7L387.4,60.7z M393.4,77.1   l-8.3,21.2h16.5C401.7,98.3,393.4,77.1,393.4,77.1z M432.7,76.8h11.5v4.7c2.6-2.2,5-3.7,7.1-4.6c2.1-0.8,4.3-1.3,6.5-1.3   c4.5,0,8.4,1.6,11.5,4.7c2.7,2.7,4,6.7,4,11.9v30.2h-11.3v-20c0-5.5-0.2-9.1-0.7-10.9c-0.5-1.8-1.3-3.2-2.6-4.1   c-1.2-0.9-2.7-1.4-4.5-1.4c-2.3,0-4.3,0.8-6,2.3c-1.7,1.6-2.8,3.7-3.5,6.4c-0.3,1.4-0.5,4.5-0.5,9.3v18.3h-11.5   C432.7,122.5,432.7,76.8,432.7,76.8z M519.8,76.8h11.5v45.7h-11.5v-4.8c-2.2,2.1-4.5,3.7-6.7,4.6c-2.3,0.9-4.7,1.4-7.3,1.4   c-5.9,0-11-2.3-15.3-6.9c-4.3-4.6-6.5-10.3-6.5-17.1c0-7.1,2.1-12.8,6.3-17.4c4.2-4.5,9.2-6.8,15.2-6.8c2.7,0,5.3,0.5,7.7,1.6   c2.4,1,4.6,2.6,6.7,4.7L519.8,76.8L519.8,76.8z M507.7,86.2c-3.5,0-6.5,1.3-8.8,3.8c-2.3,2.5-3.5,5.7-3.5,9.6c0,4,1.2,7.2,3.6,9.8   c2.4,2.5,5.3,3.8,8.8,3.8c3.6,0,6.6-1.3,9-3.8c2.4-2.5,3.6-5.8,3.6-9.9c0-4-1.2-7.2-3.6-9.7C514.3,87.4,511.3,86.2,507.7,86.2z    M543.3,59.1h11.5v63.4h-11.5V59.1z M561.8,76.8h11.7l11.9,28.7l13.1-28.7h11.8l-28.6,62.4h-11.8l9.4-20.1L561.8,76.8L561.8,76.8z    M646.5,83.2l-7.1,7.1c-2.9-2.9-5.5-4.3-7.9-4.3c-1.3,0-2.3,0.3-3,0.8c-0.7,0.5-1.1,1.2-1.1,2c0,0.6,0.2,1.2,0.7,1.7   c0.5,0.5,1.6,1.2,3.4,2.1l4.2,2.1c4.4,2.2,7.5,4.4,9.1,6.7c1.7,2.3,2.5,4.9,2.5,8c0,4.1-1.5,7.5-4.5,10.2c-3,2.7-7,4.1-12,4.1   c-6.7,0-12-2.6-16-7.8l7.1-7.7c1.3,1.6,2.9,2.8,4.7,3.8c1.8,1,3.4,1.5,4.8,1.5c1.5,0,2.7-0.4,3.7-1.1c0.9-0.7,1.4-1.6,1.4-2.5   c0-1.8-1.7-3.5-5-5.2l-3.9-1.9c-7.4-3.7-11.1-8.4-11.1-14c0-3.6,1.4-6.7,4.2-9.3c2.8-2.6,6.4-3.8,10.7-3.8c3,0,5.8,0.6,8.4,2   C642.5,78.9,644.7,80.7,646.5,83.2L646.5,83.2z M662.6,58c2,0,3.7,0.7,5.2,2.2c1.4,1.5,2.2,3.2,2.2,5.3c0,2-0.7,3.8-2.1,5.2   c-1.4,1.4-3.1,2.2-5.1,2.2c-2,0-3.8-0.7-5.2-2.2c-1.4-1.5-2.2-3.3-2.2-5.4c0-2,0.7-3.7,2.1-5.2C658.9,58.7,660.6,58,662.6,58z    M656.9,76.8h11.5v45.7h-11.5V76.8z M708.5,83.2l-7.1,7.1c-2.9-2.9-5.5-4.3-7.9-4.3c-1.3,0-2.3,0.3-3,0.8c-0.7,0.5-1.1,1.2-1.1,2   c0,0.6,0.2,1.2,0.7,1.7c0.5,0.5,1.6,1.2,3.4,2.1l4.2,2.1c4.4,2.2,7.5,4.4,9.1,6.7c1.7,2.3,2.5,4.9,2.5,8c0,4.1-1.5,7.5-4.5,10.2   c-3,2.7-7,4.1-12,4.1c-6.7,0-12-2.6-16-7.8l7.1-7.7c1.3,1.6,2.9,2.8,4.7,3.8c1.8,1,3.4,1.5,4.8,1.5c1.5,0,2.7-0.4,3.7-1.1   c0.9-0.7,1.4-1.6,1.4-2.5c0-1.8-1.7-3.5-5-5.2l-3.9-1.9c-7.4-3.7-11.1-8.4-11.1-14c0-3.6,1.4-6.7,4.2-9.3c2.8-2.6,6.4-3.8,10.7-3.8   c3,0,5.8,0.6,8.4,2C704.4,78.9,706.6,80.7,708.5,83.2L708.5,83.2z M767.3,75.6c4.3,0,8.4,1.1,12.2,3.2c3.8,2.2,6.8,5.1,8.9,8.8   c2.1,3.6,3.2,7.8,3.2,12c0,4.3-1.1,8.3-3.2,12.1c-2.1,3.8-5.1,6.7-8.8,8.8c-3.7,2.1-7.8,3.2-12.2,3.2c-6.6,0-12.2-2.3-16.8-7   c-4.6-4.7-7-10.3-7-17c0-7.1,2.6-13.1,7.9-17.9C756.1,77.7,761.4,75.6,767.3,75.6L767.3,75.6z M767.5,86.4c-3.6,0-6.5,1.2-8.9,3.7   c-2.4,2.5-3.6,5.6-3.6,9.5c0,4,1.2,7.2,3.5,9.7c2.3,2.5,5.3,3.7,8.9,3.7c3.6,0,6.6-1.2,9-3.7c2.4-2.5,3.6-5.7,3.6-9.6   c0-3.9-1.2-7.1-3.5-9.6C774.2,87.6,771.2,86.4,767.5,86.4z M797.2,76.8h4.1c0-6,0.1-9.5,0.3-10.6c0.3-2.5,1.4-4.5,3.2-6   c1.8-1.5,4.4-2.2,7.7-2.2c2.4,0,5.1,0.5,8.1,1.6v8.7c-1.7-0.5-3-0.7-4.1-0.7c-1.3,0-2.3,0.3-2.9,0.8c-0.5,0.4-0.7,1.3-0.7,2.6   l0,5.7h7.3v9.7h-7.3v36h-11.5v-36h-4.1L797.2,76.8C797.2,76.8,797.2,76.8,797.2,76.8z M912.4,71.6l-8.2,7.8   c-5.6-5.9-11.9-8.9-18.9-8.9c-5.9,0-10.9,2-14.9,6.1c-4,4-6.1,9-6.1,14.9c0,4.1,0.9,7.8,2.7,11c1.8,3.2,4.3,5.7,7.6,7.5   c3.3,1.8,6.9,2.7,10.9,2.7c3.4,0,6.5-0.6,9.4-1.9s5.9-3.6,9.3-7l8,8.3c-4.6,4.5-8.9,7.5-12.9,9.3c-4.1,1.7-8.7,2.6-13.9,2.6   c-9.6,0-17.5-3-23.6-9.1c-6.1-6.1-9.2-13.9-9.2-23.4c0-6.2,1.4-11.6,4.2-16.4c2.8-4.8,6.8-8.6,12-11.6c5.2-2.9,10.8-4.4,16.8-4.4   c5.1,0,10,1.1,14.7,3.2C904.9,64.5,908.9,67.6,912.4,71.6z M944.6,75.6c4.3,0,8.4,1.1,12.2,3.2c3.8,2.2,6.8,5.1,8.9,8.8   c2.1,3.6,3.2,7.8,3.2,12c0,4.2-1.1,8.4-3.2,12.1c-2.1,3.8-5.1,6.7-8.8,8.8c-3.7,2.1-7.8,3.2-12.2,3.2c-6.6,0-12.1-2.3-16.8-7   c-4.6-4.7-7-10.3-7-17c0-7.1,2.6-13.1,7.9-17.9C933.3,77.7,938.6,75.6,944.6,75.6L944.6,75.6z M944.8,86.4c-3.6,0-6.5,1.2-8.9,3.7   c-2.4,2.5-3.6,5.6-3.6,9.5c0,4,1.2,7.2,3.5,9.7c2.3,2.5,5.3,3.7,8.9,3.7c3.6,0,6.6-1.2,9-3.7c2.4-2.5,3.6-5.7,3.6-9.6   c0-3.9-1.2-7.1-3.5-9.6C951.4,87.6,948.4,86.4,944.8,86.4L944.8,86.4z M980,59.1h11.4v22.3c2.2-1.9,4.5-3.4,6.8-4.3   c2.3-1,4.6-1.4,6.9-1.4c4.5,0,8.4,1.6,11.5,4.7c2.7,2.7,4,6.7,4,12v30.2h-11.3v-20c0-5.3-0.3-8.9-0.8-10.8   c-0.5-1.9-1.4-3.3-2.6-4.2c-1.2-0.9-2.7-1.4-4.5-1.4c-2.3,0-4.3,0.8-6,2.3c-1.7,1.5-2.8,3.6-3.5,6.3c-0.3,1.4-0.5,4.5-0.5,9.4v18.4   H980C980,122.5,980,59.1,980,59.1z M1054.8,75.6c4.3,0,8.4,1.1,12.2,3.2c3.8,2.2,6.8,5.1,8.9,8.8c2.1,3.6,3.2,7.8,3.2,12   c0,4.3-1.1,8.3-3.2,12.1c-2.1,3.8-5.1,6.7-8.8,8.8c-3.7,2.1-7.8,3.2-12.2,3.2c-6.6,0-12.1-2.3-16.8-7c-4.6-4.7-7-10.3-7-17   c0-7.1,2.6-13.1,7.9-17.9C1043.5,77.7,1048.8,75.6,1054.8,75.6z M1054.9,86.4c-3.6,0-6.5,1.2-8.9,3.7c-2.4,2.5-3.6,5.6-3.6,9.5   c0,4,1.2,7.2,3.5,9.7c2.3,2.5,5.3,3.7,8.9,3.7c3.6,0,6.6-1.2,9-3.7c2.4-2.5,3.6-5.7,3.6-9.6c0-3.9-1.2-7.1-3.5-9.6   C1061.6,87.6,1058.6,86.4,1054.9,86.4L1054.9,86.4z M1087.4,76.8h9.8v5.8c1.1-2.3,2.5-4,4.2-5.2c1.7-1.2,3.7-1.8,5.8-1.8   c1.5,0,3,0.4,4.7,1.2l-3.6,9.9c-1.3-0.7-2.5-1-3.3-1c-1.8,0-3.3,1.1-4.5,3.3c-1.2,2.2-1.8,6.5-1.8,12.9l0,2.2v18.5h-11.4   L1087.4,76.8L1087.4,76.8L1087.4,76.8z M1120.7,59.9h11.5v16.9h6.8v9.9h-6.8v35.8h-11.5V86.7h-5.9v-9.9h5.9V59.9z M1174.8,83.2   l-7.1,7.1c-2.9-2.9-5.5-4.3-7.9-4.3c-1.3,0-2.3,0.3-3,0.8c-0.7,0.5-1.1,1.2-1.1,2c0,0.6,0.2,1.2,0.7,1.7c0.5,0.5,1.6,1.2,3.4,2.1   l4.2,2.1c4.4,2.2,7.5,4.4,9.1,6.7c1.7,2.3,2.5,4.9,2.5,8c0,4.1-1.5,7.5-4.5,10.2c-3,2.7-7,4.1-12,4.1c-6.7,0-12-2.6-16-7.8l7.1-7.7   c1.3,1.6,2.9,2.8,4.7,3.8c1.8,1,3.4,1.5,4.8,1.5c1.5,0,2.7-0.4,3.6-1.1c0.9-0.7,1.4-1.6,1.4-2.5c0-1.8-1.7-3.5-5-5.2l-3.9-1.9   c-7.4-3.7-11.1-8.4-11.1-14c0-3.6,1.4-6.7,4.2-9.3c2.8-2.6,6.3-3.8,10.7-3.8c3,0,5.8,0.6,8.4,2C1170.8,78.9,1173,80.7,1174.8,83.2   L1174.8,83.2z" fill="#FFFFFF"  /><g><path d="M416.5,171.8H428v45.7h-11.5v-4.8c-2.2,2.1-4.5,3.7-6.7,4.6c-2.3,0.9-4.7,1.4-7.3,1.4    c-5.9,0-11-2.3-15.3-6.9c-4.3-4.6-6.5-10.3-6.5-17.1c0-7.1,2.1-12.8,6.3-17.4c4.2-4.5,9.2-6.8,15.2-6.8c2.7,0,5.3,0.5,7.7,1.6    c2.4,1,4.6,2.6,6.7,4.7L416.5,171.8L416.5,171.8z M404.4,181.3c-3.5,0-6.5,1.3-8.8,3.8c-2.3,2.5-3.5,5.7-3.5,9.6    c0,4,1.2,7.2,3.6,9.7c2.4,2.5,5.3,3.8,8.8,3.8c3.6,0,6.6-1.3,9-3.8c2.4-2.5,3.6-5.8,3.6-9.9c0-4-1.2-7.2-3.6-9.7    C411.1,182.5,408.1,181.3,404.4,181.3L404.4,181.3z M441.3,171.8h11.5v4.7c2.6-2.2,5-3.7,7.1-4.6c2.1-0.8,4.3-1.3,6.5-1.3    c4.5,0,8.4,1.6,11.5,4.7c2.7,2.7,4,6.7,4,11.9v30.2h-11.3v-20c0-5.5-0.2-9.1-0.7-10.9c-0.5-1.8-1.3-3.2-2.6-4.1    c-1.2-0.9-2.7-1.4-4.5-1.4c-2.3,0-4.3,0.8-6,2.3c-1.7,1.6-2.8,3.7-3.5,6.4c-0.3,1.4-0.5,4.5-0.5,9.3v18.3h-11.5L441.3,171.8    L441.3,171.8L441.3,171.8z M528.4,154.2h11.5v63.4h-11.5v-4.8c-2.2,2.1-4.5,3.7-6.7,4.6c-2.3,0.9-4.7,1.4-7.3,1.4    c-5.9,0-11-2.3-15.3-6.9c-4.3-4.6-6.5-10.3-6.5-17.1c0-7.1,2.1-12.8,6.3-17.4c4.2-4.5,9.2-6.8,15.2-6.8c2.7,0,5.3,0.5,7.7,1.6    c2.4,1,4.6,2.6,6.7,4.7L528.4,154.2L528.4,154.2L528.4,154.2z M516.3,181.3c-3.5,0-6.5,1.3-8.8,3.8c-2.3,2.5-3.5,5.7-3.5,9.6    c0,4,1.2,7.2,3.6,9.7c2.4,2.5,5.3,3.8,8.8,3.8c3.6,0,6.6-1.3,9-3.8c2.4-2.5,3.6-5.8,3.6-9.9c0-4-1.2-7.2-3.6-9.7    C522.9,182.5,520,181.3,516.3,181.3L516.3,181.3z M600.8,155.8h12.5c6.8,0,11.7,0.6,14.6,1.8c2.9,1.2,5.2,3.2,7,6.1    c1.8,2.8,2.6,6.2,2.6,10c0,4.1-1,7.5-2.9,10.2c-1.9,2.7-4.9,4.8-8.8,6.2l14.6,27.5h-12.9l-13.9-26.2h-1.1v26.2h-11.8L600.8,155.8    L600.8,155.8L600.8,155.8z M612.6,179.9h3.7c3.7,0,6.3-0.5,7.7-1.5c1.4-1,2.1-2.6,2.1-4.9c0-1.3-0.4-2.5-1.1-3.5    c-0.7-1-1.7-1.7-2.8-2.1c-1.2-0.4-3.3-0.7-6.5-0.7h-3.2L612.6,179.9L612.6,179.9L612.6,179.9L612.6,179.9z M671.9,170.7    c4.3,0,8.4,1.1,12.2,3.2c3.8,2.2,6.8,5.1,8.9,8.8c2.1,3.6,3.2,7.8,3.2,12c0,4.3-1.1,8.3-3.2,12.1c-2.1,3.8-5.1,6.7-8.8,8.8    c-3.7,2.1-7.8,3.2-12.2,3.2c-6.6,0-12.1-2.3-16.8-7c-4.6-4.7-6.9-10.3-6.9-17c0-7.1,2.6-13.1,7.9-17.9    C660.6,172.7,665.9,170.7,671.9,170.7L671.9,170.7z M672.1,181.5c-3.6,0-6.5,1.2-8.9,3.7c-2.4,2.5-3.6,5.7-3.6,9.5    c0,4,1.2,7.2,3.5,9.7c2.3,2.5,5.3,3.7,8.9,3.7c3.6,0,6.6-1.3,9-3.7c2.4-2.5,3.6-5.7,3.6-9.6c0-3.9-1.2-7.1-3.5-9.6    C678.7,182.7,675.7,181.5,672.1,181.5L672.1,181.5z M707.2,171.8h11.6v22c0,4.3,0.3,7.3,0.9,8.9c0.6,1.7,1.5,3,2.8,3.9    c1.3,0.9,2.9,1.4,4.8,1.4c1.9,0,3.5-0.5,4.9-1.4c1.3-0.9,2.3-2.2,3-4c0.5-1.3,0.7-4.1,0.7-8.4v-22.4h11.5v19.4    c0,8-0.6,13.4-1.9,16.4c-1.5,3.6-3.8,6.3-6.8,8.3c-3,1.9-6.8,2.9-11.4,2.9c-5,0-9.1-1.1-12.2-3.4c-3.1-2.2-5.3-5.4-6.5-9.4    c-0.9-2.8-1.3-7.8-1.3-15.1L707.2,171.8L707.2,171.8z M762,155h11.5v16.9h6.8v9.9h-6.8v35.8H762v-35.8h-5.9v-9.9h5.9V155L762,155z     M792.6,153c2,0,3.7,0.7,5.2,2.2c1.4,1.5,2.2,3.2,2.2,5.3c0,2-0.7,3.8-2.1,5.2c-1.4,1.4-3.1,2.2-5.1,2.2c-2,0-3.8-0.7-5.2-2.2    c-1.4-1.5-2.2-3.3-2.2-5.4c0-2,0.7-3.7,2.1-5.2C788.8,153.7,790.6,153,792.6,153L792.6,153z M786.8,171.8h11.5v45.7h-11.5V171.8z     M810.5,171.8h11.5v4.7c2.6-2.2,5-3.7,7.1-4.6c2.1-0.8,4.3-1.3,6.5-1.3c4.5,0,8.4,1.6,11.5,4.7c2.7,2.7,4,6.7,4,11.9v30.2h-11.3    v-20c0-5.5-0.2-9.1-0.7-10.9c-0.5-1.8-1.3-3.2-2.6-4.1c-1.2-0.9-2.7-1.4-4.5-1.4c-2.3,0-4.3,0.8-6,2.3c-1.7,1.6-2.8,3.7-3.5,6.4    c-0.3,1.4-0.5,4.5-0.5,9.3v18.3h-11.5L810.5,171.8L810.5,171.8L810.5,171.8z M909.6,198h-36.9c0.5,3.3,2,5.8,4.3,7.8    c2.3,1.9,5.3,2.9,8.8,2.9c4.3,0,8-1.5,11-4.5l9.7,4.5c-2.4,3.4-5.3,5.9-8.7,7.6c-3.4,1.6-7.4,2.5-12,2.5c-7.2,0-13-2.3-17.5-6.8    c-4.5-4.5-6.8-10.2-6.8-17c0-7,2.3-12.8,6.8-17.4c4.5-4.6,10.1-6.9,16.9-6.9c7.2,0,13.1,2.3,17.6,6.9c4.5,4.6,6.8,10.7,6.8,18.3    L909.6,198L909.6,198z M898.1,189c-0.8-2.5-2.3-4.6-4.5-6.2c-2.2-1.6-4.8-2.4-7.8-2.4c-3.2,0-6,0.9-8.4,2.7    c-1.5,1.1-2.9,3.1-4.2,5.9H898.1L898.1,189z M967.5,155.8h13.9c9,0,15.7,1.1,20,3.3c4.4,2.2,8,5.8,10.8,10.9    c2.8,5,4.2,10.9,4.2,17.6c0,4.8-0.8,9.1-2.4,13.1c-1.6,4-3.8,7.3-6.6,9.9c-2.8,2.6-5.8,4.4-9,5.5c-3.2,1-8.9,1.5-16.9,1.5h-14.2    L967.5,155.8L967.5,155.8z M979.2,167.1v39h5.5c5.4,0,9.3-0.6,11.7-1.9c2.4-1.2,4.4-3.3,5.9-6.2c1.5-2.9,2.3-6.5,2.3-10.8    c0-6.6-1.8-11.7-5.5-15.3c-3.3-3.3-8.6-4.9-15.9-4.9L979.2,167.1L979.2,167.1z M1061.9,171.8h11.5v45.7h-11.5v-4.8    c-2.2,2.1-4.5,3.7-6.7,4.6c-2.3,0.9-4.7,1.4-7.3,1.4c-5.9,0-11-2.3-15.3-6.9c-4.3-4.6-6.5-10.3-6.5-17.1c0-7.1,2.1-12.8,6.3-17.4    c4.2-4.5,9.2-6.8,15.2-6.8c2.7,0,5.3,0.5,7.7,1.6c2.4,1,4.6,2.6,6.7,4.7L1061.9,171.8L1061.9,171.8z M1049.9,181.3    c-3.5,0-6.5,1.3-8.8,3.8c-2.3,2.5-3.5,5.7-3.5,9.6c0,4,1.2,7.2,3.6,9.7c2.4,2.5,5.3,3.8,8.8,3.8c3.6,0,6.6-1.3,9-3.8    c2.4-2.5,3.6-5.8,3.6-9.9c0-4-1.2-7.2-3.6-9.7C1056.5,182.5,1053.5,181.3,1049.9,181.3L1049.9,181.3z M1088.1,155h11.5v16.9h6.8    v9.9h-6.8v35.8h-11.5v-35.8h-5.9v-9.9h5.9V155L1088.1,155z M1148,171.8h11.5v45.7H1148v-4.8c-2.2,2.1-4.5,3.7-6.7,4.6    s-4.7,1.4-7.3,1.4c-5.9,0-11-2.3-15.3-6.9c-4.3-4.6-6.5-10.3-6.5-17.1c0-7.1,2.1-12.8,6.3-17.4c4.2-4.5,9.2-6.8,15.2-6.8    c2.7,0,5.3,0.5,7.7,1.6c2.4,1,4.6,2.6,6.7,4.7L1148,171.8L1148,171.8z M1135.9,181.3c-3.5,0-6.5,1.3-8.8,3.8    c-2.4,2.5-3.5,5.7-3.5,9.6c0,4,1.2,7.2,3.6,9.7c2.4,2.5,5.3,3.8,8.8,3.8c3.6,0,6.6-1.3,9-3.8c2.4-2.5,3.6-5.8,3.6-9.9    c0-4-1.2-7.2-3.6-9.7C1142.6,182.5,1139.6,181.3,1135.9,181.3L1135.9,181.3z" fill="#FFFFFF"  />
		
	</g>
	
	
</g><path d="M209,283.5H74.5C33.4,283.5,0,250.1,0,209V74.5C0,33.4,33.4,0,74.5,0H209c41.1,0,74.5,33.4,74.5,74.5V209  C283.5,250.1,250.1,283.5,209,283.5z M74.5,3.7c-39,0-70.7,31.7-70.7,70.7V209c0,39,31.7,70.7,70.7,70.7H209  c39,0,70.7-31.7,70.7-70.7V74.5c0-39-31.7-70.7-70.7-70.7C209,3.7,74.5,3.7,74.5,3.7z" fill="#8C3B7D"  /><path d="M259.2,144.6C237.8,187.1,192.8,247,107,254.1c0,0-90.8,8.2-78.9-54.9c0,0,9.7-46.5,70.3-17.8  c0,0,86.5,43.4,153.6-41.5c0,0,2.8-4,6.2-1.6C258.2,138.2,261.3,140.5,259.2,144.6z" fill="#4E3E7F"  /><path d="M116.2,166.6c55.1,4.9,70.5-40.3,70.5-40.3c9.5-25.3,36.9-22.3,36.9-22.3c38.7,7.4-10.1,51.7-10.1,51.7  c-35,28.4-75,23.3-99.4,15.9c0,0-3.1-0.7-2.7-3.1C111.4,168.5,111.6,165.6,116.2,166.6L116.2,166.6z M247.8,57.6  c3.2,16-7.2,31.6-23.2,34.8c-16,3.2-31.6-7.1-34.8-23.2c-3.2-16,7.1-31.6,23.1-34.8C229,31.2,244.6,41.6,247.8,57.6L247.8,57.6z" fill="#8C3B7D"  /><path d="M176.3,79.6c6.6,32.8-14.6,64.6-47.3,71.3c-32.7,6.6-64.6-14.6-71.2-47.4c-6.6-32.7,14.6-64.6,47.3-71.2  C137.8,25.7,169.7,46.9,176.3,79.6z" fill="#4E3E7F"  /><path d="M78.2,182.4c-11.8-3.7-23.5-1.8-28.4,1.9c5.8-1.9,16.2-2.4,27.6,1.2c11.3,3.1,20.9,8.1,27.1,8.8  C99,191.8,90.2,185.7,78.2,182.4z M228.4,109.5c-5-2.1-10-1.1-12.2,0c2.7,0.5,6.8,0.6,11.2,2.5c4.6,1.5,6.3,4.9,6.5,7.8  C235.6,117.7,234,111.1,228.4,109.5z M233.4,42.1c-7.4-4.9-15.7-4.1-19.5-2.6c4.2,0.1,11.4,0.5,18,4.8c6.6,4.4,9.7,10.9,11.4,14.7  C243.3,55,240.8,47,233.4,42.1z M146.8,46.7c-15.2-10.2-32.3-8.9-40.1-5.7c8.5-0.4,23.8,0.3,37.6,9.5c13.9,9.1,20.5,22.9,23.4,30.9  C167.5,73,162.1,56.7,146.8,46.7z" fill="#FFFFFF"  /><path d="M961,1.9L846.7,267.3L760.6,38.2c-0.4-1.1-1.3-1.9-2.5-2.2  c-1.1-0.3-2.3,0-3.2,0.7l-91.9,78L592.1,1.9h-8.5l75.5,120.2c0.5,0.9,1.5,1.5,2.5,1.6c1,0.2,2.1-0.1,2.9-0.8l91.2-77.4l87.4,232.7  c0.5,1.4,1.8,2.3,3.3,2.3c1.3,0,2.8-0.8,3.4-2.2L968.8,1.9L961,1.9z M1232,154.5l-31.2,66.1l-48.9-87.2c-0.7-1.2-2-1.8-3.3-1.8  c-1.4,0.1-2.6,0.9-3.1,2.2l-59.9,144.6L983.3,1.9h-7.6l103.4,279.7h12.8l57.3-138.3l48.6,86.9c0.7,1.2,1.8,2,3.3,1.8  c1.3,0,2.5-0.8,3.1-2l27.7-58.7L1232,154.5L1232,154.5L1232,154.5z" opacity="0.25"  fill="#FFFFFF"  enable-background="new    "  /><g opacity="0.25" ><path d="M725.7,1.9l-88.2,239.7L603,201.4c-0.7-0.9-1.8-1.3-3-1.2c-1.1,0.1-2.2,0.7-2.8,1.6L567,248.6L473.5,49.2   c-0.6-1.2-1.8-2.1-3.2-2.1c-1.2,0.1-2.6,0.8-3.3,2l-83.8,169.5l-30.3-50.4c-1-1.7-3.2-2.2-4.9-1.2c-1.7,1-2.2,3.2-1.2,4.9l33.7,56   c0.7,1.1,1.9,1.9,3.2,1.7c1.3-0.1,2.5-0.8,3.1-2L470.1,59l93.2,198.5c0.6,1.2,1.7,2,3,2.1c0.1,0,0.2,0,0.2,0c1.2,0,2.3-0.6,3-1.6   l31.1-48.2l35.4,41.1c0.8,1,2.1,1.4,3.4,1.2c1.3-0.2,2.3-1.1,2.7-2.3L733.4,1.9L725.7,1.9L725.7,1.9z M1044.4,1.9L928.2,235.8   L841,1.9h-7.6l91.1,244.2c0.5,1.3,1.7,2.2,3.2,2.3c1.4,0,2.8-0.7,3.4-2L1051.4,3.8c0.3-0.6,0.4-1.3,0.3-1.9L1044.4,1.9z" fill="#FFFFFF"  />
	
</g></svg>