<svg viewBox="0 0 586 283.5" role="img" aria-labelledby="elfin--title" xmlns="http://www.w3.org/2000/svg" xmlns:xlink="http://www.w3.org/1999/xlink"><title id="elfin--title">ELFIN</title><path d="M73.9,283.4c-19.7,0-37.1-7.4-51.8-22.1C7.4,246.6,0,229.2,0,209.5c0-19.7,7.4-37.1,22.1-51.8  c14-14,30.5-21.4,49.1-22.1v0h19.5c2.9,0,5.4,1.1,7.5,3.1c2,2.1,3.1,4.6,3.1,7.5c0,2.9-1,5.5-3.1,7.5c-2,2.1-4.6,3.1-7.5,3.1H73.9  c-12.5,0-23.9,4.4-34.1,13.2c-9.3,8-15.2,17.6-17.6,28.7h71c2.9,0,5.4,1.1,7.5,3.1c2,2.1,3.1,4.6,3.1,7.5c0,2.9-1,5.5-3.1,7.5  c-2,2.1-4.6,3.1-7.5,3.1h-71C24.9,231.3,30.8,241,40,249c10,8.7,21.5,13.2,33.9,13.2h16.5c2.9,0,5.4,1,7.5,3.1c2,2,3.1,4.5,3.1,7.5  c0,2.9-1,5.4-2.9,7.4c-2,2.1-4.4,3.1-7.2,3.1c-2,0-4.8,0.1-8.4,0.2l-0.1,0L73.9,283.4L73.9,283.4L73.9,283.4z" fill="#009486"  /><path d="M584.5,141.5c-7.3-12.8-17.7-22.7-29.7-31.2c-7.3-5.2-15.2-9.5-23.1-13.5c-1.1-0.6-1.8-0.8-2.1-0.8  c0-0.1-0.1-0.2-0.1-0.3c-0.8-1.4-1.4-2.8-2-4.2c-1.2-2.7-2-5.6-2.9-8.4c-4-13.2-5.2-27.2-4.7-41c0.2-5.5,0.9-10.9,2.3-16.2  c0.8-2.8,0.8-2.8,1.8-4.8c0.1-0.2,0.5-0.8,0.8-1.2c0.1-0.1,0.3-0.1,0.5-0.2c11.6-5.5,2.9-21.6-8.2-19.5c-24.3,4.5-45,22.6-62.3,39.2  c-17.7,17-33.4,35.9-49.6,54.4c-7.7,0-15.5,0-23.2,0c-13.8,0-13.8,21.3,0,21.3c6.8,0,13.6,0,20.4,0c4.2,0,9.2,0.8,12.9-1.4  c3-1.8,5.3-5.2,7.6-7.9c10.2-11.7,20.3-23.5,30.9-34.9c13-14,28.2-30.7,45.8-41c-0.1,1-0.3,1.9-0.4,2.8c-2,15.8-0.7,32,2.5,47.6  c1.6,7.7,4.1,14.9,7.2,22.1c1.5,3.6,3.6,8.9,7.4,10.7c5.1,2.5,10.2,5.1,15.1,7.9c13.9,7.8,26.6,17.4,34.6,31.4  C572.9,164.2,591.4,153.4,584.5,141.5L584.5,141.5z M524.5,20.3c0.1-0.1,0.1-0.2,0.2-0.3c0,0,0,0,0.1,0  C524.7,20.1,524.7,20.1,524.5,20.3z" fill="#9DD3CD"  /><path d="M225,265.3c-2.1-2.2-4.6-3.3-7.5-3.3h-75.1v-161c0-3-1-5.5-3.1-7.5c-2.1-2.1-4.6-3.1-7.5-3.1  c-3,0-5.5,1-7.5,3.1c-2.1,2.1-3.1,4.6-3.1,7.5v171.9c0,3,1,5.5,3.1,7.5c2.1,2.1,4.6,3.1,7.5,3.1h85.7c3,0,5.5-1,7.5-3.1  c2.1-2,3.1-4.5,3.1-7.4C228.1,270.1,227,267.5,225,265.3L225,265.3z M356.2,189.2c0,3-1,5.5-3.1,7.6c-2.1,2.1-4.6,3.1-7.5,3.1h-79.2  v72.8c0,3-1,5.5-3.1,7.5c-2.1,2.1-4.6,3.1-7.5,3.1c-3,0-5.4-1.1-7.4-3.2c-2-2.2-3-4.7-3-7.7v-82.9c0-25.8,9.6-48.3,28.9-67.5  c19.3-19.3,41.8-28.9,67.5-28.9h0.2c2.9,0,5.4,1.1,7.5,3.1c2.1,2.1,3.1,4.6,3.1,7.6c0,3-1,5.5-3.1,7.6c-2.1,2.1-4.6,3.1-7.5,3.1  h-0.2c-18.1,0-34.3,6.2-48.8,18.6c-14.5,12.4-23,27.4-25.5,45.1h78.1c2.9,0,5.5,1.1,7.5,3.1C355.1,183.7,356.2,186.3,356.2,189.2  L356.2,189.2z" fill="#009486"  /><path d="M395.3,273.3c0,2.9-1.2,5.3-3.5,7.3c-2.3,1.9-4.9,2.9-7.9,2.9s-5.4-1.1-7.4-3.3c-2-2.2-3-4.8-3-7.7V145.8  c0-2.7,1.1-5.1,3.2-7.1c2.1-2,4.7-3,7.6-3c2.9,0,5.5,1.1,7.7,3.3s3.4,4.8,3.4,7.7L395.3,273.3L395.3,273.3L395.3,273.3z" fill="#9DD3CD"  /><path d="M563.2,272.2c0,2.9-1.1,5.6-3.4,7.8c-2.2,2.3-4.8,3.4-7.7,3.4c-2.9,0-5.4-1-7.6-3c-2.1-2-3.2-4.4-3.2-7.4  v-62.2c0-14.7-5.2-27.4-15.6-37.9c-10.4-10.5-23-15.8-37.7-15.8c-14.9,0-27.6,5.3-38,15.8c-10.4,10.5-15.6,23.1-15.6,37.9v61  c0,3.1-1.1,5.9-3.3,8.1c-2.2,2.3-4.8,3.4-7.7,3.4c-2.9,0-5.4-1-7.6-3.1c-2.1-2.1-3.2-4.6-3.2-7.5v-62.2c0-20.6,7.3-38.3,21.9-52.9  c14.6-14.6,32.3-22,53.2-22c20.7,0,38.4,7.4,53.2,22.1c14.8,14.7,22.2,32.4,22.2,53.1L563.2,272.2L563.2,272.2z" fill="#009486"  /></svg>