<svg viewBox="0 0 1032.4 283.5" width="1032.4" height="283.5" role="img" aria-labelledby="frosttie--title" xmlns="http://www.w3.org/2000/svg" xmlns:xlink="http://www.w3.org/1999/xlink"><title id="frosttie--title">FROSTTIE</title><path d="M38.6,127c9.1,0,16.7,0.9,23,2.3c6.5,1.4,12.8,4,19.6,7.4l6.5-14.2l6.5-14.2H0c2.3,7.9,4,15.6,4.8,23  c0.9,7.4,1.4,16.4,1.4,27.2v72.3c0,11.1-0.3,20.1-1.4,27.8C3.7,266.2,2.3,273,0,280.6h38.3c-2.3-7.7-4-15.3-4.8-22.7  c-0.9-7.4-1.4-16.4-1.4-27.2v-28.9c9.1,0,16.4,0.9,22.7,2.3c6.2,1.4,11.6,3.7,17.6,7.4l7.9-13.9l7.9-13.9H32.3V127  C32.3,127,38.6,127,38.6,127z M198.4,220.8L186,202.4c5.1-2.3,9.4-4.3,13.9-7.4c13-9.1,19.6-20.7,19.6-35.4c0-16.4-6-29.2-17.9-38  c-11.9-8.8-28.6-13.3-51-13.3h-32.3c2.3,7.9,4,15.3,4.8,23c0.9,7.4,1.4,16.4,1.4,27.2v72.3c0,11.1-0.3,20.1-1.4,27.8  c-0.9,7.4-2.6,15-4.8,22.7h38.3c-2.3-7.7-4-15.3-4.8-22.7c-0.9-7.4-1.4-16.4-1.4-27.2v-29.5l4.3,6.8c8.5,12.8,18.4,26.1,30.3,40  c11.9,14.2,22.1,24.7,30.9,32.3h31.7C235,267,225.4,256.3,218,247.5C210.6,238.4,204.1,229.6,198.4,220.8z M178.6,185.1  c-7.4,6-16.4,9.1-27.8,9.9v-70.3c11.6,0.3,21,3.7,28.3,9.1c7.7,6.2,11.6,14.2,11.6,24.4C190.8,169.5,186.8,178.3,178.6,185.1z   M505.4,180c-9.4-6-15.9-11.3-19.6-15.6s-5.4-9.4-5.4-15.3c0-6.5,2.3-11.9,6.8-16.4c4.8-4.3,10.5-6.5,17.9-6.5  c6.2,0,11.6,1.1,17,3.7c5.1,2.6,10.2,6.5,15.3,11.9V112c-4.3-2.3-9.1-4-13.9-5.1c-4.8-1.1-10.5-1.7-16.7-1.7  c-15.6,0-28.3,4.3-38.8,13.3c-10.2,9.1-15.3,20.4-15.3,33.7c0,9.9,2.8,18.4,8.5,25.8c6,7.7,15.3,15.6,29.5,24.4  c9.9,6.2,16.4,11.6,20.1,16.4c3.7,5.1,6,10.5,6,17c0,7.4-2.8,13.3-8.5,18.1c-5.4,4.8-12.8,7.4-21,7.4c-6.8,0-13-1.4-18.4-4.8  c-5.4-3.4-11.3-7.9-16.4-14.5v32.3c7.4,2.8,13.3,5.1,19,6.2c5.4,1.1,11.9,1.7,19.6,1.7c15.3,0,28.1-4.8,38.3-14.2  c10.2-9.4,15.3-21.5,15.3-35.7c0-10.5-2.8-19.6-8.8-27.8C529.5,197.3,519.6,189.4,505.4,180L505.4,180z M568.6,108l-5.1,15l-5.1,15  c8.5-4.3,18.4-7.4,31.2-9.1c6.5-1.1,14.2-1.4,23.2-1.7V231c0,10.2-0.3,19-1.4,26.1c-1.1,7.4-2.6,15.3-5.1,23.5h39.4  c-2.6-8.8-4.3-16.7-5.1-24.1c-1.1-7.4-1.4-15.9-1.4-25.8V126.1c6.5,0.3,12.8,1.1,19.3,2.3c7.4,1.4,15.6,4.3,25.8,7.9l4-14.2l4-14.2  C692.2,108,568.6,108,568.6,108z M342.4,105.4c-25.8,0-47.3,8.5-64.6,25.2c-17,16.7-25.8,37.4-25.8,62.6c0,25.8,7.9,47.3,24.4,64.3  c15.9,17,36.3,25.8,60.7,25.8c25.8,0,47.6-8.5,64.6-25.2c17-16.7,25.8-37.4,25.8-62.6c0-25.8-7.9-47.3-24.4-64.6  C386.9,114.2,366.8,105.4,342.4,105.4z" fill="#2B3383"  /><path d="M885,230.7v-64.9l-13,21l-13-20.7v64.6c0,11.1-0.3,20.4-1.4,27.8c-0.9,7.4-2.6,15-4.8,22.7h38.3  c-2.3-7.7-4-15.3-4.8-22.7C885.3,250.6,885,241.5,885,230.7L885,230.7z" fill="#613392"  /><path d="M995.5,258.2c-10.2,1.7-23,2.8-38.6,3.4v-59.8h1.1c9.1,0,16.7,0.9,22.7,2.3c6.2,1.4,11.6,3.7,17.6,7.4  l7.9-13.9l7.9-13.9h-56.7V127h6.8c9.1,0,16.7,0.9,23.2,2.3c6.5,1.4,12.8,4,19.6,7.4l6.5-14.2l6.5-14.2h-96.4l-10.2-5.4l12.8-3.4  l-0.9-3.4l-15.9,4.3l-6-3.4l10.2-2.6L913,91l-13.3,3.7l-6-3.4l21.5-6l-0.9-3.4l-24.4,6.5l-13.9-7.9l13.9-7.9l24.4,6.5l1.1-2.6  l-21.5-6l6-3.4l13.3,3.7l0.9-3.4L904,64.9l6-3.4l16.4,4.3l0.9-3.4l-13-3.7l10.2-6l6.5,1.1l9.9-2.6l-9.9-1.4l2.3-1.4l9.4-8.5l-11.9,4  l-2.3,1.1l3.7-9.4l-7.4,7.4l-2.6,6.2l-10.2,6l3.4-12.8l-3.4-0.9l-4.3,15.9l-6,3.4l2.6-10.2l-3.4-0.9l-3.7,13.3l-6,3.4l6-21.5  l-3.4-0.9l-6.5,24.4l-13.9,7.9V60.7l17.9-17.9l-2.3-2.6l-15.6,15.6v-6.5l10.5-10.2l-2.6-2.3l-7.4,7.7V38l11.9-11.9l-2.3-2.8  l-9.9,9.9V22.1l4-5.1l2.6-9.9l-6.2,7.9v-2.3l-2-12.8l-2.6,12.5V15l-6.2-7.9l2.6,9.9l4,5.1v11.6l-9.4-9.4l-2.3,2.3l11.6,11.6v6.5  l-7.4-7.4l-2.3,2.3l9.9,9.9v6.5l-15.6-15.6l-2.3,2.3L870,60.7v15.9l-13.9-7.9l-6.5-24.4l-3.4,0.9l6,21.5l-6-3.4l-3.7-13.3l-3.4,0.9  l2.8,10.2l-6-3.4l-4.3-16.4l-3.4,0.9l3.7,13l-10.2-6l-2.6-6.2l-7.4-7.4l3.7,9.4l-2.3-1.1l-11.9-4l9.4,8.5l2.3,1.4l-9.9,1.4l9.9,2.6  l6.5-1.1l10.2,6l-12.8,3.4l0.9,3.4l15.9-4.3l6,3.4l-10.2,2.6l0.9,3.4l13.3-3.7l6,3.4L828,76l0.9,3.4l24.4-6.5l14.2,6.5l-4.3,2.6  l-9.4,5.4l-24.4-6.5l-0.9,3.4l21.5,6l-6,3.4l-13.3-3.7l-0.9,3.4l10.2,2.6l-6,3.4L817.8,95l-0.9,3.4l13,3.7l-9.4,5.4H710.1l-5.1,15  l-5.1,15c8.5-4.3,18.4-7.4,31.2-9.1c6.5-1.1,14.2-1.4,23.2-1.7v103.7c0,10.2-0.3,19-1.4,26.1c-1.1,7.4-2.6,15.3-5.1,23.5h39.4  c-2.6-8.8-4.3-16.7-5.1-24.1c-1.1-7.4-1.4-15.9-1.4-25.8v-104c6.5,0.3,12.8,1.1,19.3,2.3c7.4,1.4,15.6,4.3,25.8,7.9l3.7-12.5  l6.8-20.4l6-3.4l-2.6,10.2l3.4,0.9l3.7-13.3l6-3.4l-6,21.5l3.4,0.9l6.5-24.4l13.9-7.9v15.9l-17.9,17.9l2.3,2.6l15.6-15.6v6.5  l-9.9,9.9l2.6,2.3l7.4-7.7v6.5l-11.9,11.9l2.6,2.3l9.9-9.9v11.6l-4,5.1l-2.6,9.9l6.2-7.9v2.6l2.6,12.5l2.6-12.5v-2.6l6.2,7.9  l-2.6-9.9l-4-5.1V127l9.4,9.4l2.3-2.3l-11.6-11.6v-6.5l7.4,7.4l2.3-2.3l-9.9-9.9v-6.2l15.6,15.6l2.3-2.3l-17.9-17.9V84.5l4.3,2.6  l9.4,5.4l6.5,24.4l3.4-0.9l-6-21.5l6,3.4l3.7,13.3l3.4-0.9l-2.8-10.2l6,3.4l4.3,16.4l3.4-0.9l-3.7-13l13,7.7c1.7,6,4,11.6,4.8,17  c0.9,7.4,1.4,16.4,1.4,27.2v72.3c0,11.1-0.3,20.1-1.4,27.8c-0.9,7.4-2.6,15-4.8,22.7h91.6l7.4-17.6l7.4-17.6  C1020.8,251.7,1009.1,255.7,995.5,258.2L995.5,258.2z" fill="#613392"  /><path d="M339,251.1l-1.7,9.1l2.6,11.9l2.6-11.9l-2.3-9.1h0.3l1.7,6.5l6,7.7l-2.6-9.1l-4-5.1v-11.3l9.1,8.8l2.3-2.3  L341.6,235v-6.5l7.4,7.4l2.3-2.3l-9.4-9.4v-6.5l15.3,15.3l2.3-2.6l-17.6-17v-15.3l4.3,2.3l9.1,5.4l6.2,23.5l2.8-0.9l-5.4-20.7l6,3.4  l3.4,13l2.8-0.9l-2.6-9.9l6,3.4l4,15.6l2.6-0.9l-2.8-12.8l9.4,6l2.3,6l6.8,6.8l-3.7-9.1l-4.8-4.8v-0.3l7.4,6.5l11.3,4l-9.1-8.5  l-8.8-2.8v-0.3l6.8,2.3l9.4-1.4l-9.4-2.6l-6.2,0.9l-9.6-6l11.9-2.8l-0.9-3.4l-15.3,4l-5.4-3.4l9.9-2.6l-0.9-2.8l-13,3.4l-5.4-3.4  L381,199l-0.3-2.8l-23.5,6.2l-13-7.9l4-2.3l9.4-5.1l23.2,6.5l0.9-2.8l-20.1-6l5.4-3.4l12.8,3.7l1.1-2.8l-9.9-2.8l6-3.4l15.3,4.8  l0.9-3.4l-12.5-3.7l9.9-5.4l6.2,1.1l9.4-2.3l-9.4-1.4l-6.8,1.4l9.1-2.8l9.1-7.9l-11.6,3.7l-7.4,6.2l5.1-5.1l3.7-8.8l-6.8,6.5  l-2.6,6.2l-9.4,5.4l3.4-12.5l-2.8-0.9l-4.3,15.3l-5.4,2.8l2.6-9.4l-2.8-1.1l-3.7,12.8l-6,3.4l6-20.4l-2.8-0.9l-6.5,23.2l-13.9,7.7  v-15.6l17.6-17l-2.3-2.6l-15.3,15.3v-6.5l9.4-9.4l-2.3-2.3l-7.4,7.4v-6.5L354,142l-2.3-2.3l-9.4,9.1v-11.3l4-5.1l2.6-9.1l-6,7.7  l-1.7,6.5h-1.1l1.7-9.1l-2.3-11.9l-2.6,11.9l1.7,9.1L337,131l-6.2-7.7l2.6,9.1l4,5.1v11.3l-9.1-8.8l-2.3,2.3l11.3,11.3v6.5l-6.8-7.4  l-2.3,2.3l9.1,9.4v6.5l-15-15.3l-2.3,2.6l17,17v15.3l-4-2.3l-9.1-5.4l-6.2-23.5l-2.8,0.9l5.1,20.7l-5.4-3.4l-2.8-13l-3.4,0.9  l2.6,9.9l-5.4-3.4l-4-15.6l-3.4,0.9l3.4,12.8l-9.9-6l-2.3-6l-6.5-6.8l3.4,8.8l5.1,5.1l-0.3,0.3l-6.8-6.5l-11.3-4l8.8,8.5l9.1,2.8  v0.3l-6.8-2.3l-9.4,1.4l9.1,2.6l6.5-0.9l9.9,6l-12.5,2.8l0.9,3.4l15.3-4l6,3.4l-9.9,2.6l0.9,2.8l12.8-3.4l6,3.4l-20.7,5.4l0.9,2.8  l23.5-6.2l13.3,7.9l-4.3,2.3l-9.1,5.1l-23.5-6.5l-0.9,2.8l20.4,6l-6,3.4l-12.8-3.7l-0.9,2.8l9.9,2.8l-6,3.4l-15.6-4.8l-1.1,3.4  l12.8,3.7l-9.9,5.4l-6.2-1.1l-9.9,2l9.4,1.4l6.8-1.4l-9.1,2.8l-9.1,7.9l11.6-3.7l6.8-6.2h0.3l-5.1,5.1l-4,8.8l7.4-6.5l2.3-6.2  l10.2-5.4l-3.7,12.5l2.8,0.9l4.3-15.3l6-2.8l-2.8,9.4l3.4,1.1l3.7-12.8l5.4-3.4l-6,20.4l3.4,0.9l6.5-23.2l13.3-7.7v15.6l-17,17  l2.3,2.6l15-15.3v6.5l-9.4,9.4l2.6,2.3l6.8-7.4v6.5l-11.3,11.6l2.3,2.3l9.1-9.1v11.3l-4,5.1l-2.6,9.1l6.2-7.7L339,251.1L339,251.1z" fill="#FFFFFF"  /></svg>