<svg viewBox="0 0 328.3 283.5" role="img" aria-labelledby="graces--title" xmlns="http://www.w3.org/2000/svg" xmlns:xlink="http://www.w3.org/1999/xlink"><title id="graces--title">GRACES</title><path d="M40.3,222.7c-14.3-41.1,35.4-95.8,111-122c38.1-13.2,75.4-16.7,105-11.7c-29.8-20.1-85.6-22.2-142.9-2.3  c-75.6,26.2-125.3,80.9-111,122c7.1,20.4,28.6,33.7,57.7,38.6C50.7,240.9,43.8,232.7,40.3,222.7L40.3,222.7z" fill="#345424"  /><path d="M302.7,163.6c-5-14.4-19.1-24.1-38-28.2c6.3,4.7,10.9,10.6,13.3,17.6c10.1,29-20.7,66-68.8,82.7  c-24.2,8.4-48.1,10-67.2,5.9c19.6,14.6,55.5,17.3,91.9,4.7C282,229.6,312.8,192.6,302.7,163.6L302.7,163.6z" fill="#8B9F78"  /><path d="M103.2,49.3c-3.9,24.6-19.9,42.4-35.7,39.9c-15.8-2.5-25.3-24.5-21.4-49.1C50.1,15.6,66.1-2.3,81.8,0.2  C97.6,2.8,107.2,24.7,103.2,49.3z" fill="#345424"  /><path d="M286.9,275.9c-14.4-10-20.4-26.2-13.4-36.1c6.9-9.9,24.2-9.9,38.5,0.1c14.4,10,20.4,26.2,13.4,36.1  C318.5,286,301.3,285.9,286.9,275.9z" fill="#8B9F78"  /><text x="0" y="0" transform="matrix(1 0 0 1 49.4522 211.3763)" fill="#345424"  font-family="'PerpetuaTitlingMT-Light'"  font-size="60.771px" >GRACES</text></svg>