<svg viewBox="0 0 358 283.5" role="img" aria-labelledby="i2s2--title" xmlns="http://www.w3.org/2000/svg" xmlns:xlink="http://www.w3.org/1999/xlink"><title id="i2s2--title">I2S2</title><radialGradient id="SVGID_1_" cx="-420.7655" cy="891.2" r="17.7897" gradientTransform="matrix(10.021 0 0 -10.021 4394.8013 9072.8545)" gradientUnits="userSpaceOnUse"><stop offset="0" stop-color="#4B2A00" ></stop><stop offset="2.200000e-02" stop-color="#4B2A00" ></stop><stop offset="6.300000e-02" stop-color="#4F2E00" ></stop><stop offset="0.379" stop-color="#6E4B2D" ></stop><stop offset="0.651" stop-color="#876448" ></stop><stop offset="0.868" stop-color="#98775B" ></stop><stop offset="1" stop-color="#9E7E63" ></stop>
	
	
	
	
	
	
	
</radialGradient><path d="M347.2,9.4c-4.8-2.6-13.3-3-17.5-3.1c-56.2-0.8-100.3,39.3-127.7,74.2c-5.5,7-9.8,16.8-14.8,22.7  c-0.7,0.8-2.7-0.1-2.7-0.1s-0.4-13.4-5.2-15.5c-13.8-2.8-18.1,12.7-18.1,12.7s-1.8,0.3-2-0.2c-7.7-22.9-53.5-77.1-89.1-91.8  C58.5,3.6,43.7,0.1,30.8,0h-0.7c-4.1,0-8,0.4-11.5,1.2C11.7,2.8,5.7,12.5,4.1,18.7c-1,4-1.3,10.8-1,13.4c0.7,6.5,6.6,11.3,7.2,19.6  c0.5,6.8-3.8,10.4-1,18.5c-5.9,5-3.5,12.3-5.1,21.6C3.2,97,0,99.6,0,102.8v0.1c0,0.1,0,0.2,0,0.3c0.6,8.6,11.3,13.2,11.3,21.6  c7,4.7,17.2,6.2,28.8,6.2c-6.1,6.6-14.2,11.3-18.5,19.6c-2.7,19.4-5.5,43.3,7.2,54.6c-0.2,6.4,3.4,8.9,4.1,14.4  c8.7,2.6,9.5,13.2,14.4,19.6c8,1.6,12.3,6.9,14.4,14.4c11.3,1.4,15.6,9.8,21.6,16.5c7.8-1.3,11,2.1,13.9,5.5c2.6,3,4.9,6,9.8,5.8  c6.6-0.2,11.5-9.8,15.4-15.5c4.8-6.9,9.8-13.3,12.4-19.6c4,0.5,6.9-3.3,9.3-6.2c5.8-7.1,11.4-16.3,14.4-25.7  c2.3-7.1,2-16.2,6.8-22.1c0.4-0.3,0.4-1.4,1.3-1.4c0.9,0,0.7,1,0.8,1.6c1.6,13.3-2.6,50.3,14.9,33.2c0.7-11.5-1.2-25.5,0.7-35.7  c0.1-0.5,1.3-0.2,1.5,0.3c4.1,12.4,0.9,27.7,5,39.5c2.1,5.8,7.3,8.6,7.2,14.4c14.3,4.4,13.2,39.8,30.9,39.1  c9.2-0.4,8.6-12.6,23.7-9.3c3.8-3.4,7.8-6.6,10.3-11.3c3.4-0.7,6.6-1.7,10.3-2.1c5.3-6,8.4-14.3,18.5-15.5c2.9-3.7,2.3-8.8,6.2-13.4  c2.7-3.2,8-3.7,10.3-7.2c1.5-2.3,0.8-7.3,3.1-11.3c2.3-4,7.5-5.9,8.2-10.3c1-6,4.1-17.9,4.1-20.6c0.1-4.2-3.1-9.9-3.1-15.4  c0-2.9,1.5-6,1-8.2c-1.9-8.7-12.2-12.9-14.4-19.6c9.7,1.1,20.5,2.4,27.8-2.1c4.4-2.6,4.1-6.8,7.2-11.3c3.6-5.1,8.5-7.2,9.3-13.4  c0.4-2.9-3-6.9-3.1-11.3c0-3.7,2.4-6.4,2.1-9.3c-0.5-4.9-4.4-9.3-5.1-13.4c3.4-3.9,2.2-14.1,1-19.6c3-6.7,10.9-13.2,12.4-19.6  C359.6,29.9,354.8,13.6,347.2,9.4z" fill="url(#SVGID_1_)"  /><path d="M94.6,167.9v1.8H58.6v-1.8h2.3c2,0,3.6-0.4,4.8-1.1c0.9-0.5,1.6-1.3,2-2.5c0.4-0.8,0.6-3,0.6-6.5v-45.5  c0-3.6-0.2-5.8-0.6-6.7c-0.4-0.9-1.1-1.7-2.3-2.3c-1.1-0.7-2.7-1-4.6-1h-2.3v-1.8h36.1v1.8h-2.3c-2,0-3.6,0.4-4.8,1.1  c-0.9,0.5-1.6,1.3-2.1,2.5c-0.4,0.8-0.6,3-0.6,6.5v45.5c0,3.6,0.2,5.8,0.6,6.7c0.4,0.9,1.1,1.7,2.3,2.3c1.1,0.7,2.7,1,4.6,1  C92.4,167.9,94.6,167.9,94.6,167.9z M140.4,169.7H99.7v-1.1c12.5-14.8,20.1-24.8,22.8-30c2.7-5.1,4-10.1,4-15c0-3.6-1.1-6.5-3.3-8.9  c-2.2-2.4-4.9-3.5-8.1-3.5c-5.3,0-9.3,2.6-12.2,7.8l-1.9-0.7c1.8-6.5,4.6-11.4,8.4-14.5c3.7-3.1,8.1-4.7,13-4.7  c3.5,0,6.7,0.8,9.6,2.4c2.8,1.6,5.2,3.9,6.8,6.7c1.6,2.8,2.4,5.5,2.4,8c0,4.5-1.3,9.1-3.8,13.8c-3.4,6.3-10.9,15.1-22.5,26.3h15  c3.7,0,6.1-0.2,7.2-0.5c1.1-0.3,2-0.8,2.7-1.5c0.7-0.7,1.7-2.3,2.8-4.6h1.8C144.3,149.7,140.4,169.7,140.4,169.7z M248.2,99l0.6,23  h-2.1c-1-5.8-3.4-10.4-7.3-13.9c-3.9-3.5-8-5.3-12.5-5.3c-3.5,0-6.2,0.9-8.2,2.8c-2,1.9-3,4-3,6.4c0,1.5,0.4,2.9,1.1,4.1  c1,1.6,2.6,3.2,4.7,4.7c1.6,1.1,5.3,3.1,11.1,6c8.1,4,13.5,7.7,16.4,11.3c2.8,3.5,4.2,7.6,4.2,12.1c0,5.8-2.3,10.7-6.8,14.9  c-4.5,4.2-10.2,6.2-17.2,6.2c-2.2,0-4.3-0.2-6.2-0.7c-1.9-0.4-4.4-1.3-7.3-2.5c-1.6-0.7-3-1-4-1c-0.9,0-1.8,0.3-2.8,1  c-1,0.7-1.8,1.7-2.4,3.2h-1.8v-26.1h1.8c1.5,7.3,4.4,12.9,8.7,16.7c4.3,3.8,8.9,5.8,13.8,5.8c3.8,0,6.9-1,9.1-3.1  c2.3-2.1,3.4-4.5,3.4-7.2c0-1.6-0.4-3.2-1.3-4.7c-0.9-1.5-2.2-3-4-4.4c-1.8-1.4-4.9-3.2-9.4-5.4c-6.3-3.1-10.8-5.7-13.6-7.9  c-2.7-2.2-4.9-4.6-6.3-7.3c-1.5-2.7-2.2-5.6-2.2-8.9c0-5.5,2-10.2,6.1-14.1c4-3.9,9.1-5.8,15.3-5.8c2.2,0,4.4,0.3,6.5,0.8  c1.6,0.4,3.5,1.2,5.8,2.3c2.3,1.1,3.9,1.6,4.8,1.6c0.9,0,1.6-0.3,2.1-0.8c0.5-0.5,1-1.8,1.4-3.9L248.2,99L248.2,99L248.2,99  L248.2,99L248.2,99L248.2,99z M300.6,169.7h-40.7v-1.1c12.5-14.8,20.1-24.8,22.8-30c2.7-5.1,4-10.1,4-15c0-3.6-1.1-6.5-3.3-8.9  c-2.2-2.4-4.9-3.5-8.1-3.5c-5.3,0-9.3,2.6-12.2,7.8l-1.9-0.7c1.8-6.5,4.6-11.4,8.4-14.5c3.7-3.1,8.1-4.7,13-4.7  c3.5,0,6.7,0.8,9.6,2.4c2.8,1.6,5.2,3.9,6.8,6.7c1.6,2.8,2.4,5.5,2.4,8c0,4.5-1.3,9.1-3.8,13.8c-3.4,6.3-10.9,15.1-22.5,26.3h14.9  c3.7,0,6.1-0.2,7.2-0.5c1.1-0.3,2-0.8,2.7-1.5c0.7-0.7,1.6-2.3,2.8-4.6h1.8L300.6,169.7L300.6,169.7z" fill="#FFFFFF"  /></svg>