<svg viewBox="0 0 765.9 283.5" role="img" aria-labelledby="indoss-assam--title" xmlns="http://www.w3.org/2000/svg" xmlns:xlink="http://www.w3.org/1999/xlink"><title id="indoss-assam--title">INDOSS - Indian Obstetric Surveillance System - ASSAM</title><path d="M406.1,0C365.7,0,333,32.7,333,72.9c0,40.3,32.7,72.9,73.1,72.9c40.3,0,73.1-32.7,73.1-72.9  C479.1,32.7,446.4,0,406.1,0z M447.5,121.5c-1.1-1.3-3-1.6-4.4-0.5c-1.4,1-1.7,3-0.6,4.4c-2.8,2-5.8,3.7-9,5.2  c-0.7-1.6-2.5-2.3-4.1-1.7c-1.6,0.7-2.4,2.5-1.7,4.1c-3.3,1.2-6.6,2-10,2.7c-0.3-1.7-1.9-2.9-3.6-2.7c-1.7,0.2-2.9,1.8-2.8,3.5  c-1.7,0.1-3.4,0.2-5.2,0.2c-1.7,0-3.5-0.1-5.2-0.2c0.2-1.7-1-3.3-2.8-3.5c-1.7-0.2-3.3,1-3.6,2.7c-3.4-0.6-6.7-1.5-10-2.7  c0.6-1.6-0.1-3.4-1.8-4.1c-1.6-0.7-3.4,0.1-4.1,1.7c-3.1-1.5-6.1-3.2-9-5.2c1-1.4,0.7-3.3-0.6-4.4c-1.4-1.1-3.3-0.8-4.4,0.5  c-2.6-2.2-5.1-4.7-7.3-7.3c1.3-1.1,1.6-3,0.5-4.4c-1.1-1.4-3-1.7-4.4-0.6c-2-2.8-3.7-5.8-5.2-8.9c1.6-0.7,2.3-2.5,1.7-4.1  c-0.7-1.6-2.5-2.4-4.1-1.7c-1.2-3.2-2-6.6-2.7-10c1.7-0.3,2.9-1.8,2.7-3.6c-0.2-1.7-1.8-2.9-3.5-2.8c-0.1-1.7-0.2-3.4-0.2-5.2  c0-1.7,0.1-3.4,0.2-5.2c1.7,0.2,3.3-1,3.5-2.8c0.2-1.7-1-3.3-2.7-3.6c0.6-3.4,1.5-6.7,2.7-10c1.6,0.7,3.5-0.1,4.2-1.7  c0.7-1.6-0.1-3.5-1.7-4.2c1.5-3.1,3.2-6.1,5.2-8.9c1.4,1,3.4,0.7,4.4-0.6c1-1.4,0.8-3.3-0.5-4.4c2.2-2.6,4.7-5.1,7.3-7.3  c1.1,1.3,3,1.6,4.4,0.5c1.4-1,1.7-3,0.6-4.4c2.8-2,5.8-3.7,9-5.2c0.7,1.6,2.5,2.3,4.1,1.7c1.6-0.7,2.4-2.5,1.8-4.1  c3.3-1.2,6.6-2,10-2.7c0.3,1.7,1.9,2.9,3.6,2.7c1.7-0.2,2.9-1.8,2.8-3.5c1.7-0.1,3.4-0.2,5.2-0.2c1.7,0,3.5,0.1,5.2,0.2  c-0.2,1.7,1,3.3,2.8,3.5c1.7,0.2,3.3-1,3.6-2.7c3.4,0.6,6.7,1.5,10,2.7c-0.6,1.6,0.1,3.4,1.7,4.1c1.6,0.7,3.4-0.1,4.1-1.7  c3.1,1.5,6.1,3.2,9,5.2c-1,1.4-0.7,3.3,0.6,4.4c1.4,1,3.3,0.8,4.4-0.5c2.6,2.2,5.1,4.7,7.3,7.3c-1.3,1.1-1.6,3-0.5,4.4  c1.1,1.4,3,1.6,4.4,0.6c2,2.8,3.7,5.8,5.2,8.9c-1.6,0.7-2.3,2.5-1.7,4.1c0.7,1.6,2.5,2.4,4.1,1.7c1.2,3.2,2,6.6,2.7,10  c-1.7,0.3-2.9,1.8-2.7,3.6c0.2,1.7,1.8,2.9,3.5,2.8c0.1,1.7,0.2,3.4,0.2,5.2c0,1.7-0.1,3.5-0.2,5.2c-1.7-0.2-3.3,1-3.5,2.8  c-0.2,1.7,1,3.3,2.7,3.6c-0.6,3.4-1.5,6.7-2.7,10c-1.6-0.6-3.4,0.1-4.1,1.7c-0.7,1.6,0.1,3.4,1.7,4.1c-1.5,3.1-3.2,6.1-5.2,8.9  c-1.4-1-3.4-0.7-4.4,0.6c-1,1.4-0.8,3.3,0.5,4.4C452.5,116.9,450.1,119.3,447.5,121.5L447.5,121.5z" fill="#1E2171"  /><g><path d="M391.4,93.9l-17.3,34.3l21.1-32.1l2.8-6.6h-1.9v-1.9L391.4,93.9z M408.3,75.2c0.6-0.6,0.9-1.3,0.9-2.2   c0-0.6-0.1-1.1-0.4-1.6c-0.3-0.5-0.6-0.8-1.1-1.1c-0.6-0.3-1.1-0.4-1.6-0.4c-0.5,0-1,0.1-1.6,0.4c-0.5,0.3-0.8,0.6-1.1,1.1   c-0.3,0.5-0.4,1.1-0.4,1.6c0,0.9,0.3,1.6,0.9,2.2c0.6,0.6,1.3,0.9,2.2,0.9C407,76.1,407.7,75.8,408.3,75.2z M402.4,89.5h-2.1   l-3,7.5l-7.8,37.6l12-36.4l0.9-6L402.4,89.5z" fill="#1E2171"  /><path d="M398.9,87.5l1.4-3.2c0.6,0.3,1.2,0.6,1.9,0.8l-1,2.5h2l0.3-2.1c0.7,0.1,1.3,0.2,2,0.3l-0.9,7.8h3.2   l-0.9-7.8c0.7,0,1.4-0.1,2-0.3l0.3,2.1h2l-1-2.5c0.7-0.2,1.3-0.5,1.9-0.8l1.4,3.2h0.7v-2.6l-0.5-0.7h-5.8v-3.1   c1.7-0.3,3.2-1.1,4.4-2.4c1.5-1.6,2.3-3.5,2.3-5.8c0-1.5-0.4-2.9-1.1-4.1c-0.7-1.3-1.8-2.4-3.1-3.1c-1.3-0.7-2.7-1.1-4.2-1.1   c-1.5,0-2.9,0.4-4.2,1.1c-1.3,0.7-2.4,1.8-3.1,3.1c-0.7,1.3-1.1,2.7-1.1,4.2c0,1.5,0.4,2.9,1.2,4.2c0.8,1.3,1.8,2.4,3.1,3.1   c0.8,0.4,1.6,0.7,2.4,0.9v3.1h-5.7l-0.5,0.7v2.6L398.9,87.5L398.9,87.5z M402.5,76.6c-1-1-1.5-2.2-1.5-3.6c0-0.9,0.2-1.7,0.7-2.6   c0.4-0.8,1.1-1.4,1.9-1.9c0.8-0.5,1.7-0.7,2.5-0.7c0.9,0,1.7,0.2,2.6,0.7c0.8,0.4,1.5,1.1,1.9,1.9c0.5,0.8,0.7,1.7,0.7,2.6   c0,1.4-0.5,2.6-1.5,3.6c-1,1-2.2,1.5-3.6,1.5C404.7,78.1,403.5,77.6,402.5,76.6L402.5,76.6z M416,87.5v2h-1.8l2.8,6.6l21.1,32.1   l-17.3-34.3L416,87.5z M407.7,95.5h-3.5l-0.4,3l2.2,38.3l2.2-38.3l-0.4-3L407.7,95.5z" fill="#1E2171"  /><path d="M430.2,81.7l37.6,7.8l-36.5-12l-12.8-1.8c0.1-0.7,0.2-1.3,0.3-2l12.8,1.5l38.4-2.2l-38.4-2.2l-12.8,1.5   c0-0.7-0.1-1.4-0.3-2l12.8-1.8l36.5-12l-37.6,7.8l-12,4.8c-0.2-0.6-0.5-1.3-0.8-1.9l11.9-5.1l32.1-21l-34.3,17.3L416.8,66   c-0.4-0.6-0.8-1.1-1.2-1.6l10.1-8l25.6-28.6l-28.7,25.5l-8,10.1c-0.5-0.5-1-0.9-1.6-1.2l7.7-10.3L438,17.7L417,49.7l-5.1,11.8   c-0.6-0.3-1.2-0.6-1.9-0.8l4.8-11.9l7.8-37.6l-12,36.4l-1.8,12.7c-0.7-0.1-1.3-0.2-2-0.3l1.5-12.8l-2.2-38.3l-2.2,38.3l1.5,12.8   c-0.7,0-1.4,0.1-2,0.3l-1.8-12.7l-12-36.4l7.8,37.6l4.8,11.9c-0.7,0.2-1.3,0.5-1.9,0.8l-5.1-11.8l-21.1-32.1l17.3,34.3l7.7,10.3   c-0.6,0.4-1.1,0.8-1.6,1.2l-8-10.1l-28.7-25.5l25.6,28.6l10.1,8c-0.5,0.5-0.9,1-1.2,1.6L385,58.3L350.7,41l32.1,21l11.9,5.1   c-0.3,0.6-0.6,1.2-0.8,1.9l-12-4.8l-37.6-7.8l36.5,12l12.8,1.8c-0.1,0.7-0.2,1.3-0.3,2l-12.8-1.5l-38.4,2.2l38.4,2.2l12.8-1.5   c0,0.7,0.1,1.4,0.3,2l-12.8,1.8l-36.5,12l37.6-7.8l12-4.8c0.2,0.7,0.5,1.3,0.8,1.9l-11.9,5.1l-32.1,21L385,87.6l10.3-7.7   c0.4,0.6,0.8,1.1,1.2,1.6l-10.2,8l-25.6,28.6l28.7-25.5l6.6-8.4v-1.8h5.5c-0.2-0.1-0.4-0.2-0.6-0.3c-1.6-0.9-3-2.2-3.9-3.8   c-0.9-1.6-1.4-3.4-1.4-5.2c0-1.8,0.5-3.5,1.4-5.1c0.9-1.6,2.2-3,3.9-3.9c1.6-0.9,3.3-1.3,5.1-1.3c1.8,0,3.5,0.5,5.1,1.4   c1.6,0.9,3,2.2,3.9,3.9c0.9,1.6,1.3,3.3,1.3,5.1c0,2.7-1,5.1-2.8,7.1c-0.9,0.9-1.9,1.7-3,2.2h5.4v1.8l6.7,8.5l28.7,25.5l-25.6-28.6   l-10.2-8c0.5-0.5,0.9-1,1.2-1.6l10.3,7.7l34.3,17.2l-32.1-21l-11.9-5.1c0.3-0.6,0.6-1.2,0.8-1.9L430.2,81.7L430.2,81.7z" fill="#1E2171"  /><path d="M411.8,89.5h-2.1V92l0.9,6.2l12,36.4L414.8,97L411.8,89.5z" fill="#1E2171"  />
	
	
	
	
</g><path d="M10.5,139.6c-0.8-0.4-1.7-0.7-2.6-0.7c-0.9,0-1.7,0.2-2.5,0.7c-0.8,0.4-1.5,1.1-1.9,1.9  c-0.4,0.6-0.5,1.3-0.6,2H13c-0.1-0.7-0.3-1.3-0.6-2C11.9,140.7,11.3,140,10.5,139.6z M37.5,118.8v3.1h6.2v-8.4c-0.4,1.1-1,2-1.8,2.8  C40.7,117.6,39.3,118.4,37.5,118.8z M41,110.6c0-0.9-0.2-1.7-0.7-2.6c-0.4-0.8-1.1-1.4-1.9-1.9c-0.8-0.4-1.7-0.7-2.6-0.7  c-0.9,0-1.7,0.2-2.5,0.7c-0.8,0.4-1.5,1.1-1.9,1.9c-0.5,0.8-0.7,1.7-0.7,2.6c0,1.4,0.5,2.6,1.5,3.6c1,1,2.2,1.5,3.6,1.5  c1.4,0,2.6-0.5,3.6-1.5C40.6,113.2,41,112,41,110.6z M41,77c0-0.9-0.2-1.7-0.7-2.6c-0.4-0.8-1.1-1.4-1.9-1.9  c-0.8-0.5-1.7-0.7-2.6-0.7c-0.9,0-1.7,0.2-2.5,0.7c-0.8,0.4-1.5,1.1-1.9,1.9c-0.5,0.8-0.7,1.7-0.7,2.6c0,1.4,0.5,2.6,1.5,3.6  c1,1,2.2,1.5,3.6,1.5c1.4,0,2.6-0.5,3.6-1.5C40.6,79.7,41,78.5,41,77z M37.5,85.2v3.1h6.2V80c-0.4,1.1-1,2-1.8,2.8  C40.7,84.1,39.3,84.9,37.5,85.2z M41,43.5c0-0.9-0.2-1.7-0.7-2.6c-0.4-0.8-1.1-1.4-1.9-1.9c-0.8-0.5-1.7-0.7-2.6-0.7  c-0.9,0-1.7,0.2-2.5,0.7c-0.8,0.4-1.5,1.1-1.9,1.9c-0.5,0.8-0.7,1.7-0.7,2.6c0,1.4,0.5,2.6,1.5,3.6c1,1,2.2,1.5,3.6,1.5  c1.4,0,2.6-0.5,3.6-1.5C40.6,46.2,41,45,41,43.5z M37.5,51.7v3.1h6.2v-8.4c-0.4,1.1-1,2-1.8,2.8C40.7,50.6,39.3,51.4,37.5,51.7z" fill="#1E2171"  /><path d="M37.5,24.6v6h-3.3v-6H28v-3.3h6.3v-3.1c-0.8-0.2-1.6-0.5-2.4-0.9c-1.3-0.7-2.4-1.7-3.1-3.1  c-0.8-1.3-1.2-2.7-1.2-4.2c0-1.4,0.4-2.8,1.1-4.2c0.7-1.3,1.8-2.4,3.1-3.1c0.2-0.1,0.4-0.2,0.7-0.3h-21c0.2,0.1,0.5,0.2,0.7,0.3  c1.3,0.7,2.4,1.8,3.1,3.1c0.7,1.3,1.1,2.7,1.1,4.1c0,2.2-0.8,4.2-2.3,5.8c-1.2,1.3-2.7,2.1-4.4,2.4v3.1h6.2v3.3H9.6v6H6.3v-6H0v-3.3  h6.3v-3.1c-0.8-0.2-1.6-0.5-2.4-0.9c-1.3-0.7-2.4-1.7-3.1-3.1c-0.3-0.5-0.5-1-0.7-1.6v28.2c0.2-0.5,0.4-1,0.7-1.5  C1.4,38,2.5,37,3.8,36.2c1.3-0.7,2.7-1.1,4.2-1.1c1.4,0,2.8,0.4,4.2,1.1c1.3,0.7,2.4,1.8,3.1,3.1c0.7,1.3,1.1,2.7,1.1,4.1  c0,2.2-0.8,4.2-2.3,5.8c-1.2,1.3-2.7,2.1-4.4,2.4v3.1h6.2v3.3H9.6v6H6.3v-6H0v-3.3h6.3v-3.1c-0.8-0.2-1.6-0.5-2.4-0.9  c-1.3-0.7-2.4-1.7-3.1-3.1c-0.3-0.5-0.5-1-0.7-1.6v28.2c0.2-0.5,0.4-1,0.7-1.5c0.7-1.3,1.8-2.4,3.1-3.1C5,69,6.5,68.7,7.9,68.7  c1.4,0,2.8,0.4,4.2,1.1c1.3,0.7,2.4,1.8,3.1,3.1c0.7,1.3,1.1,2.7,1.1,4.1c0,2.2-0.8,4.2-2.3,5.8c-1.2,1.3-2.7,2.1-4.4,2.4v3.1h6.2  v3.3H9.6v6H6.3v-6H0v-3.3h6.3v-3.1c-0.8-0.2-1.6-0.5-2.4-0.9c-1.3-0.7-2.4-1.7-3.1-3.1c-0.3-0.5-0.5-1-0.7-1.6v28.2  c0.2-0.5,0.4-1,0.7-1.5c0.7-1.3,1.8-2.4,3.1-3.1c1.3-0.7,2.7-1.1,4.2-1.1c1.4,0,2.8,0.4,4.2,1.1c1.3,0.7,2.4,1.8,3.1,3.1  c0.7,1.3,1.1,2.7,1.1,4.1c0,2.2-0.8,4.2-2.3,5.8c-1.2,1.3-2.7,2.1-4.4,2.4v3.1h6.2v3.3H9.6v6H6.3v-6H0v-3.3h6.3v-3.1  c-0.8-0.2-1.6-0.5-2.4-0.9c-1.3-0.7-2.4-1.7-3.1-3.1c-0.3-0.5-0.5-1-0.7-1.6v28.2c0.2-0.5,0.4-1,0.7-1.5c0.7-1.3,1.8-2.4,3.1-3.1  c1.3-0.7,2.7-1.1,4.2-1.1c1.4,0,2.8,0.4,4.2,1.1c1.3,0.7,2.4,1.8,3.1,3.1c0.6,1.1,1,2.3,1.1,3.5h11.3c0.1-1.2,0.5-2.5,1.1-3.6  c0.7-1.3,1.8-2.4,3.1-3.1c1.3-0.7,2.7-1.1,4.2-1.1c1.4,0,2.8,0.4,4.2,1.1c1.3,0.7,2.4,1.8,3.1,3.1c0.2,0.4,0.4,0.8,0.6,1.3v-16h-6.2  v6h-3.3v-6H28v-3.3h6.3v-3.1c-0.8-0.2-1.6-0.5-2.4-0.9c-1.3-0.7-2.4-1.7-3.1-3.1c-0.8-1.3-1.2-2.7-1.2-4.2c0-1.4,0.4-2.8,1.1-4.2  c0.7-1.3,1.8-2.4,3.1-3.1c1.3-0.7,2.7-1.1,4.2-1.1c1.4,0,2.8,0.4,4.2,1.1c1.3,0.7,2.4,1.8,3.1,3.1c0.2,0.4,0.4,0.8,0.6,1.3v-16h-6.2  v6h-3.3v-6H28v-3.3h6.3v-3.1c-0.8-0.2-1.6-0.5-2.4-0.9c-1.3-0.7-2.4-1.7-3.1-3.1c-0.8-1.3-1.2-2.7-1.2-4.2c0-1.4,0.4-2.8,1.1-4.2  c0.7-1.3,1.8-2.4,3.1-3.1c1.3-0.7,2.7-1.1,4.2-1.1c1.4,0,2.8,0.4,4.2,1.1c1.3,0.7,2.4,1.8,3.1,3.1c0.2,0.4,0.4,0.8,0.6,1.3v-16h-6.2  v6h-3.3v-6H28v-3.3h6.3v-3.1c-0.8-0.2-1.6-0.5-2.4-0.9c-1.3-0.7-2.4-1.7-3.1-3.1c-0.8-1.3-1.2-2.7-1.2-4.2c0-1.4,0.4-2.8,1.1-4.2  c0.7-1.3,1.8-2.4,3.1-3.1c1.3-0.7,2.7-1.1,4.2-1.1c1.4,0,2.8,0.4,4.2,1.1c1.3,0.7,2.4,1.8,3.1,3.1c0.2,0.4,0.4,0.8,0.6,1.3v-16H37.5  z" fill="#1E2171"  /><path d="M40.3,141.5c-0.4-0.8-1.1-1.4-1.9-1.9c-0.8-0.4-1.7-0.7-2.6-0.7c-0.9,0-1.7,0.2-2.5,0.7  c-0.8,0.4-1.5,1.1-1.9,1.9c-0.4,0.6-0.5,1.3-0.6,2H41C40.9,142.8,40.7,142.1,40.3,141.5z M40.1,2.7c1.3,0.7,2.4,1.8,3.1,3.1  c0.2,0.4,0.4,0.8,0.6,1.3V2.4h-4.4C39.6,2.5,39.8,2.6,40.1,2.7z M37.5,18.2v3.1h6.2v-8.4c-0.4,1.1-1,2-1.8,2.8  C40.7,17.1,39.3,17.9,37.5,18.2z M31.5,7.4C31,8.3,30.8,9.1,30.8,10c0,1.4,0.5,2.6,1.5,3.6c1,1,2.2,1.5,3.6,1.5  c1.4,0,2.6-0.5,3.6-1.5c1-1,1.5-2.2,1.5-3.6c0-0.9-0.2-1.7-0.7-2.6c-0.4-0.8-1.1-1.4-1.9-1.9c-0.8-0.5-1.7-0.7-2.6-0.7  c-0.9,0-1.7,0.2-2.5,0.7C32.6,6,31.9,6.6,31.5,7.4z M0.7,5.8c0.7-1.3,1.8-2.4,3.1-3.1C4,2.6,4.2,2.5,4.5,2.4H0v5  C0.2,6.8,0.4,6.3,0.7,5.8z M7.9,115.7c1.4,0,2.6-0.5,3.6-1.5c1-1,1.5-2.2,1.5-3.6c0-0.9-0.2-1.7-0.7-2.6c-0.4-0.8-1.1-1.4-1.9-1.9  c-0.8-0.4-1.7-0.7-2.6-0.7c-0.9,0-1.7,0.2-2.5,0.7c-0.8,0.4-1.5,1.1-1.9,1.9c-0.5,0.8-0.7,1.7-0.7,2.6c0,1.4,0.5,2.6,1.5,3.6  C5.3,115.2,6.5,115.7,7.9,115.7z M7.9,82.2c1.4,0,2.6-0.5,3.6-1.5c1-1,1.5-2.2,1.5-3.6c0-0.9-0.2-1.7-0.7-2.6  c-0.4-0.8-1.1-1.4-1.9-1.9c-0.8-0.5-1.7-0.7-2.6-0.7c-0.9,0-1.7,0.2-2.5,0.7c-0.8,0.4-1.5,1.1-1.9,1.9C3,75.3,2.8,76.2,2.8,77  c0,1.4,0.5,2.6,1.5,3.6C5.3,81.7,6.5,82.2,7.9,82.2z M7.9,48.7c1.4,0,2.6-0.5,3.6-1.5c1-1,1.5-2.2,1.5-3.6c0-0.9-0.2-1.7-0.7-2.6  c-0.4-0.8-1.1-1.4-1.9-1.9c-0.8-0.5-1.7-0.7-2.6-0.7c-0.9,0-1.7,0.2-2.5,0.7c-0.8,0.4-1.5,1.1-1.9,1.9c-0.5,0.8-0.7,1.7-0.7,2.6  c0,1.4,0.5,2.6,1.5,3.6C5.3,48.2,6.5,48.7,7.9,48.7z M3.5,7.4C3,8.3,2.8,9.1,2.8,10c0,1.4,0.5,2.6,1.5,3.6c1,1,2.2,1.5,3.6,1.5  c1.4,0,2.6-0.5,3.6-1.5c1-1,1.5-2.2,1.5-3.6c0-0.9-0.2-1.7-0.7-2.6c-0.4-0.8-1.1-1.4-1.9-1.9C9.6,5.1,8.8,4.9,7.9,4.9  c-0.9,0-1.7,0.2-2.5,0.7C4.6,6,3.9,6.6,3.5,7.4z M119.6,72c-0.8,0-1.6,0.3-2.3,0.6c-0.8,0.4-1.5,1.1-1.9,1.9  c-0.5,0.8-0.7,1.7-0.7,2.6c0,0.1,0,0.2,0,0.2c0.4-0.8,0.9-1.6,1.4-2.2C117.1,73.8,118.3,72.8,119.6,72z M123.5,47.2  c1-1,1.4-2.1,1.5-3.5c-2.3,1.2-4.5,2.8-6.8,4.7c0.5,0.2,1.1,0.3,1.6,0.3C121.3,48.7,122.5,48.2,123.5,47.2z M178.3,139.6  c-0.8-0.4-1.7-0.7-2.6-0.7c-0.9,0-1.7,0.2-2.5,0.7c-0.8,0.4-1.5,1.1-1.9,1.9c-0.4,0.6-0.5,1.3-0.6,2h10v-0.8  c-0.1-0.4-0.3-0.8-0.5-1.2C179.8,140.7,179.1,140,178.3,139.6L178.3,139.6z M94.4,139.6c-0.8-0.4-1.7-0.7-2.6-0.7  c-0.9,0-1.7,0.2-2.5,0.7c-0.8,0.4-1.5,1.1-1.9,1.9c-0.4,0.6-0.5,1.3-0.6,2h10.1c-0.1-0.7-0.3-1.3-0.6-2  C95.9,140.7,95.2,140,94.4,139.6z M86.7,43.5c0,1.4,0.5,2.6,1.5,3.6c1,1,2.2,1.5,3.6,1.5c1.4,0,2.6-0.5,3.6-1.5c1-1,1.5-2.2,1.5-3.6  c0-0.8-0.2-1.5-0.6-2.3h-9.1C86.9,42,86.7,42.8,86.7,43.5z M145.5,39c-0.1,0-0.2,0.1-0.3,0.1c-0.8,0.4-1.5,1.1-1.9,1.9  c-0.5,0.8-0.7,1.7-0.7,2.6c0,1.4,0.5,2.6,1.5,3.6c1,1,2.2,1.5,3.6,1.5c1.4,0,2.6-0.5,3.6-1.5c1-1,1.5-2.2,1.5-3.6  c0-0.9-0.2-1.7-0.7-2.6c-0.4-0.7-1-1.4-1.8-1.8c-1.5-0.1-3-0.2-4.5-0.2C145.9,39,145.7,39,145.5,39L145.5,39z M178.3,72.6  c-0.8-0.5-1.7-0.7-2.6-0.7c-0.9,0-1.7,0.2-2.5,0.7c-0.8,0.4-1.5,1.1-1.9,1.9c-0.5,0.8-0.7,1.7-0.7,2.6c0,1.4,0.5,2.6,1.5,3.6  c1,1,2.2,1.5,3.6,1.5c1.4,0,2.6-0.5,3.6-1.5c0.6-0.6,1.1-1.4,1.3-2.2c0-1-0.1-2-0.1-3c-0.1-0.3-0.2-0.7-0.4-1  C179.8,73.7,179.1,73,178.3,72.6z M180.7,83.8c-1,0.7-2.1,1.2-3.3,1.4v3.1h3.3V83.8z M178.3,106.1c-0.8-0.4-1.7-0.7-2.6-0.7  c-0.9,0-1.7,0.2-2.5,0.7c-0.8,0.4-1.5,1.1-1.9,1.9c-0.5,0.8-0.7,1.7-0.7,2.6c0,1.4,0.5,2.6,1.5,3.6c1,1,2.2,1.5,3.6,1.5  c1.4,0,2.6-0.5,3.6-1.5c0.6-0.6,1.1-1.4,1.3-2.2v-2.8c-0.1-0.4-0.3-0.8-0.5-1.2C179.8,107.2,179.1,106.5,178.3,106.1L178.3,106.1z   M180.7,117.3c-1,0.7-2.1,1.2-3.3,1.4v3.1h3.3V117.3z M150.4,139.6c-0.8-0.4-1.7-0.7-2.6-0.7c-0.9,0-1.7,0.2-2.5,0.7  c-0.8,0.4-1.5,1.1-1.9,1.9c-0.4,0.6-0.5,1.3-0.6,2h10.1c-0.1-0.7-0.3-1.3-0.6-2C151.8,140.7,151.2,140,150.4,139.6L150.4,139.6z   M140.9,81.8c0.2,1.7,0.4,3.5,0.4,5.5v1.1h4.8v-3.1c-0.8-0.2-1.6-0.5-2.4-0.9C142.6,83.7,141.7,82.9,140.9,81.8z M147.8,82.2  c1.4,0,2.6-0.5,3.6-1.5c1-1,1.5-2.2,1.5-3.6c0-0.9-0.2-1.7-0.7-2.6c-0.4-0.8-1.1-1.4-1.9-1.9c-0.8-0.5-1.7-0.7-2.6-0.7  c-0.9,0-1.7,0.2-2.5,0.7c-0.8,0.4-1.5,1.1-1.9,1.9c-0.5,0.8-0.7,1.7-0.7,2.6c0,1.4,0.5,2.6,1.5,3.6  C145.2,81.7,146.4,82.2,147.8,82.2L147.8,82.2z" fill="#1E2171"  /><path d="M140.5,72.9c0.7-1.3,1.8-2.4,3.1-3.1c1.3-0.7,2.7-1.1,4.2-1.1c1.4,0,2.8,0.4,4.2,1.1  c1.3,0.7,2.4,1.8,3.1,3.1c0.7,1.3,1.1,2.7,1.1,4.1c0,2.2-0.8,4.2-2.3,5.8c-1.2,1.3-2.7,2.1-4.4,2.4v3.1h6.2v3.3h-6.2v6h-3.3v-6h-4.8  v13.6c0.6-0.8,1.4-1.5,2.4-2c1.3-0.7,2.7-1.1,4.2-1.1c1.4,0,2.8,0.4,4.2,1.1c1.3,0.7,2.4,1.8,3.1,3.1c0.7,1.3,1.1,2.7,1.1,4.1  c0,2.2-0.8,4.2-2.3,5.8c-1.2,1.3-2.7,2.1-4.4,2.4v3.1h6.2v3.3h-6.2v6h-3.3v-6h-4.8v13.6c0.6-0.8,1.4-1.5,2.4-2  c1.3-0.7,2.7-1.1,4.2-1.1c1.4,0,2.8,0.4,4.2,1.1c1.3,0.7,2.4,1.8,3.1,3.1c0.6,1.1,1,2.3,1.1,3.5h11.3c0.1-1.2,0.5-2.5,1.1-3.6  c0.7-1.3,1.8-2.4,3.1-3.1c1.3-0.7,2.7-1.1,4.2-1.1c1.4,0,2.8,0.4,4.2,1.1c0.3,0.1,0.5,0.3,0.8,0.5v-12.1h-3.3v6h-3.3v-6h-6.3v-3.3  h6.3v-3.1c-0.8-0.2-1.6-0.5-2.4-0.9c-1.3-0.7-2.4-1.7-3.1-3.1c-0.8-1.3-1.2-2.7-1.2-4.2c0-1.4,0.4-2.8,1.1-4.2  c0.7-1.3,1.8-2.4,3.1-3.1c1.3-0.7,2.7-1.1,4.2-1.1c1.4,0,2.8,0.4,4.2,1.1c0.3,0.1,0.5,0.3,0.8,0.5V91.6h-3.3v6h-3.3v-6h-6.3v-3.3  h6.3v-3.1c-0.8-0.2-1.6-0.5-2.4-0.9c-1.3-0.7-2.4-1.7-3.1-3.1c-0.8-1.3-1.2-2.7-1.2-4.2c0-1.4,0.4-2.8,1.1-4.2  c0.7-1.3,1.8-2.4,3.1-3.1c1.3-0.7,2.7-1.1,4.2-1.1c1.4,0,2.8,0.4,4.2,1.1c0.1,0.1,0.2,0.1,0.3,0.2c-0.5-4.4-1.4-8.3-2.8-11.7v5.9  h-3.3v-6h-6.3v-3.3h6.3v-2.9c-0.1-0.1-0.1-0.2-0.1-0.2c-0.8-0.2-1.5-0.5-2.3-0.9c-1.3-0.7-2.4-1.7-3.1-3.1c-0.4-0.8-0.8-1.6-1-2.5  c-3.5-2.6-7.6-4.4-12.3-5.3c0.5,1.1,0.8,2.4,0.8,3.6c0,2.2-0.8,4.2-2.3,5.8c-1.2,1.3-2.7,2.1-4.4,2.4v3.1h6.2v3.3h-6.2v6h-3.3v-6  h-6.3v-3.3h6.3v-3.1c-0.8-0.2-1.6-0.5-2.4-0.9c-1.3-0.7-2.4-1.7-3.1-3.1c-0.8-1.3-1.2-2.7-1.2-4.2c0-1.4,0.4-2.8,1.1-4.2  c0-0.1,0.1-0.1,0.1-0.2c-4.7,0.4-8.8,1.4-12.5,3c0.1,0.4,0.1,0.9,0.1,1.3c0,2.2-0.8,4.2-2.3,5.8c-1.2,1.3-2.7,2.1-4.4,2.4v3.1h6.2  v3.3h-6.2v6h-3.3v-6h-6.3v-3.3h6.3v-3.1c-0.8-0.2-1.6-0.5-2.4-0.9c-0.1,0-0.1-0.1-0.2-0.1c-2.2,2.1-4.4,4.5-6.6,7.2V41.3h-9.1  c0.2,0.7,0.3,1.5,0.3,2.2c0,2.2-0.8,4.2-2.3,5.8c-1.2,1.3-2.7,2.1-4.4,2.4v3.1h6.2v3.3h-6.2v6h-3.3v-6h-6.3v-3.3h6.3v-3.1  c-0.8-0.2-1.6-0.5-2.4-0.9c-1.3-0.7-2.4-1.7-3.1-3.1c-0.8-1.3-1.2-2.7-1.2-4.2c0-0.8,0.1-1.5,0.3-2.2H72.5v102.2h11  c0.1-1.2,0.5-2.5,1.1-3.6c0.7-1.3,1.8-2.4,3.1-3.1c1.3-0.7,2.7-1.1,4.2-1.1c1.4,0,2.8,0.4,4.2,1.1c1.3,0.7,2.4,1.8,3.1,3.1  c0.6,1.1,1,2.3,1.1,3.5h11.3c0-0.5,0.1-0.9,0.2-1.4v-29.5c-0.2-0.6-0.2-1.3-0.3-2c0-0.7,0.1-1.3,0.3-2V94.4c0-1.9,0.1-3.6,0.2-5.3  v-0.8h0.1c0.2-2.4,0.6-4.6,1.1-6.5c-0.1-0.2-0.3-0.4-0.4-0.6c-0.8-1.3-1.2-2.7-1.2-4.2c0-1.4,0.4-2.8,1.1-4.2  c0.7-1.3,1.8-2.4,3.1-3.1c1.3-0.7,2.7-1.1,4.2-1.1c1.4,0,2.8,0.4,4.2,1.1c0.1,0.1,0.2,0.2,0.4,0.2c1.1-0.2,2.2-0.3,3.4-0.3  c4.3,0,7.6,1.3,10,4c0.7,0.8,1.3,1.7,1.7,2.8C139.6,75.2,139.9,74,140.5,72.9z M99.7,121.8v3.3h-6.2v6h-3.3v-6h-6.3v-3.3h6.3v-3.1  c-0.8-0.2-1.6-0.5-2.4-0.9c-1.3-0.7-2.4-1.7-3.1-3.1c-0.8-1.3-1.2-2.7-1.2-4.2c0-1.4,0.4-2.8,1.1-4.2c0.7-1.3,1.8-2.4,3.1-3.1  c1.3-0.7,2.7-1.1,4.2-1.1c1.4,0,2.8,0.4,4.2,1.1c1.3,0.7,2.4,1.8,3.1,3.1c0.7,1.3,1.1,2.7,1.1,4.1c0,2.2-0.8,4.2-2.3,5.8  c-1.2,1.3-2.7,2.1-4.4,2.4v3.1C93.5,121.8,99.7,121.8,99.7,121.8z M97.9,82.8c-1.2,1.3-2.7,2.1-4.4,2.4v3.1h6.2v3.3h-6.2v6h-3.3v-6  h-6.3v-3.3h6.3v-3.1c-0.8-0.2-1.6-0.5-2.4-0.9c-1.3-0.7-2.4-1.7-3.1-3.1c-0.8-1.3-1.2-2.7-1.2-4.2c0-1.4,0.4-2.8,1.1-4.2  c0.7-1.3,1.8-2.4,3.1-3.1c1.3-0.7,2.7-1.1,4.2-1.1c1.4,0,2.8,0.4,4.2,1.1c1.3,0.7,2.4,1.8,3.1,3.1c0.7,1.3,1.1,2.7,1.1,4.1  C100.2,79.2,99.5,81.2,97.9,82.8z" fill="#1E2171"  /><path d="M141.3,115.8v6h4.8v-3.1c-0.8-0.2-1.6-0.5-2.4-0.9C142.8,117.3,142,116.7,141.3,115.8z M94.4,72.6  c-0.8-0.5-1.7-0.7-2.6-0.7c-0.9,0-1.7,0.2-2.5,0.7c-0.8,0.4-1.5,1.1-1.9,1.9c-0.5,0.8-0.7,1.7-0.7,2.6c0,1.4,0.5,2.6,1.5,3.6  c1,1,2.2,1.5,3.6,1.5c1.4,0,2.6-0.5,3.6-1.5c1-1,1.5-2.2,1.5-3.6c0-0.9-0.2-1.7-0.7-2.6C95.9,73.7,95.2,73,94.4,72.6z M97,110.6  c0-0.9-0.2-1.7-0.7-2.6c-0.4-0.8-1.1-1.4-1.9-1.9c-0.8-0.4-1.7-0.7-2.6-0.7c-0.9,0-1.7,0.2-2.5,0.7c-0.8,0.4-1.5,1.1-1.9,1.9  c-0.5,0.8-0.7,1.7-0.7,2.6c0,1.4,0.5,2.6,1.5,3.6c1,1,2.2,1.5,3.6,1.5c1.4,0,2.6-0.5,3.6-1.5C96.5,113.2,97,112,97,110.6z   M147.8,115.7c1.4,0,2.6-0.5,3.6-1.5c1-1,1.5-2.2,1.5-3.6c0-0.9-0.2-1.7-0.7-2.6c-0.4-0.8-1.1-1.4-1.9-1.9c-0.8-0.4-1.7-0.7-2.6-0.7  c-0.9,0-1.7,0.2-2.5,0.7c-0.8,0.4-1.5,1.1-1.9,1.9c-0.5,0.8-0.7,1.7-0.7,2.6c0,1.4,0.5,2.6,1.5,3.6  C145.2,115.2,146.4,115.7,147.8,115.7L147.8,115.7z M226.6,43.5c0,1.4,0.5,2.6,1.5,3.6c1,1,2.2,1.5,3.6,1.5c1.4,0,2.6-0.5,3.6-1.5  c1-1,1.5-2.2,1.5-3.6c0-0.9-0.2-1.7-0.7-2.6c-0.3-0.6-0.7-1-1.2-1.4c-2.7,0.4-5.4,1.1-8,2.1C226.8,42.3,226.6,42.9,226.6,43.5  L226.6,43.5z M208.9,110.6c0-0.9-0.2-1.7-0.7-2.6c-0.4-0.8-1.1-1.4-1.9-1.9c-0.8-0.4-1.7-0.7-2.6-0.7c-0.9,0-1.7,0.2-2.5,0.7  c-0.2,0.1-0.4,0.3-0.6,0.4c0.6,3.1,1.4,6.1,2.4,9.1c0.2,0,0.4,0.1,0.7,0.1c1.4,0,2.6-0.5,3.6-1.5C208.4,113.2,208.9,112,208.9,110.6  L208.9,110.6z M259.7,48.7c1.4,0,2.6-0.5,3.6-1.5c0.6-0.6,1.1-1.3,1.3-2.2c-1.8-1.1-3.6-2.1-5.6-3c-1.2-0.5-2.4-0.9-3.6-1.3  c0,0.1-0.1,0.1-0.1,0.2c-0.5,0.8-0.7,1.7-0.7,2.6c0,1.4,0.5,2.6,1.5,3.6C257.1,48.2,258.3,48.7,259.7,48.7z M259.7,139  c-0.9,0-1.7,0.2-2.5,0.7c-0.8,0.4-1.5,1.1-1.9,1.9c-0.4,0.8-0.7,1.6-0.7,2.5c2.2-0.7,4.4-1.6,6.5-2.7c0.6-0.3,1.3-0.7,1.9-1.2  c-0.2-0.2-0.5-0.4-0.8-0.6C261.4,139.2,260.6,139,259.7,139L259.7,139z M202.1,85.2c-0.8-0.2-1.6-0.5-2.4-0.9  c-0.1,0-0.1-0.1-0.2-0.1c-0.1,1.4-0.2,2.7-0.2,4.1h2.8L202.1,85.2L202.1,85.2z M207.4,80.7c1-1,1.5-2.2,1.5-3.6  c0-0.9-0.2-1.7-0.7-2.6c-0.4-0.8-1.1-1.4-1.9-1.9c-0.8-0.5-1.7-0.7-2.6-0.7c-0.8,0-1.6,0.2-2.5,0.6c-0.6,2.6-1.1,5.2-1.4,7.8  c0.1,0.1,0.2,0.2,0.2,0.3c1,1,2.2,1.5,3.6,1.5C205.2,82.2,206.4,81.7,207.4,80.7L207.4,80.7z M310.5,43.5c0,1.4,0.5,2.5,1.4,3.5  v-6.9c-0.3,0.3-0.5,0.6-0.7,0.9C310.8,41.8,310.5,42.6,310.5,43.5z M283.3,7.4c-0.5,0.8-0.7,1.7-0.7,2.6c0,1.4,0.5,2.6,1.5,3.6  c1,1,2.2,1.5,3.6,1.5c1.4,0,2.6-0.5,3.6-1.5c1-1,1.5-2.2,1.5-3.6c0-0.9-0.2-1.7-0.7-2.6c-0.4-0.8-1.1-1.4-1.9-1.9  c-0.8-0.5-1.7-0.7-2.6-0.7c-0.9,0-1.7,0.2-2.5,0.7C284.3,6,283.7,6.6,283.3,7.4z M310.5,10c0,1.4,0.5,2.5,1.4,3.5V6.6  c-0.3,0.3-0.5,0.6-0.7,0.9C310.8,8.3,310.5,9.1,310.5,10z M310.5,77c0,1.4,0.5,2.5,1.4,3.5v-6.9c-0.3,0.3-0.5,0.6-0.7,0.9  C310.8,75.3,310.5,76.2,310.5,77z M310.6,143.5h1.3v-2.8c-0.3,0.3-0.5,0.6-0.7,0.9C310.9,142.1,310.7,142.8,310.6,143.5z   M310.5,110.6c0,1.4,0.5,2.5,1.4,3.5v-6.9c-0.3,0.3-0.5,0.6-0.7,0.9C310.8,108.8,310.5,109.7,310.5,110.6z M234.3,139.6  c-0.8-0.4-1.7-0.7-2.6-0.7c-0.9,0-1.7,0.2-2.5,0.7c-0.8,0.4-1.5,1.1-1.9,1.9c-0.3,0.5-0.5,1-0.6,1.6c3.1,1.2,6.4,2,9.9,2.4  c0.1-0.4,0.2-0.9,0.2-1.4c0-0.9-0.2-1.7-0.7-2.6C235.7,140.7,235.1,140,234.3,139.6L234.3,139.6z M234.3,106.1  c-0.8-0.4-1.7-0.7-2.6-0.7c-0.9,0-1.7,0.2-2.5,0.7c-0.8,0.4-1.5,1.1-1.9,1.9c-0.5,0.8-0.7,1.7-0.7,2.6c0,1.4,0.5,2.6,1.5,3.6  c1,1,2.2,1.5,3.6,1.5c1.4,0,2.6-0.5,3.6-1.5c1-1,1.5-2.2,1.5-3.6c0-0.9-0.2-1.7-0.7-2.6C235.7,107.2,235.1,106.5,234.3,106.1z" fill="#1E2171"  /><path d="M279.3,143.5c0.1-1.2,0.5-2.5,1.1-3.6c0.7-1.3,1.8-2.4,3.1-3.1c1.3-0.7,2.7-1.1,4.2-1.1  c1.4,0,2.8,0.4,4.2,1.1c1.3,0.7,2.4,1.8,3.1,3.1c0.6,1.1,1,2.3,1.1,3.5h11.3c0.1-1.2,0.5-2.5,1.1-3.6c0.7-1.3,1.8-2.4,3.1-3.1  c0.1-0.1,0.3-0.1,0.4-0.2v-11.5h-4.2v-3.3h4.2V118c-0.1,0-0.2-0.1-0.3-0.1c-1.3-0.7-2.4-1.7-3.1-3.1c-0.8-1.3-1.2-2.7-1.2-4.2  c0-1.4,0.4-2.8,1.1-4.2c0.7-1.3,1.8-2.4,3.1-3.1c0.1-0.1,0.3-0.1,0.4-0.2V91.6h-4.2v-3.3h4.2v-3.9c-0.1-0.1-0.2-0.1-0.3-0.1  c-1.3-0.7-2.4-1.7-3.1-3.1c-0.8-1.3-1.2-2.7-1.2-4.2c0-1.4,0.4-2.8,1.1-4.2c0.7-1.3,1.8-2.4,3.1-3.1c0.1-0.1,0.3-0.1,0.4-0.2V58.1  h-4.2v-3.3h4.2V51c-0.1,0-0.2-0.1-0.3-0.1c-1.3-0.7-2.4-1.7-3.1-3.1c-0.8-1.3-1.2-2.7-1.2-4.2c0-1.4,0.4-2.8,1.1-4.2  c0.7-1.3,1.8-2.4,3.1-3.1c0.1-0.1,0.3-0.1,0.4-0.2V24.6h-4.2v-3.3h4.2v-3.9c-0.1,0-0.2-0.1-0.3-0.1c-1.3-0.7-2.4-1.7-3.1-3.1  c-0.8-1.3-1.2-2.7-1.2-4.2c0-1.4,0.4-2.8,1.1-4.2c0.7-1.3,1.8-2.4,3.1-3.1c0.1-0.1,0.3-0.1,0.4-0.2V2.4h-20.7  c0.2,0.1,0.5,0.2,0.7,0.3c1.3,0.7,2.4,1.8,3.1,3.1c0.7,1.3,1.1,2.7,1.1,4.1c0,2.2-0.8,4.2-2.3,5.8c-1.2,1.3-2.7,2.1-4.4,2.4v3.1h6.2  v3.3h-6.2v6H286v-6h-6.3v-3.3h6.3v-3.1c-0.8-0.2-1.6-0.5-2.4-0.9c-1.3-0.7-2.4-1.7-3.1-3.1c-0.8-1.3-1.2-2.7-1.2-4.2  c0-1.4,0.4-2.8,1.1-4.2c0.7-1.3,1.8-2.4,3.1-3.1c0.2-0.1,0.5-0.2,0.7-0.3h-11.9v48.9c-1.5-1.6-3.2-3.1-4.9-4.4  c-0.4,0.9-0.9,1.7-1.6,2.4c-1.2,1.3-2.7,2.1-4.4,2.4v3.1h6.2v3.3h-6.2v6H258v-6h-6.3v-3.3h6.3v-3.1c-0.8-0.2-1.6-0.5-2.4-0.9  c-1.3-0.7-2.4-1.7-3.1-3.1c-0.8-1.3-1.2-2.7-1.2-4.2c0-1.2,0.3-2.4,0.8-3.5c-3.2-0.7-6.5-1-9.7-1c-1.2,0-2.4,0.1-3.5,0.2  c0.1,0.1,0.1,0.2,0.2,0.2c0.7,1.3,1.1,2.7,1.1,4.1c0,2.2-0.8,4.2-2.3,5.8c-1.2,1.3-2.7,2.1-4.4,2.4v3.1h6.2v3.3h-6.2v6h-3.3v-6h-6.3  v-3.3h6.3v-3.1c-0.8-0.2-1.6-0.5-2.4-0.9c-1.3-0.7-2.4-1.7-3.1-3.1c-0.8-1.3-1.2-2.7-1.2-4.2c0-0.1,0-0.2,0-0.2  c-4.4,2.2-8.4,5.2-12,9.2c-0.7,0.8-1.3,1.6-1.9,2.4h2.1v3.3h-4.4c-0.6,1-1.3,2.1-1.8,3.2v2.8H204c-0.7,1.5-1.2,3.1-1.7,4.7  c0.5-0.1,1-0.1,1.5-0.1c1.4,0,2.8,0.4,4.2,1.1c1.3,0.7,2.4,1.8,3.1,3.1c0.7,1.3,1.1,2.7,1.1,4.1c0,2.2-0.8,4.2-2.3,5.8  c-1.2,1.3-2.7,2.1-4.4,2.4v3.1h6.2v3.3h-6.2v6h-3.3v-6h-2.9c0,4,0.3,7.8,0.8,11.4c1.2-0.6,2.4-0.9,3.7-0.9c1.4,0,2.8,0.4,4.2,1.1  c1.3,0.7,2.4,1.8,3.1,3.1c0.7,1.3,1.1,2.7,1.1,4.1c0,2.2-0.8,4.2-2.3,5.8c-1.2,1.3-2.7,2.1-4.4,2.4v2.7c0.1,0.1,0.1,0.3,0.2,0.4h6.1  v3.3h-4.3c0.9,1.6,1.9,3.2,2.9,4.7c3.7,5.3,8.1,9.2,13.4,11.9c0.2-0.6,0.4-1.3,0.8-1.9c0.7-1.3,1.8-2.4,3.1-3.1  c1.3-0.7,2.7-1.1,4.2-1.1c1.4,0,2.8,0.4,4.2,1.1c1.3,0.7,2.4,1.8,3.1,3.1c0.7,1.3,1.1,2.7,1.1,4.1c0,0.6-0.1,1.1-0.2,1.7  c0.7,0,1.5,0.1,2.3,0.1c3.2,0,6.3-0.3,9.2-1c0-0.3,0-0.5,0-0.8c0-1.4,0.4-2.8,1.1-4.2c0.7-1.3,1.8-2.4,3.1-3.1  c1.3-0.7,2.7-1.1,4.2-1.1c1.4,0,2.8,0.4,4.2,1.1c0.7,0.4,1.3,0.9,1.8,1.4c3-2.4,6.1-5.7,9.5-9.9v15.1L279.3,143.5L279.3,143.5z   M237.8,116.3c-1.2,1.3-2.7,2.1-4.4,2.4v3.1h6.2v3.3h-6.2v6h-3.3v-6h-6.3v-3.3h6.3v-3.1c-0.8-0.2-1.6-0.5-2.4-0.9  c-1.3-0.7-2.4-1.7-3.1-3.1c-0.8-1.3-1.2-2.7-1.2-4.2c0-1.4,0.4-2.8,1.1-4.2c0.7-1.3,1.8-2.4,3.1-3.1c1.3-0.7,2.7-1.1,4.2-1.1  c1.4,0,2.8,0.4,4.2,1.1c1.3,0.7,2.4,1.8,3.1,3.1c0.7,1.3,1.1,2.7,1.1,4.1C240.1,112.8,239.3,114.7,237.8,116.3L237.8,116.3z   M268.1,110.5L268.1,110.5c0,2.3-0.8,4.2-2.3,5.8c-1.2,1.3-2.7,2.1-4.4,2.4v3.1h6.2v3.3h-6.2v6H258v-6h-6.3v-3.3h6.3v-3.1  c-0.8-0.2-1.6-0.5-2.4-0.9c-0.4-0.2-0.8-0.5-1.2-0.8c-4.4-0.2-8.2-2.1-11.2-5.8c-3.2-3.9-4.8-10-4.8-18.3c0-0.5,0-0.9,0-1.3h-5.1v6  h-3.3v-6h-6.3v-3.3h6.3v-3.1c-0.8-0.2-1.6-0.5-2.4-0.9c-1.3-0.7-2.4-1.7-3.1-3.1c-0.8-1.3-1.2-2.7-1.2-4.2c0-1.4,0.4-2.8,1.1-4.2  c0.7-1.3,1.8-2.4,3.1-3.1c1.3-0.7,2.7-1.1,4.2-1.1c1.4,0,2.8,0.4,4.2,1.1c1.3,0.7,2.4,1.8,3.1,3.1c0.7,1.3,1.1,2.7,1.1,4.1  c0,2.2-0.8,4.2-2.3,5.8c-1.2,1.3-2.7,2.1-4.4,2.4v3.1h5.2c0.5-6.5,1.9-11.3,4.5-14.4c3.1-3.8,6.9-5.7,11.5-5.7  c1.5,0,2.9,0.2,4.2,0.5c0.3,0,0.6-0.1,0.9-0.1c1.4,0,2.8,0.4,4.2,1.1c1.3,0.7,2.4,1.8,3.1,3.1c0.3,0.5,0.5,1,0.6,1.5  c3.3,3.9,4.9,9.8,4.9,17.7C272.6,100.4,271.1,106.6,268.1,110.5L268.1,110.5z M280.4,39.4c0.7-1.3,1.8-2.4,3.1-3.1  c1.3-0.7,2.7-1.1,4.2-1.1c1.4,0,2.8,0.4,4.2,1.1c1.3,0.7,2.4,1.8,3.1,3.1c0.7,1.3,1.1,2.7,1.1,4.1c0,2.2-0.8,4.2-2.3,5.8  c-1.2,1.3-2.7,2.1-4.4,2.4v3.1h6.2v3.3h-6.2v6H286v-6h-6.3v-3.3h6.3v-3.1c-0.8-0.2-1.6-0.5-2.4-0.9c-1.3-0.7-2.4-1.7-3.1-3.1  c-0.8-1.3-1.2-2.7-1.2-4.2C279.3,42.1,279.7,40.7,280.4,39.4L280.4,39.4z M280.4,72.9c0.7-1.3,1.8-2.4,3.1-3.1  c1.3-0.7,2.7-1.1,4.2-1.1c1.4,0,2.8,0.4,4.2,1.1c1.3,0.7,2.4,1.8,3.1,3.1c0.7,1.3,1.1,2.7,1.1,4.1c0,2.2-0.8,4.2-2.3,5.8  c-1.2,1.3-2.7,2.1-4.4,2.4v3.1h6.2v3.3h-6.2v6H286v-6h-6.3v-3.3h6.3v-3.1c-0.8-0.2-1.6-0.5-2.4-0.9c-1.3-0.7-2.4-1.7-3.1-3.1  c-0.8-1.3-1.2-2.7-1.2-4.2C279.3,75.6,279.7,74.2,280.4,72.9L280.4,72.9z M280.4,106.4c0.7-1.3,1.8-2.4,3.1-3.1  c1.3-0.7,2.7-1.1,4.2-1.1c1.4,0,2.8,0.4,4.2,1.1c1.3,0.7,2.4,1.8,3.1,3.1c0.7,1.3,1.1,2.7,1.1,4.1c0,2.2-0.8,4.2-2.3,5.8  c-1.2,1.3-2.7,2.1-4.4,2.4v3.1h6.2v3.3h-6.2v6H286v-6h-6.3v-3.3h6.3v-3.1c-0.8-0.2-1.6-0.5-2.4-0.9c-1.3-0.7-2.4-1.7-3.1-3.1  c-0.8-1.3-1.2-2.7-1.2-4.2C279.3,109.1,279.7,107.7,280.4,106.4L280.4,106.4z" fill="#1E2171"  /><path d="M287.7,115.7c1.4,0,2.6-0.5,3.6-1.5c1-1,1.5-2.2,1.5-3.6c0-0.9-0.2-1.7-0.7-2.6c-0.4-0.8-1.1-1.4-1.9-1.9  c-0.8-0.4-1.7-0.7-2.6-0.7c-0.9,0-1.7,0.2-2.5,0.7c-0.8,0.4-1.5,1.1-1.9,1.9c-0.5,0.8-0.7,1.7-0.7,2.6c0,1.4,0.5,2.6,1.5,3.6  C285.1,115.2,286.3,115.7,287.7,115.7z M290.2,139.6c-0.8-0.4-1.7-0.7-2.6-0.7c-0.9,0-1.7,0.2-2.5,0.7c-0.8,0.4-1.5,1.1-1.9,1.9  c-0.4,0.6-0.5,1.3-0.6,2h10.1c-0.1-0.7-0.3-1.3-0.6-2C291.7,140.7,291,140.1,290.2,139.6z M287.7,82.2c1.4,0,2.6-0.5,3.6-1.5  c1-1,1.5-2.2,1.5-3.6c0-0.9-0.2-1.7-0.7-2.6c-0.4-0.8-1.1-1.4-1.9-1.9c-0.8-0.5-1.7-0.7-2.6-0.7c-0.9,0-1.7,0.2-2.5,0.7  c-0.8,0.4-1.5,1.1-1.9,1.9c-0.5,0.8-0.7,1.7-0.7,2.6c0,1.4,0.5,2.6,1.5,3.6C285.1,81.7,286.3,82.2,287.7,82.2z M287.7,48.7  c1.4,0,2.6-0.5,3.6-1.5c1-1,1.5-2.2,1.5-3.6c0-0.9-0.2-1.7-0.7-2.6c-0.4-0.8-1.1-1.4-1.9-1.9c-0.8-0.5-1.7-0.7-2.6-0.7  c-0.9,0-1.7,0.2-2.5,0.7c-0.8,0.4-1.5,1.1-1.9,1.9c-0.5,0.8-0.7,1.7-0.7,2.6c0,1.4,0.5,2.6,1.5,3.6  C285.1,48.2,286.3,48.7,287.7,48.7z M236.9,77c0-0.9-0.2-1.7-0.7-2.6c-0.4-0.8-1.1-1.4-1.9-1.9c-0.8-0.5-1.7-0.7-2.6-0.7  c-0.9,0-1.7,0.2-2.5,0.7c-0.8,0.4-1.5,1.1-1.9,1.9c-0.5,0.8-0.7,1.7-0.7,2.6c0,1.4,0.5,2.6,1.5,3.6c1,1,2.2,1.5,3.6,1.5  c1.4,0,2.6-0.5,3.6-1.5C236.4,79.7,236.9,78.5,236.9,77z M506.5,21.3h3.3v-3.1c-0.3-0.1-0.6-0.2-0.9-0.3c-0.7,0.9-1.4,1.8-2,2.8  C506.7,20.9,506.6,21.1,506.5,21.3z M515.1,13.6c0.8-0.8,1.3-1.8,1.4-2.9c-1.8,1.3-3.6,2.8-5.2,4.4c0,0,0.1,0,0.1,0  C512.9,15.2,514.1,14.7,515.1,13.6L515.1,13.6z M509.8,130.8v-5.7h-4.7C506.5,127.1,508.1,129,509.8,130.8z M572.6,144.1  c0-0.9-0.2-1.7-0.7-2.6c-0.4-0.8-1.1-1.4-1.9-1.9c-0.8-0.4-1.7-0.7-2.6-0.7c-0.9,0-1.7,0.2-2.5,0.7c-0.8,0.4-1.5,1.1-1.9,1.9  c-0.5,0.8-0.7,1.7-0.7,2.6c0,0.6,0.1,1.2,0.3,1.8c3.4,0,6.7-0.2,9.8-0.5C572.5,144.9,572.6,144.5,572.6,144.1L572.6,144.1z   M592.9,139.6c-0.8,0.4-1.4,1.1-1.9,1.8c1.3-0.5,2.6-1,3.9-1.5c0.6-0.3,1.2-0.6,1.8-0.8c-0.4-0.1-0.8-0.2-1.2-0.2  C594.5,139,593.7,139.2,592.9,139.6z M619.9,80.8c-0.5-1.1-1-2.1-1.6-3.1c0.1,1.1,0.6,2.2,1.4,3C619.8,80.7,619.9,80.7,619.9,80.8  L619.9,80.8z M535,7.4c-0.5,0.8-0.7,1.7-0.7,2.6c0,1.4,0.5,2.6,1.5,3.6c1,1,2.2,1.5,3.6,1.5c1.4,0,2.6-0.5,3.6-1.5  c1-1,1.5-2.2,1.5-3.6c0-0.9-0.2-1.7-0.7-2.6c-0.4-0.8-1.1-1.4-1.9-1.9c-0.8-0.5-1.7-0.7-2.6-0.7c-0.9,0-1.7,0.2-2.5,0.7  C536.1,6,535.5,6.6,535,7.4z M620.8,106.1c-0.8,0.4-1.5,1.1-1.9,1.9c-0.5,0.8-0.7,1.7-0.7,2.6c0,1.4,0.5,2.6,1.5,3.6  c0.1,0.1,0.2,0.2,0.4,0.3c1.2-2.9,2-5.9,2.6-9C622.1,105.6,621.5,105.8,620.8,106.1z M618.8,42c0-0.2-0.1-0.3-0.1-0.5  c-0.1,0.2-0.1,0.3-0.2,0.5L618.8,42z M600.6,110.6c0-0.9-0.2-1.7-0.7-2.6c-0.4-0.8-1.1-1.4-1.9-1.9c-0.8-0.4-1.7-0.7-2.6-0.7  c-0.9,0-1.7,0.2-2.5,0.7c-0.8,0.4-1.5,1.1-1.9,1.9c-0.5,0.8-0.7,1.7-0.7,2.6c0,1.4,0.5,2.6,1.5,3.6c1,1,2.2,1.5,3.6,1.5  c1.4,0,2.6-0.5,3.6-1.5C600.1,113.2,600.6,112,600.6,110.6L600.6,110.6z M592.9,5.6c-0.8,0.4-1.5,1.1-1.9,1.9  c-0.5,0.8-0.7,1.7-0.7,2.6c0,1.4,0.5,2.6,1.5,3.6c1,1,2.2,1.5,3.6,1.5c1.4,0,2.6-0.5,3.6-1.5c1-1,1.5-2.2,1.5-3.6  c0-0.3-0.1-0.6-0.1-0.9c-2.3-1.5-4.7-2.7-7.2-3.8C593.1,5.5,593,5.5,592.9,5.6L592.9,5.6z M542,139.6c-0.8-0.4-1.7-0.7-2.6-0.7  c-0.9,0-1.7,0.2-2.5,0.7c-0.8,0.4-1.5,1.1-1.9,1.9c-0.3,0.6-0.5,1.3-0.6,1.9c3.3,0.7,6.7,1.3,10.1,1.6c0.1-0.3,0.1-0.6,0.1-1  c0-0.9-0.2-1.7-0.7-2.6C543.5,140.7,542.8,140,542,139.6L542,139.6z M516.6,43.5c0-0.9-0.2-1.7-0.7-2.6c-0.4-0.8-1.1-1.4-1.9-1.9  c-0.8-0.5-1.7-0.7-2.6-0.7c-0.9,0-1.7,0.2-2.5,0.7c-0.8,0.4-1.5,1.1-1.9,1.9c-0.5,0.8-0.7,1.7-0.7,2.6c0,1.4,0.5,2.6,1.5,3.6  c1,1,2.2,1.5,3.6,1.5c1.4,0,2.6-0.5,3.6-1.5C516.1,46.2,516.6,45,516.6,43.5z M599.9,40.9c-0.4-0.8-1.1-1.4-1.9-1.9  c-0.8-0.5-1.7-0.7-2.6-0.7c-0.9,0-1.7,0.2-2.5,0.7c-0.8,0.4-1.5,1.1-1.9,1.9c-0.5,0.8-0.7,1.7-0.7,2.6c0,0.1,0,0.1,0,0.2l10.2-0.6  C600.4,42.4,600.2,41.6,599.9,40.9z M572.6,77c0-0.9-0.2-1.7-0.7-2.6c-0.4-0.8-1.1-1.4-1.9-1.9c-0.8-0.5-1.7-0.7-2.6-0.7  c-0.9,0-1.7,0.2-2.5,0.7c-0.8,0.4-1.5,1.1-1.9,1.9c-0.5,0.8-0.7,1.7-0.7,2.6c0,1.4,0.5,2.6,1.5,3.6c1,1,2.2,1.5,3.6,1.5  c1.4,0,2.6-0.5,3.6-1.5C572.1,79.7,572.6,78.5,572.6,77L572.6,77z M536.9,39.1c-0.8,0.4-1.5,1.1-1.9,1.9c-0.5,0.8-0.7,1.7-0.7,2.6  c0,1.4,0.5,2.6,1.5,3.6c1,1,2.2,1.5,3.6,1.5c1.4,0,2.6-0.5,3.6-1.5c1-0.9,1.4-2.1,1.5-3.4c-0.2-0.1-0.4-0.3-0.5-0.4  c-1.7-1.4-2.7-3-3-4.7c-0.5-0.2-1.1-0.3-1.6-0.3C538.6,38.4,537.8,38.6,536.9,39.1L536.9,39.1z M572.6,10c0-0.9-0.2-1.7-0.7-2.6  c-0.4-0.8-1.1-1.4-1.9-1.9c-0.8-0.5-1.7-0.7-2.6-0.7c-0.9,0-1.7,0.2-2.5,0.7c-0.8,0.4-1.5,1.1-1.9,1.9c-0.5,0.8-0.7,1.7-0.7,2.6  c0,1.4,0.5,2.6,1.5,3.6c1,1,2.2,1.5,3.6,1.5c1.4,0,2.6-0.5,3.6-1.5C572.1,12.6,572.6,11.5,572.6,10L572.6,10z M535,108  c-0.5,0.8-0.7,1.7-0.7,2.6c0,1.4,0.5,2.6,1.5,3.6c1,1,2.2,1.5,3.6,1.5c1.4,0,2.6-0.5,3.6-1.5c0.6-0.6,1.1-1.4,1.3-2.3  c-0.8-0.7-1.5-1.5-2.2-2.4c-0.9-1.2-1.7-2.6-2.5-4.1c-0.1,0-0.2,0-0.3,0c-0.9,0-1.7,0.2-2.5,0.7C536.1,106.5,535.5,107.2,535,108  L535,108z M598,72.6c-0.8-0.5-1.7-0.7-2.6-0.7c-0.9,0-1.7,0.2-2.5,0.7c-0.8,0.4-1.5,1.1-1.9,1.9c-0.5,0.8-0.7,1.7-0.7,2.6  c0,1.4,0.5,2.6,1.5,3.6c1,1,2.2,1.5,3.6,1.5c1.4,0,2.6-0.5,3.6-1.5c1-1,1.5-2.2,1.5-3.6c0-0.9-0.2-1.7-0.7-2.6  C599.4,73.7,598.8,73,598,72.6L598,72.6z" fill="#1E2171"  /><path d="M615.5,121.8h0.9c0.9-1.4,1.7-2.9,2.4-4.3c-1.1-0.7-2-1.6-2.6-2.7c-0.8-1.3-1.2-2.7-1.2-4.2  c0-1.4,0.4-2.8,1.1-4.2c0.7-1.3,1.8-2.4,3.1-3.1c1.2-0.7,2.5-1,3.9-1.1c0.1-1.5,0.3-3,0.3-4.6h-1.7v-6h-6.3v-3.3h6.3v-2.6l-0.2-0.5  c-0.8-0.2-1.5-0.5-2.2-0.9c-1.3-0.7-2.4-1.7-3.1-3.1c-0.8-1.3-1.2-2.7-1.2-4.2c0-1.1,0.2-2.2,0.7-3.3c-3.8-4.9-9.1-9.2-16-12.7  c-0.9-0.4-1.8-0.9-2.7-1.3v4.3h-3.3v-5.7l-0.7-0.3h-5.6v-2c-4.8-1.6-10.5-3.2-17-4.8c-0.5,0.2-0.9,0.3-1.4,0.4v3.1h6.2v3.3h-6.2v6  h-3.3v-6h-6.3v-3.3h6.3v-3.1c-0.8-0.2-1.6-0.5-2.4-0.9c-0.8-0.4-1.5-1-2.1-1.7c-0.8-0.2-1.7-0.4-2.5-0.6c-4.8-1-8.5-2-11.1-3.1  c-0.3,1.4-1,2.8-2.1,3.8c-1.2,1.3-2.7,2.1-4.4,2.4v3.1h6.2v3.3h-6.2v6h-3.3v-6h-6.3v-3.3h6.3v-3.1c-0.8-0.2-1.6-0.5-2.4-0.9  c-1.3-0.7-2.4-1.7-3.1-3.1c-0.8-1.3-1.2-2.7-1.2-4.2c0-1.4,0.4-2.8,1.1-4.2c0.7-1.3,1.8-2.4,3.1-3.1c1.3-0.7,2.7-1.1,4.2-1.1  c0.6,0,1.1,0.1,1.6,0.2c0.5-2.2,1.7-4.2,3.7-5.8c2.6-2.1,6.4-3.2,11.5-3.2c3.7,0,6.8,0.5,9.6,1.5v-3.2h-6.3v-3.3h6.3v-3.1  c-0.8-0.2-1.6-0.5-2.4-0.9c-1.3-0.7-2.4-1.7-3.1-3.1c-0.8-1.3-1.2-2.7-1.2-4.2c0-1.4,0.4-2.8,1.1-4.2c0.7-1.3,1.8-2.4,3.1-3.1  c1.3-0.7,2.7-1.1,4.2-1.1c1.4,0,2.8,0.4,4.2,1.1c1.3,0.7,2.4,1.8,3.1,3.1c0.7,1.3,1.1,2.7,1.1,4.1c0,2.2-0.8,4.2-2.3,5.8  c-1.2,1.3-2.7,2.1-4.4,2.4v3.1h6.2v3.3h-6.2v4.8c0.6,0.4,1.1,0.7,1.6,1.2c3.5,2.9,5.8,7.5,6.9,13.9l9.5-0.6c0-0.1,0-0.3,0-0.4  c0-1.4,0.4-2.8,1.1-4.2c0.7-1.3,1.8-2.4,3.1-3.1c1.3-0.7,2.7-1.1,4.2-1.1c1.4,0,2.8,0.4,4.2,1.1c1.3,0.7,2.4,1.8,3.1,3.1  c0.6,1.1,1,2.3,1.1,3.6l11.4-0.7c0.2-1,0.5-2,1-2.9c0.5-0.9,1.1-1.6,1.9-2.2c-2.2-11.2-7-19.7-14.3-25.6c-0.3,1.6-1,3-2.2,4.3  c-1.2,1.3-2.7,2.1-4.4,2.4v3.1h6.2v3.3h-6.2v6h-3.3v-6h-6.3v-3.3h6.3v-3.1c-0.8-0.2-1.6-0.5-2.4-0.9c-1.3-0.7-2.4-1.7-3.1-3.1  c-0.8-1.3-1.2-2.7-1.2-4.2c0-1.4,0.4-2.8,1.1-4.2c0.4-0.7,0.9-1.3,1.4-1.9c-8-2.7-17.6-4-29-4c-7.9,0-15,0.6-21.1,1.6  c1.4,0,2.8,0.4,4.2,1.1c1.3,0.7,2.4,1.8,3.1,3.1c0.7,1.3,1.1,2.7,1.1,4.1c0,2.2-0.8,4.2-2.3,5.8c-1.2,1.3-2.7,2.1-4.4,2.4v3.1h6.2  v3.3h-6.2v6h-3.3v-6h-6.3v-3.3h6.3v-3.1c-0.8-0.2-1.6-0.5-2.4-0.9c-1.3-0.7-2.4-1.7-3.1-3.1c-0.8-1.3-1.2-2.7-1.2-4.2  c0-1.4,0.4-2.8,1.1-4.2c0.7-1.3,1.8-2.4,3.1-3.1c0.4-0.2,0.7-0.4,1.1-0.5c-4,0.9-7.5,2-10.6,3.3c-2.1,0.9-4.1,1.9-6.1,3.1  c0.1,0.5,0.1,0.9,0.1,1.4c0,2.2-0.8,4.2-2.3,5.8c-1.2,1.3-2.7,2.1-4.4,2.4v3.1h6.2v3.3h-6.2v6h-3.3v-6h-5.2  c-2.7,5.3-4.1,10.9-4.1,16.7c0,5.5,1,10.5,3.1,15v-1.5h6.3v-3.1c-0.8-0.2-1.6-0.5-2.4-0.9c-1.3-0.7-2.4-1.7-3.2-3.1  c-0.8-1.3-1.2-2.7-1.2-4.2c0-1.4,0.4-2.8,1.1-4.2c0.7-1.3,1.8-2.4,3.1-3.1c1.3-0.7,2.7-1.1,4.2-1.1c1.4,0,2.8,0.4,4.2,1.1  c1.3,0.7,2.4,1.8,3.1,3.1c0.7,1.3,1.1,2.7,1.1,4.1c0,2.2-0.8,4.2-2.3,5.8c-1.2,1.3-2.7,2.1-4.4,2.4v3.1h6.2v3.3h-6.2v6h-3.3v-6h-5.3  c2,3.8,4.8,7.3,8.3,10.4c0.1,0.1,0.3,0.2,0.4,0.4c0.8,0.2,1.6,0.5,2.4,0.9c1.3,0.7,2.3,1.8,3.1,3c3.6,2.2,7.8,4.3,12.6,6.2  c-0.2-0.6-0.2-1.3-0.2-1.9c0-1.4,0.4-2.8,1.1-4.2c0.7-1.3,1.8-2.4,3.1-3.1c1.3-0.7,2.7-1.1,4.2-1.1c1.4,0,2.8,0.4,4.2,1.1  c1.3,0.7,2.4,1.8,3.1,3.1c0.7,1.3,1.1,2.7,1.1,4.1c0,2.2-0.8,4.2-2.3,5.8c-0.2,0.2-0.4,0.4-0.7,0.6c2.8,0.8,5.8,1.5,8.9,2.2  c4,0.9,7.5,1.8,10.5,2.7h1.5v-3.1c-0.8-0.2-1.6-0.5-2.4-0.9c-1.3-0.7-2.4-1.7-3.1-3.1c-0.8-1.3-1.2-2.7-1.2-4.2  c0-1.4,0.4-2.8,1.1-4.2c0.7-1.3,1.8-2.4,3.1-3.1c1.3-0.7,2.7-1.1,4.2-1.1c1.4,0,2.8,0.4,4.2,1.1c1.3,0.7,2.4,1.8,3.1,3.1  c0.7,1.3,1.1,2.7,1.1,4.1c0,2.2-0.8,4.2-2.3,5.8c-1.2,1.3-2.7,2.1-4.4,2.4v3.1h6.2v3.3h-2.4c1.4,0.7,2.5,1.4,3.3,2.2  c3.2,2.9,4.8,6.2,4.8,9.8c0,3.9-1.7,7.2-5.1,10.2c-0.4,0.3-0.8,0.7-1.2,1c-0.3,0.6-0.7,1.1-1.2,1.6c-1.2,1.3-2.7,2.1-4.4,2.4v3.1  h6.2v3.3h-6.2v6h-3.3v-6h-6.3v-3.3h6.3v-3.1c-0.6-0.1-1.3-0.4-1.9-0.7c-0.8,0-1.5,0.1-2.3,0.1c-5.7,0-10.5-1.4-14.5-4.1  c-0.4,0.8-0.9,1.6-1.5,2.2c-1.2,1.3-2.7,2.1-4.4,2.4v3.1h6.2v3.3h-6.2v6h-3.3v-6h-6.3v-3.3h6.3v-3.1c-0.8-0.2-1.6-0.5-2.4-0.9  c-1.3-0.7-2.4-1.7-3.1-3.1c-0.8-1.3-1.2-2.7-1.2-4.2c0-1.4,0.4-2.8,1.1-4.2c0.7-1.3,1.8-2.4,3.1-3.1c1-0.6,2.1-0.9,3.2-1  c-0.8-2.4-1.4-5-1.8-8l-23.6,1.5v1.9h-3.3v-1.7l-14.6,0.9c0.8,9.9,3.7,18.5,8.4,25.9v-0.9h6.3v-3.1c-0.8-0.2-1.6-0.5-2.4-0.9  c-1.3-0.7-2.4-1.7-3.2-3.1c-0.8-1.3-1.2-2.7-1.2-4.2c0-1.4,0.4-2.8,1.1-4.2c0.7-1.3,1.8-2.4,3.1-3.1c1.3-0.7,2.7-1.1,4.2-1.1  c1.4,0,2.8,0.4,4.2,1.1c1.3,0.7,2.4,1.8,3.1,3.1c0.7,1.3,1.1,2.7,1.1,4.1c0,2.2-0.8,4.2-2.3,5.8c-1.2,1.3-2.7,2.1-4.4,2.4v3.1h6.2  v3.3h-6.2v6h-3c0.3,0.3,0.5,0.6,0.8,0.9c4.8,4.8,11.6,8.3,20.3,10.6c0.2-1,0.5-1.9,1-2.7c0.7-1.3,1.8-2.4,3.1-3.1  c1.3-0.7,2.7-1.1,4.2-1.1c1.4,0,2.8,0.4,4.2,1.1c1.3,0.7,2.4,1.8,3.1,3.1c0.7,1.3,1.1,2.7,1.1,4.1c0,0.4-0.1,0.9-0.1,1.3  c3.6,0.3,7.5,0.5,11.5,0.5c-0.1-0.6-0.2-1.2-0.2-1.8c0-1.4,0.4-2.8,1.1-4.2c0.7-1.3,1.8-2.4,3.1-3.1c1.3-0.7,2.7-1.1,4.2-1.1  c1.4,0,2.8,0.4,4.2,1.1c1.3,0.7,2.4,1.8,3.1,3.1c0.7,1.3,1.1,2.7,1.1,4.1c0,0.3,0,0.6-0.1,0.9c4.1-0.5,7.9-1.3,11.4-2.3  c0.2-1,0.5-1.9,1-2.8c0.7-1.3,1.8-2.4,3.1-3.1c1.3-0.7,2.7-1.1,4.2-1.1c1.4,0,2.8,0.4,4.2,1.1c0.2,0.1,0.4,0.3,0.6,0.4  c6.2-3.6,11.3-8.3,15.2-14.1L615.5,121.8L615.5,121.8z M603.3,121.8v3.3h-6.2v6h-3.3v-6h-6.3v-3.3h6.3v-3.1  c-0.8-0.2-1.6-0.5-2.4-0.9c-1.3-0.7-2.4-1.7-3.1-3.1c-0.8-1.3-1.2-2.7-1.2-4.2c0-1.4,0.4-2.8,1.1-4.2c0.7-1.3,1.8-2.4,3.1-3.1  c1.3-0.7,2.7-1.1,4.2-1.1c1.4,0,2.8,0.4,4.2,1.1c1.3,0.7,2.4,1.8,3.1,3.1c0.7,1.3,1.1,2.7,1.1,4.1c0,2.2-0.8,4.2-2.3,5.8  c-1.2,1.3-2.7,2.1-4.4,2.4v3.1L603.3,121.8L603.3,121.8z M601.5,82.8c-1.2,1.3-2.7,2.1-4.4,2.4v3.1h6.2v3.3h-6.2v6h-3.3v-6h-6.3  v-3.3h6.3v-3.1c-0.8-0.2-1.6-0.5-2.4-0.9c-1.3-0.7-2.4-1.7-3.1-3.1c-0.8-1.3-1.2-2.7-1.2-4.2c0-1.4,0.4-2.8,1.1-4.2  c0.7-1.3,1.8-2.4,3.1-3.1c1.3-0.7,2.7-1.1,4.2-1.1c1.4,0,2.8,0.4,4.2,1.1c1.3,0.7,2.4,1.8,3.1,3.1c0.7,1.3,1.1,2.7,1.1,4.1  C603.8,79.2,603,81.2,601.5,82.8z" fill="#1E2171"  /><path d="M543.1,80.7c1-1,1.5-2.2,1.5-3.6c0-0.9-0.2-1.7-0.7-2.6c-0.4-0.8-1.1-1.4-1.9-1.9c-0.8-0.5-1.7-0.7-2.6-0.7  c-0.9,0-1.7,0.2-2.5,0.7c-0.8,0.4-1.5,1.1-1.9,1.9c-0.5,0.8-0.7,1.7-0.7,2.6c0,1.4,0.5,2.6,1.5,3.6c1.5,0.5,3,1,4.6,1.5  C541.4,81.9,542.3,81.5,543.1,80.7L543.1,80.7z M516.6,110.6c0-0.9-0.2-1.7-0.7-2.6c-0.4-0.8-1.1-1.4-1.9-1.9  c-0.8-0.4-1.7-0.7-2.6-0.7c-0.9,0-1.7,0.2-2.5,0.7c-0.8,0.4-1.5,1.1-1.9,1.9c-0.5,0.8-0.7,1.7-0.7,2.6c0,1.4,0.5,2.6,1.5,3.6  c1,1,2.2,1.5,3.6,1.5c1.4,0,2.6-0.5,3.6-1.5C516.1,113.2,516.6,112,516.6,110.6z M651.4,48.7c1.4,0,2.6-0.5,3.6-1.5  c1-1,1.5-2.2,1.5-3.6c0-0.9-0.2-1.7-0.7-2.6c-0.4-0.8-1.1-1.4-1.9-1.9c-0.8-0.5-1.7-0.7-2.6-0.7c-0.9,0-1.7,0.2-2.5,0.7  c-0.8,0.4-1.5,1.1-1.9,1.9c-0.5,0.8-0.7,1.7-0.7,2.6c0,1.4,0.5,2.6,1.5,3.6C648.8,48.2,649.9,48.7,651.4,48.7z M712.2,145.6  c0.1-0.5,0.2-1,0.2-1.5c0-0.9-0.2-1.7-0.7-2.6c-0.4-0.8-1.1-1.4-1.9-1.9c-0.8-0.4-1.7-0.7-2.6-0.7c-0.9,0-1.7,0.2-2.5,0.7  c-0.8,0.4-1.5,1.1-1.9,1.9c-0.5,0.8-0.7,1.7-0.7,2.6c0,0.6,0.1,1.2,0.3,1.8c0.3,0,0.6,0,0.9,0C706.5,145.9,709.4,145.8,712.2,145.6  L712.2,145.6z M681.9,139.6c-0.8-0.4-1.7-0.7-2.6-0.7c-0.9,0-1.7,0.2-2.5,0.7c-0.8,0.4-1.5,1.1-1.9,1.9c-0.2,0.4-0.4,0.8-0.5,1.3  c3.1,0.8,6.5,1.4,10,1.9c0-0.2,0.1-0.4,0.1-0.6c0-0.9-0.2-1.7-0.7-2.6C683.3,140.7,682.7,140,681.9,139.6L681.9,139.6z M647.1,58.1  c0.8,1.5,1.6,2.9,2.6,4.2v-4.2H647.1z M649.7,127.8v-2.6h-2C648.3,126.1,649,126.9,649.7,127.8z M644.1,47.8  c-0.4-0.6-0.6-1.3-0.8-1.9c0.3,3.1,1.1,6.1,2.2,9h4.2v-3.1c-0.8-0.2-1.6-0.5-2.4-0.9C646,50.1,644.9,49.1,644.1,47.8L644.1,47.8z   M674.9,7.4c-0.5,0.8-0.7,1.7-0.7,2.6c0,1.4,0.5,2.6,1.5,3.6c1,1,2.2,1.5,3.6,1.5c1.4,0,2.6-0.5,3.6-1.5c1-1,1.5-2.2,1.5-3.6  c0-0.9-0.2-1.7-0.7-2.6c-0.4-0.8-1.1-1.4-1.9-1.9c-0.8-0.5-1.7-0.7-2.6-0.7c-0.9,0-1.7,0.2-2.5,0.7C676,6,675.3,6.6,674.9,7.4z   M764.9,88.2v0.1h0C764.9,88.3,764.9,88.2,764.9,88.2z M758.8,40.9c-0.2,0.4-0.4,0.8-0.5,1.3l3-0.2c-0.1-1-0.3-2-0.5-3  c0,0-0.1,0-0.1,0C759.9,39.5,759.3,40.2,758.8,40.9L758.8,40.9z M763,82.2c-0.8-1.9-1.7-3.7-2.7-5.5c-0.5-0.8-1-1.5-1.5-2.2  c-0.5,0.8-0.7,1.7-0.7,2.6c0,1.4,0.5,2.6,1.5,3.6C760.6,81.6,761.7,82.1,763,82.2z M760.7,106.1c-0.8,0.4-1.5,1.1-1.9,1.9  c-0.5,0.8-0.7,1.7-0.7,2.6c0,1.4,0.5,2.6,1.5,3.6c0.8,0.7,1.6,1.2,2.6,1.4c1.4-3.1,2.4-6.4,3-9.7c-0.6-0.2-1.3-0.4-1.9-0.4  C762.4,105.4,761.6,105.7,760.7,106.1z M732.7,5.6c-0.8,0.4-1.5,1.1-1.9,1.9c-0.5,0.8-0.7,1.7-0.7,2.6c0,1.4,0.5,2.6,1.5,3.6  c1,1,2.2,1.5,3.6,1.5c1.4,0,2.6-0.5,3.6-1.5c1-1,1.5-2.2,1.5-3.6c0-0.9-0.2-1.7-0.7-2.6c-0.1-0.1-0.2-0.2-0.2-0.3  c-1.6-0.8-3.2-1.5-4.8-2.2C734,5,733.4,5.3,732.7,5.6L732.7,5.6z M649.7,20.3c-0.1,0.2-0.2,0.3-0.3,0.5c-0.1,0.2-0.2,0.4-0.3,0.6  h0.7V20.3z M683,80.7c1-1,1.5-2.2,1.5-3.6c0-0.9-0.2-1.7-0.7-2.6c-0.4-0.8-1.1-1.4-1.9-1.9c-0.8-0.5-1.7-0.7-2.6-0.7  c-0.9,0-1.7,0.2-2.5,0.7c-0.8,0.4-1.5,1.1-1.9,1.9c-0.5,0.8-0.7,1.7-0.7,2.6c0,0.8,0.2,1.6,0.5,2.3c2.1,0.8,4.4,1.6,6.8,2.4  C682.1,81.4,682.6,81.1,683,80.7L683,80.7z M712.5,77c0-0.9-0.2-1.7-0.7-2.6c-0.4-0.8-1.1-1.4-1.9-1.9c-0.8-0.5-1.7-0.7-2.6-0.7  c-0.9,0-1.7,0.2-2.5,0.7c-0.8,0.4-1.5,1.1-1.9,1.9c-0.5,0.8-0.7,1.7-0.7,2.6c0,1.4,0.5,2.6,1.5,3.6c1,1,2.2,1.5,3.6,1.5  c1.4,0,2.6-0.5,3.6-1.5C712,79.7,712.5,78.5,712.5,77z M681.9,106.1c-0.8-0.4-1.7-0.7-2.6-0.7c-0.9,0-1.7,0.2-2.5,0.7  c-0.8,0.4-1.5,1.1-1.9,1.9c-0.5,0.8-0.7,1.7-0.7,2.6c0,1.4,0.5,2.6,1.5,3.6c1,1,2.2,1.5,3.6,1.5c1.4,0,2.6-0.5,3.6-1.5  c1-1,1.5-2.2,1.5-3.6c0-0.7-0.2-1.4-0.5-2.1c-0.2-0.4-0.5-0.7-0.7-1.1C682.9,106.8,682.5,106.4,681.9,106.1z M735.3,139  c-0.9,0-1.7,0.2-2.5,0.7c-0.8,0.4-1.5,1.1-1.9,1.9c-0.2,0.3-0.3,0.6-0.4,1c2.4-0.7,4.7-1.5,7-2.5c0.2-0.1,0.3-0.2,0.5-0.3  c0,0-0.1-0.1-0.1-0.1C737,139.2,736.2,139,735.3,139z M712.5,10c0-0.9-0.2-1.7-0.7-2.6c-0.4-0.8-1.1-1.4-1.9-1.9  c-0.8-0.5-1.7-0.7-2.6-0.7c-0.9,0-1.7,0.2-2.5,0.7c-0.8,0.4-1.5,1.1-1.9,1.9c-0.5,0.8-0.7,1.7-0.7,2.6c0,1.4,0.5,2.6,1.5,3.6  c1,1,2.2,1.5,3.6,1.5c1.4,0,2.6-0.5,3.6-1.5C712,12.6,712.5,11.5,712.5,10z M681.9,39.1c-0.8-0.5-1.7-0.7-2.6-0.7  c-0.9,0-1.7,0.2-2.5,0.7c-0.8,0.4-1.5,1.1-1.9,1.9c-0.5,0.8-0.7,1.7-0.7,2.6c0,1.4,0.5,2.6,1.5,3.6c1,1,2.2,1.5,3.6,1.5  c1.4,0,2.6-0.5,3.6-1.5c1-1,1.5-2.2,1.5-3.6c0-0.9-0.2-1.7-0.7-2.6C683.3,40.2,682.7,39.5,681.9,39.1z M739.7,40.9  c-0.4-0.8-1.1-1.4-1.9-1.9c-0.8-0.5-1.7-0.7-2.6-0.7c-0.9,0-1.7,0.2-2.5,0.7c-0.8,0.4-1.5,1.1-1.9,1.9c-0.5,0.8-0.7,1.7-0.7,2.6  c0,0.1,0,0.2,0,0.3l10.2-0.6C740.4,42.5,740.1,41.7,739.7,40.9z M656.5,110.6c0-0.9-0.2-1.7-0.7-2.6c-0.4-0.8-1.1-1.4-1.9-1.9  c-0.8-0.4-1.7-0.7-2.6-0.7c-0.9,0-1.7,0.2-2.5,0.7c-0.8,0.4-1.5,1.1-1.9,1.9c-0.5,0.8-0.7,1.7-0.7,2.6c0,1.4,0.5,2.6,1.5,3.6  c1,1,2.2,1.5,3.6,1.5c1.4,0,2.6-0.5,3.6-1.5C656,113.2,656.5,112,656.5,110.6L656.5,110.6z M737.8,72.6c-0.8-0.5-1.7-0.7-2.6-0.7  c-0.9,0-1.7,0.2-2.5,0.7c-0.8,0.4-1.5,1.1-1.9,1.9c-0.5,0.8-0.7,1.7-0.7,2.6c0,1.4,0.5,2.6,1.5,3.6c1,1,2.2,1.5,3.6,1.5  c1.4,0,2.6-0.5,3.6-1.5c1-1,1.5-2.2,1.5-3.6c0-0.9-0.2-1.7-0.7-2.6C739.3,73.7,738.6,73,737.8,72.6z M740.4,110.6  c0-0.9-0.2-1.7-0.7-2.6c-0.4-0.8-1.1-1.4-1.9-1.9c-0.8-0.4-1.7-0.7-2.6-0.7c-0.9,0-1.7,0.2-2.5,0.7c-0.8,0.4-1.5,1.1-1.9,1.9  c-0.5,0.8-0.7,1.7-0.7,2.6c0,1.4,0.5,2.6,1.5,3.6c1,1,2.2,1.5,3.6,1.5c1.4,0,2.6-0.5,3.6-1.5C739.9,113.2,740.4,112,740.4,110.6z" fill="#1E2171"  /><path d="M755.3,125.2v-3.3h3.5c0.7-1.1,1.3-2.2,1.9-3.3c-0.5-0.2-1.1-0.4-1.6-0.7c-1.3-0.7-2.4-1.7-3.1-3.1  c-0.8-1.3-1.2-2.7-1.2-4.2c0-1.4,0.4-2.8,1.1-4.2c0.7-1.3,1.8-2.4,3.1-3.1c1.3-0.7,2.7-1.1,4.2-1.1c0.8,0,1.6,0.1,2.4,0.4  c0.2-1.6,0.3-3.3,0.3-5c0-2-0.1-4-0.4-5.9h-0.6v6h-3.3v-6h-6.3v-3.3h6.3v-3.1c-0.8-0.2-1.6-0.5-2.4-0.9c-1.3-0.7-2.4-1.7-3.1-3.1  c-0.8-1.3-1.2-2.7-1.2-4.2c0-1.4,0.4-2.8,1.1-4.2c0.2-0.4,0.5-0.7,0.7-1.1c-3.6-4.1-8.4-7.7-14.4-10.8c-1.6-0.8-3.4-1.6-5.3-2.4v5.4  h-3.3v-6h-6.3v-2.9c-4.7-1.5-10-2.9-16-4.4c-0.7,0.4-1.5,0.7-2.4,0.8v3.1h6.2v3.3H709v6h-3.3v-6h-6.3v-3.3h6.3v-3.1  c-0.8-0.2-1.6-0.5-2.4-0.9c-1.1-0.6-2-1.4-2.7-2.4c-6.2-1.3-10.5-2.8-12.9-4.3c-0.1,1.9-0.9,3.7-2.2,5.1c-1.2,1.3-2.7,2.1-4.4,2.4  v3.1h6.2v3.3H681v6h-3.3v-6h-6.3v-3.3h6.3v-3.1c-0.8-0.2-1.6-0.5-2.4-0.9c-1.3-0.7-2.4-1.7-3.2-3.1c-0.8-1.3-1.2-2.7-1.2-4.2  c0-1.4,0.4-2.8,1.1-4.2c0.7-1.3,1.8-2.4,3.1-3.1c1.3-0.7,2.7-1.1,4.2-1.1c1.4,0,2.8,0.4,4.1,1.1c0.3-2.6,1.5-4.9,3.8-6.8  c2.6-2.1,6.4-3.2,11.5-3.2c2.5,0,4.8,0.3,6.9,0.7v-2.4h-6.3v-3.3h6.3v-3.1c-0.8-0.2-1.6-0.5-2.4-0.9c-1.3-0.7-2.4-1.7-3.1-3.1  c-0.8-1.3-1.2-2.7-1.2-4.2c0-1.4,0.4-2.8,1.1-4.2c0.7-1.3,1.8-2.4,3.1-3.1c1.3-0.7,2.7-1.1,4.2-1.1c1.4,0,2.8,0.4,4.2,1.1  c1.3,0.7,2.4,1.8,3.1,3.1c0.7,1.3,1.1,2.7,1.1,4.1c0,2.2-0.8,4.2-2.3,5.8c-1.2,1.3-2.7,2.1-4.4,2.4v3.1h6.2v3.3H709V28  c1.6,0.7,3,1.5,4.3,2.5c3.5,2.9,5.8,7.5,6.9,13.9l6.8-0.4c0-0.2,0-0.4,0-0.5c0-1.4,0.4-2.8,1.1-4.2c0.7-1.3,1.8-2.4,3.1-3.1  c1.3-0.7,2.7-1.1,4.2-1.1c1.4,0,2.8,0.4,4.2,1.1c1.3,0.7,2.4,1.8,3.1,3.1c0.6,1.1,1,2.4,1.1,3.7l11.3-0.7c0.1-1.1,0.5-2.1,1-3.1  c0.7-1.3,1.8-2.4,3.1-3.1c0.4-0.2,0.7-0.4,1.1-0.5c-0.9-4.1-2.2-7.8-3.8-11.1h-1.1v-2.2c-2.8-5-6.4-9.2-10.9-12.4  c-0.2-0.2-0.5-0.3-0.8-0.5c0,0.1,0,0.3,0,0.4c0,2.2-0.8,4.2-2.3,5.8c-1.2,1.3-2.7,2.1-4.4,2.4v3.1h6.2v3.3h-6.2v6h-3.3v-6h-6.3v-3.3  h6.3v-3.1c-0.8-0.2-1.6-0.5-2.4-0.9c-1.3-0.7-2.4-1.7-3.1-3.1c-0.8-1.3-1.2-2.7-1.2-4.2c0-1.4,0.4-2.8,1.1-4.2  c0.5-0.9,1.2-1.8,2.1-2.4c-7.6-2.2-16.6-3.4-27-3.4c-8.4,0-15.7,0.6-22.1,1.8c0.9,0.2,1.7,0.5,2.5,0.9c1.3,0.7,2.4,1.8,3.1,3.1  c0.7,1.3,1.1,2.7,1.1,4.1c0,2.2-0.8,4.2-2.3,5.8c-1.2,1.3-2.7,2.1-4.4,2.4v3.1h6.2v3.3H681v6h-3.3v-6h-6.3v-3.3h6.3v-3.1  c-0.8-0.2-1.6-0.5-2.4-0.9c-1.3-0.7-2.4-1.7-3.2-3.1c-0.8-1.3-1.2-2.7-1.2-4.2c0-1.4,0.4-2.8,1.1-4.2c0.5-0.9,1.2-1.7,2-2.4  c-2,0.6-4,1.3-5.7,2c-3.2,1.4-6.1,3-8.6,4.7c-0.1,2.1-0.8,3.9-2.3,5.5c-1.2,1.3-2.7,2.1-4.4,2.4v3.1h6.2v3.3H653v6h-3.3v-6h-2.6  c-2.7,5.3-4.1,10.9-4.1,16.7c0,0.3,0,0.6,0,1c0.2-1,0.5-2,1-2.9c0.7-1.3,1.8-2.4,3.1-3.1c1.3-0.7,2.7-1.1,4.2-1.1  c1.4,0,2.8,0.4,4.2,1.1c1.3,0.7,2.4,1.8,3.1,3.1c0.7,1.3,1.1,2.7,1.1,4.1c0,2.2-0.8,4.2-2.3,5.8c-1.2,1.3-2.7,2.1-4.4,2.4v3.1h6.2  v3.3H653v6h-1.9c1.3,1.5,2.7,3,4.3,4.4c3.9,3.4,9.1,6.5,15.6,9.3c0-0.3,0-0.5,0-0.8c0-1.4,0.4-2.8,1.1-4.2c0.7-1.3,1.8-2.4,3.1-3.1  c1.3-0.7,2.7-1.1,4.2-1.1c1.4,0,2.8,0.4,4.2,1.1c1.3,0.7,2.4,1.8,3.1,3.1c0.7,1.3,1.1,2.7,1.1,4.1c0,2.2-0.8,4.2-2.3,5.8  c0,0,0,0,0,0c3.4,1,7.1,1.9,11,2.8c3.5,0.8,6.6,1.5,9.3,2.3v-2.7c-0.8-0.2-1.6-0.5-2.4-0.9c-1.3-0.7-2.4-1.7-3.1-3.1  c-0.8-1.3-1.2-2.7-1.2-4.2c0-1.4,0.4-2.8,1.1-4.2c0.7-1.3,1.8-2.4,3.1-3.1c1.3-0.7,2.7-1.1,4.2-1.1c1.4,0,2.8,0.4,4.2,1.1  c1.3,0.7,2.4,1.8,3.1,3.1c0.7,1.3,1.1,2.7,1.1,4.1c0,2.2-0.8,4.2-2.3,5.8c-1.2,1.3-2.7,2.1-4.4,2.4v3.1h6.2v3.2  c1.5,0.8,2.7,1.5,3.5,2.3c3.2,2.9,4.8,6.2,4.8,9.8c0,3.9-1.7,7.2-5.1,10.2c-1.6,1.4-3.5,2.4-5.8,3.1c-1.1,0.9-2.4,1.6-3.8,1.8v3.1  h6.2v3.3H709v6h-3.3v-6h-6.3v-3.3h6.3v-3.1c-0.6-0.1-1.2-0.3-1.8-0.6c-6.7,0-12.2-2-16.4-5.7c-0.3,1.5-1,2.8-2.1,3.9  c-1.2,1.3-2.7,2.1-4.4,2.4v3.1h6.2v3.3H681v6h-3.3v-6h-6.3v-3.3h6.3v-3.1c-0.8-0.2-1.6-0.5-2.4-0.9c-1.3-0.7-2.4-1.7-3.2-3.1  c-0.8-1.3-1.2-2.7-1.2-4.2c0-1.4,0.4-2.8,1.1-4.2c0.7-1.3,1.8-2.4,3.1-3.1c1.3-0.7,2.7-1.1,4.2-1.1c0.6,0,1.2,0.1,1.8,0.2  c-0.5-1.6-0.9-3.2-1.2-4.8h-2.2v-3.3L653,95.8v1.8h-3.3V96l-11.9,0.7c0.8,9.5,3.4,17.8,7.8,25.1h4.1v-3.1c-0.8-0.2-1.6-0.5-2.4-0.9  c-1.3-0.7-2.4-1.7-3.1-3.1c-0.8-1.3-1.2-2.7-1.2-4.2c0-1.4,0.4-2.8,1.1-4.2c0.7-1.3,1.8-2.4,3.1-3.1c1.3-0.7,2.7-1.1,4.2-1.1  c1.4,0,2.8,0.4,4.2,1.1c1.3,0.7,2.4,1.8,3.1,3.1c0.7,1.3,1.1,2.7,1.1,4.1c0,2.2-0.8,4.2-2.3,5.8c-1.2,1.3-2.7,2.1-4.4,2.4v3.1h6.2  v3.3H653v6h-0.4c0.3,0.3,0.5,0.6,0.8,0.9c4.3,4.3,10.3,7.6,17.8,9.9c0.2-0.7,0.5-1.4,0.8-2c0.7-1.3,1.8-2.4,3.1-3.1  c1.3-0.7,2.7-1.1,4.2-1.1c1.4,0,2.8,0.4,4.2,1.1c1.3,0.7,2.4,1.8,3.1,3.1c0.7,1.3,1.1,2.7,1.1,4.1c0,0.4-0.1,0.7-0.1,1  c3.6,0.4,7.4,0.6,11.5,0.7c-0.1-0.6-0.2-1.2-0.2-1.8c0-1.4,0.4-2.8,1.1-4.2c0.7-1.3,1.8-2.4,3.1-3.1c1.3-0.7,2.7-1.1,4.2-1.1  c1.4,0,2.8,0.4,4.2,1.1c1.3,0.7,2.4,1.8,3.1,3.1c0.7,1.3,1.1,2.7,1.1,4.1c0,0.4-0.1,0.8-0.1,1.2c4-0.4,7.8-1,11.4-1.9  c0.1-1.2,0.5-2.4,1.1-3.5c0.7-1.3,1.8-2.4,3.1-3.1c1.3-0.7,2.7-1.1,4.2-1.1c1.4,0,2.8,0.4,4.2,1.1c0.6,0.4,1.2,0.8,1.7,1.3  c6.2-3.3,11.4-7.6,15.4-12.9L755.3,125.2L755.3,125.2z M743.2,121.8v3.3h-6.2v6h-3.3v-6h-6.3v-3.3h6.3v-3.1  c-0.8-0.2-1.6-0.5-2.4-0.9c-1.3-0.7-2.4-1.7-3.1-3.1c-0.8-1.3-1.2-2.7-1.2-4.2c0-1.4,0.4-2.8,1.1-4.2c0.7-1.3,1.8-2.4,3.1-3.1  c1.3-0.7,2.7-1.1,4.2-1.1c1.4,0,2.8,0.4,4.2,1.1c1.3,0.7,2.4,1.8,3.1,3.1c0.7,1.3,1.1,2.7,1.1,4.1c0,2.2-0.8,4.2-2.3,5.8  c-1.2,1.3-2.7,2.1-4.4,2.4v3.1C736.9,121.8,743.2,121.8,743.2,121.8z M741.4,82.8c-1.2,1.3-2.7,2.1-4.4,2.4v3.1h6.2v3.3h-6.2v6h-3.3  v-6h-6.3v-3.3h6.3v-3.1c-0.8-0.2-1.6-0.5-2.4-0.9c-1.3-0.7-2.4-1.7-3.1-3.1c-0.8-1.3-1.2-2.7-1.2-4.2c0-1.4,0.4-2.8,1.1-4.2  c0.7-1.3,1.8-2.4,3.1-3.1c1.3-0.7,2.7-1.1,4.2-1.1c1.4,0,2.8,0.4,4.2,1.1c1.3,0.7,2.4,1.8,3.1,3.1c0.7,1.3,1.1,2.7,1.1,4.1  C743.7,79.2,742.9,81.2,741.4,82.8z" fill="#1E2171"  /><g><path d="M142.4,195v-21.2h2.8V195H142.4z M149.8,195v-15.4h2.4v2.2c1.1-1.7,2.8-2.5,4.9-2.5c0.9,0,1.8,0.2,2.6,0.5   c0.8,0.3,1.4,0.8,1.8,1.3c0.4,0.5,0.7,1.2,0.8,1.9c0.1,0.5,0.1,1.3,0.1,2.5v9.5h-2.6v-9.4c0-1.1-0.1-1.9-0.3-2.4   c-0.2-0.5-0.6-0.9-1.1-1.3c-0.5-0.3-1.1-0.5-1.8-0.5c-1.1,0-2.1,0.4-2.9,1.1c-0.8,0.7-1.2,2-1.2,4v8.4L149.8,195L149.8,195z    M176.4,195v-1.9c-1,1.5-2.4,2.3-4.3,2.3c-1.2,0-2.4-0.3-3.4-1c-1-0.7-1.8-1.6-2.4-2.8c-0.6-1.2-0.9-2.6-0.9-4.2   c0-1.5,0.3-2.9,0.8-4.2c0.5-1.3,1.3-2.2,2.3-2.9c1-0.7,2.2-1,3.4-1c0.9,0,1.8,0.2,2.5,0.6c0.7,0.4,1.3,0.9,1.8,1.5v-7.6h2.6V195   L176.4,195L176.4,195z M168.1,187.3c0,2,0.4,3.4,1.2,4.4c0.8,1,1.8,1.5,2.9,1.5c1.1,0,2.1-0.5,2.9-1.4c0.8-0.9,1.2-2.4,1.2-4.3   c0-2.1-0.4-3.7-1.2-4.6c-0.8-1-1.8-1.5-3-1.5c-1.2,0-2.1,0.5-2.9,1.4C168.5,183.8,168.1,185.3,168.1,187.3L168.1,187.3z    M182.9,176.8v-3h2.6v3H182.9z M182.9,195v-15.4h2.6V195L182.9,195L182.9,195z M199.6,193.1c-1,0.8-1.9,1.4-2.8,1.7   c-0.9,0.3-1.9,0.5-2.9,0.5c-1.7,0-3-0.4-3.9-1.2c-0.9-0.8-1.4-1.9-1.4-3.2c0-0.8,0.2-1.4,0.5-2.1c0.3-0.6,0.8-1.1,1.4-1.5   c0.6-0.4,1.2-0.7,1.9-0.9c0.5-0.1,1.3-0.3,2.3-0.4c2.1-0.3,3.7-0.6,4.7-0.9c0-0.4,0-0.6,0-0.7c0-1.1-0.2-1.8-0.7-2.2   c-0.7-0.6-1.7-0.9-3-0.9c-1.2,0-2.1,0.2-2.7,0.6c-0.6,0.4-1,1.2-1.3,2.3l-2.6-0.3c0.2-1.1,0.6-2,1.1-2.6c0.5-0.7,1.3-1.2,2.3-1.6   c1-0.4,2.2-0.5,3.5-0.5c1.3,0,2.4,0.2,3.2,0.5c0.8,0.3,1.4,0.7,1.8,1.2c0.4,0.5,0.7,1.1,0.8,1.8c0.1,0.4,0.1,1.2,0.1,2.4v3.5   c0,2.4,0.1,4,0.2,4.6c0.1,0.6,0.3,1.3,0.7,1.8h-2.7C199.8,194.5,199.6,193.8,199.6,193.1L199.6,193.1z M199.3,187.3   c-0.9,0.4-2.4,0.7-4.3,1c-1.1,0.2-1.8,0.3-2.3,0.5c-0.4,0.2-0.8,0.5-1,0.9c-0.2,0.4-0.4,0.8-0.4,1.2c0,0.7,0.3,1.3,0.8,1.7   c0.5,0.5,1.3,0.7,2.3,0.7c1,0,1.9-0.2,2.7-0.7c0.8-0.4,1.4-1,1.7-1.8c0.3-0.6,0.4-1.5,0.4-2.6V187.3L199.3,187.3z M206,195v-15.4   h2.4v2.2c1.1-1.7,2.8-2.5,4.9-2.5c0.9,0,1.8,0.2,2.6,0.5c0.8,0.3,1.4,0.8,1.7,1.3c0.4,0.5,0.7,1.2,0.8,1.9c0.1,0.5,0.1,1.3,0.1,2.5   v9.5H216v-9.4c0-1.1-0.1-1.9-0.3-2.4c-0.2-0.5-0.6-0.9-1.1-1.3c-0.5-0.3-1.1-0.5-1.8-0.5c-1.1,0-2.1,0.4-2.9,1.1   c-0.8,0.7-1.2,2-1.2,4v8.4L206,195L206,195z M230.3,184.7c0-3.5,1-6.3,2.8-8.3c1.9-2,4.3-3,7.3-3c2,0,3.7,0.5,5.3,1.4   c1.6,0.9,2.8,2.2,3.6,3.9c0.8,1.7,1.2,3.6,1.2,5.7c0,2.2-0.4,4.1-1.3,5.8c-0.9,1.7-2.1,3-3.7,3.9c-1.6,0.9-3.4,1.3-5.2,1.3   c-2,0-3.8-0.5-5.4-1.4c-1.6-0.9-2.8-2.3-3.6-4C230.7,188.3,230.3,186.5,230.3,184.7L230.3,184.7z M233.2,184.7   c0,2.6,0.7,4.6,2.1,6.1c1.4,1.5,3.1,2.2,5.2,2.2c2.1,0,3.9-0.7,5.2-2.2c1.4-1.5,2.1-3.6,2.1-6.3c0-1.7-0.3-3.2-0.9-4.5   c-0.6-1.3-1.4-2.3-2.6-3c-1.1-0.7-2.4-1.1-3.8-1.1c-2,0-3.7,0.7-5.1,2.1C233.9,179.2,233.2,181.5,233.2,184.7L233.2,184.7z    M256.4,195H254v-21.2h2.6v7.6c1.1-1.4,2.5-2.1,4.2-2.1c0.9,0,1.8,0.2,2.7,0.6c0.8,0.4,1.5,0.9,2.1,1.6c0.5,0.7,1,1.5,1.3,2.5   c0.3,1,0.5,2,0.5,3.1c0,2.6-0.7,4.7-2,6.1c-1.3,1.4-2.9,2.2-4.7,2.2c-1.8,0-3.2-0.8-4.3-2.3L256.4,195L256.4,195z M256.4,187.2   c0,1.8,0.3,3.2,0.8,4c0.8,1.3,1.9,2,3.3,2c1.1,0,2.1-0.5,3-1.5c0.8-1,1.3-2.5,1.3-4.4c0-2-0.4-3.5-1.2-4.4c-0.8-1-1.8-1.4-2.9-1.4   c-1.1,0-2.1,0.5-3,1.5C256.8,183.9,256.4,185.3,256.4,187.2z M269.5,190.4l2.6-0.4c0.1,1,0.5,1.8,1.2,2.4c0.7,0.6,1.6,0.8,2.8,0.8   c1.2,0,2.1-0.2,2.7-0.7c0.6-0.5,0.9-1.1,0.9-1.7c0-0.6-0.3-1.1-0.8-1.4c-0.4-0.2-1.2-0.5-2.7-0.9c-1.9-0.5-3.2-0.9-4-1.3   c-0.7-0.4-1.3-0.8-1.7-1.5c-0.4-0.6-0.6-1.3-0.6-2.1c0-0.7,0.2-1.3,0.5-1.9c0.3-0.6,0.7-1.1,1.3-1.5c0.4-0.3,1-0.6,1.7-0.8   c0.7-0.2,1.5-0.3,2.3-0.3c1.2,0,2.3,0.2,3.2,0.5c0.9,0.3,1.6,0.8,2,1.4c0.4,0.6,0.7,1.4,0.9,2.4l-2.6,0.3c-0.1-0.8-0.5-1.4-1-1.9   c-0.6-0.4-1.3-0.7-2.4-0.7c-1.2,0-2.1,0.2-2.6,0.6c-0.5,0.4-0.8,0.9-0.8,1.4c0,0.3,0.1,0.6,0.3,0.9c0.2,0.3,0.5,0.5,1,0.7   c0.3,0.1,1,0.3,2.3,0.7c1.8,0.5,3.1,0.9,3.9,1.2c0.7,0.3,1.3,0.8,1.7,1.4c0.4,0.6,0.6,1.3,0.6,2.2c0,0.9-0.3,1.7-0.8,2.5   c-0.5,0.8-1.2,1.4-2.2,1.8c-1,0.4-2,0.6-3.3,0.6c-2,0-3.5-0.4-4.6-1.2C270.4,193.3,269.8,192.1,269.5,190.4L269.5,190.4z    M291.1,192.7l0.4,2.3c-0.7,0.2-1.4,0.2-2,0.2c-0.9,0-1.7-0.2-2.2-0.5c-0.5-0.3-0.9-0.7-1.1-1.2c-0.2-0.5-0.3-1.5-0.3-3.1v-8.9   h-1.9v-2h1.9v-3.8l2.6-1.6v5.4h2.6v2h-2.6v9c0,0.7,0,1.2,0.1,1.4c0.1,0.2,0.2,0.4,0.5,0.5c0.2,0.1,0.5,0.2,0.9,0.2   C290.2,192.8,290.6,192.8,291.1,192.7L291.1,192.7z M304.2,190.1l2.7,0.3c-0.4,1.6-1.2,2.8-2.4,3.7c-1.2,0.9-2.6,1.3-4.4,1.3   c-2.3,0-4-0.7-5.4-2.1c-1.3-1.4-2-3.3-2-5.8c0-2.6,0.7-4.6,2-6c1.3-1.4,3.1-2.1,5.2-2.1c2.1,0,3.7,0.7,5.1,2.1c1.3,1.4,2,3.4,2,5.9   c0,0.2,0,0.4,0,0.7h-11.5c0.1,1.7,0.6,3,1.4,3.9c0.9,0.9,1.9,1.3,3.2,1.3c1,0,1.8-0.3,2.5-0.8C303.3,192,303.8,191.2,304.2,190.1   L304.2,190.1z M295.6,185.8h8.6c-0.1-1.3-0.4-2.3-1-2.9c-0.8-1-1.9-1.5-3.2-1.5c-1.2,0-2.2,0.4-3,1.2   C296.1,183.4,295.7,184.5,295.6,185.8z M315.9,192.7l0.4,2.3c-0.7,0.2-1.4,0.2-2,0.2c-0.9,0-1.7-0.2-2.2-0.5   c-0.5-0.3-0.9-0.7-1.1-1.2c-0.2-0.5-0.3-1.5-0.3-3.1v-8.9h-1.9v-2h1.9v-3.8l2.6-1.6v5.4h2.6v2h-2.6v9c0,0.7,0,1.2,0.1,1.4   c0.1,0.2,0.2,0.4,0.5,0.5c0.2,0.1,0.5,0.2,0.9,0.2C315.1,192.8,315.5,192.7,315.9,192.7z M318.4,195v-15.4h2.4v2.3   c0.6-1.1,1.2-1.8,1.7-2.2c0.5-0.3,1.1-0.5,1.7-0.5c0.9,0,1.8,0.3,2.7,0.8l-0.9,2.4c-0.6-0.4-1.3-0.6-1.9-0.6   c-0.6,0-1.1,0.2-1.5,0.5c-0.5,0.3-0.8,0.8-1,1.4c-0.3,0.9-0.4,1.9-0.4,3v8.1L318.4,195L318.4,195z M328.4,176.8v-3h2.6v3H328.4z    M328.4,195v-15.4h2.6V195L328.4,195L328.4,195z M345,189.4l2.6,0.3c-0.3,1.8-1,3.2-2.2,4.2c-1.2,1-2.6,1.5-4.3,1.5   c-2.1,0-3.8-0.7-5.1-2.1c-1.3-1.4-1.9-3.3-1.9-5.9c0-1.7,0.3-3.1,0.8-4.4c0.6-1.2,1.4-2.2,2.5-2.8c1.1-0.6,2.4-0.9,3.7-0.9   c1.7,0,3,0.4,4.1,1.3c1.1,0.8,1.7,2,2,3.6l-2.5,0.4c-0.2-1-0.7-1.8-1.3-2.3c-0.6-0.5-1.4-0.8-2.2-0.8c-1.3,0-2.4,0.5-3.2,1.4   c-0.8,0.9-1.2,2.4-1.2,4.5c0,2.1,0.4,3.6,1.2,4.5c0.8,0.9,1.8,1.4,3.1,1.4c1,0,1.9-0.3,2.6-0.9C344.4,191.7,344.8,190.7,345,189.4   L345,189.4z M357.4,188.2l2.7-0.2c0.1,1.1,0.4,1.9,0.9,2.6c0.5,0.7,1.2,1.2,2.1,1.7c1,0.4,2.1,0.6,3.3,0.6c1.1,0,2-0.2,2.8-0.5   c0.8-0.3,1.4-0.8,1.8-1.3c0.4-0.5,0.6-1.2,0.6-1.8c0-0.6-0.2-1.2-0.6-1.7c-0.4-0.5-1-0.9-1.9-1.3c-0.6-0.2-1.8-0.6-3.8-1   c-2-0.5-3.3-0.9-4.1-1.3c-1-0.5-1.8-1.2-2.3-2c-0.5-0.8-0.7-1.7-0.7-2.6c0-1.1,0.3-2.1,0.9-3c0.6-0.9,1.5-1.6,2.7-2.1   c1.2-0.5,2.5-0.7,3.9-0.7c1.6,0,3,0.3,4.2,0.8c1.2,0.5,2.1,1.3,2.8,2.2c0.6,1,1,2.1,1,3.3l-2.7,0.2c-0.1-1.3-0.6-2.4-1.5-3   c-0.8-0.7-2.1-1-3.7-1c-1.7,0-2.9,0.3-3.7,0.9c-0.8,0.6-1.2,1.4-1.2,2.3c0,0.8,0.3,1.4,0.8,1.9c0.5,0.5,2,1,4.2,1.5   c2.3,0.5,3.9,1,4.7,1.4c1.2,0.6,2.2,1.3,2.7,2.2c0.6,0.9,0.9,1.9,0.9,3c0,1.1-0.3,2.2-1,3.2c-0.6,1-1.6,1.8-2.8,2.3   c-1.2,0.6-2.6,0.8-4.1,0.8c-1.9,0-3.5-0.3-4.8-0.8c-1.3-0.6-2.3-1.4-3.1-2.5C357.9,190.9,357.5,189.6,357.4,188.2L357.4,188.2z    M388,195v-2.3c-1.2,1.7-2.8,2.6-4.9,2.6c-0.9,0-1.7-0.2-2.5-0.5c-0.8-0.3-1.4-0.8-1.8-1.3c-0.4-0.5-0.7-1.2-0.8-1.9   c-0.1-0.5-0.2-1.3-0.2-2.4v-9.5h2.6v8.5c0,1.4,0.1,2.3,0.2,2.8c0.2,0.7,0.5,1.2,1,1.6c0.5,0.4,1.2,0.6,2,0.6c0.8,0,1.5-0.2,2.2-0.6   c0.7-0.4,1.2-0.9,1.5-1.6c0.3-0.7,0.4-1.7,0.4-3v-8.2h2.6V195L388,195L388,195z M394.4,195v-15.4h2.4v2.3c0.6-1.1,1.2-1.8,1.7-2.2   c0.5-0.3,1.1-0.5,1.7-0.5c0.9,0,1.8,0.3,2.7,0.8l-0.9,2.4c-0.6-0.4-1.3-0.6-1.9-0.6c-0.6,0-1.1,0.2-1.5,0.5c-0.5,0.3-0.8,0.8-1,1.4   c-0.3,0.9-0.4,1.9-0.4,3v8.1L394.4,195L394.4,195z M408.6,195l-5.9-15.4h2.8l3.3,9.2c0.4,1,0.7,2,1,3.1c0.2-0.8,0.6-1.8,1-2.9   l3.4-9.4h2.7l-5.8,15.4H408.6z M429.8,190.1l2.7,0.3c-0.4,1.6-1.2,2.8-2.4,3.7c-1.2,0.9-2.6,1.3-4.4,1.3c-2.3,0-4-0.7-5.4-2.1   c-1.3-1.4-2-3.3-2-5.8c0-2.6,0.7-4.6,2-6c1.3-1.4,3.1-2.1,5.2-2.1c2.1,0,3.7,0.7,5.1,2.1c1.3,1.4,2,3.4,2,5.9c0,0.2,0,0.4,0,0.7   H421c0.1,1.7,0.6,3,1.4,3.9c0.9,0.9,1.9,1.3,3.2,1.3c1,0,1.8-0.3,2.5-0.8C428.8,192,429.4,191.2,429.8,190.1L429.8,190.1z    M421.2,185.8h8.6c-0.1-1.3-0.4-2.3-1-2.9c-0.8-1-1.9-1.5-3.2-1.5c-1.2,0-2.2,0.4-3,1.2C421.7,183.4,421.3,184.5,421.2,185.8z    M435.8,176.8v-3h2.6v3H435.8z M435.8,195v-15.4h2.6V195L435.8,195L435.8,195z M442.3,195v-21.2h2.6V195H442.3z M448.9,195v-21.2   h2.6V195H448.9z M465.6,193.1c-1,0.8-1.9,1.4-2.8,1.7c-0.9,0.3-1.9,0.5-2.9,0.5c-1.7,0-3-0.4-3.9-1.2c-0.9-0.8-1.4-1.9-1.4-3.2   c0-0.8,0.2-1.4,0.5-2.1c0.3-0.6,0.8-1.1,1.4-1.5c0.6-0.4,1.2-0.7,1.9-0.9c0.5-0.1,1.3-0.3,2.3-0.4c2.1-0.3,3.7-0.6,4.7-0.9   c0-0.4,0-0.6,0-0.7c0-1.1-0.2-1.8-0.7-2.2c-0.7-0.6-1.7-0.9-3-0.9c-1.2,0-2.1,0.2-2.7,0.6c-0.6,0.4-1,1.2-1.3,2.3l-2.6-0.3   c0.2-1.1,0.6-2,1.1-2.6c0.5-0.7,1.3-1.2,2.3-1.6c1-0.4,2.2-0.5,3.5-0.5c1.3,0,2.4,0.2,3.2,0.5c0.8,0.3,1.4,0.7,1.8,1.2   c0.4,0.5,0.7,1.1,0.8,1.8c0.1,0.4,0.1,1.2,0.1,2.4v3.5c0,2.4,0.1,4,0.2,4.6c0.1,0.6,0.3,1.3,0.7,1.8h-2.7   C465.9,194.5,465.7,193.8,465.6,193.1L465.6,193.1z M465.4,187.3c-0.9,0.4-2.4,0.7-4.3,1c-1.1,0.2-1.8,0.3-2.3,0.5   c-0.4,0.2-0.8,0.5-1,0.9c-0.2,0.4-0.4,0.8-0.4,1.2c0,0.7,0.3,1.3,0.8,1.7c0.5,0.5,1.3,0.7,2.3,0.7c1,0,1.9-0.2,2.7-0.7   c0.8-0.4,1.4-1,1.7-1.8c0.3-0.6,0.4-1.5,0.4-2.6L465.4,187.3L465.4,187.3z M472.1,195v-15.4h2.4v2.2c1.1-1.7,2.8-2.5,4.9-2.5   c0.9,0,1.8,0.2,2.6,0.5c0.8,0.3,1.4,0.8,1.8,1.3c0.4,0.5,0.7,1.2,0.8,1.9c0.1,0.5,0.1,1.3,0.1,2.5v9.5H482v-9.4   c0-1.1-0.1-1.9-0.3-2.4c-0.2-0.5-0.6-1-1.1-1.3c-0.5-0.3-1.1-0.5-1.8-0.5c-1.1,0-2.1,0.4-2.9,1.1c-0.8,0.7-1.2,2-1.2,4v8.4   L472.1,195L472.1,195z M498.7,189.4l2.6,0.3c-0.3,1.8-1,3.2-2.2,4.2c-1.2,1-2.6,1.5-4.3,1.5c-2.1,0-3.8-0.7-5.1-2.1   c-1.3-1.4-1.9-3.3-1.9-5.9c0-1.7,0.3-3.1,0.8-4.4c0.6-1.2,1.4-2.2,2.5-2.8c1.1-0.6,2.4-0.9,3.7-0.9c1.7,0,3,0.4,4.1,1.3   c1.1,0.8,1.7,2,2,3.6l-2.5,0.4c-0.2-1-0.7-1.8-1.3-2.3c-0.6-0.5-1.4-0.8-2.2-0.8c-1.3,0-2.4,0.5-3.2,1.4c-0.8,0.9-1.2,2.4-1.2,4.5   c0,2.1,0.4,3.6,1.2,4.5c0.8,0.9,1.8,1.4,3.1,1.4c1,0,1.9-0.3,2.6-0.9C498.1,191.7,498.5,190.7,498.7,189.4L498.7,189.4z    M514.1,190.1l2.7,0.3c-0.4,1.6-1.2,2.8-2.4,3.7c-1.2,0.9-2.6,1.3-4.4,1.3c-2.3,0-4-0.7-5.4-2.1c-1.3-1.4-2-3.3-2-5.8   c0-2.6,0.7-4.6,2-6c1.3-1.4,3.1-2.1,5.2-2.1c2.1,0,3.7,0.7,5.1,2.1c1.3,1.4,2,3.4,2,5.9c0,0.2,0,0.4,0,0.7h-11.5   c0.1,1.7,0.6,3,1.4,3.9c0.9,0.9,1.9,1.3,3.2,1.3c1,0,1.8-0.3,2.5-0.8C513.1,192,513.7,191.2,514.1,190.1L514.1,190.1z M505.5,185.8   h8.6c-0.1-1.3-0.4-2.3-1-2.9c-0.8-1-1.9-1.5-3.2-1.5c-1.2,0-2.2,0.4-3,1.2C506,183.4,505.6,184.5,505.5,185.8z M527.7,188.2   l2.7-0.2c0.1,1.1,0.4,1.9,0.9,2.6c0.5,0.7,1.2,1.2,2.1,1.7c1,0.4,2.1,0.6,3.3,0.6c1.1,0,2-0.2,2.8-0.5c0.8-0.3,1.4-0.8,1.8-1.3   c0.4-0.6,0.6-1.2,0.6-1.8c0-0.7-0.2-1.2-0.6-1.7c-0.4-0.5-1-0.9-1.9-1.3c-0.6-0.2-1.8-0.6-3.8-1c-2-0.5-3.3-0.9-4.1-1.3   c-1-0.5-1.8-1.2-2.3-2c-0.5-0.8-0.8-1.7-0.8-2.6c0-1.1,0.3-2.1,0.9-3c0.6-0.9,1.5-1.6,2.7-2.1c1.2-0.5,2.5-0.7,3.9-0.7   c1.6,0,3,0.3,4.2,0.8c1.2,0.5,2.1,1.3,2.8,2.2c0.6,1,1,2.1,1,3.3l-2.7,0.2c-0.1-1.3-0.6-2.4-1.5-3c-0.8-0.7-2.1-1-3.7-1   c-1.7,0-2.9,0.3-3.7,0.9c-0.8,0.6-1.2,1.4-1.2,2.3c0,0.8,0.3,1.4,0.8,1.9c0.5,0.5,2,1,4.2,1.5c2.3,0.5,3.9,1,4.7,1.4   c1.2,0.6,2.2,1.3,2.7,2.2c0.6,0.9,0.9,1.9,0.9,3c0,1.1-0.3,2.2-1,3.2c-0.6,1-1.6,1.8-2.8,2.3c-1.2,0.6-2.6,0.8-4.1,0.8   c-1.9,0-3.5-0.3-4.8-0.8c-1.3-0.6-2.3-1.4-3.1-2.5C528.1,190.9,527.7,189.6,527.7,188.2z M548,201l-0.3-2.4   c0.6,0.2,1.1,0.2,1.5,0.2c0.6,0,1-0.1,1.4-0.3c0.4-0.2,0.6-0.5,0.9-0.8c0.2-0.3,0.4-0.9,0.8-1.9c0-0.1,0.1-0.4,0.2-0.6l-5.9-15.4   h2.8l3.2,8.9c0.4,1.2,0.8,2.4,1.1,3.6c0.3-1.2,0.7-2.4,1.1-3.5l3.3-9h2.6l-5.9,15.7c-0.6,1.7-1.1,2.9-1.5,3.5   c-0.5,0.9-1,1.5-1.6,1.9c-0.6,0.4-1.3,0.6-2.1,0.6C549.2,201.3,548.6,201.2,548,201L548,201z M562,190.4l2.6-0.4   c0.1,1,0.5,1.8,1.2,2.4c0.7,0.6,1.6,0.8,2.8,0.8c1.2,0,2.1-0.2,2.7-0.7c0.6-0.5,0.9-1.1,0.9-1.7c0-0.6-0.3-1.1-0.8-1.4   c-0.4-0.2-1.2-0.5-2.7-0.9c-1.9-0.5-3.2-0.9-4-1.3c-0.7-0.4-1.3-0.8-1.7-1.5c-0.4-0.6-0.6-1.3-0.6-2.1c0-0.7,0.2-1.3,0.5-1.9   c0.3-0.6,0.7-1.1,1.3-1.5c0.4-0.3,1-0.6,1.7-0.8c0.7-0.2,1.5-0.3,2.3-0.3c1.2,0,2.3,0.2,3.2,0.5c0.9,0.3,1.6,0.8,2,1.4   c0.4,0.6,0.7,1.4,0.9,2.4l-2.6,0.3c-0.1-0.8-0.5-1.4-1-1.9c-0.6-0.4-1.3-0.7-2.4-0.7c-1.2,0-2.1,0.2-2.6,0.6   c-0.5,0.4-0.8,0.9-0.8,1.4c0,0.3,0.1,0.6,0.3,0.9c0.2,0.3,0.5,0.5,1,0.7c0.3,0.1,1,0.3,2.3,0.7c1.8,0.5,3.1,0.9,3.9,1.2   c0.7,0.3,1.3,0.8,1.7,1.4c0.4,0.6,0.6,1.3,0.6,2.2c0,0.9-0.3,1.7-0.8,2.5c-0.5,0.8-1.2,1.4-2.2,1.8c-1,0.4-2,0.6-3.3,0.6   c-2,0-3.5-0.4-4.6-1.2C562.9,193.3,562.3,192.1,562,190.4L562,190.4z M583.6,192.7l0.4,2.3c-0.7,0.2-1.4,0.2-2,0.2   c-1,0-1.7-0.2-2.2-0.5c-0.5-0.3-0.9-0.7-1.1-1.2c-0.2-0.5-0.3-1.5-0.3-3.1v-8.9h-1.9v-2h1.9v-3.8l2.6-1.6v5.4h2.6v2H581v9   c0,0.7,0,1.2,0.1,1.4c0.1,0.2,0.2,0.4,0.5,0.5c0.2,0.1,0.5,0.2,0.9,0.2C582.8,192.8,583.2,192.7,583.6,192.7L583.6,192.7z    M596.7,190.1l2.7,0.3c-0.4,1.6-1.2,2.8-2.4,3.7c-1.1,0.9-2.6,1.3-4.4,1.3c-2.3,0-4-0.7-5.4-2.1c-1.3-1.4-2-3.3-2-5.8   c0-2.6,0.7-4.6,2-6c1.3-1.4,3.1-2.1,5.2-2.1c2.1,0,3.7,0.7,5.1,2.1c1.3,1.4,2,3.4,2,5.9c0,0.2,0,0.4,0,0.7H588   c0.1,1.7,0.6,3,1.4,3.9c0.9,0.9,1.9,1.3,3.2,1.3c1,0,1.8-0.3,2.5-0.8C595.8,192,596.3,191.2,596.7,190.1z M588.1,185.8h8.6   c-0.1-1.3-0.4-2.3-1-2.9c-0.8-1-1.9-1.5-3.2-1.5c-1.2,0-2.2,0.4-3,1.2C588.7,183.4,588.2,184.5,588.1,185.8L588.1,185.8z    M602.7,195v-15.4h2.3v2.2c0.5-0.8,1.1-1.4,1.9-1.8c0.8-0.5,1.7-0.7,2.7-0.7c1.1,0,2.1,0.2,2.8,0.7c0.7,0.5,1.3,1.2,1.5,2   c1.2-1.8,2.8-2.7,4.8-2.7c1.5,0,2.7,0.4,3.5,1.3c0.8,0.8,1.2,2.1,1.2,3.9V195H621v-9.7c0-1-0.1-1.8-0.3-2.3   c-0.2-0.5-0.5-0.9-0.9-1.1c-0.4-0.3-1-0.4-1.6-0.4c-1.1,0-2,0.4-2.7,1.1c-0.7,0.7-1.1,1.9-1.1,3.5v8.9h-2.6v-10   c0-1.2-0.2-2-0.6-2.6c-0.4-0.6-1.1-0.9-2.1-0.9c-0.7,0-1.4,0.2-2,0.6c-0.6,0.4-1.1,1-1.4,1.7c-0.3,0.7-0.4,1.8-0.4,3.2v8L602.7,195   L602.7,195z M0,185.9h128.7v2.8H0V185.9z M637.3,185.9h128.7v2.8H637.3V185.9z" fill="#1E2171"  />
	
</g><g><path d="M247,263.4h-27.5c-2.7,4.8-4.6,8.6-5.7,11.4   s-1.6,5.1-1.6,7.1l-0.1,0.7c-0.8,0.1-1.3,0.1-1.7,0.1c-0.4,0-0.7,0-1,0c-2.2,0-3.9-0.4-5-1.1c-1.2-0.7-1.7-1.8-1.7-3.2   c0-1.4,3.3-7.5,9.9-18.3c6.6-10.8,12.3-20.9,17.2-30.2c-0.6-0.6-1.1-1.3-1.8-1.9c-0.7-0.6-1.3-1.2-2-1.8c1.3-1.3,2.4-2.2,3.4-2.8   c1-0.6,2.1-0.9,3.1-0.9c1.5,0,2.9,0.8,4.2,2.3c1.4,1.5,3,4.2,4.8,7.8c1.6,3.2,3.8,7.6,6.6,13.4c9.4,19.4,16,30.5,19.7,33.4   c-1.3,1.2-2.5,2-3.6,2.5c-1.1,0.5-2.2,0.8-3.4,0.7c-3.4,0-7.3-4.8-11.6-14.3C248.5,266.7,247.7,265,247,263.4L247,263.4z    M233.8,236.5l-2.4,4.7c-2.9,5.5-5.7,11-8.6,16.5h21.4c-1.7-3.7-3.4-7.3-5.2-11C237.3,243.3,235.6,239.9,233.8,236.5z" fill="#C80850"  stroke="#C80850"  stroke-width="0.75"  stroke-miterlimit="10"  /><path d="M321.9,261.7c1,0.9,1.6,2.2,1.6,3.8c0,3.5-1.5,6.3-4.5,8.5c-4.5,3.1-10.8,5.6-18.7,7.5   c-6.4,1.5-11.4,2.1-14.9,1.8c-2.1-0.2-4.6-1.5-7.6-3.8c-3-2.4-4.5-4.3-4.5-5.7c0-0.5,0.2-0.8,0.7-1c2.6-0.8,6.1-1.1,10.4-1.1   c2,0,4.7,0.1,8.1,0.3c3.4,0.2,5.7,0.3,7,0.3c1.2,0,2.2,0,3-0.1c3-0.5,6.1-0.9,9.1-1.4c4-0.8,5.9-1.7,5.8-2.8   c-0.1-1.6-2.7-2.7-8-3.3c-1.2-0.1-5.4-0.3-12.6-0.6c-3.8-0.1-7.6-0.1-11.4-0.1c-4.1-0.4-7.3-1.8-9.7-4.1c-0.5-0.4-0.7-1.1-0.7-1.7   c0-1.5,1.1-3.4,3.3-5.7c2-2,4.2-3.7,6.5-5.1c9.5-3.4,17-5.1,22.6-5.1c1.1,0,2.3,0,3.4,0.1c7,0.8,10.7,2.2,11.2,4.4   c0.4,1.4-0.1,2.9-1.4,4.5c-1.3,1.6-2.5,2.4-3.6,2.6c-3.8-2.1-8.7-3.1-14.6-3.1c-7.9,0-14.9,1.6-21,4.7c-0.2,0.3-0.3,0.6-0.3,0.9   c0,1.1,0.6,1.7,1.8,1.8c1.2,0,2.5,0.1,3.7,0.1c2.5,0,5.9-0.3,10.4-0.9c4.5-0.6,7.8-0.9,9.9-0.9   C312.7,256.4,317.8,258.2,321.9,261.7L321.9,261.7z M379.3,261.7c1,0.9,1.6,2.2,1.6,3.8c0,3.5-1.5,6.3-4.5,8.5   c-4.5,3.1-10.8,5.6-18.7,7.5c-6.4,1.5-11.4,2.1-14.9,1.8c-2.1-0.2-4.6-1.5-7.6-3.8c-3-2.4-4.5-4.3-4.5-5.7c0-0.5,0.2-0.8,0.7-1   c2.6-0.8,6.1-1.1,10.4-1.1c2,0,4.7,0.1,8.1,0.3c3.4,0.2,5.7,0.3,7,0.3c1.2,0,2.2,0,3-0.1c3-0.5,6.1-0.9,9.1-1.4   c4-0.8,5.9-1.7,5.8-2.8c-0.1-1.6-2.7-2.7-8-3.3c-1.2-0.1-5.4-0.3-12.6-0.6c-3.8-0.1-7.6-0.1-11.4-0.1c-4.1-0.4-7.3-1.8-9.7-4.1   c-0.5-0.4-0.7-1.1-0.7-1.7c0-1.5,1.1-3.4,3.3-5.7c2-2,4.2-3.7,6.5-5.1c9.5-3.4,17-5.1,22.6-5.1c1.1,0,2.3,0,3.4,0.1   c7,0.8,10.7,2.2,11.2,4.4c0.4,1.4-0.1,2.9-1.4,4.5c-1.3,1.6-2.5,2.4-3.5,2.6c-3.8-2.1-8.7-3.1-14.6-3.1c-7.9,0-14.9,1.6-21,4.7   c-0.2,0.3-0.3,0.6-0.3,0.9c0,1.1,0.6,1.7,1.8,1.8c1.2,0,2.5,0.1,3.7,0.1c2.5,0,5.9-0.3,10.4-0.9c4.5-0.6,7.8-0.9,9.9-0.9   C370.1,256.4,375.1,258.2,379.3,261.7L379.3,261.7z M437.2,254c-1.2,4.3-1.5,11.3-0.7,21c-0.8,1.4-2,2.4-3.8,3   c-1.4,0.6-2.9,1.1-4.4,1.6c-1.1-0.4-1.7-1.3-1.7-2.8v-1.1c0.1-0.5,0.1-0.8,0.1-1c0-1.7-0.6-2.8-1.8-3.4c-9.4,6.2-17.5,9.2-24.3,9.2   c-3.9,0-7.2-1.1-9.9-3.3c-2.7-2.2-4-5.6-4-10.1c0-1.9,0.3-3.6,0.9-5.1c5.8-10.9,17.8-16.1,35.9-15.4c2.8,0.1,5.9,1,9.3,2.8   C436.1,251,437.6,252.6,437.2,254L437.2,254z M426.6,257c-0.5-0.9-1.9-1.4-4.3-1.4c-4.5,0-8.8,0.9-13.1,2.8   c-2.8,0.9-5.7,2.6-8.4,4.9c-2.8,2.3-4,3.8-3.6,4.5c0.2,0.5,2,0.6,5.4,0.3c3.3-0.2,6-0.6,8.1-1.1c3.5-0.8,7-1.6,10.5-2.4   C424.9,263.1,426.7,260.6,426.6,257L426.6,257z M557.1,265.2c2.3,0.3,3.4,1.2,3.4,2.7c0,1.9-1.5,4.2-4.5,7c-3,2.7-5.4,4.2-7.1,4.5   c-1.7,0.2-3.3,0.4-4.7,0.4c-3.5,0-8.1-1.4-13.9-4.1c-1.3-0.7-4.4-3.9-9.1-9.8c-4.7-5.9-7.4-8.8-8.1-8.8c-0.9,0.2-2.3,1.8-4.3,4.8   c-2,3-3,5.3-2.8,6.7c0.1,0.3,0.7,1.6,1.8,3.8c0.9,1.5,1.3,2.7,1.3,3.5c0,0.6-0.1,1.1-0.4,1.6c-1.1,1.2-2.7,1.8-4.8,1.8   c-2.1,0-4.2-0.5-6.4-1.6c-2.8-1.8-6.4-5.9-10.8-12.4c-4.1-5.9-6.3-8.8-6.8-8.8c-0.8,0-2.1,2-4.1,6c-2.7,5.1-4.8,8.7-6.4,10.8   c-3,4-6.2,6-9.7,6c-1.4,0-2.8-0.3-4.3-1c-0.9-0.4-2.2-4.3-3.6-11.6c-1.5-7.4-3.5-11.5-6.2-12.5c-2.3-0.8-3.4-1.9-3.4-3.6   c0-0.7,0.2-1.2,0.6-1.6c1.3-1.4,3.5-2.1,6.4-2.1c1,0,3,0.2,5.8,0.6c2.5,0.3,4.4,1.8,5.8,4.5c0.9,1.6,1.6,4.1,2.3,7.4   c0.7,2.7,1.2,4.1,1.6,4.3c0.3,0.1,1.7-1.4,4.3-4.4c3.3-3.9,6.1-6.8,8.2-8.8c3.7-3.1,6.9-4.7,9.5-4.7c2.9,0,6.2,2.4,9.8,7.1   c3.6,4.7,5.5,7.1,5.8,7.1s2.5-2.4,6.7-7.1c4.2-4.7,7-7.1,8.3-7.1c4.5,0.5,9.2,3.4,14.1,8.6c6,6.6,9.8,10.4,11.5,11.4   c0.9,0.6,2.3,0.9,4,0.9c1.5,0,3.5-0.3,6-0.8C555.3,265.3,556.7,265.1,557.1,265.2L557.1,265.2z" fill="#C80850"  />
	
	
</g><path d="M403.4,94.5v-6h-6.3v-5.3h6.3v-1.3c-0.7-0.2-1.3-0.5-1.9-0.8c-1.5-0.8-2.7-1.9-3.5-3.4  c-0.9-1.5-1.3-3.1-1.3-4.7c0-1.6,0.4-3.2,1.2-4.6c0.8-1.5,2-2.7,3.5-3.5c1.4-0.8,3-1.2,4.6-1.2c1.6,0,3.2,0.4,4.6,1.2  c1.5,0.8,2.7,2,3.5,3.5c0.8,1.4,1.2,3,1.2,4.6c0,2.5-0.9,4.6-2.6,6.4c-1.2,1.3-2.6,2.1-4.2,2.6v1.3h6.2v5.3h-6.2v6H403.4L403.4,94.5  z M406.1,68.8c-0.7,0-1.4,0.2-2.1,0.6c-0.6,0.3-1.2,0.8-1.5,1.5c-0.4,0.7-0.6,1.4-0.6,2.1c0,1.2,0.4,2.1,1.2,2.9  c0.8,0.8,1.8,1.2,2.9,1.2c1.2,0,2.1-0.4,2.9-1.2c0.8-0.8,1.2-1.8,1.2-2.9c0-0.7-0.2-1.4-0.6-2.1c-0.4-0.7-0.8-1.1-1.5-1.5  C407.5,69,406.8,68.8,406.1,68.8z" fill="#C80850"  /></svg>