<svg viewBox="0 0 754.2 283.5" role="img" aria-labelledby="inoss--title" xmlns="http://www.w3.org/2000/svg" xmlns:xlink="http://www.w3.org/1999/xlink"><title id="inoss--title">INOSS - The International Network of Obstetric Surveillance Systems</title><path d="M668.9,80.9c-5.9-5.2-15.6-10.7-29-16.5c-11.7-5.1-19.3-8.9-22.8-11.4c-5.3-4-8-9-8-14.9  c0-12.3,9.2-18.5,27.6-18.5c12.2,0,23.8,1.7,34.7,5.2L674,7.6c-6.3-2.2-18-3.3-35-3.3c-15,0-26.7,3.7-34.9,11.2  c-7.4,6.7-11.1,15.3-11.1,25.9c0,10.2,3.6,18.6,10.8,25.3c5.2,4.9,14.4,10.2,27.4,16c12.4,5.5,20.7,9.9,24.9,13.2  c6.3,4.9,9.5,10.9,9.5,17.8c0,13.7-12.2,20.6-36.5,20.6c-10.8,0-22.2-2.1-34.3-6.2l-3.8,16.9c10.5,3.1,22.4,4.6,35.9,4.6  c36.9,0,55.3-13.2,55.3-39.7C682.3,98.4,677.8,88.8,668.9,80.9 M530,80.9c-5.9-5.2-15.6-10.7-29-16.5c-11.7-5.1-19.3-8.9-22.8-11.4  c-5.3-4-8-9-8-14.9c0-12.3,9.2-18.5,27.6-18.5c12.2,0,23.8,1.7,34.7,5.2l2.6-17.1c-6.3-2.2-18-3.3-35-3.3c-15,0-26.7,3.7-34.9,11.2  c-7.4,6.7-11.1,15.3-11.1,25.9c0,10.2,3.6,18.6,10.9,25.3c5.2,4.9,14.3,10.2,27.4,16c12.4,5.5,20.7,9.9,24.9,13.2  c6.3,4.9,9.5,10.9,9.5,17.8c0,13.7-12.2,20.6-36.5,20.6c-10.8,0-22.2-2.1-34.3-6.2l-3.8,16.9c10.4,3.1,22.4,4.6,35.9,4.6  c36.9,0,55.3-13.2,55.3-39.7C543.5,98.4,539,88.8,530,80.9 M245.1,72.6c0-25.3,0.6-47.4,1.8-66.4h-18.4c1,18.5,1.5,41,1.5,67.4  c0,12.2,0.6,27,1.8,44.5h-1.1c-3.1-9.7-16-30.7-38.7-62.9c-21.6-30.6-32.4-47-32.4-49h-20.6c1.2,19,1.8,41.1,1.8,66.4  c0,25.7-0.6,50.2-1.8,73.5h18c-1.1-24.3-1.6-48.5-1.6-72.8c0-12.3-0.6-27.1-1.9-44.3h1.1c3.4,9.1,17.4,31,42,65.7  c23.5,33.1,35.2,50.2,35.2,51.4h15C245.7,122.8,245.1,98.3,245.1,72.6 M70.8,72.6c0-24.7,0.5-46.8,1.5-66.4H51.9  c1.1,18.9,1.6,41,1.6,66.4c0,25.8-0.5,50.3-1.6,73.5h20.4C71.3,123,70.8,98.5,70.8,72.6" fill="#542D00"  /><g><defs><path id="SVGID_1_" d="M420.6,217.4c0,0.1-0.1,0.2-0.1,0.3C420.4,217.3,420.4,217.2,420.6,217.4 M356.9,201.2    c-29.6,3.8-57.7,8.8-84.4,13.5c-53.4,9.6-101.3,18.5-141.7,25.2C50.5,253.6,0.2,258.9,0,261.6v0c0.1,2.5,51.2,1.9,132.8-8.4    c40.8-5.1,89.1-12.6,142.6-21.2c26.7-4.2,54.8-8.8,83.7-12.3c14.4-1.6,29.3-3.2,43.5-3c6.2,0,13.1,0.8,17.1,2.3    c-0.9,1.3-2.3,3.1-3.8,4.6c-9.7,9.8-22.8,18.4-35.1,27.6c-3.1,2.3-6.3,4.7-9.5,7.5c-1.7,1.5-3.2,2.8-5.3,5.4    c-0.8,1.3-2.6,2.7-3.2,7.9c-0.6,7.5,7.3,11.2,8.4,11.1c13.8,1.7,18.2-1.1,26.5-2c29.4-6,56.7-12.6,83.2-18    c52.8-11.1,100.8-18.7,141.3-23.4c81-9.4,131.8-7.7,131.9-10.7c0.2-2.2-50.8-8.7-133.2-2.7c-41.1,3-89.9,9.4-143.4,19.6    c-25.5,4.8-52.3,10.8-79.5,16.1c10.3-7.4,21.2-14.9,31.5-25.2c3.1-3.3,6.3-6.6,8.8-12.8c4.1-6.7-2.8-20.1-8.6-21.2    c-10.4-4.7-18.6-4.5-26.8-4.9c-0.6,0-1.2,0-1.8,0C385.7,197.8,371.2,199.5,356.9,201.2" />
		
	</defs><clipPath id="SVGID_2_"><use xlink:href="#SVGID_1_" overflow="visible" ></use>
		
	</clipPath><radialGradient id="SVGID_3_" cx="-354.2388" cy="138.7579" r="0.5427" gradientTransform="matrix(584.6846 0 0 584.6846 207491.4375 -80722.3047)" gradientUnits="userSpaceOnUse"><stop offset="0" stop-color="#FFFBDA" ></stop><stop offset="0.392" stop-color="#EECD00" ></stop><stop offset="0.427" stop-color="#F3D73D" ></stop><stop offset="0.471" stop-color="#F9E37D" ></stop><stop offset="0.512" stop-color="#FCEDA7" ></stop><stop offset="0.549" stop-color="#FFF5C3" ></stop><stop offset="0.58" stop-color="#FFF9D4" ></stop><stop offset="0.602" stop-color="#FFFBDA" ></stop><stop offset="0.901" stop-color="#F5DB55" ></stop><stop offset="1" stop-color="#8C6000" ></stop>
		
		
		
		
		
		
		
		
		
		
	</radialGradient><path d="M0,197.8h754.4v86.9H0V197.8z" clip-path="url(#SVGID_2_)"  fill="url(#SVGID_3_)"  />
	
	
	
		
	
</g><g><g><defs><polygon id="SVGID_4_" points="424.3,77 424.2,80.4 423.9,83.9 423.6,87.3 423,90.7 422.3,94.1 421.5,97.5 420.5,100.8 419.4,104 418.1,107.2 416.7,110.4 415.1,113.5 413.4,116.5 411.5,119.4 409.6,122.2 407.5,125 405.3,127.6 402.9,130.2 400.5,132.6 397.9,134.9 395.3,137.1 392.5,139.2 389.7,141.2 386.8,143 383.8,144.7 380.7,146.3 377.6,147.8 374.4,149 371.1,150.2 367.8,151.2 364.4,152 361,152.7 357.6,153.3 354.2,153.7 350.7,153.9 347.3,153.9 343.8,153.9 340.4,153.7 337,153.3 333.5,152.7 330.2,152 326.8,151.2 323.5,150.2 320.2,149 317,147.8 313.9,146.3 310.8,144.7 307.8,143 304.9,141.2 302,139.2 299.3,137.1 296.6,134.9 294.1,132.6 291.7,130.2 289.3,127.6 287.1,125 285,122.2 283,119.4 281.2,116.5 279.5,113.5 277.9,110.4 276.5,107.2 275.2,104 274.1,100.8 273.1,97.5 272.2,94.1 271.6,90.7 271,87.3 270.6,83.9 270.4,80.4 270.3,77 270.4,73.5 270.6,70.1 271,66.6 271.6,63.2 272.2,59.9 273.1,56.5 274.1,53.2 275.2,49.9 276.5,46.7 277.9,43.6 279.5,40.5 281.2,37.5 283,34.6 285,31.7 287.1,29 289.3,26.3 291.7,23.8 294.1,21.3 296.6,19 299.3,16.8 302,14.7 304.9,12.7 307.8,10.9 310.8,9.2 313.9,7.6 317,6.2 320.2,4.9 323.5,3.8 326.8,2.8 330.2,1.9 333.5,1.2 337,0.7 340.4,0.3 343.8,0.1 347.3,0 350.7,0.1 354.2,0.3 357.6,0.7 361,1.2 364.4,1.9 367.8,2.8 371.1,3.8 374.4,4.9 377.6,6.2 380.7,7.6 383.8,9.2 386.8,10.9 389.7,12.7 392.5,14.7 395.3,16.8 397.9,19 400.5,21.3 402.9,23.8 405.3,26.3 407.5,29 409.6,31.7 411.5,34.6 413.4,37.5 415.1,40.5 416.7,43.6 418.1,46.7 419.4,49.9 420.5,53.2 421.5,56.5 422.3,59.9 423,63.2 423.6,66.6 423.9,70.1 424.2,73.5" />
			
		</defs><clipPath id="SVGID_5_"><use xlink:href="#SVGID_4_" overflow="visible" ></use>
			
		</clipPath><radialGradient id="SVGID_6_" cx="-348.6814" cy="127.5455" r="0.5413" gradientTransform="matrix(176.042 0 0 176.042 61709.5156 -22405.1367)" gradientUnits="userSpaceOnUse"><stop offset="0" stop-color="#FFFBDA" ></stop><stop offset="0.392" stop-color="#EECD00" ></stop><stop offset="0.427" stop-color="#F3D73D" ></stop><stop offset="0.471" stop-color="#F9E37D" ></stop><stop offset="0.512" stop-color="#FCEDA7" ></stop><stop offset="0.549" stop-color="#FFF5C3" ></stop><stop offset="0.58" stop-color="#FFF9D4" ></stop><stop offset="0.602" stop-color="#FFFBDA" ></stop><stop offset="0.901" stop-color="#F5DB55" ></stop><stop offset="1" stop-color="#8C6000" ></stop>
			
			
			
			
			
			
			
			
			
			
		</radialGradient><path d="M270.3,0h154v153.9h-154V0z" clip-path="url(#SVGID_5_)"  fill="url(#SVGID_6_)"  />
		
		
		
			
		
	</g>
	
</g><g><path d="M402.8,49.1c-0.2,0-0.2,0.2-0.4,0.5c-0.2,0.2-0.2,0.3-0.5,0.5c-0.2,0.2-0.5,0.1-0.8,0   c-0.3-0.1-0.4-0.3-0.5-0.4c-0.1-0.1-0.2,0.1-0.3,0.2c-0.1,0.2-0.1,0.2-0.5-0.1c-0.4-0.3-0.9-1.3-1-1.4c-0.1-0.2-0.1-0.3,0-0.5   c0.1-0.1-0.1-0.3-0.2-0.7c-0.2-0.4-0.3-0.7-0.2-0.9c0.2-0.2,0.1-0.2,0.1-0.3c-0.1-0.1-0.3,0-0.3,0.1c-0.1,0.1-0.2,0-0.3-0.2   c-0.1-0.1-0.4-0.4-0.6-0.6c-0.2-0.2-0.5-0.3-1-0.6c-0.4-0.3-0.8-0.7-1.2-1c-0.3-0.3-0.2-0.5-0.6-0.8c-0.4-0.3-0.6-0.2-0.8-0.2   c-0.1-0.1,0,0-0.1-0.2c-0.2-0.2,0-0.2,0.1-0.4c0.1-0.1,0-0.2-0.1-0.2c-0.1-0.2-0.2-0.4-0.3-0.7c-0.1-0.3,0-0.4,0.1-0.5   c0.2-0.1,0.1-0.7,0.1-0.8c-0.1-0.2-0.1-0.2,0-0.4c0-0.2,0.2,0,0.3,0c0.1,0-0.1-0.5-0.1-0.8c0-0.2,0.3-0.3,0.4-0.4   c0.1-0.1,0.3,0,0.4,0c0.1-0.1,0.2-0.1,0.3-0.2c0.1-0.2,0.2,0,0.3,0.1c0.1,0.1,0.3,0.3,0.4,0.5c0.1,0.3,0.6,0.8,0.7,1   c0.1,0.2-0.3,0.3-0.5,0.4c-0.2,0.1-0.1,0.6-0.1,0.6s0.1,0.2,0.1,0.3c0,0.1,0.5,0,0.5,0.1c0.1,0.1-0.1,0.2-0.4,0.3   c-0.3,0-0.2,0.2-0.2,0.2s0.2,0,0.5,0.1c0.2,0.1,0.3,0.4,0.6,0.5c0.2,0.2,0.3,0.3,0.4,0.3c0.1,0,0.3,0.2,0.4,0.3   c0.1,0.1,0.2,0,0.4-0.1c0.2-0.1,0.3,0,0.4,0.5c0.1,0.5,0.4,0.7,0.8,1.1c0.4,0.3,0.5,0.5,0.6,1c0.1,0.5,0.4,0.6,0.6,0.5   c0.2,0,0.3-0.1,0.3,0c0,0.1,0.3,0.3,0.3,0.4c0,0.1-0.2,0.2-0.1,0.3c0.1,0.1,0.3,0.1,0.5,0.1c0.2,0.1,0.2,0.2,0.2,0.4   c0.1,0.2,0.5,0.8,0.6,1.1c0.1,0.3,0.6,1,0.8,1.2C403.3,49,403,49.1,402.8,49.1 M399.7,43.6c0.1,0,0.5,0.3,0.4,0.4   c0,0.1-0.2,0.2-0.4,0C399.5,43.8,399.7,43.6,399.7,43.6 M392.4,113.2c0-0.3,0-0.2,0.2-0.3c0.1-0.1,0.1-0.3,0.1-0.4   c0-0.1-0.2-0.3-0.2-0.7c0-0.3,0-0.6,0.1-1c0-0.4,0.1-0.7,0.2-0.9c0.1-0.2,0.3-0.1,0.3,0.1c0,0.3,0.1,0.9,0.1,1.2c0,0.3,0,0,0,0.1   c0,0.1,0.1,0.2,0.1,0.2s0.1,0.2,0.1,0.3c0,0.1-0.1,0.3-0.1,0.3l0.2,0.1c0,0,0,0.3-0.1,0.5c-0.1,0.2-0.2,0.3-0.2,0.4s0.2,0,0.5,0   c0.3,0,0.2,0.5,0.2,0.7c0,0.2,0.1,0.5,0.1,0.7c0,0.2,0.2,0.6,0.2,0.6c0.2,0.4-0.1,0.4-0.2,0.4s-0.2-0.2-0.3-0.2   c-0.1-0.1-0.3,0.1-0.4,0.1c-0.1-0.1,0.1-0.3,0.1-0.5c0-0.2-0.3-0.3-0.3-0.5c0.1-0.2,0-0.5,0-0.5l-0.2-0.1c-0.2-0.1-0.2,0.1-0.6-0.2   C392,113.3,392.4,113.5,392.4,113.2 M395.5,107.7c0-0.2,0-0.5,0.1-0.7c0.1-0.2,0.2-0.6,0.1-0.8c0-0.2,0-0.3,0.1-0.5   c0-0.2,0.1-0.5,0.2-0.7c0.1-0.2,0.3-0.2,0.3-0.2s0.2-0.3,0.4-0.5c0.2-0.1,0.3,0,0.4,0c0.2,0,0.3-0.5,0.4-0.6c0.1-0.1,0.4,0.1,0.5,0   c0.1-0.1,0.2,0.5,0.2,0.5s0.3-0.2,0.6-0.3c0.3-0.1,0,0.5,0,0.5s-0.2,0.2-0.4,0.3c-0.2,0.1-0.2,0.3-0.2,0.4c0,0.1-0.1,0.6-0.2,0.8   c-0.1,0.3-0.5,0.7-0.5,0.7c0.4-0.1,0.2,0.3,0.1,0.5c-0.1,0.2-0.2,0.3-0.4,0.4c-0.3,0.1-0.2,0.3-0.3,0.2c-0.1,0-0.2-0.2-0.3-0.2   c-0.1,0-0.2,0-0.3,0c-0.1,0-0.3,0.3-0.3,0.5s-0.3,0.3-0.5,0.3C395.3,108.3,395.5,107.9,395.5,107.7 M397,118.1   c-0.2,0.1-0.1,0.4-0.2,0.9c0,0.5-0.3,0.2,0.1,0.8c0.3,0.6,0,0.9-0.2,0.9s-0.1-0.4-0.2-0.5c-0.1,0-0.3,0.2-0.4,0.1   c-0.1-0.1,0-0.2,0.1-0.4c0.1-0.3-0.1-0.1-0.2-0.1c-0.1-0.1,0-0.5,0-0.8c0-0.3,0-0.6,0-0.8c0-0.2,0.2-0.4,0.4-0.5   c0.1-0.2,0-0.4,0.1-0.5c0.1-0.1,0-0.5,0-0.8c0-0.2-0.1-0.3-0.1-0.6c0-0.3,0.3-0.4,0.5-0.4c0.2,0,0.2,0.1,0.2,0.4   c0,0.2,0.1,0.4,0.1,0.7c0,0.3,0,0.3-0.1,0.5c-0.1,0.2,0.1,0.2,0.1,0.2C397.7,117.1,397.2,118,397,118.1 M392.4,48.2   c-0.2,0.3-0.2,0.3-0.3,0.4c-0.2,0.1-0.1,0-0.2,0.1c-0.2,0.1-0.5-0.1-0.7,0.2c-0.2,0.3-0.5,0.2-0.8,0.2c-0.3,0-0.2,0.1-0.5,0.1   c-0.2,0-0.7,0.2-0.9,0c-0.2-0.2-0.3-0.5-0.5-0.3c-0.2,0.1-0.2,0.5-0.5,0.2c-0.3-0.3-0.3-0.4-0.6-0.4c-0.2,0.1-0.5,0.3-0.8,0.3   c-0.3,0.1-0.6,0.2-0.8,0.5c-0.1,0.2-0.5,0.7-0.4,0.8c0,0,0.1,0.2-0.1,0.4c-0.3,0.2-0.4,0.4-0.6,0.4c-0.2-0.1-0.5-0.3-0.8-0.2   c-0.2,0.1-0.5,0.2-0.7,0.3c-0.2,0.1-0.8,0.2-1-0.2c-0.2-0.4-0.1-0.4-0.4-0.6c-0.3-0.2-0.5-0.4-0.5-0.4s-0.2-0.3-0.1-0.3   c0.1-0.1,0-0.3,0-0.5c0-0.2-0.1-0.4,0.1-0.5c0.2-0.1,0.2,0,0.1-0.6c-0.1-0.6-0.3-0.4-0.2-0.8c0.1-0.4,0.2-0.4,0.3-0.6   c0.2-0.2,0-0.7-0.2-0.8c-0.2-0.1-0.4-0.3-0.2-0.4c0.2-0.1,0.2,0.3,0.2-0.2c0.1-0.5-0.1-1.2,0.4-1.4c0.5-0.2,0.6-0.3,0.8-0.1   c0.2,0.2,0.2,0.3,0.2,0.4c-0.1,0.1-0.1,0.1,0.1,0.2c0.1,0.1,0.1,0.1,0.3,0c0.2-0.1,0.3-0.2,0.5-0.2c0.2,0,0.5,0.1,0.5,0.2   c0,0.1-0.1,0.2-0.2,0.3c-0.1,0.1-0.3,0.3-0.4,0.4c0,0.1-0.1,0.2,0,0.3c0.2,0,0.3,0,0.4,0c0.1,0,0.1-0.2,0.3,0   c0.2,0.2,0.2,0.5,0.3,0.6c0.1,0.1,0.4,0.3,0.4,0.1c0-0.2-0.1-0.4,0.2-0.5c0.2-0.1,0.4-0.1,0.4-0.3c0-0.2-0.1-0.3,0.1-0.4   c0.2,0,0.5,0,0.5-0.1c0.1,0,0.2-0.2,0.1-0.2c-0.1-0.1-0.1-0.3-0.2-0.3c-0.2,0.1-0.2,0.3-0.5,0.3c-0.3,0-0.7-0.2-0.8-0.4   c-0.1-0.2-0.4-0.7,0.2-1.2c0.5-0.5,0.6-0.7,0.8-0.9c0.2-0.1,0.4-0.3,0.6-0.4c0.2-0.1,0.3-0.4,0.4-0.4c0.2,0.1,0.2,0,0.2,0.2   c0,0.2-0.1,0.4-0.2,0.5c-0.1,0.1,0,0.2,0,0.2s0.2,0,0,0.1c-0.1,0.1-0.2,0-0.3,0.1c-0.1,0.1-0.3,0.1-0.1,0.2   c0.2,0.1,0.5-0.1,0.6,0.1c0.1,0.2,0.3,0.3,0.1,0.4c-0.2,0.2-0.3,0.1-0.2,0.3c0,0.2,0.1,0.2,0.1,0.3c0.1,0.1,0-0.1,0.1,0.1   c0,0.2,0.1,0.3-0.1,0.4c-0.2,0.1-0.4-0.1-0.3,0.1c0,0.2,0.4,0.1,0.5,0.2c0.1,0.1,0.1,0.2,0.3,0.2c0.2,0,0.8,0.1,1,0.2   c0.2,0.2,0.8,0.4,1.1,0.5c0.3,0.1,0.2,0.1,0.7,0.3c0.5,0.1,0.9-0.2,1.3,0.3c0.4,0.5,0.6,0.8,0.7,0.9   C392.5,47,392.6,47.9,392.4,48.2 M373.7,28.5c-0.1,0.1-0.2,0-0.4,0.1c-0.2,0.1,0,0,0,0.2c0,0.2,0,0.2-0.1,0.3   c-0.1,0-0.3-0.4-0.4-0.4c-0.1-0.1-0.5-0.2-0.6-0.3c-0.1-0.1-0.3-0.2-0.4-0.3c-0.1-0.1-0.3-0.1-0.4-0.4c-0.1-0.2,0.1-0.3,0.2-0.6   c0.1-0.2,0.3-0.1,0.6-0.1c0.2,0,0.5,0.3,0.8,0.5c0.3,0.3,0.7,0.5,0.7,0.5C374,28.3,373.8,28.4,373.7,28.5 M422.8,68.5   c-0.3-2-0.9-3.9-1.5-7.2c-0.3-1.7-0.3-3.5-0.4-5.7c-8.8-30.1-35.5-52.6-67.7-55c1,0.2,2,0.3,2.7,0.4c2.5,0.3,3.5,0.6,3.8,0.8   c0.4,0.2,0.9,0.4,1.3,0.5c0.4,0.1,0.5,0.2,0.6,0.2c0.1-0.1,0.5,0,0.6,0c0.1,0,0.1,0,0.5,0.1c0.3,0.1,0.5,0.1,0.6,0.2   c0.1,0.1-0.2,0,0.1,0.1c0.3,0.1,0.5,0.1,0.5,0.1s0.1,0.1,0.1,0.1c0.1,0,0.1,0,0.2,0.1c0.1,0.1,0.3,0.1,0.3,0.1s0.2,0.1,0.3,0.2   c0.1,0.1,0.3,0.1,0.5,0.1c0.2,0,0.8,0.1,0.8,0.2c0,0.1,0.1,0.2,0,0.2c-0.1,0-0.2,0-0.3,0c-0.1,0-0.3,0-0.4,0   c-0.1,0-0.2-0.1-0.3-0.1c-0.1,0-0.4,0.1-0.4,0.1s0,0.1,0.2,0.1c0.2,0.1,0.2,0,0.4,0.2c0.1,0.2,0.1,0.2,0.3,0.3c0.2,0,0.2,0,0.4,0   c0.2,0,0.3,0,0.4,0c0.1,0,0.1-0.1,0.2,0c0.1,0.1,0.2,0,0.5,0.2c0.3,0.2,0.2,0,0.3,0.2c0,0.1-0.3,0.1-0.3,0.1s-0.2,0-0.1,0.1   c0.1,0.1,0.3,0.3,0.6,0.3c0.3,0.1,0.5,0.1,0.5,0.2c0,0.1-0.1,0.1-0.1,0.2c0,0.1,0,0.2,0.3,0.3c0.3,0.1,0.9,0.1,1,0.3   c0.1,0.1,0.4,0.3,0.4,0.3s0.2,0.1,0.1,0.2c-0.1,0.1,0,0.2-0.3,0c-0.3-0.2-0.5-0.4-0.7-0.4c-0.2,0-0.1,0-0.4-0.1   c-0.2-0.1-0.2,0-0.4-0.2c-0.3-0.1-0.6-0.3-0.8-0.3s0,0.1-0.2-0.1c-0.2-0.1,0.2-0.1-0.4-0.2c-0.6-0.2-0.9-0.3-1.1-0.3   c-0.1,0-0.5-0.1-0.7,0c-0.2,0.1-0.4,0-0.3,0.1c0.1,0.1,0.1,0.2,0.3,0.2c0.2,0.1,0.3,0,0.4,0.1c0.1,0.1,0,0,0.1,0.1   c0.1,0.1,0.4,0.2,0.1,0.2c-0.2,0-0.3,0-0.5,0h-0.3c-0.2,0-0.2-0.1-0.3,0c-0.1,0-0.2-0.1-0.1,0c0.1,0.2,1,0.4,1.5,0.6   c0.6,0.1,1.1,0.2,1.2,0.3c0.1,0.1,0.2,0.2,0.3,0.3c0.1,0.1,0.2,0.1,0.2,0.2c0,0.1-0.2,0.1-0.1,0.2c0.1,0.1,0.3,0.2,0.4,0.4   c0.1,0.1,0.5,0.4,1,0.7c0.4,0.3,0.8,0.4,1,0.4c0.2,0,0.2,0,0.4,0.1c0.2,0.1,0.3,0,0.4,0.2c0.2,0.3,0.2,0.2,0.3,0.3   c0,0.1,0-0.2,0,0.1c0,0.3,0.5,0.6,0.9,0.7c0.4,0.1,0.5,0.1,0.7,0.1s0.7,0,0.8,0c0.1,0.1,0.2,0.1,0.3,0.1c0.1,0.1,0.6,0.3,0.7,0.3   c0.1,0,0.3,0,0.4,0c0.1,0,0.1-0.1,0.3,0.1c0.2,0.2,0.4,0.2,0.5,0.2c0.2,0.1,0.5,0,0.4,0.1c0,0.1-0.6,0.1-0.9,0   c-0.3-0.1-0.6-0.2-0.8-0.3c-0.2-0.1-0.4-0.1-0.6-0.2c-0.2-0.1-0.3-0.1-0.5-0.1c-0.2,0-0.4,0-0.6,0c-0.1,0.1-0.6,0.1-0.5,0.2   c0.1,0.1,0.8,0.2,0.9,0.3l0.1,0.1c0,0-0.1,0.1,0.1,0.2c0.2,0.1,0.1,0.1,0.3,0.1c0.1,0,0.1-0.1,0.4-0.1s0.9-0.1,0.7,0.2   c-0.1,0.2-0.3,0.2-0.4,0.2c-0.1,0-0.1,0-0.2,0.1c-0.1,0.1,0.1,0.1-0.2,0.1c-0.3,0-0.7-0.2-0.8-0.3c-0.1-0.1-0.7-0.4-0.7-0.3   c0,0.1,0.1,0.2,0.5,0.4c0.3,0.1,0.9,0.5,1,0.5c0.1,0.1,0.3,0.1,0.5,0.1c0.2,0.1,0.5,0.1,0.6,0.2c0.1,0.1,0.1,0,0.4,0.2   c0.4,0.2,0.6,0.3,0.6,0.3s0.1,0.2,0.2,0c0.1-0.2-0.1-0.1,0.2-0.3c0.2-0.1,0.2-0.2,0.5-0.1c0.4,0.1,0.8,0.3,0.8,0.3   c0.2,0.1,0.3,0.2,0.5,0.2c0.3,0.1,0.5,0.1,0.5,0.1c0.1,0.1,0,0.2-0.1,0.2c-0.1,0-0.4-0.1-0.5-0.1c-0.1,0-0.3-0.1-0.4-0.2   c-0.2-0.1-0.5-0.1-0.6-0.1c-0.1,0-0.3-0.1-0.3,0c0,0.1-0.1,0.1,0,0.3c0.2,0.2,0.3,0.3,0.5,0.3c0.2,0,0.3,0,0.6,0.2   c0.3,0.2,0.3,0.1,0.5,0.3c0.2,0.1,0.4,0.3,0.5,0.4c0.1,0.1,0.1,0,0.2,0.2c0.1,0.2,0.1,0.1,0.2,0.3c0.1,0.2,0.3,0.3,0.4,0.3   c0.1,0,0.2,0,0.2,0.1c-0.1,0.1-0.1,0.1-0.4,0.1c-0.3,0.1-0.4,0.1-0.5,0.1c-0.1-0.1-0.1-0.6-0.2-0.7c-0.1-0.1-0.2,0-0.5-0.4   c-0.3-0.3-0.2-0.4-0.6-0.6c-0.4-0.1-0.6-0.2-0.8-0.3c-0.2-0.1-0.6-0.1-0.9-0.3c-0.3-0.2-0.9-0.4-1.2-0.5c-0.2-0.1-0.7-0.5-0.9-0.5   c-0.2,0-0.3,0.1-1-0.3c-0.7-0.3-1.3-0.8-1.5-0.7c-0.2,0.1-0.2,0.1-0.5,0c-0.2-0.1,0.1,0.4,0.5,0.6c0.5,0.2,1,0.6,1.4,0.7   c0.4,0.2,0.1,0.2,0.5,0.4c0.4,0.2,0.7,0.2,1,0.5c0.4,0.3,0.2,0.5,0.7,0.4c0.5,0,0.7,0,0.9,0.1c0.2,0.1,0.4,0.1,0.6,0.2   c0.2,0.1,0.6,0.2,0.5,0.3c-0.1,0.1-0.8,0.1-1.3,0.1c-0.5,0-0.9-0.2-1.2-0.2c-0.2,0.1-0.4,0.2-0.5,0.3c-0.1,0.1,0.1,0.2-0.2,0.1   c-0.3-0.1-0.5-0.1-0.6-0.1c-0.1,0-0.5-0.2-0.4-0.1c0.1,0.1,0.1,0.3,0.6,0.4c0.5,0.1,0.7,0.1,0.9,0.1c0.2,0,0.9,0.3,0.9,0.3   s0.1,0,0.1,0.2c0,0.1,0,0.2,0.1,0.3c0.1,0.1,0.3,0,0.1,0.1c-0.2,0.1-0.4-0.1-0.5-0.2c-0.1-0.1-0.3-0.2-0.4-0.2   c-0.1,0-0.2,0.1-0.1,0.2c0,0.1,0.2,0.1,0.2,0.2c0.1,0.1,0.1,0.1,0,0.2c-0.1,0-0.4,0-0.3,0.2c0,0.2,0.3,0.2,0.2,0.4   c0,0.2-0.1,0.3-0.3,0.2c-0.1,0-0.2-0.1-0.5-0.3c-0.2-0.2-0.3-0.4-0.4-0.3c-0.1,0.1-0.1,0.2,0,0.3c0.1,0.1,0.3,0.1,0.3,0.2   c0,0.1-0.1,0.1-0.2,0.2c-0.1,0-0.1-0.1-0.1,0c0,0.1,0.1,0.3,0,0.4c-0.1,0.1-0.2,0.1-0.1,0.3c0.1,0.2,0.2,0.2,0.2,0.3   c0,0.1-0.2,0.1-0.1,0.2c0.1,0.1,0.2,0.1,0.3,0.3c0.1,0.2,0.3,0.1,0.2,0.3c0,0.1,0,0.4-0.5,0.4c-0.4-0.1-0.4-0.2-0.6-0.2   c-0.2,0-0.3,0.1-0.4-0.2c-0.1-0.2-0.1-0.2,0.1-0.4c0.2-0.2,0.1-0.3-0.1-0.4c-0.2-0.1-0.2-0.1-0.5-0.1c-0.3,0-0.4,0-0.5,0   c-0.1,0.1-0.4,0.1-0.1,0.2c0.2,0.1,0.5,0.2,0.6,0.4c0.2,0.2,0.1,0.3,0.5,0.5c0.3,0.1,0.3,0,0.5,0.2c0.2,0.1,0.3,0.2,0.4,0.4   c0.1,0.2,0.3,0.4,0.4,0.5c0.1,0.1-0.3,0.1-0.5,0.1c-0.1-0.1-0.3-0.2-0.5-0.1c-0.1,0.1-0.2,0-0.1,0.2c0,0.2,0.1,0.3,0,0.5   c-0.1,0.1-0.2,0.4,0.1,0.6c0.2,0.2,0.2,0.3,0.6,0.4c0.4,0.1,0.7,0.3,0.5,0.3c-0.2,0-0.2,0-0.6,0.1c-0.4,0.1-0.3,0.2-0.6,0.1   c-0.3-0.1-0.5-0.3-0.6-0.3c-0.1,0-0.4,0-0.3,0.1c0.1,0.1,0.5,0.5,0.8,0.5c0.2,0.1,0.4-0.1,0.5,0c0.1,0.1,0.3,0.6,0.1,0.6   c-0.2,0-0.4,0.1-0.6,0c-0.2-0.1-0.3-0.3-0.5-0.3c-0.2,0-0.1,0.4-0.5,0.1c-0.4-0.3-0.4-0.6-0.7-0.7c-0.3-0.1-0.3-0.2-0.4-0.4   c-0.1-0.2-0.1-0.3-0.5-0.3c-0.4,0-0.5-0.1-0.6-0.2c-0.1-0.1,0,0.1-0.3-0.1c-0.3-0.2-0.3-0.2-0.4-0.2c-0.1-0.1-0.5-0.2-0.1-0.2   c0.4,0,0.2,0,0.8,0c0.6,0,0.2-0.2,0.8,0c0.6,0.2,0.6,0.1,1.1,0.1c0.5-0.1,0.6-0.1,0.8-0.3c0.1-0.2,0.3-0.6,0.1-0.8   c-0.2-0.2-0.5-0.2-0.7-0.4c-0.2-0.2-0.1-0.3-0.6-0.3c-0.5,0-0.8,0-0.9-0.1c-0.1,0-0.9-0.5-1.1-0.5c-0.2,0-0.8-0.1-0.9-0.1   s-0.4-0.1-0.5,0c-0.1,0.1,0,0.3-0.1,0.3c-0.1,0-0.3-0.1-0.3-0.1s-0.3-0.1-0.3-0.2c0-0.1,0-0.2-0.1-0.2c-0.1,0-0.4-0.1-0.5,0   c-0.1,0.1-0.1,0.2-0.2,0.3c-0.1,0-0.3,0.1-0.4,0c-0.1,0-0.4,0-0.4,0s-0.2-0.1,0-0.3c0.2-0.2,0.3-0.3,0.3-0.3S365,19,364.8,19   c-0.2,0-0.4-0.1-0.4-0.1c-0.1,0-0.2-0.1-0.2,0c0,0.1,0,0.3-0.1,0.3c-0.1,0-0.2,0-0.3-0.1c0-0.1-0.1-0.2-0.2-0.2s-0.2-0.1-0.2,0   c0,0.1,0.2,0.2,0.1,0.3c-0.1,0.1-0.1,0-0.2,0c-0.1-0.1-0.2-0.1-0.2,0c0,0.1-0.1,0.3,0,0.3c0,0.1,0.1,0.2,0,0.2s-0.3,0-0.3-0.2   c-0.1-0.2,0.1-0.5-0.1-0.5c-0.2,0-0.3-0.1-0.3,0.1c0,0.2,0.1,0.3,0,0.3c-0.1,0-0.2-0.2-0.2,0c0,0.2,0.1,0.4,0,0.4   c-0.2,0-0.3,0-0.4,0.1c-0.1,0.1-0.1,0.2-0.1,0.3c0,0.1,0,0.1-0.2,0.1c-0.1,0-0.2,0-0.3,0c-0.1,0-0.2-0.3-0.3-0.2   c-0.2,0.1-0.2,0.2-0.3,0.4c-0.1,0.1-0.3,0.2-0.3,0.3c0,0.1,0.2,0.2,0.2,0.3c0,0.1-0.1,0.4-0.2,0.4c-0.1,0-0.4-0.1-0.4-0.1   s-0.1-0.3-0.2-0.2c-0.1,0.1-0.2,0.2-0.1,0.3c0.1,0.1,0,0.3,0,0.4c0,0.1-0.3,0.1-0.1,0.2c0.2,0.1,0.6,0,0.7-0.1   c0.1,0,0.2-0.2,0.3-0.1c0.1,0.1,0.3,0.1,0.1,0.2c-0.2,0.1-0.2,0-0.3,0.2c-0.1,0.1,0,0.5-0.1,0.7c-0.2,0.2-0.2,0.2-0.2,0.5   c0,0.3,0.1,0.5,0,0.6c0,0.1-0.1,0.1-0.1,0.3c0,0.1-0.1,0.1-0.1,0.3c0,0.1,0,0.2,0,0.3c0,0.1,0,0.3-0.1,0.4   c-0.1,0.1-0.1,0.2-0.1,0.5c0,0.3-0.1,0.5-0.2,0.6c-0.1,0.1-0.3,0.3-0.2,0.3c0.1,0,0.2,0.1,0.4-0.1c0.1-0.1,0.3-0.4,0.4-0.3   c0.1,0.1,0.1,0.1,0.1,0.3c-0.1,0.2,0.3,0.1-0.2,0.3c-0.5,0.2-0.3,0.4-0.5,0.2c-0.2-0.1-0.4-0.3-0.5-0.2c-0.1,0.1-0.3,0-0.3,0.1   c-0.1,0.2-0.3,0.4-0.4,0.6c-0.2,0.2-0.2,0.2-0.4,0.3c-0.1,0.1-0.3,0-0.4,0.2c0,0.2,0.1,0.2-0.1,0.4c-0.2,0.1-0.5,0.3-0.4,0.6   c0.1,0.2,0.3,0.6,0.2,0.8c-0.1,0.2-0.2,0.2-0.1,0.4c0.1,0.3,0,0.5,0.2,0.5c0.2,0.1,0.3-0.1,0.4,0.1c0,0.2,0,0.2,0,0.4   s-0.2,0.1,0,0.2c0.2,0.1,0.5,0.1,0.6,0.1c0.1,0,0,0.3-0.1,0.4c-0.1,0.1-0.3,0.1,0,0.4c0.3,0.3,0.6,0.3,0.8,0.4   c0.2,0.1,0.4,0.1,0.6,0.1c0.2,0,0.1,0.2,0.5-0.1c0.4-0.3,0.5-0.2,0.5-0.5c0-0.3,0-0.4,0.2-0.5c0.2-0.1,0.3,0,0.4-0.1   c0.1-0.1,0.1,0,0-0.4c-0.1-0.4-0.1-0.5,0-0.5c0.1,0.1,0.2,0,0.2,0.2c0.1,0.2,0.1,0.3,0.3,0.4c0.2,0.1,0.4,0.4,0.4,0.5   c0,0.1-0.1,0.1,0.2,0.3c0.3,0.3,0.4,0.1,0.5,0.4c0.1,0.3-0.3,0.2,0.1,0.6c0.4,0.4,0.5,0.3,0.7,0.5c0.1,0.2,0.2,0.3,0.3,0.5   c0.1,0.1,0.2,0.1,0.2,0.2c0,0.2,0.1,0.3,0,0.4c-0.1,0.1,0.1,0.2,0.2,0.3c0.1,0.1-0.2,0.4,0.2,0.5c0.4,0.1,0.5-0.2,0.7-0.2   c0.3,0,0-0.2,0.1-0.5c0.1-0.3,0.4-0.4,0.5-0.4c0.1,0,0.2,0.1,0.3,0c0.2-0.1,0.2,0,0.2-0.4c0-0.4,0-0.9-0.1-1.1   c-0.1-0.1-0.2-0.3-0.2-0.4c0-0.2,0-0.4-0.1-0.5c-0.1-0.1-0.1-0.2-0.2-0.3c-0.1-0.1-0.4-0.2-0.2-0.3c0.2-0.1,0.4,0,0.4-0.1   c0.1-0.1,0.1-0.2,0.1-0.3c0-0.1,0.2-0.3,0.3-0.3c0.1,0,0.3-0.4,0.2-0.3c-0.1,0,0.1,0,0-0.4c-0.1-0.3-0.3-0.4-0.4-0.5   c-0.1,0-0.7-0.4-0.9-0.4c-0.1,0-0.7-0.5-0.6-0.9c0-0.4,0-0.7-0.2-0.8s-0.2-0.2-0.1-0.3c0.1-0.1,0,0.2,0.1-0.1c0.1-0.3,0-0.6,0-0.6   s0-0.3,0.3-0.3c0.3-0.1,0.2-0.2,0.3-0.4c0.1-0.1,0.1-0.1,0.3-0.2c0.1-0.1,0.1-0.3,0.1-0.4c0-0.2,0.4-0.4,0-0.5   c-0.4-0.1-0.3-0.3-0.3-0.6c0-0.3,0.1-0.3,0.1-0.5c0-0.2,0.1-0.3,0.3-0.3c0.2,0,0.2-0.1,0.5-0.1c0.3,0,0.3,0,0.6,0.1   c0.2,0.1,0.3,0.2,0.4,0.3c0.1,0.2,0.4,0.3,0.4,0.3s0.1,0.2-0.1,0.2c-0.2,0.1-0.3-0.3-0.3,0.1c0,0.4,0.1,0.6,0,0.7   c-0.1,0.1-0.1,0.3-0.1,0.3s-0.1,0.1-0.1,0.2c0,0.1,0,0.3,0,0.4c-0.1,0.1-0.2,0.1-0.3,0.2c-0.1,0.1-0.2,0.1-0.1,0.3   c0.1,0.2,0,0.3,0,0.4c0.1,0.1,0.4,0.3,0.5,0.6c0.1,0.3,0.3,0.3,0.3,0.6c0.1,0.3,0.1,0.6,0.2,0.7c0.1,0.1,0.1,0.2,0.3,0.2   c0.2,0.1,0.5,0.1,0.5,0.1c0.1,0,0.3,0,0.4,0.1c0.1,0.2,0,0.2,0.2,0.3c0.2,0.1,0.1,0.3,0.4,0c0.3-0.3,0.3-0.1,0.5-0.3   c0.2-0.2,0.3-0.2,0.3-0.3c0.1-0.1,0.1-0.2,0.3-0.3c0.2,0,0.3,0.1,0.4-0.1c0.1-0.1,0.3-0.3,0.4-0.3c0.1,0,0.3-0.1,0.3-0.1   s0.1-0.3,0.2-0.2c0,0.1,0.2,0.2,0.2,0.3c0,0.1,0.2,0.2,0.3,0.2c0.1,0,0.2,0,0.3,0c0.1,0,0.2,0,0.3,0.1c0.2,0.1,0.5,0.1,0.2,0.2   c-0.3,0.1-0.5,0.1-0.6,0.1c-0.1,0-0.2,0.3-0.2,0.3s-0.1,0-0.2,0.1c-0.1,0.1-0.2,0.2-0.1,0.3c0,0.1,0.2,0.1,0,0.2   c-0.1,0.1-0.1,0.1-0.4,0.1c-0.3,0-0.3-0.1-0.6-0.1c-0.3,0-0.1-0.1-0.4,0.1c-0.3,0.2-0.3,0.2-0.5,0.3c-0.2,0.1-0.4,0.3-0.3,0.5   c0,0.1,0.2,0.5,0.3,0.6c0.1,0.1,0.2,0.2,0.3,0.1c0.1-0.1,0.2-0.3,0.3-0.2c0.1,0,0.2,0.1,0.2,0.2c0,0.1,0,0.2,0,0.3   c0,0.1,0.3,0.4,0.5,0.8c0.2,0.3,0,0.4-0.2,0.4c-0.2,0.1-0.3,0.1-0.5-0.1c-0.1-0.2-0.4-0.4-0.5-0.4c-0.1,0-0.1-0.1-0.4,0   c-0.1,0.1-0.3,0.1-0.4,0.2c-0.1,0.1-0.2,0.1,0,0.3c0.1,0.2,0.2,0.2,0.1,0.3c-0.1,0.2-0.1,0.4,0,0.6c0.1,0.2,0.3,0.6,0.4,0.7   c0.1,0.2,0.3,0.4,0.4,0.5c0.1,0.1,0.2,0.2,0.1,0.3c0,0.1,0,0.2-0.1,0.2c-0.1,0-0.7-0.1-0.7,0c0,0.1-0.1,0.1,0,0.2   c0.1,0.1,0.4-0.1,0.4,0c0,0.1-0.2,0.3-0.2,0.4c0,0.1-0.2,0.4-0.5,0.3c-0.3-0.1-0.3,0-0.5-0.1c-0.3-0.2-0.2-0.3-0.5-0.3   c-0.3,0-0.4-0.1-0.6,0.1c-0.2,0.2-0.6,0.3-0.6,0.5c0,0.2-0.1,0.3-0.3,0.3c-0.1,0.1-0.5,0.1-0.6,0.2c-0.1,0.1-0.3,0.1-0.3,0.2   c0,0.1,0.1,0.2,0.1,0.3c0,0.1,0,0.1-0.2,0.1c-0.2,0-0.5,0.1-0.5-0.1c-0.1-0.2,0-0.3-0.2-0.3c-0.2,0-0.2-0.1-0.3-0.2   c-0.2-0.1,0-0.2-0.3-0.1c-0.2,0.1-0.6,0.4-0.7,0.4c-0.1,0,0,0-0.2,0.1c-0.2,0.1-0.4,0.2-0.5,0.1c-0.1,0-0.2-0.2-0.1-0.3   c0-0.1,0.2-0.1-0.1-0.1c-0.4,0-0.3,0-0.4,0c-0.1,0-0.2,0-0.2-0.1c0-0.2-0.4-0.2-0.4-0.3c0-0.1-0.1-0.3-0.1-0.5   c0-0.2-0.1-0.4,0.1-0.7c0.2-0.2,0.2-0.3,0.2-0.4c0-0.1,0.2-0.4,0.2-0.4c0.1-0.1-0.1-0.2-0.3-0.2c-0.1,0-0.3-0.2-0.2-0.7   c0.1-0.5-0.2-0.7-0.4-0.6c-0.2,0.2-0.3,0.3-0.5,0.5c-0.1,0.1-0.4,0.1-0.5,0.2c-0.1,0.1-0.4,0.1-0.1,0.3c0.3,0.2,0.6,0.3,0.5,0.4   c-0.1,0.1-0.4,0.3-0.4,0.3s-0.1-0.1,0,0.3c0.1,0.4,0.1,0.3,0.4,0.5c0.3,0.2,0.3,0.5,0.3,0.7c0,0.2,0.2,0.3,0.3,0.5   c0.1,0.1,0,0.2,0.1,0.3c0.1,0.2,0.3,0.3,0.4,0.4c0.1,0.1,0.6,0.3,0.4,0.4c-0.2,0.1-0.3-0.1-0.6-0.1c-0.3,0-0.3,0-0.3,0.2   c0,0.2-0.2,0.4-0.3,0.3c-0.1-0.1-0.1-0.5-0.2-0.4c-0.1,0.1-0.2,0-0.3,0.1c-0.2,0.1-0.4,0-0.3,0.2c0.1,0.2,0.3,0.2,0.2,0.3   c-0.1,0.1-0.2,0.2-0.3,0c-0.2-0.2-0.2-0.2-0.3-0.1c-0.1,0.1-0.3,0.1-0.5,0.1c-0.1,0-0.2,0-0.2,0.1c-0.1,0.1-0.2,0.1,0,0.3   c0.1,0.2,0.4,0.2,0.3,0.5c-0.1,0.2-0.2,0.2-0.3,0.3c-0.1,0.1-0.2-0.1-0.1-0.3c0.1-0.2-0.1-0.3-0.3-0.3c-0.2,0-0.3,0.1-0.3,0.4   c0,0.2,0.1,0.3,0,0.4c-0.1,0.2-0.3,0.2-0.3,0.4c0,0.2-0.2,0.1-0.2,0.3c0,0.2,0.3,0.3,0.2,0.3c-0.1,0.1-0.5,0.1-0.6,0.3   c-0.1,0.1-0.5,0.2-0.7,0.3c-0.2,0-0.5,0.3-0.5,0.4c0,0.1,0.2,0.4-0.1,0.7c-0.3,0.3-0.6,0.5-0.7,0.5c-0.2,0-0.5,0-0.3,0.2   c0.1,0.3,0.2,0.3,0,0.4c-0.2,0.1-0.3-0.1-0.6-0.1c-0.3,0-0.5,0-0.6-0.2c0-0.2-0.4-0.4-0.5-0.2c-0.1,0.2-0.1,0.3,0,0.4   c0.1,0.2,0.6,0.7,0.4,0.8c-0.2,0.2-0.2,0.2-0.4,0.2c-0.2-0.1-0.2-0.2-0.3-0.1c-0.1,0.1-0.1,0.1-0.3,0.1c-0.2,0-0.1-0.1-0.5-0.2   c-0.4-0.1-0.4,0-0.6,0c-0.2,0.1-0.8,0-0.8,0.2c0,0.1,0.1,0.2,0.3,0.3c0.1,0.1-0.1,0.3,0,0.4c0.2,0.1,0.4,0,0.5,0.1   c0.1,0.1,0.3,0.2,0.4,0.2c0.1,0.1,0.3,0,0.5,0.1c0.2,0,0.3,0.3,0.4,0.4c0.1,0.1-0.1,0.4,0.5,1c0.6,0.5,0.8,0.2,0.8,0.4   c0,0.3-0.2,0.5,0,0.7c0.2,0.2,0.3,0.2,0.4,0.3c0.1,0.1,0.3,0.5,0.1,0.6c-0.1,0-0.3-0.5-0.5-0.5c-0.1,0-0.1,0.5-0.1,0.9   c0,0.3-0.2,0.9-0.1,1.2c0.1,0.3-0.1,0.6-0.3,0.6c-0.2,0.1-0.1,0.1-0.8,0.1c-0.7-0.1-0.9-0.1-1.1-0.1c-0.3,0-0.6,0.1-0.9,0.1   c-0.3,0-0.8-0.2-1.1-0.2c-0.3,0-0.8-0.2-1.1-0.1c-0.3,0-0.5,0.2-0.6,0c-0.2-0.2-0.4-0.2-0.6-0.2c-0.2,0.1-0.3,0.4-0.5,0.4   c-0.2,0-0.8,0-0.9,0.2c-0.1,0.2,0.1,0.4,0.2,0.6c0.1,0.1,0.5,0.5,0.4,0.6c-0.1,0.1-0.3,0.2-0.3,0.3c0,0.1-0.2,0.3,0.1,0.7   c0.3,0.5,0.1,0.8,0.1,1c0,0.3-0.1,0.4-0.2,0.8c-0.1,0.4-0.2,0.9-0.3,1c-0.1,0.2-0.5,0.4-0.4,0.6c0.1,0.3,0,0.4,0.2,0.4   c0.2,0,0.2-0.4,0.3-0.2c0.1,0.2-0.2,0.3,0,0.5c0.2,0.1,0.2,0.3,0.2,0.5c0,0.2,0,0.5,0,0.7c0,0.2-0.4,0.5-0.2,0.6   c0.2,0.1,0.4,0,0.5,0c0.1,0,0.3,0.1,0.4,0.2c0.2,0,0.3-0.1,0.4-0.2c0.1-0.1,0.7-0.2,1,0c0.3,0.2,0.4,0.4,0.4,0.5   c0,0.1,0.1,0.3,0.2,0.3c0.1,0.1-0.1,0.1,0.1,0.3c0.3,0.2,0.4,0.4,0.6,0.4c0.2,0,0.1-0.2,0.4-0.4c0.4-0.2,0.4-0.1,0.7-0.2   c0.2-0.1,0.3-0.3,1.2-0.3c0.9,0,0.8,0.1,1,0c0.2-0.1,0.2-0.1,0.4-0.1c0.2,0.1,0.5-0.3,0.6-0.4c0-0.2,0.2-0.6,0.5-0.6   c0.4,0,0.4-0.2,0.5-0.4c0.1-0.3,0-0.5,0.4-0.7c0.4-0.2,0.6-0.3,0.6-0.4c-0.1-0.1-0.2,0-0.3-0.3c-0.1-0.3-0.4-0.8,0-1.2   c0.3-0.4,0.4-0.8,0.7-1.2c0.3-0.4-0.1-0.3,0.4-0.5c0.5-0.2,1.2-0.3,1.3-0.6c0.1-0.3,0.8-0.5,0.8-0.7c0-0.2-0.1-0.4-0.1-0.5   c0-0.1-0.5-1-0.2-1.2c0.3-0.3,0.6-0.5,0.7-0.4c0.2,0.1-0.1,0.2,0.5,0.1c0.5-0.1,0.6-0.2,0.7-0.1c0.1,0.1,0.3,0,0.5,0.2   c0.2,0.2,0.1,0.4,0.5,0.3c0.4-0.2,0.4-0.1,0.6-0.4c0.2-0.3,0-0.4,0.5-0.6c0.5-0.2,0.6-0.1,0.7-0.3c0.1-0.2,0.5-0.8,0.8-0.7   c0.3,0.2,0.4,0.2,0.6,0.3c0.2,0.1,0.6,0,0.7,0.3c0.1,0.3,0,0.6,0.4,0.8c0.3,0.2,0,0.2,0.2,0.4c0.2,0.2,0.1,0.1,0.6,0.5   c0.5,0.3,0.6,0.2,0.8,0.3c0.1,0.2,0.2,0.4,0.5,0.6c0.2,0.2,0.2,0.2,0.8,0.4c0.5,0.2,0.6,0.1,0.9,0.1c0.3,0.1,0.1,0.2,0.4,0.3   c0.3,0.2,0.4,0.1,0.5,0.2c0.1,0.1,0.4,0,0.5,0.1c0.1,0.1,0.1,0.6,0.4,0.7c0.3,0.1,0.3-0.1,0.5,0.1c0.2,0.2,0.2,0.4,0.4,0.6   c0.2,0.2,0.2,0.5,0.4,0.6c0.2,0.1,0.2,0.2,0.2,0.3c0,0.1,0.1,0.1-0.1,0.2c-0.2,0.1-0.3,0.1-0.3,0.2c0,0.1,0.1,0.3,0.1,0.4   c0,0.1-0.2,0.4,0,0.4c0.2,0,0.5-0.1,0.5-0.3c0-0.3,0.2-0.3,0.1-0.6c0-0.3-0.2-0.3,0-0.4c0.2-0.1,0.4-0.1,0.3-0.2   c0-0.2,0-0.3-0.2-0.4c-0.2-0.1-0.2-0.1-0.4-0.2c-0.2-0.1-0.3-0.3-0.3-0.3c0-0.1-0.1-1.2,0.3-1.1c0.4,0.1,0,0,0.4,0.1   c0.3,0.2,0.5,0.2,0.6,0.3c0.1,0.1,0.1,0.3,0.3,0.2c0.2-0.1,0.1-0.4-0.5-0.8c-0.6-0.4-2.1-0.5-2.2-0.9c0-0.4,0.2-0.6,0-0.6   c-0.2,0-0.5,0.2-0.9,0.1c-0.4-0.1-0.9-0.4-1.2-0.6c-0.2-0.2-0.7-1.4-1-1.4c-0.3-0.1-1.1-0.1-1.3-0.8c-0.2-0.7-0.3-0.6-0.1-0.7   c0.2-0.1-0.1-0.3-0.1-0.3s-0.4-0.2-0.1-0.3c0.2-0.1,0.4-0.2,0.5-0.4c0.1-0.1,0.1-0.3,0.4-0.3c0.3,0.1,0.4-0.2,0.5,0.1   c0,0.3-0.2,0.3-0.2,0.5c0,0.2,0,0.8,0.3,0.6c0.3-0.3,0.3-0.4,0.3-0.4s0-0.3,0.2-0.2c0.2,0.1,0.5,0.1,0.5,0.3c0,0.2,0.2,0.4,0.3,0.5   c0.1,0.1,0.2,0.1,0.3,0.2c0.1,0.1,0.3,0.1,0.3,0.2c0,0.1-0.1,0.1-0.3,0.1c-0.2,0-0.3,0-0.1,0.1c0.1,0.1,0.5,0.3,0.5,0.3   s0.2-0.3,0.3-0.1c0.1,0.1,0.1,0.4,0.3,0.4c0.1,0,0.3-0.1,0.6,0c0.3,0.1,0.8,0.5,1.1,0.6c0.3,0.2,0.6,0.3,0.7,0.4   c0.1,0.1,0.3-0.2,0.4,0c0.1,0.1-0.1,0.1,0.3,0.3c0.4,0.3,0.7,0.2,0.7,0.4c0.1,0.2,0.3,0.3,0.1,0.5c-0.2,0.2,0.2,0.6,0.1,0.8   c-0.1,0.2-0.2,0.3,0,0.4c0.2,0.1,0.2,0,0.2,0.2c0,0.2-0.1,0.3,0.1,0.4c0.3,0.1,0.4,0.1,0.5,0.3c0.1,0.2,0.1,0.5,0.6,0.7   c0.4,0.2,0.5,0.3,0.7,0.3c0.1,0,0.3-0.1,0.3,0c0,0.1,0,0.3-0.1,0.3c-0.1,0-0.3,0-0.3,0.1c0.1,0.1,0.1,0.1,0.3,0.2   c0.1,0.1,0.2,0.2,0.2,0.2s0.6,0,0.9-0.2c0.2-0.1,0.3-0.2,0.5-0.2c0.2,0,0.4,0.1,0.5,0.1c0.1,0.1,0.3,0.1,0.3,0.1   c0,0.1-0.2,0.2-0.1,0.2c0.1,0,0.4-0.1,0.5-0.1c0.1,0.1,0.3,0.3,0.3,0.1c0-0.1,0-0.5-0.3-0.5c-0.3-0.1-0.3-0.1-0.5-0.2   c-0.2-0.2-0.3-0.3-0.5-0.3c-0.1,0-0.5,0-0.5-0.1c-0.1-0.1-0.1-0.1,0-0.2c0.1-0.1,0.1-0.3,0.1-0.3s-0.2-0.1,0-0.2   c0.2-0.1-0.5-0.5-0.6-0.7c-0.2-0.2-0.3-0.2-0.2-0.4c0-0.3,0-0.4,0.2-0.5c0.2,0,0.2,0,0.3,0.1c0.1,0.1,0.2,0.2,0.4,0.1   c0.2,0,0.3-0.2,0.2-0.3c-0.1-0.1-0.3-0.5-0.1-0.5c0.2,0,0.3,0.2,0.5-0.1c0.2-0.3,0.2-0.2,0.4-0.3c0.2-0.1,0.5,0,0.8,0   c0.2,0,0.5-0.1,0.6,0.1c0.1,0.2,0.4,0,0.5,0c0.1-0.1,0.1,0,0.3,0c0.2,0,0.1-0.1,0.2-0.3c0.1-0.3,0.2-0.5,0.4-0.5   c0.3,0,0.1-0.2,0.4-0.2c0.3,0,0.4,0,0.5,0.1c0.2,0.1,0.2,0.2,0.4,0.2c0.2,0,0.3-0.2,0.2,0c-0.1,0.2-0.2,0.2-0.4,0.3   c-0.1,0-0.2,0.2,0,0.3c0.1,0.1,0,0.1-0.2,0.1c-0.2,0-0.1-0.1-0.4,0.1c-0.3,0.2-0.3,0.1-0.5,0.2c-0.2,0.1-0.3,0.2-0.4,0.1   c-0.1-0.1-0.3-0.3-0.5-0.1c-0.2,0.3-0.1,0.4-0.3,0.6c-0.2,0.2,0,0.6,0.3,0.5c0.3-0.1,0.6-0.4,0.5-0.2c-0.1,0.3-0.3,0.5,0,0.6   c0.2,0.2,0.4,0.1,0.4,0.3c0,0.1-0.3,0.1-0.1,0.3c0.1,0.1,0.2,0.2,0.3,0.3c0.1,0.1,0.1,0,0.1,0.1c0,0.1-0.1,0.1-0.1,0.2   c0,0.1,0.1,0.3,0.3,0.3c0.3,0,0.3,0.3,0.3,0.4c-0.1,0.1-0.1,0.3,0.1,0.3c0.2,0.1,0.5,0.1,0.4,0.2c0,0.1-0.3,0.2-0.2,0.3   c0.1,0.1,0.7,0,0.7-0.1c0.1-0.1,0-0.1,0.1-0.1c0.1,0,0.2,0,0.2,0.1c0,0.2-0.4,0.3-0.2,0.3c0.2,0,0.3-0.2,0.5-0.2   c0.1,0,0.4,0,0.5,0.1c0.1,0.1,0.3,0.3,0.5,0.3c0.3,0,0.2-0.2,0.5-0.2c0.3,0,0.5,0,0.3-0.2c-0.1-0.2-0.8-0.5,0-0.6   c0.8-0.1,0.6-0.3,1.1-0.1c0.5,0.3,0.5,0.3,0.8,0.4c0.3,0.1,0.6,0,0.8-0.3c0.2-0.3,0.2-0.3,0.4-0.7c0.1-0.3,0-0.3,0.3-0.4   c0.3,0,0.6,0.1,0.7,0.1c0.1,0,0.1-0.3,0.3-0.4c0.1-0.1,0.3-0.3,0.3-0.1c0,0.2,0.2,0.3,0,0.5c-0.2,0.2-0.2,0.2,0,0.4   c0.2,0.1,0.4,0.2,0.4,0.4c0,0.2,0.1,0.3,0,0.4c-0.1,0.1-0.2,0.2,0.1,0.4c0.2,0.2,0.1,0.4,0.3,0.6c0.1,0.2,0.3,0.3,0.2,0.5   c-0.1,0.2-0.3,0.1-0.1,0.5c0.2,0.3,0.1,1.7,0.1,1.9c0,0.2,0.1,1.2,0.1,1.8c-0.1,0.5-0.5,0.9-0.9,1.2c-0.4,0.3-0.6,0.3-0.8,0.3   c-0.2-0.1-0.1,0.1-0.3,0c-0.3-0.1-0.3-0.3-0.5-0.3c-0.1,0-0.4-0.2-0.5,0c-0.1,0.1,0,0.2-0.2,0.3c-0.3,0.1-0.4,0.1-0.5,0.2   c0,0.1-0.3,0.2-0.3,0.5c-0.1,0.3-0.3,0.6-0.6,0.6c-0.3,0-0.7-0.3-0.9-0.2c-0.2,0.1-0.3,0.1-0.7,0.1c-0.4,0-1.2-0.3-1.4-0.2   c-0.2,0-0.3,0-0.6,0.2c-0.3,0.2-0.3,0.5-0.5,0.2c-0.2-0.3-0.3-0.6-0.5-0.6c-0.2,0.1-0.3,0.2-0.5,0.1c-0.2,0-0.5-0.2-0.8-0.1   c-0.3,0-0.5,0.1-0.5-0.1c0-0.2,0-0.6-0.9-0.6c-0.9,0-1.4,0.4-1.8,0.9c-0.4,0.5-0.5,1.3-0.1,1.6c0.4,0.3,0.5,0.5,0.1,1.1   c-0.4,0.6-0.4,0.8-0.8,0.7c-0.4-0.1-0.6-0.2-0.9-0.4c-0.2-0.2-0.4-0.3-0.9-0.4c-0.5-0.1-0.6-0.2-1.1-0.2c-0.5,0-0.7,0.3-1,0   c-0.3-0.3-0.5-0.5-0.6-0.8c-0.1-0.4-0.1-0.5-0.4-0.5s-0.3,0.1-0.7,0c-0.4-0.1-0.3-0.3-0.6-0.3c-0.2,0-0.3,0-0.5,0   c-0.2,0-0.2-0.1-0.5,0c-0.3,0.1-0.6,0.4-1.1,0.2c-0.5-0.2-0.5-0.3-0.7-0.3c-0.2,0-0.5,0.1-0.6,0c0-0.1-0.1-0.6-0.2-0.5   c-0.1,0-0.3,0.3-0.5,0.1c-0.2-0.1-0.6-0.2-0.6-0.4c-0.1-0.2-0.4-0.3,0-0.8c0.4-0.5,0.8-0.7,0.7-1.1c0-0.4,0.1-0.3-0.3-0.6   c-0.3-0.3-0.7-0.6-0.5-0.9c0.2-0.3,0.2-0.2,0.3-0.4c0.1-0.2,0.1-0.3,0.1-0.5c0.1-0.2,0.4-0.2,0.1-0.2c-0.3,0.1-0.5,0.1-0.5,0.3   c-0.1,0.1-0.1,0.4-0.3,0.3c-0.1-0.1-0.2-0.3-0.2-0.4c-0.1-0.1-0.1-0.3-0.2-0.4c0-0.1,0,0.3-0.1,0.3c-0.1,0-0.1-0.3-0.3-0.2   c-0.2,0-0.5,0.1-0.7,0.3c-0.2,0.2-0.2,0.3-0.5,0.3c-0.3,0-0.4,0.3-0.6,0.2c-0.3-0.1-0.4-0.3-0.6-0.2c-0.2,0.1-0.1,0.3-0.3,0.2   c-0.2-0.1-0.5-0.2-0.5-0.2c-0.1,0-0.2,0-0.3,0.1c-0.1,0.1-0.2,0.3-0.4,0.3c-0.3,0-0.5,0.3-0.7,0.2c-0.2-0.1-0.2-0.1-0.6-0.2   c-0.4,0-0.7-0.1-0.9-0.1c-0.2,0-0.6,0.2-0.7,0.2c-0.1,0-0.2,0-0.5,0.2c-0.3,0.2-0.5,0.2-0.8,0.2c-0.3,0-0.9,0-1.1,0.2   c-0.2,0.2-0.5,0.2-0.6,0.3c-0.1,0.1-0.3,0.1-0.4,0.3c-0.1,0.2-0.1,0.2-0.3,0.2c-0.2,0-0.2-0.1-0.3-0.1c-0.1,0.1,0.1,0.2-0.3,0.2   c-0.4,0-0.5-0.1-0.5,0c0,0.1,0.3,0.5-0.3,0.7c-0.6,0.2-0.5,0.4-0.8,0.3c-0.3-0.1-0.5-0.1-0.6-0.1c-0.1,0-0.4,0.1-0.4,0   c0-0.1,0.1-0.2-0.1-0.2c-0.2,0.1-0.4,0-0.5,0c-0.1,0-0.2-0.1-0.4-0.1c-0.2,0-0.6,0.2-0.8,0.1c-0.2-0.1-0.5,0.1-0.6-0.3   c-0.1-0.4-0.1-0.7-0.3-0.6c-0.2,0.1-0.3,0.1-0.4,0.1c-0.1,0-0.2,0.1-0.2,0.1s-0.4,0.9-0.4,1.2c0,0.3-0.3,0.6-0.5,0.8   c-0.2,0.2-0.4,0.3-0.6,0.5c-0.1,0.1-0.8,0.4-0.8,0.4s-0.7,0.2-1,0.5c-0.3,0.3-0.4,0.5-0.5,0.6c-0.1,0.1-0.5,0.2-0.5,0.4   c0,0.2,0.4,0.3-0.1,0.9c-0.5,0.5-0.5,0.5-0.5,0.8c0,0.3-0.1,0.2,0,0.7c0.1,0.5,0.2,0.4,0.2,0.6c0,0.3-0.4,0.7-0.7,1.1   c-0.3,0.4-0.3,0.4-0.5,0.6c-0.3,0.2-0.6,0.3-0.7,0.4c-0.2,0.1-0.1,0.4-0.5,0.6c-0.4,0.2-0.8,0.4-1,0.4s-0.5-0.1-0.7,0.1   c-0.1,0.2-0.6,0.6-0.7,0.8c-0.1,0.3-0.1,0.5-0.3,0.7c-0.2,0.2-0.7,0.4-0.8,0.5c-0.1,0.1-0.4,0.2-0.5,0.4c-0.1,0.2,0,0.3-0.3,0.7   c-0.3,0.3-0.3,0.4-0.3,0.8c0,0.4,0.4,0.5-0.4,0.7c-0.8,0.3-1,0.8-1.3,1.2c-0.3,0.4-0.8,1.3-0.9,1.7c-0.1,0.3-0.3,0-0.5,0.3   c-0.2,0.3-0.3,1-0.1,1.2c0.1,0.2,0.2,0.7,0.3,0.7c0.1,0.1,0.3,0.3,0.4,0.5c0,0.3,0.2,0.5,0,0.7c-0.2,0.2-0.4,0.3-0.3,0.5   c0.1,0.2-0.1,0.3,0.1,0.5c0.2,0.2,0.5,0.8,0.3,1.7c-0.2,0.9-0.5,1.3-0.6,1.6c-0.1,0.3-0.1,0.9-0.2,1.2c-0.1,0.3-0.4,0.7-0.6,0.9   c-0.2,0.2-0.4,0.3-0.4,0.5c0,0.2,0.3,1.2,0.4,1.2c0.1,0,0.3,0.1,0.3,0.2c0,0.1-0.1,0.3-0.1,0.3s-0.3,0.2,0.2,0.2c0.5,0,0.9,0,0.9,0   s0,0.2-0.4,0.2c-0.4,0-0.5,0-0.7,0c-0.2,0-0.3-0.1-0.3,0.3c0,0.3,0.1,0.4,0.2,0.5c0.1,0.1,0.1,0.2,0.1,0.4c0.1,0.2,0.2,0.3,0.3,0.5   c0.2,0.2-0.1,0.4,0.4,0.3c0.4-0.1,0.5-0.4,0.8-0.3c0.3,0.1,0.7,0.1,0.3,0.2c-0.3,0.1-0.5,0-0.5,0.1c0,0.2,0.4,0.2,0.4,0.2   s0.1,0.2-0.1,0.2c-0.1,0.1-0.2,0-0.3,0.1c0,0.1-0.1,0.2,0.1,0.4c0.2,0.1,0.9,0.4,0.9,0.7c0,0.3,0.2,0.5,0.6,0.7   c0.4,0.2,0.6,0.5,0.6,0.6c0,0.2,0.2,0.5,0.3,0.6c0.1,0.1,0.1,0.5,0.2,0.8c0.1,0.4,0.2,0.8,0.5,1c0.3,0.2,0.3,0.6,1.3,1.1   c0.9,0.5,1,1,1.3,1.3c0.4,0.2,0.5,0.3,1,0.7c0.5,0.4,0.5,0.9,1.3,1.1c0.7,0.2,1.6,0.8,1.7,0.8c0.1,0,0.5,0.1,0.7,0.1   c0.2,0,1-0.3,1.5-0.5c0.5-0.2,1-0.3,1.5-0.3c0.7,0,0.9,0,1.5-0.1c0.5-0.1,0.8,0,1.6,0.1c0.8,0.1,1,0.3,1.3,0.3   c0.3,0.1,0.2-0.3,0.8-0.3c0.6-0.1,1.1-0.1,1.6-0.5c0.5-0.3,0.8-0.4,0.9-0.4c0.1,0,0.3,0,0.6,0.1c0.3,0,0.2-0.3,0.6-0.4   c0.5-0.1,1.2-0.6,1.5-0.6c0.3,0,0.1,0.2,1.3,0c1.2-0.2,2.2,0.1,2.4,0.4c0.2,0.3,0.3,0.4,0.5,0.9c0.3,0.4,0.5,0.9,0.9,1   c0.4,0.1,0.5,0.3,1.2,0.1c0.7-0.3,1.4-0.3,1.8-0.4c0.4-0.1,0.3-0.4,0.4-0.3c0.1,0.1,0.1,0,0.2,0.1c0.1,0.1,0.1,0.1,0.3,0.3   c0.2,0.2,0.1,0.3,0.2,0.4c0.2,0.1,0.5,0.3,0.6,0.2c0.1-0.1,0.3-0.1,0.3,0c0,0.1-0.3,0.1-0.1,0.4c0.3,0.3,0.7,0.4,0.5,0.6   c-0.2,0.2-0.3,0.3-0.3,0.9c0,0.6-0.1,0.8-0.3,1c-0.1,0.1-0.6,0.3-0.5,0.6c0.1,0.2,0.6,0.6,0.4,0.7c-0.1,0.1-0.4,0.2-0.3,0.3   c0.1,0.1,0.3,0.1,0.1,0.3c-0.1,0.1-0.3,0.2-0.3,0.3c0,0.1,0.1,0.6-0.1,0.6c-0.2,0.1-0.7,0.5-0.7,0.6c0.1,0.1,0.8,1.6,1.7,2.2   c0.9,0.5,1.3,0.9,1.5,1.2c0.2,0.3,0.6,0.5,0.6,0.7c0,0.2,0.3,0.9,0.4,1c0.1,0.1-0.1,0.3,0.1,0.3c0.2,0.1,0.4,0,0.4,0s0.1,0.2,0,0.3   c-0.1,0.1-0.3,0-0.3,0.2c0,0.1,0.1,0.7,0.5,1.1c0.3,0.4,0.5,0.9,0.5,1.1c0,0.2,0.2,0.3,0,0.5c-0.2,0.2-0.4,0.4-0.5,0.5   c0,0.2-0.1,0.4,0,0.6c0.1,0.2,0.7,0.9,0.8,1c0.1,0.1-0.1,0.5-0.1,0.8c-0.1,0.3-0.2,1.1-0.6,1.4c-0.4,0.3-0.8,0.8-1.1,1.1   c-0.4,0.4-0.6,0.8-0.8,1.3c-0.1,0.5-0.5,1.2-0.7,1.5c-0.1,0.3-0.6,1.2-0.6,1.6s0.4,1,0.6,1.3c0.2,0.4,0.7,0.9,0.8,1.2   c0.1,0.4,0.3,0.8,0.6,1.3c0.3,0.5,0.4,0.9,0.3,1c-0.1,0.1-0.3,0.6-0.3,1c0,0.4,0.2,0.7,0.1,0.8c-0.1,0.1-0.1,0.3-0.2,0.5   c0,0.2-0.2,1,0,1.3c0.2,0.3,0.3,0.4,0.4,0.5c0.1,0.2,0.3,0.2,0.5,0.4c0.1,0.1,0.2,0.1,0.2,0.4c0,0.3,0.1,0.9,0.2,1   c0.1,0.2,0.5,0.3,0.5,0.5c0,0.1,0.1,0.4-0.1,0.5c-0.1,0.1-0.2,0.3-0.3,0.3c-0.2,0.1-0.3,0-0.3,0.1c0,0.1,0.1,0.5,0.3,0.7   c0.1,0.1,0.4,0.1,0.4,0.1c0.1,0.1-0.1,0.2,0.3,0.1c0.4,0,0.6-0.1,0.9-0.2c0.3-0.1,1.4-0.4,1.7-0.5c0.3-0.2,0.5-0.3,1-0.3   c0.5-0.1,0.7-0.3,1.1-0.3s0.8-0.1,1.1-0.3c0.3-0.2,0.8-0.4,1.1-0.4c0.3-0.1,1-0.4,1.5-0.6c1-0.5,2-1.1,2.9-1.9   c1.3-1.1,2.3-2.1,2.7-2.4c0.4-0.3,1.4-1.1,1.8-1.8c0.5-0.7,0.8-0.8,0.8-1.1c0-0.3-0.2-0.5,0.2-0.7c0.4-0.2,2.7-1.5,3-2.1   c0.4-0.6,0.8-1.3,0.9-1.8c0.1-0.5,0.2-1.2,0.2-1.3c0-0.1-0.2-0.4,0.1-0.8c0.3-0.3,2.2-2,2.7-2.7c0.5-0.7,2.3-1.7,2.7-2.2   c0.5-0.6,1.7-2,1.8-3c0.2-1,0.4-2,0.5-2.5c0.1-0.5,0.3-1.2,0.4-1.5c0.1-0.3,0.1-0.4-0.1-0.5c-0.2-0.1-0.5-0.2-0.4-0.8   c0.1-0.6-0.1-0.9,0-1.1c0.1-0.3,0.1-0.8,0.2-1c0.1-0.2,0.3-0.4,0.2-0.6c-0.1-0.1-0.2-0.2-0.3-0.3c-0.1-0.1-0.4-0.7,0.1-1.3   c0.4-0.6,0.5-1,0.7-1.2c0.2-0.3,0.5-1.4,0.7-2.1c0.2-0.7,0.2-0.7,0.4-1c0.2-0.3,0.3-0.7,0.6-0.9c0.3-0.2,0.4-0.4,0.8-1.1   c0.3-0.7,1.1-2.4,1.7-3.4c0.6-1,2-2.7,2.6-4.4c0.7-1.7,1.1-2.9,1.5-4.5c0.5-1.6,0.6-3.2,0.9-3.9c0.2-0.7,0.1-3,0.1-3.4   c0-0.4,0-0.9,0-1.1c0-0.1-0.3-0.1-0.4,0.1c-0.1,0.2-0.1,0.6-0.3,0.8c-0.2,0.2-0.4,0.3-0.6,0.5c-0.2,0.3-0.3,0.2-0.4,0.4   c-0.1,0.2-0.2,0.3-0.4,0.5c-0.2,0.2-0.3,0.3-0.5,0.3c-0.1,0-0.5,0.8-0.7,0.9c-0.3,0.1-0.6,0-0.7,0.2c-0.1,0.2-0.6,1.1-1.1,1.1   c-0.4-0.1-0.7-0.6-0.9-0.7c-0.1-0.1-0.2-0.3-0.4-0.1c-0.1,0.1,0.1,0-0.1,0.1c-0.2,0.1-0.4,0.1-0.4,0.1s-0.3,0,0-0.2   c0.2-0.2,0.4-0.4,0.5-0.6c0.1-0.2,0.2-0.5-0.1-0.8c-0.2-0.3-0.3-0.2-0.4-0.3c-0.1-0.1-0.1,0-0.2-0.1c-0.1-0.1-0.4-0.5-0.7-0.7   c-0.3-0.2-0.3-0.6-0.6-0.7c-0.3-0.1-0.3-0.1-0.5-0.2c-0.2-0.1-0.3,0-0.4,0c-0.1,0-0.2-0.3-0.4-0.2c-0.1,0.1-0.4-0.2-0.4-0.2   s-0.5-1.2-0.7-1.7c-0.2-0.5-0.4-0.7-0.6-1c-0.2-0.3-0.3-0.3-0.6-0.6c-0.3-0.2-0.7-0.4-0.8-0.6c-0.1-0.1-0.4-1.9-0.6-2.3   c-0.2-0.4-0.3-0.6-0.4-0.9c-0.1-0.2-0.3-0.4-0.3-0.6c0-0.2,0-0.3-0.3-0.4c-0.3-0.1-0.3-0.4-0.6-0.4c-0.3,0-0.5,0.1-0.7-0.3   c-0.2-0.5-0.2-1.1-0.5-1.4c-0.3-0.4-0.9-1-1.1-1.2c-0.2-0.2-1.2-1.5-1.3-1.8c-0.1-0.3-0.3-0.7-0.4-0.8c-0.1-0.1-0.3-0.3-0.3-0.4   c0-0.1-0.1-0.2-0.2-0.3c-0.1-0.1-1.1-0.9-1.1-1.1c0-0.2-0.1-0.5-0.2-0.5c-0.1,0-0.3-0.3-0.3-0.4c0-0.2-0.1-0.5,0.1-0.3   c0.3,0.3,0.4,0.5,0.5,0.6c0.2,0.2,0.3,0.4,0.4,0.5c0,0.1,0,0.3,0.3,0.5c0.3,0.2,0.7,0.5,0.9,0.5c0.2,0.1,0.4,0,0.2-0.3   c-0.1-0.4-0.2-0.7-0.1-0.9c0.1-0.2-0.1-1.1,0.1-1c0.2,0.1,0.2,0.1,0.2,0.4c0,0.3,0,0.7,0.1,1c0,0.2,0,0.3,0.2,0.4   c0.2,0,0.4-0.3,0.7,0.1c0.2,0.4,1.5,1.7,1.8,2.2c0.4,0.4,0.8,0.8,0.9,1c0.1,0.2,0,0.3,0.1,0.5c0.1,0.2,0.3,0.6,0.5,0.6   c0.2,0,0.9,0.2,1.1,0.5c0.1,0.3,0.5,0.9,0.6,1.3c0.1,0.4,0.3,0.8,0.3,1.1c0.1,0.3,0.3,0.7,0.5,0.9c0.2,0.3,0.6,0.7,0.8,0.7   c0.2,0,0.4,0.1,0.7,0.3c0.3,0.2,1,1.4,1.1,1.6c0.1,0.2,0.3,0.4,0.5,0.6c0.2,0.2,0.2,0.1,0.5,0.3c0.2,0.2,0.3,0.3,0.4,0.5   c0.1,0.3,0.4,0.9,0.4,1.2c0,0.3-0.1,0.1,0,0.6c0.1,0.5,0.3,0.5,0.3,0.6c0,0.2,0.1,0.5,0.3,0.7c0.1,0.2,0.5,0.9,0.4,1.1   c-0.1,0.2,0.1,0.6,0.1,0.7c0,0.1,0.2,0.3,0.4,0.3c0.2,0,0.5,0,0.6-0.5c0.1-0.6,0.3-0.4,0.5-0.7c0.2-0.3,0.1-0.5,0.4-0.6   c0.2-0.1,0.8-0.6,0.9-0.7c0-0.2,0.1-0.6,0.3-0.7c0.2-0.1,0.7-0.3,0.8-0.6c0.1-0.2,0-0.5,0.3-0.9c0.3-0.3,1.1-1.5,1.3-1.9   c0.2-0.3,0.3-1,0.3-1.5c0-0.5,0-0.9,0.3-1.2c0.3-0.3,0.8-1.1,1-1.2c0.2-0.1,0.3-0.1,0.3-0.4c-0.1-0.4-0.2-0.6,0-0.9   c0.3-0.3,0.3-1,0.3-1.2c0-0.2-0.1-0.5,0.1-0.9c0.2-0.3,0.3-0.7,0.3-0.8c0-0.1-0.4-1.1-0.4-1.4s0.1-0.5,0.1-0.5   c0.1,0,0.1-0.3,0.1-0.4c0-0.1,0.1-1,0.1-1.5c0-0.5-0.1-1.2-0.3-1.2c-0.2,0-0.3,0-0.5-0.3c-0.2-0.3-0.2-0.4-0.4-0.4   c-0.2,0-0.3,0-0.6,0.1c-0.2,0-0.3,0.3-0.5,0c-0.2-0.3-0.6-0.7-0.6-0.9c0-0.1-0.4-0.9-0.5-1.1c-0.1-0.2-0.1-0.8-0.2-0.6   c-0.1,0.3,0,0.9,0,1.2c0,0.3-0.1,0.9-0.1,1.1c0,0.3,0.1,0.7,0,1c0,0.2-0.1,0.4-0.3,0.6c-0.2,0.2-0.5,0.3-0.6,0.4   c-0.1,0.1-0.1,0.4-0.3,0.4c-0.2,0-0.3,0.1-0.4,0c-0.1,0-0.3,0.1-0.4-0.1c-0.1-0.1-0.2-0.3-0.2-0.5c0-0.2,0-0.8-0.1-1   c-0.1-0.2-0.1-0.2-0.2-0.5c-0.1-0.2-0.3-0.5-0.3-0.4c0,0.1-0.1,0-0.1,0.4c0.1,0.4,0.2,0.7,0.2,0.8c0,0.1,0.1,0.4,0.1,0.5   c0,0.1,0,0.2-0.1,0.2c-0.1,0-0.4-0.6-0.7-0.9c-0.3-0.3-0.3-0.2-0.3-0.5s0-0.3-0.1-0.5c-0.1-0.1-0.2-0.3-0.3-0.3   c-0.1,0-0.5,0-0.5-0.2c-0.1-0.2-0.2-0.3-0.3-0.4c-0.1-0.1-0.5-0.2-0.5-0.2s-0.3-0.7-0.6-1c-0.3-0.3-0.3-0.5-0.5-0.5   c-0.1,0-0.3,0.1-0.3,0c0-0.1,0.1-0.6,0.1-0.6s-0.4-0.3-0.3-0.4c0.1-0.1,0.4-0.1,0.5-0.2c0.1-0.1,0.1-0.3,0.1-0.3s-0.3-0.6,0-0.6   c0.2,0.1,0.2,0.3,0.3,0.3c0.1,0,0.1,0,0.2-0.1c0.1-0.1,0.1-0.5,0.3-0.3c0.2,0.3,0,0.3,0.5,0.7c0.5,0.4,0.8,0.8,1.1,1.2   c0.2,0.3,0.2,0.5,0.4,0.5c0.2,0,0.4-0.4,0.6-0.2c0.2,0.2,0.2,0.3,0.4,0.4c0.2,0.1,0.3,0.1,0.4,0.1c0.1,0,0.3-0.1,0.4,0.1   c0.1,0.2,0.3,0.3,0.3,0.2c0.1-0.1-0.1-0.3,0.1-0.3c0.2,0,0.3,0.1,0.4,0c0.2,0,0.2-1.3,0.5-1.4c0.2-0.1,0.5-0.1,0.6,0   c0.1,0.1,0.2,0.5,0.5,0.9c0.3,0.4,0.3,0.5,0.5,0.4c0.1-0.1,0.1-0.1,0.4-0.2c0.3-0.1,0.3,0.1,0.5-0.3c0.2-0.3,0.5-0.5,0.5-0.5   s-0.1,0.2,0.3,0c0.4-0.2,0.5-0.4,0.5-0.6c0.1-0.2,0-0.3,0.1-0.4c0.1-0.1,0.1-0.4,0.3-0.5c0.1-0.1,0.2,0,0.3-0.2   c0.1-0.1,0.2-0.2,0.3-0.4c0.1-0.2,0.2-0.2,0.2-0.3c0-0.1-0.1-0.7,0.2-0.5c0.2,0.1,0.2,0.7,0.4,0.7c0.2,0.1,0.3,0.3,0.4,0.5   c0.1,0.2,0.1,0.4,0.3,0.3c0.1,0,0.1-0.3,0.1-0.3s0.4-0.1,0.4,0.1c0.1,0.2-0.1,0.2,0.1,0.4c0.3,0.2,0.5-0.6,0.5-0.6s0.3,0.2,0.2,0.9   c-0.1,0.7,0,0.9,0.2,1c0.2,0.2,0.4,0.7,0.5,0.7c0.1,0,0.2-0.1,0.2-0.3c0-0.2,0.1-0.9,0-1.1s-0.5-1.6-0.3-1.3c0.2,0.3,0.6,1.2,1,2.6   c0.4,1.3,1.2,3.2,1.3,3.9c0.1,0.7,0.6,1.5,0.9,2.5c0.3,1,0.5,1.5,0.6,1.9c0.1,0.4,0.5,0.7,0.5,1.3c0,0.6,0.1,2.1,0.3,2.2   C423.1,72.6,423,70.4,422.8,68.5" fill="#542D00"  /><path d="M365.4,55.5c0,0,0-0.5-0.1-0.5c-0.2,0-0.2-0.4-0.2-0.4s-0.1-0.3-0.3-0.1c-0.2,0.1-0.3,0.4-0.4,0.4   c-0.2,0-0.6-0.1-0.5,0.1c0,0.2,0.2,0.3,0.3,0.4c0,0.1,0,0.3,0.1,0.4c0,0.1,0.3,0.2,0.3,0.4c0,0.1-0.1,0.3-0.1,0.4   c0,0.1,0.2,0.5,0.2,0.5s0.1,0.3,0.3,0.3c0.2,0-0.2-0.4,0.2-0.4c0.4,0,0.5,0,0.5-0.2C365.5,56.6,365.7,56,365.4,55.5 M371.7,58.9   c0,0-0.1-0.5-0.1-0.6c0.1-0.1,0-0.3,0.1-0.4c0.1-0.1,0.3-0.4,0.1-0.3c-0.2,0.1-0.3,0.3-0.4,0.3c-0.1,0-0.3-0.1-0.4,0.1   c-0.1,0.1-0.3,0.1-0.5,0.1c-0.2,0-0.3,0.2-0.5,0.2c-0.2,0-0.4-0.4-0.4-0.3c-0.1,0.1-0.1,0.3-0.3,0.3c-0.1,0-0.3-0.2-0.3,0.1   c0,0.2,0,0.3,0.1,0.4c0.1,0.1,0.7,0.1,0.7,0.2c0.1,0.1,0.2,0.2,0.3,0.2s0.1,0.2,0.4,0.2c0.3,0,0.4-0.1,0.5,0.1   c0.1,0.1,0.6,0.4,0.7,0.3c0.1-0.1,0-0.3,0.1-0.4C371.9,59.1,371.7,58.9,371.7,58.9 M364.6,54.1c0,0-0.3-0.4-0.4-0.6   c-0.1-0.2-0.3-0.4-0.2-0.7c0.1-0.3,0.1-0.5,0.3-0.5c0.1,0,0.4-0.1,0.4,0.2c0.1,0.3,0.2,0.4,0.1,0.6c-0.1,0.2-0.1,0.3-0.1,0.4   C364.7,53.7,364.8,54,364.6,54.1 M379.8,57.4c0,0-0.4-0.3-0.5-0.2c-0.1,0.1,0,0.3,0.1,0.5c0.1,0.1,0.3,0.3,0.4,0.5   c0.1,0.2,0.3,0.3,0.1,0.3c-0.2,0-0.3-0.3-0.4-0.3c-0.1,0.1,0,0.2-0.2,0.2c-0.2,0-0.4-0.3-0.4-0.3s-0.3-0.2-0.3-0.1   c0,0.1-0.1,0.5-0.2,0.2c-0.1-0.2,0.2-0.4-0.1-0.7c-0.3-0.3-0.5-0.2-0.5-0.4c0-0.2-0.3-0.6,0-0.6c0.3-0.1,0.5-0.2,0.6-0.1   c0.2,0.1,0.4,0.1,0.6,0.2c0.2,0.1,0.4,0.2,0.5,0.3C379.6,57,380.1,57.2,379.8,57.4 M383.5,59.6c0-0.1-0.3,0.1-0.5,0.1   c-0.2,0-0.7,0-0.8,0c-0.2,0-0.4,0.1-0.5,0.1c-0.1,0-0.6-0.4-0.8-0.2c-0.1,0.2-0.1,0.2,0.3,0.3c0.4,0.1,0.4-0.1,0.7,0.1   c0.3,0.2,0.3,0.3,0.5,0.2c0.1-0.1,0.3-0.3,0.5-0.3C383,59.9,383.5,60.1,383.5,59.6 M390.5,57c-0.1-0.3-0.3,0.5-0.5,0.6   c-0.2,0.1-0.4,0-0.5,0.1c-0.1,0.1-0.1,0.3-0.2,0.3c-0.1,0.1-0.5,0.4-0.2,0.5c0.3,0.2,0.6,0.1,0.8-0.1c0.2-0.2,0.3-0.4,0.4-0.5   c0.1,0,0.1-0.3,0.1-0.3l-0.2-0.1C390.3,57.7,390.6,57.3,390.5,57 M359,56.8c0,0-0.4,0.1-0.4-0.1c0-0.1,0-0.3-0.3-0.2   c-0.3,0.1-0.8,0.4-0.5,0.5c0.3,0.1,0.3,0.1,0.5,0.1C358.6,57.3,359.2,57.2,359,56.8 M369.5,31.4c0,0-0.4,0.1-0.5,0.1   c-0.1,0-0.3,0.2-0.3,0.3c0.1,0.1,0.1,0.4,0.3,0.2c0.1-0.2,0.1-0.2,0.3-0.3C369.5,31.7,369.7,31.7,369.5,31.4 M367.1,33.2   c0,0-0.1-0.2-0.1-0.3c0-0.1,0.1-0.2,0-0.2c-0.1,0-0.3,0-0.3,0.2c0,0.2-0.1,0.3,0,0.4c0.1,0.1,0,0,0.1,0.3c0.1,0.2,0.2,0.3,0.3,0.3   C367.1,33.8,367.3,33.6,367.1,33.2 M363.5,36c0-0.1,0-0.2,0-0.3c-0.1-0.1,0-0.4-0.2-0.3c-0.2,0-0.2,0-0.2,0.2c0,0.2,0,0.2-0.1,0.2   c-0.1,0-0.2-0.1-0.3-0.1c-0.1,0.1-0.1,0.1-0.2,0.2c0,0-0.1,0,0,0.1c0.1,0.1,0.2,0.3,0.2,0.4c0.1,0.1,0.1,0.1,0.3,0.1   c0.2,0,0.2,0,0.2,0.1c0,0.1,0.1,0.1-0.1,0.2c-0.1,0.1-0.3,0.1-0.3,0.1c0,0-0.2,0-0.2,0.1c0,0.1,0,0.2,0.1,0.2   c0.1,0,0.4,0.1,0.5-0.1c0.2-0.1,0.3,0,0.2-0.3c-0.1-0.3-0.1-0.4-0.1-0.4C363.4,36.3,363.5,36.2,363.5,36 M361.9,36.2   c-0.1,0-0.2-0.2-0.3,0c-0.1,0.1,0,0.4,0.1,0.4c0.1,0.1,0.1,0.1,0.3,0.1c0.2,0,0.3,0.1,0.3-0.1C362.2,36.4,362.2,36.3,361.9,36.2    M360.4,2.4c0,0-0.7,0-1-0.1c-0.3-0.2-0.6-0.3-0.8-0.3c-0.2,0-0.7-0.1-0.7-0.1s-1.1-0.6-1.1-0.3c0,0.3,0.3,0.4,0.6,0.4   c0.3,0,1,0.3,1.6,0.5c0.5,0.3,0.8,0.4,1.2,0.3C360.6,2.7,360.7,2.6,360.4,2.4 M364.3,6.2c0,0-0.4-0.5-0.7-0.5   c-0.3,0-0.9-0.1-0.9,0.1c0,0.2,0.5,0.3,0.6,0.3C363.5,6,364.2,6.4,364.3,6.2 M363.7,6.5c0,0-0.6-0.2-0.8-0.3c-0.3,0-1-0.1-1.2-0.1   c-0.3,0-1.3-0.3-0.8,0.2c0.4,0.4,0.8,0.3,1,0.3c0.3,0,0.5-0.1,0.8,0C362.9,6.8,364.1,6.8,363.7,6.5 M366.7,10.5   c-0.4-0.1-0.8-0.1-0.7,0c0,0.2,0.7,0.4,0.5,0.7c-0.1,0.3-0.2,0.5,0,0.7c0.2,0.1,0.5,0.3,0.6,0.6c0.1,0.2,0.2,0.4,0.5,0.7   c0.3,0.3,0.7,0.5,0.9,0.7c0.2,0.2,0.3,0.8,0.7,0.9c0.3,0.1,0.5,0.3,0.6,0.5c0.1,0.2,0.5,0.3,0.7,0.3c0.2,0,0.6,0.1,0.9,0.1   c0.3,0,1.3-0.3,0.9-0.3c-0.3,0-1.8-0.5-2.5-1c-0.8-0.5-1.1-1.1-1.6-1.5c-0.4-0.3-0.6-0.6-0.8-1.1C367.3,11.4,367.7,10.6,366.7,10.5    M355.3,12.6c0,0,0.2-0.2,0.5-0.2c0.3,0,0.6,0.3,0.8,0.1c0.2-0.2,0.4-0.5,0-0.6c-0.4-0.1-0.5-0.1-0.7-0.1c-0.2,0-0.4,0-0.6,0   c-0.2,0-0.4,0.3-0.4,0.4c0,0.1-0.2,0.2-0.2,0.2s-0.3-0.1-0.3,0.1c0,0.2,0.4,0.1,0,0.2c-0.4,0.1-0.5,0-0.6,0c-0.1,0-0.5-0.2-0.3,0   c0.2,0.3,0.6,0.4,0.8,0.6c0.2,0.2,0.4,0.3,0.6,0.3c0.2,0,0-0.3,0.3-0.3c0.2,0,0.4,0.2,0.3,0.3c-0.1,0.1-0.4,0.2-0.3,0.3   c0.2,0.1,0.4,0.1,0.6,0.2c0.2,0.1,0.3,0.2,0.5,0.3c0.2,0.2,0.5,0.2,0.3-0.1c-0.2-0.3-0.6-0.9-0.4-1.1c0.1-0.2,0.4,0,0.7,0.1   c0.3,0.2,0.3,0.5,0.6,0.4c0.2,0,0.3-0.1,0.5-0.1c0.2,0,0.3-0.3,0-0.3c-0.3,0-0.6-0.1-0.9-0.3c-0.3-0.2-0.8-0.3-1-0.3   C355.5,12.9,354.9,12.8,355.3,12.6 M372.6,17.9c0,0-0.1-0.2-0.3-0.3c-0.2-0.1-0.6-0.1-0.5,0.1c0.2,0.2,0.2,0.3,0.4,0.3   C372.4,18.1,372.6,18.1,372.6,17.9 M408.4,115.9l0.4-0.2c0.4-0.2,0.5-1.5,0.6-1.9c0.1-0.4,0.3-2.3-0.1-1.7   c-0.4,0.6-0.5,1.1-0.7,1.5c-0.1,0.3-0.3,0.6-0.6,0.7c-0.2,0.1-0.1,0.4-0.4,0.7c-0.2,0.3-0.5,0.9-0.7,1.1c-0.2,0.2,0,0.6-0.7,1   c-0.7,0.4-1.4,0.9-1.6,1.2c-0.2,0.3-0.9,1.4-1.1,1.8c-0.2,0.4-0.4,1.2-0.5,1.7c-0.1,0.4-0.3,1-0.4,1.2c-0.1,0.2-1.2,1.3-1.3,1.6   c-0.2,0.3-0.6,0.9-0.6,1.2c0,0.2-0.1,0.5-0.2,0.8c-0.1,0.3-0.6,0.9-0.2,1c0.4,0.1,0.7-0.4,1.3-0.7c0.6-0.4,0.9-0.8,1.3-1.2   c0.4-0.4,2.5-3.7,2.9-4.4c0.4-0.7,1.5-2.8,1.8-3.3C407.9,117.2,408.4,116.8,408.4,115.9 M352.6,36.6c0,0-0.2-0.3-0.5-0.3h-0.6   c-0.2,0-0.5-0.2-0.4-0.2c0.1,0,0.4-0.2,0.4-0.2s-0.3-0.1,0-0.3c0.3-0.2,0.6-0.1,0.6-0.3c0-0.2,0-0.6,0.1-0.7c0.1-0.1,0.2-0.4,0-0.4   c-0.2,0-0.3,0-0.6-0.1c-0.3,0-0.3-0.1-0.5,0c-0.2,0.1-0.5,0.4-0.6,0.2c-0.1-0.2,0.1-0.4,0.2-0.5c0.1-0.1,0.2-0.2,0.4-0.4   c0.2-0.2,0.3-0.3,0.1-0.3c-0.1,0.1-0.7,0.1-0.8,0.1c-0.1,0-0.4-0.2-0.5,0c0,0.2,0,0.3-0.1,0.3c0,0.1-0.1,0.1-0.1,0.2   c0,0.1,0.2,0,0,0.1c-0.2,0.1-0.2-0.1-0.3,0.2c-0.1,0.3-0.1,0.5-0.1,0.5s-0.2,0.1-0.3-0.2c0-0.2-0.1-0.4-0.2-0.3   c0,0.2-0.3,0.2-0.1,0.3c0.2,0.1,0.2,0.2,0.3,0.3c0.2,0.1,0.3-0.1,0.4,0.1c0,0.2,0.1,0.2,0,0.4c-0.1,0.2-0.3,0.2-0.3,0.3   c0,0.1-0.2,0.2-0.1,0.2c0.1,0.1,0.2,0.1,0.3-0.1c0.1-0.1,0.3-0.2,0.3-0.2s0.2-0.3,0.2-0.1c0,0.1,0,0.3-0.1,0.4   c-0.1,0.1-0.1,0.1-0.2,0.2c-0.1,0.1,0,0.1-0.2,0.1c-0.2,0.1-0.2,0.1-0.3,0.1c-0.1,0.1-0.2,0.2,0,0.3c0.2,0,0.4-0.2,0.4-0.2   c0.1,0,0.2-0.1,0.2,0c0,0.1-0.2,0.2-0.2,0.3c0,0.1,0.3,0.3,0.3,0.1c0-0.2,0-0.3,0.1-0.5c0.1-0.1,0.3-0.3,0.4-0.2   c0,0.1-0.1,0.1-0.1,0.3c0,0.1,0.3,0.4,0.1,0.5c-0.2,0.2-0.3,0.5-0.2,0.6c0.1,0.1,0.2,0.2,0.4,0c0.2-0.1,0.2-0.2,0.4-0.2   c0.2,0,0.5-0.2,0.5-0.1c0,0.1-0.2,0.1-0.2,0.3c0,0.2-0.3,0.3,0,0.5c0.2,0.2,0.4,0,0.5,0.1c0,0.1,0,0.1,0,0.3   c-0.1,0.2-0.1,0.2,0.1,0.5c0.2,0.3,0.1,0.4-0.1,0.4c-0.2,0-0.4-0.1-0.6-0.1c-0.1,0,0,0.1-0.3,0c-0.3,0-0.5-0.2-0.5-0.1   c0,0.1,0.1,0.2,0.1,0.3c0,0.1-0.2,0.2,0,0.3c0.2,0.1,0.1-0.3,0.2,0.1c0.1,0.4,0.2,0.4,0.1,0.6c-0.1,0.2-0.4,0.3-0.5,0.3   c-0.1,0-0.2,0.1-0.2,0.3c0.1,0.1,0.3-0.1,0.7,0.1c0.4,0.1,0.6,0.4,0.6,0.4c0.1,0.1,0.4,0,0.6-0.2c0.2-0.2,0.4-0.2,0.2,0.1   c-0.2,0.3-0.4,0.5-0.6,0.5s-0.6-0.1-0.7,0c-0.1,0.1-0.1,0.1-0.3,0.3c-0.2,0.2-0.3,0.2-0.3,0.4c-0.1,0.1,0,0.2-0.2,0.3   c-0.2,0.1-0.5,0.2-0.5,0.3c0,0.1,0.2,0.2,0.5,0.1c0.3-0.2,0.6-0.5,0.7-0.4c0.2,0,0.1,0.5,0.5,0.2c0.4-0.3,0.3-0.8,0.6-0.7   c0.3,0.1,0,0.3,0.5,0.2c0.5-0.1,0.6-0.2,0.8-0.2c0.1,0-0.1-0.2,0.3,0c0.4,0.1,0.5,0.1,0.7,0.1c0.2,0-0.1,0.1,0.4,0   c0.6-0.1,0.6,0,0.9-0.3c0.3-0.3,0.5-0.5,0.2-0.4c-0.4,0.1-0.8,0.2-0.8,0.1c0-0.1,0-0.2,0.2-0.4c0.2-0.1,0.6-0.3,0.7-0.6   c0-0.3,0.2-0.4-0.1-0.7c-0.3-0.3-0.2-0.3-0.5-0.3c-0.3,0-0.5-0.1-0.5,0c0,0.1,0.1,0.2-0.1,0.2c-0.3,0-0.5-0.1-0.4-0.2   c0.1-0.1,0.2-0.1,0.2-0.3c0-0.2,0.1-0.2-0.1-0.3c-0.2-0.1-0.2,0-0.4-0.1c-0.2-0.1-0.5-0.1-0.3-0.2c0.2-0.1,0.4,0.1,0.3-0.2   c0-0.3-0.3-0.7-0.5-0.7c-0.2,0-0.2,0.3-0.5-0.2c-0.3-0.5-0.3-0.8-0.3-0.8S352.6,36.6,352.6,36.6z" fill="#542D00"  /><path d="M348.9,38.6c0,0,0.1-0.2,0.2-0.2c0.1,0,0-0.2,0.2-0.3c0.2-0.1,0.3-0.2,0.3-0.3c0-0.1-0.2,0-0.2-0.1   c-0.1-0.1-0.1-0.4-0.2-0.5c-0.1-0.1,0-0.2-0.2-0.2c-0.3,0-0.3,0.1-0.5,0.1c-0.2,0-0.1-0.2-0.2-0.2c-0.1,0-0.3,0-0.4,0.1   c0,0.1-0.2,0.1-0.3,0.1c-0.1,0-0.3,0.1-0.3,0.2c0,0.1-0.2,0.2-0.1,0.2c0.1,0,0.3-0.1,0.3,0c0,0.1,0.1,0.3,0,0.4   c-0.1,0-0.2-0.1-0.3,0c0,0.1,0,0.2-0.1,0.2c-0.1,0-0.1,0-0.3,0c-0.2-0.1-0.5-0.3-0.6-0.2c-0.1,0.2-0.4,0.4-0.2,0.4   c0.1,0.1,0.3-0.1,0.3,0.1c0,0.2,0.1,0.3-0.1,0.3c-0.1,0.1-0.4,0.1-0.2,0.2c0.1,0.1,0.3,0.1,0.4,0.2c0.1,0.1,0.2,0,0.4,0.1   c0.2,0.1,0.3,0,0.2,0.1c-0.1,0.1-0.1,0.1-0.3,0.2c-0.2,0.1-0.2,0.2-0.3,0.3c0,0.1,0,0-0.1,0.2c-0.2,0.2-0.2,0.4-0.3,0.5   c-0.1,0.1-0.4,0.1-0.2,0.2c0.2,0.2,0.4,0.1,0.5,0.2c0.1,0.1,0,0.3,0.3,0.3c0.3,0,0.5-0.1,0.7-0.3c0.2-0.2,0.1-0.2,0.6-0.3   c0.5-0.1,0.7-0.3,0.8-0.3c0.1,0,0.2,0.3,0.4,0.1c0.1-0.3,0.1-0.4,0.2-0.6c0.1-0.2,0.1-0.3,0-0.6C349.1,39.1,348.9,38.6,348.9,38.6    M343.2,26.7c0.2-0.1,0.8-0.2,0.9-0.4c0.2-0.3,0.4-0.3,0.5-0.6c0-0.2,0.2-0.5-0.1-0.6c-0.3-0.1-0.3-0.3-0.4-0.4   c-0.1-0.1-0.1-0.2-0.2-0.3c-0.2-0.1-0.4-0.1-0.4,0c0,0.1,0,0.1-0.1,0.2c-0.1,0.1-0.2,0.1-0.3,0.1c-0.1,0-0.1,0-0.2,0   c-0.1,0-0.2-0.1-0.3-0.1c-0.1,0-0.1,0.1-0.1,0.2c0,0.1,0,0.1-0.1,0.1c-0.1-0.1-0.1-0.2-0.2-0.2c-0.1,0-0.2,0-0.3,0   c-0.1,0.1-0.2,0.2-0.2,0.2c-0.1,0-0.1-0.2-0.1-0.2s-0.2-0.2-0.2-0.1c-0.1,0.1-0.1,0.2-0.2,0.3c-0.1,0.1-0.1,0-0.2,0.1   c-0.1,0-0.2,0.1-0.2,0.2c-0.1,0-0.3,0.1-0.1-0.2c0.1-0.3,0.3-0.2,0.1-0.4c-0.1-0.2-0.5-0.8-0.5-0.7c-0.1,0.1,0,0.3-0.2,0.4   c-0.1,0-0.3-0.1-0.3-0.1c-0.1,0-0.2,0.2-0.3,0.3c-0.1,0.1-0.4,0-0.3,0.1c0.1,0.1,0.5,0.3,0.6,0.2c0.1-0.1,0.5,0,0.5,0.1   c0.1,0.1,0.2,0.1,0,0.3c-0.1,0.1-0.2,0.2-0.3,0.2H339c0,0,0,0.2,0.2,0.2c0.1,0,0.3,0,0.5,0.2c0.2,0.1,0.2,0.2,0.2,0.3   c0,0.1,0,0.1-0.1,0.2c-0.1,0.1-0.3,0.1-0.4,0.1c-0.1,0-0.4,0.1-0.3,0.2c0.2,0.1,0.5-0.1,0.8,0c0.3,0.2,0.3,0.3,0.7,0.5   c0.4,0.2,0.8,0.4,1.1,0.1c0.3-0.3,0.4-0.4,0.6-0.3c0.2,0,0.3,0,0.4,0C342.9,26.9,343.2,26.7,343.2,26.7 M342.4,9.6   c0,0-0.6-0.2-0.8-0.1c-0.2,0.1-0.3,0.4-0.5,0.1c-0.2-0.3-0.2-0.7-0.6-0.5c-0.4,0.2-0.6,0.2-0.8,0.2c-0.2,0-0.4-0.1-0.7,0   c-0.3,0.1-0.2,0.1-0.7,0.1c-0.5,0-0.5-0.1-0.7,0c-0.2,0.2-0.5,0.2-0.7,0.4c-0.2,0.2-0.9,0.2-1.2,0.1c-0.3-0.1-1.3-0.3-1.5-0.1   c-0.2,0.2-0.4,0.1-0.4,0.3c0,0.2-0.3,0.4-0.8,0.4c-0.6,0-0.4,0.2-0.6,0.4c-0.1,0.2-0.2,0.4,0.1,0.6c0.3,0.2,0.5,0.3,0.8,0.6   c0.3,0.3,0.5,0.5,0.2,0.7c-0.3,0.2-0.6,0.2-0.6,0.4c0,0.3-0.1,0.5-0.6,0.9c-0.5,0.3-0.6,0.4-0.8,0.6c-0.3,0.2-0.2,0.3-0.4,0.4   c-0.2,0.2-1.2,0.2-1.1,0.4c0.1,0.3-0.2,0.4,0.3,0.3c0.5-0.1,0.9-0.4,0.9-0.2c-0.1,0.2-0.2,0.1-0.2,0.4c0,0.3,0.1,0.6-0.1,0.8   c-0.2,0.1-0.4,0.4-0.6,0.5c-0.2,0-0.3-0.4-0.4-0.6c-0.1-0.2-0.3-0.4-0.3-0.2c-0.1,0.2-0.4,0-0.1,0.3c0.3,0.3,0.4,0.3,0.3,0.7   c-0.1,0.4-0.1,0.5-0.3,0.6c-0.2,0.1-0.5,0-0.7,0.3c-0.2,0.3-0.2,0.5-0.4,0.6c-0.2,0.1-0.2,0.3-0.4,0.1c-0.2-0.1,0.3,0.1-0.2-0.1   c-0.4-0.3-0.3-0.6-0.7-0.3c-0.4,0.2-0.3,0.3-0.6,0.5c-0.3,0.2-0.3,0.3-0.3,0.4c0,0.2,0,0.3-0.3,0.4c-0.3,0.2-0.3,0.2-0.5,0.4   c-0.1,0.2,0,0.1-0.2,0.4c-0.2,0.4-0.5,0.6-0.5,0.7c0,0.2,0.2,0.3,0.4,0.1c0.3-0.1,0.3-0.6,0.3-0.1c-0.1,0.4,0.2,0.6-0.3,0.7   c-0.4,0.1-0.5,0.2-0.7,0.2c-0.2,0-0.1-0.1-0.2,0c-0.2,0.1-0.4,0.9-0.5,1.2c-0.1,0.3-0.2,0.4-0.2,0.7c0,0.3,0.2,0.3,0.1,0.6   c-0.1,0.3-0.4,0.7-0.2,0.8c0.2,0.1,0.3,0.2,0.6,0.2c0.3,0,0.4-0.1,0.5,0c0.1,0.1,0.1,0.2,0.1,0.3c0,0.1-0.3,0.2-0.3,0.4   c0,0.2-0.1,0.3,0,0.5c0.1,0.2,0.3,0.7,0.7,0.4c0.4-0.4,0.5-0.1,0.8-0.6c0.3-0.5,0.6-0.5,0.8-0.7c0.2-0.2,0.5-0.4,0.6-0.5   c0.1-0.2,0.1-0.3,0.3-0.4c0.1-0.1,0.4-0.1,0.4-0.1s0.6-0.4,0.9-0.6c0.4-0.2,0.6-0.3,0.7-0.5c0-0.2,0.3-0.3,0.3-0.6   c0.1-0.3-0.1-0.4,0.3-0.4s0.4-0.1,0.7-0.2c0.3-0.1,0.4-0.2,0.6-0.1c0.3,0.1,0.4,0,0.6-0.1c0.2-0.1,0.5-0.6,0.6-0.3   c0.1,0.3-0.4,0.4-0.1,0.5c0.4,0.1,1,0,1.7-0.4c0.7-0.3,0.9-0.6,1-0.7c0.1-0.1,0.3-0.2,0.5-0.2c0.2,0,0.2-0.6,0.4-0.5   c0.2,0.1,0.3,0.5,0.7,0.5c0.4,0,1-0.2,1.2-0.2c0.1,0,0.6,0.2,1.2-0.1c0.6-0.3,0.8-0.4,1.1-0.4c0.3,0,0.9,0,1-0.2   c0.1-0.2-0.2-0.4-0.5-0.5c-0.3-0.1-0.3-0.1-0.7-0.1c-0.3,0,0.5-0.3,0.5-0.5c0-0.2,0.2-0.6,0.3-0.5c0.1,0.1,0.2,0.7,0.4,0.8   c0.2,0.1,0.4-0.1,0.5-0.1c0.1,0,0,0.3,0.3,0.1c0.3-0.1,0.7-0.7,0.4-0.6c-0.4,0-0.4,0.1-0.5-0.3c-0.1-0.4-0.3-0.4-0.3-0.6   c0-0.1-0.1-0.5,0.1-0.4c0.1,0,0.2,0.3,0.3,0.4c0.2,0.2,0.4,0.1,0.4-0.1c0.1-0.2-0.1-0.5-0.3-0.6c-0.2-0.1-0.3-0.3-0.2-0.4   c0.2-0.1,0.5-0.1,0.6,0.1c0.1,0.2,0.2,0.4,0.4,0.3c0.2-0.1,0.4-0.2,0.4-0.2s0.1-0.1,0-0.2c-0.1-0.1-0.1-0.3,0.1-0.3s0.3,0,0.4,0   c0.1,0,0.3-0.1,0.3-0.3c0-0.1-0.2-0.5-0.2-0.5c0-0.1,0.2-0.2,0.3-0.1c0.1,0.1,0.1,0.3,0.3,0.3s0.2-0.2,0.2-0.3   c0-0.1-0.1-0.5-0.1-0.5c0-0.1-0.2-0.1-0.3-0.2c-0.1,0-0.2-0.1-0.1-0.3c0.1-0.1,0.3-0.3,0.4-0.3c0.1,0,0.1-0.1,0.2,0.1   c0.1,0.2,0.4-0.1,0.4-0.2c0-0.1-0.3-0.1-0.3-0.2c0-0.1,0-0.4,0-0.4s0-0.1-0.2-0.1c-0.1,0-0.2,0-0.2-0.1c0-0.1-0.2-0.1,0.3-0.4   c0.5-0.3,0.7-0.5,0.7-0.7c0-0.2,0.2-0.7,0.3-0.6c0.1,0.1,0.1,0.2,0.3,0.2c0.1,0,0.2-0.1,0.4-0.2c0.2-0.1,0.2-0.2,0.3-0.2   c0.2,0,0.3-0.1,0.4-0.1c0-0.1,0.1-0.1,0.2-0.1c0.1-0.1,0.4-0.2,0.4-0.3c0-0.1-0.2-0.2-0.5-0.1c-0.3,0-0.4,0.3-0.6,0.3   c-0.2,0-0.4-0.4-0.5-0.2c-0.1,0.1-0.5,0.2-0.6,0.3c-0.1,0-0.4,0,0-0.2c0.3-0.2,0.6-0.6,0.4-0.6c-0.2,0-0.4,0.2-0.5,0.2   c-0.1,0-0.2-0.3-0.1-0.3c0.2-0.1,0.2,0,0.5-0.1c0.2-0.1,0.4-0.2,0.1-0.3c-0.3-0.1-0.2-0.3-0.3-0.4c-0.1-0.1-0.2-0.2-0.4-0.2   c-0.2,0-0.3-0.1-0.4-0.1c-0.1,0,0-0.2-0.4-0.1c-0.4,0.1-0.7,0.2-0.8,0.2c-0.1,0-0.2-0.3-0.4-0.3c-0.2,0-0.5-0.2-0.6-0.1   C342.6,9.3,342.4,9.6,342.4,9.6 M340.7,8.2c0,0-0.3,0.2-0.5,0.4c-0.2,0.1-0.6,0.1-0.8,0.2c-0.2,0.1-0.4,0-0.7,0s-0.6-0.2-0.8,0   c-0.3,0.1-0.5,0.1-0.9,0.1c-0.4,0-1.2,0.2-1.6,0c-0.4-0.2-0.8-0.3-0.9-0.1c-0.1,0.2,0.2,0.3-0.4,0.4c-0.5,0-1-0.1-1.2,0   c-0.1,0.1-0.3,0.1-0.5,0.1c-0.2,0-0.2-0.1-0.4,0c-0.2,0.1-0.3,0.3-0.5,0.3c-0.3,0-0.8-0.3-0.8-0.3s-0.2-0.1-0.2-0.3   c0-0.1,0.1-0.4-0.1-0.4c-0.2,0-0.4,0-0.4,0s-0.3-0.1-0.5,0c-0.2,0.1-0.6,0.3-0.5,0.4c0.1,0.2,0.4,0.3,0.4,0.3s0.4,0.1,0.3,0.4   c-0.1,0.3,0,0.2-0.4,0.3c-0.4,0.1-1,0.1-1,0.1s0-0.1-0.2-0.4c-0.2-0.3-0.1,0-0.2-0.3c-0.1-0.3-0.3-0.4-0.1-0.5   c0.2-0.1,0.2-0.3,0.4-0.3c0.2,0,0.7-0.2,1.2-0.3c0.4-0.1,0.9-0.4,0.9-0.4s0.5-0.5,0.7-0.3c0.2,0.2,0,0.3-0.2,0.4   c-0.1,0.1-0.5,0-0.1,0.1c0.4,0.1,0.7,0,0.9,0c0.3,0,0.4-0.2,0.3,0c-0.1,0.3-0.5,0.1-0.1,0.3c0.4,0.1,0.7,0.2,0.8,0.1   c0.1-0.1,0-0.4,0-0.7c0-0.2,0-0.4,0.4-0.5c0.4-0.1,1-0.3,1.4-0.4s0.3-0.3,1.2-0.3c0.9,0,1-0.2,1.2,0c0.2,0.2-0.3,0.4,0,0.6   c0.3,0.1,0.8,0.2,1,0.1c0.2-0.2,0.4-0.4,0.7-0.2c0.3,0.2,0.3,0.5,0.7,0.4c0.4,0,0.4-0.2,0.8-0.1C340.3,7.7,341.2,7.3,340.7,8.2" fill="#542D00"  /><path d="M333.7,7c0,0.1-0.8,0.3-0.9,0.3c-0.2,0.1-0.6,0.3-0.7,0.3c-0.2,0.1-0.7,0.2-0.3-0.1   c0.4-0.3,0.6-0.4,0.9-0.5C332.9,7,333.7,6.9,333.7,7 M334.7,6.1c0.1,0.1-0.2,0.2-0.4,0.3c-0.2,0-0.6,0.1-0.8,0.2   c-0.1,0.1-0.1,0.2-0.4,0.2c-0.3,0.1-0.5,0.1-0.5,0.1s0-0.2,0.2-0.3c0.1-0.1,0.1-0.2,0.4-0.2c0.3-0.1,0.4,0,0.6-0.1   c0.2-0.1,0.2-0.1,0.4-0.1C334.4,6.1,334.6,6,334.7,6.1 M334.2,5.7c0,0-0.8,0.1-1.2,0.1c-0.3,0-0.7,0.1-0.6,0c0-0.2,0.1-0.3,0.3-0.4   c0.2-0.1,0.3-0.2,0.5-0.2c0.2,0,0,0,0.4,0.2C334,5.6,334.2,5.5,334.2,5.7 M333,5c0,0-0.5,0.3-0.7,0.3c-0.2,0-0.4,0-0.5,0   c-0.1,0-0.3-0.1-0.1-0.2c0.2-0.1-0.4-0.1-0.2-0.3c0.2-0.2,0.4-0.4,0.6-0.3c0.3,0.1,0.3,0.3,0.4,0.3C332.6,4.9,333,4.8,333,5    M330.9,5.7c0,0-0.5,0.1-0.8,0.2c-0.3,0.1-0.5,0.2-0.2,0.2c0.4,0,0.7-0.1,0.9-0.1c0.2,0,0.4,0,0.3,0.1c-0.1,0.1-0.1,0.1-0.4,0.2   c-0.3,0-0.5,0-0.6,0.1c-0.1,0.1-0.1,0.2-0.3,0.2c-0.1,0.1-0.2,0.1-0.5,0.1c-0.2,0-0.5,0.1-0.5,0.1s0.3-0.4,0.2-0.4   c-0.2-0.1-0.3-0.1-0.3-0.2c0.1-0.2,0.2-0.2,0.4-0.3c0.2-0.1,0.2-0.1,0.3-0.2c0.1-0.1,0.1-0.3,0.3-0.3c0.3,0,0.4-0.1,0.6-0.1   c0.2,0,0.4,0,0.5,0C331.1,5.2,331.2,5.6,330.9,5.7 M330.6,6.8c0,0-0.9,0.2-1.1,0.4c-0.2,0.2-0.3,0.3-0.4,0.3   c-0.1,0-0.4-0.1-0.5,0.1c-0.1,0.2,0.1,0.2,0.3,0.2c0.2,0,0.4-0.2,0.8-0.2s0.7,0,0.8-0.2C330.5,7.2,331,6.9,330.6,6.8 M329.2,8   c-0.2,0-0.5,0-0.9,0.3c-0.4,0.2-0.7,0.3-0.5,0.4c0.2,0.1,0.5-0.2,0.6-0.2c0.2-0.1,0.2-0.1,0.5-0.1C329.2,8.2,329.6,8,329.2,8    M330.2,4.5c0,0-0.6,0.1-1,0.2c-0.5,0.1-0.6,0-0.9-0.1c-0.2-0.1-0.4-0.2-0.6-0.1c-0.2,0.2-0.4,0.1-0.6,0.3   c-0.2,0.1-0.6,0.2-0.7,0.3c-0.1,0.1-0.4,0.1-0.1,0.2c0.3,0.1,0.7,0.1,0.8,0.1c0.1,0,0.2,0.1,0.1,0.2c-0.1,0.1,0.1,0.1-0.3,0.1   c-0.3,0-0.6-0.2-0.9-0.1c-0.3,0.1,0.2-0.2-0.4,0.2c-0.6,0.4-0.7,0.6-0.7,0.4c0-0.3,0.1-0.5-0.2-0.2c-0.3,0.3-0.3,0.3-0.4,0.4   c-0.2,0.1-0.2,0.2-0.4,0.3c-0.2,0.1-0.5,0.3-0.4,0.1c0.1-0.2,0.2-0.5,0-0.5c-0.4,0.1-0.8,0.4-1.1,0.6c-0.4,0.4-0.6,0.3-0.8,0.4   c-0.2,0.1-0.6,0.3-0.5,0.5c0.1,0.2,0.3,0.1,0.3,0.3c0.1,0.2,0.3,0.2,0.1,0.3c-0.1,0.2-0.1,0.2-0.4,0.3c-0.3,0.2-0.5,0.5-0.2,0.4   c0.3-0.1,0.6-0.4,0.7-0.3c0.1,0.1-0.2,0.2,0.1,0.2c0.2,0.1,1.3-0.6,1.8-0.8c0.5-0.2,0.7-0.3,1.3-0.5c0.6-0.3,0.7-0.4,1.1-0.3   c0.4,0,0.9,0.2,1,0c0.1-0.2-0.2-0.3-0.3-0.3c-0.2,0-0.4,0-0.5,0c-0.2,0-0.5,0.1-0.7,0.2c-0.2,0.1-0.8,0.4-0.5,0.1   c0.3-0.3,1.4-0.5,1.6-0.7c0.2-0.2,0-0.2,0.5-0.4c0.5-0.2,0.4-0.2,0.9-0.4c0.5-0.2,0.5-0.4,1-0.5C329.3,5.1,330.4,4.7,330.2,4.5    M327.1,8c0,0-0.1-0.2-0.5-0.1C326.1,8,325.8,8,325.8,8s-0.4-0.1-0.5-0.1c-0.2,0.1-0.2,0.2-0.4,0.3c-0.2,0.1-0.7,0.4-0.8,0.4   c-0.1,0.1-0.5,0.1-0.4,0.3c0.2,0.2,0.7,0.2,1,0.1c0.3-0.1,0.6-0.4,0.9-0.4c0.2,0,0.4-0.1,0.7-0.1C326.5,8.5,327.1,8.2,327.1,8    M277.5,56.1c0,0,0.2-0.2,0.1-0.4c-0.1-0.2-0.2-0.6-0.4-0.4c-0.2,0.2-0.3,0.4-0.4,0.2c-0.1-0.1-0.2-0.1-0.3-0.1c0,0,0-0.4,0.3-0.5   c0.3-0.1,0.5-0.2,0.7,0c0.2,0.3,0.6,0.8,0.6,1s0,0.7,0,0.9c0,0.2,0,0.5,0.1,0.7c0.1,0.3,0.3,0.8,0.2,1c-0.1,0.2,0,0.6,0.1,0.7   c0.1,0.1,0.2,0.5,0.1,0.7c-0.1,0.2,0,0.4,0.1,0.6c0.1,0.2,0.3,0.4,0.2,0.5c-0.1,0.1-0.2,0.2-0.2,0.3c0,0.1,0.4,0.4,0.4,0.7   c0,0.3,0.3,0.4,0,0.5c-0.3,0.1-0.5-0.1-0.7-0.3c-0.1-0.2-0.4-0.5-0.5-0.6c-0.1-0.1-0.5-0.1-0.2-0.4c0.3-0.3,0.5-0.3,0.5-0.5   c0-0.2-0.2-0.2-0.2-0.4c0-0.2-0.3-0.5-0.1-0.9c0.2-0.4,0.3-0.8,0.1-1c-0.3-0.1-0.2-0.6-0.2-0.7c0-0.1-0.1-0.6-0.1-0.8   C277.6,56.8,277.3,56.3,277.5,56.1 M277.3,63.6c0,0-0.3-0.8-0.5-0.7c-0.2,0.1-0.1,0.3-0.1,0.5c0,0.2,0.2,0.4,0.3,0.6   c0.1,0.2,0.3,0.5,0.3,0.3C277.4,64.2,277.4,63.9,277.3,63.6 M279.4,63.6c0,0-0.1,0.1,0,0.3c0.1,0.1,0.3,0.3,0.2,0.5   c-0.1,0.2-0.2,0.2-0.2,0.5c0,0.3,0.2,0.5,0,0.7c-0.2,0.2-0.2,0.3-0.3,0.2c-0.1-0.2-0.4-0.5-0.5-0.7c-0.1-0.2-0.3-0.5-0.3-0.4   c0,0.1,0,0.4,0.2,0.6c0.2,0.3,0.4,0.5,0.6,0.7c0.2,0.2,0.3,0.5,0.3,0.6c0,0.1-0.2,0.7,0,0.6c0.2-0.1,0.3-0.3,0.3-0.3   s0.1-0.4,0.3-0.3c0.1,0.1-0.1,0.3,0.1,0.4c0.2,0.1,0.3-0.2,0.5,0c0.2,0.1,0.3,0.2,0.4,0.4c0.1,0.3,0,0.4,0.2,0.4   c0.2,0,0.3-0.3,0.2-0.5c-0.1-0.3-0.2-0.5-0.3-0.8c-0.1-0.2-0.2-0.3-0.1-0.5c0.1-0.2,0.2-0.4,0.1-0.5c-0.1-0.2-0.2-0.3-0.2-0.4   c0-0.1-0.1-0.2-0.1-0.3c0-0.1,0-0.3-0.2-0.3c-0.1,0-0.2-0.3-0.3-0.2c-0.1,0.1-0.2,0.1-0.3,0C280,64.4,279.9,63.4,279.4,63.6    M282.6,68.8c-0.1-0.1-0.1-0.5-0.3-0.4c-0.2,0.1-0.4,0.4-0.2,0.6c0.1,0.2,0.3,0.2,0.5,0.4c0.2,0.2,0.2,0.4,0.4,0.2   C283.3,69.3,282.8,69.1,282.6,68.8 M283.9,81.4c0,0,0.1-0.3,0-0.3c-0.1,0-0.2-0.2-0.3-0.1c-0.1,0-0.1,0.1-0.1,0.2   c0,0.1,0.1,0.5,0,0.5c-0.1,0.1,0,0.2,0.1,0.2c0.1,0.1,0.2,0,0.3-0.1C283.8,81.8,283.8,81.7,283.9,81.4 M324.7,11l-0.6,0.4   c0,0,0.5-0.7,1-0.9c0.5-0.1,0.8-0.4,1.1-0.4c0.2,0,0.7,0.2,0.9,0c0.2-0.1,0.4-0.4,0.1-0.4c-0.3,0-1.1,0-1.4,0   c-0.4,0-0.7-0.1-1.1,0.2c-0.3,0.2-1,0.6-1.1,0.6c-0.1,0-0.4,0-0.6,0.2c-0.1,0.2-0.2,0.3-0.2,0.4c0,0.2-0.1,0.3-0.2,0.4   c-0.1,0.1-0.1,0.2,0.1,0.4c0.2,0.2,0,0.3,0.2,0.4c0.2,0.2,0,0.3,0.3,0.3c0.3,0,0.8-0.6,0.9-0.5c0.1,0.1,0,0.3-0.2,0.4   c-0.1,0.1-0.9,0.8-1.3,1.4c-0.4,0.6-0.8,1.1-0.9,1.3c-0.2,0.2-0.7,0.6-1,0.6c-0.3,0-0.6,0.1-0.8,0.1c-0.2,0-0.4-0.1-0.5,0   c-0.1,0.1-0.1,0.2-0.3,0.4c-0.1,0.2-0.2,0.3-0.3,0.3c-0.1,0-0.4-0.1-0.5-0.1c-0.1,0-0.2,0.1-0.3-0.1c-0.1-0.2-0.2-0.4-0.4-0.4   c-0.2,0-0.4,0-0.6,0.1c-0.2,0.2-0.4,0-0.3,0.2c0,0.2-0.2,0.4,0.4,0.4c0.6,0.1,0.1,0.2,0.4,0.3c0.2,0,0.6,0,0.4,0.2   c-0.2,0.2-0.3,0.4-0.5,0.4c-0.1,0.1-0.3,0.1-0.3,0.2c0,0.1,0.1,0,0,0.3c-0.1,0.2,0,0.2-0.2,0.3c-0.2,0.1-0.3,0-0.4,0.2   c-0.1,0.1,0,0.2-0.1,0.4c-0.2,0.2-0.2,0.3-0.1,0.4c0.2,0,0.3,0,0.3,0c0,0.1,0.1,0.2,0,0.2c-0.1,0.1-0.2,0.1-0.2,0.2   c0,0.1,0,0.2,0.1,0.4c0.1,0.2,0,0.6,0.2,0.6c0.2,0,0.4-0.1,0.5-0.5c0.1-0.4,0-0.4,0.2-0.7c0.1-0.3,0.2-0.8,0.4-0.8   c0.2,0,0.2,0,0.2,0.3c0,0.3,0,0.4-0.1,0.5c0,0.2,0.1,0.4,0.1,0.4s0,0.2-0.1,0.3s-0.2,0.2-0.1,0.2c0.1,0.1,0.6-0.3,0.8-0.4   c0.2-0.1,0.2,0,0.4-0.1c0.2-0.1,0.2-0.1,0.3-0.4c0.1-0.3,0.4-0.4,0.4-0.7c0-0.2-0.1-0.2,0-0.4c0.2-0.2,0.6-0.4,0.5-0.6   c-0.1-0.2-0.2-0.3,0-0.4c0.2-0.1,0.3-0.2,0.4-0.1c0.2,0.1,0.2-0.1,0.4-0.2c0.2-0.1,0.6-0.4,0.6-0.2c0,0.2,0,0.3-0.1,0.5   c-0.1,0.1-0.2,0.1-0.2,0.4c-0.1,0.3-0.2,0.4-0.3,0.5c-0.1,0.1-0.4,0.3-0.3,0.5c0.1,0.1,0.4,0,0.6-0.2c0.3-0.2,0.4-0.2,0.5-0.1   c0.1,0.1,0.4-0.1,0.6-0.3c0.2-0.2,0.4-0.2,0.5-0.2c0,0.1-0.1,0.2,0.2,0.2c0.3,0,0.5-0.4,0.4-0.5c-0.1,0-0.2,0-0.3-0.1   c-0.1-0.1-0.1-0.2,0-0.3c0-0.1,0-0.1,0-0.2c0-0.1,0.1-0.2,0.1-0.2s0.2-0.1,0.2-0.2c0-0.1-0.1-0.2-0.1-0.2c0-0.1-0.1-0.3,0-0.8   c0.1-0.5,0.1-0.6,0.3-0.6c0.2,0,0.3-0.1,0.4-0.2c0.1-0.1,0.3-0.1,0.3,0c0,0.1,0,0.2,0.2,0.2c0.2,0,0.3-0.2,0.2-0.3   c0-0.1-0.3-0.2-0.1-0.2c0.2,0,0.2,0,0.4,0s0.4-0.3,0.4-0.3c-0.2,0-0.3-0.1-0.3-0.1s0.1-0.3,0.4-0.3c0.3,0,0.4-0.2,0.3-0.2   c-0.1,0-0.4,0-0.2-0.2c0.2-0.2,0.7-0.6,0.7-0.7c0-0.2-0.2-0.1-0.3-0.1c-0.1,0-0.1-0.2,0-0.2c0.1-0.1,0.6-0.5,0.7-0.7   c0.1-0.2,0.2-0.3,0-0.4c-0.2-0.1-0.3,0-0.4,0.1s-0.2,0.2-0.3,0.2c-0.1,0-0.2,0-0.2-0.1c0-0.1,0.2-0.3,0.2-0.3s-0.4,0-0.4-0.1   c0-0.1,0.1-0.3,0.3-0.3c0.2,0,0.6,0.1,0.8-0.1c0.2-0.2,0.6-0.4,0.7-0.5c0.1-0.1,0.2-0.3-0.1-0.3c-0.4,0-0.7,0.1-0.9,0.1   c-0.2,0-0.4,0-0.5,0.1C325.5,10.7,325.1,10.8,324.7,11" fill="#542D00"  /><path d="M327.7,11.1c0,0-0.2-0.1-0.5,0c-0.2,0.1-0.5,0.3-0.4,0.4c0.1,0.2-0.1,0.4,0.2,0.3c0.3-0.1,0.4-0.1,0.5-0.2   C327.6,11.5,327.9,11.2,327.7,11.1 M320.9,15.1c0,0-0.4,0.3-0.6,0.2c-0.2,0-0.5-0.1-0.3-0.3c0.2-0.2,0.4-0.3,0.5-0.4   c0.2-0.1,0.2-0.2,0.6-0.2c0.4,0,0.4,0.1,0.4,0.2C321.4,14.8,321.2,15,320.9,15.1 M315.7,15.7c-0.2,0.1-0.3,0.2-0.3,0.3   c-0.1,0.1,0,0.2-0.1,0.3c-0.1,0.1-0.1,0.2-0.3,0.2c-0.1,0-0.3,0.2-0.2-0.2c0.2-0.5,0.3-0.7,0.3-0.7s0-0.1-0.2,0   c-0.2,0.1-0.2,0.1-0.4,0.2c-0.2,0-0.1,0-0.4,0c-0.2,0-0.6,0.3-0.4,0c0.2-0.3,0.3-0.3,0.4-0.4c0.1-0.1-0.1-0.2-0.1-0.2   c0-0.1,0-0.2,0.2-0.2c0.1,0,0.2,0,0.3,0c0.2,0,0.2,0,0.4-0.1c0.2-0.1,0.4-0.2,0.5-0.3c0.1-0.1,0.6-0.2,0.8-0.2   c0.1,0,0.6-0.4,0.6-0.2c0,0.3-0.2,0.5-0.4,0.6c-0.1,0-0.3,0.1-0.4,0.2c0,0.1,0,0.1-0.1,0.3c-0.1,0.2-0.2,0.1-0.2,0.3   C315.9,15.5,315.9,15.7,315.7,15.7 M314,16.6c0,0-0.2-0.2-0.4-0.1c-0.2,0.1-0.7,0.1-0.6,0.3c0.2,0.1,0.4,0.1,0.6,0.1   C313.8,16.8,314,16.6,314,16.6 M313.7,17.7c0,0,0-0.2-0.3,0c-0.3,0.2-0.7,0.3-0.6,0.4C313,18.1,313.6,18,313.7,17.7 M315.3,17.3   c0,0,0-0.2-0.1-0.1c-0.2,0.1-0.5,0.1-0.3,0.2C315.1,17.6,315,17.8,315.3,17.3 M306,34c0-0.1,0-0.5-0.1-0.7   c-0.2-0.2-0.2-0.5-0.3-0.6c-0.1,0-0.3-0.2-0.3,0.1c0,0.2,0.1,0.4,0.1,0.6c0,0.2-0.2,0.1,0,0.4c0.2,0.3,0.3,0.5,0.4,0.5   C305.8,34.3,306,34.2,306,34 M311.4,33.5c-0.2,0-0.4-0.1-0.6-0.1c-0.2,0-0.6,0.1-0.7,0.2c-0.1,0.1-0.6,0.4-0.8,0.5   c-0.2,0.1-0.7,0.4-0.9,0.6c-0.2,0.2-0.3,0.2-0.4,0.3c-0.1,0.1-0.1,0.1-0.2,0.1c0,0.1,0,0.1-0.1,0.2c-0.1,0.1-0.1,0.2-0.2,0.2   c-0.1,0,0-0.2-0.2-0.1c-0.2,0.1-0.4,0.2-0.4,0.3c0,0.2,0,0.3-0.2,0.3c-0.2,0-0.3,0.1-0.5,0.1c-0.1,0-0.6,0.2-0.5,0.4   c0.1,0.1,0.5,0.1,0.6,0.3c0.1,0.2,0.4,0.4,0.4,0.4s0.2,0.2,0.3,0.3c0.1,0,0.4,0,0.4,0c0.1,0,0.1,0,0.1,0.1c0,0.1-0.1,0.3,0.1,0.2   c0.2,0,0.3-0.1,0.3-0.1c0.1,0.1,0.3,0.1,0.2,0.2c-0.1,0.1-0.4,0-0.5,0.1c-0.1,0.1-0.1,0.1-0.3,0.1c-0.2,0-0.3,0-0.4,0   c-0.1,0-0.2,0.1-0.1,0.1c0.1,0.1,0.1,0.1,0.3,0.1c0.2-0.1,0.3-0.1,0.5-0.2c0.2-0.1,0.2,0,0.3-0.1c0.1-0.1,0.2-0.1,0.3-0.1   c0.1-0.1,0.5-0.3,0.5-0.3s-0.1,0.4-0.2,0.5c-0.1,0.1-0.2,0.2-0.3,0.3c-0.1,0.1-0.4,0.1-0.4,0.2c0.1,0.1,0.2,0,0.3,0   c0.1,0,0.3-0.1,0.2,0c0,0.1-0.1,0.1-0.2,0.2c-0.1,0.1-0.3,0.2-0.2,0.2c0.1,0,0.1,0,0.2,0.1c0,0.1,0.2,0.2,0.3,0.1   c0.1,0,0.2-0.3,0.3-0.4c0.1-0.1,0.1-0.1,0.2-0.2c0.1,0,0.4-0.4,0.4-0.4s-0.1-0.1-0.2,0c-0.1,0-0.2,0.1-0.2,0c0-0.1,0-0.2,0.2-0.2   c0.1-0.1,0.2-0.3,0.2-0.3s-0.1-0.1-0.2,0c-0.1,0.1-0.2,0.1-0.3,0.2c-0.1,0.1-0.2,0.2-0.2,0.2c0-0.1,0-0.2,0.2-0.4   c0.2-0.2,0.3-0.3,0.4-0.3c0.2,0,0.3,0,0.4,0c0.1,0,0.4-0.2,0.1-0.2c-0.3,0-0.3,0-0.4,0c-0.2-0.1-0.3-0.1-0.2-0.2   c0.1-0.1,0.1,0,0.2-0.2c0.1-0.2,0.1-0.3,0.2-0.3c0.1,0,0.6,0,0.5-0.3c-0.1-0.3-0.4-0.3-0.6-0.3c-0.2,0-0.1,0-0.3,0   c-0.3,0-0.4,0.1-0.3-0.1c0.1-0.2,0.3-0.2,0.1-0.3c-0.2-0.1-0.3-0.1-0.3-0.2c0-0.1,0.1-0.3,0.3-0.3c0.2-0.1,0.4,0.1,0.3-0.1   c-0.1-0.2-0.1-0.4-0.2-0.3c-0.1,0.1-0.1,0.1-0.3,0.2c-0.1,0.1-0.3,0.2-0.3,0.2c0-0.1-0.1-0.3,0.1-0.3c0.2-0.1,0.3-0.2,0.6-0.4   c0.2-0.2,0.9-0.5,1-0.6c0-0.1,0-0.2,0.2-0.2c0.1,0,0,0.1,0.2,0C311.3,33.7,311.6,33.6,311.4,33.5 M303.2,36.8c0,0,0,0.2-0.2-0.1   c-0.2-0.3-0.3-0.4-0.3-0.4s0-0.3,0.1-0.3c0-0.1,0.1-0.1,0-0.1c-0.1,0-0.3,0.1-0.3,0.2c0,0.2-0.1,0.3,0.1,0.5   c0.2,0.2,0.3,0.3,0.3,0.4c0,0.1-0.1,0.2,0,0.3c0.1,0,0.3-0.2,0.4-0.2C303.2,37.2,303.5,36.8,303.2,36.8 M270.6,77   c0,4.8,0.4,9.4,1.3,13.9c3.2,17.7,12.6,33.2,25.7,44.5c0-0.1-0.1-0.2-0.1-0.2c-0.1-0.3-0.8-0.8-1.1-1c-0.3-0.2-0.4-0.5-0.6-0.7   c-0.2-0.1-1-0.8-1.3-1.3c-0.3-0.5,0.2,0.1,0.3,0.1c0.1,0.1,1.1,0.8,1.4,1.1c0.2,0.3,1,0.7,1.3,0.9c0.3,0.2,0.3,0.1,0.4,0.1   c0.1,0,0.1-0.2,0.2-0.3c0-0.1,0.1-0.1,0.1-0.1c0.1,0,0-0.1,0-0.4c0-0.3-0.1-0.4-0.2-0.6c-0.2-0.1,0-0.1,0-0.3   c0-0.2,0.1-0.1,0.1-0.2c0-0.1,0-0.2-0.1-0.3c-0.1-0.2-0.1-0.2,0-0.3c0.1-0.1,0.1,0.1,0.2,0.3c0.1,0.1,0.2,0.2,0.3,0.2   c0.1,0,0.2,0.2,0.3,0.1c0.1-0.1-0.1-0.3-0.1-0.3s0.1-0.2,0.2-0.5c0.1-0.3,0.2,0,0.3-0.2c0.1-0.2,0-0.2,0-0.3c0-0.1-0.1-0.4-0.4-0.9   c-0.3-0.6-0.2-0.6-0.3-0.8c-0.1-0.2-0.2-0.3-0.3-0.4c-0.2-0.2,0-0.2,0-0.2s0.2,0.1,0.4,0.1c0.3,0,0,0,0-0.1c0-0.1,0.2-0.1,0.2-0.1   c0.1,0,0.3-0.1,0.4-0.2c0.1-0.1,0.9-0.1,1-0.1c0.1,0,0.6,0,0.6,0s0.3-0.1,0.4-0.2c0.1-0.1,0.3,0,0.4,0.1c0.2,0.1,0.2,0.1,0.3,0.2   c0.1,0.1,0.2,0.1,0.4,0c0.2-0.1,0.2,0,0.2,0l0.1,0.2c0,0,0.1,0.1,0.2,0.2c0.1,0.1,0.3,0,0.6,0.1c0.3,0,0.1-0.1,0.1-0.1   c0-0.1,0.1-0.2,0.2-0.2c0.1-0.1,0.3,0.1,0.4,0.1c0.1,0,0.1-0.1,0.2-0.1c0-0.1-0.1-0.2-0.2-0.4c-0.1-0.2,0.1-0.3,0.2-0.4   c0.1-0.2,0.2-0.1,0.3-0.4c0.1-0.2,0.2-0.6,0.2-0.7c0.1-0.1,0.1-0.1,0.2-0.2c0.1-0.1-0.1-0.1-0.1-0.3c-0.1-0.1-0.1-0.2-0.1-0.5   c0-0.3,0-0.3,0-0.5c0-0.3,0.3-0.2,0.4-0.3c0.1-0.1,0-0.2-0.1-0.3c-0.1-0.1,0.1-1.1,0.1-1.3c0-0.2-0.2-0.8-0.3-1.4   c-0.1-0.5-0.2-1.4-0.2-1.4s0.1-0.2,0.1-0.2c0.1-0.1,0-0.1,0-0.4c0-0.2,0.1-0.2,0.1-0.2c0.1,0,0.2,0.1,0.4,0.3s0.5-0.5,0.7-0.7   c0.2-0.2,0.4-0.8,0.5-0.9c0.1-0.1,0.2-0.1,0.3-0.2c0.2-0.1,0.2-0.1,0.4-0.2c0.2-0.2,0-0.2,0.5-0.5c0.5-0.3,0.8-0.8,1-1.1   c0.1-0.3,0.1-0.8,0.1-1.4c-0.1-0.6-0.2-1.2-0.3-1.7c-0.1-0.5-0.1-0.6-0.4-1c-0.3-0.3-1.2-0.5-1.6-0.6c-0.4-0.1-1-0.8-1.4-1.4   c-0.4-0.5-0.7-1-1.3-1.5c-0.5-0.5-1.2-1.1-1.6-1.3c-0.4-0.1-0.6-0.1-0.9-0.1c-0.3-0.1-0.4-0.2-0.5-0.4c-0.1-0.2-0.1-0.1-0.7-0.1   c-0.6-0.1-1.3-1.1-1.5-1.2c-0.2-0.1-0.1,0.1-0.4,0.3c-0.2,0.3-0.2,0.1-0.2,0.2c-0.1,0.1-0.3,0.3-0.4,0.3c-0.1,0-0.2-0.1-0.1-0.3   c0.1-0.1,0.1-0.5,0.1-0.5c0.1-0.1,0.1-0.1,0.2-0.3c0.1-0.2-0.1,0-0.2-0.1c-0.1-0.1,0.1-0.2,0.1-0.5c0-0.3-0.3-0.3-0.3-0.4   c-0.1-0.1-0.1,0.1-0.3-0.1c-0.2-0.2-0.2-0.4-0.5-0.7c-0.2-0.3-0.6-0.4-1.1-0.8c-0.4-0.4-1-0.7-1.2-0.8c-0.2-0.1-0.2,0.1-0.3,0.2   c-0.1,0.1-0.5,0.3-0.8,0.6c-0.3,0.3-0.4,0.4-0.5,0.3c-0.1-0.1,0-0.4-0.1-0.4c-0.1-0.1-0.3,0-0.5-0.1c-0.2,0-0.4-0.1-0.4-0.2   c-0.1-0.1,0.1-0.1,0.1-0.1c0.1,0,0.4,0.2,0.5,0.2c0.1,0,0.4,0,0.7,0c0.3,0,0.2-0.1,0.3-0.5c0.2-0.4,0.2-0.4,0.2-0.6   c0-0.2-0.3-0.3-0.7-0.5c-0.4-0.2-0.3,0-0.5-0.1c-0.2-0.2-0.4-0.3-0.7-0.4c-0.3-0.1-0.3,0.3-0.4,0.3c-0.1,0-0.1-0.2,0-0.3   c0-0.1,0.1-0.1,0.2-0.2c0.1-0.1,0-0.1-0.1-0.1c-0.1-0.1-0.4,0.2-0.4,0.3c-0.1,0-0.2-0.1-0.2-0.3c0-0.2,0.2-0.1,0.3-0.1   c0.1-0.1,0.2-0.3,0.4-0.4c0.2-0.1,0.1-0.1,0.2-0.2c0.1-0.1,0.4-0.2,0.5-0.6c0.2-0.4,0.1-0.5-0.1-0.6c-0.1-0.1-0.4-0.3-0.5-0.5   c-0.1-0.3-0.2-0.5-0.2-1c-0.1-0.5-0.1-1.2-0.1-1.4c0-0.3-0.1-0.3-0.1-0.6c0-0.2-0.2-0.2-0.3-0.2c-0.1,0-0.2-0.1-0.3-0.5   c-0.1-0.4-0.6-1.1-0.7-1.4c-0.1-0.2-0.3-0.2-0.8-0.7c-0.5-0.5-0.4-0.4-0.7-0.7c-0.3-0.4-0.9-0.7-1.2-0.7c-0.3,0-0.3,0.1-0.3,0   c-0.1-0.1-0.5-0.5-0.7-0.6c-0.2-0.1-0.2,0-0.3-0.2c0-0.2-0.1-0.3-0.3-0.8c-0.1-0.5-0.1-0.3-0.4-0.7c-0.3-0.4-0.3,0.2-0.4,0   c-0.1-0.2,0.1-0.7,0.2-0.9c0-0.3-0.3-1.2-0.7-1.8c-0.3-0.7-0.9-0.8-1-0.9c-0.1-0.1,0.1-0.2,0.1-0.3c0-0.1,0.1-0.2,0.2-0.4   c0.1-0.2,0-0.2,0-0.6c0-0.4-0.3-0.5-0.5-0.8c-0.2-0.2-0.4-0.4-0.5-0.8c-0.2-0.4,0-0.1,0-0.5c0-0.3,0-0.1-0.1-0.3   c-0.1-0.1-0.4-0.3-0.6-0.4c-0.2-0.1-0.2,0.2-0.3,0.2c-0.2,0-0.2-0.2-0.3-0.2c-0.1,0-0.2,0.2-0.4,0.2c-0.2,0-0.5-0.9-0.6-1.4   c-0.1-0.5-0.9-0.7-1.2-0.8c-0.3-0.1-0.3-0.2-0.3-0.4c-0.1-0.2,0-0.8,0-1.2c0-0.4-0.5-0.6-0.6-0.7c-0.1-0.2,0.4-0.6,0-0.7   c-0.3-0.2,0,0.7-0.7,0.7c-0.7,0-0.2,1.1-0.2,1.5s-0.2,0.8-0.4,0.8c-0.1,0-0.3-0.3-0.3-0.5c0-0.2,0-0.9,0-1.1   c0.1-0.3,0.3-0.7,0.4-0.9c0.1-0.2,0-0.8,0-1c0-0.2,0.4-0.1,0.7-0.2c0.3-0.1,0.1-0.2,0.1-0.4c0-0.3-0.2-0.3-0.4-0.4   c-0.3,0-0.2,0.1-0.5,0.4c-0.3,0.3,0,0-0.3,0.2c-0.3,0.2-0.2-0.2-0.4-0.4c-0.2-0.2-0.1,0.2-0.3,0.2c-0.2,0-0.3-0.4-0.5-0.5   c-0.2-0.1-0.3,0.5-0.3,1c0,0.6-0.1,0.4-0.2,0.5c-0.1,0.2-0.3,0.1-0.5,0.3c-0.2,0.2,0,0.7-0.4,1.1c-0.4,0.3-0.1-1-0.1-1.1   s-0.3-0.6-0.3-1c0-0.4-0.1-0.6-0.3-1.2c-0.3-0.6-0.5,0-0.8-0.1c-0.3-0.1-0.3-0.8-0.3-1.2c0-0.4,0-0.5,0-0.9c0-0.4-0.1-0.7-0.1-1.2   c0-0.5,0.2-0.8,0.3-1.5c0.2-0.7,0.2-1,0.5-1.4c0.3-0.3,0.7-2.2,0.7-2.4c0-0.1,0-0.3,0-0.5c0-0.2,0.1-0.3,0.1-0.7   c0.1-0.4-0.1-0.5-0.2-1.1c-0.1-0.5-0.4-0.8-0.6-1.1c-0.1-0.3-0.1-0.5-0.1-0.8c0-0.3,0.2-0.4,0.3-0.6c0.2-0.3,0.3-0.5,0.3-0.8   c0.1-0.3,0.4-1.4,0.6-1.4c0.2-0.1,0.2-0.1,0.5-0.6c0.3-0.5,0.8-1.9,0.9-2c0.1-0.1,0.2-0.2,0.3-0.3c0.1-0.2,0-0.2-0.2-0.6   c-0.2-0.3,0-0.2-0.1-0.5c-0.1-0.3-0.3-0.3-0.6,0.1c-0.3,0.4-0.5,0.7-0.6,1.1c-0.1,0.5-0.3,0.8-0.5,0.7c-0.2-0.1-0.1-0.3,0-0.4   c0-0.1,0-0.1,0-0.1C271.7,62.1,270.6,69.5,270.6,77" fill="#542D00"  /><path d="M321.1,5.9c-0.1,0-0.2,0.2-0.2,0.3c-0.1,0.3-0.2,0.2-0.5,0.3c-0.3,0.1-0.3,0.1-0.4,0.1   c-0.1,0.1-0.2,0.2-0.7,0.4c-0.6,0.2-0.4-0.2-0.4-0.2c-0.1,0-0.2,0-0.5,0c-0.3-0.1,0.1-0.2,0.2-0.3c0.2-0.1,0.6-0.3,0.8-0.3   c0.2-0.1,0.3,0,0.4,0c0.2,0,0.2,0,0.4-0.1c0.2,0,0.4-0.3,0.6-0.4c0.1-0.1,0.4-0.1,0.5-0.1C321.3,5.6,321.3,5.9,321.1,5.9    M297.3,26.4c-0.1,0.3-0.6,0.8-0.6,0.8c0.2,0,0.1,0.4-0.1,0.5c-0.2,0.2-0.2,0.2-0.4,0.3c-0.1,0.1-0.1,0.2-0.4,0.6   c-0.3,0.4-0.3,0.4-0.7,0.3c-0.4-0.1,0.1-0.3,0.2-0.4c0.1-0.2,0.1-0.1-0.4-0.4c-0.5-0.2,0-0.4,0.2-0.5c0.2-0.1,0-0.3,0-0.5   c0-0.2,0.3,0,0.4-0.1c0.2,0,0.1-0.2,0-0.4c-0.1-0.2,0,0-0.3,0.1c-0.3,0.1-0.2,0-0.4,0c-0.2,0-0.3,0.1-0.4,0c-0.2,0,0.2-0.3,0.2-0.3   s0.2-0.2,0.2-0.3c0-0.2-0.2-0.2-0.1-0.4c0.1-0.3,0.6-0.2,0.8-0.1c0.2,0.1,0.4,0.1,0.7,0.1c0.3,0,0.2-0.1,0.6-0.4   c0.4-0.3,0.4,0.2,0.4,0.4C297.2,26,297.4,26.1,297.3,26.4 M295.2,31.7c-0.3,0.7-0.6,0.8-0.8,0.8c-0.2-0.1,0-0.3,0-0.4   c0-0.1-0.1,0-0.2,0.1c0,0.1-0.3,0.2-0.5,0.2c-0.2,0-0.3,0.3-0.5,0.5c-0.2,0.2-0.5,0.4-0.6,0.3c-0.1-0.1,0.1-0.3,0.1-0.4   c0-0.1,0.2-0.2,0.4-0.4c0.3-0.3,0.2-0.2,0.1-0.3c0-0.1-0.4,0.1-0.5,0.1c-0.2,0,0-0.2,0.1-0.3c0.1-0.1,0.4-0.2,0.6-0.2   c0.2,0,0.4-0.3,0.6-0.5c0.2-0.2,0.1-0.2,0.5-0.7c0.3-0.5,0.1-0.4,0.1-0.6c0-0.2-0.1,0-0.2,0.1c-0.1,0.1-0.4,0.3-0.7,0.3   c-0.2,0-0.2-0.2-0.2-0.1c-0.1,0-0.3,0.3-0.7,0.5c-0.4,0.2-0.5,0.4-0.6,0.7c-0.2,0.3-0.6,0.7-0.9,1c-0.3,0.3-0.6,0.4-0.8,0.4   c-0.2-0.1,0.1-0.4,0.4-0.8c0.3-0.4,1.3-1.3,1.4-1.4c0.1-0.1,0.9-0.6,1-0.7c0.1-0.1,0-0.2,0.1-0.4c0.1-0.2,0.3-0.2,0.4-0.3   c0.2-0.2,0.5-0.3,0.8-0.3c0.3,0,0.2,0.2,0.3,0.2c0.1,0,0.2,0,0.2,0.1c0,0.1,0.2,0.4,0.2,0.4c0.3-0.4,0.4,0.1,0.4,0.4   c0,0.3,0,0.2,0.2,0.9C295.8,31.4,295.5,31,295.2,31.7 M294.9,34.9c-0.2,0.3-0.4,0.2-0.6,0.2c-0.2,0-0.2-0.2-0.3-0.4   c-0.1-0.2,0-0.3-0.1-0.4c-0.1-0.1-0.4-0.1-0.5-0.2c-0.1-0.1,0.1-0.2,0.2-0.3c0.1-0.1,0.5-0.2,0.5-0.2c0.2,0.1,0.4,0.2,0.6,0.2   c0.2,0,0,0.4,0.2,0.4s0.3-0.1,0.4-0.1C295.5,34.2,295.1,34.6,294.9,34.9 M292.8,35c-0.3,0.2-0.3,0-0.4,0c-0.1,0-0.5,0-0.8-0.1   c-0.3,0-0.6-0.1-0.7-0.4c-0.1-0.3,0.2-0.6,0.4-0.7c0.2-0.2,0.1-0.1,0.2-0.1c0.1-0.1,0.3-0.2,0.4-0.3c0.1-0.1,0.2-0.1,0.2,0   c0,0.1-0.2,0.3-0.4,0.4c-0.2,0.1-0.1,0.2,0,0.2c0.1,0.1,0.2,0,0.3,0c0.2,0,0.2,0,0.3,0c0.1,0,0.2,0.3,0.2,0.3   c0.1,0,0.3-0.1,0.6,0.4C293.5,35.1,293.2,34.7,292.8,35 M279.1,41.9c0.2-0.2,0.2-0.2,0.3-0.2c0.1,0,0.1,0.1,0.3,0   c0.2-0.1,0.1-0.2,0.4-0.3c0.3-0.1,0.1,0.3,0.1,0.8c0,0.4,0,0.4,0,0.5c0,0.1,0.2,0.1,0.1,0.3c-0.1,0.1-0.4,0.6-0.4,1   c0.1,0.3,0.1,0.6,0.2,0.6c0.1,0,0.1-0.3,0.1-0.5c0.1-0.2,0.1-0.1,0.2-0.3c0.1-0.2,0-0.2,0.1-0.4c0.1-0.2,0.2-0.5,0.3-0.5   c0.1,0,0,0.3,0,0.4c0,0.1,0.1,0.1,0.2,0.2c0.1,0,0.1,0.2,0.1,0.4c0.1,0.2,0,0,0.1-0.2c0.1-0.2,0.1,0,0.1,0.1c0,0.1-0.2,0.3-0.2,0.4   c-0.1,0.1,0.2,0.1,0.3,0.5c0.1,0.4-0.3,1.1-0.2,1.4c0,0.3,0.2-0.1,0.4,0c0.2,0.1,0,0.7-0.2,1.1c-0.2,0.5-0.4,1.5-0.9,1.9   c-0.5,0.4-0.2,0.2-0.2,0.6c-0.1,0.3,0,0.2-0.1,0.4c-0.2,0.2-0.1,0.4-0.2,0.7c-0.2,0.4-0.3,0.8-0.4,1.2c-0.1,0.4-0.2,1.2-0.2,1.4   c0.1,0.2,0.2-0.3,0.7-0.8c0.5-0.5,0.5-0.9,0.5-1c0.1-0.1,0.3-0.8,0.4-1.3c0.1-0.5,0.9-2.5,1.3-3c0.4-0.5,1.5-1.8,1.6-1.9   c0.1-0.2,0.3-0.1,0.4-0.1c0.2,0,0.2,0,0.5-0.1c0.3-0.1,0.5-0.4,0.6-0.5c0.1-0.1,0.6,0,0.7,0c0.1,0,0.4-0.1,0.6-0.2   c0.2-0.1,0.2,0,0.5-0.1c0.3-0.1,0-0.2,0.1-0.3c0.1-0.2,0,0,0.1-0.1c0.1-0.1,0.1-0.2,0.2-0.1c0.2,0,0,0,0.1,0c0.1,0,0.1-0.1,0.4-0.3   c0.2-0.2,0.1-0.1,0-0.2c0-0.1-0.3-0.3-0.2-0.4c0.1-0.1,0.4,0.1,0.5,0c0.1-0.1,0.2-0.2,0.4-0.4c0.2-0.2,0.2-0.3,0.1-0.6   c-0.1-0.3,0.5-0.5,0.5-0.7c0.1-0.2,0.2-0.3,0.2-0.5c0.1-0.2,0.3-0.3,0.5-0.6c0.2-0.3,0.4-0.6,0.8-0.7c0.4-0.1-0.4,0.4-0.6,0.9   c-0.2,0.5-0.2,0.2-0.4,0.4c-0.2,0.2-0.1,0.2,0,0.4c0.1,0.3,0.3-0.1,0.4-0.2c0.1-0.1,0.3-0.2,0.4-0.4c0.1-0.2,0.2-0.4,0.3-0.5   c0.1-0.2,0.2,0.2,0.2,0.3c0,0.1,0.1,0,0.4-0.1c0.3-0.1,0.8-0.7,0.8-0.8c0.1-0.1,0.3-0.4,0.5-0.4c0.2,0,0.2,0.2,0.4,0.3   c0.2,0.1,0.2,0,0.2-0.2c-0.1-0.2-0.4-0.2-0.4-0.3c0-0.2,0.3-0.1,0.6-0.1c0.3,0,0.5,0.4,0.8,0.4c0.2,0,0.2-0.1,0.3,0   c0.1,0,0.2,0.2,0.4,0.3c0.3,0,0.1-0.2,0.1-0.3c0-0.1,0.1-0.2,0.2-0.5c0.1-0.3,0.1-0.3,0.2-0.3c0.2-0.1,0.2-0.1,0.3-0.3   c0.1-0.2,0.9-0.8,0.9-0.8s0.5-0.1,0.7,0.1c0.2,0.2,0.4-0.2,0.5-0.3c0.1-0.1,0.3,0,0.3,0.2c0,0.2,0.3,0,0.8,0c0.4,0,0.5-0.3,0.6-0.3   c0.1-0.1,0.2,0.1,0.5,0.2c0.3,0.1,0.2,0,0.6,0c0.4,0,0.4,0,0.6,0c0.3,0-0.2,0.2-0.3,0.4c-0.1,0.2,0.3,0.2,0.4,0.3   c0.2,0.1,0,0.2-0.2,0.2c-0.3,0-0.3,0.1-0.3-0.2c0-0.3-0.6-0.2-1.1,0c-0.5,0.1-1,0.9-1,1.2c0,0.3,0.1,0.1,0.4,0   c0.3-0.1,0.3-0.2,0.5-0.3c0.2-0.1,0.4-0.2,0.4-0.2s0.4,0.2,0.5,0.3c0.1,0.2,0.2,0,0.2-0.2c0-0.1,1,0.2,1.2,0.2   c0.2,0,0.4-0.1,0.3-0.2c-0.1-0.1,0.1-0.1,0.2-0.2c0.2-0.1,0,0,0.3,0c0.3,0,0.3,0,0.5,0c0.2,0,0.3,0,0.4-0.1   c0.2-0.1,0.2-0.1,0.2-0.3c0-0.2-0.1-0.1-0.3-0.2c-0.2-0.1,0.1-0.1,0.4-0.4c0.3-0.2,0.2-0.3,0.2-0.5c0-0.3,0,0-0.2,0.1   c-0.2,0.1-0.4,0.2-0.9,0.5c-0.5,0.3-0.2,0.3-0.3,0.4c-0.1,0.2-0.5-0.1-0.5-0.2c-0.1-0.1-0.2,0-0.3-0.1c-0.1,0-0.1-0.4-0.1-0.4   s-0.3-0.3-0.3-0.4c0-0.1,0.2-0.2,0.2-0.3c0-0.1-0.3-0.1-0.4-0.2c-0.1-0.1,0.1-0.4,0.2-0.6c0.2-0.2,0-0.3,0.1-0.4   c0.1-0.2,0.1-0.2,0.3-0.3c0.2-0.1,0.5-0.5,0.6-0.6c0.1-0.2-0.2-0.1-0.3-0.2c-0.1-0.1-0.1-0.3-0.2-0.4c-0.1-0.1,0-0.3,0.1-0.3   c0.1,0,0.4,0.2,0.6,0.4c0.2,0.2,0.2,0.1,0.4,0.1c0.2,0,0.2-0.1,0.4-0.4c0.2-0.3,0.3-0.2,0.4-0.4c0.1-0.3-0.2-0.3-0.4-0.5   c-0.2-0.2-0.3-0.1-0.9-0.1c-0.6-0.1-0.5,0-0.7,0c-0.2,0-0.9,0.1-1.2,0.2c-0.3,0.1-0.5,0.3-1.2,0.5c-0.7,0.3-0.4,0.1-0.6,0   c-0.1-0.1,0.3-0.2,0.5-0.3c0.3-0.1,0.6-0.3,1.2-0.5c0.6-0.2,0.8-0.4,0.9-0.5c0.1,0,0.3-0.1,0.8-0.2c0.5-0.1,0.3,0.1,0.5,0.1   c0.2,0,0.2,0,0.4-0.3c0.2-0.3,0.8-0.3,1.1-0.3c0.3,0.1,0.7,0.4,1,0.8c0.2,0.3,0.5,0.3,0.8,0.8c0.3,0.5,0.5,0.3,1.1,0.2   c0.6,0,0.4-0.1,0.7-0.2c0.3-0.1,0.7-0.1,0.8-0.1c0.1-0.1,0.5-0.1,0.6-0.1c0.1,0,0.3,0.2,0.5,0.2c0.2,0,0.2-0.2,0.4-0.2   c0.2-0.1,0.5,0,0.8-0.1c0.3-0.1,0.3-0.4,0.3-0.5c0.1-0.2,0.2-0.3,0.4-0.4c0.2-0.1,0.1-0.4,0.2-0.5c0.1-0.1,0-0.3-0.1-0.4   c-0.1-0.1-0.3,0.1-0.5,0c-0.2-0.1,0.1-0.2,0.4-0.4c0.3-0.3,0.1-0.2,0.1-0.3c-0.1-0.2-0.5,0-0.8,0c-0.3,0-0.6,0.2-1,0.1   c-0.4-0.1,0.1-0.2,0.6-0.3c0.5-0.2,0.5-0.1,0.9-0.1c0.4,0,0.6,0,0.7-0.2c0.2-0.1-0.1-0.2-0.2-0.2c-0.2,0-0.1-0.1-0.1-0.4   c0-0.3-0.2-0.1-0.2-0.3c0-0.1,0.1-0.2,0-0.3c-0.1-0.1-0.6-0.2-0.2-0.3c0.4-0.2,0.3-0.2,0.3-0.4c0-0.2-0.1-0.4,0-0.5   c0.1-0.1,0-0.5,0.2-0.7c0.2-0.3,0.2-0.1,0.5-0.2c0.4-0.1,0.2-0.2,0.2-0.4c0-0.2,0-0.2,0.3-0.4c0.2-0.2,0.2-0.2,0.2-0.3   c0.1-0.2,0-0.3,0.2-0.4c0.1-0.1,0.4-0.2,0.5-0.3c0.2-0.1,0.1-0.6,0.2-1c0.1-0.4,0.5-0.6,0.7-0.9c0.2-0.3,0.1-0.2,0-0.3   c-0.1-0.1-0.4,0.2-0.6,0.2c-0.2,0-0.4,0.3-0.6,0.5c-0.2,0.2-0.8,0.3-1,0.4c-0.3,0.1-0.9,0-1.1-0.1c-0.2-0.1,0-0.2,0.1-0.3   c0.1-0.1,0.2-0.2,0.3-0.3c0.1-0.1,0-0.3,0-0.5c0-0.2,0.5-0.6,0.9-0.9c0.3-0.2,0.9-0.5,0.9-0.5c0.1,0,0.1-0.1,0.1-0.5   c0-0.4-0.2-0.1-0.2-0.3c0-0.2,0.1-0.2,0.2-0.3c0.1-0.1,0.2-0.4,0.6-0.8c0.4-0.4,0.2-0.3,0.1-0.4c0-0.1-0.2,0-0.5-0.1   c-0.4-0.1,0-0.3-0.2-0.3c-0.1-0.1,0.1-0.4,0-0.7c-0.1-0.3-0.7,0.3-0.8,0.4c-0.3,0.2-0.6,0.4-1,0.5c-0.3,0.1-0.4,0.3-0.6,0.6   c-0.2,0.3-0.8,0.6-1,0.6c-0.2,0-0.8,0.2-1.1,0.4c-0.3,0.2-0.6,0.9-0.8,1.3c-0.2,0.5-2.1,1.5-2.3,1.6c-0.3,0.1-1.6,0.1-1.8,0.1   c-0.3,0-0.5,0.7-0.7,0.8c-0.2,0.1-0.9,1-1.1,1.2c-0.2,0.3-0.6,0.5-0.8,0.5c-0.2,0-0.4,0.3-0.5,0.3s0-0.2,0-0.3   c0-0.1-0.4,0.2-0.5,0.2c-0.2-0.1,0.4-0.6,0.5-0.8c0.1-0.2,0.1-0.3,0.2-0.5c0.1-0.2,0.4-0.6,0.5-0.8c0.1-0.2,0.2-0.3,0.5-0.4   c0.3-0.2,0.8-0.6,1-0.9c0.2-0.2,0.5-0.4,0.6-0.5c0.2-0.1,0-0.2,0.1-0.5c0.1-0.3-0.1-0.2-0.3-0.5c-0.2-0.3,0.3-0.6,0.5-0.9   c0.2-0.3,0.2-0.4,0.2-0.7c0.1-0.2,0.2-0.2,0.4-0.3c0.1-0.1,0.1-0.3,0.2-0.6c0.1-0.3,0.3-0.6,0.4-0.9c0.1-0.3-0.1-0.1-0.3-0.3   s0.1-0.1,0.2-0.2c0.2-0.1,0.6-0.4,0.8-0.4c0.2-0.1,0.9-0.7,1-0.8c0.1-0.1-0.1-0.3,0-0.5c0.1-0.2,1.7-0.9,2.5-1.3   c0.9-0.4,2.3-0.5,2.4-0.5c0.1,0,0.3,0.1,0.5,0.1c0.2,0,0.3-0.3,0.3-0.4c0-0.1,0.5-0.5,0.6-0.6c0.1-0.1,0.3,0,0.2,0.1   c-0.1,0.1-0.3,0.6-0.2,0.7c0.1,0.1,0.2,0,0.4-0.1c0.2,0,0.2,0.1,0.1,0.2c0,0.1,0.7-0.2,0.7-0.2s0.2,0,0.5-0.2   c0.3-0.2,0.1-0.2,0.2-0.4c0.1-0.2,0.4-0.2,0.8-0.3c0.4-0.1-0.2,0.3-0.4,0.6c-0.2,0.3,0.6,0,0.7-0.1c0.1-0.1,0.3-0.1,0.6-0.2   c0.3-0.2,0.1,0.1,0.1,0.3c-0.1,0.2,0,0.1,0.2,0.3c0.2,0.2,0.4,0,0.8,0.1s0.5,0,0.7-0.1c0.2-0.1,0.4-0.5,0.7-0.8   c0.3-0.2,0.3-0.1,0.5,0c0.1,0.1,0.3-0.1,0.8-0.4c0.4-0.3,0.6-0.5,0.6-0.7c0-0.2-0.1-0.1-0.2-0.1c-0.1,0-0.4,0.2-0.7,0.4   c-0.3,0.2-0.3,0.1-0.3,0.1c-0.1,0-0.6,0.1-0.8,0.1c-0.2,0-0.2-0.1-0.1-0.2c0-0.1-0.6,0.2-0.9,0.4c-0.3,0.2-0.3,0-0.3-0.1   c-0.1-0.1,0.3-0.3,0.6-0.4c0.3-0.1,0.6-0.3,1.2-0.6c0.6-0.3,0.4-0.3,0.4-0.3s-1,0.4-1.2,0.1c-0.2-0.2,0.5-0.2,0.8-0.4   c0.3-0.1,0.5-0.1,0.6-0.2c0.1,0,0.1-0.1,0.2-0.4c0.1-0.3,0.5-0.2,0.7-0.2c0.2,0,0.5-0.2,0.9-0.4c0.4-0.2,0.8-0.4,1.3-0.6   c0.5-0.2,0.8-0.2,1.1-0.2c0.2,0,0.3,0.1,0.7,0.1c0.4-0.1,0.7-0.1,0.9-0.1c0.2,0,0.2-0.2,0.4-0.3c0.2-0.1,0.2-0.4,0.2-0.4   c-0.1,0-1,0-1.2,0.1c-0.2,0.1-1.1,0.3-1.2,0.3c-0.1,0.1-0.7,0.2-1,0.2c-0.3,0.1-1,0-1.3,0.2c-0.3,0.3-0.9,0.4-1.2,0.6   c-0.2,0.1-0.4,0.3-0.6,0.3c-0.2,0.1-0.4,0.2-0.6,0.3c-0.2,0.2-0.4,0.2-0.5,0.2c-0.2,0-0.2-0.1-0.4,0c-0.2,0-0.4,0.1-0.6,0.2   c-0.2,0.1-0.4,0.1-0.4,0.1s0-0.3,0.6-0.4c0.6-0.1,0.8-0.4,1.3-0.5c0.5-0.1,0.9-0.4,1-0.5c0.1-0.2,0.6-0.4-0.2-0.2   c-0.8,0.3-1,0.4-1.3,0.5c-0.2,0.1-0.5,0.1-0.6,0.2c-0.1,0.1-0.1-0.2-0.1-0.2s-0.2-0.1-0.2-0.2c0.1-0.1,0.1-0.2,0.4-0.4   c0.3-0.2,0.4-0.4,0.7-0.6c0.3-0.2,0.3-0.2,0.4-0.3c0.1-0.1,0.4-0.3,0.2-0.3c-0.1,0-0.3,0.1-0.5,0.2c-0.1,0.1-0.3,0.2-0.4,0.2   c-0.1,0-0.2-0.1-0.3,0c-0.2,0.1-0.3,0.2-0.5,0.3c-0.2,0-0.7,0.1-0.6,0c0.1-0.1,1.8-0.7,1.7-0.7c-0.1-0.1-0.2-0.3,0.1-0.6   c0.4-0.3,0.5-0.5,1-0.5c0.4,0,0.9-0.1,1-0.2c0.1-0.1-0.3-0.2,0.4-0.4c0.5-0.2,0.9-0.4,1.3-0.8c0.2-0.2,0.3-0.3,0.5-0.4   c0.2-0.1,0.7-0.3,1-0.4c0.2-0.1-0.1,0.2,0.6-0.4c0.7-0.6,0.6-0.8,1-0.9c0.4-0.2,3.9-1.2,5-1.5c1-0.3,1.3-0.3,1.8-0.4   c0.5-0.1,1.5-0.3,2.1-0.4c0.2,0,0.5-0.1,0.7-0.1C311.5,4.5,290.2,20.2,279.1,41.9" fill="#542D00"  />
	
	
	
	
	
	
</g><g><path d="M64,167.7l-0.1,1.6c-1.6-0.1-3.1-0.1-4.7-0.1c0,1.5,0,3.4,0,5.6c0,2.5,0,5.1,0.1,7.9h-2.1   c0.1-2.6,0.1-5.3,0.1-7.9c0-2.2,0-4.1-0.1-5.6c-1.1,0-2.7,0.1-4.8,0.1l0.1-1.7L64,167.7C64,167.6,64,167.7,64,167.7z M77.1,182.7   H75c0.2-2,0.3-4.2,0.3-6.5c0-1.2-0.2-2.1-0.7-2.5c-0.5-0.4-1.1-0.7-1.9-0.7c-1.2,0-2.2,0.4-3.2,1.2c0,4.2,0,7,0.1,8.5h-2   c0.1-2,0.1-4.9,0.1-8.6c0-3.3-0.1-5.8-0.3-7.6l2.2-0.1c-0.1,2.3-0.1,4.5-0.1,6.5h0.1c1.2-1,2.4-1.5,3.8-1.5c1.2,0,2.2,0.3,2.9,0.9   c0.7,0.6,1,1.6,1,3c0,0.2,0,0.4,0,0.9c0,0.4,0,0.8,0,1.1C77,178.3,77,180.1,77.1,182.7L77.1,182.7z M91.1,175.9c0,0.3,0,0.8,0,1.3   l-7.9,0.1c0.1,1.1,0.5,2.1,1.3,2.8c0.8,0.8,1.8,1.1,3.1,1.1c1.1,0,2.2-0.1,3.3-0.4l-0.2,1.6c-0.8,0.3-1.8,0.5-3.3,0.5   c-2,0-3.5-0.5-4.6-1.6c-1-1.1-1.6-2.4-1.6-4c0-1.7,0.5-3.1,1.4-4.3c1-1.2,2.2-1.8,3.9-1.8c1.5,0,2.6,0.4,3.4,1.3   C90.7,173.4,91.1,174.5,91.1,175.9z M89.2,175.9c0-2.2-0.9-3.2-2.7-3.2c-1.8,0-2.9,1.1-3.3,3.4L89.2,175.9z M104.8,182.7h-2.2   c0.1-2.5,0.2-5.1,0.2-7.9c0-2.7-0.1-5.1-0.2-7.1h2.2c-0.1,2.4-0.2,4.8-0.2,7.1C104.7,177.6,104.7,180.2,104.8,182.7z M119.9,182.7   h-2.1c0.2-2,0.3-4.2,0.3-6.6c0-1.2-0.2-2-0.7-2.4c-0.5-0.4-1.2-0.7-2.1-0.7c-1.1,0-2.1,0.4-3,1.2c0,2.6,0,5.5,0,8.5h-2.1   c0.1-2.6,0.2-4.5,0.2-5.7c0-1.8-0.2-3.5-0.5-5.2l2-0.3l0.2,1.4h0.1c1.1-1,2.4-1.5,3.7-1.5c1.3,0,2.3,0.3,3,0.8   c0.7,0.6,1.1,1.6,1.1,3c0,0.1,0,0.4,0,0.9c0,0.4,0,0.7,0,0.9C119.8,178.2,119.8,180.1,119.9,182.7L119.9,182.7z M130.8,181.1   l-0.1,1.5c-0.5,0.2-1.1,0.3-1.7,0.3c-1.4,0-2.3-0.4-2.8-1.1c-0.5-0.7-0.8-2-0.8-3.8c0-1.2,0-2.7,0-4.6c-0.4,0-1.1,0-1.9,0.1   l0.1-1.7c0.7,0,1.4,0.1,2,0.1c0-0.5,0-1.6,0.1-3.3l1.8-0.2c-0.1,1.6-0.2,2.8-0.2,3.5c0.8,0,1.9,0,3.3-0.1l-0.1,1.7   c-1.1,0-2.2-0.1-3.3-0.1c0,1.2,0,2.5,0,3.9c0,1.6,0.2,2.6,0.5,3.1c0.3,0.5,1,0.8,1.9,0.8C129.7,181.3,130.2,181.2,130.8,181.1   L130.8,181.1z M143.9,175.9c0,0.3,0,0.8,0,1.3l-7.9,0.1c0.1,1.1,0.5,2.1,1.3,2.8c0.8,0.8,1.8,1.1,3.1,1.1c1.2,0,2.3-0.1,3.3-0.4   l-0.2,1.6c-0.8,0.3-1.8,0.5-3.3,0.5c-2,0-3.5-0.5-4.6-1.6c-1.1-1.1-1.6-2.4-1.6-4c0-1.7,0.5-3.1,1.4-4.3c1-1.2,2.2-1.8,3.9-1.8   c1.5,0,2.6,0.4,3.4,1.3C143.5,173.4,143.9,174.5,143.9,175.9z M142,175.9c0-2.2-0.9-3.2-2.7-3.2c-1.8,0-2.9,1.1-3.3,3.4L142,175.9z    M155.1,171.7l-0.5,1.8c-0.5-0.2-1.1-0.3-1.7-0.4c-1.4,0-2.4,0.7-2.8,2.1c0,3.5,0,6,0.1,7.4h-2c0.1-2.4,0.2-4.3,0.2-5.7   c0-1.8-0.2-3.6-0.5-5.2l2-0.3c0.1,0.8,0.2,1.4,0.2,1.7h0.1c0.8-1.2,1.8-1.8,2.9-1.8C153.6,171.3,154.3,171.5,155.1,171.7z    M167.8,182.7h-2.1c0.2-2,0.3-4.2,0.3-6.6c0-1.2-0.2-2-0.7-2.4c-0.5-0.4-1.2-0.7-2.1-0.7c-1.1,0-2.1,0.4-3,1.2c0,2.6,0,5.5,0,8.5   h-2.1c0.1-2.6,0.2-4.5,0.2-5.7c0-1.8-0.2-3.5-0.5-5.2l2-0.3l0.2,1.4h0.1c1.1-1,2.4-1.5,3.7-1.5c1.3,0,2.3,0.3,3,0.8   c0.7,0.6,1,1.6,1,3c0,0.1,0,0.4,0,0.9c0,0.4,0,0.7,0,0.9C167.8,178.2,167.8,180.1,167.8,182.7L167.8,182.7z M181.1,182.7l-1.8,0.1   c-0.1-0.4-0.1-0.7-0.1-1.1H179c-0.9,0.9-2.2,1.3-3.9,1.3c-0.9,0-1.6-0.3-2.3-0.8c-0.6-0.5-1-1.3-1-2.2c0-1.2,0.5-2.1,1.5-2.9   c1-0.7,2.9-1.1,5.6-1.1c0-0.2,0-0.4,0-0.6c0-0.9-0.3-1.6-0.8-1.9c-0.5-0.3-1.3-0.5-2.3-0.5c-1.2,0-2.4,0.1-3.6,0.4l0.2-1.6   c1.2-0.3,2.5-0.5,4-0.5c1.4,0,2.4,0.3,3.2,0.9c0.7,0.6,1.1,1.5,1.1,2.9c0,0.4,0,1-0.1,2c0,0.6,0,1.3-0.1,1.9   C180.8,180.3,180.9,181.6,181.1,182.7L181.1,182.7z M179.1,180.4c0-1-0.1-2.1-0.1-3.1c-1.4,0-2.5,0.1-3.3,0.3   c-1.3,0.4-1.9,1.1-1.9,2.2c0,1,0.7,1.6,2.2,1.6C177.3,181.4,178.3,181.1,179.1,180.4L179.1,180.4z M191.9,181.1l-0.1,1.5   c-0.5,0.2-1.1,0.3-1.7,0.3c-1.4,0-2.3-0.4-2.8-1.1c-0.5-0.7-0.8-2-0.8-3.8c0-1.2,0-2.7,0-4.6c-0.4,0-1.1,0-1.9,0.1l0.1-1.7   c0.7,0,1.4,0.1,2,0.1c0-0.5,0-1.6,0.1-3.3l1.8-0.2c-0.1,1.6-0.2,2.8-0.2,3.5c0.8,0,1.9,0,3.3-0.1l-0.1,1.7c-1.1,0-2.2-0.1-3.3-0.1   c0,1.2,0,2.5,0,3.9c0,1.6,0.2,2.6,0.5,3.1c0.3,0.5,1,0.8,1.9,0.8C190.9,181.3,191.3,181.2,191.9,181.1L191.9,181.1z M197.7,182.7   h-2.1c0.1-1.5,0.2-3.3,0.2-5.3c0-2.2-0.1-4.1-0.4-5.6l2.3-0.3c-0.1,2-0.1,3.9-0.1,5.9C197.5,179.2,197.6,181,197.7,182.7z    M198.2,168.3c0,0.4-0.1,0.7-0.4,1c-0.3,0.3-0.6,0.4-1.1,0.4c-0.4,0-0.7-0.1-0.9-0.4c-0.2-0.2-0.3-0.6-0.3-0.9c0-0.4,0.1-0.7,0.4-1   c0.3-0.3,0.6-0.4,1.1-0.4c0.3,0,0.7,0.1,0.9,0.4C198.1,167.6,198.2,167.9,198.2,168.3z M212.8,176.9c0,2-0.6,3.5-1.7,4.6   c-1.1,1.1-2.5,1.7-4,1.7c-1.4,0-2.7-0.5-3.7-1.5c-1-1-1.5-2.4-1.5-4.1c0-2,0.6-3.5,1.7-4.7c1.1-1.1,2.5-1.7,4-1.7   c1.4,0,2.7,0.5,3.7,1.5C212.3,173.7,212.8,175.1,212.8,176.9z M210.8,177.3c0-1.2-0.3-2.3-0.9-3.2c-0.6-0.9-1.5-1.4-2.6-1.4   c-1.1,0-2,0.4-2.6,1.3c-0.6,0.9-0.9,1.9-0.9,3.1c0,1.2,0.3,2.3,0.9,3.2c0.6,0.9,1.5,1.4,2.6,1.4c1.1,0,2-0.4,2.5-1.3   C210.5,179.4,210.8,178.4,210.8,177.3z M226.8,182.7h-2.1c0.2-2.2,0.3-4.4,0.3-6.6c0-1.2-0.2-2-0.7-2.4c-0.5-0.4-1.2-0.7-2.1-0.7   c-1.1,0-2.1,0.4-3,1.2c0,2.6,0,5.5,0,8.5h-2.1c0.1-2.6,0.2-4.5,0.2-5.7c0-1.8-0.2-3.5-0.5-5.2l2-0.3l0.2,1.4h0.1   c1.1-1,2.4-1.5,3.7-1.5c1.3,0,2.3,0.3,3,0.8c0.7,0.6,1,1.6,1,3c0,0.1,0,0.4,0,0.9c0,0.4,0,0.7,0,0.9   C226.8,178.2,226.8,180.1,226.8,182.7L226.8,182.7z M240.1,182.7l-1.8,0.1c-0.1-0.4-0.1-0.7-0.1-1.1H238c-0.9,0.9-2.2,1.3-3.9,1.3   c-0.9,0-1.6-0.3-2.3-0.8c-0.6-0.5-1-1.3-1-2.2c0-1.2,0.5-2.1,1.5-2.9c1-0.7,2.9-1.1,5.6-1.1c0-0.2,0-0.4,0-0.6   c0-0.9-0.3-1.6-0.8-1.9c-0.5-0.3-1.3-0.5-2.3-0.5c-1.2,0-2.4,0.1-3.6,0.4l0.2-1.6c1.2-0.3,2.5-0.5,4-0.5c1.4,0,2.4,0.3,3.2,0.9   c0.7,0.6,1.1,1.5,1.1,2.9c0,0.4,0,1-0.1,2c0,0.6,0,1.3-0.1,1.9C239.8,180.3,239.9,181.6,240.1,182.7L240.1,182.7z M238,180.4   c0-1-0.1-2.1-0.1-3.1c-1.4,0-2.5,0.1-3.3,0.3c-1.3,0.4-1.9,1.1-1.9,2.2c0,1,0.7,1.6,2.2,1.6C236.3,181.4,237.3,181.1,238,180.4   L238,180.4z M246.8,182.7h-2.2c0.1-2.5,0.2-5.4,0.2-8.6c0-3.1-0.1-5.6-0.3-7.6l2.3-0.1c-0.1,2.1-0.2,4.7-0.2,7.7   C246.6,177.2,246.6,180.1,246.8,182.7z M270.4,182.7h-1.6c0-0.1-1.3-2-3.8-5.5c-2.6-3.7-4.1-6.1-4.5-7.1h-0.1   c0.1,1.9,0.2,3.4,0.2,4.8c0,2.6,0.1,5.2,0.2,7.8h-1.9c0.1-2.5,0.2-5.1,0.2-7.9c0-2.4-0.1-4.8-0.2-7.1h2.2c0,0.2,1.2,2,3.5,5.3   c2.4,3.5,3.8,5.7,4.1,6.8h0.1c-0.1-1.6-0.2-3.2-0.2-4.8c0-2.8-0.1-5.3-0.2-7.2h2c-0.1,2.4-0.2,4.8-0.2,7.1   C270.2,177.5,270.3,180.2,270.4,182.7L270.4,182.7z M285.1,175.9c0,0.3,0,0.8,0,1.3l-7.9,0.1c0.1,1.1,0.5,2.1,1.3,2.8   c0.8,0.8,1.8,1.1,3.1,1.1c1.2,0,2.3-0.1,3.3-0.4l-0.2,1.6c-0.8,0.3-1.8,0.5-3.3,0.5c-2,0-3.5-0.5-4.6-1.6c-1.1-1.1-1.6-2.4-1.6-4   c0-1.7,0.5-3.1,1.4-4.3c1-1.2,2.2-1.8,3.9-1.8c1.5,0,2.6,0.4,3.4,1.3C284.7,173.4,285.1,174.5,285.1,175.9L285.1,175.9z    M283.2,175.9c0-2.2-0.9-3.2-2.7-3.2c-1.8,0-2.9,1.1-3.3,3.4L283.2,175.9z M295.7,181.1l-0.1,1.5c-0.5,0.2-1.1,0.3-1.7,0.3   c-1.4,0-2.3-0.4-2.8-1.1c-0.5-0.7-0.8-2-0.8-3.8c0-1.2,0-2.7,0-4.6c-0.4,0-1.1,0-1.9,0.1l0.1-1.7c0.7,0,1.4,0.1,2,0.1   c0-0.5,0-1.6,0.1-3.3l1.8-0.2c-0.1,1.6-0.2,2.8-0.2,3.5c0.8,0,1.9,0,3.3-0.1l-0.1,1.7c-1.1,0-2.2-0.1-3.3-0.1c0,1.2,0,2.5,0,3.9   c0,1.6,0.2,2.6,0.5,3.1c0.3,0.5,1,0.8,1.9,0.8C294.6,181.3,295.1,181.2,295.7,181.1L295.7,181.1z M315.4,171.7c0,0.5-0.7,2.3-2,5.4   c-1.3,3.2-2,5-2,5.5h-1.6c0-0.3-0.4-1.4-1.2-3.4c-1-2.4-1.6-4.3-2-5.6h-0.1c-0.4,1.3-1,3.2-1.9,5.6c-0.7,1.9-1.1,3-1.1,3.3h-1.6   c0-0.4-0.6-2.3-1.9-5.5c-1.2-3.2-1.9-5-1.9-5.4h2.1c0,0.4,0.4,1.9,1.3,4.4c0.9,2.5,1.3,4,1.3,4.4h0.1c0-0.6,0.5-2.2,1.4-4.6   c0.9-2.4,1.4-3.8,1.4-4.2h2c0,0.4,0.5,1.8,1.4,4.4c1,2.6,1.4,4,1.4,4.4h0.1c0-0.5,0.4-1.9,1.3-4.3c0.8-2.4,1.2-3.9,1.2-4.5   L315.4,171.7L315.4,171.7L315.4,171.7z M329.6,176.9c0,2-0.6,3.5-1.7,4.6c-1.1,1.1-2.5,1.7-4,1.7c-1.4,0-2.7-0.5-3.7-1.5   c-1-1-1.5-2.4-1.5-4.1c0-2,0.6-3.5,1.7-4.7c1.1-1.1,2.5-1.7,4-1.7c1.4,0,2.7,0.5,3.7,1.5C329,173.7,329.6,175.1,329.6,176.9z    M327.6,177.3c0-1.2-0.3-2.3-0.9-3.2c-0.6-0.9-1.5-1.4-2.6-1.4c-1.1,0-2,0.4-2.6,1.3c-0.6,0.9-0.9,1.9-0.9,3.1   c0,1.2,0.3,2.3,0.9,3.2c0.6,0.9,1.5,1.4,2.6,1.4c1.1,0,2-0.4,2.5-1.3C327.3,179.4,327.6,178.4,327.6,177.3z M340.7,171.7l-0.5,1.8   c-0.5-0.2-1.1-0.3-1.7-0.4c-1.4,0-2.4,0.7-2.8,2.1c0,3.5,0,6,0.1,7.4h-2c0.1-2.4,0.2-4.3,0.2-5.7c0-1.8-0.2-3.6-0.5-5.2l2-0.3   c0.1,0.8,0.2,1.4,0.2,1.7h0.1c0.8-1.2,1.8-1.8,2.9-1.8C339.2,171.3,339.9,171.5,340.7,171.7L340.7,171.7z M353.6,182.7h-2.7   c0-0.3-0.7-1.3-2.2-3.1c-1.5-1.8-2.5-2.8-2.9-2.8h-0.1c0,1.6,0,3.6,0.1,5.8h-2c0.1-2.8,0.2-5.7,0.2-8.6c0-3-0.1-5.5-0.3-7.6   l2.2-0.1c-0.1,1.7-0.1,4.9-0.1,9.7h0.1c0.3,0,1.1-0.6,2.4-1.9c1.3-1.3,2-2.1,2-2.3h2.5c0,0.2-0.6,0.9-1.8,1.9c-1,0.9-2,1.6-3.1,2.4   v0.1c1,0.7,2.2,2,3.7,3.7C352.9,181.5,353.6,182.4,353.6,182.7L353.6,182.7z M374,176.9c0,2-0.6,3.5-1.7,4.6   c-1.1,1.1-2.5,1.7-4,1.7c-1.4,0-2.7-0.5-3.7-1.5c-1-1-1.5-2.4-1.5-4.1c0-2,0.6-3.5,1.7-4.7c1.1-1.1,2.5-1.7,4-1.7   c1.4,0,2.7,0.5,3.7,1.5C373.5,173.7,374,175.1,374,176.9z M372,177.3c0-1.2-0.3-2.3-0.9-3.2c-0.6-0.9-1.5-1.4-2.6-1.4   c-1.1,0-2,0.4-2.6,1.3c-0.6,0.9-0.9,1.9-0.9,3.1c0,1.2,0.3,2.3,0.9,3.2c0.6,0.9,1.5,1.4,2.6,1.4c1.1,0,2-0.4,2.5-1.3   C371.7,179.4,372,178.4,372,177.3L372,177.3z M384.7,166.3l-0.3,1.5c-0.5-0.1-0.9-0.2-1.4-0.2c-0.7,0-1.2,0.3-1.4,0.8   c-0.2,0.6-0.4,1.7-0.4,3.5c0.8,0,1.8,0,3.2-0.1l-0.1,1.7c-1,0-2.1-0.1-3.1-0.1c0,3.5,0,6.6,0.1,9.2h-2.1c0.1-2.6,0.2-5.6,0.2-9.2   c-0.5,0-1.3,0-2.5,0.1l0.1-1.7c0.8,0,1.6,0.1,2.4,0.1c0-2,0.3-3.5,0.9-4.4c0.6-0.9,1.5-1.4,2.7-1.4   C383.5,166.1,384.1,166.2,384.7,166.3L384.7,166.3z M408.2,174.9c0,2.5-0.7,4.5-2.2,6c-1.5,1.5-3.1,2.2-5,2.2   c-1.8,0-3.4-0.7-4.8-2.1c-1.4-1.4-2.1-3.2-2.1-5.5c0-2.5,0.7-4.5,2.2-6c1.5-1.5,3.1-2.2,5-2.2c1.8,0,3.4,0.7,4.8,2   C407.5,170.8,408.2,172.6,408.2,174.9L408.2,174.9z M406.1,175.2c0-2-0.5-3.5-1.6-4.6c-1-1.1-2.2-1.6-3.6-1.6   c-1.3,0-2.4,0.6-3.4,1.7c-1,1.1-1.5,2.7-1.5,4.6c0,2,0.5,3.5,1.6,4.6c1,1.1,2.2,1.6,3.6,1.6c1.3,0,2.4-0.6,3.4-1.7   C405.7,178.6,406.1,177.1,406.1,175.2L406.1,175.2z M422.9,176.7c0,1.7-0.5,3.1-1.4,4.4c-1,1.2-2.3,1.9-3.9,1.9   c-1.4,0-2.4-0.3-2.9-0.8h-0.1l-0.3,0.4h-1.7c0.1-2.7,0.2-5.5,0.2-8.6c0-2.8-0.1-5.3-0.4-7.6l2.3-0.1c-0.1,1.3-0.1,3.4-0.1,6.3h0.1   c0.8-0.9,2-1.3,3.6-1.3c1.4,0,2.6,0.5,3.4,1.6C422.4,174,422.9,175.2,422.9,176.7L422.9,176.7z M420.8,177c0-1.2-0.3-2.1-0.9-2.9   c-0.6-0.8-1.4-1.2-2.5-1.2c-1.4,0-2.4,0.4-3,1.3c0,2.7,0.1,5,0.2,6.7c0.6,0.5,1.4,0.8,2.4,0.8c1.3,0,2.2-0.4,2.8-1.3   C420.5,179.4,420.8,178.3,420.8,177L420.8,177z M434.4,179.5c0,2.2-1.4,3.4-4.3,3.4c-1.3,0-2.4-0.1-3.5-0.4l0.4-1.7   c1,0.4,2.1,0.6,3.3,0.6c1.7,0,2.5-0.5,2.5-1.4c0-0.4-0.2-0.9-0.6-1.1c-0.4-0.3-1-0.6-1.8-0.9c-1.1-0.4-1.9-0.9-2.4-1.2   c-0.7-0.6-1.1-1.3-1.1-2.1c0-0.9,0.3-1.6,1-2.3c0.7-0.6,1.7-0.9,3-0.9c1.3,0,2.4,0.1,3.2,0.3l-0.4,1.7c-0.8-0.3-1.8-0.5-2.9-0.5   c-1.5,0-2.2,0.4-2.2,1.3c0,0.4,0.2,0.8,0.5,1c0.3,0.3,1,0.6,1.9,1c1,0.4,1.8,0.8,2.3,1.2C434,178,434.4,178.7,434.4,179.5   L434.4,179.5z M444.9,181.1l-0.1,1.5c-0.5,0.2-1.1,0.3-1.7,0.3c-1.4,0-2.3-0.4-2.8-1.1c-0.5-0.7-0.8-2-0.8-3.8c0-1.2,0-2.7,0-4.6   c-0.4,0-1.1,0-1.9,0.1l0.1-1.7c0.7,0,1.4,0.1,2,0.1c0-0.5,0-1.6,0.1-3.3l1.8-0.2c-0.1,1.6-0.2,2.8-0.2,3.5c0.8,0,1.9,0,3.3-0.1   l-0.1,1.7c-1.1,0-2.2-0.1-3.3-0.1c0,1.2,0,2.5,0,3.9c0,1.6,0.2,2.6,0.5,3.1c0.3,0.5,1,0.8,1.9,0.8   C443.8,181.3,444.3,181.2,444.9,181.1L444.9,181.1z M458,175.9c0,0.3,0,0.8,0,1.3l-7.9,0.1c0.1,1.1,0.5,2.1,1.3,2.8   c0.8,0.8,1.8,1.1,3.1,1.1c1.2,0,2.3-0.1,3.3-0.4l-0.2,1.6c-0.8,0.3-1.8,0.5-3.3,0.5c-2,0-3.5-0.5-4.6-1.6c-1-1.1-1.6-2.4-1.6-4   c0-1.7,0.5-3.1,1.4-4.3c1-1.2,2.2-1.8,3.9-1.8c1.5,0,2.6,0.4,3.4,1.3C457.7,173.4,458,174.5,458,175.9L458,175.9z M456.1,175.9   c0-2.2-0.9-3.2-2.7-3.2c-1.8,0-2.9,1.1-3.3,3.4L456.1,175.9z M468.6,181.1l-0.1,1.5c-0.5,0.2-1.1,0.3-1.7,0.3   c-1.4,0-2.3-0.4-2.8-1.1c-0.5-0.7-0.8-2-0.8-3.8c0-1.2,0-2.7,0-4.6c-0.4,0-1.1,0-1.9,0.1l0.1-1.7c0.7,0,1.4,0.1,2,0.1   c0-0.5,0-1.6,0.1-3.3l1.8-0.2c-0.1,1.6-0.2,2.8-0.2,3.5c0.8,0,1.9,0,3.3-0.1l-0.1,1.7c-1.1,0-2.2-0.1-3.3-0.1c0,1.2,0,2.5,0,3.9   c0,1.6,0.2,2.6,0.5,3.1c0.3,0.5,1,0.8,1.9,0.8C467.5,181.3,468,181.2,468.6,181.1L468.6,181.1z M479.3,171.7l-0.5,1.8   c-0.5-0.2-1.1-0.3-1.7-0.4c-1.4,0-2.4,0.7-2.8,2.1c0,3.5,0,6,0.1,7.4h-2c0.1-2.4,0.2-4.3,0.2-5.7c0-1.8-0.2-3.6-0.5-5.2l2-0.3   c0.2,0.8,0.2,1.4,0.2,1.7h0.1c0.8-1.2,1.8-1.8,2.9-1.8C477.7,171.3,478.4,171.5,479.3,171.7L479.3,171.7z M484.3,182.7h-2.1   c0.1-1.8,0.2-3.5,0.2-5.3c0-2.2-0.1-4.1-0.4-5.6l2.3-0.3c-0.1,2-0.1,3.9-0.1,5.9C484.1,179.2,484.2,181,484.3,182.7z M484.8,168.3   c0,0.4-0.1,0.7-0.4,1c-0.3,0.3-0.6,0.4-1.1,0.4c-0.4,0-0.7-0.1-0.9-0.4c-0.2-0.2-0.3-0.6-0.3-0.9c0-0.4,0.1-0.7,0.4-1   c0.3-0.3,0.6-0.4,1.1-0.4c0.4,0,0.7,0.1,0.9,0.4C484.7,167.6,484.8,167.9,484.8,168.3z M497.3,180.9l-0.1,1.5   c-0.6,0.4-1.5,0.5-2.5,0.5c-2,0-3.5-0.6-4.6-1.6c-1.1-1.1-1.6-2.4-1.6-4c0-1.6,0.6-3.1,1.7-4.2c1.1-1.2,2.6-1.8,4.4-1.8   c0.9,0,1.7,0.1,2.2,0.3l-0.3,1.8c-0.8-0.3-1.6-0.4-2.5-0.4c-1.1,0-2,0.4-2.6,1.1c-0.7,0.8-1,1.7-1,2.9c0,1.2,0.4,2.3,1.2,3.1   c0.8,0.8,1.9,1.2,3.3,1.2C495.5,181.3,496.3,181.2,497.3,180.9z M517.2,178.8c0,2.8-2,4.3-5.9,4.3c-1.5,0-2.7-0.2-3.9-0.5l0.4-1.8   c1.3,0.4,2.5,0.7,3.7,0.7c2.6,0,3.9-0.7,3.9-2.2c0-0.7-0.3-1.4-1-1.9c-0.5-0.4-1.3-0.8-2.7-1.4c-1.4-0.6-2.4-1.2-2.9-1.7   c-0.8-0.7-1.2-1.6-1.2-2.7c0-1.1,0.4-2.1,1.2-2.8c0.9-0.8,2.1-1.2,3.7-1.2c1.8,0,3.1,0.1,3.8,0.4l-0.3,1.8   c-1.2-0.4-2.5-0.6-3.7-0.6c-2,0-3,0.7-3,2c0,0.6,0.3,1.2,0.9,1.6c0.4,0.3,1.2,0.7,2.4,1.2c1.4,0.6,2.5,1.2,3.1,1.8   C516.8,176.5,517.2,177.6,517.2,178.8L517.2,178.8z M531.2,182.7l-1.8,0.1c-0.1-0.3-0.2-0.7-0.2-1.1h-0.1c-1,0.9-2.3,1.3-3.7,1.3   c-1.3,0-2.3-0.3-2.9-1c-0.6-0.6-0.9-1.9-0.9-3.9c0-0.3,0-0.7,0-1.2c0-0.5,0-0.9,0-1.1c0-1.1-0.1-2.5-0.2-4l2.1-0.1   c-0.1,1.3-0.1,2.5-0.1,3.8c0,2.4,0.2,4,0.5,4.7c0.3,0.7,1,1.1,2.1,1.1c1.2,0,2.2-0.3,3-0.9c0-4.3,0-7.1-0.1-8.6l2.1-0.1   c-0.1,1.5-0.1,3.4-0.1,6C530.9,179.3,531,181,531.2,182.7L531.2,182.7z M542.6,171.7l-0.5,1.8c-0.6-0.2-1.2-0.4-1.7-0.4   c-1.4,0-2.4,0.7-2.8,2.1c0,3.5,0,6,0.1,7.4h-2c0.1-2.4,0.2-4.3,0.2-5.7c0-1.8-0.2-3.6-0.5-5.2l2-0.3c0.2,0.8,0.2,1.4,0.2,1.7h0.1   c0.8-1.2,1.8-1.8,2.9-1.8C541.1,171.3,541.8,171.5,542.6,171.7L542.6,171.7z M554.9,171.7c0,0.4-0.8,2.2-2.3,5.4   c-1.6,3.2-2.3,5.1-2.3,5.5h-1.5c0-0.5-0.7-2.4-2.1-5.6c-1.4-3.2-2.1-5-2.1-5.3h2.2c0,0.4,0.5,1.8,1.5,4.4c1,2.6,1.5,4,1.5,4.4h0.1   c0-0.4,0.5-1.8,1.4-4.2c0.9-2.5,1.4-4,1.4-4.5L554.9,171.7L554.9,171.7z M568,175.9c0,0.3,0,0.8-0.1,1.3l-7.9,0.1   c0.1,1.1,0.5,2.1,1.3,2.8c0.8,0.8,1.8,1.1,3.1,1.1c1.2,0,2.3-0.1,3.3-0.4l-0.2,1.6c-0.8,0.3-1.8,0.5-3.3,0.5c-2,0-3.5-0.5-4.6-1.6   c-1-1.1-1.6-2.4-1.6-4c0-1.7,0.5-3.1,1.4-4.3c1-1.2,2.2-1.8,3.9-1.8c1.5,0,2.6,0.4,3.4,1.3C567.6,173.4,568,174.5,568,175.9z    M566,175.9c0-2.2-0.9-3.2-2.7-3.2c-1.8,0-2.9,1.1-3.3,3.4L566,175.9z M581.1,171.7c0,0.5-0.6,2.1-1.7,4.7c-1.3,3-2.2,5.2-2.5,6.4   c-0.5,2-1,3.3-1.5,3.8c-0.6,0.8-1.7,1.1-3.3,1.1l-0.1-1.6c1,0,1.8-0.3,2.4-1c0.6-0.7,1-1.5,1-2.5c0-0.9-0.7-2.9-2.1-6.1   c-1.4-3.2-2.1-4.8-2.1-4.9h2.4c0,0.2,0.5,1.6,1.5,4.2c1,2.6,1.5,4.2,1.5,4.8h0.1c0-0.5,0.4-2,1.2-4.3c0.8-2.4,1.2-3.9,1.2-4.6   L581.1,171.7L581.1,171.7z M600.8,178.8c0,2.8-2,4.3-5.9,4.3c-1.4,0-2.7-0.2-3.8-0.5l0.4-1.8c1.3,0.4,2.5,0.7,3.7,0.7   c2.6,0,3.9-0.7,3.9-2.2c0-0.7-0.3-1.4-1-1.9c-0.5-0.4-1.3-0.8-2.7-1.4c-1.4-0.6-2.4-1.2-2.9-1.7c-0.8-0.7-1.2-1.6-1.2-2.7   c0-1.1,0.4-2.1,1.2-2.8c0.9-0.8,2.1-1.2,3.7-1.2c1.8,0,3.1,0.1,3.8,0.4l-0.3,1.8c-1.2-0.4-2.5-0.6-3.7-0.6c-2,0-3,0.7-3,2   c0,0.6,0.3,1.2,0.9,1.6c0.4,0.3,1.2,0.7,2.4,1.2c1.4,0.6,2.5,1.2,3.1,1.8C600.3,176.5,600.8,177.6,600.8,178.8L600.8,178.8z    M614,171.7c0,0.5-0.6,2.1-1.7,4.7c-1.3,3-2.2,5.2-2.5,6.4c-0.5,2-1,3.3-1.5,3.8c-0.6,0.8-1.7,1.1-3.3,1.1l-0.1-1.6   c1,0,1.8-0.3,2.4-1c0.6-0.7,1-1.5,1-2.5c0-0.9-0.7-2.9-2.1-6.1c-1.4-3.2-2.1-4.8-2.1-4.9h2.4c0,0.2,0.5,1.6,1.5,4.2   c1,2.6,1.5,4.2,1.5,4.8h0.1c0-0.5,0.4-2,1.2-4.3c0.8-2.4,1.2-3.9,1.2-4.6L614,171.7L614,171.7z M624.9,179.5c0,2.2-1.4,3.4-4.3,3.4   c-1.3,0-2.5-0.1-3.5-0.4l0.4-1.7c1,0.4,2.1,0.6,3.3,0.6c1.7,0,2.5-0.5,2.5-1.4c0-0.4-0.2-0.9-0.6-1.1c-0.4-0.3-1-0.6-1.8-0.9   c-1.1-0.4-1.9-0.9-2.4-1.2c-0.7-0.6-1.1-1.3-1.1-2.1c0-0.9,0.3-1.6,1-2.3c0.7-0.6,1.7-0.9,3-0.9c1.3,0,2.4,0.1,3.2,0.3l-0.4,1.7   c-0.8-0.3-1.8-0.5-2.9-0.5c-1.5,0-2.2,0.4-2.2,1.3c0,0.4,0.2,0.8,0.5,1c0.3,0.3,1,0.6,1.9,1c1,0.4,1.8,0.8,2.3,1.2   C624.5,178,624.9,178.7,624.9,179.5L624.9,179.5z M635.3,181.1l-0.1,1.5c-0.6,0.2-1.1,0.3-1.7,0.3c-1.4,0-2.3-0.4-2.8-1.1   c-0.5-0.7-0.8-2-0.8-3.8c0-1.2,0-2.7,0-4.6c-0.4,0-1.1,0-1.9,0.1l0.1-1.7c0.7,0,1.4,0.1,2,0.1c0-0.5,0-1.6,0.1-3.3l1.8-0.2   c-0.1,1.6-0.2,2.8-0.2,3.5c0.8,0,1.9,0,3.3-0.1l-0.1,1.7c-1.1,0-2.2-0.1-3.3-0.1c0,1.2,0,2.5,0,3.9c0,1.6,0.2,2.6,0.5,3.1   c0.3,0.5,1,0.8,1.9,0.8C634.3,181.3,634.7,181.2,635.3,181.1L635.3,181.1z M648.5,175.9c0,0.3,0,0.8,0,1.3l-7.9,0.1   c0.1,1.1,0.5,2.1,1.3,2.8c0.8,0.8,1.8,1.1,3.1,1.1c1.2,0,2.3-0.1,3.3-0.4l-0.2,1.6c-0.8,0.3-1.8,0.5-3.3,0.5c-2,0-3.5-0.5-4.6-1.6   c-1-1.1-1.6-2.4-1.6-4c0-1.7,0.5-3.1,1.4-4.3c1-1.2,2.2-1.8,3.9-1.8c1.5,0,2.6,0.4,3.4,1.3C648.1,173.4,648.5,174.5,648.5,175.9z    M646.6,175.9c0-2.2-0.9-3.2-2.7-3.2c-1.8,0-2.9,1.1-3.3,3.4L646.6,175.9z M667.2,176c0-1.2-0.2-2-0.6-2.4   c-0.4-0.4-1.1-0.6-2.1-0.6c-0.8,0-1.7,0.4-2.5,1.2c0,0.9,0,1.8-0.1,2.8c0,1.3,0,3.2,0.1,5.7h-2.1c0.2-2.2,0.3-4.4,0.3-6.7   c0-1.2-0.2-2-0.6-2.4c-0.4-0.4-1.1-0.6-2-0.6c-1,0-1.9,0.4-2.7,1.2c0,2.4,0,5.3,0,8.5h-2.1c0.1-2.6,0.2-4.5,0.2-5.7   c0-1.8-0.2-3.5-0.5-5.2l2-0.3l0.2,1.4h0.1c1-1,2.1-1.5,3.3-1.5c1.8,0,3,0.5,3.5,1.5h0.1c1.2-1,2.3-1.5,3.4-1.5   c1.3,0,2.3,0.3,2.9,0.9c0.7,0.6,1,1.6,1,3c0,0.1,0,0.4,0,0.9c0,0.4,0,0.7,0,0.9c0,1.3,0,3.2,0,5.7h-2.1   C667.1,180.5,667.2,178.2,667.2,176L667.2,176z M680.9,179.5c0,2.2-1.4,3.4-4.3,3.4c-1.3,0-2.5-0.1-3.6-0.4l0.4-1.7   c1,0.4,2.1,0.6,3.3,0.6c1.7,0,2.5-0.5,2.5-1.4c0-0.4-0.2-0.9-0.6-1.1c-0.4-0.3-1-0.6-1.8-0.9c-1.1-0.4-1.9-0.9-2.4-1.2   c-0.7-0.6-1.1-1.3-1.1-2.1c0-0.9,0.3-1.6,1-2.3c0.7-0.6,1.7-0.9,3-0.9c1.3,0,2.4,0.1,3.2,0.3l-0.4,1.7c-0.8-0.3-1.8-0.5-2.9-0.5   c-1.5,0-2.2,0.4-2.2,1.3c0,0.4,0.2,0.8,0.5,1c0.3,0.3,1,0.6,1.9,1c1,0.4,1.8,0.8,2.3,1.2C680.6,178,680.9,178.7,680.9,179.5z" fill="#542D00"  />
	
</g></svg>