<svg viewBox="0 0 588.2 283.5" role="img" aria-labelledby="neonatal-care--title" xmlns="http://www.w3.org/2000/svg" xmlns:xlink="http://www.w3.org/1999/xlink"><title id="neonatal-care--title">Delivery of Neonatal Care</title><path d="M319.7,8.8C298.9,1.1,278.1-1.6,259.6,1c-43.8,6.2-71.3,40.8-70.1,88c0.9,35.9,15.2,68.1,39.3,88.4  c20,16.9,45.2,24.3,70.9,20.6c25.9-3.7,52.5-13,74.8-26.3c23.6-14.1,40.2-31.4,46.6-48.8C435.3,84.7,391.7,35.7,319.7,8.8L319.7,8.8  z M410.7,110.3c-10.7,28.9-59.3,57.9-108.7,64.9c-49.4,7-90.6-35-92.1-93.8c-1.5-58.8,47.2-87.9,108.7-64.9  C380.1,39.5,421.4,81.4,410.7,110.3L410.7,110.3z" fill="#588EC6"  /><path d="M385.9,99.6c-15.1,30-46.8,72.1-107.2,77.1c0,0-63.9,5.8-55.5-38.6c0,0,6.8-32.8,49.5-12.6  c0,0,60.9,30.6,108.1-29.2c0,0,2-2.8,4.4-1.1C385.2,95.2,387.4,96.8,385.9,99.6z" fill="#588EC6"  /><path d="M285.3,115.1c38.7,3.5,49.6-28.4,49.6-28.4c6.7-17.8,26-15.7,26-15.7c27.2,5.2-7.1,36.4-7.1,36.4  c-24.6,20-52.8,16.4-69.9,11.2c0,0-2.1-0.5-1.9-2.2C281.9,116.5,282,114.4,285.3,115.1L285.3,115.1z M377.9,38.4  c2.3,11.3-5,22.2-16.3,24.5c-11.3,2.3-22.2-5-24.5-16.3c-2.3-11.3,5-22.2,16.3-24.5C364.6,19.9,375.6,27.2,377.9,38.4z" fill="#605D59"  /><path d="M327.6,53.9c4.6,23.1-10.3,45.5-33.3,50.1c-23,4.6-45.5-10.3-50.1-33.3c-4.6-23,10.3-45.5,33.3-50.1  C300.5,16,323,30.9,327.6,53.9L327.6,53.9z" fill="#588EC6"  /><path d="M258.5,126.3c-8.3-2.6-16.6-1.2-20,1.4c4.1-1.3,11.4-1.7,19.4,0.8c7.9,2.2,14.7,5.7,19,6.2  C273.1,132.9,267,128.6,258.5,126.3L258.5,126.3z M364.2,75c-3.5-1.5-7-0.8-8.6,0c1.9,0.3,4.8,0.4,7.9,1.7c3.2,1.1,4.4,3.5,4.6,5.5  C369.3,80.7,368.2,76.1,364.2,75L364.2,75z M367.7,27.5c-5.2-3.4-11.1-2.9-13.7-1.8c2.9,0.1,8,0.3,12.7,3.4c4.6,3.1,6.8,7.7,8,10.4  C374.7,36.6,372.9,31,367.7,27.5L367.7,27.5z M306.8,30.7c-10.7-7.2-22.8-6.2-28.2-4.1c6-0.3,16.7,0.2,26.5,6.7  c9.8,6.4,14.4,16.1,16.4,21.8C321.4,49.3,317.5,37.8,306.8,30.7z" fill="#FFFFFF"  /><g><path d="M0,272.6v-37.2h12.8c2.9,0,5.1,0.2,6.6,0.5c2.1,0.5,3.9,1.4,5.4,2.7c2,1.7,3.4,3.8,4.4,6.4   c1,2.6,1.5,5.5,1.5,8.8c0,2.8-0.3,5.3-1,7.5c-0.7,2.2-1.5,4-2.5,5.4c-1,1.4-2.2,2.6-3.4,3.4c-1.2,0.8-2.7,1.4-4.4,1.9   c-1.7,0.4-3.7,0.6-6,0.6L0,272.6L0,272.6z M4.9,268.2h7.9c2.5,0,4.4-0.2,5.8-0.7c1.4-0.5,2.5-1.1,3.3-1.9c1.2-1.2,2.1-2.7,2.7-4.7   c0.6-2,1-4.4,1-7.2c0-3.9-0.6-6.9-1.9-9c-1.3-2.1-2.8-3.5-4.7-4.2c-1.3-0.5-3.4-0.8-6.4-0.8H4.9L4.9,268.2   C4.9,268.2,4.9,268.2,4.9,268.2z M55.3,263.9l4.7,0.6c-0.7,2.8-2.1,4.9-4.1,6.4c-2,1.5-4.6,2.3-7.7,2.3c-3.9,0-7.1-1.2-9.4-3.6   c-2.3-2.4-3.5-5.8-3.5-10.2c0-4.5,1.2-8,3.5-10.5c2.3-2.5,5.4-3.8,9.1-3.8c3.6,0,6.5,1.2,8.8,3.7c2.3,2.5,3.4,5.9,3.4,10.3   c0,0.3,0,0.7,0,1.2H40.1c0.2,3,1,5.2,2.5,6.8c1.5,1.6,3.4,2.4,5.6,2.4c1.7,0,3.1-0.4,4.3-1.3C53.7,267.2,54.6,265.8,55.3,263.9   L55.3,263.9z M40.4,256.5h15c-0.2-2.3-0.8-4-1.7-5.1c-1.5-1.8-3.3-2.6-5.7-2.6c-2.1,0-3.9,0.7-5.3,2.1   C41.3,252.3,40.5,254.2,40.4,256.5z M65.7,272.6v-37.2h4.6v37.2H65.7z M77.3,240.6v-5.2h4.6v5.2H77.3z M77.3,272.6v-26.9h4.6v26.9   H77.3z M96.3,272.6l-10.2-26.9h4.8l5.8,16.1c0.6,1.7,1.2,3.5,1.7,5.4c0.5-1.7,1.1-3.4,1.7-5.1l6-16.4h4.7l-10.2,26.9L96.3,272.6   L96.3,272.6L96.3,272.6z M133.2,263.9l4.7,0.6c-0.7,2.8-2.1,4.9-4.1,6.4c-2,1.5-4.6,2.3-7.7,2.3c-3.9,0-7.1-1.2-9.4-3.6   c-2.3-2.4-3.5-5.8-3.5-10.2c0-4.5,1.2-8,3.5-10.5c2.3-2.5,5.4-3.8,9.1-3.8c3.6,0,6.5,1.2,8.8,3.7c2.3,2.5,3.4,5.9,3.4,10.3   c0,0.3,0,0.7,0,1.2H118c0.2,3,1,5.2,2.5,6.8c1.5,1.6,3.4,2.4,5.6,2.4c1.7,0,3.1-0.4,4.3-1.3C131.6,267.2,132.5,265.8,133.2,263.9   L133.2,263.9z M118.2,256.5h15c-0.2-2.3-0.8-4-1.7-5.1c-1.5-1.8-3.3-2.6-5.7-2.6c-2.1,0-3.9,0.7-5.3,2.1   C119.2,252.3,118.4,254.2,118.2,256.5z M143.6,272.6v-26.9h4.1v4.1c1-1.9,2-3.2,2.9-3.8c0.9-0.6,1.9-0.9,2.9-0.9   c1.5,0,3.1,0.5,4.7,1.5l-1.6,4.2c-1.1-0.7-2.2-1-3.3-1c-1,0-1.9,0.3-2.7,0.9c-0.8,0.6-1.4,1.4-1.7,2.5c-0.5,1.6-0.8,3.4-0.8,5.3   v14.1L143.6,272.6L143.6,272.6L143.6,272.6z M160.8,282.9l-0.5-4.3c1,0.3,1.9,0.4,2.6,0.4c1,0,1.8-0.2,2.4-0.5   c0.6-0.3,1.1-0.8,1.5-1.4c0.3-0.5,0.8-1.6,1.4-3.4c0.1-0.3,0.2-0.6,0.4-1.1l-10.2-27h4.9l5.6,15.6c0.7,2,1.4,4.1,2,6.2   c0.5-2.1,1.1-4.1,1.9-6.1l5.8-15.7h4.6L172.8,273c-1.1,3-2,5-2.6,6.1c-0.8,1.5-1.7,2.6-2.8,3.3c-1,0.7-2.3,1.1-3.8,1.1   C162.8,283.5,161.8,283.3,160.8,282.9L160.8,282.9z M199.6,259.1c0-5,1.4-8.7,4.2-11.1c2.3-2,5.1-3,8.5-3c3.7,0,6.7,1.2,9.1,3.6   c2.3,2.4,3.5,5.8,3.5,10c0,3.5-0.5,6.2-1.6,8.2c-1,2-2.6,3.6-4.5,4.6c-2,1.1-4.2,1.7-6.5,1.7c-3.8,0-6.8-1.2-9.1-3.6   C200.8,267.1,199.6,263.6,199.6,259.1L199.6,259.1z M204.3,259.1c0,3.4,0.8,6,2.3,7.7c1.5,1.7,3.4,2.6,5.7,2.6   c2.3,0,4.1-0.9,5.7-2.6c1.5-1.7,2.3-4.3,2.3-7.9c0-3.3-0.8-5.9-2.3-7.6c-1.5-1.7-3.4-2.6-5.6-2.6c-2.3,0-4.2,0.9-5.7,2.6   C205.1,253.1,204.3,255.6,204.3,259.1z M231.3,272.6v-23.4h-4v-3.5h4v-2.9c0-1.8,0.2-3.1,0.5-4c0.4-1.2,1.2-2.1,2.3-2.9   c1.1-0.7,2.7-1.1,4.7-1.1c1.3,0,2.7,0.1,4.3,0.5l-0.7,4c-0.9-0.2-1.8-0.2-2.7-0.3c-1.4,0-2.4,0.3-2.9,0.9c-0.6,0.6-0.9,1.7-0.9,3.3   v2.5h5.2v3.5h-5.2v23.4L231.3,272.6L231.3,272.6L231.3,272.6z" fill="#605D59"  /><path d="M259.6,272.6v-37.2h5l19.5,29.2v-29.2h4.7v37.2h-5l-19.5-29.2v29.2H259.6z M315,263.9l4.7,0.6   c-0.7,2.8-2.1,4.9-4.1,6.4c-2,1.5-4.6,2.3-7.7,2.3c-3.9,0-7.1-1.2-9.4-3.6c-2.3-2.4-3.5-5.8-3.5-10.2c0-4.5,1.2-8,3.5-10.5   c2.3-2.5,5.4-3.8,9.1-3.8c3.6,0,6.5,1.2,8.8,3.7c2.3,2.5,3.4,5.9,3.4,10.3c0,0.3,0,0.7,0,1.2h-20.1c0.2,3,1,5.2,2.5,6.8   c1.5,1.6,3.4,2.4,5.6,2.4c1.7,0,3.1-0.4,4.3-1.3C313.3,267.2,314.3,265.8,315,263.9L315,263.9z M300,256.5h15   c-0.2-2.3-0.8-4-1.7-5.1c-1.5-1.8-3.3-2.6-5.7-2.6c-2.1,0-3.9,0.7-5.3,2.1C300.9,252.3,300.1,254.2,300,256.5z M323.7,259.1   c0-5,1.4-8.7,4.2-11.1c2.3-2,5.1-3,8.5-3c3.7,0,6.7,1.2,9.1,3.6c2.3,2.4,3.5,5.8,3.5,10c0,3.5-0.5,6.2-1.6,8.2   c-1,2-2.6,3.6-4.5,4.6c-2,1.1-4.2,1.7-6.5,1.7c-3.8,0-6.8-1.2-9.1-3.6C324.9,267.1,323.7,263.6,323.7,259.1L323.7,259.1z    M328.4,259.1c0,3.4,0.8,6,2.3,7.7c1.5,1.7,3.4,2.6,5.7,2.6c2.3,0,4.1-0.9,5.7-2.6c1.5-1.7,2.3-4.3,2.3-7.9c0-3.3-0.8-5.9-2.3-7.6   c-1.5-1.7-3.4-2.6-5.6-2.6c-2.3,0-4.2,0.9-5.7,2.6C329.2,253.1,328.4,255.6,328.4,259.1z M354.3,272.6v-26.9h4.1v3.8   c2-3,4.8-4.4,8.6-4.4c1.6,0,3.1,0.3,4.5,0.9c1.4,0.6,2.4,1.3,3.1,2.3c0.7,0.9,1.1,2.1,1.4,3.4c0.2,0.8,0.3,2.3,0.3,4.4v16.6h-4.6   v-16.4c0-1.9-0.2-3.3-0.5-4.2c-0.4-0.9-1-1.7-1.9-2.2c-0.9-0.5-2-0.8-3.2-0.8c-1.9,0-3.6,0.6-5,1.9c-1.4,1.2-2.1,3.6-2.1,7v14.7   L354.3,272.6L354.3,272.6z M400.7,269.2c-1.7,1.4-3.3,2.4-4.9,3c-1.6,0.6-3.2,0.9-5,0.9c-3,0-5.2-0.7-6.8-2.2   c-1.6-1.4-2.4-3.3-2.4-5.5c0-1.3,0.3-2.5,0.9-3.6c0.6-1.1,1.4-2,2.4-2.6c1-0.7,2.1-1.2,3.3-1.5c0.9-0.2,2.2-0.5,4.1-0.7   c3.7-0.4,6.4-1,8.1-1.6c0-0.6,0-1,0-1.2c0-1.9-0.4-3.2-1.3-3.9c-1.2-1-2.9-1.5-5.2-1.5c-2.1,0-3.7,0.4-4.8,1.1   c-1,0.8-1.8,2.1-2.3,4l-4.5-0.6c0.4-1.9,1.1-3.4,2-4.6c0.9-1.2,2.3-2.1,4-2.7c1.8-0.6,3.8-1,6.1-1c2.3,0,4.2,0.3,5.6,0.8   c1.4,0.5,2.5,1.2,3.2,2c0.7,0.8,1.2,1.9,1.4,3.1c0.2,0.8,0.2,2.2,0.2,4.2v6.1c0,4.2,0.1,6.9,0.3,8c0.2,1.1,0.6,2.2,1.2,3.2h-4.8   C401.2,271.6,400.9,270.5,400.7,269.2L400.7,269.2z M400.3,259c-1.7,0.7-4.1,1.3-7.5,1.7c-1.9,0.3-3.2,0.6-4,0.9   c-0.8,0.3-1.4,0.8-1.8,1.5c-0.4,0.6-0.6,1.4-0.6,2.2c0,1.2,0.5,2.2,1.4,3c0.9,0.8,2.3,1.2,4,1.2c1.8,0,3.3-0.4,4.7-1.2   c1.4-0.8,2.4-1.8,3-3.2c0.5-1,0.7-2.6,0.7-4.6L400.3,259L400.3,259z M422,268.5l0.7,4c-1.3,0.3-2.4,0.4-3.4,0.4   c-1.7,0-2.9-0.3-3.9-0.8c-0.9-0.5-1.6-1.2-1.9-2.1c-0.4-0.9-0.6-2.6-0.6-5.4v-15.5h-3.3v-3.6h3.3V239l4.5-2.7v9.4h4.6v3.5h-4.6   v15.7c0,1.3,0.1,2.1,0.2,2.5c0.2,0.4,0.4,0.7,0.8,0.9c0.4,0.2,0.9,0.3,1.6,0.3C420.5,268.7,421.2,268.6,422,268.5L422,268.5z    M444,269.2c-1.7,1.4-3.3,2.4-4.9,3c-1.6,0.6-3.3,0.9-5,0.9c-3,0-5.2-0.7-6.8-2.2s-2.4-3.3-2.4-5.5c0-1.3,0.3-2.5,0.9-3.6   c0.6-1,1.4-1.9,2.4-2.6c1-0.7,2.1-1.2,3.3-1.5c0.9-0.2,2.3-0.5,4.1-0.7c3.7-0.4,6.4-1,8.1-1.6c0-0.6,0-1,0-1.2   c0-1.9-0.4-3.2-1.3-3.9c-1.2-1-2.9-1.5-5.2-1.5c-2.1,0-3.7,0.4-4.8,1.1c-1,0.8-1.8,2.1-2.3,4l-4.5-0.6c0.4-1.9,1.1-3.4,2-4.6   c0.9-1.2,2.3-2.1,4-2.7c1.8-0.6,3.8-1,6.1-1c2.3,0,4.2,0.3,5.6,0.8c1.4,0.5,2.5,1.2,3.2,2c0.7,0.8,1.1,1.9,1.4,3.1   c0.1,0.8,0.2,2.2,0.2,4.2v6.1c0,4.2,0.1,6.9,0.3,8c0.2,1.1,0.6,2.2,1.2,3.2h-4.8C444.5,271.6,444.2,270.5,444,269.2L444,269.2z    M443.6,259c-1.7,0.7-4.1,1.3-7.5,1.7c-1.9,0.3-3.2,0.6-4,0.9c-0.8,0.3-1.4,0.8-1.8,1.5c-0.4,0.6-0.6,1.4-0.6,2.2   c0,1.2,0.5,2.2,1.4,3c0.9,0.8,2.3,1.2,4,1.2c1.8,0,3.3-0.4,4.7-1.2c1.4-0.8,2.4-1.8,3-3.2c0.5-1,0.7-2.6,0.7-4.6L443.6,259   L443.6,259L443.6,259z M455.2,272.6v-37.2h4.6v37.2H455.2z M508.4,259.5l4.9,1.2c-1,4-2.9,7.1-5.6,9.2c-2.7,2.1-6,3.2-9.8,3.2   c-4,0-7.3-0.8-9.8-2.4c-2.5-1.6-4.4-4-5.7-7.1c-1.3-3.1-2-6.4-2-10c0-3.9,0.7-7.2,2.2-10.1c1.5-2.9,3.6-5.1,6.3-6.6   c2.7-1.5,5.7-2.2,9-2.2c3.7,0,6.8,0.9,9.4,2.8c2.5,1.9,4.3,4.6,5.3,8l-4.8,1.1c-0.9-2.7-2.1-4.7-3.8-5.9c-1.6-1.2-3.7-1.9-6.2-1.9   c-2.9,0-5.2,0.7-7.2,2.1c-1.9,1.4-3.3,3.2-4,5.5c-0.8,2.3-1.2,4.7-1.2,7.1c0,3.2,0.5,5.9,1.4,8.3c0.9,2.4,2.4,4.1,4.3,5.3   c1.9,1.2,4.1,1.8,6.3,1.8c2.8,0,5.1-0.8,7-2.4C506.4,265,507.7,262.7,508.4,259.5z M536.3,269.2c-1.7,1.4-3.3,2.4-4.9,3   c-1.6,0.6-3.2,0.9-5,0.9c-3,0-5.2-0.7-6.8-2.2c-1.6-1.4-2.4-3.3-2.4-5.5c0-1.3,0.3-2.5,0.9-3.6c0.6-1.1,1.4-2,2.4-2.6   c1-0.7,2.1-1.2,3.3-1.5c0.9-0.2,2.3-0.5,4.1-0.7c3.7-0.4,6.4-1,8.1-1.6c0-0.6,0-1,0-1.2c0-1.9-0.4-3.2-1.3-3.9   c-1.2-1-2.9-1.5-5.2-1.5c-2.1,0-3.7,0.4-4.8,1.1c-1,0.8-1.8,2.1-2.3,4l-4.5-0.6c0.4-1.9,1.1-3.4,2-4.6c0.9-1.2,2.3-2.1,4-2.7   c1.8-0.6,3.8-1,6.1-1c2.3,0,4.2,0.3,5.6,0.8c1.4,0.5,2.5,1.2,3.2,2c0.7,0.8,1.1,1.9,1.4,3.1c0.2,0.8,0.2,2.2,0.2,4.2v6.1   c0,4.2,0.1,6.9,0.3,8c0.2,1.1,0.6,2.2,1.2,3.2h-4.8C536.8,271.6,536.5,270.5,536.3,269.2L536.3,269.2z M536,259   c-1.7,0.7-4.1,1.3-7.5,1.7c-1.9,0.3-3.2,0.6-4,0.9c-0.8,0.3-1.4,0.8-1.8,1.5c-0.4,0.6-0.6,1.4-0.6,2.2c0,1.2,0.5,2.2,1.4,3   c0.9,0.8,2.3,1.2,4,1.2c1.8,0,3.3-0.4,4.7-1.2c1.4-0.8,2.4-1.8,3-3.2c0.5-1,0.7-2.6,0.7-4.6L536,259L536,259z M547.6,272.6v-26.9   h4.1v4.1c1-1.9,2-3.2,2.9-3.8c0.9-0.6,1.9-0.9,2.9-0.9c1.5,0,3.1,0.5,4.7,1.5l-1.6,4.2c-1.1-0.7-2.2-1-3.3-1c-1,0-1.9,0.3-2.7,0.9   c-0.8,0.6-1.4,1.4-1.7,2.5c-0.5,1.6-0.8,3.4-0.8,5.3v14.1L547.6,272.6L547.6,272.6L547.6,272.6z M583.4,263.9l4.7,0.6   c-0.7,2.8-2.1,4.9-4.1,6.4c-2,1.5-4.6,2.3-7.7,2.3c-3.9,0-7.1-1.2-9.4-3.6c-2.3-2.4-3.5-5.8-3.5-10.2c0-4.5,1.2-8,3.5-10.5   c2.3-2.5,5.4-3.8,9.1-3.8c3.6,0,6.5,1.2,8.8,3.7c2.3,2.5,3.4,5.9,3.4,10.3c0,0.3,0,0.7,0,1.2h-20.1c0.2,3,1,5.2,2.5,6.8   c1.5,1.6,3.4,2.4,5.6,2.4c1.7,0,3.1-0.4,4.3-1.3C581.7,267.2,582.7,265.8,583.4,263.9L583.4,263.9z M568.4,256.5h15   c-0.2-2.3-0.8-4-1.7-5.1c-1.5-1.8-3.3-2.6-5.6-2.6c-2.1,0-3.9,0.7-5.3,2.1C569.3,252.3,568.5,254.2,568.4,256.5z" fill="#588EC6"  />
	
	
</g></svg>