<svg viewBox="0 0 410.3 283.5" role="img" aria-labelledby="nest--title" xmlns="http://www.w3.org/2000/svg" xmlns:xlink="http://www.w3.org/1999/xlink"><title id="nest--title">NEST</title><path d="M190.6,258.4l-59.2-34.2v-36.9l52.1,30.1v-24.9l-52.1-30.1v-30.2l56.7,32.7v-25.1l-78.4-45.3v142.1l81,46.7  V258.4L190.6,258.4z M91.5,84.2l-20.7-12v92.9L28.2,47.6L4.7,34v142.1l20.9,12V93.1l43.7,120.3l22.3,12.9V84.2z M399.2,37.7  L312.6,88v25.2l32.1-18.6v117.7l22.4-13V81.6l32.2-18.7V37.7z M280.3,173.1c-2,0-12.5,2.4-31.4,7.3c-11.3,3-16.9,0.4-16.9-7.7  c0.1-5.9,2.4-11.7,6.8-17.5c3.7-4.6,7.9-8.3,12.6-11.1c5.4-3.2,10.1-4.1,13.9-2.9c4.3,1.3,6.8,5.5,7.3,12.4l21.3-12.4  c-0.5-14.8-5.2-23.9-14.1-27.3c-7.8-3-17.3-1.3-28.5,5.2c-7.3,4.3-14.1,10-20.3,17.2c-6.5,7.5-11.4,15.5-14.6,24.1  c-3.2,8.6-4.9,17.2-5,25.9c-0.1,16.9,5.4,25.6,16.5,26.2c2.3,0.1,12.7-2.2,31.2-7c11.2-2.9,16.7-0.1,16.6,8.4  c0,5.4-2.2,11.1-6.5,16.9c-4.3,5.8-9.3,10.4-15.1,13.7c-6.2,3.6-11.4,4.7-15.6,3.3c-4.8-1.5-7.2-6-7.4-13.5l-21.5,12.5  c0.8,31.2,16.6,38,47.5,20.4c6.9-4,13.5-9.7,19.7-17c6.6-8,11.8-16.5,15.4-25.7c3.3-8.4,4.9-17.5,4.9-27.3  C297.2,181.3,291.5,173.3,280.3,173.1" fill="#80388D"  /><linearGradient id="SVGID_1_" gradientUnits="userSpaceOnUse" x1="-363.249" y1="894.9047" x2="-363.249" y2="902.4772" gradientTransform="matrix(16.9152 0 0 -16.9152 6349.5659 15265.5811)"><stop offset="0" stop-color="#E1D9D5" ></stop><stop offset="1" stop-color="#80388D" ></stop>
	
	
</linearGradient><path d="M205.1,128.1C257.5,48,410.3,0,410.3,0S257.5,0,205.1,48C152.8,0,0,0,0,0S152.8,48,205.1,128.1" fill="url(#SVGID_1_)"  /></svg>