<svg viewBox="0 0 835.1 283.5" role="img" aria-labelledby="npeu---pru-mhc--title" xmlns="http://www.w3.org/2000/svg" xmlns:xlink="http://www.w3.org/1999/xlink"><title id="npeu---pru-mhc--title">NPEU - PRU-MHC</title><g><path d="M342.6,281.7c-0.6-0.6-0.9-1.4-0.9-2.5v-39.9c0-1,0.3-1.8,0.9-2.4c0.6-0.6,1.4-0.9,2.5-0.9h15.8   c4.9,0,8.7,1.2,11.4,3.6c2.7,2.4,4.1,5.8,4.1,10.2c0,4.4-1.4,7.8-4.1,10.2c-2.7,2.4-6.5,3.7-11.4,3.7h-12.4v15.4   c0,1.1-0.3,1.9-0.9,2.5s-1.4,0.9-2.5,0.9C344,282.6,343.2,282.3,342.6,281.7z M360.1,258.3c6.5,0,9.7-2.8,9.7-8.5   c0-5.6-3.2-8.4-9.7-8.4h-11.7v16.9H360.1z M419.6,279.9c0,0.8-0.3,1.5-1,2c-0.6,0.5-1.4,0.8-2.2,0.8c-1.2,0-2.2-0.5-3-1.6   l-8.8-13.6c-1-1.6-2.1-2.7-3.2-3.3s-2.6-0.9-4.5-0.9h-7.4v16c0,1.1-0.3,1.9-0.9,2.5s-1.4,0.9-2.5,0.9c-1,0-1.8-0.3-2.4-0.9   s-0.9-1.4-0.9-2.5v-39.9c0-1,0.3-1.8,0.9-2.4c0.6-0.6,1.4-0.9,2.5-0.9h16.3c5.1,0,9,1.1,11.7,3.4c2.7,2.3,4,5.6,4,10   c0,3.6-1,6.6-3.1,8.8c-2.1,2.3-5,3.7-8.8,4.3c1.1,0.3,2.2,0.9,3.1,1.6c0.9,0.8,1.8,1.9,2.7,3.3l6.8,10.6   C419.4,278.6,419.6,279.2,419.6,279.9L419.6,279.9z M401.9,257.7c3.4,0,5.9-0.7,7.6-2c1.6-1.3,2.5-3.4,2.5-6.2   c0-2.8-0.8-4.8-2.4-6.1s-4.2-1.9-7.6-1.9h-12.3v16.3h12.2L401.9,257.7z M431.1,278c-3.2-3.2-4.8-7.9-4.8-14.1v-24.8   c0-1.1,0.3-1.9,0.9-2.5s1.4-0.9,2.4-0.9s1.8,0.3,2.4,0.9c0.6,0.6,0.9,1.4,0.9,2.5v25.2c0,4.2,1,7.5,3.1,9.6c2,2.2,5.1,3.3,9.1,3.3   s7-1.1,9.1-3.3c2.1-2.2,3.1-5.4,3.1-9.6v-25.2c0-1,0.3-1.8,0.9-2.5c0.6-0.6,1.4-1,2.4-1s1.8,0.3,2.4,0.9s0.9,1.4,0.9,2.5v24.8   c0,6.2-1.6,10.9-4.8,14.1c-3.2,3.2-7.9,4.8-14,4.8C439,282.8,434.3,281.2,431.1,278L431.1,278z M472.2,266.7   c-0.5-0.5-0.8-1.1-0.8-1.9c0-0.8,0.3-1.5,0.8-2s1.3-0.7,2.3-0.7h14c1,0,1.8,0.2,2.3,0.7s0.8,1.1,0.8,2c0,0.8-0.3,1.5-0.8,1.9   c-0.5,0.5-1.3,0.7-2.3,0.7h-14C473.5,267.4,472.8,267.2,472.2,266.7z M542.8,236.6c0.6,0.6,0.9,1.5,0.9,2.5v40.3   c0,1-0.3,1.8-0.8,2.4s-1.3,0.9-2.3,0.9c-0.9,0-1.6-0.3-2.2-0.9c-0.5-0.6-0.8-1.4-0.8-2.4v-30.5l-12.9,24.5   c-0.8,1.5-1.9,2.3-3.2,2.3c-1.3,0-2.4-0.8-3.2-2.3l-12.8-24.3v30.2c0,1-0.3,1.8-0.8,2.4s-1.3,0.9-2.2,0.9c-0.9,0-1.7-0.3-2.2-0.9   s-0.8-1.4-0.8-2.3v-40.3c0-1,0.3-1.8,0.9-2.5c0.6-0.6,1.4-1,2.4-1c1.4,0,2.4,0.8,3.3,2.4l15.7,30l15.5-30c0.8-1.6,1.9-2.4,3.2-2.4   C541.4,235.7,542.2,236,542.8,236.6z M591.3,236.6c0.6,0.6,0.9,1.5,0.9,2.5v40.1c0,1-0.3,1.8-0.9,2.5c-0.6,0.6-1.4,1-2.4,1   s-1.8-0.3-2.4-0.9s-0.9-1.4-0.9-2.5v-17.6h-25.8v17.6c0,1-0.3,1.8-0.9,2.5c-0.6,0.6-1.4,1-2.4,1s-1.8-0.3-2.4-0.9s-0.9-1.4-0.9-2.5   v-40.3c0-1,0.3-1.8,0.9-2.5c0.6-0.6,1.4-1,2.4-1s1.8,0.3,2.4,1c0.6,0.6,0.9,1.5,0.9,2.5V256h25.8v-16.9c0-1,0.3-1.8,0.9-2.5   c0.6-0.6,1.4-1,2.4-1C589.8,235.7,590.6,236,591.3,236.6z M609.9,279.9c-3.3-1.9-5.8-4.6-7.5-8.2c-1.8-3.6-2.6-7.8-2.6-12.6   c0-4.8,0.9-9,2.6-12.6c1.7-3.6,4.3-6.3,7.5-8.2c3.3-1.9,7.1-2.9,11.5-2.9c2.9,0,5.6,0.4,8.2,1.3s4.8,2.2,6.8,3.9   c0.8,0.7,1.2,1.5,1.2,2.6c0,0.8-0.2,1.5-0.7,2c-0.4,0.5-1,0.8-1.6,0.8c-0.7,0-1.5-0.3-2.2-0.9c-2.1-1.6-4-2.7-5.7-3.3s-3.7-1-5.9-1   c-4.8,0-8.5,1.6-11.1,4.7c-2.6,3.1-3.9,7.6-3.9,13.4c0,5.9,1.3,10.3,3.9,13.4c2.6,3.1,6.3,4.7,11.1,4.7c2.1,0,4-0.3,5.7-1   s3.7-1.7,5.9-3.3c0.9-0.6,1.6-0.9,2.2-0.9s1.1,0.3,1.6,0.8c0.4,0.5,0.7,1.2,0.7,2c0,1.1-0.4,2-1.2,2.6c-1.9,1.7-4.2,3-6.8,3.9   c-2.6,0.9-5.3,1.3-8.2,1.3C617,282.8,613.2,281.8,609.9,279.9z" fill="#BC945C"  />
	
</g><path d="M335.1,202.2c0-2.3,1.9-4.2,4.2-4.2h491.6c2.3,0,4.2,1.9,4.2,4.2s-1.9,4.2-4.2,4.2H339.3  C337,206.4,335.1,204.5,335.1,202.2" fill="#BC945C"  /><path d="M447,28.9c1.8,1.9,2.6,4.3,2.6,7.3v119.5c0,3-0.9,5.4-2.7,7.3c-1.8,1.9-4.2,2.8-7,2.8c-3.4,0-6-1.3-7.8-3.9  L355.3,60.8v94.9c0,3-0.9,5.4-2.6,7.3c-1.8,1.9-4.1,2.8-6.9,2.8c-2.9,0-5.2-0.9-6.8-2.7c-1.7-1.8-2.5-4.3-2.5-7.4V36.2  c0-3,0.9-5.4,2.7-7.3c1.8-1.9,4.2-2.8,7-2.8c3.4,0,6,1.3,7.8,3.9l76.7,101.3V36.2c0-3,0.8-5.4,2.5-7.3c1.7-1.9,4-2.8,6.8-2.8  C442.9,26,445.3,27,447,28.9 M484.5,163.2c-1.8-1.8-2.7-4.3-2.7-7.4V36.8c0-3,0.9-5.4,2.6-7.1c1.8-1.8,4.2-2.6,7.3-2.6h47.1  c14.6,0,25.9,3.6,34,10.8s12.1,17.3,12.1,30.5c0,13-4,23.2-12.1,30.5s-19.4,11-34,11h-37v46c0,3.1-0.9,5.6-2.6,7.4  c-1.8,1.8-4.3,2.7-7.5,2.7C488.7,166,486.3,165.1,484.5,163.2 M536.7,93.5c19.3,0,28.9-8.4,28.9-25.2c0-16.7-9.7-25-28.9-25h-34.8  v50.3h34.8V93.5z M611.9,162.4c-1.8-1.8-2.6-4.1-2.6-7.1V36.8c0-3,0.9-5.4,2.6-7.1c1.8-1.8,4.2-2.6,7.3-2.6h72c3,0,5.3,0.7,6.9,2.2  c1.6,1.4,2.4,3.5,2.4,6.1s-0.8,4.6-2.4,6c-1.6,1.4-3.9,2.1-6.9,2.1H629v43.4h58.3c3,0,5.3,0.7,6.9,2.2c1.6,1.4,2.4,3.5,2.4,6.1  s-0.8,4.6-2.4,6.1c-1.6,1.4-3.9,2.2-6.9,2.2H629v45.6h62.2c6.3,0,9.4,2.7,9.4,8c0,2.6-0.8,4.6-2.4,6.1c-1.6,1.4-3.9,2.2-6.9,2.2h-72  C616.1,165,613.7,164.1,611.9,162.4 M737.1,152.3c-9.5-9.5-14.3-23.5-14.3-42.1V36.2c0-3.1,0.9-5.6,2.7-7.4c1.8-1.8,4.2-2.7,7.2-2.7  s5.4,0.9,7.2,2.7c1.8,1.8,2.7,4.3,2.7,7.4v75.3c0,12.6,3,22.2,9.1,28.8c6.1,6.5,15.1,9.8,27.1,9.8c11.9,0,20.9-3.3,27-9.8  c6.1-6.5,9.2-16.1,9.2-28.8V36.2c0-3,0.9-5.4,2.7-7.3c1.8-1.9,4.2-2.8,7.2-2.8c3,0,5.4,0.9,7.2,2.7c1.8,1.8,2.7,4.3,2.7,7.4v73.9  c0,18.4-4.8,32.4-14.4,42c-9.6,9.6-23.5,14.4-41.8,14.4C760.6,166.6,746.6,161.8,737.1,152.3 M178.9,77.3  c0-42.7-34.6-77.3-77.3-77.3C58.7,0,24.1,34.6,24.1,77.3s34.6,77.3,77.3,77.3C144.3,154.8,178.9,120.1,178.9,77.3" fill="#604877"  /><path d="M283.5,65.4c5.8-14.7-1.4-31.4-16.1-37.2c-14.7-5.8-31.4,1.4-37.2,16.1s1.4,31.4,16.1,37.2  C261.1,87.4,277.7,80.2,283.5,65.4 M158.8,191.2c8.6,1.1,36.5,4.4,74-18.2c27.8-16.7,46-41.1,47.8-55.6c1.7-11.7-6.5-22.6-18.2-24.2  c-5-0.7-9.1,0.3-13.8,2.7c-14.6,7.6-18.1,34.5-31.7,54.5c-20.2,29.6-45.4,30.7-57.5,31.2c-2.6,0-4.8,2.1-4.8,4.8  C154.6,188.9,156.5,190.9,158.8,191.2" fill="#BC945C"  /><path d="M276,154c-12.7,15.7-51,50-97.4,50c-46.5,0-69.5-23.3-104.2-37.7c-27.2-11.5-58.6,1.3-70.1,28.5  c-8.5,20.1-3.7,42.5,10.4,57.4c23.7,26,71.9,44.8,150.2,18.8s116.1-100.9,121.5-110.7c1.5-3,0.2-6.5-2.8-8  C280.8,151,277.7,151.8,276,154" fill="#604877"  /></svg>