<svg viewBox="0 0 835.1 283.5" role="img" aria-labelledby="npeu-ctu--title" xmlns="http://www.w3.org/2000/svg" xmlns:xlink="http://www.w3.org/1999/xlink"><title id="npeu-ctu--title">NPEU - CTU</title><g><path d="M350.3,279.9c-3.3-1.9-5.8-4.6-7.5-8.2s-2.6-7.8-2.6-12.6c0-4.8,0.9-9,2.6-12.6s4.3-6.3,7.5-8.2   c3.3-1.9,7.1-2.8,11.5-2.8c2.9,0,5.6,0.4,8.2,1.3c2.6,0.9,4.8,2.2,6.8,3.9c0.8,0.7,1.2,1.5,1.2,2.6c0,0.8-0.2,1.5-0.7,2   c-0.4,0.5-1,0.8-1.6,0.8c-0.7,0-1.5-0.3-2.2-0.9c-2.1-1.6-4-2.7-5.7-3.3c-1.7-0.6-3.7-1-5.9-1c-4.8,0-8.5,1.6-11.1,4.7   c-2.6,3.1-3.9,7.6-3.9,13.4c0,5.9,1.3,10.3,3.9,13.4s6.3,4.7,11.1,4.7c2.1,0,4-0.3,5.7-1c1.7-0.7,3.7-1.7,5.9-3.3   c0.9-0.6,1.6-0.9,2.2-0.9s1.1,0.3,1.6,0.8c0.4,0.5,0.7,1.2,0.7,2c0,1.1-0.4,2-1.2,2.6c-1.9,1.7-4.2,3-6.8,3.9   c-2.6,0.9-5.3,1.3-8.2,1.3C357.4,282.8,353.6,281.8,350.3,279.9L350.3,279.9z M384.8,281.8c-0.6-0.5-1-1.3-1-2.4v-40.5   c0-1,0.3-1.8,1-2.4c0.6-0.5,1.4-0.8,2.4-0.8s1.7,0.3,2.4,0.8c0.6,0.5,0.9,1.3,0.9,2.4v40.5c0,1.1-0.3,1.8-0.9,2.4   c-0.6,0.5-1.4,0.8-2.4,0.8S385.4,282.3,384.8,281.8z M398.4,242.1c-0.7-0.7-1.1-1.6-1.1-2.8c0-1.1,0.4-2,1.1-2.7c0.7-0.7,1.7-1,3-1   c1.2,0,2.2,0.3,3,1c0.8,0.7,1.1,1.6,1.1,2.7c0,1.1-0.4,2.1-1.1,2.8s-1.7,1-3,1C400.1,243.1,399.2,242.8,398.4,242.1z M399.1,281.8   c-0.6-0.5-1-1.3-1-2.4v-26.6c0-1,0.3-1.8,1-2.4c0.6-0.5,1.4-0.8,2.4-0.8s1.7,0.3,2.4,0.8c0.6,0.5,0.9,1.3,0.9,2.4v26.6   c0,1.1-0.3,1.8-0.9,2.4c-0.6,0.5-1.4,0.8-2.4,0.8S399.7,282.3,399.1,281.8z M441.1,262.4v17.1c0,1-0.3,1.8-0.9,2.3   c-0.6,0.5-1.4,0.8-2.5,0.8c-1,0-1.8-0.3-2.4-0.9s-0.9-1.3-0.9-2.3v-16.7c0-2.7-0.5-4.7-1.6-6c-1.1-1.3-2.7-1.9-5-1.9   c-2.7,0-4.8,0.8-6.4,2.5c-1.6,1.7-2.4,3.9-2.4,6.7v15.4c0,1-0.3,1.7-0.9,2.3c-0.6,0.6-1.4,0.9-2.4,0.9s-1.8-0.3-2.4-0.9   s-0.9-1.3-0.9-2.3v-26.7c0-0.9,0.3-1.7,1-2.3c0.6-0.6,1.4-0.9,2.4-0.9s1.7,0.3,2.3,0.9c0.6,0.6,0.9,1.3,0.9,2.2v2.7   c1-1.9,2.5-3.4,4.4-4.4c1.9-1,4-1.5,6.4-1.5C437.3,249.5,441.1,253.8,441.1,262.4z M448.9,242.1c-0.7-0.7-1.1-1.6-1.1-2.8   c0-1.1,0.4-2,1.1-2.7c0.7-0.7,1.7-1,3-1c1.2,0,2.2,0.3,3,1c0.8,0.7,1.1,1.6,1.1,2.7c0,1.1-0.4,2.1-1.1,2.8c-0.7,0.7-1.7,1-3,1   C450.7,243.2,449.7,242.8,448.9,242.1z M449.6,281.8c-0.6-0.5-0.9-1.3-0.9-2.4v-26.6c0-1,0.3-1.8,0.9-2.4c0.6-0.5,1.4-0.8,2.4-0.8   s1.8,0.3,2.4,0.8s0.9,1.3,0.9,2.4v26.6c0,1.1-0.3,1.8-0.9,2.4c-0.6,0.5-1.4,0.8-2.4,0.8S450.2,282.3,449.6,281.8z M468.5,280.7   c-2.3-1.4-4.2-3.3-5.4-5.8c-1.3-2.5-1.9-5.4-1.9-8.7c0-3.3,0.7-6.3,2-8.8c1.3-2.5,3.2-4.5,5.6-5.9c2.4-1.4,5.2-2.1,8.3-2.1   c1.7,0,3.3,0.2,5,0.7s3.2,1.1,4.5,2c1.4,1,2.1,2.1,2.1,3.3c0,0.7-0.2,1.4-0.6,1.9c-0.4,0.5-0.9,0.8-1.5,0.8c-0.4,0-0.8-0.1-1.2-0.3   c-0.4-0.2-0.9-0.5-1.5-0.9c-1.1-0.7-2.1-1.2-3-1.6c-0.9-0.4-2.1-0.6-3.4-0.6c-3,0-5.3,1-6.9,3s-2.5,4.8-2.5,8.4s0.8,6.3,2.4,8.3   c1.6,1.9,3.9,2.9,6.9,2.9c1.3,0,2.5-0.2,3.5-0.6c1-0.4,2-0.9,3.1-1.6c0.5-0.3,1-0.6,1.4-0.8c0.5-0.2,0.9-0.3,1.3-0.3   c0.6,0,1.1,0.3,1.5,0.8c0.4,0.5,0.6,1.1,0.6,1.9c0,0.6-0.2,1.2-0.5,1.7c-0.3,0.5-0.9,1-1.7,1.5c-1.3,0.9-2.8,1.6-4.6,2   c-1.7,0.5-3.5,0.7-5.3,0.7C473.5,282.7,470.8,282,468.5,280.7L468.5,280.7z M515.9,252.7c2.1,2.1,3.1,5.4,3.1,9.8v17   c0,1-0.3,1.8-0.9,2.3c-0.6,0.5-1.4,0.8-2.4,0.8s-1.7-0.3-2.3-0.9s-0.9-1.3-0.9-2.3V277c-0.8,1.8-2.1,3.2-3.7,4.2s-3.6,1.5-5.7,1.5   s-4-0.4-5.8-1.3c-1.8-0.9-3.1-2-4.1-3.6c-1-1.5-1.5-3.2-1.5-5.1c0-2.3,0.6-4.1,1.8-5.5c1.2-1.3,3.2-2.3,6-2.8   c2.8-0.6,6.6-0.9,11.4-0.9h1.5v-1.9c0-2.4-0.5-4.2-1.5-5.3c-1-1.1-2.6-1.6-4.9-1.6c-1.5,0-3,0.2-4.3,0.6c-1.4,0.4-2.8,1-4.5,1.7   c-1.2,0.7-2,1-2.5,1c-0.7,0-1.2-0.2-1.6-0.7s-0.6-1.1-0.6-1.8c0-0.7,0.2-1.2,0.6-1.7s1-1,1.8-1.5c1.5-0.8,3.3-1.5,5.4-2   c2.1-0.5,4-0.8,6-0.8C510.7,249.5,513.9,250.5,515.9,252.7L515.9,252.7z M510.3,275.3c1.5-1.6,2.3-3.7,2.3-6.3v-1.7h-1.2   c-3.4,0-6,0.2-7.9,0.5c-1.8,0.3-3.1,0.8-3.9,1.5c-0.8,0.7-1.2,1.8-1.2,3.1c0,1.6,0.6,2.9,1.7,3.9c1.1,1,2.6,1.5,4.3,1.5   C506.8,277.8,508.8,277,510.3,275.3z M527.5,281.8c-0.6-0.5-1-1.3-1-2.4v-40.5c0-1,0.3-1.8,1-2.4c0.7-0.6,1.4-0.8,2.4-0.8   s1.7,0.3,2.4,0.8c0.7,0.5,0.9,1.3,0.9,2.4v40.5c0,1.1-0.3,1.8-0.9,2.4c-0.6,0.5-1.4,0.8-2.4,0.8S528.1,282.3,527.5,281.8z    M569.3,281.6c-0.6-0.6-1-1.5-1-2.5v-37.5h-13.1c-2.1,0-3.1-0.9-3.1-2.8c0-0.9,0.3-1.6,0.8-2.1s1.3-0.7,2.3-0.7h33.1   c1,0,1.8,0.2,2.3,0.7s0.8,1.2,0.8,2.1c0,1.9-1.1,2.8-3.1,2.8h-13.1v37.5c0,1-0.3,1.8-0.9,2.5c-0.6,0.6-1.4,0.9-2.5,0.9   C570.8,282.6,570,282.3,569.3,281.6z M609.5,252.3c0,1-0.2,1.7-0.7,2.2s-1.3,0.8-2.5,0.9l-2,0.2c-2.8,0.3-4.8,1.2-6.1,2.9   c-1.3,1.7-2,3.7-2,6v15c0,1.1-0.3,1.8-0.9,2.4c-0.6,0.5-1.4,0.8-2.4,0.8s-1.8-0.3-2.4-0.8c-0.6-0.5-0.9-1.3-0.9-2.4v-26.7   c0-1,0.3-1.8,0.9-2.3s1.4-0.8,2.4-0.8c0.9,0,1.6,0.3,2.2,0.8c0.6,0.5,0.9,1.3,0.9,2.3v3.1c0.9-1.9,2.1-3.4,3.8-4.4s3.5-1.6,5.6-1.8   l0.9-0.1C608.4,249.5,609.5,250.4,609.5,252.3z M612.3,242.1c-0.7-0.7-1.1-1.6-1.1-2.8c0-1.1,0.4-2,1.1-2.7c0.7-0.7,1.7-1,3-1   c1.2,0,2.2,0.3,3,1s1.1,1.6,1.1,2.7c0,1.1-0.4,2.1-1.1,2.8c-0.7,0.7-1.8,1-3,1C614.1,243.2,613.1,242.8,612.3,242.1z M612.9,281.8   c-0.6-0.5-1-1.3-1-2.4v-26.6c0-1,0.3-1.8,1-2.4c0.6-0.5,1.4-0.8,2.4-0.8s1.7,0.3,2.4,0.8c0.6,0.5,0.9,1.3,0.9,2.4v26.6   c0,1.1-0.3,1.8-0.9,2.4c-0.6,0.5-1.4,0.8-2.4,0.8C614.4,282.6,613.6,282.3,612.9,281.8z M649.3,252.7c2.1,2.1,3.1,5.4,3.1,9.8v17   c0,1-0.3,1.8-0.9,2.3c-0.6,0.5-1.4,0.8-2.4,0.8s-1.7-0.3-2.3-0.9c-0.6-0.6-0.9-1.3-0.9-2.3V277c-0.8,1.8-2.1,3.2-3.7,4.2   c-1.6,1-3.6,1.5-5.7,1.5c-2.1,0-4-0.4-5.8-1.3c-1.8-0.9-3.1-2-4.1-3.6c-1-1.5-1.5-3.2-1.5-5.1c0-2.3,0.6-4.1,1.8-5.5   c1.2-1.3,3.2-2.3,6-2.8c2.8-0.6,6.6-0.9,11.4-0.9h1.5v-1.9c0-2.4-0.5-4.2-1.5-5.3c-1-1.1-2.6-1.6-4.9-1.6c-1.5,0-3,0.2-4.3,0.6   c-1.4,0.4-2.8,1-4.5,1.7c-1.2,0.7-2,1-2.5,1c-0.7,0-1.2-0.2-1.6-0.7c-0.4-0.5-0.6-1.1-0.6-1.8c0-0.7,0.2-1.2,0.6-1.7   c0.4-0.5,1-1,1.8-1.5c1.5-0.8,3.3-1.5,5.4-2c2.1-0.5,4-0.8,6-0.8C644,249.5,647.2,250.5,649.3,252.7L649.3,252.7z M643.6,275.3   c1.5-1.6,2.3-3.7,2.3-6.3v-1.7h-1.2c-3.4,0-6,0.2-7.9,0.5c-1.8,0.3-3.1,0.8-3.9,1.5c-0.8,0.7-1.2,1.8-1.2,3.1   c0,1.6,0.6,2.9,1.7,3.9s2.6,1.5,4.3,1.5C640.1,277.8,642.1,277,643.6,275.3L643.6,275.3z M660.8,281.8c-0.6-0.5-1-1.3-1-2.4v-40.5   c0-1,0.3-1.8,1-2.4c0.7-0.6,1.4-0.8,2.4-0.8s1.7,0.3,2.4,0.8c0.6,0.5,0.9,1.3,0.9,2.4v40.5c0,1.1-0.3,1.8-0.9,2.4   c-0.6,0.5-1.4,0.8-2.4,0.8C662.3,282.6,661.5,282.3,660.8,281.8z M674.4,280c-0.8-0.5-1.3-1-1.7-1.5c-0.3-0.5-0.5-1.1-0.5-1.8   c0-0.7,0.2-1.3,0.6-1.8c0.4-0.5,0.9-0.7,1.5-0.7c0.6,0,1.5,0.4,2.7,1c1.3,0.7,2.6,1.3,3.8,1.7c1.2,0.4,2.8,0.7,4.7,0.7   c2.1,0,3.7-0.4,4.9-1.1s1.8-1.8,1.8-3.1c0-0.9-0.2-1.6-0.7-2.1s-1.3-1-2.4-1.4c-1.1-0.4-2.8-0.9-5.1-1.3c-3.8-0.8-6.6-2-8.3-3.4   c-1.7-1.4-2.5-3.4-2.5-5.8c0-1.9,0.5-3.6,1.6-5.1c1.1-1.5,2.6-2.7,4.5-3.5s4.1-1.2,6.6-1.2c1.7,0,3.5,0.2,5.1,0.7   c1.7,0.5,3.1,1.1,4.4,2c1.4,1,2.2,2.1,2.2,3.3c0,0.7-0.2,1.3-0.6,1.8s-0.9,0.7-1.5,0.7c-0.4,0-0.8-0.1-1.2-0.3   c-0.4-0.2-0.9-0.5-1.6-0.9c-1.2-0.7-2.3-1.2-3.3-1.6s-2.3-0.6-3.8-0.6c-1.8,0-3.3,0.4-4.4,1.2c-1.1,0.8-1.7,1.9-1.7,3.2   c0,1.2,0.5,2.2,1.5,2.9c1,0.7,3,1.3,5.8,1.9c2.9,0.6,5.2,1.3,6.9,2.1c1.7,0.8,2.9,1.8,3.6,2.9c0.7,1.2,1.1,2.6,1.1,4.4   c0,2.8-1.2,5.1-3.6,6.9c-2.4,1.7-5.6,2.6-9.5,2.6C680.9,282.7,677.2,281.8,674.4,280L674.4,280z M725.1,278   c-3.2-3.2-4.8-7.9-4.8-14.1v-24.8c0-1.1,0.3-1.9,0.9-2.5c0.6-0.6,1.4-0.9,2.4-0.9s1.8,0.3,2.4,0.9c0.6,0.6,0.9,1.4,0.9,2.5v25.3   c0,4.2,1,7.5,3.1,9.6c2,2.2,5.1,3.3,9.1,3.3s7-1.1,9-3.3c2.1-2.2,3.1-5.4,3.1-9.6v-25.3c0-1,0.3-1.8,0.9-2.5c0.6-0.6,1.4-1,2.4-1   s1.8,0.3,2.4,0.9s0.9,1.4,0.9,2.5v24.8c0,6.2-1.6,10.9-4.8,14.1s-7.9,4.8-14,4.8C733,282.8,728.3,281.2,725.1,278L725.1,278z    M794.7,262.4v17.1c0,1-0.3,1.8-0.9,2.3c-0.6,0.5-1.4,0.8-2.5,0.8c-1,0-1.8-0.3-2.4-0.9c-0.6-0.6-0.9-1.3-0.9-2.3v-16.7   c0-2.7-0.5-4.7-1.6-6c-1.1-1.3-2.7-1.9-5-1.9c-2.7,0-4.8,0.8-6.4,2.5c-1.6,1.7-2.4,3.9-2.4,6.7v15.4c0,1-0.3,1.7-0.9,2.3   c-0.6,0.6-1.4,0.9-2.4,0.9s-1.8-0.3-2.4-0.9c-0.6-0.6-0.9-1.3-0.9-2.3v-26.7c0-0.9,0.3-1.7,1-2.3c0.6-0.6,1.4-0.9,2.4-0.9   s1.7,0.3,2.3,0.9c0.6,0.6,0.9,1.3,0.9,2.2v2.7c1.1-1.9,2.5-3.4,4.4-4.4s4-1.5,6.4-1.5C790.9,249.5,794.7,253.8,794.7,262.4   L794.7,262.4z M802.5,242.1c-0.7-0.7-1.1-1.6-1.1-2.8c0-1.1,0.4-2,1.1-2.7c0.7-0.7,1.7-1,3-1c1.2,0,2.2,0.3,3,1s1.1,1.6,1.1,2.7   c0,1.1-0.4,2.1-1.1,2.8c-0.7,0.7-1.7,1-3,1C804.3,243.2,803.3,242.8,802.5,242.1z M803.2,281.8c-0.6-0.5-1-1.3-1-2.4v-26.6   c0-1,0.3-1.8,1-2.4c0.6-0.5,1.4-0.8,2.4-0.8c1,0,1.7,0.3,2.4,0.8c0.6,0.5,0.9,1.3,0.9,2.4v26.6c0,1.1-0.3,1.8-0.9,2.4   c-0.6,0.5-1.4,0.8-2.4,0.8C804.6,282.6,803.8,282.3,803.2,281.8z M834.2,278.3c0.4,0.4,0.6,1,0.6,1.7c0,0.9-0.3,1.5-1,2   c-0.7,0.5-1.7,0.6-3,0.6l-1.8-0.1c-3.5-0.3-6.2-1.3-7.9-3.2c-1.7-1.9-2.6-4.7-2.6-8.4v-15.4h-3.9c-1.9,0-2.9-0.9-2.9-2.6   c0-0.8,0.3-1.4,0.8-1.9s1.2-0.7,2.1-0.7h3.9v-6.8c0-1,0.3-1.8,0.9-2.4c0.6-0.6,1.4-0.9,2.4-0.9s1.8,0.3,2.4,0.9   c0.6,0.6,0.9,1.4,0.9,2.4v6.8h6.5c0.9,0,1.6,0.2,2.1,0.7s0.8,1.1,0.8,1.9c0,0.8-0.3,1.5-0.8,1.9c-0.5,0.4-1.2,0.7-2.1,0.7h-6.5   v15.9c0,2.1,0.4,3.6,1.3,4.5c0.9,1,2.2,1.5,3.9,1.6l1.8,0.1C833.1,277.6,833.8,277.9,834.2,278.3L834.2,278.3z" fill="#BC945C"  />
	
</g><path d="M335.1,202.2c0-2.3,1.9-4.2,4.2-4.2h491.6c2.3,0,4.2,1.9,4.2,4.2s-1.9,4.2-4.2,4.2H339.3  C337,206.4,335.1,204.5,335.1,202.2" fill="#BC945C"  /><path d="M447,28.9c1.8,1.9,2.6,4.3,2.6,7.3v119.5c0,3-0.9,5.4-2.7,7.3c-1.8,1.9-4.2,2.8-7,2.8c-3.4,0-6-1.3-7.8-3.9  L355.3,60.8v94.9c0,3-0.9,5.4-2.6,7.3c-1.8,1.9-4.1,2.8-6.9,2.8c-2.9,0-5.2-0.9-6.8-2.7c-1.7-1.8-2.5-4.3-2.5-7.4V36.2  c0-3,0.9-5.4,2.7-7.3c1.8-1.9,4.2-2.8,7-2.8c3.4,0,6,1.3,7.8,3.9l76.7,101.3V36.2c0-3,0.8-5.4,2.5-7.3c1.7-1.9,4-2.8,6.8-2.8  C442.9,26,445.3,27,447,28.9 M484.5,163.2c-1.8-1.8-2.7-4.3-2.7-7.4V36.8c0-3,0.9-5.4,2.6-7.1c1.8-1.8,4.2-2.6,7.3-2.6h47.1  c14.6,0,25.9,3.6,34,10.8s12.1,17.3,12.1,30.5c0,13-4,23.2-12.1,30.5s-19.4,11-34,11h-37v46c0,3.1-0.9,5.6-2.6,7.4  c-1.8,1.8-4.3,2.7-7.5,2.7C488.7,166,486.3,165.1,484.5,163.2 M536.7,93.5c19.3,0,28.9-8.4,28.9-25.2c0-16.7-9.7-25-28.9-25h-34.8  v50.3h34.8V93.5z M611.9,162.4c-1.8-1.8-2.6-4.1-2.6-7.1V36.8c0-3,0.9-5.4,2.6-7.1c1.8-1.8,4.2-2.6,7.3-2.6h72c3,0,5.3,0.7,6.9,2.2  c1.6,1.4,2.4,3.5,2.4,6.1s-0.8,4.6-2.4,6c-1.6,1.4-3.9,2.1-6.9,2.1H629v43.4h58.3c3,0,5.3,0.7,6.9,2.2c1.6,1.4,2.4,3.5,2.4,6.1  s-0.8,4.6-2.4,6.1c-1.6,1.4-3.9,2.2-6.9,2.2H629v45.6h62.2c6.3,0,9.4,2.7,9.4,8c0,2.6-0.8,4.6-2.4,6.1c-1.6,1.4-3.9,2.2-6.9,2.2h-72  C616.1,165,613.7,164.1,611.9,162.4 M737.1,152.3c-9.5-9.5-14.3-23.5-14.3-42.1V36.2c0-3.1,0.9-5.6,2.7-7.4c1.8-1.8,4.2-2.7,7.2-2.7  s5.4,0.9,7.2,2.7c1.8,1.8,2.7,4.3,2.7,7.4v75.3c0,12.6,3,22.2,9.1,28.8c6.1,6.5,15.1,9.8,27.1,9.8c11.9,0,20.9-3.3,27-9.8  c6.1-6.5,9.2-16.1,9.2-28.8V36.2c0-3,0.9-5.4,2.7-7.3c1.8-1.9,4.2-2.8,7.2-2.8c3,0,5.4,0.9,7.2,2.7c1.8,1.8,2.7,4.3,2.7,7.4v73.9  c0,18.4-4.8,32.4-14.4,42c-9.6,9.6-23.5,14.4-41.8,14.4C760.6,166.6,746.6,161.8,737.1,152.3 M178.9,77.3  c0-42.7-34.6-77.3-77.3-77.3C58.7,0,24.1,34.6,24.1,77.3s34.6,77.3,77.3,77.3C144.3,154.8,178.9,120.1,178.9,77.3" fill="#604877"  /><path d="M283.5,65.4c5.8-14.7-1.4-31.4-16.1-37.2c-14.7-5.8-31.4,1.4-37.2,16.1s1.4,31.4,16.1,37.2  C261.1,87.4,277.7,80.2,283.5,65.4 M158.8,191.2c8.6,1.1,36.5,4.4,74-18.2c27.8-16.7,46-41.1,47.8-55.6c1.7-11.7-6.5-22.6-18.2-24.2  c-5-0.7-9.1,0.3-13.8,2.7c-14.6,7.6-18.1,34.5-31.7,54.5c-20.2,29.6-45.4,30.7-57.5,31.2c-2.6,0-4.8,2.1-4.8,4.8  C154.6,188.9,156.5,190.9,158.8,191.2" fill="#BC945C"  /><path d="M276,154c-12.7,15.7-51,50-97.4,50c-46.5,0-69.5-23.3-104.2-37.7c-27.2-11.5-58.6,1.3-70.1,28.5  c-8.5,20.1-3.7,42.5,10.4,57.4c23.7,26,71.9,44.8,150.2,18.8s116.1-100.9,121.5-110.7c1.5-3,0.2-6.5-2.8-8  C280.8,151,277.7,151.8,276,154" fill="#604877"  /></svg>