<svg viewBox="0 0 566.6 283.5" role="img" aria-labelledby="pearl--title" xmlns="http://www.w3.org/2000/svg" xmlns:xlink="http://www.w3.org/1999/xlink"><title id="pearl--title">PEARL</title><path d="M4.3,180.6c5.9,42.1,81.3,32.6,81.3,32.6s21.9,16.9,51.6,20.7c29.9,3.6,69.9-10.5,69.9-10.5  s28,26.8,76.3,26.8s75.6-26.8,75.6-26.8s34.7,13.3,68,10.7c33.5-2.4,53.9-21.1,53.9-21.1s75.3,10.7,81.5-32.6l4.3,0.5  c-6.2,63.7-85.5,48-85.5,48s-20.7,27.3-53.9,30.9c-33.5,3.6-68-15.7-68-15.7s-27.3,39.4-75.6,39.4S207.2,244,207.2,244  s-40.2,20.7-69.9,15.2c-29.9-5.5-51.8-30.4-51.8-30.4S6.2,242.8,0,181.1 M4.3,103.1C10.2,61,85.6,70.5,85.6,70.5  s21.9-16.9,51.6-20.7C166.9,46,207,60.1,207,60.1s28-26.8,76.3-26.8s75.6,26.8,75.6,26.8s34.7-13.3,68-10.7  c33.5,2.4,53.9,21.1,53.9,21.1s75.3-10.7,81.5,32.6l4.3-0.5c-6.2-63.7-85.5-48-85.5-48s-20.9-27.3-54.1-30.8  c-33.5-3.6-68,15.7-68,15.7S331.5,0,283.2,0S207,39.4,207,39.4s-40.2-20.7-69.9-15.2S85.5,54.6,85.5,54.6s-79.4-14-85.5,48" fill="#878787"  /><path d="M132.6,125.9c0,9.3-3.3,17.3-10,24c-6.7,6.7-14.5,10-23.8,10H69.1V186c0,1.4-0.5,2.9-1.7,4s-2.4,1.7-4,1.7  c-1.4,0-2.9-0.5-4-1.7c-1.2-1.2-1.7-2.4-1.7-4V92.2h40.9c9.3,0,17.1,3.3,23.8,10C129.3,108.8,132.6,116.7,132.6,125.9z M121.4,125.9  c0-6.2-2.1-11.4-6.7-15.9c-4.5-4.5-9.7-6.7-15.9-6.7H69.1v45.4h29.7c6.2,0,11.4-2.1,15.9-6.7C119.3,137.6,121.4,132.1,121.4,125.9  L121.4,125.9z M222.2,186c0,1.4-0.5,2.9-1.7,4s-2.4,1.7-4,1.7h-57c-1.4,0-2.9-0.5-4-1.7s-1.7-2.4-1.7-4V97.7c0-0.7,0.2-1.4,0.5-2.1  c0.2-0.7,0.7-1.2,1.2-1.7s1.2-1,1.9-1.2c0.7-0.2,1.4-0.5,2.1-0.5h57.3c0.7,0,1.4,0.2,2.1,0.5c0.7,0.2,1.2,0.7,1.9,1.2  c0.5,0.5,1,1.2,1.2,1.7c0.2,0.7,0.5,1.4,0.5,2.1c0,1.4-0.5,2.9-1.7,4c-1.2,1.2-2.4,1.7-4,1.7h-51.6v33h39.2c1.4,0,2.9,0.5,3.8,1.7  c1.2,1.2,1.7,2.4,1.7,3.8c0,0.7-0.2,1.4-0.5,2.1c-0.2,0.7-0.7,1.2-1.2,1.9c-0.5,0.5-1.2,1-1.7,1.2c-0.7,0.2-1.4,0.2-2.1,0.2h-39.2  v33h51.6c1.4,0,2.9,0.5,4,1.7C221.7,183.2,222.2,184.4,222.2,186L222.2,186z M300.6,155.6l-17.3-43l-17.3,43l-4.5,11.2l-8.6,21.4  c-1,2.4-2.9,3.6-5.5,3.6c-1.4,0-2.9-0.5-3.8-1.7c-1-1.2-1.7-2.4-1.7-4c0-0.7,0.2-1.4,0.5-2.1l35.9-87.4c1.2-2.9,2.9-4.3,5.2-4.3  s4.3,1.4,5.2,4.3l35.9,87.4c0.2,0.7,0.5,1.4,0.5,2.1c0,1.4-0.5,2.9-1.7,4c-1.2,1.2-2.4,1.7-3.8,1.7c-2.6,0-4.5-1.2-5.2-3.6  l-8.8-21.4L300.6,155.6L300.6,155.6z M418.6,186c0,0.7-0.2,1.4-0.5,2.1c-0.2,0.7-0.7,1.2-1.2,1.9c-0.5,0.5-1.2,1-1.7,1.2  c-0.7,0.2-1.4,0.5-2.1,0.5c-1.4,0-2.9-0.5-3.8-1.7l-30.2-30.2h-24V186c0,1.4-0.5,2.9-1.7,4c-1.2,1.2-2.4,1.7-4,1.7  c-1.4,0-2.9-0.5-4-1.7c-1.2-1.2-1.7-2.4-1.7-4V92.2h41.1c9.3,0,17.1,3.3,23.8,10c6.7,6.7,10,14.5,10,23.8c0,7.6-2.4,14.5-6.9,20.7  c-4.5,6.2-10.5,10.2-17.8,12.1l23.3,23.3C418.1,183.2,418.6,184.4,418.6,186L418.6,186z M407.4,125.9c0-6.2-2.1-11.4-6.7-15.9  c-4.5-4.5-9.7-6.7-15.9-6.7h-29.7v45.4h29.7c6.2,0,11.4-2.1,15.9-6.7C405.3,137.6,407.4,132.1,407.4,125.9L407.4,125.9z M508.4,186  c0,1.4-0.5,2.9-1.7,4c-1.2,1.2-2.4,1.7-4,1.7h-57.3c-1.4,0-2.9-0.5-4-1.7c-1.2-1.2-1.7-2.4-1.7-4V97.7c0-0.7,0.2-1.4,0.5-2.1  c0.2-0.7,0.7-1.2,1.2-1.7s1.2-1,1.9-1.2c0.7-0.2,1.4-0.5,2.1-0.5c0.7,0,1.4,0.2,2.1,0.5c0.7,0.2,1.2,0.7,1.9,1.2  c0.5,0.5,1,1.2,1.2,1.7c0.2,0.7,0.5,1.4,0.5,2.1v82.7h51.6c1.4,0,2.9,0.5,4,1.7C507.7,183.2,508.4,184.4,508.4,186L508.4,186z" fill="#662483"  /><radialGradient id="SVGID_1_" cx="112.202" cy="-262.3405" r="7.149" gradientTransform="matrix(2.3758 0 0 -2.3758 16.5949 -455.6274)" gradientUnits="userSpaceOnUse"><stop offset="0" stop-color="#FFFFFF" ></stop><stop offset="1" stop-color="#878787" ></stop>
	
	
</radialGradient><circle cx="283.2" cy="167.8" r="17.1" fill="url(#SVGID_1_)"  /></svg>