<svg viewBox="0 0 614.6 283.5" role="img" aria-labelledby="phoenix--title" xmlns="http://www.w3.org/2000/svg" xmlns:xlink="http://www.w3.org/1999/xlink"><title id="phoenix--title">PHOENIX</title><path d="M611,73.3c3.2,11.7,4.3,23.8,3.1,35.9c-0.4-2.2-0.9-4.3-1.5-6.5C598,49.6,543.1,18.4,490,33  c-41.1,11.3-69.1,46.7-72.8,86.8c-10.5-51,20.3-102.2,71.2-116.2C541.5-11,596.4,20.2,611,73.3L611,73.3z" fill="#DD4814"  /><path d="M609.6,172.2c-2.8,11.8-7.8,22.9-14.6,33c0.7-2.1,1.3-4.2,1.8-6.4c12.8-53.6-20.2-107.5-73.8-120.3  c-41.5-9.9-83,7.6-105.7,40.8c15.5-49.8,67.1-79.7,118.5-67.3C589.4,64.7,622.4,118.6,609.6,172.2z" fill="#EB9172"  /><path d="M556.3,262.6c-8.4,8.7-18.4,15.8-29.4,20.9c1.6-1.5,3.3-3,4.8-4.6c38.4-39.5,37.6-102.7-1.9-141.1  c-30.5-29.7-75.2-35.9-111.7-19c38.7-34.9,98.4-34.2,136.3,2.7C593.9,159.9,594.7,223.1,556.3,262.6z" fill="#F5C8B8"  /><path d="M0,117.4h19.1c11,0,18.3,0.5,22.2,1.4c5.5,1.3,10,4.1,13.4,8.3c3.5,4.2,5.2,9.5,5.2,15.8  c0,6.4-1.7,11.7-5.1,15.8c-3.4,4.2-8.1,6.9-14,8.4c-4.3,1-12.5,1.6-24.4,1.6H9.6v44.6H0V117.4L0,117.4z M9.6,126.8v32.5l16.2,0.2  c6.6,0,11.4-0.6,14.4-1.8c3-1.2,5.4-3.1,7.2-5.8c1.7-2.7,2.6-5.6,2.6-8.9c0-3.2-0.9-6.1-2.6-8.8c-1.7-2.7-4-4.6-6.9-5.7  c-2.8-1.1-7.5-1.7-14-1.7L9.6,126.8L9.6,126.8z M77.6,115h9.1v40.1c3.7-4.9,7.8-8.5,12.2-10.9c4.4-2.4,9.2-3.6,14.4-3.6  c5.3,0,10,1.3,14.1,4c4.1,2.7,7.1,6.3,9.1,10.9c2,4.5,2.9,11.7,2.9,21.3v36.5h-9.1v-33.8c0-8.2-0.3-13.6-1-16.4  c-1.1-4.7-3.2-8.2-6.2-10.6c-3-2.4-6.9-3.6-11.7-3.6c-5.5,0-10.5,1.8-14.8,5.5c-4.4,3.7-7.2,8.2-8.6,13.6c-0.9,3.5-1.3,9.9-1.3,19.3  v26h-9.1V115z M192.6,140.5c10.9,0,20,4,27.2,11.9c6.5,7.2,9.8,15.8,9.8,25.6c0,9.9-3.5,18.6-10.4,26c-6.9,7.4-15.8,11.1-26.6,11.1  c-10.9,0-19.8-3.7-26.7-11.1c-6.9-7.4-10.4-16.1-10.4-26c0-9.8,3.3-18.3,9.8-25.6C172.5,144.5,181.6,140.5,192.6,140.5z   M192.5,149.5c-7.6,0-14.1,2.8-19.6,8.4c-5.5,5.6-8.2,12.4-8.2,20.3c0,5.1,1.2,9.9,3.7,14.3c2.5,4.4,5.8,7.9,10.1,10.3  c4.2,2.4,8.9,3.6,13.9,3.6c5.1,0,9.7-1.2,13.9-3.6c4.2-2.4,7.6-5.8,10.1-10.3c2.5-4.4,3.7-9.2,3.7-14.3c0-8-2.7-14.7-8.2-20.3  C206.6,152.3,200.1,149.5,192.5,149.5L192.5,149.5z M306.1,189.7l7.7,4c-2.5,5-5.4,9-8.7,12c-3.3,3-7,5.4-11.2,6.9  c-4.1,1.6-8.8,2.4-14,2.4c-11.6,0-20.6-3.8-27.1-11.4c-6.5-7.6-9.8-16.2-9.8-25.7c0-9,2.8-17,8.3-24.1c7-9,16.4-13.4,28.1-13.4  c12.1,0,21.7,4.6,29,13.8c5.1,6.5,7.7,14.6,7.8,24.2h-63.8c0.2,8.2,2.8,15,7.9,20.3c5.1,5.3,11.4,7.9,18.9,7.9  c3.6,0,7.1-0.6,10.5-1.9c3.4-1.3,6.3-2.9,8.7-5C300.7,197.7,303.3,194.4,306.1,189.7L306.1,189.7z M306.1,170.7  c-1.2-4.9-3-8.8-5.3-11.7c-2.3-2.9-5.4-5.3-9.2-7c-3.8-1.8-7.9-2.7-12.1-2.7c-7,0-12.9,2.2-17.9,6.7c-3.7,3.3-6.4,8.1-8.3,14.7  H306.1L306.1,170.7z M333.2,142.4h9.1v12.7c3.7-4.9,7.7-8.5,12.1-10.9c4.4-2.4,9.3-3.6,14.5-3.6c5.3,0,10,1.3,14.1,4  c4.1,2.7,7.1,6.3,9.1,10.9c2,4.6,2.9,11.7,2.9,21.3v36.5h-9.1v-33.8c0-8.2-0.3-13.6-1-16.4c-1.1-4.7-3.1-8.2-6.1-10.6  c-3-2.4-6.9-3.6-11.7-3.6c-5.5,0-10.5,1.8-14.8,5.5c-4.4,3.7-7.2,8.2-8.6,13.6c-0.9,3.5-1.3,10-1.3,19.3v26h-9.1V142.4L333.2,142.4z   M417.7,113.2c2.1,0,3.8,0.7,5.3,2.2c1.5,1.5,2.2,3.3,2.2,5.3c0,2-0.7,3.8-2.2,5.3c-1.5,1.5-3.2,2.2-5.3,2.2c-2,0-3.8-0.7-5.3-2.2  c-1.5-1.5-2.2-3.2-2.2-5.3c0-2.1,0.7-3.9,2.2-5.3C413.9,113.9,415.7,113.2,417.7,113.2z M413.2,142.4h9.1v70.9h-9.1V142.4z   M433.2,142.4h10.9l18.8,26.2l18.7-26.2h11L468.5,176l61.6,84.5H519l-56-77.1l-21.4,29.8h-10.9l26.8-37.2L433.2,142.4z" fill="#DD4814"  /></svg>