<svg viewBox="0 0 605.9 283.5" role="img" aria-labelledby="pmrt--title" xmlns="http://www.w3.org/2000/svg" xmlns:xlink="http://www.w3.org/1999/xlink"><title id="pmrt--title">PMRT - Supporting high quality local perinatal reviews</title><g><path d="M307.9,134.9c0,1.2-0.3,2.3-0.9,3.2c-0.6,1-1.5,1.7-2.7,2.3c-1.2,0.5-2.6,0.8-4.3,0.8c-2,0-3.6-0.4-4.9-1.1   c-0.9-0.5-1.7-1.3-2.2-2.1c-0.6-0.9-0.8-1.8-0.8-2.6c0-0.5,0.2-0.9,0.5-1.3c0.3-0.3,0.8-0.5,1.3-0.5c0.4,0,0.8,0.1,1.1,0.4   c0.3,0.3,0.5,0.7,0.8,1.2c0.3,0.6,0.5,1.2,0.8,1.6c0.3,0.4,0.7,0.8,1.2,1.1c0.5,0.3,1.2,0.4,2.1,0.4c1.2,0,2.2-0.3,2.9-0.8   c0.7-0.6,1.1-1.3,1.1-2.1c0-0.7-0.2-1.2-0.6-1.6c-0.4-0.4-0.9-0.7-1.6-0.9c-0.6-0.2-1.5-0.4-2.6-0.7c-1.4-0.3-2.6-0.7-3.6-1.2   c-1-0.4-1.7-1.1-2.3-1.8c-0.6-0.8-0.8-1.7-0.8-2.9c0-1.1,0.3-2.1,0.9-2.9c0.6-0.9,1.5-1.5,2.6-2c1.1-0.5,2.5-0.7,4-0.7   c1.2,0,2.3,0.2,3.2,0.5c0.9,0.3,1.6,0.7,2.2,1.2c0.6,0.5,1,1,1.3,1.6c0.3,0.6,0.4,1.1,0.4,1.6c0,0.5-0.2,0.9-0.5,1.3   c-0.3,0.4-0.8,0.6-1.3,0.6c-0.5,0-0.8-0.1-1.1-0.3c-0.2-0.2-0.5-0.6-0.8-1.1c-0.4-0.8-0.8-1.3-1.3-1.8c-0.5-0.4-1.3-0.6-2.4-0.6   c-1,0-1.9,0.2-2.5,0.7c-0.6,0.5-1,1-1,1.6c0,0.4,0.1,0.7,0.3,1c0.2,0.3,0.5,0.5,0.9,0.7c0.4,0.2,0.8,0.4,1.2,0.5   c0.4,0.1,1,0.3,1.9,0.5c1,0.2,2,0.5,3,0.9c0.9,0.3,1.7,0.7,2.3,1.2c0.6,0.4,1.1,1,1.5,1.7C307.7,133,307.9,133.9,307.9,134.9   L307.9,134.9z M320.8,139.1v-0.5c-0.4,0.5-0.9,1-1.4,1.4c-0.5,0.4-1,0.7-1.6,0.9c-0.6,0.2-1.2,0.3-2,0.3c-0.9,0-1.7-0.2-2.4-0.6   c-0.7-0.4-1.3-0.9-1.6-1.5c-0.5-0.8-0.7-1.9-0.7-3.4v-7.3c0-0.7,0.2-1.3,0.5-1.7c0.3-0.4,0.8-0.6,1.3-0.6c0.6,0,1,0.2,1.4,0.6   c0.3,0.4,0.5,0.9,0.5,1.7v5.9c0,0.9,0.1,1.6,0.2,2.2c0.1,0.6,0.4,1,0.8,1.4c0.4,0.3,0.9,0.5,1.5,0.5c0.6,0,1.2-0.2,1.8-0.6   c0.5-0.4,1-0.9,1.2-1.5c0.2-0.5,0.3-1.7,0.3-3.5v-4.5c0-0.7,0.2-1.3,0.5-1.7c0.3-0.4,0.8-0.6,1.3-0.6c0.6,0,1,0.2,1.3,0.6   c0.3,0.4,0.5,0.9,0.5,1.7v10.7c0,0.7-0.2,1.2-0.5,1.6c-0.3,0.4-0.7,0.5-1.2,0.5c-0.5,0-0.9-0.2-1.3-0.5   C320.9,140.3,320.8,139.8,320.8,139.1L320.8,139.1z M331.4,128.2v0.4c0.7-0.9,1.4-1.5,2.2-1.9c0.8-0.4,1.6-0.6,2.6-0.6   c1.1,0,2.2,0.3,3.2,0.9c1,0.6,1.7,1.4,2.3,2.6c0.6,1.1,0.8,2.5,0.8,4c0,1.1-0.2,2.2-0.5,3.1c-0.3,1-0.8,1.8-1.3,2.4   c-0.5,0.6-1.2,1.1-2,1.5c-0.8,0.3-1.6,0.5-2.5,0.5c-1.1,0-1.9-0.2-2.7-0.6c-0.7-0.4-1.4-1.1-2.1-1.9v5.6c0,1.6-0.6,2.4-1.8,2.4   c-0.7,0-1.2-0.2-1.4-0.6c-0.2-0.4-0.3-1-0.3-1.8v-16c0-0.7,0.2-1.2,0.5-1.6c0.3-0.3,0.7-0.5,1.3-0.5c0.5,0,1,0.2,1.3,0.5   C331.3,127,331.4,127.5,331.4,128.2L331.4,128.2z M338.7,133.6c0-1-0.2-1.8-0.5-2.5s-0.7-1.2-1.2-1.6c-0.5-0.4-1.1-0.6-1.8-0.6   c-1,0-1.9,0.4-2.6,1.2c-0.7,0.8-1.1,2-1.1,3.6c0,1.5,0.3,2.6,1,3.4c0.7,0.8,1.6,1.2,2.6,1.2c0.6,0,1.2-0.2,1.7-0.5   c0.5-0.4,0.9-0.9,1.3-1.6C338.5,135.5,338.7,134.6,338.7,133.6L338.7,133.6z M348.9,128.2v0.4c0.7-0.9,1.4-1.5,2.2-1.9   c0.8-0.4,1.6-0.6,2.6-0.6c1.1,0,2.2,0.3,3.2,0.9c1,0.6,1.7,1.4,2.3,2.6c0.6,1.1,0.8,2.5,0.8,4c0,1.1-0.2,2.2-0.5,3.1   c-0.3,1-0.8,1.8-1.3,2.4c-0.5,0.6-1.2,1.1-2,1.5c-0.8,0.3-1.6,0.5-2.5,0.5c-1.1,0-2-0.2-2.7-0.6c-0.7-0.4-1.4-1.1-2.1-1.9v5.6   c0,1.6-0.6,2.4-1.8,2.4c-0.7,0-1.2-0.2-1.4-0.6c-0.2-0.4-0.3-1-0.3-1.8v-16c0-0.7,0.2-1.2,0.5-1.6c0.3-0.3,0.7-0.5,1.3-0.5   c0.5,0,1,0.2,1.3,0.5C348.7,127,348.9,127.5,348.9,128.2L348.9,128.2z M356.2,133.6c0-1-0.1-1.8-0.5-2.5c-0.3-0.7-0.7-1.2-1.2-1.6   c-0.5-0.4-1.1-0.6-1.8-0.6c-1,0-1.9,0.4-2.6,1.2c-0.7,0.8-1.1,2-1.1,3.6c0,1.5,0.3,2.6,1,3.4c0.7,0.8,1.6,1.2,2.6,1.2   c0.6,0,1.2-0.2,1.7-0.5c0.5-0.4,0.9-0.9,1.3-1.6C356,135.5,356.2,134.6,356.2,133.6L356.2,133.6z M376.8,133.6   c0,1.1-0.2,2.1-0.5,3.1c-0.3,0.9-0.8,1.7-1.5,2.4c-0.7,0.7-1.5,1.2-2.3,1.5c-0.9,0.4-1.9,0.5-3.1,0.5c-1.1,0-2.1-0.2-3-0.5   c-0.9-0.3-1.7-0.9-2.3-1.6c-0.7-0.7-1.2-1.5-1.5-2.4c-0.3-0.9-0.5-1.9-0.5-3.1c0-1.1,0.2-2.2,0.5-3.1c0.3-0.9,0.8-1.7,1.5-2.4   c0.7-0.7,1.5-1.2,2.3-1.5c0.9-0.4,1.9-0.5,3-0.5c1.1,0,2.1,0.2,3.1,0.5c0.9,0.3,1.7,0.9,2.4,1.5c0.7,0.7,1.2,1.5,1.5,2.4   C376.7,131.5,376.8,132.5,376.8,133.6L376.8,133.6z M373.1,133.6c0-1.5-0.3-2.7-1-3.5c-0.7-0.8-1.6-1.3-2.7-1.3   c-0.7,0-1.4,0.2-1.9,0.6c-0.6,0.4-1,0.9-1.3,1.7c-0.3,0.7-0.4,1.6-0.4,2.6c0,1,0.1,1.8,0.4,2.5c0.3,0.7,0.7,1.3,1.3,1.7   c0.5,0.4,1.2,0.6,1.9,0.6c1.1,0,2-0.4,2.7-1.3C372.8,136.3,373.1,135.1,373.1,133.6z M383.5,135.8v3.1c0,0.8-0.2,1.3-0.5,1.7   c-0.4,0.4-0.8,0.6-1.3,0.6c-0.5,0-1-0.2-1.3-0.6c-0.3-0.4-0.5-0.9-0.5-1.7v-10.3c0-1.7,0.6-2.5,1.8-2.5c0.6,0,1.1,0.2,1.3,0.6   c0.3,0.4,0.4,1,0.4,1.7c0.4-0.8,0.9-1.3,1.4-1.7c0.5-0.4,1.1-0.6,1.9-0.6c0.8,0,1.5,0.2,2.3,0.6c0.7,0.4,1.1,0.9,1.1,1.5   c0,0.5-0.2,0.8-0.5,1.1c-0.3,0.3-0.6,0.4-1,0.4c-0.1,0-0.5-0.1-1-0.2c-0.5-0.2-1-0.3-1.4-0.3c-0.5,0-1,0.1-1.3,0.4   c-0.3,0.3-0.6,0.7-0.8,1.3c-0.2,0.6-0.3,1.2-0.4,2C383.6,133.9,383.5,134.9,383.5,135.8L383.5,135.8z M392.7,126.4h0.4v-2.2   c0-0.6,0-1.1,0-1.4c0-0.3,0.1-0.6,0.3-0.9c0.1-0.3,0.4-0.5,0.6-0.6c0.3-0.2,0.6-0.2,0.9-0.2c0.5,0,0.9,0.2,1.3,0.5   c0.3,0.2,0.4,0.5,0.5,0.9c0.1,0.3,0.1,0.8,0.1,1.4v2.5h1.4c0.5,0,0.9,0.1,1.2,0.4c0.3,0.2,0.4,0.6,0.4,1c0,0.5-0.2,0.8-0.6,1   c-0.4,0.2-1,0.3-1.7,0.3h-0.7v6.8c0,0.6,0,1,0.1,1.3c0,0.3,0.2,0.6,0.3,0.8c0.2,0.2,0.5,0.3,0.9,0.3c0.2,0,0.5,0,0.9-0.1   c0.4-0.1,0.7-0.1,0.9-0.1c0.3,0,0.6,0.1,0.8,0.4c0.2,0.2,0.4,0.5,0.4,0.9c0,0.6-0.3,1.1-1,1.4c-0.7,0.3-1.6,0.5-2.8,0.5   c-1.2,0-2-0.2-2.6-0.6c-0.6-0.4-1-0.9-1.2-1.6c-0.2-0.7-0.3-1.6-0.3-2.8v-7.1h-0.5c-0.5,0-0.9-0.1-1.2-0.4c-0.3-0.2-0.4-0.6-0.4-1   c0-0.4,0.1-0.7,0.4-1C391.7,126.6,392.1,126.4,392.7,126.4L392.7,126.4z M404.3,124.4c-0.5,0-1-0.2-1.3-0.5   c-0.4-0.3-0.5-0.8-0.5-1.3c0-0.5,0.2-1,0.6-1.3c0.4-0.3,0.8-0.5,1.3-0.5c0.5,0,0.9,0.2,1.3,0.5c0.4,0.3,0.6,0.8,0.6,1.3   c0,0.6-0.2,1-0.5,1.3C405.2,124.2,404.7,124.4,404.3,124.4L404.3,124.4z M406.1,128.2v10.7c0,0.7-0.2,1.3-0.5,1.7   c-0.4,0.4-0.8,0.6-1.3,0.6s-1-0.2-1.3-0.6c-0.3-0.4-0.5-0.9-0.5-1.7v-10.6c0-0.7,0.2-1.3,0.5-1.7c0.3-0.4,0.8-0.6,1.3-0.6   s1,0.2,1.3,0.6C405.9,127,406.1,127.5,406.1,128.2L406.1,128.2z M413.4,128.2v0.4c0.7-0.9,1.4-1.5,2.1-1.9c0.8-0.4,1.7-0.6,2.7-0.6   c1,0,1.9,0.2,2.6,0.6c0.8,0.4,1.4,1,1.7,1.8c0.2,0.5,0.4,0.9,0.5,1.5c0.1,0.5,0.1,1.2,0.1,2v6.9c0,0.7-0.2,1.3-0.5,1.7   c-0.3,0.4-0.8,0.6-1.3,0.6c-0.6,0-1-0.2-1.3-0.6c-0.3-0.4-0.5-0.9-0.5-1.7v-6.2c0-1.2-0.2-2.2-0.5-2.8c-0.3-0.6-1-1-2-1   c-0.7,0-1.3,0.2-1.8,0.6c-0.5,0.4-0.9,0.9-1.2,1.6c-0.2,0.6-0.3,1.6-0.3,3.1v4.6c0,0.8-0.2,1.3-0.5,1.7c-0.3,0.4-0.8,0.6-1.4,0.6   c-0.5,0-1-0.2-1.3-0.6c-0.3-0.4-0.5-0.9-0.5-1.7v-10.7c0-0.7,0.2-1.2,0.5-1.6c0.3-0.3,0.7-0.5,1.3-0.5c0.3,0,0.6,0.1,0.9,0.2   c0.3,0.2,0.5,0.4,0.6,0.7C413.3,127.3,413.4,127.7,413.4,128.2L413.4,128.2z M440.5,128.8v10.8c0,1.2-0.1,2.3-0.4,3.2   c-0.3,0.9-0.7,1.6-1.3,2.2c-0.6,0.6-1.3,1-2.3,1.3c-0.9,0.3-2.1,0.4-3.5,0.4c-1.3,0-2.4-0.2-3.4-0.5c-1-0.4-1.8-0.8-2.3-1.4   c-0.5-0.6-0.8-1.1-0.8-1.7c0-0.5,0.2-0.8,0.5-1.1c0.3-0.3,0.7-0.4,1.1-0.4c0.5,0,1,0.2,1.4,0.7c0.2,0.2,0.4,0.5,0.6,0.7   c0.2,0.2,0.5,0.5,0.7,0.6c0.3,0.2,0.6,0.3,0.9,0.4c0.4,0.1,0.8,0.1,1.3,0.1c1,0,1.7-0.1,2.2-0.4c0.5-0.3,0.9-0.6,1.1-1.1   c0.2-0.5,0.3-1,0.4-1.5c0-0.5,0.1-1.4,0.1-2.6c-0.6,0.8-1.2,1.4-2,1.8c-0.7,0.4-1.6,0.6-2.7,0.6c-1.2,0-2.3-0.3-3.3-1   c-0.9-0.6-1.6-1.5-2.1-2.7c-0.5-1.1-0.7-2.5-0.7-4c0-1.1,0.2-2.1,0.5-3c0.3-0.9,0.7-1.7,1.3-2.3c0.5-0.6,1.2-1.1,1.9-1.4   c0.8-0.3,1.6-0.5,2.4-0.5c1,0,2,0.2,2.7,0.6c0.8,0.4,1.5,1,2.1,1.9v-0.5c0-0.6,0.2-1.1,0.5-1.5c0.3-0.4,0.7-0.5,1.2-0.5   c0.7,0,1.2,0.2,1.4,0.7C440.4,127.3,440.5,127.9,440.5,128.8L440.5,128.8z M429.8,133.5c0,1.5,0.3,2.6,1,3.4   c0.7,0.8,1.5,1.2,2.5,1.2c0.6,0,1.2-0.2,1.7-0.5c0.5-0.3,1-0.8,1.3-1.5c0.3-0.7,0.5-1.5,0.5-2.4c0-1.5-0.3-2.7-1-3.5   c-0.7-0.8-1.5-1.3-2.6-1.3c-1.1,0-1.9,0.4-2.5,1.2C430.1,130.9,429.8,132,429.8,133.5L429.8,133.5z M455,122.8v5.5   c0.5-0.5,0.9-1,1.4-1.3c0.5-0.3,0.9-0.6,1.5-0.7c0.6-0.2,1.2-0.2,1.8-0.2c0.9,0,1.8,0.2,2.5,0.6c0.7,0.4,1.3,1,1.7,1.7   c0.3,0.4,0.4,0.9,0.5,1.5c0.1,0.5,0.1,1.2,0.1,1.9v7.1c0,0.7-0.2,1.3-0.5,1.7c-0.3,0.4-0.8,0.6-1.4,0.6c-1.2,0-1.8-0.8-1.8-2.3   v-6.3c0-1.2-0.2-2.1-0.5-2.7c-0.4-0.6-1-1-2-1c-0.7,0-1.3,0.2-1.8,0.6c-0.5,0.4-0.9,0.9-1.2,1.5c-0.2,0.6-0.3,1.5-0.3,2.9v4.9   c0,0.7-0.2,1.3-0.5,1.7c-0.3,0.4-0.8,0.6-1.4,0.6c-1.2,0-1.8-0.8-1.8-2.3v-16.1c0-0.8,0.2-1.3,0.5-1.7c0.3-0.4,0.8-0.6,1.4-0.6   c0.6,0,1,0.2,1.4,0.6C454.9,121.5,455,122.1,455,122.8L455,122.8z M470.2,124.4c-0.5,0-1-0.2-1.3-0.5c-0.4-0.3-0.5-0.8-0.5-1.3   c0-0.5,0.2-1,0.6-1.3c0.4-0.3,0.8-0.5,1.3-0.5c0.5,0,0.9,0.2,1.3,0.5c0.4,0.3,0.6,0.8,0.6,1.3c0,0.6-0.2,1-0.5,1.3   C471.1,124.2,470.7,124.4,470.2,124.4L470.2,124.4z M472,128.2v10.7c0,0.7-0.2,1.3-0.5,1.7c-0.4,0.4-0.8,0.6-1.3,0.6   s-1-0.2-1.3-0.6c-0.3-0.4-0.5-0.9-0.5-1.7v-10.6c0-0.7,0.2-1.3,0.5-1.7c0.3-0.4,0.8-0.6,1.3-0.6s1,0.2,1.3,0.6   C471.8,127,472,127.5,472,128.2L472,128.2z M489.6,128.8v10.8c0,1.2-0.1,2.3-0.4,3.2c-0.3,0.9-0.7,1.6-1.3,2.2   c-0.6,0.6-1.3,1-2.3,1.3c-0.9,0.3-2.1,0.4-3.5,0.4c-1.3,0-2.4-0.2-3.4-0.5c-1-0.4-1.8-0.8-2.3-1.4c-0.5-0.6-0.8-1.1-0.8-1.7   c0-0.5,0.2-0.8,0.5-1.1c0.3-0.3,0.7-0.4,1.1-0.4c0.5,0,1,0.2,1.4,0.7c0.2,0.2,0.4,0.5,0.6,0.7c0.2,0.2,0.5,0.5,0.7,0.6   c0.3,0.2,0.6,0.3,0.9,0.4c0.4,0.1,0.8,0.1,1.3,0.1c1,0,1.7-0.1,2.2-0.4c0.5-0.3,0.9-0.6,1.1-1.1c0.2-0.5,0.3-1,0.4-1.5   c0-0.5,0.1-1.4,0.1-2.6c-0.6,0.8-1.2,1.4-2,1.8c-0.7,0.4-1.6,0.6-2.7,0.6c-1.2,0-2.3-0.3-3.3-1c-0.9-0.6-1.6-1.5-2.1-2.7   c-0.5-1.1-0.7-2.5-0.7-4c0-1.1,0.2-2.1,0.5-3c0.3-0.9,0.7-1.7,1.3-2.3c0.5-0.6,1.2-1.1,1.9-1.4c0.8-0.3,1.6-0.5,2.4-0.5   c1,0,2,0.2,2.7,0.6c0.8,0.4,1.5,1,2.1,1.9v-0.5c0-0.6,0.2-1.1,0.5-1.5c0.3-0.4,0.7-0.5,1.2-0.5c0.7,0,1.2,0.2,1.4,0.7   C489.5,127.3,489.6,127.9,489.6,128.8L489.6,128.8z M478.8,133.5c0,1.5,0.3,2.6,1,3.4c0.7,0.8,1.5,1.2,2.5,1.2   c0.6,0,1.2-0.2,1.7-0.5c0.5-0.3,1-0.8,1.3-1.5c0.3-0.7,0.5-1.5,0.5-2.4c0-1.5-0.3-2.7-1-3.5c-0.7-0.8-1.5-1.3-2.6-1.3   c-1.1,0-1.9,0.4-2.5,1.2C479.1,130.9,478.8,132,478.8,133.5L478.8,133.5z M497,122.8v5.5c0.5-0.5,0.9-1,1.4-1.3   c0.5-0.3,0.9-0.6,1.5-0.7c0.6-0.2,1.2-0.2,1.8-0.2c0.9,0,1.8,0.2,2.5,0.6c0.7,0.4,1.3,1,1.7,1.7c0.3,0.4,0.4,0.9,0.5,1.5   c0.1,0.5,0.1,1.2,0.1,1.9v7.1c0,0.7-0.2,1.3-0.5,1.7c-0.3,0.4-0.8,0.6-1.4,0.6c-1.2,0-1.8-0.8-1.8-2.3v-6.3c0-1.2-0.2-2.1-0.5-2.7   c-0.4-0.6-1-1-2-1c-0.7,0-1.3,0.2-1.8,0.6c-0.5,0.4-0.9,0.9-1.2,1.5c-0.2,0.6-0.3,1.5-0.3,2.9v4.9c0,0.7-0.2,1.3-0.5,1.7   c-0.3,0.4-0.8,0.6-1.4,0.6c-1.2,0-1.8-0.8-1.8-2.3v-16.1c0-0.8,0.2-1.3,0.5-1.7c0.3-0.4,0.8-0.6,1.4-0.6c0.6,0,1,0.2,1.4,0.6   C496.9,121.5,497,122.1,497,122.8L497,122.8z M527.5,144.2V139c-0.7,0.7-1.5,1.3-2.2,1.6c-0.8,0.4-1.6,0.6-2.6,0.6   c-1.1,0-2.2-0.3-3.1-0.9c-0.9-0.6-1.7-1.5-2.2-2.6c-0.5-1.1-0.8-2.5-0.8-4c0-1.6,0.3-2.9,0.8-4.1c0.5-1.1,1.3-2,2.3-2.6   c1-0.6,2-0.9,3.2-0.9c1,0,1.9,0.2,2.7,0.6c0.8,0.4,1.5,1,2,1.9v-0.4c0-0.7,0.2-1.2,0.5-1.5c0.3-0.4,0.7-0.5,1.3-0.5   s0.9,0.2,1.3,0.5c0.3,0.3,0.5,0.9,0.5,1.6v16c0,1.6-0.6,2.5-1.8,2.5c-0.7,0-1.2-0.2-1.4-0.7C527.6,145.6,527.5,145,527.5,144.2   L527.5,144.2z M520.2,133.6c0,1,0.2,1.9,0.5,2.6c0.3,0.7,0.7,1.3,1.3,1.6c0.5,0.3,1.1,0.5,1.7,0.5c0.7,0,1.3-0.2,1.8-0.5   c0.6-0.3,1-0.9,1.3-1.6c0.3-0.7,0.5-1.6,0.5-2.6c0-0.7-0.1-1.4-0.3-2s-0.5-1.1-0.8-1.5c-0.6-0.8-1.6-1.2-2.5-1.2   c-1,0-1.8,0.4-2.5,1.2C520.6,130.9,520.2,132.1,520.2,133.6L520.2,133.6z M544.4,139.1v-0.5c-0.4,0.5-0.9,1-1.4,1.4   c-0.5,0.4-1,0.7-1.6,0.9c-0.6,0.2-1.2,0.3-2,0.3c-0.9,0-1.7-0.2-2.4-0.6c-0.7-0.3-1.3-0.9-1.7-1.5c-0.5-0.8-0.7-1.9-0.7-3.4v-7.3   c0-0.7,0.2-1.3,0.5-1.7c0.3-0.4,0.8-0.6,1.3-0.6c0.6,0,1,0.2,1.4,0.6c0.3,0.4,0.5,0.9,0.5,1.7v5.9c0,0.9,0.1,1.6,0.2,2.2   c0.1,0.6,0.4,1,0.8,1.4c0.4,0.3,0.9,0.5,1.5,0.5c0.6,0,1.2-0.2,1.8-0.6c0.5-0.4,1-0.9,1.2-1.5c0.2-0.5,0.3-1.7,0.3-3.5v-4.5   c0-0.7,0.2-1.3,0.5-1.7c0.3-0.4,0.8-0.6,1.3-0.6c0.6,0,1,0.2,1.3,0.6c0.3,0.4,0.5,0.9,0.5,1.7v10.7c0,0.7-0.2,1.2-0.5,1.6   c-0.3,0.4-0.7,0.5-1.2,0.5c-0.5,0-0.9-0.2-1.3-0.5C544.6,140.3,544.4,139.8,544.4,139.1L544.4,139.1z M561.1,139.1   c-0.9,0.7-1.8,1.2-2.6,1.6c-0.8,0.3-1.8,0.5-2.8,0.5c-1,0-1.8-0.2-2.5-0.6c-0.7-0.4-1.3-0.9-1.7-1.5c-0.4-0.6-0.6-1.4-0.6-2.1   c0-1,0.3-1.9,1-2.6c0.6-0.7,1.5-1.2,2.6-1.4c0.2-0.1,0.8-0.2,1.8-0.4c0.9-0.2,1.7-0.4,2.4-0.5c0.7-0.2,1.5-0.4,2.2-0.6   c0-1-0.2-1.7-0.6-2.2c-0.3-0.5-1.1-0.7-2.2-0.7c-0.9,0-1.7,0.1-2.1,0.4c-0.5,0.3-0.9,0.7-1.2,1.2c-0.3,0.5-0.6,0.9-0.7,1   s-0.4,0.3-0.9,0.3c-0.4,0-0.8-0.1-1.1-0.4c-0.3-0.3-0.5-0.6-0.5-1c0-0.7,0.2-1.3,0.7-1.9c0.5-0.6,1.2-1.1,2.2-1.5   c1-0.4,2.2-0.6,3.7-0.6c1.6,0,2.9,0.2,3.8,0.6c0.9,0.4,1.6,1,2,1.8c0.4,0.8,0.6,1.9,0.6,3.3c0,0.9,0,1.6,0,2.2c0,0.6,0,1.3,0,2   c0,0.7,0.1,1.4,0.3,2.2c0.2,0.8,0.3,1.2,0.3,1.5c0,0.4-0.2,0.7-0.5,1c-0.3,0.3-0.8,0.5-1.2,0.5c-0.4,0-0.8-0.2-1.1-0.5   C561.9,140.3,561.5,139.8,561.1,139.1z M560.8,133.7c-0.5,0.2-1.3,0.4-2.4,0.6c-1,0.2-1.8,0.4-2.2,0.5c-0.4,0.1-0.8,0.3-1.1,0.6   c-0.4,0.3-0.5,0.7-0.5,1.3c0,0.6,0.2,1,0.6,1.4c0.4,0.4,1,0.6,1.7,0.6c0.7,0,1.4-0.2,2-0.5c0.6-0.3,1.1-0.7,1.4-1.2   c0.3-0.6,0.5-1.5,0.5-2.8L560.8,133.7L560.8,133.7z M568.3,138.9v-16.1c0-0.7,0.2-1.3,0.5-1.7s0.8-0.6,1.3-0.6s1,0.2,1.4,0.6   c0.3,0.4,0.5,0.9,0.5,1.7v16.1c0,0.8-0.2,1.3-0.5,1.7c-0.3,0.4-0.8,0.6-1.4,0.6c-0.5,0-1-0.2-1.3-0.6   C568.5,140.2,568.3,139.7,568.3,138.9L568.3,138.9z M577.8,124.4c-0.5,0-1-0.2-1.3-0.5c-0.4-0.3-0.5-0.8-0.5-1.3   c0-0.5,0.2-1,0.6-1.3c0.4-0.3,0.8-0.5,1.3-0.5c0.5,0,0.9,0.2,1.3,0.5c0.4,0.3,0.6,0.8,0.6,1.3c0,0.6-0.2,1-0.5,1.3   C578.7,124.2,578.3,124.4,577.8,124.4L577.8,124.4z M579.6,128.2v10.7c0,0.7-0.2,1.3-0.5,1.7c-0.4,0.4-0.8,0.6-1.3,0.6   c-0.5,0-1-0.2-1.3-0.6c-0.3-0.4-0.5-0.9-0.5-1.7v-10.6c0-0.7,0.2-1.3,0.5-1.7c0.3-0.4,0.8-0.6,1.3-0.6s1,0.2,1.3,0.6   C579.5,127,579.6,127.5,579.6,128.2L579.6,128.2z M583.8,126.4h0.4v-2.2c0-0.6,0-1.1,0-1.4c0-0.3,0.1-0.6,0.3-0.9   c0.1-0.3,0.4-0.5,0.6-0.6c0.3-0.2,0.6-0.2,0.9-0.2c0.5,0,0.9,0.2,1.3,0.5c0.3,0.2,0.4,0.5,0.5,0.9c0.1,0.3,0.1,0.8,0.1,1.4v2.5h1.4   c0.5,0,0.9,0.1,1.2,0.4c0.3,0.2,0.4,0.6,0.4,1c0,0.5-0.2,0.8-0.6,1c-0.4,0.2-1,0.3-1.7,0.3h-0.7v6.8c0,0.6,0,1,0.1,1.3   c0,0.3,0.2,0.6,0.3,0.8c0.2,0.2,0.5,0.3,0.9,0.3c0.2,0,0.5,0,0.9-0.1c0.4-0.1,0.7-0.1,0.9-0.1c0.3,0,0.6,0.1,0.8,0.4   c0.2,0.2,0.4,0.5,0.4,0.9c0,0.6-0.3,1.1-1,1.4c-0.7,0.3-1.6,0.5-2.8,0.5c-1.2,0-2-0.2-2.6-0.6c-0.6-0.4-1-0.9-1.2-1.6   c-0.2-0.7-0.3-1.6-0.3-2.8v-7.1h-0.5c-0.5,0-0.9-0.1-1.2-0.4c-0.3-0.2-0.4-0.6-0.4-1c0-0.4,0.1-0.7,0.4-1   C582.8,126.6,583.2,126.4,583.8,126.4L583.8,126.4z" fill="#36499B"  /><path d="M596.9,141.6l0.3-0.8l-4.6-11.5c-0.3-0.7-0.4-1.1-0.4-1.4c0-0.3,0.1-0.6,0.2-0.9c0.2-0.3,0.4-0.5,0.7-0.7   c0.3-0.2,0.6-0.2,0.9-0.2c0.5,0,0.9,0.2,1.2,0.5c0.3,0.3,0.5,0.8,0.7,1.5l3.1,9.1l3-8.5c0.2-0.7,0.5-1.2,0.6-1.6   c0.2-0.4,0.4-0.7,0.6-0.8s0.5-0.2,0.9-0.2c0.3,0,0.6,0.1,0.8,0.2c0.3,0.2,0.5,0.4,0.6,0.6c0.1,0.3,0.2,0.5,0.2,0.8   c-0.1,0.2-0.1,0.5-0.2,0.7c-0.1,0.3-0.2,0.6-0.3,1l-4.8,12.7c-0.4,1.1-0.8,2-1.2,2.6c-0.4,0.6-0.9,1.1-1.6,1.5   c-0.7,0.3-1.5,0.5-2.7,0.5c-1.1,0-1.9-0.1-2.4-0.4c-0.5-0.2-0.8-0.7-0.8-1.3c0-0.4,0.1-0.8,0.4-1c0.3-0.2,0.6-0.3,1.1-0.3   c0.2,0,0.4,0,0.6,0.1c0.2,0.1,0.4,0.1,0.6,0.1c0.4,0,0.8-0.1,1-0.2c0.2-0.1,0.5-0.3,0.7-0.7C596.4,142.7,596.7,142.3,596.9,141.6   L596.9,141.6z M292.5,172.3v-16.1c0-0.7,0.2-1.3,0.5-1.7c0.3-0.4,0.8-0.6,1.3-0.6c0.6,0,1,0.2,1.4,0.6c0.3,0.4,0.5,0.9,0.5,1.7   v16.1c0,0.8-0.2,1.3-0.5,1.7c-0.3,0.4-0.8,0.6-1.4,0.6c-0.5,0-1-0.2-1.3-0.6C292.6,173.6,292.5,173,292.5,172.3L292.5,172.3z    M314,167c0,1.1-0.2,2.1-0.5,3.1c-0.3,0.9-0.8,1.7-1.5,2.4c-0.7,0.7-1.4,1.2-2.3,1.5s-1.9,0.5-3.1,0.5c-1.1,0-2.1-0.2-3-0.5   c-0.9-0.3-1.7-0.9-2.3-1.6c-0.7-0.7-1.2-1.5-1.5-2.4c-0.3-0.9-0.5-1.9-0.5-3.1c0-1.1,0.2-2.2,0.5-3.1c0.3-0.9,0.8-1.7,1.5-2.4   c0.7-0.7,1.5-1.2,2.3-1.5c0.9-0.4,1.9-0.5,3-0.5c1.1,0,2.1,0.2,3.1,0.5c0.9,0.3,1.7,0.9,2.3,1.5c0.7,0.7,1.2,1.5,1.5,2.4   C313.8,164.9,314,165.9,314,167L314,167z M310.3,167c0-1.5-0.3-2.7-1-3.5c-0.7-0.8-1.6-1.3-2.7-1.3c-0.7,0-1.4,0.2-1.9,0.6   c-0.6,0.4-1,0.9-1.3,1.7c-0.3,0.7-0.4,1.6-0.4,2.6c0,1,0.1,1.8,0.4,2.5c0.3,0.7,0.7,1.3,1.3,1.7c0.5,0.4,1.2,0.6,1.9,0.6   c1.1,0,2-0.4,2.7-1.3C309.9,169.7,310.3,168.5,310.3,167z M330.3,170c0,0.5-0.1,1-0.4,1.5c-0.3,0.5-0.7,1-1.3,1.5   c-0.6,0.5-1.3,0.9-2.1,1.1c-0.9,0.3-1.8,0.4-2.9,0.4c-2.3,0-4.1-0.7-5.4-2c-1.3-1.3-1.9-3.1-1.9-5.4c0-1.5,0.3-2.9,0.9-4   c0.6-1.1,1.5-2.1,2.6-2.7c1.1-0.6,2.4-1,4-1c1,0,1.8,0.1,2.6,0.4c0.8,0.3,1.5,0.6,2,1.1c0.6,0.4,1,0.9,1.3,1.4   c0.3,0.5,0.4,1,0.4,1.4c0,0.4-0.2,0.8-0.5,1.1c-0.3,0.3-0.8,0.5-1.2,0.5c-0.3,0-0.6-0.1-0.8-0.2c-0.2-0.2-0.4-0.4-0.7-0.8   c-0.5-0.7-0.9-1.2-1.4-1.5c-0.5-0.3-1.1-0.5-1.9-0.5c-1.1,0-2,0.4-2.6,1.3c-0.7,0.9-1,2-1,3.5c0,0.7,0.1,1.3,0.3,1.9   c0.2,0.6,0.4,1.1,0.7,1.5c0.3,0.4,0.7,0.7,1.2,0.9c0.5,0.2,1,0.3,1.5,0.3c0.7,0,1.4-0.2,1.9-0.5c0.5-0.3,1-0.9,1.4-1.6   c0.2-0.4,0.5-0.7,0.7-1c0.3-0.2,0.6-0.4,1-0.4c0.5,0,0.8,0.2,1.1,0.5C330.1,169.2,330.3,169.6,330.3,170L330.3,170z M343,172.5   c-0.9,0.7-1.8,1.2-2.6,1.6c-0.8,0.3-1.8,0.5-2.8,0.5c-1,0-1.8-0.2-2.5-0.6c-0.7-0.4-1.3-0.9-1.7-1.5c-0.4-0.6-0.6-1.4-0.6-2.1   c0-1,0.3-1.9,1-2.6c0.6-0.7,1.5-1.2,2.6-1.4c0.2-0.1,0.8-0.2,1.8-0.4c0.9-0.2,1.7-0.4,2.4-0.5c0.7-0.2,1.5-0.4,2.2-0.6   c0-1-0.2-1.7-0.6-2.2s-1.1-0.7-2.2-0.7c-0.9,0-1.6,0.1-2.1,0.4c-0.5,0.3-0.9,0.7-1.2,1.2c-0.3,0.5-0.6,0.9-0.7,1   c-0.1,0.2-0.4,0.3-0.9,0.3c-0.4,0-0.8-0.1-1.1-0.4c-0.3-0.3-0.5-0.6-0.5-1c0-0.7,0.2-1.3,0.7-1.9c0.5-0.6,1.2-1.1,2.2-1.5   c1-0.4,2.2-0.6,3.7-0.6c1.6,0,2.9,0.2,3.8,0.6c0.9,0.4,1.6,1,2,1.8c0.4,0.8,0.6,1.9,0.6,3.3c0,1.4,0,2.8,0,4.2   c0,0.7,0.1,1.4,0.3,2.2c0.2,0.8,0.3,1.2,0.3,1.5c0,0.4-0.2,0.7-0.5,1c-0.3,0.3-0.8,0.5-1.2,0.5c-0.4,0-0.8-0.2-1.1-0.5   C343.8,173.7,343.4,173.2,343,172.5L343,172.5z M342.7,167.1c-0.5,0.2-1.3,0.4-2.4,0.6c-1,0.2-1.8,0.4-2.2,0.5   c-0.4,0.1-0.8,0.3-1.1,0.6c-0.4,0.3-0.5,0.7-0.5,1.3c0,0.6,0.2,1,0.6,1.4c0.4,0.4,1,0.6,1.7,0.6c0.7,0,1.4-0.2,2-0.5   c0.6-0.3,1.1-0.7,1.4-1.2c0.3-0.6,0.5-1.5,0.5-2.8V167.1L342.7,167.1z M350.2,172.3v-16.1c0-0.7,0.2-1.3,0.5-1.7   c0.3-0.4,0.8-0.6,1.3-0.6c0.6,0,1,0.2,1.4,0.6c0.3,0.4,0.5,0.9,0.5,1.7v16.1c0,0.8-0.2,1.3-0.5,1.7c-0.3,0.4-0.8,0.6-1.4,0.6   c-0.5,0-1-0.2-1.3-0.6C350.4,173.6,350.2,173,350.2,172.3L350.2,172.3z M368.3,161.6v0.4c0.7-0.9,1.4-1.5,2.2-1.9   c0.8-0.4,1.6-0.6,2.6-0.6c1.1,0,2.2,0.3,3.2,0.9c1,0.6,1.7,1.4,2.3,2.6c0.6,1.1,0.8,2.5,0.8,4c0,1.1-0.2,2.2-0.5,3.1   c-0.3,1-0.8,1.8-1.3,2.4c-0.5,0.6-1.2,1.1-2,1.5c-0.8,0.3-1.6,0.5-2.5,0.5c-1.1,0-2-0.2-2.7-0.6c-0.7-0.4-1.4-1.1-2.1-1.9v5.6   c0,1.6-0.6,2.4-1.8,2.4c-0.7,0-1.2-0.2-1.4-0.6c-0.2-0.4-0.3-1-0.3-1.8v-16c0-0.7,0.2-1.2,0.5-1.6c0.3-0.3,0.7-0.5,1.3-0.5   c0.5,0,1,0.2,1.3,0.5C368.1,160.4,368.3,160.9,368.3,161.6L368.3,161.6z M375.6,167c0-1-0.1-1.8-0.5-2.5c-0.3-0.7-0.7-1.2-1.2-1.6   c-0.5-0.4-1.1-0.6-1.8-0.6c-1,0-1.9,0.4-2.6,1.2c-0.7,0.8-1.1,2-1.1,3.6c0,1.5,0.3,2.6,1,3.4c0.7,0.8,1.6,1.2,2.6,1.2   c0.6,0,1.2-0.2,1.7-0.5c0.5-0.4,0.9-0.9,1.3-1.6C375.4,168.8,375.6,168,375.6,167L375.6,167z M392.7,167.9h-7.3   c0,0.8,0.2,1.6,0.5,2.2c0.3,0.6,0.8,1.1,1.3,1.5c0.5,0.3,1.2,0.5,1.8,0.5c0.4,0,0.8-0.1,1.2-0.2c0.4-0.1,0.7-0.3,1.1-0.5   c0.3-0.2,0.7-0.5,0.9-0.7c0.3-0.3,0.7-0.6,1.1-1c0.2-0.2,0.5-0.2,0.8-0.2c0.4,0,0.7,0.1,0.9,0.3c0.2,0.2,0.4,0.5,0.4,0.9   c0,0.3-0.1,0.7-0.4,1.2c-0.3,0.4-0.7,0.9-1.2,1.3c-0.5,0.4-1.2,0.8-2,1c-0.8,0.3-1.7,0.4-2.8,0.4c-2.4,0-4.2-0.7-5.6-2   c-1.3-1.4-2-3.2-2-5.5c0-1.1,0.2-2.1,0.5-3.1c0.3-0.9,0.8-1.7,1.4-2.4c0.6-0.7,1.4-1.2,2.3-1.5c0.9-0.4,1.9-0.5,3-0.5   c1.4,0,2.7,0.3,3.7,0.9c1,0.6,1.8,1.4,2.3,2.4c0.5,1,0.8,2,0.8,3c0,0.9-0.3,1.5-0.8,1.8C394.4,167.8,393.7,167.9,392.7,167.9   L392.7,167.9z M385.5,165.8h6.7c-0.1-1.3-0.4-2.2-1-2.8c-0.6-0.6-1.4-0.9-2.3-0.9c-0.9,0-1.7,0.3-2.3,1   C385.9,163.6,385.6,164.6,385.5,165.8L385.5,165.8z M402.7,169.2v3.1c0,0.8-0.2,1.3-0.5,1.7c-0.4,0.4-0.8,0.6-1.3,0.6   c-0.5,0-1-0.2-1.3-0.6c-0.3-0.4-0.5-0.9-0.5-1.7V162c0-1.7,0.6-2.5,1.8-2.5c0.6,0,1.1,0.2,1.3,0.6c0.3,0.4,0.4,1,0.4,1.7   c0.4-0.8,0.9-1.3,1.4-1.7c0.5-0.4,1.1-0.6,1.9-0.6c0.8,0,1.5,0.2,2.3,0.6c0.7,0.4,1.1,0.9,1.1,1.5c0,0.5-0.2,0.8-0.5,1.1   c-0.3,0.3-0.6,0.4-1,0.4c-0.1,0-0.5-0.1-1-0.2c-0.5-0.2-1-0.3-1.4-0.3c-0.5,0-1,0.1-1.3,0.4c-0.3,0.3-0.6,0.7-0.8,1.3   c-0.2,0.6-0.3,1.2-0.4,2C402.7,167.3,402.7,168.3,402.7,169.2L402.7,169.2z M413.1,157.8c-0.5,0-1-0.2-1.3-0.5   c-0.4-0.3-0.5-0.8-0.5-1.3c0-0.5,0.2-1,0.6-1.3c0.4-0.3,0.8-0.5,1.3-0.5c0.5,0,0.9,0.2,1.3,0.5c0.4,0.3,0.6,0.8,0.6,1.3   c0,0.6-0.2,1-0.5,1.3C414.1,157.6,413.6,157.8,413.1,157.8L413.1,157.8z M415,161.6v10.7c0,0.7-0.2,1.3-0.5,1.7   c-0.4,0.4-0.8,0.6-1.3,0.6c-0.5,0-1-0.2-1.3-0.6c-0.3-0.4-0.5-0.9-0.5-1.7v-10.6c0-0.7,0.2-1.3,0.5-1.7c0.3-0.4,0.8-0.6,1.3-0.6   s1,0.2,1.3,0.6C414.8,160.4,415,160.9,415,161.6L415,161.6z M422.2,161.5v0.4c0.7-0.9,1.4-1.5,2.1-1.9c0.8-0.4,1.7-0.6,2.7-0.6   c1,0,1.9,0.2,2.6,0.6c0.8,0.4,1.4,1,1.7,1.8c0.2,0.5,0.4,0.9,0.5,1.5c0.1,0.5,0.1,1.2,0.1,2v6.9c0,0.7-0.2,1.3-0.5,1.7   c-0.3,0.4-0.8,0.6-1.3,0.6c-0.6,0-1-0.2-1.3-0.6c-0.3-0.4-0.5-0.9-0.5-1.7v-6.2c0-1.2-0.2-2.2-0.5-2.8c-0.3-0.6-1-1-2-1   c-0.7,0-1.3,0.2-1.8,0.6c-0.5,0.4-0.9,0.9-1.2,1.6c-0.2,0.6-0.3,1.6-0.3,3.1v4.6c0,0.8-0.2,1.3-0.5,1.7c-0.3,0.4-0.8,0.6-1.4,0.6   c-0.5,0-1-0.2-1.3-0.6c-0.3-0.4-0.5-0.9-0.5-1.7v-10.7c0-0.7,0.2-1.2,0.5-1.6c0.3-0.3,0.7-0.5,1.3-0.5c0.3,0,0.6,0.1,0.9,0.2   c0.3,0.2,0.5,0.4,0.6,0.7C422.2,160.7,422.2,161.1,422.2,161.5L422.2,161.5z M445.1,172.5c-0.9,0.7-1.8,1.2-2.6,1.6   c-0.8,0.3-1.8,0.5-2.8,0.5c-1,0-1.8-0.2-2.5-0.6c-0.7-0.4-1.3-0.9-1.7-1.5c-0.4-0.6-0.6-1.4-0.6-2.1c0-1,0.3-1.9,1-2.6   c0.6-0.7,1.5-1.2,2.6-1.4c0.2-0.1,0.8-0.2,1.8-0.4c0.9-0.2,1.7-0.4,2.4-0.5c0.7-0.2,1.5-0.4,2.2-0.6c0-1-0.2-1.7-0.6-2.2   s-1.1-0.7-2.2-0.7c-0.9,0-1.6,0.1-2.1,0.4c-0.5,0.3-0.9,0.7-1.2,1.2c-0.3,0.5-0.6,0.9-0.7,1s-0.4,0.3-0.9,0.3   c-0.4,0-0.8-0.1-1.1-0.4c-0.3-0.3-0.5-0.6-0.5-1c0-0.7,0.2-1.3,0.7-1.9c0.5-0.6,1.2-1.1,2.2-1.5c1-0.4,2.2-0.6,3.7-0.6   c1.6,0,2.9,0.2,3.8,0.6c0.9,0.4,1.6,1,2,1.8c0.4,0.8,0.6,1.9,0.6,3.3c0,1.4,0,2.8,0,4.2c0,0.7,0.1,1.4,0.3,2.2   c0.2,0.8,0.3,1.2,0.3,1.5c0,0.4-0.2,0.7-0.5,1c-0.3,0.3-0.8,0.5-1.2,0.5c-0.4,0-0.8-0.2-1.1-0.5   C445.9,173.7,445.6,173.2,445.1,172.5L445.1,172.5z M444.9,167.1c-0.5,0.2-1.3,0.4-2.4,0.6c-1,0.2-1.8,0.4-2.2,0.5   c-0.4,0.1-0.8,0.3-1.1,0.6c-0.4,0.3-0.5,0.7-0.5,1.3c0,0.6,0.2,1,0.6,1.4c0.4,0.4,1,0.6,1.7,0.6c0.7,0,1.4-0.2,2-0.5   c0.6-0.3,1.1-0.7,1.4-1.2c0.3-0.6,0.5-1.5,0.5-2.8V167.1L444.9,167.1z M451.9,159.8h0.4v-2.2c0-0.6,0-1.1,0-1.4   c0-0.3,0.1-0.6,0.3-0.9c0.1-0.3,0.4-0.5,0.6-0.6c0.3-0.2,0.6-0.2,0.9-0.2c0.5,0,0.9,0.2,1.3,0.5c0.3,0.2,0.4,0.5,0.5,0.9   c0.1,0.3,0.1,0.8,0.1,1.4v2.5h1.4c0.5,0,0.9,0.1,1.2,0.4c0.3,0.2,0.4,0.6,0.4,1c0,0.5-0.2,0.8-0.6,1c-0.4,0.2-1,0.3-1.7,0.3H456   v6.8c0,0.6,0,1,0.1,1.3c0,0.3,0.2,0.6,0.3,0.8c0.2,0.2,0.5,0.3,0.9,0.3c0.2,0,0.5,0,0.9-0.1c0.4-0.1,0.7-0.1,0.9-0.1   c0.3,0,0.6,0.1,0.8,0.4c0.2,0.2,0.4,0.5,0.4,0.9c0,0.6-0.3,1.1-1,1.4c-0.7,0.3-1.6,0.5-2.8,0.5c-1.2,0-2-0.2-2.6-0.6   c-0.6-0.4-1-0.9-1.2-1.6c-0.2-0.7-0.3-1.6-0.3-2.8v-7.1h-0.5c-0.5,0-0.9-0.1-1.2-0.4c-0.3-0.2-0.4-0.6-0.4-1c0-0.4,0.1-0.7,0.4-1   C450.9,159.9,451.3,159.8,451.9,159.8L451.9,159.8z M471,172.5c-0.9,0.7-1.8,1.2-2.6,1.6c-0.8,0.3-1.8,0.5-2.8,0.5   c-1,0-1.8-0.2-2.5-0.6c-0.7-0.4-1.3-0.9-1.7-1.5c-0.4-0.6-0.6-1.4-0.6-2.1c0-1,0.3-1.9,1-2.6c0.6-0.7,1.5-1.2,2.6-1.4   c0.2-0.1,0.8-0.2,1.8-0.4c0.9-0.2,1.7-0.4,2.4-0.5c0.7-0.2,1.5-0.4,2.2-0.6c0-1-0.2-1.7-0.6-2.2s-1.1-0.7-2.2-0.7   c-0.9,0-1.6,0.1-2.1,0.4c-0.5,0.3-0.9,0.7-1.2,1.2c-0.3,0.5-0.6,0.9-0.7,1s-0.4,0.3-0.9,0.3c-0.4,0-0.8-0.1-1.1-0.4   c-0.3-0.3-0.5-0.6-0.5-1c0-0.7,0.2-1.3,0.7-1.9c0.5-0.6,1.2-1.1,2.2-1.5c1-0.4,2.2-0.6,3.7-0.6c1.6,0,2.9,0.2,3.8,0.6   c0.9,0.4,1.6,1,2,1.8c0.4,0.8,0.6,1.9,0.6,3.3c0,1.4,0,2.8,0,4.2c0,0.7,0.1,1.4,0.3,2.2c0.2,0.8,0.3,1.2,0.3,1.5   c0,0.4-0.2,0.7-0.5,1c-0.3,0.3-0.8,0.5-1.2,0.5c-0.4,0-0.8-0.2-1.1-0.5S471.4,173.2,471,172.5L471,172.5z M470.8,167.1   c-0.5,0.2-1.3,0.4-2.4,0.6c-1,0.2-1.8,0.4-2.2,0.5c-0.4,0.1-0.8,0.3-1.1,0.6c-0.4,0.3-0.5,0.7-0.5,1.3c0,0.6,0.2,1,0.6,1.4   c0.4,0.4,1,0.6,1.7,0.6c0.7,0,1.4-0.2,2-0.5c0.6-0.3,1.1-0.7,1.4-1.2c0.3-0.6,0.5-1.5,0.5-2.8V167.1L470.8,167.1z M478.2,172.3   v-16.1c0-0.7,0.2-1.3,0.5-1.7c0.3-0.4,0.8-0.6,1.3-0.6s1,0.2,1.4,0.6c0.3,0.4,0.5,0.9,0.5,1.7v16.1c0,0.8-0.2,1.3-0.5,1.7   c-0.3,0.4-0.8,0.6-1.4,0.6c-0.5,0-1-0.2-1.3-0.6C478.4,173.6,478.2,173,478.2,172.3L478.2,172.3z M496.6,169.2v3.1   c0,0.8-0.2,1.3-0.5,1.7c-0.4,0.4-0.8,0.6-1.3,0.6c-0.5,0-1-0.2-1.3-0.6c-0.3-0.4-0.5-0.9-0.5-1.7V162c0-1.7,0.6-2.5,1.8-2.5   c0.6,0,1.1,0.2,1.3,0.6c0.3,0.4,0.4,1,0.4,1.7c0.4-0.8,0.9-1.3,1.4-1.7c0.5-0.4,1.1-0.6,1.9-0.6c0.8,0,1.5,0.2,2.3,0.6   c0.7,0.4,1.1,0.9,1.1,1.5c0,0.5-0.2,0.8-0.5,1.1c-0.3,0.3-0.6,0.4-1,0.4c-0.1,0-0.5-0.1-1-0.2c-0.5-0.2-1-0.3-1.4-0.3   c-0.5,0-1,0.1-1.3,0.4c-0.3,0.3-0.6,0.7-0.8,1.3c-0.2,0.6-0.3,1.2-0.4,2C496.6,167.3,496.6,168.3,496.6,169.2L496.6,169.2z    M514.8,167.9h-7.3c0,0.8,0.2,1.6,0.5,2.2c0.3,0.6,0.8,1.1,1.3,1.5c0.5,0.3,1.2,0.5,1.8,0.5c0.4,0,0.8-0.1,1.2-0.2   c0.4-0.1,0.7-0.3,1.1-0.5c0.3-0.2,0.7-0.5,0.9-0.7c0.3-0.3,0.7-0.6,1.1-1c0.2-0.2,0.5-0.2,0.8-0.2c0.4,0,0.7,0.1,0.9,0.3   c0.2,0.2,0.4,0.5,0.4,0.9c0,0.3-0.1,0.7-0.4,1.2c-0.3,0.4-0.7,0.9-1.2,1.3c-0.5,0.4-1.2,0.8-2,1c-0.8,0.3-1.7,0.4-2.8,0.4   c-2.4,0-4.2-0.7-5.6-2c-1.3-1.4-2-3.2-2-5.5c0-1.1,0.2-2.1,0.5-3.1c0.3-0.9,0.8-1.7,1.4-2.4c0.6-0.7,1.4-1.2,2.3-1.5   c0.9-0.4,1.9-0.5,3-0.5c1.4,0,2.7,0.3,3.7,0.9c1,0.6,1.8,1.4,2.3,2.4c0.5,1,0.8,2,0.8,3c0,0.9-0.3,1.5-0.8,1.8   C516.6,167.8,515.8,167.9,514.8,167.9L514.8,167.9z M507.6,165.8h6.7c-0.1-1.3-0.4-2.2-1-2.8c-0.6-0.6-1.4-0.9-2.3-0.9   c-0.9,0-1.7,0.3-2.3,1C508.1,163.6,507.7,164.6,507.6,165.8z M523,161.8l3,8.4l3.2-8.8c0.3-0.7,0.5-1.2,0.7-1.5s0.6-0.4,1.1-0.4   c0.5,0,0.9,0.2,1.2,0.5c0.3,0.3,0.5,0.7,0.5,1.1c0,0.2,0,0.4-0.1,0.6c-0.1,0.2-0.1,0.4-0.2,0.6l-0.3,0.7l-3.6,8.8   c-0.1,0.3-0.2,0.6-0.4,1c-0.2,0.4-0.3,0.7-0.5,1c-0.2,0.3-0.4,0.5-0.7,0.6c-0.3,0.2-0.6,0.2-1,0.2c-0.5,0-0.9-0.1-1.3-0.4   c-0.3-0.2-0.5-0.5-0.7-0.8c-0.1-0.3-0.4-0.9-0.8-1.7l-3.5-8.7c-0.1-0.2-0.2-0.4-0.3-0.7c-0.1-0.2-0.2-0.4-0.2-0.7   c-0.1-0.2-0.1-0.4-0.1-0.6c0-0.3,0.1-0.5,0.2-0.8c0.2-0.2,0.4-0.5,0.6-0.6c0.3-0.2,0.6-0.2,0.9-0.2c0.6,0,1,0.2,1.3,0.5   C522.5,160.4,522.7,161,523,161.8L523,161.8z M537.4,157.8c-0.5,0-1-0.2-1.3-0.5c-0.4-0.3-0.5-0.8-0.5-1.3c0-0.5,0.2-1,0.6-1.3   c0.4-0.3,0.8-0.5,1.3-0.5c0.5,0,0.9,0.2,1.3,0.5c0.4,0.3,0.6,0.8,0.6,1.3c0,0.6-0.2,1-0.5,1.3C538.4,157.6,537.9,157.8,537.4,157.8   L537.4,157.8z M539.3,161.6v10.7c0,0.7-0.2,1.3-0.5,1.7c-0.4,0.4-0.8,0.6-1.3,0.6c-0.5,0-1-0.2-1.3-0.6c-0.3-0.4-0.5-0.9-0.5-1.7   v-10.6c0-0.7,0.2-1.3,0.5-1.7c0.3-0.4,0.8-0.6,1.3-0.6c0.5,0,1,0.2,1.3,0.6C539.1,160.4,539.3,160.9,539.3,161.6L539.3,161.6z    M553.5,167.9h-7.3c0,0.8,0.2,1.6,0.5,2.2c0.3,0.6,0.8,1.1,1.3,1.5c0.5,0.3,1.2,0.5,1.8,0.5c0.4,0,0.8-0.1,1.2-0.2   c0.4-0.1,0.7-0.3,1.1-0.5c0.3-0.2,0.7-0.5,0.9-0.7c0.3-0.3,0.7-0.6,1.1-1c0.2-0.2,0.5-0.2,0.8-0.2c0.4,0,0.7,0.1,0.9,0.3   c0.2,0.2,0.4,0.5,0.4,0.9c0,0.3-0.1,0.7-0.4,1.2c-0.3,0.4-0.7,0.9-1.2,1.3c-0.5,0.4-1.2,0.8-2,1c-0.8,0.3-1.7,0.4-2.8,0.4   c-2.4,0-4.2-0.7-5.6-2c-1.3-1.4-2-3.2-2-5.5c0-1.1,0.2-2.1,0.5-3.1c0.3-0.9,0.8-1.7,1.4-2.4c0.6-0.7,1.4-1.2,2.3-1.5   c0.9-0.4,1.9-0.5,3-0.5c1.4,0,2.7,0.3,3.7,0.9c1,0.6,1.8,1.4,2.3,2.4c0.5,1,0.8,2,0.8,3c0,0.9-0.3,1.5-0.8,1.8   C555.3,167.8,554.5,167.9,553.5,167.9L553.5,167.9z M546.3,165.8h6.7c-0.1-1.3-0.4-2.2-1-2.8c-0.6-0.6-1.4-0.9-2.3-0.9   c-0.9,0-1.7,0.3-2.3,1C546.8,163.6,546.4,164.6,546.3,165.8L546.3,165.8z M561.7,161.8l2.4,8.3l2.2-7.7c0.2-0.8,0.4-1.4,0.5-1.6   c0.1-0.3,0.3-0.6,0.6-0.8c0.3-0.3,0.7-0.4,1.3-0.4c0.6,0,1,0.1,1.3,0.4c0.3,0.3,0.5,0.6,0.7,0.9c0.1,0.3,0.3,0.9,0.5,1.6l2.2,7.7   l2.4-8.3c0.2-0.6,0.3-1,0.4-1.3c0.1-0.3,0.3-0.5,0.5-0.7c0.2-0.2,0.6-0.3,1-0.3c0.4,0,0.8,0.2,1.2,0.5c0.3,0.3,0.5,0.7,0.5,1.1   c0,0.4-0.1,1-0.4,1.7l-3,8.9c-0.2,0.6-0.4,1.1-0.6,1.6c-0.2,0.3-0.4,0.7-0.7,0.9c-0.3,0.3-0.7,0.4-1.3,0.4c-0.6,0-1-0.1-1.3-0.4   c-0.3-0.3-0.6-0.6-0.7-1s-0.3-0.9-0.5-1.6l-2.1-7.2l-2,7.2c-0.3,1-0.6,1.8-0.9,2.3c-0.3,0.5-0.9,0.8-1.7,0.8c-0.4,0-0.8-0.1-1-0.2   c-0.3-0.2-0.5-0.4-0.7-0.7c-0.2-0.3-0.4-0.7-0.5-1c-0.1-0.3-0.2-0.6-0.3-1l-3-8.9c-0.3-0.8-0.5-1.4-0.5-1.7c0-0.4,0.2-0.8,0.5-1.1   c0.3-0.3,0.7-0.5,1.2-0.5c0.6,0,1,0.2,1.2,0.5S561.5,161,561.7,161.8L561.7,161.8z M594.1,169.7c0,1-0.3,1.9-0.7,2.6   c-0.5,0.7-1.2,1.3-2.2,1.7s-2.2,0.6-3.6,0.6c-1.3,0-2.5-0.2-3.4-0.6c-1-0.4-1.7-0.9-2.1-1.5c-0.5-0.6-0.7-1.2-0.7-1.8   c0-0.4,0.1-0.8,0.4-1c0.3-0.3,0.7-0.4,1.1-0.4c0.4,0,0.7,0.1,0.9,0.3c0.2,0.2,0.4,0.5,0.6,0.8c0.4,0.7,0.8,1.2,1.4,1.5   c0.5,0.3,1.3,0.5,2.2,0.5c0.7,0,1.4-0.2,1.8-0.5c0.5-0.3,0.7-0.7,0.7-1.1c0-0.7-0.2-1.1-0.7-1.4s-1.3-0.6-2.4-0.9   c-1.3-0.3-2.3-0.6-3.1-1c-0.8-0.4-1.4-0.8-1.9-1.4c-0.5-0.6-0.7-1.3-0.7-2.1c0-0.7,0.2-1.4,0.7-2.1c0.4-0.7,1.1-1.2,2-1.6   c0.9-0.4,1.9-0.6,3.1-0.6c1,0,1.8,0.1,2.6,0.3c0.8,0.2,1.4,0.5,1.9,0.8c0.5,0.3,0.9,0.7,1.2,1.1c0.3,0.4,0.4,0.8,0.4,1.2   c0,0.4-0.1,0.8-0.4,1c-0.3,0.3-0.7,0.4-1.2,0.4c-0.4,0-0.7-0.1-1-0.3c-0.3-0.2-0.6-0.5-0.9-1c-0.3-0.4-0.6-0.6-1-0.9   c-0.4-0.2-0.9-0.3-1.5-0.3c-0.7,0-1.2,0.1-1.7,0.4c-0.4,0.3-0.7,0.6-0.7,1.1c0,0.4,0.2,0.7,0.5,1s0.8,0.5,1.3,0.6   c0.8,0.2,1.5,0.4,2.3,0.6c1.1,0.3,2.1,0.6,2.8,1c0.7,0.4,1.3,0.8,1.7,1.4C593.9,168.4,594.1,169,594.1,169.7L594.1,169.7z" fill="#36499B"  />
	
	
</g><path d="M152.2,9.9c-5.1-4.9-10.9-7.9-17.5-9.2c-6.6-1.3-14-0.9-22.4,2.2c-2.7,1.3-7.6,2.7-15.8,8.7  c-3.4,2.5-8.8,7.2-12.6,11.9c-1.9,2.3-3.5,4.5-4.7,6.1l-1.7,2.7L76,34.6l-3.2,5.9c-2.2,4.8-4.6,10.9-5.5,15.4l-0.6,2.4l-0.4,2.3  c-0.2,1.5-0.5,2.9-0.7,4.3c-0.2,2.8-0.5,5.2-0.4,7.4c-0.1,4.4,0.4,7.6,0.6,9.8c1.4,8.9,4.7,15.5,9,20.6c4.3,5.1,9.8,8.8,16.5,10.8  c-5-5-7.7-9.9-10-15c-2.2-5.1-3.9-10.6-5-18c-0.1-1.8-0.6-4.5-0.5-8.1c-0.1-1.8,0.2-3.9,0.4-6.2c0.1-1.2,0.4-2.4,0.6-3.7l0.3-2  l0.5-2.1c0.8-3.9,2.9-9.1,4.7-13.3l2.7-5.1l1.3-2l1.5-2.4c1-1.4,2.4-3.3,4.1-5.3c3.3-4,8-8,10.8-10.2c7-5.1,11-6.3,13.3-7.4  c6.9-2.6,12.6-3.8,18.1-4.4C139.8,7.9,145.4,7.9,152.2,9.9L152.2,9.9z M88.9,154.9c-3.2,6.3-5.2,12-6.5,18.2  c-1.2,6.2-1.7,13-0.7,21.5c0.4,2.9,0.9,7.6,3.3,17.1c2.4,8.8,6.6,20.5,13.7,31.8c7,11.4,17,22.3,28.4,29.5c5.7,3.7,11.7,6.3,17.5,8  c5.8,1.7,11.2,2.4,15.7,2.4c4.5,0.1,8.2-0.3,10.7-0.7l2.9-0.5l1-0.2l3.2-0.7c2.9-0.8,5.8-1.7,8.6-2.7c3.5-1.4,7.7-3.2,12.1-5.7  c4.7-2.7,9.3-5.8,13.5-9.3c9.1-7.3,17.8-17,24.6-27.4c6.8-10.4,11.9-21.4,15-30.9c2.1-6.2,3.4-11.4,4.2-15.3  c0.6-2.8,1.3-5.5,2.2-8.3c2.3-7.5,4.2-13.1,6.4-18.4c1.1-2.6,2.3-5,3.9-7.4c1.6-2.4,3.7-4.6,6.8-6.2c-3.5-0.1-7,1.1-9.9,2.9  c-2.9,1.8-5.4,4-7.5,6.5c-4.3,5.1-7.5,11.3-10,19.4c-0.9,3-1.7,6-2.4,9.1c-0.8,3.9-2,8.5-3.9,14.2c-2.9,8.8-7.6,18.9-13.8,28.5  c-6.3,9.6-14.2,18.4-22.4,25c-3.8,3.1-7.8,5.9-12,8.3c-3.9,2.2-7.5,3.8-10.6,5c-2.4,0.9-4.9,1.7-7.4,2.3l-2.7,0.6l-0.8,0.2l-2.4,0.4  c-2.1,0.3-5.2,0.6-9,0.5c-7.5-0.1-17.9-2.4-27.7-8.8c-9.8-6.2-18.8-15.9-25.1-26.1c-6.4-10.2-10.3-20.9-12.5-28.9  c-2.2-8.7-2.7-13-3.1-15.6c-1-7.8-1.5-13.9-2.1-19.8C89.6,167.6,89,161.9,88.9,154.9L88.9,154.9z" fill="#36499B"  /><path d="M137.3,235.7c2.4,2.6,3.9,5.3,6,7.8c2,2.5,4.2,5,8.1,6.6  c1.9,0.8,4.6,1,6.7,0.6c2.2-0.4,4.2-1.2,6.1-2.3c1-0.6,1.9-1.3,2.8-2.2c0.9-0.9,1.8-1.9,2.7-3.6c0.4-0.8,0.7-1.7,0.8-2.6l0.3-1.4  l0.2-1.2c0.1-0.4,0.2-0.7,0.3-1.1c0.1-0.6,0.3-1.1,0.6-1.6c0.2-0.6,0.6-1.2,1.1-1.9l0.9-1c0.4-0.3,0.7-0.7,1.2-1  c0.9-0.7,2.2-1.3,3.8-1.7c0.5-0.1,0.9-0.2,1.5-0.3c0.3-0.1,0.5-0.1,0.8-0.1c0.3-0.1,0.3,0,1.4-0.1l1.1-0.2c0.4-0.1,0.8-0.1,1.1-0.3  l1.4-0.6c0.4-0.2,0.7-0.4,1.1-0.6c0.7-0.4,1.4-1,2.1-1.7c1.4-1.4,2.7-3.4,3.1-5.6c0.5-2.2,0.2-4.2-0.3-5.9c-0.1-0.4-0.3-0.8-0.4-1.3  c-0.2-0.5-0.4-1-0.7-1.5c-0.5-0.9-1.3-1.7-2-2.4c-2.2-2-4-2.9-5.6-3.9c-0.7-0.4-1.4-0.8-2.1-1.2c-0.5-0.3-0.1,0-0.5-0.3l-0.6-0.4  l-7.8-4.7L172,198l-0.2-0.1l-0.8-0.4l0,0l0.1,0l0,0c1-2.4-1.4,3.2-1.1,2.6l0-0.1l0.1-0.2l0.1-0.3l0.5-1.1c0.2-0.3,0.3-0.7,0.5-1l0,0  c0,0,0,0,0,0l-0.1-0.1c-0.1,0-0.1,0,0,0c-0.2-0.2-0.1-0.1-0.2-0.3c0-0.2,0.1-0.7,0.4-1.4c0.6-1.5,2-3.6,2.6-6.1  c0.3-1.2,0.3-2.7,0.3-3.1l-0.1-1.3l0-0.8l0-0.5l0-0.8c0-0.4,0-0.8,0-1.2l0-0.2l0-0.1c0-0.1,0.1-0.2,0-0.3l-0.4-1.5l-0.6-2.6  l-0.2-0.7l-0.3-1.1l-0.2-1c-0.1-0.2-0.1-0.5-0.2-0.6l-0.4-0.4c-0.1-0.1-0.1-0.1-0.2-0.3l-0.2-0.3l-0.1-0.2c-0.1-0.2,0,0,0,0l0,0l0,0  l0,0c0.1-0.1,0.3-0.2,0.5-0.3c0.2-0.1,0.5-0.2,0.8-0.4l0.5-0.2l0.1,0l0.1,0l0,0l0,0l0,0l-0.7,0.2l0.1,0l0.7-0.2  c1.8-0.5,3.6-1.6,4.9-3l0,0c2.1-2.2,3.3-4.9,4-8c0.2-1.2,0.2-1.4,0.3-2l0.3-1.6c0.2-1.1,0.4-2.2,0.7-3.3c0.5-2.2,1.3-4.4,2.1-5.9  c0.3-0.6-0.1,0,0.5-0.7l1-1.2c0.6-0.7,1.2-1.4,1.8-2.1c1.6-1.7,3.5-3.1,5.5-4.2c0.9-0.5,1.8-1,2.8-1.4c0.9-0.4,1.8-0.8,2.5-1  c2.9-0.9,5.6-1.1,7.3-1.1c3.5-0.1,6.7,0.3,9.7,0.9c3,0.5,5.7,1.3,8.3,2.1c5.3,1.8,10.5,4.1,16.3,8.1c-3.2-6.2-7.3-11.2-12.7-15  c-2.7-1.9-5.8-3.6-9.4-4.8c-4-1.3-8.1-2-12.3-2c-2.3,0-5.7,0.1-10.4,1.5c-1.3,0.4-2.3,0.8-3.5,1.3c-1.3,0.5-2.5,1.2-3.7,1.8  c-2.9,1.6-5.6,3.7-8,6.1c-0.9,0.9-1.7,1.8-2.4,2.7l-1.2,1.5l-0.8,1c-0.3,0.5-0.6,1-0.7,1.3c-1.5,2.8-2.3,5.6-3,8.3  c-0.3,1.3-0.6,2.7-0.9,4l-0.3,1.9c-0.1,0.6-0.2,1.6-0.2,1.5c-0.3,1.4-0.9,2.5-1.2,2.7c-0.2,0.2-0.2,0.2-0.3,0.2c0,0,0,0,0,0l0,0  l-0.7,0.2l0,0l-0.1,0l-0.2,0.1l-0.8,0.3c-0.5,0.2-1.1,0.5-1.6,0.7c-0.5,0.3-1,0.6-1.5,0.9c-0.6,0.4-1.2,0.9-1.7,1.4  c-0.9,0.9-1.6,1.9-2.1,3c-1,2-1.2,3.8-1,5.1c0.2,1.4,0.6,2.3,0.8,3c0.2,0.4,0.5,1,0.6,1.2l0.4,0.7l0.6,0.9l0.5,0.7  c0.3,0.3,0.1,0.2,0.2,0.2h0l0,0l-0.1,0.8c-0.1,1.3-0.1,2-0.1,2.5l0,1.1l0,0.5l0,0.7c0,0.5,0,1.8,0,1.5c0,0.3-0.6,1.4-2,4.2  c-0.6,1.4-1.4,3.5-1.3,6.2c0,2.7,1.5,6,4,8l0,0c-0.7-0.6-0.6-0.6-0.1-0.1c0.3,0.2,0.7,0.6,1.3,1c0.3,0.2,0.6,0.4,1.1,0.6l0.2,0.1  l0.1,0.1l0.1,0l0.1,0c-0.3-0.2,0.8,0.4-0.8-0.4l0,0l0,0l0.2,0.1l0.3,0.2l7.8,4.7l0.6,0.4c0,0,1,0.6,1,0.6l1.7,1  c1.2,0.7,2.8,1.7,3.7,2.5c0.1,0.1,0,0,0,0l0,0c0,0.1,0.1,0.2,0.1,0.3c0.1,0.4,0.1,0.6,0.1,0.6c0,0,0-0.1-0.1,0.1  c-0.1,0.1-0.2,0.2-0.4,0.3l-0.2,0.2h0c0.2,0-0.6,0-1,0.1c-0.5,0-1,0.1-1.4,0.2c-0.9,0.1-1.7,0.3-2.5,0.5c-5.9,1.4-9.8,4.8-11.9,7.7  c-1,1.5-1.8,2.8-2.2,4c-0.5,1-0.8,2-1.1,3c-0.2,0.6-0.4,1.3-0.5,1.9l-0.2,1.7l-0.1,0.8l0,0.4l0,0.3l0,0.2l0-0.3h0l0,0c0,0,0,0,0,0  c0.1,0-0.2,0.4-0.5,0.8c-0.3,0.4-0.7,0.8-1.1,1.1c-0.9,0.7-1.9,1.4-2.7,1.8c-0.9,0.4-1.4,0.6-2.5,0.6c-2-0.1-4.7-1.2-7.3-2.5  C143.4,238.8,140.6,236.9,137.3,235.7L137.3,235.7z M167.4,21.9c0.1,0.8-0.3,1.6-0.8,2.1c-0.5,0.5-1.2,0.8-1.9,1.1  c-1.4,0.5-2.8,0.8-4.3,1c-2.9,0.4-5.8,0.6-8.7,0.9c-3,0.2-6,0.5-9.4,0.9c-1.7,0.2-3.4,0.4-5.4,0.8c-2.2,0.4-4.1,1.1-6.3,1.7l-2.5,1  l-1.6,0.7l-1.9,1c-2.7,1.3-6.2,3.5-10,7.4c-3.6,3.6-7.3,9.3-9.7,15.8c-2.5,6.4-4,13.3-5.2,19.5c-0.5,2.8-1.1,5.6-1.8,8.3  c-0.7,2.5-1.3,4.7-2,6.5c-0.6,1.8-1.2,3.2-1.6,4.2L93.7,96c0,0-0.8,1.8-2.4,4.5c-2.1,3.6-4.7,6.8-7.7,9.6c-3.5,3.3-8.2,6.1-13.1,8  c-5,1.9-10.2,3-14.6,3.5c-5.7,0.7-10.1,0.3-13.6-0.3c-3.5-0.6-6-1.6-7.7-2.2c-6.9-2.7-12.2-5.7-17.6-8.4c-5.6-2.9-11.2-5.7-16.9-8.4  c4.2,5.6,7.8,10.3,12.3,14.7c2.3,2.2,4.8,4.3,7.7,6.4c2.9,2.1,6.4,4,10.6,5.6c2.1,0.8,5.1,2,9.5,2.8c4.3,0.9,10.2,1.4,16.9,0.5  c5-0.5,11.1-1.8,17.2-4.1c6.1-2.3,12-5.9,16.5-10.1c3.8-3.5,7-7.6,9.6-12c1.9-3.4,2.9-5.5,2.9-5.5l0.8-1.8c0.5-1.2,1.2-2.8,1.9-4.9  c0.8-2.1,1.5-4.6,2.2-7.4c0.7-2.9,1.4-5.9,1.9-8.9c1.2-6,2.7-12.4,4.7-17.8c2-5.4,4.8-9.6,7.3-12.1c2.8-2.8,5.2-4.4,7.3-5.4l1.4-0.7  l1.3-0.5l2-0.8c1.8-0.5,3.4-1.2,4.9-1.5l5-1.3c3.3-0.9,6.4-1.8,9.3-3c2.9-1.2,5.8-2.5,8.6-4.3c1.4-0.9,2.8-1.9,4-3.2  c0.6-0.7,1.2-1.5,1.5-2.4C168,23.7,167.9,22.7,167.4,21.9L167.4,21.9z" opacity="0.5"  fill="#36499B"  enable-background="new    "  /><path d="M174.5,24.1c1.8,3,2.6,6.1,3.1,8.9c0.5,2.9,0.6,5.6,0.6,8.4c0,2.8-0.4,5.6-0.8,8.5c-0.3,1.5-0.5,3.1-1,4.7  l-0.6,2.5l-0.7,2.8c-0.4,1.3-0.8,3-1.6,5.5l-1.4,4.4c-0.5,1.8-1.3,3.7-1.7,6.9c-0.1,1-0.2,2-0.1,3c0,1,0.3,2.4,0.5,3.4  c0.5,2.1,1.3,3.9,2,5.6c0.7,1.6,1.5,3.1,2.3,4.6l1.1,1.9l0.4,0.7v0c-0.2,0.1,0.8-0.4-1.4,0.8c-0.9,0.4-1.7,0.7-2.8,0.9l-1,0.3  c-0.5,0.2-1.1,0.3-1.6,0.6c-1,0.4-1.9,1-2.6,1.6c-2.9,2.7-3.3,6.4-3.4,7.8l-0.1,1.6c0,0,0,0.2-0.1,0.5c-0.1,0.3-0.2,0.9-0.6,1.9  c-0.4,1-1.2,2.3-2.3,3.9c-0.6,0.9-1.3,1.7-2.1,2.6l-0.7,0.8l-0.7,0.8l-0.4,0.4c-0.1,0.1-0.1,0.3-0.2,0.5l-1.1,3l-1.4,4l-0.2,0.6  c0,0.1,0,0,0,0.1l0,0c0,0,0,0,0,0c-0.2,0.1-0.4,0.3-0.6,0.4c-1.6,1-3,0.9-4.6,0.2c-1.4-0.6-4-2.7-5.9-4.1c-1.8-1.4-3.5-2.7-5.2-4.2  l-3.9-3.3c-1-0.9-2-1.8-3-2.6c-0.4-0.4-0.8-0.6-1.3-0.8c-0.4-0.2-0.8-0.4-1.2-0.6c-0.7-0.3-1.4-0.5-2.1-0.7  c-1.4-0.4-2.9-0.6-4.3-0.5c-3,0.1-5.8,1.2-7.8,2.8c-1.1,0.8-1.8,1.7-2.5,2.5c-0.6,0.9-1.3,1.8-1.7,2.7c-0.9,1.7-1.6,3.5-1.9,5.4  c-0.7,3.7-0.4,7.4,1,10.6c1.3,3.2,3.4,6,6.2,8.2c-2.7-6.5-2.1-12.3,0.3-16.4c1.1-2,2.9-4.3,4.4-5c0.8-0.4,1.4-0.5,2.1-0.4  c0.4,0,0.9,0.1,1.3,0.3c0.2,0.1,0.5,0.2,0.7,0.3c0.1,0,0.3,0.1,0.2,0.1l0,0l2.6,2.3l4.1,3.5c1.8,1.5,3.6,3,5.5,4.4l3.3,2.5l0.9,0.7  l1.2,0.8c0.8,0.6,1.8,1,2.7,1.5c1.8,0.8,4.1,1.5,6.8,1.4c2.7,0,5.4-0.9,7.6-2.2c0.5-0.3,1.1-0.7,1.6-1.1c0.7-0.5,1.3-1.1,1.9-1.7  c0.3-0.3,0.6-0.6,0.8-1c0.2-0.4,0.4-0.8,0.5-1.1l0.6-1.7l1.4-4l0.4-1.1l0.1-0.2l0,0v0l0.6-0.7c0.9-1.1,1.8-2.2,2.7-3.3  c1.5-2.1,2.7-4.1,3.5-5.9c0.7-1.7,1.2-3.3,1.4-4.4c0.2-1.1,0.2-1.6,0.2-1.6l0.1-1.6c0.1-0.6,0.1-0.4,0.1-0.4l0,0l0,0l0.7-0.2  c1.2-0.3,2.9-0.8,4.6-1.6c0.9-0.4,1.6-0.7,2.7-1.5c1.2-0.8,2.2-1.8,3-3c1.9-2.6,2.4-6.3,1.3-9.6c-0.2-0.5-0.4-1-0.6-1.5l-0.5-0.9  l-0.9-1.7c-0.7-1.3-1.3-2.6-1.9-3.9c-0.6-1.4-1.1-2.8-1.4-3.8c-0.1-0.6-0.2-0.8-0.2-1.3c0-0.4,0-0.8,0-1.3c0.2-1.5,0.8-3.4,1.3-5  l1.4-4.5c0.8-2.6,1.2-4.4,1.6-5.8c0.3-1,0.5-2,0.7-3l0.6-3.1c0.4-2,0.4-4,0.6-5.8c0-3.8-0.3-7.2-1.3-10.5  C184.1,33.9,180.5,28,174.5,24.1L174.5,24.1z" fill="#36499B"  /><g><path d="M261.4,62h-18.8v28.8c0,4.1-1,7.2-2.9,9.4c-1.9,2.1-4.4,3.2-7.3,3.2c-3.1,0-5.6-1-7.5-3.2   c-1.9-2.1-2.8-5.2-2.8-9.2V12.6c0-4.5,1-7.8,3.1-9.7C227.1,1,230.4,0,235,0h26.4c7.8,0,13.8,0.6,18,1.8c4.2,1.2,7.7,3.1,10.8,5.8   c3,2.7,5.3,6,6.9,9.8c1.6,3.9,2.4,8.2,2.4,13.1c0,10.3-3.2,18.2-9.6,23.5C283.5,59.3,274,62,261.4,62L261.4,62z M256.4,15.5h-13.9   v31h13.9c4.8,0,8.9-0.5,12.2-1.5c3.3-1,5.7-2.7,7.4-5c1.7-2.3,2.6-5.3,2.6-9.1c0-4.5-1.3-8.1-3.9-10.9   C271.6,17,265.6,15.5,256.4,15.5L256.4,15.5z M347,86.3l-16.3-64.7v70.1c0,3.9-0.9,6.8-2.6,8.7c-1.7,1.9-4,2.9-6.9,2.9   c-2.8,0-5-1-6.8-2.9c-1.8-1.9-2.6-4.8-2.6-8.8V11.3c0-4.4,1.2-7.4,3.5-9c2.3-1.5,5.4-2.3,9.4-2.3h6.4c3.8,0,6.6,0.3,8.3,1   c1.7,0.7,3,1.9,3.8,3.7c0.8,1.8,1.8,4.7,2.8,8.8l14.8,55.6l14.8-55.6c1.1-4.1,2-7,2.8-8.8c0.8-1.8,2.1-3,3.8-3.7s4.5-1,8.3-1h6.4   c3.9,0,7,0.8,9.4,2.3s3.5,4.5,3.5,9v80.4c0,3.9-0.9,6.8-2.6,8.7c-1.7,1.9-4.1,2.9-7,2.9c-2.7,0-5-1-6.7-2.9   c-1.8-1.9-2.6-4.8-2.6-8.7V21.5l-16.3,64.7c-1.1,4.2-1.9,7.3-2.6,9.2c-0.7,2-1.9,3.8-3.7,5.4c-1.8,1.6-4.3,2.4-7.5,2.4   c-2.4,0-4.4-0.5-6.1-1.6c-1.7-1-3-2.4-3.9-4c-0.9-1.6-1.7-3.4-2.2-5.4C348.1,90.3,347.6,88.3,347,86.3L347,86.3z M457.3,58.1h-7.2   v32.6c0,4.3-0.9,7.5-2.8,9.5c-1.9,2-4.4,3-7.4,3c-3.3,0-5.8-1.1-7.6-3.2c-1.8-2.1-2.7-5.2-2.7-9.4V12.6c0-4.4,1-7.6,3-9.6   c2-2,5.2-3,9.6-3h33.5c4.6,0,8.6,0.2,11.8,0.6c3.3,0.4,6.2,1.2,8.9,2.4c3.2,1.3,6,3.3,8.5,5.8c2.4,2.5,4.3,5.4,5.6,8.7   c1.3,3.3,1.9,6.8,1.9,10.5c0,7.6-2.1,13.6-6.4,18.2c-4.3,4.5-10.7,7.7-19.4,9.6c3.6,1.9,7.1,4.8,10.5,8.6c3.3,3.8,6.3,7.8,8.9,12.1   c2.6,4.3,4.6,8.1,6.1,11.6s2.2,5.8,2.2,7.1c0,1.3-0.4,2.7-1.3,4c-0.9,1.3-2,2.4-3.5,3.1c-1.5,0.8-3.2,1.1-5.1,1.1   c-2.3,0-4.2-0.5-5.8-1.6c-1.6-1.1-2.9-2.5-4.1-4.1c-1.1-1.7-2.7-4.1-4.6-7.3l-8.2-13.7c-3-5-5.6-8.9-7.9-11.5   c-2.3-2.6-4.7-4.4-7.1-5.4C463.9,58.6,460.9,58.1,457.3,58.1L457.3,58.1z M469,15.5h-19v27.9h18.4c4.9,0,9.1-0.4,12.5-1.3   c3.4-0.9,5.9-2.3,7.7-4.4c1.8-2.1,2.7-4.9,2.7-8.5c0-2.8-0.7-5.3-2.1-7.4c-1.4-2.1-3.4-3.8-6-4.8C480.8,16,476.1,15.5,469,15.5   L469,15.5z M595.3,17h-22.4v73.8c0,4.2-0.9,7.4-2.8,9.5c-1.9,2.1-4.3,3.1-7.3,3.1c-3,0-5.5-1-7.4-3.1c-1.9-2.1-2.9-5.2-2.9-9.4V17   h-22.4c-3.5,0-6.1-0.8-7.8-2.3c-1.7-1.5-2.6-3.6-2.6-6.1c0-2.6,0.9-4.7,2.7-6.2c1.8-1.5,4.4-2.3,7.7-2.3h65.4   c3.6,0,6.2,0.8,7.9,2.4c1.7,1.6,2.6,3.6,2.6,6.2c0,2.5-0.9,4.6-2.6,6.1C601.5,16.2,598.9,17,595.3,17L595.3,17z" fill="#36499B"  />
	
</g></svg>