<svg viewBox="0 0 508.8 283.5" role="img" aria-labelledby="poppi--title" xmlns="http://www.w3.org/2000/svg" xmlns:xlink="http://www.w3.org/1999/xlink"><title id="poppi--title">POPPI - Procedural pain in premature infants</title><g><path d="M0.1,273.2v-72.7v-37.9c0-5.5,4.6-10.1,10.1-10.1c5.3,0,9.7,3.6,10.5,7.8c7-4.6,16.2-7.8,25.9-7.8   c25.3,0,46.1,21.7,46.1,47.8c0,26.1-20.7,47.2-46.1,47.2c-9.5,0-18.7-2.9-25.5-7.8v33.5c0,5.3-4.8,10.3-10.9,10.3   C4.6,283.5,0.1,278.5,0.1,273.2L0.1,273.2z M21,200.3c0,7.4,2.5,14.7,7.4,19c4.8,5.3,11,8,18.1,8c6.5,0,12.9-2.7,17.9-8   c4.4-4.4,7.4-11.6,7.4-19c0-7.4-3-14.3-7.4-19.2c-4.9-5.1-11.4-7.8-17.9-7.8c-7,0-13.3,2.7-18.1,7.8C23.5,186,21,192.9,21,200.3z    M120.2,233.8c-8.2-8.4-13.1-20.2-13.1-33.5c0-12.9,4.9-24.2,13.1-33.3c8.6-8.9,19.6-14.5,32.7-14.5c12.6,0,24,5.5,31.8,14.5   c8.6,9.1,13.3,20.4,13.3,33.3c0,13.3-4.8,25.1-13.3,33.5c-7.8,8.9-19.2,14.5-31.8,14.5C139.8,248.2,128.7,242.7,120.2,233.8z    M127.8,200.3c0,8.2,2.5,14.8,6.9,20.2c4.8,4.6,11,7,18.3,7c6.7,0,12.8-2.5,17.5-7c4.8-5.3,7.4-12,7.4-20.2   c0-7.8-2.7-14.7-7.4-19.8c-4.8-4.2-10.9-7.2-17.5-7.2c-7.2,0-13.5,3-18.3,7.2C130.3,185.6,127.8,192.5,127.8,200.3z M216.1,273.2   v-72.7v-37.9c0-5.5,4.6-10.1,10.1-10.1c5.3,0,9.7,3.6,10.5,7.8c7-4.6,16.2-7.8,25.9-7.8c25.3,0,46.1,21.7,46.1,47.8   c0,26.1-20.7,47.2-46.1,47.2c-9.5,0-18.7-2.9-25.5-7.8v33.5c0,5.3-4.8,10.3-10.8,10.3C220.7,283.5,216.1,278.5,216.1,273.2   L216.1,273.2z M237,200.3c0,7.4,2.5,14.7,7.4,19c4.8,5.3,11,8,18.1,8c6.5,0,12.9-2.7,17.9-8c4.4-4.4,7.4-11.6,7.4-19   c0-7.4-3-14.3-7.4-19.2c-4.9-5.1-11.4-7.8-17.9-7.8c-7,0-13.3,2.7-18.1,7.8C239.5,186,237,192.9,237,200.3z M327.4,273.2v-72.7   v-37.9c0-5.5,4.6-10.1,10.1-10.1c5.3,0,9.7,3.6,10.5,7.8c7-4.6,16.2-7.8,25.9-7.8c25.3,0,46.1,21.7,46.1,47.8   c0,26.1-20.7,47.2-46.1,47.2c-9.5,0-18.7-2.9-25.5-7.8v33.5c0,5.3-4.8,10.3-10.9,10.3C332,283.5,327.4,278.5,327.4,273.2   L327.4,273.2z M348.4,200.3c0,7.4,2.5,14.7,7.4,19c4.8,5.3,11,8,18.1,8c6.5,0,12.9-2.7,17.9-8c4.4-4.4,7.4-11.6,7.4-19   c0-7.4-3-14.3-7.4-19.2c-5-5.1-11.4-7.8-17.9-7.8c-7,0-13.3,2.7-18.1,7.8C350.8,186,348.4,192.9,348.4,200.3z M453.6,163.2v74.2   c0,5.7-4.4,10.3-10.3,10.3c-5.7,0-10.3-4.5-10.3-10.2c0,0,0-0.1,0-0.1v-74.2c0-6.1,4.6-10.5,10.3-10.5   C449.3,152.7,453.6,157.1,453.6,163.2L453.6,163.2z" fill="#1D1D1B"  />
	
</g><path d="M452,38.1c13.2-2.3,25.8,6.5,28.1,19.7c0.2,1.4,0.4,2.9,0.4,4.3c12-0.5,22.8,7.9,25,20.1  c2.1,12.2-5.2,23.8-16.6,27.4c0.5,1.4,0.9,2.8,1.1,4.2c2.3,13.2-6.5,25.8-19.7,28.1c-10,1.8-19.7-2.9-24.8-11  c-3.4,3.1-7.6,5.2-12.2,6c-13.2,2.3-25.8-6.5-28.2-19.7c-1.2-6.7,0.5-13.2,4.2-18.4c-5.2-3.6-9-9.1-10.2-15.8  c-2.3-13.2,6.5-25.8,19.7-28.2c4.6-0.8,9.4-0.3,13.7,1.6C434.7,47.3,442.1,39.9,452,38.1L452,38.1z" fill="#FFD300"  /><g><path d="M452.7,36.9c-1.3,0.3,0.8,0.4-0.8,0.4C452,37,452.2,36.8,452.7,36.9z" fill="#1D1D1B"  /><path d="M447.5,38.5c-1.7,1.5-3.9,2.6-5.9,4c-2,1.4-4,3.2-4.9,5.4c-0.3,0.5-0.6-0.6-1.2,0.5   c-0.4,1.2-0.9,2.4-1.4,3.8c-0.5,1.4-1.1,3-1.5,4.4c-1.3-0.7-2.7-1.2-4.1-1.8c-1.3-0.5-2.7-0.9-4-1.2l0.4-0.2   c-1.1-0.3-2.4,0.5-3.5,0.5c0-0.2,0.3-0.3,0.1-0.5c-0.3,0.5-2,0.4-2.4,0.9c-0.5-0.1-0.5-0.5-1.1-0.6l-0.5,0.7   c-0.7,0.9-1.7,1.1-2.8,1.4c-1.1,0.3-2.3,0.6-3.2,1.5c0-0.2,0.2-0.4,0-0.4c-3,2.5-6.7,5.6-8.6,9.4c-0.1-0.2-0.3-0.6-0.6-0.5   c0.4,0.5-0.2,1.7-0.5,2.7c-0.8,0.2-0.3,2-1,3.1l-0.1-0.1c0.3,1.1-0.8,1.3-0.2,2.2l-0.6,0.5c0.8,0.6-0.7,1.3-0.3,2.2l0.2,0   c0.1,0.8-0.3,1.1-0.2,1.8l-0.1,0.1c0.2,1.6-0.1,2.6,0.5,2.5c-0.5,0.6-0.4-1.6-1.1-0.6c1,5.4,3.1,10.8,6.9,14.7   c0.2,0.6,0.5,1,0.4,1.3c0.5,0.3,1.6,1.3,2.4,1.5c-0.2-0.1-0.1,0.4,0.1,0.6c0.2,0.3,0.6,0.4,1,0.5c0.1,0.2,0.2,0.5-0.4,1.1   c0.1-0.4-0.2-0.5-0.5-0.3c0.1,0.7-0.7,2-1,3c0-0.2,0-0.5-0.2-0.5c0,1.3-1,2-1.1,3.1l-0.2-0.5c-1,1.5,0.6,0.7-0.1,2.1   c0-0.4-0.2-0.3-0.3-0.4c0.3,1.5-0.3,3.6-0.2,5c0-0.1-0.2-0.1-0.2-0.1c0,1.5-0.2,3,0.3,4.6c-0.1,0.6-1-0.1-0.6,1.5   c0.7-0.2,0.9,2.6,1.5,1.4c0.2,1.3,0.7,3.4,1.3,4.1c-0.5-0.4-0.6,1-1.1,0c0,0.3,0,0.7-0.1,1c-0.3,0-0.3-0.9-0.5-0.4   c0.3,0.5,1.3,1.9,1.5,2.4c1,0.7,2.2,1,3.3,2.2c-0.7-0.4-0.4,0.9-0.8,0.6c0.9,0.3,1.8,0.5,2.7,0.7c0.4,0.3-0.4,0.5,0.4,0.9   c0.1-0.2,0.4,0,0.7,0c0.1,0.2,1.8,1.2,1.6,2c0,0.4-0.8-0.4-0.5,0.2c0.9,0.6,1,0.4,1.9,0.9l0,0.1c0.5,0.5,1.9,0.7,1.4,0   c-0.4-0.2-0.1,0.5-0.6,0c0.6-0.2,1.7,0.3,2.6,0.6c-0.4,0-0.4,0.2-0.6,0.3c1.5,0,2.8,0.2,4.3,0.3c0.1-0.3-0.7,0.5-0.8,0.3   c1.8,1,3.9,0,5.4,0.8c-0.3,0.1-0.1-0.5-0.1-0.4c0.9,0,0.9,0.6,1.4,0.4c0.1,0.3,0.7-0.1,1.3-0.3c0.3-0.3,0.2,0.1-0.4,0.2   c0.9-0.3,4-1.3,5.9-1.6c-0.1-0.2,0.8-1.1,1.2-1.3l0,0.5c0.5,0.1,1.3-0.7,1.6-0.4c0.3-0.5-0.5,0.1-1.2,0.6c-0.7,0.5-1.5,0.9-0.9,0.5   c0.5,0.2,1.3-1.4,1.3-0.7c0.4-0.2,0.7-0.5,1.1-0.8c0.2-0.1,0.3-0.3,0.5-0.4c0.2-0.1,0.4-0.1,0.8-0.3c-0.1,0-0.2,0.1-0.3,0.3   c0,0.1,0,0.2,0,0.3c0.1,0.1,0.1,0.4,0.6,0c1.5-1.1,0.3-0.5,1.5-1.6l0.8-0.9c0-0.6,1.4-1.1,0.8-1.3c0.1,0.2,0.8-0.5,1.3-1   c0.4,0.5,0.6,1.1,0.5,1.5l-0.3,0.6c0.4,0.6,0.9,0.2,1.5,0.6c0,0.2,0.1,0.5,0,0.6c0.3-0.5,0.6,0.1,0.9,0.6c0.4,0.6,0.8,1.2,1.4,1.3   c0.6,1.2,2,2,2.1,2.9c0.9,0.3,1.7,0.5,2.4,1.2c-0.2,0-0.5-0.2-0.6,0c0.4,0.6,0.6,0.5,1.2,0.6c-0.2,0.1,0.8,1.1,1.4,1.7   c0.9,0.1,0.8-0.5,1-0.7c0.4,1.2,2.5,0.3,3.2,1.3c-0.3,0.1-1.4,0.1-0.7,0.5c0.6,1.1,1.8-0.2,2.9,0.4l-0.2-0.8   c0.5,0.6,1.9-0.2,1.7,0.5c0.4-0.2,1.5,0.3,1.4-0.4c2.1,0.7,4.9-0.8,6.5,0.1c0.3-0.2,1-0.3,0.8-0.6c-0.6-0.2-0.6,0.5-0.8,0.3   c0.3-0.1,0.3-0.3,0.3-0.4c0.7,0,1.2-0.1,0.8,0.6c1.6-0.1,1-1.7,2.7-2.2c0.1,0.3,0.2,0.4,0.7,0.1c0.2-0.3,0.4-0.6,0.6-1   c1.1-0.5,0.9,0.2,1.3,0.7c0.5-0.4,1.2-0.9,1.2-1.4c0.3,0,0.7,0,1,0c-0.8,0,0.2-0.6,0.4-0.9l-0.1,0.3c0.2,0.1,0.7-0.5,0.9-0.8   c-0.3-0.2-0.9,0.3-1.3,0.5c0.1-0.4,0.5-0.7,0.6-1.2c0.2,0.5,1-0.5,1.4-0.8c0.5-0.4,0.1-0.8,0.2-0.9c0.2,0.2,0.6-0.7,0.6-0.1   c-0.1,0.2-0.5,0.2-0.5,0.6c0.4-0.2,0.7,0.2,1-0.7c0.2-0.6-0.9-0.5,0-1.2c-0.1,0.3,0.1,0.5,0.1,0.8c0.3-0.2,0.6-0.5,0.8-0.7   l-0.4-0.3c0.2-0.1,0.2,0,0.2,0c-0.2-0.5,0.7-1.5,0.4-2c0.2-0.5,0.8-0.8,1.1-1.3l0,0.1c0.5-0.5,0.7-1.3,0.5-1.9l0.1,0.1   c0.2-0.3,0.3-1.1,0.2-1.6c0.5-0.7,1.8,0.2,1.4-0.9c0.2-0.9-0.6-1.5-0.9-1.2c0.6-1.5-0.1-3.3,0.5-4.7c-0.2-0.2-0.3-0.1-0.4-0.5   c0-0.5-0.1-1-0.2-1.5c0-0.2-0.1-0.5-0.2-0.7l-0.3-1.2c-0.6-1.8-1.2-3.6-1.4-4.9c0.5-0.1,1-0.2,1.5-0.2c-0.9,0.5,0.5,0.3,0.8,0.5   c0.4-0.6,1.4,0,1-0.7c-0.5-0.3-0.5-0.5-1.8-0.2c1.1-0.5,2.6-1.1,3.9-1.6l0.7-0.3l0.5-0.2c0.3-0.1,0.6-0.2,0.8-0.2   c-0.4,0-0.2-0.2-0.1-0.5c0.3,0.6,1.2,0.2,1.7-0.5l-0.2-0.4l0.6,0c0.2-0.3-0.3-0.9,0.5-1c0.1,0.1,0.3,0.2,0.4,0.2   c0.4-0.8,0.7-1.9,1.5-2.3l0.9-0.1c0.2-0.3,0.3-1-0.2-0.6c1.2-0.9,1.7-1.7,2.4-1.8c0.3-2.8,1.5-6,1.9-8.8l0.3,0.1   c0.4-0.7-0.5-0.5-0.2-1c0.3,0.3,0.7-0.5,1,0.1c0.4-1.1-0.4-1.5-0.6-2.2c-0.4-0.1,0.3,0.6-0.2,0.4c-0.1-0.1,0.3-1.5-0.3-1.6   c0.2-0.3,0.7-0.1,0.9,0c-0.1-0.2-0.2-0.4-0.3-0.7c0.6-0.9,1.4,1.8,2.2,0.9l-0.1-0.7c0.6-0.7,0.8,1.8,0.9,0   c-0.4-0.8-1.3-1.3-1.5-0.6c-0.4-1.5-1.5-0.5-1.7-2c0.3-0.5,0.3,1.2,0.7,0.8c0.4-0.8-0.5-1.4-0.5-2.1c0,0.8-0.8,0.3-1-0.1   c0.1-0.8,0.7,0.3,0.4-0.7c-0.4-0.1-1-0.9-0.9,0c-0.9-0.1-0.2-1.1-0.9-1.4c0.4-0.6,1.6,0.6,1.4-0.7c-0.4,0.4-1.3-1-1.7-0.1   c0-0.5,0.3-0.7,0.7-0.5c0-0.8-1.6-1-0.8-1.7l-0.6,0.1c0-0.3,0-0.6,0.1-1c-0.3-0.5-1.7-1.1-1-1.6c-0.2-0.1-1-1.2-1.1-0.4   c0.3,0.8,0.9,0.5,0.6,1.3c0.2-0.8-0.8-0.9-1.3-1.1l0.2-0.3c-0.3-0.1-0.7-0.6-1-0.5c0.3,0,0.4-0.2,0.3-0.4l-0.5,0.1   c-1-0.6,0.4-0.8-0.5-1.4c0.3,0.1,0.6,0.2,0.9,0.3c-0.2-0.1-0.2-0.7-0.7-0.9c-0.4,0.2-1.1,0.4-1.4,0.6c-0.6-0.2,0.1-0.6-0.7-0.5   c0.3,0,0.6,0,1,0c0.2,0,0-0.9-0.7-1.4c-0.6-0.2-1.6,0-1,0.6c-0.3-0.2-0.7-0.7-0.3-0.8c-0.9-0.3-0.1,0.5-1,0.3   c-0.1-0.4-0.9-1.3-1.3-1.9c0.4-0.1,0.7-0.2,1.1-0.3l-0.5-0.3c1-0.2-0.2-0.6,0.5-1c-0.4-0.3-0.9-0.3-1.4-0.2   c0.8,1.3-1.7,0.8-1.7,1.9c-1.5-0.2-0.4-2.5-2.4-1.4c0.2,0.3-0.7,0.8,0.4,0.8c-0.5-0.2-0.7,0.1-0.9,0.2c-0.3,0.2-0.3,0.3-1.1,0   c0.4-0.1,0.3-0.2,0.4-0.3c0-0.1,0-0.2-0.2-0.4c-0.2-0.1-0.3-0.3-0.2-0.4c0-0.1,0.4-0.2,0.7-0.3c-0.1,0.3,0.7,0.3,0.9,0.3   c-0.4-0.4,0.2-0.9-0.8-1.1c-0.8,0-2.3,0-2.3,0.4c-0.2,0.5,1.7,0,0.8,0.5c-2.5,0.1-2.3-0.6-3.9,0.3c1.6-0.1,1.7,0.4,1.5,0.8   l-2.2,0.3l0.6-0.4c-2-0.1-1.9,0.2-2.7,0.5c-0.1-0.1-0.2-0.5-0.2-1.6l0.6-2c0.4,0.2,0.2,1.8,0.3,2.8c0.6,0,1.1-0.2,1.2-0.5   c-0.3,0-0.5,0-0.7,0c-0.1-1.1-0.4-1.6-0.3-3.2c0.1,0.3,0.1,0.8,0.2,1.1c0-0.3,0.3-0.9,0.5-1.5c0.2-0.7,0.3-1.4-0.2-2.4   c-0.4-1.1-0.4-0.3-0.7-0.2c-0.1-0.4-0.1-0.5-0.1-0.7c0-0.1-0.1-0.3-0.1-0.4c-0.1-0.2-0.2-0.4-0.3-0.6c-0.2-0.4-0.4-0.7-0.5-1.1   c0.7,0-0.4-1.6,0.6-0.8c-0.2,0.6,0.3,2.6,1,3c0.2-0.2,0.3-0.2,0.3-0.1c0,0.1,0,0.1,0.1,0.2l0,0.4c0.1,0.6,0.1,1.6,0.5,1.6   c-0.1-2,0.6-2,1.2-2.3c0-0.4-0.3-0.7-0.4-0.9c-0.5,0-0.4,0.4-0.9,0.5c-0.1-1.4-0.8-2.6-1.5-3.2c0.1-0.5,0.6-0.6,0.8,0   c-0.7-1.5-1.4-3.1-2.1-4.6c-0.2,1.3-1.1-1.4-1.3-0.4c0.3,0.8,0.1,1.7-0.4,1.5c-0.2-0.4,0.3-0.2,0.4-0.4c-0.7-0.3,0.1-1.2-0.9-1.3   c1,1,1-0.3,1.7-0.5c-0.9-0.7,0.4-0.2-0.3-1.1l-3.1-2.2c-0.7-1.5-3-2.5-4.2-3.1c-0.5-0.6,0.3-1-0.3-1.5c-0.8-0.4,0.3,1-0.8,0.1   l0.2-0.1c-0.4,0-2.2-1.5-2.9-0.6l0.7-0.6c-0.2-0.2-0.5-0.1-0.7-0.1c0.1-0.2-0.1-0.6,0.3-0.6c-0.7-0.8-1.8-0.5-2.7-0.6l0.5,0.6   c-1.6,0-2.6-0.6-4.2-0.5l0.1-0.5c-0.3,0.1-0.6,0.1-0.9,0.2c0.2-0.4-0.6-0.7-1.1-0.4c0.8-0.4,1.7-0.8,2.5-1.1c0.7,0.3-0.8,0.5-0.4,1   c0.3,0.4,1.8,0.4,2.1,0c-0.6-0.1-0.6,0-1.1,0.1c-0.1-0.7,0.7-0.6,1.2-0.9c-0.3,0-0.7-0.3-0.8-0.1c0.6-0.2,1.3-0.2,2.3,0   c-0.7,0.1,0.3,0.5,0,0.6c0.2-0.5,1.2-0.5,2.4,0c0.6,0.9,2.4,0.4,3.7,1.2c-0.8,0.3-1.7,0.4-2.5,0.3c0.7,0.6,0.9,0.3,1.6,1   c0.6-0.2,1.1-0.7,2.3-0.3l-0.2,0.4c1,0.4,1.4-0.2,2.5,0.7c1.8,1.5,3.6,3.2,4.7,4.7l-0.3,0.3c1.4,0.2,2.3,2.5,3.3,3.5   c0.8,2.2,2.5,4.5,2.1,5.9c0.2,0.6,0.4,1.1,0.5,1.7c0.2,0.6,0.3,1.2,0.4,1.5c0.2,0.7,0.3,1.4,0.3,2c0.5,0,1-0.1,1.5,0   c0.5,0,0.8,0.1,1.8,0.2c-0.3,0.2-0.5,0.3-0.8,0.5c0.8-0.4,0.4,0.4,1.2,0.4c-0.8-0.6,1.1-0.5,1.7-0.7c1.8,0.9,4.2,1.2,5.9,1.6   l-0.1,0.4c1.9,0.1,3.4,1.8,4.9,3.3c0.1,0.3,0.1,0.8,0.6,1.2c1.3,0.3,1.7,0.7,3.2,1.8c0.8,1,1.9,2.8,2.3,4c1.6,1.8,2.6,4.1,3.3,6.5   c0.7,2.4,0.9,4.8,1.2,7.4l-0.5,0.3c0.5,2.4,0,5.2-0.9,7.7c-0.9,2.5-2.2,4.7-3.1,6.6l-0.5-0.8c-0.9,0.9-1.6,2.5-0.9,2.6   c-1,0.9-1.9,2.8-3,2.8c-1.1,0.8-1,1.4-1.8,2.2l-2.8,1.6l-1.2,0.7c-0.3,0.2-0.3,0.2-0.5,0.3l0.2,0c0-0.2-0.2-0.5-0.5-0.4   c-0.1,0.3-1.5,0.3-0.1,0.9c-0.1,0-0.2,0-0.3,0c-0.1,0.3,0.2,0.8,0.4,1.1c0.3,1.3,0.6,2.9,0.2,4.1c0.3-0.2,0.4,0.4,0.5,0.7   c0.1,2.5-0.8,4.9-0.8,6.9c-0.2,0.3-0.3-0.7-0.6,0.2c0,0.6,0.3,0.1,0.3,0.8c-0.6,4-3.5,7.2-5.6,10c-1.8,2.6-4.3,4.8-7,6.5   c-2.8,1.6-5.8,2.8-8.8,3.4l0-0.2c-1.9,1.2-4.8-0.2-6.4,0.9c-0.5-0.2-1.8-0.2-1.5-0.6c-1.7,0.4-4.4-1.1-6.7-1.3   c0.2,0.1,0.3,0.1,0.6,0.1c-2.1-1.2-4.2-1.5-6.1-3.2c0.3,0.1,0.7,0.2,0.8,0.1c-0.6-0.8-2.4-0.5-2.2-1.6c-0.4-0.3-0.6,0.2-0.3,0.3   c-1.2-1.1-2.4-2.2-3.6-3.4l-1.2-1.2c-0.3,0.3-0.5,0.6-0.8,0.9l-0.2,0.2l-0.1,0.1c0,0,0,0,0,0l-0.2,0.1c-0.5,0.3-1,0.6-1.4,0.9   c-3.9,1.3-0.9-1.3-3.5,0.6c-0.3-0.1,0,0.4-0.2,0.2c-1.1,0.7-2.1-0.4-2.8,0.3c0.5,0.5-0.5,0.5-0.4,0.8c-2.5,0.1-3-0.4-4.8,0.2   l0.1-0.3c-2.2,1-4.8,0.4-6.9,1c-6.3-1.1-12.1-4.3-16.4-9c-4.3-4.7-6.8-10.9-7.1-17.4c-0.1-3.1,0.4-6.3,1.3-9.3   c0.4-1.5,1-2.9,1.7-4.3l0.1-0.3l0.1-0.1l-0.1-0.1l-0.1-0.1l-0.3-0.3c-1.2-1.1-2.2-2.3-3.2-3.6c-1.9-2.6-3.3-5.6-4.1-8.7   c0-3.1,0-3.2-0.7-6.4c0.1,0.1,0.2,0.3,0.3,0.1c-0.7-0.1-0.2-2.3-0.8-2.6c0.3-4.7,1.2-9.1,3.6-13.3c-0.3,0.7,0,1.3,0.4,0.5   c0-0.3,0.1-0.7,0.1-1l0.2,0c0.2-0.6,0.3-1.3-0.2-0.9c3.1-5.4,8.3-9.4,14.1-11.3c2.9-1,5.9-1.4,8.9-1.5c1.5,0,3,0.1,4.5,0.3   c0.7,0.1,1.5,0.2,2.2,0.4l1.1,0.2c0.2,0.2,0.4,0.3,0.7,0.4l0.1-0.7c0-0.1,0-0.2,0.1-0.3c0,0,0.1-0.2,0.2-0.5l0.3-0.7   c2.4-3.9,5.5-6.9,9-9.2c3.5-2.3,7.3-4.1,11.6-5.1C451.5,35.3,450.6,37,447.5,38.5L447.5,38.5z" fill="#1D1D1B"  /><path d="M454.3,36.6c0.3,0.3,1.3,0.5,0.5,1C454.7,37.3,454.2,36.9,454.3,36.6z M473.8,48.8c0.1,0,0.1,0.3,0.1,0.4   c-0.2-0.2-0.6-0.2-0.6-0.5C473.5,49,473.6,48.8,473.8,48.8z M476.3,53.8c-0.3,0-1-0.9-1.3-1.5C475.5,52.8,475.9,53.3,476.3,53.8z    M476.5,59.1c-0.1,0.5-0.1,0.7-0.2,0.6c0,0-0.1-0.2-0.1-0.3l-0.1-0.6C476.2,58.7,476.3,58.8,476.5,59.1z M477.3,59.7   c0.1,0.8-0.1,1.3-0.2,1.8C477.3,61.3,476.8,59.5,477.3,59.7z M488.3,67.2c0.2,0.1,0.9,0,0.9,0.4C489,67.3,487.9,67.6,488.3,67.2z    M492.9,69c0.1,0.1,0.1,0.2,0.4,0.2c0.2,0.3-0.2,0.3-0.4,0.2C492.8,69.4,492.9,69,492.9,69z M461.7,139.6l0.6,0l-0.1,0.3   L461.7,139.6z M421.2,133.5c-0.6,0-0.3-0.4-0.3-0.5C421.4,133.2,420.6,133.3,421.2,133.5z M405.9,117l0,0.2l-0.6,0L405.9,117z" fill="#1D1D1B"  />
	
	
	
</g><g><path d="M446.6,109.9c2.7,0,5.3-1.2,7.9-3.7c2.6-2.5,4.6-5.7,6.1-9.6c1.5-4,2.3-8.1,2.3-12.6c0-3.6-0.7-6.1-2.2-7.6   c-1.5-1.5-3.8-2.3-6.9-2.3c-1.8,0-3.3,0.3-4.4,0.7c-1.2,0.5-2.3,1.3-3.4,2.5c-2.2,2.2-4.1,5.5-5.8,10c-1.7,4.5-2.6,8.5-2.6,11.9   c0,6.9,2.9,10.4,8.8,10.6L446.6,109.9L446.6,109.9z" fill="#1D1D1B"  /><path d="M446.7,109.4c-0.3,0.1,0.2,0.3-0.2,0.1C446.5,109.4,446.6,109.3,446.7,109.4z" fill="#1D1D1B"  /><path d="M445.3,109.5c-1.3,0.7-2.5-0.5-3.8-0.7c-0.1-0.1,0.3-0.4-0.1-0.4c-0.7-0.1-1.4-0.6-1.8-1.3   c-0.5-0.7-0.7-1.6-0.7-2.3l0.1,0c0-0.3-0.5-0.5-0.6-0.7c0.1,0,0.1,0.1,0.2,0c-0.3,0-0.3-0.5-0.5-0.5c0.1-0.1,0.3-0.2,0.3-0.3   l-0.3-0.1c-0.7-0.3-0.2-1.1-0.6-1.7c0.1,0,0.1,0.1,0.2,0c-0.5-1-0.4-2.3-0.5-3.5c0.1,0.1,0.3,0.1,0.4,0c-0.3-0.1-0.3-0.4-0.4-0.8   c0.3-0.1-0.2-0.6,0-0.9l0.1,0c-0.3-0.3,0.2-0.4-0.1-0.7l0.3-0.1c-0.4-0.2,0.3-0.4,0.1-0.6l-0.1,0c-0.1-0.2,0.2-0.3,0.1-0.5l0.1,0   c0-0.5,0.3-0.7-0.1-0.8c0.3-0.1,0,0.5,0.5,0.3c0-1.6,0.5-3.1,1-4.5c0.2-0.1,0.3-0.2,0.4-0.2c0-0.2,0.1-0.6,0-0.7   c0,0.1,0.2,0,0.2-0.1c0.2-0.2-0.2-0.4,0-0.6c0,0.1,0.1,0.2,0.3,0.2c-0.2-0.3,0-0.6,0-1c0,0.1,0,0.1,0.1,0.2   c-0.2-0.4,0.3-0.5,0.2-0.9l0.1,0.2c0.4-0.3-0.3-0.3,0-0.6c0,0.1,0.1,0.1,0.2,0.2c-0.2-0.5,0.2-1,0.2-1.4c0,0,0.1,0,0.1,0   c0.1-0.4,0.4-0.7,0.5-1.2c0.2-0.1,0.4,0.3,0.5-0.2c-0.4-0.2,0.2-0.7-0.3-0.7c0.2-0.3,0.7-0.8,0.7-1c0,0.2,0.5,0.1,0.4,0.4l0.3-0.1   c0.1,0.1-0.2,0.2,0,0.2c0.1-0.1,0.2-0.6,0.3-0.7c0-0.4-0.3-0.8-0.1-1.3c0,0.3,0.4,0.1,0.4,0.3l-0.2-1c0.1-0.1,0.3,0.1,0.3-0.1   c-0.1-0.1-0.1-0.2-0.1-0.3c0.1,0,0.3-0.6,0.7-0.4c0.2,0-0.1,0.3,0.1,0.2c0.2-0.2,0.1-0.3,0.3-0.6l0,0c0.2-0.1,0.3-0.5,0-0.5   c-0.1,0.1,0.2,0.1,0,0.2c-0.1-0.2,0.1-0.6,0.3-0.8c0,0.1,0.1,0.2,0.1,0.3c0.1-0.5,0.3-0.9,0.5-1.3c-0.1-0.1,0.1,0.4,0,0.3   c0.6-0.2,0.7-1.1,1.3-1.1c0,0.1-0.2-0.2-0.2-0.1c0.3-0.2,0.4,0.1,0.5-0.1c0.1,0.1,0.2-0.2,0.3-0.3c0-0.1,0.1,0-0.1,0.1   c0.1-0.3,1-1,1.8-1c-0.1-0.1,0.3-0.5,0.4-0.5l0,0.2c0.2,0.1,0.5-0.1,0.6,0c0.2-0.4-1.1,0.6-0.7,0.2c0.2,0.2,0.5-0.5,0.5-0.2   c0.3-0.1,0.5-0.4,0.8-0.2c-0.1,0-0.2,0.4,0.1,0.3c0.4-0.1,0.1-0.1,0.4-0.3l0.2-0.1c0-0.2,0.4,0,0.2-0.3c0.1,0.2,0.6-0.2,0.6,0.2   l0,0.3c0.2,0,0.3-0.3,0.4-0.5c0,0,0.1,0.1,0.1,0.1c0-0.5,0.4,0,0.6-0.3c0.4,0.1,0.9,0,1.1,0.3c0.3-0.1,0.6-0.3,0.9-0.2   c-0.1,0-0.2,0-0.2,0.1c0.2,0.2,0.2,0,0.4,0c0,0.1,0.4,0.3,0.6,0.5c0.3-0.1,0.2-0.4,0.3-0.5c0.2,0.5,0.9-0.1,1.1,0.4   c-0.1,0-0.5,0.1-0.3,0.3c0.1,0.5,0.6-0.2,0.9,0.2l0-0.4c0.1,0.3,0.7,0,0.5,0.4c0.2-0.1,0.4,0.3,0.5,0c0.5,0.6,1.7,0.8,1.6,1.6   c0.1,0,0.3,0.2,0.4,0.1c0-0.3-0.3-0.1-0.2-0.2c0.1,0.1,0.2,0,0.2,0c0.1,0.2,0.2,0.4-0.1,0.4c0.2,0.5,0.8,0,1.1,0.6   c-0.1,0.1-0.2,0.1,0,0.3c0.1,0.1,0.3,0.1,0.4,0.2c0.2,0.4-0.2,0.4-0.4,0.5c0.1,0.2,0.2,0.4,0.5,0.4l-0.2,0.4   c0.1-0.3,0.2,0.1,0.3,0.2l-0.1-0.1c-0.1,0.1,0.1,0.3,0.1,0.4c0.1-0.1,0.1-0.3,0.1-0.5c0.1,0.1,0.2,0.2,0.4,0.3   c-0.3,0-0.1,0.4,0,0.6c0,0.2,0.3,0.1,0.3,0.2c-0.1,0,0.1,0.3-0.2,0.2c-0.1-0.1,0.1-0.2-0.1-0.3c-0.1,0.2-0.3,0.2-0.1,0.4   c0.2,0.2,0.5-0.2,0.4,0.2c-0.1-0.1-0.2-0.1-0.3-0.1l-0.1,0.4l0.2,0c0,0.1-0.1,0-0.1,0.1c0.3,0.1,0.2,0.5,0.5,0.5   c0.1,0.2-0.1,0.4-0.1,0.6l0,0c-0.1,0.2,0,0.5,0.2,0.6l-0.1,0c0,0.1,0.1,0.4,0.2,0.5c-0.2,0.3-0.9,0.2-0.6,0.4   c0,0.3,0.4,0.4,0.6,0.3c-0.1,0.5,0.2,1.1-0.1,1.5c0.1,0.1,0.1,0,0.2,0.2c-0.1,0.7,0.2,1.6-0.3,2.1c-0.1-0.2-0.2,0-0.4,0   c0.2,0.2-0.2,0.2,0.1,0.3c0.2,0,0.3,0,0.4-0.2c0.1,0.4,0,1.1-0.2,1.3c0.1-0.1,0.2,0,0.2,0.1c-0.3-0.1-0.4,0.2-0.3,0.5l0.2,0.1   l-0.2,0.1c0.1,0.1,0.4,0.2,0.2,0.4c-0.1,0-0.2,0-0.2,0c0.1,0.3,0.3,0.7,0.1,0.9l-0.3,0.2c0,0.1,0.2,0.3,0.3,0.2   c-0.3,0.4-0.4,0.7-0.6,0.8c0.5,0.9,0.2,2.1-0.1,3l-0.1-0.1c-0.2,0.2,0.2,0.2,0.1,0.3c-0.1-0.1-0.4,0.1-0.5-0.1   c-0.3,0.3,0.1,0.5,0.1,0.8c0.2,0.1-0.1-0.2,0.2-0.1c0.1,0.1-0.3,0.4,0,0.6c-0.1,0-0.3-0.1-0.4-0.2l0.1,0.3   c-0.4,0.1-0.4-0.8-0.9-0.6l0,0.2c-0.4,0.1-0.2-0.6-0.4-0.2c0.1,0.2,0.4,0.6,0.6,0.4c-0.1,0.5,0.6,0.4,0.4,0.9   c-0.2,0.1,0.1-0.4-0.2-0.4c-0.3,0.1,0,0.5-0.2,0.6c0.2-0.2,0.4,0.1,0.4,0.3c-0.2,0.2-0.2-0.3-0.4,0.1c0.1,0.1,0.1,0.5,0.4,0.3   c0.3,0.3-0.2,0.3,0,0.6c-0.3,0-0.5-0.6-0.7-0.3c0.3,0,0.2,0.6,0.6,0.5c-0.1,0.1-0.3,0-0.4-0.1c-0.2,0.1,0.3,0.7-0.3,0.5l0.2,0.2   c-0.1,0-0.2,0.1-0.4,0.1c-0.1,0.2,0.1,0.7-0.3,0.5c0,0.1-0.2,0.5,0.1,0.4c0.3-0.2-0.1-0.4,0.4-0.4c-0.4,0-0.1,0.4-0.1,0.6l-0.2,0   c0,0.1-0.1,0.3,0,0.4c0-0.1-0.1-0.1-0.2-0.1c0,0,0,0,0,0l0.2,0.2c-0.1,0.4-0.4-0.1-0.5,0.3l0-0.3c0,0.1-0.3,0.1-0.3,0.3   c0.2,0.2,0.3,0.4,0.5,0.5c0,0.2-0.3,0-0.2,0.3l-0.1-0.4c0-0.1-0.4,0-0.5,0.2c0,0.2,0.1,0.6,0.4,0.4c-0.1,0.1-0.3,0.2-0.4,0.1   c-0.1,0.3,0.2,0.1,0.2,0.4c-0.2,0-0.6,0.2-0.8,0.3l-0.2-0.4l-0.1,0.2c-0.1-0.4-0.3,0-0.5-0.3c-0.1,0.1-0.1,0.3-0.1,0.4   c0.6,0,0.3,0.7,0.8,0.9c-0.2,0.5-1.1-0.4-0.8,0.5c0.1,0,0.3,0.4,0.4,0.1c-0.2,0.2,0.2,0.5-0.1,0.7c0-0.3-0.6,0-0.5-0.5   c0.1,0.1,0.2-0.1,0.2-0.2c-0.2,0-0.4-0.3-0.6,0c-0.1,0.2-0.2,0.4,0,0.5c0.2,0.2,0.2-0.3,0.3,0c-0.2,0.4-0.5,0.2-0.3,0.6   c0.1-0.2,0.4-0.1,0.5,0l-0.1,0.3l-0.1-0.2c-0.4,0.3,0.2,0.3-0.2,0.7l-0.4-0.1c-0.2-0.3,0.6-0.4,0.1-0.7c-0.2,0.2-0.1,0.5-0.4,0.6   c0-0.1,0.1-0.2,0.1-0.2c-0.1,0.1-0.6-0.3-0.6,0.3c0,0.3,0.1,0.2,0.2,0.3c-0.3,0.4-0.3,0.6-0.5,0.9c-0.2-0.3-0.4,0.4-0.4-0.1   c0.3,0,0.8-0.5,0.6-0.9c-0.4-0.1,0.3-0.3,0-0.6c-0.3,0.3-0.6,0-0.8-0.1c-0.1,0.1-0.1,0.2-0.1,0.3c0.2,0.2,0.2,0.1,0.4,0.3   c-0.3,0.3-0.5,0.7-0.5,1c-0.2,0-0.3-0.2-0.2-0.3c-0.3,0.4-0.7,0.8-1.2,1c0.5,0.1-0.4,0.4,0,0.6c0.3-0.1,0.6,0,0.6,0.2   c-0.1,0.1-0.1-0.1-0.2-0.2c0,0.3-0.5-0.1-0.4,0.3c0.3-0.4-0.2-0.5-0.4-0.8c-0.1,0.4-0.1-0.2-0.4,0c-0.2,0.4-0.4,0.7-0.7,1   c-0.6,0-1,0.6-1.4,0.8c-0.3,0-0.3-0.4-0.5-0.4c-0.2,0.1,0.4,0.3-0.1,0.3l0-0.1c-0.1,0.1-0.8,0.1-0.7,0.6l0-0.4   c-0.1,0-0.1,0.1-0.2,0.2c0-0.1-0.2-0.2-0.1-0.3c-0.3-0.2-0.5,0.2-0.7,0.3l0.2,0.2c-0.4,0.3-0.8,0.2-1.2,0.3l0-0.2l-0.2,0.2   c0-0.2-0.2-0.3-0.3-0.1c0.2-0.2,0.4-0.4,0.6-0.7c0.2,0.1-0.1,0.3,0,0.5c0.1,0.2,0.5,0,0.5-0.2c-0.2,0-0.2,0.1-0.3,0.2   c-0.1-0.3,0.1-0.3,0.2-0.6c-0.1,0-0.2,0-0.2,0.1c0.1-0.2,0.3-0.3,0.5-0.3c-0.1,0.2,0.1,0.2,0.1,0.3c-0.1-0.3,0.1-0.4,0.5-0.5   c0.3,0.2,0.5-0.4,0.8-0.5c0,0.3-0.1,0.6-0.3,0.8c0.3,0,0.2-0.1,0.5-0.1c0-0.2,0-0.6,0.2-0.8l0.1,0.2c0.2-0.2,0-0.5,0.4-0.6   c0.6-0.2,1.1-0.5,1.4-0.8l0.1,0.2c-0.1-0.5,0.6-0.7,0.7-1c0.6-0.2,0.8-1,1.2-1c0.6-0.9,1-1.6,1.7-2.4l0.1,0.3   c-0.1-0.3,0.2,0,0.3-0.2c-0.3,0-0.1-0.4-0.2-0.6c0.5-0.3,0.6-0.9,0.6-1.4l0.2,0.1c-0.1-0.6,0.4-0.8,0.7-1.3c0.1,0,0.3,0,0.4-0.2   c-0.2-0.4-0.1-0.5-0.1-1c0.1-0.3,0.4-0.7,0.7-0.9c0-1.3,0.7-2.2,0.8-3.5l0.3,0c-0.1-1.2,0.6-2.5,0.6-3.5l0.4,0.2   c0.2-0.3,0-0.7-0.3-0.7c0.2-0.3-0.1-0.8,0.3-0.9c0.1-0.3-0.1-0.4-0.2-0.7c0.2-0.6,0.2-0.8,0.2-1.4l0,0.1c0.1,0.1,0.3,0.1,0.3-0.1   c-0.1-0.2,0.2-0.8-0.4-0.6c0.3-0.6-0.2-1.5,0.2-2.1c-0.1,0.1-0.2-0.1-0.3-0.2c0-0.6,0.3-1.1,0-1.5c0.1-0.1,0.2,0.1,0.2-0.1   c-0.1-0.1-0.2,0-0.3-0.1c-0.3-0.8,0.1-1.7-0.2-2.5c-0.6-1.2-1-2.2-1.9-2.8l0.1-0.1c-0.5,0.1-0.5-0.8-1.1-0.4c0-0.1-0.3-0.2-0.2-0.3   c-0.4,0.1-0.8-0.5-1.3-0.3c0,0,0.1,0,0.1,0c-0.4-0.3-0.9-0.1-1.4-0.3c0.1,0,0.2-0.1,0.2-0.2c-0.2-0.2-0.5,0.4-0.6-0.1   c-0.1,0-0.1,0.2,0,0.2c-1.2-0.3-2.5,0.1-3.6,0.5c-0.8-0.1-0.3-0.8-0.8-0.3c-0.1-0.1,0,0.2,0,0.1c-0.2,0.2-0.6-0.4-0.6-0.1   c0.2,0.2,0,0.2,0,0.4c-0.5,0-0.8-0.1-1,0.3l-0.1-0.1c-0.2,0.6-0.7,0.8-0.7,1.5c-2,1.9-3.2,4.4-4.3,7c-1.3,2.5-2,5.2-3,7.9   c-0.6,0.5-0.6,0.6-0.6,1.4c-0.1,0-0.1-0.1-0.1-0.1c0.3,0.1-0.1,0.5,0.2,0.6c-0.3,1-0.3,2-0.4,3c0-0.2-0.3-0.3-0.3-0.1l0.2,0.2   l-0.1,0c0,0.1,0.2,0.3,0.3,0.2c0.1,2.5-0.3,5.2,0.9,7.1c0.1,0.5,0.7,1,1.2,1.3c0.9,1.4,2.6,2.2,4.6,2   C446.5,108.5,446.2,109.3,445.3,109.5L445.3,109.5z" fill="#1D1D1B"  /><path d="M447.1,109.3c0.1,0.2,0.3,0.2,0.2,0.5C447.2,109.6,447.1,109.5,447.1,109.3z M453.9,108.3c0,0,0.1,0,0.2,0   c-0.1,0.1,0,0.2-0.1,0.2C454,108.4,453.9,108.4,453.9,108.3z M455.4,107.1c0.1,0.1-0.1,0.5-0.3,0.7L455.4,107.1z M457,106.3   c0.2,0,0.2,0.1,0.1,0.2C457,106.5,457,106.4,457,106.3z M456.8,106c0.1-0.1,0.2-0.1,0.3-0.1C457,105.8,457,106.2,456.8,106z    M459.4,103.3c0-0.1,0-0.3,0.2-0.3C459.5,103.1,459.6,103.5,459.4,103.3z M460.1,101.8c0,0,0.1,0,0.1-0.1c0.1-0.1,0.2,0.1,0.1,0.2   L460.1,101.8z M458,73.6l0.2,0l-0.1,0.1L458,73.6z M445.1,76.7c-0.1,0.2-0.2,0-0.2,0C445,76.6,444.9,76.9,445.1,76.7z M441.7,83   L441.7,83l0.3,0.1L441.7,83z" fill="#1D1D1B"  />
	
	
	
	
</g><path d="M348,55.8c9.3-1.6,18.1,4.5,19.7,13.8c0.2,1,0.3,2,0.3,3c8.4-0.4,16,5.5,17.5,14c1.5,8.5-3.6,16.6-11.6,19.2  c0.3,0.9,0.6,1.9,0.8,2.9c1.6,9.3-4.5,18.1-13.8,19.7c-7,1.2-13.8-2-17.4-7.7c-2.4,2.2-5.3,3.6-8.5,4.2c-9.3,1.6-18.1-4.5-19.7-13.8  c-0.8-4.5,0.3-9.1,2.9-12.9c-3.8-2.6-6.4-6.6-7.1-11.1c-1.6-9.3,4.5-18.1,13.8-19.7c3.2-0.6,6.6-0.2,9.6,1.1  C336,62.2,341.2,57,348,55.8L348,55.8z" fill="#FFD300"  /><g><path d="M348.5,54.6c-0.9,0.3,0.6,0.5-0.6,0.3C348,54.6,348.1,54.4,348.5,54.6z" fill="#1D1D1B"  /><path d="M344.9,55.8c-1.2,1.3-2.6,2-4.1,3c-1.4,1-2.8,2.2-3.4,3.8c-0.2,0.3-0.7-0.6-1,0.2c-0.2,0.9-0.5,1.8-0.8,2.8   l-1.1,3.1c-1-0.5-1.9-1-2.9-1.4c-0.9-0.4-1.8-0.7-2.8-1l0.3-0.2c-0.8-0.2-1.7,0.6-2.5,0.5c0-0.2,0.2-0.2,0-0.5   c-0.2,0.5-1.4,0.4-1.7,0.8c-0.3-0.1-0.4-0.5-0.8-0.7l-0.3,0.6c-0.9,1.6-3,0.8-4.2,2.2c0-0.2,0.1-0.3-0.1-0.4c-2,2-4.5,4.1-5.8,6.8   c-0.1-0.2-0.4-0.5-0.6-0.5c0.4,0.4,0.1,1.3-0.1,2c-0.7,0.1,0,1.4-0.6,2.1l-0.1-0.1c0.4,0.8-0.6,0.9,0,1.6l-0.5,0.3   c0.8,0.4-0.6,0.9-0.2,1.5l0.2,0c0.1,0.5-0.3,0.8-0.2,1.3l-0.1,0c0.2,1.1-0.2,1.8,0.5,1.7c-0.5,0.4-0.3-1.1-1.1-0.4   c0.9,3.8,2.3,7.4,5,10.2c0.1,0.5,0.3,0.8,0.1,1c0.4,0.2,1.2,0.9,1.9,1c-0.1-0.1-0.2,0.3-0.1,0.4c0.1,0.2,0.4,0.3,0.7,0.3   c0.1,0.1,0.3,0.3-0.2,0.7c0-0.3-0.3-0.3-0.6-0.2c0.3,0.5-0.3,1.3-0.5,2.1c-0.1-0.2,0-0.3-0.3-0.4c0.2,1-0.8,1.4-0.7,2.2l-0.3-0.4   c-0.8,1,0.6,0.6,0.1,1.5c-0.1-0.3-0.2-0.2-0.4-0.3c0.4,1.1-0.1,2.6,0.1,3.5c0-0.1-0.2-0.1-0.2-0.1c0,1-0.2,2.1,0.3,3.2   c-0.1,0.4-1,0-0.6,1.1c0.7-0.2,0.7,1.8,1.4,0.9c0.1,0.9,0.3,2.4,0.8,2.8c-0.4-0.3-0.7,0.8-1.1,0.1c-0.1,0.3-0.1,0.5-0.2,0.8   c-0.3,0.1-0.2-0.6-0.5-0.3c0.2,0.4,1,1.3,1.1,1.7c0.8,0.4,1.9,0.5,2.7,1.3c-0.6-0.2-0.5,0.8-0.8,0.6c0.7,0.1,1.5,0.2,2.2,0.2   c0.3,0.2-0.4,0.5,0.2,0.7c0.1-0.2,0.4-0.1,0.6-0.1c0,0.2,1.3,0.8,1,1.5c0,0.3-0.6-0.2-0.4,0.2c0.6,0.4,0.8,0.2,1.4,0.6l0,0.1   c0.4,0.4,1.4,0.4,1.1-0.2c-0.3-0.2-0.1,0.5-0.4,0c0.5-0.2,1.2,0,1.8,0.3c-0.3,0-0.3,0.2-0.5,0.4c1.1-0.2,2-0.1,3-0.1   c0.1-0.3-0.5,0.5-0.6,0.3c1.2,0.8,2.7-0.2,3.6,0.5c-0.2,0.1-0.1-0.5-0.1-0.4c0.6,0,0.6,0.6,1,0.4c0.1,0.3,0.5-0.1,0.9-0.3   c0.2-0.2,0.1,0.1-0.2,0.2c0.6-0.3,2.6-1.1,4-1.2c-0.1-0.2,0.5-1,0.7-1.1l0.1,0.5c0.4,0.2,0.9-0.5,1.1-0.1c0.2-0.4-0.3,0-0.8,0.4   c-0.5,0.4-1,0.7-0.6,0.4c0.4,0.3,0.8-1.2,0.9-0.5c0.4-0.2,1-1.2,2-1.3c-0.3,0.1-0.4,1.1,0.2,0.6c1-0.9,0.2-0.5,1.1-1.3l0.5-0.7   c0-0.6,1-0.8,0.6-1.1c0.1,0.2,0.5-0.3,0.9-0.7c0.3,0.4,0.5,0.8,0.3,1.2l-0.3,0.7c0.3,0.4,0.7-0.1,1.1,0c0,0.1,0.1,0.4,0,0.5   c0.5-1,0.8,1.3,1.7,1.2c0.9,1.6,1.7,1.8,1.7,2.5c0.6,0.2,1.3,0.2,1.7,0.7c-0.2,0-0.3-0.1-0.5,0.1c0.2,0.5,0.4,0.3,0.8,0.4   c-0.1,0.1,0.5,0.9,0.8,1.4c0.7,0,0.7-0.6,0.9-0.8c0.2,1.1,1.7,0,2.1,1c-0.2,0.1-1,0.2-0.5,0.6c0.3,1,1.2-0.4,2,0.2l-0.1-0.8   c0.3,0.5,1.3-0.3,1.1,0.5c0.3-0.2,1,0.3,0.9-0.4c1.4,0.7,3.2-0.7,4.4,0.4c0.2-0.2,0.7-0.2,0.5-0.5c-0.4-0.3-0.4,0.4-0.6,0.2   c0.2-0.1,0.1-0.3,0.1-0.4c0.5,0,0.8,0,0.6,0.7c1.1,0.1,0.5-1.5,1.7-1.8c0.1,0.3,0.2,0.4,0.5,0.1c0.1-0.3,0.2-0.5,0.3-0.8   c0.7-0.3,0.8,0.3,1.1,0.8c0.3-0.3,0.8-0.6,0.7-1.1c0.3,0.1,0.6,0.1,0.8,0.2c-0.6-0.1,0.1-0.5,0.2-0.7l-0.1,0.2   c0.2,0.1,0.5-0.3,0.6-0.6c-0.3-0.2-0.7,0.1-1,0.2c0-0.3,0.3-0.5,0.3-0.9c0.3,0.4,0.8-0.2,1-0.5c0.3-0.2-0.1-0.6,0-0.7   c0.2,0.2,0.4-0.5,0.5,0c0,0.2-0.4,0.1-0.4,0.4c0.3-0.1,0.7,0.2,0.7-0.4c0-0.5-0.9-0.5-0.2-0.9c0,0.2,0.1,0.4,0.2,0.6   c0.2-0.1,0.4-0.3,0.6-0.4l-0.4-0.3c0.2,0,0.1,0.1,0.2,0.1c-0.3-0.4,0.5-1,0-1.4c0.1-0.3,0.6-0.5,0.8-0.8l0,0.1   c0.4-0.3,0.5-0.9,0.3-1.3l0.1,0.1c0.1-0.2,0.2-0.7,0-1.1c0.5-0.5,1.8,0.2,1.3-0.5c0.1-0.6-0.7-1.1-1-0.9c0.5-1-0.2-2.2,0.4-3.1   c-0.2-0.1-0.3,0-0.4-0.3c0-0.4,0-0.6-0.1-1.1c-0.1-0.6-0.4-1.3-0.6-1.9c-0.5-1.3-0.9-2.6-1-3.5c0.4-0.1,0.8-0.1,1.2-0.1   c-0.5,0.4,0.5,0.3,0.8,0.5c0.1-0.5,1.1,0.1,0.6-0.5c-0.5-0.3-0.6-0.4-1.6-0.3c0.7-0.4,1.8-0.8,2.7-1.2l1.3-0.5   c0.4-0.2,0.5-0.1,0.7-0.1c-0.3,0-0.2-0.2-0.1-0.5c0.3,0.6,0.9,0.3,1.2-0.2l-0.2-0.4l0.5,0.1c0.1-0.2-0.4-0.8,0.3-0.8   c0.1,0.1,0.2,0.2,0.4,0.2c0.2-0.6,0.3-1.5,0.9-1.6l0.7,0c0.1-0.2,0.1-0.8-0.3-0.5c0.9-0.5,1.2-1,1.8-1c-0.2-2.1,0.5-4.1,0.9-5.9   l0.3,0.1c0.3-0.5-0.5-0.3-0.3-0.6c0.3,0.2,0.7-0.3,1,0.1c0.4-0.7-0.5-1-0.6-1.4c-0.4-0.1,0.3,0.4-0.3,0.3c-0.1-0.1,0.3-1-0.3-1.1   c0.2-0.2,0.7-0.1,0.9,0l-0.3-0.4c0.7-0.7,1.4,1.2,2.2,0.6l-0.1-0.5c0.6-0.5,0.8,1.2,0.9,0c-0.3-0.5-1.3-0.8-1.5-0.4   c-0.3-1-1.5-0.3-1.6-1.3c0.3-0.3,0.2,0.8,0.7,0.5c0.4-0.6-0.4-0.9-0.4-1.4c-0.1,0.5-0.8,0.3-1,0c0.1-0.6,0.6,0.2,0.5-0.5   c-0.4,0-0.8-0.5-0.9,0.1c-0.8,0,0-0.7-0.7-0.9c0.4-0.4,1.5,0.2,1.4-0.6c-0.4,0.3-1.1-0.6-1.6,0.1c0-0.3,0.4-0.5,0.8-0.5   c0.1-0.6-1.3-0.5-0.5-1.1l-0.5,0.2c0.1-0.2,0.1-0.4,0.2-0.8c-0.2-0.3-1.3-0.6-0.6-1c-0.1-0.1-0.7-0.7-0.9-0.1   c0.1,0.6,0.7,0.2,0.3,0.9c0.3-0.7-0.5-0.5-0.9-0.6l0.2-0.3c-0.2,0-0.4-0.4-0.8-0.2c0.2,0,0.3-0.2,0.3-0.4l-0.5,0.2   c-0.7-0.3,0.5-0.8-0.2-1.1c0.2,0,0.4,0,0.7,0.1c-0.1,0,0-0.5-0.4-0.7c-0.4,0.3-0.9,0.5-1.2,0.7c-0.4-0.1,0.2-0.5-0.4-0.4   c0.2-0.1,0.5-0.1,0.7-0.1c0.2-0.1,0.2-0.8-0.3-1.1c-0.4-0.1-1.2,0.2-0.8,0.7c-0.2-0.1-0.4-0.5-0.1-0.7c-0.6-0.2-0.2,0.4-0.8,0.4   c0-0.4-0.5-1-0.7-1.6c0.3-0.2,0.6-0.3,0.8-0.4l-0.4-0.2c0.7-0.3-0.1-0.5,0.5-1c-0.2-0.2-0.7-0.1-1-0.1c0.4,1.2-1.3,1-1.4,2   c-1,0-0.1-2.4-1.5-1.2c0.1,0.3-0.5,0.9,0.2,0.7c-0.3-0.1-0.4,0.1-0.7,0.3c-0.3,0.2-0.7,0.3-1.5,0.1c0.7-0.2,0.4-0.4,0.3-0.7   c-0.2-0.3-0.2-0.5,0.7-0.8c-0.2,0.3,0.9,0.3,1,0.3c-0.4-0.4,0.3-0.9-0.8-1c-0.7,0-1.7,0-1.9,0.5c-0.3,0.5,1.2-0.1,0.5,0.5   c-1.8,0.2-1.5-0.6-2.9,0.3c1.1-0.1,1.1,0.5,0.8,0.8l-1.6,0.3l0.6-0.4c-1.3-0.1-1.4,0.2-2,0.4c-0.1-0.1-0.2-0.3-0.2-1.1l0.7-1.6   c0.4,0,0.2,1.3,0.3,1.9c0.4,0,0.8-0.1,1-0.5c-0.2,0-0.3,0-0.5,0c-0.1-0.8-0.4-1-0.2-2.2c0.1,0.2,0.1,0.6,0.2,0.8   c0-0.6,1.3-1.8,0.4-3c-0.4-0.7-0.4-0.1-0.7,0.1c-0.3-2.2-0.8-1.9-1-2.5c0.7-0.1-0.3-1,0.6-0.6c-0.1,0.2-0.1,0.6,0,1   c0.1,0.2,0.5,1.2,0.8,1.4c0.8-1,0,1.5,0.8,1.4c0-1.4,0.7-1.7,1.2-2c0-0.3-0.3-0.5-0.4-0.7c-0.5,0-0.4,0.4-0.9,0.6   c0-0.3-0.1-0.6-0.1-0.9c-0.1-0.2-0.2-0.4-0.3-0.6c-0.2-0.4-0.5-0.6-0.8-0.8c0.1-0.4,0.6-0.5,0.8-0.1c-0.5-1-0.9-2.1-1.4-3.1   c-0.3,1-0.8-0.9-1.1-0.1c0.2,0.6-0.1,1.2-0.6,1.2c-0.1-0.3,0.3-0.2,0.4-0.4c-0.6-0.1,0.2-1-0.6-0.9c0.8,0.6,0.9-0.4,1.6-0.7   c-0.7-0.4,0.4-0.2-0.1-0.9c-0.8-0.4-1.5-0.9-2.3-1.4c-0.3-1.2-2-1.7-2.8-2.1c-0.3-0.5,0.4-1,0-1.4c-0.6-0.3,0.1,0.9-0.6,0.2   l0.1-0.1c-0.3,0-1.4-1.2-2.1-0.3l0.5-0.7c-0.1-0.1-0.4,0-0.5,0c0.1-0.2-0.1-0.5,0.3-0.6c-0.4-0.7-1.3-0.3-1.9-0.4l0.3,0.6   c-1.1,0.1-1.8-0.4-2.9-0.3l0.1-0.5c-0.2,0.1-0.4,0.2-0.7,0.3c0.2-0.4-0.4-0.7-0.8-0.4c0.6-0.4,1.2-0.8,1.8-1.1   c0.5,0.3-0.6,0.5-0.3,1c0.2,0.4,1.2,0.4,1.5,0c-0.4-0.1-0.4,0-0.7,0.1c-0.1-0.7,0.5-0.6,0.9-0.9c-0.2,0-0.5-0.2-0.6,0   c0.5-0.3,0.9-0.3,1.6-0.1c-0.5,0.1,0.2,0.4,0,0.6c0.2-0.5,0.9-0.6,1.7-0.2c0.4,0.8,1.7,0.1,2.6,0.8c-0.6,0.3-1.3,0.5-1.9,0.5   c0.5,0.5,0.7,0.2,1.1,0.8c0.4-0.3,0.9-0.8,1.8-0.6l-0.2,0.4c0.8,0.2,1.1-0.3,1.9,0.3c1.3,1.2,2.5,2.4,3.3,3.4l-0.3,0.3   c1.2,0,1.7,1.7,2.5,2.4c0.5,1.6,1.9,3.2,1.4,4.3c0.1,0.4,0.3,0.9,0.4,1.2c0.1,0.3,0.2,0.5,0.3,0.8c0.1,0.4,0.2,0.9,0.3,1.4   c0.7-0.1,1.4-0.1,2.1,0.1c-0.1,0.2-0.3,0.4-0.5,0.6c0.5-0.4,0.1,0.4,0.6,0.4c-0.2-0.3-0.1-0.4,0.3-0.5c0.3-0.1,0.8-0.1,1-0.3   c1.2,0.8,3,0.9,4.3,1.1l-0.1,0.4c1.5-0.1,2.5,1.3,3.6,2.4c0,0.3,0,0.7,0.3,1c1.1,0.1,1.4,0.4,2.5,1.1c0.6,0.7,1.3,2,1.6,3   c1.3,1.2,2.1,2.9,2.5,4.6c0.5,1.7,0.7,3.5,0.9,5.4l-0.5,0.3c0.5,1.8,0.1,3.9-0.5,5.7c-0.7,1.8-1.6,3.4-2.3,4.9l-0.5-0.7   c-0.7,0.6-1.1,1.8-0.5,2c-0.8,0.6-1.3,2.1-2.3,2c-0.8,0.5-0.6,1.1-1.3,1.7c-0.9,0.5-1.5,0.8-2.1,1.1c-0.3,0.2-0.4,0.3-0.6,0.5   l0.2,0c-0.1-0.2-0.3-0.4-0.5-0.4c0,0.3-1.1,0.2,0.2,0.7c-0.1,0-0.1,0-0.2,0c-0.2,0.6,0.8,0.5,0.2,3.1c0.3-0.2,0.3,0.3,0.5,0.5   c0,1.8-0.7,3.6-0.6,5.1c-0.2,0.2-0.3-0.5-0.6,0.1c0,0.4,0.3,0.1,0.4,0.7c-0.3,3-2.7,5.3-4.2,7.3c-2.5,4-7.3,6.5-11.6,7.3l0-0.2   c-1.4,1.1-3.5-0.3-4.7,0.8c-0.4-0.2-1.4-0.2-1.1-0.5c-1.3,0.5-3.2-1-5-0.9c0.1,0.1,0.2,0.1,0.4,0c-1.5-1-3.1-1.1-4.5-2.4   c0.2,0,0.5,0.1,0.7,0c-0.4-0.7-1.9-0.2-1.6-1.2c-0.3-0.2-0.5,0.2-0.3,0.3l-1.3-1.2l-0.9-0.8c-0.3-0.2-0.5-0.5-0.8-0.7l-0.5,0.7   c-0.2,0.2-0.2,0.3-0.7,0.6c-3,0.8-0.8-1.4-2.7,0.2c-0.2-0.1,0,0.4-0.1,0.2c-0.8,0.6-1.6-0.6-2.1,0c0.4,0.5-0.3,0.4-0.2,0.8   c-1.8,0-2.2-0.5-3.5,0l0.1-0.3c-1.6,1-3.5,0.4-5,1.1c-4.7-0.8-9-3.1-12.2-6.6c-3.2-3.5-5.2-8.1-5.4-12.9c0-2.9,0.5-5.8,1.5-8.6   l0.4-0.8c0-0.1,0.1-0.1,0.1-0.2c-0.1,0-0.1-0.1-0.2-0.1l-0.7-0.8c-0.4-0.5-0.8-0.9-1.1-1.4c-1.4-2-2.4-4.2-3-6.5   c0.2-2.4,0.2-2.4-0.4-4.8c0.1,0.1,0.2,0.2,0.3,0.1c-0.7-0.1-0.1-1.7-0.8-1.9c0.2-3.5,0.9-6.7,2.7-9.9c-0.2,0.5,0.2,1,0.4,0.4   c0-0.3,0-0.5,0-0.8h0.2c0.1-0.4,0.2-1.1-0.3-0.8c2.2-4.1,6.2-7.1,10.5-8.4c2.2-0.7,4.4-1,6.6-1c1.1,0,2.2,0.1,3.3,0.2l0.8,0.1   l0.4,0.1l0.3,0c0.1,0.2,0.3,0.2,0.5,0.3c0.1-0.3,0.1-0.7,0.1-0.9c0,0.1,0.2-0.3,0.3-0.4l0.4-0.5c0.7-1,1.6-1.9,2.4-2.7   c1.1-1.1,2.4-2,3.7-2.9c2.6-1.7,5.4-2.9,8.5-3.8C347.5,52.9,346.9,54.7,344.9,55.8L344.9,55.8z" fill="#1D1D1B"  /><path d="M349.6,54.4c0.2,0.3,0.9,0.5,0.4,1C350,55,349.6,54.7,349.6,54.4z M362.7,63.7c0.1,0,0,0.2,0,0.3   c-0.1-0.1-0.5-0.1-0.4-0.3C362.5,63.8,362.6,63.7,362.7,63.7L362.7,63.7z M364.4,67c-0.3,0.1-0.8-0.6-1.1-0.9   C363.7,66.4,364.1,66.7,364.4,67z M364.2,71.5c-0.2,0.8-0.4,0.7-0.4-0.3C363.9,71.1,364,71.4,364.2,71.5z M364.9,71.7   c0,0.6-0.1,1-0.3,1.4C364.8,72.9,364.4,71.8,364.9,71.7z M373,77.3c0.2,0,0.6-0.1,0.6,0.3C373.6,77.3,372.8,77.7,373,77.3z    M376.1,78.3c0.1,0.1,0.1,0.1,0.2,0.1c0.1,0.2-0.2,0.3-0.4,0.2C376,78.6,376.1,78.3,376.1,78.3z M355,126.1l0.4-0.1l-0.1,0.3   L355,126.1z M326.8,121.9c-0.4,0-0.1-0.4-0.2-0.4C326.9,121.6,326.3,121.8,326.8,121.9z M316,110.9l0,0.1l-0.6,0.1L316,110.9z" fill="#1D1D1B"  />
	
	
	
</g><g><path d="M350.8,106.1c-1.9,0-3.7-0.9-5.5-2.6c-1.8-1.7-3.2-4-4.3-6.7c-1.1-2.8-1.6-5.7-1.6-8.8   c0-2.5,0.5-4.3,1.5-5.3c1-1.1,2.6-1.6,4.8-1.6c1.3,0,2.3,0.2,3.1,0.5c0.8,0.4,1.6,0.9,2.4,1.8c1.5,1.5,2.9,3.9,4.1,7   c1.2,3.2,1.8,5.9,1.8,8.3c0,4.8-2,7.3-6.1,7.4L350.8,106.1L350.8,106.1z M350.7,106.6c0.3-0.1-0.1-0.3,0.2-0.1   C350.8,106.6,350.8,106.7,350.7,106.6z" fill="#1D1D1B"  /><path d="M351.8,106.4c0.7-0.9,1.9-0.4,2.5-1.3c0.1-0.1,0.2,0.4,0.4,0.2c0.4-1,1.4-1.6,2.3-2.5l0.1,0.1   c0.2-0.2-0.1-0.6,0-0.7c0.1,0,0.1,0.1,0.2,0.1c-0.2-0.1,0-0.4-0.1-0.6c0.1-0.1,0.3,0,0.4-0.1l-0.2-0.2c-0.6-0.5,0.2-0.8-0.1-1.3   c0.1,0,0.1,0.1,0.2,0c-0.3-0.8-0.3-1.7-0.4-2.5c0.1,0,0.3,0,0.4,0c-0.3,0-0.4-0.3-0.5-0.5c0.3-0.1-0.3-0.3-0.2-0.6l0.1,0   c-0.3-0.1,0.1-0.3-0.3-0.4l0.2-0.2c-0.4,0,0.2-0.3-0.1-0.4l-0.1,0c-0.1-0.1,0.1-0.2,0-0.4l0,0c-0.2-0.3,0-0.5-0.3-0.4   c0.2-0.2,0.2,0.3,0.5,0c-0.6-1-0.8-2-1.1-3c0.1-0.2,0.1-0.2,0.2-0.3c-0.1-0.1-0.2-0.4-0.4-0.4c0,0,0.1-0.1,0.1-0.2   c0.1-0.2-0.4-0.1-0.3-0.3c0.1,0,0.2,0,0.3,0c-0.3-0.1-0.4-0.3-0.5-0.5c0.1,0,0.1,0,0.2,0c-0.4-0.1-0.1-0.4-0.4-0.5l0.2,0   c0.1-0.4-0.4,0.1-0.4-0.3c0.1,0,0.1,0,0.2,0c-0.4-0.1-0.5-0.5-0.7-0.7c0,0,0.1,0,0.1,0c-0.1-0.2-0.2-0.6-0.5-0.8   c0-0.1,0.4-0.2,0.2-0.4c-0.3,0.2-0.4-0.4-0.7,0c-0.1-0.3-0.1-0.7-0.3-0.8c0.2,0,0.3-0.3,0.5-0.2l0.1-0.3c0.1-0.1,0,0.2,0.2,0   c-0.1-0.1-0.4-0.3-0.4-0.4c-0.3-0.1-0.8,0-1-0.2c0.2,0,0.3-0.3,0.4-0.3l-0.9,0.1c-0.1-0.1,0.2-0.2,0.1-0.3   c-0.1,0.1-0.2,0.1-0.3,0.1c0-0.1-0.3-0.3-0.1-0.5c0.1-0.1,0.2,0.1,0.2-0.1c-0.1-0.2-0.2-0.1-0.4-0.2l0,0c0-0.1-0.4-0.2-0.4,0.1   c0.1,0.1,0.1-0.2,0.2,0c-0.2,0.1-0.4,0-0.6-0.2c0.1,0,0.2-0.1,0.3-0.1c-0.4,0-0.7-0.1-0.9-0.2c-0.1,0.1,0.3-0.2,0.3-0.1   c-0.1-0.4-0.8-0.2-0.8-0.7c0.1,0-0.1,0.2-0.1,0.2c-0.1-0.1,0-0.3-0.1-0.3c0.1-0.1-0.1,0-0.3-0.1c-0.1,0.1,0-0.1,0.1,0   c-0.2,0-0.8,0-1-0.4c0,0.1-0.3,0.3-0.4,0.3l0.1-0.2c0-0.2-0.3,0-0.2-0.2c-0.2,0.2,0.7-0.1,0.4,0.1c0-0.2-0.4,0.3-0.3,0   c-0.2,0-0.4,0.2-0.5-0.1c0,0,0.2-0.3,0.1-0.3c-0.2,0-0.1,0.1-0.3,0.1l-0.1,0.1c0,0.2-0.2-0.1-0.1,0.2c0-0.2-0.3,0.1-0.3-0.3   l0.1-0.3c-0.1,0-0.2,0.3-0.3,0.4c0,0,0-0.1,0-0.1c0,0.5-0.2-0.1-0.4,0.3c-0.2-0.2-0.5,0-0.7-0.3c-0.2,0.1-0.3,0.3-0.5,0.2   c0,0,0.1-0.1,0.1-0.2c-0.1-0.1-0.1,0-0.2,0.1c0-0.1-0.3-0.3-0.4-0.4c-0.1,0.2,0,0.4,0,0.6c-0.2-0.4-0.4,0.4-0.6,0   c0-0.1,0.2-0.3,0-0.4c-0.3-0.4-0.2,0.4-0.5,0.3l0.2,0.3c-0.2-0.2-0.2,0.3-0.3,0c0,0.1-0.3,0-0.1,0.3c-0.5-0.1-0.5,0.5-1.1,0.2   c0,0.1-0.1,0.1,0,0.2c0.2,0.1,0-0.2,0.1-0.1c0,0,0,0.1,0.1,0.2c-0.1,0-0.2,0-0.4-0.2c-0.3,0,0.3,0.6,0,0.7c-0.1-0.1-0.2-0.1-0.2,0   l0.1,0.3c-0.2,0.1-0.4-0.1-0.6-0.2c0,0.1-0.1,0.3,0.1,0.4l-0.4,0c0.3,0,0.1,0.1,0.1,0.2l0-0.1c-0.1,0-0.1,0.1-0.1,0.2   c0.2,0,0.3-0.1,0.3-0.1c0.1,0.1,0,0.2,0.1,0.3c-0.2-0.1-0.2,0.1-0.3,0.2c-0.1,0.1,0.2,0.2,0.2,0.2c-0.1,0-0.1,0.2-0.2,0   c0,0,0.1,0,0-0.1c-0.1,0-0.3,0-0.2,0.2c0.1,0.1,0.5,0.1,0.3,0.3c0-0.1-0.1-0.1-0.2-0.2l-0.2,0.2l0.2,0.1c-0.1,0-0.1,0-0.1,0   c0.2,0.1,0,0.3,0.3,0.4c0,0.1-0.2,0.2-0.2,0.3l0,0c-0.2,0.1-0.1,0.3,0.1,0.4l-0.1,0c0,0.1,0,0.2,0.1,0.3c-0.2,0.2-0.9,0-0.6,0.2   c0,0.2,0.4,0.3,0.6,0.2c-0.2,0.3,0.2,0.6-0.1,1c0.1,0,0.2,0,0.2,0.1c-0.1,0.5,0.3,1-0.1,1.4c-0.1-0.1-0.2,0-0.4,0   c0.2,0.1-0.2,0.2,0.1,0.2c0.2,0,0.3,0,0.4-0.2c0.1,0.3,0.2,0.7,0,0.9c0.1-0.1,0.2,0,0.2,0c-0.3,0-0.4,0.2-0.2,0.4l0.2,0l-0.2,0.1   c0.1,0.1,0.4,0,0.3,0.2c-0.1,0-0.2,0-0.2,0.1c0.2,0.1,0.5,0.3,0.4,0.5l-0.3,0.2c0,0.1,0.2,0.2,0.3,0c-0.1,0.3-0.1,0.5-0.3,0.7   c0.7,0.4,0.9,1.1,1,1.6l-0.2,0c-0.1,0.2,0.3,0,0.2,0.1c-0.2,0-0.3,0.2-0.5,0.1c-0.1,0.3,0.3,0.2,0.4,0.3c0.2,0-0.2-0.1,0.1-0.1   c0.1,0-0.1,0.3,0.2,0.3c-0.1,0.1-0.3,0.1-0.4,0.1l0.2,0.1c-0.3,0.3-0.7-0.2-1.1,0.1l0.1,0.1c-0.3,0.2-0.5-0.2-0.4,0.1   c0.2,0.1,0.6,0.1,0.7-0.1c0.2,0.3,0.7-0.1,0.8,0.2c-0.1,0.1-0.1-0.2-0.3-0.1c-0.2,0.2,0.2,0.2,0.2,0.4c0.1-0.2,0.4-0.2,0.5-0.1   c-0.1,0.2-0.3,0-0.3,0.2c0.2,0,0.4,0.1,0.4-0.1c0.4-0.1,0,0.3,0.3,0.2c-0.2,0.2-0.7,0-0.7,0.3c0.2-0.1,0.5,0.1,0.8-0.1   c0,0.1-0.2,0.2-0.4,0.2c-0.1,0.2,0.6,0.1,0.1,0.4l0.3-0.1c-0.1,0.1-0.1,0.2-0.2,0.3c0,0.1,0.5,0.2,0.1,0.4c0.1,0,0.2,0.3,0.4,0.1   c0.1-0.2-0.3-0.1,0-0.3c-0.2,0.2,0.1,0.2,0.3,0.2l-0.1,0.1c0.1,0,0.1,0.2,0.3,0.1c-0.1,0-0.2,0.1-0.2,0.1l0.2-0.1   c0.2,0.1-0.4,0.2-0.2,0.4l-0.3-0.1c0.1,0-0.1,0.2,0,0.3l0.7-0.2c0.1,0.1-0.2,0.2,0.1,0.2l-0.3,0c-0.1,0-0.3,0.3-0.2,0.4   c0.1,0.1,0.5,0,0.5-0.2c0,0.1,0,0.2-0.2,0.3c0.2,0.1,0.2-0.1,0.4-0.1c-0.1,0.1-0.2,0.4-0.3,0.7l-0.4,0l0.1,0.1   c-0.3,0-0.2,0.2-0.5,0.3c0,0.1,0.1,0.1,0.3,0.2c0.3-0.5,0.7-0.2,1.1-0.5c0.3,0.2-0.8,0.8,0,0.7c0.1-0.1,0.4-0.2,0.2-0.3   c0.1,0.2,0.5-0.2,0.4,0.1c-0.3,0-0.3,0.4-0.6,0.4c0.1-0.1,0-0.2-0.1-0.2c-0.1,0.2-0.4,0.3-0.3,0.4c0.1,0.1,0.2,0.2,0.4,0   c0.2-0.2-0.1-0.1,0.1-0.2c0.2,0.1-0.1,0.4,0.4,0.2c-0.1-0.1,0.1-0.3,0.2-0.4l0.2,0.1l-0.2,0.1c0.1,0.3,0.3-0.1,0.4,0.1l-0.2,0.3   c-0.3,0.1-0.2-0.4-0.5,0c0.1,0.2,0.3,0,0.3,0.2c-0.1,0-0.1,0-0.2,0c0,0.1-0.4,0.5,0,0.5c0.2,0,0.1-0.1,0.3-0.2   c0.2,0.2,0.4,0.1,0.6,0.2c-0.3,0.2,0.2,0.3-0.2,0.4c0.1-0.2-0.2-0.5-0.5-0.3c-0.2,0.4-0.1-0.2-0.5,0c0.1,0.2-0.2,0.5-0.3,0.7   c0,0.1,0.2,0,0.2,0c0.2-0.2,0.1-0.2,0.3-0.4c0.1,0.2,0.4,0.3,0.7,0.3c0,0.2-0.2,0.3-0.3,0.3c0.3,0.2,0.5,0.4,0.7,0.7   c0.1-0.4,0.3,0.1,0.4-0.2c-0.1-0.2,0-0.5,0.2-0.6c0.1,0.1-0.1,0.1-0.1,0.2c0.2-0.1-0.1,0.4,0.2,0.2c-0.3-0.1-0.4,0.4-0.6,0.6   c0.3,0-0.2,0.2,0,0.3c0.3,0,0.6,0,0.8,0.1c0.1,0.4,0.6,0.4,0.8,0.5c0,0.2-0.2,0.5-0.1,0.6c0.2,0.1,0.1-0.4,0.2-0.1l-0.1,0.1   c0.1,0,0.4,0.4,0.6-0.1l-0.2,0.3c0,0.1,0.1,0,0.2,0c0,0.1,0,0.3-0.1,0.3c0.1,0.3,0.4,0.1,0.5,0.1l0-0.3c0.3-0.1,0.5,0.2,0.8,0.1   l0,0.2l0.2-0.1c-0.1,0.2,0.1,0.4,0.2,0.2c-0.2,0.2-0.4,0.3-0.6,0.5c-0.1-0.2,0.2-0.2,0.2-0.5c0-0.2-0.3-0.2-0.4,0   c0.1,0.1,0.1,0,0.2-0.1c0,0.3-0.2,0.3-0.3,0.5c0.1,0,0.1,0.1,0.2,0c-0.2,0.1-0.3,0.1-0.5,0.1c0.2-0.1,0-0.2,0.1-0.3   c-0.1,0.3-0.3,0.3-0.5,0.1c0-0.4-0.5,0-0.8-0.2c0.2-0.2,0.5-0.4,0.6-0.4c-0.1-0.2-0.2-0.1-0.3-0.3c-0.2,0.2-0.4,0.4-0.6,0.4   l0.1-0.2c-0.2,0-0.4,0.3-0.6,0.1c-0.3-0.3-0.8-0.6-1-0.8l0.1-0.2c-0.4,0.2-0.6-0.3-0.9-0.3c-0.2-0.4-0.9-0.5-0.7-0.9   c-0.7-0.4-1.2-0.9-1.6-1.6l0.3-0.1c-0.3,0,0.1-0.2,0-0.3c-0.1,0.3-0.4,0-0.6,0c0-0.4-0.5-0.7-0.8-0.8l0.2-0.1   c-0.5-0.1-0.4-0.6-0.5-1c0.1-0.1,0.2-0.2,0.1-0.3c-0.4,0-0.4-0.1-0.8-0.3c-0.1-0.3-0.2-0.6-0.2-0.9c-0.8-0.6-0.8-1.6-1.4-2.4   l0.2-0.1c-0.8-0.7-0.6-1.9-1-2.6l0.4,0c0.1-0.3-0.2-0.5-0.5-0.4c0.1-0.3-0.3-0.6,0-0.8c0-0.3-0.2-0.3-0.3-0.5   c0.1-0.5,0-0.7-0.1-1.1l0,0.1c0.1,0,0.3,0,0.3-0.1c-0.1-0.2,0.1-0.6-0.4-0.4c0.3-0.5-0.3-1.2,0.1-1.6c-0.1,0-0.2-0.1-0.3-0.1   c0-0.4,0.3-0.9,0.1-1.3c0.1-0.1,0.2,0.1,0.3-0.1c0-0.1-0.2,0-0.2-0.2c-0.2-0.8,0.4-1.5,0.6-2.2c0-1.3,1-2.8,2.1-3.7l0,0.1   c0.2-0.6,1.1-0.2,1.2-0.9c0.1,0,0.4-0.1,0.4,0.1c0.2-0.4,1-0.1,1.4-0.5c0,0-0.1,0-0.1,0.1c0.5,0.1,0.9-0.2,1.4-0.1   c0,0-0.1,0.1-0.1,0.2c0.2,0.2,0.4-0.5,0.5,0c0.1,0,0.1-0.2,0-0.2c1,0.1,2.1-0.1,3.3,0c0.8,0.5-0.2,0.8,0.6,0.6   c0,0.1,0.1-0.2,0.1-0.1c0.3,0,0.2,0.7,0.4,0.5c0.1-0.3,0.2-0.1,0.3-0.3c0.4,0.4,0.3,0.7,0.8,0.7l-0.1,0.1c0.6-0.1,0.9,0.4,1.5,0.3   c1.8,1.5,3.3,3.4,4.4,5.5c0.9,2.1,1.8,4,2.1,6.2c-0.3,0.6-0.3,0.6,0,1.2c-0.1,0-0.1,0-0.1,0c0.3,0,0.1,0.4,0.4,0.4   c0.1,0.8,0.3,1.6,0.4,2.5c0-0.1-0.3-0.2-0.3,0l0.2,0.2l-0.1,0c0.1,0.1,0.2,0.2,0.3,0.1c0.4,2.3-0.4,4.6-1.7,6.9   c-0.4,0.5-0.9,1.2-1.4,1.7c-2,1-3.6,0.9-5.3,1.3C350.9,107.5,351.1,106.6,351.8,106.4L351.8,106.4z" fill="#1D1D1B"  /><path d="M350.4,106.6c0-0.2-0.2-0.3-0.1-0.5C350.3,106.3,350.4,106.5,350.4,106.6z M346.9,103.3c0,0,0-0.1,0-0.1   c0,0,0.2-0.1,0.2,0C347,103.2,347,103.3,346.9,103.3L346.9,103.3z M346.2,102.5c0.1-0.1,0.4,0,0.5,0L346.2,102.5z M345.9,101.4   c0-0.1,0.1-0.2,0.2-0.1C346,101.4,346,101.4,345.9,101.4z M345.6,101.6c-0.1-0.1,0-0.2,0-0.2C345.5,101.4,345.8,101.4,345.6,101.6z    M344.7,99.6c0,0-0.2-0.1-0.1-0.2C344.5,99.5,344.9,99.5,344.7,99.6z M343.9,98.8C343.9,98.8,343.9,98.8,343.9,98.8   c0-0.2,0.1-0.2,0.2-0.1L343.9,98.8z M343.4,82.4L343.4,82.4l-0.1,0L343.4,82.4z M350.5,84.1c0.1,0-0.1,0.2-0.1,0.2   C350.3,84.2,350.6,84.2,350.5,84.1z M353.7,87.5L353.7,87.5l0.3-0.2L353.7,87.5z" fill="#1D1D1B"  />
	
	
	
</g><path d="M382.7,53.7c6.5,1.1,12.7-3.2,13.8-9.7c0.1-0.7,0.2-1.4,0.2-2.1c5.9,0.3,11.2-3.9,12.2-9.8  c1.1-6-2.5-11.7-8.1-13.4c0.2-0.7,0.4-1.3,0.6-2c1.1-6.5-3.2-12.7-9.7-13.8c-4.9-0.9-9.7,1.4-12.2,5.4c-1.7-1.5-3.7-2.5-6-2.9  c-6.5-1.1-12.6,3.2-13.8,9.7c-0.6,3.2,0.2,6.4,2,9c-2.6,1.8-4.4,4.6-5,7.8c-1.1,6.5,3.2,12.7,9.7,13.8c2.4,0.4,4.7,0.1,6.7-0.8  C374.3,49.2,377.9,52.8,382.7,53.7L382.7,53.7z" fill="#FFD300"  /><g><path d="M383.3,52.6c-0.6,0.1,0.2,0.6-0.4,0.2C383,52.6,383.1,52.4,383.3,52.6z" fill="#1D1D1B"  /><path d="M380.9,52.4c-1.2,0.4-2.3-0.2-3.2-0.9c-0.9-0.8-1.6-1.7-2.7-2.4c-0.2-0.2,0.7-0.5,0.2-0.8   c-1.2-0.6-1.9-1.8-2.1-3.4c-0.6,0.2-1.2,0.2-1.9,0.2c-0.7,0-1.5-0.1-2.1-0.3l0.1-0.3c-0.5-0.1-1,0.7-1.5,0.5c0-0.2,0.2-0.2,0.1-0.5   c-0.2,0.5-0.9,0.1-1.2,0.5c-0.2-0.2-0.1-0.6-0.3-0.9l-0.4,0.5c-1.2,1.1-1.9-0.6-3.1-0.6c0.1-0.1,0.3-0.1,0.2-0.3   c-2-0.1-3.8-1.9-5.1-3.6c0.2,0,0.6-0.2,0.7-0.4c-0.6,0.2-1-0.3-1.4-0.8c0.4-0.5-0.9-0.7-0.8-1.5l0.1,0c-0.8-0.3,0.1-0.8-0.7-1   l0.4-0.4c-0.9-0.1,0.3-0.8-0.2-1.1l-0.2,0c-0.3-0.4,0.2-0.6,0-1l0.1,0c-0.2-0.9,0.3-1.3-0.4-1.4c0.5-0.3,0.2,0.9,1,0.4   c-0.6-2.8,0.9-5.8,2.7-7.7c0.4-0.1,0.6-0.2,0.9-0.1c0.1-0.3,0.7-0.8,0.5-1c-0.1,0.1,0.5,0,0.7-0.1c0.3-0.1,0.3-0.2,0.2-0.3   c-0.3-0.2-0.7-0.3-0.7-0.5c0.3,0.2,0.6,0.3,0.9,0.3c-0.9-0.5-1.1-0.9-1.5-1.4c0.1,0.1,0.3,0.2,0.5,0.1c-0.9-0.4-0.3-1-0.9-1.4   l0.4,0.1c0.2-0.9-0.9,0-0.8-0.8c0.2,0.1,0.3,0,0.5,0c-0.9-0.5-0.9-1.7-1.1-2.4c0.1,0,0.2,0,0.2,0c-0.1-0.8,0.1-1.6-0.1-2.4   c0.2-0.3,0.9,0.2,0.9-0.6c-0.8-0.1,0-1.4-1-1.1c0.3-0.7,1-1.6,0.9-2.2c0.1,0.4,1,0.1,0.8,0.6l0.6-0.2c0.3,0.2-0.3,0.3,0.1,0.4   c0.1-0.2,0.2-1.1,0.4-1.2c-0.2-0.7-0.6-1.6-0.1-2.3c0,0.5,0.8,0.4,0.7,0.7c-0.1-0.6-0.2-1.3-0.3-1.9c0.2-0.2,0.5,0.4,0.6-0.1   c-0.2-0.1-0.1-0.4-0.1-0.6c0.1,0,0.9-1,1.4-0.4c0.3,0.2-0.3,0.4,0.1,0.4c0.4-0.3,0.3-0.5,0.8-0.8l0.1,0.1c0.4-0.1,0.8-0.8,0.2-1   c-0.2,0.1,0.3,0.4-0.1,0.3c0-0.5,0.6-0.9,1.1-1.2c-0.1,0.2,0,0.4,0,0.6c0.5-0.9,1.2-1.3,2.1-1.8c-0.1-0.4-0.2,0.7-0.3,0.6   c1.2,0.2,2.2-1.2,3.2-0.4c-0.2,0.1-0.1-0.5-0.1-0.4c0.6,0,0.5,0.6,0.9,0.4c0,0.3,0.4-0.1,0.8-0.1c0.2-0.2,0.1,0.2-0.2,0.2   c0.5-0.3,2.7-0.3,3.7,0.6c0-0.2,1-0.4,1.2-0.3l-0.3,0.4c0.2,0.4,0.5,0.2,0.4,0.6c0.2-0.2,0-0.2-0.4-0.2c-0.5-0.1-1.1-0.1-0.6-0.2   c0,0.4,1.3-0.2,0.9,0.3c0.2,0.1,0.6-0.3,0.7,0.3c0-0.1-0.3,0.6-0.1,0.7c0.4,0.2,0.1-0.2,0.4-0.1c0.1,0,0.1-0.1,0.2-0.1   c0-0.6,0.3,0.3,0.1-0.4c0,0.3,0.1,0.3,0.2,0.3c0.1-0.1,0.1-0.1,0.2,0.4l0.1,0.8c0.1-0.2,0-1.1,0-1.5c0,0.1,0.1,0.2,0.1,0.3   c-0.3-1,0.3-0.2,0.1-1.1c0.3,0.1,0.5-0.4,1.3-0.3c0.2-0.6,0.5-1.1,1.1-1.3c-0.1,0.1-0.2,0.3-0.1,0.4c0.5,0,0.4-0.2,0.7-0.6   c0,0.1,1,0.1,1.5,0.2c0.4-0.5,0-0.8-0.1-1.2c0.8,0.7,1.3-1.1,2.2-0.5c-0.2,0.2-0.6,0.6-0.2,0.7c0.7,0.8,0.8-0.9,1.7-0.6l-0.3-0.7   c0.4,0.4,1.2-0.6,1.2,0.2c0.3-0.3,1,0.2,0.9-0.5c1.3,0.6,3.5-0.1,3.9,1.5c0.2-0.1,0.6,0.2,0.6-0.2c-0.2-0.5-0.5,0.2-0.5-0.2   c0.2,0,0.3-0.2,0.3-0.2c0.4,0.3,0.6,0.4,0.1,0.9c0.7,0.7,1.3-0.9,2.3-0.1c-0.2,0.3-0.2,0.4,0.2,0.5c0.3,0,0.6-0.1,0.8-0.1   c0.6,0.5,0,0.8-0.3,1.3c0.4,0.1,0.7,0.4,1.1,0.2c0,0.3,0,0.5,0,0.8c0-0.6,0.4,0,0.7,0l-0.2,0c-0.1,0.2,0.3,0.4,0.5,0.5   c0.2-0.3-0.1-0.7-0.2-0.9c0.3,0,0.5,0.2,0.9,0.2c-0.4,0.3,0.2,0.7,0.4,1c0.2,0.3,0.6,0,0.7,0.1c-0.2,0.2,0.4,0.5-0.1,0.5   c-0.1,0,0-0.4-0.3-0.4c0,0.3-0.4,0.6,0.2,0.8c0.4,0.2,0.7-0.7,0.9,0.1c-0.2-0.1-0.4,0-0.6,0c0.1,0.2,0.1,0.5,0.2,0.7l0.4-0.2   c0,0.1-0.1,0.1-0.1,0.2c0.5-0.1,0.7,0.8,1.2,0.7c0.2,0.3,0.1,0.8,0.1,1.1l-0.1,0c-0.1,0.5,0.3,0.9,0.7,1.1l-0.1,0   c0,0.2,0.3,0.7,0.6,0.9c-0.2,0.6-1.6,0.6-0.9,1.1c0.1,0.5,1,0.7,1.2,0.4c-0.1,1,0.7,2.2-0.1,3.2c0.2,0.1,0.3,0.1,0.4,0.3   c-0.2,0.7,0.3,0.8-0.4,1.4c0,0.1-0.1,0.1-0.1,0.2c-0.4,0.1-0.5,0.3-0.8,0.4c0.6-0.2-0.2,0.3,0.6-0.1c0.4-0.3,0.6-0.4,0.6-0.5   c0.5,0,0.8,0.1,0.8,0.5c0-0.2,0.2-0.3,0.3-0.3c-0.2,0.3-0.3,0.5-0.2,0.6c0.1,0.2,0.4,0.3,0.6,0.4L406,18l0,0.5   c0.2,0,0.7-0.5,0.9,0.1c-0.1,0.1-0.2,0.3-0.2,0.4c0.6,0.1,1.6,0.2,1.7,0.9l-0.1,0.7c0.2,0.1,0.7,0.3,0.6-0.2c0.4,1,0.6,1.6,0.4,2.1   c2,0.7,3,3.3,3.2,5.4l-0.3,0c-0.2,0.6,0.6,0.2,0.4,0.6c-0.3-0.1-0.6,0.5-1,0.1c-0.3,0.8,0.6,0.9,0.7,1.4c0.4,0.1-0.3-0.4,0.3-0.3   c0.2,0.1-0.3,1.1,0.3,1.2c-0.3,0.2-0.7,0-0.9-0.1l0.3,0.5c-0.7,0.5-1.2-1.3-2.1-0.8l0.1,0.4c-0.7,0.3-0.7-1-0.9-0.1   c0.3,0.4,1.1,0.9,1.4,0.5c0.1,0.9,1.4,0.6,1.2,1.6c-0.4,0.2,0.1-0.8-0.5-0.7c-0.6,0.4,0.1,1-0.2,1.4c0.3-0.4,0.8,0.1,0.9,0.5   c-0.4,0.4-0.5-0.5-0.7,0.2c0.3,0.2,0.3,1,0.8,0.5c0.7,0.5-0.5,0.7-0.1,1.3c-0.6,0-0.9-1.2-1.5-0.6c0.6,0.1,0.2,1.2,1.2,1.2   c-0.3,0.3-0.7,0.1-0.9-0.3c-0.5,0.3,0.3,1.5-0.7,1.1l0.4,0.4c-0.2,0-0.5,0.1-0.8,0.2c-0.2,0.3-0.2,1.5-0.8,1c0,0.2-0.6,0.8,0,0.9   c0.7-0.2,0.1-0.8,0.9-0.6c-0.8,0-0.5,0.7-0.6,1.2l-0.3-0.2c0,0.2-0.4,0.5-0.3,0.9c0-0.2-0.2-0.3-0.4-0.3l0.2,0.5   c-0.5,0.8-0.7-0.5-1.3,0.2c0.1-0.2,0.2-0.5,0.2-0.7c0,0.2-0.5,0-0.7,0.3c0.2,0.4,0.3,1,0.4,1.4c-0.3,0.4-0.5-0.3-0.6,0.4   c0.1-0.3,0.1-0.5,0.2-0.8c0-0.2-0.8-0.3-1.2,0c-0.2,0.3-0.4,1.2,0.2,1.1c-0.3,0.2-0.8,0.2-0.7-0.3c-0.5,0.5,0.3,0.4-0.1,0.9   c-0.4-0.1-1.3-0.2-1.8-0.4c0.1-0.3,0.2-0.6,0.3-0.9l-0.4,0.2c0.2-0.7-0.4-0.3-0.4-1c-0.3,0-0.4,0.3-0.6,0.5   c1.1,0.7-0.4,1.6,0.1,2.4c-1,0.5-1.5-1.9-1.6-0.4c0.1,0.2,0.2,0.9,0.3,0.6c-0.2-0.1,0.2,0.9,0,0.5c-0.1-0.4-0.6-0.8-0.6-1.4   c0.1,0.3,0.3,0.2,0.3,0.1c-0.2-0.3-0.3-0.9-0.6-0.8c-0.2,0.1-0.4,0.1-0.1,0.6c0.3,0.5,0.2-0.1,0.4,0.4c-0.1,0.2-0.8-0.5-0.2,0.3   c0.1-0.1,0.5,0.4,0.7,0.8c0,0.1,0.1,0.1,0.1,0.2l-0.3-0.3c-0.2-0.2,0.1,0.2,0.2,0.4c0.1,0.1,0.1,0.2,0.1,0.2   c-0.2-0.2-0.4-0.3-0.6-0.5c-0.3-0.3-0.1-0.3-0.2-0.4c0,0,0-0.1-0.4-0.5c0,0-0.1,0-0.1,0c0.1,0.2,0.4,0.5,0.2,0.5   c-0.1-0.1-0.1-0.2-0.2-0.3c0,0-1.2-0.8-0.5,0.1c0.2,0.3,0.3,0.2,0.6,0.4c0.1,0.3,0.4,0.5,0.4,0.9c-0.6-0.3-0.4,1.1-0.9,0.2   c0.6-0.5,0.6-0.8,0-1.3c-0.8-0.3,0.2-0.2-0.6-0.9c-0.1,0.4-0.8-0.1-1.3-0.3c-0.1,0.1,0.1,0.4,0.2,0.5c0.5,0.3,0.5,0.1,1,0.3   c-0.1,0.2-0.1,0.4-0.1,0.7c0,0.3,0.1,0.7,0.3,1c-0.3,0.2-0.8-0.1-0.7-0.4c-0.2,1-0.7,2-1.3,2.7c1-0.1-0.4,1,0.4,1   c0.5-0.3,1.2-0.5,1.4,0c-0.2,0.3-0.3-0.2-0.5-0.2c0.1,0.6-1,0.2-0.6,0.9c0.4-1-0.7-0.7-1.1-1.3c-0.1,0.7-0.4-0.3-0.7,0.2   c-0.1,0.8-0.4,1.5-0.8,2.1c-1.1,0.2-1.8,1.4-2.5,1.9c-0.5-0.1-0.6-0.9-1.1-0.8c-0.4,0.2,0.7,0.5-0.1,0.6l0-0.2   c-0.1,0.3-1.4,0.1-1.3,1.2l0-0.8c-0.2,0-0.2,0.2-0.3,0.3c-0.1-0.2-0.3-0.4-0.2-0.6c-0.6-0.4-0.9,0.4-1.3,0.5l0.4,0.4   c-0.8,0.6-1.4,0.2-2.2,0.4l0-0.5c-0.2,0.1-0.3,0.2-0.5,0.3c0.1-0.4-0.3-0.7-0.6-0.4c0.4-0.4,0.8-0.8,1.2-1.2c0.3,0.3-0.3,0.6-0.1,1   c0.2,0.4,1,0.2,1-0.3c-0.3,0-0.3,0.1-0.5,0.3c-0.2-0.6,0.3-0.6,0.4-1.1c-0.1,0-0.3-0.1-0.3,0.1c0.2-0.3,0.5-0.4,0.9-0.5   c-0.2,0.3,0.2,0.4,0.2,0.6c-0.1-0.6,0.3-0.8,0.8-0.8c0.6,0.5,0.8-0.7,1.4-0.8c0,0.6-0.1,1.2-0.4,1.5c0.5,0.1,0.4-0.2,0.9-0.1   c0-0.5-0.1-1.1,0.2-1.6l0.2,0.4c0.3-0.4,0-1,0.5-1.2c0.9-0.4,1.7-1.1,2.2-1.6l0.3,0.2c-0.4-0.9,0.6-1.3,0.5-2   c0.8-0.7,0.4-1.9,1.3-2.2c0.1-1.3,0-3.1-0.1-4.6l3.2-0.1c-0.1,0.2-0.1,0.4-0.2,0.6c0.2-0.5,0.5,0.3,0.8,0.2   c-0.7-0.4,0.4-0.7,0.6-1.1c0.8,0.3,1.6-0.5,2-1.2l0.2,0.4c0.2-1,1.2-0.8,1.9-1.2c0.2,0.1,0.6,0.3,0.7,0.1c-0.1-0.8,0.1-0.9,0.2-1.7   c0.4-0.4,0.8-0.8,1.3-1.1c0-1,0.3-1.8,0.4-2.6c0.2-0.8,0.3-1.7,0-2.5l0.5-0.1c-0.6-0.8-0.7-1.7-1-2.5c-0.2-0.8-0.6-1.7-1.2-2.1   l0.8-0.4c0-0.5-0.8-0.7-1.2-0.3c-0.1-0.5-1-0.5-0.7-1.2c-0.2-0.4-0.7-0.1-1-0.2c-0.1-0.2-0.2-0.3-0.4-0.5c-0.3-0.2-0.5-0.4-0.8-0.5   c-0.6-0.3-1.3-0.5-2.3-0.7l0.4,0.2c0.4-0.1,0.7-0.3,0.3-0.5c-0.9-0.1-2.1-1-2.7-0.1c-0.1-0.1-0.2-0.1-0.3-0.2   c0.5-1.1,0.8-2.1,1-3.2l0.4-1.6c0-0.2,0.1-0.4,0.2-0.6c0.1-0.2,0.1-0.2,0.2-0.4c-0.3,0.1-0.3-0.2-0.5-0.2c0-0.7,0.5-1.6-0.1-2.1   c0.1-0.1,0.5,0.1,0.5-0.2c-0.1-0.2-0.4,0.1-0.6-0.1c-0.8-0.9-0.4-2.5-1.3-3.3c-1.6-1.2-3.2-2.4-5.1-2.7l0.1-0.2   c-0.7,0.7-1.4-1-2,0.2c-0.2-0.2-0.6,0-0.5-0.5c-0.4,0.6-1.5-0.3-2,0.6c0.1,0,0.1-0.1,0.1-0.2c-0.9-0.2-1.2,0.7-2.1,0.7   c0-0.1,0.1-0.2,0-0.4c-0.5-0.2-0.1,1.1-0.9,0.4c-0.1,0.1,0.2,0.5,0.3,0.4l-0.4,0.2c-0.1,0.1-0.2,0.1-0.5,0.4   c-0.4,0.4-0.8,0.8-1.2,1.4c-0.7,1.1-1.5,2.2-2.1,3.4c-1.2-0.9-2.7-2-4.2-2.9c-0.3-0.3-0.5-0.5-0.7-0.7c0-0.1-0.1-0.2-0.1-0.3   c0-0.2,0-0.3,0.1-0.5c0.1-0.2,0.2-0.3-0.5-0.2c0-0.2-0.2,0.3-0.1,0.1c-0.5,0.1-0.3-1.2-0.7-0.8c0,0.6-0.3,0.3-0.4,0.6   c-0.7-0.6-0.9-1.1-1.6-0.7l0.1-0.3c-0.8,0.8-1.7,0.4-2.2,1.6c-1.9,0.5-3.5,1.7-4.5,3.1c-1,1.5-1.5,3.2-1.5,4.9   c-0.1,0.8,0,1.6,0.3,2.4l0.1,0.3l0.2,0.5c0.3,0.6,0.6,1.1,1,1.7l2.3,3.3l-3.3,2.4c-0.6,0.4-1,0.8-1.5,1.3l-0.3,0.3l-0.2,0.2   c-0.5,0.7-1,1.4-1.4,2.2c-1,0.6-1,0.8-0.8,1.7c-0.1,0-0.2-0.1-0.3-0.1c0.7,0.1,0,0.7,0.7,0.8c-0.1,1.3,0.4,2.5,1.1,3.6   c-0.2-0.1-0.7,0-0.5,0.2l0.5,0l-0.1,0.1c0.2,0.1,0.6,0.1,0.7-0.2c1.1,1.2,2.2,2.3,3.6,3.1c0.7,0.4,1.5,0.7,2.3,0.8   c0.4,0.1,0.8,0.1,1.4,0c0.5-0.1,1.1-0.3,1.6-0.4l1.8-0.7c0.8-0.2,1.7-0.5,2.7-0.9c0.5,1.5,1.1,3.3,1.6,4.7l0.5,2   c0.1,0.4,0.2,0.7,0.4,1c0.3,0.6,0.7,1.2,1.2,1.7c1,1.1,2.4,1.7,3.9,1.6C383.2,50.8,382.5,52.5,380.9,52.4L380.9,52.4z" fill="#1D1D1B"  /><path d="M384,52.6c0.1,0.4,0.5,0.6,0.1,1C384.1,53.3,383.9,52.9,384,52.6z M396.1,50.5c-0.1-0.1,0.2-0.1,0.3-0.1   c-0.1,0.2,0,0.5-0.2,0.5C396.3,50.7,396.2,50.7,396.1,50.5L396.1,50.5z M398.1,47.4c0.3,0.2,0.2,1,0,1.5   C398.1,48.4,398.1,47.9,398.1,47.4z M400,45.8c0.2,0.1,0.4,0.2,0.4,0.2C400.2,45.9,400.1,45.9,400,45.8z M399.3,45.3   c0-0.1,0.2,0,0.3,0.1C399.4,45.2,399.8,45.6,399.3,45.3z M402.4,45c0.2-0.1,0.5-0.5,0.8-0.2C402.9,44.6,402.4,45.5,402.4,45z    M405.6,42.9c0.1,0,0.2,0,0.3-0.2c0.3,0,0.2,0.3,0.1,0.4L405.6,42.9z M386.8,0.6l0.3-0.2l0,0.3L386.8,0.6z M366.4,3.8   c-0.3,0.3-0.3-0.2-0.4-0.2C366.3,3.4,366,4,366.4,3.8z M359,14.9l0-0.1l0.6,0.1L359,14.9z" fill="#1D1D1B"  />
	
	
	
</g><g><path d="M384.8,18.5c2.9,0.1,4.3,1.8,4.3,5.2c0,1.7-0.4,3.6-1.3,5.8c-0.8,2.2-1.8,3.9-2.9,4.9   c-0.5,0.6-1.1,1-1.7,1.2c-0.6,0.2-1.3,0.4-2.2,0.4c-1.5,0-2.6-0.4-3.4-1.1c-0.7-0.8-1.1-2-1.1-3.7c0-2.2,0.4-4.2,1.1-6.2   c0.7-1.9,1.7-3.5,3-4.7c1.3-1.2,2.5-1.8,3.8-1.8L384.8,18.5L384.8,18.5z M384.8,18.2c-0.2,0,0.1,0.1-0.1,0.1   C384.7,18.2,384.8,18.2,384.8,18.2z" fill="#1D1D1B"  /><path d="M384.1,18.3c-0.5,0.5-1.3,0.3-1.8,0.9c-0.1,0.1-0.1-0.2-0.2-0.1c-0.4,0.6-1.2,1-1.9,1.4l0-0.1   c-0.1,0.1-0.1,0.3-0.2,0.4c0,0,0-0.1-0.1-0.1c0.1,0.1-0.1,0.2-0.1,0.3c-0.1,0-0.1-0.1-0.2,0l0.1,0.2c0.1,0.4-0.4,0.4-0.4,0.8   c0,0,0-0.1-0.1-0.1c-0.1,0.5-0.5,1.1-0.7,1.6c0,0-0.1-0.1-0.2-0.1c0.1,0.1,0.1,0.3,0,0.4c-0.2,0,0,0.3-0.1,0.4l0,0   c0.1,0.2-0.2,0.1,0,0.3l-0.1,0c0.2,0.1-0.2,0.1-0.1,0.3l0,0c0,0.1-0.1,0.1-0.1,0.2h0c0,0.2-0.2,0.3,0,0.4c-0.2,0,0-0.2-0.2-0.2   c-0.1,0.8-0.3,1.5-0.5,2.2c-0.1,0.1-0.1,0.1-0.2,0.1c0,0.1,0,0.3,0,0.4c0,0-0.1,0-0.1,0.1c-0.1,0.1,0.2,0.2,0.1,0.3   c0-0.1-0.1-0.1-0.1-0.1c0.1,0.1,0.1,0.3,0.1,0.5c0,0,0-0.1-0.1-0.1c0.1,0.2-0.1,0.3,0,0.4l-0.1-0.1c-0.1,0.2,0.2,0.1,0.1,0.3   c0-0.1-0.1,0-0.1-0.1c0.1,0.2,0.1,0.5,0.1,0.7c0,0,0,0,0,0c0,0.2-0.1,0.4,0,0.6c0,0.1-0.2,0-0.2,0.2c0.2,0,0.1,0.4,0.3,0.2   c0,0.2-0.1,0.5,0,0.6c-0.1-0.1-0.2,0.1-0.3-0.1l-0.1,0.1c-0.1,0,0-0.1-0.1-0.1c0,0.1,0.1,0.3,0.1,0.4c0.1,0.1,0.4,0.2,0.4,0.5   c-0.1-0.1-0.2,0.1-0.2,0l0.4,0.3c0,0.1-0.2,0-0.1,0.1c0,0,0.1,0,0.1,0c0,0,0.1,0.3-0.1,0.4c-0.1,0.1-0.1-0.1-0.1,0   c0,0.1,0.1,0.1,0.1,0.2l0,0c0,0.1,0.2,0.2,0.2,0.1c0-0.1-0.1,0.1-0.1,0c0.1,0,0.2,0.1,0.3,0.3c0,0-0.1,0-0.1,0   c0.2,0.1,0.3,0.2,0.5,0.3c0.1,0-0.2,0-0.1,0c0,0.3,0.4,0.3,0.4,0.5c0,0,0.1-0.1,0.1-0.1c0.1,0.1,0,0.2,0.1,0.2c0,0.1,0.1,0,0.2,0.1   c0.1,0,0,0-0.1,0c0.1,0,0.5,0.1,0.7,0.3c0,0,0.2-0.1,0.3-0.1l-0.1,0.1c0,0.1,0.2,0,0.2,0.1c0.2-0.1-0.5,0-0.3-0.1   c0,0.1,0.3-0.1,0.2,0c0.1,0,0.3-0.1,0.3,0.1c0,0-0.1,0.1,0,0.2c0.2,0,0.1,0,0.2-0.1l0.1,0c0-0.1,0.1,0,0.1-0.1c0,0.1,0.3,0,0.2,0.2   l0,0.1c0.1,0,0.1-0.1,0.2-0.2c0,0,0,0,0,0.1c0-0.2,0.2,0,0.3-0.1c0.2,0.1,0.4,0,0.5,0.2c0.1-0.1,0.2-0.2,0.4-0.1c0,0-0.1,0-0.1,0.1   c0.1,0.1,0.1,0,0.2,0c0,0,0.2,0.1,0.3,0.2c0.1-0.1,0.1-0.2,0.1-0.3c0.1,0.2,0.3-0.2,0.5,0c0,0-0.1,0.1,0,0.2   c0.2,0.2,0.2-0.2,0.4-0.2l-0.1-0.2c0.1,0.1,0.2-0.2,0.2,0c0-0.1,0.2,0,0.1-0.2c0.3,0,0.5-0.4,0.8-0.2c0-0.1,0.1-0.1,0-0.2   c-0.1,0,0,0.1-0.1,0.1c0,0,0-0.1,0-0.1c0.1,0,0.2-0.1,0.2,0.1c0.2,0,0-0.4,0.2-0.5c0,0.1,0.1,0.1,0.1,0l0-0.2   c0.1-0.1,0.2,0.1,0.3,0.1c0-0.1,0.1-0.2,0.1-0.3l0.2,0c-0.1,0,0-0.1,0-0.2l0,0.1c0.1,0,0.1-0.1,0.1-0.1c-0.1,0-0.2,0-0.2,0   c0-0.1,0-0.1,0-0.2c0.1,0.1,0.2-0.1,0.2-0.1c0.1,0,0-0.1,0-0.2c0.1,0,0.1-0.1,0.1,0c0,0-0.1,0-0.1,0.1c0.1,0,0.2,0.1,0.2-0.1   c0-0.1-0.2-0.1-0.1-0.2c0,0.1,0,0.1,0.1,0.1l0.1-0.1l-0.1-0.1c0,0,0,0,0.1,0c-0.1-0.1,0.1-0.2,0-0.3c0-0.1,0.2-0.1,0.2-0.1l0,0   c0.1,0,0.1-0.2,0.1-0.3l0,0c0-0.1,0.1-0.1,0.1-0.2c0.1-0.1,0.4,0.2,0.3,0c0.1-0.1-0.1-0.3-0.2-0.3c0.2-0.2,0.1-0.5,0.4-0.6   c0-0.1-0.1,0-0.1-0.1c0.2-0.3,0.2-0.7,0.5-0.8c0,0.1,0.1,0.1,0.2,0.1c-0.1-0.1,0.1,0,0-0.1c-0.1,0-0.1-0.1-0.2,0   c0-0.2,0.1-0.5,0.3-0.5c-0.1,0-0.1,0-0.1-0.1c0.1,0.1,0.2-0.1,0.2-0.2l-0.1-0.1l0.1,0c0-0.1-0.2-0.1,0-0.2c0,0,0.1,0,0.1,0   c0-0.1-0.1-0.3,0-0.4l0.2,0c0-0.1-0.1-0.2-0.1-0.1c0.2-0.2,0.2-0.3,0.4-0.3c-0.2-0.5,0-1,0.1-1.4l0.1,0c0.1-0.1-0.1-0.1,0-0.2   c0.1,0.1,0.2,0,0.2,0.1c0.1-0.1-0.1-0.2-0.1-0.3c-0.1,0,0,0.1-0.1,0c0,0,0.1-0.2,0-0.3c0.1,0,0.2,0,0.2,0.1l0-0.1   c0.2-0.1,0.2,0.3,0.5,0.3v-0.1c0.2-0.1,0.1,0.3,0.2,0.1c0-0.1-0.2-0.3-0.3-0.2c0-0.2-0.3-0.2-0.3-0.4c0.1,0,0,0.2,0.1,0.2   c0.1-0.1,0-0.2,0-0.3c-0.1,0.1-0.2,0-0.2-0.1c0.1-0.1,0.1,0.1,0.2-0.1c-0.1,0-0.1-0.2-0.2-0.1c-0.2-0.1,0.1-0.2-0.1-0.3   c0.1,0,0.3,0.2,0.4,0.1c-0.1,0-0.1-0.2-0.4-0.2c0-0.1,0.2-0.1,0.2,0c0.1-0.1-0.2-0.3,0.1-0.3l-0.1-0.1l0.2-0.1c0-0.1-0.2-0.3,0-0.3   c0,0,0-0.2-0.1-0.2c-0.1,0.1,0.1,0.1-0.1,0.2c0.2-0.1,0-0.2-0.1-0.2l0.1,0c0,0,0-0.1-0.1-0.2c0,0,0.1,0,0.1,0l-0.1,0   c-0.1-0.2,0.2,0,0.2-0.2l0.1,0.1c0,0,0.1-0.1,0.1-0.2l-0.3-0.1c0-0.1,0.1,0,0-0.1l0.1,0.1c0,0,0.2-0.1,0.2-0.2   c0-0.1-0.2-0.2-0.3-0.1c0-0.1,0.1-0.1,0.1-0.1c0-0.1-0.1,0-0.2-0.1c0.1,0,0.2-0.2,0.3-0.3l0.2,0.1l0-0.1c0.2,0.1,0.1-0.1,0.3,0   c0-0.1,0-0.1-0.1-0.2c-0.2,0.2-0.4-0.2-0.6-0.1c-0.1-0.2,0.5-0.2,0.2-0.4c-0.1,0-0.2,0-0.2,0.1c0-0.1-0.2-0.1-0.2-0.2   c0.1,0.1,0.2-0.2,0.4,0c-0.1,0,0,0.1,0,0.1c0.1-0.1,0.2,0,0.2-0.2c0-0.1-0.1-0.2-0.2-0.2c-0.1,0,0,0.1-0.1,0.1   c-0.1-0.2,0.1-0.2-0.1-0.2c0,0.1-0.1,0.2-0.2,0.2l-0.1-0.1l0.1,0c0-0.2-0.2,0-0.2-0.2l0.1-0.1c0.2,0,0,0.3,0.2,0.2   c0-0.1-0.1-0.1-0.1-0.3l0.1,0.1c0,0,0.3-0.2,0.1-0.3c-0.1-0.1-0.1,0-0.2,0c-0.1-0.2-0.2-0.2-0.3-0.3c0.2-0.1-0.1-0.2,0.1-0.2   c-0.1,0.1,0.1,0.3,0.2,0.4c0.2-0.1,0,0.2,0.2,0.1c0-0.2,0.1-0.2,0.3-0.3c0,0-0.1-0.1-0.1-0.1c-0.1,0-0.1,0.1-0.2,0.1   c0-0.2-0.2-0.3-0.3-0.4c0-0.1,0.2-0.1,0.2-0.1c-0.1-0.2-0.2-0.4-0.3-0.6c-0.1,0.2-0.2-0.1-0.3,0c0,0.1,0,0.3-0.2,0.3   c0-0.1,0.1-0.1,0.1-0.1c-0.1,0,0.1-0.2-0.1-0.2c0.2,0.1,0.2-0.1,0.4-0.2c-0.2-0.1,0.1-0.1,0-0.2c-0.2,0-0.3-0.1-0.5-0.2   c0-0.3-0.4-0.3-0.5-0.4c0-0.1,0.1-0.3,0-0.3c-0.1-0.1,0,0.2-0.1,0.1l0,0c-0.1,0-0.3-0.2-0.4,0l0.1-0.2c0,0-0.1,0-0.1,0   c0-0.1,0-0.1,0.1-0.2c-0.1-0.2-0.2-0.1-0.4-0.1l0.1,0.1c-0.2,0-0.3-0.1-0.6-0.1l0-0.1l-0.1,0c0-0.1-0.1-0.2-0.1-0.1   c0.1-0.1,0.2-0.2,0.4-0.2c0.1,0.1-0.1,0.1-0.1,0.2c0,0.1,0.2,0.1,0.3,0c-0.1,0-0.1,0-0.1,0c0-0.2,0.1-0.1,0.2-0.2   c0,0-0.1-0.1-0.1,0c0.1-0.1,0.2-0.1,0.3,0c-0.1,0,0,0.1,0,0.1c0-0.1,0.2-0.1,0.3-0.1c0.1,0.2,0.3,0,0.5,0.1   c-0.1,0.1-0.3,0.2-0.4,0.2c0.1,0.1,0.1,0,0.2,0.2c0.1-0.1,0.2-0.2,0.4-0.2l0,0.1c0.2,0,0.2-0.1,0.4,0c0.3,0.2,0.5,0.4,0.7,0.6   l-0.1,0.1c0.3-0.1,0.4,0.3,0.6,0.4c0.1,0.3,0.4,0.6,0.3,0.8c0.3,0.5,0.5,0.9,0.5,1.5l-0.2-0.1c0.1,0.1-0.1,0.1,0,0.2   c0.1-0.1,0.2,0.1,0.3,0.2c-0.1,0.3,0.1,0.6,0.2,0.8l-0.1,0c0.2,0.2,0,0.5,0,0.8c0,0-0.1,0.1-0.1,0.2c0.2,0.2,0.1,0.2,0.2,0.5   c0,0.2-0.1,0.4-0.2,0.6c0.2,0.6-0.1,1.2-0.1,1.9l-0.1,0c0.1,0.7-0.4,1.3-0.4,1.8l-0.2-0.1c-0.1,0.1-0.1,0.4,0.1,0.4   c-0.1,0.1,0,0.4-0.2,0.5c-0.1,0.1,0,0.2,0,0.4c-0.2,0.3-0.2,0.4-0.3,0.7l0-0.1c0-0.1-0.1-0.1-0.2,0c0,0.1-0.2,0.4,0.1,0.4   c-0.3,0.3-0.2,0.8-0.6,1c0.1,0,0,0.1,0.1,0.1c-0.1,0.3-0.4,0.5-0.4,0.7c-0.1,0-0.1-0.1-0.1,0c0,0.1,0.1,0,0.1,0.1   c-0.1,0.5-0.7,0.8-0.9,1.1c-0.4,0.7-1.1,1.3-1.8,1.8l0,0c-0.1,0.3-0.7,0.2-0.8,0.5c-0.1,0-0.3,0.1-0.2,0c-0.2,0.2-0.6,0.1-0.9,0.3   c0,0,0,0,0.1,0c-0.3-0.1-0.6,0.1-0.9,0c0,0,0.1,0,0.1-0.1c-0.1-0.1-0.3,0.2-0.4,0c-0.1,0,0,0.1,0,0.1c-0.7-0.1-1.5,0-2.2-0.1   c-0.5-0.3,0.1-0.4-0.4-0.4c0-0.1-0.1,0.1,0,0c-0.2,0-0.1-0.3-0.3-0.3c0,0.2-0.1,0-0.2,0.1c-0.3-0.2-0.2-0.4-0.5-0.5l0.1-0.1   c-0.4,0-0.6-0.4-1-0.5c-1.1-1.6-1.2-3.3-1.2-4.8c0.1-1.5,0.2-3.1,0.8-4.5c0.3-0.3,0.3-0.3,0.4-0.7c0,0,0,0.1,0.1,0   c-0.2-0.1,0.1-0.3-0.1-0.4c0.2-0.5,0.4-1,0.7-1.6c0,0.1,0.1,0.2,0.1,0.1l0-0.2l0.1,0c0-0.1,0-0.2-0.1-0.1c0.6-1.4,1.7-2.5,2.8-3.5   c0.3-0.2,0.7-0.6,1-0.8c1.1-0.5,2.2-0.7,3.4-0.9C384.7,17.8,384.5,18.2,384.1,18.3L384.1,18.3z" fill="#1D1D1B"  /><path d="M385,18.2c0,0.1,0.2,0.1,0,0.2C385.1,18.4,385,18.3,385,18.2z M387.5,20.2   C387.5,20.2,387.5,20.3,387.5,20.2C387.5,20.2,387.4,20.3,387.5,20.2C387.4,20.2,387.4,20.2,387.5,20.2z M387.8,20.8   c-0.1,0-0.2-0.1-0.3-0.1L387.8,20.8z M387.8,21.5c0,0.1-0.1,0.1-0.1,0C387.7,21.5,387.8,21.5,387.8,21.5z M388,21.5   c0,0.1,0,0.1,0,0.1C388,21.6,387.9,21.5,388,21.5z M388,23c0,0,0.1,0.1,0,0.1C388.1,23.1,387.9,23,388,23z M388.2,23.7   C388.2,23.7,388.2,23.7,388.2,23.7C388.2,23.8,388.1,23.8,388.2,23.7L388.2,23.7z M382.6,35.3L382.6,35.3L382.6,35.3L382.6,35.3z    M377.7,33.9C377.6,33.8,377.8,33.8,377.7,33.9C377.8,33.8,377.7,33.8,377.7,33.9z M376.8,30.8L376.8,30.8l-0.2,0L376.8,30.8z" fill="#1D1D1B"  />
	
	
	
</g><g><path d="M6.1,99.3H3v5.4c0,0.7-0.6,1.4-1.4,1.4c-0.8,0-1.4-0.6-1.4-1.4V90c0-0.8,0.6-1.4,1.4-1.4c0,0,0,0,0,0h4.5   c3,0,5.4,2.4,5.4,5.3c0,0,0,0,0,0C11.5,96.9,9.1,99.3,6.1,99.3z M3,96.5h3.1c1.4,0,2.6-1.1,2.6-2.5c0-1.4-1.1-2.6-2.6-2.6H3V96.5z    M21.6,94.9c0,0.7-0.6,1.3-1.3,1.3c-0.6,0-1.1,0.2-1.5,0.5c-0.5,0.3-0.8,0.7-1.1,1.2c-0.6,0.8-0.9,1.7-1,2.1v4.7   c0,0.7-0.6,1.3-1.4,1.3c-0.7,0-1.3-0.6-1.3-1.3v-9.8c0-0.7,0.6-1.3,1.3-1.3c0.7,0,1.4,0.6,1.4,1.3v0.2c0.2-0.2,0.3-0.4,0.5-0.5   c0.8-0.5,1.9-1,3.1-1C21,93.6,21.6,94.2,21.6,94.9z M24.8,104.2c-1.1-1.1-1.7-2.6-1.7-4.4c0-1.7,0.6-3.2,1.7-4.4   c1.1-1.2,2.6-1.9,4.3-1.9c1.6,0,3.1,0.7,4.2,1.9c1.1,1.2,1.7,2.7,1.7,4.4c0,1.7-0.6,3.3-1.7,4.4c-1,1.2-2.6,1.9-4.2,1.9   C27.3,106.1,25.9,105.4,24.8,104.2z M25.8,99.8c0,1.1,0.3,1.9,0.9,2.6c0.6,0.6,1.4,0.9,2.4,0.9c0.9,0,1.7-0.3,2.3-0.9   c0.6-0.7,1-1.6,1-2.6c0-1-0.4-1.9-1-2.6c-0.6-0.5-1.4-0.9-2.3-0.9c-0.9,0-1.8,0.4-2.4,0.9C26.1,97.9,25.8,98.8,25.8,99.8z    M37.7,99.8c0-3.5,2.9-6.2,6.3-6.3c1.5,0,2.9,0.5,4,1.4c0.6,0.4,0.7,1.3,0.3,1.8c-0.5,0.6-1.3,0.7-1.9,0.3   c-0.6-0.5-1.4-0.8-2.4-0.8c-2,0-3.7,1.7-3.7,3.6c0,1.9,1.7,3.6,3.7,3.6c0.9,0,1.7-0.3,2.4-0.8c0.5-0.4,1.4-0.3,1.9,0.3   c0.4,0.5,0.3,1.3-0.3,1.8c-1.1,0.8-2.5,1.3-4,1.3C40.6,106.1,37.7,103.3,37.7,99.8z M51,99.8c0-3.4,2.7-6.2,6.1-6.2   c3.2,0,5.8,2.4,6,5.8v0.1c0,0.1,0,0.2,0,0.2c-0.1,0.6-0.6,1-1.3,1h-7.9c0.1,0.6,0.4,1.2,0.8,1.6c0.5,0.6,1.5,1,2.4,1.1   c0.9,0.1,2-0.1,2.6-0.6c0.5-0.5,1.5-0.5,1.9-0.1c0.3,0.4,0.6,1.1,0,1.6c-1.2,1.1-2.7,1.6-4.5,1.6C53.7,106,51,103.2,51,99.8   L51,99.8z M53.7,98.6h7.1c-0.3-1-1.5-2.5-3.7-2.6C55,96,53.9,97.6,53.7,98.6z M77.7,104.7c0,0.7-0.6,1.3-1.3,1.3   c-0.6,0-1.2-0.4-1.3-1.1c-0.9,0.6-2.1,1.1-3.4,1.1c-3.4,0-6.1-2.8-6.1-6.2c0-3.4,2.7-6.3,6.1-6.3c1.2,0,2.4,0.4,3.3,1v-4.7   c0-0.7,0.6-1.3,1.4-1.3c0.7,0,1.3,0.6,1.3,1.3C77.7,89.9,77.7,104.7,77.7,104.7z M71.7,96.3c-0.9,0-1.7,0.4-2.3,1   c-0.6,0.6-1,1.5-1,2.5c0,0.9,0.4,1.8,1,2.5c0.6,0.6,1.4,1,2.3,1c0.9,0,1.7-0.4,2.3-1c0.6-0.6,1-1.5,1-2.5c0-1-0.4-1.9-1-2.5   C73.4,96.7,72.6,96.3,71.7,96.3z M87.2,106.1c-2.8,0-5.2-2.3-5.2-5.2v-6c0-0.7,0.6-1.3,1.3-1.3c0.7,0,1.3,0.6,1.3,1.3v6   c0,1.4,1.1,2.5,2.5,2.5c0,0,0,0,0,0c1.4,0,2.6-1.1,2.6-2.5v-6c0-0.7,0.5-1.3,1.3-1.3c0.7,0,1.3,0.6,1.3,1.3v6   C92.5,103.7,90.1,106.1,87.2,106.1z M104.7,94.9c0,0.7-0.6,1.3-1.3,1.3c-0.6,0-1.1,0.2-1.5,0.5c-0.5,0.3-0.8,0.7-1.1,1.2   c-0.6,0.8-0.9,1.7-1,2.1v4.7c0,0.7-0.6,1.3-1.4,1.3c-0.7,0-1.3-0.6-1.3-1.3v-9.8c0-0.7,0.6-1.3,1.3-1.3c0.7,0,1.4,0.6,1.4,1.3v0.2   c0.2-0.2,0.3-0.4,0.5-0.5c0.8-0.5,1.9-1,3.1-1C104.1,93.6,104.7,94.2,104.7,94.9z M117.2,99.8v4.9c0,0.7-0.6,1.3-1.3,1.3   c-0.6,0-1.1-0.5-1.3-1.1c-1,0.7-2.1,1.1-3.3,1.1c-1.6,0-3.1-0.7-4.2-1.8c-1.1-1.1-1.7-2.7-1.7-4.4c0-1.7,0.6-3.3,1.7-4.4   c1.1-1.1,2.5-1.9,4.2-1.9c1.2,0,2.4,0.4,3.3,1.1c0.2-0.6,0.6-1.1,1.3-1.1c0.7,0,1.3,0.6,1.3,1.3V99.8z M114.6,99.8   c0-1-0.4-1.9-1-2.6c-0.6-0.7-1.4-1-2.3-1c-0.9,0-1.7,0.4-2.3,1c-0.6,0.6-0.9,1.5-0.9,2.6c0,1,0.4,1.9,0.9,2.6c0.6,0.6,1.4,1,2.3,1   c0.9,0,1.7-0.4,2.3-1C114.2,101.8,114.6,100.9,114.6,99.8z M123.4,88.6c0.8,0,1.4,0.6,1.4,1.4v14.7c0,0.8-0.6,1.4-1.4,1.4   c-0.8,0-1.4-0.6-1.4-1.4c0,0,0,0,0,0V90C122,89.2,122.7,88.6,123.4,88.6z M140.4,99.3h-3.1v5.4c0,0.7-0.6,1.4-1.4,1.4   c-0.8,0-1.4-0.6-1.4-1.4V90c0-0.8,0.6-1.4,1.4-1.4c0,0,0,0,0,0h4.5c3,0,5.4,2.4,5.4,5.3c0,0,0,0,0,0   C145.8,96.9,143.4,99.3,140.4,99.3z M137.4,96.5h3.1c1.4,0,2.6-1.1,2.6-2.5c0-1.4-1.1-2.6-2.6-2.6h-3.1V96.5z M158.8,99.8v4.9   c0,0.7-0.6,1.3-1.3,1.3c-0.6,0-1.1-0.5-1.3-1.1c-1,0.7-2.1,1.1-3.3,1.1c-1.6,0-3.1-0.7-4.2-1.8c-1.1-1.1-1.7-2.7-1.7-4.4   c0-1.7,0.6-3.3,1.7-4.4c1.1-1.1,2.5-1.9,4.2-1.9c1.2,0,2.4,0.4,3.3,1.1c0.1-0.6,0.6-1.1,1.3-1.1c0.7,0,1.3,0.6,1.3,1.3V99.8z    M156.2,99.8c0-1-0.4-1.9-1-2.6c-0.6-0.7-1.4-1-2.3-1c-0.9,0-1.7,0.4-2.3,1c-0.6,0.6-0.9,1.5-0.9,2.6c0,1,0.4,1.9,0.9,2.6   c0.6,0.6,1.4,1,2.3,1c0.9,0,1.7-0.3,2.3-1C155.8,101.8,156.2,100.9,156.2,99.8z M165.8,90.5c0,0.7-0.6,1.4-1.3,1.4   c-0.7,0-1.3-0.6-1.3-1.4v-0.5c0-0.7,0.6-1.3,1.3-1.3c0.8,0,1.3,0.6,1.3,1.3V90.5z M165.8,95v9.7c0,0.7-0.6,1.3-1.3,1.3   c-0.7,0-1.3-0.6-1.3-1.3V95c0-0.8,0.6-1.4,1.3-1.4C165.2,93.6,165.8,94.2,165.8,95z M179.9,98.8v6c0,0.7-0.6,1.3-1.3,1.3   c-0.7,0-1.3-0.6-1.3-1.3v-6c0-1.4-1.2-2.5-2.6-2.5c-1.4,0-2.5,1.1-2.5,2.5v6c0,0.1,0,0.2-0.1,0.3c-0.1,0.6-0.7,1.1-1.3,1.1   c-0.7,0-1.3-0.6-1.3-1.3v-9.8c0-0.7,0.6-1.3,1.3-1.3c0.5,0,1,0.3,1.2,0.8c0.8-0.5,1.7-0.8,2.6-0.8   C177.6,93.6,179.9,95.9,179.9,98.8z M2.7,117.5c0,0.7-0.6,1.4-1.3,1.4c-0.7,0-1.3-0.6-1.3-1.4V117c0-0.7,0.6-1.3,1.3-1.3   c0.8,0,1.3,0.6,1.3,1.3V117.5z M2.7,122v9.7c0,0.7-0.6,1.3-1.3,1.3c-0.7,0-1.3-0.6-1.3-1.3c0,0,0,0,0,0V122c0-0.8,0.6-1.4,1.3-1.4   C2.1,120.6,2.7,121.2,2.7,122z M16.8,125.8v6c0,0.7-0.6,1.3-1.3,1.3c-0.7,0-1.3-0.6-1.3-1.3v-6c0-1.4-1.2-2.5-2.6-2.5   c-1.4,0-2.5,1.1-2.5,2.5v6c0,0.1,0,0.1-0.1,0.3c-0.1,0.6-0.7,1.1-1.3,1.1c-0.7,0-1.3-0.6-1.3-1.3c0,0,0,0,0,0v-9.8   c0-0.7,0.6-1.3,1.3-1.3c0.5,0,1,0.3,1.2,0.8c0.8-0.5,1.7-0.8,2.6-0.8C14.5,120.6,16.8,123,16.8,125.8z M34,126.3H31v5.4   c0,0.7-0.6,1.4-1.4,1.4c-0.8,0-1.4-0.6-1.4-1.4V117c0-0.8,0.6-1.4,1.4-1.4c0,0,0,0,0,0H34c3,0,5.4,2.4,5.4,5.3c0,0,0,0,0,0   C39.4,123.9,37,126.3,34,126.3z M31,123.5H34c1.4,0,2.6-1.1,2.6-2.5c0-1.4-1.1-2.6-2.6-2.6H31V123.5z M49.5,121.9   c0,0.7-0.6,1.3-1.3,1.3c-0.6,0-1.1,0.2-1.5,0.5c-0.5,0.3-0.8,0.7-1.1,1.2c-0.6,0.8-0.9,1.7-1,2.1v4.7c0,0.7-0.6,1.3-1.4,1.3   c-0.7,0-1.3-0.6-1.3-1.3v-9.8c0-0.7,0.6-1.3,1.3-1.3c0.7,0,1.4,0.6,1.4,1.3v0.2c0.2-0.2,0.3-0.4,0.5-0.5c0.8-0.5,1.9-1,3.1-1   C49,120.6,49.5,121.2,49.5,121.9z M50.1,126.9c0-3.4,2.7-6.2,6.1-6.2c3.2,0,5.8,2.4,6,5.8v0.1c0,0.1,0,0.2,0,0.2   c-0.1,0.6-0.6,1-1.3,1h-7.9c0.1,0.6,0.4,1.2,0.8,1.6c0.5,0.6,1.5,1,2.4,1.1c0.9,0.1,2-0.1,2.6-0.6c0.5-0.5,1.5-0.5,1.9-0.1   c0.3,0.4,0.6,1.1,0,1.6c-1.2,1.1-2.7,1.6-4.5,1.6C52.7,133.1,50.1,130.3,50.1,126.9L50.1,126.9z M52.8,125.6h7.1   c-0.3-1-1.5-2.5-3.7-2.6C54,123.1,53,124.6,52.8,125.6z M75.9,125.8v6c0,0.7-0.6,1.3-1.3,1.3c-0.7,0-1.3-0.6-1.3-1.3v-5.9v-0.1   c0-1.4-1.2-2.5-2.6-2.5c-1.4,0-2.5,1.1-2.5,2.6v5.9c0,0.1,0,0.1,0,0.2v0.1c0,0.1,0,0.1-0.1,0.1v0.1c-0.2,0.4-0.7,0.8-1.2,0.8   c-0.1,0-0.2,0-0.2,0c-0.6-0.1-1.1-0.6-1.1-1.3v-5.9V122c0-0.8,0.6-1.3,1.3-1.3c0.5,0,1,0.3,1.2,0.7c0.8-0.5,1.7-0.7,2.7-0.7   c1.6,0,3,0.6,3.9,1.7c0.9-1.1,2.3-1.7,3.9-1.7c2.9,0,5.2,2.3,5.2,5.2v5.9c0,0.7-0.6,1.3-1.3,1.3c-0.7,0-1.3-0.6-1.3-1.3v-5.9   c0-1.4-1.1-2.6-2.5-2.6C77.1,123.3,76,124.4,75.9,125.8L75.9,125.8z M99.2,126.9v4.9c0,0.7-0.6,1.3-1.3,1.3c-0.6,0-1.1-0.5-1.3-1.1   c-1,0.7-2.1,1.1-3.3,1.1c-1.6,0-3.1-0.7-4.2-1.8c-1.1-1.1-1.7-2.7-1.7-4.4c0-1.7,0.6-3.3,1.7-4.4c1.1-1.1,2.5-1.9,4.2-1.9   c1.2,0,2.4,0.4,3.3,1.1c0.2-0.6,0.6-1.1,1.3-1.1c0.7,0,1.3,0.6,1.3,1.3C99.2,122,99.2,126.9,99.2,126.9z M96.5,126.9   c0-1-0.4-1.9-1-2.6c-0.6-0.7-1.4-1-2.3-1c-0.9,0-1.7,0.3-2.3,1c-0.6,0.6-0.9,1.5-0.9,2.6c0,1,0.4,1.9,0.9,2.6c0.6,0.6,1.4,1,2.3,1   c0.9,0,1.7-0.4,2.3-1C96.2,128.8,96.5,127.9,96.5,126.9z M109.1,122c0,0.7-0.6,1.4-1.4,1.4h-0.6v7c0.8,0,1.4,0.6,1.4,1.4   c0,0.8-0.6,1.4-1.4,1.4c-1.5,0-2.8-1.2-2.8-2.8v-7h-0.7c-0.8,0-1.4-0.6-1.4-1.4c0,0,0,0,0,0c0-0.8,0.6-1.4,1.4-1.4h0.7V117   c0-0.8,0.6-1.4,1.4-1.4c0.8,0,1.4,0.6,1.4,1.4v3.6h0.6C108.4,120.6,109.1,121.2,109.1,122z M117.8,133.1c-2.8,0-5.2-2.3-5.2-5.2v-6   c0-0.7,0.6-1.3,1.3-1.3c0.7,0,1.3,0.6,1.3,1.3v6c0,1.4,1.1,2.5,2.5,2.5c0,0,0,0,0,0c1.4,0,2.6-1.1,2.6-2.5v-6   c0-0.7,0.5-1.3,1.3-1.3c0.7,0,1.3,0.6,1.3,1.3v6C123,130.8,120.6,133.1,117.8,133.1z M135.2,121.9c0,0.7-0.6,1.3-1.3,1.3   c-0.6,0-1.1,0.2-1.5,0.5c-0.5,0.3-0.8,0.7-1.1,1.2c-0.6,0.8-0.9,1.7-1,2.1v4.7c0,0.7-0.6,1.3-1.4,1.3c-0.7,0-1.3-0.6-1.3-1.3v-9.8   c0-0.7,0.6-1.3,1.3-1.3c0.7,0,1.4,0.6,1.4,1.3v0.2c0.2-0.2,0.3-0.4,0.5-0.5c0.8-0.5,1.9-1,3.1-1   C134.6,120.6,135.2,121.2,135.2,121.9L135.2,121.9z M135.7,126.9c0-3.4,2.7-6.2,6.1-6.2c3.2,0,5.8,2.4,6,5.8v0.1c0,0.1,0,0.2,0,0.2   c-0.1,0.6-0.6,1-1.3,1h-7.9c0.1,0.6,0.4,1.2,0.8,1.6c0.5,0.6,1.5,1,2.4,1.1c0.9,0.1,2-0.1,2.6-0.6c0.5-0.5,1.5-0.5,1.9-0.1   c0.3,0.4,0.6,1.1,0,1.6c-1.2,1.1-2.7,1.6-4.5,1.6C138.4,133.1,135.7,130.3,135.7,126.9L135.7,126.9z M138.4,125.6h7.1   c-0.2-1-1.5-2.5-3.7-2.6C139.7,123.1,138.6,124.6,138.4,125.6z M158.5,117c0-0.8,0.6-1.4,1.4-1.4c0.7,0,1.4,0.6,1.4,1.4v14.7   c0,0.8-0.6,1.4-1.4,1.4c-0.7,0-1.4-0.6-1.4-1.3c0,0,0,0,0,0V117z M175.4,125.8v6c0,0.7-0.6,1.3-1.3,1.3c-0.7,0-1.3-0.6-1.3-1.3v-6   c0-1.4-1.2-2.5-2.6-2.5c-1.4,0-2.5,1.1-2.5,2.5v6c0,0.1,0,0.1-0.1,0.3c-0.1,0.6-0.7,1.1-1.3,1.1c-0.7,0-1.3-0.6-1.3-1.3   c0,0,0,0,0,0v-9.8c0-0.7,0.6-1.3,1.3-1.3c0.5,0,1,0.3,1.2,0.8c0.8-0.5,1.7-0.8,2.6-0.8C173.1,120.6,175.4,123,175.4,125.8   L175.4,125.8z M183.8,119.8v0.3h0.7c0.7,0,1.4,0.6,1.4,1.4c0,0.7-0.6,1.4-1.4,1.4h-0.7v8.8c0,0.7-0.6,1.4-1.4,1.4   c-0.8,0-1.4-0.6-1.4-1.4c0,0,0,0,0,0v-8.8h-0.6c-0.8,0-1.4-0.6-1.4-1.4c0-0.8,0.6-1.4,1.4-1.4h0.6v-0.3c0-0.9,0.1-1.7,0.5-2.4   c0.4-0.7,1-1.3,1.8-1.5c0.5-0.1,1-0.2,1.5-0.2c0.7,0,1.4,0.6,1.4,1.4c0,0.8-0.6,1.4-1.4,1.4c-0.3,0-0.6,0-0.6,0.1   c-0.1,0-0.1,0.1-0.1,0.1C184,118.5,183.8,118.9,183.8,119.8z M198.3,126.9v4.9c0,0.7-0.6,1.3-1.3,1.3c-0.6,0-1.1-0.5-1.3-1.1   c-1,0.7-2.1,1.1-3.3,1.1c-1.6,0-3.1-0.7-4.2-1.8c-1.1-1.1-1.7-2.7-1.7-4.4c0-1.7,0.6-3.3,1.7-4.4c1.1-1.1,2.5-1.9,4.2-1.9   c1.2,0,2.4,0.4,3.3,1.1c0.1-0.6,0.6-1.1,1.3-1.1c0.7,0,1.3,0.6,1.3,1.3C198.3,122,198.3,126.9,198.3,126.9z M195.7,126.9   c0-1-0.4-1.9-1-2.6c-0.6-0.7-1.4-1-2.3-1c-0.9,0-1.7,0.3-2.3,1c-0.6,0.6-0.9,1.5-0.9,2.6c0,1,0.4,1.9,0.9,2.6c0.6,0.6,1.4,1,2.3,1   c0.9,0,1.7-0.4,2.3-1C195.3,128.8,195.7,127.9,195.7,126.9z M212.7,125.8v6c0,0.7-0.6,1.3-1.3,1.3c-0.7,0-1.3-0.6-1.3-1.3v-6   c0-1.4-1.2-2.5-2.6-2.5c-1.4,0-2.5,1.1-2.5,2.5v6c0,0.1,0,0.1-0.1,0.3c-0.1,0.6-0.7,1.1-1.3,1.1c-0.7,0-1.3-0.6-1.3-1.3   c0,0,0,0,0,0v-9.8c0-0.7,0.6-1.3,1.3-1.3c0.5,0,1,0.3,1.2,0.8c0.8-0.5,1.7-0.8,2.6-0.8C210.4,120.6,212.7,123,212.7,125.8   L212.7,125.8z M222.6,122c0,0.7-0.6,1.4-1.4,1.4h-0.6v7c0.8,0,1.4,0.6,1.4,1.4c0,0.8-0.6,1.4-1.4,1.4c-1.5,0-2.8-1.2-2.8-2.8v-7   h-0.7c-0.8,0-1.4-0.6-1.4-1.4c0,0,0,0,0,0c0-0.8,0.6-1.4,1.4-1.4h0.7V117c0-0.8,0.6-1.4,1.4-1.4c0.8,0,1.4,0.6,1.4,1.4v3.6h0.6   C222,120.6,222.6,121.2,222.6,122L222.6,122z M225.8,129.5c0.4-0.6,1.2-0.7,1.8-0.2c0,0,0,0,0.1,0c0.6,0.5,1.8,1.1,2.7,1.1   c0.6,0,1.2-0.2,1.7-0.5c0.4-0.3,0.4-0.5,0.4-0.7c0-0.1,0-0.2-0.1-0.2c0-0.1-0.1-0.2-0.3-0.3c-0.4-0.3-1.1-0.5-2-0.7h0   c-0.8-0.1-1.5-0.4-2.2-0.6c-0.7-0.3-1.3-0.8-1.7-1.4c-0.3-0.5-0.4-1-0.4-1.6c0-1.1,0.6-2.1,1.5-2.7c0.9-0.6,1.9-0.9,3.1-0.9   c1.7,0,2.9,0.8,3.7,1.4c0.6,0.4,0.8,1.2,0.4,1.8c-0.4,0.6-1.2,0.8-1.8,0.4c0,0,0,0,0,0c-0.8-0.5-1.5-0.9-2.3-0.9   c-0.6,0-1.2,0.2-1.5,0.4c-0.3,0.2-0.4,0.5-0.4,0.6c0,0.1,0,0.1,0.1,0.2c0,0.1,0.1,0.1,0.3,0.3c0.3,0.2,1,0.4,1.8,0.6l0,0h0   c0.8,0.1,1.6,0.4,2.3,0.7c0.7,0.3,1.3,0.8,1.8,1.5c0.3,0.5,0.5,1.1,0.5,1.6c0,1.2-0.7,2.2-1.6,2.9c-1,0.7-2.1,1-3.2,1   c-1.9,0-3.4-0.9-4.4-1.7C225.4,130.9,225.3,130.1,225.8,129.5z" fill="#1D1D1B"  />
	
</g></svg>