<svg viewBox="0 0 2237.1 283.5" role="img" aria-labelledby="programs--title" xmlns="http://www.w3.org/2000/svg" xmlns:xlink="http://www.w3.org/1999/xlink"><title id="programs--title">PROGRAMS</title><g><path d="M56.2,278.5H0L57.3,5h111.1c19.7,0,35.4,2.3,46.9,7c11.5,4.7,20.6,12.4,27.3,23.2   c6.7,10.8,10.1,23.6,10.1,38.6c0,13.8-2.7,27.3-8,40.3c-5.3,13.1-11.9,23.5-19.7,31.4c-7.8,7.9-16.1,13.8-25.1,17.8   c-9,4-21,7.1-36.2,9.2c-8.8,1.3-25.4,1.9-49.6,1.9H78L56.2,278.5L56.2,278.5z M87.6,128.6h17.3c29.6,0,49.4-1.9,59.3-5.6   c9.9-3.7,17.7-9.7,23.4-17.8c5.7-8.2,8.6-17.2,8.6-26.9c0-6.6-1.5-11.9-4.4-16.2c-2.9-4.2-7-7.3-12.3-9.2c-5.3-1.9-17-2.9-35.3-2.9   h-40.2L87.6,128.6z M312.3,278.5h-56.2L313.4,5h121.1c20.8,0,37,2.1,48.6,6.4c11.6,4.3,21,12.2,28.1,23.6   c7.1,11.4,10.7,25.3,10.7,41.6c0,23.3-7,42.5-20.9,57.6c-13.9,15.1-35,24.5-63.2,28.1c7.2,6.5,14,15,20.3,25.6   c12.6,21.4,26.5,51.6,42,90.7h-60.3c-4.8-15.4-14.3-39.5-28.4-72.3c-7.7-17.7-15.9-29.6-24.5-35.7c-5.3-3.6-14.6-5.4-27.9-5.4   h-22.9L312.3,278.5L312.3,278.5z M344.7,124h29.8c30.1,0,50.1-1.8,60-5.4c9.9-3.6,17.6-9.2,23.2-16.9c5.6-7.7,8.4-15.7,8.4-24.2   c0-9.9-4-17.3-12.1-22.3c-5-3-15.7-4.5-32.1-4.5H360L344.7,124z M548.5,171.2c0-16.2,2.4-33.3,7.3-51.2c6.3-24,16-44.9,29-62.6   c13-17.7,29.3-31.7,49.1-41.9C653.5,5.1,676,0,701.2,0c33.8,0,61.1,10.5,81.9,31.6c20.8,21.1,31.2,48.9,31.2,83.7   c0,28.9-6.8,56.9-20.3,83.9c-13.5,27-31.9,47.8-55.2,62.4c-23.2,14.6-49.5,21.9-78.8,21.9c-25.5,0-46.8-5.8-64.1-17.4   c-17.3-11.6-29.5-25.9-36.7-43.1C552.1,205.9,548.5,188.6,548.5,171.2L548.5,171.2z M604.2,170c0,18.8,5.7,34.6,17.1,47.3   c11.4,12.7,26.4,19.1,45.1,19.1c15.1,0,29.7-5,43.7-15c14-10,25.5-25.2,34.6-45.6c9.1-20.4,13.7-40.2,13.7-59.5   c0-21.5-5.8-38.5-17.3-50.7c-11.5-12.3-26.3-18.4-44.1-18.4c-27.4,0-49.7,12.8-66.9,38.5C612.7,111.2,604.2,139.4,604.2,170z    M979.5,132.3h122.8L1077.7,250c-14.4,9.3-32.2,17.2-53.1,23.7c-21,6.5-42.4,9.7-64.2,9.7c-33.9,0-59.8-7.7-77.9-23   c-24.7-20.9-37-51.3-37-91.1c0-26.7,5.3-52.2,15.8-76.7c12.7-29.4,30.7-52.2,54.1-68.4C938.8,8.1,966.3,0,997.8,0   c31.6,0,56.9,7.3,76,22c19.1,14.7,31.7,36.1,37.9,64.2l-52.4,6c-4.6-15.4-12-27.1-22.3-35c-10.3-7.8-23.2-11.8-38.7-11.8   c-18.2,0-34.8,4.8-50,14.2c-15.2,9.5-27,24.2-35.6,44c-8.6,19.8-12.9,41.5-12.9,65c0,23.1,5.2,40.2,15.7,51.2   c10.5,11,25.9,16.6,46.1,16.6c12.1,0,24.5-1.7,37.3-5.1c12.7-3.4,23.7-7.5,33-12.2l8.6-41h-70.7L979.5,132.3L979.5,132.3z    M1182.2,278.5H1126L1183.4,5h121.1c20.8,0,37,2.1,48.6,6.4c11.6,4.3,21,12.2,28.1,23.6c7.1,11.4,10.7,25.3,10.7,41.6   c0,23.3-7,42.5-20.9,57.6c-14,15.1-35,24.5-63.3,28.1c7.2,6.5,14,15,20.3,25.6c12.6,21.4,26.5,51.6,42,90.7h-60.3   c-4.8-15.4-14.3-39.5-28.4-72.3c-7.7-17.7-15.9-29.6-24.5-35.7c-5.3-3.6-14.6-5.4-27.9-5.4H1206L1182.2,278.5L1182.2,278.5z    M1214.6,124h29.8c30.1,0,50.1-1.8,60-5.4c9.9-3.6,17.6-9.2,23.2-16.9c5.6-7.7,8.4-15.7,8.4-24.2c0-9.9-4-17.3-12.1-22.3   c-5-3-15.7-4.5-32.1-4.5H1230C1230,50.7,1214.6,124,1214.6,124z M1579.9,218.1h-108.5l-33.1,60.4h-58.2L1534.6,5h63.4l44.2,273.5   h-53.3L1579.9,218.1L1579.9,218.1z M1572.8,172.4l-16-110.1l-60.4,110.1H1572.8z M1833.8,278.5h-53.4L1770.3,50L1727,278.5h-50.7   L1733.4,5h80.3l8.4,187.6L1908.1,5h80.6l-49.9,273.5h-51l47.6-226.8L1833.8,278.5L1833.8,278.5z M2003.1,190.1l53.4-2.8   c0.8,17,3.7,28.5,8.8,34.5c8.2,9.7,23.4,14.6,45.6,14.6c18.4,0,31.8-3.3,40-9.9c8.2-6.6,12.3-14.6,12.3-23.9   c0-8.1-3.4-15-10.1-20.6c-4.7-4.1-17.7-10.8-38.9-20c-21.2-9.2-36.7-16.9-46.5-23.1c-9.8-6.2-17.5-14.2-23.1-24   c-5.6-9.8-8.4-21.4-8.4-34.6c0-23.1,8.3-42.2,25-57.4C2077.9,7.6,2102,0,2133.6,0c32.1,0,56.9,7.5,74.5,22.6   c17.6,15.1,27.3,35.1,29,60.1l-54,2.4c-1.4-13.2-6.1-23.2-14.2-30.3c-8.1-7-20-10.5-35.8-10.5c-15.5,0-26.6,2.7-33.3,8.2   c-6.6,5.5-10,12.4-10,20.8c0,7.9,3,14.3,9.2,19.5c6.1,5.2,19.6,12.4,40.5,21.5c31.5,13.6,51.5,24.6,60.1,33.1   c12.8,12.5,19.2,28.5,19.2,48.1c0,24.2-9.5,44.9-28.6,62.1c-19.1,17.1-45.7,25.7-79.8,25.7c-23.5,0-43.9-4-61.1-11.9   c-17.2-7.9-29.4-18.9-36.5-33C2005.9,224.6,2002.6,208.4,2003.1,190.1L2003.1,190.1z" fill="#E84893"  />
	
</g></svg>