<svg viewBox="0 0 834.7 283.5" role="img" aria-labelledby="pru-mnhc--title" xmlns="http://www.w3.org/2000/svg" xmlns:xlink="http://www.w3.org/1999/xlink"><title id="pru-mnhc--title">PRU - MNHC</title><g><path d="M385,236.4c0.6,0.6,1,1.5,1,2.5v40.3c0,1-0.3,1.8-0.9,2.3c-0.5,0.5-1.3,0.9-2.2,0.9s-1.6-0.3-2.1-0.9   c-0.5-0.5-0.7-1.4-0.7-2.3v-30.5l-12.9,24.4c-0.9,1.5-1.9,2.3-3.2,2.3c-1.3,0-2.3-0.7-3.2-2.3l-12.9-24.2v30.3c0,1-0.2,1.8-0.7,2.3   c-0.5,0.5-1.3,0.9-2.2,0.9s-1.6-0.3-2.2-0.9c-0.5-0.6-0.9-1.4-0.9-2.3v-40.3c0-1,0.3-1.8,1-2.5c0.6-0.6,1.4-1,2.3-1   c1.4,0,2.5,0.7,3.3,2.3l15.7,30l15.6-30c0.9-1.6,1.9-2.3,3.2-2.3C383.6,235.5,384.4,235.8,385,236.4z M432.2,236.4   c0.6,0.6,0.9,1.5,0.9,2.5V279c0,1-0.3,1.8-1,2.5c-0.6,0.6-1.4,1-2.3,1c-1.2,0-2-0.4-2.7-1.3l-25.7-33.9V279c0,1-0.3,1.8-0.9,2.5   c-0.6,0.6-1.4,1-2.3,1c-1,0-1.7-0.3-2.3-1c-0.5-0.6-0.9-1.5-0.9-2.5v-40.1c0-1,0.3-1.8,1-2.5c0.6-0.6,1.4-1,2.3-1   c1.2,0,2,0.4,2.7,1.3l25.7,34v-31.9c0-1,0.3-1.8,0.9-2.5c0.5-0.6,1.4-1,2.3-1C430.8,235.5,431.6,235.8,432.2,236.4z M480.6,236.4   c0.6,0.6,1,1.5,1,2.5V279c0,1-0.3,1.8-1,2.5c-0.6,0.6-1.4,1-2.5,1s-1.8-0.3-2.5-1s-1-1.5-1-2.5v-17.6H449V279c0,1-0.3,1.8-1,2.5   c-0.6,0.6-1.4,1-2.5,1s-1.8-0.3-2.5-1c-0.6-0.6-1-1.5-1-2.5v-40.1c0-1,0.3-1.8,1-2.5c0.6-0.6,1.4-1,2.5-1s1.8,0.3,2.5,1   c0.6,0.6,1,1.5,1,2.5v16.9h25.8v-16.9c0-1,0.3-1.8,1-2.5c0.6-0.6,1.4-1,2.5-1S480,235.8,480.6,236.4z M499.3,279.7   c-3.3-1.9-5.8-4.6-7.6-8.2c-1.7-3.5-2.7-7.8-2.7-12.6s0.9-9,2.7-12.6c1.7-3.5,4.3-6.3,7.6-8.2c3.3-1.9,7.1-2.9,11.5-2.9   c2.9,0,5.6,0.4,8.2,1.4c2.6,0.9,4.8,2.2,6.7,3.9c0.9,0.6,1.3,1.5,1.3,2.7c0,0.7-0.2,1.5-0.6,2c-0.4,0.5-1,0.9-1.6,0.9   c-0.7,0-1.5-0.3-2.1-0.9c-2.1-1.6-4.1-2.7-5.8-3.3c-1.7-0.6-3.7-1-5.9-1c-4.8,0-8.5,1.6-11.1,4.7c-2.6,3.1-3.8,7.6-3.8,13.3   c0,5.9,1.3,10.3,3.8,13.4s6.3,4.7,11.1,4.7c2.1,0,4.1-0.3,5.8-1c1.7-0.6,3.7-1.7,5.9-3.3c0.9-0.5,1.6-0.9,2.1-0.9   c0.6,0,1.2,0.3,1.6,0.9s0.6,1.2,0.6,2c0,1.1-0.4,1.9-1.3,2.7c-1.9,1.7-4.2,3-6.7,3.9c-2.6,0.9-5.3,1.4-8.2,1.4   C506.4,282.6,502.6,281.6,499.3,279.7z" fill="#BC955B"  />
	
</g><path d="M335,202c0-2.3,1.9-4.2,4.2-4.2h491.3c2.3,0,4.2,1.9,4.2,4.2c0,2.3-1.9,4.2-4.2,4.2H339.2  C336.9,206.3,335,204.4,335,202" fill="#BC955B"  /><path d="M178.8,77.3c0-42.6-34.6-77.3-77.3-77.3C58.8,0,24.1,34.6,24.1,77.3c0,42.7,34.6,77.3,77.3,77.3  C144.2,154.7,178.8,120,178.8,77.3" fill="#604876"  /><path d="M283.4,65.5c5.9-14.7-1.4-31.3-16.1-37.2c-14.7-5.9-31.3,1.4-37.2,16.1s1.4,31.3,16.1,37.2  C261,87.4,277.7,80.2,283.4,65.5 M158.8,191c8.5,1.1,36.5,4.4,74-18.1c27.8-16.7,46.1-41,47.8-55.5c1.7-11.7-6.5-22.6-18.2-24.2  c-5-0.7-9.1,0.2-13.8,2.7c-14.6,7.7-18.1,34.4-31.8,54.5c-20.1,29.5-45.4,30.7-57.5,31.2c-2.7,0-4.8,2.1-4.8,4.8  C154.5,188.8,156.3,190.8,158.8,191" fill="#BC955B"  /><path d="M275.8,153.9c-12.7,15.7-51,50-97.4,50S109,180.6,74.3,166.3c-27.2-11.5-58.5,1.3-70,28.5  c-8.5,20.1-3.6,42.5,10.3,57.5c23.8,26,71.9,44.8,150.1,18.8c78.1-26,116.1-100.8,121.5-110.7c1.5-3,0.2-6.5-2.8-8  C280.7,150.8,277.5,151.6,275.8,153.9" fill="#604876"  /><g><path d="M338.8,163.3c-1.8-1.8-2.8-4.3-2.8-7.5V36.7c0-3,0.9-5.4,2.7-7.1c1.8-1.7,4.3-2.7,7.4-2.7h47.2   c14.6,0,26,3.6,34.1,10.8c8.1,7.1,12.2,17.4,12.2,30.6c0,13.1-4.1,23.2-12.2,30.6c-8.1,7.4-19.5,11-34.1,11h-37v46.1   c0,3.1-0.9,5.6-2.7,7.5c-1.8,1.8-4.3,2.8-7.6,2.8C343.1,166,340.7,165.1,338.8,163.3z M391.2,93.5c19.3,0,29-8.4,29-25.3   c0-16.7-9.7-25.1-29-25.1h-34.9v50.4h34.9V93.5z M573,158c0,2.3-1,4.4-2.9,6c-1.9,1.6-4.1,2.5-6.6,2.5c-3.6,0-6.6-1.6-8.8-4.9   l-26.2-40.7c-3-4.7-6.2-8-9.6-9.9s-7.9-2.9-13.3-2.9h-22.2v47.9c0,3.1-0.9,5.6-2.7,7.5c-1.8,1.8-4.3,2.8-7.4,2.8   c-3,0-5.4-1-7.2-2.8c-1.8-1.8-2.8-4.3-2.8-7.5V36.7c0-3,0.9-5.4,2.7-7.1c1.8-1.8,4.3-2.7,7.4-2.7h48.8c15.2,0,27,3.4,35,10.2   s12,16.7,12,29.7c0,10.9-3.1,19.6-9.2,26.3c-6.2,6.7-14.9,11-26.2,12.8c3.4,1,6.5,2.6,9.2,4.9c2.8,2.3,5.4,5.6,8,9.8l20.1,31.8   C572.5,154.1,573,156.1,573,158z M520,91.7c10.2,0,17.7-2,22.6-6c4.9-3.9,7.4-10.1,7.4-18.5c0-8.3-2.5-14.5-7.2-18.3   c-4.8-3.8-12.4-5.8-22.7-5.8h-36.7v48.6H520L520,91.7z M611.6,152.3c-9.5-9.5-14.3-23.6-14.3-42.1V36c0-3.1,1-5.6,2.8-7.5   c1.8-1.8,4.3-2.8,7.2-2.8s5.4,1,7.2,2.8c1.8,1.8,2.8,4.3,2.8,7.5v75.5c0,12.7,3,22.3,9.1,28.8c6.1,6.5,15.1,9.8,27.2,9.8   c11.9,0,20.9-3.3,27.1-9.8s9.2-16.1,9.2-28.8V36c0-3,1-5.4,2.8-7.4c1.8-1.9,4.3-2.9,7.2-2.9s5.4,1,7.2,2.8c1.8,1.8,2.8,4.3,2.8,7.5   v74.1c0,18.4-4.8,32.4-14.4,42c-9.6,9.6-23.6,14.4-41.9,14.4C635.2,166.6,621.2,161.8,611.6,152.3L611.6,152.3z" fill="#604876"  />
	
</g></svg>