<svg viewBox="0 0 1533.8 283.5" role="img" aria-labelledby="taking-part--title" xmlns="http://www.w3.org/2000/svg" xmlns:xlink="http://www.w3.org/1999/xlink"><title id="taking-part--title">Taking Part</title><path d="M313.2,211.8h-12.7V82.6h-60.3V69.9h133.3v12.7h-60.3L313.2,211.8z M503.3,211.8h-12.7V192  c-1,1.2-2.2,2.4-3.3,3.6c-10.7,10.7-23.9,16.2-39.2,16.2c-15.2,0-28.3-5.4-39-16.2c-10.7-10.7-16.2-23.9-16.2-39  c0-15.2,5.4-28.3,16.2-39c10.7-10.7,23.9-16.2,39-16.2c15.3,0,28.5,5.4,39.2,16.2c1.1,1.2,2.3,2.4,3.3,3.7v-19.8h12.7V211.8z   M448.1,114.1c-11.7,0-21.5,4.1-29.9,12.4c-8.4,8.4-12.4,18.2-12.4,30.1c0,11.7,4.1,21.5,12.4,29.9c8.4,8.4,18.1,12.4,29.9,12.4  c11.9,0,21.7-4,30-12.3c8.3-8.3,12.4-18,12.5-29.8v-0.5c-0.1-11.8-4.2-21.6-12.6-30C469.7,118.2,459.9,114.1,448.1,114.1z   M636.4,211.8h-18.5l-71.1-58.6l-8.2,6.9v51.6h-12.9V69.9h12.9V144l52.9-42.6h18.6l-53.4,43.8L636.4,211.8z M651.7,101.4h12.9v110.4  h-12.9V101.4z M804.7,211.8h-12.5v-67.7c0-8-3.4-14.7-10.3-20.5c-7.1-6-15.6-8.9-25.7-8.9c-9.5,0-17.3,2.7-23.8,8.2  c-6.4,5.4-9.8,11.9-10.2,19.7l0,69.1h-12.9V101.4h12.9v13.5c0.3-0.3,0.6-0.6,0.9-0.8c9.1-8,20.2-12.1,33.1-12.1c13,0,24.4,4,33.9,12  c9.7,8.3,14.6,18.3,14.6,29.8L804.7,211.8L804.7,211.8z M883.6,245.9c-11.8,0-22.6-3.4-32-10.2c-9.2-6.5-15.9-15.5-20-26.7l-2-5.6  h13.7l1,2.7c3.1,8.3,8,14.8,15.2,19.6c7.1,4.8,15.2,7.2,24.2,7.2c11.9,0,21.7-4.1,30-12.4c8.1-8.1,12.1-17.5,12.4-28.7  c-1,1.3-2.1,2.5-3.2,3.6c-10.8,10.8-24,16.2-39.2,16.2c-15.2,0-28.3-5.4-39-16.2c-10.7-10.7-16.2-23.9-16.2-39  c0-15.2,5.4-28.3,16.2-39c10.7-10.7,23.9-16.2,39-16.2c15.3,0,28.4,5.4,39.2,16.2c1.2,1.2,2.3,2.4,3.3,3.7v-19.8h12.7v91.3  c-0.6,14.6-6,27-16,37.1C912,240.5,898.8,245.9,883.6,245.9L883.6,245.9z M883.6,114.1c-11.8,0-21.5,4.1-29.9,12.4  c-8.4,8.4-12.4,18.2-12.4,30.1c0,11.7,4.1,21.5,12.4,29.9c8.4,8.4,18.1,12.4,29.9,12.4c11.9,0,21.7-4.1,30-12.4  c8.4-8.4,12.4-18.1,12.4-29.9c0-11.8-4.1-21.6-12.5-30C905.1,118.2,895.3,114.1,883.6,114.1z M1042,245.9h-12.9V101.4h12.9v19.8  c1-1.2,2.1-2.4,3.3-3.6c10.7-10.7,23.9-16.2,39-16.2c15.3,0,28.5,5.4,39.2,16.2c10.6,10.6,16,23.8,16,39c0,15.3-5.4,28.4-16,39  c-10.7,10.7-23.9,16.2-39.2,16.2c-15.2,0-28.3-5.4-39-16.2c-1.1-1.2-2.2-2.3-3.3-3.6V245.9z M1084.3,114.1  c-11.7,0-21.5,4.1-29.9,12.4c-8.4,8.4-12.4,18.2-12.4,30.1c0,11.7,4.1,21.5,12.4,29.9c8.4,8.4,18.1,12.4,29.9,12.4  c11.9,0,21.7-4.1,30.1-12.4c8.4-8.4,12.4-18.1,12.4-29.9c0-11.8-4.1-21.6-12.5-30C1105.8,118.2,1096,114.1,1084.3,114.1  L1084.3,114.1z" fill="#007D32"  /><path d="M1274.9,211.8h-13.3l-31.9-74.1h-41.7l-31.9,74.1H1143l61.1-141.9h9.7L1274.9,211.8L1274.9,211.8z   M1193.5,125.5h30.9l-15.5-36C1208.9,89.5,1193.5,125.5,1193.5,125.5z M1392.2,211.8h-13.8l-34.1-80h-42v80h-12.9V69.9h61.4  c11.7,0,20.9,2.9,27.3,8.5c6.4,5.5,9.7,13.2,9.7,22.6c0,11.4-3.9,19.8-11.6,24.9c-4,3.3-10,5.2-18.2,5.7L1392.2,211.8L1392.2,211.8z   M1302.3,119.3h48.3c7.7,0,13.9-1.4,18.3-4.1c4-2.7,6-7.4,6-14.2c0-5.9-1.9-10.3-5.8-13.4c-4.2-3.3-10.4-5-18.4-5h-48.3V119.3z   M1473.5,211.8h-12.7V82.6h-60.3V69.9h133.3v12.7h-60.3L1473.5,211.8z" fill="#95C11F"  /><circle cx="128.5" cy="180.3" r="103.2" fill="#95C11F"  /><circle cx="51.6" cy="96" r="51.6" fill="#007D32"  /><circle cx="132.5" cy="25.8" r="25.8" fill="#95C11F"  /><ellipse transform="matrix(0.1602 -0.9871 0.9871 0.1602 -32.5156 465.8626)" cx="257.5" cy="252" rx="18.1" ry="18.1" fill="#007D32"  /></svg>