<svg viewBox="0 0 891.3 283.5" role="img" aria-labelledby="tigar--title" xmlns="http://www.w3.org/2000/svg" xmlns:xlink="http://www.w3.org/1999/xlink"><title id="tigar--title">TIGAR - Tracking the Impact of Gestational Age on health, educational and economic outcomes: a longitudinal Record linkage study</title><path d="M212.9,74.7c0-37.4,0-44.3-0.5-52.1c-0.5-8.4-3-12.5-8.4-13.8c-2.7-0.8-5.9-1-8.8-1c-2.5,0-3.9-0.5-3.9-2.4  c0-1.5,2-2,5.9-2c9.3,0,24.8,0.7,32,0.7c6.2,0,20.7-0.7,30-0.7c3.2,0,5.2,0.5,5.2,2c0,2-1.5,2.4-3.9,2.4c-2.4,0-4.4,0.2-7.4,0.7  c-6.7,1.2-8.6,5.4-9.1,14c-0.5,7.9-0.5,14.8-0.5,52.1v43.4c0,23.9,0,43.3,1,53.9c0.7,6.7,2.5,11.1,9.9,12.1c3.4,0.5,8.8,1,12.5,1  c2.7,0,3.9,0.7,3.9,2c0,1.7-2,2.5-4.7,2.5c-16.2,0-31.7-0.7-38.4-0.7c-5.7,0-21.1,0.7-31,0.7c-3.2,0-4.9-0.7-4.9-2.5  c0-1.2,1-2,3.9-2c3.7,0,6.7-0.5,8.9-1c4.9-1,6.4-5.2,7.1-12.3c1.2-10.3,1.2-29.8,1.2-53.6L212.9,74.7L212.9,74.7z M464,172.7  c0,6.6-0.3,7.1-3.2,8.9c-16,8.3-40.1,11.1-59.3,11.1c-60.2,0-113.5-28.5-113.5-96.4c0-39.4,20.4-66.9,42.8-80.4  c23.6-14.3,45.5-16,66.1-16c17,0,38.6,2.9,43.5,3.9c5.2,1,13.8,2.4,19.4,2.7c3,0.2,3.4,1.2,3.4,2.9c0,2.7-1.7,9.6-1.7,40.3  c0,3.9-0.7,5.2-2.7,5.2c-1.7,0-2.2-1.2-2.5-3.2c-0.7-5.6-2-13.5-8.4-20.4c-7.4-7.9-27-19.2-54.8-19.2c-13.5,0-31.5,1-48.7,15.2  c-13.8,11.6-22.6,30-22.6,60.2c0,52.9,33.7,92.5,85.6,92.5c6.4,0,15,0,20.9-2.7c3.7-1.7,4.7-4.9,4.7-9.1v-23.1c0-12.3,0-21.7-0.2-29  c-0.2-8.4-2.5-12.3-10.6-14c-2-0.5-6.2-0.7-9.6-0.7c-2.2,0-3.7-0.5-3.7-2c0-2,1.7-2.5,5.2-2.5c12.8,0,28.3,0.7,35.7,0.7  c7.6,0,20.6-0.7,28.8-0.7c3.2,0,4.9,0.5,4.9,2.5c0,1.5-1.5,2-3.2,2c-2,0-3.7,0.2-6.6,0.7c-6.7,1.2-9.1,5.4-9.3,14  c-0.2,7.4-0.2,17.2-0.2,29.5L464,172.7L464,172.7z M69.6,17.2l-36.6,1c-14.3,0.5-20.2,1.7-23.9,7.1C6.7,29,5.4,32,4.9,33.9  c-0.5,2-1.2,3-2.7,3C0.5,36.9,0,35.7,0,33C0,29,4.7,6.6,5.2,4.6C5.9,1.5,6.7,0,8.1,0c2,0,4.4,2.4,10.6,2.9  c7.1,0.8,16.5,1.2,24.6,1.2h97.4c7.9,0,13.3-0.7,17-1.2c3.7-0.7,5.6-1.2,6.6-1.2c1.7,0,2,1.5,2,5.1c0,5.2-0.7,22.1-0.7,28.5  c-0.2,2.4-0.7,3.9-2.2,3.9c-2,0-2.4-1.2-2.7-4.9l-0.2-2.7c-0.5-6.4-7.1-13.3-29-13.8l-31-0.7v100.9c0,22.6,0,42,1.2,52.6  c0.7,6.9,2.2,12.3,9.6,13.3c3.4,0.5,8.8,1,12.6,1c2.7,0,3.9,0.7,3.9,2c0,1.7-2,2.5-4.7,2.5c-16.2,0-31.7-0.7-38.6-0.7  c-5.7,0-21.1,0.7-31,0.7c-3.2,0-4.9-0.7-4.9-2.5c0-1.2,1-2,3.9-2c3.7,0,6.6-0.5,8.8-1c4.9-1,6.4-6.4,7.1-13.5  c1.2-10.3,1.2-29.8,1.2-52.4L69.6,17.2L69.6,17.2z M721.9,74.7c0-37.4,0-44.3-0.5-52.1c-0.5-8.4-2.4-12.3-10.6-14  c-2-0.5-6.1-0.7-9.6-0.7c-2.7,0-4.2-0.5-4.2-2.2s1.7-2.2,5.4-2.2c13,0,28.5,0.7,33.7,0.7c8.3,0,27-0.7,34.7-0.7  c15.5,0,32,1.5,45.3,10.6c6.9,4.6,16.7,17.2,16.7,33.7c0,18.2-7.6,34.9-32.4,55.1c21.9,27.5,38.9,49.4,53.4,64.7  c13.8,14.3,23.8,16,27.5,16.7c2.7,0.5,4.9,0.7,6.9,0.7c2,0,2.9,0.7,2.9,2c0,2-1.7,2.5-4.6,2.5H863c-13.8,0-19.9-1.2-26.3-4.7  c-10.6-5.6-19.9-17.2-33.7-36.1c-9.8-13.5-21.1-30.3-24.3-33.9c-1.2-1.5-2.7-1.7-4.4-1.7l-21.4-0.5c-1.2,0-2,0.5-2,2v3.4  c0,22.9,0,42.3,1.2,52.6c0.7,7.1,2.2,12.5,9.6,13.5c3.7,0.5,9.1,1,12.1,1c2,0,3,0.7,3,2c0,1.7-1.7,2.5-4.9,2.5  c-14.3,0-32.5-0.7-36.1-0.7c-4.7,0-20.2,0.7-30,0.7c-3.2,0-4.9-0.7-4.9-2.5c0-1.2,1-2,4-2c3.7,0,6.6-0.5,8.9-1  c4.9-1,6.1-6.4,7.1-13.5c1.2-10.3,1.2-29.8,1.2-52.4V74.7H721.9L721.9,74.7z M750.8,94.2c0,2.7,0.5,3.7,2.2,4.4  c5.1,1.7,12.5,2.5,18.7,2.5c9.8,0,13-1,17.5-4.2c7.4-5.4,14.5-16.7,14.5-36.9c0-34.9-23.1-45-37.6-45c-6.2,0-10.6,0.2-13,1  c-1.7,0.5-2.2,1.5-2.2,3.4L750.8,94.2L750.8,94.2L750.8,94.2z" fill="#F18626"  /><path d="M839.7,102.9c-56.8-30.3-112.4-18.5-172.8-11.2c-14.1,1.7-28.5,2.6-42.8,2.6C608.5,56,592.4,16.1,588.8,7.8  c-2.5-5.6-3.9-7.8-6.2-7.8c-2.5,0-3.9,2.7-6.9,9.8l-30,74.3c-11.3-3.2-22.4-7.2-33.1-12.2c10.7,5,20.6,11.6,30.7,18l-29.3,72.3  c-4.9,12.3-9.6,20.6-20.9,22.1c-2,0.2-5.4,0.5-7.6,0.5c-2,0-3,0.5-3,2c0,2,1.5,2.5,4.7,2.5c12.8,0,26.3-0.7,29-0.7  c7.6,0,18.2,0.7,26.1,0.7c2.7,0,4.2-0.5,4.2-2.5c0-1.5-0.7-2-3.7-2h-3.7c-7.6,0-9.8-3.2-9.8-7.6c0-3,1.2-8.9,3.7-15l13.3-33.7  l6.1-16l5.3-14.1c2.7,1.5,5.4,2.9,8.2,4.2c11,5.1,22.9,9.4,35.1,12.9l4.9,12.7l19.7,50.7c1.2,3-0.5,5.2-2.2,5.6  c-2.5,0.3-3.4,0.8-3.4,2.2c0,1.7,2.9,1.7,7.4,2c19.7,0.5,37.6,0.5,46.5,0.5c9.1,0,11.3-0.5,11.3-2.5c0-1.7-1.2-2-3.2-2  c-2.9,0-6.6-0.3-10.3-1c-5.2-1.2-12.3-4.7-21.6-26.8c-3.6-8.6-8.5-20.5-14-33.9c22.4,3.4,45.1,4,66.3,1.4  c64.6-7.8,127.8-24.6,188.9,8C878.2,125.8,856,111.6,839.7,102.9z M561.6,88.1L575,52.4c0.2-1,0.7-2.2,1.5-2.2s1,1.2,1.2,2.2  l14.8,40.5C582.1,91.9,571.8,90.3,561.6,88.1z M56.4,239.7v-19.5h-7.3v-2.6h17.5v2.6h-7.3v19.5C59.3,239.7,56.4,239.7,56.4,239.7z   M68.1,239.7v-16h2.4v2.4c0.6-1.1,1.2-1.9,1.7-2.3c0.5-0.4,1.1-0.5,1.7-0.5c0.9,0,1.8,0.3,2.8,0.9l-0.9,2.5c-0.7-0.4-1.3-0.6-2-0.6  c-0.6,0-1.1,0.2-1.6,0.5c-0.5,0.4-0.8,0.9-1,1.5c-0.3,1-0.5,2-0.5,3.2v8.4L68.1,239.7L68.1,239.7z M88.9,237.8c-1,0.9-2,1.5-2.9,1.8  c-0.9,0.4-1.9,0.5-3,0.5c-1.8,0-3.1-0.4-4.1-1.3c-0.9-0.9-1.4-2-1.4-3.3c0-0.8,0.2-1.5,0.5-2.1c0.4-0.7,0.8-1.2,1.4-1.6  s1.2-0.7,2-0.9c0.5-0.1,1.3-0.3,2.4-0.4c2.2-0.3,3.8-0.6,4.8-0.9v-0.7c0-1.1-0.3-1.9-0.8-2.3c-0.7-0.6-1.7-0.9-3.1-0.9  c-1.3,0-2.2,0.2-2.8,0.7c-0.6,0.4-1.1,1.2-1.4,2.4l-2.7-0.4c0.2-1.1,0.6-2.1,1.2-2.8s1.4-1.2,2.4-1.6c1-0.4,2.3-0.6,3.6-0.6  c1.4,0,2.5,0.2,3.3,0.5c0.9,0.3,1.5,0.7,1.9,1.2c0.4,0.5,0.7,1.1,0.8,1.8c0.1,0.5,0.1,1.3,0.1,2.5v3.6c0,2.5,0.1,4.1,0.2,4.8  c0.1,0.7,0.3,1.3,0.7,1.9h-2.8C89.2,239.2,89,238.5,88.9,237.8z M88.7,231.7c-1,0.4-2.5,0.7-4.4,1c-1.1,0.2-1.9,0.3-2.4,0.5  c-0.5,0.2-0.8,0.5-1.1,0.9c-0.3,0.4-0.4,0.8-0.4,1.3c0,0.7,0.3,1.3,0.8,1.8c0.5,0.5,1.4,0.7,2.4,0.7c1,0,2-0.2,2.8-0.7  c0.8-0.5,1.4-1.1,1.8-1.9c0.3-0.6,0.4-1.5,0.4-2.7L88.7,231.7L88.7,231.7z M106,233.9l2.7,0.3c-0.3,1.8-1,3.3-2.2,4.3  s-2.7,1.6-4.4,1.6c-2.2,0-4-0.7-5.3-2.2c-1.3-1.4-2-3.5-2-6.2c0-1.7,0.3-3.2,0.9-4.5c0.6-1.3,1.4-2.3,2.6-2.9c1.2-0.7,2.4-1,3.8-1  c1.7,0,3.2,0.4,4.3,1.3c1.1,0.9,1.8,2.1,2.1,3.8l-2.6,0.4c-0.3-1.1-0.7-1.9-1.3-2.4c-0.6-0.5-1.4-0.8-2.3-0.8  c-1.4,0-2.5,0.5-3.3,1.5c-0.9,1-1.3,2.5-1.3,4.7c0,2.2,0.4,3.7,1.2,4.7c0.8,1,1.9,1.5,3.2,1.5c1.1,0,2-0.3,2.7-1  C105.4,236.2,105.9,235.2,106,233.9L106,233.9z M111.1,239.7v-22.1h2.7v12.6l6.4-6.5h3.5l-6.1,6l6.7,10.1h-3.4l-5.3-8.2l-1.9,1.8  v6.4L111.1,239.7L111.1,239.7z M126.5,220.7v-3.1h2.7v3.1C129.2,220.7,126.5,220.7,126.5,220.7z M126.5,239.7v-16h2.7v16  C129.2,239.7,126.5,239.7,126.5,239.7z M133.4,239.7v-16h2.4v2.3c1.2-1.8,2.9-2.6,5.1-2.6c1,0,1.9,0.2,2.7,0.5  c0.8,0.4,1.4,0.8,1.8,1.4c0.4,0.6,0.7,1.2,0.8,2c0.1,0.5,0.2,1.4,0.2,2.6v9.9h-2.7V230c0-1.1-0.1-1.9-0.3-2.5  c-0.2-0.5-0.6-1-1.1-1.3c-0.5-0.3-1.2-0.5-1.9-0.5c-1.2,0-2.2,0.4-3,1.1c-0.8,0.7-1.3,2.1-1.3,4.2v8.8L133.4,239.7L133.4,239.7z   M150.1,241.1l2.6,0.4c0.1,0.8,0.4,1.4,0.9,1.8c0.7,0.5,1.6,0.8,2.8,0.8c1.3,0,2.2-0.3,2.9-0.8c0.7-0.5,1.1-1.2,1.4-2.1  c0.1-0.6,0.2-1.7,0.2-3.5c-1.2,1.4-2.7,2.1-4.4,2.1c-2.2,0-3.9-0.8-5.1-2.4c-1.2-1.6-1.8-3.5-1.8-5.7c0-1.5,0.3-2.9,0.8-4.2  c0.6-1.3,1.4-2.3,2.4-3c1.1-0.7,2.3-1.1,3.7-1.1c1.9,0,3.5,0.8,4.7,2.3v-1.9h2.5v13.9c0,2.5-0.3,4.3-0.8,5.3c-0.5,1-1.3,1.9-2.4,2.5  c-1.1,0.6-2.5,0.9-4.1,0.9c-1.9,0-3.5-0.4-4.6-1.3C150.6,244.1,150,242.8,150.1,241.1L150.1,241.1z M152.3,231.4  c0,2.1,0.4,3.6,1.3,4.6c0.8,1,1.9,1.4,3.1,1.4c1.2,0,2.3-0.5,3.1-1.4c0.8-1,1.3-2.5,1.3-4.5s-0.4-3.4-1.3-4.4  c-0.9-1-1.9-1.5-3.1-1.5s-2.2,0.5-3.1,1.5C152.7,228,152.3,229.5,152.3,231.4L152.3,231.4z M182.3,237.3l0.4,2.4  c-0.8,0.2-1.5,0.2-2.1,0.2c-1,0-1.8-0.2-2.3-0.5c-0.5-0.3-0.9-0.7-1.1-1.2c-0.2-0.5-0.3-1.6-0.3-3.2v-9.2h-2v-2.1h2v-4l2.7-1.6v5.6  h2.7v2.1h-2.7v9.4c0,0.8,0,1.3,0.1,1.5c0.1,0.2,0.3,0.4,0.5,0.5s0.5,0.2,0.9,0.2C181.4,237.4,181.8,237.4,182.3,237.3L182.3,237.3z   M185,239.7v-22.1h2.7v7.9c1.3-1.5,2.9-2.2,4.8-2.2c1.2,0,2.2,0.2,3.1,0.7c0.9,0.5,1.5,1.1,1.9,1.9c0.4,0.8,0.6,2,0.6,3.6v10.2h-2.7  v-10.2c0-1.4-0.3-2.3-0.9-3c-0.6-0.6-1.4-0.9-2.5-0.9c-0.8,0-1.6,0.2-2.3,0.6c-0.7,0.4-1.2,1-1.5,1.7s-0.5,1.7-0.5,3v8.8H185  L185,239.7z M213.1,234.6l2.8,0.3c-0.4,1.6-1.3,2.9-2.5,3.8c-1.2,0.9-2.7,1.4-4.6,1.4c-2.3,0-4.2-0.7-5.6-2.2  c-1.4-1.4-2.1-3.5-2.1-6.1c0-2.7,0.7-4.8,2.1-6.3c1.4-1.5,3.2-2.2,5.4-2.2c2.1,0,3.9,0.7,5.3,2.2c1.4,1.5,2,3.5,2,6.2v0.7h-12  c0.1,1.8,0.6,3.1,1.5,4s2,1.4,3.4,1.4c1,0,1.8-0.3,2.6-0.8C212.2,236.6,212.7,235.7,213.1,234.6L213.1,234.6z M204.2,230.2h9  c-0.1-1.4-0.5-2.4-1-3c-0.9-1-2-1.6-3.4-1.6c-1.2,0-2.3,0.4-3.1,1.3C204.8,227.7,204.3,228.8,204.2,230.2z M228.8,239.7v-22.1h2.9  v22.1H228.8z M236.5,239.7v-16h2.4v2.2c0.5-0.8,1.2-1.4,2-1.9c0.8-0.5,1.8-0.7,2.9-0.7c1.2,0,2.2,0.2,2.9,0.7  c0.8,0.5,1.3,1.2,1.6,2.1c1.3-1.9,2.9-2.8,5-2.8c1.6,0,2.8,0.4,3.7,1.3c0.9,0.9,1.3,2.2,1.3,4.1v11h-2.7v-10.1  c0-1.1-0.1-1.9-0.3-2.3c-0.2-0.5-0.5-0.9-1-1.2c-0.5-0.3-1-0.4-1.6-0.4c-1.1,0-2.1,0.4-2.8,1.1c-0.7,0.8-1.1,1.9-1.1,3.6v9.3h-2.7  v-10.4c0-1.2-0.2-2.1-0.7-2.7c-0.4-0.6-1.2-0.9-2.2-0.9c-0.8,0-1.5,0.2-2.1,0.6c-0.6,0.4-1.1,1-1.4,1.8s-0.4,1.9-0.4,3.4v8.3h-2.8  L236.5,239.7L236.5,239.7z M262.3,245.9v-22.2h2.5v2.1c0.6-0.8,1.2-1.4,2-1.8c0.7-0.4,1.6-0.6,2.7-0.6c1.4,0,2.6,0.4,3.6,1.1  c1,0.7,1.8,1.7,2.4,3c0.5,1.3,0.8,2.7,0.8,4.2c0,1.6-0.3,3.1-0.9,4.4c-0.6,1.3-1.4,2.3-2.6,3c-1.1,0.7-2.3,1.1-3.5,1.1  c-0.9,0-1.7-0.2-2.4-0.6c-0.7-0.4-1.3-0.9-1.8-1.4v7.8L262.3,245.9L262.3,245.9L262.3,245.9z M264.8,231.8c0,2.1,0.4,3.6,1.3,4.6  c0.8,1,1.8,1.5,3,1.5s2.2-0.5,3.1-1.5c0.9-1,1.3-2.6,1.3-4.7c0-2-0.4-3.6-1.3-4.6c-0.8-1-1.8-1.5-3-1.5c-1.2,0-2.2,0.5-3.1,1.6  C265.2,228.2,264.8,229.8,264.8,231.8L264.8,231.8z M290,237.8c-1,0.9-2,1.5-2.9,1.8c-0.9,0.4-1.9,0.5-3,0.5c-1.8,0-3.1-0.4-4.1-1.3  c-0.9-0.9-1.4-2-1.4-3.3c0-0.8,0.2-1.5,0.5-2.1c0.4-0.7,0.8-1.2,1.4-1.6c0.6-0.4,1.2-0.7,2-0.9c0.5-0.1,1.3-0.3,2.4-0.4  c2.2-0.3,3.8-0.6,4.8-0.9v-0.7c0-1.1-0.3-1.9-0.8-2.3c-0.7-0.6-1.7-0.9-3.1-0.9c-1.3,0-2.2,0.2-2.8,0.7c-0.6,0.4-1.1,1.2-1.4,2.4  l-2.7-0.4c0.2-1.1,0.6-2.1,1.2-2.8c0.6-0.7,1.4-1.2,2.4-1.6c1-0.4,2.3-0.6,3.6-0.6c1.4,0,2.5,0.2,3.3,0.5c0.9,0.3,1.5,0.7,1.9,1.2  c0.4,0.5,0.7,1.1,0.8,1.8c0.1,0.5,0.1,1.3,0.1,2.5v3.6c0,2.5,0.1,4.1,0.2,4.8c0.1,0.7,0.3,1.3,0.7,1.9h-2.8  C290.2,239.2,290,238.5,290,237.8L290,237.8z M289.7,231.7c-1,0.4-2.5,0.7-4.4,1c-1.1,0.2-1.9,0.3-2.4,0.5s-0.8,0.5-1.1,0.9  c-0.3,0.4-0.4,0.8-0.4,1.3c0,0.7,0.3,1.3,0.8,1.8c0.5,0.5,1.4,0.7,2.4,0.7c1,0,2-0.2,2.8-0.7c0.8-0.5,1.4-1.1,1.8-1.9  c0.3-0.6,0.4-1.5,0.4-2.7v-0.9L289.7,231.7L289.7,231.7z M307.2,233.9l2.7,0.3c-0.3,1.8-1,3.3-2.2,4.3c-1.2,1-2.7,1.6-4.4,1.6  c-2.2,0-4-0.7-5.3-2.2c-1.3-1.4-2-3.5-2-6.2c0-1.7,0.3-3.2,0.9-4.5c0.6-1.3,1.4-2.3,2.6-2.9c1.2-0.7,2.4-1,3.8-1  c1.7,0,3.2,0.4,4.3,1.3c1.1,0.9,1.8,2.1,2.1,3.8l-2.6,0.4c-0.3-1.1-0.7-1.9-1.3-2.4c-0.6-0.5-1.4-0.8-2.3-0.8  c-1.4,0-2.5,0.5-3.3,1.5c-0.9,1-1.3,2.5-1.3,4.7c0,2.2,0.4,3.7,1.2,4.7c0.8,1,1.9,1.5,3.2,1.5c1.1,0,2-0.3,2.7-1  C306.5,236.2,307,235.2,307.2,233.9L307.2,233.9z M318,237.3l0.4,2.4c-0.8,0.2-1.4,0.2-2.1,0.2c-1,0-1.8-0.2-2.3-0.5  c-0.5-0.3-0.9-0.7-1.1-1.2c-0.2-0.5-0.3-1.6-0.3-3.2v-9.2h-2v-2.1h2v-4l2.7-1.6v5.6h2.7v2.1h-2.7v9.4c0,0.8,0,1.3,0.1,1.5  c0.1,0.2,0.3,0.4,0.5,0.5c0.2,0.1,0.5,0.2,0.9,0.2C317.1,237.4,317.5,237.4,318,237.3L318,237.3z M328.2,231.7c0-3,0.8-5.2,2.5-6.6  c1.4-1.2,3.1-1.8,5-1.8c2.2,0,4,0.7,5.4,2.2c1.4,1.4,2.1,3.4,2.1,6c0,2.1-0.3,3.7-0.9,4.9c-0.6,1.2-1.5,2.1-2.7,2.8  c-1.2,0.7-2.5,1-3.9,1c-2.2,0-4.1-0.7-5.4-2.2C328.9,236.5,328.2,234.4,328.2,231.7L328.2,231.7z M331,231.7c0,2.1,0.4,3.6,1.3,4.6  s2,1.5,3.4,1.5c1.3,0,2.5-0.5,3.4-1.5c0.9-1,1.3-2.6,1.3-4.7c0-2-0.5-3.5-1.4-4.5c-0.9-1-2-1.5-3.4-1.5s-2.5,0.5-3.4,1.5  C331.5,228.1,331,229.7,331,231.7L331,231.7z M347.1,239.7v-13.9h-2.4v-2.1h2.4V222c0-1.1,0.1-1.9,0.3-2.4c0.3-0.7,0.7-1.3,1.4-1.7  c0.7-0.4,1.6-0.7,2.8-0.7c0.8,0,1.6,0.1,2.5,0.3l-0.4,2.4c-0.6-0.1-1.1-0.2-1.6-0.2c-0.8,0-1.4,0.2-1.8,0.5c-0.3,0.4-0.5,1-0.5,2  v1.5h3.1v2.1h-3.1v13.9L347.1,239.7L347.1,239.7z M374.3,231.1v-2.6h9.4v8.2c-1.4,1.1-2.9,2-4.5,2.6c-1.5,0.6-3.1,0.9-4.7,0.9  c-2.2,0-4.1-0.5-5.9-1.4c-1.8-0.9-3.1-2.3-4-4c-0.9-1.8-1.4-3.7-1.4-5.9c0-2.2,0.5-4.2,1.4-6c0.9-1.9,2.2-3.3,3.9-4.2  c1.7-0.9,3.6-1.4,5.8-1.4c1.6,0,3,0.3,4.3,0.8c1.3,0.5,2.3,1.2,3,2.2c0.7,0.9,1.3,2.1,1.7,3.6l-2.6,0.7c-0.3-1.1-0.7-2-1.2-2.7  c-0.5-0.6-1.2-1.2-2.1-1.5c-0.9-0.4-1.9-0.6-3-0.6c-1.3,0-2.5,0.2-3.5,0.6s-1.8,0.9-2.4,1.6c-0.6,0.7-1.1,1.4-1.4,2.2  c-0.6,1.4-0.8,2.9-0.8,4.5c0,2,0.3,3.6,1,5c0.7,1.3,1.7,2.3,3,3c1.3,0.6,2.7,1,4.1,1c1.3,0,2.5-0.2,3.7-0.7c1.2-0.5,2.1-1,2.7-1.6  v-4.1h-6.5V231.1L374.3,231.1z M398.7,234.6l2.8,0.3c-0.4,1.6-1.3,2.9-2.5,3.8c-1.2,0.9-2.7,1.4-4.6,1.4c-2.3,0-4.2-0.7-5.6-2.2  c-1.4-1.4-2.1-3.5-2.1-6.1c0-2.7,0.7-4.8,2.1-6.3s3.2-2.2,5.4-2.2c2.1,0,3.9,0.7,5.3,2.2c1.4,1.5,2,3.5,2,6.2v0.7h-12  c0.1,1.8,0.6,3.1,1.5,4c0.9,0.9,2,1.4,3.4,1.4c1,0,1.8-0.3,2.6-0.8C397.7,236.6,398.3,235.7,398.7,234.6L398.7,234.6z M389.7,230.2  h9c-0.1-1.4-0.5-2.4-1-3c-0.9-1-2-1.6-3.4-1.6c-1.2,0-2.3,0.4-3.1,1.3C390.3,227.7,389.8,228.8,389.7,230.2z M403.8,235l2.7-0.4  c0.2,1.1,0.6,1.9,1.3,2.5c0.7,0.6,1.7,0.9,2.9,0.9s2.2-0.3,2.8-0.8c0.6-0.5,0.9-1.1,0.9-1.8c0-0.6-0.3-1.1-0.8-1.4  c-0.4-0.2-1.3-0.5-2.8-0.9c-2-0.5-3.4-0.9-4.1-1.3c-0.8-0.4-1.4-0.9-1.8-1.5c-0.4-0.7-0.6-1.4-0.6-2.2c0-0.7,0.2-1.4,0.5-2  c0.3-0.6,0.8-1.1,1.3-1.5c0.4-0.3,1-0.6,1.7-0.8s1.5-0.3,2.3-0.3c1.3,0,2.4,0.2,3.3,0.5c1,0.4,1.7,0.9,2.1,1.5  c0.5,0.6,0.8,1.4,0.9,2.5l-2.7,0.4c-0.1-0.8-0.5-1.5-1-1.9c-0.6-0.5-1.4-0.7-2.5-0.7c-1.2,0-2.1,0.2-2.7,0.6  c-0.5,0.4-0.8,0.9-0.8,1.4c0,0.4,0.1,0.7,0.3,1c0.2,0.3,0.6,0.5,1,0.7c0.3,0.1,1.1,0.3,2.4,0.7c1.9,0.5,3.3,0.9,4,1.3  c0.8,0.3,1.4,0.8,1.8,1.4c0.4,0.6,0.6,1.4,0.6,2.3c0,0.9-0.3,1.8-0.8,2.6c-0.5,0.8-1.3,1.4-2.3,1.9c-1,0.4-2.1,0.7-3.4,0.7  c-2.1,0-3.7-0.4-4.8-1.3C404.8,237.9,404.1,236.7,403.8,235L403.8,235z M426.3,237.3l0.4,2.4c-0.8,0.2-1.4,0.2-2.1,0.2  c-1,0-1.8-0.2-2.3-0.5c-0.5-0.3-0.9-0.7-1.1-1.2c-0.2-0.5-0.3-1.6-0.3-3.2v-9.2h-2v-2.1h2v-4l2.7-1.6v5.6h2.7v2.1h-2.7v9.4  c0,0.8,0,1.3,0.1,1.5c0.1,0.2,0.3,0.4,0.5,0.5s0.5,0.2,0.9,0.2C425.4,237.4,425.8,237.4,426.3,237.3L426.3,237.3z M439.4,237.8  c-1,0.9-2,1.5-2.9,1.8c-0.9,0.4-1.9,0.5-3,0.5c-1.8,0-3.1-0.4-4.1-1.3c-0.9-0.9-1.4-2-1.4-3.3c0-0.8,0.2-1.5,0.5-2.1  c0.4-0.7,0.8-1.2,1.4-1.6c0.6-0.4,1.2-0.7,2-0.9c0.5-0.1,1.3-0.3,2.4-0.4c2.2-0.3,3.8-0.6,4.8-0.9v-0.7c0-1.1-0.3-1.9-0.8-2.3  c-0.7-0.6-1.7-0.9-3.1-0.9c-1.3,0-2.2,0.2-2.8,0.7c-0.6,0.4-1.1,1.2-1.4,2.4l-2.7-0.4c0.2-1.1,0.6-2.1,1.2-2.8  c0.6-0.7,1.4-1.2,2.4-1.6c1-0.4,2.3-0.6,3.6-0.6c1.4,0,2.5,0.2,3.3,0.5c0.9,0.3,1.5,0.7,1.9,1.2c0.4,0.5,0.7,1.1,0.8,1.8  c0.1,0.5,0.1,1.3,0.1,2.5v3.6c0,2.5,0.1,4.1,0.2,4.8c0.1,0.7,0.3,1.3,0.7,1.9h-2.8C439.7,239.2,439.5,238.5,439.4,237.8L439.4,237.8  z M439.2,231.7c-1,0.4-2.5,0.7-4.4,1c-1.1,0.2-1.9,0.3-2.4,0.5s-0.8,0.5-1.1,0.9c-0.3,0.4-0.4,0.8-0.4,1.3c0,0.7,0.3,1.3,0.8,1.8  c0.5,0.5,1.4,0.7,2.4,0.7c1,0,2-0.2,2.8-0.7c0.8-0.5,1.4-1.1,1.8-1.9c0.3-0.6,0.4-1.5,0.4-2.7L439.2,231.7L439.2,231.7L439.2,231.7z   M452.1,237.3l0.4,2.4c-0.8,0.2-1.4,0.2-2.1,0.2c-1,0-1.8-0.2-2.3-0.5c-0.5-0.3-0.9-0.7-1.1-1.2c-0.2-0.5-0.3-1.6-0.3-3.2v-9.2h-2  v-2.1h2v-4l2.7-1.6v5.6h2.7v2.1h-2.7v9.4c0,0.8,0,1.3,0.1,1.5c0.1,0.2,0.3,0.4,0.5,0.5c0.2,0.1,0.5,0.2,0.9,0.2  C451.2,237.4,451.6,237.4,452.1,237.3L452.1,237.3z M454.7,220.7v-3.1h2.7v3.1H454.7z M454.7,239.7v-16h2.7v16H454.7z M460.6,231.7  c0-3,0.8-5.2,2.5-6.6c1.4-1.2,3.1-1.8,5-1.8c2.2,0,4,0.7,5.4,2.2c1.4,1.4,2.1,3.4,2.1,6c0,2.1-0.3,3.7-0.9,4.9  c-0.6,1.2-1.5,2.1-2.7,2.8s-2.5,1-3.9,1c-2.2,0-4.1-0.7-5.4-2.2C461.3,236.5,460.6,234.4,460.6,231.7L460.6,231.7z M463.4,231.7  c0,2.1,0.4,3.6,1.3,4.6s2,1.5,3.4,1.5s2.5-0.5,3.4-1.5s1.3-2.6,1.3-4.7c0-2-0.4-3.5-1.4-4.5c-0.9-1-2-1.5-3.4-1.5s-2.5,0.5-3.4,1.5  C463.8,228.1,463.4,229.7,463.4,231.7L463.4,231.7z M478.8,239.7v-16h2.4v2.3c1.2-1.8,2.9-2.6,5.1-2.6c1,0,1.9,0.2,2.7,0.5  c0.8,0.4,1.4,0.8,1.8,1.4c0.4,0.6,0.7,1.2,0.8,2c0.1,0.5,0.2,1.4,0.2,2.6v9.9h-2.7V230c0-1.1-0.1-1.9-0.3-2.5s-0.6-1-1.1-1.3  c-0.5-0.3-1.2-0.5-1.9-0.5c-1.2,0-2.2,0.4-3,1.1c-0.8,0.7-1.3,2.1-1.3,4.2v8.8L478.8,239.7L478.8,239.7z M506.5,237.8  c-1,0.9-2,1.5-2.9,1.8c-0.9,0.4-1.9,0.5-3,0.5c-1.8,0-3.1-0.4-4.1-1.3c-0.9-0.9-1.4-2-1.4-3.3c0-0.8,0.2-1.5,0.5-2.1  c0.4-0.7,0.8-1.2,1.4-1.6s1.2-0.7,2-0.9c0.5-0.1,1.3-0.3,2.4-0.4c2.2-0.3,3.8-0.6,4.8-0.9v-0.7c0-1.1-0.3-1.9-0.8-2.3  c-0.7-0.6-1.7-0.9-3.1-0.9c-1.3,0-2.2,0.2-2.8,0.7c-0.6,0.4-1.1,1.2-1.4,2.4l-2.7-0.4c0.2-1.1,0.6-2.1,1.2-2.8  c0.6-0.7,1.4-1.2,2.4-1.6c1-0.4,2.3-0.6,3.6-0.6c1.4,0,2.5,0.2,3.3,0.5c0.9,0.3,1.5,0.7,1.9,1.2c0.4,0.5,0.7,1.1,0.8,1.8  c0.1,0.5,0.1,1.3,0.1,2.5v3.6c0,2.5,0.1,4.1,0.2,4.8c0.1,0.7,0.3,1.3,0.7,1.9h-2.8C506.7,239.2,506.5,238.5,506.5,237.8z   M506.2,231.7c-1,0.4-2.5,0.7-4.4,1c-1.1,0.2-1.9,0.3-2.4,0.5c-0.5,0.2-0.8,0.5-1.1,0.9c-0.3,0.4-0.4,0.8-0.4,1.3  c0,0.7,0.3,1.3,0.8,1.8c0.5,0.5,1.4,0.7,2.4,0.7s2-0.2,2.8-0.7c0.8-0.5,1.4-1.1,1.8-1.9c0.3-0.6,0.4-1.5,0.4-2.7L506.2,231.7  L506.2,231.7L506.2,231.7z M513.1,239.7v-22.1h2.7v22.1H513.1z M524.8,239.7l8.5-22.1h3.2l9.1,22.1h-3.3l-2.6-6.7h-9.3l-2.4,6.7  H524.8z M531.2,230.7h7.5l-2.3-6.1c-0.7-1.9-1.2-3.4-1.6-4.6c-0.3,1.4-0.7,2.8-1.2,4.2L531.2,230.7L531.2,230.7z M547,241.1l2.6,0.4  c0.1,0.8,0.4,1.4,0.9,1.8c0.7,0.5,1.6,0.8,2.8,0.8c1.3,0,2.2-0.3,2.9-0.8c0.7-0.5,1.1-1.2,1.4-2.1c0.1-0.6,0.2-1.7,0.2-3.5  c-1.2,1.4-2.7,2.1-4.4,2.1c-2.2,0-3.9-0.8-5.1-2.4c-1.2-1.6-1.8-3.5-1.8-5.7c0-1.5,0.3-2.9,0.8-4.2c0.6-1.3,1.4-2.3,2.4-3  c1.1-0.7,2.3-1.1,3.7-1.1c1.9,0,3.5,0.8,4.7,2.3v-1.9h2.5v13.9c0,2.5-0.3,4.3-0.8,5.3c-0.5,1-1.3,1.9-2.4,2.5  c-1.1,0.6-2.5,0.9-4.1,0.9c-1.9,0-3.5-0.4-4.6-1.3C547.5,244.1,546.9,242.8,547,241.1L547,241.1z M549.2,231.4  c0,2.1,0.4,3.6,1.3,4.6c0.8,1,1.9,1.4,3.1,1.4c1.2,0,2.3-0.5,3.1-1.4c0.8-1,1.3-2.5,1.3-4.5s-0.4-3.4-1.3-4.4  c-0.9-1-1.9-1.5-3.1-1.5c-1.2,0-2.2,0.5-3.1,1.5C549.7,228,549.2,229.5,549.2,231.4L549.2,231.4z M575.7,234.6l2.8,0.3  c-0.4,1.6-1.3,2.9-2.5,3.8c-1.2,0.9-2.7,1.4-4.6,1.4c-2.3,0-4.2-0.7-5.6-2.2c-1.4-1.4-2.1-3.5-2.1-6.1c0-2.7,0.7-4.8,2.1-6.3  s3.2-2.2,5.4-2.2c2.1,0,3.9,0.7,5.3,2.2c1.4,1.5,2,3.5,2,6.2v0.7h-12c0.1,1.8,0.6,3.1,1.5,4s2,1.4,3.4,1.4c1,0,1.8-0.3,2.6-0.8  C574.7,236.6,575.2,235.7,575.7,234.6L575.7,234.6z M566.7,230.2h9c-0.1-1.4-0.5-2.4-1-3c-0.9-1-2-1.6-3.4-1.6  c-1.3,0-2.3,0.4-3.1,1.3C567.3,227.7,566.8,228.8,566.7,230.2z M589.5,231.7c0-3,0.8-5.2,2.5-6.6c1.4-1.2,3.1-1.8,5-1.8  c2.2,0,4,0.7,5.4,2.2c1.4,1.4,2.1,3.4,2.1,6c0,2.1-0.3,3.7-0.9,4.9c-0.6,1.2-1.5,2.1-2.7,2.8s-2.5,1-3.9,1c-2.2,0-4.1-0.7-5.4-2.2  C590.2,236.5,589.5,234.4,589.5,231.7L589.5,231.7z M592.3,231.7c0,2.1,0.4,3.6,1.3,4.6c0.9,1,2,1.5,3.4,1.5c1.3,0,2.5-0.5,3.4-1.5  s1.3-2.6,1.3-4.7c0-2-0.4-3.5-1.3-4.5c-0.9-1-2-1.5-3.4-1.5c-1.4,0-2.5,0.5-3.4,1.5C592.7,228.1,592.3,229.7,592.3,231.7  L592.3,231.7z M607.7,239.7v-16h2.4v2.3c1.2-1.8,2.9-2.6,5.1-2.6c1,0,1.9,0.2,2.7,0.5c0.8,0.4,1.4,0.8,1.8,1.4  c0.4,0.6,0.7,1.2,0.8,2c0.1,0.5,0.2,1.4,0.2,2.6v9.9H618V230c0-1.1-0.1-1.9-0.3-2.5c-0.2-0.6-0.6-1-1.1-1.3  c-0.5-0.3-1.2-0.5-1.9-0.5c-1.2,0-2.2,0.4-3,1.1c-0.8,0.7-1.3,2.1-1.3,4.2v8.8L607.7,239.7L607.7,239.7z M633.5,239.7v-22.1h2.7v7.9  c1.3-1.5,2.9-2.2,4.8-2.2c1.2,0,2.2,0.2,3.1,0.7c0.9,0.5,1.5,1.1,1.9,1.9c0.4,0.8,0.6,2,0.6,3.6v10.2h-2.7v-10.2  c0-1.4-0.3-2.3-0.9-3c-0.6-0.6-1.4-0.9-2.5-0.9c-0.8,0-1.6,0.2-2.3,0.6c-0.7,0.4-1.2,1-1.5,1.7s-0.5,1.7-0.5,3v8.8H633.5  L633.5,239.7z M661.6,234.6l2.8,0.3c-0.4,1.6-1.3,2.9-2.5,3.8c-1.2,0.9-2.7,1.4-4.6,1.4c-2.3,0-4.2-0.7-5.6-2.2  c-1.4-1.4-2.1-3.5-2.1-6.1c0-2.7,0.7-4.8,2.1-6.3c1.4-1.5,3.2-2.2,5.4-2.2c2.1,0,3.9,0.7,5.3,2.2c1.4,1.5,2,3.5,2,6.2v0.7h-12  c0.1,1.8,0.6,3.1,1.5,4s2,1.4,3.4,1.4c1,0,1.8-0.3,2.6-0.8C660.7,236.6,661.2,235.7,661.6,234.6L661.6,234.6z M652.7,230.2h9  c-0.1-1.4-0.5-2.4-1-3c-0.9-1-2-1.6-3.4-1.6c-1.3,0-2.3,0.4-3.1,1.3C653.3,227.7,652.8,228.8,652.7,230.2z M678.3,237.8  c-1,0.9-2,1.5-2.9,1.8c-0.9,0.4-1.9,0.5-3,0.5c-1.8,0-3.1-0.4-4.1-1.3c-0.9-0.9-1.4-2-1.4-3.3c0-0.8,0.2-1.5,0.5-2.1  c0.4-0.7,0.8-1.2,1.4-1.6c0.6-0.4,1.2-0.7,2-0.9c0.5-0.1,1.3-0.3,2.4-0.4c2.2-0.3,3.8-0.6,4.8-0.9v-0.7c0-1.1-0.3-1.9-0.8-2.3  c-0.7-0.6-1.7-0.9-3.1-0.9c-1.3,0-2.2,0.2-2.8,0.7c-0.6,0.4-1.1,1.2-1.4,2.4l-2.7-0.4c0.2-1.1,0.6-2.1,1.2-2.8  c0.6-0.7,1.4-1.2,2.4-1.6s2.3-0.6,3.6-0.6c1.4,0,2.5,0.2,3.3,0.5c0.9,0.3,1.5,0.7,1.9,1.2c0.4,0.5,0.7,1.1,0.8,1.8  c0.1,0.5,0.1,1.3,0.1,2.5v3.6c0,2.5,0.1,4.1,0.2,4.8c0.1,0.7,0.3,1.3,0.7,1.9h-2.8C678.6,239.2,678.4,238.5,678.3,237.8L678.3,237.8  z M678.1,231.7c-1,0.4-2.5,0.7-4.4,1c-1.1,0.2-1.9,0.3-2.4,0.5s-0.8,0.5-1.1,0.9c-0.3,0.4-0.4,0.8-0.4,1.3c0,0.7,0.3,1.3,0.8,1.8  c0.5,0.5,1.4,0.7,2.4,0.7s2-0.2,2.8-0.7c0.8-0.5,1.4-1.1,1.8-1.9c0.3-0.6,0.4-1.5,0.4-2.7L678.1,231.7L678.1,231.7L678.1,231.7z   M685,239.7v-22.1h2.7v22.1H685z M697.9,237.3l0.4,2.4c-0.8,0.2-1.5,0.2-2.1,0.2c-1,0-1.8-0.2-2.3-0.5c-0.5-0.3-0.9-0.7-1.1-1.2  c-0.2-0.5-0.3-1.6-0.3-3.2v-9.2h-2v-2.1h2v-4l2.7-1.6v5.6h2.7v2.1h-2.7v9.4c0,0.8,0,1.3,0.1,1.5c0.1,0.2,0.3,0.4,0.5,0.5  c0.2,0.1,0.5,0.2,0.9,0.2C697,237.4,697.4,237.4,697.9,237.3L697.9,237.3z M700.5,239.7v-22.1h2.7v7.9c1.3-1.5,2.9-2.2,4.8-2.2  c1.2,0,2.2,0.2,3.1,0.7c0.9,0.5,1.5,1.1,1.9,1.9c0.4,0.8,0.6,2,0.6,3.6v10.2h-2.7v-10.2c0-1.4-0.3-2.3-0.9-3  c-0.6-0.6-1.4-0.9-2.5-0.9c-0.8,0-1.6,0.2-2.3,0.6c-0.7,0.4-1.2,1-1.5,1.7c-0.3,0.7-0.5,1.7-0.5,3v8.8H700.5L700.5,239.7z   M718.4,239.7v-3.1h3.1v3.1c0,1.1-0.2,2.1-0.6,2.8c-0.4,0.7-1,1.2-1.9,1.6l-0.8-1.2c0.6-0.3,1-0.6,1.3-1.1c0.3-0.5,0.4-1.2,0.5-2.1  H718.4z M745.8,234.6l2.8,0.3c-0.4,1.6-1.3,2.9-2.5,3.8c-1.2,0.9-2.7,1.4-4.6,1.4c-2.3,0-4.2-0.7-5.6-2.2c-1.4-1.4-2.1-3.5-2.1-6.1  c0-2.7,0.7-4.8,2.1-6.3c1.4-1.5,3.2-2.2,5.4-2.2c2.1,0,3.9,0.7,5.3,2.2c1.4,1.5,2,3.5,2,6.2v0.7h-12c0.1,1.8,0.6,3.1,1.5,4  s2,1.4,3.4,1.4c1,0,1.8-0.3,2.6-0.8C744.8,236.6,745.4,235.7,745.8,234.6L745.8,234.6z M736.9,230.2h9c-0.1-1.4-0.5-2.4-1-3  c-0.9-1-2-1.6-3.4-1.6c-1.3,0-2.3,0.4-3.1,1.3C737.4,227.7,737,228.8,736.9,230.2z M762.4,239.7v-2c-1,1.6-2.5,2.4-4.5,2.4  c-1.3,0-2.5-0.4-3.5-1.1c-1.1-0.7-1.9-1.7-2.5-3c-0.6-1.3-0.9-2.7-0.9-4.4c0-1.6,0.3-3.1,0.8-4.4c0.5-1.3,1.3-2.3,2.4-3  c1.1-0.7,2.3-1,3.6-1c1,0,1.8,0.2,2.6,0.6c0.8,0.4,1.4,0.9,1.8,1.6v-7.9h2.7v22.1L762.4,239.7L762.4,239.7z M753.8,231.7  c0,2.1,0.4,3.6,1.3,4.6c0.9,1,1.9,1.5,3.1,1.5s2.2-0.5,3-1.5s1.2-2.5,1.2-4.4c0-2.2-0.4-3.8-1.3-4.8c-0.8-1-1.9-1.5-3.1-1.5  s-2.2,0.5-3,1.5C754.2,228.1,753.8,229.6,753.8,231.7L753.8,231.7z M779.7,239.7v-2.4c-1.3,1.8-2.9,2.7-5.1,2.7  c-0.9,0-1.8-0.2-2.7-0.5c-0.8-0.4-1.4-0.8-1.8-1.4c-0.4-0.5-0.7-1.2-0.8-2c-0.1-0.5-0.2-1.4-0.2-2.5v-9.9h2.7v8.9  c0,1.4,0.1,2.4,0.2,2.9c0.2,0.7,0.5,1.3,1.1,1.7c0.6,0.4,1.2,0.6,2.1,0.6c0.8,0,1.6-0.2,2.3-0.6c0.7-0.4,1.2-1,1.5-1.7  s0.4-1.8,0.4-3.1v-8.6h2.7v16L779.7,239.7L779.7,239.7z M796.9,233.9l2.7,0.3c-0.3,1.8-1,3.3-2.2,4.3s-2.7,1.6-4.4,1.6  c-2.2,0-4-0.7-5.3-2.2c-1.3-1.4-2-3.5-2-6.2c0-1.7,0.3-3.2,0.9-4.5c0.6-1.3,1.4-2.3,2.6-2.9c1.2-0.7,2.4-1,3.8-1  c1.7,0,3.2,0.4,4.3,1.3c1.1,0.9,1.8,2.1,2.1,3.8l-2.6,0.4c-0.3-1.1-0.7-1.9-1.3-2.4c-0.6-0.5-1.4-0.8-2.3-0.8  c-1.4,0-2.5,0.5-3.3,1.5c-0.9,1-1.3,2.5-1.3,4.7c0,2.2,0.4,3.7,1.2,4.7c0.8,1,1.9,1.5,3.2,1.5c1.1,0,2-0.3,2.7-1  C796.2,236.2,796.7,235.2,796.9,233.9L796.9,233.9z M812.3,237.8c-1,0.9-2,1.5-2.9,1.8c-0.9,0.4-1.9,0.5-3,0.5  c-1.8,0-3.1-0.4-4.1-1.3c-0.9-0.9-1.4-2-1.4-3.3c0-0.8,0.2-1.5,0.5-2.1c0.4-0.7,0.8-1.2,1.4-1.6c0.6-0.4,1.2-0.7,2-0.9  c0.5-0.1,1.3-0.3,2.4-0.4c2.2-0.3,3.8-0.6,4.8-0.9v-0.7c0-1.1-0.3-1.9-0.8-2.3c-0.7-0.6-1.7-0.9-3.1-0.9c-1.3,0-2.2,0.2-2.8,0.7  c-0.6,0.4-1.1,1.2-1.4,2.4l-2.7-0.4c0.2-1.1,0.6-2.1,1.2-2.8c0.6-0.7,1.4-1.2,2.4-1.6s2.3-0.6,3.6-0.6c1.4,0,2.5,0.2,3.3,0.5  c0.9,0.3,1.5,0.7,1.9,1.2c0.4,0.5,0.7,1.1,0.8,1.8c0.1,0.5,0.1,1.3,0.1,2.5v3.6c0,2.5,0.1,4.1,0.2,4.8c0.1,0.7,0.3,1.3,0.7,1.9h-2.8  C812.6,239.2,812.4,238.5,812.3,237.8L812.3,237.8z M812.1,231.7c-1,0.4-2.5,0.7-4.4,1c-1.1,0.2-1.9,0.3-2.4,0.5s-0.8,0.5-1.1,0.9  c-0.3,0.4-0.4,0.8-0.4,1.3c0,0.7,0.3,1.3,0.8,1.8c0.5,0.5,1.4,0.7,2.4,0.7s2-0.2,2.8-0.7c0.8-0.5,1.4-1.1,1.8-1.9  c0.3-0.6,0.4-1.5,0.4-2.7L812.1,231.7L812.1,231.7L812.1,231.7z M825,237.3l0.4,2.4c-0.8,0.2-1.4,0.2-2.1,0.2c-1,0-1.8-0.2-2.3-0.5  c-0.5-0.3-0.9-0.7-1.1-1.2c-0.2-0.5-0.3-1.6-0.3-3.2v-9.2h-2v-2.1h2v-4l2.7-1.6v5.6h2.7v2.1h-2.7v9.4c0,0.8,0,1.3,0.1,1.5  c0.1,0.2,0.3,0.4,0.5,0.5c0.2,0.1,0.5,0.2,0.9,0.2C824.1,237.4,824.5,237.4,825,237.3L825,237.3z M827.7,220.7v-3.1h2.7v3.1H827.7z   M827.7,239.7v-16h2.7v16H827.7z M833.5,231.7c0-3,0.8-5.2,2.5-6.6c1.4-1.2,3.1-1.8,5-1.8c2.2,0,4,0.7,5.4,2.2  c1.4,1.4,2.1,3.4,2.1,6c0,2.1-0.3,3.7-0.9,4.9c-0.6,1.2-1.5,2.1-2.7,2.8c-1.2,0.7-2.5,1-3.9,1c-2.2,0-4.1-0.7-5.4-2.2  C834.2,236.5,833.5,234.4,833.5,231.7L833.5,231.7z M836.3,231.7c0,2.1,0.4,3.6,1.3,4.6s2,1.5,3.4,1.5s2.5-0.5,3.4-1.5  s1.3-2.6,1.3-4.7c0-2-0.4-3.5-1.4-4.5c-0.9-1-2-1.5-3.4-1.5s-2.5,0.5-3.4,1.5C836.8,228.1,836.3,229.7,836.3,231.7L836.3,231.7z   M851.7,239.7v-16h2.4v2.3c1.2-1.8,2.9-2.6,5.1-2.6c1,0,1.9,0.2,2.7,0.5c0.8,0.4,1.4,0.8,1.8,1.4c0.4,0.6,0.7,1.2,0.8,2  c0.1,0.5,0.2,1.4,0.2,2.6v9.9H862V230c0-1.1-0.1-1.9-0.3-2.5s-0.6-1-1.1-1.3c-0.5-0.3-1.2-0.5-1.9-0.5c-1.2,0-2.2,0.4-3,1.1  c-0.8,0.7-1.3,2.1-1.3,4.2v8.8L851.7,239.7L851.7,239.7z M879.4,237.8c-1,0.9-2,1.5-2.9,1.8c-0.9,0.4-1.9,0.5-3,0.5  c-1.8,0-3.1-0.4-4.1-1.3c-0.9-0.9-1.4-2-1.4-3.3c0-0.8,0.2-1.5,0.5-2.1c0.4-0.7,0.8-1.2,1.4-1.6c0.6-0.4,1.2-0.7,2-0.9  c0.5-0.1,1.3-0.3,2.4-0.4c2.2-0.3,3.8-0.6,4.8-0.9v-0.7c0-1.1-0.3-1.9-0.8-2.3c-0.7-0.6-1.7-0.9-3.1-0.9c-1.3,0-2.2,0.2-2.8,0.7  c-0.6,0.4-1.1,1.2-1.4,2.4l-2.7-0.4c0.2-1.1,0.6-2.1,1.2-2.8c0.6-0.7,1.4-1.2,2.4-1.6s2.3-0.6,3.6-0.6c1.4,0,2.5,0.2,3.3,0.5  c0.9,0.3,1.5,0.7,1.9,1.2c0.4,0.5,0.7,1.1,0.8,1.8c0.1,0.5,0.1,1.3,0.1,2.5v3.6c0,2.5,0.1,4.1,0.2,4.8c0.1,0.7,0.3,1.3,0.7,1.9h-2.8  C879.7,239.2,879.5,238.5,879.4,237.8L879.4,237.8z M879.2,231.7c-1,0.4-2.5,0.7-4.4,1c-1.1,0.2-1.9,0.3-2.4,0.5s-0.8,0.5-1.1,0.9  c-0.3,0.4-0.4,0.8-0.4,1.3c0,0.7,0.3,1.3,0.8,1.8c0.5,0.5,1.4,0.7,2.4,0.7s2-0.2,2.8-0.7c0.8-0.5,1.4-1.1,1.8-1.9  c0.3-0.6,0.4-1.5,0.4-2.7L879.2,231.7L879.2,231.7L879.2,231.7z M886.1,239.7v-22.1h2.7v22.1H886.1z M71.8,274.9  c-1,0.9-2,1.5-2.9,1.8c-0.9,0.4-1.9,0.5-3,0.5c-1.8,0-3.1-0.4-4.1-1.3c-0.9-0.9-1.4-2-1.4-3.3c0-0.8,0.2-1.5,0.5-2.1  c0.4-0.7,0.8-1.2,1.4-1.6c0.6-0.4,1.2-0.7,2-0.9c0.5-0.1,1.3-0.3,2.4-0.4c2.2-0.3,3.8-0.6,4.8-0.9V266c0-1.1-0.3-1.9-0.8-2.3  c-0.7-0.6-1.7-0.9-3.1-0.9c-1.3,0-2.2,0.2-2.8,0.7c-0.6,0.4-1.1,1.2-1.4,2.4l-2.7-0.4c0.2-1.1,0.6-2.1,1.2-2.8  c0.6-0.7,1.4-1.2,2.4-1.6c1-0.4,2.3-0.6,3.6-0.6c1.4,0,2.5,0.2,3.3,0.5c0.9,0.3,1.5,0.7,1.9,1.2s0.7,1.1,0.8,1.8  c0.1,0.5,0.1,1.3,0.1,2.5v3.6c0,2.5,0.1,4.1,0.2,4.8c0.1,0.7,0.3,1.3,0.7,1.9h-2.8C72.1,276.3,71.9,275.6,71.8,274.9L71.8,274.9z   M71.6,268.8c-1,0.4-2.5,0.7-4.4,1c-1.1,0.2-1.9,0.3-2.4,0.5c-0.5,0.2-0.8,0.5-1.1,0.9c-0.3,0.4-0.4,0.8-0.4,1.3  c0,0.7,0.3,1.3,0.8,1.8c0.5,0.5,1.4,0.7,2.4,0.7c1,0,2-0.2,2.8-0.7s1.4-1.1,1.8-1.9c0.3-0.6,0.4-1.5,0.4-2.7L71.6,268.8L71.6,268.8z   M78.6,276.9v-16H81v2.3c1.2-1.8,2.9-2.6,5.1-2.6c1,0,1.9,0.2,2.7,0.5c0.8,0.4,1.4,0.8,1.8,1.4c0.4,0.6,0.7,1.2,0.8,2  c0.1,0.5,0.2,1.4,0.2,2.6v9.9h-2.7v-9.8c0-1.1-0.1-1.9-0.3-2.5c-0.2-0.5-0.6-1-1.1-1.3c-0.5-0.3-1.2-0.5-1.9-0.5  c-1.2,0-2.2,0.4-3,1.1s-1.3,2.1-1.3,4.2v8.8L78.6,276.9C78.6,277,78.6,276.9,78.6,276.9z M106.1,276.9v-2c-1,1.6-2.5,2.4-4.5,2.4  c-1.3,0-2.5-0.4-3.5-1.1c-1.1-0.7-1.9-1.7-2.5-3c-0.6-1.3-0.9-2.7-0.9-4.4c0-1.6,0.3-3.1,0.8-4.4c0.5-1.3,1.3-2.3,2.4-3s2.3-1,3.6-1  c1,0,1.8,0.2,2.6,0.6c0.8,0.4,1.4,0.9,1.8,1.6v-7.9h2.7v22.2H106.1z M97.6,268.9c0,2.1,0.4,3.6,1.3,4.6c0.9,1,1.9,1.5,3.1,1.5  s2.2-0.5,3-1.5c0.8-1,1.2-2.5,1.2-4.4c0-2.2-0.4-3.8-1.3-4.8c-0.8-1-1.9-1.5-3.1-1.5s-2.2,0.5-3,1.5C98,265.2,97.6,266.7,97.6,268.9  L97.6,268.9z M132.4,271.7l2.8,0.3c-0.4,1.6-1.3,2.9-2.5,3.8c-1.2,0.9-2.7,1.4-4.6,1.4c-2.3,0-4.2-0.7-5.6-2.2  c-1.4-1.4-2.1-3.5-2.1-6.1c0-2.7,0.7-4.8,2.1-6.3c1.4-1.5,3.2-2.2,5.4-2.2c2.1,0,3.9,0.7,5.3,2.2c1.4,1.5,2,3.5,2,6.2v0.7h-12  c0.1,1.8,0.6,3.1,1.5,4c0.9,0.9,2,1.4,3.4,1.4c1,0,1.8-0.3,2.6-0.8C131.5,273.7,132,272.8,132.4,271.7z M123.5,267.3h9  c-0.1-1.4-0.5-2.4-1-3c-0.9-1-2-1.6-3.4-1.6c-1.2,0-2.3,0.4-3.1,1.3C124.1,264.8,123.6,265.9,123.5,267.3L123.5,267.3z M149.1,271  l2.7,0.3c-0.3,1.8-1,3.3-2.2,4.3c-1.2,1-2.7,1.6-4.4,1.6c-2.2,0-4-0.7-5.3-2.2c-1.3-1.4-2-3.5-2-6.2c0-1.7,0.3-3.2,0.9-4.5  c0.6-1.3,1.4-2.3,2.6-2.9c1.2-0.7,2.4-1,3.8-1c1.7,0,3.2,0.4,4.3,1.3c1.1,0.9,1.8,2.1,2.1,3.8l-2.7,0.4c-0.3-1.1-0.7-1.9-1.3-2.4  c-0.6-0.5-1.4-0.8-2.3-0.8c-1.4,0-2.5,0.5-3.3,1.5c-0.9,1-1.3,2.5-1.3,4.7c0,2.2,0.4,3.7,1.2,4.7c0.8,1,1.9,1.5,3.2,1.5  c1.1,0,2-0.3,2.7-1C148.5,273.3,148.9,272.3,149.1,271L149.1,271z M153.1,268.8c0-3,0.8-5.2,2.5-6.6c1.4-1.2,3.1-1.8,5-1.8  c2.2,0,4,0.7,5.4,2.2c1.4,1.4,2.1,3.4,2.1,6c0,2.1-0.3,3.7-0.9,4.9c-0.6,1.2-1.5,2.1-2.7,2.8c-1.2,0.7-2.5,1-3.9,1  c-2.2,0-4.1-0.7-5.4-2.2C153.8,273.6,153.1,271.5,153.1,268.8L153.1,268.8z M155.9,268.8c0,2.1,0.4,3.6,1.3,4.6c0.9,1,2,1.5,3.4,1.5  c1.3,0,2.5-0.5,3.4-1.5s1.3-2.6,1.3-4.7c0-2-0.5-3.5-1.4-4.5s-2-1.5-3.4-1.5c-1.4,0-2.5,0.5-3.4,1.5  C156.3,265.2,155.9,266.8,155.9,268.8L155.9,268.8z M171.3,276.9v-16h2.4v2.3c1.2-1.8,2.9-2.6,5.1-2.6c1,0,1.9,0.2,2.7,0.5  c0.8,0.4,1.4,0.8,1.8,1.4c0.4,0.6,0.7,1.2,0.8,2c0.1,0.5,0.2,1.4,0.2,2.6v9.9h-2.7v-9.8c0-1.1-0.1-1.9-0.3-2.5  c-0.2-0.5-0.6-1-1.1-1.3c-0.5-0.3-1.2-0.5-1.9-0.5c-1.2,0-2.2,0.4-3,1.1s-1.3,2.1-1.3,4.2v8.8L171.3,276.9L171.3,276.9z   M187.5,268.8c0-3,0.8-5.2,2.5-6.6c1.4-1.2,3.1-1.8,5-1.8c2.2,0,4,0.7,5.4,2.2c1.4,1.4,2.1,3.4,2.1,6c0,2.1-0.3,3.7-0.9,4.9  c-0.6,1.2-1.5,2.1-2.7,2.8c-1.2,0.7-2.5,1-3.9,1c-2.2,0-4.1-0.7-5.4-2.2C188.2,273.6,187.5,271.5,187.5,268.8L187.5,268.8z   M190.3,268.8c0,2.1,0.4,3.6,1.3,4.6c0.9,1,2,1.5,3.4,1.5c1.3,0,2.5-0.5,3.4-1.5s1.3-2.6,1.3-4.7c0-2-0.5-3.5-1.4-4.5  s-2-1.5-3.4-1.5s-2.5,0.5-3.4,1.5C190.7,265.2,190.3,266.8,190.3,268.8L190.3,268.8z M205.7,276.9v-16h2.4v2.2  c0.5-0.8,1.2-1.4,2-1.9s1.8-0.7,2.9-0.7c1.2,0,2.2,0.2,2.9,0.7c0.8,0.5,1.3,1.2,1.6,2.1c1.3-1.9,2.9-2.8,5-2.8  c1.6,0,2.8,0.4,3.7,1.3c0.9,0.9,1.3,2.2,1.3,4.1v11h-2.7v-10.1c0-1.1-0.1-1.9-0.3-2.3c-0.2-0.5-0.5-0.9-1-1.2  c-0.5-0.3-1-0.4-1.6-0.4c-1.1,0-2.1,0.4-2.8,1.1c-0.7,0.8-1.1,1.9-1.1,3.6v9.3h-2.7v-10.4c0-1.2-0.2-2.1-0.7-2.7  c-0.5-0.6-1.2-0.9-2.2-0.9c-0.8,0-1.5,0.2-2.1,0.6c-0.6,0.4-1.1,1-1.4,1.8c-0.3,0.8-0.4,1.9-0.4,3.4v8.3L205.7,276.9L205.7,276.9  L205.7,276.9z M231.5,257.8v-3.1h2.7v3.1H231.5z M231.5,276.9v-16h2.7v16H231.5z M248.8,271l2.7,0.3c-0.3,1.8-1,3.3-2.2,4.3  c-1.2,1-2.7,1.6-4.4,1.6c-2.2,0-4-0.7-5.3-2.2c-1.3-1.4-2-3.5-2-6.2c0-1.7,0.3-3.2,0.9-4.5c0.6-1.3,1.4-2.3,2.6-2.9  c1.2-0.7,2.4-1,3.8-1c1.7,0,3.2,0.4,4.3,1.3c1.1,0.9,1.8,2.1,2.1,3.8l-2.6,0.4c-0.3-1.1-0.7-1.9-1.3-2.4c-0.6-0.5-1.4-0.8-2.3-0.8  c-1.4,0-2.5,0.5-3.3,1.5c-0.9,1-1.3,2.5-1.3,4.7c0,2.2,0.4,3.7,1.2,4.7c0.8,1,1.9,1.5,3.2,1.5c1.1,0,2-0.3,2.7-1  C248.2,273.3,248.6,272.3,248.8,271L248.8,271z M261.4,268.8c0-3,0.8-5.2,2.5-6.6c1.4-1.2,3.1-1.8,5-1.8c2.2,0,4,0.7,5.4,2.2  c1.4,1.4,2.1,3.4,2.1,6c0,2.1-0.3,3.7-0.9,4.9c-0.6,1.2-1.5,2.1-2.7,2.8c-1.2,0.7-2.5,1-3.9,1c-2.2,0-4.1-0.7-5.4-2.2  C262.1,273.6,261.4,271.5,261.4,268.8z M264.2,268.8c0,2.1,0.4,3.6,1.3,4.6c0.9,1,2,1.5,3.4,1.5c1.3,0,2.5-0.5,3.4-1.5  s1.3-2.6,1.3-4.7c0-2-0.5-3.5-1.4-4.5s-2-1.5-3.4-1.5s-2.5,0.5-3.4,1.5C264.6,265.2,264.2,266.8,264.2,268.8L264.2,268.8z   M290.1,276.9v-2.4c-1.2,1.8-2.9,2.7-5.1,2.7c-0.9,0-1.8-0.2-2.7-0.5c-0.8-0.4-1.4-0.8-1.8-1.4c-0.4-0.5-0.7-1.2-0.8-2  c-0.1-0.5-0.2-1.4-0.2-2.5v-9.9h2.7v8.9c0,1.4,0.1,2.4,0.2,2.9c0.2,0.7,0.5,1.3,1.1,1.7s1.2,0.6,2.1,0.6c0.8,0,1.6-0.2,2.3-0.6  c0.7-0.4,1.2-1,1.5-1.7c0.3-0.7,0.4-1.8,0.4-3.1V261h2.7v16L290.1,276.9L290.1,276.9z M302.7,274.4l0.4,2.4  c-0.8,0.2-1.4,0.2-2.1,0.2c-1,0-1.8-0.2-2.3-0.5c-0.5-0.3-0.9-0.7-1.1-1.2s-0.3-1.6-0.3-3.2v-9.2h-2v-2.1h2v-4l2.7-1.6v5.6h2.7v2.1  H300v9.4c0,0.8,0,1.3,0.1,1.5c0.1,0.2,0.3,0.4,0.5,0.5c0.2,0.1,0.5,0.2,0.9,0.2C301.8,274.5,302.2,274.5,302.7,274.4L302.7,274.4z   M315.7,271l2.7,0.3c-0.3,1.8-1,3.3-2.2,4.3c-1.2,1-2.7,1.6-4.4,1.6c-2.2,0-4-0.7-5.3-2.2c-1.3-1.4-2-3.5-2-6.2  c0-1.7,0.3-3.2,0.9-4.5c0.6-1.3,1.4-2.3,2.6-2.9c1.2-0.7,2.4-1,3.8-1c1.7,0,3.2,0.4,4.3,1.3c1.1,0.9,1.8,2.1,2.1,3.8l-2.6,0.4  c-0.3-1.1-0.7-1.9-1.3-2.4s-1.4-0.8-2.3-0.8c-1.4,0-2.5,0.5-3.3,1.5c-0.9,1-1.3,2.5-1.3,4.7c0,2.2,0.4,3.7,1.2,4.7  c0.8,1,1.9,1.5,3.2,1.5c1.1,0,2-0.3,2.7-1C315.1,273.3,315.6,272.3,315.7,271L315.7,271z M319.7,268.8c0-3,0.8-5.2,2.5-6.6  c1.4-1.2,3.1-1.8,5-1.8c2.2,0,4,0.7,5.4,2.2c1.4,1.4,2.1,3.4,2.1,6c0,2.1-0.3,3.7-0.9,4.9c-0.6,1.2-1.5,2.1-2.7,2.8  c-1.2,0.7-2.5,1-3.9,1c-2.2,0-4.1-0.7-5.4-2.2C320.5,273.6,319.7,271.5,319.7,268.8z M322.5,268.8c0,2.1,0.4,3.6,1.3,4.6  s2,1.5,3.4,1.5c1.3,0,2.5-0.5,3.4-1.5c0.9-1,1.3-2.6,1.3-4.7c0-2-0.5-3.5-1.4-4.5s-2-1.5-3.4-1.5s-2.5,0.5-3.4,1.5  C323,265.2,322.5,266.8,322.5,268.8L322.5,268.8z M337.9,276.9v-16h2.4v2.2c0.5-0.8,1.2-1.4,2-1.9c0.8-0.5,1.8-0.7,2.9-0.7  c1.2,0,2.2,0.2,2.9,0.7c0.8,0.5,1.3,1.2,1.6,2.1c1.3-1.9,2.9-2.8,5-2.8c1.6,0,2.8,0.4,3.7,1.3c0.9,0.9,1.3,2.2,1.3,4.1v11H357v-10.1  c0-1.1-0.1-1.9-0.3-2.3c-0.2-0.5-0.5-0.9-1-1.2c-0.5-0.3-1-0.4-1.6-0.4c-1.1,0-2.1,0.4-2.8,1.1c-0.7,0.8-1.1,1.9-1.1,3.6v9.3h-2.7  v-10.4c0-1.2-0.2-2.1-0.7-2.7c-0.4-0.6-1.2-0.9-2.2-0.9c-0.8,0-1.5,0.2-2.1,0.6c-0.6,0.4-1.1,1-1.4,1.8c-0.3,0.8-0.4,1.9-0.4,3.4  v8.3L337.9,276.9L337.9,276.9L337.9,276.9z M374.7,271.7l2.8,0.3c-0.4,1.6-1.3,2.9-2.5,3.8s-2.7,1.4-4.6,1.4c-2.3,0-4.2-0.7-5.6-2.2  c-1.4-1.4-2.1-3.5-2.1-6.1c0-2.7,0.7-4.8,2.1-6.3c1.4-1.5,3.2-2.2,5.4-2.2c2.1,0,3.9,0.7,5.3,2.2c1.4,1.5,2,3.5,2,6.2v0.7h-12  c0.1,1.8,0.6,3.1,1.5,4s2,1.4,3.4,1.4c1,0,1.8-0.3,2.6-0.8C373.7,273.7,374.3,272.8,374.7,271.7L374.7,271.7z M365.8,267.3h9  c-0.1-1.4-0.5-2.4-1-3c-0.9-1-2-1.6-3.4-1.6c-1.2,0-2.3,0.4-3.1,1.3C366.3,264.8,365.9,265.9,365.8,267.3L365.8,267.3z M379.8,272.1  l2.7-0.4c0.2,1.1,0.6,1.9,1.3,2.5c0.7,0.6,1.7,0.9,2.9,0.9s2.2-0.3,2.8-0.8c0.6-0.5,0.9-1.1,0.9-1.8c0-0.6-0.3-1.1-0.8-1.4  c-0.4-0.2-1.3-0.5-2.8-0.9c-2-0.5-3.4-0.9-4.1-1.3c-0.8-0.4-1.4-0.9-1.8-1.5c-0.4-0.7-0.6-1.4-0.6-2.2c0-0.7,0.2-1.4,0.5-2  c0.3-0.6,0.8-1.1,1.3-1.5c0.4-0.3,1-0.6,1.7-0.8c0.7-0.2,1.5-0.3,2.3-0.3c1.3,0,2.4,0.2,3.3,0.5c1,0.4,1.7,0.9,2.1,1.5  c0.5,0.6,0.8,1.4,0.9,2.5l-2.7,0.4c-0.1-0.8-0.5-1.5-1-1.9c-0.6-0.5-1.4-0.7-2.5-0.7c-1.2,0-2.1,0.2-2.7,0.6  c-0.5,0.4-0.8,0.9-0.8,1.4c0,0.4,0.1,0.7,0.3,1c0.2,0.3,0.6,0.5,1,0.7c0.3,0.1,1.1,0.3,2.4,0.7c1.9,0.5,3.3,0.9,4,1.3  c0.8,0.3,1.4,0.8,1.8,1.4c0.4,0.6,0.6,1.4,0.6,2.3s-0.3,1.8-0.8,2.6c-0.5,0.8-1.3,1.4-2.3,1.9c-1,0.4-2.1,0.7-3.4,0.7  c-2.1,0-3.7-0.4-4.8-1.3C380.8,275.1,380.1,273.8,379.8,272.1L379.8,272.1z M397.1,263.9v-3.1h3.1v3.1H397.1z M397.1,276.9v-3.1h3.1  v3.1H397.1z M424,274.9c-1,0.9-2,1.5-2.9,1.8c-0.9,0.4-1.9,0.5-3,0.5c-1.8,0-3.1-0.4-4.1-1.3c-0.9-0.9-1.4-2-1.4-3.3  c0-0.8,0.2-1.5,0.5-2.1c0.4-0.7,0.8-1.2,1.4-1.6c0.6-0.4,1.2-0.7,2-0.9c0.5-0.1,1.3-0.3,2.4-0.4c2.2-0.3,3.8-0.6,4.8-0.9V266  c0-1.1-0.3-1.9-0.8-2.3c-0.7-0.6-1.7-0.9-3.1-0.9c-1.3,0-2.2,0.2-2.8,0.7c-0.6,0.4-1.1,1.2-1.4,2.4l-2.7-0.4  c0.2-1.1,0.6-2.1,1.2-2.8c0.6-0.7,1.4-1.2,2.4-1.6c1-0.4,2.3-0.6,3.6-0.6c1.4,0,2.5,0.2,3.3,0.5c0.9,0.3,1.5,0.7,1.9,1.2  s0.7,1.1,0.8,1.8c0.1,0.5,0.1,1.3,0.1,2.5v3.6c0,2.5,0.1,4.1,0.2,4.8c0.1,0.7,0.3,1.3,0.7,1.9h-2.8  C424.3,276.3,424.1,275.6,424,274.9L424,274.9z M423.8,268.8c-1,0.4-2.5,0.7-4.4,1c-1.1,0.2-1.9,0.3-2.4,0.5  c-0.5,0.2-0.8,0.5-1.1,0.9c-0.3,0.4-0.4,0.8-0.4,1.3c0,0.7,0.3,1.3,0.8,1.8c0.5,0.5,1.4,0.7,2.4,0.7s2-0.2,2.8-0.7  c0.8-0.5,1.4-1.1,1.8-1.9c0.3-0.6,0.4-1.5,0.4-2.7L423.8,268.8L423.8,268.8L423.8,268.8z M439.3,276.9v-22.1h2.7v22.1L439.3,276.9  L439.3,276.9z M445.2,268.8c0-3,0.8-5.2,2.5-6.6c1.4-1.2,3.1-1.8,5-1.8c2.2,0,4,0.7,5.4,2.2c1.4,1.4,2.1,3.4,2.1,6  c0,2.1-0.3,3.7-0.9,4.9c-0.6,1.2-1.5,2.1-2.7,2.8c-1.2,0.7-2.5,1-3.9,1c-2.2,0-4.1-0.7-5.4-2.2C445.9,273.6,445.2,271.5,445.2,268.8  z M448,268.8c0,2.1,0.4,3.6,1.3,4.6s2,1.5,3.4,1.5s2.5-0.5,3.4-1.5s1.3-2.6,1.3-4.7c0-2-0.4-3.5-1.4-4.5c-0.9-1-2-1.5-3.4-1.5  s-2.5,0.5-3.4,1.5C448.4,265.2,448,266.8,448,268.8L448,268.8z M463.4,276.9v-16h2.4v2.3c1.2-1.8,2.9-2.6,5.1-2.6  c1,0,1.9,0.2,2.7,0.5c0.8,0.4,1.4,0.8,1.8,1.4c0.4,0.6,0.7,1.2,0.8,2c0.1,0.5,0.2,1.4,0.2,2.6v9.9h-2.7v-9.8c0-1.1-0.1-1.9-0.3-2.5  c-0.2-0.5-0.6-1-1.1-1.3c-0.5-0.3-1.2-0.5-1.9-0.5c-1.2,0-2.2,0.4-3,1.1c-0.8,0.7-1.3,2.1-1.3,4.2v8.8L463.4,276.9L463.4,276.9z   M480.1,278.2l2.6,0.4c0.1,0.8,0.4,1.4,0.9,1.8c0.7,0.5,1.6,0.8,2.8,0.8c1.3,0,2.2-0.3,2.9-0.8c0.7-0.5,1.1-1.2,1.4-2.1  c0.1-0.6,0.2-1.7,0.2-3.5c-1.2,1.4-2.7,2.1-4.4,2.1c-2.2,0-3.9-0.8-5.1-2.4s-1.8-3.5-1.8-5.7c0-1.5,0.3-2.9,0.8-4.2  c0.6-1.3,1.4-2.3,2.4-3c1.1-0.7,2.3-1.1,3.7-1.1c1.9,0,3.5,0.8,4.7,2.3v-1.9h2.5v13.9c0,2.5-0.3,4.3-0.8,5.3s-1.3,1.9-2.4,2.5  s-2.5,0.9-4.1,0.9c-1.9,0-3.5-0.4-4.6-1.3C480.6,281.2,480.1,279.9,480.1,278.2L480.1,278.2z M482.4,268.6c0,2.1,0.4,3.6,1.3,4.6  c0.8,1,1.9,1.4,3.1,1.4c1.2,0,2.3-0.5,3.1-1.4c0.8-1,1.3-2.5,1.3-4.5c0-2-0.4-3.4-1.3-4.4c-0.9-1-1.9-1.5-3.1-1.5  c-1.2,0-2.2,0.5-3.1,1.5C482.8,265.2,482.4,266.6,482.4,268.6z M497.8,257.8v-3.1h2.7v3.1H497.8L497.8,257.8z M497.8,276.9v-16h2.7  v16H497.8L497.8,276.9z M510.6,274.4l0.4,2.4c-0.8,0.2-1.4,0.2-2.1,0.2c-1,0-1.8-0.2-2.3-0.5c-0.5-0.3-0.9-0.7-1.1-1.2  s-0.3-1.6-0.3-3.2v-9.2h-2v-2.1h2v-4l2.7-1.6v5.6h2.7v2.1h-2.7v9.4c0,0.8,0,1.3,0.1,1.5s0.3,0.4,0.5,0.5c0.2,0.1,0.5,0.2,0.9,0.2  C509.7,274.5,510.1,274.5,510.6,274.4L510.6,274.4z M523.7,276.9v-2.4c-1.3,1.8-2.9,2.7-5.1,2.7c-0.9,0-1.8-0.2-2.7-0.5  c-0.8-0.4-1.4-0.8-1.8-1.4c-0.4-0.5-0.7-1.2-0.8-2c-0.1-0.5-0.2-1.4-0.2-2.5v-9.9h2.7v8.9c0,1.4,0.1,2.4,0.2,2.9  c0.2,0.7,0.5,1.3,1.1,1.7c0.6,0.4,1.2,0.6,2.1,0.6c0.8,0,1.6-0.2,2.3-0.6c0.7-0.4,1.2-1,1.5-1.7c0.3-0.7,0.4-1.8,0.4-3.1V261h2.7v16  L523.7,276.9L523.7,276.9z M540.8,276.9v-2c-1,1.6-2.5,2.4-4.5,2.4c-1.3,0-2.5-0.4-3.5-1.1c-1.1-0.7-1.9-1.7-2.5-3  c-0.6-1.3-0.9-2.7-0.9-4.4c0-1.6,0.3-3.1,0.8-4.4c0.5-1.3,1.3-2.3,2.4-3s2.3-1,3.6-1c1,0,1.8,0.2,2.6,0.6c0.8,0.4,1.4,0.9,1.8,1.6  v-7.9h2.7v22.2H540.8L540.8,276.9z M532.2,268.9c0,2.1,0.4,3.6,1.3,4.6c0.9,1,1.9,1.5,3.1,1.5c1.2,0,2.2-0.5,3-1.5  c0.8-1,1.2-2.5,1.2-4.4c0-2.2-0.4-3.8-1.3-4.8c-0.8-1-1.9-1.5-3.1-1.5c-1.2,0-2.2,0.5-3,1.5C532.6,265.2,532.2,266.7,532.2,268.9  L532.2,268.9z M547.6,257.8v-3.1h2.7v3.1H547.6z M547.6,276.9v-16h2.7v16H547.6z M554.4,276.9v-16h2.4v2.3c1.2-1.8,2.9-2.6,5.1-2.6  c1,0,1.9,0.2,2.7,0.5c0.8,0.4,1.4,0.8,1.8,1.4c0.4,0.6,0.7,1.2,0.8,2c0.1,0.5,0.2,1.4,0.2,2.6v9.9h-2.7v-9.8c0-1.1-0.1-1.9-0.3-2.5  c-0.2-0.5-0.6-1-1.1-1.3c-0.5-0.3-1.2-0.5-1.9-0.5c-1.2,0-2.2,0.4-3,1.1c-0.8,0.7-1.3,2.1-1.3,4.2v8.8L554.4,276.9L554.4,276.9z   M582.1,274.9c-1,0.9-2,1.5-2.9,1.8c-0.9,0.4-1.9,0.5-3,0.5c-1.8,0-3.1-0.4-4.1-1.3c-0.9-0.9-1.4-2-1.4-3.3c0-0.8,0.2-1.5,0.5-2.1  c0.4-0.7,0.8-1.2,1.4-1.6c0.6-0.4,1.2-0.7,2-0.9c0.5-0.1,1.3-0.3,2.4-0.4c2.2-0.3,3.8-0.6,4.8-0.9V266c0-1.1-0.3-1.9-0.8-2.3  c-0.7-0.6-1.7-0.9-3.1-0.9c-1.3,0-2.2,0.2-2.8,0.7c-0.6,0.4-1.1,1.2-1.4,2.4l-2.7-0.4c0.2-1.1,0.6-2.1,1.2-2.8  c0.6-0.7,1.4-1.2,2.4-1.6c1-0.4,2.3-0.6,3.6-0.6c1.4,0,2.5,0.2,3.3,0.5c0.9,0.3,1.5,0.7,1.9,1.2s0.7,1.1,0.8,1.8  c0.1,0.5,0.1,1.3,0.1,2.5v3.6c0,2.5,0.1,4.1,0.2,4.8c0.1,0.7,0.3,1.3,0.7,1.9h-2.5C582.4,276.3,582.2,275.6,582.1,274.9L582.1,274.9  z M581.9,268.8c-1,0.4-2.5,0.7-4.4,1c-1.1,0.2-1.9,0.3-2.4,0.5c-0.5,0.2-0.8,0.5-1.1,0.9c-0.3,0.4-0.4,0.8-0.4,1.3  c0,0.7,0.3,1.3,0.8,1.8s1.4,0.7,2.4,0.7c1,0,2-0.2,2.8-0.7c0.8-0.5,1.4-1.1,1.8-1.9c0.3-0.6,0.4-1.5,0.4-2.7v-0.9L581.9,268.8  L581.9,268.8z M588.8,276.9v-22.1h2.7v22.1H588.8z M604.7,276.9v-22.1h9.8c2,0,3.5,0.2,4.5,0.6c1,0.4,1.8,1.1,2.5,2.1  c0.6,1,0.9,2.1,0.9,3.3c0,1.6-0.5,2.9-1.5,4c-1,1.1-2.6,1.8-4.7,2.1c0.8,0.4,1.4,0.7,1.8,1.1c0.9,0.8,1.7,1.8,2.4,2.9l3.9,6h-3.7  l-2.9-4.6c-0.9-1.3-1.6-2.3-2.1-3.1c-0.6-0.7-1-1.2-1.5-1.5c-0.4-0.3-0.9-0.5-1.3-0.6c-0.3-0.1-0.9-0.1-1.6-0.1h-3.4v9.8  L604.7,276.9L604.7,276.9L604.7,276.9z M607.6,264.5h6.3c1.3,0,2.4-0.1,3.1-0.4c0.8-0.3,1.3-0.7,1.7-1.3c0.4-0.6,0.6-1.3,0.6-2  c0-1-0.4-1.9-1.1-2.6c-0.8-0.7-2-1-3.6-1h-7V264.5z M637.6,271.7l2.8,0.3c-0.4,1.6-1.3,2.9-2.5,3.8c-1.2,0.9-2.7,1.4-4.6,1.4  c-2.3,0-4.2-0.7-5.6-2.2c-1.4-1.4-2.1-3.5-2.1-6.1c0-2.7,0.7-4.8,2.1-6.3c1.4-1.5,3.2-2.2,5.4-2.2c2.1,0,3.9,0.7,5.3,2.2  c1.4,1.5,2,3.5,2,6.2v0.7h-12c0.1,1.8,0.6,3.1,1.5,4s2,1.4,3.4,1.4c1,0,1.8-0.3,2.6-0.8C636.6,273.7,637.2,272.8,637.6,271.7  L637.6,271.7z M628.7,267.3h9c-0.1-1.4-0.5-2.4-1-3c-0.9-1-2-1.6-3.4-1.6c-1.3,0-2.3,0.4-3.1,1.3  C629.3,264.8,628.8,265.9,628.7,267.3L628.7,267.3z M654.3,271l2.7,0.3c-0.3,1.8-1,3.3-2.2,4.3c-1.2,1-2.7,1.6-4.4,1.6  c-2.2,0-4-0.7-5.3-2.2c-1.3-1.4-2-3.5-2-6.2c0-1.7,0.3-3.2,0.9-4.5c0.6-1.3,1.4-2.3,2.6-2.9c1.2-0.7,2.4-1,3.8-1  c1.7,0,3.2,0.4,4.3,1.3s1.8,2.1,2.1,3.8l-2.6,0.4c-0.3-1.1-0.7-1.9-1.3-2.4s-1.4-0.8-2.3-0.8c-1.4,0-2.5,0.5-3.3,1.5  c-0.9,1-1.3,2.5-1.3,4.7c0,2.2,0.4,3.7,1.2,4.7c0.8,1,1.9,1.5,3.2,1.5c1.1,0,2-0.3,2.7-1C653.7,273.3,654.1,272.3,654.3,271  L654.3,271z M658.3,268.8c0-3,0.8-5.2,2.5-6.6c1.4-1.2,3.1-1.8,5-1.8c2.2,0,4,0.7,5.4,2.2c1.4,1.4,2.1,3.4,2.1,6  c0,2.1-0.3,3.7-0.9,4.9c-0.6,1.2-1.5,2.1-2.7,2.8c-1.2,0.7-2.5,1-3.9,1c-2.2,0-4.1-0.7-5.4-2.2C659,273.6,658.3,271.5,658.3,268.8  L658.3,268.8z M661.1,268.8c0,2.1,0.4,3.6,1.3,4.6c0.9,1,2,1.5,3.4,1.5s2.5-0.5,3.4-1.5s1.3-2.6,1.3-4.7c0-2-0.4-3.5-1.4-4.5  c-0.9-1-2-1.5-3.4-1.5s-2.5,0.5-3.4,1.5C661.5,265.2,661.1,266.8,661.1,268.8L661.1,268.8z M676.5,276.9v-16h2.4v2.4  c0.6-1.1,1.2-1.9,1.7-2.3c0.5-0.4,1.1-0.5,1.7-0.5c0.9,0,1.8,0.3,2.8,0.9l-0.9,2.5c-0.7-0.4-1.3-0.6-2-0.6c-0.6,0-1.1,0.2-1.6,0.5  c-0.5,0.4-0.8,0.9-1,1.5c-0.3,1-0.5,2-0.5,3.2v8.4H676.5L676.5,276.9z M697.2,276.9v-2c-1,1.6-2.5,2.4-4.5,2.4  c-1.3,0-2.5-0.4-3.5-1.1c-1.1-0.7-1.9-1.7-2.5-3c-0.6-1.3-0.9-2.7-0.9-4.4c0-1.6,0.3-3.1,0.8-4.4c0.5-1.3,1.3-2.3,2.4-3  c1.1-0.7,2.3-1,3.6-1c1,0,1.8,0.2,2.6,0.6c0.8,0.4,1.4,0.9,1.8,1.6v-7.9h2.7v22.2L697.2,276.9L697.2,276.9z M688.6,268.9  c0,2.1,0.4,3.6,1.3,4.6c0.9,1,1.9,1.5,3.1,1.5c1.2,0,2.2-0.5,3-1.5c0.8-1,1.2-2.5,1.2-4.4c0-2.2-0.4-3.8-1.3-4.8  c-0.8-1-1.9-1.5-3.1-1.5c-1.2,0-2.2,0.5-3,1.5C689,265.2,688.6,266.7,688.6,268.9L688.6,268.9z M712.5,276.9v-22.1h2.7v22.1  L712.5,276.9L712.5,276.9z M719.5,257.8v-3.1h2.7v3.1H719.5z M719.5,276.9v-16h2.7v16H719.5z M726.3,276.9v-16h2.4v2.3  c1.2-1.8,2.9-2.6,5.1-2.6c1,0,1.9,0.2,2.7,0.5c0.8,0.4,1.4,0.8,1.8,1.4c0.4,0.6,0.7,1.2,0.8,2c0.1,0.5,0.2,1.4,0.2,2.6v9.9h-2.7  v-9.8c0-1.1-0.1-1.9-0.3-2.5c-0.2-0.5-0.6-1-1.1-1.3c-0.5-0.3-1.2-0.5-1.9-0.5c-1.2,0-2.2,0.4-3,1.1c-0.8,0.7-1.3,2.1-1.3,4.2v8.8  L726.3,276.9L726.3,276.9z M743.4,276.9v-22.1h2.7v12.6l6.4-6.5h3.5l-6.1,6l6.7,10.1h-3.4l-5.3-8.2l-1.9,1.8v6.4L743.4,276.9  L743.4,276.9z M769.4,274.9c-1,0.9-2,1.5-2.9,1.8c-0.9,0.4-1.9,0.5-3,0.5c-1.8,0-3.1-0.4-4.1-1.3c-0.9-0.9-1.4-2-1.4-3.3  c0-0.8,0.2-1.5,0.5-2.1c0.4-0.7,0.8-1.2,1.4-1.6c0.6-0.4,1.2-0.7,2-0.9c0.5-0.1,1.3-0.3,2.4-0.4c2.2-0.3,3.8-0.6,4.8-0.9V266  c0-1.1-0.3-1.9-0.8-2.3c-0.7-0.6-1.7-0.9-3.1-0.9c-1.3,0-2.2,0.2-2.8,0.7c-0.6,0.4-1.1,1.2-1.4,2.4l-2.7-0.4  c0.2-1.1,0.6-2.1,1.2-2.8c0.6-0.7,1.4-1.2,2.4-1.6c1-0.4,2.3-0.6,3.6-0.6c1.4,0,2.5,0.2,3.3,0.5c0.9,0.3,1.5,0.7,1.9,1.2  s0.7,1.1,0.8,1.8c0.1,0.5,0.1,1.3,0.1,2.5v3.6c0,2.5,0.1,4.1,0.2,4.8c0.1,0.7,0.3,1.3,0.7,1.9h-2.8  C769.6,276.3,769.4,275.6,769.4,274.9L769.4,274.9z M769.1,268.8c-1,0.4-2.5,0.7-4.4,1c-1.1,0.2-1.9,0.3-2.4,0.5  c-0.5,0.2-0.8,0.5-1.1,0.9c-0.3,0.4-0.4,0.8-0.4,1.3c0,0.7,0.3,1.3,0.8,1.8s1.4,0.7,2.4,0.7s2-0.2,2.8-0.7c0.8-0.5,1.4-1.1,1.8-1.9  c0.3-0.6,0.4-1.5,0.4-2.7L769.1,268.8L769.1,268.8L769.1,268.8z M775.6,278.2l2.6,0.4c0.1,0.8,0.4,1.4,0.9,1.8  c0.7,0.5,1.6,0.8,2.8,0.8c1.3,0,2.2-0.3,2.9-0.8c0.7-0.5,1.1-1.2,1.4-2.1c0.1-0.6,0.2-1.7,0.2-3.5c-1.2,1.4-2.7,2.1-4.4,2.1  c-2.2,0-3.9-0.8-5.1-2.4s-1.8-3.5-1.8-5.7c0-1.5,0.3-2.9,0.8-4.2c0.6-1.3,1.4-2.3,2.4-3c1.1-0.7,2.3-1.1,3.7-1.1  c1.9,0,3.5,0.8,4.7,2.3v-1.9h2.5v13.9c0,2.5-0.3,4.3-0.8,5.3s-1.3,1.9-2.4,2.5c-1.1,0.6-2.5,0.9-4.1,0.9c-1.9,0-3.5-0.4-4.6-1.3  C776.1,281.2,775.6,279.9,775.6,278.2L775.6,278.2z M777.8,268.6c0,2.1,0.4,3.6,1.3,4.6c0.8,1,1.9,1.4,3.1,1.4  c1.2,0,2.3-0.5,3.1-1.4c0.8-1,1.3-2.5,1.3-4.5c0-2-0.4-3.4-1.3-4.4c-0.9-1-1.9-1.5-3.1-1.5c-1.2,0-2.2,0.5-3.1,1.5  C778.3,265.2,777.8,266.6,777.8,268.6z M804.3,271.7l2.8,0.3c-0.4,1.6-1.3,2.9-2.5,3.8c-1.2,0.9-2.7,1.4-4.6,1.4  c-2.3,0-4.2-0.7-5.6-2.2c-1.4-1.4-2.1-3.5-2.1-6.1c0-2.7,0.7-4.8,2.1-6.3c1.4-1.5,3.2-2.2,5.4-2.2c2.1,0,3.9,0.7,5.3,2.2  c1.4,1.5,2,3.5,2,6.2v0.7h-12c0.1,1.8,0.6,3.1,1.5,4s2,1.4,3.4,1.4c1,0,1.8-0.3,2.6-0.8C803.3,273.7,803.9,272.8,804.3,271.7  L804.3,271.7z M795.3,267.3h9c-0.1-1.4-0.5-2.4-1-3c-0.9-1-2-1.6-3.4-1.6c-1.3,0-2.3,0.4-3.1,1.3  C795.9,264.8,795.4,265.9,795.3,267.3L795.3,267.3z M818,272.1l2.7-0.4c0.2,1.1,0.6,1.9,1.3,2.5c0.7,0.6,1.7,0.9,2.9,0.9  c1.3,0,2.2-0.3,2.8-0.8s0.9-1.1,0.9-1.8c0-0.6-0.3-1.1-0.8-1.4c-0.4-0.2-1.3-0.5-2.8-0.9c-2-0.5-3.4-0.9-4.1-1.3  c-0.8-0.4-1.4-0.9-1.8-1.5c-0.4-0.7-0.6-1.4-0.6-2.2c0-0.7,0.2-1.4,0.5-2c0.3-0.6,0.8-1.1,1.3-1.5c0.4-0.3,1-0.6,1.7-0.8  c0.7-0.2,1.5-0.3,2.3-0.3c1.3,0,2.4,0.2,3.3,0.5c1,0.4,1.7,0.9,2.1,1.5c0.5,0.6,0.8,1.4,0.9,2.5l-2.7,0.4c-0.1-0.8-0.5-1.5-1.1-1.9  c-0.6-0.5-1.4-0.7-2.5-0.7c-1.3,0-2.1,0.2-2.7,0.6c-0.5,0.4-0.8,0.9-0.8,1.4c0,0.4,0.1,0.7,0.3,1c0.2,0.3,0.6,0.5,1,0.7  c0.3,0.1,1.1,0.3,2.4,0.7c1.9,0.5,3.3,0.9,4,1.3c0.8,0.3,1.4,0.8,1.8,1.4c0.4,0.6,0.6,1.4,0.6,2.3s-0.3,1.8-0.8,2.6  c-0.5,0.8-1.3,1.4-2.3,1.9c-1,0.4-2.1,0.7-3.4,0.7c-2.1,0-3.7-0.4-4.8-1.3C819,275.1,818.3,273.8,818,272.1L818,272.1z M840.5,274.4  l0.4,2.4c-0.8,0.2-1.4,0.2-2.1,0.2c-1,0-1.8-0.2-2.3-0.5c-0.5-0.3-0.9-0.7-1.1-1.2c-0.2-0.5-0.3-1.6-0.3-3.2v-9.2h-2v-2.1h2v-4  l2.7-1.6v5.6h2.7v2.1h-2.7v9.4c0,0.8,0,1.3,0.1,1.5s0.3,0.4,0.5,0.5c0.2,0.1,0.5,0.2,0.9,0.2C839.6,274.5,840,274.5,840.5,274.4  L840.5,274.4z M853.7,276.9v-2.4c-1.2,1.8-2.9,2.7-5.1,2.7c-0.9,0-1.8-0.2-2.6-0.5c-0.8-0.4-1.4-0.8-1.8-1.4c-0.4-0.5-0.7-1.2-0.8-2  c-0.1-0.5-0.2-1.4-0.2-2.5v-9.9h2.7v8.9c0,1.4,0.1,2.4,0.2,2.9c0.2,0.7,0.5,1.3,1.1,1.7c0.6,0.4,1.2,0.6,2.1,0.6  c0.8,0,1.6-0.2,2.3-0.6c0.7-0.4,1.2-1,1.5-1.7c0.3-0.7,0.4-1.8,0.4-3.1V261h2.7v16L853.7,276.9L853.7,276.9z M870.7,276.9v-2  c-1,1.6-2.5,2.4-4.5,2.4c-1.3,0-2.5-0.4-3.5-1.1c-1.1-0.7-1.9-1.7-2.5-3c-0.6-1.3-0.9-2.7-0.9-4.4c0-1.6,0.3-3.1,0.8-4.4  c0.5-1.3,1.3-2.3,2.4-3c1.1-0.7,2.3-1,3.6-1c1,0,1.8,0.2,2.6,0.6s1.4,0.9,1.8,1.6v-7.9h2.7v22.2H870.7L870.7,276.9z M862.2,268.9  c0,2.1,0.4,3.6,1.3,4.6c0.9,1,1.9,1.5,3.1,1.5s2.2-0.5,3-1.5c0.8-1,1.2-2.5,1.2-4.4c0-2.2-0.4-3.8-1.3-4.8c-0.8-1-1.9-1.5-3.1-1.5  s-2.2,0.5-3,1.5C862.6,265.2,862.2,266.7,862.2,268.9L862.2,268.9z M877.4,283l-0.3-2.6c0.6,0.2,1.1,0.2,1.6,0.2  c0.6,0,1.1-0.1,1.4-0.3c0.4-0.2,0.7-0.5,0.9-0.8c0.2-0.3,0.4-1,0.8-2c0.1-0.2,0.1-0.4,0.2-0.7l-6.1-16.1h2.9l3.3,9.3  c0.4,1.2,0.8,2.4,1.2,3.7c0.3-1.2,0.7-2.5,1.1-3.7l3.4-9.3h2.7l-6.1,16.3c-0.7,1.8-1.2,3-1.5,3.6c-0.5,0.9-1,1.5-1.7,2  c-0.6,0.4-1.4,0.6-2.2,0.6C878.6,283.4,878.1,283.3,877.4,283L877.4,283z" fill="#1D1D1B"  /></svg>