<svg viewBox="0 0 506.7 284" role="img" aria-labelledby="toby--title" xmlns="http://www.w3.org/2000/svg" xmlns:xlink="http://www.w3.org/1999/xlink"><title id="toby--title">TOBY</title><path d="M197.4,211c0,0-14.8,0-14.8,14.8V269c0,0,0,14.8,14.8,14.8h43.2c0,0,14.8,0,14.8-14.8v-43.2  c0,0,0-14.8-14.8-14.8L197.4,211L197.4,211z" fill="#E3E3E3"  /><path d="M197.4,211c0,0-14.8,0-14.8,14.8V269c0,0,0,14.8,14.8,14.8h43.2  c0,0,14.8,0,14.8-14.8v-43.2c0,0,0-14.8-14.8-14.8L197.4,211L197.4,211L197.4,211z" fill="none"  stroke="#EDEDED"  stroke-width="0.579"  /><path d="M281.1,211c0,0-14.8,0-14.8,14.8V269c0,0,0,14.8,14.8,14.8h43.2c0,0,14.8,0,14.8-14.8v-43.2  c0,0,0-14.8-14.8-14.8L281.1,211L281.1,211z" fill="#DDDFF1"  /><path d="M281.1,211c0,0-14.8,0-14.8,14.8V269c0,0,0,14.8,14.8,14.8h43.2  c0,0,14.8,0,14.8-14.8v-43.2c0,0,0-14.8-14.8-14.8L281.1,211L281.1,211L281.1,211z" fill="none"  stroke="#E8EAF6"  stroke-width="0.579"  /><path d="M364.7,211c0,0-14.8,0-14.8,14.8V269c0,0,0,14.8,14.8,14.8h43.2c0,0,14.8,0,14.8-14.8v-43.2  c0,0,0-14.8-14.8-14.8L364.7,211L364.7,211z" fill="#D1D5EC"  /><path d="M364.7,211c0,0-14.8,0-14.8,14.8V269c0,0,0,14.8,14.8,14.8h43.2  c0,0,14.8,0,14.8-14.8v-43.2c0,0,0-14.8-14.8-14.8L364.7,211L364.7,211L364.7,211z" fill="none"  stroke="#DDDFF1"  stroke-width="0.579"  /><path d="M448.4,211c0,0-14.8,0-14.8,14.8V269c0,0,0,14.8,14.8,14.8h43.2c0,0,14.8,0,14.8-14.8v-43.2  c0,0,0-14.8-14.8-14.8L448.4,211L448.4,211z" fill="#E3E3E3"  /><path d="M448.4,211c0,0-14.8,0-14.8,14.8V269c0,0,0,14.8,14.8,14.8h43.2  c0,0,14.8,0,14.8-14.8v-43.2c0,0,0-14.8-14.8-14.8L448.4,211L448.4,211L448.4,211z" fill="none"  stroke="#EDEDED"  stroke-width="0.579"  /><path d="M15,0.3c0,0-14.8,0-14.8,14.8v43.2c0,0,0,14.8,14.8,14.8h43.2c0,0,14.8,0,14.8-14.8V15c0,0,0-14.8-14.8-14.8  H15z" fill="#E3E3E3"  /><path d="M15,0.3c0,0-14.8,0-14.8,14.8v43.2c0,0,0,14.8,14.8,14.8h43.2  c0,0,14.8,0,14.8-14.8V15c0,0,0-14.8-14.8-14.8H15L15,0.3z" fill="none"  stroke="#EDEDED"  stroke-width="0.579"  /><path d="M98.7,0.3c0,0-14.8,0-14.8,14.8v43.2c0,0,0,14.8,14.8,14.8h43.2c0,0,14.8,0,14.8-14.8V15  c0,0,0-14.8-14.8-14.8H98.7z" fill="#DDDFF1"  /><path d="M98.7,0.3c0,0-14.8,0-14.8,14.8v43.2c0,0,0,14.8,14.8,14.8h43.2  c0,0,14.8,0,14.8-14.8V15c0,0,0-14.8-14.8-14.8H98.7L98.7,0.3z" fill="none"  stroke="#E8EAF6"  stroke-width="0.579"  /><path d="M182.4,0.3c0,0-14.8,0-14.8,14.8v43.2c0,0,0,14.8,14.8,14.8h43.2c0,0,14.8,0,14.8-14.8V15  c0,0,0-14.8-14.8-14.8H182.4z" fill="#D1D5EC"  /><path d="M182.4,0.3c0,0-14.8,0-14.8,14.8v43.2c0,0,0,14.8,14.8,14.8h43.2  c0,0,14.8,0,14.8-14.8V15c0,0,0-14.8-14.8-14.8H182.4L182.4,0.3z" fill="none"  stroke="#DDDFF1"  stroke-width="0.579"  /><path d="M266.1,0.3c0,0-14.8,0-14.8,14.8v43.2c0,0,0,14.8,14.8,14.8h43.2c0,0,14.8,0,14.8-14.8V15  c0,0,0-14.8-14.8-14.8H266.1L266.1,0.3z" fill="#E3E3E3"  /><path d="M266.1,0.3c0,0-14.8,0-14.8,14.8v43.2c0,0,0,14.8,14.8,14.8h43.2  c0,0,14.8,0,14.8-14.8V15c0,0,0-14.8-14.8-14.8H266.1L266.1,0.3L266.1,0.3z" fill="none"  stroke="#EDEDED"  stroke-width="0.579"  /><path d="M332.3,169.9c1.1,1.1,2.4,1.7,4.1,1.7c1.7,0,3-0.6,4.1-1.7c1.1-1.1,1.6-2.9,1.6-5.2v-17.9l14.1-21.6  c1.2-1.8,2-3.1,2.5-4.2c0.5-1,0.7-2,0.7-3c0-1.2-0.5-2.3-1.4-3.2c-1-0.9-2.2-1.4-3.6-1.4c-0.9,0-1.7,0.2-2.3,0.5  c-0.6,0.3-1.2,0.8-1.7,1.4c-0.5,0.6-1,1.3-1.4,2c-0.4,0.7-1,1.6-1.6,2.7l-10.6,17.1L326.1,120c-1.6-2.6-2.8-4.4-3.6-5.3  c-0.8-0.9-2-1.3-3.6-1.3c-1.5,0-2.7,0.5-3.7,1.4c-1,0.9-1.5,2.1-1.5,3.4c0,0.8,0.3,1.7,0.8,2.8c0.5,1.1,1.4,2.6,2.6,4.5l13.8,21.3  v17.9C330.8,167,331.3,168.8,332.3,169.9 M282.2,122.9c4.2,0,7.2,0.5,9.3,1.4c2,0.9,3,2.8,3,5.7c0,1.3-0.3,2.5-1,3.6  c-0.8,1.5-2,2.5-3.5,3.1c-1.6,0.5-3.8,0.8-6.6,0.8h-10.5v-14.6L282.2,122.9L282.2,122.9z M293.7,147.6c2,1.3,3,3.3,3,6.2  c0,5.6-3.9,8.3-11.6,8.3h-12.3v-16.5h11.9C288.8,145.7,291.7,146.3,293.7,147.6 M293.4,170.2c2.2-0.3,4.2-0.8,5.9-1.5  c2.7-1.2,5-3.1,6.5-5.6c1.6-2.5,2.4-5.4,2.4-8.5c0-6.8-3.7-11.4-11.1-13.8c5.6-2.6,8.5-6.7,8.5-12.4c0-1.6-0.3-3.2-0.8-4.7  c-0.5-1.5-1.3-2.8-2.3-4c-1-1.2-2.2-2.2-3.5-3c-1.6-1-3.3-1.6-5.3-1.9c-2-0.3-4.3-0.5-7-0.5h-18.3c-2.4,0-4.2,0.5-5.3,1.6  c-1.1,1.1-1.6,2.9-1.6,5.4v42.4c0,2.4,0.5,4.2,1.6,5.3c1.1,1.1,2.8,1.7,5.3,1.7h17.2C288.6,170.7,291.2,170.5,293.4,170.2   M238.1,153.6c-1.5,3.1-3.4,5.3-5.8,6.8c-2.4,1.5-5.1,2.2-8.1,2.2c-2.3,0-4.4-0.4-6.3-1.3c-1.9-0.8-3.6-2.1-5.1-3.8  c-1.5-1.7-2.6-3.9-3.4-6.4c-0.8-2.6-1.2-5.5-1.2-8.7c0-3.2,0.4-6,1.2-8.6c0.8-2.5,1.9-4.6,3.3-6.3c1.4-1.6,3.1-2.9,5-3.8  c1.9-0.9,4-1.3,6.3-1.3c3.2,0,6,0.8,8.5,2.3c2.5,1.6,4.4,3.8,5.7,6.9c1.3,3,2,6.6,2,10.7C240.2,146.8,239.5,150.6,238.1,153.6   M212.5,115.4c-3.4,1.3-6.3,3.3-8.6,5.8c-2.4,2.5-4.2,5.6-5.4,9.2c-1.2,3.6-1.9,7.6-1.9,11.9c0,4.2,0.6,8.2,1.8,11.8  c1.2,3.6,3,6.8,5.3,9.3c2.3,2.6,5.2,4.6,8.7,6c3.5,1.4,7.4,2.1,11.8,2.1c4.4,0,8.4-0.7,11.8-2.1c3.4-1.4,6.3-3.4,8.7-6  c2.4-2.6,4.1-5.7,5.3-9.3c1.2-3.6,1.8-7.5,1.8-11.9c0-5.9-1.1-11-3.2-15.4c-2.2-4.4-5.3-7.7-9.5-10.1c-4.2-2.4-9.2-3.6-15-3.6  C219.7,113.4,215.9,114,212.5,115.4 M192,122.5c1-0.9,1.5-2,1.5-3.4c0-1.4-0.5-2.5-1.4-3.4c-1-0.9-2.4-1.3-4.4-1.3h-36.3  c-1.9,0-3.3,0.4-4.3,1.3c-1,0.8-1.5,2-1.5,3.5c0,1.4,0.5,2.5,1.4,3.4c0.9,0.9,2.4,1.3,4.3,1.3h12.5v40.9c0,2.3,0.5,4.1,1.6,5.2  c1.1,1.2,2.4,1.7,4.1,1.7c1.7,0,3-0.6,4.1-1.7c1.1-1.1,1.6-2.9,1.6-5.3v-40.9h12.5C189.6,123.7,191.1,123.3,192,122.5" fill="#004996"  /><path d="M379.3,253.6H126.8c-21.1,0-28.7-17.2-28.7-28.7V59.2c0-21.1,17.2-28.7,28.7-28.7h252.5  c21.1,0,28.7,17.2,28.7,28.7v165.7C408,245.9,390.9,253.6,379.3,253.6L379.3,253.6z M126.8,43.6c-2.6,0-15.6,1-15.6,15.6v165.7  c0,2.6,1,15.6,15.6,15.6h252.5c2.6,0,15.6-1,15.6-15.6V59.2c0-2.6-1-15.6-15.6-15.6L126.8,43.6L126.8,43.6z" fill="#004996"  /></svg>