<svg viewBox="0 0 898.7 283.5" role="img" aria-labelledby="toscin--title" xmlns="http://www.w3.org/2000/svg" xmlns:xlink="http://www.w3.org/1999/xlink"><title id="toscin--title">TOSCIN</title><path d="M74.8,279.4c-2.1-2.1-3.2-5-3.2-8.6V103H11.3c-3.4,0-6-0.8-7.9-2.5s-2.8-4.1-2.8-7.3c0-3.2,0.9-5.6,2.8-7.3  s4.5-2.5,7.9-2.5h143.9c3.4,0,6,0.8,7.9,2.5c1.9,1.7,2.8,4.1,2.8,7.3s-0.9,5.6-2.8,7.3c-1.9,1.7-4.5,2.5-7.9,2.5H94.9v167.8  c0,3.6-1,6.4-3.1,8.6c-2.1,2.1-4.9,3.2-8.4,3.2C79.8,282.6,77,281.5,74.8,279.4z" fill="#00A98F"  /><path d="M174.2,274.5c-9.8-5.8-17.4-14.1-22.7-24.8c-5.3-10.8-8-23.2-8-37.5c0-14.2,2.7-26.7,8-37.5  c5.3-10.8,12.9-19,22.7-24.8c9.8-5.8,21.2-8.7,34.1-8.7c12.9,0,24.3,2.9,34.2,8.7s17.5,14.1,22.9,24.8c5.3,10.8,8,23.2,8,37.5  c0,14.2-2.7,26.7-8,37.5c-5.3,10.8-13,19-22.9,24.8s-21.3,8.7-34.2,8.7C195.4,283.2,184,280.3,174.2,274.5z M239.3,251.1  c7.2-8.9,10.8-21.8,10.8-38.9c0-16.7-3.7-29.5-10.9-38.6c-7.3-9.1-17.6-13.6-30.9-13.6c-13.3,0-23.6,4.5-30.9,13.6  c-7.3,9.1-10.9,21.9-10.9,38.6c0,16.8,3.6,29.7,10.8,38.7s17.5,13.5,31,13.5C221.8,264.4,232.1,259.9,239.3,251.1z" fill="#00A98F"  /><path d="M333.6,277.2c-12.8-4.2-23.1-9.9-30.7-17c-2.8-2.6-4.2-5.9-4.2-9.8c0-2.6,0.7-4.9,2.2-6.9  c1.5-2,3.3-2.9,5.3-2.9c2.4,0,5.1,1,7.9,3.1c17.4,13.5,37.2,20.2,59.5,20.2c16.1,0,28.4-3.1,37-9.3s12.9-15,12.9-26.4  c0-6.5-2.1-11.8-6.2-15.8s-9.5-7.3-16.3-9.7c-6.7-2.4-15.8-5-27.2-7.6c-15.3-3.6-27.9-7.3-37.7-11.2c-9.8-3.9-17.8-9.5-23.9-16.8  c-6.1-7.3-9.1-16.8-9.1-28.6c0-11.2,3-21.2,9.1-29.9c6.1-8.7,14.6-15.4,25.5-20.2c10.9-4.8,23.4-7.2,37.5-7.2c13.1,0,25.3,2,36.6,6  c11.3,4,20.8,9.8,28.5,17.3c3,3,4.5,6.3,4.5,9.8c0,2.6-0.8,4.9-2.2,6.9c-1.5,2-3.3,2.9-5.3,2.9c-2.1,0-4.8-1-8.1-3.1  c-9.2-7.5-17.7-12.7-25.5-15.7c-7.9-3-17.3-4.5-28.3-4.5c-15.5,0-27.6,3.2-36.2,9.7c-8.6,6.5-12.9,15.5-12.9,27.1  c0,9.9,3.8,17.4,11.4,22.3c7.6,5,19.2,9.3,34.9,13c17,4.1,30.4,7.9,40.1,11.4c9.7,3.5,17.8,8.7,24.3,15.6c6.5,6.9,9.7,16.2,9.7,27.8  c0,11-3,20.8-9.1,29.2c-6.1,8.4-14.6,15-25.7,19.6c-11,4.7-23.7,7-37.9,7C359.8,283.5,346.4,281.4,333.6,277.2z" fill="#00A98F"  /><path d="M519.2,271.3c-13.7-8.1-24.2-19.8-31.6-35.1c-7.4-15.2-11.1-33.3-11.1-54c0-20.6,3.7-38.5,11.1-53.7  c7.4-15.2,17.9-26.9,31.6-35.1c13.7-8.1,29.8-12.2,48.5-12.2c12.5,0,24.4,2,35.5,6c11.1,4,20.8,9.8,29,17.3c3,2.8,4.5,6.1,4.5,9.8  c0,2.6-0.8,4.9-2.2,6.9c-1.5,2-3.3,2.9-5.3,2.9c-2.2,0-5-1-8.1-3.1c-9.5-7.5-18.2-12.7-26-15.7c-7.8-3-16.7-4.5-26.8-4.5  c-21.7,0-38.4,7.1-50.1,21.2c-11.7,14.1-17.5,34.2-17.5,60.2c0,26.2,5.8,46.3,17.5,60.5c11.7,14.1,28.4,21.2,50.1,21.2  c9.9,0,18.8-1.5,26.7-4.5c7.9-3,16.6-8.2,26.1-15.7c3.2-2.1,5.9-3.1,8.1-3.1c2.1,0,3.8,0.9,5.3,2.8c1.5,1.9,2.2,4.2,2.2,7  c0,3.7-1.5,7-4.5,9.8c-8.2,7.5-17.9,13.2-29,17.3c-11.1,4-23,6-35.5,6C549,283.5,532.8,279.4,519.2,271.3z" fill="#FF9E18"  /><path d="M675.5,108.4c-2.8-2.6-4.2-6.1-4.2-10.4c0-4.1,1.4-7.5,4.2-10.1S682,84,686.4,84c4.5,0,8.1,1.3,10.9,3.9  c2.8,2.6,4.2,6,4.2,10.1c0,4.3-1.4,7.8-4.2,10.4s-6.5,3.9-10.9,3.9C681.9,112.3,678.3,111,675.5,108.4z M678.2,279.7  c-2.2-2-3.2-4.7-3.2-8.3V153c0-3.6,1.1-6.3,3.2-8.3c2.1-2,4.9-2.9,8.3-2.9s6.1,1,8.1,2.9c2.1,2,3.1,4.7,3.1,8.3v118.4  c0,3.7-1,6.5-3.1,8.4c-2.1,1.9-4.8,2.8-8.1,2.8S680.3,281.6,678.2,279.7z" fill="#FF9E18"  /><path d="M895.9,85.2c1.9,2.2,2.8,5,2.8,8.6v177.1c0,3.6-1,6.4-2.9,8.6c-2,2.1-4.7,3.2-8.3,3.2s-6.6-1.6-9.3-4.8  L761.8,122.1v148.7c0,3.6-1,6.4-2.9,8.6c-2,2.1-4.6,3.2-8,3.2c-3.4,0-6-1.1-7.9-3.2c-1.9-2.1-2.8-5-2.8-8.6v-177  c0-3.6,1-6.4,2.9-8.6c2-2.1,4.7-3.2,8.3-3.2c3.7,0,6.9,1.6,9.5,4.8l116.2,155.7V93.8c0-3.6,1-6.4,2.9-8.6c2-2.1,4.6-3.2,8-3.2  C891.4,82,894.1,83.1,895.9,85.2z" fill="#FF9E18"  /><path d="M85.1,80.3" fill="#FFFFFF"  /><path d="M44.6,101.4c-7.5,0-14.6-1.9-21.1-5.7c-0.5-0.3-1-0.7-1.5-1c-0.3-0.2-0.6-0.4-1-0.6  c-0.6-0.4-1.1-0.6-1.7-0.6c-0.9,0-1.6,0.7-2,1.2c-0.2,0.3-0.5,0.6-0.7,1c-1.5,2.1-2.9,3.5-4.6,4.4c-1.3,0.7-2.6,1-3.9,1l0,0  c-3.1,0-5.3-1.9-6.3-5.2c-1-3.4-1.2-6.7-0.6-10c0.8-4.8,2.5-9,5.2-12.6c1.5-2,3.5-3.4,5.8-5c0.8-0.5,1-1.1,0.8-2l-0.2-1.1  c-0.5-2.1-1-4.2-1.4-6.4c-0.1-0.7-0.1-1.4-0.1-2.1c0-0.3,0-0.7,0-1c0-0.2,0-0.5,0.1-1.1l0.1-1.2c0.1-1.6,0.4-4.5,0.8-6  c1.1-4.2,2.7-7.6,5-10.4c4.4-5.2,10.4-8.2,18.3-9c1.1-0.1,2.2-0.2,3.3-0.2c4.7,0,9.5,1.1,14.6,3.3c1.7,0.7,3.4,1.5,5,2.4  c1.6,0.8,3.2,1.6,4.8,2.3c2.8,1.2,5.7,2.3,8.5,3.3c1.3,0.5,2.6,0.9,4,1.3l2.8,0.8l0.8-2.5c0.5-1.3,0.9-2.6,1.3-3.9  c0.2-0.7,0.1-1.9-0.4-2.6c-2-2.6-2.9-5.5-2.8-8.8c0.2-5.2,2.4-9.1,6.5-11.8c1.1-0.7,2.2-1,3.3-1c1.5,0,2.8,0.6,3.8,1.7  c0.5,0.5,0.8,1.2,1.2,1.9c0.2,0.3,0.4,0.7,0.6,1l0.6,1l4.8-4.8c3.1-3.1,6.7-5.5,10.8-7.2c5.2-2.2,10.4-3.2,15.7-3.2  c0.6,0,1.1,0,1.7,0c5.2,0.2,9.7,1.5,13.9,3.8c3.1,1.7,6.3,4.1,9.9,7.5c4.9,4.6,8.1,9.5,10,15c2.1,6.2,2.6,12.6,1.6,19.7  c-1.1,8.3-4.9,15.8-11.1,22.1c-3.5,3.6-7.7,6.7-13.1,9.9c-1,0.6-1.9,1.1-2.9,1.7c-1.9,1.1-3.9,2.2-5.7,3.4c-4.9,3.4-9.9,5-15.4,5  c-0.7,0-1.4,0-2.1-0.1l0,0c-0.8,0-1.4,0.3-1.8,0.8c-2.2,2.7-5.1,4.1-8.6,4.2c-2.6,0.1-4.9,0.8-7.2,2.2c-3,1.9-6,2.9-9.2,3.1  c-0.4,0-0.9,0-1.3,0c-7,0-12.3-4.1-13.9-10.8c-0.2-0.8-0.3-1.5-0.4-2.3l-0.3-2l-0.8,0c-0.6,0.1-2.1,0.3-2.4,2  c-0.2,1.4-0.5,2.6-0.8,3.7c-1.3,3.8-3.4,6.6-6.5,8.5c-2.1,1.4-4.7,2.2-8,2.6C48.4,101.3,46.5,101.4,44.6,101.4z" fill="#FFFFFF"  /><g><path d="M126.4,40c-0.5-4.3,1.1-7.8,4.8-10.2c0.9-0.6,1.9-1.1,3.3-1.2c-0.7,0.7-1.3,1.2-1.7,1.7   c-2.7,3-4.3,6.5-3.3,10.6c0.6,2.7,2.3,4.4,4.9,5.5c0-0.4,0.1-0.6,0.1-0.9c0.2-2.5,1.6-4.4,4.1-4.9c1.1-0.3,2.3-0.1,3.4-0.2   c2.9-0.2,5.2-1.5,6.8-3.9c1.3-1.9,1.7-4,1.4-6.5c1.7,2.6,1.9,5.8,0.5,8.1c-1.3,2.3-3.3,3.7-5.9,4.2c-1.6,0.3-3.3,0.4-4.9,0.5   c-1.3,0.1-2.3,0.7-2.7,1.9c-0.3,1.1-0.4,2.3-0.4,3.5c0,1.2-0.5,1.6-1.6,1.2c-0.6-0.2-1.2-0.4-1.8-0.6   C129.5,47.3,126.9,44.4,126.4,40z" fill="#00A98F"  /><path d="M99.4,44.7c0.2-2.2,0.5-2.6,0.9-3.4c0.2-0.4,0.7-0.7,1.2-0.7c0.4,0,0.9,0.5,1.1,0.9   c0.2,0.6,0.3,1.2,0.3,1.9c0.3,3,1.6,5.1,5,5.4c0.4,0,0.7,0.1,1.1,0.3c0.7,0.3,1.4,0.6,1.3,1.5c0,0.8-0.7,1.4-1.7,1.6   C104.3,52.9,99.6,50,99.4,44.7z" fill="#00A98F"  /><path d="M121.9,63.3c0.5,0,1,0.5,1.1,0.9c0.1,0.4,0.2,0.7,0.2,1c0.3,2.3,1.4,4,3.5,5c0.9,0.4,1.8,0.7,2.7,1   c0.6,0.2,0.9,0.7,0.9,1.4c-0.1,0.7-0.4,1.2-1.1,1.2c-1,0.1-1.1,0.1-2.1,0c-4-0.8-6.2-2.8-7-7.2c0-1.2,0.3-1.7,0.6-2.5   C120.8,63.7,121.2,63.3,121.9,63.3z" fill="#00A98F"  /><path d="M95.9,64.7c0.4,0,0.6,0.5,0.7,0.8c0.2,0.6,0.3,1.2,0.4,1.8c0.7,2.9,2.5,4.9,5.5,5.7   c0.8,0.2,1.7,0.3,2.5,0.5c0.4,0.1,0.9,0.4,0.9,0.8c0,0.6-0.4,0.9-0.8,1c-0.4,0.2-0.3,0.1-0.6,0.2c-5.2,1-9.7-2.6-10.1-8   c0-1,0.2-1.6,0.5-2.3C95,65,95.3,64.7,95.9,64.7z" fill="#00A98F"  /><path d="M1,96.1c1.7,6.2,7.3,7,11.5,4.7c2-1.1,3.5-2.7,4.8-4.5c0.3-0.4,0.5-0.7,0.8-1.1c0.8-1,1.4-1.1,2.4-0.4   c0.8,0.6,1.7,1.2,2.5,1.7c8.5,4.9,17.7,6.6,27.4,5.4c3-0.4,5.8-1.1,8.4-2.7c3.4-2.2,5.6-5.3,6.8-9c0.4-1.2,0.6-2.6,0.9-3.9   c0.1-0.7,0.4-1.1,1-1.1c0.6,0,0.8,0.7,0.8,1.1c0.1,0.8,0.3,1.5,0.4,2.3c1.8,7.6,8.3,12,16.2,11.4c3.5-0.3,6.6-1.4,9.6-3.3   c2.1-1.3,4.3-2,6.7-2c3.8-0.1,6.9-1.5,9.3-4.5c0.2-0.3,0.7-0.5,1-0.4c6.6,0.5,12.6-1.3,18-5.1c2.7-1.9,5.7-3.4,8.6-5   c4.8-2.8,9.3-6,13.3-10c6.2-6.3,10.2-13.8,11.4-22.6c0.9-6.8,0.5-13.5-1.7-20.1c-2-6.1-5.6-11.1-10.2-15.4c-3.1-2.9-6.3-5.5-10-7.6   c-4.5-2.5-9.2-3.7-14.3-3.9c-6.2-0.3-12.1,0.9-17.7,3.3c-4.2,1.8-7.9,4.2-11.1,7.4c-1.4,1.4-2.7,2.7-4,4c-0.6-1-1.1-2.1-1.9-3   c-2.1-2.4-5.4-2.7-8.3-0.8c-4.5,2.9-6.7,7.2-6.9,12.5c-0.1,3.5,0.9,6.6,3,9.4c0.3,0.4,0.4,1.2,0.2,1.8c-0.5,1.8-1.2,3.6-1.8,5.5   c-2.1-0.6-4-1.2-5.9-1.8c-2.8-1-5.7-2-8.5-3.3c-3.3-1.4-6.5-3.2-9.9-4.6c-5.9-2.5-12-3.8-18.4-3.1c-7.4,0.8-14,3.5-18.9,9.3   c-2.6,3.1-4.2,6.8-5.2,10.7c-0.4,1.8-0.9,5.9-0.8,6.2c0,0.7-0.1,1.5-0.1,2.2c0,1.1-0.1,2.3,0,3.4c0.4,2.5,1,5,1.6,7.5   c0.1,0.5,0,0.8-0.4,1.1c-2.2,1.5-4.4,3-6,5.2C2.7,76.9,1,81.2,0.2,86C-0.2,89.2,0.1,92.7,1,96.1z M88.3,22.6   c-0.1-1.3-0.3-2.6-0.5-3.9c-0.1-0.6-0.3-1.3-1.1-1.1c-0.8,0.1-0.7,0.8-0.8,1.3c-0.1,1-0.2,2.1-0.3,3.1c-0.4,2.5-0.9,4.9-2.1,7.1   c-0.5,0.8-1.3,1-1.9,0.3c-0.5-0.6-1-1.3-1.3-2c-1.1-3-0.7-6,0.4-8.9c0.8-2.1,2.1-4,4.2-5.1c1.9-1,4.5-0.2,5.5,1.5   C91.6,17.4,90.5,21.3,88.3,22.6z M108,86.2c-5.9-1.1-11.1-3.8-15.5-7.8c-3.4-3.1-6.2-6.8-8.2-10.9c-3-6-4.7-12.3-4.3-19.1   c0.4-5.4,2-10.5,5.1-15c3.1-4.6,6.3-9.2,9.5-13.7c1.5-2.1,3.1-4.1,4.9-5.9c3-3.1,6.7-5.4,10.7-7c4.3-1.8,8.8-2.8,12.2-3   c8.9-0.3,15.5,2,21.4,6.6c3.3,2.6,6.2,5.7,8.7,9.1c3.5,4.8,5.8,10,6.7,15.9c0.6,3.8,0.5,7.5-0.1,11.3c-0.9,5.6-2.8,10.8-5.8,15.6   c-2.9,4.7-7,8.3-11.6,11.2c-4.9,3.1-9.9,6.2-15,9.1C120.8,86.1,114.6,87.5,108,86.2z M8.9,74.3c0.5-0.5,1.1-1,1.7-1.4   c1.7-1.1,3.3-0.8,4.9,0.1c3.1,1.7,7,4.3,9.3,5.3s3.1,1.2,4.9,1.7l0,0c0.1,0,0.1,0.1,0.2,0.1c0.3,0,0.5-0.2,0.5-0.5   c0-0.1-0.1-0.3-0.1-0.4c0,0,0,0-0.1-0.1l0,0l0,0c-3-2.2-6.4-4.4-9.2-6.7c-3.1-2.6-5.3-5.9-6.2-9.9c-0.7-3.1-0.9-6.3-0.8-9.5   c0.2-4.7,1.5-9,4.3-12.8c4.6-6.2,10.9-9.2,18.4-9.5c6.7-0.3,13,1.3,19.1,4c7,3.2,13.9,6.7,21.5,8.7c-1.7,12.7,1.6,23.8,9.5,33.4   c0.2,0.2,0.2,0.8,0,0.9c-1,0.4-2.1,0.8-3.1,1.4c-0.4,0.2-0.7,0.6-0.7,1.1c0,0.7,0.5,1.2,1.2,1.2c0.3,0,0.5-0.1,0.7-0.2   c1.6-0.8,3.3-1.1,5.1-0.4c1.3,0.5,2.5,1.3,3.6,2c3.4,2.3,6.9,4.3,10.9,5.3c0.9,0.2,1.9,0.4,2.8,0.6c-0.6,1.9-4.9,3.7-7.5,3.1   c0.5-0.2,0.9-0.7,0.9-1.3c0-0.8-0.6-1.4-1.4-1.4c-0.1,0-0.2,0-0.3,0h-0.1c-0.7,0.2-1.2,0.9-1.7,1.3c-1.4,1.2-2.6,2.6-4.1,3.7   c-3.1,2.5-6.8,3.4-10.7,3.1c-6.5-0.4-12.9-6.9-10-15.3c1.2-3.6,3.5-6.2,6.3-8.6c0.6-0.5,1.3-1.1,1.8-1.8l0.1-0.1   c0.1-0.1,0.2-0.3,0.2-0.5c0-0.5-0.4-0.9-0.9-0.9c0,0,0,0-0.1,0l0,0c-0.2,0-0.7,0.3-1,0.5c-3.4,1.7-5.9,4.1-7.9,7.3   c-0.6,1-1,2.1-1.7,3c-0.4,0.5-0.5,1.2-1.3,1.2s-0.9-1-1.1-1.6c-0.6-1.9-1.1-3.8-1.8-5.7c-2-4.9-5.2-9-9.3-12.2   c-1.6-1.2-3.2-2.1-5-3.1c-0.1-0.1-0.2-0.1-0.3-0.1c-0.3,0-0.6,0.3-0.6,0.6c0,0.2,0.1,0.3,0.2,0.4l0,0c1,1,2.1,1.8,3.1,2.8   c4.9,4.5,8.5,9.8,10.1,16.4c1,4.2,1,8.4-1.3,12.2c-2.6,4.2-6.6,6.3-11.4,7c-4.7,0.6-9.5,0.3-14.2-0.6c-8.5-1.6-16-5.9-21.7-12.4   l0,0c-0.2-0.3-0.4-0.4-0.8-0.4c-0.5,0-0.9,0.4-0.9,0.9c0,0.1,0,0.2,0.1,0.3c0,0.1,0,0.1,0,0.2c0.2,0.4,1.9,2.7,2.5,3.7   c0.8,1.2,0.9,2,0,2.9c-1.2,1.3-2.5,2.7-3.9,3.8c-3.1,2.3-6.7,1-7.7-2.8C2,86.8,3.7,80.1,8.9,74.3z" fill="#00A98F"  />
	
	
	
	
	
</g></svg>