<svg viewBox="0 0 1058.8 283.5" role="img" aria-labelledby="ukmidss--title" xmlns="http://www.w3.org/2000/svg" xmlns:xlink="http://www.w3.org/1999/xlink"><title id="ukmidss--title">UKMIDSS - UK Midwifery Study System</title><path d="M67.5,182.4c-18.1,0-34-5.4-47.1-16.2c-11.3-9.1-18-20.2-19.8-33h0l-0.3-1.7L0,129.3L0,0h14.1v125.8  c0,11.8,5,21.6,15.3,29.9c10.4,8.4,23.2,12.7,38.1,12.7c15,0,27.8-4.3,38.3-12.7c10.3-8.3,15.3-18.1,15.3-29.9V0h14.1v126  c0,15.8-6.9,29.3-20.4,40.3C101.6,177,85.7,182.4,67.5,182.4z M281.3,182.4l-99.1-92.9v92.9h-14.1V0h14.1v59.4L271.1,0h25  L185.6,73.7l115.9,108.7H281.3z" fill="#551F75"  /><path d="M476.4,182.4V37.6l-61.5,144.8h-11.7L342,38.7v143.8H328V0h12.7l68.2,160.6L477.3,0h13.1v182.4H476.4z   M707.7,182.4v-28.6c-2.1,2.8-4.4,5.4-6.8,7.9c-13.7,13.7-30.6,20.7-50.2,20.7c-19.4,0-36.2-7-49.9-20.7  c-13.7-13.7-20.7-30.5-20.7-49.9s7-36.2,20.7-50c13.7-13.7,30.5-20.7,49.9-20.7c19.6,0,36.4,7,50.2,20.7c2.5,2.5,4.8,5.1,6.8,7.9V0  h13.9v182.4H707.7z M650.7,55c-15.5,0-28.9,5.6-40,16.6c-11,11-16.6,24.5-16.6,40.2c0,15.5,5.6,28.9,16.6,40  c11,11,24.5,16.6,40,16.6c15.6,0,29.1-5.6,40.2-16.6c11-11,16.6-24.5,16.6-40s-5.6-29-16.7-40.1C679.7,60.6,666.2,55,650.7,55  L650.7,55z M838.6,182.4h-82.5v-14.1h82.1c11.9,0,21.8-4.2,29.5-12.5c7.7-8.4,11.6-19.3,11.6-32.4c0-12.4-4.4-23.1-13.2-31.8  c-8.8-8.7-19.5-13.1-31.9-13.1h-40.1c-10.6-0.3-19.7-4.3-27-12c-7.3-7.6-11-16.8-11-27.3s3.7-19.7,11.1-27.3  c7.4-7.6,16.5-11.6,27-11.9h67.4v13.9h-66.2c-7.1,0-13,2.4-17.9,7.4c-4.9,5-7.3,10.9-7.3,18c0,7.2,2.4,13.1,7.3,18  c4.9,5,10.8,7.4,17.9,7.4h38.8c16.2,0,30.2,5.8,41.6,17.2c11.4,11.4,17.2,25.4,17.2,41.6c0,16.7-5,30.6-14.9,41.3  C867.7,176.2,854.5,182.1,838.6,182.4l-0.2,0.1L838.6,182.4L838.6,182.4z M920.8,182.4v-14.1h82.1c11.9,0,21.8-4.2,29.5-12.5  c7.7-8.4,11.6-19.3,11.6-32.4c0-12.4-4.4-23.1-13.2-31.8s-19.5-13.1-31.9-13.1h-40.1c-10.6-0.3-19.7-4.3-27-12  c-7.3-7.6-11-16.8-11-27.3c0-10.5,3.7-19.7,11.1-27.3c7.4-7.6,16.4-11.6,27-11.9h67.4v13.9h-66.2c-7.1,0-13,2.4-17.9,7.4  c-4.9,5-7.3,10.9-7.3,18c0,7.2,2.4,13.1,7.3,18c4.9,5,10.8,7.4,17.9,7.4h38.8c16.2,0,30.2,5.8,41.6,17.2  c11.4,11.4,17.2,25.4,17.2,41.6c0,16.7-5,30.6-14.9,41.3c-10.2,11.3-23.4,17.2-39,17.6l-0.5,0H920.8L920.8,182.4z" fill="#A22986"  /><g><path d="M35.1,211.6H41v37.1c0,7.4-1.8,12.8-5.5,16c-3.6,3.2-8.4,4.9-14.3,4.9c-6.6,0-11.4-1.7-14.6-5   c-3.2-3.3-4.7-8.6-4.7-15.9v-37.1H9v37.1c0,4.4,0.5,7.5,1.5,9.3s2.6,3.1,4.7,4c2.1,0.9,4.3,1.3,6.5,1.3c4.4,0,7.7-1.2,10-3.5   c2.3-2.3,3.4-6,3.4-11.2L35.1,211.6L35.1,211.6z M103.1,268.4h-7.8l-17-31.4l-13,16.2v15.1h-7.1v-56.8h7.1v32.9L91,211.6h7.7   l-15.4,19.9L103.1,268.4z M195.6,268.4h-6.9v-49.6l-18.4,49.6h-4.8l-18.6-49.6v49.6h-6v-56.8h10.5l17.2,45.4l16.8-45.4h10.4   L195.6,268.4L195.6,268.4z M219.8,211.6v7.3h-7v-7.3H219.8z M219.6,226.4v42H213v-42L219.6,226.4L219.6,226.4z M269.3,211.6v56.8   h-5.9v-7.2c-2.9,5.6-7.4,8.4-13.3,8.4c-4.9,0-9-2.1-12.1-6.2c-3.2-4.1-4.8-9.3-4.8-15.7c0-6.4,1.6-11.8,4.7-16.1   c3.1-4.3,7.3-6.4,12.5-6.4c5,0,9.2,2.3,12.4,6.9v-20.5L269.3,211.6L269.3,211.6z M262.7,242.6c0-3.7-1.1-6.6-3.4-8.9   c-2.2-2.2-4.9-3.3-7.9-3.3c-3.2,0-5.9,1.4-8,4.3c-2.1,2.9-3.1,6.9-3.1,12.2c0,5.6,1,9.9,2.9,12.9c1.9,2.9,4.6,4.4,7.9,4.4   c3.1,0,5.7-1.3,8.1-3.8c2.3-2.6,3.5-5.5,3.5-9L262.7,242.6L262.7,242.6z M334.6,226.4l-12.1,42h-5.3l-9.4-31.2l-8.6,31.2h-5.4   l-12.6-42h6.6l9.2,31.3l8.7-31.3h4.8l9.5,31.5l9.4-31.5L334.6,226.4L334.6,226.4z M353.3,211.6v7.3h-7v-7.3H353.3z M353.1,226.4v42   h-6.5v-42L353.1,226.4L353.1,226.4z M387.4,226.4v5.1h-10v36.9h-6.5v-36.9h-7.2v-5.1h7.2c0.1-6.7,1.4-11.1,3.9-13   c2.5-1.9,5.5-2.9,9.1-2.9c1.8,0,3.8,0.2,6,0.6v5.2c-1.4-0.4-2.8-0.5-4-0.5c-2.9,0-5,0.6-6.3,1.9c-1.4,1.3-2.1,3.6-2.1,7.1v1.7   L387.4,226.4L387.4,226.4z M425,255.9l6.1,1.2c-1.1,3.6-3.3,6.6-6.5,8.9c-3.2,2.4-7,3.5-11.4,3.5c-5.7,0-10.4-2-13.9-6.1   c-3.6-4-5.3-9.3-5.3-15.9c0-6.7,1.8-12.1,5.5-16.2c3.7-4.1,8.3-6.2,13.9-6.2c5.5,0,9.9,1.9,13.3,5.7c3.3,3.8,5,9.5,5.1,17.1h-30.6   c0,6.4,1.3,10.6,4,12.9c2.7,2.2,5.5,3.3,8.4,3.3C419.1,264.2,422.8,261.4,425,255.9L425,255.9z M424.6,243.1   c-0.1-2.4-0.5-4.4-1.2-6.3c-0.7-1.8-1.9-3.4-3.7-4.7c-1.7-1.3-3.8-1.9-6.2-1.9c-3.2,0-6,1.2-8.3,3.5c-2.3,2.3-3.5,5.5-3.8,9.4   L424.6,243.1L424.6,243.1z M452,268.4h-6.5v-42h5.7v9.8c2-4.6,4.1-7.6,6.1-9c2-1.4,4.1-2.1,6.3-2.1c0.7,0,1.5,0.1,2.6,0.2v6.2h-1.3   c-3.6,0-6.6,1.3-9,4c-2.4,2.7-3.7,6.2-3.8,10.6L452,268.4L452,268.4z M508.8,226.4l-16.9,46.9c-2.4,6.8-6.3,10.2-11.7,10.2   c-1.7,0-3.6-0.3-5.6-0.9v-5.1c1.7,0.4,3.1,0.6,4.4,0.6c2.1,0,3.8-0.6,5.2-1.8c1.4-1.2,2.8-4.1,4.2-8.7l-14.5-41.2h6.6l11.3,31.6   l11.5-31.6L508.8,226.4L508.8,226.4z M538.6,253.4l6.4-1.5c2.6,7.7,8.2,11.6,16.8,11.6c4.5,0,7.9-1,10.2-2.9   c2.3-1.9,3.4-4.5,3.4-7.7c0-2.4-0.9-4.4-2.6-5.9c-1.7-1.5-3.7-2.5-6-3.1l-11.4-2.8c-2.9-0.7-5.3-1.6-7.2-2.7   c-1.9-1.1-3.5-2.7-4.8-4.9c-1.3-2.2-2-4.8-2-7.6c0-4.8,1.8-8.5,5.4-11.4c3.6-2.8,8.2-4.2,13.8-4.2c10.3,0,17.1,4.7,20.4,14   l-6.5,1.9c-0.8-3.3-2.5-5.9-5.3-7.6c-2.8-1.7-5.7-2.6-8.9-2.6c-3.1,0-5.9,0.8-8.3,2.5c-2.4,1.6-3.6,4-3.6,7c0,4.2,3.1,7.1,9.2,8.5   l10.6,2.5c9.7,2.3,14.6,7.6,14.6,15.7c0,4.9-1.8,9-5.5,12.3c-3.7,3.3-8.8,4.9-15.4,4.9C550.2,269.6,542.4,264.2,538.6,253.4   L538.6,253.4z M615.7,263.9v5.2c-2.3,0.3-4.3,0.5-6,0.5c-8.1,0-12.2-4.3-12.2-12.8v-25.3h-7.5v-5.1h7.5l0.3-10.6l6.1-0.6v11.2h9.4   v5.1h-9.4v26.4c0,4.3,2.2,6.5,6.7,6.5C612.1,264.4,613.8,264.3,615.7,263.9L615.7,263.9z M659.8,268.4h-5.9v-8   c-3,6.1-7.5,9.2-13.4,9.2c-4.3,0-7.7-1.4-10.1-4.3c-2.5-2.8-3.7-6.9-3.7-12.1v-26.9h6.5v26.8c0,4.2,0.9,7,2.6,8.6   c1.7,1.6,3.6,2.3,5.7,2.3c2.1,0,4-0.6,5.7-1.8c1.7-1.2,3.1-2.9,4.3-5.1c1.1-2.2,1.7-4.6,1.7-7.2v-23.7h6.5L659.8,268.4L659.8,268.4   z M709.5,211.6v56.8h-5.9v-7.2c-2.9,5.6-7.4,8.4-13.3,8.4c-4.9,0-9-2.1-12.1-6.2c-3.2-4.1-4.8-9.3-4.8-15.7   c0-6.4,1.6-11.8,4.7-16.1c3.1-4.3,7.3-6.4,12.5-6.4c5.1,0,9.2,2.3,12.4,6.9v-20.5L709.5,211.6L709.5,211.6z M703,242.6   c0-3.7-1.1-6.6-3.4-8.9c-2.2-2.2-4.9-3.3-7.9-3.3c-3.3,0-5.9,1.4-8,4.3c-2.1,2.9-3.1,6.9-3.1,12.2c0,5.6,1,9.9,2.9,12.9   c1.9,2.9,4.6,4.4,7.9,4.4c3,0,5.7-1.3,8.1-3.8c2.3-2.6,3.5-5.5,3.5-9V242.6z M755.3,226.4l-16.9,46.9c-2.4,6.8-6.4,10.2-11.7,10.2   c-1.7,0-3.6-0.3-5.6-0.9v-5.1c1.7,0.4,3.2,0.6,4.4,0.6c2.1,0,3.8-0.6,5.2-1.8c1.4-1.2,2.8-4.1,4.2-8.7l-14.5-41.2h6.6l11.3,31.6   l11.5-31.6L755.3,226.4L755.3,226.4z M785.1,253.4l6.4-1.5c2.6,7.7,8.2,11.6,16.8,11.6c4.5,0,7.9-1,10.2-2.9   c2.3-1.9,3.4-4.5,3.4-7.7c0-2.4-0.9-4.4-2.6-5.9c-1.7-1.5-3.7-2.5-6-3.1l-11.4-2.8c-2.9-0.7-5.4-1.6-7.2-2.7   c-1.9-1.1-3.5-2.7-4.8-4.9c-1.3-2.2-2-4.8-2-7.6c0-4.8,1.8-8.5,5.4-11.4c3.6-2.8,8.2-4.2,13.8-4.2c10.3,0,17.1,4.7,20.3,14   l-6.4,1.9c-0.7-3.3-2.5-5.9-5.3-7.6c-2.8-1.7-5.7-2.6-8.9-2.6c-3.1,0-5.9,0.8-8.3,2.5c-2.4,1.6-3.6,4-3.6,7c0,4.2,3.1,7.1,9.2,8.5   l10.6,2.5c9.7,2.3,14.6,7.6,14.6,15.7c0,4.9-1.8,9-5.5,12.3c-3.7,3.3-8.8,4.9-15.4,4.9C796.6,269.6,788.9,264.2,785.1,253.4z    M872,226.4l-16.9,46.9c-2.4,6.8-6.3,10.2-11.7,10.2c-1.7,0-3.6-0.3-5.6-0.9v-5.1c1.7,0.4,3.2,0.6,4.4,0.6c2.1,0,3.8-0.6,5.2-1.8   c1.4-1.2,2.8-4.1,4.2-8.7L837,226.4h6.6L855,258l11.5-31.6L872,226.4L872,226.4z M876.7,257.5l6.2-1.3c1.4,5.3,5.8,7.9,13.2,7.9   c2.7,0,5-0.6,6.9-1.8c1.9-1.2,2.8-2.9,2.8-5.2c0-3.3-2.4-5.4-7.2-6.3l-8.9-1.7c-3.5-0.7-6.2-2-8.3-3.9c-2.1-1.9-3.1-4.5-3.1-7.7   c0-3.5,1.4-6.5,4.2-8.9c2.8-2.4,6.6-3.6,11.3-3.6c9.1,0,14.8,3.6,16.9,10.7l-6,1.3c-1.7-4.4-5.3-6.6-10.6-6.6   c-2.7,0-4.8,0.5-6.6,1.6c-1.7,1.1-2.6,2.6-2.6,4.6c0,3.1,2.2,5.1,6.5,5.9l8.2,1.5c8.6,1.6,12.9,5.7,12.9,12.5c0,3.9-1.6,7-4.8,9.4   c-3.2,2.4-7.4,3.6-12.7,3.6C885.2,269.6,879,265.5,876.7,257.5L876.7,257.5z M944.7,263.9v5.2c-2.3,0.3-4.3,0.5-6,0.5   c-8.1,0-12.2-4.3-12.2-12.8v-25.3h-7.5v-5.1h7.5l0.3-10.6l6.1-0.6v11.2h9.4v5.1h-9.4v26.4c0,4.3,2.3,6.5,6.7,6.5   C941.2,264.4,942.9,264.3,944.7,263.9L944.7,263.9z M982,255.9l6.1,1.2c-1.1,3.6-3.3,6.6-6.5,8.9c-3.2,2.4-7,3.5-11.4,3.5   c-5.7,0-10.4-2-13.9-6.1c-3.6-4-5.3-9.3-5.3-15.9c0-6.7,1.8-12.1,5.5-16.2c3.7-4.1,8.3-6.2,13.9-6.2c5.5,0,9.9,1.9,13.3,5.7   c3.3,3.8,5.1,9.5,5.1,17.1h-30.6c0,6.4,1.3,10.6,4,12.9c2.7,2.2,5.5,3.3,8.5,3.3C976.1,264.2,979.9,261.4,982,255.9L982,255.9z    M981.7,243.1c-0.1-2.4-0.4-4.4-1.2-6.3c-0.7-1.8-2-3.4-3.7-4.7c-1.7-1.3-3.8-1.9-6.2-1.9c-3.3,0-6,1.2-8.3,3.5   c-2.3,2.3-3.5,5.5-3.8,9.4L981.7,243.1L981.7,243.1z M1058.8,268.4h-6.4v-26.1c0-2.7-0.2-4.7-0.6-6.1c-0.4-1.4-1.3-2.6-2.7-3.7   c-1.4-1.1-3.1-1.7-4.9-1.7c-2.5,0-4.9,1.1-7.2,3.4c-2.3,2.3-3.5,5.8-3.5,10.5v23.7h-6.3v-27.7c0-3.7-0.9-6.3-2.6-7.8   c-1.8-1.5-3.6-2.3-5.6-2.3c-2.8,0-5.2,1.2-7.2,3.6c-2,2.4-3.1,5.4-3.1,9.1v25.1h-6.2v-42h5.6v8.1c3.1-6.2,7.5-9.3,12.9-9.3   c3,0,5.6,1,7.7,3c2.1,2,3.5,4.3,4.1,7.1c2.9-6.7,7.3-10.1,13.3-10.1c2.9,0,5.4,0.8,7.5,2.5c2.2,1.6,3.6,3.5,4.2,5.6   c0.7,2.1,1,5.1,1,9L1058.8,268.4L1058.8,268.4z" fill="#551F75"  />
	
</g><path d="M531.5,135.6h14.1v46.8h-14.1V135.6z" fill="#A22986"  /><path d="M565.5,69c0-14.8-12.1-26.9-26.9-26.9c-14.8,0-26.9,12.1-26.9,26.9c0,12.4,8.5,22.8,19.9,25.9v7.3h-9.5v14.1  h9.5v9.3h14.1v-9.3h9.5v-14.1h-9.5v-7.3C557,91.7,565.5,81.4,565.5,69z M523.7,69c0-8.2,6.6-14.8,14.8-14.8  c8.2,0,14.8,6.7,14.8,14.8c0,8.2-6.7,14.8-14.8,14.8C530.4,83.8,523.7,77.2,523.7,69z" fill="#551F75"  /></svg>