<svg viewBox="0 0 493.8 284.6" role="img" aria-labelledby="uknes--title" xmlns="http://www.w3.org/2000/svg" xmlns:xlink="http://www.w3.org/1999/xlink"><title id="uknes--title">UKNES - The National Maternal Near-miss Surveillance Programme</title><radialGradient id="SVGID_1_" cx="124.1428" cy="-692.2164" r="114.1562" gradientTransform="matrix(2.4844 0 0 -2.4844 -71.5504 -1575.5233)" gradientUnits="userSpaceOnUse"><stop offset="0.176" stop-color="#F3F7EC" ></stop><stop offset="0.313" stop-color="#EFF4E5" ></stop><stop offset="0.536" stop-color="#E3ECD1" ></stop><stop offset="0.819" stop-color="#CFE0B0" ></stop><stop offset="1" stop-color="#C0D697" ></stop>
	
	
	
	
	
</radialGradient><path d="M74,44.2C27,70.5,1.1,105.9,1.1,143.7  c0,37.8,25.9,73.2,72.9,99.5c46.2,25.9,107.6,40.2,172.9,40.2c65.2,0,126.6-14.3,172.9-40.2c47-26.4,72.9-61.7,72.9-99.5  c0-37.8-25.9-73.2-72.9-99.5C373.5,18.2,312.1,3.9,246.9,3.9C181.7,3.9,120.3,18.2,74,44.2" fill="url(#SVGID_1_)"  stroke="#74AF27"  stroke-width="2.215"  /><path d="M200.3,256.3c-0.3,0-0.5-0.1-0.7-0.3c-0.4-0.4-0.4-1,0-1.4l129.2-137.4l-85.5-93.8c-0.4-0.4-0.4-1,0-1.4  c0.2-0.2,0.5-0.3,0.7-0.3c0.3,0,0.5,0.1,0.7,0.3l93.8,85.5l114.3-106c0.4-0.4,1.1-0.4,1.5,0c0.4,0.4,0.4,1,0,1.4l-106,114.3  l80.1,88.3c0.4,0.4,0.4,1,0,1.4c-0.4,0.4-1,0.4-1.4,0l-88.3-80.1L201,256C200.9,256.2,200.6,256.3,200.3,256.3z" fill="#C0D697"  /><path d="M453.5,2.1L347.3,116.6l-0.5,0.5l0.5,0.5l80.2,88.5L339,125.9l-0.5-0.5l-0.5,0.5L200.3,255.2l129.3-137.6  l0.5-0.5l-0.5-0.5l-85.7-94l94,85.7l0.5,0.5l0.5-0.5L453.5,2.1 M453.5,0c-0.5,0-1,0.2-1.4,0.6L338.5,105.9L245.4,21  c-0.4-0.3-0.9-0.5-1.4-0.5c-1.1,0-2.1,0.9-2.1,2.1c0,0.5,0.2,1,0.5,1.4l84.9,93.1L198.8,253.8c-0.8,0.8-0.7,2.2,0.1,2.9  c0.4,0.4,0.9,0.6,1.4,0.6c0.5,0,1-0.2,1.4-0.6l136.7-128.5l87.6,79.4c0.8,0.7,2.1,0.7,2.9-0.1c0.8-0.8,0.8-2.1,0.1-2.9l-79.4-87.6  L455,3.5c0.8-0.8,0.7-2.1-0.1-2.9C454.6,0.2,454.1,0,453.5,0z" fill="#FFFFFF"  /><g><path d="M92.7,170.7c-4.3,0-8.1-0.4-11.5-1.2c-3.4-0.8-6.4-2-9-3.6   c-2.6-1.6-4.8-3.5-6.6-5.7c-1.8-2.3-3.3-4.8-4.4-7.6c-0.9-2.3-1.5-4.8-1.9-7.5c-0.4-2.8-0.6-5.8-0.6-9.3v-48h14.9v46.6   c0,5.8,0.7,10.3,2.1,13.5c1.5,3.6,3.8,6.2,6.8,7.8c3,1.6,6.5,2.4,10.5,2.4c4,0,7.5-0.8,10.5-2.4c3-1.6,5.2-4.2,6.8-7.8   c1.4-3.3,2.1-7.8,2.1-13.5V87.7h14.9v48c0,3.4-0.2,6.5-0.6,9.3c-0.4,2.8-1,5.3-1.9,7.5c-1.1,2.8-2.6,5.4-4.4,7.6s-4.1,4.2-6.8,5.7   c-2.7,1.6-5.7,2.8-9.2,3.6C100.9,170.2,97,170.7,92.7,170.7z M146.3,169.1V87.7h14.9v37.1h0.2l30.7-37.1h18.5l-34,40.4l36.8,41.1   h-19.1l-32.9-36.8h-0.2v36.8L146.3,169.1L146.3,169.1L146.3,169.1L146.3,169.1z M267.5,125.5c5.8,8.3,10.6,15.7,14.2,22.2h0.4   c-0.5-10.6-0.7-18.3-0.7-23.1V87.7h14.9v81.4h-15.6l-26.5-37.5c-4.7-6.5-9.5-14-14.5-22.6h-0.4c0.5,10,0.7,17.7,0.7,23.2v36.9   h-14.9V87.7h15.6L267.5,125.5L267.5,125.5z M344.3,159c2.8,0,5.7-0.3,8.8-0.9c3.1-0.6,6.2-1.4,9.3-2.4v11.5   c-1.9,0.8-4.7,1.6-8.6,2.3c-3.9,0.7-7.9,1.1-12,1.1c-4.2,0-8.1-0.5-11.9-1.6c-3.8-1.1-7-2.8-9.8-5.2c-2.8-2.4-5-5.5-6.7-9.3   c-1.6-3.8-2.5-8.4-2.5-13.9c0-5.4,0.8-10,2.3-14.1c1.5-4,3.6-7.3,6.2-10c2.6-2.6,5.6-4.6,8.9-5.9c3.3-1.3,6.8-2,10.4-2   c3.7,0,7.2,0.6,10.3,1.7c3.1,1.1,5.9,2.9,8.2,5.4c2.3,2.4,4.1,5.6,5.4,9.4c1.3,3.8,1.9,8.4,1.9,13.6c0,1.7-0.1,3.5-0.2,5.2h-38.7   c0.2,2.7,0.8,5,1.8,7c1,1.9,2.3,3.5,4,4.7c1.6,1.2,3.6,2.1,5.7,2.6C339.4,158.8,341.8,159,344.3,159L344.3,159z M338.5,119.9   c-1.8,0-3.5,0.3-4.9,1c-1.4,0.7-2.7,1.6-3.7,2.7c-1,1.2-1.9,2.5-2.5,4c-0.6,1.6-1,3.2-1.2,4.9h23.2c0-1.7-0.2-3.4-0.7-4.9   c-0.5-1.5-1.2-2.9-2.1-4c-0.9-1.2-2.1-2.1-3.4-2.7C342,120.3,340.4,119.9,338.5,119.9L338.5,119.9z M419.7,145.8   c0-2.1-0.5-3.7-1.5-5c-1-1.3-2.4-2.3-4.1-3.1c-1.8-0.8-3.7-1.5-5.9-2c-2.3-0.5-4.6-1-6.9-1.5c-3.1-0.7-6.1-1.5-9.1-2.5   c-2.9-1-5.4-2.3-7.6-4c-2.2-1.7-3.9-3.8-5.2-6.4c-1.3-2.6-1.9-5.8-1.9-9.7c0-4.3,0.8-8,2.3-11.2c1.5-3.2,3.5-5.8,6.1-7.9   c2.6-2.1,5.6-3.6,9.1-4.7c3.5-1,7.4-1.6,11.7-1.6c4.3,0,8.7,0.4,13.1,1.3c4.4,0.9,8.2,2,11.3,3.3v12.8c-4.2-1.7-8.3-2.9-12.1-3.6   c-3.9-0.8-7.5-1.1-10.9-1.1c-4.9,0-8.7,0.9-11.3,2.7c-2.7,1.8-4,4.5-4,8c0,2.1,0.4,3.8,1.3,5.1c0.9,1.3,2.1,2.4,3.6,3.3   c1.5,0.9,3.2,1.6,5.2,2.1s4,1,6.2,1.5c3.3,0.7,6.6,1.5,9.9,2.5c3.1,1,5.9,2.3,8.4,4c2.4,1.7,4.4,3.9,5.8,6.7   c1.4,2.7,2.1,6.2,2.1,10.5c0,4.4-0.8,8.2-2.4,11.4c-1.6,3.2-3.9,5.9-6.9,7.9c-3,2.1-6.6,3.6-10.9,4.7c-4.3,1-8.9,1.5-14,1.5   c-4.4,0-8.8-0.4-13.1-1.3c-4.3-0.9-7.8-2.1-10.7-3.7v-12.6c4,1.7,7.9,3,11.8,3.8c3.8,0.8,7.7,1.2,11.8,1.2c2.4,0,4.7-0.2,6.9-0.6   c2.3-0.4,4.3-1,6.1-2c1.8-0.9,3.3-2.2,4.3-3.8C419.2,150.1,419.7,148.1,419.7,145.8L419.7,145.8z" fill="#74AF27"  stroke="#FFFFFF"  stroke-width="1.108"  />
	
</g><g><path d="M71.5,210h-2.2v-15.7h-5.9v-1.9h13.9v1.9h-5.9C71.5,194.3,71.5,210,71.5,210z M82.1,199.2L82.1,199.2   c0.3-0.3,0.5-0.6,0.8-0.8c0.3-0.3,0.6-0.5,0.9-0.6c0.7-0.4,1.6-0.6,2.4-0.6c0.5,0,0.9,0.1,1.4,0.2c0.5,0.1,0.9,0.4,1.3,0.7   c0.4,0.3,0.7,0.8,1,1.4c0.3,0.6,0.4,1.3,0.4,2.3v8.4h-2V202c0-1-0.2-1.8-0.6-2.3c-0.4-0.5-1-0.8-1.9-0.8c-0.7,0-1.4,0.2-2.1,0.6   c-0.6,0.4-1.2,0.9-1.7,1.6v8.9h-2v-19.1h2L82.1,199.2L82.1,199.2L82.1,199.2z M100.3,208.6c0.7,0,1.3-0.1,1.9-0.2   c0.6-0.1,1.1-0.3,1.7-0.5v1.7c-0.4,0.2-1,0.4-1.7,0.5c-0.7,0.1-1.4,0.2-2.1,0.2c-0.9,0-1.7-0.1-2.5-0.3c-0.8-0.2-1.5-0.6-2-1.1   c-0.6-0.5-1-1.2-1.3-2c-0.3-0.8-0.5-1.8-0.5-3c0-1.1,0.2-2.1,0.5-3c0.3-0.8,0.7-1.5,1.3-2.1c0.5-0.5,1.1-1,1.8-1.3   c0.7-0.3,1.4-0.4,2.1-0.4c0.7,0,1.4,0.1,2,0.4c0.6,0.2,1.2,0.6,1.6,1.1c0.4,0.5,0.8,1.1,1.1,1.9c0.3,0.8,0.4,1.7,0.4,2.9v0.3   c0,0.1,0,0.2,0,0.5h-8.7c0,0.8,0.1,1.5,0.4,2c0.2,0.6,0.6,1,1,1.4c0.4,0.3,0.9,0.6,1.5,0.8C99,208.5,99.6,208.6,100.3,208.6   L100.3,208.6z M99.2,198.9c-0.5,0-0.9,0.1-1.3,0.3c-0.4,0.2-0.8,0.4-1.1,0.8c-0.3,0.3-0.6,0.7-0.7,1.1c-0.2,0.4-0.3,0.9-0.3,1.4   h6.4c0-0.5-0.1-1-0.2-1.4c-0.1-0.4-0.3-0.8-0.6-1.1c-0.2-0.3-0.6-0.6-0.9-0.8C100.1,199,99.6,198.9,99.2,198.9L99.2,198.9z    M122.5,202.2c1.1,1.6,2.2,3.2,3.2,4.8h0.1c-0.1-1.7-0.2-3.5-0.2-5.3v-9.4h2.2V210h-2.2l-6.9-9.8c-1.1-1.6-2.2-3.2-3.2-4.8h-0.1   c0.1,1.6,0.2,3.5,0.2,5.6v9h-2.2v-17.6h2.1L122.5,202.2L122.5,202.2z M139.3,208.6L139.3,208.6c-0.5,0.5-1,0.9-1.6,1.2   c-0.3,0.2-0.7,0.3-1.1,0.4c-0.4,0.1-0.8,0.1-1.3,0.1c-0.6,0-1.2-0.1-1.7-0.3c-0.5-0.2-0.9-0.4-1.3-0.8c-0.4-0.4-0.7-0.8-0.9-1.3   c-0.2-0.5-0.3-1.1-0.3-1.7c0-0.6,0.1-1.2,0.3-1.7c0.2-0.5,0.5-0.9,0.9-1.2c0.4-0.4,0.9-0.6,1.5-0.8c0.6-0.2,1.2-0.3,1.9-0.3   c0.6,0,1.3,0.1,1.8,0.2c0.6,0.1,1,0.2,1.5,0.4h0.1V202c0-0.3,0-0.6-0.1-0.9c0-0.2-0.1-0.5-0.2-0.7c-0.2-0.4-0.6-0.8-1.1-1   c-0.5-0.3-1.2-0.4-2-0.4c-0.6,0-1.2,0.1-1.8,0.2c-0.6,0.1-1.1,0.3-1.7,0.5v-1.7c0.2-0.1,0.5-0.2,0.7-0.3c0.3-0.1,0.6-0.2,0.9-0.2   c0.3-0.1,0.7-0.1,1-0.2c0.4,0,0.7-0.1,1.1-0.1c1.3,0,2.3,0.2,3.1,0.7c0.8,0.4,1.4,1,1.7,1.8c0.1,0.3,0.2,0.6,0.3,0.9   c0.1,0.3,0.1,0.7,0.1,1.1v8.4h-1.7L139.3,208.6L139.3,208.6z M139.2,204.5c-0.4-0.1-0.9-0.2-1.3-0.3c-0.6-0.1-1.1-0.2-1.7-0.2   c-0.9,0-1.5,0.2-2,0.5c-0.5,0.4-0.7,0.9-0.7,1.7c0,0.4,0.1,0.7,0.2,1c0.1,0.3,0.3,0.5,0.5,0.7c0.2,0.2,0.5,0.3,0.8,0.4   c0.3,0.1,0.6,0.1,0.9,0.1c0.4,0,0.8-0.1,1.2-0.2c0.6-0.2,1.2-0.6,1.8-1c0.2-0.2,0.4-0.3,0.5-0.4L139.2,204.5L139.2,204.5z    M151.8,210c-0.3,0.1-0.5,0.2-0.8,0.2c-0.4,0.1-0.8,0.1-1.3,0.1c-0.7,0-1.2-0.1-1.7-0.2c-0.5-0.2-0.9-0.4-1.2-0.7   c-0.3-0.3-0.6-0.7-0.7-1.1c-0.2-0.5-0.2-0.9-0.2-1.4v-7.6h-2.4v-1.8h2.4V194h2v3.4h3.7v1.8h-3.7v7.3c0,0.3,0,0.6,0.1,0.8   c0.1,0.2,0.2,0.5,0.4,0.6c0.2,0.2,0.4,0.3,0.7,0.4c0.3,0.1,0.6,0.1,1,0.1c0.3,0,0.6,0,0.9-0.1c0.3,0,0.6-0.1,0.8-0.2   C151.8,208.3,151.8,210,151.8,210z M154.7,194.6v-2.3h2v2.3H154.7z M154.7,210v-12.5h2V210H154.7z M172,203.7c0,1-0.1,1.9-0.4,2.7   c-0.3,0.8-0.7,1.5-1.2,2.1c-0.5,0.6-1.2,1-1.9,1.3c-0.7,0.3-1.5,0.5-2.5,0.5c-0.9,0-1.8-0.2-2.5-0.5c-0.7-0.3-1.4-0.8-1.9-1.3   c-0.5-0.6-0.9-1.3-1.2-2.1c-0.3-0.8-0.4-1.7-0.4-2.7c0-1,0.1-1.9,0.4-2.7c0.3-0.8,0.7-1.5,1.2-2.1c0.5-0.6,1.2-1,1.9-1.4   c0.8-0.3,1.6-0.5,2.5-0.5c0.9,0,1.8,0.2,2.5,0.5c0.7,0.3,1.4,0.8,1.9,1.4c0.5,0.6,0.9,1.3,1.2,2.1C171.9,201.9,172,202.8,172,203.7   z M169.9,203.7c0-0.8-0.1-1.5-0.3-2.1c-0.2-0.6-0.4-1.1-0.8-1.5c-0.3-0.4-0.7-0.7-1.2-1c-0.5-0.2-1-0.3-1.5-0.3   c-0.6,0-1.1,0.1-1.5,0.3c-0.5,0.2-0.9,0.5-1.2,1c-0.4,0.5-0.6,1-0.8,1.5c-0.2,0.6-0.3,1.3-0.3,2.1s0.1,1.5,0.3,2.1   c0.2,0.6,0.5,1.1,0.8,1.5c0.3,0.4,0.7,0.7,1.2,0.9c0.5,0.2,1,0.3,1.5,0.3c0.5,0,1-0.1,1.5-0.3c0.5-0.2,0.9-0.5,1.2-0.9   c0.3-0.4,0.6-0.9,0.8-1.5C169.8,205.2,169.9,204.5,169.9,203.7z M177.2,199.2L177.2,199.2c0.3-0.3,0.5-0.6,0.8-0.8   c0.3-0.3,0.6-0.5,0.9-0.7c0.4-0.2,0.7-0.3,1.1-0.4c0.4-0.1,0.9-0.2,1.3-0.2c0.6,0,1.1,0.1,1.6,0.2c0.5,0.2,0.9,0.4,1.3,0.8   c0.4,0.4,0.7,0.8,0.9,1.4c0.2,0.6,0.3,1.3,0.3,2.1v8.4h-2v-8.1c0-1.1-0.2-1.9-0.6-2.3c-0.4-0.5-1-0.7-1.8-0.7c-0.7,0-1.4,0.2-2,0.6   c-0.7,0.4-1.2,0.9-1.7,1.6v8.9h-2v-12.5h1.6L177.2,199.2L177.2,199.2z M196.8,208.6L196.8,208.6c-0.5,0.5-1,0.9-1.6,1.2   c-0.3,0.2-0.7,0.3-1.1,0.4c-0.4,0.1-0.8,0.1-1.3,0.1c-0.6,0-1.1-0.1-1.7-0.3c-1-0.3-1.8-1.1-2.2-2.1c-0.2-0.5-0.3-1.1-0.3-1.7   c0-0.6,0.1-1.2,0.3-1.7c0.2-0.5,0.5-0.9,0.9-1.2c0.4-0.4,0.9-0.6,1.5-0.8c0.6-0.2,1.2-0.3,1.9-0.3c1.1,0,2.2,0.2,3.3,0.6h0.1V202   c0-0.3,0-0.6-0.1-0.9c0-0.2-0.1-0.5-0.2-0.7c-0.2-0.4-0.6-0.8-1.1-1c-0.5-0.3-1.2-0.4-2-0.4c-0.6,0-1.2,0.1-1.8,0.2   c-0.6,0.1-1.1,0.3-1.7,0.5v-1.7c0.2-0.1,0.5-0.2,0.7-0.3c0.3-0.1,0.6-0.2,0.9-0.2c0.3-0.1,0.6-0.1,1-0.2c0.4,0,0.7-0.1,1.1-0.1   c1.3,0,2.3,0.2,3.1,0.7c0.8,0.4,1.4,1,1.7,1.8c0.1,0.3,0.2,0.6,0.3,0.9c0.1,0.3,0.1,0.7,0.1,1.1v8.4h-1.7L196.8,208.6L196.8,208.6z    M196.7,204.5c-0.4-0.1-0.9-0.2-1.3-0.3c-0.6-0.1-1.1-0.2-1.7-0.2c-0.9,0-1.5,0.2-2,0.5c-0.5,0.4-0.7,0.9-0.7,1.7   c0,0.4,0.1,0.7,0.2,1c0.2,0.6,0.7,1,1.3,1.1c0.3,0.1,0.6,0.1,0.9,0.1c0.4,0,0.8-0.1,1.2-0.2c0.6-0.2,1.2-0.6,1.8-1   c0.2-0.2,0.4-0.3,0.5-0.4L196.7,204.5L196.7,204.5L196.7,204.5z M202.9,210v-19.1h2V210H202.9z M224,210h-1l-4.4-10.5   c-0.7-1.6-1.3-3.1-1.8-4.7h-0.1c0.1,2.5,0.2,4.7,0.2,6.7v8.5h-2.1v-17.6h3.1l4.2,10c0.5,1.1,1,2.5,1.6,4.1h0.1   c0.6-1.8,1.2-3.2,1.6-4.1l4.2-10h3.1V210h-2.1v-8.5c0-2,0.1-4.2,0.2-6.7h-0.1c-0.6,1.6-1.2,3.2-1.8,4.7L224,210L224,210z    M243.9,208.6L243.9,208.6c-0.5,0.5-1,0.9-1.6,1.2c-0.3,0.2-0.7,0.3-1.1,0.4c-0.4,0.1-0.8,0.1-1.3,0.1c-0.6,0-1.2-0.1-1.7-0.3   c-1-0.3-1.8-1.1-2.2-2.1c-0.2-0.5-0.3-1.1-0.3-1.7c0-0.6,0.1-1.2,0.3-1.7c0.2-0.5,0.5-0.9,0.9-1.2c0.4-0.4,0.9-0.6,1.5-0.8   c0.6-0.2,1.2-0.3,1.9-0.3c1.1,0,2.2,0.2,3.3,0.6h0.1V202c0-0.3,0-0.6-0.1-0.9c0-0.3-0.1-0.5-0.2-0.7c-0.2-0.4-0.6-0.8-1.1-1   c-0.5-0.3-1.2-0.4-2-0.4c-0.6,0-1.2,0.1-1.8,0.2c-0.6,0.1-1.1,0.3-1.7,0.5v-1.7c0.2-0.1,0.5-0.2,0.7-0.3c0.3-0.1,0.6-0.2,0.9-0.2   c0.3-0.1,0.7-0.1,1-0.2c0.4,0,0.7-0.1,1.1-0.1c1.3,0,2.3,0.2,3.1,0.7c0.8,0.4,1.4,1,1.7,1.8c0.1,0.3,0.2,0.6,0.3,0.9   c0.1,0.3,0.1,0.7,0.1,1.1v8.4h-1.7L243.9,208.6L243.9,208.6z M243.8,204.5c-0.4-0.1-0.9-0.2-1.3-0.3c-0.6-0.1-1.1-0.2-1.7-0.2   c-0.9,0-1.5,0.2-2,0.5c-0.5,0.4-0.7,0.9-0.7,1.7c0,0.4,0.1,0.7,0.2,1c0.1,0.3,0.3,0.5,0.5,0.7c0.2,0.2,0.5,0.3,0.8,0.4   c0.3,0.1,0.6,0.1,0.9,0.1c0.4,0,0.8-0.1,1.2-0.2c0.4-0.1,0.7-0.3,1-0.5c0.3-0.2,0.5-0.3,0.8-0.5c0.2-0.2,0.4-0.3,0.5-0.4   L243.8,204.5L243.8,204.5L243.8,204.5z M256.4,210c-0.2,0.1-0.4,0.1-0.8,0.2c-0.4,0.1-0.9,0.1-1.3,0.1c-0.7,0-1.2-0.1-1.7-0.2   c-0.4-0.1-0.9-0.4-1.2-0.7c-0.3-0.3-0.6-0.7-0.7-1.1c-0.2-0.5-0.2-0.9-0.2-1.4v-7.6h-2.4v-1.8h2.4V194h2.1v3.4h3.7v1.8h-3.7v7.3   c0,0.3,0,0.6,0.1,0.8c0.1,0.2,0.2,0.5,0.4,0.6c0.2,0.2,0.4,0.3,0.7,0.4c0.3,0.1,0.6,0.1,1,0.1c0.6,0,1.2-0.1,1.7-0.2L256.4,210   L256.4,210z M265.1,208.6c0.7,0,1.3-0.1,1.9-0.2c0.6-0.1,1.1-0.3,1.7-0.5v1.7c-0.4,0.2-1,0.4-1.7,0.5c-0.7,0.1-1.4,0.2-2.1,0.2   c-0.9,0-1.7-0.1-2.5-0.3c-0.8-0.2-1.5-0.6-2-1.1c-0.6-0.5-1-1.2-1.4-2c-0.3-0.8-0.5-1.8-0.5-3c0-1.1,0.2-2.1,0.5-3   c0.3-0.8,0.7-1.5,1.3-2.1c0.5-0.6,1.1-1,1.8-1.3c0.7-0.3,1.4-0.4,2.1-0.4c0.7,0,1.4,0.1,2,0.4c0.6,0.2,1.1,0.6,1.6,1.1   c0.4,0.5,0.8,1.1,1.1,1.9c0.3,0.8,0.4,1.7,0.4,2.9v0.3c0,0.1,0,0.2,0,0.5h-8.6c0,0.8,0.1,1.5,0.4,2c0.2,0.6,0.6,1,1,1.4   c0.4,0.3,0.9,0.6,1.5,0.8C263.9,208.5,264.5,208.6,265.1,208.6L265.1,208.6z M264.1,198.9c-0.5,0-0.9,0.1-1.3,0.3   c-0.4,0.2-0.8,0.4-1.1,0.8c-0.3,0.3-0.6,0.7-0.7,1.1c-0.2,0.4-0.3,0.9-0.4,1.4h6.4c0-0.5-0.1-1-0.2-1.4c-0.1-0.4-0.3-0.8-0.6-1.1   c-0.2-0.3-0.6-0.6-0.9-0.8C265,199,264.5,198.9,264.1,198.9z M279.5,199.1h-0.2c-0.5,0-1,0-1.4,0.1c-0.9,0.2-1.7,0.5-2.4,1.1   c-0.3,0.3-0.6,0.6-0.8,0.9v8.7h-2v-12.5h1.6l0.4,2h0c0.2-0.3,0.4-0.6,0.7-0.9c0.3-0.3,0.6-0.5,1-0.7c0.4-0.2,0.8-0.4,1.2-0.5   c0.4-0.1,0.9-0.2,1.4-0.2c0.1,0,0.2,0,0.3,0l0.2,0L279.5,199.1L279.5,199.1L279.5,199.1z M283.7,199.2L283.7,199.2   c0.3-0.3,0.5-0.6,0.8-0.8c0.6-0.5,1.3-0.9,2.1-1.1c0.4-0.1,0.9-0.2,1.3-0.2c0.6,0,1.1,0.1,1.6,0.2c0.5,0.2,0.9,0.4,1.3,0.8   c0.4,0.4,0.7,0.8,0.9,1.4c0.2,0.6,0.3,1.3,0.3,2.1v8.4h-2v-8.1c0-1.1-0.2-1.9-0.6-2.3c-0.4-0.5-1-0.7-1.8-0.7c-0.7,0-1.4,0.2-2,0.6   c-0.7,0.4-1.3,1-1.7,1.6v8.9h-2.1v-12.5h1.6L283.7,199.2L283.7,199.2z M303.3,208.6L303.3,208.6c-0.3,0.2-0.5,0.4-0.7,0.6   c-0.3,0.2-0.6,0.4-0.9,0.6c-0.3,0.2-0.7,0.3-1.1,0.4c-0.4,0.1-0.8,0.1-1.3,0.1c-0.6,0-1.2-0.1-1.7-0.3c-0.5-0.2-0.9-0.4-1.3-0.8   c-0.4-0.4-0.7-0.8-0.9-1.3c-0.2-0.5-0.3-1.1-0.3-1.7c0-0.6,0.1-1.2,0.3-1.7c0.2-0.5,0.5-0.9,1-1.2c0.4-0.4,0.9-0.6,1.5-0.8   c0.6-0.2,1.2-0.3,1.9-0.3c0.6,0,1.3,0.1,1.8,0.2c0.6,0.1,1.1,0.2,1.5,0.4h0.1V202c0-0.3,0-0.6-0.1-0.9c0-0.2-0.1-0.5-0.2-0.7   c-0.2-0.4-0.6-0.8-1.1-1c-0.5-0.3-1.2-0.4-2-0.4c-0.6,0-1.2,0.1-1.8,0.2c-0.6,0.1-1.1,0.3-1.7,0.5v-1.7c0.2-0.1,0.5-0.2,0.7-0.3   c0.3-0.1,0.6-0.2,0.9-0.2c0.3-0.1,0.6-0.1,1-0.2c0.4,0,0.7-0.1,1.1-0.1c1.3,0,2.3,0.2,3.1,0.7c0.8,0.4,1.4,1,1.7,1.8   c0.1,0.3,0.2,0.6,0.3,0.9c0.1,0.3,0.1,0.7,0.1,1.1v8.4h-1.7L303.3,208.6L303.3,208.6z M303.2,204.5c-0.4-0.1-0.9-0.2-1.3-0.3   c-0.6-0.1-1.1-0.2-1.7-0.2c-0.9,0-1.5,0.2-2,0.5c-0.5,0.4-0.7,0.9-0.7,1.7c0,0.4,0.1,0.7,0.2,1c0.1,0.3,0.3,0.5,0.5,0.7   c0.2,0.2,0.5,0.3,0.8,0.4c0.3,0.1,0.6,0.1,0.9,0.1c0.4,0,0.8-0.1,1.2-0.2c0.6-0.2,1.2-0.6,1.8-1c0.2-0.2,0.4-0.3,0.5-0.4   L303.2,204.5L303.2,204.5L303.2,204.5z M309.3,210v-19.1h2V210H309.3z M330.2,202.2c1.1,1.6,2.2,3.2,3.2,4.8h0.1   c-0.1-1.7-0.2-3.5-0.2-5.3v-9.4h2.2V210h-2.1l-6.9-9.8c-1.1-1.6-2.2-3.2-3.2-4.8h-0.1c0.1,1.6,0.2,3.5,0.2,5.6v9h-2.2v-17.7h2.1   L330.2,202.2L330.2,202.2z M345.6,208.6c0.7,0,1.3-0.1,1.8-0.2c0.6-0.1,1.1-0.3,1.7-0.5v1.7c-0.4,0.2-1,0.4-1.7,0.5   c-0.7,0.1-1.4,0.2-2.1,0.2c-0.9,0-1.7-0.1-2.5-0.3c-0.8-0.2-1.5-0.6-2-1.1s-1-1.2-1.4-2c-0.3-0.8-0.5-1.8-0.5-3   c0-1.1,0.2-2.1,0.5-3c0.3-0.8,0.7-1.5,1.3-2.1c0.5-0.5,1.1-1,1.8-1.3c0.7-0.3,1.4-0.4,2.1-0.4c0.7,0,1.4,0.1,2,0.4   c0.6,0.2,1.1,0.6,1.6,1.1c0.4,0.5,0.8,1.1,1.1,1.9c0.3,0.8,0.4,1.7,0.4,2.9v0.3c0,0.1,0,0.2,0,0.5h-8.7c0,0.8,0.1,1.5,0.4,2   c0.2,0.6,0.6,1,1,1.4c0.4,0.3,0.9,0.6,1.5,0.8C344.3,208.5,344.9,208.6,345.6,208.6L345.6,208.6z M344.5,198.9   c-0.5,0-0.9,0.1-1.3,0.3c-0.4,0.2-0.8,0.4-1.1,0.8c-0.3,0.3-0.6,0.7-0.7,1.1c-0.2,0.4-0.3,0.9-0.3,1.4h6.4c0-0.5-0.1-1-0.2-1.4   c-0.1-0.4-0.3-0.8-0.6-1.1c-0.2-0.3-0.6-0.6-0.9-0.8C345.4,199,345,198.9,344.5,198.9z M360.4,208.6L360.4,208.6   c-0.5,0.5-1,0.9-1.6,1.2c-0.3,0.2-0.7,0.3-1.1,0.4c-0.4,0.1-0.8,0.1-1.3,0.1c-0.6,0-1.2-0.1-1.7-0.3c-0.5-0.2-0.9-0.4-1.3-0.8   c-0.4-0.4-0.7-0.8-0.8-1.3c-0.2-0.5-0.3-1.1-0.3-1.7c0-0.6,0.1-1.2,0.3-1.7c0.2-0.5,0.5-0.9,0.9-1.2c0.4-0.4,0.9-0.6,1.5-0.8   c0.6-0.2,1.2-0.3,1.9-0.3c1.1,0,2.2,0.2,3.3,0.6h0.1V202c0-0.3,0-0.6-0.1-0.9c0-0.2-0.1-0.5-0.2-0.7c-0.2-0.4-0.6-0.8-1.1-1   c-0.5-0.3-1.2-0.4-2-0.4c-0.6,0-1.2,0.1-1.8,0.2c-0.6,0.1-1.1,0.3-1.7,0.5v-1.7c0.2-0.1,0.5-0.2,0.8-0.3c0.3-0.1,0.6-0.2,0.9-0.2   c0.3-0.1,0.6-0.1,1-0.2c0.3,0,0.7-0.1,1.1-0.1c1.3,0,2.3,0.2,3.1,0.7c0.8,0.4,1.4,1,1.7,1.8c0.1,0.3,0.2,0.6,0.3,0.9   c0.1,0.3,0.1,0.7,0.1,1.1v8.4h-1.7L360.4,208.6L360.4,208.6z M360.3,204.5c-0.4-0.1-0.9-0.2-1.3-0.3c-0.6-0.1-1.1-0.2-1.7-0.2   c-0.9,0-1.5,0.2-2,0.5c-0.5,0.4-0.7,0.9-0.7,1.7c0,0.4,0.1,0.7,0.2,1c0.2,0.6,0.7,1,1.3,1.1c0.3,0.1,0.6,0.1,0.9,0.1   c0.4,0,0.8-0.1,1.2-0.2c0.4-0.1,0.7-0.3,1-0.5c0.3-0.2,0.5-0.3,0.8-0.5c0.2-0.2,0.4-0.3,0.5-0.4L360.3,204.5L360.3,204.5   L360.3,204.5z M373.2,199.1H373c-0.5,0-1,0-1.4,0.1c-0.5,0.1-0.9,0.2-1.3,0.4c-0.4,0.2-0.8,0.4-1.1,0.7c-0.3,0.3-0.6,0.6-0.8,0.9   v8.7h-2v-12.5h1.6l0.4,2h0c0.2-0.3,0.5-0.6,0.7-0.9c0.3-0.3,0.6-0.5,1-0.7c0.4-0.2,0.8-0.4,1.2-0.5c0.5-0.1,0.9-0.2,1.4-0.2   c0.1,0,0.2,0,0.3,0l0.2,0L373.2,199.1L373.2,199.1L373.2,199.1L373.2,199.1z M373.5,202.5h5.8v1.9h-5.8V202.5z M393.1,210h-2v-8.1   c0-0.5-0.1-1-0.2-1.4c-0.1-0.3-0.3-0.7-0.5-0.9c-0.2-0.2-0.5-0.4-0.8-0.5c-0.3-0.1-0.7-0.2-1.1-0.2c-0.7,0-1.4,0.2-2,0.6   c-0.6,0.4-1.2,1-1.6,1.6v8.9h-2v-12.5h1.6l0.4,1.7h0c0.2-0.3,0.5-0.6,0.8-0.8c0.3-0.3,0.6-0.5,0.9-0.7c0.3-0.2,0.7-0.3,1.1-0.4   c0.4-0.1,0.8-0.2,1.3-0.2c0.9,0,1.7,0.2,2.3,0.7c0.6,0.4,1.1,1.1,1.4,1.8h0.1c0.5-0.7,1.1-1.4,1.9-1.8c0.7-0.4,1.5-0.7,2.5-0.7   c0.4,0,0.9,0.1,1.4,0.2c0.5,0.1,0.9,0.4,1.4,0.7c0.4,0.3,0.8,0.8,1,1.4c0.3,0.6,0.4,1.3,0.4,2.2v8.4h-2v-8.1c0-0.5-0.1-1-0.2-1.4   c-0.1-0.3-0.3-0.7-0.5-0.9c-0.2-0.2-0.5-0.4-0.8-0.5c-0.3-0.1-0.7-0.2-1-0.2c-0.7,0-1.4,0.2-2,0.6c-0.6,0.4-1.2,1-1.6,1.6   L393.1,210z M405.4,194.6v-2.3h2v2.3H405.4z M405.4,210v-12.5h2V210H405.4z M413,200.8c0,0.3,0.1,0.6,0.2,0.9   c0.1,0.2,0.3,0.4,0.6,0.5c0.2,0.1,0.5,0.2,0.8,0.3c0.3,0.1,0.7,0.2,1,0.2c0.5,0.1,0.9,0.2,1.3,0.3c0.4,0.1,0.8,0.3,1.2,0.6   c0.4,0.3,0.6,0.6,0.9,1c0.2,0.4,0.3,1,0.3,1.7c0,0.6-0.1,1.2-0.4,1.7c-0.2,0.5-0.6,0.9-1,1.2c-0.5,0.3-1,0.6-1.6,0.8   c-0.6,0.2-1.3,0.3-2.1,0.3c-0.4,0-0.8,0-1.2-0.1c-0.3,0-0.7-0.1-1-0.2c-0.2-0.1-0.5-0.1-0.7-0.2c-0.2-0.1-0.4-0.2-0.5-0.2v-1.7   c0.5,0.2,1,0.4,1.5,0.5c0.5,0.1,1.1,0.2,1.7,0.2c0.5,0,0.9,0,1.3-0.1c0.4-0.1,0.7-0.2,1-0.4c0.3-0.2,0.5-0.4,0.6-0.6   c0.1-0.3,0.2-0.6,0.2-0.9c0-0.4-0.1-0.7-0.2-0.9c-0.1-0.2-0.3-0.4-0.6-0.6c-0.2-0.2-0.5-0.3-0.8-0.4c-0.3-0.1-0.6-0.2-1-0.3   c-0.5-0.1-0.9-0.2-1.3-0.3c-0.5-0.1-0.9-0.3-1.2-0.6c-0.4-0.2-0.7-0.6-0.9-1c-0.2-0.4-0.3-0.9-0.3-1.6c0-0.7,0.1-1.2,0.4-1.7   c0.2-0.5,0.6-0.9,1-1.2c0.4-0.3,0.9-0.6,1.4-0.7c0.5-0.2,1.1-0.2,1.7-0.2c1.2,0,2.4,0.2,3.6,0.7v1.7c-0.5-0.2-1-0.4-1.6-0.5   c-0.5-0.1-1.1-0.2-1.6-0.2c-0.5,0-0.9,0.1-1.2,0.2c-0.3,0.1-0.6,0.2-0.8,0.4c-0.2,0.2-0.4,0.4-0.5,0.6   C413.1,200.3,413,200.5,413,200.8L413,200.8z M423.9,200.8c0,0.3,0.1,0.6,0.2,0.9c0.1,0.2,0.3,0.4,0.6,0.5c0.2,0.1,0.5,0.2,0.9,0.3   c0.3,0.1,0.7,0.2,1,0.2c0.5,0.1,0.9,0.2,1.3,0.3c0.4,0.1,0.8,0.3,1.2,0.6c0.3,0.3,0.6,0.6,0.9,1c0.2,0.4,0.3,1,0.3,1.7   c0,0.6-0.1,1.2-0.4,1.7c-0.2,0.5-0.6,0.9-1,1.2c-0.5,0.3-1,0.6-1.6,0.8c-0.7,0.2-1.4,0.3-2.1,0.3c-0.5,0-0.9,0-1.2-0.1   c-0.3,0-0.7-0.1-1-0.2c-0.2-0.1-0.5-0.1-0.7-0.2c-0.2-0.1-0.4-0.2-0.5-0.2v-1.7c0.5,0.2,1,0.4,1.5,0.5c0.5,0.1,1.1,0.2,1.7,0.2   c0.5,0,0.9,0,1.3-0.1c0.4-0.1,0.7-0.2,1-0.4c0.3-0.2,0.5-0.4,0.6-0.6c0.2-0.3,0.2-0.6,0.2-0.9c0-0.4-0.1-0.7-0.2-0.9   c-0.1-0.2-0.3-0.4-0.6-0.6c-0.2-0.2-0.5-0.3-0.8-0.4c-0.3-0.1-0.6-0.2-1-0.3c-0.4-0.1-0.9-0.2-1.3-0.3s-0.9-0.3-1.2-0.6   c-0.4-0.2-0.7-0.6-0.9-1c-0.2-0.4-0.3-0.9-0.3-1.6c0-0.7,0.1-1.2,0.4-1.7c0.2-0.5,0.6-0.9,1-1.2c0.4-0.3,0.9-0.6,1.4-0.7   c0.5-0.2,1.1-0.2,1.7-0.2c1.2,0,2.4,0.2,3.6,0.7v1.7c-0.5-0.2-1-0.4-1.6-0.5c-0.5-0.1-1.1-0.2-1.6-0.2c-0.5,0-0.9,0.1-1.2,0.2   c-0.3,0.1-0.6,0.2-0.8,0.4c-0.2,0.2-0.4,0.4-0.5,0.6C424,200.3,423.9,200.5,423.9,200.8L423.9,200.8z M113.9,229.4   c0,0.5,0.1,1,0.3,1.3c0.2,0.3,0.5,0.6,0.8,0.8c0.4,0.2,0.8,0.4,1.2,0.5c0.5,0.1,1,0.3,1.5,0.4c0.7,0.2,1.4,0.4,2,0.6   c0.7,0.2,1.3,0.5,1.8,0.8c0.5,0.4,0.9,0.8,1.3,1.4c0.3,0.6,0.5,1.3,0.5,2.2c0,0.9-0.2,1.7-0.5,2.4c-0.3,0.7-0.8,1.2-1.4,1.6   c-0.7,0.4-1.4,0.8-2.2,1c-0.9,0.2-1.8,0.3-2.7,0.3c-0.5,0-0.9,0-1.4-0.1c-0.5-0.1-0.9-0.1-1.4-0.2c-0.4-0.1-0.8-0.2-1.2-0.3   c-0.3-0.1-0.6-0.2-0.8-0.4v-2c0.3,0.2,0.7,0.3,1.1,0.4c0.4,0.1,0.8,0.3,1.2,0.3c0.4,0.1,0.8,0.2,1.3,0.2c1,0.1,2,0.1,3-0.1   c0.5-0.1,1-0.3,1.5-0.5c0.4-0.2,0.8-0.6,1-1c0.2-0.4,0.4-1,0.4-1.6c0-0.5-0.1-1-0.3-1.3c-0.2-0.3-0.5-0.6-0.9-0.9   c-0.4-0.2-0.8-0.4-1.2-0.5c-0.5-0.1-1-0.3-1.5-0.4c-0.7-0.2-1.3-0.3-2-0.5c-0.6-0.2-1.2-0.5-1.8-0.8c-0.5-0.3-0.9-0.8-1.2-1.4   c-0.3-0.6-0.5-1.3-0.5-2.1c0-0.9,0.2-1.7,0.5-2.3c0.3-0.6,0.8-1.2,1.3-1.6c0.6-0.4,1.2-0.8,1.9-0.9c0.8-0.2,1.5-0.3,2.3-0.3   c0.9,0,1.8,0.1,2.6,0.3c0.8,0.2,1.6,0.4,2.2,0.7v2c-0.7-0.3-1.5-0.6-2.3-0.8c-0.8-0.2-1.7-0.3-2.5-0.3c-0.7,0-1.2,0.1-1.7,0.2   c-0.4,0.1-0.9,0.3-1.2,0.6c-0.3,0.3-0.6,0.6-0.7,1C114,228.5,113.9,229,113.9,229.4L113.9,229.4z M131.8,242.7   c-0.6,0-1.2-0.1-1.8-0.2c-0.5-0.1-0.9-0.3-1.4-0.6c-0.4-0.2-0.7-0.6-1-0.9c-0.3-0.4-0.5-0.7-0.6-1.2c-0.1-0.3-0.2-0.7-0.3-1   c-0.1-0.4-0.1-0.8-0.1-1.2v-7.7h2v7.7c0,0.7,0.1,1.3,0.3,1.7c0.2,0.5,0.5,0.9,1,1.2c0.5,0.3,1.1,0.5,1.8,0.5c0.8,0,1.4-0.2,1.9-0.5   c0.5-0.3,0.8-0.8,1-1.3c0.2-0.4,0.2-1,0.2-1.6v-7.7h2v7.7c0,0.4,0,0.8-0.1,1.2c0,0.3-0.1,0.7-0.2,1c-0.2,0.4-0.4,0.8-0.6,1.2   c-0.3,0.4-0.6,0.7-1,0.9c-0.4,0.3-0.9,0.5-1.4,0.6C133,242.7,132.4,242.8,131.8,242.7L131.8,242.7z M147.7,231.6h-0.2   c-0.5,0-1,0-1.4,0.1c-0.5,0.1-0.9,0.2-1.3,0.4c-0.4,0.2-0.8,0.4-1.1,0.7c-0.3,0.3-0.6,0.6-0.8,0.9v8.7h-2v-12.5h1.6l0.4,2h0   c0.2-0.3,0.4-0.6,0.7-0.9c0.3-0.3,0.6-0.5,1-0.7c0.4-0.2,0.8-0.4,1.2-0.5c0.6-0.2,1.3-0.2,1.9-0.2L147.7,231.6L147.7,231.6z    M154.1,240.3c0.4-1.2,0.8-2.3,1.2-3.5l2.5-7h2l-4.7,12.5H153l-4.7-12.5h2l2.5,7C153.3,238.2,153.7,239.4,154.1,240.3L154.1,240.3z    M168.3,241c0.7,0,1.3-0.1,1.9-0.2c0.6-0.1,1.1-0.3,1.7-0.5v1.7c-0.5,0.2-1,0.4-1.7,0.5c-0.7,0.1-1.4,0.2-2.1,0.2   c-0.9,0-1.7-0.1-2.5-0.3c-0.8-0.2-1.5-0.6-2-1.1c-0.6-0.5-1-1.2-1.4-2c-0.3-0.8-0.5-1.8-0.5-3c0-1.1,0.2-2.1,0.5-3   c0.3-0.8,0.7-1.5,1.3-2.1c0.5-0.6,1.1-1,1.8-1.3c0.7-0.3,1.4-0.4,2.1-0.4c0.7,0,1.4,0.1,2,0.4c0.6,0.2,1.1,0.6,1.6,1.1   c0.4,0.5,0.8,1.1,1.1,1.9c0.3,0.8,0.4,1.7,0.4,2.9v0.3c0,0.1,0,0.2,0,0.5h-8.7c0,0.8,0.1,1.5,0.4,2c0.2,0.6,0.6,1,1,1.4   c0.4,0.4,0.9,0.6,1.5,0.8C167,240.9,167.6,241,168.3,241L168.3,241z M167.2,231.3c-0.5,0-0.9,0.1-1.3,0.3c-0.4,0.2-0.8,0.4-1.1,0.8   c-0.3,0.3-0.5,0.7-0.7,1.1c-0.2,0.4-0.3,0.9-0.3,1.4h6.4c0-0.5-0.1-1-0.2-1.4c-0.1-0.4-0.3-0.8-0.6-1.1c-0.2-0.3-0.6-0.6-0.9-0.7   C168.1,231.4,167.6,231.3,167.2,231.3z M175.9,227v-2.3h2v2.3H175.9z M175.9,242.4v-12.5h2v12.5H175.9z M182.2,242.4v-19.1h2v19.1   H182.2z M188.4,242.4v-19.1h2v19.1H188.4z M201.9,241L201.9,241c-0.2,0.2-0.5,0.4-0.7,0.6c-0.3,0.2-0.5,0.4-0.9,0.6   c-0.3,0.2-0.7,0.3-1.1,0.4c-0.4,0.1-0.8,0.1-1.3,0.1c-0.6,0-1.1-0.1-1.7-0.3c-0.5-0.2-0.9-0.4-1.3-0.8c-0.4-0.4-0.7-0.8-0.9-1.3   c-0.2-0.5-0.3-1.1-0.3-1.7c0-0.6,0.1-1.2,0.3-1.7c0.2-0.5,0.5-0.9,0.9-1.2c0.4-0.4,0.9-0.6,1.5-0.8c0.6-0.2,1.2-0.3,1.9-0.3   c0.6,0,1.3,0.1,1.8,0.2c0.6,0.1,1,0.2,1.5,0.4h0.1v-0.9c0-0.3,0-0.6-0.1-0.9c0-0.2-0.1-0.5-0.2-0.7c-0.2-0.4-0.6-0.8-1.1-1   c-0.5-0.3-1.2-0.4-2-0.4c-0.6,0-1.2,0.1-1.8,0.2c-0.6,0.1-1.1,0.3-1.7,0.5v-1.7c0.5-0.2,1.1-0.4,1.7-0.5c0.3-0.1,0.6-0.1,1-0.1   c0.4,0,0.7-0.1,1.1-0.1c1.3,0,2.3,0.2,3.1,0.7c0.8,0.4,1.4,1,1.7,1.8c0.1,0.3,0.2,0.6,0.3,0.9c0.1,0.3,0.1,0.7,0.1,1.1v8.4h-1.7   L201.9,241L201.9,241z M201.8,236.9c-0.4-0.1-0.9-0.2-1.3-0.3c-0.6-0.1-1.1-0.1-1.7-0.2c-0.9,0-1.5,0.2-2,0.6   c-0.5,0.4-0.7,0.9-0.7,1.7c0,0.4,0.1,0.7,0.2,1c0.1,0.3,0.3,0.5,0.5,0.7c0.2,0.2,0.5,0.3,0.8,0.4c0.3,0.1,0.6,0.1,0.9,0.1   c0.4,0,0.8-0.1,1.2-0.2c0.4-0.1,0.7-0.3,1-0.5c0.3-0.2,0.5-0.4,0.7-0.5c0.2-0.2,0.4-0.3,0.5-0.4L201.8,236.9z M209.8,231.6   L209.8,231.6c0.3-0.3,0.5-0.6,0.8-0.8c0.3-0.3,0.6-0.5,0.9-0.7c0.3-0.2,0.7-0.3,1.1-0.4c0.4-0.1,0.9-0.2,1.3-0.2   c0.6,0,1.1,0.1,1.6,0.2c0.5,0.2,0.9,0.4,1.3,0.8c0.4,0.4,0.7,0.8,0.9,1.4c0.2,0.6,0.3,1.3,0.3,2.1v8.4h-2v-8.1   c0-1.1-0.2-1.9-0.6-2.3c-0.4-0.5-1-0.7-1.8-0.7c-0.7,0-1.4,0.2-2,0.6c-0.7,0.4-1.3,1-1.7,1.6v8.9h-2v-12.5h1.6L209.8,231.6   L209.8,231.6z M227.4,229.6c0.6,0,1.2,0.1,1.7,0.2c0.6,0.1,1,0.3,1.4,0.5v1.7c-0.5-0.2-1-0.4-1.5-0.5c-0.5-0.1-0.9-0.2-1.4-0.2   c-0.5,0-1,0.1-1.5,0.3c-0.5,0.2-1,0.4-1.4,0.8c-0.4,0.4-0.7,0.9-1,1.5c-0.2,0.6-0.4,1.4-0.4,2.3c0,0.7,0.1,1.3,0.3,1.9   c0.2,0.6,0.5,1.1,0.8,1.5c0.4,0.4,0.8,0.7,1.3,1c0.5,0.2,1.2,0.3,1.9,0.3c0.5,0,1-0.1,1.5-0.2c0.5-0.1,1-0.3,1.5-0.5v1.7   c-0.2,0.1-0.4,0.2-0.6,0.3c-0.3,0.1-0.5,0.2-0.8,0.2c-0.3,0.1-0.6,0.1-0.9,0.2c-0.3,0-0.6,0.1-1,0.1c-0.8,0-1.6-0.1-2.4-0.4   c-0.7-0.2-1.4-0.6-2-1.2c-0.6-0.5-1-1.2-1.3-2c-0.3-0.8-0.5-1.8-0.5-2.9c0-0.8,0.1-1.6,0.3-2.2c0.2-0.7,0.4-1.2,0.7-1.7   c0.3-0.5,0.6-0.9,1-1.3c0.4-0.3,0.8-0.6,1.3-0.9c0.5-0.2,0.9-0.4,1.4-0.5C226.5,229.6,227,229.6,227.4,229.6L227.4,229.6z    M239.8,241c0.7,0,1.3-0.1,1.9-0.2c0.6-0.1,1.1-0.3,1.7-0.5v1.7c-0.5,0.2-1.1,0.4-1.7,0.5c-0.7,0.1-1.4,0.2-2.1,0.2   c-0.9,0-1.7-0.1-2.5-0.3c-0.8-0.2-1.5-0.6-2-1.1c-0.6-0.5-1-1.2-1.4-2c-0.3-0.8-0.5-1.8-0.5-3c0-1.1,0.2-2.1,0.5-3   c0.3-0.8,0.7-1.5,1.3-2.1c0.5-0.6,1.1-1,1.8-1.3c0.7-0.3,1.4-0.4,2.1-0.4c0.7,0,1.4,0.1,2,0.4c0.6,0.2,1.2,0.6,1.6,1.1   c0.4,0.5,0.8,1.1,1.1,1.9c0.3,0.8,0.4,1.7,0.4,2.9v0.3c0,0.1,0,0.2,0,0.5h-8.7c0,0.8,0.1,1.5,0.4,2c0.2,0.6,0.6,1,1,1.4   c0.4,0.4,0.9,0.6,1.5,0.8C238.6,240.9,239.2,241,239.8,241L239.8,241z M238.8,231.3c-0.5,0-0.9,0.1-1.3,0.3   c-0.4,0.2-0.8,0.4-1.1,0.8c-0.3,0.3-0.5,0.7-0.7,1.1c-0.2,0.4-0.3,0.9-0.3,1.4h6.4c0-0.5-0.1-1-0.2-1.4c-0.1-0.4-0.3-0.8-0.6-1.1   c-0.2-0.3-0.6-0.6-0.9-0.7C239.6,231.4,239.2,231.3,238.8,231.3L238.8,231.3z M255.2,242.4H253v-17.6h4.9c0.7,0,1.4,0,2,0.1   c0.6,0.1,1.2,0.2,1.7,0.4c1.1,0.4,1.9,0.9,2.4,1.7c0.5,0.8,0.8,1.7,0.8,2.8c0,0.9-0.2,1.7-0.5,2.4c-0.4,0.7-0.9,1.2-1.6,1.7   c-0.7,0.5-1.5,0.8-2.5,1c-1,0.2-2.1,0.4-3.3,0.4c-0.6,0-1.2,0-1.8-0.1L255.2,242.4L255.2,242.4z M255.2,233.2   c0.3,0,0.6,0.1,0.9,0.1c0.3,0,0.6,0,0.9,0c1,0,1.9-0.1,2.6-0.2c0.7-0.2,1.3-0.4,1.7-0.7c0.4-0.3,0.8-0.7,1-1.1   c0.2-0.5,0.3-1,0.3-1.5c0-0.7-0.2-1.3-0.5-1.7c-0.3-0.4-0.8-0.8-1.4-1c-0.4-0.2-0.9-0.3-1.3-0.3c-0.6-0.1-1.1-0.1-1.7-0.1h-2.5   L255.2,233.2L255.2,233.2z M275,231.6h-0.2c-0.5,0-1,0-1.4,0.1c-0.5,0.1-0.9,0.2-1.3,0.4c-0.4,0.2-0.8,0.4-1.1,0.7   c-0.3,0.3-0.6,0.6-0.8,0.9v8.7h-2v-12.5h1.6l0.4,2h0c0.2-0.3,0.5-0.6,0.8-0.9c0.3-0.3,0.6-0.5,1-0.7c1-0.5,2-0.8,3.1-0.6L275,231.6   L275,231.6z M288.4,236.2c0,1-0.1,1.9-0.4,2.7c-0.3,0.8-0.7,1.5-1.2,2.1c-0.5,0.6-1.2,1-1.9,1.3c-0.7,0.3-1.5,0.5-2.4,0.5   c-0.9,0-1.8-0.2-2.5-0.5c-0.7-0.3-1.4-0.8-1.9-1.3c-0.5-0.6-0.9-1.3-1.2-2.1c-0.3-0.9-0.4-1.8-0.4-2.7c0-1,0.1-1.9,0.4-2.7   c0.3-0.8,0.7-1.5,1.2-2.1c0.5-0.6,1.2-1,1.9-1.3c0.7-0.3,1.6-0.5,2.5-0.5c0.9,0,1.8,0.2,2.5,0.5c0.7,0.3,1.4,0.8,1.9,1.3   c0.5,0.6,0.9,1.3,1.2,2.1C288.2,234.3,288.4,235.2,288.4,236.2L288.4,236.2z M286.2,236.2c0-0.8-0.1-1.5-0.3-2.1   c-0.2-0.6-0.4-1.1-0.8-1.5c-0.3-0.4-0.7-0.7-1.2-1c-0.5-0.2-1-0.3-1.5-0.3c-0.5,0-1.1,0.1-1.5,0.3c-0.5,0.2-0.9,0.5-1.2,1   c-0.4,0.5-0.6,1-0.8,1.5c-0.2,0.7-0.3,1.4-0.3,2.1c0,0.8,0.1,1.5,0.3,2c0.2,0.6,0.5,1.1,0.8,1.5c0.3,0.4,0.8,0.7,1.2,0.9   c0.5,0.2,1,0.3,1.5,0.3c0.5,0,1-0.1,1.5-0.3c0.5-0.2,0.9-0.5,1.2-0.9c0.3-0.4,0.6-0.9,0.8-1.5C286.1,237.6,286.2,236.9,286.2,236.2   L286.2,236.2z M296.4,229.6c0.5,0,1,0.1,1.4,0.2c0.4,0.1,0.8,0.3,1,0.5c0.3,0.2,0.5,0.4,0.7,0.6c0.2,0.2,0.3,0.3,0.3,0.5h0.1   l0.4-1.4h1.5v13.3c0,1-0.2,1.8-0.5,2.5c-0.3,0.7-0.8,1.3-1.3,1.8c-0.6,0.5-1.3,0.8-2.1,1.1c-0.9,0.2-1.8,0.4-2.7,0.4   c-0.7,0-1.5-0.1-2.2-0.2c-0.6-0.1-1.2-0.3-1.5-0.5v-1.7c0.3,0.1,0.6,0.2,0.9,0.3c0.3,0.1,0.6,0.2,0.9,0.2c0.3,0.1,0.6,0.1,0.9,0.1   c0.3,0,0.7,0,1,0c1.5,0,2.6-0.4,3.4-1c0.8-0.7,1.2-1.7,1.2-3.1v-1.7h0c-0.4,0.5-1,0.9-1.6,1.1c-0.6,0.3-1.3,0.4-2,0.4   c-0.4,0-0.7,0-1.1-0.1c-0.4-0.1-0.8-0.2-1.2-0.4c-0.4-0.2-0.8-0.4-1.2-0.8c-0.4-0.3-0.7-0.7-1-1.2c-0.3-0.5-0.5-1-0.7-1.7   c-0.2-0.6-0.3-1.4-0.3-2.2c0-1.2,0.2-2.2,0.5-3c0.3-0.9,0.7-1.6,1.2-2.1c0.5-0.5,1.1-1,1.8-1.3C295,229.7,295.7,229.6,296.4,229.6   L296.4,229.6z M293,236.2c0,1,0.1,1.8,0.4,2.4c0.2,0.6,0.5,1.1,0.9,1.5c0.4,0.4,0.8,0.6,1.2,0.7c0.4,0.1,0.8,0.2,1.2,0.2   c0.6,0,1.2-0.1,1.8-0.4c0.5-0.3,1-0.6,1.5-1V233c-0.3-0.4-0.7-0.8-1.2-1.1c-0.3-0.2-0.6-0.3-0.9-0.4c-0.4-0.1-0.7-0.2-1.1-0.2   c-1.1,0-2.1,0.5-2.8,1.4c-0.3,0.4-0.5,0.9-0.7,1.6C293.1,234.8,293,235.5,293,236.2z M312.8,231.6h-0.2c-0.5,0-1,0-1.4,0.1   c-0.5,0.1-0.9,0.2-1.3,0.4c-0.4,0.2-0.8,0.4-1.1,0.7c-0.3,0.3-0.6,0.6-0.8,0.9v8.7h-2v-12.5h1.6l0.4,2h0c0.2-0.3,0.4-0.6,0.8-0.9   c0.3-0.3,0.6-0.5,1-0.7c0.9-0.5,2-0.8,3.1-0.6L312.8,231.6L312.8,231.6z M322.3,241L322.3,241c-0.2,0.2-0.5,0.4-0.7,0.6   c-0.3,0.2-0.5,0.4-0.9,0.6c-0.3,0.2-0.7,0.3-1.1,0.4c-0.4,0.1-0.8,0.1-1.3,0.1c-0.6,0-1.2-0.1-1.7-0.3c-1-0.3-1.8-1.1-2.2-2.1   c-0.2-0.5-0.3-1.1-0.3-1.7c0-0.6,0.1-1.2,0.3-1.7c0.2-0.5,0.5-0.9,0.9-1.2c0.4-0.4,0.9-0.6,1.5-0.8c0.6-0.2,1.2-0.3,1.9-0.3   c0.6,0,1.2,0.1,1.8,0.2c0.6,0.1,1,0.2,1.5,0.4h0.1v-0.9c0-0.3,0-0.6-0.1-0.9c0-0.2-0.1-0.5-0.2-0.7c-0.2-0.4-0.6-0.8-1.1-1   c-0.5-0.3-1.2-0.4-2-0.4c-0.6,0-1.2,0.1-1.8,0.2c-0.6,0.1-1.1,0.3-1.7,0.5v-1.7c0.2-0.1,0.5-0.2,0.8-0.3c0.6-0.2,1.3-0.3,1.9-0.4   c0.4,0,0.7-0.1,1.1-0.1c1.3,0,2.3,0.2,3.1,0.7c0.8,0.4,1.4,1,1.7,1.8c0.1,0.3,0.2,0.6,0.3,0.9c0.1,0.3,0.1,0.7,0.1,1.1v8.4h-1.7   L322.3,241L322.3,241z M322.2,236.9c-0.4-0.1-0.9-0.2-1.3-0.3c-0.6-0.1-1.1-0.1-1.7-0.2c-0.9,0-1.5,0.2-2,0.6   c-0.5,0.4-0.7,0.9-0.7,1.7c0,0.4,0.1,0.7,0.2,1c0.1,0.3,0.3,0.5,0.5,0.7c0.2,0.2,0.5,0.3,0.8,0.4c0.3,0.1,0.6,0.1,0.9,0.1   c0.4,0,0.8-0.1,1.2-0.2c0.6-0.2,1.2-0.5,1.8-1c0.2-0.2,0.4-0.3,0.4-0.4L322.2,236.9L322.2,236.9L322.2,236.9z M338.4,242.4h-2v-8.1   c0-0.5-0.1-1-0.2-1.4c-0.1-0.3-0.3-0.7-0.5-0.9c-0.2-0.2-0.5-0.4-0.8-0.5c-0.3-0.1-0.7-0.2-1-0.2c-0.7,0-1.4,0.2-2,0.6   c-0.6,0.4-1.2,1-1.6,1.6v8.9h-2v-12.5h1.6l0.4,1.7h0c0.2-0.3,0.5-0.6,0.8-0.8c0.3-0.3,0.6-0.5,0.9-0.7c0.3-0.2,0.7-0.3,1.1-0.4   c0.4-0.1,0.8-0.2,1.3-0.2c0.9,0,1.7,0.2,2.3,0.7c0.6,0.4,1.1,1.1,1.4,1.8h0.1c0.6-0.8,1.2-1.4,1.9-1.8c0.7-0.4,1.6-0.7,2.5-0.7   c0.4,0,0.9,0.1,1.4,0.2c0.5,0.1,0.9,0.3,1.4,0.7c0.4,0.3,0.8,0.8,1,1.4c0.3,0.6,0.4,1.3,0.4,2.2v8.4h-2v-8.1c0-0.5-0.1-1-0.2-1.4   c-0.1-0.3-0.3-0.7-0.5-0.9c-0.2-0.2-0.5-0.4-0.8-0.5c-0.3-0.1-0.7-0.2-1.1-0.2c-0.7,0-1.4,0.2-2,0.6c-0.6,0.4-1.1,0.9-1.6,1.6   L338.4,242.4L338.4,242.4L338.4,242.4L338.4,242.4z M360.8,242.4h-2v-8.1c0-0.5-0.1-1-0.2-1.4c-0.1-0.3-0.3-0.7-0.5-0.9   c-0.2-0.2-0.5-0.4-0.8-0.5c-0.3-0.1-0.7-0.2-1-0.2c-0.7,0-1.4,0.2-2,0.6c-0.6,0.4-1.1,0.9-1.6,1.6v8.9h-2v-12.5h1.6l0.4,1.7h0   c0.2-0.3,0.5-0.6,0.8-0.8c0.6-0.5,1.2-0.9,2-1.1c0.4-0.1,0.9-0.2,1.3-0.2c0.9,0,1.7,0.2,2.3,0.7c0.6,0.4,1.1,1.1,1.4,1.8h0.1   c0.5-0.7,1.2-1.4,1.9-1.8c0.7-0.4,1.6-0.7,2.5-0.7c0.4,0,0.9,0.1,1.4,0.2c0.5,0.1,0.9,0.3,1.4,0.7c0.4,0.3,0.8,0.8,1,1.4   c0.3,0.6,0.4,1.3,0.4,2.2v8.4h-2v-8.1c0-0.5-0.1-1-0.2-1.4c-0.1-0.3-0.3-0.7-0.5-0.9c-0.2-0.2-0.5-0.4-0.8-0.5   c-0.3-0.1-0.7-0.2-1-0.2c-0.7,0-1.4,0.2-2,0.6c-0.6,0.4-1.1,0.9-1.6,1.6L360.8,242.4L360.8,242.4z M378.9,241   c0.7,0,1.3-0.1,1.8-0.2c0.6-0.1,1.1-0.3,1.7-0.5v1.7c-0.5,0.2-1.1,0.4-1.7,0.5c-0.7,0.1-1.4,0.2-2.1,0.2c-0.9,0-1.7-0.1-2.5-0.3   c-0.8-0.2-1.5-0.6-2-1.1c-0.6-0.5-1-1.2-1.4-2c-0.3-0.8-0.5-1.8-0.5-3c0-1.1,0.2-2.1,0.5-3c0.3-0.8,0.7-1.5,1.3-2.1   c0.5-0.6,1.1-1,1.8-1.3c0.7-0.3,1.4-0.4,2.1-0.4c0.7,0,1.4,0.1,2,0.4c0.6,0.2,1.1,0.6,1.6,1.1c0.4,0.5,0.8,1.1,1.1,1.9   c0.3,0.8,0.4,1.7,0.4,2.9v0.3c0,0.1,0,0.2,0,0.5h-8.6c0,0.8,0.1,1.5,0.4,2c0.2,0.6,0.6,1,1,1.4c0.4,0.4,0.9,0.6,1.5,0.8   C377.7,240.9,378.3,241,378.9,241L378.9,241z M377.8,231.3c-0.5,0-0.9,0.1-1.3,0.3c-0.4,0.2-0.8,0.4-1.1,0.8   c-0.3,0.3-0.5,0.7-0.7,1.1c-0.2,0.4-0.3,0.9-0.3,1.4h6.4c0-0.5-0.1-1-0.2-1.4c-0.1-0.4-0.3-0.8-0.6-1.1c-0.2-0.3-0.6-0.6-0.9-0.7   C378.7,231.4,378.3,231.3,377.8,231.3z" />
	
</g></svg>