<svg viewBox="0 0 892 283.5" role="img" aria-labelledby="wheat--title" xmlns="http://www.w3.org/2000/svg" xmlns:xlink="http://www.w3.org/1999/xlink"><title id="wheat--title">WHEAT</title><path d="M646.3,259.5c0.7,4.7,2.9,9.1,6.5,12.8c3.2,3.3,9,7.6,18.3,9.7c4,0.9,8.3,1.4,12.8,1.5  c5.4,0.1,9.6-0.3,13.2-1.1c4.4-0.9,8.8-2.2,13.1-3.8c1.9-0.7,4.1-1.6,6.1-2.6c1.5-0.8,3-1.6,4.4-2.5c-1.5-4.3-4.6-8.1-9.1-11.1  c-5.2-3.5-12-6-19.6-7.3c-3.9-0.7-8-1-12-1c-4.9-0.1-8.7,0-12.3,0.4c-3.5,0.4-7.1,1-11.8,2.2C652.6,257.4,649.3,258.4,646.3,259.5  L646.3,259.5z" fill="#009A96"  /><path d="M698.2,239.4c1.5,4.3,4.4,8.1,8.3,10.8c4.8,3.4,11.3,5.5,18.8,6c7.2,0.7,15.1-0.6,24.3-3.9  c2-0.7,4-1.5,6-2.4c1.6-0.7,3.1-1.6,4.7-2.6l0.9-0.5c3.1-2,6.1-4.1,8.9-6.4c-4.6-8.2-15.5-12.8-29.6-12.6c-7.7-0.2-15.3,1-22.7,3.4  h-0.1C710.8,232.9,704.3,235.7,698.2,239.4L698.2,239.4z" fill="#88CCCB"  /><path d="M742.9,212.3c4.6,8.4,15,12.8,28.1,11.8c7.2-0.8,14.9-3.3,22.2-7.1c6.5-3.8,12.5-8.7,17.3-14  c-5.5-6.9-16.4-9.9-29.7-7.8c-7.9,1.4-15,3.6-21,6.5c-1.6,0.8-3.2,1.6-4.8,2.6l-2.3,1.4c-0.9,0.5-1.6,0.9-2.4,1.4  C747.7,208.7,745.2,210.4,742.9,212.3L742.9,212.3z" fill="#009A96"  /><path d="M783.1,178.3c5.6,7.2,16.1,9.8,27.8,6.7c3.4-0.9,6.9-2.1,10.3-3.8c1.6-0.7,3.2-1.6,4.8-2.7  c1.6-1,3.1-2.2,4.6-3.3c6.3-5,11.1-10.2,14.3-15.4c-2.8-2.6-6.6-4.3-11.1-5c-2.5-0.4-5.3-0.4-8.2,0c-3.1,0.3-6.3,0.9-9.6,1.9  C803.6,160.6,791.7,168.5,783.1,178.3L783.1,178.3z" fill="#88CCCB"  /><path d="M863.5,132.2c-1.7,1.7-3.4,3.3-5.2,4.8v100.3c0,7.1-5.8,12.9-12.9,12.9h-82.3l-0.8,0.5c-1.6,1-3.3,2-5.1,2.8  c-2,0.9-4.1,1.8-6.2,2.5c-2,0.7-4,1.3-5.9,1.9h100.4c11.4,0,20.6-9.2,20.6-20.6V129.6C865.2,130.5,864.4,131.4,863.5,132.2  L863.5,132.2z M816.7,139.2c6.2,5.8,16.2,6.7,27.1,2.3c1.8-0.7,3.3-1.4,4.6-2.2c1.4-0.8,2.9-1.8,4.3-2.8c2.8-2,5.5-4.4,8.1-7  c4.4-4.3,8.1-9.8,11.1-16.4c-6.6-4.4-16.6-4-27.3,1.3h-0.1c-5.9,2.7-11.4,6.5-16.2,11.2C823.3,130.2,819.5,134.7,816.7,139.2  L816.7,139.2z" fill="#009A96"  /><path d="M844.5,94.2c2.9,1.9,6.4,2.9,10.3,2.9c5.1-0.1,10.5-1.8,15.1-4.8c5.4-3.4,10.3-8.2,14.3-13.8  c3.4-5.2,6.1-11,7.8-16.9c-6.8-3.1-16.1-1.2-25.4,5.3c-2.1,1.4-3.9,3.1-5.9,4.8c-0.4,0.4-0.9,0.8-1.3,1.2c-2.3,2.1-4.4,4.4-6.4,6.9  c-1.9,2.4-3.6,5-5.1,7.7C846.7,89.8,845.4,92,844.5,94.2L844.5,94.2z" fill="#88CCCB"  /><path d="M671.7,179.2c-0.9,0.4-1.7,0.8-2.6,1.3l-1.2,0.6l-3,1.5c-2.6,1.5-5.2,3.3-7.5,5.4l-1.5,1.5  c-1.9,1.8-3.7,3.5-5.4,5.4c-2.2,2.5-4.1,5.3-5.8,8.3c-3.6,6.4-5.8,12.2-6.5,17.8c-0.7,5.3-0.2,10.2,1.5,14.4c3-0.6,5.9-1.5,8.7-2.7  c3-1.3,6.1-3.1,9.5-5.4c3.4-2.4,6-4.7,8.2-7.1c2.4-2.8,4.4-5.9,6.1-9c3.2-6.1,4.6-12.3,4.1-18.2  C675.9,187.9,674.4,183.2,671.7,179.2z" fill="#009A96"  /><path d="M708.5,158.5c-2,1.2-4,2.7-5.8,4.3c-0.6,0.5-1.2,1.1-1.8,1.7c-0.5,0.5-1,1-1.6,1.5c-1.1,1-2.1,2.1-3.1,3.2  c-3.5,4.1-6.8,9.6-9.7,16.6c-2.3,5.9-3.4,12.1-3.1,17.8c0.3,5.2,1.5,9.5,3.8,13.2c5.5-2.4,11-6,15.8-10.6c5-5.4,8.7-11.4,10.9-17.6  C717.5,177,715.5,166.1,708.5,158.5L708.5,158.5z" fill="#88CCCB"  /><path d="M740.2,133.8c-4,3.3-7.4,7.3-10,12l-0.1,0.1c-3.3,5.1-5.6,10.8-6.8,17c-2.6,11.6-0.7,22.3,5.2,28.9  c2.3-1.4,4.5-3.1,6.6-4.9c0.6-0.5,1.2-1.1,1.9-1.7c0.5-0.5,1.1-1.2,1.6-1.8c1.1-1.3,2.1-2.6,3.1-4c4.4-6.2,6.9-12.1,7.7-18.1  C751.1,149.9,747.8,140,740.2,133.8z" fill="#009A96"  /><path d="M768.2,104.1c-2.7,3.4-5.8,7.7-7.9,12.7c-0.5,1.3-1,2.7-1.4,4.1l-1.2,4.4c-0.7,2.8-1.2,5.8-1.4,8.8  c-0.5,11.6,2.8,21.1,9.2,26.4c9.2-8,15.1-20.3,15.1-31.8c0.1-3-0.2-5.9-0.9-8.6c-0.7-2.5-1.7-5-3-7.2  C774.6,109.1,771.6,106.2,768.2,104.1L768.2,104.1z" fill="#88CCCB"  /><path d="M791.1,71c-2.7,4.3-4.3,9.2-5.5,13.2c-0.7,2.6-1.1,5.3-1.3,8.1c-0.1,1.4-0.1,2.9-0.1,4.3  c0,1.3,0,2.8,0.1,4.3c0.8,10.5,5.5,19.2,12.3,23.4c3.7-4.5,6.3-9.3,7.9-14.1c1.8-6,2.4-12.2,1.7-17.8  C804.7,82.2,799.1,74.3,791.1,71L791.1,71z" fill="#009A96"  /><path d="M809.4,33.9c-1.8,3.9-2.8,8.3-3.1,12.9v0.1c-0.6,5.4-0.2,10.7,1.2,15.7c1.6,5.7,3.7,10,6.4,13.4  c2.4,3,5.4,5.3,8.5,6.6c1.1-1.7,2.2-3.8,3.1-6c0.9-2.7,1.6-5.5,2.1-8.3c0.5-2.9,0.6-5.7,0.5-8.5c0-2.9-0.9-5.9-1.6-8.3  C823.5,42.1,817.3,35.8,809.4,33.9L809.4,33.9z" fill="#88CCCB"  /><path d="M843.3,70l-2.1,0.9l-0.8-2.1c-0.4-1.1-0.7-2.2-1-3.3C799.9,164.8,710.4,236.6,604,250c-1,0.1-9,0.2-19,0.2  H21.6c-7.6,0-13.7-6.1-13.7-13.7V30.1c0-7.6,6.1-13.7,13.7-13.7h824.3c1.3-2.6,2.6-5,3.9-7.3c0.1-0.2,0.3-0.4,0.4-0.6H21.6  C9.7,8.5,0,18.2,0,30.1v206.4C0,248.3,9.7,258,21.6,258h563.3c7.2,0,18.3,0,19.9-0.2c62.9-7.9,120.6-35.1,166.9-78.5  c33.1-31.1,58.6-68.8,75.3-111C845.8,68.9,844.6,69.4,843.3,70L843.3,70z" fill="#009A96"  /><path d="M863.1,0c-3.6,3-6.9,6.8-9.7,11.3c-3,5.2-6.3,11.5-8.4,18.7c-0.5,1.7-0.9,3.5-1.3,5.2l-0.2,1.1  c-0.3,1.4-0.5,2.8-0.8,4.2c-0.6,3.2-0.9,6.5-0.9,9.7c0,3.1,0.2,6.2,0.7,9.1c0.3,1.9,0.7,3.9,1.2,5.7c1.9-1,3.5-2,4.8-3.1  c2.3-1.9,4.4-4.1,6.5-6.7c2.1-2.6,4.1-5.6,5.8-8.7c0.9-1.5,1.6-3.1,2.3-4.9c0.7-1.8,1.3-3.7,1.8-5.5c2.3-8.2,3.1-15.4,2.2-21.4  C866.6,8.9,865.2,4,863.1,0L863.1,0z M39.5,67.8h13.8l27.4,96.7l38.5-96.7h2.8l38,96.7l27.9-96.7h13.7L163,201.9h-2.5l-39.8-101.5  L80.1,201.9h-2.5L39.5,67.8z M220.2,67.8h13.4V124h68.4V67.8h13.4V202h-13.4v-64.8h-68.3V202h-13.4L220.2,67.8L220.2,67.8z   M346.2,67.8h76.9v13.1h-63.5v42h62.9V136h-62.9v52.7h62.9v13.1h-76.3V67.8z M502.1,67.8L564.7,202h-14.5l-21.1-44.1h-57.8  L450.4,202h-15l63.4-134.2H502.1L502.1,67.8z M500.4,96.3l-23,48.6h45.9L500.4,96.3L500.4,96.3z M559.1,80.9V67.8h73.5v13.1h-29.9  v121H589v-121L559.1,80.9L559.1,80.9z" fill="#009A96"  /></svg>