<svg viewBox="0 0 871.7 283.5" role="img" aria-labelledby="adept--title" xmlns="http://www.w3.org/2000/svg" xmlns:xlink="http://www.w3.org/1999/xlink"><title id="adept--title">ADEPT - Abnormal Doppler Enteral Prescription Trial</title><path d="M141.7,283.5c78.3,0,141.7-63.5,141.7-141.7C283.5,63.5,220,0,141.7,0C63.5,0,0,63.5,0,141.7  C0,220,63.5,283.5,141.7,283.5L141.7,283.5z" fill="#91CFCC"  /><path d="M36.8,228.7c0,0,44.5-217.3,104.5-217.3s131.1,217.3,93.2,217.3c-37.8,0-136.7-44.1-136.7-95.9  c0-51.8,151.6-58.2,151.6-58.2l-135.7,58.2l117.5,85.5l-90-194.8L36.8,228.7z" fill="#FFFFFF"  /><g><path d="M306.3,225.5V58h84.9c36.3,0,54.4,21.8,54.4,65.4v38.7c0,42.2-18,63.4-53.9,63.4L306.3,225.5L306.3,225.5   L306.3,225.5z M325.3,208.7h63.3c13.5,0,23.2-3.5,29.1-10.6c6-7,8.9-19.4,8.9-37.1v-46.4c0-11.2-3.1-20.6-9.2-28.2   c-6-7.7-14.7-11.6-26.1-11.6h-66.2V208.7L325.3,208.7z M465.1,225.5V58H573v16.8h-89v55.4h85.2V147H484v61.7h89v16.8L465.1,225.5   L465.1,225.5L465.1,225.5z M594.1,58h84.7c14.4,0,24.8,4.1,31.1,12.3c6.4,8.1,9.6,21.2,9.6,39.1c0,18-3.4,30.9-10.2,38.8   c-6.8,7.9-17.5,11.8-32.2,11.8h-64v65.4h-19L594.1,58L594.1,58L594.1,58z M613,74.8v68.5h50.9c15.5,0,25.5-2.1,29.9-6.2   c4.4-4.1,6.7-13.1,6.7-26.9c0-14.5-1.8-23.9-5.3-28.5c-3.5-4.6-10.7-6.9-21.6-6.9L613,74.8L613,74.8z M730.3,58h127.1v16.8h-54.1   v150.7h-19V74.8h-54.1L730.3,58L730.3,58z" fill="#91CFCC"  />
	
</g><g><path d="M248.5,276.4l8.2-22.5h3.6l8.2,22.5h-2.6l-1.7-4.8h-11.2l-1.8,4.8H248.5z M253.6,269.3h9.7l-4.8-13.3   L253.6,269.3L253.6,269.3z M270.8,276.4v-22.5h2.4v8.7c0.7-1.4,2.4-2.1,5.2-2.1c2,0,3.5,0.5,4.5,1.5c1,1,1.5,3.2,1.5,6.6   c0,3-0.4,5.1-1.3,6.2c-0.9,1.1-2.5,1.7-4.7,1.7c-1.4,0-2.6-0.2-3.3-0.5c-0.8-0.3-1.4-0.9-1.9-1.6v2L270.8,276.4L270.8,276.4   L270.8,276.4z M273.3,269.1c0,2.1,0.3,3.5,0.9,4.3c0.6,0.8,1.8,1.2,3.6,1.2c1.9,0,3.1-0.4,3.6-1.3c0.5-0.9,0.7-2.5,0.7-4.7   c0-2.6-0.2-4.3-0.7-5c-0.5-0.8-1.7-1.2-3.6-1.2c-1.7,0-2.8,0.3-3.4,1c-0.6,0.6-1,2.1-1,4.5L273.3,269.1L273.3,269.1L273.3,269.1   L273.3,269.1z M288.1,276.4v-15.7h2.4v2c0.4-0.8,1-1.4,1.7-1.7c0.7-0.3,1.8-0.5,3.2-0.5c2.2,0,3.7,0.4,4.5,1.2   c0.9,0.8,1.3,2.2,1.3,4.1v10.5h-2.4v-10.6c0-1.2-0.2-2-0.7-2.5c-0.5-0.5-1.5-0.8-3-0.8c-1.8,0-3,0.3-3.7,1c-0.7,0.6-1,1.9-1,3.8   v9.2L288.1,276.4L288.1,276.4z M305,268.5c0-3.3,0.4-5.5,1.3-6.5c0.9-1,2.8-1.5,5.7-1.5c3,0,4.9,0.6,5.7,1.7   c0.8,1.1,1.2,3.2,1.2,6.4c0,3.3-0.5,5.5-1.4,6.5c-0.9,1-2.8,1.5-5.6,1.5c-3.2,0-5.2-0.6-5.9-1.8C305.3,273.6,305,271.5,305,268.5   L305,268.5z M307.4,268.6c0,2.7,0.2,4.4,0.6,5c0.4,0.7,1.7,1,3.9,1c2.1,0,3.3-0.4,3.8-1.1c0.5-0.7,0.7-2.4,0.7-5   c0-2.6-0.2-4.3-0.6-5c-0.4-0.7-1.4-1.1-3-1.1h-1.2c-2.2,0-3.4,0.5-3.7,1.4C307.6,264.7,307.4,266.3,307.4,268.6z M322.3,260.7h2.4   v1.9c0.3-0.7,0.8-1.2,1.5-1.5c0.7-0.3,1.6-0.5,2.8-0.5c2.9,0,4.3,1.5,4.3,4.4v1.2h-2.3v-1c0-1-0.2-1.6-0.6-2   c-0.4-0.4-1.1-0.6-2-0.6c-1.3,0-2.3,0.3-2.9,0.9c-0.6,0.6-0.9,1.7-0.9,3.3v9.7h-2.4V260.7L322.3,260.7z M335.7,260.7h2.4v2.7   c0.8-1.9,2.5-2.8,5.3-2.8c2.8,0,4.4,0.9,4.8,2.6c0.8-1.7,2.7-2.6,5.7-2.6c1.9,0,3.2,0.4,4.1,1.3c0.8,0.9,1.3,2.2,1.3,4.2v10.4h-2.4   v-10.5c0-1.4-0.3-2.3-0.8-2.8c-0.5-0.4-1.4-0.7-2.6-0.7c-1.8,0-3,0.3-3.7,1c-0.7,0.6-1.1,1.7-1.1,3.3v9.7h-2.4v-10.7   c0-1.3-0.2-2.1-0.7-2.6c-0.5-0.4-1.4-0.7-2.8-0.7c-3.1,0-4.7,1.5-4.7,4.5v9.5h-2.4L335.7,260.7L335.7,260.7z M374.1,268.8v-3.1   c0-1.4-0.3-2.3-0.9-2.7c-0.6-0.4-1.8-0.6-3.5-0.6c-1.6,0-2.6,0.2-3.2,0.5c-0.5,0.4-0.8,1-0.8,1.9v0.3h-2.4c0-1.5,0.4-2.7,1.1-3.5   c0.8-0.8,2.6-1.2,5.4-1.2c2.5,0,4.2,0.4,5.2,1.1c1,0.7,1.4,2.1,1.4,4.1v10.7h-2.4v-1.7c-0.5,0.9-1.2,1.4-2,1.6   c-0.8,0.2-1.9,0.3-3.2,0.3c-2.3,0-3.9-0.4-4.8-1.1c-0.9-0.7-1.3-1.9-1.3-3.6c0-2,0.5-3.3,1.6-4c0.9-0.6,2.4-0.9,4.6-0.9   C372,266.9,373.7,267.5,374.1,268.8z M365.3,271.5c0,1.2,0.2,2.1,0.7,2.5c0.5,0.4,1.5,0.6,3,0.6h0.5c1.5,0,2.7-0.2,3.4-0.6   c0.7-0.4,1.1-1.2,1.1-2.3c0-1-0.3-1.8-0.8-2.2c-0.5-0.4-1.7-0.7-3.7-0.7c-1.8,0-3,0.2-3.5,0.5C365.5,269.6,365.3,270.4,365.3,271.5   L365.3,271.5z M380.5,276.4v-22.5h2.4v22.5L380.5,276.4L380.5,276.4z M397.1,276.4v-22.5h11.4c4.9,0,7.3,2.9,7.3,8.8v5.2   c0,5.7-2.4,8.5-7.2,8.5L397.1,276.4L397.1,276.4z M399.7,274.1h8.5c1.8,0,3.1-0.5,3.9-1.4c0.8-0.9,1.2-2.6,1.2-5v-6.2   c0-1.5-0.4-2.8-1.2-3.8c-0.8-1-2-1.6-3.5-1.6h-8.9L399.7,274.1L399.7,274.1z M418.8,268.5c0-3.3,0.4-5.5,1.3-6.5   c0.9-1,2.8-1.5,5.7-1.5c3,0,4.9,0.6,5.7,1.7c0.8,1.1,1.2,3.2,1.2,6.4c0,3.3-0.5,5.5-1.4,6.5c-0.9,1-2.7,1.5-5.6,1.5   c-3.2,0-5.2-0.6-5.9-1.8C419.1,273.6,418.8,271.5,418.8,268.5L418.8,268.5z M421.2,268.6c0,2.7,0.2,4.4,0.6,5c0.4,0.7,1.7,1,3.9,1   c2.1,0,3.3-0.4,3.8-1.1c0.5-0.7,0.7-2.4,0.7-5c0-2.6-0.2-4.3-0.6-5c-0.4-0.7-1.4-1.1-3-1.1h-1.2c-2.2,0-3.4,0.5-3.7,1.4   C421.4,264.7,421.2,266.3,421.2,268.6L421.2,268.6z M438.6,262.9c0.8-1.6,2.6-2.3,5.2-2.3c2.3,0,3.9,0.6,4.8,1.7   c0.9,1.1,1.3,3.1,1.3,6.1c0,3.3-0.4,5.5-1.3,6.6c-0.9,1.1-2.5,1.7-4.8,1.7c-2.8,0-4.5-0.7-5.1-2.1v8.7h-2.4v-22.5h2.4L438.6,262.9z    M438.6,269.1c0,2.2,0.3,3.6,1,4.4c0.7,0.8,1.8,1.2,3.5,1.2c1.9,0,3.1-0.4,3.5-1.2c0.5-0.8,0.8-2.5,0.8-5c0-2.5-0.3-4.1-0.8-4.9   c-0.5-0.8-1.7-1.1-3.5-1.1c-1.7,0-2.8,0.3-3.5,0.8c-0.7,0.6-1,1.8-1.1,3.9L438.6,269.1L438.6,269.1L438.6,269.1L438.6,269.1   L438.6,269.1z M455.8,262.9c0.8-1.6,2.6-2.3,5.2-2.3c2.3,0,3.9,0.6,4.8,1.7c0.9,1.1,1.3,3.1,1.3,6.1c0,3.3-0.4,5.5-1.3,6.6   c-0.9,1.1-2.5,1.7-4.8,1.7c-2.8,0-4.5-0.7-5.1-2.1v8.7h-2.4v-22.5h2.4L455.8,262.9z M455.8,269.1c0,2.2,0.3,3.6,1,4.4   c0.7,0.8,1.8,1.2,3.5,1.2c1.9,0,3.1-0.4,3.5-1.2c0.5-0.8,0.8-2.5,0.8-5c0-2.5-0.3-4.1-0.8-4.9c-0.5-0.8-1.7-1.1-3.5-1.1   c-1.7,0-2.8,0.3-3.5,0.8c-0.7,0.6-1,1.8-1.1,3.9v1L455.8,269.1L455.8,269.1z M470.7,276.4v-22.5h2.4v22.5L470.7,276.4L470.7,276.4z    M479.1,269v1.5c0,1.5,0.3,2.6,0.7,3.2c0.5,0.6,1.6,0.9,3.3,0.9h0.6c1.8,0,3-0.2,3.4-0.5c0.5-0.3,0.7-1.2,0.7-2.5h2.4v0.5   c0,1.7-0.5,2.9-1.5,3.5c-1,0.6-2.6,0.9-4.9,0.9c-2.9,0-4.9-0.5-5.8-1.5c-1-1-1.5-3.1-1.5-6.3c0-3.3,0.5-5.5,1.4-6.6   c0.9-1.1,2.8-1.7,5.6-1.7c2.6,0,4.4,0.5,5.3,1.4c0.9,0.9,1.4,2.7,1.4,5.4v1.8L479.1,269L479.1,269L479.1,269z M479.1,267.1h8.8   c-0.1-1.8-0.3-3.1-0.7-3.7c-0.4-0.6-1.5-1-3.4-1c-1.9,0-3.2,0.3-3.8,0.7C479.5,263.7,479.2,265,479.1,267.1z M493.8,260.7h2.4v1.9   c0.3-0.7,0.8-1.2,1.5-1.5c0.7-0.3,1.6-0.5,2.8-0.5c2.9,0,4.3,1.5,4.3,4.4v1.2h-2.3v-1c0-1-0.2-1.6-0.6-2c-0.4-0.4-1.1-0.6-2-0.6   c-1.3,0-2.3,0.3-2.9,0.9c-0.6,0.6-0.9,1.7-0.9,3.3v9.7h-2.4L493.8,260.7L493.8,260.7z M516.9,276.4v-22.5h14.5v2.3h-11.9v7.4h11.4   v2.3h-11.4v8.3h11.9v2.3L516.9,276.4L516.9,276.4z M534.5,276.4v-15.7h2.4v2c0.4-0.8,1-1.4,1.7-1.7c0.7-0.3,1.8-0.5,3.2-0.5   c2.2,0,3.7,0.4,4.5,1.2c0.9,0.8,1.3,2.2,1.3,4.1v10.5h-2.4v-10.6c0-1.2-0.2-2-0.7-2.5c-0.5-0.5-1.5-0.8-3-0.8c-1.8,0-3,0.3-3.7,1   c-0.7,0.6-1,1.9-1,3.8v9.2L534.5,276.4L534.5,276.4z M549.7,260.7h2.1v-3.8h2.4v3.8h6.1v1.9h-6.1v9.9c0,0.8,0.2,1.4,0.4,1.7   c0.3,0.3,0.9,0.4,1.7,0.4c0.9,0,1.6-0.2,1.9-0.5c0.4-0.3,0.5-1,0.5-1.9v-1.6h2.3v1.3c0,3.1-1.5,4.6-4.6,4.6c-1.9,0-3.2-0.3-3.7-1   c-0.6-0.7-0.9-1.9-0.9-3.6v-9.4h-2.1V260.7L549.7,260.7z M564.8,269v1.5c0,1.5,0.3,2.6,0.8,3.2c0.5,0.6,1.6,0.9,3.3,0.9h0.6   c1.8,0,3-0.2,3.4-0.5c0.5-0.3,0.7-1.2,0.7-2.5h2.4v0.5c0,1.7-0.5,2.9-1.5,3.5c-1,0.6-2.6,0.9-5,0.9c-2.9,0-4.9-0.5-5.8-1.5   c-1-1-1.4-3.1-1.4-6.3c0-3.3,0.5-5.5,1.4-6.6c0.9-1.1,2.8-1.7,5.6-1.7c2.6,0,4.4,0.5,5.3,1.4c0.9,0.9,1.4,2.7,1.4,5.4v1.8   L564.8,269L564.8,269L564.8,269z M564.8,267.1h8.8c-0.1-1.8-0.3-3.1-0.7-3.7c-0.4-0.6-1.5-1-3.4-1c-1.9,0-3.2,0.3-3.7,0.7   C565.2,263.7,564.9,265,564.8,267.1z M579.5,260.7h2.4v1.9c0.3-0.7,0.8-1.2,1.5-1.5c0.7-0.3,1.6-0.5,2.8-0.5c2.9,0,4.3,1.5,4.3,4.4   v1.2h-2.3v-1c0-1-0.2-1.6-0.6-2c-0.4-0.4-1.1-0.6-2-0.6c-1.3,0-2.3,0.3-2.9,0.9c-0.6,0.6-0.9,1.7-0.9,3.3v9.7h-2.4L579.5,260.7   L579.5,260.7z M603.8,268.8v-3.1c0-1.4-0.3-2.3-0.9-2.7c-0.6-0.4-1.8-0.6-3.5-0.6c-1.6,0-2.7,0.2-3.2,0.5c-0.5,0.4-0.8,1-0.8,1.9   v0.3H593c0-1.5,0.4-2.7,1.1-3.5c0.8-0.8,2.6-1.2,5.4-1.2c2.5,0,4.3,0.4,5.2,1.1c1,0.7,1.5,2.1,1.5,4.1v10.7h-2.4v-1.7   c-0.5,0.9-1.2,1.4-2,1.6c-0.8,0.2-1.9,0.3-3.2,0.3c-2.3,0-3.9-0.4-4.8-1.1c-0.9-0.7-1.3-1.9-1.3-3.6c0-2,0.5-3.3,1.6-4   c0.9-0.6,2.4-0.9,4.6-0.9C601.7,266.9,603.4,267.5,603.8,268.8z M595,271.5c0,1.2,0.2,2.1,0.7,2.5c0.5,0.4,1.5,0.6,3,0.6h0.5   c1.5,0,2.7-0.2,3.4-0.6c0.7-0.4,1.1-1.2,1.1-2.3c0-1-0.3-1.8-0.8-2.2c-0.5-0.4-1.7-0.7-3.7-0.7c-1.8,0-3,0.2-3.5,0.5   C595.2,269.6,595,270.4,595,271.5L595,271.5z M610.2,276.4v-22.5h2.4v22.5L610.2,276.4L610.2,276.4z M626.7,253.9H638   c1.9,0,3.3,0.6,4.2,1.7c0.9,1.1,1.3,2.8,1.3,5.3c0,2.4-0.5,4.1-1.4,5.2c-0.9,1.1-2.4,1.6-4.3,1.6h-8.6v8.8h-2.5L626.7,253.9   L626.7,253.9L626.7,253.9z M629.2,256.1v9.2h6.8c2.1,0,3.4-0.3,4-0.8c0.6-0.6,0.9-1.8,0.9-3.6c0-1.9-0.2-3.2-0.7-3.8   c-0.5-0.6-1.4-0.9-2.9-0.9L629.2,256.1L629.2,256.1z M646.5,260.7h2.4v1.9c0.3-0.7,0.8-1.2,1.5-1.5c0.7-0.3,1.7-0.5,2.8-0.5   c2.9,0,4.3,1.5,4.3,4.4v1.2h-2.3v-1c0-1-0.2-1.6-0.6-2c-0.4-0.4-1.1-0.6-2-0.6c-1.3,0-2.3,0.3-2.9,0.9c-0.6,0.6-0.9,1.7-0.9,3.3   v9.7h-2.4V260.7L646.5,260.7z M662,269v1.5c0,1.5,0.3,2.6,0.7,3.2c0.5,0.6,1.6,0.9,3.3,0.9h0.6c1.8,0,3-0.2,3.4-0.5   c0.5-0.3,0.7-1.2,0.7-2.5h2.4v0.5c0,1.7-0.5,2.9-1.5,3.5c-1,0.6-2.6,0.9-4.9,0.9c-2.9,0-4.9-0.5-5.8-1.5c-1-1-1.5-3.1-1.5-6.3   c0-3.3,0.5-5.5,1.4-6.6c0.9-1.1,2.8-1.7,5.6-1.7c2.6,0,4.4,0.5,5.3,1.4c0.9,0.9,1.4,2.7,1.4,5.4v1.8L662,269L662,269z M662,267.1   h8.8c-0.1-1.8-0.3-3.1-0.7-3.7c-0.4-0.6-1.5-1-3.4-1c-1.9,0-3.2,0.3-3.8,0.7C662.4,263.7,662.1,265,662,267.1z M678.8,271.4v1.2   c0,0.9,0.3,1.4,1,1.7c0.7,0.2,2.1,0.4,4.2,0.4c1.3,0,2.2-0.2,2.7-0.5c0.5-0.3,0.8-1,0.8-2v-0.5c0-1.3-0.7-2-2.1-2.1l-0.6,0   l-3.7-0.2c-3-0.2-4.5-1.6-4.5-4.2c0-1.9,0.5-3.1,1.4-3.7c0.9-0.6,2.7-0.9,5.4-0.9c2.2,0,3.8,0.3,4.8,0.8c1,0.5,1.5,1.5,1.5,2.9v0.6   h-2.4v-0.5c0-0.7-0.2-1.2-0.6-1.4c-0.4-0.2-1.2-0.3-2.5-0.3h-1.4c-1.5,0-2.5,0.1-2.9,0.5c-0.5,0.3-0.7,0.9-0.7,1.7v0.7   c0,1.2,0.6,1.8,1.8,1.9l4,0.3l1,0.1c2.7,0.2,4.1,1.6,4.1,4.2v0.4c0,1.5-0.4,2.6-1.2,3.4c-0.8,0.8-2.6,1.1-5.3,1.1   c-2.6,0-4.4-0.3-5.5-0.8c-1-0.6-1.6-1.5-1.6-2.9v-1.4L678.8,271.4L678.8,271.4L678.8,271.4L678.8,271.4L678.8,271.4z M703.9,270.7   h2.4v0.9c0,2-0.6,3.3-1.7,4c-1.1,0.6-2.7,1-4.9,1c-3.1,0-5.1-0.6-5.9-1.7c-0.8-1.1-1.3-3.2-1.3-6.3c0-3.3,0.5-5.4,1.4-6.5   c1-1.1,2.8-1.6,5.5-1.6c2.4,0,4.1,0.4,5,1.1c1,0.8,1.5,2,1.5,3.8v0.5h-2.4v-0.5c0-1.2-0.3-1.9-0.8-2.3c-0.5-0.4-1.7-0.6-3.4-0.6   c-2,0-3.3,0.4-3.7,1.1c-0.5,0.8-0.7,2.5-0.7,5.3c0,2.7,0.3,4.3,0.9,4.9c0.6,0.6,1.9,0.9,3.9,0.9c1.7,0,2.8-0.2,3.3-0.6   C703.6,273.6,703.9,272.5,703.9,270.7L703.9,270.7z M709.2,260.7h2.4v1.9c0.3-0.7,0.8-1.2,1.5-1.5c0.7-0.3,1.7-0.5,2.8-0.5   c2.9,0,4.3,1.5,4.3,4.4v1.2H718v-1c0-1-0.2-1.6-0.6-2c-0.4-0.4-1.1-0.6-2-0.6c-1.3,0-2.3,0.3-2.9,0.9c-0.6,0.6-0.9,1.7-0.9,3.3v9.7   h-2.4L709.2,260.7L709.2,260.7z M722.7,253.9h2.4v2.6h-2.4V253.9z M722.7,260.7h2.4v15.7h-2.4V260.7z M731.5,262.9   c0.8-1.6,2.6-2.3,5.2-2.3c2.3,0,3.9,0.6,4.8,1.7c0.9,1.1,1.3,3.1,1.3,6.1c0,3.3-0.4,5.5-1.3,6.6c-0.9,1.1-2.5,1.7-4.8,1.7   c-2.8,0-4.5-0.7-5.1-2.1v8.7h-2.4v-22.5h2.4L731.5,262.9L731.5,262.9z M731.5,269.1c0,2.2,0.3,3.6,1,4.4c0.7,0.8,1.8,1.2,3.5,1.2   c1.9,0,3.1-0.4,3.5-1.2c0.5-0.8,0.8-2.5,0.8-5c0-2.5-0.3-4.1-0.8-4.9c-0.5-0.8-1.7-1.1-3.5-1.1c-1.7,0-2.8,0.3-3.5,0.8   c-0.7,0.6-1,1.8-1.1,3.9v1L731.5,269.1L731.5,269.1z M744.1,260.7h2.1v-3.8h2.4v3.8h6.1v1.9h-6.1v9.9c0,0.8,0.1,1.4,0.4,1.7   c0.3,0.3,0.9,0.4,1.7,0.4c0.9,0,1.5-0.2,1.9-0.5c0.4-0.3,0.5-1,0.5-1.9v-1.6h2.3v1.3c0,3.1-1.5,4.6-4.6,4.6c-1.9,0-3.2-0.3-3.7-1   c-0.6-0.7-0.9-1.9-0.9-3.6v-9.4h-2.1L744.1,260.7L744.1,260.7z M757.3,253.9h2.4v2.6h-2.4V253.9z M757.3,260.7h2.4v15.7h-2.4V260.7   z M763.3,268.5c0-3.3,0.4-5.5,1.3-6.5c0.9-1,2.8-1.5,5.7-1.5c3,0,4.9,0.6,5.7,1.7c0.8,1.1,1.2,3.2,1.2,6.4c0,3.3-0.5,5.5-1.4,6.5   c-0.9,1-2.7,1.5-5.5,1.5c-3.2,0-5.2-0.6-5.9-1.8C763.7,273.6,763.3,271.5,763.3,268.5L763.3,268.5z M765.7,268.6   c0,2.7,0.2,4.4,0.6,5c0.4,0.7,1.7,1,3.9,1c2.1,0,3.3-0.4,3.8-1.1c0.5-0.7,0.7-2.4,0.7-5c0-2.6-0.2-4.3-0.6-5   c-0.4-0.7-1.4-1.1-3-1.1h-1.2c-2.2,0-3.4,0.5-3.7,1.4C765.9,264.7,765.7,266.3,765.7,268.6L765.7,268.6z M780.9,276.4v-15.7h2.4v2   c0.4-0.8,1-1.4,1.7-1.7c0.8-0.3,1.8-0.5,3.2-0.5c2.2,0,3.7,0.4,4.5,1.2c0.9,0.8,1.3,2.2,1.3,4.1v10.5h-2.4v-10.6   c0-1.2-0.2-2-0.7-2.5c-0.5-0.5-1.5-0.8-3-0.8c-1.8,0-3,0.3-3.7,1c-0.7,0.6-1,1.9-1,3.8v9.2L780.9,276.4L780.9,276.4z" fill="#91CFCC"  />
	
</g><g><path d="M806.9,251.4h19v2.5h-8.1v22.5h-2.8v-22.5h-8.1L806.9,251.4z M827.8,258.9h2.6v2.1c0.3-0.8,0.9-1.4,1.7-1.7   c0.8-0.4,1.8-0.5,3.2-0.5c3.2,0,4.8,1.6,4.8,4.9v1.4h-2.5v-1.2c0-1.1-0.2-1.8-0.6-2.2c-0.4-0.4-1.2-0.7-2.3-0.7   c-1.5,0-2.5,0.3-3.2,1c-0.7,0.7-1,1.9-1,3.6v10.8h-2.6L827.8,258.9L827.8,258.9z M842.9,251.3h2.6v2.9h-2.6V251.3z M842.9,258.9   h2.6v17.4h-2.6V258.9z M862,267.9v-3.4c0-1.5-0.3-2.5-1-3c-0.7-0.4-2-0.7-3.9-0.7c-1.8,0-2.9,0.2-3.5,0.6c-0.6,0.4-0.9,1.1-0.9,2.1   v0.4H850c0-1.7,0.4-3,1.2-3.9c0.8-0.9,2.8-1.3,6-1.3c2.8,0,4.7,0.4,5.8,1.2c1.1,0.8,1.6,2.3,1.6,4.5v11.9H862v-1.9   c-0.6,1-1.4,1.5-2.2,1.8c-0.9,0.2-2.1,0.3-3.6,0.3c-2.5,0-4.3-0.4-5.3-1.2c-1-0.8-1.5-2.1-1.5-4c0-2.2,0.6-3.7,1.8-4.5   c1-0.7,2.7-1,5.1-1C859.6,265.8,861.5,266.5,862,267.9L862,267.9z M852.1,271c0,1.4,0.3,2.3,0.8,2.8c0.5,0.5,1.6,0.7,3.4,0.7h0.6   c1.7,0,3-0.2,3.8-0.6c0.8-0.4,1.2-1.3,1.2-2.6c0-1.2-0.3-2-0.9-2.5c-0.6-0.5-1.9-0.7-4.1-0.7c-2,0-3.3,0.2-3.9,0.5   C852.5,268.8,852.1,269.7,852.1,271L852.1,271z M869,276.4v-25h2.6v25H869z" fill="#91CFCC"  />
	
</g></svg>