<svg viewBox="0 0 794.3 283.7" role="img" aria-labelledby="aimes-e--title" xmlns="http://www.w3.org/2000/svg" xmlns:xlink="http://www.w3.org/1999/xlink"><title id="aimes-e--title">AIMES - Assessing the Impact of Early Surgical Care in Exomphalos</title><g><path d="M15.6,227.3H4.2L2,233.2   c-0.1,0.4-0.5,0.6-0.8,0.6c-0.1,0-0.2,0-0.3,0c-0.4-0.2-0.7-0.7-0.5-1.1L9,209.3c0.1-0.3,0.5-0.5,0.9-0.5c0.4,0,0.8,0.2,0.9,0.5   l8.7,23.2c0.2,0.4,0,1-0.5,1.1c-0.1,0-0.2,0-0.3,0c-0.3,0-0.7-0.2-0.8-0.6L15.6,227.3z M4.8,225.5H15L9.9,212L4.8,225.5z" fill="#0053A1"  stroke="#0053A1"  stroke-width="0.504"  stroke-miterlimit="10"  /><path d="M23.3,230.1c0.3-0.4,0.8-0.4,1.2-0.1   c1.2,0.9,3.2,2,5.4,2c1.4,0,2.5-0.4,3.3-1.1c0.9-0.6,1.3-1.4,1.3-2.1c0-0.8-0.4-1.4-1.3-2.1c-0.8-0.6-2-1-3.7-1.3l-0.1,0   c-1.6-0.3-3-0.6-4-1.4c-1.1-0.6-1.9-1.8-1.9-3.2c0-1.4,0.8-2.6,1.9-3.4c1-0.7,2.5-1.2,4.3-1.2c2.3,0,3.9,1,5.2,1.9   c0.4,0.3,0.5,0.8,0.3,1.2c-0.3,0.4-0.8,0.5-1.2,0.3c-1.3-0.9-2.6-1.8-4.3-1.8c-1.4,0-2.6,0.4-3.3,1c-0.7,0.6-1.1,1.3-1.1,2   c0,0.7,0.3,1.2,1,1.8c0.8,0.5,2,1,3.6,1.2h0.1c1.7,0.3,3,0.8,4.3,1.4c1.1,0.8,2,2.1,2,3.6c0,1.5-0.8,2.7-2,3.5   c-1.2,0.9-2.7,1.4-4.4,1.4c-2.8,0-5.1-1.4-6.5-2.5C23.1,230.9,23.1,230.5,23.3,230.1z" fill="#0053A1"  stroke="#0053A1"  stroke-width="0.504"  stroke-miterlimit="10"  /><path d="M40.5,230.1c0.3-0.4,0.8-0.4,1.2-0.1   c1.2,0.9,3.2,2,5.4,2c1.4,0,2.5-0.4,3.3-1.1c0.9-0.6,1.3-1.4,1.3-2.1c0-0.8-0.4-1.4-1.3-2.1c-0.8-0.6-2-1-3.7-1.3l-0.1,0   c-1.6-0.3-3-0.6-4-1.4c-1.1-0.6-1.9-1.8-1.9-3.2c0-1.4,0.8-2.6,1.9-3.4c1-0.7,2.5-1.2,4.3-1.2c2.3,0,3.9,1,5.2,1.9   c0.4,0.3,0.5,0.8,0.3,1.2c-0.3,0.4-0.8,0.5-1.2,0.3c-1.3-0.9-2.6-1.8-4.3-1.8c-1.4,0-2.6,0.4-3.3,1c-0.7,0.6-1.1,1.3-1.1,2   c0,0.7,0.3,1.2,1,1.8c0.8,0.5,2,1,3.6,1.2h0.1c1.7,0.3,3,0.8,4.3,1.4c1.1,0.8,2,2.1,2,3.6c0,1.5-0.8,2.7-2,3.5   c-1.2,0.9-2.7,1.4-4.4,1.4c-2.8,0-5.1-1.4-6.5-2.5C40.3,230.9,40.2,230.5,40.5,230.1z" fill="#0053A1"  stroke="#0053A1"  stroke-width="0.504"  stroke-miterlimit="10"  /><path d="M58,225c0-4.9,3.8-8.8,8.5-8.8   c4.5,0,8.1,3.6,8.5,8.2v0v0.1c0,0.5-0.4,0.8-0.9,0.8H59.8c0.2,3.8,3.2,6.7,6.8,6.7c2.3,0,4.5-1.2,5.7-3.2c0.3-0.4,0.8-0.5,1.1-0.3   c0.4,0.3,0.5,0.8,0.3,1.2c-1.5,2.4-4.1,4-7.1,4C61.8,233.8,58,229.8,58,225z M59.9,223.6h13.3c-0.6-3.3-3.4-5.7-6.6-5.7   C63.3,217.9,60.5,220.3,59.9,223.6z" fill="#0053A1"  stroke="#0053A1"  stroke-width="0.504"  stroke-miterlimit="10"  /><path d="M79.8,230.1c0.3-0.4,0.8-0.4,1.2-0.1   c1.2,0.9,3.2,2,5.4,2c1.4,0,2.5-0.4,3.3-1.1c0.9-0.6,1.3-1.4,1.3-2.1c0-0.8-0.4-1.4-1.3-2.1c-0.8-0.6-2-1-3.7-1.3l-0.1,0   c-1.6-0.3-3-0.6-4-1.4c-1.1-0.6-1.9-1.8-1.9-3.2c0-1.4,0.8-2.6,1.9-3.4c1-0.7,2.5-1.2,4.3-1.2c2.3,0,3.9,1,5.2,1.9   c0.4,0.3,0.5,0.8,0.3,1.2c-0.3,0.4-0.8,0.5-1.2,0.3c-1.3-0.9-2.6-1.8-4.3-1.8c-1.4,0-2.6,0.4-3.3,1c-0.7,0.6-1.1,1.3-1.1,2   c0,0.7,0.3,1.2,1,1.8c0.8,0.5,2,1,3.6,1.2h0.1c1.7,0.3,3,0.8,4.3,1.4c1.1,0.8,2,2.1,2,3.6c0,1.5-0.8,2.7-2,3.5   c-1.2,0.9-2.7,1.4-4.4,1.4c-2.8,0-5.1-1.4-6.5-2.5C79.6,230.9,79.5,230.5,79.8,230.1z" fill="#0053A1"  stroke="#0053A1"  stroke-width="0.504"  stroke-miterlimit="10"  /><path d="M97,230.1c0.3-0.4,0.8-0.4,1.2-0.1   c1.2,0.9,3.2,2,5.4,2c1.4,0,2.5-0.4,3.3-1.1c0.9-0.6,1.3-1.4,1.3-2.1c0-0.8-0.4-1.4-1.3-2.1c-0.8-0.6-2-1-3.7-1.3l-0.1,0   c-1.6-0.3-3-0.6-4-1.4c-1.1-0.6-1.9-1.8-1.9-3.2c0-1.4,0.8-2.6,1.9-3.4c1-0.7,2.5-1.2,4.3-1.2c2.3,0,3.9,1,5.2,1.9   c0.4,0.3,0.5,0.8,0.3,1.2c-0.3,0.4-0.8,0.5-1.2,0.3c-1.3-0.9-2.6-1.8-4.3-1.8c-1.4,0-2.6,0.4-3.3,1c-0.7,0.6-1.1,1.3-1.1,2   c0,0.7,0.3,1.2,1,1.8c0.8,0.5,2,1,3.6,1.2h0.1c1.7,0.3,3,0.8,4.3,1.4c1.1,0.8,2,2.1,2,3.6c0,1.5-0.8,2.7-2,3.5   c-1.2,0.9-2.7,1.4-4.4,1.4c-2.8,0-5.1-1.4-6.5-2.5C96.8,230.9,96.7,230.5,97,230.1z" fill="#0053A1"  stroke="#0053A1"  stroke-width="0.504"  stroke-miterlimit="10"  /><path d="M115.8,211.3c0-0.5,0.4-0.9,0.9-0.9   c0.5,0,0.9,0.4,0.9,0.9v0.8c0,0.5-0.4,0.9-0.9,0.9c-0.5,0-0.9-0.4-0.9-0.9V211.3z M115.8,217.1c0-0.5,0.4-0.9,0.9-0.9   c0.5,0,0.9,0.4,0.9,0.9v15.8c0,0.5-0.4,0.9-0.9,0.9c-0.5,0-0.9-0.4-0.9-0.9V217.1z" fill="#0053A1"  stroke="#0053A1"  stroke-width="0.504"  stroke-miterlimit="10"  /><path d="M138.3,223.4c0-3-2.4-5.4-5.4-5.4   c-3,0-5.4,2.4-5.4,5.4v9.5v0.1c0,0.1-0.1,0.3-0.2,0.4c-0.1,0.2-0.4,0.3-0.6,0.3h-0.2c-0.3-0.1-0.5-0.3-0.6-0.5c0,0,0-0.1,0-0.1   c0,0,0-0.1,0-0.1v-0.2v-9.5v-0.3v-6c0-0.5,0.4-0.9,0.9-0.9c0.5,0,0.8,0.4,0.8,0.9v1.7c1.3-1.5,3.3-2.5,5.4-2.5   c3.9,0,7.1,3.2,7.1,7.1v9.5c0,0.5-0.4,0.9-0.9,0.9c-0.5,0-0.9-0.4-0.9-0.9V223.4z" fill="#0053A1"  stroke="#0053A1"  stroke-width="0.504"  stroke-miterlimit="10"  /><path d="M163,232.4c0,4.5-3.7,8.2-8.3,8.2   c-1.3,0-2.5-0.3-3.7-0.8c-0.4-0.3-0.6-0.8-0.4-1.1c0.2-0.5,0.7-0.6,1.1-0.4c0.9,0.4,1.8,0.6,2.9,0.6c3.7,0,6.6-2.9,6.6-6.5v-2.1   c-1.5,2.1-3.9,3.4-6.6,3.4c-4.6,0-8.2-3.9-8.2-8.7c0-4.7,3.7-8.7,8.2-8.7c2.7,0,5.1,1.4,6.6,3.4v-2.6c0-0.5,0.4-0.9,0.9-0.9   c0.4,0,0.8,0.4,0.8,0.9V232.4z M161.3,224.9c0-3.9-2.9-7-6.6-7c-3.6,0-6.5,3.1-6.5,7c0,3.9,2.9,7.1,6.5,7.1   C158.3,232,161.3,228.8,161.3,224.9z" fill="#0053A1"  stroke="#0053A1"  stroke-width="0.504"  stroke-miterlimit="10"  /><path d="M188,217.1c0,0.4-0.4,0.9-0.9,0.9h-2.3v12.8   c0,0.9,0.9,1.3,1.3,1.3c0.4,0,0.9,0.5,0.9,0.9c0,0.4-0.5,0.9-0.9,0.9c-1.8,0-3.1-1.3-3.1-3v-12.8h-2.2c-0.9,0-0.9-0.4-0.9-0.9   c0-0.4,0-0.9,0.9-0.9h2.2v-6.5c0-0.4,0.4-0.9,0.9-0.9c0.5,0,0.9,0.4,0.9,0.9v6.5h2.3C187.6,216.2,188,216.6,188,217.1z" fill="#0053A1"  stroke="#0053A1"  stroke-width="0.504"  stroke-miterlimit="10"  /><path d="M208.3,223.1c0-3.1-2.5-5.2-5.6-5.2   c-3,0-5.6,2.1-5.6,5.2v9.8v0.1c0,0.1,0,0.1,0,0.1c0,0.1,0,0.1-0.1,0.1c-0.1,0.2-0.3,0.4-0.5,0.4c0,0,0,0-0.1,0h-0.1h-0.1   c-0.3,0-0.5-0.1-0.7-0.3c-0.1-0.1-0.1-0.2-0.1-0.3c0-0.1,0-0.2,0-0.3v-9.8v-0.3v-13.3c0-0.5,0.4-0.9,0.9-0.9c0.5,0,0.9,0.4,0.9,0.9   v9.2c1.3-1.6,3.3-2.6,5.6-2.6c4,0,7.3,2.9,7.3,6.9v9.8c0,0.5-0.4,0.9-0.9,0.9c-0.5,0-0.9-0.4-0.9-0.9V223.1z" fill="#0053A1"  stroke="#0053A1"  stroke-width="0.504"  stroke-miterlimit="10"  /><path d="M216.1,225c0-4.9,3.8-8.8,8.5-8.8   c4.5,0,8.1,3.6,8.5,8.2v0v0.1c0,0.5-0.4,0.8-0.9,0.8h-14.4c0.2,3.8,3.2,6.7,6.8,6.7c2.3,0,4.5-1.2,5.7-3.2c0.3-0.4,0.8-0.5,1.1-0.3   c0.4,0.3,0.5,0.8,0.3,1.2c-1.5,2.4-4.1,4-7.1,4C219.9,233.8,216.1,229.8,216.1,225z M217.9,223.6h13.3c-0.6-3.3-3.4-5.7-6.6-5.7   C221.3,217.9,218.5,220.3,217.9,223.6z" fill="#0053A1"  stroke="#0053A1"  stroke-width="0.504"  stroke-miterlimit="10"  /><path d="M250.4,209.5c0-0.5,0.4-0.9,0.9-0.9   c0.5,0,0.9,0.4,0.9,0.9v23.4c0,0.5-0.4,0.9-0.9,0.9c-0.5,0-0.9-0.4-0.9-0.9V209.5z" fill="#0053A1"  stroke="#0053A1"  stroke-width="0.504"  stroke-miterlimit="10"  /><path d="M285.7,223.4c-0.1-3-2.4-5.4-5.4-5.4   c-3,0-5.4,2.5-5.4,5.4v9.6v0.1c0,0,0,0.1,0,0.1v0.1c-0.1,0.2-0.3,0.4-0.4,0.5c-0.1,0.1-0.3,0.1-0.4,0.1h-0.1h-0.1c0,0-0.1,0-0.1,0   c-0.1,0-0.1-0.1-0.2-0.1c0,0-0.1,0-0.1-0.1l-0.1-0.1c0,0,0-0.1-0.1-0.1c0,0,0,0,0-0.1c0,0,0,0,0-0.1c0,0,0-0.1,0-0.1V233v-0.1v-9.6   c0-3-2.4-5.4-5.4-5.4c-3,0-5.4,2.5-5.4,5.4v9.6c0,0.3-0.1,0.5-0.4,0.7c0,0-0.1,0.1-0.2,0.1c0,0-0.1,0-0.1,0h-0.1h-0.1   c-0.3,0-0.6-0.3-0.7-0.6v-0.2v-9.6v-0.3v-6c0-0.5,0.4-0.8,0.8-0.8c0.5,0,0.9,0.4,0.9,0.8v1.7c1.3-1.5,3.2-2.5,5.4-2.5   c2.7,0,5.1,1.5,6.3,3.7c1.3-2.2,3.6-3.7,6.3-3.7c3.9,0,7.1,3.2,7.1,7.1v9.6c0,0.4-0.4,0.8-0.9,0.8c-0.5,0-0.8-0.4-0.8-0.8V223.4z" fill="#0053A1"  stroke="#0053A1"  stroke-width="0.504"  stroke-miterlimit="10"  /><path d="M294.6,225.3v-0.4v-0.4v-7.5   c0-0.5,0.4-0.9,0.9-0.9c0.5,0,0.9,0.4,0.9,0.9v2.5c1.5-2,3.9-3.4,6.7-3.4c4.7,0,8.5,3.9,8.5,8.7c0,4.8-3.8,8.7-8.5,8.7   c-2.7,0-5.2-1.4-6.7-3.4v10c0,0.5-0.4,0.9-0.9,0.9c-0.5,0-0.9-0.4-0.9-0.9V225.3z M296.3,224.9c0,3.9,3,7,6.7,7   c3.7,0,6.7-3.2,6.7-7c0-3.9-3-7-6.7-7c-3.5,0-6.5,2.9-6.7,6.7V224.9z" fill="#0053A1"  stroke="#0053A1"  stroke-width="0.504"  stroke-miterlimit="10"  /><path d="M332.9,217.1v15.8c0,0.5-0.4,0.9-0.9,0.9   c-0.5,0-0.9-0.4-0.9-0.9v-2.6c-1.5,2.1-3.9,3.5-6.6,3.5c-4.6,0-8.3-4-8.3-8.8c0-4.8,3.7-8.8,8.3-8.8c2.7,0,5.1,1.4,6.6,3.4v-2.6   c0-0.5,0.4-0.9,0.9-0.9C332.5,216.2,332.9,216.6,332.9,217.1z M331.1,225c0-3.9-3-7.1-6.6-7.1c-3.6,0-6.6,3.2-6.6,7.1   c0,3.9,3,7.1,6.6,7.1C328.2,232,331.1,228.9,331.1,225z" fill="#0053A1"  stroke="#0053A1"  stroke-width="0.504"  stroke-miterlimit="10"  /><path d="M339,224.9c0-4.9,4-8.7,9-8.7   c2.1,0,4,0.7,5.6,1.9c0.4,0.3,0.4,0.8,0.1,1.2c-0.3,0.3-0.8,0.4-1.2,0.1c-1.3-1-2.8-1.6-4.5-1.6c-4.1,0-7.3,3.2-7.3,7.1   c0,3.9,3.2,7.1,7.3,7.1c1.7,0,3.3-0.6,4.5-1.5c0.4-0.3,0.9-0.2,1.2,0.1c0.3,0.4,0.3,0.9-0.2,1.3c-1.5,1.1-3.4,1.9-5.5,1.9   C343,233.8,339,229.9,339,224.9z" fill="#0053A1"  stroke="#0053A1"  stroke-width="0.504"  stroke-miterlimit="10"  /><path d="M366.7,217.1c0,0.4-0.4,0.9-0.9,0.9h-2.3   v12.8c0,0.9,0.9,1.3,1.3,1.3c0.4,0,0.9,0.5,0.9,0.9c0,0.4-0.5,0.9-0.9,0.9c-1.8,0-3.1-1.3-3.1-3v-12.8h-2.2c-0.9,0-0.9-0.4-0.9-0.9   c0-0.4,0-0.9,0.9-0.9h2.2v-6.5c0-0.4,0.4-0.9,0.9-0.9c0.5,0,0.9,0.4,0.9,0.9v6.5h2.3C366.3,216.2,366.7,216.6,366.7,217.1z" fill="#0053A1"  stroke="#0053A1"  stroke-width="0.504"  stroke-miterlimit="10"  /><path d="M393,216.2c4.6,0,8.3,4,8.3,8.8   c0,4.8-3.7,8.8-8.3,8.8c-4.6,0-8.3-4-8.3-8.8C384.7,220.2,388.4,216.2,393,216.2z M393,232c3.6,0,6.6-3.2,6.6-7.1   c0-3.9-3-7.1-6.6-7.1c-3.6,0-6.6,3.2-6.6,7.1C386.4,228.9,389.4,232,393,232z" fill="#0053A1"  stroke="#0053A1"  stroke-width="0.504"  stroke-miterlimit="10"  /><path d="M414.3,209.6c0,0.5-0.4,0.9-0.9,0.9   c-1.2,0-1.9,0.2-2.2,0.7c-0.4,0.4-0.7,1.3-0.7,2.9v1.9h2.5c0.5,0,0.9,0.4,0.9,0.9c0,0.5-0.4,0.9-0.9,0.9h-2.5v15.3   c0,0.5-0.4,0.9-0.9,0.9c-0.5,0-0.9-0.4-0.9-0.9v-15.3h-2.3c-0.5,0-0.9-0.4-0.9-0.9c0-0.5,0.4-0.9,0.9-0.9h2.3V214   c0-1.8,0.3-3.1,1.1-4.1c0.9-0.9,2.1-1.3,3.5-1.3C413.9,208.7,414.3,209.1,414.3,209.6z" fill="#0053A1"  stroke="#0053A1"  stroke-width="0.504"  stroke-miterlimit="10"  /><path d="M430.6,209.5c0-0.5,0.4-0.9,0.9-0.9h0.1   h12.8c0.5,0,0.9,0.4,0.9,0.9c0,0.5-0.4,0.9-0.9,0.9h-12v9.9h10.5c0.5,0,0.9,0.4,0.9,0.9c0,0.5-0.4,0.9-0.9,0.9h-10.5v9.9h12   c0.5,0,0.9,0.4,0.9,0.9c0,0.5-0.4,0.9-0.9,0.9h-12.8h-0.1h-0.1c-0.4,0-0.8-0.4-0.8-0.9V209.5z" fill="#0053A1"  stroke="#0053A1"  stroke-width="0.504"  stroke-miterlimit="10"  /><path d="M466.1,217.1v15.8c0,0.5-0.4,0.9-0.9,0.9   s-0.9-0.4-0.9-0.9v-2.6c-1.5,2.1-3.9,3.5-6.6,3.5c-4.6,0-8.3-4-8.3-8.8c0-4.8,3.7-8.8,8.3-8.8c2.7,0,5.1,1.4,6.6,3.4v-2.6   c0-0.5,0.4-0.9,0.9-0.9S466.1,216.6,466.1,217.1z M464.3,225c0-3.9-3-7.1-6.6-7.1c-3.6,0-6.6,3.2-6.6,7.1c0,3.9,3,7.1,6.6,7.1   C461.4,232,464.3,228.9,464.3,225z" fill="#0053A1"  stroke="#0053A1"  stroke-width="0.504"  stroke-miterlimit="10"  /><path d="M473.4,217.1c0-0.5,0.4-0.9,0.9-0.9   c0.4,0,0.8,0.4,0.8,0.9v3.9c0.1-0.1,0.1-0.3,0.3-0.4c1.3-2.1,3.7-4.3,7-4.3c0.5,0,0.9,0.4,0.9,0.9c0,0.5-0.4,0.9-0.9,0.9   c-2.3,0-3.9,1.3-5.1,2.9c-1.2,1.6-1.9,3.4-2.1,4.1c-0.1,0.1-0.1,0.2-0.1,0.3v7.7c0,0.5-0.4,0.9-0.8,0.9c-0.5,0-0.9-0.4-0.9-0.9   V217.1z" fill="#0053A1"  stroke="#0053A1"  stroke-width="0.504"  stroke-miterlimit="10"  /><path d="M489.3,209.5c0-0.5,0.4-0.9,0.9-0.9   c0.5,0,0.9,0.4,0.9,0.9v23.4c0,0.5-0.4,0.9-0.9,0.9c-0.5,0-0.9-0.4-0.9-0.9V209.5z" fill="#0053A1"  stroke="#0053A1"  stroke-width="0.504"  stroke-miterlimit="10"  /><path d="M498.8,217c0-0.5,0.4-0.8,0.8-0.8   c0.5,0,0.9,0.4,0.9,0.8v9.5c0,3,2.4,5.4,5.4,5.4c3,0,5.4-2.4,5.4-5.4V217c0-0.1,0-0.3,0.1-0.4c0,0,0-0.1,0-0.1c0,0,0,0,0.1,0   c0.1-0.1,0.2-0.2,0.3-0.2h0.1c0,0,0.1,0,0.1,0h0.1h0.1c0.1,0,0.3,0.1,0.4,0.2c0.1,0.1,0.2,0.2,0.2,0.3c0.1,0.1,0.1,0.2,0.1,0.4v9.5   v0.3v5.5c0,4.6-3.7,8.2-8.3,8.2c-1.3,0-2.5-0.3-3.6-0.8c-0.4-0.3-0.6-0.8-0.4-1.1c0.2-0.4,0.7-0.5,1.1-0.4c0.9,0.4,1.9,0.7,2.9,0.7   c3.7,0,6.6-2.9,6.6-6.5v-1.1c-1.3,1.5-3.3,2.5-5.4,2.5c-3.9,0-7.1-3.2-7.1-7.2V217z" fill="#0053A1"  stroke="#0053A1"  stroke-width="0.504"  stroke-miterlimit="10"  /><path d="M531.2,229.1c0.3-0.4,0.8-0.4,1.1-0.1   c1.9,1.5,5,3.3,8.2,3.2c2.2,0,4.2-0.6,5.5-1.6c1.4-1,2.2-2.3,2.2-3.7c0-1.4-0.7-2.5-2-3.4c-1.4-0.9-3.4-1.6-5.8-2h-0.1   c-2.3-0.4-4.4-1.1-5.9-2.1c-1.5-1-2.6-2.5-2.6-4.4c0-1.9,1-3.5,2.6-4.7s3.7-1.8,6.1-1.8c3.3,0,5.8,1.6,7.7,2.9   c0.4,0.3,0.5,0.7,0.2,1.1c-0.2,0.4-0.7,0.5-1.1,0.2c-2-1.3-4.1-2.7-6.9-2.7c-2,0-3.9,0.6-5.1,1.5c-1.3,0.9-2,2.1-2,3.4   c0,1.3,0.6,2.2,1.9,3c1.3,0.9,3.1,1.5,5.4,1.9h0.1c2.5,0.5,4.7,1.2,6.4,2.3c1.6,1.1,2.8,2.7,2.8,4.7c0,2-1.1,3.8-2.8,5   c-1.7,1.2-3.9,2-6.4,2c-3.8,0-7.2-2-9.2-3.6C531,229.9,530.9,229.4,531.2,229.1z" fill="#0053A1"  stroke="#0053A1"  stroke-width="0.504"  stroke-miterlimit="10"  /><path d="M555.4,217c0-0.5,0.4-0.9,0.9-0.9   c0.5,0,0.9,0.4,0.9,0.9v9.6c0,3,2.4,5.4,5.4,5.4c3,0,5.4-2.4,5.4-5.4V217c0-0.5,0.4-0.9,0.9-0.9c0.5,0,0.9,0.4,0.9,0.9v9.6   c0,3.9-3.2,7.2-7.2,7.2c-3.9,0-7.1-3.2-7.1-7.2V217z" fill="#0053A1"  stroke="#0053A1"  stroke-width="0.504"  stroke-miterlimit="10"  /><path d="M577.6,217.1c0-0.5,0.4-0.9,0.9-0.9   c0.4,0,0.8,0.4,0.8,0.9v3.9c0.1-0.1,0.1-0.3,0.3-0.4c1.3-2.1,3.7-4.3,7-4.3c0.5,0,0.9,0.4,0.9,0.9c0,0.5-0.4,0.9-0.9,0.9   c-2.3,0-3.9,1.3-5.1,2.9c-1.2,1.6-1.9,3.4-2.1,4.1c-0.1,0.1-0.1,0.2-0.1,0.3v7.7c0,0.5-0.4,0.9-0.8,0.9c-0.5,0-0.9-0.4-0.9-0.9   V217.1z" fill="#0053A1"  stroke="#0053A1"  stroke-width="0.504"  stroke-miterlimit="10"  /><path d="M608.6,232.4c0,4.5-3.7,8.2-8.3,8.2   c-1.3,0-2.5-0.3-3.7-0.8c-0.4-0.3-0.6-0.8-0.4-1.1c0.2-0.5,0.7-0.6,1.1-0.4c0.9,0.4,1.8,0.6,2.9,0.6c3.7,0,6.6-2.9,6.6-6.5v-2.1   c-1.5,2.1-3.9,3.4-6.6,3.4c-4.6,0-8.2-3.9-8.2-8.7c0-4.7,3.7-8.7,8.2-8.7c2.7,0,5.1,1.4,6.6,3.4v-2.6c0-0.5,0.4-0.9,0.9-0.9   c0.4,0,0.8,0.4,0.8,0.9V232.4z M606.9,224.9c0-3.9-2.9-7-6.6-7c-3.6,0-6.5,3.1-6.5,7c0,3.9,2.9,7.1,6.5,7.1   C604,232,606.9,228.8,606.9,224.9z" fill="#0053A1"  stroke="#0053A1"  stroke-width="0.504"  stroke-miterlimit="10"  /><path d="M616.9,211.3c0-0.5,0.4-0.9,0.9-0.9   c0.5,0,0.9,0.4,0.9,0.9v0.8c0,0.5-0.4,0.9-0.9,0.9c-0.5,0-0.9-0.4-0.9-0.9V211.3z M616.9,217.1c0-0.5,0.4-0.9,0.9-0.9   c0.5,0,0.9,0.4,0.9,0.9v15.8c0,0.5-0.4,0.9-0.9,0.9c-0.5,0-0.9-0.4-0.9-0.9V217.1z" fill="#0053A1"  stroke="#0053A1"  stroke-width="0.504"  stroke-miterlimit="10"  /><path d="M625.6,224.9c0-4.9,4-8.7,9-8.7   c2.1,0,4,0.7,5.6,1.9c0.4,0.3,0.4,0.8,0.1,1.2c-0.3,0.3-0.8,0.4-1.2,0.1c-1.3-1-2.8-1.6-4.5-1.6c-4.1,0-7.3,3.2-7.3,7.1   c0,3.9,3.2,7.1,7.3,7.1c1.7,0,3.3-0.6,4.5-1.5c0.4-0.3,0.9-0.2,1.2,0.1c0.3,0.4,0.3,0.9-0.2,1.3c-1.5,1.1-3.4,1.9-5.5,1.9   C629.6,233.8,625.6,229.9,625.6,224.9z" fill="#0053A1"  stroke="#0053A1"  stroke-width="0.504"  stroke-miterlimit="10"  /><path d="M661.9,217.1v15.8c0,0.5-0.4,0.9-0.9,0.9   c-0.5,0-0.9-0.4-0.9-0.9v-2.6c-1.5,2.1-3.9,3.5-6.6,3.5c-4.6,0-8.3-4-8.3-8.8c0-4.8,3.7-8.8,8.3-8.8c2.7,0,5.1,1.4,6.6,3.4v-2.6   c0-0.5,0.4-0.9,0.9-0.9C661.5,216.2,661.9,216.6,661.9,217.1z M660.2,225c0-3.9-3-7.1-6.6-7.1c-3.6,0-6.6,3.2-6.6,7.1   c0,3.9,3,7.1,6.6,7.1C657.2,232,660.2,228.9,660.2,225z" fill="#0053A1"  stroke="#0053A1"  stroke-width="0.504"  stroke-miterlimit="10"  /><path d="M670.1,209.5c0-0.5,0.4-0.9,0.9-0.9   c0.5,0,0.9,0.4,0.9,0.9v23.4c0,0.5-0.4,0.9-0.9,0.9c-0.5,0-0.9-0.4-0.9-0.9V209.5z" fill="#0053A1"  stroke="#0053A1"  stroke-width="0.504"  stroke-miterlimit="10"  /><path d="M701.7,208.3c3.1,0,5.9,1.1,8.1,2.8   c0.4,0.3,0.5,0.9,0.1,1.3c-0.3,0.4-0.9,0.5-1.2,0.2c-1.9-1.5-4.4-2.4-7-2.4c-6.3,0-11.3,4.9-11.3,11c0,6,5,10.9,11.3,10.9   c2.7,0,5.1-0.9,6.9-2.4c0.4-0.3,1-0.2,1.3,0.2c0.4,0.3,0.3,1-0.1,1.3c-2.2,1.7-5,2.7-8.1,2.7c-7.2,0-13-5.7-13-12.6   C688.6,214,694.5,208.4,701.7,208.3z" fill="#0053A1"  stroke="#0053A1"  stroke-width="0.504"  stroke-miterlimit="10"  /><path d="M731.6,217.1v15.8c0,0.5-0.4,0.9-0.9,0.9   c-0.5,0-0.9-0.4-0.9-0.9v-2.6c-1.5,2.1-3.9,3.5-6.6,3.5c-4.6,0-8.3-4-8.3-8.8c0-4.8,3.7-8.8,8.3-8.8c2.7,0,5.1,1.4,6.6,3.4v-2.6   c0-0.5,0.4-0.9,0.9-0.9C731.2,216.2,731.6,216.6,731.6,217.1z M729.9,225c0-3.9-3-7.1-6.6-7.1c-3.6,0-6.6,3.2-6.6,7.1   c0,3.9,3,7.1,6.6,7.1C726.9,232,729.9,228.9,729.9,225z" fill="#0053A1"  stroke="#0053A1"  stroke-width="0.504"  stroke-miterlimit="10"  /><path d="M739,217.1c0-0.5,0.4-0.9,0.9-0.9   c0.4,0,0.8,0.4,0.8,0.9v3.9c0.1-0.1,0.1-0.3,0.3-0.4c1.3-2.1,3.7-4.3,7-4.3c0.5,0,0.9,0.4,0.9,0.9c0,0.5-0.4,0.9-0.9,0.9   c-2.3,0-3.9,1.3-5.1,2.9c-1.2,1.6-1.9,3.4-2.1,4.1c-0.1,0.1-0.1,0.2-0.1,0.3v7.7c0,0.5-0.4,0.9-0.8,0.9c-0.5,0-0.9-0.4-0.9-0.9   V217.1z" fill="#0053A1"  stroke="#0053A1"  stroke-width="0.504"  stroke-miterlimit="10"  /><path d="M751.6,225c0-4.9,3.8-8.8,8.5-8.8   c4.5,0,8.1,3.6,8.5,8.2v0v0.1c0,0.5-0.4,0.8-0.9,0.8h-14.4c0.2,3.8,3.2,6.7,6.8,6.7c2.3,0,4.5-1.2,5.7-3.2c0.3-0.4,0.8-0.5,1.1-0.3   c0.4,0.3,0.5,0.8,0.3,1.2c-1.5,2.4-4.1,4-7.1,4C755.4,233.8,751.6,229.8,751.6,225z M753.4,223.6h13.3c-0.6-3.3-3.4-5.7-6.6-5.7   C756.8,217.9,754.1,220.3,753.4,223.6z" fill="#0053A1"  stroke="#0053A1"  stroke-width="0.504"  stroke-miterlimit="10"  /><path d="M517.3,254.3c0-0.5,0.4-0.9,0.9-0.9   c0.5,0,0.9,0.4,0.9,0.9v0.8c0,0.5-0.4,0.9-0.9,0.9c-0.5,0-0.9-0.4-0.9-0.9V254.3z M517.3,260c0-0.5,0.4-0.9,0.9-0.9   c0.5,0,0.9,0.4,0.9,0.9v15.8c0,0.5-0.4,0.9-0.9,0.9c-0.5,0-0.9-0.4-0.9-0.9V260z" fill="#0053A1"  stroke="#0053A1"  stroke-width="0.504"  stroke-miterlimit="10"  /><path d="M539.8,266.3c0-3-2.4-5.4-5.4-5.4   c-3,0-5.4,2.4-5.4,5.4v9.5v0.1c0,0.1-0.1,0.3-0.2,0.4c-0.1,0.2-0.4,0.3-0.6,0.3h-0.2c-0.3-0.1-0.5-0.3-0.6-0.5c0,0,0-0.1,0-0.1   c0,0,0-0.1,0-0.1v-0.2v-9.5v-0.3v-6c0-0.5,0.4-0.9,0.9-0.9c0.5,0,0.8,0.4,0.8,0.9v1.7c1.3-1.5,3.3-2.5,5.4-2.5   c3.9,0,7.1,3.2,7.1,7.1v9.5c0,0.5-0.4,0.9-0.9,0.9c-0.5,0-0.9-0.4-0.9-0.9V266.3z" fill="#0053A1"  stroke="#0053A1"  stroke-width="0.504"  stroke-miterlimit="10"  /><path d="M560.2,274.8v-21.1c0-1.1,0.9-2,2-2h0   c0,0,0,0,0.1,0h11.6c1,0,2,0.9,2,2c0,1.1-0.9,2-2,2h-9.7v6.6h8.3c1.1,0,2,0.9,2,2c0,1.1-0.9,2-2,2h-8.3v6.6h9.7c1,0,2,0.9,2,2   c0,1.1-0.9,2-2,2h-11.6c-0.1,0-0.1,0-0.1,0l0,0C561.1,276.7,560.2,275.8,560.2,274.8z" fill="#0092D4"  stroke="#0092D4"  stroke-width="0.504"  stroke-miterlimit="10"  /><path d="M593.9,262l-4.3,5.9l4.3,5.9   c0.6,0.8,0.4,2-0.4,2.6c-0.4,0.3-0.8,0.4-1.1,0.4c-0.6,0-1.1-0.3-1.6-0.8l-3.6-4.9l-3.6,4.9c-0.4,0.5-0.9,0.8-1.5,0.8   c-0.4,0-0.8-0.1-1.1-0.4c-0.8-0.5-1-1.8-0.4-2.6l4.3-5.9l-4.3-5.9c-0.6-0.8-0.4-2,0.4-2.5c0.9-0.6,2-0.4,2.6,0.4l3.6,4.8l3.6-4.8   c0.7-0.8,1.8-1,2.7-0.4C594.3,260,594.5,261.2,593.9,262z" fill="#0092D4"  stroke="#0092D4"  stroke-width="0.504"  stroke-miterlimit="10"  /><path d="M601.7,274.1c-1.5-1.6-2.5-3.8-2.5-6.3   c0-2.4,0.9-4.5,2.5-6.3c1.6-1.7,3.7-2.7,6.2-2.7c2.4,0,4.5,1,6,2.7c1.6,1.7,2.5,3.8,2.5,6.3c0,2.5-0.9,4.7-2.5,6.3   c-1.5,1.7-3.6,2.7-6,2.7C605.4,276.8,603.3,275.8,601.7,274.1z M603.2,267.8c0,1.5,0.5,2.8,1.3,3.8c0.9,0.9,2.1,1.3,3.4,1.3   c1.3,0,2.4-0.5,3.3-1.3c0.9-1,1.4-2.3,1.4-3.8c0-1.5-0.5-2.8-1.4-3.7c-0.9-0.8-2-1.4-3.3-1.4c-1.4,0-2.5,0.6-3.4,1.4   C603.6,265,603.2,266.3,603.2,267.8z" fill="#0092D4"  stroke="#0092D4"  stroke-width="0.504"  stroke-miterlimit="10"  /><path d="M637.4,266.2c0,0,0,0.1,0,0.1v8.5   c0,1-0.9,1.9-1.9,1.9c-1,0-1.9-0.9-1.9-1.9v-8.5c0,0,0-0.1,0-0.1c0-2-1.7-3.6-3.7-3.6c-2,0-3.6,1.6-3.6,3.7v8.5c0,0.1,0,0.2,0,0.3   c0,0,0,0.1,0,0.1c0,0.1,0,0.1-0.1,0.2c0,0,0,0.1,0,0.2c-0.3,0.6-1,1.1-1.8,1.1c-0.1,0-0.3,0-0.4,0c-0.9-0.2-1.5-0.9-1.5-1.9v-8.5   c0,0,0,0,0,0v-5.6c0-1.1,0.9-1.9,1.9-1.9c0.8,0,1.4,0.4,1.7,1.1c1.1-0.7,2.5-1.1,3.8-1.1c2.3,0,4.3,0.9,5.6,2.5   c1.3-1.5,3.4-2.5,5.6-2.5c4.1,0,7.5,3.4,7.5,7.5v8.5c0,1-0.9,1.9-1.9,1.9c-1,0-1.9-0.9-1.9-1.9v-8.5c0-2-1.6-3.7-3.6-3.7   C639.1,262.6,637.4,264.3,637.4,266.2z" fill="#0092D4"  stroke="#0092D4"  stroke-width="0.504"  stroke-miterlimit="10"  /><path d="M656.4,281.5v-13.7c0,0,0,0,0,0v-7.1   c0-1,0.9-1.9,1.9-1.9c1,0,1.8,0.7,2,1.5c1.3-0.9,3-1.5,4.9-1.5c4.8,0,8.7,4.1,8.7,9s-3.9,8.9-8.7,8.9c-1.8,0-3.5-0.5-4.8-1.5v6.3   c0,1-0.9,1.9-2,1.9C657.2,283.5,656.4,282.5,656.4,281.5z M660.3,267.8c0,1.4,0.5,2.8,1.4,3.6c0.9,1,2.1,1.5,3.4,1.5   c1.2,0,2.4-0.5,3.4-1.5c0.8-0.8,1.4-2.2,1.4-3.6c0-1.4-0.6-2.7-1.4-3.6c-0.9-1-2.1-1.5-3.4-1.5c-1.3,0-2.5,0.5-3.4,1.5   C660.8,265.1,660.3,266.4,660.3,267.8z" fill="#0092D4"  stroke="#0092D4"  stroke-width="0.504"  stroke-miterlimit="10"  /><path d="M683.9,274.8c0,1.1-0.9,2-2,2   c-0.9,0-1.6-0.6-1.9-1.5c0-0.1-0.1-0.3-0.1-0.5v-21.1c0-1.1,0.9-2,2-2c1.1,0,2,0.9,2,2v6.2c1.1-0.6,2.4-1,3.8-1   c4.3,0,7.8,3.5,7.8,7.8v8.1c0,1.1-0.9,2-2,2c-1.1,0-2-0.9-2-2v-8.1c0-2.1-1.7-3.8-3.9-3.9c-2.1,0-3.8,1.8-3.8,3.9V274.8z" fill="#0092D4"  stroke="#0092D4"  stroke-width="0.504"  stroke-miterlimit="10"  /><path d="M718.4,267.8v7c0,1-0.9,1.9-1.9,1.9   c-0.9,0-1.6-0.7-1.9-1.5c-1.4,1-3,1.5-4.8,1.5c-2.4,0-4.6-1-6.1-2.6c-1.5-1.6-2.4-3.9-2.4-6.3c0-2.5,0.9-4.7,2.4-6.3   c1.5-1.6,3.7-2.7,6.1-2.7c1.8,0,3.4,0.6,4.8,1.6c0.2-0.9,0.9-1.6,1.9-1.6c1,0,1.9,0.9,1.9,1.9V267.8z M714.6,267.8   c0-1.5-0.5-2.8-1.4-3.7c-0.9-1-2.1-1.5-3.3-1.5c-1.3,0-2.5,0.5-3.3,1.5c-0.9,0.9-1.4,2.2-1.4,3.7c0,1.5,0.5,2.8,1.4,3.7   c0.8,0.9,2,1.4,3.3,1.4c1.3,0,2.5-0.5,3.3-1.4C714.1,270.6,714.6,269.3,714.6,267.8z" fill="#0092D4"  stroke="#0092D4"  stroke-width="0.504"  stroke-miterlimit="10"  /><path d="M728.1,251.7c1.1,0,2,0.9,2,2v21.1   c0,1.1-0.9,2-2,2c-1.1,0-2-0.9-2-2v-21.1C726.1,252.5,727,251.7,728.1,251.7z" fill="#0092D4"  stroke="#0092D4"  stroke-width="0.504"  stroke-miterlimit="10"  /><path d="M736.4,274.1c-1.5-1.6-2.5-3.8-2.5-6.3   c0-2.4,0.9-4.5,2.5-6.3c1.6-1.7,3.7-2.7,6.2-2.7c2.4,0,4.5,1,6,2.7c1.6,1.7,2.5,3.8,2.5,6.3c0,2.5-0.9,4.7-2.5,6.3   c-1.5,1.7-3.6,2.7-6,2.7C740,276.8,738,275.8,736.4,274.1z M737.8,267.8c0,1.5,0.5,2.8,1.3,3.8c0.9,0.9,2.1,1.3,3.4,1.3   c1.3,0,2.4-0.5,3.3-1.3c0.9-1,1.4-2.3,1.4-3.8c0-1.5-0.5-2.8-1.4-3.7c-0.9-0.8-2-1.4-3.3-1.4c-1.4,0-2.5,0.6-3.4,1.4   C738.3,265,737.8,266.3,737.8,267.8z" fill="#0092D4"  stroke="#0092D4"  stroke-width="0.504"  stroke-miterlimit="10"  /><path d="M756.2,271.6c0.6-0.9,1.9-1,2.7-0.3   c0.9,0.8,2.5,1.6,3.9,1.6c1,0,1.9-0.3,2.4-0.7c0.5-0.4,0.6-0.8,0.6-1.1c0-0.2,0-0.3-0.1-0.4c0-0.1-0.2-0.3-0.5-0.4   c-0.5-0.4-1.6-0.8-2.9-1h0c-1.1-0.2-2.2-0.5-3.1-0.9c-1-0.5-1.8-1.1-2.5-2.1c-0.4-0.6-0.6-1.4-0.6-2.3c0-1.6,0.9-3,2.1-3.9   c1.3-0.9,2.8-1.3,4.4-1.3c2.5,0,4.2,1.2,5.4,2c0.9,0.6,1.1,1.8,0.6,2.7c-0.6,0.9-1.8,1.1-2.7,0.5c-1.1-0.8-2.1-1.3-3.3-1.3   c-0.9,0-1.7,0.3-2.1,0.6c-0.5,0.3-0.6,0.6-0.6,0.8c0,0.1,0,0.2,0.1,0.3c0,0.1,0.1,0.2,0.4,0.4c0.5,0.3,1.4,0.6,2.6,0.9l0,0h0   c1.2,0.2,2.3,0.5,3.3,1c1,0.4,1.9,1.1,2.5,2.1c0.4,0.7,0.7,1.5,0.7,2.4c0,1.8-1,3.2-2.3,4.2c-1.3,0.9-2.9,1.4-4.7,1.4   c-2.8,0-4.9-1.3-6.4-2.5C755.6,273.6,755.5,272.4,756.2,271.6z" fill="#0092D4"  stroke="#0092D4"  stroke-width="0.504"  stroke-miterlimit="10"  />
	
	
	
	
	
	
	
	
	
	
	
	
	
	
	
	
	
	
	
	
	
	
	
	
	
	
	
	
	
	
	
	
	
	
	
	
	
	
	
	
	
	
	
	
	
	
	
	
	
</g><line x1="3.4" y1="191.1" x2="771.3" y2="191.1" fill="#0092D4"  stroke="#0092D4"  stroke-width="5.8897"  stroke-linecap="round"  stroke-linejoin="round"  stroke-miterlimit="10"  /><path d="M86.1,130.6H24.6l-12,31.8  c-0.8,1.9-2.5,3.1-4.4,3.1c-0.4,0-1.2-0.2-1.7-0.2c-2.3-1-3.7-3.9-2.7-6.2L50.6,33.9c0.8-1.7,2.7-2.9,4.6-2.9c2.1,0,4,1.2,4.6,2.9  l46.9,125.2c1,2.3-0.2,5.2-2.5,6.2c-0.8,0-1.2,0.2-1.7,0.2c-1.7,0-3.7-1.2-4.4-3.1L86.1,130.6z M28,121.1h54.6L55.4,48.6L28,121.1z" fill="#0053A1"  stroke="#0053A1"  stroke-width="1.68"  stroke-miterlimit="10"  /><path d="M142.5,35.7c0-2.5,2.1-4.6,4.6-4.6  c2.7,0,4.8,2.1,4.8,4.6v125.8c0,2.5-2.1,4.6-4.8,4.6c-2.5,0-4.6-2.1-4.6-4.6V35.7z" fill="#0053A1"  stroke="#0053A1"  stroke-width="1.68"  stroke-miterlimit="10"  /><path d="M291.5,49.7l-43.2,60c-1,1.5-2.5,2.1-3.9,2.1  h-0.4c-1.7,0-3.1-0.6-4.1-2.1l-43.2-59.8v110.9c0,2.5-2.1,4.6-4.6,4.6c-2.7,0-4.8-2.1-4.8-4.6v-125c0-1.5,0.8-2.9,1.9-3.7  c0-0.2,0.2-0.2,0.4-0.4c2.1-1.4,5-1,6.6,1.2l48,66.5L292.1,33c1.4-2.1,4.4-2.5,6.6-1.2c0.6,0.6,1,1,1.3,1.5c0.4,0.8,0.8,1.7,0.8,2.5  v125c0,2.5-2.1,4.6-4.6,4.6c-2.7,0-4.6-2.1-4.6-4.6V49.7z" fill="#0053A1"  stroke="#0053A1"  stroke-width="1.68"  stroke-miterlimit="10"  /><path d="M336.2,35.7c0-2.5,2.1-4.6,4.6-4.6h0.4h69.1  c2.7,0,4.6,2.1,4.6,4.6c0,2.7-1.9,4.8-4.6,4.8h-64.6v53.4h56.5c2.5,0,4.6,2.1,4.6,4.8c0,2.5-2.1,4.6-4.6,4.6h-56.5v53.2h64.6  c2.7,0,4.6,2.1,4.6,4.8c0,2.5-1.9,4.6-4.6,4.6h-68.9h-0.6h-0.4c-2.3-0.2-4.2-2.1-4.2-4.6V35.7z" fill="#0053A1"  stroke="#0053A1"  stroke-width="1.68"  stroke-miterlimit="10"  /><g><path d="M476.9,149.2L476.9,149.2c-19.1-0.2-34.9-10.5-42.6-16.6c-2.5-2.2-2.8-6-0.9-8.5c2.1-2.6,6.2-3,8.6-0.8   c3.9,3.1,18.2,13.7,34.5,13.7l0.4,0c8.8,0,17.2-2.5,23-6.8c5.5-3.9,8.5-9.1,8.5-14.5c0-5.3-2.5-9.4-8-13.2   c-5.5-3.6-13.8-6.6-24.6-8.6l-0.5,0c-11.8-2.2-20.7-5.4-27.2-9.8c-8.1-5.3-12.6-12.9-12.6-21.5c0-8.8,4.5-17,12.7-22.9   c7.6-5.5,17.7-8.6,28.4-8.6c15.4,0,27.2,7.7,35.8,13.3c2.8,2,3.5,5.6,1.7,8.4c-1,1.7-2.9,2.7-5,2.7c-1.2,0-2.4-0.4-3.4-1.1   c-8.1-5.3-17.3-11.3-29.1-11.3c-8,0-15.8,2.3-21.3,6.2c-4.9,3.7-7.7,8.4-7.7,13.2c0.1,4.6,2.3,8.1,7.2,11.4c4.9,3.3,12.5,6,22.7,8   l0.5,0c12.6,2.3,22.2,5.8,29.3,10.6c8.6,5.6,13.4,13.8,13.4,23.1c0,9.2-5,18.1-13.6,24.3C498.8,145.9,488.1,149.2,476.9,149.2z" fill="#0053A1"  />
	
</g><path d="M545.2,169.2c0.4,1,1.7,1,2.9,1.5c0.4,0.2,1.1-0.1,0.6-0.5  c0,0-0.1-0.1-0.1-0.1c-0.2-0.3,0.2,0,0.5-0.1c0.3,0,1.1,0.8,1.4,0.8c0.3-0.1,0.1-0.7-0.5-1c-0.2-0.1-0.2-0.1,0,0c0.1,0,0.1,0,0.2,0  c0.2,0,0.1,0,0.3,0.1c0.2,0.2,0.4,0.4,0.6,0.5c0.2,0.1,0.6,0.1,0.5-0.2c0,0-0.1-0.1-0.1-0.1c0-0.1-0.1-0.1,0-0.1  c0.2,0,0.3,0.1,0.3-0.1c0-0.3-0.5-0.7-1-0.9c0,0-0.1,0-0.1-0.1c-0.1-0.1-0.2-0.1-0.3-0.2c-0.1,0-0.1,0-0.2-0.1  c-0.3-0.1-0.7-0.2-1-0.1c-0.3,0.1-0.3,0-0.5-0.1c-0.2-0.1-0.5-0.2-0.8-0.3c-0.3-0.1-0.3,0-0.3-0.3c0.1-0.4,0-0.9-0.1-1.3  c-0.1-0.3,0-0.5,0-0.8c0.1-1.5,0.2-3-0.3-4.5c-0.2-0.9-0.3-1.8-0.3-2.7c0-0.5,0.1-0.8,0.2-1.3c0.4-1.5,0.3-2.9-0.4-4.1  c-0.4-0.7-0.5-0.6,0.3-0.5c0.5,0.1,0.9,0.1,1.4,0.1c1,0.1,1.5-0.3,1.7-1.2c0.1-0.5,0-0.4,0.3-0.7c0.2-0.2,0.4-0.4,0.5-0.7  c0.1-0.2,0-0.3,0.3-0.5c0.3-0.2,0.4-0.2,0.5-0.4c0.1-0.2,0-0.5,0-0.8c0-0.2-0.1-0.2,0.1-0.3c0.8-0.7,0.2-1.1-0.2-1.8  c-0.2-0.5,0.3-1,0.6-1.6c0.7-1.6,0-2.7-0.5-4.1c-0.8-2.2-2.8-4.2-6.8-4.2c-5.5,0.2-8,4.7-5.2,10.4c0.5,1.6-2.8,0.5-5.6,3.5  c-1.6,1.2-2.4,1-5.3,0.8c-9.1-0.5-10.2,5-9.9,9c0,0.9-0.5,1.6-0.9,2.1c-0.3,0.4-0.3,0.1-0.6-0.1c-1.1-0.9-3.1-1.4-5.7-1.5  c-0.1,0-0.2,0-0.3-0.1c-0.2-0.1-0.4-0.2-0.7-0.3c-0.1,0-0.1-0.1-0.2-0.1c-0.7-0.9-1.9-1-3.5-0.2c-0.3,0.1-0.6,0.2-0.9,0.3  c-1.9,0.5-2,1.2-2.8,1.2c-0.4,0-0.7,0.1-0.8,0.5c0,0.1,0,0.1,0,0.1c-0.1,0.1-0.2,0.2-0.1,0.4c0,0.1,0,0,0,0.1  c-0.1,0.1-0.2,0.3-0.1,0.5c0,0.1,0.1,0.1,0,0.1c-0.5,0.3-0.3,0.8,0.3,1c1.4,0.5,2.9,0.4,4.6-0.3c1.3-0.5,4.1,0.6,6,1.3  c0.6,0.2,0.4,0.1,0,0.3c-1,0.5-1.8,1.6-2.5,2.9c-0.2,0.3-0.2,0.3-0.5,0.3c-0.2,0-0.4,0.1-0.7,0.3c-0.2,0.1-0.2,0.2-0.4,0.1  c-1.1-0.2-1.5,0.6-1,1.1c0.6,0.6,1.4,0.6,2,0.6c1.4,0,2.7-0.3,4-0.7c0.7-0.2,0.9-0.1,1.6,0.1c3.3,1,6.7,1.9,9.6,1.9  c1.7,0.1,2.8-0.2,3.3-1.2c1.1-1.9,1-6.1,0.4-8.3c-0.1-0.4-0.3-0.4,0.2-0.4c1.1,0.2,1.7,0.2,2.7,0c0.5-0.1,0.5-0.2,0.4,0.3  c-0.8,2.7-1.2,6.1-0.5,8.5c0.1,0.2,0.1,0.3,0.1,0.5c-0.1,1.2,1.5,0.6,2.5,1.2c0.5,0.3,1,0.2,0.8-0.2c0-0.1,0-0.1,0.1-0.1  c0.8,0,1.5,0.2,1.9,0.3c0.2,0,0.3,0,0.3-0.1c0-0.1,0-0.1,0.1,0c0.3,0.1,0.6,0,0.5-0.2c0,0,0,0,0,0c0.2,0.1,0.3-0.1,0.2-0.3  c-0.5-0.5-1.5-0.8-2.1-0.9c-0.3,0-0.2,0-0.4-0.2c-0.2-0.2-0.5-0.4-0.7-0.5c-0.2-0.1-0.2,0-0.1-0.2c0.2-0.6,0.3-1.2,0.3-1.8  c0-0.6,0.1-0.9,0.3-1.5c0.4-1.3,0.7-2.7,0.9-4c0-0.4-0.1-0.5,0.2-0.7c0.1-0.1,0.3-0.2,0.3-0.4c0.1-0.2,0.1-0.2,0.3-0.3  c0.9-0.2,1.7-0.5,2.3-0.9c0.4-0.3,0.5-0.4,1-0.5c0.9-0.2,1.6-0.6,2.3-1c0.5-0.3,0.4-0.2,0.3,0.3c-0.1,0.9-0.1,1.8,0.1,2.5  c0.1,0.5,0.2,0.9,0.3,1.4C543.9,165.7,544.3,168,545.2,169.2L545.2,169.2z M522.2,166.4c-0.2-0.2-0.3-0.5-0.5-0.8  c-0.1-0.4,0-0.4-0.3-0.1c-0.2,0.3-0.5,0.6-0.8,0.8c-0.3,0.2-0.2,0.2,0.1,0.1c0.5,0,0.9,0,1.3,0C522.4,166.6,522.4,166.6,522.2,166.4  L522.2,166.4z" fill-rule="evenodd"  clip-rule="evenodd"  fill="#0092D4"  /><path d="M565.2,142.8c0.3,0.4,0,1.1,0.1,1.8c0,0.3,0.6,0.3,0.7,0  c0.1-0.2,0.1-0.4,0.2-0.7c0.1,0.1,0.2,0.3,0.5,0.4c0.3,0.2,0.5-0.5,0.4-0.8c0-0.1-0.1-0.1-0.1-0.2c-0.1-0.1-0.1-0.2-0.2-0.3  c-0.1-0.1-0.1-0.1,0-0.2c0.1-0.2,0.1-0.4,0.1-0.5c0-0.2,0-0.3,0.1-0.4c0.1-0.2,0.1-0.4,0.1-0.6c0-0.3,0-0.4,0.1-0.6  c0.1-0.2,0.2-0.4,0.3-0.6c0.1-0.4,0.2-0.5,0.4-0.1c0.2,0.5,0.1,0.7,0.4,1.1c0.6,0.7,1.2,0.3,1.1-0.3c-0.1-0.7-0.4-1-0.4-1.5  c0-1.5-0.4-2.9-1-4.1c-0.2-0.4,0.2-1.2,0.3-2.1c0.1-0.9,0.1-0.9,0.5-1.7c0.5-0.9,1.1-2.5,1.5-3.8c0.9-2.5,0.6-2.6,0.7,0  c0,1.9,0.2,3.7,0.8,6.5c1.9,6.7-7.2,13-4.1,14.2c0.4,0.2,0.3,0.4,0.6,0.8c1.2,2.1,4.3,2.3,6.5,2.7c1.4,0.3,1.1,0.1,0.8,1.3  c-1.2,3.8,0.6,10.9-0.5,13.6c-0.5,1.3-0.1,3.1,0.9,3.5c2.2,1,4.5,1.2,6.6,2.4c0.7,0.4,1.3,0.3,1.4,0c0-0.1,0-0.1,0.1-0.1  c0.4,0.1,0.7-0.1,0.7-0.3c0-0.1,0-0.1,0.1-0.1c0.7,0.2,0.9-0.3,0.7-0.5c-0.1,0,0-0.1,0.1-0.1c0.4,0.1,0.9-0.1,0.6-0.5c0,0,0,0,0,0  c0.3,0,0.7-0.2,0.7-0.6c0-0.7-1.6-0.5-2.7-1.2c-1.1-0.7-1.7-1.4-2.9-2.2c-0.7-0.5-1-0.8,0.1-1.1c1.7-0.5,5.6,0.2,6.6-1  c0.3-0.4-0.2-0.8-0.7-0.8c-0.1,0-0.1,0-0.1,0c0.2-0.2-0.1-0.5-0.4-0.4c-0.1,0-0.1,0,0,0c0.2-0.2,0-0.5-0.3-0.5c-0.1,0-0.1,0-0.1-0.1  c0.1-0.2-0.1-0.3-0.6-0.3c-0.2,0-0.5,0.1-0.8,0.1c-2.3-0.5-3.4,0.2-3.2-0.6c0.4-1.7,1.2-6.1,1.4-10.1c2.5,0,4.2-0.2,5.1-0.5  c1.7-0.4,0.4-1.2,2.2-1.4c1.2-0.1,2.9-0.1,3.2-1.1c0.8-3,1.8-1.7,3.2-3.1c3.1-3.6-4.3-9.1-5.4-14.2c-0.3-5.9,0.8-5.6-0.3-11.4  c1,1.7,3.4,2.6,3.8,3.3c0.4,1,0.9,1.9,1.4,2.4c0.3,0.7,0.8,1.4,1.1,1.8c0.2,0.3,0.7,0,0.6-0.3c-0.1-0.2-0.2-0.7-0.2-1  c0.1-0.4,0.5-0.3,0.8,0c0.6,0.5,1.2,1.5,1.3,1.7c0.3,0.5,0.8,0.1,0.8-0.2c-0.1-0.4-0.4-1.2-0.7-1.7c0.5,0.1,1.4,1.6,1.5,1.7  c0.3,0.4,0.9-0.1,0.7-0.5c0-0.1-0.2-0.7-1.2-1.7c0.7,0.4,1,0.7,1.5,0.8c0.3,0,0.5-0.4,0.1-0.7c-1-0.8-1.8-1.6-2.2-2  c-0.5-0.5-2.8-1.2-3.2-2c-1.5-2.6-1.7-5.1-3.7-7.4c-1.7-3.1,0.3-6.9-5.3-8.4c1.1-1.1,1.6-3,1.6-3.9c0-1.8-0.6-4.2-0.6-5.1  c0-0.9,0.6-2,0.7-3c0.2-2.3,0.2-4.6-3.3-5.6c-0.7-0.2-1.2-0.4-1.8-0.6c-2.2-0.9-4.3-0.6-6.5-0.1c-0.3,0.1-0.5,0.1-0.4-0.2  c0.1-0.9,0.6-1.2,0.1-1.8c-0.7-0.9-2.1-0.5-2.4,0.1c-0.3,0.6-0.2,1.1,0.2,1.6c0.1,0.1,0,0.2-0.1,0.1c-0.3-0.2-0.7-0.6-1.2-1.1  c-1.3-1.4-3.2,1.4-2.5,2.3c0.3,0.4,1.2,0.5,2.2,0.5c0.1,0,0.1,0.1,0,0.1c-1.1,0-2.6,0-2.7,1.1c-0.1,1.1,0.4,2.2,1,2  c0.7-0.3,1.4-1,1.9-1.4c0.1,0,0.1,0,0.1,0.1c-0.8,0.8-1.5,2-1.7,3c-0.3,1.7,0.2,3.1,0.9,4.5c-1.2,0.5-0.5,1.9,0,3.1  c1,2.3,1.5,2.5,1.9,2.4c0.6,0.4,0.9,1.3,0.9,2.3c0,1.5-3.6,3.8-5.7,5.5c-2.6,1.6-3.6,8.6-5.4,12.9c-1.1,3-1.3,7.2-1,10  c0.2,1.3-0.5,3.5-0.2,4.9C564.3,140.9,564.6,141.8,565.2,142.8L565.2,142.8z" fill-rule="evenodd"  clip-rule="evenodd"  fill="#0092D4"  /><path d="M617.4,171c-0.3,2.6,7.3,2.6,8-0.1c1.1-4.4,3.1-5.8,2.3-8.4  c-0.1-0.4-0.1-0.6-0.1-1c0-0.3,0-0.6-0.1-0.9c-0.1-0.6-0.1-0.7,0-1.3c0.2-0.7,0.4-1.4,0.5-2.1c0.6-2.1,7.4-0.4,8-2  c0.6-1.4,1-3.4,1.1-5.4c0.2-1.7,0.4-3,0.8-4.6c1-3.8,1.8-8.4,2.2-12.4c0.3-2.3,0.2-2.2,1.1-0.1c2.8,6.8,2.2,13.3,3.9,19.4  c0.3,1.2,2.1,1.9,3.4,2.5c0.5,0.2,0.6,0.7,0.4,1.1c-0.2,0.4-0.5,0.5-0.9,1.4c-0.4,0.9-0.4,2.4-0.3,3.8c-0.1,1.2,0.6,2.5,2.2,3.2  c1.2,0.6,1.1,2.1,1.6,3.3c0.8,2.7,8.3,1.8,7.7-0.8c0-0.1,0-0.2,0-0.3c0.5-3-2.3-5.6-3.8-8.6c-0.7-1.3-0.8-1.9-0.8-3.1  c0-1.1,2.2-1,2.2-2.5c0-5.2,0.1-10.7-0.8-16.1c-0.2-1.3-0.4-2.5-0.5-3.8c-0.1-0.6-0.2-1.1-0.3-1.6c-0.4-1.7-0.4-2.4-0.3-4.1  c0.2-2.8-0.1-5.7-0.3-8.5c-0.1-0.4,0.6-0.3,0.8-0.9c0.2-1.5-1.7-2.9-2.3-4.7c-1.3-3-1.3-8.3-0.8-10.3c0.5-1.5,0.5-2.9,0.4-4.6  c-0.1-1.7-0.2-1.6,0.7-0.1c0.8,1.5,1.7,2.9,2.3,4.5c1.5,4.4,4.2,8.6,4.5,13.2c0.2,1.6-0.5,1.9-0.8,3.6c-0.3,1.1,0,4,0,5.4  c0,0.7,1.1,0.7,1.2,0c0.1-0.9,0.1-1.4,0.2-2.3c0.1-0.5,0.3-0.8,0.7-0.4c0.5,0.8,0.8,1.1,0.5,2c-0.2,0.4-0.7,0.4-0.8,0.4  c-0.3,0-0.3,0.5,0,0.6c0,0,0,0,0,0c-0.5,0.1-0.4,0.5-0.3,0.6c0,0,0,0,0,0c-0.2,0.2-0.2,0.5,0,0.5c0,0,0,0,0,0  c-0.2,0.1-0.3,0.6,0.2,0.6c1.2-0.1,1.7-0.4,2.3-0.9c0.9-0.9,1.3-1.6,1.4-2.2c0.1-0.5,0-1,0.1-1.5c0.1-1.7,0-3.4-0.9-5.1  c-0.4-0.7-0.6-1.1-0.7-1.9c-0.8-4.5-1.1-9-2.3-13.4c-0.4-2.1-1.5-4-2.2-6c-0.5-1.1,2.4-2.5,1.7-3.3c-0.2-0.4-0.4-0.7-0.6-1.1  c-1-3.6-3.1-9.1-5.2-11c-1.8-1.8-4-1.4-5.6-3.3c-1-1.2-1.7-1.8-2.8-2.2c-0.9-0.3-0.8,0-0.2-0.8c1-1.1,1.5-2.4,1.7-3.8  c0.1-0.5,0-0.3,0.4-0.6c0.5-0.4,0.6-1.4,0.4-3c-0.1-0.7,0-0.8,0.4-1.4c3.1-5.9-3.6-10.2-8.9-8.8c-0.5,0.1-0.7,0.1-1.3,0.1  c-1.4,0-3,0.6-4,2.1c-1.3,1.9-1.4,4.4-0.8,6.2c0.1,0.5,0.2,0.6,0.1,1.1c-0.1,1.7,0.1,3,0.8,3.7c0.4,0.4,0.4,0.4,0.5,1  c0.2,0.8,0.4,1.6,0.7,2.3c0.2,0.5,0.1,0.4-0.5,0.5c-0.9,0.2-1.8,0.6-2.8,1.4c-1.4,1.3-1.5,1.2-3.3,1.9c-3.1,1.1-5.6,3.5-7.5,9.8  c-0.8,2.2-2.6,3.9-3.5,6.2c-0.5,0.9,2.2,1.2,1.8,2.4c-0.9,2.9-2.1,6.9-2.7,10c-0.5,1.8-0.7,7.5-1.1,12c-0.4,3.7-3.4,5.6-2.6,8.2  c0.1,0.2,0.1,0.2,0,0.3c-0.2,0.8-0.1,1.3,0.2,1.8c0.1,0.2,0.1,0.3,0.1,0.4c0.1,1,0.4,1.3,0.6,2.4c0.1,0.7,1.1,0.4,1-0.3  c-0.2-2.1,0.1-3.1,1.3-4.1c0.3-0.3,0.3-0.2,0.3,0.1c0,1.7,0.1,2.6,1.2,3.7c0.4,0.3,1.1,0,0.9-0.4c-0.4-0.9-0.5-1.6-0.4-2.6  c0.3-1.5,0.6-2.3,1.1-2.8c0.3-0.3,0.8-0.3,0.8,0.3c0,0.7,0.1,1.4,0.2,2c0.1,1.1,1.5,0.6,1.4-0.2c-0.2-2.2,0.5-4-0.4-5.8  c-0.5-0.9-0.6-0.9-0.6-2.1c0-4,0.1-7.7,0.9-11.6c0.7-1.8,2-5.7,2.9-8c0.3-0.8,0.1-0.7,0.8-0.5c0.3,0.1,0.6,0.1,0.8,0.1  c0.1,0,0.3,0,0.3,0.3c0.3,3.4-0.1,6.6,0.3,9.9c-0.5,3.3-0.1,6.4-1.3,10.1c-0.4,1.2-0.7,1.4-0.8,1.8c0,0.6,1.7,0.5,1.3,0.9  c-1.6,3.8-1.4,8.7-2.1,13.4c0,1-1.8,0.9-1.4,1.7c0.4,1.5,0.4,2.2,0.5,4.1c0.4,4.5-1.8,9.2-2,13.9c-0.1,1,1.6,0.8,1.2,1.9  c-0.2,0.7-0.3,1.5-0.5,2.3c-0.1,0.6-0.1,0.9-0.6,1c-2.1,0.3-2.8,3.2-3.1,6c-0.1,0.5-0.1,0.6-0.3,1c-1,1.6-1.6,3.1-1.4,4.6  C617.4,170.8,617.4,170.8,617.4,171L617.4,171z" fill-rule="evenodd"  clip-rule="evenodd"  fill="#0092D4"  /><path d="M676.1,40.7c-0.1-2.5,0.4-5,1.7-7.6c0.8-1.4,1.1-3.8,1.3-6.4  c0.6-7,4.3-9.5,8.4-10.1c2.3-0.9,4.8-0.8,6.9,0.8c0.8,0.7,1.2,1,2.2,1.5c2.6,1.4,3.6,4.4,3.3,7.7c0,1.8,0.6,3.6,1.9,5.2  c1.6,2.6,0.3,5.7-0.8,7.5c-1.8,2.3-2,4.1-0.6,4.4c2.3,0.5,3.7,2.7,4.6,4.9c1.9,3.5,3.2,6.7,5.1,10.2c1.2,2.2,1.4,3.7,1.2,6.3  c-0.2,5.2-0.8,10.1-1,15.3c0,0.3,0,0.6,0,0.9c0.2,1.1,0.3,2,0,3c-0.2,0.8-0.1,0.7,0.2,1.4c1.6,2.9,1,4.4,3.9,11.3  c0.9,1.7-5.5,1.7-5.8,4c-1.2,8-3.6,13.8-4.6,17c-0.3,1-0.3,1.8-0.5,2.8c-0.2,1.2-0.5,2.1-0.9,3.1c-0.3,1-0.3,1.9-0.3,3  c-0.3,9.8-4.3,17.8-4.9,29c-0.1,2.2,1.6,5.2,2.7,8.1c0.5,2.3,1.9,2.8,2.5,3.6c1.1,1.3,0.3,2.4-1.8,2.4c-0.4,0-0.3,0-0.1,0.3  c2.8,2.9-1.1,3.2-6.9,2.6c-2.2-0.3-3.5-2.4-4.4-5c-0.1-0.4-0.1-0.5-0.1,0c0,0.6-0.1,1.2-0.1,1.8c0,0.3-0.8,0.2-0.9,0  c-0.2-2.6,0.2-5.3-1.6-7.4c-0.8-1-1-1.6-1-2.4c0.1-0.9,0.6-2.4,1.1-3.5c0.4-0.9,0.6-1.4,0.7-2.4c0.7-7.3-2.2-19.1,3-26.9  c1.1-1.6,1.6-3.4,0.7-5.6c-2.1-6.7-5-13.3-9.2-20.1c-0.4-0.6-2.1-0.3-2.5-0.9c-1.8-2.9-1.2-7.2-1.1-11c0-1.8-0.1-2-1.3-3.4  c-4-4.5-6.5-8.5-9.1-14.1c-0.4-0.8-0.8-1.5-1.2-2.2c-0.6-1-0.9-2.1-0.8-3.4c0.1-0.8,0.2-1.6,0.3-2.5c0.3-2.7,1.5-5.6,2.7-8.4  c0.6-1.5,0.8-1.9,1.1-3.4c0.9-4.6,1.9-9.1,5.4-10.2C676.3,41.4,676.2,41.5,676.1,40.7L676.1,40.7z M702.3,60.9  c-0.2,4.3-1.6,7.8,0.5,12.7c0.5,1.1,1.7,1.9,2.6,3.1c1.3,1.6,0.9,1.8,0.8-0.5c-0.1-2.7-0.1-5.9-0.2-8.2c-0.1-1.5,0-3.6-0.8-4.8  c-0.5-0.7-1.2-1.7-1.8-2.6C702.1,58.6,702.4,58.8,702.3,60.9L702.3,60.9z M675.4,64.2c-0.1,0.2-0.2,0.5-0.4,0.7  c-0.8,1.6-0.8,1.9-0.2,3.6c1,2.6,1.8,5.1,3.3,7.6c0.4,0.7,1,1.1,1-0.3c0.2-2,0.7-3.2,0.3-5.4c-0.4-1.9-1.1-3.6-2.3-6  C676.1,62.5,676.3,62.3,675.4,64.2L675.4,64.2z" fill-rule="evenodd"  clip-rule="evenodd"  fill="#0092D4"  /><path d="M744.1,162.9c-1.2,1.6-1.7,3.2-1.3,4.7c0.1,0.3,0.1,0.3,0,0.6  c-0.1,0.4-0.1,1,0,1.4c0.9,2.9,6.7,3.2,9.9,1.6c0.9-0.5,0.7-1.6,0.6-2.2c-0.2-2.2,0.9-3.6,0.3-6.3c-0.2-0.6,0.8-1,1.7-1.3  c1.3-0.5,2-1.4,1.7-2.3c-0.6-2.4-2.5-4.2-2.1-6.6c0.6-3.3,0.3-5.7-0.6-8.9c-1-2.9-1.4-5.7-1-8.2c0.7-2.4,1.2-5.6,1.4-9.9  c1.1-6.4,2.4-12.9,4.5-19.5c0.2-0.6,0.7-0.4,0.7,0.6c0.2,5.1,0.5,10.1,1.7,14.3c2.2,4.4,2.4,6.8,2,10.8c-0.3,2.5,0,4.7-0.5,7.2  c-0.6,3.4-1.6,6.9-3.1,11.2c-1.4,4.8-0.7,8.6,1.2,11.4c0.2,0.4,0.2,0.4,0.2,0.8c-0.3,1.8-0.2,3.4,0.9,4.1c1.7,1,3.6,1.2,5.6,1.2  c1.4,0.1,0.7,3.2,4.8,4.6c3.7,1,8.5,0.7,9.7-1.3c0.1-0.2,0-0.3,0-0.5c0.2-1.7-1.2-3.1-2.7-4.3c-0.8-0.6-1.9-1-2.6-1.6  c-0.7-0.6-1.5-1.3-2-2.1c-0.2-0.3-0.2-0.4-0.2-0.8c-0.2-1-1.1-1.9-1.7-2.8c-0.2-0.4-0.3-0.4,0.1-0.6c4.2-2.8,0.7-7.3,1.9-12.6  c2.7-8,1.8-16.2,3.1-24.2c0.7-3.2-0.3-4.8-0.2-7.4c0.8-11.4,0-22.9-2.8-35.6c0-0.1,0-0.1,0-0.2c0.1-0.8,0-1.7-0.2-2.6  c0-0.2,0-0.2,0-0.4c0-3.9-2.2-18-1.4-20.1c0.1-0.1,0-0.1,0.1,0c0.5,0.5,1.1,0.8,1.8,1c0.2,0,0.1,0.1,0.2,0.2  c1.6,5.7,4.3,11,8.5,16.2c0.6,0.9,0.7,1.9-0.4,3.3c-1,1.4-0.6,3.5-0.9,5.6c-0.1,0.8-0.2,1.9-0.1,2.5c0.2,0.7,1.7,0.4,2.1-0.5  c0.3-0.6,0.5-1.5,0.5-2.3c0-0.3,0.1-0.5,0.5-0.6c1.4-0.4,1.8,1,1.6,2.9c-0.2,1.3-0.9,2.5-0.9,4.1c0,0.9,0.5,1.1,1.2,0.9  c0.1,0,0.1-0.1,0.1,0.1c0,1.2,1,1.2,1.7,0.7c0.1-0.1,0.1-0.1,0.1,0c0.3,0.5,1,0.7,1.4,0.3c0.4-0.5,0.8-1.2,1.1-2c0-0.1,0-0.1,0.1,0  c0.2,0.2,0.6,0.1,0.7-0.2c0.9-2.3,1-2.1,1.3-3.2c0.2-0.8,0-1.8-0.3-2.3c-0.7-2.2-1.6-4.4-3.5-6.8c-0.2-0.2-0.2-0.3-0.2-0.5  c0-1-0.2-2.1-0.5-3.1c-1.3-6.6-3.1-12.9-6.1-18.3c-0.2-0.6,0.3-1,1.1-1.3c2.1-0.6,2.2-1.6,1.7-2.7c-2.3-5.2-5.2-10.4-8.2-15.7  c-0.9-2.1-2.6-3.9-4.8-5.5c-2.6-1.7-6.7-3.2-10.6-4.6c-0.2-0.1-0.2-0.1-0.1-0.2c0.5-0.6,0.6-1.1,0.8-1.9c0.1-0.7,0.4-1.4,0.5-2.1  c0-0.3,0-0.3,0.2-0.4c0.4-0.2,0.6-0.6,0.6-1.1c0-0.3,0-0.4,0.1-0.7c0.8-2.4,1.1-4.3-0.2-4.9c-0.4-0.2-0.3-0.1-0.2-0.5  c0.5-3.5,1.1-6.6-2.5-8.6c-0.3-0.2-0.5-0.3-0.8-0.5c-3-2.5-7-2.6-9.7-1.1c-0.2,0.1-0.4,0.2-0.6,0.3c-4.6,1.3-4.7,5.1-3.5,10.8  c0.2,0.8,0.1,0.6-0.7,0.7c-2,0.3-1.8,2.1-0.3,5c0.2,0.3,0.3,0.6,0.4,0.9c0.3,0.7,0.6,0.9,1.1,0.9c0.3,0,0.3,0,0.3,0.2  c0,0.1,0,0.2,0,0.2c0,0.1,0,0.2-0.2,0.4c-0.6,0.5-1.1,1.7-1.6,2.9c-0.4,0.9-0.6,0.9-1.5,1.3c-5.4,2.4-10.7,4.9-13.4,10  c-1.2,1.8-1.1,5.1-2.3,7.1c-3,4.7-4.3,9.7-6.1,15.1c-0.9,1.9,3,2.6,4.6,3.2c0.4,0.2,0.4,0.5,0.5,1.2c0.2,2.5-1.1,8.7-1.3,12.2  c-0.1,2.7,0.4,10.8,1.8,16.6c0.2,0.9,0.2,1.2,0,2c-0.2,1.4-0.2,3.1-0.7,4.3c-0.6,1.2-0.3,2.5-0.4,5.7c-0.1,1.1,0.6,1.7,1.2,1.9  c0.1,0,0.1,0,0.1,0.1c0.3,1,0.5,1.2,1.3,1.1c0.1,0,0.1,0,0.2,0.1c0.4,0.7,1,0.5,1.8,1.4c0.8,0.9,1.5,0.7,2.3,0.8  c0.5,0.1,0.8,0.1,1.3,0.1c0.5,0,1.1,0.5,1.3,0.6c0.5,0.3,1-0.7,0.3-1.3c-0.9-0.8-1.3-1.7-1.9-2.4c-0.3-0.4-0.3-0.3-0.3-0.8  c0-0.7-0.1-1.2-0.4-1.6c-0.1-0.3-0.2-0.4-0.2-0.7c0-0.3,0.1-0.7,0-1c-0.1-0.5,0.2-0.9,0.4-1.1c0.4-0.3,0.8-0.1,1,0.2  c0.5,0.6,0.5,1.7,0.8,2.5c0.3,0.9,0.9,1.6,1.6,2c0.9,0.2,1.2-0.2,1-0.8c-0.3-1.1-0.2-2.3-0.6-3.1c-1.1-2.4-1.5-5.3-3.9-7.9  c-1.3-1.9-0.9-7.2-0.9-10.2c-0.1-3.1,0.9-5,1.2-8.9c0.1-0.9,0.9-11.8,1.7-11.7c1.3,0.1,1.9,0.2,3.1,0c0.5-0.1-0.7,12.1-0.8,12.7  c-0.3,1.1-0.5,2-0.6,3.1c-0.1,0.9-0.3,2.5-0.3,3.8c0.1,5.8,0.2,9.6,0.2,10.1c0.2,3.2,1.2,6.2,1.6,9.2c0.1,0.6,0.1,1.1,0.1,1.6  c-0.6,4.4-0.8,8.8-0.2,13c0.4,7.1,1.7,12.8,2.5,19.3c1,6.5-0.7,12.6,1.4,19c0.1,0.2,0,0.3,0,0.4c-1.1,3.2-1.3,6.3,0.4,8.9  C744.3,162.6,744.3,162.6,744.1,162.9L744.1,162.9z" fill-rule="evenodd"  clip-rule="evenodd"  fill="#0092D4"  /><g><path d="M531.6,64.8V33.9c0-1.6,1.3-2.9,2.9-2.9h0.1   c0,0,0,0,0.1,0h17c1.5,0,2.9,1.3,2.9,2.9c0,1.6-1.4,2.9-2.9,2.9h-14.2v9.6h12.2c1.6,0,2.9,1.4,2.9,2.9c0,1.6-1.3,2.9-2.9,2.9h-12.2   v9.6h14.2c1.5,0,2.9,1.3,2.9,2.9c0,1.6-1.4,2.9-2.9,2.9h-17c-0.1,0-0.1-0.1-0.1-0.1l-0.1,0.1C532.8,67.7,531.6,66.4,531.6,64.8z" fill="#0053A1"  stroke="#0092D4"  stroke-width="0.3"  stroke-miterlimit="10"  />
	
</g></svg>