<svg viewBox="0 0 873.3 283.5" role="img" aria-labelledby="anode--title" xmlns="http://www.w3.org/2000/svg" xmlns:xlink="http://www.w3.org/1999/xlink"><title id="anode--title">ANODE</title><path d="M13.8,141.7c0-70.6,58.5-128,130.4-128H448v255.9H144.2C72.3,269.7,13.8,212.3,13.8,141.7z" fill="#FFFFFF"  /><path d="M558.3,207.8V80c0-6.7,5.2-11.9,11.9-11.9h25.6c41.8,0,75.6,34,75.6,75.6c0,42-33.8,76-75.6,76h-25.6  C563.5,219.7,558.3,214.3,558.3,207.8L558.3,207.8z M582.3,195.7h13.4c28.6-0.2,51.6-23.2,51.6-52c0-28.4-23-51.6-51.6-51.6h-13.4  V195.7z M703.2,207.8V80c0-6.7,5.2-11.9,11.9-11.9H786c6.3,0,11.9,5.2,11.9,11.9c0,6.7-5.6,12.1-11.9,12.1h-58.7v39.6h50.5  c6.5,0,11.9,5.6,11.9,11.9c0,6.7-5.4,12.1-11.9,12.1h-50.5v39.9H786c6.3,0,11.9,5.4,11.9,12.1c0,6.5-5.6,11.9-11.9,11.9h-70.2  c-0.4,0-0.4-0.2-0.4-0.2l-0.2,0.2C708.4,219.7,703.2,214.3,703.2,207.8L703.2,207.8z" fill="#933961"  /><g><path d="M729.1,0H144.2C64.7,0,0,63.6,0,141.7s64.7,141.7,144.2,141.7h584.8c79.5,0,144.2-63.6,144.2-141.7   S808.6,0,729.1,0z M13.8,141.7c0-70.6,58.5-128,130.4-128H448v255.9H144.2C72.3,269.7,13.8,212.3,13.8,141.7z" fill="#933961"  /><path d="M161.9,184h-52.6l-10.6,28.2c-1.9,4.6-6.3,7.6-11.3,7.6c-1.5,0-2.8-0.2-4.1-0.6c-6.3-2.4-9.3-9.3-7.1-15.6   L124,75.9c1.9-4.8,6.7-7.8,11.5-7.6c5-0.2,9.5,2.8,11.5,7.6l47.9,127.6c2.2,6.3-0.9,13.2-7.1,15.6c-1.1,0.4-2.6,0.6-4.1,0.6   c-4.8,0-9.3-2.8-11-7.6L161.9,184L161.9,184z M153,160.1l-17.6-46.6l-17.5,46.6H153z M248.3,207.8c0,6.5-5.4,11.9-11.7,11.9   c-6.7,0-11.9-5.4-11.9-11.9V81.9v-0.2c-0.2-3.7,1.5-7.6,4.8-10c5.4-3.7,12.8-2.6,16.5,2.6l70,96.8V81.9c0-6.3,5.2-11.7,11.7-11.7   c6.5,0,11.9,5.4,11.9,11.7v125.9c0,6.5-5.4,11.9-11.9,11.9c-3.5,0-6.7-1.7-8.9-4.3c-0.4-0.4-0.9-0.9-1.1-1.3l-69.3-96.2   L248.3,207.8L248.3,207.8z M413.4,179.4c-9.1-9.3-14.7-23-14.7-37.7s5.6-28.4,14.7-37.9c9.1-9.7,21.2-15.4,35.1-15.4V63.7   c-20.1,0-39.4,8.4-53.1,23.2C382,101.2,374,120.3,374,141.7c0,21.4,8,40.7,21.4,54.8c13.2,14.1,32.3,23.2,53.1,23.2V195   C434.6,195,422.5,189.2,413.4,179.4L413.4,179.4z" fill="#933961"  />
	
	
</g><g><path d="M558.3,207.8V80c0-6.7,5.2-11.9,11.9-11.9h25.6c41.8,0,75.6,34,75.6,75.6c0,42-33.8,76-75.6,76h-25.6   C563.5,219.7,558.3,214.3,558.3,207.8L558.3,207.8z M582.3,195.7h13.4c28.6-0.2,51.6-23.2,51.6-52c0-28.4-23-51.6-51.6-51.6h-13.4   V195.7z M703.2,207.8V80c0-6.7,5.2-11.9,11.9-11.9H786c6.3,0,11.9,5.2,11.9,11.9c0,6.7-5.6,12.1-11.9,12.1h-58.7v39.6h50.5   c6.5,0,11.9,5.6,11.9,11.9c0,6.7-5.4,12.1-11.9,12.1h-50.5v39.9H786c6.3,0,11.9,5.4,11.9,12.1c0,6.5-5.6,11.9-11.9,11.9h-70.2   c-0.4,0-0.4-0.2-0.4-0.2l-0.2,0.2C708.4,219.7,703.2,214.3,703.2,207.8L703.2,207.8z M448.5,63.7c19.9,0,39,8.9,51.8,23.2   c13.4,14.3,21.9,33.4,21.9,54.8c0,21.4-8.5,40.7-21.9,54.8c-12.8,14.1-31.9,23.2-51.8,23.2 M448.5,195c13,0,25.1-5.9,34.2-15.6   c8.9-9.3,14.7-23,14.7-37.7s-5.8-28.4-14.7-37.9c-9.1-9.7-21.2-15.4-34.2-15.4" fill="#FFFFFF"  />
	
</g></svg>