<svg viewBox="0 0 854.2 283.5" role="img" aria-labelledby="arctic--title" xmlns="http://www.w3.org/2000/svg" xmlns:xlink="http://www.w3.org/1999/xlink"><title id="arctic--title">ARCTIC - Antiseptic Randomised Controlled Trial for Insertion of Catheters</title><path d="M547.9,159.7c-8.1,4.2-15.3,7-21.6,8.6c-6.2,1.6-13.6,2.3-22.1,2.3c-20.6,0-37.7-6.7-51.4-20.2  c-13.7-13.5-20.5-30.4-20.5-50.7c0-22.2,7.3-40.7,21.8-55.4c14.5-14.7,32.7-22,54.6-22c6.9,0,13.3,0.5,19.1,1.5  c5.8,1,11.7,2.7,17.9,5v23.8c-5.6-4.2-11.7-7.3-18.5-9.6c-6.7-2.2-13.8-3.3-20.9-3.3c-14.3,0-26.2,5.4-35.8,16.2  c-9.5,10.8-14.3,24.3-14.3,40.5c0,16.3,4.5,29.8,13.5,40.6c9,10.8,20.2,16.2,33.7,16.2c9.1,0,17.1-1.3,24.1-4  c7-2.6,14.3-7.1,21.7-13.3L547.9,159.7L547.9,159.7z M602.3,126.7V40.1c-7.6,0.3-14.1,0.9-19.6,1.7c-10.6,1.5-19.3,4.1-26.2,7.7  l4.2-12.4l4.2-12.5h103.6l-3.4,11.9l-3.5,11.9c-8.5-3.2-15.6-5.4-21.6-6.8c-5.3-1.1-10.6-1.8-16-1.9v87.2c0,8.3,0.4,15.5,1.2,21.7  c0.8,6.1,2.3,12.8,4.4,20h-33c2.1-7,3.5-13.6,4.3-19.7C601.9,142.5,602.3,135.2,602.3,126.7z M689.2,126.7V66.2  c0-9-0.4-16.6-1.1-22.7s-2.1-12.5-3.9-19h31.9c-1.8,6.4-3.1,12.7-3.9,18.8c-0.7,6.1-1.1,13.7-1.1,22.9v60.5c0,9.1,0.4,16.7,1.1,22.8  c0.7,6.1,2,12.4,3.9,18.9h-31.9c1.8-6.4,3.1-12.6,3.9-18.7C688.9,143.6,689.2,135.9,689.2,126.7L689.2,126.7z M853.1,159.7  c-8.1,4.2-15.3,7-21.6,8.6c-6.2,1.6-13.6,2.3-22.1,2.3c-20.6,0-37.7-6.7-51.4-20.2c-13.7-13.5-20.5-30.4-20.5-50.7  c0-22.2,7.3-40.7,21.8-55.4c14.5-14.7,32.7-22,54.6-22c6.9,0,13.3,0.5,19.1,1.5s11.7,2.7,17.9,5v23.8c-5.6-4.2-11.7-7.3-18.5-9.6  c-6.7-2.2-13.8-3.3-20.9-3.3c-14.3,0-26.2,5.4-35.8,16.2c-9.5,10.8-14.3,24.3-14.3,40.5c0,16.3,4.5,29.8,13.4,40.6  c9,10.8,20.2,16.2,33.7,16.2c9.1,0,17.1-1.3,24.1-4c7-2.6,14.3-7.1,21.7-13.3L853.1,159.7L853.1,159.7z" fill="#319BC6"  /><g><path d="M42.9,226.5l12.9-33.7h4.8l13.8,33.7h-5.1l-3.9-10.2H51.4l-3.7,10.2C47.7,226.5,42.9,226.5,42.9,226.5z    M52.6,212.6h11.4l-3.5-9.3c-1.1-2.8-1.9-5.2-2.4-7c-0.4,2.2-1,4.3-1.8,6.4L52.6,212.6z M77.5,226.5v-24.4h3.7v3.5   c1.8-2.7,4.4-4,7.8-4c1.5,0,2.8,0.3,4.1,0.8c1.2,0.5,2.2,1.2,2.8,2.1c0.6,0.9,1,1.9,1.3,3.1c0.2,0.8,0.2,2.1,0.2,4v15h-4.1v-14.8   c0-1.7-0.2-2.9-0.5-3.8c-0.3-0.8-0.9-1.5-1.7-2c-0.8-0.5-1.8-0.7-2.9-0.7c-1.8,0-3.3,0.6-4.6,1.7c-1.3,1.1-1.9,3.2-1.9,6.4v13.3   L77.5,226.5L77.5,226.5z M112.6,222.8l0.6,3.7c-1.2,0.2-2.2,0.4-3.1,0.4c-1.5,0-2.7-0.2-3.5-0.7c-0.8-0.5-1.4-1.1-1.7-1.9   c-0.3-0.8-0.5-2.4-0.5-4.9v-14h-3v-3.2h3v-6l4.1-2.5v8.5h4.2v3.2h-4.2v14.3c0,1.2,0.1,1.9,0.2,2.3c0.1,0.3,0.4,0.6,0.7,0.8   c0.3,0.2,0.8,0.3,1.4,0.3C111.3,222.9,111.9,222.9,112.6,222.8L112.6,222.8z M116.7,197.6v-4.8h4.1v4.8H116.7z M116.7,226.5v-24.4   h4.1v24.4H116.7z M125.5,219.2l4.1-0.6c0.2,1.6,0.9,2.9,1.9,3.8c1,0.9,2.5,1.3,4.4,1.3c1.9,0,3.3-0.4,4.2-1.2   c0.9-0.8,1.4-1.7,1.4-2.7c0-0.9-0.4-1.7-1.2-2.2c-0.6-0.4-2-0.8-4.2-1.4c-3-0.8-5.1-1.4-6.3-2c-1.2-0.6-2.1-1.3-2.7-2.3   c-0.6-1-0.9-2.1-0.9-3.3c0-1.1,0.2-2.1,0.7-3c0.5-0.9,1.2-1.7,2-2.3c0.6-0.5,1.5-0.9,2.6-1.2c1.2-0.3,2.4-0.5,3.6-0.5   c1.9,0,3.6,0.3,5,0.8c1.4,0.5,2.5,1.3,3.2,2.2c0.7,0.9,1.2,2.2,1.4,3.8l-4,0.5c-0.2-1.3-0.7-2.2-1.6-2.9s-2.1-1.1-3.7-1.1   c-1.9,0-3.3,0.3-4.1,0.9c-0.8,0.6-1.2,1.4-1.2,2.2c0,0.5,0.2,1,0.5,1.4c0.3,0.4,0.9,0.8,1.6,1.1c0.4,0.2,1.6,0.5,3.7,1.1   c2.9,0.8,5,1.4,6.1,1.9c1.2,0.5,2.1,1.2,2.7,2.2c0.7,0.9,1,2.1,1,3.5c0,1.4-0.4,2.7-1.2,3.9c-0.8,1.2-2,2.2-3.5,2.8   c-1.5,0.7-3.2,1-5.1,1c-3.2,0-5.6-0.7-7.2-2C127,223.7,125.9,221.8,125.5,219.2L125.5,219.2z M167.3,218.6l4.3,0.5   c-0.7,2.5-1.9,4.4-3.7,5.8c-1.8,1.4-4.1,2.1-7,2.1c-3.6,0-6.4-1.1-8.5-3.3c-2.1-2.2-3.1-5.3-3.1-9.2c0-4.1,1.1-7.3,3.2-9.6   c2.1-2.3,4.9-3.4,8.2-3.4c3.3,0,5.9,1.1,8,3.3c2.1,2.2,3.1,5.3,3.1,9.4c0,0.2,0,0.6,0,1.1h-18.2c0.2,2.7,0.9,4.7,2.3,6.2   c1.4,1.4,3.1,2.1,5.1,2.1c1.5,0,2.8-0.4,3.9-1.2C165.9,221.6,166.7,220.4,167.3,218.6L167.3,218.6z M153.8,211.9h13.6   c-0.2-2.1-0.7-3.6-1.6-4.6c-1.3-1.6-3-2.4-5.1-2.4c-1.9,0-3.5,0.6-4.8,1.9C154.6,208.1,153.9,209.8,153.8,211.9z M176.8,235.8   v-33.7h3.8v3.2c0.9-1.2,1.9-2.2,3-2.8c1.1-0.6,2.5-0.9,4.1-0.9c2.1,0,3.9,0.5,5.5,1.6c1.6,1.1,2.8,2.6,3.6,4.5   c0.8,2,1.2,4.1,1.2,6.4c0,2.5-0.4,4.7-1.3,6.7c-0.9,2-2.2,3.5-3.9,4.6c-1.7,1.1-3.5,1.6-5.4,1.6c-1.4,0-2.6-0.3-3.7-0.9   c-1.1-0.6-2-1.3-2.7-2.2v11.9L176.8,235.8L176.8,235.8z M180.5,214.4c0,3.1,0.6,5.5,1.9,7c1.3,1.5,2.8,2.2,4.6,2.2   c1.8,0,3.4-0.8,4.7-2.3c1.3-1.6,2-4,2-7.2c0-3.1-0.6-5.4-1.9-7c-1.3-1.5-2.8-2.3-4.6-2.3c-1.8,0-3.3,0.8-4.7,2.5   C181.2,208.9,180.5,211.3,180.5,214.4L180.5,214.4z M212,222.8l0.6,3.7c-1.2,0.2-2.2,0.4-3.1,0.4c-1.5,0-2.7-0.2-3.5-0.7   c-0.8-0.5-1.4-1.1-1.7-1.9c-0.3-0.8-0.5-2.4-0.5-4.9v-14h-3v-3.2h3v-6l4.1-2.5v8.5h4.2v3.2h-4.2v14.3c0,1.2,0.1,1.9,0.2,2.3   c0.1,0.3,0.4,0.6,0.7,0.8c0.3,0.2,0.8,0.3,1.4,0.3C210.6,222.9,211.2,222.9,212,222.8L212,222.8z M216,197.6v-4.8h4.1v4.8H216z    M216,226.5v-24.4h4.1v24.4H216z M242.4,217.5l4.1,0.5c-0.4,2.8-1.6,5-3.4,6.6c-1.8,1.6-4.1,2.4-6.7,2.4c-3.3,0-6-1.1-8-3.3   c-2-2.2-3-5.3-3-9.4c0-2.6,0.4-4.9,1.3-6.9c0.9-2,2.2-3.5,4-4.4c1.8-1,3.7-1.5,5.8-1.5c2.6,0,4.8,0.7,6.5,2   c1.7,1.3,2.8,3.2,3.2,5.7l-4,0.6c-0.4-1.6-1.1-2.9-2-3.7c-1-0.8-2.1-1.2-3.5-1.2c-2.1,0-3.8,0.7-5.1,2.2c-1.3,1.5-2,3.9-2,7.1   c0,3.3,0.6,5.7,1.9,7.1c1.3,1.5,2.9,2.2,4.9,2.2c1.6,0,3-0.5,4.1-1.5C241.4,221.1,242.1,219.6,242.4,217.5L242.4,217.5z    M263.6,226.5v-33.7h14.9c3,0,5.3,0.3,6.8,0.9c1.6,0.6,2.8,1.7,3.7,3.2c0.9,1.5,1.4,3.2,1.4,5.1c0,2.4-0.8,4.4-2.3,6   c-1.5,1.6-3.9,2.7-7.2,3.1c1.2,0.6,2.1,1.1,2.7,1.7c1.3,1.2,2.5,2.7,3.7,4.5l5.9,9.2h-5.6l-4.5-7c-1.3-2-2.4-3.6-3.2-4.6   c-0.8-1.1-1.6-1.8-2.3-2.2c-0.6-0.4-1.3-0.7-2-0.9c-0.5-0.1-1.3-0.2-2.5-0.2h-5.2v14.9L263.6,226.5L263.6,226.5z M268.1,207.7h9.6   c2,0,3.6-0.2,4.8-0.6c1.1-0.4,2-1.1,2.6-2c0.6-0.9,0.9-1.9,0.9-3c0-1.6-0.6-2.9-1.7-3.9c-1.2-1-3-1.5-5.5-1.5h-10.7L268.1,207.7   L268.1,207.7z M312.9,223.5c-1.5,1.3-3,2.2-4.4,2.8s-2.9,0.8-4.6,0.8c-2.7,0-4.7-0.7-6.2-2c-1.4-1.3-2.2-3-2.2-5   c0-1.2,0.3-2.3,0.8-3.3c0.5-1,1.2-1.8,2.1-2.4c0.9-0.6,1.9-1.1,3-1.4c0.8-0.2,2-0.4,3.7-0.6c3.3-0.4,5.8-0.9,7.4-1.4   c0-0.6,0-0.9,0-1.1c0-1.7-0.4-2.9-1.2-3.6c-1.1-0.9-2.6-1.4-4.7-1.4c-1.9,0-3.4,0.3-4.3,1c-0.9,0.7-1.6,1.9-2.1,3.6l-4-0.6   c0.4-1.7,1-3.1,1.8-4.2c0.8-1.1,2.1-1.9,3.6-2.5c1.6-0.6,3.4-0.9,5.5-0.9c2.1,0,3.8,0.2,5.1,0.7c1.3,0.5,2.3,1.1,2.9,1.9   c0.6,0.7,1,1.7,1.3,2.8c0.1,0.7,0.2,2,0.2,3.8v5.5c0,3.8,0.1,6.3,0.3,7.3c0.2,1,0.5,2,1,2.9h-4.3   C313.3,225.6,313,224.6,312.9,223.5L312.9,223.5z M312.6,214.2c-1.5,0.6-3.7,1.1-6.7,1.6c-1.7,0.2-2.9,0.5-3.6,0.8   c-0.7,0.3-1.2,0.8-1.6,1.3c-0.4,0.6-0.6,1.3-0.6,2c0,1.1,0.4,2,1.3,2.8c0.8,0.7,2.1,1.1,3.7,1.1c1.6,0,3-0.3,4.2-1   c1.2-0.7,2.2-1.7,2.7-2.9c0.4-0.9,0.7-2.3,0.7-4.1L312.6,214.2L312.6,214.2z M323.2,226.5v-24.4h3.7v3.5c1.8-2.7,4.4-4,7.8-4   c1.5,0,2.8,0.3,4.1,0.8c1.2,0.5,2.2,1.2,2.8,2.1c0.6,0.9,1,1.9,1.3,3.1c0.2,0.8,0.2,2.1,0.2,4v15h-4.1v-14.8c0-1.7-0.2-2.9-0.5-3.8   c-0.3-0.8-0.9-1.5-1.7-2c-0.8-0.5-1.8-0.7-2.9-0.7c-1.8,0-3.3,0.6-4.6,1.7c-1.3,1.1-1.9,3.2-1.9,6.4v13.3L323.2,226.5L323.2,226.5z    M365.1,226.5v-3.1c-1.5,2.4-3.8,3.6-6.8,3.6c-1.9,0-3.8-0.5-5.4-1.6c-1.6-1.1-2.9-2.6-3.8-4.5c-0.9-1.9-1.3-4.1-1.3-6.6   c0-2.4,0.4-4.6,1.2-6.6c0.8-2,2-3.5,3.6-4.6c1.6-1.1,3.4-1.6,5.4-1.6c1.5,0,2.8,0.3,3.9,0.9c1.1,0.6,2.1,1.4,2.8,2.4v-12.1h4.1   v33.7L365.1,226.5L365.1,226.5z M352.1,214.3c0,3.1,0.7,5.5,2,7c1.3,1.5,2.9,2.3,4.7,2.3c1.8,0,3.3-0.7,4.6-2.2   c1.3-1.5,1.9-3.7,1.9-6.8c0-3.3-0.6-5.8-1.9-7.3c-1.3-1.6-2.9-2.3-4.8-2.3c-1.8,0-3.4,0.8-4.6,2.2   C352.7,208.7,352.1,211.1,352.1,214.3L352.1,214.3z M373.9,214.3c0-4.5,1.3-7.9,3.8-10c2.1-1.8,4.7-2.7,7.7-2.7   c3.4,0,6.1,1.1,8.2,3.3c2.1,2.2,3.2,5.2,3.2,9.1c0,3.1-0.5,5.6-1.4,7.4c-0.9,1.8-2.3,3.2-4.1,4.2c-1.8,1-3.8,1.5-5.9,1.5   c-3.4,0-6.2-1.1-8.3-3.3C375,221.5,373.9,218.4,373.9,214.3L373.9,214.3z M378.2,214.3c0,3.1,0.7,5.5,2,7c1.4,1.6,3.1,2.3,5.1,2.3   c2,0,3.8-0.8,5.1-2.3c1.4-1.6,2-3.9,2-7.1c0-3-0.7-5.3-2.1-6.9c-1.4-1.6-3.1-2.3-5.1-2.3c-2.1,0-3.8,0.8-5.1,2.3   C378.8,208.8,378.2,211.1,378.2,214.3L378.2,214.3z M401.6,226.5v-24.4h3.7v3.4c0.8-1.2,1.8-2.2,3.1-2.9c1.3-0.7,2.7-1.1,4.3-1.1   c1.8,0,3.3,0.4,4.4,1.1c1.2,0.7,2,1.8,2.4,3.1c1.9-2.9,4.4-4.3,7.5-4.3c2.4,0,4.3,0.7,5.6,2c1.3,1.3,2,3.4,2,6.2v16.7h-4.1v-15.4   c0-1.7-0.1-2.8-0.4-3.6c-0.3-0.7-0.8-1.3-1.5-1.8c-0.7-0.4-1.5-0.7-2.5-0.7c-1.7,0-3.1,0.6-4.3,1.7c-1.1,1.1-1.7,3-1.7,5.5v14.2   h-4.1v-15.8c0-1.8-0.3-3.2-1-4.1c-0.7-0.9-1.8-1.4-3.3-1.4c-1.1,0-2.3,0.3-3.2,0.9c-1,0.6-1.7,1.5-2.1,2.7   c-0.4,1.2-0.7,2.9-0.7,5.1v12.7H401.6L401.6,226.5z M440.8,197.6v-4.8h4.1v4.8H440.8z M440.8,226.5v-24.4h4.1v24.4H440.8z    M449.6,219.2l4.1-0.6c0.2,1.6,0.9,2.9,1.9,3.8c1.1,0.9,2.5,1.3,4.4,1.3c1.9,0,3.3-0.4,4.2-1.2c0.9-0.8,1.4-1.7,1.4-2.7   c0-0.9-0.4-1.7-1.2-2.2c-0.6-0.4-2-0.8-4.2-1.4c-3-0.8-5.1-1.4-6.3-2c-1.2-0.6-2.1-1.3-2.7-2.3c-0.6-1-0.9-2.1-0.9-3.3   c0-1.1,0.2-2.1,0.7-3c0.5-0.9,1.2-1.7,2-2.3c0.6-0.5,1.5-0.9,2.6-1.2c1.2-0.3,2.4-0.5,3.6-0.5c1.9,0,3.6,0.3,5,0.8   c1.4,0.5,2.5,1.3,3.2,2.2c0.7,0.9,1.2,2.2,1.4,3.8l-4,0.5c-0.2-1.3-0.7-2.2-1.6-2.9c-0.9-0.7-2.1-1.1-3.7-1.1   c-1.9,0-3.3,0.3-4.1,0.9c-0.8,0.6-1.2,1.4-1.2,2.2c0,0.5,0.2,1,0.5,1.4c0.3,0.4,0.9,0.8,1.6,1.1c0.4,0.2,1.6,0.5,3.6,1.1   c2.9,0.8,5,1.4,6.1,1.9c1.2,0.5,2.1,1.2,2.7,2.2c0.7,0.9,1,2.1,1,3.5c0,1.4-0.4,2.7-1.2,3.9c-0.8,1.2-2,2.2-3.5,2.8   c-1.5,0.7-3.2,1-5.1,1c-3.2,0-5.6-0.7-7.2-2C451.1,223.7,450,221.8,449.6,219.2L449.6,219.2z M491.4,218.6l4.3,0.5   c-0.7,2.5-1.9,4.4-3.7,5.8c-1.8,1.4-4.1,2.1-7,2.1c-3.6,0-6.4-1.1-8.5-3.3c-2.1-2.2-3.1-5.3-3.1-9.2c0-4.1,1.1-7.3,3.2-9.6   c2.1-2.3,4.9-3.4,8.2-3.4c3.3,0,5.9,1.1,8,3.3c2.1,2.2,3.1,5.3,3.1,9.4c0,0.2,0,0.6,0,1.1h-18.2c0.2,2.7,0.9,4.7,2.3,6.2   c1.4,1.4,3.1,2.1,5.1,2.1c1.5,0,2.8-0.4,3.9-1.2C490,221.6,490.8,220.4,491.4,218.6L491.4,218.6z M477.9,211.9h13.6   c-0.2-2.1-0.7-3.6-1.6-4.6c-1.3-1.6-3-2.4-5.1-2.4c-1.9,0-3.5,0.6-4.8,1.9C478.7,208.1,478,209.8,477.9,211.9z M516.7,226.5v-3.1   c-1.5,2.4-3.8,3.6-6.8,3.6c-1.9,0-3.8-0.5-5.4-1.6c-1.6-1.1-2.9-2.6-3.8-4.5c-0.9-1.9-1.3-4.1-1.3-6.6c0-2.4,0.4-4.6,1.2-6.6   c0.8-2,2-3.5,3.6-4.6c1.6-1.1,3.4-1.6,5.4-1.6c1.5,0,2.8,0.3,3.9,0.9c1.1,0.6,2.1,1.4,2.8,2.4v-12.1h4.1v33.7L516.7,226.5   L516.7,226.5z M503.7,214.3c0,3.1,0.7,5.5,2,7c1.3,1.5,2.9,2.3,4.7,2.3c1.8,0,3.3-0.7,4.6-2.2c1.3-1.5,1.9-3.7,1.9-6.8   c0-3.3-0.6-5.8-1.9-7.3c-1.3-1.6-2.9-2.3-4.8-2.3c-1.8,0-3.4,0.8-4.6,2.2C504.3,208.7,503.7,211.1,503.7,214.3z M564.7,214.7   l4.5,1.1c-0.9,3.7-2.6,6.4-5,8.4c-2.4,1.9-5.4,2.9-8.9,2.9c-3.6,0-6.6-0.7-8.8-2.2c-2.3-1.5-4-3.6-5.2-6.4c-1.2-2.8-1.8-5.8-1.8-9   c0-3.5,0.7-6.6,2-9.2c1.3-2.6,3.2-4.6,5.7-5.9c2.5-1.4,5.2-2,8.2-2c3.4,0,6.2,0.9,8.5,2.6c2.3,1.7,3.9,4.1,4.8,7.2l-4.4,1   c-0.8-2.4-1.9-4.2-3.4-5.3c-1.5-1.1-3.3-1.7-5.6-1.7c-2.6,0-4.8,0.6-6.5,1.9c-1.7,1.2-3,2.9-3.7,5c-0.7,2.1-1.1,4.3-1.1,6.5   c0,2.9,0.4,5.4,1.3,7.5c0.8,2.1,2.1,3.7,3.9,4.8c1.7,1,3.7,1.6,5.7,1.6c2.5,0,4.6-0.7,6.3-2.2C562.9,219.6,564,217.5,564.7,214.7   L564.7,214.7z M572.5,214.3c0-4.5,1.3-7.9,3.8-10c2.1-1.8,4.7-2.7,7.7-2.7c3.4,0,6.1,1.1,8.2,3.3c2.1,2.2,3.2,5.2,3.2,9.1   c0,3.1-0.5,5.6-1.4,7.4c-0.9,1.8-2.3,3.2-4.1,4.2c-1.8,1-3.8,1.5-5.9,1.5c-3.4,0-6.2-1.1-8.3-3.3   C573.6,221.5,572.5,218.4,572.5,214.3L572.5,214.3z M576.8,214.3c0,3.1,0.7,5.5,2,7c1.4,1.6,3.1,2.3,5.1,2.3c2.1,0,3.8-0.8,5.1-2.3   c1.4-1.6,2-3.9,2-7.1c0-3-0.7-5.3-2.1-6.9c-1.4-1.6-3.1-2.3-5.1-2.3c-2.1,0-3.8,0.8-5.1,2.3C577.5,208.8,576.8,211.1,576.8,214.3   L576.8,214.3z M600.2,226.5v-24.4h3.7v3.5c1.8-2.7,4.4-4,7.8-4c1.5,0,2.8,0.3,4.1,0.8c1.2,0.5,2.1,1.2,2.8,2.1   c0.6,0.9,1,1.9,1.3,3.1c0.2,0.8,0.2,2.1,0.2,4v15h-4.1v-14.8c0-1.7-0.2-2.9-0.5-3.8c-0.3-0.8-0.9-1.5-1.7-2   c-0.8-0.5-1.8-0.7-2.9-0.7c-1.8,0-3.3,0.6-4.6,1.7c-1.3,1.1-1.9,3.2-1.9,6.4v13.3L600.2,226.5L600.2,226.5z M635.4,222.8l0.6,3.7   c-1.2,0.2-2.2,0.4-3.1,0.4c-1.5,0-2.7-0.2-3.5-0.7c-0.8-0.5-1.4-1.1-1.7-1.9c-0.3-0.8-0.5-2.4-0.5-4.9v-14h-3v-3.2h3v-6l4.1-2.5   v8.5h4.2v3.2h-4.2v14.3c0,1.2,0.1,1.9,0.2,2.3s0.4,0.6,0.7,0.8c0.3,0.2,0.8,0.3,1.4,0.3C634,222.9,634.7,222.9,635.4,222.8   L635.4,222.8z M639.4,226.5v-24.4h3.7v3.7c1-1.7,1.8-2.9,2.6-3.4c0.8-0.5,1.7-0.8,2.7-0.8c1.4,0,2.8,0.4,4.2,1.3l-1.4,3.8   c-1-0.6-2-0.9-3-0.9c-0.9,0-1.7,0.3-2.4,0.8c-0.7,0.5-1.2,1.3-1.5,2.3c-0.5,1.5-0.7,3.1-0.7,4.8v12.8L639.4,226.5L639.4,226.5z    M653.6,214.3c0-4.5,1.3-7.9,3.8-10c2.1-1.8,4.7-2.7,7.7-2.7c3.3,0,6.1,1.1,8.2,3.3c2.1,2.2,3.2,5.2,3.2,9.1c0,3.1-0.5,5.6-1.4,7.4   c-0.9,1.8-2.3,3.2-4.1,4.2c-1.8,1-3.8,1.5-5.9,1.5c-3.4,0-6.2-1.1-8.3-3.3C654.6,221.5,653.6,218.4,653.6,214.3L653.6,214.3z    M657.8,214.3c0,3.1,0.7,5.5,2,7c1.4,1.6,3.1,2.3,5.1,2.3c2,0,3.8-0.8,5.1-2.3c1.4-1.6,2-3.9,2-7.1c0-3-0.7-5.3-2.1-6.9   c-1.4-1.6-3.1-2.3-5.1-2.3c-2.1,0-3.8,0.8-5.1,2.3C658.5,208.8,657.8,211.1,657.8,214.3L657.8,214.3z M681.2,226.5v-33.7h4.1v33.7   H681.2z M691.6,226.5v-33.7h4.1v33.7H691.6z M718.8,218.6l4.3,0.5c-0.7,2.5-1.9,4.4-3.7,5.8c-1.8,1.4-4.2,2.1-7,2.1   c-3.6,0-6.4-1.1-8.5-3.3c-2.1-2.2-3.1-5.3-3.1-9.2c0-4.1,1.1-7.3,3.2-9.6c2.1-2.3,4.8-3.4,8.2-3.4c3.3,0,5.9,1.1,8,3.3   c2.1,2.2,3.1,5.3,3.1,9.4c0,0.2,0,0.6,0,1.1H705c0.2,2.7,0.9,4.7,2.3,6.2c1.4,1.4,3.1,2.1,5.1,2.1c1.5,0,2.8-0.4,3.9-1.2   C717.4,221.6,718.2,220.4,718.8,218.6L718.8,218.6z M705.3,211.9h13.6c-0.2-2.1-0.7-3.6-1.6-4.6c-1.3-1.6-3-2.4-5.1-2.4   c-1.9,0-3.5,0.6-4.8,1.9C706.1,208.1,705.4,209.8,705.3,211.9L705.3,211.9z M744.1,226.5v-3.1c-1.5,2.4-3.8,3.6-6.8,3.6   c-1.9,0-3.8-0.5-5.4-1.6c-1.6-1.1-2.9-2.6-3.8-4.5c-0.9-1.9-1.3-4.1-1.3-6.6c0-2.4,0.4-4.6,1.2-6.6c0.8-2,2-3.5,3.6-4.6   c1.6-1.1,3.4-1.6,5.4-1.6c1.5,0,2.8,0.3,3.9,0.9c1.1,0.6,2.1,1.4,2.8,2.4v-12.1h4.1v33.7L744.1,226.5L744.1,226.5z M731.1,214.3   c0,3.1,0.7,5.5,2,7c1.3,1.5,2.9,2.3,4.7,2.3c1.8,0,3.3-0.7,4.6-2.2c1.3-1.5,1.9-3.7,1.9-6.8c0-3.3-0.6-5.8-1.9-7.3   c-1.3-1.6-2.9-2.3-4.8-2.3c-1.8,0-3.4,0.8-4.6,2.2C731.7,208.7,731.1,211.1,731.1,214.3z M775.8,226.5v-29.7h-11.1v-4h26.7v4h-11.1   v29.7H775.8L775.8,226.5z M793.6,226.5v-24.4h3.7v3.7c1-1.7,1.8-2.9,2.6-3.4c0.8-0.5,1.7-0.8,2.7-0.8c1.4,0,2.8,0.4,4.2,1.3   l-1.4,3.8c-1-0.6-2-0.9-3-0.9c-0.9,0-1.7,0.3-2.4,0.8c-0.7,0.5-1.2,1.3-1.5,2.3c-0.5,1.5-0.7,3.1-0.7,4.8v12.8L793.6,226.5   L793.6,226.5z M809.3,197.6v-4.8h4.1v4.8H809.3z M809.3,226.5v-24.4h4.1v24.4H809.3z M835.7,223.5c-1.5,1.3-3,2.2-4.4,2.8   s-2.9,0.8-4.6,0.8c-2.7,0-4.7-0.7-6.2-2c-1.4-1.3-2.2-3-2.2-5c0-1.2,0.3-2.3,0.8-3.3c0.5-1,1.2-1.8,2.1-2.4c0.9-0.6,1.9-1.1,3-1.4   c0.8-0.2,2-0.4,3.7-0.6c3.3-0.4,5.8-0.9,7.4-1.4c0-0.6,0-0.9,0-1.1c0-1.7-0.4-2.9-1.2-3.6c-1.1-0.9-2.6-1.4-4.7-1.4   c-1.9,0-3.4,0.3-4.3,1c-0.9,0.7-1.6,1.9-2.1,3.6l-4-0.6c0.4-1.7,1-3.1,1.8-4.2c0.8-1.1,2.1-1.9,3.7-2.5c1.6-0.6,3.4-0.9,5.5-0.9   c2.1,0,3.8,0.2,5.1,0.7c1.3,0.5,2.3,1.1,2.9,1.9c0.6,0.7,1,1.7,1.3,2.8c0.1,0.7,0.2,2,0.2,3.8v5.5c0,3.8,0.1,6.3,0.3,7.3   c0.2,1,0.5,2,1,2.9h-4.3C836.1,225.6,835.8,224.6,835.7,223.5L835.7,223.5z M835.3,214.2c-1.5,0.6-3.8,1.1-6.8,1.6   c-1.7,0.2-2.9,0.5-3.6,0.8c-0.7,0.3-1.3,0.8-1.6,1.3c-0.4,0.6-0.6,1.3-0.6,2c0,1.1,0.4,2,1.3,2.8c0.8,0.7,2.1,1.1,3.7,1.1   c1.6,0,3-0.3,4.2-1c1.2-0.7,2.1-1.7,2.7-2.9c0.4-0.9,0.7-2.3,0.7-4.1L835.3,214.2L835.3,214.2z M845.8,226.5v-33.7h4.1v33.7H845.8z    M339.8,282.9v-21.2h-3.7v-3.2h3.7v-2.6c0-1.6,0.1-2.9,0.4-3.7c0.4-1.1,1.1-1.9,2.1-2.6c1-0.7,2.4-1,4.2-1c1.2,0,2.4,0.1,3.9,0.4   l-0.6,3.6c-0.8-0.1-1.6-0.2-2.4-0.2c-1.3,0-2.1,0.3-2.7,0.8c-0.5,0.5-0.8,1.5-0.8,3v2.3h4.8v3.2h-4.8v21.2L339.8,282.9L339.8,282.9   z M350.4,270.7c0-4.5,1.3-7.9,3.8-10c2.1-1.8,4.7-2.7,7.7-2.7c3.4,0,6.1,1.1,8.2,3.3c2.1,2.2,3.2,5.2,3.2,9.1   c0,3.1-0.5,5.6-1.4,7.4c-0.9,1.8-2.3,3.2-4.1,4.2c-1.8,1-3.8,1.5-5.9,1.5c-3.4,0-6.2-1.1-8.3-3.3   C351.4,278,350.4,274.8,350.4,270.7z M354.6,270.7c0,3.1,0.7,5.5,2,7c1.4,1.6,3.1,2.3,5.1,2.3c2,0,3.8-0.8,5.1-2.3   c1.4-1.6,2-3.9,2-7.1c0-3-0.7-5.3-2.1-6.9c-1.4-1.5-3.1-2.3-5.1-2.3c-2.1,0-3.8,0.8-5.1,2.3C355.3,265.2,354.6,267.6,354.6,270.7z    M378,282.9v-24.4h3.7v3.7c1-1.7,1.8-2.9,2.6-3.4s1.7-0.8,2.7-0.8c1.4,0,2.8,0.4,4.2,1.3l-1.4,3.8c-1-0.6-2-0.9-3-0.9   c-0.9,0-1.7,0.3-2.4,0.8s-1.2,1.3-1.5,2.3c-0.5,1.5-0.7,3.1-0.7,4.8v12.8L378,282.9L378,282.9z M408.1,282.9v-33.7h4.5v33.7H408.1z    M419.8,282.9v-24.4h3.7v3.5c1.8-2.7,4.4-4,7.8-4c1.5,0,2.8,0.3,4.1,0.8c1.2,0.5,2.2,1.2,2.8,2.1c0.6,0.9,1,1.9,1.3,3.1   c0.2,0.8,0.2,2.1,0.2,4v15h-4.1v-14.8c0-1.7-0.2-2.9-0.5-3.8c-0.3-0.8-0.9-1.5-1.7-2c-0.8-0.5-1.8-0.7-2.9-0.7   c-1.8,0-3.3,0.6-4.6,1.7s-1.9,3.2-1.9,6.4v13.3H419.8z M444.3,275.6l4.1-0.6c0.2,1.6,0.9,2.9,1.9,3.8c1,0.9,2.5,1.3,4.4,1.3   c1.9,0,3.3-0.4,4.2-1.2c0.9-0.8,1.4-1.7,1.4-2.7c0-0.9-0.4-1.7-1.2-2.2c-0.6-0.4-2-0.8-4.2-1.4c-3-0.8-5.1-1.4-6.3-2   c-1.2-0.6-2.1-1.3-2.7-2.3c-0.6-1-0.9-2.1-0.9-3.3c0-1.1,0.2-2.1,0.7-3c0.5-0.9,1.2-1.7,2-2.3c0.6-0.5,1.5-0.9,2.6-1.2   c1.1-0.3,2.3-0.5,3.6-0.5c1.9,0,3.6,0.3,5,0.8c1.4,0.6,2.5,1.3,3.2,2.2c0.7,0.9,1.2,2.2,1.4,3.8l-4,0.6c-0.2-1.3-0.7-2.2-1.6-2.9   c-0.9-0.7-2.1-1.1-3.7-1.1c-1.9,0-3.3,0.3-4.1,0.9c-0.8,0.6-1.2,1.4-1.2,2.2c0,0.5,0.2,1,0.5,1.4c0.3,0.4,0.9,0.8,1.6,1.1   c0.4,0.2,1.6,0.5,3.6,1.1c2.9,0.8,5,1.4,6.1,1.9c1.2,0.5,2.1,1.2,2.7,2.2c0.7,0.9,1,2.1,1,3.5c0,1.4-0.4,2.7-1.2,3.9   c-0.8,1.2-2,2.2-3.5,2.8c-1.5,0.7-3.2,1-5.1,1c-3.2,0-5.6-0.7-7.2-2C445.9,280.2,444.8,278.2,444.3,275.6L444.3,275.6z M486.2,275   l4.3,0.5c-0.7,2.5-1.9,4.4-3.7,5.8c-1.8,1.4-4.1,2.1-7,2.1c-3.6,0-6.4-1.1-8.5-3.3c-2.1-2.2-3.1-5.3-3.1-9.2c0-4.1,1.1-7.3,3.2-9.6   c2.1-2.3,4.9-3.4,8.2-3.4c3.3,0,5.9,1.1,8,3.3c2.1,2.2,3.1,5.3,3.1,9.4c0,0.2,0,0.6,0,1.1h-18.2c0.2,2.7,0.9,4.7,2.3,6.2   c1.4,1.4,3.1,2.1,5.1,2.1c1.5,0,2.8-0.4,3.9-1.2C484.7,278.1,485.6,276.8,486.2,275L486.2,275z M472.6,268.4h13.6   c-0.2-2-0.7-3.6-1.6-4.6c-1.3-1.6-3-2.4-5.1-2.4c-1.9,0-3.5,0.6-4.8,1.9C473.5,264.5,472.8,266.2,472.6,268.4z M495.6,282.9v-24.4   h3.7v3.7c1-1.7,1.8-2.9,2.6-3.4s1.7-0.8,2.7-0.8c1.4,0,2.8,0.4,4.2,1.3l-1.4,3.8c-1-0.6-2-0.9-3-0.9c-0.9,0-1.7,0.3-2.4,0.8   s-1.2,1.3-1.5,2.3c-0.5,1.5-0.7,3.1-0.7,4.8v12.8L495.6,282.9L495.6,282.9z M520.3,279.2l0.6,3.7c-1.2,0.2-2.2,0.4-3.1,0.4   c-1.5,0-2.7-0.2-3.5-0.7c-0.8-0.5-1.4-1.1-1.7-1.9c-0.3-0.8-0.5-2.4-0.5-4.9v-14h-3v-3.2h3v-6l4.1-2.5v8.5h4.2v3.2h-4.2V276   c0,1.2,0.1,1.9,0.2,2.3c0.1,0.3,0.4,0.6,0.7,0.8c0.3,0.2,0.8,0.3,1.4,0.3C519,279.4,519.6,279.3,520.3,279.2L520.3,279.2z    M524.4,254v-4.8h4.1v4.8H524.4z M524.4,282.9v-24.4h4.1v24.4H524.4z M533.3,270.7c0-4.5,1.3-7.9,3.8-10c2.1-1.8,4.7-2.7,7.7-2.7   c3.3,0,6.1,1.1,8.2,3.3c2.1,2.2,3.2,5.2,3.2,9.1c0,3.1-0.5,5.6-1.4,7.4c-0.9,1.8-2.3,3.2-4.1,4.2s-3.8,1.5-5.9,1.5   c-3.4,0-6.2-1.1-8.3-3.3C534.3,278,533.3,274.8,533.3,270.7L533.3,270.7z M537.5,270.7c0,3.1,0.7,5.5,2,7c1.4,1.6,3.1,2.3,5.1,2.3   c2,0,3.8-0.8,5.1-2.3c1.4-1.6,2-3.9,2-7.1c0-3-0.7-5.3-2.1-6.9c-1.4-1.5-3.1-2.3-5.1-2.3c-2.1,0-3.8,0.8-5.1,2.3   C538.2,265.2,537.5,267.6,537.5,270.7z M561,282.9v-24.4h3.7v3.5c1.8-2.7,4.4-4,7.8-4c1.5,0,2.8,0.3,4.1,0.8   c1.2,0.5,2.2,1.2,2.8,2.1c0.6,0.9,1,1.9,1.3,3.1c0.2,0.8,0.2,2.1,0.2,4v15h-4.1v-14.8c0-1.7-0.2-2.9-0.5-3.8   c-0.3-0.8-0.9-1.5-1.7-2c-0.8-0.5-1.8-0.7-2.9-0.7c-1.8,0-3.3,0.6-4.6,1.7c-1.3,1.1-1.9,3.2-1.9,6.4v13.3H561L561,282.9z    M598.7,270.7c0-4.5,1.3-7.9,3.8-10c2.1-1.8,4.7-2.7,7.7-2.7c3.3,0,6.1,1.1,8.2,3.3c2.1,2.2,3.2,5.2,3.2,9.1c0,3.1-0.5,5.6-1.4,7.4   c-0.9,1.8-2.3,3.2-4.1,4.2s-3.8,1.5-5.9,1.5c-3.4,0-6.2-1.1-8.3-3.3C599.7,278,598.7,274.8,598.7,270.7z M602.9,270.7   c0,3.1,0.7,5.5,2,7c1.4,1.6,3.1,2.3,5.1,2.3c2,0,3.8-0.8,5.1-2.3c1.4-1.6,2-3.9,2-7.1c0-3-0.7-5.3-2.1-6.9   c-1.4-1.5-3.1-2.3-5.1-2.3c-2.1,0-3.8,0.8-5.1,2.3C603.6,265.2,602.9,267.6,602.9,270.7z M627.3,282.9v-21.2h-3.7v-3.2h3.7v-2.6   c0-1.6,0.1-2.9,0.4-3.7c0.4-1.1,1.1-1.9,2.1-2.6c1-0.7,2.4-1,4.2-1c1.2,0,2.4,0.1,3.9,0.4l-0.6,3.6c-0.8-0.1-1.6-0.2-2.4-0.2   c-1.3,0-2.1,0.3-2.7,0.8c-0.5,0.5-0.8,1.5-0.8,3v2.3h4.8v3.2h-4.8v21.2L627.3,282.9L627.3,282.9z M677,271.1l4.5,1.1   c-0.9,3.7-2.6,6.4-5,8.4c-2.4,1.9-5.4,2.9-8.9,2.9c-3.6,0-6.6-0.7-8.8-2.2c-2.3-1.5-4-3.6-5.2-6.4c-1.2-2.8-1.8-5.8-1.8-9   c0-3.5,0.7-6.6,2-9.2c1.3-2.6,3.2-4.6,5.7-5.9c2.5-1.4,5.2-2,8.2-2c3.4,0,6.2,0.9,8.5,2.6c2.3,1.7,3.9,4.1,4.8,7.2l-4.4,1   c-0.8-2.4-1.9-4.2-3.4-5.3s-3.3-1.7-5.6-1.7c-2.6,0-4.8,0.6-6.5,1.9c-1.7,1.2-3,2.9-3.7,5c-0.7,2.1-1.1,4.3-1.1,6.5   c0,2.9,0.4,5.4,1.3,7.5c0.8,2.1,2.1,3.7,3.9,4.8c1.7,1,3.7,1.6,5.7,1.6c2.5,0,4.6-0.7,6.3-2.2C675.2,276.1,676.4,273.9,677,271.1   L677,271.1z M702.4,279.9c-1.5,1.3-3,2.2-4.4,2.8s-2.9,0.8-4.6,0.8c-2.7,0-4.7-0.7-6.2-2c-1.4-1.3-2.2-3-2.2-5   c0-1.2,0.3-2.3,0.8-3.3c0.5-1,1.3-1.8,2.1-2.4c0.9-0.6,1.9-1.1,3-1.4c0.8-0.2,2-0.4,3.7-0.6c3.3-0.4,5.8-0.9,7.4-1.4   c0-0.6,0-0.9,0-1.1c0-1.7-0.4-2.9-1.2-3.6c-1.1-0.9-2.6-1.4-4.7-1.4c-1.9,0-3.4,0.3-4.3,1s-1.6,1.9-2.1,3.6l-4-0.6   c0.4-1.7,1-3.1,1.8-4.2c0.8-1.1,2.1-1.9,3.6-2.5s3.4-0.9,5.5-0.9c2.1,0,3.8,0.2,5.1,0.7c1.3,0.5,2.3,1.1,2.9,1.9s1,1.7,1.3,2.8   c0.1,0.7,0.2,2,0.2,3.8v5.5c0,3.8,0.1,6.3,0.3,7.3c0.2,1,0.5,2,1,2.9h-4.3C702.8,282,702.5,281,702.4,279.9z M702,270.7   c-1.5,0.6-3.8,1.1-6.7,1.6c-1.7,0.2-2.9,0.5-3.6,0.8c-0.7,0.3-1.2,0.8-1.6,1.3c-0.4,0.6-0.6,1.3-0.6,2c0,1.1,0.4,2,1.3,2.8   c0.8,0.7,2.1,1.1,3.7,1.1c1.6,0,3-0.4,4.2-1c1.2-0.7,2.1-1.6,2.7-2.9c0.4-0.9,0.7-2.3,0.7-4.1L702,270.7L702,270.7z M721.6,279.2   l0.6,3.7c-1.2,0.2-2.2,0.4-3.1,0.4c-1.5,0-2.7-0.2-3.5-0.7c-0.8-0.5-1.4-1.1-1.7-1.9c-0.3-0.8-0.5-2.4-0.5-4.9v-14h-3v-3.2h3v-6   l4.1-2.5v8.5h4.2v3.2h-4.2V276c0,1.2,0.1,1.9,0.2,2.3c0.1,0.3,0.4,0.6,0.7,0.8c0.3,0.2,0.8,0.3,1.4,0.3   C720.3,279.4,720.9,279.3,721.6,279.2L721.6,279.2z M725.7,282.9v-33.7h4.1v12.1c1.9-2.2,4.4-3.4,7.3-3.4c1.8,0,3.4,0.4,4.7,1.1   c1.3,0.7,2.3,1.7,2.9,3c0.6,1.3,0.9,3.1,0.9,5.5v15.5h-4.1v-15.5c0-2.1-0.4-3.6-1.3-4.5c-0.9-0.9-2.2-1.4-3.8-1.4   c-1.2,0-2.4,0.3-3.4,1c-1.1,0.6-1.8,1.5-2.3,2.6c-0.5,1.1-0.7,2.6-0.7,4.5v13.3L725.7,282.9L725.7,282.9z M768.5,275l4.3,0.5   c-0.7,2.5-1.9,4.4-3.7,5.8c-1.8,1.4-4.1,2.1-7,2.1c-3.6,0-6.4-1.1-8.5-3.3c-2.1-2.2-3.1-5.3-3.1-9.2c0-4.1,1.1-7.3,3.2-9.6   c2.1-2.3,4.9-3.4,8.2-3.4c3.3,0,5.9,1.1,8,3.3c2.1,2.2,3.1,5.3,3.1,9.4c0,0.2,0,0.6,0,1.1h-18.2c0.2,2.7,0.9,4.7,2.3,6.2   c1.4,1.4,3.1,2.1,5.1,2.1c1.5,0,2.8-0.4,3.9-1.2C767,278.1,767.9,276.8,768.5,275L768.5,275z M754.9,268.4h13.6   c-0.2-2-0.7-3.6-1.6-4.6c-1.3-1.6-3-2.4-5.1-2.4c-1.9,0-3.5,0.6-4.8,1.9C755.8,264.5,755.1,266.2,754.9,268.4L754.9,268.4z    M787,279.2l0.6,3.7c-1.2,0.2-2.2,0.4-3.1,0.4c-1.5,0-2.7-0.2-3.5-0.7c-0.8-0.5-1.4-1.1-1.7-1.9c-0.3-0.8-0.5-2.4-0.5-4.9v-14h-3   v-3.2h3v-6l4.1-2.5v8.5h4.2v3.2h-4.2V276c0,1.2,0.1,1.9,0.2,2.3c0.1,0.3,0.4,0.6,0.7,0.8c0.3,0.2,0.8,0.3,1.4,0.3   C785.6,279.4,786.2,279.3,787,279.2L787,279.2z M807.7,275l4.3,0.5c-0.7,2.5-1.9,4.4-3.7,5.8c-1.8,1.4-4.1,2.1-7,2.1   c-3.6,0-6.4-1.1-8.5-3.3c-2.1-2.2-3.1-5.3-3.1-9.2c0-4.1,1.1-7.3,3.2-9.6c2.1-2.3,4.9-3.4,8.2-3.4c3.3,0,5.9,1.1,8,3.3   c2.1,2.2,3.1,5.3,3.1,9.4c0,0.2,0,0.6,0,1.1h-18.2c0.2,2.7,0.9,4.7,2.3,6.2c1.4,1.4,3.1,2.1,5.1,2.1c1.5,0,2.8-0.4,3.9-1.2   C806.3,278.1,807.1,276.8,807.7,275L807.7,275z M794.2,268.4h13.6c-0.2-2-0.7-3.6-1.6-4.6c-1.3-1.6-3-2.4-5.1-2.4   c-1.9,0-3.5,0.6-4.8,1.9C795,264.5,794.3,266.2,794.2,268.4z M817.1,282.9v-24.4h3.7v3.7c1-1.7,1.8-2.9,2.6-3.4   c0.8-0.5,1.7-0.8,2.7-0.8c1.4,0,2.8,0.4,4.2,1.3l-1.4,3.8c-1-0.6-2-0.9-3-0.9c-0.9,0-1.7,0.3-2.4,0.8s-1.2,1.3-1.5,2.3   c-0.5,1.5-0.7,3.1-0.7,4.8v12.8L817.1,282.9L817.1,282.9z M831.2,275.6l4.1-0.6c0.2,1.6,0.9,2.9,1.9,3.8c1,0.9,2.5,1.3,4.4,1.3   c1.9,0,3.3-0.4,4.2-1.2c0.9-0.8,1.4-1.7,1.4-2.7c0-0.9-0.4-1.7-1.2-2.2c-0.6-0.4-2-0.8-4.2-1.4c-3-0.8-5.1-1.4-6.3-2   c-1.2-0.6-2.1-1.3-2.7-2.3c-0.6-1-0.9-2.1-0.9-3.3c0-1.1,0.2-2.1,0.7-3c0.5-0.9,1.2-1.7,2-2.3c0.6-0.5,1.5-0.9,2.6-1.2   c1.1-0.3,2.3-0.5,3.6-0.5c1.9,0,3.6,0.3,5,0.8c1.4,0.6,2.5,1.3,3.2,2.2c0.7,0.9,1.2,2.2,1.4,3.8l-4,0.6c-0.2-1.3-0.7-2.2-1.6-2.9   c-0.9-0.7-2.1-1.1-3.7-1.1c-1.9,0-3.3,0.3-4.1,0.9c-0.8,0.6-1.2,1.4-1.2,2.2c0,0.5,0.2,1,0.5,1.4c0.3,0.4,0.9,0.8,1.6,1.1   c0.4,0.2,1.6,0.5,3.6,1.1c2.9,0.8,5,1.4,6.1,1.9c1.2,0.5,2.1,1.2,2.7,2.2c0.7,0.9,1,2.1,1,3.5c0,1.4-0.4,2.7-1.2,3.9   c-0.8,1.2-2,2.2-3.5,2.8c-1.5,0.7-3.2,1-5.1,1c-3.2,0-5.6-0.7-7.2-2C832.7,280.2,831.7,278.2,831.2,275.6L831.2,275.6z" fill="#319BC6"  />
	
</g><path d="M230.2,61.3l-18.7,43.4H249L230.2,61.3L230.2,61.3z M376.8,140.7c-9.9-11.7-18.3-22.9-25.3-33.5l-3.8-5.8  v24.5c0,9.1,0.4,16.7,1.1,22.8c0.7,5.7,1.9,11.6,3.6,17.6h48.8C394.2,160.1,386,151.6,376.8,140.7L376.8,140.7z" fill="#4277B0"  /><path d="M324.8,148.8c0.7-6.1,1.1-13.8,1.1-23V75.8l0.7,0.3l-71.5-59.6l-7.8,4.4L232.5,0l-67.9,78.4l-34-17.4  L81,92.3l-5.2-12.2L0,155.9v10.4h76.7l30.6-21.1l24.6,21.1h26c3.5-3.7,6.9-8.3,10.2-13.8c3.7-6.1,8.3-15,13.8-26.6l49.2-105.1h0.1  l49.2,105.1c5.7,12.1,10.3,21.2,14,27.3c3.2,5.4,6.4,9.8,9.5,13.1h17.4C322.9,160.3,324.1,154.5,324.8,148.8z" fill="#4277B0"  /><path d="M261.5,134.2l-4.7-11.1h-53.2l-0.7,2.1c-3.7,8.5-6.5,16.9-8.4,25.1c-1.7,7.2-2.4,12.5-1.9,16h77  c0.4-2.9,0-6.9-1.2-12.2C266.8,148,264.6,141.4,261.5,134.2L261.5,134.2z" fill="#4277B0"  /><path d="M325.9,125.9c0,9.2-0.4,16.8-1.1,23c-0.7,5.7-1.9,11.5-3.5,17.4h31.2c-1.7-6-2.9-11.9-3.6-17.6  c-0.7-6.1-1.1-13.7-1.1-22.8v-24.5l3.8,5.8c7,10.7,15.4,21.8,25.3,33.5c9.2,10.9,17.4,19.4,24.4,25.6h26  c-9.8-10.8-17.6-19.7-23.3-26.8c-6-7.3-11.5-14.6-16.4-21.9L377.1,102c-5.3-3.3-6.7-4.1-14.6-9.1c-2.1,1.2-14.7-5.1-14.7-7.1  l-21.1-9.6l-0.7-0.3L325.9,125.9L325.9,125.9z" fill="#FFFFFF"  /><g><path d="M412.4,139.5c-6-7.3-11.5-14.6-16.4-21.9l-12.2-18.4c2.5-1.2,2.5-1.8,4.7-3.2c11-7.5,16.5-17.3,16.5-29.6   c0-13.7-5-24.2-14.9-31.6c-9.9-7.4-24.1-11.1-42.4-11.1h-26.8c1.9,6.5,3.2,12.9,4,19s1.1,13.7,1.1,22.7v10.4l21.9,10V37.5   c9.7,0.4,17.6,3,23.7,7.7c6.5,5.1,9.7,11.9,9.7,20.3c0,9.2-3.4,16.6-10.3,22.2c-5.9,5-8.5,5.1-8.5,5.1c7.9,5.1,9.3,5.8,14.6,9.1   l10.4,15.6c5,7.3,10.4,14.6,16.4,21.9c5.8,7,13.6,16,23.3,26.8h8.5C425.9,155.5,418.1,146.5,412.4,139.5z" fill="#319BC6"  />
	
</g></svg>