<svg viewBox="0 0 202.3 283.5" role="img" aria-labelledby="caesar--title" xmlns="http://www.w3.org/2000/svg" xmlns:xlink="http://www.w3.org/1999/xlink"><title id="caesar--title">CAESAR</title><linearGradient id="SVGID_1_" gradientUnits="userSpaceOnUse" x1="101.1283" y1="74.9258" x2="101.1283" y2="362.258" gradientTransform="matrix(1 0 0 1 4.000000e-02 -76.336)"><stop offset="0.25" stop-color="#66376D" ></stop><stop offset="0.486" stop-color="#FFFFFF" ></stop><stop offset="0.75" stop-color="#66376D" ></stop>
	
	
	
</linearGradient><path d="M90.5,64.3c-4.1-0.2-14.7,1.9-18.9,2.6c-6.4,1.1-12.8,2.5-19.1,4.3c-10.7,3-21.3,7.1-30.1,14.1  C4,100-0.8,122.9,0.1,145.4c0.9,22.1,11.8,40.9,26,57.2c14.7,16.9,36.3,24,53.3,37.9c9.1,8.3,14.7,15.7,21.4,27.1  c2.5,3.9,3.7,9.4,5.7,15.8c2.2-2.3,3.8-6.3,4.4-8.9c1.4-5.3,2.2-10.4,4.7-15.4c1.1-2.2,2.9-4.7,4.5-6.5c6.4-7,13.7-11.8,21.4-17.3  c8.5-6.1,20.4-15.3,28.2-22.3c8.7-7.8,12.8-13.1,19.7-22.5c13.6-18.5,15.6-45.8,9.5-67.5c-3.2-11.2-8.1-22.9-15.2-32.2  c-7.4-9.6-16.7-18.4-25.4-26.8c-4.2-4.1-9.9-9.4-12.4-14.8c-2.5-4.5-3.1-6.6-3.1-11.9c0-5.9,1.1-10.3,4.1-14.9  c3.3-4.5,7.2-9.1,11.7-12.4c4.8-3.5,9.7-6.9,14.6-10.2c-10.3-0.7-25,9.2-32.6,15.5c-4.2,3.5-9.2,10.2-11.3,15.3  c-2.3,5.3-2.8,9.2-2.8,15c0,11.6,4.1,21.5,11.6,29.9c8.9,10,16.8,19.9,25.9,29.7c8.3,9,12.5,14.7,14.8,20.5  c6.1,15.2,5.4,34.7,1.3,49.1c-4.5,11.1-12.6,23.9-20.6,33c-6.3,7.2-13.6,13.8-21.2,19.6c-12.5,9.5-26.6,18.7-29.3,35.6  c0,2.5-1.2,9.8-1.6,12.3c-0.8-9.1-1.7-10.1-2.8-12.9c-1.7-4.3-4.3-8.3-7.1-12c-6.2-8.1-13.4-15.4-20.6-22.5  c-14.3-14-29.6-27.8-41.3-44.2c-9.5-13.4-14.6-29.5-15.1-46c-0.4-15.1,3.3-30.2,13.9-41.3c6.5-6.8,14.9-12,22.9-16.6  c4.6-2.6,9.4-5,14.2-7.1c3.6-1.6,7.3-2.6,11-4C84.2,68,89.6,65.7,90.5,64.3" fill="url(#SVGID_1_)"  /><path d="M78,192.8l-4.8,2.2l-0.2-0.4c1.1-0.9,1.8-1.9,2.1-3c0.3-1.1,0.2-2.2-0.3-3.2c-0.4-0.8-1-1.6-1.8-2  c-0.8-0.5-1.7-0.7-2.7-0.7c-1.2,0-2.4,0.4-3.7,0.9c-1.2,0.6-2.3,1.2-3.1,2c-0.9,0.8-1.4,1.6-1.6,2.5c-0.2,0.9-0.1,1.9,0.4,2.9  c0.4,0.8,0.9,1.6,1.7,2.1c0.7,0.5,1.7,1,3,1.4l-1.2,0.5c-1.2-0.4-2.1-0.9-2.9-1.6c-0.7-0.7-1.4-1.6-1.9-2.7c-0.7-1.5-1-2.9-0.9-4.3  c0.1-1.4,0.5-2.7,1.3-3.8c0.8-1.1,1.9-2,3.1-2.5c1.3-0.6,2.8-0.8,4.2-0.7c1.5,0.1,2.8,0.7,4,1.5c1.2,0.8,2.1,2,2.7,3.3  c0.4,1,0.7,2.1,0.8,3.4c0,0.7,0.1,1.2,0.2,1.4c0.1,0.2,0.3,0.4,0.5,0.5c0.2,0.1,0.5,0.1,0.9,0L78,192.8L78,192.8z M96.7,209  l-0.6,6.1l0.3,0c1,0.1,1.7-0.1,2.2-0.7c0.5-0.6,0.8-1.4,1.1-2.6l0.4,0l-0.7,7.9l-0.4,0c0-0.9-0.1-1.6-0.4-2.2  c-0.2-0.6-0.5-1-0.9-1.2c-0.4-0.2-0.9-0.4-1.6-0.4l-0.4,4.2c-0.1,0.8-0.1,1.3,0,1.5c0.1,0.2,0.2,0.4,0.4,0.5  c0.2,0.1,0.5,0.2,0.9,0.3l0.9,0.1c1.4,0.1,2.6-0.1,3.5-0.7c0.9-0.6,1.6-1.5,2.1-2.8l0.4,0l-1.1,4.7l-13-1.2l0-0.4l0.5,0  c0.4,0,0.8,0,1.1-0.1c0.2-0.1,0.4-0.3,0.5-0.5c0.1-0.2,0.2-0.6,0.2-1.4l0.9-9.9c0.1-0.7,0.1-1.1,0.1-1.3c0-0.2-0.2-0.5-0.4-0.6  c-0.3-0.2-0.6-0.4-1.1-0.4l-0.5,0l0-0.4l12.6,1.1l-0.4,4.5l-0.4,0c-0.1-1.1-0.3-1.9-0.7-2.4c-0.3-0.5-0.9-0.9-1.6-1.2  c-0.4-0.2-1.2-0.3-2.3-0.4L96.7,209L96.7,209z M78.6,210.3l-4.4-3.1l-1.4,0.8c-0.5,0.3-0.8,0.6-1,0.8c-0.2,0.3-0.3,0.7-0.1,1.1  c0.1,0.2,0.4,0.6,1.1,1.1l-0.2,0.3l-4.1-2.9l0.2-0.3c0.5,0.2,1,0.3,1.5,0.2c0.5-0.1,1.3-0.5,2.4-1.1l11.4-6.7l0.2,0.1l-2.7,13.3  c-0.3,1.3-0.3,2.1-0.2,2.6c0.1,0.3,0.3,0.6,0.6,0.9l-0.2,0.3l-6-4.2l0.2-0.3l0.2,0.2c0.5,0.3,0.9,0.5,1.2,0.5c0.2,0,0.4-0.1,0.5-0.3  c0.1-0.1,0.1-0.2,0.2-0.4c0.1-0.3,0.2-0.6,0.2-0.9L78.6,210.3L78.6,210.3z M78.8,209.4l1.2-5.6l-4.9,2.9  C75.1,206.8,78.8,209.4,78.8,209.4z M117.3,206l1.9,4.7l-0.4,0.2c-0.7-1.1-1.5-1.9-2.6-2.3c-1.1-0.4-2.1-0.4-3-0.1  c-0.7,0.3-1.2,0.7-1.5,1.2c-0.3,0.5-0.3,1.1-0.1,1.5c0.1,0.3,0.3,0.6,0.5,0.8c0.3,0.2,0.8,0.4,1.3,0.6c0.4,0.1,1.3,0.2,2.7,0.3  c2,0.2,3.4,0.5,4.2,1c0.8,0.5,1.5,1.2,1.8,2.1c0.5,1.2,0.4,2.4-0.2,3.6c-0.6,1.2-1.6,2.1-3,2.6c-0.4,0.2-0.9,0.3-1.3,0.4  c-0.4,0.1-1,0.1-1.7,0.1c-0.4,0-0.7,0-0.9,0.1c-0.2,0.1-0.4,0.2-0.5,0.4c-0.1,0.2-0.2,0.5-0.2,0.8l-0.4,0.1l-2.1-5.3l0.4-0.1  c0.9,1.4,1.9,2.3,3.1,2.7c1.2,0.5,2.3,0.5,3.3,0.1c0.8-0.3,1.3-0.8,1.6-1.4c0.3-0.6,0.3-1.2,0.1-1.7c-0.1-0.3-0.4-0.6-0.6-0.9  c-0.3-0.3-0.7-0.5-1.2-0.6c-0.5-0.1-1.3-0.3-2.3-0.4c-1.5-0.1-2.7-0.3-3.4-0.5c-0.7-0.2-1.4-0.6-1.9-1c-0.5-0.4-0.9-1-1.2-1.6  c-0.4-1.1-0.4-2.2,0.1-3.4c0.5-1.1,1.4-1.9,2.7-2.4c0.4-0.2,0.9-0.3,1.4-0.3c0.4,0,0.8,0,1.4,0c0.6,0,0.9,0,1.1,0  c0.2-0.1,0.3-0.2,0.4-0.3c0.1-0.2,0.1-0.5,0-0.9L117.3,206L117.3,206z M143.4,189.8l4.2,0.8c0.8,0.2,1.3,0.2,1.5,0.1  c0.2-0.1,0.5-0.2,0.6-0.4c0.2-0.2,0.3-0.7,0.5-1.4l0.4,0.1l-1.4,7.6l-0.4-0.1c0.1-0.7,0.2-1.2,0.1-1.4c-0.1-0.2-0.2-0.5-0.4-0.6  c-0.2-0.1-0.7-0.3-1.5-0.4l-9.6-1.8c-0.8-0.2-1.3-0.2-1.5-0.1c-0.2,0.1-0.5,0.2-0.6,0.4c-0.2,0.2-0.3,0.7-0.5,1.4l-0.4-0.1l1.3-6.9  c0.3-1.8,0.7-3.1,1.1-3.9c0.4-0.8,1-1.4,1.8-1.8c0.8-0.4,1.6-0.5,2.5-0.3c1.1,0.2,1.9,0.8,2.5,1.7c0.4,0.6,0.6,1.4,0.6,2.3l5.7-2.6  c0.7-0.3,1.2-0.6,1.4-0.8c0.3-0.3,0.5-0.6,0.6-1l0.4,0.1l-0.9,4.7l-7.7,3.5L143.4,189.8L143.4,189.8z M136.1,188.4l6.5,1.2l0.1-0.6  c0.2-1,0.2-1.8,0.2-2.3c-0.1-0.5-0.4-1-0.8-1.4c-0.4-0.4-1-0.6-1.8-0.8c-1.1-0.2-2-0.1-2.7,0.3c-0.6,0.4-1.1,1.2-1.3,2.4  L136.1,188.4z M135.8,206.5l-3.5,4l0.7,1.4c0.2,0.5,0.5,0.8,0.7,1c0.3,0.3,0.7,0.4,1,0.2c0.2-0.1,0.6-0.4,1.2-0.9l0.3,0.3l-3.3,3.8  l-0.3-0.3c0.3-0.5,0.4-0.9,0.4-1.5c0-0.5-0.3-1.3-0.9-2.5l-5.5-12l0.1-0.2l12.9,4c1.2,0.4,2.1,0.5,2.5,0.5c0.3,0,0.7-0.2,1-0.5  l0.3,0.3l-4.8,5.5l-0.3-0.3l0.2-0.2c0.4-0.4,0.6-0.8,0.6-1.1c0-0.2-0.1-0.4-0.2-0.5c-0.1-0.1-0.2-0.2-0.4-0.2  c-0.1,0-0.3-0.1-0.9-0.3L135.8,206.5L135.8,206.5z M134.9,206.2l-5.4-1.7l2.4,5.2L134.9,206.2z" fill="#66376D"  /></svg>