<svg viewBox="0 0 497.5 283.5" role="img" aria-labelledby="choices--title" xmlns="http://www.w3.org/2000/svg" xmlns:xlink="http://www.w3.org/1999/xlink"><title id="choices--title">Birthplace Choices</title><path d="M0,0h497.5v283.5H0V0z" fill="#3272AF"  /><g><path d="M103.5,237.4c-4,1.9-11.6,3.8-21.5,3.8c-22.2,0-40-14.4-40-43.5c0-27.8,17.3-45.1,42.5-45.1   c10.3,0,16.3,2.1,19,3.5L101,164c-4-1.9-9.5-3.5-16.3-3.5c-19.6,0-32.9,13.1-32.9,36.9c0,22.6,12.2,36,32.3,36   c6.6,0,13-1.5,17.3-3.5C101.5,229.8,103.5,237.4,103.5,237.4z M170.7,202.5c0-20.9-13-25.5-20.6-25.5c-7.6,0-15,4.2-19.1,11h-0.2   v-38.3h-9.4V240h9.4v-37.9c0-11.3,9-17.3,16.3-17.3c10.6,0,14.2,8.7,14.2,18.8V240h9.4V202.5z M217.7,176.9   c-15.7,0-28.8,11.6-28.8,32.7c0,19.9,12.2,31.8,28,31.8c13.7,0,28.8-9.7,28.8-32.7C245.7,189.8,234.6,176.9,217.7,176.9z    M217.1,234c-11.1,0-18.7-11.1-18.7-24.8c0-11.9,5.5-25,18.9-25c13.5,0,18.8,13.8,18.8,24.8C236.1,222.9,228.3,234,217.1,234z    M264.5,178.4h9.4V240h-9.4V178.4z M337,230.5c-3.1,1.4-7.2,3.1-13.3,3.1c-12.4,0-21.4-9.4-21.4-24.3c0-13.2,7.5-24.6,21.7-24.6   c6,0,10.1,1.7,12.7,3.2l2.4-7.6c-2.4-1.2-7.9-3.3-14.8-3.3c-19,0-31.5,13.9-31.5,32.9c0,18.9,11.6,31.4,29.3,31.4   c7.9,0,14-2.1,16.7-3.5C338.7,237.8,337,230.5,337,230.5z M394,203.3h-32.7c0.9-8.5,5.9-19.2,17.2-19.2   C390.6,184,394.1,194.9,394,203.3 M403.2,205.1c0-10.7-4.9-28.1-23.9-28.1c-16.6,0-27.5,13.9-27.5,33.2c0,18.4,10.7,31.1,28.7,31.1   c9.4,0,15.8-2.1,19.3-3.8l-1.8-6.8c-3.8,1.6-8.5,3.2-16.2,3.2c-11.1,0-20.8-6.4-20.9-23.5H403C403.2,208.5,403.2,206.8,403.2,205.1    M453.3,180.7c-3.3-2-8.3-3.7-14.1-3.7c-12.4,0-20.1,7.9-20.1,17.5c0,7.5,5.3,13.2,15.7,17.4c8.1,3.3,11.4,6.4,11.4,12.2   c0,5.5-4.1,9.9-12.3,9.9c-5.3,0-10.6-2.3-13.9-4.2l-2.6,7.2c4.2,2.5,10.1,4.2,16.2,4.2c13.5,0,21.8-7.2,21.8-18.2   c0-9.3-5.8-14.5-15.7-18.5c-7.9-3.4-11.4-5.9-11.4-11.2c0-5,3.6-9.2,10.4-9.2c5.5,0,9.7,2.1,12,3.6L453.3,180.7z M455.4,89.7   c0-10.6-4.3-23.9-19.6-23.9c-12.6,0-22.6,10-22.6,27.8c0,15,9,25.8,23.4,25.8c9.3,0,14.5-2.6,15.9-3.5l-1.1-2.6   c-2.8,1.3-6.6,3.3-14.3,3.3c-12.9,0-20.5-9.2-20.4-25.3h38.7C455.4,90.8,455.4,90.3,455.4,89.7L455.4,89.7z M417,88.3   c1-8.5,6.4-19.9,18.4-19.9c13.8,0,16.3,14.1,16.2,19.9H417z M401.4,113.3c-2.8,1.2-6.7,3.4-13.2,3.4c-12.5,0-21.4-9.7-21.4-23.8   c0-12.7,7.9-24.3,22.4-24.3c5.8,0,9.8,2,12.2,3.5l1.5-2.5c-3.1-2.5-9.3-3.7-13.6-3.7c-14.8,0-26,10.8-26,27.4   c0,15.3,9.7,26.2,24.3,26.2c7.7,0,13-2.6,15.2-3.6L401.4,113.3L401.4,113.3z M348.4,106.2V85.8c0-8.7-2.4-20-16.9-20   c-3.9,0-9.5,1.2-14.3,4.5l1.3,2.5c3.7-2.7,8.3-4.1,12.7-4.1c13.8,0,13.8,12.6,13.8,18.4c-21.3-0.3-31.5,7-31.5,18.6   c0,6.6,4.5,13.8,14.9,13.8c8.4,0,14.2-5,16.6-8.9h0.2l0.8,7.8h3.2C348.5,114.2,348.4,110.2,348.4,106.2z M344.9,102.4   c0,4.2-4.5,14.3-16.7,14.3c-5.7,0-11.2-3.6-11.2-11.6c0-13.7,17.9-15.3,27.9-15.1V102.4z M295,42.1h3.4v76.3H295V42.1z M257.2,65.8   c-7.5,0-15.2,3.8-19.3,11.4h-0.2l-0.3-10.3H234c0.3,4.9,0.4,9.9,0.4,16.3v56.4h3.4v-30.3h0.2c3.7,6.4,10.8,10.2,18.1,10.2   c12.3,0,23.4-9.1,23.4-27.7C279.4,76.9,270.7,65.8,257.2,65.8z M256.2,116.7c-9,0-18.5-7.6-18.5-18.6V88c0-8.2,7.2-19.5,19.2-19.5   C268.8,68.6,276,79,276,92C276,106.1,268.7,116.7,256.2,116.7z M220.6,87.2c0-19.8-13.1-21.4-17.7-21.4c-4.3,0-12.8,1.7-17.8,10.8   h-0.2V42.1h-3.4v76.3h3.4V86.9c0-10,8.6-18.2,17.5-18.2c11.2,0,15,9.4,15,18.9v30.8h3.4V87.2z M149.2,66.9h-8.9v3h8.9v34.2   c0,6,0.8,15.2,11.2,15.2c3,0,5-0.6,6.6-1.2l-0.8-2.5c-1.2,0.5-3,1-5.7,1c-5.6,0-8.1-4.8-8.1-11.3V69.9h15.2v-3h-15.2V56l-3.4,1.5   C149.2,57.5,149.2,66.9,149.2,66.9z M134.9,66.1c-0.7-0.2-1.2-0.3-1.9-0.3c-7.3,0-12.6,5.6-14.7,11.9H118l-0.2-10.7h-3.2   c0.3,5,0.4,10.5,0.4,15.2v36.3h3.4V89.6c0-11.5,5.9-20.7,14.3-20.7c0.9,0,1.3,0.1,2.2,0.2V66.1z M96.5,66.9h3.4v51.4h-3.4V66.9z    M101.6,52.2c0-2.1-1.3-3.8-3.4-3.8c-2,0-3.5,1.8-3.5,3.8c0,2,1.3,3.8,3.4,3.8C100.2,56,101.6,54.5,101.6,52.2 M65.4,79.8v-0.4   C72.5,77,78,70.8,78,63.3c0-8.7-4.2-17.9-22.4-17.9c-5,0-9.6,0.7-13.5,1.6v71.3c2.7,0.2,6.6,0.6,11.7,0.6c9.7,0,17.4-1.9,22.1-7   c2.7-2.8,5.1-7.1,5.1-13.5C80.9,86,71.1,81,65.4,79.8z M45.4,49.2c1.7-0.4,4.5-1,9.5-1c11.3,0,19.6,4.1,19.6,15v0.1   c0,8.3-6.9,15.1-17.6,15.1H45.4C45.4,78.4,45.4,49.2,45.4,49.2z M54.7,116.1c-3.9,0-6.8-0.1-9.3-0.8V81.1h9.7   c11.4,0,22.3,5,22.3,17.5C77.3,111.6,66.3,116.1,54.7,116.1z M275,140.9v29.3l14.7-14.7L275,140.9z M263.4,140.9l-14.7,14.7   l14.7,14.7V140.9z" fill="#FFFFFF"  />
	
</g></svg>