<svg viewBox="0 0 968.9 283.5" role="img" aria-labelledby="e-freeze--title" xmlns="http://www.w3.org/2000/svg" xmlns:xlink="http://www.w3.org/1999/xlink"><title id="e-freeze--title">E-FREEZE</title><radialGradient id="SVGID_1_" cx="841.3592" cy="177.4668" r="67.8326" gradientTransform="matrix(1 0 0 -1 0 285.9996)" gradientUnits="userSpaceOnUse"><stop offset="0" stop-color="#FFFFFF" ></stop><stop offset="0.149" stop-color="#D9E7D9" ></stop><stop offset="0.573" stop-color="#6AA874" ></stop><stop offset="0.865" stop-color="#008740" ></stop><stop offset="1" stop-color="#007D32" ></stop>
	
	
	
	
	
</radialGradient><path d="M773.5,108.5c0,37.5,30.4,67.8,67.8,67.8c37.5,0,67.8-30.4,67.8-67.8c0-37.5-30.4-67.8-67.8-67.8  C803.9,40.7,773.5,71.1,773.5,108.5z" fill="url(#SVGID_1_)"  /><radialGradient id="SVGID_2_" cx="737.2784" cy="177.8952" r="67.8324" gradientTransform="matrix(1 0 0 -1 0 285.9996)" gradientUnits="userSpaceOnUse"><stop offset="0" stop-color="#FFFFFF" ></stop><stop offset="8.400000e-02" stop-color="#F5F9EC" ></stop><stop offset="0.343" stop-color="#D7E5AC" ></stop><stop offset="0.573" stop-color="#BDD573" ></stop><stop offset="0.766" stop-color="#A8C947" ></stop><stop offset="0.914" stop-color="#9AC32C" ></stop><stop offset="1" stop-color="#95C11F" ></stop>
	
	
	
	
	
	
	
</radialGradient><path d="M669.4,108.1c0,37.5,30.4,67.8,67.8,67.8c37.5,0,67.8-30.4,67.8-67.8c0-37.5-30.4-67.8-67.8-67.8  C699.8,40.3,669.4,70.6,669.4,108.1z" fill="url(#SVGID_2_)"  /><path d="M94.9,137.9c0,1.1-0.3,2.6-0.8,4.6c-0.6,2.5-1,4.1-1.1,4.6c-0.2,2.4-0.7,5.9-1.4,10.5  c-0.3,1.2-1.2,1.8-2.6,1.8c-0.7,0-1.9-0.1-3.8-0.4c-8.2-1.2-20.9-1.8-38-1.8c-4.9,0-12.2,0.1-22,0.4c-9.8,0.3-17.1,0.4-22,0.4  c-2.2,0-3.3-1-3.3-2.9c0-7.5,0.4-18.7,1.2-33.6c0.8-14.9,1.2-26.1,1.2-33.6c0-7.6-0.4-21.7-1.2-42.4c-0.1-5.3-0.5-13.3-1.1-23.9  l-0.1-1.4c-0.1-1.5,0.8-2.3,2.6-2.3c4.7,0,11.6,0.1,21,0.4c9.3,0.3,16.3,0.4,21,0.4c4.5,0,11.1-0.1,20-0.4c8.9-0.3,15.6-0.4,20-0.4  c3.1,0,4.8,1,5.1,2.9c1.4,8.8,2.1,14.2,2.1,16.4c0,1.5-0.7,2.3-2.2,2.3c-5.7,0-14.2-0.3-25.7-1c-11.5-0.6-20.1-0.9-25.9-0.9  c-5.5,0-8.9,0.7-10.3,2.2c-1.4,1.5-2.1,5.1-2.1,10.9v14.9c0,4.1,0.1,6.4,0.3,7.1c0.6,2.1,2.3,3.1,5.2,3.1c0.8,0,1.9,0,3.4-0.1h3.4  c13,0,24.8-0.2,35.1-0.7c4.1-0.1,8.9-0.5,14.4-1c1.4-0.1,2.1,0.5,2.1,1.8c0,2.1-0.3,5.4-0.7,9.8c-0.5,4.4-0.8,7.7-0.8,9.9  c0,1.2-1,1.8-3,1.8c-0.8,0-3.8-0.2-8.9-0.7C72.3,96,64,95.8,50.9,95.8c-11,0-17.9,0.1-20.9,0.4c-2.7,0.2-4.2,1.6-4.6,4.2  c0.1-0.5,0.1,2.1,0.1,7.7v14.8c0,6.9,1.1,11.2,3.2,13c1.7,1.4,5.8,2.1,12.5,2.1l11-0.1c4.7,0,17.7-0.8,39.2-2.4l1.5-0.1  C94.3,135.2,94.9,136.1,94.9,137.9z M178.6,84.3l-0.1,0.9c-0.6,2.3-1.4,5.8-2.4,10.3c-0.2,2.2-0.6,5.4-1.3,9.6c-0.1,0.6-2,1-5.7,1.2  c-2.5,0.1-6.1,0.1-10.8,0c-6-0.1-8.8-0.2-8.4-0.2c-4.1,0-10.2,0.4-18.4,1.1c-8.1,0.8-14.2,1.1-18.3,1.1c-1.8,0-2.7-1.1-2.7-3.3  c0-3.1,1.9-9.4,5.8-19.1c0.3-0.9,1.3-1.4,2.8-1.4c2.3,0,5.8,0.1,10.3,0.2c4.5,0.2,8,0.3,10.3,0.3c4.1,0,10.2-0.4,18.4-1.3  c8.2-0.8,14.3-1.2,18.4-1.2C178,82.6,178.7,83.2,178.6,84.3L178.6,84.3z" fill="#95C11F"  /><path d="M292,39.4c0,1.3-0.7,1.9-2.1,1.9c-5.2,0-13.7-0.3-25.6-0.9c-11-0.5-19.6-0.7-25.6-0.6l-7.3,0.1  c-4.7,0.1-7.1,0.2-7.4,0.3c-1.3,0.5-2,2.6-2,6.3v24.1c0,4.5,1,6.8,2.9,6.8c6.5,0,16.2-0.3,29.2-0.9c13-0.6,22.7-0.9,29.2-0.9  c1.4,0,2.1,0.5,2.1,1.6c0,1.1-0.1,2.8-0.2,5c-0.2,2.2-0.3,3.9-0.3,5c0,1.2,0.1,3,0.2,5.4c0.1,2.4,0.2,4.2,0.2,5.4  c0,0.8-0.7,1.2-2.1,1.2c-4.6,0-11.6-0.1-20.9-0.4c-9.4-0.3-16.4-0.4-21-0.4c-8.6,0-13.4,0.1-14.6,0.2c-3,0.3-4.5,1.6-4.5,3.7  c0,6,0.2,15,0.5,27c0.3,12,0.5,21,0.5,27c0,2-0.8,3-2.4,3c-1.3,0-3.3-0.2-5.9-0.4c-2.6-0.3-4.6-0.4-6-0.4c-1.1,0-2.9,0.1-5.2,0.3  c-2.3,0.2-4.1,0.3-5.2,0.3c-1.7,0-2.5-0.7-2.5-2.2c0-7.4,0.3-18.5,0.9-33.3c0.6-14.8,0.9-26,0.9-33.3c0-6.9-0.7-29.2-2.1-66.9v-1.3  c-0.1-1.4,0.8-2.2,2.5-2.4c0.5,0,4.8,0.1,12.7,0.3c10.4,0.2,20.1,0.2,29.1,0.1c12-0.1,27.4-0.8,46-2c2.5-0.2,4,0.9,4.3,3.3  c-0.1,1.8,0.1,4.5,0.4,8.2C291.6,34.6,292,37.9,292,39.4L292,39.4z M367.1,65.4c0,7.3-0.5,14-1.5,20c-0.2,1.5-0.9,2.3-2,2.3  c-1.4,0-3.5-0.1-6.3-0.5c-2.8-0.3-5-0.4-6.4-0.4c-8.4,0-13.7,2.4-16.1,7.1c-1.4,2.9-2.1,8.8-2.1,17.9v11c0,3.7,0.1,9.4,0.5,17  c0.3,7.6,0.4,13.2,0.4,17c0,1.8-0.8,2.7-2.3,2.7c-2.1,0-5.2,0-9.4-0.1c-4.2-0.1-7.3-0.1-9.4-0.1c-1.5,0-2.3-0.8-2.3-2.5  c0-5.4,0.1-13.5,0.2-24.4c0.2-10.8,0.3-19,0.3-24.5c0-16.4-1.5-29.7-4.6-39.6c-0.1-0.5-0.2-0.9-0.2-1.2c0-0.8,0.4-1.4,1.3-1.7  c2.5-0.3,5.9-0.7,10.4-1.2c7.2-1.3,10.5-2,10-2c1.1,0,1.8,2,2.1,5.9c0.3,3.9,0.9,5.9,1.8,5.9c0.1,0,0.3-0.1,0.5-0.2l8.2-5.2  c3-1.8,6.1-3.1,9.2-4c2.6-0.8,5.9-1.2,10-1.2C364.5,63.3,367.1,64,367.1,65.4L367.1,65.4z M467.8,103.2c0,4.9-2.1,8.2-6.4,9.9  c-2.9,1.1-23.5,3-61.8,5.9c0.9,5.9,4.1,10.8,9.7,15c5.3,3.9,11,5.9,17.2,5.9c10.5,0,20.2-3.4,29-10.2l3.2-2.6c0.5,0,0.9,0.1,1,0.2  c0.2,0.1,1.4,2.4,3.7,6.9c2.3,4.5,3.5,6.9,3.5,7.2c0,0.4-0.5,1.2-1.6,2.3c-9.8,10.4-22.3,15.6-37.6,15.6c-15.4,0-27.8-4.6-36.9-13.8  c-9.2-9.2-13.8-21.5-13.8-36.9c0-13.7,4.4-25.7,13.2-35.8c9.2-10.6,20.6-15.9,34-15.9c12.5,0,23,4.6,31.3,13.8  C463.7,79.6,467.8,90.4,467.8,103.2L467.8,103.2z M444,97.1c0-5.5-2.2-10.4-6.5-14.7c-4.4-4.3-9.3-6.4-14.7-6.4  c-6.1,0-11.6,2.5-16.3,7.4c-4.8,4.9-7.1,10.4-7.1,16.6c0,1.4,1.2,2.1,3.6,2.1c9.9,0,21.6-1,35.3-3C442.1,98.6,444,97.9,444,97.1z   M571.4,103.2c0,4.9-2.1,8.2-6.4,9.9c-2.9,1.1-23.5,3-61.8,5.9c0.9,5.9,4.1,10.8,9.7,15c5.3,3.9,11,5.9,17.2,5.9  c10.5,0,20.2-3.4,29-10.2c1.1-0.9,2.1-1.7,3.2-2.6c0.5,0,0.9,0.1,1,0.2c0.2,0.1,1.4,2.4,3.7,6.9c2.3,4.5,3.5,6.9,3.5,7.2  c0,0.4-0.5,1.2-1.6,2.3c-9.8,10.4-22.3,15.6-37.6,15.6c-15.4,0-27.8-4.6-36.9-13.8c-9.2-9.2-13.8-21.5-13.8-36.9  c0-13.7,4.4-25.7,13.2-35.8c9.2-10.6,20.6-15.9,34-15.9c12.5,0,23,4.6,31.3,13.8C567.3,79.6,571.4,90.4,571.4,103.2L571.4,103.2z   M547.7,97.1c0-5.5-2.2-10.4-6.5-14.7c-4.4-4.3-9.3-6.4-14.7-6.4c-6.1,0-11.6,2.5-16.3,7.4c-4.8,4.9-7.1,10.4-7.1,16.6  c0,1.4,1.2,2.1,3.6,2.1c9.8,0,21.6-1,35.3-3C545.8,98.6,547.7,97.9,547.7,97.1L547.7,97.1z M663.1,146.4c-1.1,4.7-1.7,7.7-1.8,8.8  c-0.3,2.3-0.9,3.5-1.8,3.5c-2.3,0-5.5-0.1-9.4-0.4c-4.5-0.3-7.6-0.5-9.3-0.6c-4.5-0.1-10.8-0.2-19.2-0.2c-6.5,0-13.6,0.3-21.5,0.8  c-9.9,0.7-14.1,1-12.7,1c-1.4,0-2.3-0.6-2.7-1.8c-0.9-3.2-1.4-6.9-1.4-11.2c0-0.6,0-1.4,0.1-2.5c0.1-0.8,0.1-1.6,0.1-2.4  c0-0.9,0.7-2,2.1-3.3c1.4-1.3,8.5-8.8,21.3-22.6c6.5-6.7,15.6-17.1,27.5-31h-44c-1.1,0-1.6-0.7-1.6-2.1c0-1.9,0.4-4.8,1.3-8.6  c0.8-3.8,1.2-6.7,1.2-8.5c0-0.8,0.9-1.2,2.8-1.2c3.7,0,9.3,0.2,16.7,0.5c7.4,0.3,12.9,0.5,16.7,0.5c18.2,0,28.5,0.1,30.8,0.4  c1.7,0.2,2.5,0.9,2.5,2.1c0,10-0.4,15.7-1.2,17c-0.7,0.9-6.4,7.5-17.3,19.7c-7,7.9-17.5,19.7-31.6,35.3c22.2-0.6,39.3-0.9,51.5-0.9  C663.8,138.5,664.1,142,663.1,146.4L663.1,146.4z M779.2,103.2c0,4.9-2.1,8.2-6.4,9.9c-2.9,1.1-23.5,3-61.8,5.9  c0.9,5.9,4.1,10.8,9.7,15c5.3,3.9,11.1,5.9,17.2,5.9c10.5,0,20.2-3.4,29-10.2c1.1-0.9,2.1-1.7,3.2-2.6c0.5,0,0.9,0.1,1.1,0.2  c0.2,0.1,1.4,2.4,3.7,6.9c2.3,4.5,3.5,6.9,3.5,7.2c0,0.4-0.5,1.2-1.6,2.3c-9.8,10.4-22.3,15.6-37.6,15.6c-15.4,0-27.8-4.6-36.9-13.8  c-9.2-9.2-13.8-21.5-13.8-36.9c0-13.7,4.4-25.7,13.2-35.8c9.3-10.6,20.6-15.9,34-15.9c12.5,0,23,4.6,31.3,13.8  C775.1,79.6,779.2,90.4,779.2,103.2L779.2,103.2z M755.4,97.1c0-5.5-2.2-10.4-6.5-14.7c-4.4-4.3-9.3-6.4-14.7-6.4  c-6.1,0-11.6,2.5-16.3,7.4c-4.8,4.9-7.1,10.4-7.1,16.6c0,1.4,1.2,2.1,3.6,2.1c9.9,0,21.6-1,35.3-3C753.5,98.6,755.4,97.9,755.4,97.1  L755.4,97.1z" fill="#007D32"  /><path d="M811.6,241.2c79.7,0,145.5-59.3,155.9-136.2c0.9,6.9,1.5,14,1.5,21.2c0,86.9-70.4,157.3-157.3,157.3  c-86.9,0-157.3-70.4-157.3-157.3c0-7.2,0.5-14.2,1.5-21.2C666.1,181.9,731.9,241.2,811.6,241.2z" fill="#007D32"  /><path d="M936.2,0c15.9,24.2,24.4,52.5,24.4,82.1c0,40.1-15.6,77.9-44,106.2c-28.4,28.4-66.1,44-106.2,44  c-29.6,0-58-8.5-82.2-24.4c16.8,5.6,34.5,8.6,52.4,8.6c43.9,0,85.1-17.1,116.2-48.1C941.6,123.5,955.4,57.7,936.2,0" fill="#95C11F"  /></svg>