<svg viewBox="0 0 570 283.5" role="img" aria-labelledby="esmie--title" xmlns="http://www.w3.org/2000/svg" xmlns:xlink="http://www.w3.org/1999/xlink"><title id="esmie--title">EMSIE - Enhance the Safety of Midwifery-led Birth Enquiry</title><g><path d="M280.1,40.2h-37.6v20.3h34.6c2.6,0,4.5,0.6,5.7,1.7c1.3,1.1,1.9,2.7,1.9,4.5c0,1.9-0.6,3.4-1.9,4.6   c-1.2,1.2-3.2,1.8-5.7,1.8h-34.7v23.5h38.9c2.6,0,4.6,0.6,5.9,1.8c1.3,1.2,2,2.8,2,4.9c0,2-0.7,3.5-2,4.8c-1.3,1.2-3.3,1.8-5.9,1.8   h-45.4c-3.6,0-6.3-0.8-7.8-2.4c-1.6-1.6-2.4-4.2-2.4-7.8v-62c0-2.4,0.4-4.4,1.1-5.9c0.7-1.5,1.8-2.6,3.3-3.3c1.5-0.7,3.5-1,5.8-1   h44.2c2.7,0,4.6,0.6,5.9,1.8c1.3,1.2,1.9,2.7,1.9,4.6c0,2-0.6,3.5-1.9,4.7C284.7,39.6,282.8,40.2,280.1,40.2L280.1,40.2z    M365.2,85.1c0,5-1.3,9.5-3.9,13.4c-2.6,4-6.3,7.1-11.3,9.3c-5,2.3-10.8,3.4-17.6,3.4c-8.1,0-14.9-1.5-20.1-4.6   c-3.8-2.2-6.8-5.2-9.1-8.9c-2.3-3.7-3.5-7.3-3.5-10.8c0-2,0.7-3.8,2.1-5.2c1.4-1.4,3.2-2.2,5.4-2.2c1.8,0,3.3,0.6,4.5,1.7   c1.2,1.1,2.3,2.8,3.1,5c1,2.6,2.2,4.8,3.4,6.6c1.2,1.8,2.9,3.2,5.1,4.4c2.2,1.1,5.1,1.7,8.7,1.7c5,0,9-1.2,12.1-3.5   c3.1-2.3,4.6-5.2,4.6-8.6c0-2.7-0.8-5-2.5-6.7c-1.7-1.7-3.8-3-6.5-3.9c-2.6-0.9-6.2-1.9-10.6-2.9c-5.9-1.4-10.9-3-14.9-4.9   c-4-1.9-7.2-4.4-9.5-7.6c-2.3-3.2-3.5-7.2-3.5-12c0-4.5,1.2-8.6,3.7-12.1c2.5-3.5,6.1-6.2,10.7-8.1c4.7-1.9,10.2-2.8,16.5-2.8   c5.1,0,9.4,0.6,13.1,1.9s6.8,2.9,9.2,5c2.4,2.1,4.2,4.3,5.3,6.6c1.1,2.3,1.7,4.5,1.7,6.7c0,2-0.7,3.8-2.1,5.4   c-1.4,1.6-3.2,2.4-5.3,2.4c-1.9,0-3.4-0.5-4.4-1.4c-1-1-2.1-2.5-3.2-4.7c-1.5-3.1-3.3-5.5-5.4-7.3c-2.1-1.7-5.5-2.6-10.1-2.6   c-4.3,0-7.8,0.9-10.4,2.8c-2.6,1.9-4,4.2-4,6.8c0,1.7,0.5,3.1,1.4,4.3c0.9,1.2,2.1,2.2,3.7,3.1c1.6,0.9,3.2,1.5,4.8,2   c1.6,0.5,4.3,1.2,8,2.1c4.7,1.1,8.9,2.3,12.6,3.6c3.8,1.3,7,2.9,9.6,4.8c2.6,1.9,4.7,4.2,6.2,7.1C364.5,77.4,365.2,80.9,365.2,85.1   L365.2,85.1z M407.2,97.4L394,44.8v56.9c0,3.2-0.7,5.5-2.1,7.1c-1.4,1.6-3.3,2.4-5.6,2.4c-2.3,0-4.1-0.8-5.5-2.3   c-1.4-1.6-2.1-3.9-2.1-7.1V36.5c0-3.6,0.9-6,2.8-7.3s4.4-1.9,7.6-1.9h5.2c3.1,0,5.4,0.3,6.8,0.8c1.4,0.6,2.4,1.6,3.1,3   c0.7,1.5,1.4,3.8,2.3,7.1l12,45.2l12-45.2c0.9-3.3,1.6-5.7,2.3-7.1c0.7-1.5,1.7-2.5,3.1-3c1.4-0.6,3.7-0.8,6.8-0.8h5.2   c3.2,0,5.7,0.6,7.6,1.9s2.8,3.7,2.8,7.3v65.3c0,3.2-0.7,5.5-2.1,7.1c-1.4,1.6-3.3,2.4-5.7,2.4c-2.2,0-4-0.8-5.5-2.4   c-1.4-1.6-2.1-3.9-2.1-7.1v-57l-13.2,52.6c-0.9,3.4-1.6,5.9-2.1,7.5c-0.5,1.6-1.5,3-3,4.4c-1.5,1.3-3.5,2-6.1,2c-2,0-3.6-0.4-5-1.3   c-1.4-0.8-2.4-1.9-3.2-3.2c-0.8-1.3-1.3-2.8-1.8-4.4C408.1,100.8,407.7,99.1,407.2,97.4L407.2,97.4z M482,41.6c-2.1,0-4-0.7-5.5-2   c-1.5-1.3-2.3-3.2-2.3-5.6c0-2.2,0.8-4,2.3-5.4c1.6-1.4,3.4-2.1,5.4-2.1s3.8,0.6,5.3,1.9s2.3,3.1,2.3,5.6c0,2.4-0.8,4.2-2.3,5.5   C485.8,41,484,41.6,482,41.6L482,41.6z M489.6,57.5v44.4c0,3.1-0.7,5.4-2.2,7c-1.5,1.6-3.3,2.4-5.6,2.4c-2.3,0-4.1-0.8-5.5-2.4   c-1.4-1.6-2.1-3.9-2.1-6.9V57.9c0-3,0.7-5.3,2.1-6.9c1.4-1.5,3.2-2.3,5.5-2.3c2.3,0,4.1,0.8,5.6,2.3   C488.8,52.6,489.6,54.8,489.6,57.5z M560.9,40.2h-37.6v20.3h34.6c2.6,0,4.5,0.6,5.7,1.7c1.3,1.1,1.9,2.7,1.9,4.5   c0,1.9-0.6,3.4-1.9,4.6c-1.2,1.2-3.2,1.8-5.7,1.8h-34.7v23.5h38.9c2.6,0,4.6,0.6,5.9,1.8c1.3,1.2,2,2.8,2,4.9c0,2-0.7,3.5-2,4.8   c-1.3,1.2-3.3,1.8-5.9,1.8h-45.4c-3.6,0-6.3-0.8-7.8-2.4c-1.6-1.6-2.4-4.2-2.4-7.8v-62c0-2.4,0.4-4.4,1.1-5.9   c0.7-1.5,1.8-2.6,3.3-3.3c1.5-0.7,3.5-1,5.8-1h44.2c2.7,0,4.6,0.6,5.9,1.8c1.3,1.2,1.9,2.7,1.9,4.6c0,2-0.6,3.5-1.9,4.7   C565.5,39.6,563.5,40.2,560.9,40.2L560.9,40.2z" fill="#009490"  /><g><path d="M313,132.5h-8.6v4.6h7.9c0.6,0,1,0.1,1.3,0.4c0.3,0.3,0.4,0.6,0.4,1s-0.1,0.8-0.4,1    c-0.3,0.3-0.7,0.4-1.3,0.4h-7.9v5.4h8.9c0.6,0,1.1,0.1,1.4,0.4c0.3,0.3,0.5,0.6,0.5,1.1c0,0.4-0.2,0.8-0.5,1.1    c-0.3,0.3-0.8,0.4-1.4,0.4h-10.4c-0.8,0-1.4-0.2-1.8-0.6c-0.4-0.4-0.5-1-0.5-1.8v-14c0-0.5,0.1-1,0.2-1.3c0.2-0.3,0.4-0.6,0.8-0.8    c0.3-0.2,0.8-0.2,1.3-0.2H313c0.6,0,1.1,0.1,1.4,0.4c0.3,0.3,0.4,0.6,0.4,1.1c0,0.4-0.1,0.8-0.4,1.1    C314,132.3,313.6,132.5,313,132.5L313,132.5z M321,136.4v0.4c0.6-0.8,1.3-1.4,2-1.8c0.7-0.4,1.6-0.6,2.5-0.6    c0.9,0,1.7,0.2,2.5,0.6c0.7,0.4,1.3,1,1.6,1.7c0.2,0.4,0.4,0.9,0.4,1.4c0.1,0.5,0.1,1.1,0.1,1.9v6.5c0,0.7-0.2,1.2-0.5,1.6    c-0.3,0.4-0.7,0.5-1.3,0.5c-0.5,0-0.9-0.2-1.3-0.6c-0.3-0.4-0.5-0.9-0.5-1.6v-5.8c0-1.2-0.2-2-0.5-2.6c-0.3-0.6-1-0.9-1.9-0.9    c-0.6,0-1.2,0.2-1.7,0.6c-0.5,0.4-0.9,0.9-1.1,1.5c-0.2,0.5-0.3,1.5-0.3,2.9v4.4c0,0.7-0.2,1.2-0.5,1.6c-0.3,0.4-0.8,0.5-1.3,0.5    c-0.5,0-0.9-0.2-1.2-0.6c-0.3-0.4-0.5-0.9-0.5-1.6v-10.1c0-0.7,0.1-1.2,0.4-1.5c0.3-0.3,0.7-0.5,1.2-0.5c0.3,0,0.6,0.1,0.8,0.2    c0.2,0.1,0.4,0.4,0.6,0.7C321,135.6,321,135.9,321,136.4L321,136.4z M337.1,131.3v5.2c0.4-0.5,0.9-0.9,1.3-1.2s0.9-0.5,1.4-0.7    c0.5-0.1,1.1-0.2,1.7-0.2c0.9,0,1.7,0.2,2.4,0.6c0.7,0.4,1.2,0.9,1.6,1.6c0.2,0.4,0.4,0.9,0.5,1.4c0.1,0.5,0.1,1.1,0.1,1.8v6.7    c0,0.7-0.2,1.2-0.5,1.6c-0.3,0.4-0.7,0.5-1.3,0.5c-1.2,0-1.7-0.7-1.7-2.1v-5.9c0-1.1-0.2-2-0.5-2.6c-0.3-0.6-1-0.9-1.9-0.9    c-0.6,0-1.2,0.2-1.7,0.5c-0.5,0.4-0.9,0.8-1.1,1.5c-0.2,0.5-0.3,1.4-0.3,2.8v4.6c0,0.7-0.2,1.2-0.5,1.6c-0.3,0.4-0.7,0.5-1.3,0.5    c-1.2,0-1.7-0.7-1.7-2.1v-15.2c0-0.7,0.2-1.2,0.5-1.6c0.3-0.4,0.7-0.5,1.3-0.5c0.6,0,1,0.2,1.3,0.5    C337,130,337.1,130.6,337.1,131.3L337.1,131.3z M358.4,146.7c-0.8,0.7-1.7,1.2-2.5,1.5s-1.7,0.5-2.7,0.5c-0.9,0-1.7-0.2-2.4-0.5    c-0.7-0.4-1.2-0.8-1.6-1.4s-0.6-1.3-0.6-2c0-1,0.3-1.8,0.9-2.5c0.6-0.7,1.4-1.1,2.5-1.4c0.2-0.1,0.8-0.2,1.7-0.3    c0.9-0.1,1.6-0.3,2.3-0.5c0.6-0.1,1.3-0.3,2-0.5c0-0.9-0.2-1.6-0.6-2c-0.3-0.4-1-0.6-2-0.6c-0.9,0-1.6,0.1-2,0.4    c-0.4,0.2-0.8,0.6-1.2,1.1c-0.3,0.5-0.5,0.8-0.7,1c-0.1,0.2-0.4,0.2-0.9,0.2c-0.4,0-0.7-0.1-1-0.4c-0.3-0.3-0.4-0.6-0.4-1    c0-0.6,0.2-1.2,0.7-1.8c0.4-0.6,1.1-1.1,2-1.4c0.9-0.4,2.1-0.6,3.5-0.6c1.5,0,2.8,0.2,3.6,0.5c0.9,0.4,1.5,0.9,1.9,1.7    c0.4,0.8,0.5,1.8,0.5,3.1v4c0,0.7,0.1,1.3,0.3,2.1c0.2,0.7,0.3,1.2,0.3,1.4c0,0.4-0.2,0.7-0.5,1c-0.3,0.3-0.7,0.4-1.1,0.4    s-0.7-0.2-1.1-0.5C359.1,147.8,358.8,147.3,358.4,146.7L358.4,146.7z M358.1,141.6c-0.5,0.2-1.3,0.4-2.2,0.6c-1,0.2-1.7,0.4-2,0.5    c-0.4,0.1-0.7,0.3-1.1,0.6c-0.3,0.3-0.5,0.7-0.5,1.2s0.2,1,0.6,1.4s0.9,0.6,1.6,0.6c0.7,0,1.3-0.2,1.9-0.5s1-0.7,1.3-1.2    c0.3-0.5,0.5-1.4,0.5-2.6L358.1,141.6L358.1,141.6z M368.3,136.4v0.4c0.6-0.8,1.3-1.4,2-1.8c0.7-0.4,1.6-0.6,2.5-0.6    c0.9,0,1.7,0.2,2.5,0.6c0.7,0.4,1.3,1,1.6,1.7c0.2,0.4,0.4,0.9,0.4,1.4c0.1,0.5,0.1,1.1,0.1,1.9v6.5c0,0.7-0.2,1.2-0.5,1.6    c-0.3,0.4-0.7,0.5-1.3,0.5c-0.5,0-0.9-0.2-1.3-0.6c-0.3-0.4-0.5-0.9-0.5-1.6v-5.8c0-1.2-0.2-2-0.5-2.6c-0.3-0.6-1-0.9-1.9-0.9    c-0.6,0-1.2,0.2-1.7,0.6c-0.5,0.4-0.9,0.9-1.1,1.5c-0.2,0.5-0.3,1.5-0.3,2.9v4.4c0,0.7-0.2,1.2-0.5,1.6c-0.3,0.4-0.8,0.5-1.3,0.5    c-0.5,0-0.9-0.2-1.2-0.6c-0.3-0.4-0.5-0.9-0.5-1.6v-10.1c0-0.7,0.1-1.2,0.4-1.5c0.3-0.3,0.7-0.5,1.2-0.5c0.3,0,0.6,0.1,0.8,0.2    c0.2,0.1,0.4,0.4,0.6,0.7C368.2,135.6,368.3,135.9,368.3,136.4L368.3,136.4z M393.6,144.3c0,0.4-0.1,0.9-0.4,1.4    c-0.3,0.5-0.7,1-1.2,1.4c-0.5,0.4-1.2,0.8-2,1.1s-1.7,0.4-2.7,0.4c-2.2,0-3.9-0.6-5.1-1.9s-1.8-3-1.8-5.1c0-1.4,0.3-2.7,0.8-3.8    c0.6-1.1,1.4-2,2.4-2.6c1.1-0.6,2.3-0.9,3.8-0.9c0.9,0,1.7,0.1,2.5,0.4c0.8,0.3,1.4,0.6,1.9,1c0.5,0.4,0.9,0.9,1.2,1.3    c0.3,0.5,0.4,0.9,0.4,1.3s-0.2,0.8-0.5,1.1c-0.3,0.3-0.7,0.4-1.1,0.4c-0.3,0-0.5-0.1-0.7-0.2c-0.2-0.1-0.4-0.4-0.6-0.7    c-0.4-0.6-0.9-1.1-1.3-1.5c-0.5-0.3-1.1-0.5-1.8-0.5c-1,0-1.9,0.4-2.5,1.2s-0.9,1.9-0.9,3.3c0,0.7,0.1,1.3,0.2,1.8    c0.2,0.6,0.4,1,0.7,1.4s0.7,0.7,1.1,0.9s0.9,0.3,1.4,0.3c0.7,0,1.3-0.2,1.8-0.5c0.5-0.3,0.9-0.8,1.3-1.5c0.2-0.4,0.4-0.7,0.7-0.9    c0.2-0.2,0.6-0.3,0.9-0.3c0.4,0,0.8,0.2,1.1,0.5C393.4,143.6,393.6,144,393.6,144.3L393.6,144.3z M398.4,132.8    c-0.5,0-0.9-0.1-1.3-0.4c-0.3-0.3-0.5-0.7-0.5-1.3c0-0.5,0.2-0.9,0.5-1.2c0.4-0.3,0.8-0.5,1.2-0.5c0.5,0,0.9,0.1,1.2,0.4    c0.4,0.3,0.5,0.7,0.5,1.3c0,0.5-0.2,1-0.5,1.3C399.3,132.6,398.9,132.8,398.4,132.8L398.4,132.8z M400.1,136.4v10.1    c0,0.7-0.2,1.2-0.5,1.6c-0.3,0.4-0.8,0.5-1.3,0.5c-0.5,0-0.9-0.2-1.3-0.6c-0.3-0.4-0.5-0.9-0.5-1.6v-10c0-0.7,0.2-1.2,0.5-1.6    c0.3-0.4,0.7-0.5,1.3-0.5c0.5,0,0.9,0.2,1.3,0.5C400,135.3,400.1,135.8,400.1,136.4z M406.9,136.4v0.4c0.6-0.8,1.3-1.4,2-1.8    c0.7-0.4,1.6-0.6,2.5-0.6c0.9,0,1.7,0.2,2.5,0.6c0.7,0.4,1.3,1,1.6,1.7c0.2,0.4,0.4,0.9,0.4,1.4c0.1,0.5,0.1,1.1,0.1,1.9v6.5    c0,0.7-0.2,1.2-0.5,1.6c-0.3,0.4-0.7,0.5-1.3,0.5c-0.5,0-0.9-0.2-1.3-0.6c-0.3-0.4-0.5-0.9-0.5-1.6v-5.8c0-1.2-0.2-2-0.5-2.6    c-0.3-0.6-1-0.9-1.9-0.9c-0.6,0-1.2,0.2-1.7,0.6c-0.5,0.4-0.9,0.9-1.1,1.5c-0.2,0.5-0.3,1.5-0.3,2.9v4.4c0,0.7-0.2,1.2-0.5,1.6    c-0.3,0.4-0.8,0.5-1.3,0.5c-0.5,0-0.9-0.2-1.2-0.6c-0.3-0.4-0.5-0.9-0.5-1.6v-10.1c0-0.7,0.1-1.2,0.4-1.5c0.3-0.3,0.7-0.5,1.2-0.5    c0.3,0,0.6,0.1,0.8,0.2c0.2,0.1,0.4,0.4,0.6,0.7C406.8,135.6,406.9,135.9,406.9,136.4L406.9,136.4z M432.5,137v10.2    c0,1.2-0.1,2.2-0.4,3c-0.2,0.8-0.6,1.5-1.2,2.1c-0.5,0.5-1.3,1-2.1,1.2c-0.9,0.3-2,0.4-3.3,0.4c-1.2,0-2.3-0.2-3.2-0.5    c-0.9-0.3-1.7-0.8-2.2-1.3c-0.5-0.5-0.8-1.1-0.8-1.6c0-0.4,0.1-0.8,0.4-1c0.3-0.3,0.6-0.4,1.1-0.4c0.5,0,1,0.2,1.3,0.7    c0.2,0.2,0.4,0.5,0.6,0.7s0.4,0.4,0.7,0.6c0.2,0.2,0.5,0.3,0.9,0.4c0.3,0.1,0.7,0.1,1.2,0.1c0.9,0,1.6-0.1,2.1-0.4    c0.5-0.3,0.9-0.6,1.1-1.1s0.3-0.9,0.4-1.5c0-0.5,0.1-1.3,0.1-2.5c-0.5,0.8-1.2,1.3-1.9,1.7s-1.5,0.6-2.5,0.6    c-1.2,0-2.2-0.3-3.1-0.9c-0.9-0.6-1.6-1.4-2-2.5c-0.5-1.1-0.7-2.3-0.7-3.7c0-1.1,0.1-2,0.4-2.8c0.3-0.8,0.7-1.6,1.2-2.1    c0.5-0.6,1.1-1,1.8-1.3c0.7-0.3,1.5-0.4,2.3-0.4c1,0,1.9,0.2,2.6,0.6c0.7,0.4,1.4,1,2,1.8v-0.5c0-0.6,0.1-1.1,0.4-1.4    c0.3-0.3,0.7-0.5,1.2-0.5c0.7,0,1.1,0.2,1.3,0.7C432.4,135.5,432.5,136.2,432.5,137L432.5,137z M422.3,141.4    c0,1.4,0.3,2.5,0.9,3.2c0.6,0.7,1.4,1.1,2.4,1.1c0.6,0,1.1-0.2,1.6-0.5c0.5-0.3,0.9-0.8,1.3-1.4c0.3-0.6,0.5-1.4,0.5-2.3    c0-1.4-0.3-2.5-0.9-3.3c-0.6-0.8-1.5-1.2-2.5-1.2s-1.8,0.4-2.4,1.1C422.6,138.9,422.3,140,422.3,141.4L422.3,141.4z M442.8,134.7    h0.4v-2.1v-1.3c0-0.3,0.1-0.6,0.3-0.8c0.1-0.2,0.3-0.4,0.6-0.6c0.3-0.1,0.5-0.2,0.9-0.2s0.8,0.2,1.2,0.5c0.2,0.2,0.4,0.5,0.5,0.8    c0.1,0.3,0.1,0.8,0.1,1.4v2.4h1.3c0.5,0,0.9,0.1,1.1,0.4c0.3,0.2,0.4,0.5,0.4,0.9c0,0.5-0.2,0.8-0.6,1s-0.9,0.3-1.6,0.3h-0.7v6.4    c0,0.5,0,1,0.1,1.3c0,0.3,0.1,0.5,0.3,0.7c0.2,0.2,0.4,0.3,0.8,0.3c0.2,0,0.5,0,0.8-0.1c0.4-0.1,0.6-0.1,0.8-0.1    c0.3,0,0.5,0.1,0.8,0.3c0.2,0.2,0.3,0.5,0.3,0.8c0,0.6-0.3,1-0.9,1.3c-0.6,0.3-1.5,0.4-2.7,0.4c-1.1,0-1.9-0.2-2.5-0.6    c-0.6-0.4-0.9-0.9-1.1-1.5c-0.2-0.7-0.3-1.5-0.3-2.6v-6.7h-0.5c-0.5,0-0.9-0.1-1.2-0.4c-0.3-0.2-0.4-0.5-0.4-0.9    c0-0.4,0.1-0.7,0.4-0.9C441.9,134.9,442.3,134.7,442.8,134.7L442.8,134.7z M455.3,131.3v5.2c0.4-0.5,0.9-0.9,1.3-1.2    s0.9-0.5,1.4-0.7c0.5-0.1,1.1-0.2,1.7-0.2c0.9,0,1.7,0.2,2.4,0.6c0.7,0.4,1.2,0.9,1.6,1.6c0.2,0.4,0.4,0.9,0.5,1.4    c0.1,0.5,0.1,1.1,0.1,1.8v6.7c0,0.7-0.2,1.2-0.5,1.6c-0.3,0.4-0.7,0.5-1.3,0.5c-1.2,0-1.7-0.7-1.7-2.1v-5.9c0-1.1-0.2-2-0.5-2.6    c-0.3-0.6-1-0.9-1.9-0.9c-0.6,0-1.2,0.2-1.7,0.5c-0.5,0.4-0.9,0.8-1.1,1.5c-0.2,0.5-0.3,1.4-0.3,2.8v4.6c0,0.7-0.2,1.2-0.5,1.6    c-0.3,0.4-0.7,0.5-1.3,0.5c-1.2,0-1.7-0.7-1.7-2.1v-15.2c0-0.7,0.2-1.2,0.5-1.6c0.3-0.4,0.7-0.5,1.3-0.5c0.6,0,1,0.2,1.3,0.5    C455.2,130.1,455.3,130.6,455.3,131.3L455.3,131.3z M477.5,142.4h-6.9c0,0.8,0.2,1.5,0.5,2.1s0.7,1.1,1.2,1.4    c0.5,0.3,1.1,0.5,1.7,0.5c0.4,0,0.8,0,1.1-0.1s0.7-0.3,1-0.5c0.3-0.2,0.6-0.4,0.9-0.7c0.3-0.2,0.6-0.6,1.1-1    c0.2-0.2,0.4-0.2,0.8-0.2s0.6,0.1,0.9,0.3c0.2,0.2,0.3,0.5,0.3,0.8s-0.1,0.7-0.4,1.1c-0.2,0.4-0.6,0.8-1.1,1.2    c-0.5,0.4-1.1,0.7-1.9,1c-0.8,0.3-1.6,0.4-2.6,0.4c-2.2,0-4-0.6-5.2-1.9s-1.9-3-1.9-5.2c0-1,0.2-2,0.5-2.9    c0.3-0.9,0.8-1.6,1.3-2.3c0.5-0.7,1.3-1.1,2.2-1.5c0.9-0.3,1.8-0.5,2.9-0.5c1.4,0,2.5,0.3,3.5,0.9c1,0.6,1.7,1.3,2.2,2.2    c0.5,0.9,0.7,1.8,0.7,2.8c0,0.9-0.3,1.5-0.8,1.7C479,142.2,478.4,142.4,477.5,142.4L477.5,142.4z M470.6,140.4h6.4    c-0.1-1.2-0.4-2.1-1-2.7c-0.6-0.6-1.3-0.9-2.2-0.9s-1.6,0.3-2.1,0.9C471.1,138.3,470.7,139.2,470.6,140.4L470.6,140.4z     M504.4,142.7c0,1.1-0.3,2.2-0.9,3.1c-0.6,0.9-1.4,1.6-2.6,2.1c-1.1,0.5-2.5,0.8-4,0.8c-1.9,0-3.4-0.4-4.6-1.1    c-0.9-0.5-1.6-1.2-2.1-2c-0.5-0.8-0.8-1.7-0.8-2.5c0-0.5,0.2-0.9,0.5-1.2c0.3-0.3,0.7-0.5,1.2-0.5c0.4,0,0.7,0.1,1,0.4    c0.3,0.3,0.5,0.6,0.7,1.1c0.2,0.6,0.5,1.1,0.8,1.5c0.3,0.4,0.7,0.7,1.2,1c0.5,0.3,1.2,0.4,2,0.4c1.1,0,2-0.3,2.8-0.8    s1.1-1.2,1.1-2c0-0.6-0.2-1.1-0.6-1.5c-0.4-0.4-0.9-0.7-1.5-0.9s-1.4-0.4-2.4-0.7c-1.4-0.3-2.5-0.7-3.4-1.1    c-0.9-0.4-1.6-1-2.2-1.7c-0.5-0.7-0.8-1.6-0.8-2.7c0-1,0.3-2,0.8-2.8c0.6-0.8,1.4-1.4,2.5-1.9s2.3-0.6,3.8-0.6    c1.2,0,2.2,0.1,3,0.4c0.8,0.3,1.5,0.7,2.1,1.1c0.6,0.5,1,1,1.2,1.5c0.3,0.5,0.4,1,0.4,1.5s-0.2,0.9-0.5,1.2    c-0.3,0.4-0.7,0.5-1.2,0.5c-0.4,0-0.8-0.1-1-0.3s-0.5-0.6-0.7-1.1c-0.3-0.7-0.8-1.3-1.2-1.7c-0.5-0.4-1.3-0.6-2.3-0.6    s-1.8,0.2-2.4,0.6s-0.9,1-0.9,1.6c0,0.4,0.1,0.7,0.3,1c0.2,0.3,0.5,0.5,0.8,0.7c0.4,0.2,0.7,0.4,1.1,0.5s1,0.3,1.8,0.5    c1.1,0.2,2,0.5,2.9,0.8c0.9,0.3,1.6,0.7,2.2,1.1c0.6,0.4,1.1,1,1.4,1.6C504.2,141,504.4,141.8,504.4,142.7L504.4,142.7z     M516.3,146.7c-0.8,0.7-1.7,1.2-2.5,1.5s-1.7,0.5-2.7,0.5c-0.9,0-1.7-0.2-2.4-0.5c-0.7-0.4-1.2-0.8-1.6-1.4s-0.6-1.3-0.6-2    c0-1,0.3-1.8,0.9-2.5c0.6-0.7,1.4-1.1,2.5-1.4c0.2-0.1,0.8-0.2,1.7-0.3c0.9-0.2,1.6-0.3,2.3-0.5c0.6-0.1,1.3-0.3,2-0.5    c0-0.9-0.2-1.6-0.6-2c-0.3-0.4-1-0.6-2-0.6c-0.9,0-1.6,0.1-2,0.4c-0.4,0.2-0.8,0.6-1.2,1.1s-0.5,0.8-0.7,1    c-0.1,0.2-0.4,0.2-0.9,0.2c-0.4,0-0.7-0.1-1-0.4c-0.3-0.3-0.4-0.6-0.4-1c0-0.6,0.2-1.2,0.7-1.8c0.5-0.6,1.1-1.1,2-1.4    c0.9-0.4,2.1-0.6,3.5-0.6c1.5,0,2.7,0.2,3.6,0.5c0.9,0.4,1.5,0.9,1.9,1.7c0.4,0.8,0.5,1.8,0.5,3.1v4c0,0.7,0.1,1.3,0.3,2.1    c0.2,0.7,0.3,1.2,0.3,1.4c0,0.4-0.2,0.7-0.5,1c-0.3,0.3-0.7,0.4-1.1,0.4c-0.4,0-0.7-0.2-1.1-0.5    C517,147.8,516.6,147.3,516.3,146.7z M516,141.6c-0.5,0.2-1.3,0.4-2.2,0.6c-1,0.2-1.7,0.4-2,0.5c-0.4,0.1-0.7,0.3-1.1,0.6    c-0.3,0.3-0.5,0.7-0.5,1.2s0.2,1,0.6,1.4s0.9,0.6,1.6,0.6s1.3-0.2,1.9-0.5c0.6-0.3,1-0.7,1.3-1.2s0.5-1.4,0.5-2.6L516,141.6    L516,141.6z M522.7,134.7h0.8v-1.1c0-1.1,0.1-2,0.4-2.6c0.3-0.6,0.7-1.1,1.4-1.4c0.7-0.3,1.6-0.4,2.7-0.4c2,0,3.1,0.5,3.1,1.5    c0,0.3-0.1,0.6-0.3,0.8c-0.2,0.2-0.5,0.3-0.8,0.3c-0.1,0-0.4,0-0.7-0.1s-0.6-0.1-0.8-0.1c-0.6,0-1,0.2-1.2,0.6    c-0.2,0.4-0.3,0.9-0.3,1.6v0.8h0.9c1.3,0,2,0.4,2,1.2c0,0.6-0.2,0.9-0.5,1.1c-0.4,0.2-0.8,0.2-1.5,0.2H527v9.3    c0,0.7-0.2,1.2-0.5,1.6c-0.3,0.4-0.8,0.5-1.3,0.5s-0.9-0.2-1.2-0.5c-0.3-0.4-0.5-0.9-0.5-1.6v-9.3h-1c-0.5,0-0.9-0.1-1.2-0.4    c-0.3-0.2-0.4-0.5-0.4-0.9C521,135.2,521.6,134.7,522.7,134.7L522.7,134.7z M541.2,142.4h-6.9c0,0.8,0.2,1.5,0.5,2.1    c0.3,0.6,0.7,1.1,1.2,1.4c0.5,0.3,1.1,0.5,1.7,0.5c0.4,0,0.8,0,1.1-0.1s0.7-0.3,1-0.5c0.3-0.2,0.6-0.4,0.9-0.7    c0.3-0.2,0.6-0.6,1.1-1c0.2-0.2,0.4-0.2,0.8-0.2s0.6,0.1,0.9,0.3c0.2,0.2,0.3,0.5,0.3,0.8s-0.1,0.7-0.4,1.1    c-0.2,0.4-0.6,0.8-1.1,1.2c-0.5,0.4-1.1,0.7-1.9,1c-0.8,0.3-1.6,0.4-2.6,0.4c-2.2,0-4-0.6-5.2-1.9s-1.9-3-1.9-5.2    c0-1,0.2-2,0.5-2.9c0.3-0.9,0.8-1.6,1.3-2.3c0.6-0.6,1.3-1.1,2.2-1.5c0.9-0.3,1.8-0.5,2.9-0.5c1.4,0,2.5,0.3,3.5,0.9    c1,0.6,1.7,1.3,2.2,2.2s0.7,1.8,0.7,2.8c0,0.9-0.3,1.5-0.8,1.7C542.8,142.3,542.1,142.4,541.2,142.4z M534.3,140.4h6.4    c-0.1-1.2-0.4-2.1-1-2.7c-0.6-0.6-1.3-0.9-2.2-0.9s-1.6,0.3-2.1,0.9C534.8,138.3,534.5,139.2,534.3,140.4L534.3,140.4z     M547.2,134.7h0.4v-2.1v-1.3c0-0.3,0.1-0.6,0.2-0.8c0.1-0.2,0.3-0.4,0.6-0.6c0.3-0.1,0.5-0.2,0.9-0.2s0.8,0.2,1.2,0.5    c0.2,0.2,0.4,0.5,0.5,0.8c0.1,0.3,0.1,0.8,0.1,1.4v2.4h1.3c0.5,0,0.9,0.1,1.1,0.4c0.3,0.2,0.4,0.5,0.4,0.9c0,0.5-0.2,0.8-0.6,1    c-0.4,0.2-0.9,0.3-1.6,0.3H551v6.4c0,0.5,0,1,0.1,1.3c0,0.3,0.1,0.5,0.3,0.7c0.2,0.2,0.4,0.3,0.8,0.3c0.2,0,0.5,0,0.8-0.1    s0.6-0.1,0.8-0.1c0.3,0,0.5,0.1,0.8,0.3c0.2,0.2,0.3,0.5,0.3,0.8c0,0.6-0.3,1-0.9,1.3s-1.5,0.4-2.7,0.4c-1.1,0-1.9-0.2-2.5-0.6    c-0.6-0.4-0.9-0.9-1.1-1.5c-0.2-0.7-0.3-1.5-0.3-2.6v-6.7h-0.5c-0.5,0-0.9-0.1-1.2-0.4c-0.3-0.2-0.4-0.5-0.4-0.9    c0-0.4,0.1-0.7,0.4-0.9C546.3,134.9,546.7,134.7,547.2,134.7L547.2,134.7z" fill="#009490"  /><path d="M559.6,149.1l0.3-0.8l-4.3-10.9c-0.3-0.6-0.4-1.1-0.4-1.4c0-0.3,0.1-0.6,0.2-0.8c0.2-0.3,0.4-0.5,0.6-0.6    c0.3-0.2,0.5-0.2,0.8-0.2c0.5,0,0.9,0.2,1.1,0.5c0.2,0.3,0.5,0.8,0.7,1.4l3,8.6l2.8-8c0.2-0.6,0.4-1.2,0.6-1.5    c0.2-0.4,0.4-0.6,0.6-0.7c0.2-0.1,0.5-0.2,0.9-0.2c0.3,0,0.5,0.1,0.8,0.2c0.2,0.1,0.4,0.3,0.6,0.6c0.1,0.2,0.2,0.5,0.2,0.8    c0,0.2-0.1,0.4-0.2,0.7l-0.3,0.9l-4.6,12c-0.4,1.1-0.8,1.9-1.2,2.5c-0.4,0.6-0.9,1.1-1.5,1.4c-0.6,0.3-1.5,0.5-2.5,0.5    c-1,0-1.8-0.1-2.3-0.3s-0.8-0.6-0.8-1.2c0-0.4,0.1-0.7,0.4-0.9c0.2-0.2,0.6-0.3,1.1-0.3c0.2,0,0.4,0,0.6,0.1s0.4,0.1,0.6,0.1    c0.4,0,0.7-0.1,0.9-0.2c0.2-0.1,0.4-0.3,0.6-0.6C559.1,150.1,559.3,149.7,559.6,149.1L559.6,149.1z M313.4,173c0,1-0.2,2-0.5,2.9    c-0.3,0.9-0.8,1.6-1.4,2.3c-0.6,0.6-1.4,1.1-2.2,1.5c-0.9,0.3-1.8,0.5-2.9,0.5c-1.1,0-2-0.2-2.9-0.5c-0.9-0.3-1.6-0.8-2.2-1.5    c-0.6-0.6-1.1-1.4-1.4-2.3c-0.3-0.9-0.5-1.8-0.5-2.9s0.2-2,0.5-2.9s0.8-1.6,1.4-2.3c0.6-0.6,1.3-1.1,2.2-1.4    c0.9-0.3,1.8-0.5,2.9-0.5c1.1,0,2,0.2,2.9,0.5c0.9,0.3,1.6,0.8,2.2,1.5c0.6,0.6,1.1,1.4,1.4,2.3C313.3,171,313.4,171.9,313.4,173    L313.4,173z M309.9,173c0-1.4-0.3-2.5-0.9-3.3s-1.5-1.2-2.5-1.2c-0.7,0-1.3,0.2-1.8,0.5c-0.5,0.4-0.9,0.9-1.2,1.6    c-0.3,0.7-0.4,1.5-0.4,2.4c0,0.9,0.1,1.7,0.4,2.4c0.3,0.7,0.7,1.2,1.2,1.6c0.5,0.4,1.1,0.5,1.8,0.5c1.1,0,1.9-0.4,2.5-1.2    S309.9,174.4,309.9,173z M315.9,166.2h0.8v-1.1c0-1.1,0.1-2,0.4-2.6c0.3-0.6,0.7-1.1,1.4-1.4c0.7-0.3,1.6-0.4,2.7-0.4    c2,0,3.1,0.5,3.1,1.5c0,0.3-0.1,0.6-0.3,0.8c-0.2,0.2-0.5,0.3-0.8,0.3c-0.1,0-0.4,0-0.7-0.1c-0.3-0.1-0.6-0.1-0.8-0.1    c-0.6,0-1,0.2-1.2,0.6c-0.2,0.4-0.3,0.9-0.3,1.6v0.8h0.9c1.3,0,2,0.4,2,1.2c0,0.6-0.2,0.9-0.5,1.1c-0.4,0.2-0.8,0.2-1.5,0.2h-0.9    v9.3c0,0.7-0.2,1.2-0.5,1.6c-0.3,0.4-0.8,0.5-1.3,0.5c-0.5,0-0.9-0.2-1.2-0.5c-0.3-0.4-0.5-0.9-0.5-1.6v-9.3h-1    c-0.5,0-0.9-0.1-1.2-0.4c-0.3-0.2-0.4-0.5-0.4-0.9C314.2,166.6,314.8,166.2,315.9,166.2L315.9,166.2z M341,177l-3-12v13    c0,0.7-0.2,1.3-0.5,1.6c-0.3,0.4-0.7,0.5-1.3,0.5c-0.5,0-0.9-0.2-1.3-0.5c-0.3-0.4-0.5-0.9-0.5-1.6v-14.9c0-0.8,0.2-1.4,0.6-1.7    s1-0.4,1.7-0.4h1.2c0.7,0,1.2,0.1,1.5,0.2c0.3,0.1,0.6,0.4,0.7,0.7c0.2,0.3,0.3,0.9,0.5,1.6l2.7,10.3l2.7-10.3    c0.2-0.8,0.4-1.3,0.5-1.6c0.2-0.3,0.4-0.6,0.7-0.7c0.3-0.1,0.8-0.2,1.5-0.2h1.2c0.7,0,1.3,0.1,1.7,0.4c0.4,0.3,0.6,0.8,0.6,1.7    V178c0,0.7-0.2,1.3-0.5,1.6c-0.3,0.4-0.8,0.5-1.3,0.5c-0.5,0-0.9-0.2-1.2-0.5c-0.3-0.4-0.5-0.9-0.5-1.6v-13l-3,12    c-0.2,0.8-0.4,1.3-0.5,1.7c-0.1,0.4-0.4,0.7-0.7,1s-0.8,0.4-1.4,0.4c-0.4,0-0.8-0.1-1.1-0.3s-0.5-0.4-0.7-0.7    c-0.2-0.3-0.3-0.6-0.4-1C341.2,177.7,341.1,177.3,341,177L341,177z M358,164.2c-0.5,0-0.9-0.1-1.3-0.4c-0.3-0.3-0.5-0.7-0.5-1.3    c0-0.5,0.2-0.9,0.5-1.2c0.4-0.3,0.8-0.5,1.2-0.5c0.5,0,0.9,0.1,1.2,0.4c0.4,0.3,0.5,0.7,0.5,1.3c0,0.5-0.2,1-0.5,1.3    C358.8,164.1,358.5,164.2,358,164.2L358,164.2z M359.8,167.9V178c0,0.7-0.2,1.2-0.5,1.6c-0.3,0.4-0.8,0.5-1.3,0.5    c-0.5,0-0.9-0.2-1.3-0.6c-0.3-0.4-0.5-0.9-0.5-1.6v-10c0-0.7,0.2-1.2,0.5-1.6c0.3-0.4,0.7-0.5,1.3-0.5c0.5,0,0.9,0.2,1.3,0.5    C359.6,166.7,359.8,167.2,359.8,167.9z M373,178.1v-0.3c-0.5,0.5-0.9,1-1.4,1.3c-0.5,0.3-1,0.6-1.5,0.8c-0.5,0.2-1.1,0.3-1.8,0.3    c-0.8,0-1.6-0.2-2.3-0.5c-0.7-0.4-1.3-0.9-1.9-1.5c-0.5-0.7-0.9-1.4-1.2-2.3c-0.3-0.9-0.4-1.9-0.4-2.9c0-2.2,0.5-3.9,1.6-5.1    c1.1-1.2,2.5-1.8,4.2-1.8c1,0,1.9,0.2,2.6,0.5c0.7,0.3,1.4,0.9,2,1.6v-5.4c0-0.7,0.1-1.3,0.4-1.6c0.3-0.4,0.7-0.6,1.2-0.6    c0.5,0,0.9,0.2,1.2,0.5c0.3,0.3,0.4,0.8,0.4,1.5V178c0,0.7-0.2,1.2-0.5,1.5c-0.3,0.3-0.7,0.5-1.2,0.5s-0.9-0.2-1.2-0.5    C373.1,179.2,373,178.7,373,178.1L373,178.1z M366.1,173c0,0.9,0.1,1.8,0.4,2.4c0.3,0.7,0.7,1.2,1.2,1.5c0.5,0.3,1.1,0.5,1.7,0.5    c0.6,0,1.2-0.2,1.7-0.5c0.5-0.3,0.9-0.8,1.2-1.5c0.3-0.7,0.5-1.5,0.5-2.5c0-0.9-0.2-1.7-0.5-2.4c-0.3-0.7-0.7-1.2-1.2-1.5    c-0.5-0.4-1.1-0.5-1.7-0.5c-0.6,0-1.2,0.2-1.7,0.5c-0.5,0.4-0.9,0.9-1.2,1.6C366.2,171.3,366.1,172.1,366.1,173z M382,168l2.3,7.8    l2.1-7.3c0.2-0.8,0.4-1.3,0.5-1.6c0.1-0.3,0.3-0.5,0.6-0.8c0.3-0.3,0.7-0.4,1.2-0.4c0.5,0,0.9,0.1,1.2,0.4    c0.3,0.3,0.5,0.5,0.6,0.8c0.1,0.3,0.3,0.8,0.5,1.5l2.1,7.3l2.3-7.8c0.2-0.6,0.3-1,0.4-1.2c0.1-0.3,0.3-0.5,0.5-0.7    c0.2-0.2,0.5-0.3,1-0.3c0.4,0,0.8,0.1,1.1,0.4c0.3,0.3,0.5,0.6,0.5,1s-0.1,0.9-0.4,1.6l-2.9,8.4c-0.2,0.7-0.4,1.2-0.6,1.5    c-0.1,0.3-0.4,0.6-0.6,0.8c-0.3,0.2-0.7,0.4-1.2,0.4c-0.5,0-0.9-0.1-1.3-0.4c-0.3-0.3-0.5-0.6-0.7-1c-0.1-0.4-0.3-0.9-0.5-1.5    l-2-6.8l-1.9,6.8c-0.3,1-0.5,1.7-0.8,2.1c-0.3,0.5-0.8,0.7-1.6,0.7c-0.4,0-0.7-0.1-1-0.2c-0.3-0.1-0.5-0.4-0.7-0.6    c-0.2-0.3-0.3-0.6-0.5-1c-0.1-0.4-0.2-0.7-0.3-0.9l-2.8-8.4c-0.3-0.8-0.4-1.3-0.4-1.6c0-0.4,0.1-0.7,0.4-1    c0.3-0.3,0.7-0.4,1.1-0.4c0.6,0,1,0.2,1.2,0.5C381.5,166.7,381.8,167.3,382,168L382,168z M402.9,164.2c-0.5,0-0.9-0.1-1.3-0.4    c-0.3-0.3-0.5-0.7-0.5-1.3c0-0.5,0.2-0.9,0.5-1.2c0.4-0.3,0.8-0.5,1.2-0.5c0.5,0,0.9,0.1,1.2,0.4c0.4,0.3,0.5,0.7,0.5,1.3    c0,0.5-0.2,1-0.5,1.3C403.7,164.1,403.4,164.2,402.9,164.2L402.9,164.2z M404.7,167.9V178c0,0.7-0.2,1.2-0.5,1.6    c-0.3,0.4-0.8,0.5-1.3,0.5c-0.5,0-0.9-0.2-1.3-0.6c-0.3-0.4-0.5-0.9-0.5-1.6v-10c0-0.7,0.2-1.2,0.5-1.6c0.3-0.4,0.7-0.5,1.3-0.5    c0.5,0,0.9,0.2,1.3,0.5C404.5,166.7,404.7,167.2,404.7,167.9z M408,166.2h0.8v-1.1c0-1.1,0.1-2,0.4-2.6c0.3-0.6,0.7-1.1,1.4-1.4    c0.7-0.3,1.6-0.4,2.7-0.4c2,0,3.1,0.5,3.1,1.5c0,0.3-0.1,0.6-0.3,0.8c-0.2,0.2-0.5,0.3-0.8,0.3c-0.1,0-0.4,0-0.7-0.1    s-0.6-0.1-0.8-0.1c-0.6,0-1,0.2-1.2,0.6c-0.2,0.4-0.3,0.9-0.3,1.6v0.8h0.9c1.3,0,2,0.4,2,1.2c0,0.6-0.2,0.9-0.5,1.1    c-0.4,0.2-0.8,0.2-1.5,0.2h-0.9v9.3c0,0.7-0.2,1.2-0.5,1.6c-0.3,0.4-0.8,0.5-1.3,0.5c-0.5,0-0.9-0.2-1.2-0.5    c-0.3-0.4-0.5-0.9-0.5-1.6v-9.3h-1c-0.5,0-0.9-0.1-1.2-0.4c-0.3-0.2-0.4-0.5-0.4-0.9C406.3,166.6,406.8,166.2,408,166.2L408,166.2    z M426.5,173.8h-6.9c0,0.8,0.2,1.5,0.5,2.1c0.3,0.6,0.7,1.1,1.2,1.4c0.5,0.3,1.1,0.5,1.7,0.5c0.4,0,0.8,0,1.1-0.1s0.7-0.3,1-0.5    c0.3-0.2,0.6-0.4,0.9-0.7c0.3-0.3,0.6-0.6,1.1-1c0.2-0.2,0.4-0.2,0.8-0.2s0.6,0.1,0.9,0.3c0.2,0.2,0.3,0.5,0.3,0.8    s-0.1,0.7-0.4,1.1c-0.2,0.4-0.6,0.8-1.1,1.2c-0.5,0.4-1.1,0.7-1.9,1s-1.6,0.4-2.6,0.4c-2.3,0-4-0.6-5.2-1.9    c-1.2-1.3-1.9-3-1.9-5.2c0-1,0.2-2,0.5-2.9c0.3-0.9,0.8-1.6,1.3-2.3c0.6-0.6,1.3-1.1,2.2-1.5c0.9-0.3,1.8-0.5,2.9-0.5    c1.4,0,2.5,0.3,3.5,0.9c1,0.6,1.7,1.3,2.2,2.2c0.5,0.9,0.7,1.8,0.7,2.8c0,0.9-0.3,1.5-0.8,1.7    C428.1,173.7,427.4,173.8,426.5,173.8L426.5,173.8z M419.6,171.9h6.4c-0.1-1.2-0.4-2.1-1-2.7c-0.6-0.6-1.3-0.9-2.2-0.9    c-0.9,0-1.6,0.3-2.1,0.9C420.1,169.8,419.7,170.7,419.6,171.9L419.6,171.9z M435.8,175.1v2.9c0,0.7-0.2,1.2-0.5,1.6    c-0.3,0.4-0.8,0.5-1.3,0.5c-0.5,0-0.9-0.2-1.2-0.5c-0.3-0.4-0.5-0.9-0.5-1.6v-9.8c0-1.6,0.6-2.4,1.7-2.4c0.6,0,1,0.2,1.3,0.6    c0.3,0.4,0.4,0.9,0.4,1.6c0.4-0.7,0.8-1.3,1.3-1.6c0.4-0.4,1-0.6,1.8-0.6c0.7,0,1.4,0.2,2.1,0.6c0.7,0.4,1,0.9,1,1.5    c0,0.4-0.1,0.8-0.4,1.1c-0.3,0.3-0.6,0.4-1,0.4c-0.1,0-0.4-0.1-0.9-0.2s-0.9-0.2-1.3-0.2c-0.5,0-0.9,0.1-1.3,0.4    c-0.3,0.3-0.6,0.7-0.8,1.2c-0.2,0.5-0.3,1.2-0.4,1.9L435.8,175.1L435.8,175.1z M447.1,180.5l0.3-0.8l-4.3-10.9    c-0.3-0.6-0.4-1.1-0.4-1.4c0-0.3,0.1-0.6,0.2-0.8c0.2-0.3,0.4-0.5,0.6-0.6c0.3-0.2,0.5-0.2,0.8-0.2c0.5,0,0.9,0.2,1.1,0.5    c0.3,0.3,0.5,0.8,0.7,1.4l3,8.6l2.8-8c0.2-0.6,0.4-1.2,0.6-1.5c0.2-0.4,0.4-0.6,0.6-0.7c0.2-0.1,0.5-0.2,0.9-0.2    c0.3,0,0.5,0.1,0.8,0.2c0.2,0.1,0.4,0.3,0.6,0.6c0.1,0.2,0.2,0.5,0.2,0.8c0,0.2-0.1,0.4-0.2,0.7l-0.3,0.9l-4.6,12    c-0.4,1.1-0.8,1.9-1.2,2.5c-0.4,0.6-0.9,1.1-1.5,1.4c-0.6,0.3-1.5,0.5-2.5,0.5s-1.8-0.1-2.3-0.3c-0.5-0.2-0.8-0.6-0.8-1.2    c0-0.4,0.1-0.7,0.4-0.9c0.2-0.2,0.6-0.3,1.1-0.3c0.2,0,0.4,0,0.6,0.1s0.4,0.1,0.6,0.1c0.4,0,0.7-0.1,0.9-0.2    c0.2-0.1,0.4-0.3,0.6-0.6C446.6,181.6,446.8,181.1,447.1,180.5L447.1,180.5z M462.6,174.5h-4.1c-0.6,0-1.1-0.1-1.4-0.4    c-0.3-0.3-0.5-0.7-0.5-1.1c0-0.5,0.2-0.8,0.5-1.1c0.3-0.3,0.8-0.4,1.4-0.4h4.1c0.6,0,1.1,0.1,1.4,0.4c0.3,0.3,0.5,0.7,0.5,1.1    c0,0.5-0.2,0.8-0.5,1.1C463.7,174.4,463.2,174.5,462.6,174.5z M470.7,163v13.7h7.7c0.6,0,1.1,0.1,1.4,0.4c0.3,0.3,0.5,0.7,0.5,1.1    c0,0.5-0.2,0.8-0.5,1.1c-0.3,0.3-0.8,0.4-1.4,0.4h-9.2c-0.8,0-1.4-0.2-1.8-0.6c-0.4-0.4-0.5-1-0.5-1.8v-14.5    c0-0.8,0.2-1.3,0.5-1.7c0.3-0.4,0.8-0.6,1.4-0.6s1,0.2,1.4,0.6C470.5,161.6,470.7,162.2,470.7,163z M492.4,173.8h-6.9    c0,0.8,0.2,1.5,0.5,2.1c0.3,0.6,0.7,1.1,1.2,1.4c0.5,0.3,1.1,0.5,1.7,0.5c0.4,0,0.8,0,1.1-0.1s0.7-0.3,1-0.5    c0.3-0.2,0.6-0.4,0.9-0.7c0.3-0.3,0.6-0.6,1.1-1c0.2-0.2,0.4-0.2,0.8-0.2s0.6,0.1,0.9,0.3c0.2,0.2,0.3,0.5,0.3,0.8    s-0.1,0.7-0.4,1.1c-0.2,0.4-0.6,0.8-1.1,1.2c-0.5,0.4-1.1,0.7-1.9,1s-1.6,0.4-2.6,0.4c-2.2,0-4-0.6-5.2-1.9s-1.9-3-1.9-5.2    c0-1,0.2-2,0.5-2.9c0.3-0.9,0.8-1.6,1.3-2.3c0.5-0.7,1.3-1.1,2.2-1.5c0.9-0.3,1.8-0.5,2.9-0.5c1.4,0,2.5,0.3,3.5,0.9    c1,0.6,1.7,1.3,2.2,2.2c0.5,0.9,0.7,1.8,0.7,2.8c0,0.9-0.3,1.5-0.8,1.7C494,173.7,493.3,173.8,492.4,173.8L492.4,173.8z     M485.5,171.9h6.4c-0.1-1.2-0.4-2.1-1-2.7c-0.6-0.6-1.3-0.9-2.2-0.9s-1.6,0.3-2.1,0.9C486,169.8,485.6,170.7,485.5,171.9    L485.5,171.9z M507.8,178.1v-0.3c-0.5,0.5-0.9,1-1.4,1.3c-0.5,0.3-1,0.6-1.5,0.8c-0.5,0.2-1.1,0.3-1.8,0.3c-0.8,0-1.6-0.2-2.3-0.5    c-0.7-0.4-1.3-0.9-1.9-1.5c-0.5-0.7-0.9-1.4-1.2-2.3c-0.3-0.9-0.4-1.9-0.4-2.9c0-2.2,0.5-3.9,1.6-5.1c1.1-1.2,2.5-1.8,4.2-1.8    c1,0,1.9,0.2,2.6,0.5c0.7,0.3,1.4,0.9,2,1.6v-5.4c0-0.7,0.1-1.3,0.4-1.6c0.3-0.4,0.7-0.6,1.2-0.6c0.5,0,0.9,0.2,1.2,0.5    c0.3,0.3,0.4,0.8,0.4,1.5V178c0,0.7-0.2,1.2-0.5,1.5c-0.3,0.3-0.7,0.5-1.2,0.5s-0.9-0.2-1.2-0.5    C508,179.2,507.8,178.7,507.8,178.1L507.8,178.1z M500.9,173c0,0.9,0.1,1.8,0.4,2.4c0.3,0.7,0.7,1.2,1.2,1.5    c0.5,0.3,1.1,0.5,1.7,0.5s1.2-0.2,1.7-0.5c0.5-0.3,0.9-0.8,1.2-1.5s0.5-1.5,0.5-2.5c0-0.9-0.2-1.7-0.5-2.4    c-0.3-0.7-0.7-1.2-1.2-1.5c-0.5-0.4-1.1-0.5-1.7-0.5s-1.2,0.2-1.7,0.5c-0.5,0.4-0.9,0.9-1.2,1.6    C501.1,171.3,500.9,172.1,500.9,173z M308.6,211.3h-5.7c-0.8,0-1.4-0.2-1.8-0.6c-0.4-0.4-0.5-1-0.5-1.8v-14.1    c0-0.8,0.2-1.4,0.5-1.8c0.4-0.4,1-0.5,1.8-0.5h6.1c0.9,0,1.7,0.1,2.3,0.2c0.7,0.1,1.2,0.3,1.8,0.6c0.4,0.3,0.8,0.6,1.2,1    c0.3,0.4,0.6,0.9,0.8,1.3c0.2,0.5,0.3,1,0.3,1.6c0,1.9-0.9,3.3-2.8,4.1c2.5,0.8,3.7,2.3,3.7,4.6c0,1.1-0.3,2-0.8,2.8    c-0.5,0.8-1.3,1.5-2.2,1.9c-0.6,0.2-1.2,0.4-2,0.5C310.5,211.3,309.6,211.3,308.6,211.3L308.6,211.3z M304.4,195.4v4.9h3.5    c0.9,0,1.7-0.1,2.2-0.3s0.9-0.5,1.2-1c0.2-0.4,0.3-0.8,0.3-1.2c0-0.9-0.3-1.6-1-1.9c-0.7-0.3-1.7-0.5-3.1-0.5H304.4z M308.3,203    h-4v5.5h4.1c2.6,0,3.9-0.9,3.9-2.8c0-1-0.3-1.6-1-2.1C310.6,203.2,309.7,203,308.3,203L308.3,203z M321,195.8    c-0.5,0-0.9-0.1-1.3-0.4c-0.3-0.3-0.5-0.7-0.5-1.3c0-0.5,0.2-0.9,0.5-1.2c0.4-0.3,0.8-0.5,1.2-0.5c0.5,0,0.9,0.1,1.2,0.4    c0.4,0.3,0.5,0.7,0.5,1.3c0,0.5-0.2,1-0.5,1.3C321.9,195.6,321.5,195.8,321,195.8L321,195.8z M322.7,199.4v10.1    c0,0.7-0.2,1.2-0.5,1.6c-0.3,0.4-0.8,0.5-1.3,0.5s-0.9-0.2-1.3-0.6c-0.3-0.4-0.5-0.9-0.5-1.6v-10c0-0.7,0.2-1.2,0.5-1.6    c0.3-0.4,0.7-0.5,1.3-0.5c0.5,0,0.9,0.2,1.3,0.5C322.6,198.3,322.7,198.8,322.7,199.4z M329.7,206.6v2.9c0,0.7-0.2,1.2-0.5,1.6    c-0.3,0.4-0.8,0.5-1.3,0.5c-0.5,0-0.9-0.2-1.2-0.5c-0.3-0.4-0.5-0.9-0.5-1.6v-9.7c0-1.6,0.6-2.4,1.7-2.4c0.6,0,1,0.2,1.3,0.6    c0.3,0.4,0.4,0.9,0.4,1.6c0.4-0.7,0.8-1.3,1.3-1.6c0.4-0.4,1-0.6,1.8-0.6c0.7,0,1.4,0.2,2.1,0.6c0.7,0.4,1,0.9,1,1.5    c0,0.4-0.1,0.8-0.4,1.1c-0.3,0.3-0.6,0.4-1,0.4c-0.1,0-0.4-0.1-0.9-0.2c-0.5-0.2-0.9-0.2-1.3-0.2c-0.5,0-0.9,0.1-1.3,0.4    c-0.3,0.3-0.6,0.7-0.8,1.2c-0.2,0.5-0.3,1.2-0.4,1.9C329.8,204.6,329.7,205.5,329.7,206.6L329.7,206.6z M338.3,197.7h0.4v-2.1    v-1.3c0-0.3,0.1-0.6,0.3-0.8c0.1-0.2,0.3-0.4,0.6-0.6c0.3-0.1,0.5-0.2,0.9-0.2s0.8,0.2,1.2,0.5c0.2,0.2,0.4,0.5,0.5,0.8    c0.1,0.3,0.1,0.8,0.1,1.4v2.4h1.3c0.5,0,0.9,0.1,1.1,0.4s0.4,0.5,0.4,0.9c0,0.5-0.2,0.8-0.6,1s-0.9,0.3-1.6,0.3h-0.7v6.4    c0,0.5,0,1,0.1,1.3c0,0.3,0.1,0.5,0.3,0.7c0.2,0.2,0.4,0.3,0.8,0.3c0.2,0,0.5,0,0.8-0.1c0.4-0.1,0.6-0.1,0.8-0.1    c0.3,0,0.5,0.1,0.8,0.3c0.2,0.2,0.3,0.5,0.3,0.8c0,0.6-0.3,1-0.9,1.3c-0.6,0.3-1.5,0.4-2.7,0.4c-1.1,0-1.9-0.2-2.5-0.6    c-0.6-0.4-0.9-0.9-1.1-1.5s-0.3-1.5-0.3-2.6v-6.7h-0.5c-0.5,0-0.9-0.1-1.2-0.4c-0.3-0.2-0.4-0.5-0.4-0.9s0.1-0.7,0.4-0.9    C337.3,197.8,337.7,197.7,338.3,197.7L338.3,197.7z M350.8,194.3v5.2c0.4-0.5,0.9-0.9,1.3-1.2s0.9-0.5,1.4-0.7    c0.5-0.1,1.1-0.2,1.7-0.2c0.9,0,1.7,0.2,2.4,0.6c0.7,0.4,1.2,0.9,1.6,1.6c0.2,0.4,0.4,0.9,0.5,1.4c0.1,0.5,0.1,1.1,0.1,1.8v6.7    c0,0.7-0.2,1.2-0.5,1.6c-0.3,0.4-0.7,0.5-1.3,0.5c-1.2,0-1.7-0.7-1.7-2.1v-5.9c0-1.1-0.2-2-0.5-2.6c-0.3-0.6-1-0.9-1.9-0.9    c-0.6,0-1.2,0.2-1.7,0.5c-0.5,0.4-0.9,0.8-1.1,1.5c-0.2,0.5-0.3,1.5-0.3,2.8v4.6c0,0.7-0.2,1.2-0.5,1.6c-0.3,0.4-0.7,0.5-1.3,0.5    c-1.2,0-1.7-0.7-1.7-2.1v-15.2c0-0.7,0.2-1.2,0.5-1.6c0.3-0.4,0.7-0.5,1.3-0.5c0.6,0,1,0.2,1.3,0.5    C350.7,193.1,350.8,193.6,350.8,194.3L350.8,194.3z M382.5,195.4h-8.6v4.6h7.9c0.6,0,1,0.1,1.3,0.4c0.3,0.3,0.4,0.6,0.4,1    s-0.1,0.8-0.4,1c-0.3,0.3-0.7,0.4-1.3,0.4h-7.9v5.4h8.9c0.6,0,1.1,0.1,1.4,0.4c0.3,0.3,0.5,0.6,0.5,1.1c0,0.4-0.2,0.8-0.5,1.1    c-0.3,0.3-0.8,0.4-1.4,0.4h-10.4c-0.8,0-1.4-0.2-1.8-0.6c-0.4-0.4-0.5-1-0.5-1.8v-14c0-0.5,0.1-1,0.2-1.3c0.2-0.3,0.4-0.6,0.8-0.8    c0.3-0.2,0.8-0.2,1.3-0.2h10.1c0.6,0,1.1,0.1,1.4,0.4c0.3,0.3,0.4,0.6,0.4,1.1c0,0.4-0.1,0.8-0.4,1.1    C383.5,195.3,383.1,195.4,382.5,195.4L382.5,195.4z M390.5,199.3v0.4c0.6-0.8,1.3-1.4,2-1.8c0.7-0.4,1.6-0.6,2.5-0.6    c0.9,0,1.7,0.2,2.5,0.6c0.7,0.4,1.3,1,1.6,1.7c0.2,0.4,0.4,0.9,0.4,1.4c0.1,0.5,0.1,1.1,0.1,1.9v6.5c0,0.7-0.2,1.2-0.5,1.6    c-0.3,0.4-0.7,0.5-1.3,0.5c-0.5,0-0.9-0.2-1.3-0.6c-0.3-0.4-0.5-0.9-0.5-1.6v-5.8c0-1.2-0.2-2-0.5-2.6c-0.3-0.6-1-0.9-1.9-0.9    c-0.6,0-1.2,0.2-1.7,0.6c-0.5,0.4-0.9,0.9-1.1,1.5c-0.2,0.5-0.3,1.5-0.3,2.9v4.4c0,0.7-0.2,1.2-0.5,1.6c-0.3,0.4-0.8,0.5-1.3,0.5    c-0.5,0-0.9-0.2-1.2-0.6c-0.3-0.4-0.5-0.9-0.5-1.6v-10.1c0-0.7,0.1-1.2,0.4-1.5c0.3-0.3,0.7-0.5,1.2-0.5c0.3,0,0.6,0.1,0.8,0.2    c0.2,0.1,0.4,0.4,0.6,0.7C390.5,198.6,390.5,198.9,390.5,199.3L390.5,199.3z M412.8,214.5v-4.9c-0.7,0.7-1.4,1.2-2.1,1.5    c-0.7,0.4-1.5,0.5-2.4,0.5c-1.1,0-2.1-0.3-3-0.9c-0.9-0.6-1.6-1.4-2.1-2.5c-0.5-1.1-0.8-2.3-0.8-3.8s0.3-2.8,0.8-3.8    c0.5-1.1,1.2-1.9,2.1-2.4c0.9-0.6,1.9-0.8,3-0.8c0.9,0,1.8,0.2,2.5,0.6c0.7,0.4,1.4,1,1.9,1.8v-0.4c0-0.6,0.2-1.1,0.5-1.5    c0.3-0.4,0.7-0.5,1.2-0.5c0.5,0,0.9,0.2,1.2,0.5c0.3,0.3,0.5,0.8,0.5,1.5v15.1c0,1.6-0.6,2.3-1.7,2.3c-0.7,0-1.1-0.2-1.3-0.6    C412.9,215.8,412.8,215.2,412.8,214.5L412.8,214.5z M406,204.5c0,0.9,0.2,1.8,0.5,2.4c0.3,0.7,0.7,1.2,1.2,1.5    c0.5,0.3,1,0.5,1.6,0.5s1.2-0.2,1.7-0.5c0.5-0.3,0.9-0.8,1.3-1.5c0.3-0.7,0.5-1.5,0.5-2.5c0-0.7-0.1-1.3-0.3-1.9    c-0.2-0.6-0.4-1-0.8-1.4c-0.3-0.4-0.7-0.7-1.1-0.8c-0.4-0.2-0.8-0.3-1.3-0.3c-0.9,0-1.7,0.4-2.3,1.2    C406.3,202,406,203.1,406,204.5L406,204.5z M428.8,209.7v-0.4c-0.4,0.5-0.9,1-1.3,1.3c-0.5,0.4-1,0.6-1.5,0.8    c-0.5,0.2-1.2,0.3-1.9,0.3c-0.8,0-1.6-0.2-2.3-0.5c-0.7-0.4-1.2-0.8-1.6-1.5s-0.7-1.8-0.7-3.2v-6.9c0-0.7,0.2-1.2,0.5-1.6    c0.3-0.3,0.7-0.5,1.3-0.5c0.5,0,1,0.2,1.3,0.5c0.3,0.4,0.5,0.9,0.5,1.6v5.6c0,0.8,0.1,1.5,0.2,2c0.1,0.6,0.4,1,0.7,1.3    c0.4,0.3,0.8,0.5,1.4,0.5s1.1-0.2,1.7-0.5s0.9-0.8,1.1-1.4c0.2-0.5,0.3-1.6,0.3-3.3v-4.3c0-0.7,0.2-1.2,0.5-1.6    c0.3-0.4,0.7-0.5,1.3-0.5s0.9,0.2,1.3,0.5c0.3,0.3,0.5,0.9,0.5,1.6v10.2c0,0.7-0.2,1.2-0.5,1.5c-0.3,0.3-0.7,0.5-1.2,0.5    c-0.5,0-0.9-0.2-1.2-0.5C428.9,210.8,428.8,210.3,428.8,209.7L428.8,209.7z M437.3,195.8c-0.5,0-0.9-0.1-1.3-0.4    c-0.3-0.3-0.5-0.7-0.5-1.3c0-0.5,0.2-0.9,0.5-1.2c0.4-0.3,0.8-0.5,1.2-0.5c0.5,0,0.9,0.1,1.2,0.4c0.4,0.3,0.5,0.7,0.5,1.3    c0,0.5-0.2,1-0.5,1.3C438.2,195.6,437.8,195.8,437.3,195.8L437.3,195.8z M439,199.4v10.1c0,0.7-0.2,1.2-0.5,1.6    c-0.3,0.4-0.8,0.5-1.3,0.5c-0.5,0-0.9-0.2-1.3-0.6c-0.3-0.4-0.5-0.9-0.5-1.6v-10c0-0.7,0.2-1.2,0.5-1.6c0.3-0.4,0.7-0.5,1.3-0.5    c0.5,0,0.9,0.2,1.3,0.5C438.9,198.3,439,198.8,439,199.4z M446.1,206.6v2.9c0,0.7-0.2,1.2-0.5,1.6c-0.3,0.4-0.8,0.5-1.3,0.5    s-0.9-0.2-1.2-0.5c-0.3-0.4-0.5-0.9-0.5-1.6v-9.7c0-1.6,0.6-2.4,1.7-2.4c0.6,0,1,0.2,1.3,0.6c0.3,0.4,0.4,0.9,0.4,1.6    c0.4-0.7,0.8-1.3,1.3-1.6c0.4-0.4,1-0.6,1.8-0.6c0.7,0,1.4,0.2,2.1,0.6c0.7,0.4,1,0.9,1,1.5c0,0.4-0.1,0.8-0.4,1.1    c-0.3,0.3-0.6,0.4-1,0.4c-0.1,0-0.4-0.1-0.9-0.2c-0.5-0.2-0.9-0.2-1.3-0.2c-0.5,0-0.9,0.1-1.3,0.4c-0.3,0.3-0.6,0.7-0.8,1.2    c-0.2,0.5-0.3,1.2-0.4,1.9C446.2,204.6,446.1,205.5,446.1,206.6L446.1,206.6z M457.4,212.1l0.3-0.8l-4.3-10.9    c-0.3-0.6-0.4-1.1-0.4-1.4c0-0.3,0.1-0.6,0.2-0.8c0.2-0.3,0.4-0.5,0.6-0.6c0.3-0.2,0.6-0.2,0.8-0.2c0.5,0,0.9,0.2,1.1,0.5    s0.5,0.8,0.7,1.4l3,8.6l2.8-8c0.2-0.6,0.4-1.2,0.6-1.5c0.2-0.4,0.4-0.6,0.6-0.7c0.2-0.1,0.5-0.2,0.9-0.2c0.3,0,0.5,0.1,0.8,0.2    c0.2,0.1,0.4,0.3,0.6,0.6s0.2,0.5,0.2,0.8c0,0.2-0.1,0.4-0.2,0.7l-0.3,0.9l-4.6,12c-0.4,1.1-0.8,1.9-1.2,2.5    c-0.4,0.6-0.9,1.1-1.5,1.4c-0.6,0.3-1.5,0.5-2.5,0.5c-1,0-1.8-0.1-2.3-0.3c-0.5-0.2-0.8-0.6-0.8-1.2c0-0.4,0.1-0.7,0.4-0.9    c0.2-0.2,0.6-0.3,1.1-0.3c0.2,0,0.4,0,0.6,0.1s0.4,0.1,0.6,0.1c0.4,0,0.7-0.1,0.9-0.2c0.2-0.1,0.4-0.3,0.6-0.6    C456.9,213.1,457.2,212.7,457.4,212.1L457.4,212.1z" fill="#009490"  />
		
		
	</g>
	
	
</g><path d="M90.8,155.4c-1.3,2.7-2.4,5.1-3.2,7.7c-0.4,1.3-0.8,2.6-1,4.1c-0.2,1.5-0.5,3.1-0.6,4.9  c-0.1,1-0.2,2.4-0.3,4.3c0,0.9,0,1.9-0.1,3v3c0,1.1,0.1,2.2,0.1,3.4c0,1.1,0.1,2.3,0.2,3.5c0.1,1.2,0.1,2.4,0.3,3.6  c0.5,4.8,1.3,9.8,2.4,14.8c1.2,5,2.7,10.2,4.5,15.2c3.7,10.1,8.9,20.1,15.5,28.8c6.5,8.7,14.3,16.3,22.8,21.6  c4.2,2.7,8.5,4.8,12.7,6.4s8.4,2.5,12.3,3.2c7.8,1.1,14.2,0.5,18.6-0.1c2.2-0.3,3.9-0.7,5.1-1c0.6-0.1,1-0.2,1.3-0.3  s0.4-0.1,0.4-0.1s0.6-0.2,1.7-0.5c0.6-0.2,1.3-0.3,2.1-0.6c0.8-0.3,1.7-0.6,2.8-1c4.2-1.5,10-4.1,16.6-8.1c3.2-2.1,6.7-4.5,10.1-7.3  c1.8-1.4,3.4-2.9,5.2-4.5c1.7-1.6,3.4-3.3,5.1-5.1c1.7-1.8,3.3-3.7,5-5.6c1.6-2,3.2-4,4.8-6.1c3.1-4.2,6.1-8.7,8.7-13.4  s5.1-9.7,7.2-14.7c2.1-5.1,3.8-10.2,5.3-15.4c0.4-1.3,0.7-2.6,1-3.9c0.2-0.7,0.3-1.3,0.5-2l0.4-1.9c0.5-2.5,1.2-4.9,1.9-7.3  c0.7-2.4,1.4-4.7,2.3-7c0.4-1.1,0.8-2.2,1.3-3.3c0.2-0.5,0.5-1.1,0.7-1.6s0.4-0.9,0.6-1.4c1.9-4.1,3.8-7.3,4.9-8.7  c1.9-2.7,3.5-4.7,5.2-6.5c1.7-1.8,3.4-3.4,6.1-4.8c-3-0.1-5.8,0.8-8.2,2.2c-2.5,1.4-4.7,3.5-6.9,6.6c-1.2,1.6-3.3,5.1-5.3,9.4  c-0.2,0.5-0.4,1-0.6,1.4c-0.2,0.6-0.5,1.1-0.7,1.7c-0.5,1.1-0.9,2.3-1.3,3.5c-0.9,2.4-1.6,4.8-2.4,7.3c-0.7,2.5-1.4,5-1.9,7.6  c-0.1,0.7-0.3,1.3-0.4,2c-0.1,0.6-0.3,1.2-0.4,1.8c-0.3,1.2-0.6,2.5-1,3.7c-1.4,5-3.1,10-5.1,14.9c-2,4.9-4.4,9.6-6.9,14.2  c-2.5,4.6-5.4,8.9-8.4,13c-1.5,2-3.1,4-4.6,5.9c-1.6,1.8-3.2,3.7-4.8,5.4c-1.6,1.7-3.3,3.3-4.9,4.9c-1.7,1.5-3.3,3-5,4.3  c-3.3,2.7-6.6,5-9.6,7c-6.2,3.9-11.7,6.3-15.7,7.7c-1,0.3-1.9,0.6-2.6,0.9c-0.8,0.2-1.4,0.4-2,0.6c-1.1,0.3-1.6,0.5-1.6,0.5  s-0.1,0-0.4,0.1c-0.3,0.1-0.7,0.2-1.2,0.3c-1.1,0.2-2.7,0.6-4.7,0.9c-4.1,0.6-10.1,1.1-17.2,0.1c-3.6-0.6-7.4-1.5-11.3-2.9  c-3.9-1.5-7.9-3.5-11.8-6c-7.9-5-15.3-12.1-21.5-20.4c-6.3-8.3-11.2-17.9-14.8-27.6c-1.8-4.9-3.2-9.8-4.3-14.7  c-1.1-4.9-1.8-9.7-2.3-14.3c-0.1-1.2-0.2-2.3-0.3-3.4c-0.1-1.1-0.2-2.2-0.2-3.3s-0.1-2.2-0.1-3.3v-1.6v-1.2V177  c0.1-1.7,0.2-3.2,0.2-4.1c0.1-1.7,0.3-3.3,0.3-4.7c0-1.4,0.1-2.8,0.1-4.1C90.9,160.9,90.9,158.4,90.8,155.4L90.8,155.4z" fill="#009490"  /><path d="M140.1,237.7c1.1,1.1,1.8,2.2,2.7,3.3c0.8,1.1,1.6,2.1,2.5,3.1c0.9,1,1.9,2,3,3c1.2,1,2.6,2,4.4,2.9  c1,0.4,2.6,1.2,4.9,1.2c1.2,0,2.3-0.2,3.5-0.5c0.3-0.1,0.5-0.2,0.8-0.2c0.4-0.1,0.7-0.3,1-0.4c0.7-0.3,1.3-0.6,2-1  c1.3-0.8,2.5-1.7,3.6-2.8c0.3-0.3,0.5-0.6,0.8-0.9c0.2-0.4,0.5-0.7,0.7-1.1c0.5-0.8,0.8-1.8,1-2.9c0.1-0.6,0.2-1.2,0.3-1.9  c0-0.3,0.1-0.6,0.1-0.9l0.3-0.9c0.6-2.4,1.7-4.6,3.4-6.2c1.6-1.6,3.7-2.8,5.9-3.4c1.1-0.3,2.2-0.5,3.3-0.6c0.3,0,0.5-0.1,0.8-0.1  h1.4c0.1,0,0.1-0.1,0.2-0.1l0.4-0.2l0.6-0.3c0.3-0.2,0.6-0.3,1-0.5c1.4-0.8,2.7-1.9,3.6-3.4c0.9-1.5,1.2-3.4,1-5  c-0.1-0.8-0.3-1.5-0.5-2.2c-0.1-0.4-0.3-0.7-0.4-1c-0.1-0.2-0.2-0.3-0.3-0.5c-0.1-0.3-0.3-0.5-0.5-0.7c-1.1-1.3-2.1-2-3-2.7  c-1-0.7-1.9-1.3-2.9-1.8c-0.5-0.3-0.9-0.5-1.4-0.8c-0.4-0.2-0.9-0.5-1.3-0.7c-1.6-1-3.2-1.9-4.5-2.7c-1.4-0.8-2.6-1.6-3.7-2.2  c-0.3-0.2-0.5-0.3-0.8-0.5c-0.1-0.1-0.2-0.1-0.4-0.2l-0.5-0.3c-0.2-0.1-0.5-0.3-0.7-0.4c-0.8-0.6-0.9-1-0.7-0.7c0,0-0.1-0.1,0,0  c0,0-0.1-0.1,0,0c-0.8-1.1-0.8-2.4-0.3-3.7c0.4-1.3,1.2-2.7,1.9-4.1c0.3-0.7,0.6-1.4,0.8-2.2c0.1-0.4,0.2-0.8,0.2-1.2v-0.6v-0.5  c0-1.2-0.1-2.1-0.1-2.8c-0.1-1.5,0-2.2,0-2.7c0-0.2,0.1-0.4,0.1-0.4v-0.1v-0.1c0.1-0.1-0.1,0,0.4-0.9c0.2-0.4,0.5-0.9,0.8-1.5  c0.1-0.1,0.2-0.3,0.3-0.4c0-0.1,0.1-0.2,0.1-0.2c-0.1-0.1-0.2-0.1-0.2-0.2c-0.3-0.2-0.7-0.4-1.1-0.7c-0.9-0.5-1.6-1.2-1.7-1.4  c-0.3-0.3-0.6-0.8-0.9-1.3c-0.1-0.1-0.2-0.3-0.4-0.7c-0.1-0.2-0.2-0.4-0.3-0.7c-0.1-0.3-0.1-0.6-0.1-0.7h-0.1l-0.3-0.1  c-0.1,0-0.3-0.1-0.5-0.1h-0.1c-0.2-0.1,1.8,0.6,0.9,0.3v-0.2l0.1-0.2c0.1-0.2,0.2-0.4,0.3-0.7c0.2-0.4,0.6-0.8,1.3-1.3  c0.4-0.2,0.8-0.5,1.2-0.7c0.2-0.1,0.5-0.2,0.8-0.3c0.1-0.1,0.3-0.1,0.4-0.2h0.1c0.3-0.1-0.4,0.1-0.3,0.1h0.2l0.3-0.1  c0.9-0.2,1.8-0.8,2.7-1.4c0.8-0.7,1.5-1.4,2.1-2.3c0.5-0.8,1.1-1.9,1.5-3.1c0.2-0.6,0.4-1.3,0.6-2.1c0-0.2,0.1-0.4,0.1-0.7  c0-0.2,0-0.3,0.1-0.5c0-0.3,0.1-0.7,0.1-1c0.5-2.8,1.1-6.2,2.4-9.6c0.3-0.8,0.7-1.7,1.1-2.4l0.2-0.3l0.1-0.1l0.5-0.6  c0.3-0.4,0.6-0.8,1-1.2c1.3-1.6,2.7-3.1,4.3-4.4c1.6-1.3,3.4-2.5,5.4-3.5c2-1,4.1-1.9,6.1-2.4c1-0.3,2.2-0.4,3.2-0.6  c1.1-0.1,2.2-0.2,3.3-0.2c2.2-0.1,4.4,0.1,6.6,0.4c1.1,0.2,2.1,0.4,3.2,0.6c0.9,0.2,1.7,0.5,2.6,0.7c0.8,0.3,1.6,0.5,2.3,0.8  c0.8,0.2,1.4,0.6,2.1,0.8c0.6,0.3,1.3,0.6,1.8,0.8c1.1,0.6,2,1.1,2.6,1.4c1.4,0.9,2.7,1.6,3.9,2.4c1.2,0.8,2.3,1.4,3.4,2.1  c1.1,0.7,2.2,1.3,3.3,2.1c1.1,0.7,2.2,1.5,3.5,2.3c-0.7-1.3-1.4-2.5-2.2-3.7c-0.8-1.1-1.6-2.2-2.5-3.2c-0.9-1.1-2-2-3.1-3  c-0.6-0.5-1.2-0.9-1.9-1.4c-0.7-0.5-1.4-1-2.2-1.4c-0.7-0.4-1.7-0.9-2.9-1.6c-0.6-0.3-1.3-0.6-2-0.9c-0.7-0.3-1.5-0.7-2.3-0.9  c-0.8-0.3-1.7-0.6-2.6-0.9c-0.9-0.3-1.9-0.5-2.9-0.8c-1.2-0.3-2.4-0.5-3.5-0.7c-2.4-0.3-4.9-0.6-7.4-0.5c-1.3,0-2.5,0.1-3.8,0.2  c-1.3,0.2-2.5,0.4-3.8,0.7c-0.6,0.1-1.3,0.3-1.9,0.5l-0.9,0.3l-0.9,0.3c-1.2,0.4-2.3,1-3.4,1.5c-2.2,1.1-4.4,2.5-6.3,4.1  c-1.9,1.6-3.5,3.3-4.9,5c-0.3,0.4-0.7,0.9-1,1.3l-0.5,0.6c-0.1,0.1-0.3,0.4-0.4,0.6l-0.2,0.4c-0.6,1-1,2-1.4,3  c-1.5,4-2.2,7.5-2.7,10.5c-0.1,0.4-0.1,0.7-0.2,1.1c0,0.2,0,0.4-0.1,0.5c0,0,0,0.2-0.1,0.3c-0.1,0.5-0.3,1-0.4,1.5  c-0.3,0.9-0.7,1.6-1,2.1c-0.4,0.5-0.8,0.9-1.1,1.3c-0.4,0.3-0.8,0.5-1.2,0.6c-0.2,0.1-0.4,0.1-0.6,0.2c-0.2,0.1-0.3,0.1-0.5,0.2  c-0.3,0.1-0.7,0.3-1,0.4c-0.6,0.3-1.2,0.6-1.8,1c-1.1,0.7-2.1,1.7-2.7,2.8c-0.3,0.5-0.5,1-0.7,1.5l-0.2,0.6c-0.1,0.4-0.2,0.7-0.2,1  c0,1.2,0.2,1.8,0.3,2.4c0.2,0.5,0.3,0.9,0.5,1.2c0.3,0.6,0.5,0.9,0.6,1.1c0.5,0.8,0.9,1.5,1.4,2c0.6,0.7,0.7,0.7,0.6,0.7  c-0.1,0.3-0.1,0.4-0.1,0.5v0.4c0,0.2-0.1,0.4-0.1,0.8c-0.1,0.7-0.1,1.9,0,3.5c0,0.8,0.1,1.7,0.1,2.6v0.5c0,0.2,0,0.3-0.1,0.6  c-0.1,0.4-0.3,0.9-0.6,1.5c-0.5,1.1-1.4,2.5-2.1,4.6c-0.3,1-0.6,2.3-0.5,3.7s0.5,2.9,1.5,4.1l0.1,0.1l0.1,0.1c-0.2-0.3-0.2-0.3,0,0  s0.7,0.9,1.5,1.5c0.4,0.3,0.9,0.7,1.6,1c0.2,0.1,0,0,0.1,0.1c0.1,0.1,0.2,0.1,0.4,0.2s0.5,0.3,0.8,0.5c1,0.6,2.3,1.4,3.7,2.2  s2.9,1.8,4.6,2.8c0.4,0.2,0.9,0.5,1.3,0.7c0.4,0.2,0.8,0.5,1.3,0.7c0.9,0.5,1.7,1,2.5,1.6s1.7,1.3,2,1.7c0,0.1,0.1,0.2,0.1,0.3  c0.1,0.2,0.2,0.4,0.2,0.6l0.3,1.2c0.1,0.8-0.1,1.5-0.4,2.1c-0.4,0.6-1,1.2-1.9,1.7l-0.6,0.3l-0.2,0.1c-0.1,0,0,0,0,0h-0.6  c-0.4,0-0.7,0-1,0.1c-1.4,0.1-2.8,0.4-4.2,0.8c-2.8,0.8-5.7,2.3-7.9,4.6c-2.3,2.3-3.8,5.3-4.5,8.2l-0.3,1.1  c-0.1,0.4-0.1,0.8-0.2,1.1c-0.1,0.7-0.2,1.5-0.3,2.2c-0.1,0.5-0.5,1.4-1.3,2.1c-0.7,0.8-1.6,1.5-2.6,2c-0.5,0.3-1,0.5-1.5,0.7  c-0.2,0.1-0.5,0.2-0.7,0.3l-0.5,0.2c-0.8,0.2-1.5,0.3-2.1,0.3c-1.3,0-2.4-0.5-3.1-0.8c-1.4-0.6-2.6-1.4-3.8-2.1  c-1.2-0.8-2.3-1.5-3.4-2.2c-1.1-0.7-2.2-1.4-3.4-2C142.8,238.9,141.5,238.2,140.1,237.7L140.1,237.7z" fill="#7FC9C7"  /><path d="M155.3,7.8c-2.2-2.1-4.3-3.7-6.8-4.9c-2.5-1.3-5.3-2.2-9-2.6c-1.3-0.1-3.3-0.4-7.6-0.2  c-2.5,0.1-5.4,0.5-8.4,1.2c-3.1,0.7-6.4,1.7-9.6,3.1c-6.6,2.7-13,7-18.2,11.6c-5.3,4.6-9.3,9.6-11.9,13.4c-0.6,1-1.2,1.8-1.7,2.6  c-0.5,0.8-0.9,1.5-1.2,2c-0.3,0.6-0.6,1-0.8,1.3c-0.2,0.3-0.3,0.5-0.3,0.5s-0.3,0.5-0.8,1.5s-1.3,2.4-2.1,4.2  c-1.7,3.6-3.7,8.7-5.2,14.7S69.5,69,69.9,75.6c0.3,6.7,1.9,13.1,3.9,18.1c2.2,5.3,4.2,8.2,5.3,9.7c2.2,3,4.4,5.1,6.7,6.6  c2.3,1.5,4.7,2.6,7.6,3.5c-2.2-2.2-3.7-4.1-5.3-6c-1.6-2-3.2-4-5.2-6.8c-0.9-1.4-2.8-4-4.7-8.8c-1.8-4.6-3.3-10.4-3.6-16.6  c-0.3-6.2,0.3-12.6,1.7-18.2c1.3-5.6,3.3-10.4,4.8-13.8c0.8-1.7,1.5-3,2-3.9c0.5-0.9,0.8-1.4,0.8-1.4s0.1-0.1,0.2-0.4  c0.2-0.3,0.4-0.7,0.7-1.2c0.3-0.5,0.7-1.2,1.2-1.9c0.5-0.7,1-1.5,1.6-2.4c2.5-3.5,6.3-8.2,11.2-12.6c4.9-4.3,10.9-8.3,17-10.8  c3-1.3,6-2.2,8.9-2.9c2.8-0.6,5.4-0.9,7.7-1.1c3.8-0.2,5.7,0.1,6.8,0.1c3.3,0.4,5.9,0.8,8.4,1.2C149.9,6.5,152.4,7,155.3,7.8  L155.3,7.8z M178,22.4c1.5,2.6,2.3,5,3.1,7.3c0.7,2.4,1.4,4.9,2.1,8.2c0.1,0.4,0.2,1,0.3,1.6c0.1,0.7,0.2,1.4,0.3,2.2  c0.1,0.8,0.1,1.8,0.1,2.8v1.5c0,0.5-0.1,1-0.1,1.6c0,0.5,0,1.1-0.1,1.6s-0.1,1.1-0.2,1.7c-0.1,1.1-0.3,2.3-0.5,3.4  c-0.3,1.2-0.5,2.3-0.8,3.5c-0.6,2.4-1.3,4.9-2,7.4c-0.7,2.5-1.6,5-2.3,7.8c-0.4,1.4-0.7,2.9-0.8,4.4c0,0.8,0,1.6,0.1,2.4  s0.3,1.6,0.5,2.3c0.8,2.9,2,5.3,3.2,7.7c0.6,1.2,1.2,2.3,1.8,3.5l0.5,0.8c0.1,0.1,0,0,0,0.1s0.1,0.2,0.1,0.3  c0.1,0.4,0.2,0.8,0.2,1.1c0,0.7-0.2,1.3-0.6,1.9c-0.4,0.6-1,1-1.9,1.4c-0.8,0.4-1.7,0.8-2.5,1.1c-0.9,0.3-1.7,0.5-2.8,0.8  c-0.5,0.1-1.1,0.4-1.7,0.7c-0.6,0.3-1.2,0.8-1.7,1.3c-0.5,0.5-0.8,1.1-1,1.6s-0.4,0.9-0.5,1.4c-0.3,0.9-0.4,1.9-0.4,2.6  c0,0.7,0,1.2-0.1,1.6c-0.1,0.8-0.3,1.5-0.4,1.9c-0.2,0.5-0.3,0.7-0.3,0.7s-0.1,0.1-0.2,0.5c-0.2,0.4-0.4,0.9-0.9,1.9  c-0.5,0.9-1.3,2.2-2.6,3.8c-0.6,0.8-1.4,1.7-2.3,2.7L163,122l-0.2,0.2l-0.1,0.3l-0.2,0.5c-0.1,0.4-0.3,0.8-0.4,1.2  c-0.3,0.7-0.5,1.5-0.8,2.3c-0.3,0.8-0.7,1.9-1.2,3.3c-0.1,0.2-0.1,0.4-0.2,0.5l-0.1,0.3l-0.1,0.1l-0.2,0.2c-0.5,0.5-1.2,0.9-1.9,1.3  c-1.4,0.7-3.2,1.1-5,0.7c-0.9-0.1-1.9-0.6-2.9-1c-0.5-0.3-0.9-0.6-1.4-0.9c-0.5-0.3-1-0.8-1.6-1.1c-4.3-3.2-8.7-6.8-12.8-10.4  c-0.5-0.5-1-0.9-1.5-1.4l-0.9-0.8c-0.6-0.5-0.9-0.6-1.3-0.8c-1.5-0.7-3-1.2-4.7-1.3c-1.6-0.1-3.3,0.1-4.8,0.7  c-0.4,0.1-0.7,0.3-1.1,0.5c-0.3,0.2-0.7,0.3-1,0.5l-0.9,0.6l-0.4,0.3l-0.4,0.4c-0.6,0.6-1.2,1.1-1.6,1.7s-0.9,1.1-1.2,1.6l-0.9,1.5  c-0.3,0.5-0.5,1-0.7,1.4c-0.4,0.9-0.7,1.7-0.9,2.4c-0.1,0.3-0.2,0.7-0.3,1c-0.1,0.3-0.1,0.6-0.2,0.8c-0.8,4-0.1,7.2,1.1,9.8  c1.2,2.6,2.9,4.8,5.2,6.7c-1.2-2.8-1.7-5.2-2-7.6s-0.4-4.9,0.2-7.9c0-0.2,0.1-0.4,0.1-0.6c0.1-0.2,0.2-0.5,0.2-0.7  c0.2-0.5,0.3-1.2,0.7-1.8c0.2-0.3,0.3-0.7,0.5-1.1s0.5-0.8,0.7-1.2s0.6-0.8,0.9-1.2c0.3-0.4,0.7-0.8,1.1-1.2c1.3-1.3,3.1-2,5-1.8  c1,0.1,2,0.4,3,0.8c0.2,0.1,0.5,0.3,0.4,0.2l0.7,0.6c0.5,0.5,1,0.9,1.6,1.4c4.2,3.7,8.7,7.4,13.1,10.6c0.6,0.4,1.1,0.8,1.7,1.2  c0.6,0.4,1.2,0.8,1.9,1.2c1.3,0.7,2.7,1.3,4.2,1.5c1.4,0.3,2.9,0.3,4.3,0.1c1.4-0.2,2.6-0.7,3.7-1.2c1.1-0.6,2-1.2,2.8-1.9l0.3-0.3  l0.4-0.3c0.3-0.3,0.6-0.6,0.7-1c0.2-0.5,0.3-1,0.5-1.4c0.5-1.4,0.9-2.5,1.2-3.3s0.6-1.6,0.8-2.3c0.1-0.3,0.2-0.7,0.4-1l0.1-0.2  c1-1.1,1.8-2.1,2.6-3c1.4-1.8,2.3-3.3,3-4.4c0.6-1.1,1-1.9,1.1-2.3c0.2-0.5,0.3-0.6,0.3-0.6l0.3-0.9c0.2-0.6,0.5-1.6,0.6-2.9  c0.1-0.7,0.1-1.4,0.1-1.9c0-0.6,0.1-1,0.2-1.5c0.1-0.2,0.2-0.6,0.3-0.8c0.1-0.2,0.2-0.4,0.3-0.5s0.2-0.2,0.4-0.3  c0.2-0.1,0.5-0.2,0.9-0.3c0.8-0.2,1.8-0.4,2.9-0.8c1.1-0.3,2.2-0.8,3.3-1.4c1.1-0.6,2.4-1.4,3.4-2.7c1-1.3,1.6-3.1,1.6-4.7  c0-0.8-0.1-1.7-0.4-2.4c-0.1-0.2-0.1-0.4-0.2-0.6c-0.1-0.2-0.3-0.6-0.4-0.7l-0.4-0.8c-0.6-1.1-1.2-2.1-1.7-3.3  c-1.1-2.2-2.2-4.6-2.8-6.8c-0.6-2.1-0.4-4.3,0.3-6.7c0.7-2.5,1.6-5.1,2.3-7.6c0.8-2.6,1.5-5.1,2.1-7.6c0.3-1.2,0.6-2.6,0.8-3.8  c0.3-1.2,0.4-2.5,0.6-3.7c0.1-0.6,0.2-1.2,0.2-1.8c0-0.6,0.1-1.2,0.1-1.8c0-0.6,0.1-1.2,0.1-1.7v-0.9v-0.7c-0.1-1.1,0-2.1-0.2-3.1  c-0.1-0.9-0.2-1.8-0.3-2.5c-0.1-0.7-0.3-1.4-0.3-1.9c-0.8-3.7-2-6.4-3.6-8.8C182.5,25.8,180.6,23.9,178,22.4L178,22.4z" fill="#009490"  /><path d="M170.8,20c0.1,0.8-0.3,1.7-0.9,2.1c-0.6,0.5-1.2,0.8-1.9,1.1c-1.4,0.5-2.9,0.8-4.4,1c-3,0.4-5.9,0.6-8.9,0.9  c-3,0.2-6.1,0.5-9.5,0.9c-1.7,0.2-3.5,0.4-5.5,0.8c-2.2,0.4-4.2,1.1-6.4,1.7c-0.7,0.3-1.6,0.6-2.6,1c-0.5,0.2-1.1,0.4-1.7,0.7  c-0.6,0.3-1.2,0.6-1.9,1c-2.7,1.3-6.3,3.6-10.2,7.5c-3.7,3.6-7.5,9.5-9.8,16.1c-2.5,6.5-4,13.5-5.3,19.8c-0.6,3.2-1.2,5.9-1.8,8.5  c-0.7,2.5-1.3,4.8-2,6.6c-0.6,1.9-1.2,3.3-1.7,4.3c-0.4,1-0.7,1.6-0.7,1.6s-0.9,1.8-2.5,4.6c-1.6,2.8-4.2,6.4-7.9,9.8  c-3.6,3.3-8.3,6.2-13.4,8.2c-5.1,1.9-10.4,3.1-14.9,3.5c-5.8,0.8-10.3,0.3-13.9-0.4c-3.6-0.6-6.1-1.6-7.9-2.3  c-7-2.7-12.5-5.8-17.9-8.5c-5.4-2.8-10.8-5.5-17.3-8.6c4.3,5.7,8,10.5,12.6,15c2.3,2.2,4.8,4.4,7.9,6.5c3,2.1,6.5,4,10.8,5.7  c2.1,0.8,5.2,2,9.7,2.8c4.4,0.9,10.4,1.4,17.2,0.5c5.1-0.5,11.4-1.8,17.5-4.2c6.2-2.3,12.2-6,16.8-10.3c4.6-4.3,7.9-8.9,9.8-12.3  c1.9-3.4,2.9-5.6,2.9-5.6s0.3-0.7,0.8-1.8c0.5-1.2,1.3-2.9,2-5c0.8-2.1,1.5-4.7,2.3-7.5c0.7-2.8,1.4-6.1,2-9  c1.2-6.1,2.7-12.6,4.8-18.1c2-5.5,4.9-9.8,7.5-12.4c2.8-2.8,5.3-4.5,7.4-5.5c0.5-0.3,1-0.5,1.4-0.8c0.5-0.2,0.9-0.4,1.3-0.5  c0.8-0.3,1.5-0.6,2-0.8c1.8-0.5,3.5-1.2,5-1.6c1.8-0.4,3.5-0.9,5.1-1.3c3.4-0.9,6.5-1.9,9.5-3c3-1.2,5.9-2.5,8.7-4.4  c1.4-0.9,2.8-1.9,4.1-3.3c0.6-0.7,1.2-1.5,1.6-2.4C171.4,21.9,171.3,20.9,170.8,20L170.8,20z" fill="#7FC9C7"  /></svg>