<svg viewBox="0 0 1024.8 283.5" role="img" aria-labelledby="infant-mortality--title" xmlns="http://www.w3.org/2000/svg" xmlns:xlink="http://www.w3.org/1999/xlink"><title id="infant-mortality--title">Inequalities in Infant Mortality</title><path d="M818.4,3.3c29.6,0,53.5,24,53.5,53.5v169.9c0,29.6-24,53.5-53.5,53.5H56.7c-29.6,0-53.5-24-53.5-53.5V56.9  c0-29.6,24-53.5,53.5-53.5L818.4,3.3L818.4,3.3z" fill="#FFFFFF"  /><g><path d="M59.8,47.7V124h-7.3V47.7H59.8z M81.1,68.9v9.5h0.2c1.3-3.3,3.6-6,6.8-8.1c3.3-2,6.9-3,10.8-3   c3.8,0,7.1,0.5,9.7,1.5c2.6,1,4.7,2.4,6.2,4.2c1.6,1.8,2.7,4,3.3,6.7c0.6,2.6,1,5.6,1,8.9V124h-6.7V89.6c0-2.4-0.2-4.5-0.6-6.6   c-0.4-2-1.2-3.8-2.2-5.3c-1.1-1.5-2.5-2.7-4.3-3.5c-1.8-0.9-4.1-1.3-6.8-1.3c-2.7,0-5.1,0.5-7.2,1.4c-2.1,1-3.9,2.3-5.3,4   c-1.5,1.7-2.6,3.7-3.4,6c-0.8,2.3-1.3,4.8-1.3,7.5V124h-6.7V68.9L81.1,68.9L81.1,68.9z M136.8,105.8c0.7,2.6,1.8,4.9,3.3,7   c1.5,2.1,3.4,3.8,5.7,5.1c2.3,1.4,5,2,8.2,2c4.9,0,8.8-1.3,11.5-3.8c2.8-2.6,4.7-6,5.8-10.3h6.7c-1.4,6.3-4,11.1-7.9,14.5   c-3.8,3.4-9.2,5.1-16.2,5.1c-4.3,0-8.1-0.8-11.3-2.3c-3.2-1.5-5.8-3.6-7.7-6.3c-2-2.7-3.5-5.8-4.4-9.3c-1-3.5-1.4-7.3-1.4-11.2   c0-3.6,0.5-7.2,1.4-10.7c1-3.5,2.4-6.6,4.4-9.3c2-2.7,4.6-4.9,7.7-6.6c3.2-1.7,6.9-2.5,11.3-2.5c4.4,0,8.2,0.9,11.3,2.7   c3.1,1.8,5.7,4.1,7.6,7c2,2.9,3.4,6.2,4.2,9.9c0.9,3.7,1.2,7.5,1.1,11.4h-42.4C135.8,100.7,136.1,103.2,136.8,105.8z M170.1,85.2   c-0.8-2.3-2-4.4-3.5-6.2c-1.5-1.8-3.4-3.3-5.4-4.4c-2.1-1.1-4.6-1.7-7.3-1.7c-2.8,0-5.2,0.5-7.4,1.7c-2.1,1.1-4,2.6-5.4,4.4   c-1.5,1.8-2.7,3.9-3.6,6.3c-0.9,2.4-1.5,4.8-1.8,7.3h35.7C171.4,90.1,170.9,87.6,170.1,85.2z M229,144.3v-30.8h-0.2   c-0.7,2-1.7,3.7-3,5.2c-1.3,1.5-2.8,2.7-4.5,3.7c-1.7,1-3.6,1.8-5.5,2.2c-2,0.5-4,0.8-6,0.8c-4.2,0-7.9-0.8-11-2.3   c-3.1-1.5-5.7-3.6-7.7-6.3c-2.1-2.7-3.6-5.8-4.6-9.3c-1-3.5-1.5-7.3-1.5-11.2c0-3.9,0.5-7.6,1.5-11.2c1-3.5,2.5-6.6,4.6-9.3   c2.1-2.7,4.6-4.8,7.7-6.4c3.1-1.6,6.7-2.3,11-2.3c2,0,4,0.3,6,0.9c2,0.6,3.9,1.4,5.7,2.5c1.7,1,3.3,2.3,4.8,3.8   c1.4,1.4,2.4,3.1,3.2,5h0.2V68.9h6.2v75.4L229,144.3C229,144.3,229,144.3,229,144.3z M192.7,104.9c0.7,2.8,1.7,5.3,3.2,7.5   c1.4,2.2,3.4,4,5.6,5.4c2.3,1.4,5,2.1,8.2,2.1c3.6,0,6.6-0.7,9-2.1c2.5-1.4,4.4-3.2,6-5.4c1.5-2.2,2.6-4.7,3.3-7.5   c0.7-2.8,1-5.6,1-8.5c0-2.8-0.3-5.7-1-8.5c-0.7-2.8-1.8-5.3-3.3-7.5c-1.5-2.2-3.5-4-6-5.4c-2.5-1.4-5.5-2.1-9-2.1   c-3.2,0-6,0.7-8.2,2.1c-2.2,1.4-4.2,3.2-5.6,5.4c-1.5,2.2-2.5,4.7-3.2,7.5C191.3,93.5,191.3,99.4,192.7,104.9z M287,124v-9.9h-0.2   c-1.8,3.7-4.4,6.5-7.7,8.5c-3.4,2-7.1,2.9-11.3,2.9c-3.5,0-6.5-0.5-8.9-1.4c-2.5-1-4.4-2.3-6-4.1c-1.5-1.8-2.7-4-3.4-6.5   c-0.7-2.6-1.1-5.5-1.1-8.8V68.9h6.7v35.9c0.1,5,1.3,8.8,3.5,11.3c2.2,2.6,5.9,3.8,11.3,3.8c2.9,0,5.4-0.6,7.5-1.9   c2.1-1.2,3.8-2.9,5.1-5c1.4-2.1,2.4-4.4,3-7.1c0.6-2.7,1-5.4,1-8.2v-29h6.7V124L287,124L287,124L287,124z M307.3,77.4   c1.1-2.3,2.7-4.3,4.6-5.8c2-1.5,4.3-2.6,6.9-3.3c2.6-0.7,5.6-1.1,8.8-1.1c2.4,0,4.8,0.2,7.3,0.7c2.4,0.5,4.6,1.3,6.5,2.6   c1.9,1.3,3.5,3.1,4.7,5.4c1.2,2.3,1.8,5.3,1.8,9v29.3c0,2.7,1.3,4.1,4,4.1c0.8,0,1.5-0.1,2.1-0.4v5.7c-0.7,0.1-1.4,0.2-2.1,0.3   c-0.8,0.1-1.5,0.1-2.3,0.1c-1.7,0-3.1-0.2-4.1-0.7c-1-0.5-1.8-1.1-2.4-2c-0.6-0.9-0.9-1.9-1.1-3c-0.2-1.3-0.3-2.6-0.3-3.9h-0.2   c-1.2,1.8-2.4,3.4-3.7,4.8c-1.2,1.4-2.6,2.5-4.2,3.5c-1.5,0.9-3.3,1.6-5.2,2.1c-2,0.5-4.3,0.8-7,0.8c-2.6,0-5-0.3-7.2-0.9   c-2.2-0.6-4.2-1.6-5.9-2.9c-1.7-1.3-3-3-4-5c-1-2-1.4-4.4-1.4-7.2c0-3.8,0.9-6.9,2.6-9c1.7-2.2,4-3.8,6.8-5c2.8-1.1,6-1.9,9.5-2.4   c3.6-0.5,7.2-0.9,10.7-1.3c1.4-0.1,2.7-0.3,3.7-0.5c1.1-0.2,2-0.6,2.7-1.1c0.7-0.5,1.3-1.3,1.7-2.2c0.4-0.9,0.6-2.1,0.6-3.6   c0-2.3-0.4-4.1-1.1-5.6c-0.7-1.5-1.8-2.6-3.1-3.5c-1.3-0.9-2.8-1.4-4.6-1.8c-1.9-0.3-3.7-0.5-5.6-0.5c-4.3,0-7.8,1-10.5,3   c-2.7,2-4.1,5.3-4.3,9.8h-6.7C305.5,82.6,306.2,79.8,307.3,77.4L307.3,77.4z M341,93.9c-0.4,0.8-1.2,1.4-2.5,1.7   c-1.2,0.4-2.3,0.6-3.2,0.8c-2.8,0.5-5.8,0.9-8.8,1.3c-3,0.4-5.8,1-8.3,1.8c-2.5,0.8-4.5,1.9-6.1,3.4c-1.6,1.5-2.4,3.5-2.4,6.3   c0,1.7,0.3,3.2,1,4.5c0.7,1.3,1.6,2.5,2.7,3.4c1.2,1,2.5,1.7,4,2.2c1.5,0.5,3,0.7,4.6,0.8c2.6,0,5-0.4,7.4-1.2   c2.3-0.8,4.4-1.9,6.1-3.4c1.7-1.5,3.1-3.3,4.2-5.4c1-2.1,1.5-4.6,1.5-7.3v-8.8L341,93.9L341,93.9L341,93.9L341,93.9z M368.2,47.7   V124h-6.7V47.7H368.2z M388,47.7v10.8h-6.7V47.7H388z M388,68.9V124h-6.7V68.9H388z M422.8,68.9v5.7h-11.2v37.2   c0,2.2,0.3,3.9,0.9,5.2c0.6,1.2,2.1,1.9,4.5,2.1c1.9,0,3.8-0.1,5.8-0.3v5.7c-1,0-2,0-3,0.1c-1,0.1-2,0.1-3,0.1   c-4.5,0-7.6-0.9-9.4-2.6c-1.8-1.7-2.6-5-2.6-9.7V74.6h-9.6v-5.7h9.6V52.3h6.7v16.6L422.8,68.9z M439.4,47.7v10.8h-6.7V47.7H439.4z    M439.4,68.9V124h-6.7V68.9H439.4z M457.3,105.8c0.7,2.6,1.8,4.9,3.3,7c1.5,2.1,3.4,3.8,5.7,5.1c2.3,1.4,5,2,8.2,2   c4.9,0,8.8-1.3,11.5-3.8c2.8-2.6,4.7-6,5.8-10.3h6.7c-1.4,6.3-4,11.1-7.9,14.5c-3.8,3.4-9.2,5.1-16.2,5.1c-4.3,0-8.1-0.8-11.3-2.3   c-3.2-1.5-5.8-3.6-7.7-6.3c-2-2.7-3.5-5.8-4.4-9.3c-1-3.5-1.4-7.3-1.4-11.2c0-3.6,0.5-7.2,1.4-10.7c1-3.5,2.4-6.6,4.4-9.3   c2-2.7,4.6-4.9,7.7-6.6c3.2-1.7,6.9-2.5,11.3-2.5c4.4,0,8.2,0.9,11.3,2.7c3.1,1.8,5.7,4.1,7.6,7c2,2.9,3.4,6.2,4.2,9.9   c0.9,3.7,1.2,7.5,1.1,11.4h-42.4C456.2,100.7,456.6,103.2,457.3,105.8z M490.6,85.2c-0.8-2.3-2-4.4-3.5-6.2   c-1.5-1.8-3.4-3.3-5.5-4.4c-2.1-1.1-4.6-1.7-7.3-1.7c-2.8,0-5.2,0.5-7.4,1.7c-2.1,1.1-3.9,2.6-5.4,4.4c-1.5,1.8-2.7,3.9-3.6,6.3   c-0.9,2.4-1.5,4.8-1.8,7.3h35.7C491.9,90.1,491.4,87.6,490.6,85.2z M539.5,79.6c-0.7-1.5-1.8-2.8-3.1-3.8c-1.4-1-2.9-1.8-4.5-2.2   c-1.7-0.5-3.5-0.7-5.5-0.7c-1.5,0-3,0.2-4.5,0.5c-1.5,0.3-2.9,0.9-4.2,1.6c-1.3,0.7-2.3,1.7-3.1,2.9c-0.8,1.2-1.2,2.7-1.2,4.5   c0,1.5,0.4,2.8,1.1,3.8c0.8,1,1.7,1.9,2.8,2.6c1.1,0.7,2.4,1.3,3.7,1.8c1.4,0.5,2.6,0.8,3.7,1.1l9,2c1.9,0.3,3.8,0.8,5.7,1.5   c1.9,0.8,3.6,1.7,5,2.9c1.5,1.2,2.7,2.8,3.6,4.5c0.9,1.8,1.4,3.9,1.4,6.3c0,3-0.7,5.5-2,7.6c-1.3,2.1-3.1,3.8-5.2,5.1   c-2.1,1.3-4.5,2.3-7.1,2.8c-2.6,0.6-5.2,0.9-7.8,0.9c-6.5,0-11.7-1.5-15.8-4.6c-4-3.1-6.3-8-6.9-14.7h6.7c0.3,4.6,1.9,8,5,10.3   c3,2.3,6.8,3.5,11.3,3.5c1.6,0,3.3-0.2,5.1-0.5c1.7-0.3,3.4-1,4.9-1.8c1.5-0.9,2.7-1.9,3.7-3.3c1-1.3,1.4-2.9,1.4-4.9   c0-1.6-0.3-3-1-4.1c-0.7-1.1-1.6-2.1-2.7-2.8c-1.1-0.8-2.4-1.4-3.9-1.9c-1.5-0.5-2.9-0.9-4.4-1.3l-8.7-1.9c-2.1-0.5-4.1-1.2-6.1-2   c-1.9-0.8-3.5-1.7-4.9-2.8c-1.4-1.1-2.5-2.5-3.3-4.1c-0.8-1.6-1.2-3.6-1.2-5.9c0-2.8,0.6-5.2,1.9-7.2c1.2-2,2.9-3.6,4.9-4.8   c2-1.2,4.2-2.1,6.7-2.7c2.4-0.6,4.9-0.8,7.3-0.9c2.8,0,5.4,0.4,7.7,1.1c2.4,0.7,4.5,1.8,6.3,3.3c1.8,1.5,3.3,3.3,4.3,5.6   c1.1,2.2,1.7,4.8,1.8,7.8h-6.7C540.7,83,540.2,81.2,539.5,79.6L539.5,79.6z M595.7,47.7v10.8h-6.7V47.7H595.7z M595.7,68.9V124   h-6.7V68.9H595.7z M615.2,68.9v9.5h0.2c1.3-3.3,3.6-6,6.8-8.1c3.3-2,6.9-3,10.8-3c3.8,0,7.1,0.5,9.7,1.5c2.6,1,4.7,2.4,6.2,4.2   c1.6,1.8,2.7,4,3.3,6.7c0.6,2.6,1,5.6,1,8.9V124h-6.7V89.6c0-2.4-0.2-4.5-0.6-6.6c-0.4-2-1.2-3.8-2.2-5.3c-1.1-1.5-2.5-2.7-4.3-3.5   c-1.8-0.9-4.1-1.3-6.8-1.3c-2.7,0-5.1,0.5-7.2,1.4c-2.1,1-3.9,2.3-5.3,4c-1.5,1.7-2.6,3.7-3.4,6c-0.8,2.3-1.3,4.8-1.3,7.5V124h-6.7   V68.9L615.2,68.9L615.2,68.9z M59.8,162.2v76.3h-7.3v-76.3H59.8z M81.1,183.3v9.5h0.2c1.3-3.3,3.6-6,6.8-8.1c3.3-2,6.9-3,10.8-3   c3.8,0,7.1,0.5,9.7,1.5c2.6,1,4.7,2.4,6.2,4.2c1.6,1.8,2.7,4,3.3,6.7c0.6,2.6,1,5.6,1,8.9v35.5h-6.7v-34.4c0-2.4-0.2-4.5-0.6-6.6   c-0.4-2-1.2-3.8-2.2-5.3c-1.1-1.5-2.5-2.7-4.3-3.5c-1.8-0.9-4.1-1.3-6.8-1.3c-2.7,0-5.1,0.5-7.2,1.4c-2.1,1-3.9,2.3-5.3,4   c-1.5,1.7-2.6,3.7-3.4,6c-0.8,2.3-1.3,4.8-1.3,7.5v32.2h-6.7v-55.1L81.1,183.3L81.1,183.3L81.1,183.3z M142.2,189v49.5h-6.7V189   H126v-5.7h9.4v-5c0-2.4,0.2-4.5,0.5-6.5c0.4-2,1-3.7,2-5.1c1-1.4,2.4-2.5,4.1-3.3c1.7-0.8,4-1.2,6.7-1.2c1,0,1.9,0,2.8,0.1   c0.9,0.1,1.8,0.2,2.9,0.3v5.8c-0.9-0.1-1.8-0.3-2.6-0.4c-0.8-0.1-1.6-0.2-2.4-0.2c-1.9,0-3.3,0.3-4.3,0.9c-1,0.6-1.7,1.3-2.2,2.3   c-0.5,1-0.7,2.1-0.8,3.4c-0.1,1.4-0.1,2.8-0.1,4.2v4.8h10.9v5.7L142.2,189L142.2,189z M160.9,191.9c1.1-2.4,2.7-4.3,4.6-5.8   c2-1.5,4.3-2.6,6.9-3.3c2.6-0.7,5.6-1.1,8.8-1.1c2.4,0,4.8,0.2,7.3,0.7c2.4,0.5,4.6,1.3,6.5,2.6c1.9,1.3,3.5,3.1,4.7,5.4   c1.2,2.3,1.8,5.3,1.8,9v29.3c0,2.7,1.3,4.1,4,4.1c0.7,0,1.5-0.1,2.1-0.4v5.7c-0.8,0.1-1.5,0.3-2.1,0.3c-0.6,0.1-1.4,0.1-2.3,0.1   c-1.7,0-3.1-0.2-4.1-0.7c-1-0.5-1.8-1.1-2.4-2c-0.6-0.9-0.9-1.9-1.1-3c-0.2-1.2-0.3-2.5-0.3-3.9h-0.2c-1.1,1.7-2.4,3.3-3.7,4.8   c-1.2,1.4-2.6,2.5-4.2,3.5c-1.5,0.9-3.3,1.6-5.2,2.1c-2,0.5-4.3,0.8-7,0.8c-2.6,0-5-0.3-7.2-0.9c-2.2-0.6-4.2-1.6-5.9-2.9   c-1.7-1.3-3-3-4-5c-1-2-1.4-4.4-1.4-7.2c0-3.8,0.9-6.9,2.6-9c1.7-2.2,4-3.8,6.8-5c2.8-1.1,6-1.9,9.5-2.4c3.5-0.5,7.1-0.9,10.7-1.3   c1.3-0.1,2.5-0.3,3.7-0.5c1.1-0.2,2-0.6,2.7-1.1c0.7-0.5,1.3-1.3,1.7-2.2c0.4-0.9,0.6-2.1,0.6-3.6c0-2.3-0.4-4.1-1.1-5.6   c-0.7-1.5-1.8-2.6-3.1-3.5c-1.3-0.9-2.8-1.4-4.6-1.8c-1.7-0.3-3.6-0.5-5.6-0.5c-4.3,0-7.8,1-10.5,3c-2.7,2-4.1,5.3-4.3,9.8h-6.7   C159.1,197,159.7,194.2,160.9,191.9L160.9,191.9z M194.5,208.3c-0.4,0.8-1.2,1.4-2.5,1.7c-1.1,0.3-2.1,0.6-3.2,0.7   c-2.8,0.5-5.8,0.9-8.8,1.3c-3,0.4-5.8,1-8.3,1.8c-2.5,0.8-4.5,1.9-6.1,3.4c-1.6,1.5-2.4,3.5-2.4,6.3c0,1.7,0.3,3.2,1,4.5   c0.7,1.3,1.6,2.5,2.7,3.4c1.2,1,2.5,1.7,4,2.2c1.5,0.5,3,0.8,4.6,0.8c2.5,0,5-0.4,7.4-1.2c2.4-0.8,4.4-1.9,6.1-3.4   c1.7-1.5,3.1-3.3,4.2-5.4c1-2.1,1.5-4.6,1.5-7.3v-8.8L194.5,208.3L194.5,208.3L194.5,208.3z M221.6,183.3v9.5h0.2   c1.3-3.3,3.6-6,6.8-8.1c3.3-2,6.9-3,10.8-3c3.8,0,7.1,0.5,9.7,1.5c2.6,1,4.7,2.4,6.3,4.2c1.6,1.8,2.7,4,3.3,6.7   c0.6,2.6,1,5.6,1,8.9v35.5h-6.7v-34.4c0-2.4-0.2-4.5-0.6-6.6c-0.4-2-1.2-3.8-2.2-5.3s-2.5-2.7-4.3-3.5c-1.8-0.9-4.1-1.3-6.8-1.3   c-2.7,0-5.1,0.5-7.2,1.4c-2.1,1-3.9,2.3-5.3,4c-1.5,1.7-2.6,3.7-3.4,6c-0.8,2.3-1.3,4.8-1.3,7.5v32.2h-6.7v-55.1L221.6,183.3   L221.6,183.3L221.6,183.3z M294.2,183.3v5.7H283v37.2c0,2.2,0.3,3.9,0.9,5.2c0.6,1.3,2.1,1.9,4.5,2.1c1.9,0,3.9-0.1,5.8-0.3v5.7   c-1,0-2,0-3,0.1c-1,0.1-2,0.1-3,0.1c-4.5,0-7.6-0.9-9.4-2.6c-1.8-1.8-2.6-5-2.6-9.7V189h-9.6v-5.7h9.6v-16.6h6.7v16.6L294.2,183.3   L294.2,183.3z M345.4,162.2l26.4,66.9l26.3-66.9h10.7v76.3h-7.3v-65.9h-0.2l-26.1,65.9h-6.8l-26.2-65.9h-0.2v65.9h-7.3v-76.3   L345.4,162.2L345.4,162.2z M457,184.1c3.2,1.6,6,3.7,8.2,6.3c2.2,2.6,3.9,5.7,5,9.2c1.1,3.5,1.7,7.3,1.7,11.3c0,4-0.6,7.7-1.7,11.3   c-1.1,3.5-2.8,6.6-5,9.2c-2.2,2.6-4.9,4.7-8.2,6.3c-3.2,1.5-7,2.3-11.2,2.3s-7.9-0.8-11.2-2.3c-3.2-1.5-6-3.6-8.2-6.3   c-2.2-2.6-3.9-5.7-5-9.2c-1.1-3.5-1.7-7.3-1.7-11.3c0-4,0.6-7.7,1.7-11.3c1.1-3.5,2.8-6.6,5-9.2c2.2-2.6,4.9-4.7,8.2-6.3   c3.2-1.6,7-2.4,11.2-2.4C450.1,181.7,453.8,182.5,457,184.1z M437.4,189.4c-2.4,1.3-4.4,3.1-6,5.3c-1.6,2.2-2.8,4.7-3.6,7.5   c-1.6,5.6-1.6,11.6,0,17.2c0.8,2.8,2,5.3,3.6,7.5c1.6,2.2,3.7,4,6,5.3c2.4,1.4,5.2,2,8.4,2c3.2,0,6-0.7,8.4-2   c2.4-1.3,4.4-3.1,6-5.3c1.6-2.2,2.8-4.7,3.6-7.5c1.6-5.6,1.6-11.6,0-17.2c-0.8-2.8-2-5.3-3.6-7.5c-1.6-2.2-3.7-4-6-5.3   c-2.4-1.4-5.2-2-8.4-2C442.7,187.4,439.9,188.1,437.4,189.4L437.4,189.4z M488.2,183.3v12.9h0.2c1.7-4.5,4.4-7.9,8-10.4   c3.6-2.4,7.9-3.5,12.9-3.3v6.7c-3.1-0.1-5.8,0.3-8.3,1.2c-2.5,1-4.6,2.3-6.5,4.1c-1.8,1.8-3.2,3.9-4.2,6.4c-1,2.5-1.5,5.1-1.5,8.1   v29.4H482v-55.1L488.2,183.3L488.2,183.3z M537.5,183.3v5.7h-11.2v37.2c0,2.2,0.3,3.9,0.9,5.2c0.6,1.3,2.1,1.9,4.5,2.1   c1.9,0,3.8-0.1,5.8-0.3v5.7c-1,0-2,0-3,0.1c-1,0.1-2,0.1-3,0.1c-4.5,0-7.6-0.9-9.4-2.6c-1.8-1.8-2.6-5-2.6-9.7V189H510v-5.7h9.6   v-16.6h6.7v16.6L537.5,183.3L537.5,183.3z M548.7,191.9c1.1-2.4,2.7-4.3,4.6-5.8c2-1.5,4.3-2.6,6.9-3.3c2.6-0.7,5.6-1.1,8.8-1.1   c2.4,0,4.8,0.2,7.3,0.7c2.4,0.5,4.6,1.3,6.5,2.6c1.9,1.3,3.5,3.1,4.7,5.4c1.2,2.3,1.8,5.3,1.8,9v29.3c0,2.7,1.3,4.1,4,4.1   c0.8,0,1.5-0.1,2.1-0.4v5.7c-0.8,0.1-1.5,0.3-2.1,0.3c-0.6,0.1-1.4,0.1-2.3,0.1c-1.7,0-3.1-0.2-4.1-0.7s-1.8-1.1-2.4-2   c-0.6-0.9-0.9-1.9-1.1-3c-0.2-1.3-0.3-2.6-0.3-3.9h-0.2c-1.1,1.7-2.4,3.3-3.7,4.8c-1.2,1.4-2.6,2.5-4.2,3.5   c-1.5,0.9-3.3,1.6-5.2,2.1c-2,0.5-4.3,0.8-7,0.8c-2.6,0-5-0.3-7.2-0.9c-2.2-0.6-4.2-1.6-5.9-2.9c-1.7-1.3-3-3-4-5   c-1-2-1.4-4.4-1.4-7.2c0-3.8,0.9-6.9,2.6-9c1.7-2.2,4-3.8,6.8-5c2.8-1.1,6-1.9,9.5-2.4c3.5-0.5,7.1-0.9,10.7-1.3   c1.3-0.1,2.5-0.3,3.7-0.5c1.1-0.2,2-0.6,2.7-1.1c0.7-0.5,1.3-1.3,1.7-2.2c0.4-0.9,0.6-2.1,0.6-3.6c0-2.3-0.4-4.1-1.1-5.6   c-0.7-1.5-1.8-2.6-3.1-3.5c-1.3-0.9-2.8-1.4-4.6-1.8c-1.7-0.3-3.6-0.5-5.6-0.5c-4.3,0-7.8,1-10.5,3c-2.7,2-4.1,5.3-4.3,9.8h-6.7   C546.8,197,547.5,194.2,548.7,191.9L548.7,191.9z M582.3,208.3c-0.4,0.8-1.2,1.4-2.5,1.7c-1.2,0.4-2.3,0.6-3.2,0.7   c-2.9,0.5-5.8,0.9-8.8,1.3c-3,0.4-5.8,1-8.3,1.8c-2.5,0.8-4.5,1.9-6.1,3.4c-1.6,1.5-2.4,3.5-2.4,6.3c0,1.7,0.3,3.2,1,4.5   c0.7,1.3,1.6,2.5,2.7,3.4c1.1,1,2.5,1.7,4,2.2c1.5,0.5,3,0.8,4.6,0.8c2.6,0,5-0.4,7.4-1.2c2.3-0.8,4.4-1.9,6.1-3.4   c1.7-1.5,3.1-3.3,4.2-5.4c1-2.1,1.5-4.6,1.5-7.3v-8.8L582.3,208.3L582.3,208.3L582.3,208.3L582.3,208.3z M609.5,162.2v76.3h-6.7   v-76.3H609.5z M629.3,162.2V173h-6.7v-10.8C622.6,162.2,629.3,162.2,629.3,162.2z M629.3,183.3v55.1h-6.7v-55.1L629.3,183.3   L629.3,183.3z M664.1,183.3v5.7h-11.2v37.2c0,2.2,0.3,3.9,0.9,5.2c0.6,1.3,2.1,1.9,4.5,2.1c1.9,0,3.8-0.1,5.8-0.3v5.7   c-1,0-2,0-3,0.1c-1,0.1-2,0.1-3,0.1c-4.5,0-7.6-0.9-9.4-2.6c-1.8-1.8-2.6-5-2.6-9.7V189h-9.6v-5.7h9.6v-16.6h6.7v16.6L664.1,183.3   L664.1,183.3z M674.8,183.3l18.2,47l17-47h6.7l-23.9,63.5c-1,2.4-1.9,4.3-2.8,5.8c-0.9,1.5-1.8,2.7-2.8,3.6   c-1.1,0.9-2.3,1.6-3.6,1.9c-1.4,0.4-3.2,0.6-5.3,0.6c-1.4-0.1-2.4-0.1-3.1-0.2c-0.7,0-1.3-0.2-2-0.4v-5.7c0.8,0.1,1.5,0.3,2.3,0.4   c0.8,0.1,1.5,0.2,2.3,0.2c1.5,0,2.7-0.2,3.7-0.6c0.9-0.4,1.8-1,2.5-1.8c0.7-0.7,1.3-1.7,1.8-2.7c0.5-1.1,1-2.2,1.6-3.5l2.3-6.2   l-22-54.9L674.8,183.3L674.8,183.3z" fill="#354080"  />
	
</g><path d="M837.1,273.5c-5.9,2.4-12.3,3.6-18.7,3.6H56.7c-27.8,0-50.4-22.6-50.4-50.4V56.9c0-27.8,22.6-50.4,50.4-50.4  h761.7c6.6,0,12.9,1.3,18.7,3.6V3.4c-5.9-2.1-12.1-3.2-18.7-3.2H56.7C25.4,0.2,0,25.6,0,56.9v169.9c0,31.3,25.4,56.7,56.7,56.7  h761.7c6.6,0,12.8-1.2,18.7-3.2L837.1,273.5L837.1,273.5z" fill="#354080"  /><path d="M1023.9,143.7c-27.1,53.9-84.1,129.7-192.8,138.7c0,0-114.9,10.4-99.9-69.5c0,0,12.3-58.9,89-22.6  c0,0,109.5,55,194.5-52.6c0,0,3.6-5,7.9-2.1C1022.6,135.6,1026.5,138.5,1023.9,143.7z" fill="#354080"  /><path d="M842.8,171.5c69.7,6.3,89.3-51.1,89.3-51.1c12.1-32,46.8-28.2,46.8-28.2c48.9,9.4-12.8,65.4-12.8,65.4  c-44.3,35.9-94.9,29.5-125.8,20.1c0,0-3.8-0.9-3.4-4C836.8,173.9,836.9,170.3,842.8,171.5z M1009.4,33.5c4.1,20.3-9,40-29.3,44.1  c-20.2,4.1-40-9-44.1-29.3c-4.1-20.3,9-40,29.3-44.1C985.6,0.2,1005.4,13.3,1009.4,33.5z" fill="#9799C6"  /><path d="M918.9,61.4c8.4,41.5-18.5,81.9-59.9,90.2c-41.4,8.3-81.8-18.5-90.2-60c-8.3-41.4,18.5-81.8,59.9-90.2  C870.2-6.8,910.6,20,918.9,61.4L918.9,61.4z" fill="#354080"  /><path d="M794.7,191.5c-14.9-4.7-29.8-2.2-36,2.5c7.4-2.4,20.6-3,34.9,1.5c14.3,3.9,26.4,10.2,34.3,11.1  C821,203.4,809.8,195.8,794.7,191.5z M984.8,99.3c-6.3-2.7-12.6-1.4-15.4,0c3.4,0.6,8.6,0.8,14.1,3.1c5.8,1.9,7.9,6.3,8.2,9.9  C994,109.7,991.9,101.3,984.8,99.3L984.8,99.3z M991.1,13.9c-9.4-6.2-19.9-5.2-24.6-3.3c5.3,0.1,14.4,0.6,22.8,6.1  c8.3,5.6,12.3,13.8,14.4,18.7C1003.7,30.2,1000.5,20.2,991.1,13.9z M881.5,19.7c-19.3-12.9-40.9-11.2-50.8-7.3  c10.8-0.5,30.1,0.4,47.6,12.1c17.6,11.6,25.9,29,29.6,39.2C907.8,53.1,900.8,32.4,881.5,19.7z" fill="#FFFFFF"  /></svg>