<svg viewBox="0 0 761.6 283.5" role="img" aria-labelledby="inis--title" xmlns="http://www.w3.org/2000/svg" xmlns:xlink="http://www.w3.org/1999/xlink"><title id="inis--title">INIS - International Neonatal Immunotherapy Study</title><path d="M376.2,164.1c0,3.1-1.6,4.7-4.8,4.7h-26.7c-2.4,0-3.9-0.3-4.4-0.8c-0.5-0.6-0.7-2-0.7-4.2V31.3h-28.3  c-3.7,0-5.5-1.7-5.5-5V10.2c0-3.3,1.8-5,5.5-5H371c3.4,0,5.1,1.7,5.1,5L376.2,164.1L376.2,164.1z M542.8,164.1  c0,3.1-1.7,4.7-5.1,4.7h-25.1c-3,0-4.5-1.6-4.5-4.7V56.2c0-18.8-7.2-28.3-21.5-28.3c-11.6,0-24,5.8-37.2,17.5v118.7  c0,3.1-1.6,4.7-4.8,4.7h-25.1c-3.2,0-4.8-1.6-4.8-4.7V49.7c0-13-2.2-24-6.6-33.2c-1.4-2.9-0.9-4.9,1.4-6l23-10.1  c0.7-0.2,1.4-0.3,2.1-0.3c1.6,0,3.3,1.9,5.1,5.7c1.4,2.5,3.7,8.2,6.9,17.2c10.5-8.2,18.4-13.7,23.7-16.4c8.7-4.3,17.8-6.5,27.4-6.5  c16,0,27.5,3.9,34.6,11.8c7.1,7.9,10.6,21.1,10.6,39.7L542.8,164.1L542.8,164.1z M622.2,164.1c0,3.1-1.6,4.7-4.8,4.7h-26.7  c-2.4,0-3.9-0.3-4.4-0.8c-0.5-0.6-0.7-2-0.7-4.2V31.3h-28.3c-3.7,0-5.5-1.7-5.5-5V10.2c0-3.3,1.8-5,5.5-5H617c3.4,0,5.1,1.7,5.1,5  L622.2,164.1C622.2,164.1,622.2,164.1,622.2,164.1z M761.6,122.8c0,15.2-5.3,27.5-15.8,36.9c-10.5,9.4-24.4,14.1-41.5,14.1  c-21.3,0-40.3-4.8-56.9-14.4c-2.1-1.1-3.1-2-3.1-2.7c-0.2-0.4,0.1-1.8,1-4l7.3-17.4c0.9-2.2,3.1-2.5,6.6-0.7c16.7,8,31.2,12,43.7,12  c7.2,0,12.9-2,17.4-5.9c4.4-3.9,6.6-9,6.6-15.3c0-4.9-1.7-8.8-5.2-11.7c-2.5-2.2-8.9-5.9-19.1-11.1c-8.3-4-19.5-9.7-33.4-17.1  c-13-7.6-19.5-19.2-19.5-34.9c0-14.8,5.4-26.9,16.1-36.4C676.6,4.8,690.5,0,707.4,0c16.4,0,31.6,3.7,45.5,11.1  c3,1.6,3.7,4.1,2.1,7.7l-7.3,14.8c-1.4,2.7-3.7,3.3-6.9,1.7c-13-5.7-23.8-8.5-32.6-8.5c-16.2,0.2-24.3,6.8-24.3,19.8  c0,4.7,1.6,8.6,4.9,11.8c2.5,2.7,8,6.2,16.3,10.4l34.4,17.5C754.2,94.3,761.6,106.5,761.6,122.8L761.6,122.8z" fill="#FFEC96"  /><path d="M350.1,224.4c0,0.5-0.3,0.8-0.8,0.8h-11.9c-0.3,0-0.6-0.1-0.7-0.1c-0.1-0.1-0.1-0.3-0.1-0.7v-2.3  c0-0.4,0-0.6,0.1-0.7c0.1-0.1,0.3-0.1,0.7-0.1h3.3v-24.7h-3.3c-0.4,0-0.6,0-0.7-0.1c-0.1-0.1-0.1-0.3-0.1-0.7v-2.3  c0-0.3,0-0.6,0.1-0.7c0.1-0.1,0.3-0.1,0.7-0.1h11.9c0.6,0,0.8,0.3,0.8,0.8v2.3c0,0.3,0,0.6-0.1,0.7c-0.1,0.1-0.3,0.1-0.7,0.1h-3.3  v24.7h3.3c0.6,0,0.8,0.3,0.8,0.8L350.1,224.4L350.1,224.4z M371.9,224.5c0,0.4-0.2,0.7-0.7,0.7h-3.4c-0.4,0-0.6-0.2-0.6-0.7v-15.2  c0-2.7-1-4-3-4c-1.6,0-3.3,0.8-5.1,2.5v16.7c0,0.4-0.2,0.7-0.7,0.7h-3.4c-0.4,0-0.7-0.2-0.7-0.7v-16.1c0-1.8-0.3-3.4-0.9-4.7  c-0.2-0.4-0.1-0.7,0.2-0.9l3.2-1.4c0.1,0,0.2-0.1,0.3-0.1c0.2,0,0.5,0.3,0.7,0.8c0.2,0.4,0.5,1.1,0.9,2.4c1.4-1.1,2.5-1.9,3.3-2.3  c1.2-0.6,2.5-0.9,3.8-0.9c2.2,0,3.8,0.6,4.8,1.7c1,1.1,1.5,3,1.5,5.6L371.9,224.5L371.9,224.5z M391,223.6c0.1,0.5,0,0.8-0.4,1  c-1.8,0.8-3.7,1.2-5.7,1.2c-2.3,0-4-0.7-4.9-2c-0.8-1.1-1.2-2.8-1.2-5.1v-12.8h-3.2c-0.3,0-0.5,0-0.6-0.1c-0.1-0.1-0.2-0.3-0.2-0.6  v-2.3c0-0.3,0.1-0.5,0.2-0.6c0.2-0.1,0.4-0.1,0.6-0.1h3.2V196c0-0.4,0.2-0.6,0.6-0.7l3.2-0.6c0.4-0.1,0.6-0.1,0.7-0.1  c0.2,0.1,0.2,0.3,0.2,0.6v6.9h6.2c0.5,0,0.6,0.3,0.5,0.9l-0.5,2.2c-0.1,0.4-0.3,0.6-0.7,0.6h-5.5v12.4c0,1.2,0.1,2.1,0.3,2.5  c0.3,0.7,1,1,2,1c0.8,0,2-0.3,3.6-1c0.4-0.2,0.7,0,0.9,0.5L391,223.6z M410.6,213.1c0,0.7,0,1.1,0,1.3c-0.1,0.3-0.3,0.5-0.7,0.5  h-13.1c0.2,4.6,2.1,6.9,5.7,6.9c1.2,0,2.3-0.2,3.4-0.6c0,0,0.8-0.4,2.4-1.1c0.3-0.1,0.5,0,0.6,0.3l1.1,2.4c0.2,0.5,0.1,0.9-0.5,1.2  c-2.1,1.3-4.6,1.9-7.5,1.9c-3.2,0-5.7-1.1-7.5-3.2c-1.8-2.1-2.7-5.1-2.7-8.9c0-3.7,0.9-6.7,2.7-9c1.8-2.2,4.2-3.4,7.1-3.4  c2.9,0,5.1,1,6.7,3C409.9,206.5,410.6,209.4,410.6,213.1L410.6,213.1z M405.6,211.2c-0.1-4.2-1.5-6.2-4.2-6.2  c-2.8,0-4.3,2.1-4.6,6.2H405.6L405.6,211.2z M427.6,202.8l-1.2,3c-0.2,0.4-0.4,0.5-0.6,0.5c-0.9-0.2-1.5-0.3-1.7-0.3  c-1.1,0-2.5,1-4.2,2.9v15.7c0,0.4-0.2,0.7-0.7,0.7h-3.4c-0.5,0-0.7-0.2-0.7-0.7v-14.3c0-2.6-0.3-4.5-0.9-5.9c-0.3-0.6-0.4-1-0.4-1  c0-0.2,0.1-0.3,0.3-0.4l2.9-1.3c0.1-0.1,0.3-0.1,0.4-0.1c0.3,0,0.7,0.5,1.1,1.5c0.3,0.7,0.6,1.5,0.7,2.3c1.2-1.3,2-2.2,2.5-2.6  c1-0.8,2.2-1.2,3.4-1.2c0.9,0,1.6,0.2,2.2,0.5C427.6,202.2,427.7,202.5,427.6,202.8L427.6,202.8z M447.8,224.5  c0,0.4-0.2,0.7-0.7,0.7h-3.4c-0.4,0-0.6-0.2-0.6-0.7v-15.2c0-2.7-1-4-3-4c-1.6,0-3.3,0.8-5.1,2.5v16.7c0,0.4-0.2,0.7-0.7,0.7h-3.5  c-0.4,0-0.7-0.2-0.7-0.7v-16.1c0-1.8-0.3-3.4-0.9-4.7c-0.2-0.4-0.1-0.7,0.2-0.9l3.2-1.4c0.1,0,0.2-0.1,0.3-0.1  c0.2,0,0.5,0.3,0.7,0.8c0.2,0.4,0.5,1.1,0.9,2.4c1.5-1.1,2.5-1.9,3.3-2.3c1.2-0.6,2.5-0.9,3.8-0.9c2.2,0,3.8,0.6,4.8,1.7  c1,1.1,1.5,3,1.5,5.6L447.8,224.5L447.8,224.5L447.8,224.5L447.8,224.5z M469.9,223.4c0.2,0.4,0.2,0.7-0.1,0.8l-2.9,1.4  c-0.1,0.1-0.3,0.1-0.5,0.1c-0.2,0-0.5-0.3-0.8-0.7c-0.3-0.5-0.5-1.2-0.8-2.2c-1.9,1.9-4,2.9-6.4,2.9c-2.1,0-3.7-0.6-4.9-1.9  c-1.2-1.2-1.8-2.9-1.8-5c0-3.2,1.4-5.4,4.1-6.7c1.9-0.9,4.7-1.4,8.3-1.4v-1.5c0-1.4-0.3-2.5-0.8-3c-0.5-0.6-1.5-0.9-2.9-0.9  c-1.4,0-3.2,0.5-5.4,1.4c-0.4,0.2-0.7,0.1-0.8-0.2l-0.8-2.3c-0.1-0.1-0.1-0.3-0.1-0.4c0-0.4,0.3-0.7,0.9-0.9  c2.1-0.9,4.4-1.4,6.8-1.4c5.2,0,7.8,2.4,7.8,7.1v9.2C468.8,220.1,469.2,222,469.9,223.4L469.9,223.4z M464.2,219.9v-5.7  c-2.2,0-3.9,0.2-5,0.7c-1.8,0.7-2.7,1.9-2.7,3.7c0,1,0.3,1.9,0.9,2.5c0.6,0.7,1.4,1,2.3,1C461.1,222.2,462.6,221.5,464.2,219.9  L464.2,219.9z M488.1,223.6c0.1,0.5,0,0.8-0.4,1c-1.8,0.8-3.7,1.2-5.7,1.2c-2.3,0-4-0.7-4.9-2c-0.8-1.1-1.2-2.8-1.2-5.1v-12.8h-3.3  c-0.3,0-0.5,0-0.6-0.1c-0.1-0.1-0.2-0.3-0.2-0.6v-2.3c0-0.3,0.1-0.5,0.2-0.6c0.2-0.1,0.4-0.1,0.6-0.1h3.3V196c0-0.4,0.2-0.6,0.6-0.7  l3.2-0.6c0.4-0.1,0.6-0.1,0.7-0.1c0.2,0.1,0.2,0.3,0.2,0.6v6.9h6.2c0.5,0,0.6,0.3,0.5,0.9l-0.5,2.2c-0.1,0.4-0.3,0.6-0.7,0.6h-5.5  v12.4c0,1.2,0.1,2.1,0.3,2.5c0.3,0.7,1,1,2,1c0.8,0,2.1-0.3,3.6-1c0.4-0.2,0.7,0,0.9,0.5L488.1,223.6z M497.5,224.5  c0,0.4-0.2,0.7-0.6,0.7h-3.4c-0.3,0-0.5,0-0.6-0.1c-0.1-0.1-0.1-0.3-0.1-0.6v-18.6h-3.6c-0.5,0-0.7-0.2-0.7-0.7v-2.3  c0-0.5,0.2-0.7,0.7-0.7h7.7c0.4,0,0.7,0.2,0.7,0.7L497.5,224.5L497.5,224.5L497.5,224.5z M498.3,194.5c0,0.9-0.3,1.7-1,2.4  c-0.7,0.6-1.4,1-2.4,1c-0.9,0-1.7-0.3-2.4-1c-0.7-0.6-1-1.5-1-2.4c0-0.9,0.3-1.7,1-2.4c0.7-0.7,1.4-1,2.4-1c0.9,0,1.7,0.3,2.4,1  C498,192.8,498.3,193.6,498.3,194.5z M522,213.6c0,3.8-0.9,6.8-2.7,9c-1.8,2.2-4.2,3.3-7.3,3.3c-3.1,0-5.5-1.1-7.2-3.2  c-1.7-2.1-2.5-5.1-2.5-9c0-3.8,0.9-6.8,2.7-9c1.8-2.2,4.2-3.3,7.3-3.3c3,0,5.4,1.1,7.1,3.2C521.1,206.8,522,209.8,522,213.6  L522,213.6z M516.9,213.5c0-5.5-1.6-8.2-4.7-8.2c-3.2,0-4.8,2.7-4.8,8.2c0,5.7,1.6,8.5,4.8,8.5C515.3,222,516.9,219.2,516.9,213.5z   M544.4,224.5c0,0.4-0.2,0.7-0.7,0.7h-3.4c-0.4,0-0.6-0.2-0.6-0.7v-15.2c0-2.7-1-4-3-4c-1.6,0-3.3,0.8-5.1,2.5v16.7  c0,0.4-0.2,0.7-0.7,0.7h-3.5c-0.4,0-0.6-0.2-0.6-0.7v-16.1c0-1.8-0.3-3.4-0.9-4.7c-0.2-0.4-0.1-0.7,0.2-0.9l3.2-1.4  c0.1,0,0.2-0.1,0.3-0.1c0.2,0,0.5,0.3,0.7,0.8c0.2,0.4,0.5,1.1,0.9,2.4c1.4-1.1,2.5-1.9,3.3-2.3c1.2-0.6,2.5-0.9,3.8-0.9  c2.2,0,3.8,0.6,4.8,1.7c1,1.1,1.5,3,1.5,5.6L544.4,224.5L544.4,224.5z M566.5,223.4c0.2,0.4,0.2,0.7-0.1,0.8l-2.9,1.4  c-0.2,0.1-0.3,0.1-0.5,0.1c-0.2,0-0.5-0.3-0.8-0.7c-0.3-0.5-0.5-1.2-0.8-2.2c-1.9,1.9-4,2.9-6.4,2.9c-2,0-3.7-0.6-4.9-1.9  c-1.2-1.2-1.8-2.9-1.8-5c0-3.2,1.4-5.4,4.1-6.7c1.9-0.9,4.7-1.4,8.3-1.4v-1.5c0-1.4-0.3-2.5-0.8-3c-0.6-0.6-1.5-0.9-2.9-0.9  c-1.4,0-3.2,0.5-5.4,1.4c-0.4,0.2-0.7,0.1-0.9-0.2l-0.8-2.3c-0.1-0.1-0.1-0.3-0.1-0.4c0-0.4,0.3-0.7,0.9-0.9  c2.1-0.9,4.4-1.4,6.8-1.4c5.2,0,7.8,2.4,7.8,7.1v9.2C565.4,220.1,565.8,222,566.5,223.4L566.5,223.4z M560.8,219.9v-5.7  c-2.2,0-3.8,0.2-5,0.7c-1.8,0.7-2.7,1.9-2.7,3.7c0,1,0.3,1.9,0.9,2.5c0.6,0.7,1.4,1,2.3,1C557.8,222.2,559.3,221.5,560.8,219.9  L560.8,219.9z M581.2,224.1c0.1,0.4,0,0.7-0.3,0.9c-1.2,0.5-2.5,0.8-4.1,0.8c-2,0-3.5-0.6-4.3-1.7c-0.7-1-1.1-2.5-1.1-4.5v-2v-25.1  c0-0.4,0.2-0.7,0.6-0.8l3.5-0.8c0.5-0.1,0.7,0.1,0.7,0.7v27.9c0,1.4,0.5,2,1.6,2c0.6,0,1.2-0.1,1.7-0.4c0.4-0.2,0.7-0.2,0.8,0.2  L581.2,224.1L581.2,224.1z M612.6,224.4c0,0.5-0.3,0.8-0.8,0.8H609c-0.4,0-0.8-0.2-1-0.7l-9.5-19.4c-0.7-1.4-1.4-3.2-2.2-5.6  c0.2,2.1,0.3,3.8,0.3,5.2v19.6c0,0.5-0.3,0.8-0.9,0.8h-2.8c-0.5,0-0.8-0.3-0.8-0.8v-30.8c0-0.5,0.3-0.8,0.8-0.8h3.4  c0.4,0,0.8,0.2,0.9,0.6l9,18c0.8,1.5,1.5,3.4,2.2,5.6c-0.1-1.7-0.2-3.3-0.2-5v-18.4c0-0.3,0.1-0.6,0.1-0.7c0.1-0.1,0.3-0.1,0.7-0.1  h2.8c0.3,0,0.6,0.1,0.7,0.1c0.1,0.1,0.1,0.3,0.1,0.7L612.6,224.4L612.6,224.4L612.6,224.4z M635.9,213.1c0,0.7,0,1.1,0,1.3  c-0.1,0.3-0.3,0.5-0.7,0.5h-13.1c0.2,4.6,2.1,6.9,5.7,6.9c1.2,0,2.3-0.2,3.4-0.6c0,0,0.8-0.4,2.4-1.1c0.3-0.1,0.5,0,0.6,0.3l1.1,2.4  c0.2,0.5,0.1,0.9-0.5,1.2c-2.1,1.3-4.6,1.9-7.5,1.9c-3.2,0-5.7-1.1-7.5-3.2c-1.8-2.1-2.7-5.1-2.7-8.9c0-3.7,0.9-6.7,2.7-9  c1.8-2.2,4.2-3.4,7.1-3.4c2.9,0,5.1,1,6.7,3C635.2,206.5,635.9,209.4,635.9,213.1L635.9,213.1z M630.9,211.2  c-0.1-4.2-1.5-6.2-4.2-6.2c-2.8,0-4.3,2.1-4.6,6.2H630.9z M658.1,213.6c0,3.8-0.9,6.8-2.7,9c-1.8,2.2-4.2,3.3-7.3,3.3  c-3.1,0-5.5-1.1-7.2-3.2c-1.7-2.1-2.5-5.1-2.5-9c0-3.8,0.9-6.8,2.7-9c1.8-2.2,4.2-3.3,7.3-3.3c3,0,5.4,1.1,7.1,3.2  C657.2,206.8,658.1,209.8,658.1,213.6L658.1,213.6z M653,213.5c0-5.5-1.6-8.2-4.7-8.2c-3.2,0-4.8,2.7-4.8,8.2c0,5.7,1.6,8.5,4.8,8.5  C651.4,222,653,219.2,653,213.5z M680.5,224.5c0,0.4-0.2,0.7-0.7,0.7h-3.5c-0.4,0-0.6-0.2-0.6-0.7v-15.2c0-2.7-1-4-3-4  c-1.6,0-3.3,0.8-5.1,2.5v16.7c0,0.4-0.2,0.7-0.7,0.7h-3.4c-0.5,0-0.7-0.2-0.7-0.7v-16.1c0-1.8-0.3-3.4-0.9-4.7  c-0.2-0.4-0.1-0.7,0.2-0.9l3.2-1.4c0.1,0,0.2-0.1,0.3-0.1c0.2,0,0.5,0.3,0.7,0.8c0.2,0.4,0.5,1.1,0.9,2.4c1.4-1.1,2.5-1.9,3.3-2.3  c1.2-0.6,2.5-0.9,3.8-0.9c2.2,0,3.8,0.6,4.8,1.7c1,1.1,1.5,3,1.5,5.6L680.5,224.5L680.5,224.5z M702.7,223.4  c0.2,0.4,0.2,0.7-0.1,0.8l-2.9,1.4c-0.1,0.1-0.3,0.1-0.5,0.1c-0.2,0-0.5-0.3-0.8-0.7c-0.3-0.5-0.5-1.2-0.8-2.2  c-1.9,1.9-4,2.9-6.4,2.9c-2.1,0-3.7-0.6-4.9-1.9c-1.2-1.2-1.8-2.9-1.8-5c0-3.2,1.4-5.4,4.1-6.7c1.9-0.9,4.7-1.4,8.3-1.4v-1.5  c0-1.4-0.3-2.5-0.8-3c-0.5-0.6-1.5-0.9-2.9-0.9c-1.4,0-3.2,0.5-5.4,1.4c-0.4,0.2-0.7,0.1-0.9-0.2l-0.8-2.3c-0.1-0.1-0.1-0.3-0.1-0.4  c0-0.4,0.3-0.7,0.9-0.9c2.1-0.9,4.4-1.4,6.8-1.4c5.2,0,7.8,2.4,7.8,7.1v9.2C701.5,220.1,701.9,222,702.7,223.4z M696.9,219.9v-5.7  c-2.2,0-3.9,0.2-5,0.7c-1.8,0.7-2.7,1.9-2.7,3.7c0,1,0.3,1.9,0.9,2.5c0.6,0.7,1.4,1,2.3,1C693.9,222.2,695.4,221.5,696.9,219.9  L696.9,219.9z M720.8,223.6c0.1,0.5,0,0.8-0.4,1c-1.8,0.8-3.7,1.2-5.7,1.2c-2.3,0-4-0.7-4.9-2c-0.8-1.1-1.2-2.8-1.2-5.1v-12.8h-3.3  c-0.3,0-0.5,0-0.6-0.1c-0.1-0.1-0.2-0.3-0.2-0.6v-2.3c0-0.3,0.1-0.5,0.2-0.6c0.2-0.1,0.4-0.1,0.6-0.1h3.3V196c0-0.4,0.2-0.6,0.6-0.7  l3.2-0.6c0.4-0.1,0.6-0.1,0.7-0.1c0.2,0.1,0.2,0.3,0.2,0.6v6.9h6.2c0.5,0,0.6,0.3,0.5,0.9l-0.5,2.2c-0.1,0.4-0.3,0.6-0.7,0.6h-5.5  v12.4c0,1.2,0.1,2.1,0.3,2.5c0.3,0.7,1,1,2,1c0.9,0,2.1-0.3,3.6-1c0.4-0.2,0.7,0,0.9,0.5L720.8,223.6L720.8,223.6z M740.6,223.4  c0.2,0.4,0.2,0.7-0.1,0.8l-2.9,1.4c-0.1,0.1-0.3,0.1-0.5,0.1c-0.3,0-0.5-0.3-0.8-0.7c-0.3-0.5-0.5-1.2-0.8-2.2  c-1.9,1.9-4.1,2.9-6.4,2.9c-2.1,0-3.7-0.6-4.9-1.9c-1.2-1.2-1.8-2.9-1.8-5c0-3.2,1.4-5.4,4.1-6.7c1.9-0.9,4.7-1.4,8.3-1.4v-1.5  c0-1.4-0.3-2.5-0.8-3c-0.5-0.6-1.5-0.9-2.9-0.9c-1.4,0-3.2,0.5-5.4,1.4c-0.4,0.2-0.7,0.1-0.8-0.2l-0.8-2.3c-0.1-0.1-0.1-0.3-0.1-0.4  c0-0.4,0.3-0.7,0.9-0.9c2.1-0.9,4.4-1.4,6.8-1.4c5.2,0,7.8,2.4,7.8,7.1v9.2C739.5,220.1,739.8,222,740.6,223.4z M734.8,219.9v-5.7  c-2.2,0-3.8,0.2-4.9,0.7c-1.8,0.7-2.7,1.9-2.7,3.7c0,1,0.3,1.9,0.9,2.5c0.6,0.7,1.4,1,2.3,1C731.8,222.2,733.3,221.5,734.8,219.9z   M755.3,224.1c0.1,0.4,0,0.7-0.3,0.9c-1.2,0.5-2.5,0.8-4.1,0.8c-2,0-3.5-0.6-4.3-1.7c-0.7-1-1.1-2.5-1.1-4.5v-2v-25.1  c0-0.4,0.2-0.7,0.6-0.8l3.5-0.8c0.5-0.1,0.7,0.1,0.7,0.7v27.9c0,1.4,0.5,2,1.6,2c0.6,0,1.2-0.1,1.7-0.4c0.4-0.2,0.7-0.2,0.8,0.2  L755.3,224.1L755.3,224.1z M350.1,272.5c0,0.5-0.3,0.8-0.8,0.8h-11.9c-0.3,0-0.6-0.1-0.7-0.1c-0.1-0.1-0.1-0.3-0.1-0.6v-2.3  c0-0.4,0-0.6,0.1-0.7c0.1-0.1,0.3-0.1,0.7-0.1h3.3v-24.7h-3.3c-0.4,0-0.6,0-0.7-0.1c-0.1-0.1-0.1-0.3-0.1-0.7v-2.3  c0-0.3,0-0.6,0.1-0.7c0.1-0.1,0.3-0.1,0.7-0.1h11.9c0.6,0,0.8,0.3,0.8,0.8v2.3c0,0.3,0,0.6-0.1,0.7c-0.1,0.1-0.3,0.1-0.7,0.1h-3.3  v24.7h3.3c0.6,0,0.8,0.3,0.8,0.8L350.1,272.5L350.1,272.5z M383.3,272.6c0,0.4-0.2,0.7-0.7,0.7h-3.4c-0.4,0-0.7-0.2-0.7-0.6v-15.5  c0-2.4-0.8-3.6-2.5-3.6c-1.2,0-2.7,0.7-4.4,2.1v17c0,0.4-0.2,0.6-0.7,0.6h-3.3c-0.5,0-0.7-0.2-0.7-0.7v-15.3c0-2.5-0.9-3.8-2.6-3.8  c-1.3,0-2.8,0.7-4.4,2v17c0,0.4-0.2,0.7-0.7,0.7h-3.3c-0.5,0-0.7-0.2-0.7-0.7v-16.4c0-1.7-0.2-2.9-0.6-3.8c-0.4-0.9-0.4-1.4,0-1.5  l2.9-1.2c0.1-0.1,0.2-0.1,0.4-0.1c0.3,0,0.6,0.5,1.1,1.6c0.2,0.4,0.3,0.9,0.4,1.4c2.4-2,4.7-3,6.8-3c2.3,0,3.9,1,4.9,3  c2.5-2,4.9-3,7.1-3c2.1,0,3.6,0.7,4.3,2.2c0.6,1.1,0.9,2.8,0.9,5L383.3,272.6L383.3,272.6L383.3,272.6z M418.6,272.6  c0,0.4-0.2,0.7-0.7,0.7h-3.4c-0.4,0-0.7-0.2-0.7-0.6v-15.5c0-2.4-0.9-3.6-2.5-3.6c-1.2,0-2.7,0.7-4.4,2.1v17c0,0.4-0.2,0.6-0.7,0.6  h-3.3c-0.5,0-0.7-0.2-0.7-0.7v-15.3c0-2.5-0.9-3.8-2.6-3.8c-1.3,0-2.8,0.7-4.4,2v17c0,0.4-0.2,0.7-0.7,0.7h-3.3  c-0.5,0-0.7-0.2-0.7-0.7v-16.4c0-1.7-0.2-2.9-0.6-3.8c-0.4-0.9-0.4-1.4,0-1.5l2.9-1.2c0.1-0.1,0.2-0.1,0.4-0.1  c0.3,0,0.6,0.5,1.1,1.6c0.2,0.4,0.3,0.9,0.4,1.4c2.4-2,4.7-3,6.8-3c2.3,0,3.9,1,4.9,3c2.5-2,4.9-3,7.1-3c2.1,0,3.6,0.7,4.3,2.2  c0.6,1.1,0.9,2.8,0.9,5L418.6,272.6L418.6,272.6z M443.9,271.9c0.3,0.4,0.2,0.7-0.1,0.8l-3,1.1c-0.1,0.1-0.2,0.1-0.4,0.1  c-0.3,0-0.6-0.2-0.9-0.8c-0.2-0.4-0.5-1.1-0.7-1.9c-2.1,1.8-4.4,2.7-6.8,2.7c-2.4,0-4.2-0.7-5.3-2.1c-0.9-1.2-1.4-3.1-1.4-5.6v-15  c0-0.4,0.2-0.6,0.6-0.7l3.3-0.8c0.6-0.2,0.9,0,0.9,0.6v14.8c0,1.8,0.2,3.1,0.7,3.8c0.5,0.7,1.3,1.1,2.4,1.1c1.7,0,3.3-0.7,4.9-2.1  v-16.7c0-0.4,0.2-0.6,0.6-0.7l3.3-0.8c0.6-0.1,0.8,0.1,0.8,0.6v16.9C442.8,269.2,443.2,270.7,443.9,271.9L443.9,271.9z M467.8,272.6  c0,0.4-0.2,0.7-0.7,0.7h-3.4c-0.4,0-0.6-0.2-0.6-0.7v-15.2c0-2.7-1-4-3-4c-1.6,0-3.3,0.8-5.1,2.4v16.7c0,0.4-0.2,0.7-0.7,0.7h-3.4  c-0.4,0-0.7-0.2-0.7-0.7v-16.1c0-1.8-0.3-3.4-0.9-4.7c-0.2-0.4-0.1-0.7,0.2-0.8l3.2-1.4c0.1,0,0.2,0,0.3,0c0.2,0,0.5,0.3,0.7,0.8  c0.2,0.4,0.5,1.2,0.9,2.4c1.4-1.1,2.5-1.9,3.3-2.3c1.2-0.6,2.5-0.9,3.8-0.9c2.2,0,3.8,0.5,4.8,1.6c1,1.1,1.5,3,1.5,5.6L467.8,272.6  L467.8,272.6z M492.8,261.7c0,3.8-0.9,6.8-2.7,9c-1.8,2.2-4.2,3.3-7.3,3.3c-3.1,0-5.5-1.1-7.2-3.2c-1.7-2.1-2.6-5.1-2.6-9  c0-3.8,0.9-6.8,2.6-9c1.8-2.2,4.2-3.3,7.3-3.3c3.1,0,5.4,1.1,7.2,3.2C492,254.9,492.8,257.9,492.8,261.7z M487.7,261.6  c0-5.5-1.6-8.2-4.7-8.2c-3.2,0-4.8,2.7-4.8,8.2c0,5.7,1.6,8.5,4.8,8.5C486.1,270.1,487.7,267.3,487.7,261.6z M511.3,271.7  c0.1,0.5,0,0.8-0.4,1c-1.8,0.8-3.7,1.2-5.7,1.2c-2.3,0-4-0.7-4.9-2c-0.8-1.1-1.2-2.8-1.2-5.1V254h-3.2c-0.3,0-0.5,0-0.6-0.1  c-0.1-0.1-0.2-0.3-0.2-0.6V251c0-0.3,0.1-0.5,0.2-0.6c0.1-0.1,0.3-0.1,0.6-0.1h3.3v-6.2c0-0.4,0.2-0.6,0.6-0.7l3.2-0.6  c0.4-0.1,0.6-0.1,0.7-0.1c0.2,0.1,0.2,0.3,0.2,0.6v6.9h6.2c0.5,0,0.6,0.3,0.5,0.8l-0.5,2.2c-0.1,0.4-0.3,0.6-0.7,0.6h-5.5v12.4  c0,1.2,0.1,2,0.3,2.4c0.3,0.7,1,1,2,1c0.8,0,2-0.3,3.6-1c0.4-0.2,0.7,0,0.9,0.5L511.3,271.7L511.3,271.7z M533.3,272.6  c0,0.4-0.2,0.7-0.7,0.7h-3.5c-0.4,0-0.7-0.3-0.7-0.8v-15.1c0-1.5-0.2-2.5-0.7-3.1c-0.4-0.6-1.2-0.9-2.3-0.9c-1.5,0-3.3,0.8-5.1,2.5  v16.7c0,0.4-0.2,0.7-0.7,0.7h-3.4c-0.5,0-0.8-0.2-0.8-0.7v-32c0-0.4,0.2-0.7,0.7-0.8l3.3-0.7c0.6-0.1,0.9,0.1,0.9,0.6v12.7  c2.1-2,4.4-3,6.9-3c2.3,0,3.9,0.7,4.8,2.1c0.8,1.1,1.2,2.8,1.2,5.2L533.3,272.6L533.3,272.6L533.3,272.6z M557.4,261.2  c0,0.7,0,1.1,0,1.3c-0.1,0.3-0.3,0.5-0.7,0.5h-13.1c0.2,4.6,2.1,6.9,5.7,6.9c1.2,0,2.3-0.2,3.4-0.6c0,0,0.8-0.4,2.4-1.1  c0.3-0.1,0.5,0,0.6,0.3l1.1,2.4c0.2,0.5,0.1,0.9-0.5,1.2c-2.1,1.3-4.6,1.9-7.5,1.9c-3.2,0-5.7-1.1-7.5-3.2c-1.8-2.1-2.7-5.1-2.7-8.9  c0-3.7,0.9-6.7,2.7-9c1.8-2.2,4.2-3.4,7.1-3.4c2.9,0,5.1,1,6.7,3C556.6,254.6,557.4,257.5,557.4,261.2L557.4,261.2z M552.3,259.4  c-0.1-4.2-1.5-6.2-4.2-6.2c-2.8,0-4.3,2.1-4.6,6.2H552.3z M575.2,250.9l-1.2,3c-0.2,0.4-0.3,0.5-0.6,0.5c-0.9-0.2-1.5-0.3-1.8-0.3  c-1.1,0-2.5,1-4.2,2.9v15.7c0,0.4-0.2,0.7-0.7,0.7h-3.4c-0.5,0-0.7-0.2-0.7-0.7v-14.3c0-2.6-0.3-4.5-0.9-5.9c-0.3-0.6-0.4-1-0.4-1  c0-0.2,0.1-0.3,0.3-0.4l2.9-1.3c0.1-0.1,0.3-0.1,0.4-0.1c0.3,0,0.7,0.5,1.1,1.5c0.3,0.7,0.6,1.5,0.7,2.3c1.2-1.3,2-2.2,2.5-2.6  c1-0.8,2.2-1.2,3.4-1.2c0.9,0,1.6,0.2,2.2,0.5C575.3,250.3,575.4,250.6,575.2,250.9L575.2,250.9z M594.7,271.5  c0.2,0.4,0.2,0.7-0.1,0.8l-2.9,1.4c-0.2,0.1-0.3,0.1-0.5,0.1c-0.3,0-0.5-0.2-0.8-0.7c-0.3-0.5-0.5-1.2-0.8-2.2  c-1.9,1.9-4,2.9-6.4,2.9c-2,0-3.7-0.6-4.9-1.8c-1.2-1.2-1.8-2.9-1.8-5c0-3.2,1.4-5.4,4.1-6.7c1.9-0.9,4.7-1.4,8.3-1.4v-1.5  c0-1.5-0.3-2.5-0.8-3c-0.5-0.6-1.5-0.9-2.9-0.9c-1.4,0-3.2,0.5-5.4,1.4c-0.4,0.2-0.7,0.1-0.9-0.2l-0.8-2.3c-0.1-0.1-0.1-0.3-0.1-0.4  c0-0.4,0.3-0.7,0.9-0.9c2.1-0.9,4.4-1.4,6.8-1.4c5.2,0,7.8,2.4,7.8,7.1v9.3C593.6,268.2,593.9,270.1,594.7,271.5L594.7,271.5z   M588.9,268v-5.7c-2.2,0-3.8,0.3-4.9,0.7c-1.8,0.7-2.7,1.9-2.7,3.7c0,1,0.3,1.9,0.9,2.5c0.6,0.7,1.4,1,2.3,1  C585.9,270.3,587.4,269.6,588.9,268L588.9,268z M619.2,261.3c0,4.1-0.7,7.2-2.1,9.4c-1.4,2.2-3.5,3.3-6.1,3.3  c-1.7,0-3.5-0.5-5.2-1.7v9.3c0,0.4-0.2,0.6-0.6,0.7l-3.4,0.9c-0.5,0.1-0.8-0.1-0.8-0.7v-25.8c0-1.7-0.3-3.1-0.8-4.2  c-0.3-0.5-0.4-0.9-0.4-1c0-0.2,0.1-0.3,0.3-0.4l3.1-1.6c0.1-0.1,0.3-0.1,0.4-0.1c0.2,0,0.5,0.3,0.8,0.9c0.3,0.5,0.5,1.1,0.7,1.7  c2.2-1.8,4.3-2.6,6.3-2.6C616.6,249.5,619.2,253.5,619.2,261.3L619.2,261.3z M614.3,261.5c0-2.8-0.3-4.9-0.9-6.1  c-0.6-1.3-1.6-1.9-3-1.9c-1.2,0-2.8,0.7-4.6,2v13.2c1.6,0.9,3,1.4,4.2,1.4c1.6,0,2.7-0.6,3.3-1.9  C613.9,266.9,614.3,264.7,614.3,261.5L614.3,261.5z M641.5,251.5L636,271c-0.4,1.4-0.8,2.7-1.1,4.1c-0.4,1.4-0.9,2.8-1.5,4.2  c-1.3,2.8-3.4,4.2-6.4,4.2c-2.1,0-4-0.6-5.8-1.7c-0.4-0.3-0.5-0.5-0.3-0.8l1.3-2.7c0.1-0.3,0.4-0.3,0.7-0.1c1.4,0.9,2.7,1.3,3.8,1.3  c1.7,0,2.9-1.3,3.7-3.8l0.8-2.4h-1.9c-0.4,0-0.7-0.2-0.8-0.5l-7.4-21.1c-0.2-0.6-0.1-0.9,0.4-1l3.5-0.7c0.5-0.1,0.9,0.1,1,0.5  l4.6,14.7c0.2,0.8,0.7,2.8,1.4,5.8c0.2-1.1,0.5-2.7,0.9-4.8l3.9-15.7c0.1-0.5,0.4-0.7,0.7-0.6l3.6,0.9  C641.5,250.9,641.6,251.1,641.5,251.5L641.5,251.5z M672.1,264.4c0,2.9-0.9,5.2-2.8,6.9c-1.9,1.7-4.3,2.6-7.4,2.6  c-3.2,0-6.1-0.7-8.7-2.1c-0.5-0.3-0.6-0.6-0.4-1.2l1.2-3.1c0.1-0.2,0.2-0.3,0.4-0.3c0.1,0,0.4,0.1,0.9,0.4c2.4,1.2,4.6,1.8,6.7,1.8  c1.5,0,2.8-0.4,3.7-1.2c0.9-0.8,1.3-2,1.3-3.4c0-1.4-0.4-2.5-1.1-3.3c-0.7-0.8-2.4-1.8-5-3.3c-2.6-1.4-4.4-2.6-5.4-3.5  c-1.5-1.5-2.3-3.5-2.3-5.8c0-2.7,0.9-4.8,2.7-6.4c1.8-1.6,4.2-2.4,7.1-2.4c3,0,5.7,0.7,8,2.1c0.4,0.3,0.5,0.5,0.4,0.9l-1.2,2.8  c-0.2,0.4-0.6,0.4-1.3,0.1c-2.1-1.1-4-1.6-5.8-1.6c-3.1,0-4.7,1.3-4.7,4c0,1.1,0.3,2,0.8,2.6c0.6,0.6,1.8,1.4,3.5,2.4  c3.4,1.8,5.6,3.2,6.5,4.1C671.1,259.4,672.1,261.7,672.1,264.4L672.1,264.4z M690.1,271.7c0.1,0.5,0,0.8-0.4,1  c-1.8,0.8-3.7,1.2-5.7,1.2c-2.3,0-4-0.7-4.9-2c-0.8-1.1-1.2-2.8-1.2-5.1V254h-3.3c-0.3,0-0.5,0-0.6-0.1c-0.1-0.1-0.2-0.3-0.2-0.6  V251c0-0.3,0.1-0.5,0.2-0.6c0.1-0.1,0.3-0.1,0.6-0.1h3.3v-6.2c0-0.4,0.2-0.6,0.6-0.7l3.2-0.6c0.4-0.1,0.6-0.1,0.7-0.1  c0.2,0.1,0.2,0.3,0.2,0.6v6.9h6.2c0.5,0,0.6,0.3,0.5,0.8l-0.5,2.2c-0.1,0.4-0.3,0.6-0.7,0.6h-5.5v12.4c0,1.2,0.1,2,0.3,2.4  c0.3,0.7,1,1,2,1c0.9,0,2-0.3,3.6-1c0.4-0.2,0.7,0,0.8,0.5L690.1,271.7L690.1,271.7z M711.9,271.9c0.3,0.4,0.2,0.7-0.1,0.8l-3,1.1  c-0.1,0.1-0.2,0.1-0.4,0.1c-0.3,0-0.6-0.2-0.9-0.8c-0.2-0.4-0.5-1.1-0.7-1.9c-2.1,1.8-4.4,2.7-6.8,2.7c-2.5,0-4.2-0.7-5.3-2.1  c-0.9-1.2-1.4-3.1-1.4-5.6v-15c0-0.4,0.2-0.6,0.6-0.7l3.3-0.8c0.6-0.2,0.9,0,0.9,0.6v14.8c0,1.8,0.2,3.1,0.7,3.8  c0.5,0.7,1.3,1.1,2.4,1.1c1.7,0,3.3-0.7,4.9-2.1v-16.7c0-0.4,0.2-0.6,0.6-0.7l3.3-0.8c0.6-0.1,0.9,0.1,0.9,0.6v16.9  C710.9,269.2,711.2,270.7,711.9,271.9z M735.6,272.3l-3,1.4c-0.1,0.1-0.3,0.1-0.4,0.1c-0.5,0-1-0.9-1.5-2.6  c-2.4,1.9-4.6,2.8-6.8,2.8c-2.4,0-4.2-1.1-5.5-3.2c-1.3-2.1-2-5-2-8.7c0-4.5,0.9-7.8,2.8-9.9c1.5-1.8,3.5-2.6,5.8-2.6  c1.5,0,3.1,0.5,4.9,1.5v-10.4c0-0.4,0.2-0.7,0.5-0.8l3.4-0.7c0.6-0.1,0.8,0.1,0.8,0.6v26.9c0,2,0.3,3.6,0.8,4.6  c0.3,0.5,0.4,0.7,0.4,0.8C735.9,272.1,735.8,272.2,735.6,272.3L735.6,272.3z M729.9,267.9v-13.2c-1.4-0.8-2.8-1.2-4.1-1.2  c-1.6,0-2.8,0.6-3.5,1.9c-0.7,1.2-1,3.3-1,6.3c0,3,0.3,5.2,0.9,6.5c0.6,1.3,1.6,2,3.1,2C726.9,270.1,728.4,269.3,729.9,267.9z   M758.8,251.5l-5.5,19.5c-0.4,1.4-0.8,2.7-1.1,4.1c-0.5,1.5-0.9,2.9-1.5,4.2c-1.3,2.8-3.4,4.2-6.4,4.2c-2.1,0-4-0.6-5.8-1.7  c-0.4-0.3-0.5-0.5-0.3-0.8l1.3-2.7c0.1-0.3,0.4-0.3,0.7-0.1c1.4,0.9,2.7,1.3,3.8,1.3c1.7,0,2.9-1.3,3.7-3.8l0.8-2.4h-1.9  c-0.4,0-0.7-0.2-0.8-0.5l-7.4-21.1c-0.2-0.6,0-0.9,0.4-1l3.5-0.7c0.5-0.1,0.9,0.1,1,0.5l4.6,14.7c0.3,0.8,0.7,2.8,1.4,5.8  c0.2-1.1,0.5-2.7,0.9-4.8l3.9-15.7c0.1-0.5,0.4-0.7,0.7-0.6l3.6,0.9C758.8,250.9,758.9,251.1,758.8,251.5L758.8,251.5z" fill="#124395"  /><path d="M123.3,110.9c3.5,5.1,1.8,10.7,3.6,15.8c3.2,9.2,15.3,14.3,12.2,26.5c-21.2,4.4-28.6-24.2-26.5-43  C116.3,109.5,120.6,108.9,123.3,110.9z M118.3,115.9c-6,12.8-0.7,32.5,12.9,34.4c0.8-1.1,1.8-2,2.9-2.9c-4.7-8.1-12-18.1-13.6-31.6  C119.8,115.9,119,115.9,118.3,115.9z" fill="#4E69AE"  /><path d="M41.6,158.2c0.2-1.4-0.1-2.2-1.4-2.2c2.5-11.4,11.2-16.5,20.8-20.8c-0.7-15,3.5-23.3,15.8-20.8  c7,1.4,13.9,9.1,12.2,15.8c-0.7,2.7-4.7,4-5.7,6.5c-2.9,7.2,1.1,15.2-2.9,22.9c-3.7-7.7-7.8-17.5-16.5-16.5  C55.2,144.1,54.4,162,41.6,158.2z M65.3,119.5c-5,11,0,26.1,11.5,27.3C81,138.3,82.8,110.9,65.3,119.5z M43,155.3  c1.9,1.4,6.6,0.7,8.6,0c1.4-4.8,8.2-10,3.6-14.3C49.4,144,42.5,146,43,155.3z" fill="#97A1D2"  /><path d="M76.7,146.7c-11.5-1.2-16.5-16.3-11.5-27.3C82.8,110.9,81,138.3,76.7,146.7z M73.9,141.7  c0.2-6.9-1.4-12-3.6-16.5C62.2,126.5,68.1,142.7,73.9,141.7z" fill="#4E69AE"  /><path d="M157.8,124.5v3.6c-1.3,1.9-5.9,1.9-7.2,0C149.2,122.5,155.4,122.2,157.8,124.5z M152.8,128.8h2.9  c1.9-2.1,0.1-4.8-2.2-5C152.4,124.8,151.2,127.3,152.8,128.8z" fill="#D7D8EE"  /><path d="M70.3,125.2c2.2,4.5,3.8,9.6,3.6,16.5C68.1,142.7,62.2,126.5,70.3,125.2z M48.8,146.7  c1.8-0.1,2.2,1.1,3.6,1.4c1.4,6.4-8,9.8-7.9,2.9C46.2,152.7,45.6,147.4,48.8,146.7z" fill="#0C4396"  /><path d="M36.6,162.5c1.6-0.1,0.3,2.5,0.7,3.6c-0.6-0.1-0.7-0.7-1.4-0.7v3.6c-10.9,9.4-12.8,27.9-28.7,32.3  c-0.8-0.9-1.6-9-0.7-5c1.6-6.8,1-15.8,5-20.1c9.8-2.1,14.2-9.7,22.2-13.6C35.3,162.6,36.3,165.7,36.6,162.5z M12.2,179  c-1.4,3.5-3.4,9.8-1.4,14.3h5c5.7-9.6,13.5-17.1,18.6-27.3C25.7,166.3,21.4,176.9,12.2,179z" fill="#97A1D2"  /><path d="M10,9h242.4v249.6c-1.6-0.6-15.1-1.8-17.2-7.2c-2.5-6.5,5.9-15.4,5-22.2c-0.9-6.8-8.8-12.4-15.1-13.6  c-11.7-2.2-24.5,5.7-34.4,7.2c-6.4-4.8-1.3-13.9,0-21.5c2-12,1.5-23.8,5.7-31.6c3.6-5.7,7.2-14.3,2.9-20.8  c-3.1-4.7-11.1-6.3-15.8-7.9c-6.4-2.2-11.7-3.7-14.3-9.3c-2.9-6.1,0.4-19.1-1.4-25.8c-2.9-10.9-15.3-20.8-23.7-22.2  c-18.3-3.2-27,8.9-40.2,10C99.5,94,89.4,92,83.9,89.4c-0.5-0.2-0.3-1.9-0.7-2.2c-0.7-0.4-2.2,0.5-2.9,0C73.7,82.7,65.5,67.3,61,60  c-2.3-3.6-3.2-7.6-5-10.8c-5.2-9-13.6-13.5-20.8-20.1C26.6,21.3,18.3,15.6,10,9L10,9z" fill="#0C4396"  /><path d="M5.7,9H10c8.2,6.5,16.6,12.3,25.1,20.1c7.2,6.6,15.6,11.1,20.8,20.1c1.8,3.1,2.8,7.1,5,10.8  c4.5,7.3,12.7,22.8,19.4,27.3c0.7,0.5,2.2-0.4,2.9,0c0.4,0.2,0.2,1.9,0.7,2.2C89.4,92,99.5,94,104,93.7c13.2-1.1,21.8-13.3,40.2-10  c8.4,1.5,20.7,11.3,23.7,22.2c1.8,6.7-1.5,19.7,1.4,25.8c2.7,5.6,8,7.1,14.3,9.3c4.6,1.6,12.7,3.2,15.8,7.9  c4.3,6.5,0.7,15.1-2.9,20.8c-4.2,7.8-3.7,19.6-5.7,31.6c-1.3,7.6-6.4,16.7,0,21.5c9.9-1.5,22.7-9.4,34.4-7.2  c6.3,1.2,14.2,6.9,15.1,13.6c0.9,6.8-7.5,15.8-5,22.2c2.1,5.4,15.6,6.6,17.2,7.2v3.6c-6.6-2.5-14.9-3.3-20.1-7.2  c-4-11.9,8.4-16.6,4.3-28.7c-9.6-13.6-32.8-4.9-45.2,0.7c-8.7-7.9-3.3-24.2-0.7-41.6c1.2-8.3,2.6-15.3,4.3-21.5  c0.9-3.3,4.2-7.4,3.6-10.8c-1.3-6.8-15.6-8-21.5-11.5c-3.5-2.1-8.8-7.5-10-11.5c-2.1-6.5,1.1-13.1,0-20.8  c-1.4-10.1-12.5-22.6-22.2-24.4c-18.7-3.4-29.3,8.7-40.2,10c-7.8,0.9-12.3-3.2-20.8-4.3C73,84.1,67.2,73,61,62.1  c-6.7-11.8-12.8-19.9-22.2-28C28.3,25.2,18,15.2,5.7,9L5.7,9z M55.2,141c4.6,4.3-2.2,9.6-3.6,14.3c-2,0.7-6.7,1.4-8.6,0  C42.5,146,49.4,144,55.2,141z M44.5,151c-0.1,7,9.3,3.5,7.9-2.9c-1.4-0.3-1.8-1.5-3.6-1.4C45.6,147.4,46.2,152.7,44.5,151z" fill="#4E69AE"  /><path d="M106.1,98.7h1.4c3.8,3.5,8.8,1.6,12.9,3.6c8.2,3.9,6.9,12.2,9.3,21.5c2.6,9.9,15.3,18.5,12.2,29.4  c-1.2,0.6-2.2,1.6-2.9,2.9h-7.9c-2.9-3.2-6.8-3.3-9.3-5.7c-6.9-6.5-6.8-16.5-10-25.8c-2.5-7.4-9.6-8.5-12.9-14.3  C101.1,106.3,106.6,102.9,106.1,98.7L106.1,98.7z M112.6,110.2c-2.1,18.8,5.4,47.4,26.5,43c3.1-12.2-9-17.3-12.2-26.5  c-1.8-5.1-0.1-10.6-3.6-15.8C120.6,108.9,116.3,109.5,112.6,110.2z M153.5,123.8c2.2,0.2,4,3,2.2,5h-2.9  C151.2,127.3,152.4,124.8,153.5,123.8z" fill="#97A1D2"  /><path d="M120.5,115.9c1.6,13.4,8.9,23.5,13.6,31.6c-1.1,0.8-2,1.8-2.9,2.9c-13.6-2-18.9-21.6-12.9-34.4  C119,115.9,119.8,115.9,120.5,115.9z" fill="#0C4396"  /><path d="M34.4,166.1c-5.2,10.1-12.9,17.7-18.6,27.3h-5c-2-4.6,0-10.8,1.4-14.3C21.4,176.9,25.7,166.3,34.4,166.1z" fill="#4E69AE"  /><g><path d="M252.4,262.2c-6.6-2.5-14.9-3.3-20.1-7.2c-4-11.9,8.4-16.6,4.3-28.7c-9.6-13.6-32.8-4.9-45.2,0.7   c-8.7-7.9-3.3-24.2-0.7-41.6c1.2-8.3,2.6-15.3,4.3-21.5c0.9-3.3,4.2-7.4,3.6-10.8c-1.3-6.8-15.6-8-21.5-11.5   c-3.5-2.1-8.8-7.5-10-11.5c-2.1-6.5,1.1-13.1,0-20.8c-1.4-10.1-12.5-22.6-22.2-24.4c-18.7-3.4-29.3,8.7-40.2,10   c-7.8,0.9-12.3-3.2-20.8-4.3C73,84.1,67.2,73,61,62.1c-6.7-11.8-12.8-19.9-22.2-28c-10.5-9-20.7-19-33-25.1H5   c10.2,7.7,25.6,16.5,33.7,28.7c3.9,0.2,4,4.1,7.9,4.3c15.2,23.8,24.2,53.8,61,55.9c1.3-0.1-0.2-1.1-0.7-0.7   c12.1-8,35.6-18.3,50.2-4.3c3.4,3.3,7.9,10.3,8.6,16.5c0.7,5.7-2.2,10.1-1.4,16.5c2.1,17,20.4,20.9,30.8,27.3   c-1.3,16.1-8,42.9-9.3,60.2c-0.5,6.8,0.8,11,3.6,15.8c15.1,0.9,35.9-17,44.5,1.4c-2.4,8.9-8.7,22-1.4,30.1c7.7-1.4,16,5.3,20.1,2.7   L252.4,262.2L252.4,262.2L252.4,262.2L252.4,262.2z" fill="#97A1D2"  />
	
</g><g><path d="M232.4,260.8c-7.3-8.2-1-21.2,1.4-30.1c-8.6-18.4-29.4-0.5-44.5-1.4c-2.7-4.7-4.1-9-3.6-15.8   c1.3-17.4,8-44.1,9.3-60.2c-10.4-6.3-28.7-10.3-30.8-27.3c-0.8-6.4,2.1-10.8,1.4-16.5c-0.7-6.2-5.2-13.2-8.6-16.5   c-14.6-14-38.1-3.7-50.2,4.3c0.5-0.4,2,0.6,0.7,0.7c-36.8-2.2-45.7-32.2-61-55.9c-3.9-0.2-4-4.1-7.9-4.3C30.6,25.5,15.2,16.8,5,9   H0.7C0.4,9.2,0.1,9.5,0,9.8c24.9,10.9,41.3,30.4,56.7,50.9C60.4,73.3,74.3,90,88.2,95.1c4.7,1.7,9.2,0.2,10,4.3   c1.2,5.9-8.6,8.2-13.6,10.8c-13.5-4.6-27.9,4.6-25.1,23c-10.3,5.2-19,12.1-22.2,24.4c-9.1,7.2-18.8,13.7-30.8,17.9   c0.6,11.4-5.1,21.5-2.2,30.8c16.4-1.1,16.7-16,25.1-22.2c1.2-6.3,3.9-12.1,7.9-13.6c0.2-2.9,1.6-4.7,2.2-7.2   c11.1-4.5,17.6-8.9,22.2-17.2c13.1-4.4,14.4,13.9,15.8,25.8c9.5-1.5,6.4-15.6,7.2-25.8c3.5-8.5,10.4-13.5,10-25.8   c3.2-3,7.6-1.7,12.2-0.7c5.3,6.9,4.9,19.9,10.8,28c5.4,7.5,17.2,12.4,25.1,8.6c4.1-8.6-3-16-3.6-24.4c-7.7-3.8-4.8-18.1-8.6-25.8   c-3.5-5.1-11.3-5.9-14.3-11.5c16.8-14,45.8-6.2,48,15.8c0.7,6.6-2.8,12.6-0.7,20.8c3.5,3.6,5.8,8.5,8.6,12.9   c-1.8,0.9-1.4,3.9-3.6,4.3c-4.5-1.9-14.6-2.7-13.6,6.5c2.2,2.6,6.4,3.1,8.6,5.7c-0.9,11.2,4.5,19.1,14.3,13.6   c1.2-4.3,3.4-7.9,2.9-12.2c-0.5-4.5-5.8-7.1-4.3-10.8c4.8-2,11.4,0.5,15.1,2.2c2.6,17.3-8.3,49.3-7.2,66c1.9,28,28.1,1.2,43,12.2   c0.6,7.2-3.6,9.6-3.6,15.1c-0.1,18.8,16.8,17.9,27.3,24.4c0.6-0.1,1.1-0.4,1.4-0.9v-6.4C248.3,266.1,240.1,259.4,232.4,260.8   L232.4,260.8z M37.3,166.1c-0.6-0.1-0.7-0.7-1.4-0.7v3.6c-10.9,9.4-12.8,27.9-28.7,32.3c-0.8-0.9-1.6-9-0.7-5   c1.6-6.8,1-15.8,5-20.1c9.8-2.1,14.2-9.7,22.2-13.6c1.6,0.1,2.6,3.2,2.9,0C38.1,162.4,36.9,165.1,37.3,166.1z M88.9,130.2   c-0.7,2.7-4.7,4-5.7,6.5c-2.9,7.2,1.1,15.2-2.9,22.9c-3.7-7.7-7.8-17.4-16.5-16.5c-8.6,0.9-9.4,18.8-22.2,15.1   c0.2-1.4-0.1-2.2-1.4-2.2c2.5-11.4,11.2-16.5,20.8-20.8c-0.7-15,3.5-23.3,15.8-20.8C83.7,115.9,90.6,123.6,88.9,130.2z    M120.5,102.3c8.2,3.9,6.9,12.2,9.3,21.5c2.6,9.9,15.3,18.5,12.2,29.4c-1.2,0.6-2.2,1.6-2.9,2.9h-7.9c-2.9-3.2-6.8-3.3-9.3-5.7   c-6.9-6.5-6.8-16.5-10-25.8c-2.5-7.4-9.6-8.5-12.9-14.3c2.1-3.9,7.6-7.3,7.2-11.5h1.4C111.3,102.2,116.4,100.3,120.5,102.3z" fill="#D7D8EE"  />
	
</g></svg>