<svg viewBox="0 0 1771.3 286" role="img" aria-labelledby="listeningtoparents--title" xmlns="http://www.w3.org/2000/svg" xmlns:xlink="http://www.w3.org/1999/xlink"><title id="listeningtoparents--title">Listening to Parents</title><g><path d="M362.4,78.7h11.1V179h42.7v10.7h-53.8L362.4,78.7L362.4,78.7z M435.8,73.8c2.4,0,4.5,0.9,6.2,2.6   c1.7,1.7,2.6,3.8,2.6,6.2c0,2.4-0.9,4.4-2.6,6.1c-1.7,1.7-3.8,2.6-6.2,2.6c-2.4,0-4.4-0.8-6.1-2.6c-1.7-1.7-2.6-3.7-2.6-6.1   c0-2.4,0.9-4.5,2.6-6.2C431.4,74.6,433.4,73.8,435.8,73.8z M430.5,107.6h10.6v82.2h-10.6V107.6z M504.4,116.6l-6.8,7   c-5.7-5.5-11.2-8.2-16.6-8.2c-3.4,0-6.4,1.1-8.8,3.4c-2.4,2.3-3.7,4.9-3.7,7.9c0,2.7,1,5.2,3,7.6c2,2.5,6.3,5.4,12.7,8.7   c7.9,4.1,13.2,8,16,11.8c2.8,3.8,4.2,8.1,4.2,12.9c0,6.8-2.4,12.5-7.1,17.1c-4.7,4.7-10.7,7-17.8,7c-4.7,0-9.3-1-13.6-3.1   c-4.3-2.1-7.9-4.9-10.7-8.5l6.6-7.6c5.4,6.1,11.1,9.1,17.2,9.1c4.2,0,7.8-1.4,10.8-4.1c3-2.7,4.5-5.9,4.5-9.6c0-3-1-5.7-3-8.1   c-2-2.3-6.4-5.2-13.3-8.8c-7.4-3.8-12.5-7.6-15.1-11.3c-2.7-3.7-4-8-4-12.8c0-6.2,2.1-11.4,6.4-15.6c4.3-4.1,9.6-6.2,16.2-6.2   C489.1,105.5,496.7,109.2,504.4,116.6L504.4,116.6z M532.3,77.1h10.6v30.5h16.8v9.1h-16.8v73h-10.6v-73h-14.4v-9.1h14.4V77.1z    M644.7,162.5l8.9,4.7c-2.9,5.7-6.3,10.4-10.1,13.9c-3.8,3.5-8.1,6.2-12.9,8c-4.8,1.8-10.2,2.8-16.3,2.8   c-13.4,0-23.9-4.4-31.4-13.2c-7.6-8.8-11.3-18.7-11.3-29.8c0-10.4,3.2-19.7,9.6-27.9c8.1-10.4,19-15.6,32.6-15.6   c14,0,25.2,5.3,33.6,15.9c5.9,7.5,9,16.9,9.1,28.1h-73.9c0.2,9.5,3.3,17.4,9.1,23.5c5.9,6.1,13.2,9.2,21.8,9.2   c4.2,0,8.3-0.7,12.2-2.2c4-1.5,7.3-3.4,10.1-5.8C638.5,171.8,641.5,167.9,644.7,162.5L644.7,162.5z M644.7,140.4   c-1.4-5.6-3.5-10.1-6.2-13.5c-2.7-3.4-6.3-6.1-10.7-8.2c-4.4-2.1-9.2-3.1-14-3.1c-8.1,0-15,2.6-20.8,7.8c-4.2,3.8-7.4,9.4-9.6,17   L644.7,140.4z M676,107.6h10.6v14.7c4.2-5.6,8.9-9.9,14-12.7c5.1-2.8,10.7-4.2,16.8-4.2c6.1,0,11.6,1.6,16.4,4.7   c4.8,3.1,8.3,7.3,10.5,12.6c2.3,5.3,3.4,13.5,3.4,24.7v42.3h-10.6v-39.2c0-9.5-0.4-15.8-1.2-19c-1.2-5.4-3.6-9.5-7.1-12.3   c-3.5-2.7-8-4.1-13.6-4.1c-6.4,0-12.1,2.1-17.2,6.3c-5.1,4.2-8.4,9.5-10,15.7c-1,4.1-1.5,11.5-1.5,22.4v30.1h-10.6L676,107.6   L676,107.6L676,107.6z M774,73.8c2.4,0,4.5,0.9,6.2,2.6c1.7,1.7,2.6,3.8,2.6,6.2c0,2.4-0.9,4.4-2.6,6.1c-1.7,1.7-3.8,2.6-6.2,2.6   c-2.4,0-4.4-0.8-6.1-2.6c-1.7-1.7-2.6-3.7-2.6-6.1c0-2.4,0.9-4.5,2.6-6.2C769.6,74.6,771.7,73.8,774,73.8z M768.8,107.6h10.6v82.2   h-10.6V107.6z M801.3,107.6h10.6v14.7c4.2-5.6,8.9-9.9,14-12.7c5.1-2.8,10.7-4.2,16.8-4.2c6.1,0,11.6,1.6,16.4,4.7   c4.8,3.1,8.3,7.3,10.5,12.6c2.3,5.3,3.4,13.5,3.4,24.7v42.3h-10.6v-39.2c0-9.5-0.4-15.8-1.2-19c-1.2-5.4-3.6-9.5-7.1-12.3   c-3.5-2.7-8-4.1-13.6-4.1c-6.4,0-12.1,2.1-17.2,6.3c-5.1,4.2-8.4,9.5-10,15.7c-1,4.1-1.5,11.5-1.5,22.4v30.1h-10.6L801.3,107.6   L801.3,107.6z M966.5,107.6h10.6v65.5c0,11.5-1,20-3,25.3c-2.8,7.6-7.6,13.4-14.4,17.4c-6.8,4.1-15.1,6.1-24.7,6.1   c-7,0-13.4-1-19-3c-5.6-2-10.2-4.7-13.7-8c-3.5-3.4-6.8-8.3-9.7-14.7H904c3.1,5.4,7.2,9.5,12.1,12.1c4.9,2.6,11.1,3.9,18.4,3.9   c7.2,0,13.3-1.3,18.3-4c5-2.7,8.5-6.1,10.6-10.1c2.1-4.1,3.2-10.6,3.2-19.7v-4.2c-4,5-8.9,8.9-14.6,11.6c-5.8,2.7-11.8,4-18.3,4   c-7.6,0-14.7-1.9-21.3-5.6c-6.7-3.7-11.8-8.8-15.4-15.1c-3.6-6.3-5.4-13.3-5.4-20.9c0-7.6,1.9-14.7,5.7-21.3   c3.8-6.6,9-11.8,15.7-15.6c6.7-3.8,13.7-5.7,21.1-5.7c6.1,0,11.9,1.3,17.2,3.8c5.3,2.5,10.4,6.7,15.4,12.6L966.5,107.6L966.5,107.6   L966.5,107.6z M935.3,115.7c-6,0-11.5,1.4-16.7,4.3c-5.2,2.9-9.2,6.9-12.1,12c-2.9,5.1-4.4,10.6-4.4,16.6c0,9,3,16.5,9.1,22.4   c6,5.9,13.9,8.8,23.5,8.8c9.7,0,17.6-2.9,23.5-8.8c5.9-5.8,8.9-13.5,8.9-23c0-6.2-1.4-11.7-4.1-16.6c-2.7-4.9-6.6-8.7-11.6-11.5   C946.4,117.1,941,115.7,935.3,115.7z M1051.7,77.1h10.6v30.5h16.8v9.1h-16.8v73h-10.6v-73h-14.4v-9.1h14.4V77.1z M1133.8,105.5   c12.7,0,23.2,4.6,31.5,13.7c7.6,8.4,11.4,18.2,11.4,29.7c0,11.5-4,21.5-12,30.1c-8,8.6-18.3,12.9-30.8,12.9   c-12.6,0-22.9-4.3-30.9-12.9c-8-8.6-12-18.6-12-30.1c0-11.4,3.8-21.2,11.3-29.6C1110.6,110.1,1121.1,105.5,1133.8,105.5z    M1133.8,115.8c-8.8,0-16.3,3.2-22.7,9.7c-6.3,6.5-9.5,14.4-9.5,23.6c0,5.9,1.5,11.5,4.3,16.6c2.9,5.1,6.8,9.1,11.7,11.9   c4.9,2.8,10.3,4.2,16.1,4.2c5.9,0,11.2-1.4,16.1-4.2c4.9-2.8,8.8-6.8,11.7-11.9c2.9-5.1,4.3-10.7,4.3-16.6c0-9.2-3.2-17.1-9.5-23.6   C1150.1,119.1,1142.5,115.8,1133.8,115.8z M1240.7,78.7h22.1c12.7,0,21.2,0.6,25.7,1.7c6.3,1.6,11.5,4.8,15.6,9.6   c4,4.9,6,11,6,18.3c0,7.4-2,13.5-5.9,18.3c-3.9,4.8-9.3,8-16.2,9.7c-5,1.2-14.4,1.8-28.2,1.8h-7.9v51.7h-11.1L1240.7,78.7   L1240.7,78.7L1240.7,78.7z M1251.8,89.5v37.7l18.8,0.2c7.6,0,13.2-0.7,16.7-2.1c3.5-1.4,6.3-3.6,8.3-6.7c2-3.1,3-6.5,3-10.4   c0-3.7-1-7.1-3-10.2c-2-3.1-4.7-5.3-8-6.6c-3.3-1.3-8.7-2-16.2-2L1251.8,89.5L1251.8,89.5L1251.8,89.5z M1412.4,107.6v82.2H1402   v-14.1c-4.4,5.4-9.4,9.4-14.9,12.2c-5.5,2.7-11.5,4.1-18.1,4.1c-11.6,0-21.6-4.2-29.8-12.6c-8.2-8.4-12.3-18.7-12.3-30.8   c0-11.8,4.2-21.9,12.5-30.4c8.3-8.4,18.3-12.6,30-12.6c6.7,0,12.9,1.4,18.3,4.3c5.5,2.9,10.3,7.2,14.4,12.9v-15.1L1412.4,107.6z    M1370.2,115.7c-5.9,0-11.3,1.4-16.3,4.3c-5,2.9-8.9,7-11.9,12.2c-2.9,5.2-4.4,10.8-4.4,16.6c0,5.8,1.5,11.3,4.5,16.6   c3,5.3,6.9,9.4,12,12.3c5,2.9,10.4,4.4,16.1,4.4c5.8,0,11.3-1.5,16.4-4.4c5.2-2.9,9.2-6.9,12-11.9c2.8-5,4.2-10.6,4.2-16.8   c0-9.5-3.1-17.4-9.4-23.8C1387,118.9,1379.3,115.7,1370.2,115.7z M1432.2,107.6h10.8v12c3.2-4.7,6.6-8.3,10.2-10.6   c3.6-2.3,7.3-3.5,11.2-3.5c2.9,0,6,0.9,9.4,2.8l-5.5,8.9c-2.2-1-4.1-1.4-5.6-1.4c-3.5,0-6.9,1.4-10.2,4.3   c-3.3,2.9-5.8,7.4-7.5,13.5c-1.3,4.7-2,14.2-2,28.4v27.8h-10.8L1432.2,107.6L1432.2,107.6z M1551.9,162.5l8.9,4.7   c-2.9,5.7-6.3,10.4-10.1,13.9c-3.8,3.5-8.1,6.2-12.9,8c-4.8,1.8-10.2,2.8-16.3,2.8c-13.4,0-23.9-4.4-31.5-13.2   c-7.6-8.8-11.3-18.7-11.3-29.8c0-10.4,3.2-19.7,9.6-27.9c8.1-10.4,19-15.6,32.6-15.6c14,0,25.2,5.3,33.6,15.9   c5.9,7.5,9,16.9,9.1,28.1h-73.9c0.2,9.5,3.3,17.4,9.2,23.5c5.9,6.1,13.2,9.2,21.9,9.2c4.2,0,8.2-0.7,12.2-2.2   c4-1.5,7.3-3.4,10.1-5.8C1545.7,171.8,1548.7,167.9,1551.9,162.5L1551.9,162.5z M1551.9,140.4c-1.4-5.6-3.5-10.1-6.2-13.5   c-2.7-3.4-6.3-6.1-10.7-8.2c-4.4-2.1-9.2-3.1-14-3.1c-8,0-15,2.6-20.8,7.8c-4.2,3.8-7.4,9.4-9.6,17L1551.9,140.4z M1583.2,107.6   h10.6v14.7c4.2-5.6,8.9-9.9,14-12.7c5.1-2.8,10.7-4.2,16.8-4.2c6.1,0,11.6,1.6,16.4,4.7c4.8,3.1,8.3,7.3,10.5,12.6   c2.3,5.3,3.4,13.5,3.4,24.7v42.3h-10.6v-39.2c0-9.5-0.4-15.8-1.2-19c-1.2-5.4-3.6-9.5-7.1-12.3c-3.5-2.7-8-4.1-13.6-4.1   c-6.4,0-12.1,2.1-17.2,6.3c-5.1,4.2-8.4,9.5-10,15.7c-1,4.1-1.5,11.5-1.5,22.4v30.1h-10.6L1583.2,107.6L1583.2,107.6L1583.2,107.6   L1583.2,107.6z M1686.8,77.1h10.6v30.5h16.8v9.1h-16.8v73h-10.6v-73h-14.4v-9.1h14.4V77.1z M1771.3,116.6l-6.8,7   c-5.7-5.5-11.2-8.2-16.6-8.2c-3.4,0-6.4,1.1-8.8,3.4c-2.5,2.3-3.7,4.9-3.7,7.9c0,2.7,1,5.2,3,7.6c2,2.5,6.3,5.4,12.7,8.7   c7.9,4.1,13.2,8,16,11.8c2.8,3.8,4.2,8.1,4.2,12.9c0,6.8-2.4,12.5-7.1,17.1c-4.8,4.7-10.7,7-17.8,7c-4.7,0-9.3-1-13.6-3.1   c-4.3-2.1-7.9-4.9-10.7-8.5l6.6-7.6c5.4,6.1,11.1,9.1,17.2,9.1c4.2,0,7.8-1.4,10.8-4.1c3-2.7,4.5-5.9,4.5-9.6c0-3-1-5.7-2.9-8.1   c-2-2.3-6.4-5.2-13.3-8.8c-7.4-3.8-12.5-7.6-15.1-11.3c-2.7-3.7-4-8-4-12.8c0-6.2,2.1-11.4,6.4-15.6c4.3-4.1,9.6-6.2,16.2-6.2   C1756,105.5,1763.6,109.2,1771.3,116.6L1771.3,116.6z" fill="#133478"  />
	
</g><linearGradient id="SVGID_1_" gradientUnits="userSpaceOnUse" x1="-101.6514" y1="114.6342" x2="209.1244" y2="114.6342" gradientTransform="matrix(0.9051 0 0 -0.9051 93.2832 196.529)"><stop offset="0.2" stop-color="#0092D4" ></stop><stop offset="0.8" stop-color="#133478" ></stop>
	
	
</linearGradient><path d="  M282.6,141.9c0-77.7-63-140.6-140.6-140.6S1.3,64.2,1.3,141.9c0,0,7.2-17.1,32-15.5c16.3-32.6,34.9-11.1,34.9-11.1  s22.1-20.5,32.2-1.1c33.3-8.5,40.3,36.1,40.3,36.1s26.8,42.1,39.1,20.4c18.7-33-30.4-80.6-30.4-80.6s48.1,45.3,30.4,80.6  c18,31.9,33.6-2,33.6-2s8.6-57.6-52.2-105c65.2,49.7,51.3,112.3,51.3,112.3s29.4,23.4,37.1-21.6c-3.3-77.9-62.8-108.1-62.8-108.1  s57.6,26.8,62.6,109.3C251.7,155.6,275,167.7,282.6,141.9z" fill="url(#SVGID_1_)"  stroke="#FFFFFF"  stroke-width="2.557"  stroke-linecap="round"  stroke-linejoin="round"  stroke-miterlimit="10"  /><linearGradient id="SVGID_2_" gradientUnits="userSpaceOnUse" x1="-101.6514" y1="3.783" x2="209.1245" y2="3.783" gradientTransform="matrix(0.9051 0 0 -0.9051 93.2832 196.529)"><stop offset="0.2" stop-color="#133478" ></stop><stop offset="0.8" stop-color="#0092D4" ></stop>
	
	
</linearGradient><path d="  M1.3,144.1c0,77.7,63,140.6,140.6,140.6s140.6-63,140.6-140.6c0,0-7.2,17.1-32,15.5c-16.3,32.6-38,16.3-38,16.3s-23.3,17.1-33.3-2.3  c-33.3,8.5-44.8-40.3-44.8-40.3s-18-39.5-30.4-17.8c-18.7,33,30.4,80.6,30.4,80.6s-48.1-45.3-30.4-80.6c-18-31.9-34.9,0.8-34.9,0.8  s-13.7,56,53.5,106.2c-65.2-49.8-53.5-106.2-53.5-106.2S42,86.7,34.2,131.7C37.5,209.6,97,239.8,97,239.8s-57.6-26.8-62.6-109.3  C32.1,130.5,8.9,118.3,1.3,144.1z" fill="url(#SVGID_2_)"  stroke="#FFFFFF"  stroke-width="2.557"  stroke-linecap="round"  stroke-linejoin="round"  stroke-miterlimit="10"  /></svg>