<svg viewBox="0 0 1155.1 284.6" role="img" aria-labelledby="maathri--title" xmlns="http://www.w3.org/2000/svg" xmlns:xlink="http://www.w3.org/1999/xlink"><title id="maathri--title">MAATHRI - maternal and Perinatal Health Research Collaboration in India</title><radialGradient id="SVGID_1_" cx="930.7287" cy="150.005" r="45.174" gradientTransform="matrix(2.7117 0 0 -2.7117 -1494.312 532.2963)" gradientUnits="userSpaceOnUse"><stop offset="0" stop-color="#FFFFFF" ></stop><stop offset="0.149" stop-color="#FEF9F9" ></stop><stop offset="0.345" stop-color="#FCE9EA" ></stop><stop offset="0.566" stop-color="#F9CECF" ></stop><stop offset="0.805" stop-color="#F4A8AB" ></stop><stop offset="1" stop-color="#EF8488" ></stop>
	
	
	
	
	
	
</radialGradient><circle cx="1029.5" cy="125.5" r="122.5" fill-rule="evenodd"  clip-rule="evenodd"  fill="url(#SVGID_1_)"  /><path d="M186.5,154.5c-3.8,2.4-7.9,3.6-12.1,3.6c-4.2,0-7.5-1.3-9.9-3.8c-2.3-2.5-3.8-6.8-4.4-12.8L152.8,28  l-45.1,120.2c-1.6,4.5-4.7,6.8-9.4,6.8c-4.7,0-7.8-2.3-9.4-6.8L44.7,28l-7.4,112.9c-0.4,6.1-1.6,10.5-3.6,13.3  c-2,2.8-5.2,4.1-9.8,4.1c-4.5,0-8.6-1.8-12.3-5.5c2.8-2.4,4.5-6.7,4.9-13L25.4,20v-2.3c0-4.7-1.1-8.4-3.4-11.1  C28.1,3,34.5,1.2,41.1,1.2c6.7,0,11.8,1.8,15.5,5.5s6.8,9.5,9.4,17.4l34.2,92.3l35.3-91.9c2.8-8.8,6.4-14.9,10.7-18.3  s9.5-5.1,15.4-5.1c6,0,11.5,1.3,16.6,3.8c-2.3,3.1-3.4,7-3.4,11.7v2.3l8.3,120.4C183.2,146.8,184.4,151.8,186.5,154.5L186.5,154.5z   M298.3,81.1v54c0,7.9,3.5,12.6,10.6,14c-3.5,6.2-9,9.4-16.4,9.4c-9.5,0-14.9-5.3-16.4-15.9c-8.2,10.6-19.2,15.9-32.9,15.9  c-9.1,0-16.4-2.4-22.1-7.2c-5.7-4.8-8.5-11.5-8.5-20c0-10.5,5.4-18.9,16.2-25.4c10.8-6.4,26.5-10,47.2-10.5V80.5  c0-7.6-1.4-13.3-4.1-16.9c-2.8-3.6-7-5.4-12.8-5.4c-5.7,0-10.1,1.2-13.1,3.7c-3,2.5-4.5,5.5-4.5,8.9c0,3.5,1,6.3,3,8.4  c-3.5,3.1-7.7,4.7-12.3,4.7c-4.6,0-8.3-1.2-10.9-3.5s-3.9-5.6-3.9-9.7c0-7.1,4.1-13,12.3-17.9c8.2-4.8,18.2-7.2,29.9-7.2  c11.7,0,21.1,3,28.2,9.1C294.7,60.8,298.3,69.6,298.3,81.1L298.3,81.1z M236.6,128.8c0,9.1,5,13.6,14.9,13.6  c9.9,0,18.1-4.2,24.4-12.5v-24c-13.5,0.7-23.4,3.2-29.8,7.3C239.8,117.4,236.6,122.6,236.6,128.8L236.6,128.8z M412.7,81.1v54  c0,7.9,3.5,12.6,10.6,14c-3.5,6.2-9,9.4-16.4,9.4c-9.5,0-14.9-5.3-16.4-15.9c-8.2,10.6-19.2,15.9-32.9,15.9  c-9.1,0-16.4-2.4-22.1-7.2s-8.5-11.5-8.5-20c0-10.5,5.4-18.9,16.2-25.4c10.8-6.4,26.5-10,47.2-10.5V80.5c0-7.6-1.4-13.3-4.1-16.9  c-2.8-3.6-7-5.4-12.8-5.4c-5.7,0-10.1,1.2-13.1,3.7c-3,2.5-4.5,5.5-4.5,8.9c0,3.5,1,6.3,3,8.4c-3.5,3.1-7.7,4.7-12.3,4.7  s-8.3-1.2-10.9-3.5c-2.6-2.3-3.9-5.6-3.9-9.7c0-7.1,4.1-13,12.3-17.9c8.2-4.8,18.2-7.2,29.9-7.2s21.1,3,28.2,9.1  C409.2,60.8,412.7,69.6,412.7,81.1L412.7,81.1z M351.1,128.8c0,9.1,5,13.6,14.9,13.6s18.1-4.2,24.4-12.5v-24  c-13.5,0.7-23.4,3.2-29.8,7.3C354.3,117.4,351.1,122.6,351.1,128.8L351.1,128.8z M472.3,63.3v64.3c0,5.1,1,8.7,2.9,10.9  c1.9,2.2,5.1,3.3,9.5,3.3c8.6,0,16.6-3.6,23.8-10.8c3.1,0.6,4.7,3.1,4.7,7.7c0,4.5-3.2,9-9.7,13.3c-6.4,4.3-14.4,6.5-23.8,6.5  c-9.4,0-16.7-2.4-21.9-7.3c-5.2-4.9-7.8-12.1-7.8-21.8V63.3c-5.8-0.1-10.1-1.1-12.8-2.9c-2.7-1.8-4-4.1-4-6.9c0-2.8,1.1-5,3.2-6.6  c4,0.6,7.7,0.9,11.3,0.9h2.3v-14c0-5.1-2-8.5-5.9-10.2c3.4-5,7.9-7.4,13.4-7.4c9.9,0,14.9,6,14.9,17.9v13.8h34.4  c0.8,1.3,1.3,2.5,1.3,3.8c0,7.8-11,11.7-33.2,11.7L472.3,63.3L472.3,63.3z" fill="#E40646"  /><path d="M661.2,18.8v121.9c0,5.2,1.9,8.6,5.7,10.2c-3.7,5-8.2,7.4-13.6,7.4c-9.6,0-14.5-5.9-14.5-17.9V87.3H561v53.6  c0,5.1,1.9,8.5,5.7,10.2c-3.4,5-7.9,7.4-13.6,7.4c-9.6,0-14.5-5.9-14.5-17.9V18.6c0-5-1.9-8.3-5.7-10c3.3-5,7.7-7.4,13.4-7.4  c9.8,0,14.7,5.9,14.7,17.6v52.7h77.7V18.6c0-5-1.9-8.3-5.7-10c3.3-5,7.7-7.4,13.4-7.4C656.3,1.2,661.2,7.1,661.2,18.8L661.2,18.8z   M798.3,158.4c-4.8,0-8.8-1.2-12-3.5c-3.2-2.3-7-6.8-11.4-13.3l-32.1-46.8h-17.4v45.9c0,5.1,2,8.5,5.9,10.2c-3.7,5-8.3,7.4-13.8,7.4  c-9.6,0-14.5-5.9-14.5-17.9v-119c0-5.1-1.9-8.5-5.7-10.2c4-5.5,9.8-8.3,17.6-8.3h34.2c16.7,0,30.4,4.1,41.1,12.2  c10.7,8.1,16,19.4,16,33.9c0,11.5-3.5,21-10.4,28.5c-6.9,7.5-16.2,12.6-27.8,15.3l31.9,43.6c4.1,5.7,9,9.1,14.7,10.2  C810.8,154.4,805.3,158.4,798.3,158.4L798.3,158.4z M725.5,19.9v58.2h23c11.3,0,19.9-2.5,25.8-7.5s8.8-12.1,8.8-21.4  c0-9.2-2.9-16.4-8.8-21.6c-5.9-5.2-14.5-7.8-25.8-7.8L725.5,19.9L725.5,19.9z M863.1,18.8v121.9c0,5.1,1.9,8.5,5.7,10.2  c-3.4,5-7.9,7.4-13.6,7.4c-9.6,0-14.5-5.9-14.5-17.9V18.5c0-5-1.9-8.3-5.7-10c3.3-5,7.7-7.4,13.4-7.4  C858.2,1.2,863.1,7.1,863.1,18.8L863.1,18.8z" fill="#253A8E"  /><g><path d="M1.7,225.1v-35.1h7l8.3,24.8c0.8,2.3,1.3,4,1.7,5.2c0.4-1.3,1-3.2,1.9-5.6l8.4-24.4h6.2v35.1h-4.5v-29.4   l-10.2,29.4h-4.2L6.2,195.3v29.9L1.7,225.1L1.7,225.1z M59.2,221.9c-1.6,1.4-3.1,2.3-4.6,2.9c-1.5,0.6-3.1,0.8-4.7,0.8   c-2.8,0-4.9-0.7-6.4-2c-1.5-1.4-2.2-3.1-2.2-5.2c0-1.2,0.3-2.4,0.8-3.4c0.6-1,1.3-1.9,2.2-2.5c0.9-0.6,1.9-1.1,3.1-1.4   c0.8-0.2,2.1-0.4,3.8-0.6c3.5-0.4,6-0.9,7.7-1.5V208c0-1.8-0.4-3-1.2-3.7c-1.1-1-2.7-1.5-4.9-1.5c-2,0-3.5,0.4-4.5,1.1   c-1,0.7-1.7,2-2.1,3.8l-4.2-0.6c0.4-1.8,1-3.3,1.9-4.4c0.9-1.1,2.1-2,3.8-2.6s3.6-0.9,5.8-0.9c2.2,0,3.9,0.3,5.3,0.8   c1.4,0.5,2.4,1.2,3,1.9c0.6,0.8,1.1,1.7,1.3,2.9c0.1,0.7,0.2,2.1,0.2,4v5.7c0,4,0.1,6.5,0.3,7.6c0.2,1.1,0.5,2.1,1.1,3h-4.5   C59.6,224.2,59.3,223.1,59.2,221.9z M58.8,212.4c-1.6,0.6-3.9,1.2-7,1.6c-1.8,0.3-3,0.5-3.8,0.9c-0.7,0.3-1.3,0.8-1.7,1.4   c-0.4,0.6-0.6,1.3-0.6,2c0,1.1,0.4,2.1,1.3,2.9c0.9,0.8,2.1,1.1,3.8,1.1c1.7,0,3.1-0.4,4.4-1.1c1.3-0.7,2.2-1.7,2.8-3   c0.5-1,0.7-2.4,0.7-4.3L58.8,212.4L58.8,212.4z M79.7,221.2l0.6,3.8c-1.2,0.3-2.3,0.4-3.3,0.4c-1.6,0-2.8-0.2-3.6-0.7   c-0.9-0.5-1.5-1.1-1.8-1.9c-0.4-0.8-0.5-2.5-0.5-5.1v-14.6h-3.2v-3.3h3.2v-6.3l4.3-2.6v8.9h4.3v3.3h-4.3v14.9c0,1.2,0.1,2,0.2,2.4   c0.2,0.3,0.4,0.6,0.7,0.8c0.3,0.2,0.8,0.3,1.5,0.3C78.3,221.4,78.9,221.3,79.7,221.2L79.7,221.2z M101.8,217l4.4,0.6   c-0.7,2.6-2,4.6-3.9,6.1c-1.9,1.4-4.3,2.2-7.3,2.2c-3.7,0-6.7-1.1-8.8-3.4c-2.2-2.3-3.3-5.5-3.3-9.6c0-4.3,1.1-7.6,3.3-10   c2.2-2.4,5.1-3.5,8.6-3.5c3.4,0,6.2,1.2,8.3,3.5c2.2,2.3,3.2,5.6,3.2,9.8v1.1H87.4c0.2,2.8,0.9,4.9,2.4,6.4   c1.4,1.5,3.2,2.2,5.3,2.2c1.6,0,2.9-0.4,4-1.2C100.2,220,101.1,218.8,101.8,217L101.8,217z M87.6,210h14.2   c-0.2-2.1-0.7-3.7-1.6-4.8c-1.4-1.7-3.2-2.5-5.3-2.5c-2,0-3.6,0.7-5,2C88.5,206,87.8,207.8,87.6,210z M112.1,225.1v-25.4h3.9v3.9   c1-1.8,1.9-3,2.7-3.6c0.8-0.6,1.8-0.9,2.8-0.9c1.5,0,2.9,0.5,4.4,1.4l-1.5,4c-1.1-0.6-2.1-0.9-3.2-0.9c-0.9,0-1.8,0.3-2.5,0.8   c-0.7,0.6-1.3,1.4-1.6,2.4c-0.5,1.5-0.7,3.2-0.7,5v13.3C116.4,225.1,112.1,225.1,112.1,225.1z M128.9,225.1v-25.4h3.9v3.6   c1.9-2.8,4.6-4.2,8.1-4.2c1.5,0,2.9,0.3,4.2,0.8c1.3,0.6,2.2,1.3,2.9,2.2c0.6,0.9,1.1,2,1.3,3.2c0.2,0.8,0.2,2.2,0.2,4.2v15.6h-4.3   v-15.5c0-1.8-0.2-3.1-0.5-3.9c-0.3-0.9-0.9-1.6-1.8-2.1s-1.9-0.8-3-0.8c-1.8,0-3.4,0.6-4.7,1.7c-1.3,1.2-2,3.4-2,6.6V225   L128.9,225.1L128.9,225.1z M173.2,221.9c-1.6,1.4-3.1,2.3-4.6,2.9c-1.5,0.6-3.1,0.8-4.7,0.8c-2.8,0-4.9-0.7-6.4-2   c-1.5-1.4-2.2-3.1-2.2-5.2c0-1.2,0.3-2.4,0.8-3.4c0.6-1,1.3-1.9,2.2-2.5s1.9-1.1,3.1-1.4c0.8-0.2,2.1-0.4,3.8-0.6   c3.5-0.4,6-0.9,7.7-1.5V208c0-1.8-0.4-3-1.2-3.7c-1.1-1-2.7-1.5-4.9-1.5c-2,0-3.5,0.4-4.5,1.1c-1,0.7-1.7,2-2.1,3.8l-4.2-0.6   c0.4-1.8,1-3.3,1.9-4.4c0.9-1.1,2.1-2,3.8-2.6c1.7-0.6,3.6-0.9,5.8-0.9c2.2,0,3.9,0.3,5.3,0.8c1.4,0.5,2.4,1.2,3,1.9   c0.6,0.8,1.1,1.7,1.3,2.9c0.1,0.7,0.2,2.1,0.2,4v5.7c0,4,0.1,6.5,0.3,7.6c0.2,1.1,0.5,2.1,1.1,3h-4.5   C173.7,224.2,173.4,223.1,173.2,221.9L173.2,221.9z M172.9,212.4c-1.6,0.6-3.9,1.2-7,1.6c-1.8,0.3-3,0.5-3.8,0.9   c-0.7,0.3-1.3,0.8-1.7,1.4c-0.4,0.6-0.6,1.3-0.6,2c0,1.1,0.4,2.1,1.3,2.9c0.9,0.8,2.1,1.1,3.8,1.1c1.7,0,3.1-0.4,4.4-1.1   c1.3-0.7,2.2-1.7,2.8-3c0.5-1,0.7-2.4,0.7-4.3L172.9,212.4L172.9,212.4z M184.2,225.1v-35.1h4.3v35.1L184.2,225.1L184.2,225.1z    M226.4,221.9c-1.6,1.4-3.1,2.3-4.6,2.9c-1.5,0.6-3.1,0.8-4.7,0.8c-2.8,0-4.9-0.7-6.4-2c-1.5-1.4-2.2-3.1-2.2-5.2   c0-1.2,0.3-2.4,0.8-3.4c0.6-1,1.3-1.9,2.2-2.5s1.9-1.1,3.1-1.4c0.8-0.2,2.1-0.4,3.8-0.6c3.5-0.4,6-0.9,7.7-1.5V208   c0-1.8-0.4-3-1.2-3.7c-1.1-1-2.7-1.5-4.9-1.5c-2,0-3.5,0.4-4.5,1.1c-1,0.7-1.7,2-2.1,3.8l-4.2-0.6c0.4-1.8,1-3.3,1.9-4.4   c0.9-1.1,2.1-2,3.8-2.6c1.7-0.6,3.6-0.9,5.8-0.9c2.2,0,3.9,0.3,5.3,0.8c1.4,0.5,2.4,1.2,3,1.9c0.6,0.8,1.1,1.7,1.3,2.9   c0.1,0.7,0.2,2.1,0.2,4v5.7c0,4,0.1,6.5,0.3,7.6c0.2,1.1,0.5,2.1,1.1,3h-4.5C226.8,224.2,226.5,223.1,226.4,221.9L226.4,221.9z    M226,212.4c-1.6,0.6-3.9,1.2-7,1.6c-1.8,0.3-3,0.5-3.8,0.9c-0.7,0.3-1.3,0.8-1.7,1.4c-0.4,0.6-0.6,1.3-0.6,2   c0,1.1,0.4,2.1,1.3,2.9c0.9,0.8,2.1,1.1,3.8,1.1c1.7,0,3.1-0.4,4.4-1.1c1.3-0.7,2.2-1.7,2.8-3c0.5-1,0.7-2.4,0.7-4.3L226,212.4   L226,212.4z M237.5,225.1v-25.4h3.9v3.6c1.9-2.8,4.6-4.2,8.1-4.2c1.5,0,2.9,0.3,4.2,0.8c1.3,0.6,2.2,1.3,2.9,2.2   c0.7,0.9,1.1,2,1.3,3.2c0.2,0.8,0.2,2.2,0.2,4.2v15.6h-4.3v-15.5c0-1.8-0.2-3.1-0.5-3.9c-0.3-0.9-0.9-1.6-1.8-2.1s-1.9-0.8-3-0.8   c-1.8,0-3.4,0.6-4.7,1.7c-1.3,1.2-2,3.4-2,6.6V225L237.5,225.1L237.5,225.1z M281.8,225.1v-3.2c-1.6,2.5-4,3.8-7.1,3.8   c-2,0-3.9-0.6-5.6-1.7c-1.7-1.1-3-2.7-3.9-4.7c-0.9-2-1.4-4.3-1.4-6.9c0-2.5,0.4-4.8,1.3-6.9c0.8-2.1,2.1-3.6,3.8-4.7   c1.7-1.1,3.6-1.7,5.7-1.7c1.5,0,2.9,0.3,4.1,1c1.2,0.6,2.2,1.5,2.9,2.5v-12.6h4.3v35.1L281.8,225.1L281.8,225.1z M268.1,212.5   c0,3.3,0.7,5.7,2.1,7.3s3,2.4,4.9,2.4c1.9,0,3.5-0.8,4.8-2.3c1.3-1.5,2-3.9,2-7c0-3.5-0.7-6-2-7.7c-1.3-1.6-3-2.4-5-2.4   c-1.9,0-3.5,0.8-4.8,2.3C268.8,206.7,268.1,209.1,268.1,212.5z M307,234.8v-35.1h3.9v3.3c0.9-1.3,2-2.3,3.1-2.9   c1.2-0.6,2.6-1,4.2-1c2.2,0,4.1,0.6,5.7,1.7c1.7,1.1,2.9,2.7,3.8,4.7c0.8,2,1.3,4.3,1.3,6.7c0,2.6-0.5,4.9-1.4,7   c-0.9,2.1-2.3,3.7-4.1,4.8c-1.8,1.1-3.6,1.7-5.6,1.7c-1.4,0-2.7-0.3-3.9-0.9c-1.1-0.6-2.1-1.4-2.8-2.3v12.3H307z M310.9,212.6   c0,3.3,0.7,5.7,2,7.3c1.3,1.6,2.9,2.3,4.8,2.3s3.6-0.8,4.9-2.4c1.4-1.6,2-4.1,2-7.5c0-3.2-0.7-5.7-2-7.3s-2.9-2.4-4.8-2.4   c-1.8,0-3.5,0.9-4.9,2.6C311.6,206.9,310.9,209.3,310.9,212.6L310.9,212.6z M352.2,217l4.4,0.6c-0.7,2.6-2,4.6-3.9,6.1   c-1.9,1.4-4.3,2.2-7.3,2.2c-3.7,0-6.7-1.1-8.8-3.4c-2.2-2.3-3.3-5.5-3.3-9.6c0-4.3,1.1-7.6,3.3-10c2.2-2.4,5.1-3.5,8.6-3.5   c3.4,0,6.2,1.2,8.3,3.5c2.2,2.3,3.2,5.6,3.2,9.8v1.1h-18.9c0.2,2.8,0.9,4.9,2.4,6.4c1.4,1.5,3.2,2.2,5.3,2.2c1.6,0,2.9-0.4,4-1.2   C350.6,220,351.5,218.8,352.2,217L352.2,217z M338,210h14.2c-0.2-2.1-0.7-3.7-1.6-4.8c-1.4-1.7-3.2-2.5-5.3-2.5c-2,0-3.6,0.7-5,2   C338.9,206,338.2,207.8,338,210L338,210z M362.5,225.1v-25.4h3.9v3.9c1-1.8,1.9-3,2.7-3.6s1.8-0.9,2.8-0.9c1.5,0,2.9,0.5,4.4,1.4   l-1.5,4c-1.1-0.6-2.1-0.9-3.2-0.9c-0.9,0-1.8,0.3-2.5,0.8c-0.7,0.6-1.3,1.4-1.6,2.4c-0.5,1.5-0.7,3.2-0.7,5v13.3H362.5L362.5,225.1   z M379.3,195.1v-5h4.3v5H379.3z M379.3,225.1v-25.4h4.3v25.4H379.3z M390.7,225.1v-25.4h3.9v3.6c1.9-2.8,4.6-4.2,8.1-4.2   c1.5,0,2.9,0.3,4.2,0.8c1.3,0.5,2.2,1.3,2.9,2.2s1.1,2,1.3,3.2c0.2,0.8,0.2,2.2,0.2,4.2v15.6H407v-15.5c0-1.8-0.2-3.1-0.5-3.9   c-0.3-0.9-0.9-1.6-1.8-2.1c-0.9-0.5-1.9-0.8-3-0.8c-1.8,0-3.4,0.6-4.7,1.7c-1.3,1.2-2,3.4-2,6.6V225L390.7,225.1L390.7,225.1z    M434.9,221.9c-1.6,1.4-3.1,2.3-4.6,2.9c-1.5,0.6-3.1,0.8-4.7,0.8c-2.8,0-4.9-0.7-6.4-2c-1.5-1.4-2.2-3.1-2.2-5.2   c0-1.2,0.3-2.4,0.8-3.4c0.6-1,1.3-1.9,2.2-2.5c0.9-0.6,1.9-1.1,3.1-1.4c0.8-0.2,2.1-0.4,3.8-0.6c3.5-0.4,6-0.9,7.7-1.5V208   c0-1.8-0.4-3-1.2-3.7c-1.1-1-2.7-1.5-4.9-1.5c-2,0-3.5,0.4-4.5,1.1c-1,0.7-1.7,2-2.1,3.8l-4.2-0.6c0.4-1.8,1-3.3,1.9-4.4   c0.9-1.1,2.1-2,3.8-2.6c1.7-0.6,3.6-0.9,5.8-0.9s3.9,0.3,5.3,0.8c1.4,0.5,2.4,1.2,3,1.9c0.6,0.8,1.1,1.7,1.3,2.9   c0.1,0.7,0.2,2.1,0.2,4v5.7c0,4,0.1,6.5,0.3,7.6c0.2,1.1,0.5,2.1,1.1,3h-4.5C435.3,224.2,435,223.1,434.9,221.9L434.9,221.9z    M434.6,212.4c-1.6,0.6-3.9,1.2-7,1.6c-1.8,0.3-3,0.5-3.8,0.9c-0.7,0.3-1.3,0.8-1.7,1.4c-0.4,0.6-0.6,1.3-0.6,2   c0,1.1,0.4,2.1,1.3,2.9c0.9,0.8,2.1,1.1,3.8,1.1c1.7,0,3.1-0.4,4.4-1.1c1.3-0.7,2.2-1.7,2.8-3c0.5-1,0.7-2.4,0.7-4.3L434.6,212.4   L434.6,212.4z M455.5,221.2l0.6,3.8c-1.2,0.3-2.3,0.4-3.3,0.4c-1.6,0-2.8-0.2-3.6-0.7c-0.9-0.5-1.5-1.1-1.8-1.9   c-0.4-0.8-0.5-2.5-0.5-5.1v-14.6h-3.2v-3.3h3.2v-6.3l4.3-2.6v8.9h4.3v3.3h-4.3v14.9c0,1.2,0.1,2,0.2,2.4c0.1,0.3,0.4,0.6,0.7,0.8   c0.3,0.2,0.8,0.3,1.5,0.3C454.1,221.4,454.7,221.3,455.5,221.2L455.5,221.2z M476.8,221.9c-1.6,1.4-3.1,2.3-4.6,2.9   c-1.5,0.6-3.1,0.8-4.7,0.8c-2.8,0-4.9-0.7-6.4-2c-1.5-1.4-2.2-3.1-2.2-5.2c0-1.2,0.3-2.4,0.8-3.4c0.6-1,1.3-1.9,2.2-2.5   s2-1.1,3.1-1.4c0.8-0.2,2.1-0.4,3.8-0.6c3.5-0.4,6-0.9,7.7-1.5V208c0-1.8-0.4-3-1.2-3.7c-1.1-1-2.7-1.5-4.9-1.5   c-2,0-3.5,0.4-4.5,1.1c-1,0.7-1.7,2-2.1,3.8l-4.2-0.6c0.4-1.8,1-3.3,1.9-4.4c0.9-1.1,2.1-2,3.8-2.6c1.7-0.6,3.6-0.9,5.8-0.9   c2.2,0,3.9,0.3,5.3,0.8c1.4,0.5,2.4,1.2,3,1.9c0.6,0.8,1.1,1.7,1.3,2.9c0.1,0.7,0.2,2.1,0.2,4v5.7c0,4,0.1,6.5,0.3,7.6   c0.2,1.1,0.5,2.1,1.1,3h-4.7C477.2,224.2,476.9,223.1,476.8,221.9z M476.4,212.4c-1.6,0.6-3.9,1.2-7,1.6c-1.8,0.3-3,0.5-3.8,0.9   c-0.7,0.3-1.3,0.8-1.7,1.4c-0.4,0.6-0.6,1.3-0.6,2c0,1.1,0.4,2.1,1.3,2.9c0.9,0.8,2.1,1.1,3.8,1.1s3.1-0.4,4.4-1.1   c1.3-0.7,2.2-1.7,2.8-3c0.5-1,0.7-2.4,0.7-4.3L476.4,212.4L476.4,212.4z M487.8,225.1v-35.1h4.3v35.1L487.8,225.1L487.8,225.1z    M514.1,225.1v-35.1h4.6v14.4h18.2v-14.4h4.6v35.1h-4.6v-16.5h-18.2v16.5L514.1,225.1L514.1,225.1z M566.6,217l4.5,0.6   c-0.7,2.6-2,4.6-3.9,6.1c-1.9,1.4-4.3,2.2-7.3,2.2c-3.7,0-6.7-1.1-8.8-3.4c-2.2-2.3-3.3-5.5-3.3-9.6c0-4.3,1.1-7.6,3.3-10   c2.2-2.4,5.1-3.5,8.6-3.5c3.4,0,6.2,1.2,8.3,3.5c2.2,2.3,3.2,5.6,3.2,9.8v1.1h-18.9c0.2,2.8,0.9,4.9,2.4,6.4   c1.4,1.5,3.2,2.2,5.3,2.2c1.6,0,2.9-0.4,4-1.2C565,220,565.9,218.8,566.6,217L566.6,217z M552.4,210h14.2c-0.2-2.1-0.7-3.7-1.6-4.8   c-1.4-1.7-3.2-2.5-5.3-2.5c-2,0-3.6,0.7-5,2C553.3,206,552.6,207.8,552.4,210L552.4,210z M593.5,221.9c-1.6,1.4-3.1,2.3-4.6,2.9   c-1.5,0.6-3.1,0.8-4.7,0.8c-2.8,0-4.9-0.7-6.4-2c-1.5-1.4-2.2-3.1-2.2-5.2c0-1.2,0.3-2.4,0.8-3.4c0.6-1,1.3-1.9,2.2-2.5   c0.9-0.6,2-1.1,3.1-1.4c0.8-0.2,2.1-0.4,3.8-0.6c3.5-0.4,6-0.9,7.7-1.5V208c0-1.8-0.4-3-1.2-3.7c-1.1-1-2.7-1.5-4.9-1.5   c-2,0-3.5,0.4-4.5,1.1c-1,0.7-1.7,2-2.1,3.8l-4.2-0.6c0.4-1.8,1-3.3,1.9-4.4c0.9-1.1,2.1-2,3.8-2.6c1.7-0.6,3.6-0.9,5.8-0.9   s3.9,0.3,5.3,0.8c1.4,0.5,2.4,1.2,3,1.9c0.6,0.8,1.1,1.7,1.3,2.9c0.1,0.7,0.2,2.1,0.2,4v5.7c0,4,0.1,6.5,0.3,7.6   c0.2,1.1,0.5,2.1,1.1,3h-4.5C593.9,224.2,593.6,223.1,593.5,221.9z M593.2,212.4c-1.6,0.6-3.9,1.2-7,1.6c-1.8,0.3-3,0.5-3.8,0.9   c-0.7,0.3-1.3,0.8-1.7,1.4c-0.4,0.6-0.6,1.3-0.6,2c0,1.1,0.4,2.1,1.3,2.9c0.9,0.8,2.1,1.1,3.8,1.1s3.1-0.4,4.4-1.1   c1.3-0.7,2.2-1.7,2.8-3c0.5-1,0.7-2.4,0.7-4.3L593.2,212.4L593.2,212.4z M604.6,225.1v-35.1h4.3v35.1L604.6,225.1L604.6,225.1z    M625.4,221.2l0.6,3.8c-1.2,0.3-2.3,0.4-3.3,0.4c-1.6,0-2.8-0.2-3.6-0.7c-0.9-0.5-1.5-1.1-1.8-1.9c-0.4-0.8-0.5-2.5-0.5-5.1v-14.6   h-3.2v-3.3h3.2v-6.3l4.3-2.6v8.9h4.3v3.3h-4.3v14.9c0,1.2,0.1,2,0.2,2.4c0.1,0.3,0.4,0.6,0.7,0.8s0.8,0.3,1.5,0.3   C624,221.4,624.7,221.3,625.4,221.2L625.4,221.2z M630.1,225.1v-35.1h4.3v12.6c2-2.3,4.5-3.5,7.6-3.5c1.9,0,3.5,0.4,4.9,1.1   c1.4,0.7,2.4,1.8,3,3.1c0.6,1.3,0.9,3.2,0.9,5.7v16.1h-4.3v-16.1c0-2.2-0.5-3.7-1.4-4.7c-0.9-1-2.3-1.5-4-1.5c-1.3,0-2.5,0.3-3.6,1   s-1.9,1.6-2.4,2.7c-0.5,1.1-0.7,2.7-0.7,4.7v13.9L630.1,225.1L630.1,225.1z M672.5,225.1v-35.1h15.6c3.1,0,5.5,0.3,7.1,0.9   c1.6,0.6,2.9,1.7,3.9,3.3s1.5,3.4,1.5,5.3c0,2.5-0.8,4.6-2.4,6.3c-1.6,1.7-4.1,2.8-7.5,3.3c1.2,0.6,2.2,1.2,2.8,1.7   c1.4,1.2,2.6,2.8,3.9,4.7l6.1,9.5h-5.8l-4.6-7.3c-1.4-2.1-2.5-3.7-3.3-4.8c-0.9-1.1-1.7-1.9-2.4-2.3c-0.7-0.4-1.4-0.8-2.1-0.9   c-0.5-0.1-1.4-0.2-2.6-0.2h-5.4v15.6L672.5,225.1L672.5,225.1z M677.2,205.6h10c2.1,0,3.8-0.2,5-0.7c1.2-0.4,2.1-1.1,2.7-2.1   c0.6-1,0.9-2,0.9-3.1c0-1.7-0.6-3-1.8-4.1c-1.2-1.1-3.1-1.6-5.7-1.6h-11.1L677.2,205.6L677.2,205.6z M725.2,217l4.5,0.6   c-0.7,2.6-2,4.6-3.9,6.1c-1.9,1.4-4.3,2.2-7.3,2.2c-3.7,0-6.7-1.1-8.8-3.4c-2.1-2.3-3.3-5.5-3.3-9.6c0-4.3,1.1-7.6,3.3-10   c2.2-2.4,5.1-3.5,8.6-3.5c3.4,0,6.2,1.2,8.3,3.5c2.2,2.3,3.2,5.6,3.2,9.8v1.1h-18.9c0.2,2.8,0.9,4.9,2.4,6.4   c1.4,1.5,3.2,2.2,5.3,2.2c1.6,0,2.9-0.4,4-1.2C723.6,220,724.5,218.8,725.2,217L725.2,217z M711,210h14.2c-0.2-2.1-0.7-3.7-1.6-4.8   c-1.4-1.7-3.2-2.5-5.3-2.5c-2,0-3.6,0.7-5,2C711.9,206,711.2,207.8,711,210L711,210z M733.8,217.6l4.3-0.7c0.2,1.7,0.9,3,2,3.9   s2.6,1.4,4.6,1.4s3.4-0.4,4.4-1.2c1-0.8,1.4-1.7,1.4-2.8c0-1-0.4-1.7-1.3-2.3c-0.6-0.4-2.1-0.9-4.4-1.5c-3.2-0.8-5.3-1.5-6.6-2.1   c-1.2-0.6-2.1-1.4-2.8-2.4c-0.6-1-0.9-2.2-0.9-3.4c0-1.1,0.3-2.2,0.8-3.1c0.5-1,1.2-1.8,2.1-2.4c0.7-0.5,1.6-0.9,2.7-1.3   c1.2-0.3,2.4-0.5,3.7-0.5c2,0,3.7,0.3,5.3,0.9c1.5,0.6,2.6,1.4,3.3,2.3c0.7,1,1.2,2.3,1.5,3.9l-4.2,0.6c-0.2-1.3-0.7-2.3-1.7-3.1   c-0.9-0.7-2.2-1.1-3.9-1.1c-2,0-3.4,0.3-4.2,1s-1.3,1.4-1.3,2.3c0,0.6,0.2,1.1,0.5,1.5c0.4,0.5,0.9,0.8,1.6,1.1   c0.4,0.2,1.7,0.5,3.8,1.1c3,0.8,5.2,1.5,6.4,2c1.2,0.5,2.1,1.3,2.8,2.3c0.7,1,1,2.2,1,3.7c0,1.4-0.4,2.8-1.3,4.1   c-0.8,1.3-2,2.2-3.6,2.9c-1.6,0.7-3.4,1-5.4,1c-3.3,0-5.8-0.7-7.5-2.1C735.4,222.2,734.3,220.2,733.8,217.6L733.8,217.6z    M777.9,217l4.5,0.6c-0.7,2.6-2,4.6-3.9,6.1c-1.9,1.4-4.3,2.2-7.3,2.2c-3.7,0-6.7-1.1-8.8-3.4c-2.1-2.3-3.3-5.5-3.3-9.6   c0-4.3,1.1-7.6,3.3-10c2.2-2.4,5.1-3.5,8.6-3.5c3.4,0,6.2,1.2,8.3,3.5c2.2,2.3,3.2,5.6,3.2,9.8v1.1h-18.9c0.2,2.8,0.9,4.9,2.4,6.4   c1.4,1.5,3.2,2.2,5.3,2.2c1.6,0,2.9-0.4,4-1.2C776.4,220,777.2,218.8,777.9,217L777.9,217z M763.8,210H778   c-0.2-2.1-0.7-3.7-1.6-4.8c-1.4-1.7-3.2-2.5-5.3-2.5c-2,0-3.6,0.7-5,2C764.7,206,763.9,207.8,763.8,210L763.8,210z M804.7,221.9   c-1.6,1.4-3.1,2.3-4.6,2.9c-1.5,0.6-3.1,0.8-4.7,0.8c-2.8,0-4.9-0.7-6.4-2c-1.5-1.4-2.2-3.1-2.2-5.2c0-1.2,0.3-2.4,0.8-3.4   c0.6-1,1.3-1.9,2.2-2.5c0.9-0.6,2-1.1,3.1-1.4c0.8-0.2,2.1-0.4,3.8-0.6c3.5-0.4,6-0.9,7.7-1.5V208c0-1.8-0.4-3-1.2-3.7   c-1.1-1-2.7-1.5-4.9-1.5c-2,0-3.5,0.4-4.5,1.1c-1,0.7-1.7,2-2.1,3.8l-4.2-0.6c0.4-1.8,1-3.3,1.9-4.4c0.9-1.1,2.1-2,3.8-2.6   s3.6-0.9,5.8-0.9c2.2,0,3.9,0.3,5.3,0.8c1.4,0.5,2.4,1.2,3,1.9c0.6,0.8,1.1,1.7,1.3,2.9c0.1,0.7,0.2,2.1,0.2,4v5.7   c0,4,0.1,6.5,0.3,7.6c0.2,1.1,0.5,2.1,1.1,3h-4.5C805.1,224.2,804.9,223.1,804.7,221.9L804.7,221.9z M804.4,212.4   c-1.6,0.6-3.9,1.2-7,1.6c-1.8,0.3-3,0.5-3.8,0.9c-0.7,0.3-1.3,0.8-1.7,1.4c-0.4,0.6-0.6,1.3-0.6,2c0,1.1,0.4,2.1,1.3,2.9   c0.9,0.8,2.1,1.1,3.8,1.1s3.1-0.4,4.4-1.1c1.3-0.7,2.2-1.7,2.8-3c0.5-1,0.7-2.4,0.7-4.3L804.4,212.4L804.4,212.4z M815.8,225.1   v-25.4h3.9v3.9c1-1.8,1.9-3,2.7-3.6s1.8-0.9,2.8-0.9c1.5,0,2.9,0.5,4.4,1.4l-1.5,4c-1.1-0.6-2.1-0.9-3.2-0.9   c-0.9,0-1.8,0.3-2.5,0.8c-0.7,0.6-1.3,1.4-1.6,2.4c-0.5,1.5-0.7,3.2-0.7,5v13.3H815.8L815.8,225.1z M849.3,215.9l4.2,0.6   c-0.5,2.9-1.6,5.2-3.6,6.9c-1.9,1.6-4.2,2.5-7,2.5c-3.5,0-6.3-1.1-8.4-3.4c-2.1-2.3-3.2-5.5-3.2-9.8c0-2.7,0.5-5.1,1.4-7.2   c0.9-2.1,2.3-3.6,4.2-4.6c1.9-1,3.9-1.5,6.1-1.5c2.8,0,5,0.7,6.8,2.1c1.8,1.4,2.9,3.4,3.4,5.9L849,208c-0.4-1.7-1.1-3-2.1-3.9   c-1-0.9-2.2-1.3-3.7-1.3c-2.2,0-3.9,0.8-5.3,2.3c-1.4,1.6-2,4-2,7.4c0,3.4,0.7,5.9,2,7.4c1.3,1.5,3,2.3,5.1,2.3   c1.7,0,3.1-0.5,4.2-1.6C848.3,219.5,849,218,849.3,215.9z M857.7,225.1v-35.1h4.3v12.6c2-2.3,4.5-3.5,7.6-3.5   c1.9,0,3.5,0.4,4.9,1.1c1.4,0.7,2.4,1.8,3,3.1c0.6,1.3,0.9,3.2,0.9,5.7v16.1h-4.3v-16.1c0-2.2-0.5-3.7-1.4-4.7   c-0.9-1-2.3-1.5-4-1.5c-1.3,0-2.5,0.3-3.6,1s-1.9,1.6-2.4,2.7c-0.5,1.1-0.7,2.7-0.7,4.7v13.9L857.7,225.1L857.7,225.1z M17.9,274.6   l4.2,0.6c-0.5,2.9-1.6,5.2-3.6,6.9c-1.9,1.6-4.2,2.5-7,2.5c-3.5,0-6.3-1.1-8.4-3.4c-2-2.4-3.1-5.7-3.1-9.9c0-2.7,0.5-5.1,1.4-7.2   c0.9-2.1,2.3-3.6,4.2-4.6c1.9-1,3.9-1.5,6.1-1.5c2.8,0,5,0.7,6.8,2.1c1.8,1.4,2.9,3.4,3.4,5.9l-4.2,0.6c-0.4-1.7-1.1-3-2.1-3.9   c-1-0.9-2.2-1.3-3.7-1.3c-2.2,0-3.9,0.8-5.3,2.3c-1.4,1.6-2,4-2,7.4c0,3.4,0.7,5.9,2,7.4s3,2.3,5.1,2.3c1.7,0,3.1-0.5,4.2-1.6   C16.9,278.3,17.6,276.7,17.9,274.6L17.9,274.6z M24.7,271.2c0-4.7,1.3-8.2,3.9-10.5c2.2-1.9,4.8-2.8,8-2.8c3.5,0,6.3,1.1,8.6,3.4   c2.2,2.3,3.3,5.5,3.3,9.5c0,3.3-0.5,5.8-1.5,7.7c-1,1.9-2.4,3.3-4.3,4.4c-1.9,1-3.9,1.6-6.1,1.6c-3.6,0-6.4-1.1-8.6-3.4   C25.8,278.8,24.7,275.5,24.7,271.2L24.7,271.2z M29.1,271.2c0,3.3,0.7,5.7,2.1,7.3c1.4,1.6,3.2,2.4,5.4,2.4c2.1,0,3.9-0.8,5.3-2.4   c1.4-1.6,2.1-4.1,2.1-7.4c0-3.1-0.7-5.5-2.1-7.1c-1.4-1.6-3.2-2.4-5.3-2.4c-2.2,0-3.9,0.8-5.4,2.4   C29.8,265.5,29.1,267.9,29.1,271.2z M54,283.9v-35.1h4.3v35.1H54z M65.2,283.9v-35.1h4.3v35.1H65.2z M93.3,280.7   c-1.6,1.4-3.1,2.3-4.6,2.9c-1.5,0.6-3.1,0.8-4.7,0.8c-2.8,0-4.9-0.7-6.4-2c-1.5-1.4-2.2-3.1-2.2-5.2c0-1.2,0.3-2.4,0.8-3.4   c0.6-1,1.3-1.9,2.2-2.5c0.9-0.6,1.9-1.1,3.1-1.4c0.8-0.2,2.1-0.4,3.8-0.6c3.5-0.4,6-0.9,7.7-1.5v-1.1c0-1.8-0.4-3-1.2-3.7   c-1.1-1-2.7-1.5-4.9-1.5c-2,0-3.5,0.4-4.5,1.1s-1.7,2-2.1,3.8l-4.2-0.6c0.4-1.8,1-3.3,1.9-4.4c0.9-1.1,2.1-2,3.8-2.6   c1.7-0.6,3.6-0.9,5.8-0.9s3.9,0.3,5.3,0.8c1.4,0.5,2.4,1.2,3,1.9c0.6,0.8,1.1,1.7,1.3,2.9c0.1,0.7,0.2,2.1,0.2,4v5.7   c0,4,0.1,6.5,0.3,7.6c0.2,1.1,0.5,2.1,1.1,3h-4.5C93.7,283,93.4,281.9,93.3,280.7L93.3,280.7z M92.9,271.1c-1.6,0.6-3.9,1.2-7,1.6   c-1.8,0.3-3,0.5-3.8,0.9c-0.7,0.3-1.3,0.8-1.7,1.4s-0.6,1.3-0.6,2c0,1.1,0.4,2.1,1.3,2.9s2.1,1.1,3.8,1.1c1.7,0,3.1-0.4,4.4-1.1   c1.3-0.7,2.2-1.7,2.8-3c0.5-1,0.7-2.4,0.7-4.3L92.9,271.1L92.9,271.1z M108.4,283.9h-4v-35.1h4.3v12.5c1.8-2.3,4.1-3.4,7-3.4   c1.6,0,3,0.3,4.4,0.9c1.4,0.6,2.5,1.5,3.4,2.7c0.9,1.1,1.6,2.5,2.1,4.1c0.5,1.6,0.8,3.3,0.8,5.2c0,4.4-1.1,7.7-3.2,10.1   c-2.2,2.4-4.7,3.6-7.8,3.6c-3,0-5.4-1.3-7.1-3.8L108.4,283.9L108.4,283.9z M108.4,271c0,3,0.4,5.2,1.2,6.6c1.4,2.2,3.2,3.3,5.5,3.3   c1.9,0,3.5-0.8,4.9-2.5c1.4-1.6,2.1-4.1,2.1-7.3c0-3.3-0.7-5.8-2-7.3c-1.3-1.6-2.9-2.4-4.8-2.4c-1.9,0-3.5,0.8-4.9,2.5   C109.1,265.5,108.4,267.9,108.4,271L108.4,271z M130.6,271.2c0-4.7,1.3-8.2,3.9-10.5c2.2-1.9,4.8-2.8,8-2.8c3.5,0,6.3,1.1,8.6,3.4   c2.2,2.3,3.3,5.5,3.3,9.5c0,3.3-0.5,5.8-1.5,7.7c-1,1.9-2.4,3.3-4.3,4.4c-1.9,1-3.9,1.6-6.1,1.6c-3.6,0-6.4-1.1-8.6-3.4   C131.7,278.8,130.6,275.5,130.6,271.2L130.6,271.2z M135,271.2c0,3.3,0.7,5.7,2.1,7.3c1.4,1.6,3.2,2.4,5.4,2.4   c2.1,0,3.9-0.8,5.3-2.4c1.4-1.6,2.1-4.1,2.1-7.4c0-3.1-0.7-5.5-2.1-7.1c-1.4-1.6-3.2-2.4-5.3-2.4c-2.2,0-3.9,0.8-5.4,2.4   C135.7,265.5,135,267.9,135,271.2z M159.9,283.9v-25.4h3.9v3.9c1-1.8,1.9-3,2.7-3.6c0.8-0.6,1.8-0.9,2.8-0.9c1.5,0,2.9,0.5,4.4,1.4   l-1.5,4c-1.1-0.6-2.1-0.9-3.2-0.9c-0.9,0-1.8,0.3-2.5,0.8c-0.7,0.6-1.3,1.4-1.6,2.4c-0.5,1.5-0.7,3.2-0.7,5v13.3L159.9,283.9   L159.9,283.9z M193.2,280.7c-1.6,1.4-3.1,2.3-4.6,2.9c-1.5,0.6-3.1,0.8-4.7,0.8c-2.8,0-4.9-0.7-6.4-2c-1.5-1.4-2.2-3.1-2.2-5.2   c0-1.2,0.3-2.4,0.8-3.4c0.6-1,1.3-1.9,2.2-2.5c0.9-0.6,1.9-1.1,3.1-1.4c0.8-0.2,2.1-0.4,3.8-0.6c3.5-0.4,6-0.9,7.7-1.5v-1.1   c0-1.8-0.4-3-1.2-3.7c-1.1-1-2.7-1.5-4.9-1.5c-2,0-3.5,0.4-4.5,1.1c-1,0.7-1.7,2-2.1,3.8l-4.2-0.6c0.4-1.8,1-3.3,1.9-4.4   s2.1-2,3.8-2.6c1.7-0.6,3.6-0.9,5.8-0.9c2.2,0,3.9,0.3,5.3,0.8c1.4,0.5,2.4,1.2,3,1.9c0.6,0.8,1.1,1.7,1.3,2.9   c0.1,0.7,0.2,2.1,0.2,4v5.7c0,4,0.1,6.5,0.3,7.6s0.5,2.1,1.1,3h-4.5C193.6,283,193.3,281.9,193.2,280.7L193.2,280.7z M192.9,271.1   c-1.6,0.6-3.9,1.2-7,1.6c-1.8,0.3-3,0.5-3.8,0.9c-0.7,0.3-1.3,0.8-1.7,1.4c-0.4,0.6-0.6,1.3-0.6,2c0,1.1,0.4,2.1,1.3,2.9   c0.9,0.8,2.1,1.1,3.8,1.1c1.7,0,3.1-0.4,4.4-1.1c1.3-0.7,2.2-1.7,2.8-3c0.5-1,0.7-2.4,0.7-4.3L192.9,271.1L192.9,271.1z M213.8,280   l0.6,3.8c-1.2,0.3-2.3,0.4-3.3,0.4c-1.6,0-2.8-0.2-3.6-0.7c-0.9-0.5-1.5-1.1-1.8-1.9c-0.4-0.8-0.5-2.5-0.5-5.1v-14.7H202v-3.3h3.2   v-6.3l4.3-2.6v8.9h4.3v3.3h-4.3v14.9c0,1.2,0.1,2,0.2,2.4c0.2,0.3,0.4,0.6,0.7,0.8s0.8,0.3,1.5,0.3   C212.4,280.2,213,280.1,213.8,280L213.8,280z M218.5,253.8v-5h4.3v5H218.5z M218.5,283.9v-25.4h4.3v25.4H218.5z M228.3,271.2   c0-4.7,1.3-8.2,3.9-10.5c2.2-1.9,4.8-2.8,8-2.8c3.5,0,6.3,1.1,8.6,3.4c2.2,2.3,3.3,5.5,3.3,9.5c0,3.3-0.5,5.8-1.5,7.7   c-1,1.9-2.4,3.3-4.3,4.4c-1.9,1-3.9,1.6-6.1,1.6c-3.6,0-6.4-1.1-8.6-3.4C229.4,278.8,228.3,275.5,228.3,271.2L228.3,271.2z    M232.7,271.2c0,3.3,0.7,5.7,2.1,7.3c1.4,1.6,3.2,2.4,5.4,2.4c2.1,0,3.9-0.8,5.3-2.4c1.4-1.6,2.1-4.1,2.1-7.4   c0-3.1-0.7-5.5-2.1-7.1c-1.4-1.6-3.2-2.4-5.3-2.4c-2.2,0-3.9,0.8-5.4,2.4C233.4,265.5,232.7,267.9,232.7,271.2z M257.6,283.9v-25.4   h3.9v3.6c1.9-2.8,4.6-4.2,8.1-4.2c1.5,0,2.9,0.3,4.2,0.8c1.3,0.6,2.2,1.3,2.9,2.2c0.6,0.9,1.1,2,1.3,3.2c0.2,0.8,0.2,2.2,0.2,4.2   v15.6h-4.3v-15.5c0-1.8-0.2-3.1-0.5-3.9c-0.3-0.9-0.9-1.6-1.8-2.1c-0.9-0.5-1.9-0.8-3-0.8c-1.8,0-3.4,0.6-4.7,1.7   c-1.3,1.2-2,3.4-2,6.6v13.9L257.6,283.9L257.6,283.9z M300.8,283.9v-35.1h4.6v35.1H300.8z M313.5,283.9v-25.4h3.9v3.6   c1.9-2.8,4.6-4.2,8.1-4.2c1.5,0,2.9,0.3,4.2,0.8c1.3,0.6,2.2,1.3,2.9,2.2c0.6,0.9,1.1,2,1.3,3.2c0.2,0.8,0.2,2.2,0.2,4.2v15.6h-4.3   v-15.5c0-1.8-0.2-3.1-0.5-3.9c-0.3-0.9-0.9-1.6-1.8-2.1c-0.9-0.5-1.9-0.8-3-0.8c-1.8,0-3.4,0.6-4.7,1.7c-1.3,1.2-2,3.4-2,6.6v13.9   L313.5,283.9L313.5,283.9z M357.7,283.9v-3.2c-1.6,2.5-4,3.8-7.1,3.8c-2,0-3.9-0.6-5.6-1.7s-3-2.7-3.9-4.7c-0.9-2-1.4-4.3-1.4-6.9   c0-2.5,0.4-4.8,1.3-6.9c0.8-2.1,2.1-3.6,3.8-4.7c1.7-1.1,3.6-1.7,5.7-1.7c1.5,0,2.9,0.3,4.1,1c1.2,0.6,2.2,1.5,2.9,2.5v-12.6h4.3   v35.1H357.7z M344.1,271.2c0,3.3,0.7,5.7,2.1,7.3s3,2.4,4.9,2.4s3.5-0.8,4.8-2.3c1.3-1.5,2-3.9,2-7c0-3.5-0.7-6-2-7.7   c-1.3-1.6-3-2.4-5-2.4c-1.9,0-3.5,0.8-4.8,2.3C344.7,265.4,344.1,267.8,344.1,271.2L344.1,271.2z M369,253.8v-5h4.3v5H369z    M369,283.9v-25.4h4.3v25.4H369z M396.9,280.7c-1.6,1.4-3.1,2.3-4.6,2.9c-1.5,0.6-3.1,0.8-4.7,0.8c-2.8,0-4.9-0.7-6.4-2   c-1.5-1.4-2.2-3.1-2.2-5.2c0-1.2,0.3-2.4,0.8-3.4c0.6-1,1.3-1.9,2.2-2.5c0.9-0.6,1.9-1.1,3.1-1.4c0.8-0.2,2.1-0.4,3.8-0.6   c3.5-0.4,6-0.9,7.7-1.5v-1.1c0-1.8-0.4-3-1.2-3.7c-1.1-1-2.7-1.5-4.9-1.5c-2,0-3.5,0.4-4.5,1.1s-1.7,2-2.1,3.8l-4.2-0.6   c0.4-1.8,1-3.3,1.9-4.4c0.9-1.1,2.1-2,3.8-2.6c1.7-0.6,3.6-0.9,5.8-0.9s3.9,0.3,5.3,0.8c1.4,0.5,2.4,1.2,3,1.9   c0.6,0.8,1.1,1.7,1.3,2.9c0.1,0.7,0.2,2.1,0.2,4v5.7c0,4,0.1,6.5,0.3,7.6s0.5,2.1,1.1,3h-4.5C397.3,283,397,281.9,396.9,280.7   L396.9,280.7z M396.5,271.1c-1.6,0.6-3.9,1.2-7,1.6c-1.8,0.3-3,0.5-3.8,0.9s-1.3,0.8-1.7,1.4s-0.6,1.3-0.6,2c0,1.1,0.4,2.1,1.3,2.9   c0.9,0.8,2.1,1.1,3.8,1.1c1.7,0,3.1-0.4,4.4-1.1c1.3-0.7,2.2-1.7,2.8-3c0.5-1,0.7-2.4,0.7-4.3L396.5,271.1L396.5,271.1z" fill="#253A8E"  />
	
</g><g><path d="M1031.5,3l-2.3,2.1c-0.9,0.9-1.8,1.7-2.7,2.7c-7.1,8.5-16.1,24.6-14.5,51.1c1.4,24.4,4.4,31.1,2,39.4   c-2.3,8.3-14.4,21.8-14.4,21.8s-5.6,7.4,2.1,13.9c7.7,6.5,13.3,5,14.5,11.3c1.3,6.3-1.7,7,0.4,16c2.1,9,8.4,18.1,8.4,18.1l2.5,15.4   c0,0,8.3,14.6,25.7,6.4c17.4-8.2,33.5-18.3,33.5-18.3s3.4-1.5,7.8-1.2l13.9,38c26.7-22.6,43.6-56.2,43.6-93.8   C1151.9,58.9,1098.3,4.3,1031.5,3z M979.7,228.3c-8.7-11-8.4-18.8-8.4-18.8c2.7-2.3,7-4.6,7-4.6l10.4-6.7c0,0,3.8-1.7,3.8-6   c0-4.4-3.9-7.6-4-11.3c-0.1-3.7,0.6-7.1-1.2-9.6c2.7-1.6,4.8-6.3,4.1-8c-0.7-2.1-2-3.8-6.4-5.3c-5.5-1.1-6.7-8.4-6.7-8.4   s-1.5-10.6-5.2-16.4c-4.2-5.2-8.5-9.8-18.3-13.2c-9.6-3.3-31.1-2.9-48.2,16.5c4.8,56.1,47.2,101.3,101.8,110.5   C1008.6,247,988.4,239.3,979.7,228.3L979.7,228.3z" fill="#E84B5E"  />
	
</g><path d="M1123.2,43.7c0.1,0.2,15.5,20.8,14.5,22.8  c-0.1,0.3-0.3,0.6-0.4,0.9c-0.3,0.8,1.4,5.3,1.2,6.1c-0.4,1.9,4.8,6.6,4.9,8.4c0,0.4,0.5,2.1,0.1,3.4c-0.3,1-1.4,1.6-1.9,1.3  c-0.7-0.3-0.8-2.1-1.7-4.2c-0.8-1.9-2.3-1.4-4.1-5.5c-0.3-0.7-1,1-1.6,1s-0.9-1.9-1.2-2.2c-0.3-0.2-0.8,1.1-0.8,1.2  c0,0.4,0.3,1.3,0.1,2.2c-0.2,0.9-1.1,1.6-0.8,2.3c0.2,0.4,0.4,0.9,0.7,1.3c0.1,0.2,4.9-0.6,5-0.3c0.5,0.8,0.1,2.7-0.5,5  c-0.3,1.2,0.8,1.9,1.5,2.7c2.5,3.1,4.7,6.8,5.2,8.7c0.2,0.6,0.2,2.7,0.2,3.4c0,0.6-0.6,2.3-0.5,2.9c0.6,4.5-0.6,6.4-1.6,10.5  c-0.5,2-5.9,6.6-6.1,7.1c-0.3,1,0,3.5-0.2,4.5c-0.4,1.4-0.9,2.8-1.8,3.3c-0.3,0.1-1.6,0.1-1.6-0.2c0-0.5-0.2-1.7,0.1-2.7  c0.3-1.3,1.1-1.5,0.9-3.6c-0.2-2.1-2.8,0.9-2.9,0.9c-1.4,1.5-2.9,6.8,0.9,11c0.7,0.8,1.6,0.5,2,1.3c1.4,2.7,0.7,6.1,1,7.8  c0.3,1.7-3.3,4.1-5.9,8.8c-0.2,0.4-1.2,0.4-1.6,0c-0.3-0.3,0.1-1.8-0.3-2.3c-0.6-1-1.7-1.7-2.4-2.6c-0.9-1.1-2.4-3.2-2.9-3.3  c-0.8-0.2-1.7,2-1.9,3.5c0,0.5-0.3,0.9-0.4,1.4c-0.2,2.2-0.1,4.7,0,5.5c0.2,1.4,0.2,2.5,5.1,6.6c0.8,0.7-0.1,6.3,0.3,8.3  c0.1,0.6-1.3,2.5-1.2,3c0.1,0.4,0.1,1.3,0.8,1.7c0.8,0.4,2.4,0.4,2.5,0.8c0.6,1.6,0.3,2.6-1.2,4.6c-0.4,0.5,0.1,1.7,0,2.5  c0,0.4,1.9,0.8,4.1,0.3c0.5-0.1,0.7-0.7,1.3-0.9c0.9-0.2,2.2-0.2,3-0.5c1.6-0.5,1.3,0.9,1.7,0.7c1.5-0.7,3.3-1.3,4.8-2.3  c3.8-2.5,1.4,1.3,1.3,1.9c-0.4,2.5-2.7,2.2-2.4,1.2c0.1-0.3-0.6,0.2-1.3,0.2c-0.4,0-0.5,0.6-0.6,0.6c-0.9,0-1.2,0.6-2.1,0.6  c-0.8,0-2.4-0.1-3.1,0.4c-0.7,0.5-2.3,0.9-3.5,0.9c-1.8-0.1-0.8,0.9-4.3,0.4c-1.6-0.2-0.4-0.9-1.7-1.6c-2.2-1.2-4.2-3.4-5.4-5.4  c-0.5-0.9,0.6-2,0.1-3c-1.7-3.1-5.2-6.4-6.8-9.8c-0.2-0.5-0.9-1.4-1-2c0-0.3-0.4-1.6,0.3-1.1c0.9,0.6,2.5-0.5,4.3,1  c1.7,1.4,1.6,1.9,2,2.1c0.8,0.4,2.1,0.6,2-0.3c0-0.7,1.1-0.9,1.1-1.6c-0.1-1,0.8-1.4,0.2-3.1c-0.4-1-2.5-3.1-3.2-4.1  c-0.4-0.5,0.1-1.6,0.1-2.2c0-1.4-0.1-2.5-0.2-4.1c-0.3-3.5-0.2-6.7-0.5-9.2c-0.2-1.2-0.9-2.6-0.9-3.2c-0.1-0.7-1.5-0.3-1.7,0.5  c-0.1,0.5-1.1,0.4-1.3,0.7c-0.3,0.4-0.5,0.5-1.1,0.4c-0.3-0.1-0.8,0.1-0.9,0c-0.4-0.3-0.5-1.4-0.3-2.8c0.1-0.9-0.2-1.9-0.3-2.6  c-0.1-0.5-0.5-1-0.9-1.7c-0.3-0.6-0.4-1.4-0.8-1.9c-0.2-0.3-0.6-0.2-0.8-0.5c-0.5-0.6-0.5-1.4-0.8-1.9c-0.2-0.3-0.7-0.6-0.8-0.7  c-0.4-0.6-0.7-1.7-1.3-2.1c-0.8-0.5-1.2,0-2,0.6c-0.4,0.3-0.8,0.9-1.8,0.9c-2.4,0.1-3.6,1.3-4.8,2.4c-0.4,0.4-0.6,1-1,1.5  c-0.6,0.6-1.9,1.2-2.7,2.1c-0.6,0.6-0.6,1.5-1.3,2.1c-1,1-2.3,1.8-2.9,2.7c-1.3,1.9-5.1,3.1-5.4,5.1c-0.2,1.3-1.1,6.1-1.5,9.1  c-0.2,1.2-0.8,1.8-0.5,2.2c4.3,6.1,3.3,8.6,2.6,9.3c-1,1-2.6,0.6-3.3,0.1c-0.8-0.6-0.5-3.3-1.7-4.1c-0.8-0.6-2.8,0.1-3.7-0.3  c-1.7-0.7-2.3-2.3-2.8-4.4c-0.9-3.8-2-5.2-3.3-11.7c-0.3-1.4-1.2-1.7-1.6-3.3c-0.5-2.3-0.1-5.7-0.3-8.5c-0.1-1.3-1.4-1.9-5.2-2.7  c-2.1-0.5-3.2-3.2-3.8-5.8c-0.5-2.2-1.3-4.4-3.9-5.5c-2.9-1.2-8.2,0.5-11.2-0.7c-2.5-1.1-5-2.2-7.3-3.4c-1.7-0.9,1.6-2.9-5.1-2.8  c-0.7,0-6.2-2.2-6.9-4.8c-1.3-5-2.8-5.7-4.5-5.2c-1.9,0.5-1.5,2.6-0.6,5.3c0.4,1.1,1.5,2,1.6,3.6c0.2,3.9,2.5,5.4,4,6.4  c0.7,0.5,2.1,0.8,3.4,0c2.6-1.7,5.9-4.3,6.1-2.6c0.2,2.2-1.2,3.1,0.2,4.3c2.5,2.1,3.8,3,4.5,4.1c1.2,1.9-3.7,6.8-4.1,7.1  c-2.1,1.8-6.9,4.1-7.2,4.1c-12.6,1.9-2.7,0.7-8.3,2.6c-1,0.3-2.3,0.6-3.9,0.6c-1.4,0-2.7,1.4-4.1,1.6c-4.2,0.6-8.4,0.4-10,0.1  c-0.3-0.1-1.6-0.9-1.4-2c0.4-3.4,0.1-8.8,0.1-10.3c0-0.5-1.4-0.7-1.4-1.6c-0.4-4.4-1.5-5.3-2.2-6.5c-1-1.6,0.5-6-0.8-7.6  c-2.1-2.7-0.7-7.3-2.5-12.1c-0.3-0.9-2.5-0.6-2.7-0.3c-0.5,0.9-0.5,0.9-0.3,5.4c0.3,9.2,1.6,8.7,1.4,9.7c-0.7,3.6-0.4,7.5,0.3,8.4  c2,2.9,1,6.6,1.9,8.3c2.5,4.8,4,6.2,4.8,7.8c0.6,1.3,0.3,2.6,1,3.7c1.7,2.6-0.7,2.3,3,2.6c10.1,0.9,14.4-1.7,14,1  c-0.7,4.4-2.5,5.1-5.2,9.1c-1.4,2.1-5.4,7.2-8.9,8.3c-3.3,1-11.8,4.5-13.9,7.6c-0.8,1.2-4.1,3.2-3.7,4.5c0.7,2.2-1.1,7.5,1,10.4  c0.3,0.5,0.9,0.3,1.1,0.9c0.6,2.4,0,6.6-0.2,8.3c-0.3,1.9-3.9,3.5-6,3.5c-0.9,0-1.7,0.6-2.7,1c-1.4,0.6-2.8,1-2.6,1.5  c0.9,2.5,1.9,4.9,1.4,6.4c-0.3,0.8-3,0.4-3.4,1.1c-0.3,0.6,0.4,2.6,0,3c-3.7,3.8-5.5,4.5-7.1,4.1c-3.8-0.8-12-4.7-13.6-9  c-0.7-1.8-2.4-4.2-3.8-5.9c-2.6-3.2-5.1-8.1-6.3-12.9c-0.8-3.2-3.2-5.4-4.4-8.4c-0.8-2.1-1.2-5.5-0.1-8.3c1.6-4,0.6-10.3-1.2-14.9  c-0.8-2.2-0.6-5-1.4-6.8c-0.9-2.3-2.6-3.5-1.9-6.1c4.4-16.1-1.2-11.5-2-16.2c-0.4-2.8-0.7-6.5-3.3-6.5c-4.9-0.1-4.6-0.9-4.8-1.9  c-0.7-3.6-3.5-2-3.6-3.7c-0.8-12-0.2-23.5,4.3-31.4c2.5-4.3,4.3-9.7,7.8-13.3c1.3-1.3,2.6-2.7,4.4-4.1c1.6-1.2,3.1-1,4.1-2.1  c2.4-2.7,3.9-5.6,5.6-5.8c2.7-0.3,3.8-0.9,5.7-1.6c0.5-0.2,2.1,2.1,1.8,2.7c-0.3,0.5,3.4-0.6,4.8-0.1c0.8,0.3,9.9,5.4,9.7,6.3  c-0.4,1.7-4.8,5-4.8,6.8c0,2.4,3.7,2.3,3.1,4.5c-1.9,6.7,3.7,8.3,6.3,3.8c0.6-1,2.2-1.3,3.5-0.4c0.7,0.5,1.1,2,1.8,2.7  c7.8,8.3,7.1,4.5,9.9,6c1.8,1,6,2.6,7.1,1c1.6-2.3,4.7-3.9,6-7.6c0.2-0.4,0.7-1.5-0.6-1.7c-0.9-0.2-3.6,0.6-4.3-0.1  c-0.3-0.3-0.8-1.1-1.6-1.6c-0.8-0.5-1.9,0-3.1-0.7c-0.9-0.5-1.6-1.2-2.6-1.8c-0.6-0.3-0.5-4.1,0.1-6.5c0-0.1,0.9-1.8,1.5-1.8  c0.5,0.1,1.7-1.1,2.6-0.9c0.4,0.1,2.1-0.9,2.5-0.6c0.4,0.4,0.7,1,1.1,1.4c0.5,0.5,1.7,0.9,2.2,0.6c0.3-0.2,1.2,0.1,2.1,0  c1.2-0.1,2.4-0.7,3-0.5c0.3,0.1,0.3,0.4,0.5,0.6c0.9,0.5,1.6,1.1,2.4,2.2c0.8,1,2.3,2,3.2,2.6c1.4,0.9,3.8,0.2,5,0.1  c0.9-0.1,2.3-1.9,1.8-3.6c-0.4-1.3-2.6-2.5-2.9-3.4c-0.2-0.5-1.1-1.4-1-2.3c0-0.2-0.7-0.7-0.4-0.9c3.4-2,3.1-3.5,2-3.5  c-0.4,0-2.5-0.3-3.1-0.2c-0.7,0.2-1.2,1.1-1.8,1.6c-0.3,0.2,0.5,1.5,0.2,1.7c-0.5,0.3-1.5,0.3-2,0.4c-0.3,0.1-0.7,0.4-0.9,0.4  c-0.8-0.3-0.9-1.9-0.9-3c0-0.5,2.1-0.3,1.1-1.2c-0.5-0.4-2.7-0.9-3.3-1c-1.9-0.3-6.7,4.1-8.2,6.3c-0.2,0.3-0.6,1-1,1.1  c-0.6,0.1-1.6,0.8-2.1,0.9c-1.4,0.3-3.3,0.3-3.3,0.2c-1.3-0.6-2.2-0.6-3.4,3.1c-0.1,0.4,0.2,1.6-0.1,2.3c-0.1,0.2-0.8-1.2-1-1.1  c-0.2,0.1,0,1.7-0.2,1.8c-0.1,0.2-0.7-1.4-0.9-1.3c-0.4,0.1,0.1,1.8-0.2,2c-0.5,0.2-0.7-1-1.2-1c-0.6,0-1.4,1.1-1.6,0.6  c-0.1-0.2,0.1-1.1,0.1-1.4c0-0.2-0.7,0-0.7-0.2c0.1-0.8,1.4-1.7,2.1-3.2c0.3-0.6,0.1-1.3,0.5-2c0.2-0.3-0.6-1.4-0.5-1.7  c0.1-0.4,0.1-1.8,1-2.2c0.8-0.4,0.6-1.8,0.4-2.1c-0.6-1-0.3-8.1-1.9-8.8c-0.6-0.3-2,2.8-2.8,6.4c-0.3,1.3,1.5,4.5,1.2,5.6  C977,65,974,66,973.6,66c-0.2,0-1-0.8-1.6-0.4c-0.2,0.1,0.3,0.9,0,1.1c-0.7,0.8-2.1,1.4-2.4,1.3c-1.1-0.2-1.8-1.1-2.1-3.6  c-0.1-0.6,4.2,0.8,4,0.3c-0.1-0.2-0.2-0.8,0.3-1.1c0.6-0.5,2-0.8,1.8-1.1c-0.5-0.7,0.4-4.3-0.4-4.9c-0.3-0.2-0.5,0.1-0.8-0.1  c-0.5-0.3-0.6-0.9-0.3-2.5c0.1-0.4,1.7-1.7,1.7-2c0-0.4,0.5-1.8,0.1-1.8c-0.8-0.1-2.1-0.1-3.5-0.1c-0.5,0-1.6-1.3-2.1-1.3  c-0.9,0-2.5,0.6-3.4,2c-0.4,0.6-3.2-0.6-3.7-0.2c-1.3,1-4.2,4.6-5.6,4.8c-1.2,0.2-2.3,0.5-3.1-0.1c-0.2-0.2,0.1-0.7-0.4-0.9  c-0.3-0.1-1.1,0.2-1.2,0c-0.1-0.1-0.2-0.4-0.1-0.7s-0.1-0.7-0.1-1c0-0.6,0.3-1,0.3-1.2c-0.1-0.5-0.2-0.3-0.4-0.2s-0.5,0.1-0.5,0.1  c-0.2-1.8,1.3-3.1,2.7-4.5c1-1,1.5-2.2,2.9-3c1.1-0.6,2.8-3,4-3.5c1.3-0.6,3.3,1.6,4.2,3.9c0.4,1,1.6-1.7,2.6-2.7  c0.7-0.6,2.3-1.6,3.2-3.2c0.5-0.9,0.2-2.8,0.7-3.1c1.4-1,1.5,0.8,2.8,0.3c1.5-0.6,6.3,0.3,7.8-0.3c0.9-0.3,2.3-1.7,3.1-2  c1.3-0.5,3.7,0.5,4.8,0.1c1.9-0.8,3-2.6,4-3.3c1.8-1.2,3.6,0,3.9,0.7c0,0.1-4,2.8-4.8,3.7c-0.6,0.7,1.6,0.7,1.8,1.1  c0.2,0.5-1.3,1.3-0.3,1.5c0.8,0.1,2.8-0.2,4-0.2c0.3,0,0.2,1.1,0.5,1c1.3-0.8,2.6-0.5,3.6-0.6c0.4-0.1,2.6-2.5,3.1-2.6  c0.6-0.1,1.3,0.2,2,0.1c0.4-0.1-0.3,1.8,0.1,1.8c0.5-0.1,0.8,0.4,1.1,0c0.5-0.5,0.8-1.6,1.7-2.1c0.2-0.1-2-0.5-1.8-0.6  c0.3-0.1,0.2-0.9,0.6-1c0.8-0.2,2.5,0,3.4-0.1c0.5,0,1.3,1.8,1.7,1.8c0.8-0.1,2-0.1,2.6-0.5c1-0.7,1-1.9,1-2c0-0.1-0.9-0.1-2.4,0.2  c-0.8,0.1-2.2,0.1-2.6,0c-0.3-0.1,0.1-0.4-0.2-0.6c-0.5-0.3-1.1-0.1-1.5-0.4c-0.6-0.4-1.1-1.1-1-1.2c0.3-0.7,3-1.6,4.2-2.5  c0.4-0.3,0.8-0.9,1.8-1.2c0.8-0.2,2.2-0.1,3-0.5c1.2-0.5,2.6-1.5,2.8-1.9c1-2,0.1-1-1.4-0.3c-0.5,0.2-1.3,0-1.7,0.2  c-0.4,0.2-1.6,1.5-2,1.6c-0.6,0.2-2.4-0.5-3-0.3c-0.9,0.3-1.8,1.2-2.6,1.3c-0.6,0.1-1.7,1.4-2.3,1.5c-0.5,0-0.8,0.9-1.2,2  c-0.3,1-1.1,0.6-1.6,0.6c-0.5-0.1-2.9,0.6-6.2,3.5c-0.2,0.1-1.3-0.5-1.9-0.3c-0.5,0.1-0.4,1.1-0.9,1.1c-1.1,0-2.1-0.5-2.1-0.9  c0-0.3,0.6-0.9,1.2-1.4c0.6-0.4,1.2-0.7,1.4-1.2c0.2-0.5,2.4-2.2,2.6-2.8c0.1-0.2-0.7-0.7-1.6-0.6c-0.4,0.1-0.9,0.9-1.3,0.8  c-0.7-0.1-1.4-0.7-1.4-0.9c1-3,5.3-5.9,5.4-6.2c0.1-0.4,4.9,0.1,5.7-0.3c0.6-0.3,2.9-0.7,3.7-1c1.2-0.4,3.4-1.2,5.2-1.7  c0.3-0.1,0.5-1.5,0.9-1.5c0.7-0.1,1.1,0.7,1.9,0.6c1.5-0.3,3.2-0.6,5-0.3c0.4,0.1,0.5,0.9,1.1,0.8c0.5-0.1,1.5-1,1.9-1  c1.7,0.2,3.4,1.1,5.2,1.3c0.4,0-0.8,2.2-0.4,2.2c0.8,0,2.2,2,3,2c0.3,0,0,1.9,0.3,1.9c0.5,0,0.7,0.5,1.2,0.4c0.1,0,0.5,1.1-0.5,1.8  c-0.6,0.4-2.1,0.5-3,0.6c-0.5,0.1-2.8-2.9-3.2-2.7c-0.9,0.5-1.2,4.3-1.1,4.5c0,0.1,1,0.5,1.6,0.4c0.2,0,0-1.1,0.3-1.2  c0.5-0.1,1.3,0.1,2,0c0.1,0-0.2,0.6,0,0.8c0.3,0.3,1.1,0.3,1.3,0.3c0.5-0.1,0.6-1.4,1.1-1.5c1.4-0.6,2.7-0.4,2.8-0.4  c0.5,0,1.8-3,2.3-3c0.7,0,2.1,0.1,0.9,3c-0.2,0.5,0.7,0.5,1.2,0.5c0.5-0.1,0.8-1.6,1.2-1.7c1.4-0.2,4.4-0.7,6.3-0.2  c0.8,0.2,0.8,1.9,1.4,1.8c0.9-0.1,1.7-0.3,2.6-0.5c0.3-0.1-0.6-2.4-0.3-2.4c0.9-0.2,4.3,2.5,5.3,2.3c0.2-0.1,0.7-1,0.8-1.9  c0.1-0.6-0.2-1.4-0.1-1.5c0.4-1,0.9-2.1,1.8-2.3c0.7-0.2,1.9,0.2,1.8,4.5c0,0.8-0.6,5.7,2.4,5.9c0.6,0,0.2-1.8,0.6-2.9  c0.2-0.4,2.6,1.8,2.8,1.3c0.2-0.5,0.7-2.7-1.4-2.4c-0.6,0.1-1.3-0.7-2.4-0.6c-0.6,0.1-1-3.9-0.9-4.3c0.1-0.5,1.3,0.3,2,0  c0.6-0.2,0.8-0.8,1.3-1.2c0.7-0.5,1.9-0.5,2-0.6c0.2-0.2,0.1-0.7,0-1.3c-0.1-0.2,1.4-0.6,2.7-1.7c0.8-0.7,2.2-0.1,2.2-0.3  c-0.3-0.9,0.6-2-5.6-2.1c-0.7,0-1.2-0.4-1.5-0.8c-0.7-1.1-0.4-2.6,0-2.8c1.3-0.5,2.9,0.6,4.6,1.2c0.8,0.3,1.7,0.3,2.5,0.6  c0.7,0.3,1.6,1.4,2.3,1.8c0.9,0.5,2.9-0.3,3.7,0.2c2.1,1.1,3,3.2,4.7,3.5c0.8,0.2,1.8-0.2,2.6-0.2c0.3,0-0.3-1-0.1-1  c1.1-0.2,3.1,0.5,3.9,0.2c0.2-0.1,1.4,1.2,1.6,1.2c0.7-0.3-0.5-1.6-0.4-2.2C1090.7,18.3,1121.3,39.9,1123.2,43.7L1123.2,43.7z" fill-rule="evenodd"  clip-rule="evenodd"  fill="#FFFFFF"  fill-opacity="0.25"  /><circle cx="1029.5" cy="125.5" r="122.5" fill="none"  stroke="#EF8488"  stroke-width="6.059"  stroke-miterlimit="10"  /></svg>