<svg viewBox="0 0 874.4 283.5" role="img" aria-labelledby="mbrrace-uk--title" xmlns="http://www.w3.org/2000/svg" xmlns:xlink="http://www.w3.org/1999/xlink"><title id="mbrrace-uk--title">MBRRACE-UK - Mothers and Babies: Reducing Risk through Audits and Confidential Enquiries across the UK</title><g><path d="M339.6,146.4l-2.9-11.5v12.4c0,0.7-0.2,1.2-0.5,1.5c-0.3,0.3-0.7,0.5-1.2,0.5c-0.5,0-0.9-0.2-1.2-0.5   c-0.3-0.3-0.5-0.9-0.5-1.6v-14.2c0-0.8,0.2-1.3,0.6-1.6c0.4-0.3,1-0.4,1.7-0.4h1.1c0.7,0,1.2,0.1,1.5,0.2c0.3,0.1,0.6,0.4,0.7,0.7   c0.1,0.3,0.3,0.8,0.5,1.6l2.6,9.9l2.6-9.9c0.2-0.7,0.4-1.2,0.5-1.6c0.1-0.3,0.4-0.5,0.7-0.7c0.3-0.1,0.8-0.2,1.5-0.2h1.1   c0.7,0,1.2,0.1,1.7,0.4c0.4,0.3,0.6,0.8,0.6,1.6v14.2c0,0.7-0.2,1.2-0.5,1.5c-0.3,0.3-0.7,0.5-1.2,0.5c-0.5,0-0.9-0.2-1.2-0.5   c-0.3-0.3-0.5-0.9-0.5-1.5V135l-2.9,11.5c-0.2,0.7-0.3,1.3-0.5,1.6c-0.1,0.4-0.3,0.7-0.7,1c-0.3,0.3-0.8,0.4-1.3,0.4   c-0.4,0-0.8-0.1-1.1-0.3c-0.3-0.2-0.5-0.4-0.7-0.7c-0.2-0.3-0.3-0.6-0.4-1C339.8,147.2,339.7,146.8,339.6,146.4L339.6,146.4z    M367.1,142.6c0,0.9-0.1,1.9-0.5,2.8c-0.3,0.8-0.8,1.6-1.4,2.2c-0.6,0.6-1.3,1.1-2.1,1.4c-0.8,0.3-1.7,0.5-2.8,0.5   c-1,0-1.9-0.2-2.7-0.5c-0.8-0.3-1.5-0.8-2.1-1.4c-0.6-0.6-1.1-1.4-1.4-2.2c-0.3-0.9-0.5-1.8-0.5-2.8c0-1,0.2-1.9,0.5-2.8   c0.3-0.8,0.7-1.5,1.3-2.2c0.6-0.6,1.3-1.1,2.1-1.4c0.9-0.3,1.8-0.5,2.7-0.5c1,0,1.9,0.2,2.8,0.5c0.8,0.3,1.5,0.8,2.1,1.4   c0.6,0.6,1,1.3,1.3,2.2C366.9,140.8,367.1,141.7,367.1,142.6L367.1,142.6z M363.7,142.6c0-1.4-0.3-2.4-0.9-3.2   c-0.6-0.8-1.4-1.1-2.4-1.1c-0.7,0-1.2,0.2-1.7,0.5c-0.5,0.3-0.9,0.8-1.2,1.5c-0.3,0.7-0.4,1.4-0.4,2.3c0,0.9,0.1,1.6,0.4,2.3   c0.3,0.7,0.6,1.2,1.1,1.5c0.5,0.3,1.1,0.5,1.7,0.5c1,0,1.8-0.4,2.4-1.1C363.4,145.1,363.7,144,363.7,142.6L363.7,142.6z    M370.2,136.1h0.4v-2c0-0.5,0-1,0-1.3s0.1-0.6,0.2-0.8c0.1-0.2,0.3-0.4,0.6-0.6c0.6-0.4,1.5-0.3,2,0.3c0.2,0.2,0.4,0.5,0.4,0.8   c0.1,0.3,0.1,0.7,0.1,1.3v2.3h1.2c0.5,0,0.8,0.1,1.1,0.3c0.2,0.2,0.4,0.5,0.4,0.9c0,0.5-0.2,0.8-0.5,0.9c-0.4,0.2-0.9,0.3-1.5,0.3   h-0.6v6.2c0,0.5,0,0.9,0.1,1.2c0,0.3,0.1,0.5,0.3,0.7c0.2,0.2,0.4,0.3,0.8,0.3c0.2,0,0.5,0,0.8-0.1c0.3-0.1,0.6-0.1,0.8-0.1   c0.3,0,0.5,0.1,0.7,0.3c0.2,0.2,0.3,0.5,0.3,0.8c0,0.5-0.3,1-0.9,1.2c-0.6,0.3-1.4,0.4-2.5,0.4c-1,0-1.8-0.2-2.4-0.5   c-0.5-0.3-0.9-0.9-1.1-1.5c-0.2-0.6-0.3-1.5-0.3-2.5v-6.4h-0.4c-0.5,0-0.9-0.1-1.1-0.3c-0.3-0.2-0.4-0.5-0.4-0.9   c0-0.4,0.1-0.6,0.4-0.9C369.3,136.2,369.6,136.1,370.2,136.1L370.2,136.1z M382.4,132.9v5c0.4-0.5,0.8-0.9,1.2-1.2   c0.4-0.3,0.9-0.5,1.3-0.6c0.5-0.1,1-0.2,1.6-0.2c0.9,0,1.6,0.2,2.3,0.5c0.7,0.4,1.2,0.9,1.6,1.6c0.2,0.4,0.4,0.8,0.5,1.3   c0.1,0.5,0.1,1.1,0.1,1.7v6.4c0,0.7-0.2,1.2-0.5,1.5c-0.3,0.3-0.7,0.5-1.2,0.5c-1.1,0-1.7-0.7-1.7-2v-5.7c0-1.1-0.2-1.9-0.5-2.5   c-0.3-0.6-0.9-0.9-1.8-0.9c-0.6,0-1.1,0.2-1.6,0.5c-0.5,0.3-0.8,0.8-1.1,1.4c-0.2,0.5-0.3,1.4-0.3,2.7v4.4c0,0.7-0.1,1.2-0.4,1.5   c-0.3,0.3-0.7,0.5-1.2,0.5c-1.1,0-1.7-0.7-1.7-2v-14.5c0-0.7,0.1-1.2,0.4-1.5c0.3-0.3,0.7-0.5,1.2-0.5c0.5,0,0.9,0.2,1.2,0.5   C382.2,131.7,382.4,132.2,382.4,132.9L382.4,132.9z M403.9,143.5h-6.6c0,0.8,0.2,1.4,0.5,2c0.3,0.6,0.7,1,1.2,1.3   c0.5,0.3,1,0.4,1.6,0.4c0.4,0,0.8,0,1.1-0.1c0.3-0.1,0.7-0.2,1-0.4c0.3-0.2,0.6-0.4,0.9-0.6c0.3-0.2,0.6-0.5,1-0.9   c0.2-0.1,0.4-0.2,0.7-0.2c0.3,0,0.6,0.1,0.8,0.3c0.2,0.2,0.3,0.5,0.3,0.8c0,0.3-0.1,0.7-0.4,1.1c-0.2,0.4-0.6,0.8-1.1,1.2   s-1.1,0.7-1.8,0.9c-0.7,0.2-1.6,0.4-2.5,0.4c-2.2,0-3.8-0.6-5-1.8c-1.2-1.2-1.8-2.9-1.8-5c0-1,0.1-1.9,0.4-2.8   c0.3-0.8,0.7-1.6,1.3-2.2c0.6-0.6,1.3-1.1,2.1-1.4c0.9-0.3,1.8-0.5,2.8-0.5c1.3,0,2.4,0.3,3.4,0.8c0.9,0.6,1.6,1.3,2.1,2.1   c0.5,0.9,0.7,1.8,0.7,2.7c0,0.8-0.2,1.4-0.7,1.6C405.5,143.3,404.8,143.5,403.9,143.5L403.9,143.5z M397.3,141.6h6.1   c-0.1-1.1-0.4-2-0.9-2.6c-0.5-0.6-1.2-0.9-2.1-0.9c-0.8,0-1.5,0.3-2.1,0.9C397.8,139.6,397.5,140.4,397.3,141.6L397.3,141.6z    M413.1,144.6v2.8c0,0.7-0.2,1.2-0.5,1.5c-0.3,0.3-0.8,0.5-1.2,0.5c-0.5,0-0.9-0.2-1.2-0.5c-0.3-0.3-0.5-0.9-0.5-1.5v-9.3   c0-1.5,0.5-2.3,1.6-2.3c0.6,0,1,0.2,1.2,0.5c0.2,0.4,0.4,0.9,0.4,1.6c0.4-0.7,0.8-1.2,1.2-1.6c0.4-0.4,1-0.5,1.7-0.5   s1.4,0.2,2.1,0.5c0.7,0.4,1,0.8,1,1.4c0,0.4-0.1,0.7-0.4,1c-0.3,0.3-0.6,0.4-0.9,0.4c-0.1,0-0.4-0.1-0.9-0.2   c-0.4-0.1-0.8-0.2-1.2-0.2c-0.5,0-0.9,0.1-1.2,0.4c-0.3,0.3-0.6,0.6-0.7,1.1c-0.2,0.6-0.3,1.2-0.4,1.8   C413.1,142.8,413.1,143.6,413.1,144.6L413.1,144.6z M431.8,145.1c0,0.9-0.2,1.7-0.7,2.4s-1.1,1.2-2,1.5c-0.9,0.3-2,0.5-3.2,0.5   c-1.2,0-2.2-0.2-3.1-0.6c-0.9-0.4-1.5-0.8-1.9-1.4s-0.6-1.1-0.6-1.7c0-0.4,0.1-0.7,0.4-0.9c0.3-0.3,0.6-0.4,1-0.4   c0.4,0,0.6,0.1,0.8,0.3c0.2,0.2,0.4,0.4,0.5,0.7c0.3,0.6,0.8,1,1.2,1.3c0.5,0.3,1.1,0.4,2,0.4c0.7,0,1.2-0.1,1.7-0.4   c0.4-0.3,0.6-0.6,0.6-1c0-0.6-0.2-1-0.7-1.3c-0.4-0.3-1.2-0.5-2.2-0.8c-1.2-0.3-2.1-0.6-2.8-0.9c-0.7-0.3-1.3-0.7-1.7-1.2   c-0.4-0.5-0.7-1.1-0.7-1.9c0-0.7,0.2-1.3,0.6-1.9c0.4-0.6,1-1.1,1.8-1.4c0.8-0.4,1.7-0.5,2.8-0.5c0.8,0,1.6,0.1,2.3,0.3   c0.7,0.2,1.3,0.4,1.7,0.7c0.5,0.3,0.8,0.6,1.1,1c0.2,0.4,0.4,0.7,0.4,1.1c0,0.4-0.1,0.7-0.4,0.9c-0.3,0.2-0.6,0.4-1.1,0.4   c-0.3,0-0.6-0.1-0.9-0.3c-0.3-0.3-0.6-0.6-0.8-0.9c-0.2-0.3-0.5-0.6-0.9-0.8c-0.3-0.2-0.8-0.3-1.4-0.3c-0.6,0-1.1,0.1-1.5,0.4   c-0.4,0.3-0.6,0.6-0.6,1c0,0.4,0.1,0.6,0.4,0.9c0.3,0.2,0.7,0.4,1.2,0.6c0.5,0.1,1.2,0.3,2.1,0.5c1,0.3,1.9,0.6,2.5,0.9   c0.7,0.4,1.2,0.8,1.5,1.2C431.6,143.9,431.8,144.5,431.8,145.1L431.8,145.1z M449.8,147.6c-0.8,0.6-1.6,1.1-2.4,1.4   c-0.8,0.3-1.6,0.5-2.5,0.5c-0.9,0-1.6-0.2-2.3-0.5c-0.6-0.3-1.1-0.8-1.5-1.4c-0.3-0.6-0.5-1.2-0.5-1.9c0-0.9,0.3-1.7,0.9-2.3   c0.6-0.6,1.4-1.1,2.4-1.3c0.2-0.1,0.7-0.2,1.6-0.3c0.7-0.1,1.4-0.3,2.2-0.5c0.6-0.1,1.3-0.3,2-0.5c0-0.9-0.2-1.5-0.5-1.9   c-0.3-0.4-1-0.6-2-0.6c-0.8,0-1.5,0.1-1.9,0.4c-0.5,0.3-0.8,0.6-1.1,1.1c-0.3,0.5-0.5,0.8-0.7,0.9c-0.1,0.2-0.4,0.2-0.8,0.2   c-0.4,0-0.7-0.1-1-0.4c-0.3-0.2-0.4-0.6-0.4-0.9c0-0.6,0.2-1.2,0.6-1.7c0.4-0.6,1.1-1,2-1.4c0.9-0.4,2-0.5,3.3-0.5   c1.5,0,2.6,0.2,3.5,0.5c0.8,0.3,1.4,0.9,1.8,1.7c0.4,0.8,0.5,1.8,0.5,3c0,0.8,0,1.5,0,2c0,0.5,0,1.2,0,1.8c0,0.6,0.1,1.3,0.3,2   c0.2,0.7,0.3,1.1,0.3,1.3c0,0.3-0.2,0.7-0.5,0.9c-0.3,0.3-0.7,0.4-1.1,0.4c-0.3,0-0.7-0.2-1-0.5   C450.6,148.6,450.2,148.2,449.8,147.6L449.8,147.6z M449.6,142.7c-0.5,0.2-1.2,0.4-2.1,0.6c-0.7,0.1-1.3,0.3-1.9,0.4   c-0.4,0.1-0.7,0.3-1,0.6c-0.3,0.3-0.5,0.7-0.5,1.1c0,0.5,0.2,0.9,0.6,1.3c0.4,0.4,0.9,0.5,1.5,0.5c0.7,0,1.3-0.1,1.8-0.4   s1-0.7,1.2-1.1c0.3-0.5,0.5-1.3,0.5-2.5L449.6,142.7L449.6,142.7z M459.6,137.7v0.4c0.6-0.8,1.2-1.3,1.9-1.7   c0.7-0.4,1.5-0.5,2.4-0.5c0.9,0,1.7,0.2,2.4,0.6c0.7,0.4,1.2,0.9,1.6,1.6c0.2,0.4,0.4,0.9,0.4,1.3c0.1,0.5,0.1,1.1,0.1,1.8v6.2   c0,0.7-0.2,1.2-0.5,1.5c-0.3,0.3-0.7,0.5-1.2,0.5c-0.5,0-0.9-0.2-1.2-0.5c-0.3-0.4-0.5-0.9-0.5-1.5v-5.6c0-1.1-0.2-1.9-0.5-2.5   c-0.3-0.6-0.9-0.9-1.8-0.9c-0.6,0-1.1,0.2-1.6,0.5c-0.5,0.4-0.9,0.9-1.1,1.5c-0.2,0.5-0.2,1.4-0.2,2.8v4.2c0,0.7-0.2,1.2-0.5,1.5   c-0.3,0.3-0.8,0.5-1.2,0.5c-0.5,0-0.9-0.2-1.2-0.5c-0.3-0.4-0.5-0.9-0.5-1.5v-9.7c0-0.6,0.1-1.1,0.4-1.4c0.3-0.3,0.7-0.5,1.1-0.5   c0.3,0,0.6,0.1,0.8,0.2c0.2,0.1,0.4,0.3,0.6,0.6C459.5,136.9,459.6,137.3,459.6,137.7L459.6,137.7z M481.2,147.5v-0.3   c-0.4,0.5-0.9,0.9-1.3,1.3c-0.4,0.3-0.9,0.6-1.4,0.7c-0.5,0.2-1.1,0.3-1.7,0.3c-0.8,0-1.5-0.2-2.2-0.5c-0.7-0.3-1.3-0.8-1.8-1.5   c-0.5-0.7-0.9-1.4-1.1-2.2c-0.3-0.9-0.4-1.8-0.4-2.8c0-2.1,0.5-3.7,1.5-4.9c1-1.2,2.4-1.8,4-1.8c1,0,1.8,0.2,2.4,0.5   c0.7,0.3,1.3,0.8,1.9,1.5v-4.9c0-0.7,0.1-1.2,0.4-1.6c0.3-0.4,0.7-0.5,1.2-0.5c0.5,0,0.9,0.2,1.2,0.5c0.3,0.3,0.4,0.8,0.4,1.4v14.8   c0,0.6-0.1,1.1-0.4,1.4c-0.3,0.3-0.7,0.5-1.1,0.5c-0.4,0-0.8-0.2-1.1-0.5C481.3,148.6,481.2,148.2,481.2,147.5L481.2,147.5z    M474.6,142.6c0,0.9,0.1,1.7,0.4,2.3c0.3,0.6,0.7,1.1,1.2,1.4c0.5,0.3,1,0.5,1.6,0.5c0.6,0,1.1-0.2,1.6-0.5   c0.5-0.3,0.9-0.8,1.2-1.4c0.3-0.6,0.4-1.4,0.4-2.4c0-0.9-0.1-1.7-0.4-2.3c-0.3-0.6-0.7-1.1-1.2-1.5c-0.5-0.3-1-0.5-1.6-0.5   c-0.6,0-1.2,0.2-1.6,0.5c-0.5,0.3-0.9,0.8-1.1,1.5C474.7,141,474.6,141.8,474.6,142.6z M502.4,149.2h-5.5c-0.8,0-1.4-0.2-1.7-0.5   c-0.3-0.4-0.5-0.9-0.5-1.7v-13.5c0-0.8,0.2-1.4,0.5-1.7c0.3-0.3,0.9-0.5,1.7-0.5h5.8c0.9,0,1.6,0.1,2.2,0.2   c0.6,0.1,1.2,0.3,1.7,0.6c0.9,0.5,1.5,1.3,1.9,2.3c0.2,0.5,0.3,1,0.3,1.5c0,1.8-0.9,3.1-2.7,4c2.4,0.8,3.5,2.2,3.5,4.4   c0,1-0.3,1.9-0.8,2.7c-0.5,0.8-1.2,1.4-2.1,1.8c-0.6,0.2-1.2,0.4-1.9,0.5C504.2,149.1,503.4,149.2,502.4,149.2z M498.4,133.9v4.7   h3.3c0.9,0,1.6-0.1,2.1-0.3c0.5-0.2,0.9-0.5,1.1-1c0.2-0.3,0.3-0.7,0.3-1.2c0-0.9-0.3-1.5-1-1.8c-0.6-0.3-1.6-0.4-3-0.4   L498.4,133.9L498.4,133.9z M502.1,141.2h-3.8v5.3h3.9c2.5,0,3.7-0.9,3.7-2.7c0-0.9-0.3-1.6-1-2   C504.4,141.4,503.4,141.2,502.1,141.2L502.1,141.2z M521.3,147.6c-0.8,0.6-1.6,1.1-2.4,1.4c-0.8,0.3-1.6,0.5-2.5,0.5   c-0.9,0-1.6-0.2-2.3-0.5c-0.6-0.3-1.1-0.8-1.5-1.4c-0.3-0.6-0.5-1.2-0.5-1.9c0-0.9,0.3-1.7,0.9-2.3c0.6-0.6,1.4-1.1,2.4-1.3   c0.2-0.1,0.7-0.2,1.6-0.3c0.7-0.1,1.4-0.3,2.2-0.5c0.6-0.1,1.3-0.3,2-0.5c0-0.9-0.2-1.5-0.5-1.9c-0.3-0.4-1-0.6-2-0.6   c-0.9,0-1.5,0.1-1.9,0.4c-0.4,0.2-0.8,0.6-1.1,1.1c-0.3,0.5-0.5,0.8-0.7,0.9c-0.1,0.2-0.4,0.2-0.8,0.2c-0.4,0-0.7-0.1-1-0.4   c-0.3-0.2-0.4-0.6-0.4-0.9c0-0.6,0.2-1.2,0.6-1.7c0.4-0.6,1.1-1,2-1.4c0.9-0.4,2-0.5,3.3-0.5c1.5,0,2.6,0.2,3.5,0.5   c0.8,0.3,1.4,0.9,1.8,1.7c0.3,0.8,0.5,1.8,0.5,3c0,0.8,0,1.5,0,2l0,1.8c0,0.6,0.1,1.3,0.3,2c0.2,0.7,0.3,1.1,0.3,1.3   c0,0.3-0.2,0.7-0.5,0.9c-0.3,0.3-0.7,0.4-1.1,0.4c-0.3,0-0.7-0.2-1-0.5C522,148.6,521.7,148.2,521.3,147.6z M521.1,142.7   c-0.5,0.2-1.2,0.4-2.1,0.6c-0.9,0.2-1.6,0.3-1.9,0.4c-0.4,0.1-0.7,0.3-1,0.6c-0.3,0.3-0.5,0.7-0.5,1.1c0,0.5,0.2,0.9,0.6,1.3   c0.4,0.4,0.9,0.5,1.5,0.5c0.7,0,1.3-0.1,1.8-0.4c0.6-0.3,1-0.7,1.2-1.1c0.3-0.5,0.5-1.3,0.5-2.5L521.1,142.7L521.1,142.7z    M531.1,132.8v5.1c0.6-0.7,1.3-1.2,1.9-1.5c0.7-0.4,1.5-0.5,2.4-0.5c1.1,0,2.1,0.3,2.9,0.8c0.8,0.5,1.5,1.3,2,2.3   c0.5,1,0.7,2.2,0.7,3.6c0,1-0.1,1.9-0.4,2.8c-0.2,0.8-0.6,1.5-1.1,2.2c-0.5,0.6-1.1,1.1-1.8,1.4c-0.7,0.3-1.5,0.5-2.3,0.5   c-0.5,0-1-0.1-1.5-0.2c-0.4-0.1-0.8-0.3-1.2-0.5c-0.3-0.2-0.6-0.4-0.8-0.6c-0.2-0.2-0.5-0.5-0.9-1v0.3c0,0.6-0.2,1.1-0.5,1.4   c-0.3,0.3-0.7,0.5-1.2,0.5c-0.5,0-0.9-0.2-1.1-0.5c-0.3-0.3-0.4-0.8-0.4-1.4v-14.6c0-0.7,0.1-1.2,0.4-1.5c0.3-0.3,0.7-0.5,1.1-0.5   c0.5,0,0.9,0.2,1.2,0.5S531.1,132.1,531.1,132.8L531.1,132.8z M531.3,142.7c0,1.3,0.3,2.4,0.9,3.1c0.6,0.7,1.4,1.1,2.4,1.1   c0.8,0,1.6-0.4,2.2-1.1c0.6-0.7,0.9-1.8,0.9-3.1c0-0.9-0.1-1.6-0.4-2.3c-0.3-0.6-0.6-1.1-1.1-1.5c-0.5-0.4-1-0.5-1.6-0.5   c-0.6,0-1.2,0.2-1.7,0.5c-0.5,0.3-0.9,0.8-1.2,1.5C531.4,141,531.3,141.8,531.3,142.7z M545.6,134.3c-0.5,0-0.9-0.1-1.2-0.4   c-0.3-0.3-0.5-0.7-0.5-1.2c0-0.5,0.2-0.9,0.5-1.2c0.3-0.3,0.7-0.5,1.2-0.5c0.4,0,0.8,0.1,1.2,0.4c0.3,0.3,0.5,0.7,0.5,1.2   c0,0.5-0.2,0.9-0.5,1.2C546.5,134.1,546.1,134.3,545.6,134.3z M547.3,137.7v9.7c0,0.7-0.2,1.2-0.5,1.5c-0.3,0.3-0.8,0.5-1.2,0.5   c-0.5,0-0.9-0.2-1.2-0.5c-0.3-0.4-0.5-0.9-0.5-1.5v-9.6c0-0.7,0.2-1.2,0.5-1.5c0.3-0.3,0.7-0.5,1.2-0.5c0.5,0,0.9,0.2,1.2,0.5   C547.1,136.7,547.3,137.1,547.3,137.7z M560.4,143.5h-6.6c0,0.8,0.2,1.4,0.5,2c0.3,0.6,0.7,1,1.2,1.3c0.5,0.3,1,0.4,1.6,0.4   c0.4,0,0.8,0,1.1-0.1c0.3-0.1,0.7-0.2,1-0.4c0.3-0.2,0.6-0.4,0.9-0.6c0.3-0.2,0.6-0.5,1-0.9c0.2-0.1,0.4-0.2,0.7-0.2   c0.3,0,0.6,0.1,0.8,0.3c0.2,0.2,0.3,0.5,0.3,0.8c0,0.3-0.1,0.7-0.4,1.1c-0.2,0.4-0.6,0.8-1.1,1.2c-0.5,0.4-1.1,0.7-1.8,0.9   c-0.7,0.2-1.6,0.4-2.5,0.4c-2.2,0-3.8-0.6-5-1.8c-1.2-1.2-1.8-2.9-1.8-5c0-1,0.1-1.9,0.4-2.8c0.3-0.8,0.7-1.6,1.3-2.2   c0.6-0.6,1.3-1.1,2.1-1.4c0.9-0.3,1.8-0.5,2.8-0.5c1.3,0,2.4,0.3,3.4,0.8c0.9,0.6,1.6,1.3,2.1,2.1c0.5,0.9,0.7,1.8,0.7,2.7   c0,0.8-0.2,1.4-0.7,1.6C561.9,143.3,561.2,143.5,560.4,143.5L560.4,143.5z M553.8,141.6h6.1c-0.1-1.1-0.4-2-0.9-2.6   c-0.5-0.6-1.2-0.9-2.1-0.9c-0.8,0-1.5,0.3-2.1,0.9C554.2,139.6,553.9,140.4,553.8,141.6z M577,145.1c0,0.9-0.2,1.7-0.7,2.4   c-0.4,0.7-1.1,1.2-2,1.5c-0.9,0.3-1.9,0.5-3.2,0.5c-1.2,0-2.2-0.2-3.1-0.6c-0.9-0.4-1.5-0.8-1.9-1.4c-0.4-0.6-0.6-1.1-0.6-1.7   c0-0.4,0.1-0.7,0.4-0.9c0.3-0.3,0.6-0.4,1-0.4c0.4,0,0.6,0.1,0.8,0.3c0.2,0.2,0.4,0.4,0.5,0.7c0.3,0.6,0.8,1,1.2,1.3   c0.5,0.3,1.1,0.4,2,0.4c0.7,0,1.2-0.1,1.7-0.4c0.4-0.3,0.6-0.6,0.6-1c0-0.6-0.2-1-0.7-1.3c-0.4-0.3-1.2-0.5-2.2-0.8   c-1.2-0.3-2.1-0.6-2.8-0.9c-0.7-0.3-1.3-0.7-1.7-1.2c-0.4-0.5-0.7-1.1-0.7-1.9c0-0.7,0.2-1.3,0.6-1.9c0.4-0.6,1-1.1,1.8-1.4   c0.8-0.4,1.7-0.5,2.8-0.5c0.9,0,1.6,0.1,2.3,0.3c0.7,0.2,1.3,0.4,1.7,0.7c0.5,0.3,0.8,0.6,1.1,1s0.4,0.7,0.4,1.1   c0,0.4-0.1,0.7-0.4,0.9c-0.3,0.2-0.6,0.4-1.1,0.4c-0.3,0-0.6-0.1-0.9-0.3c-0.3-0.3-0.6-0.6-0.8-0.9c-0.2-0.3-0.5-0.6-0.9-0.8   c-0.3-0.2-0.8-0.3-1.4-0.3c-0.6,0-1.1,0.1-1.5,0.4c-0.4,0.3-0.6,0.6-0.6,1c0,0.3,0.2,0.7,0.4,0.9c0.3,0.2,0.7,0.4,1.2,0.6   c0.5,0.1,1.2,0.3,2.1,0.5c1,0.3,1.9,0.6,2.5,0.9c0.7,0.4,1.2,0.8,1.5,1.2C576.8,143.9,577,144.5,577,145.1L577,145.1z M580.4,137.7   c0-0.6,0.2-1,0.5-1.4c0.4-0.3,0.8-0.5,1.3-0.5c0.5,0,0.9,0.2,1.3,0.5c0.4,0.3,0.5,0.8,0.5,1.3c0,0.5-0.2,0.9-0.6,1.3   c-0.4,0.4-0.8,0.6-1.3,0.6c-0.5,0-0.9-0.2-1.3-0.6C580.6,138.6,580.4,138.1,580.4,137.7z M582.3,149.5c-0.5,0-1-0.2-1.3-0.5   c-0.4-0.3-0.6-0.8-0.6-1.4c0-0.5,0.2-0.9,0.5-1.3c0.4-0.4,0.8-0.5,1.3-0.5c0.5,0,1,0.2,1.3,0.5s0.5,0.8,0.5,1.3   c0,0.6-0.2,1-0.5,1.4C583.2,149.3,582.8,149.5,582.3,149.5L582.3,149.5z M599.8,141.4h-1.3v5.8c0,0.8-0.2,1.3-0.5,1.7   s-0.8,0.5-1.3,0.5c-0.6,0-1-0.2-1.4-0.6c-0.3-0.4-0.5-0.9-0.5-1.7v-13.9c0-0.8,0.2-1.4,0.5-1.7c0.4-0.4,0.9-0.5,1.7-0.5h5.9   c0.8,0,1.5,0,2.1,0.1c0.6,0.1,1.1,0.2,1.6,0.4c0.6,0.2,1.1,0.6,1.5,1c0.4,0.4,0.8,1,1,1.5c0.2,0.6,0.3,1.2,0.3,1.9   c0,1.3-0.4,2.4-1.1,3.2c-0.8,0.8-1.9,1.4-3.4,1.7c0.6,0.3,1.3,0.9,1.9,1.5c0.6,0.7,1.1,1.4,1.6,2.1c0.5,0.8,0.8,1.4,1.1,2.1   c0.3,0.6,0.4,1,0.4,1.3c0,0.3-0.1,0.5-0.2,0.7c-0.2,0.2-0.4,0.4-0.6,0.6c-0.3,0.1-0.6,0.2-0.9,0.2c-0.4,0-0.8-0.1-1-0.3   c-0.3-0.2-0.5-0.4-0.7-0.7c-0.2-0.3-0.5-0.7-0.8-1.3l-1.5-2.4c-0.5-0.9-1-1.6-1.4-2c-0.4-0.5-0.8-0.8-1.3-1   C601,141.5,600.5,141.4,599.8,141.4L599.8,141.4z M601.9,133.9h-3.4v4.9h3.3c0.9,0,1.6-0.1,2.2-0.2c0.6-0.2,1.1-0.4,1.4-0.8   c0.3-0.4,0.5-0.9,0.5-1.5c0-0.5-0.1-0.9-0.4-1.3c-0.3-0.4-0.6-0.7-1.1-0.9C604,134,603.2,133.9,601.9,133.9L601.9,133.9z    M621.8,143.5h-6.6c0,0.8,0.2,1.4,0.5,2c0.3,0.6,0.7,1,1.2,1.3c0.5,0.3,1,0.4,1.6,0.4c0.4,0,0.8,0,1.1-0.1c0.3-0.1,0.7-0.2,1-0.4   c0.3-0.2,0.6-0.4,0.9-0.6c0.3-0.2,0.6-0.5,1-0.9c0.2-0.1,0.4-0.2,0.7-0.2c0.3,0,0.6,0.1,0.8,0.3c0.2,0.2,0.3,0.5,0.3,0.8   c0,0.3-0.1,0.7-0.4,1.1c-0.2,0.4-0.6,0.8-1.1,1.2c-0.5,0.4-1.1,0.7-1.8,0.9c-0.7,0.2-1.6,0.4-2.5,0.4c-2.2,0-3.8-0.6-5-1.8   c-1.2-1.2-1.8-2.9-1.8-5c0-1,0.1-1.9,0.4-2.8c0.3-0.8,0.7-1.6,1.3-2.2c0.6-0.6,1.3-1.1,2.1-1.4c0.9-0.3,1.8-0.5,2.8-0.5   c1.3,0,2.4,0.3,3.4,0.8c0.9,0.6,1.6,1.3,2.1,2.1c0.5,0.9,0.7,1.8,0.7,2.7c0,0.8-0.2,1.4-0.7,1.6   C623.4,143.3,622.7,143.5,621.8,143.5L621.8,143.5z M615.2,141.6h6.1c-0.1-1.1-0.4-2-0.9-2.6c-0.5-0.6-1.2-0.9-2.1-0.9   c-0.8,0-1.5,0.3-2.1,0.9C615.7,139.6,615.4,140.4,615.2,141.6z M636.8,147.5v-0.3c-0.4,0.5-0.9,0.9-1.3,1.3   c-0.4,0.3-0.9,0.6-1.4,0.7c-0.5,0.2-1.1,0.3-1.7,0.3c-0.8,0-1.5-0.2-2.2-0.5c-0.7-0.3-1.3-0.8-1.8-1.5c-0.5-0.7-0.9-1.4-1.1-2.2   c-0.3-0.9-0.4-1.8-0.4-2.8c0-2.1,0.5-3.7,1.5-4.9c1-1.2,2.4-1.8,4-1.8c1,0,1.8,0.2,2.4,0.5c0.7,0.3,1.3,0.8,1.9,1.5v-4.9   c0-0.7,0.1-1.2,0.4-1.6c0.3-0.4,0.7-0.5,1.2-0.5c0.5,0,0.9,0.2,1.2,0.5c0.3,0.3,0.4,0.8,0.4,1.4v14.8c0,0.6-0.1,1.1-0.4,1.4   c-0.3,0.3-0.7,0.5-1.1,0.5c-0.5,0-0.8-0.2-1.1-0.5C637,148.6,636.8,148.2,636.8,147.5L636.8,147.5z M630.2,142.6   c0,0.9,0.1,1.7,0.4,2.3c0.3,0.6,0.7,1.1,1.2,1.4c0.5,0.3,1,0.5,1.6,0.5c0.6,0,1.1-0.2,1.6-0.5c0.5-0.3,0.9-0.8,1.2-1.4   c0.3-0.6,0.4-1.4,0.4-2.4c0-0.9-0.1-1.7-0.4-2.3c-0.3-0.6-0.7-1.1-1.2-1.5c-0.5-0.3-1-0.5-1.6-0.5c-0.6,0-1.2,0.2-1.6,0.5   c-0.5,0.3-0.9,0.8-1.1,1.5C630.4,141,630.2,141.8,630.2,142.6L630.2,142.6z M652.3,147.6v-0.4c-0.4,0.5-0.8,0.9-1.3,1.3   c-0.4,0.3-0.9,0.6-1.4,0.8c-0.5,0.2-1.1,0.3-1.8,0.3c-0.8,0-1.5-0.2-2.2-0.5c-0.6-0.3-1.1-0.8-1.5-1.4c-0.4-0.7-0.6-1.7-0.6-3.1   v-6.6c0-0.7,0.2-1.2,0.5-1.5c0.3-0.3,0.7-0.5,1.2-0.5c0.5,0,0.9,0.2,1.2,0.5c0.3,0.3,0.5,0.8,0.5,1.5v5.4c0,0.8,0.1,1.4,0.2,2   c0.1,0.5,0.4,0.9,0.7,1.2c0.3,0.3,0.8,0.4,1.4,0.4c0.6,0,1.1-0.2,1.6-0.5c0.5-0.3,0.9-0.8,1.1-1.3c0.2-0.5,0.3-1.5,0.3-3.1v-4.1   c0-0.7,0.2-1.2,0.5-1.5c0.3-0.3,0.7-0.5,1.2-0.5c0.5,0,0.9,0.2,1.2,0.5c0.3,0.3,0.5,0.8,0.5,1.5v9.7c0,0.6-0.1,1.1-0.4,1.4   c-0.3,0.3-0.7,0.5-1.1,0.5s-0.8-0.2-1.1-0.5C652.4,148.6,652.3,148.2,652.3,147.6L652.3,147.6z M671.1,145.3c0,0.4-0.1,0.9-0.4,1.3   c-0.2,0.5-0.6,0.9-1.1,1.4c-0.5,0.4-1.2,0.8-1.9,1c-0.9,0.3-1.7,0.4-2.6,0.4c-2.1,0-3.7-0.6-4.9-1.8c-1.2-1.2-1.7-2.8-1.7-4.9   c0-1.4,0.3-2.6,0.8-3.6c0.5-1,1.3-1.9,2.3-2.5c1-0.6,2.2-0.9,3.6-0.9c0.9,0,1.7,0.1,2.4,0.4c0.7,0.3,1.3,0.6,1.8,1   c0.5,0.4,0.9,0.8,1.2,1.3c0.3,0.5,0.4,0.9,0.4,1.3c0,0.4-0.1,0.7-0.4,1c-0.3,0.3-0.7,0.4-1.1,0.4c-0.2,0-0.5-0.1-0.7-0.2   c-0.2-0.2-0.4-0.4-0.6-0.7c-0.4-0.6-0.8-1.1-1.3-1.4c-0.4-0.3-1-0.5-1.7-0.5c-1,0-1.8,0.4-2.4,1.2c-0.6,0.8-0.9,1.8-0.9,3.2   c0,0.6,0.1,1.2,0.2,1.7c0.2,0.5,0.4,1,0.7,1.4c0.3,0.4,0.6,0.7,1.1,0.8c0.4,0.2,0.9,0.3,1.4,0.3c0.7,0,1.2-0.2,1.7-0.5   c0.5-0.3,0.9-0.8,1.3-1.4c0.2-0.4,0.4-0.7,0.7-0.9c0.2-0.2,0.6-0.3,0.9-0.3c0.4,0,0.7,0.2,1,0.5C670.9,144.6,671.1,145,671.1,145.3   L671.1,145.3z M675.9,134.3c-0.4,0-0.9-0.1-1.2-0.4c-0.3-0.3-0.5-0.7-0.5-1.2c0-0.5,0.2-0.9,0.5-1.2c0.3-0.3,0.7-0.5,1.2-0.5   c0.4,0,0.8,0.1,1.2,0.4c0.3,0.3,0.5,0.7,0.5,1.2c0,0.5-0.2,0.9-0.5,1.2C676.7,134.1,676.3,134.3,675.9,134.3z M677.6,137.7v9.7   c0,0.7-0.2,1.2-0.5,1.5c-0.3,0.3-0.7,0.5-1.2,0.5c-0.5,0-0.9-0.2-1.2-0.5c-0.3-0.4-0.5-0.9-0.5-1.5v-9.6c0-0.7,0.2-1.2,0.5-1.5   c0.3-0.3,0.7-0.5,1.2-0.5c0.5,0,0.9,0.2,1.2,0.5C677.4,136.7,677.6,137.1,677.6,137.7z M684.3,137.7v0.4c0.6-0.8,1.2-1.3,1.9-1.7   c0.7-0.4,1.5-0.5,2.4-0.5c0.9,0,1.7,0.2,2.4,0.6c0.7,0.4,1.2,0.9,1.6,1.6c0.2,0.4,0.4,0.9,0.4,1.3c0.1,0.5,0.1,1.1,0.1,1.8v6.2   c0,0.7-0.2,1.2-0.5,1.5c-0.3,0.3-0.7,0.5-1.2,0.5c-0.5,0-0.9-0.2-1.2-0.5c-0.3-0.4-0.5-0.9-0.5-1.5v-5.6c0-1.1-0.2-1.9-0.5-2.5   c-0.3-0.6-0.9-0.9-1.8-0.9c-0.6,0-1.1,0.2-1.6,0.5c-0.5,0.4-0.9,0.9-1.1,1.5c-0.2,0.5-0.2,1.4-0.2,2.8v4.2c0,0.7-0.2,1.2-0.5,1.5   c-0.3,0.3-0.8,0.5-1.2,0.5c-0.5,0-0.9-0.2-1.2-0.5c-0.3-0.4-0.5-0.9-0.5-1.5v-9.7c0-0.6,0.1-1.1,0.4-1.4c0.3-0.3,0.7-0.5,1.1-0.5   c0.3,0,0.6,0.1,0.8,0.2c0.2,0.1,0.4,0.3,0.6,0.6C684.2,136.9,684.3,137.3,684.3,137.7L684.3,137.7z M709,138.3v9.7   c0,1.1-0.1,2.1-0.4,2.9c-0.2,0.8-0.6,1.5-1.1,2c-0.5,0.5-1.2,0.9-2.1,1.2c-0.8,0.3-1.9,0.4-3.2,0.4c-1.2,0-2.2-0.2-3.1-0.5   c-0.9-0.3-1.6-0.7-2.1-1.3c-0.5-0.5-0.7-1-0.7-1.6c0-0.4,0.1-0.7,0.4-1c0.3-0.3,0.6-0.4,1-0.4c0.5,0,0.9,0.2,1.3,0.7   c0.2,0.2,0.4,0.4,0.6,0.7c0.2,0.2,0.4,0.4,0.6,0.6c0.2,0.2,0.5,0.3,0.8,0.4c0.3,0.1,0.7,0.1,1.1,0.1c0.9,0,1.5-0.1,2-0.4   c0.5-0.2,0.8-0.6,1-1c0.2-0.4,0.3-0.9,0.3-1.4c0-0.5,0.1-1.3,0.1-2.4c-0.5,0.7-1.1,1.3-1.8,1.6c-0.7,0.4-1.5,0.6-2.4,0.6   c-1.1,0-2.1-0.3-2.9-0.9c-0.8-0.6-1.5-1.4-1.9-2.4c-0.5-1-0.7-2.2-0.7-3.6c0-1,0.1-1.9,0.4-2.7c0.3-0.8,0.7-1.5,1.2-2.1   c0.5-0.5,1.1-1,1.8-1.3c0.7-0.3,1.4-0.4,2.2-0.4c1,0,1.8,0.2,2.5,0.5c0.7,0.4,1.3,0.9,1.9,1.7v-0.5c0-0.6,0.1-1,0.4-1.4   c0.3-0.3,0.7-0.5,1.1-0.5c0.6,0,1.1,0.2,1.3,0.6C708.9,136.9,709,137.5,709,138.3L709,138.3z M699.3,142.5c0,1.4,0.3,2.4,0.9,3.1   c0.6,0.7,1.4,1,2.3,1c0.6,0,1.1-0.1,1.6-0.4c0.5-0.3,0.9-0.8,1.2-1.4c0.3-0.6,0.5-1.3,0.5-2.2c0-1.4-0.3-2.4-0.9-3.2   c-0.6-0.8-1.4-1.1-2.4-1.1c-1,0-1.7,0.4-2.3,1.1C699.6,140.2,699.3,141.2,699.3,142.5L699.3,142.5z M724.3,141.4H723v5.8   c0,0.8-0.2,1.3-0.5,1.7c-0.3,0.4-0.8,0.5-1.3,0.5c-0.6,0-1-0.2-1.4-0.6c-0.3-0.4-0.5-0.9-0.5-1.7v-13.9c0-0.8,0.2-1.4,0.5-1.7   c0.4-0.4,0.9-0.5,1.7-0.5h5.9c0.8,0,1.5,0,2.1,0.1c0.6,0.1,1.1,0.2,1.6,0.4c1.1,0.5,2,1.4,2.5,2.6c0.2,0.6,0.3,1.2,0.3,1.9   c0,1.3-0.4,2.4-1.1,3.2c-0.8,0.8-1.9,1.4-3.4,1.7c0.6,0.3,1.3,0.9,1.9,1.5c0.6,0.7,1.1,1.4,1.6,2.1c0.5,0.8,0.8,1.4,1.1,2.1   c0.3,0.6,0.4,1,0.4,1.3c0,0.3-0.1,0.5-0.2,0.7c-0.2,0.2-0.4,0.4-0.6,0.6c-0.3,0.1-0.6,0.2-0.9,0.2c-0.4,0-0.8-0.1-1-0.3   c-0.3-0.2-0.5-0.4-0.7-0.7c-0.2-0.3-0.5-0.7-0.8-1.3l-1.5-2.4c-0.5-0.9-1-1.6-1.4-2c-0.4-0.5-0.8-0.8-1.3-1   C725.5,141.5,724.9,141.4,724.3,141.4L724.3,141.4z M726.4,133.9H723v4.9h3.3c0.9,0,1.6-0.1,2.2-0.2c0.6-0.2,1.1-0.4,1.4-0.8   c0.3-0.4,0.5-0.9,0.5-1.5c0-0.5-0.1-0.9-0.4-1.3c-0.3-0.4-0.6-0.7-1.1-0.9C728.5,134,727.6,133.9,726.4,133.9z M739.2,134.3   c-0.5,0-0.9-0.1-1.2-0.4c-0.3-0.3-0.5-0.7-0.5-1.2c0-0.5,0.2-0.9,0.5-1.2c0.3-0.3,0.7-0.5,1.2-0.5c0.4,0,0.8,0.1,1.2,0.4   c0.3,0.3,0.5,0.7,0.5,1.2c0,0.5-0.2,0.9-0.5,1.2C740,134.1,739.6,134.3,739.2,134.3z M740.8,137.7v9.7c0,0.7-0.2,1.2-0.5,1.5   c-0.3,0.3-0.7,0.5-1.2,0.5c-0.5,0-0.9-0.2-1.2-0.5c-0.3-0.4-0.5-0.9-0.5-1.5v-9.6c0-0.7,0.2-1.2,0.5-1.5c0.3-0.3,0.7-0.5,1.2-0.5   c0.5,0,0.9,0.2,1.2,0.5C740.7,136.7,740.8,137.1,740.8,137.7z M755.3,145.1c0,0.9-0.2,1.7-0.7,2.4c-0.4,0.7-1.1,1.2-2,1.5   c-0.9,0.3-1.9,0.5-3.2,0.5c-1.2,0-2.2-0.2-3.1-0.6c-0.9-0.4-1.5-0.8-1.9-1.4c-0.4-0.6-0.6-1.1-0.6-1.7c0-0.4,0.1-0.7,0.4-0.9   c0.3-0.3,0.6-0.4,1-0.4c0.4,0,0.6,0.1,0.8,0.3c0.2,0.2,0.4,0.4,0.5,0.7c0.3,0.6,0.8,1,1.2,1.3c0.5,0.3,1.1,0.4,2,0.4   c0.7,0,1.2-0.1,1.7-0.4c0.4-0.3,0.6-0.6,0.6-1c0-0.6-0.2-1-0.7-1.3c-0.4-0.3-1.2-0.5-2.2-0.8c-1.2-0.3-2.1-0.6-2.8-0.9   c-0.7-0.3-1.3-0.7-1.7-1.2c-0.4-0.5-0.7-1.1-0.7-1.9c0-0.7,0.2-1.3,0.6-1.9c0.4-0.6,1-1.1,1.8-1.4c0.8-0.4,1.7-0.5,2.8-0.5   c0.9,0,1.6,0.1,2.3,0.3c0.7,0.2,1.3,0.4,1.7,0.7c0.5,0.3,0.8,0.6,1.1,1c0.2,0.4,0.4,0.7,0.4,1.1c0,0.4-0.1,0.7-0.4,0.9   c-0.3,0.2-0.6,0.4-1.1,0.4c-0.3,0-0.6-0.1-0.9-0.3c-0.3-0.3-0.6-0.6-0.8-0.9c-0.2-0.3-0.5-0.6-0.9-0.8c-0.3-0.2-0.8-0.3-1.4-0.3   c-0.6,0-1.1,0.1-1.5,0.4c-0.4,0.3-0.6,0.6-0.6,1c0,0.4,0.1,0.6,0.4,0.9c0.3,0.2,0.7,0.4,1.2,0.6c0.5,0.1,1.2,0.3,2.1,0.5   c1,0.3,1.9,0.6,2.5,0.9c0.7,0.4,1.2,0.8,1.5,1.2C755.1,143.9,755.3,144.5,755.3,145.1L755.3,145.1z M766.8,147.9l-3-4.9l-1.8,1.7   v2.7c0,0.6-0.2,1.1-0.5,1.5c-0.3,0.3-0.7,0.5-1.2,0.5c-0.5,0-0.9-0.2-1.2-0.5c-0.3-0.3-0.4-0.9-0.4-1.5v-14.3   c0-0.7,0.1-1.3,0.4-1.7c0.3-0.4,0.7-0.6,1.2-0.6c0.5,0,0.9,0.2,1.2,0.5c0.3,0.4,0.5,0.9,0.5,1.6v8.1l3.8-4c0.5-0.5,0.8-0.8,1.1-1   c0.3-0.2,0.6-0.3,0.9-0.3c0.4,0,0.8,0.1,1,0.4c0.3,0.3,0.4,0.6,0.4,1c0,0.5-0.5,1.1-1.4,2l-1.8,1.6l3.4,5.4   c0.3,0.4,0.4,0.7,0.5,0.9c0.1,0.2,0.2,0.4,0.2,0.6c0,0.5-0.1,1-0.4,1.3c-0.3,0.3-0.7,0.5-1.1,0.5c-0.4,0-0.7-0.1-0.9-0.3   C767.4,148.9,767.1,148.5,766.8,147.9L766.8,147.9z M779.8,136.1h0.4v-2c0-0.5,0-1,0-1.3c0-0.3,0.1-0.6,0.2-0.8   c0.1-0.2,0.3-0.4,0.6-0.6c0.2-0.1,0.5-0.2,0.8-0.2c0.4,0,0.8,0.2,1.2,0.5c0.2,0.2,0.4,0.5,0.4,0.8c0.1,0.3,0.1,0.7,0.1,1.3v2.3h1.2   c0.5,0,0.8,0.1,1.1,0.3c0.2,0.2,0.4,0.5,0.4,0.9c0,0.5-0.2,0.8-0.5,0.9c-0.4,0.2-0.9,0.3-1.5,0.3h-0.6v6.2c0,0.5,0,0.9,0.1,1.2   c0,0.3,0.1,0.5,0.3,0.7c0.2,0.2,0.4,0.3,0.8,0.3c0.2,0,0.5,0,0.8-0.1c0.3-0.1,0.6-0.1,0.8-0.1c0.3,0,0.5,0.1,0.7,0.3   c0.2,0.2,0.3,0.5,0.3,0.8c0,0.5-0.3,1-0.9,1.2c-0.6,0.3-1.4,0.4-2.5,0.4c-1,0-1.8-0.2-2.4-0.5c-0.5-0.4-0.9-0.8-1.1-1.5   c-0.2-0.6-0.3-1.5-0.3-2.5v-6.4h-0.4c-0.5,0-0.9-0.1-1.1-0.3c-0.2-0.2-0.4-0.5-0.4-0.9c0-0.4,0.1-0.6,0.4-0.9   C778.9,136.2,779.3,136.1,779.8,136.1L779.8,136.1z M792,132.9v5c0.4-0.5,0.8-0.9,1.2-1.2c0.4-0.3,0.9-0.5,1.3-0.6   c0.5-0.1,1-0.2,1.6-0.2c0.9,0,1.6,0.2,2.3,0.5c0.7,0.4,1.2,0.9,1.6,1.6c0.2,0.4,0.4,0.8,0.5,1.3c0.1,0.5,0.1,1.1,0.1,1.7v6.4   c0,0.7-0.2,1.2-0.5,1.5c-0.3,0.3-0.7,0.5-1.2,0.5c-1.1,0-1.7-0.7-1.7-2v-5.7c0-1.1-0.2-1.9-0.5-2.5c-0.3-0.6-0.9-0.9-1.8-0.9   c-0.6,0-1.1,0.2-1.6,0.5c-0.5,0.3-0.9,0.8-1.1,1.4c-0.2,0.5-0.3,1.4-0.3,2.7v4.4c0,0.7-0.1,1.2-0.4,1.5c-0.3,0.3-0.7,0.5-1.2,0.5   c-1.1,0-1.7-0.7-1.7-2v-14.5c0-0.7,0.1-1.2,0.4-1.5c0.3-0.3,0.7-0.5,1.2-0.5c0.5,0,0.9,0.2,1.2,0.5   C791.9,131.7,792,132.2,792,132.9L792,132.9z M807.5,144.6v2.8c0,0.7-0.2,1.2-0.5,1.5c-0.3,0.3-0.8,0.5-1.2,0.5   c-0.5,0-0.9-0.2-1.2-0.5c-0.3-0.3-0.5-0.9-0.5-1.5v-9.3c0-1.5,0.5-2.3,1.6-2.3c0.6,0,1,0.2,1.2,0.5c0.2,0.4,0.4,0.9,0.4,1.6   c0.4-0.7,0.8-1.2,1.2-1.6c0.4-0.4,1-0.5,1.7-0.5c0.7,0,1.4,0.2,2.1,0.5c0.7,0.4,1,0.8,1,1.4c0,0.4-0.1,0.7-0.4,1   c-0.3,0.3-0.6,0.4-0.9,0.4c-0.1,0-0.4-0.1-0.9-0.2c-0.4-0.1-0.8-0.2-1.2-0.2c-0.5,0-0.9,0.1-1.2,0.4c-0.3,0.3-0.6,0.6-0.7,1.1   c-0.2,0.6-0.3,1.2-0.4,1.8C807.5,142.8,807.5,143.6,807.5,144.6L807.5,144.6z M828,142.6c0,1-0.2,1.9-0.5,2.8   c-0.3,0.8-0.7,1.6-1.3,2.2c-0.6,0.6-1.3,1.1-2.1,1.4c-0.8,0.3-1.7,0.5-2.8,0.5c-1,0-1.9-0.2-2.7-0.5c-0.8-0.3-1.5-0.8-2.1-1.4   c-0.6-0.6-1.1-1.4-1.3-2.2c-0.3-0.8-0.5-1.7-0.5-2.8c0-1,0.2-1.9,0.5-2.8c0.3-0.8,0.7-1.5,1.3-2.2c0.6-0.6,1.3-1.1,2.1-1.4   c0.8-0.3,1.7-0.5,2.7-0.5c1,0,1.9,0.2,2.8,0.5c0.8,0.3,1.5,0.8,2.1,1.4c0.6,0.6,1.1,1.4,1.3,2.2C827.9,140.8,828,141.7,828,142.6   L828,142.6z M824.6,142.6c0-1.4-0.3-2.4-0.9-3.2c-0.6-0.8-1.4-1.1-2.4-1.1c-0.7,0-1.2,0.2-1.7,0.5c-0.5,0.3-0.9,0.8-1.2,1.5   c-0.3,0.7-0.4,1.4-0.4,2.3c0,0.9,0.1,1.6,0.4,2.3c0.3,0.7,0.6,1.2,1.1,1.5c0.5,0.3,1.1,0.5,1.7,0.5c1,0,1.8-0.4,2.4-1.1   C824.3,145.1,824.6,144,824.6,142.6z M839.6,147.6v-0.4c-0.4,0.5-0.8,0.9-1.3,1.3c-0.4,0.3-0.9,0.6-1.5,0.8   c-0.5,0.2-1.1,0.3-1.8,0.3c-0.8,0-1.5-0.2-2.2-0.5c-0.6-0.3-1.1-0.8-1.5-1.4c-0.4-0.7-0.6-1.7-0.6-3.1v-6.6c0-0.7,0.2-1.2,0.5-1.5   c0.3-0.3,0.7-0.5,1.2-0.5c0.5,0,0.9,0.2,1.2,0.5c0.3,0.3,0.5,0.8,0.5,1.5v5.4c0,0.8,0.1,1.4,0.2,2c0.1,0.5,0.4,0.9,0.7,1.2   c0.3,0.3,0.8,0.4,1.4,0.4c0.6,0,1.1-0.2,1.6-0.5c0.5-0.3,0.9-0.8,1.1-1.3c0.2-0.5,0.3-1.5,0.3-3.1v-4.1c0-0.7,0.2-1.2,0.5-1.5   c0.3-0.3,0.7-0.5,1.2-0.5c0.5,0,0.9,0.2,1.2,0.5c0.3,0.3,0.5,0.8,0.5,1.5v9.7c0,0.6-0.1,1.1-0.4,1.4c-0.3,0.3-0.7,0.5-1.1,0.5   c-0.5,0-0.8-0.2-1.1-0.5C839.8,148.6,839.6,148.2,839.6,147.6z M858.7,138.3v9.7c0,1.1-0.1,2.1-0.4,2.9c-0.2,0.8-0.6,1.5-1.1,2   c-0.5,0.5-1.2,0.9-2.1,1.2c-0.9,0.3-1.9,0.4-3.2,0.4c-1.2,0-2.2-0.2-3.1-0.5c-0.9-0.3-1.6-0.7-2.1-1.3c-0.5-0.5-0.7-1-0.7-1.6   c0-0.4,0.1-0.7,0.4-1c0.3-0.3,0.6-0.4,1-0.4c0.5,0,0.9,0.2,1.3,0.7c0.2,0.2,0.4,0.4,0.6,0.7c0.2,0.2,0.4,0.4,0.6,0.6   c0.2,0.2,0.5,0.3,0.8,0.4c0.3,0.1,0.7,0.1,1.1,0.1c0.9,0,1.5-0.1,2-0.4c0.5-0.2,0.8-0.6,1-1c0.2-0.4,0.3-0.9,0.3-1.4   c0-0.5,0.1-1.3,0.1-2.4c-0.5,0.7-1.1,1.3-1.8,1.6c-0.7,0.4-1.5,0.6-2.4,0.6c-1.1,0-2.1-0.3-2.9-0.9c-0.8-0.6-1.5-1.4-1.9-2.4   c-0.5-1-0.7-2.2-0.7-3.6c0-1,0.1-1.9,0.4-2.7c0.3-0.8,0.7-1.5,1.2-2.1c0.5-0.5,1.1-1,1.8-1.3c0.7-0.3,1.4-0.4,2.2-0.4   c1,0,1.8,0.2,2.5,0.5c0.7,0.4,1.3,0.9,1.9,1.7v-0.5c0-0.6,0.1-1,0.4-1.4c0.3-0.3,0.7-0.5,1.1-0.5c0.6,0,1.1,0.2,1.3,0.6   C858.6,136.9,858.7,137.5,858.7,138.3L858.7,138.3z M849,142.5c0,1.4,0.3,2.4,0.9,3.1c0.6,0.7,1.4,1,2.3,1c0.6,0,1.1-0.1,1.6-0.4   c0.5-0.3,0.9-0.8,1.2-1.4c0.3-0.6,0.5-1.3,0.5-2.2c0-1.4-0.3-2.4-0.9-3.2c-0.6-0.8-1.4-1.1-2.4-1.1c-1,0-1.7,0.4-2.3,1.1   C849.2,140.2,849,141.2,849,142.5z M865.6,132.9v5c0.4-0.5,0.8-0.9,1.2-1.2c0.4-0.3,0.9-0.5,1.3-0.6c0.5-0.1,1-0.2,1.6-0.2   c0.9,0,1.6,0.2,2.3,0.5c0.7,0.4,1.2,0.9,1.6,1.6c0.2,0.4,0.4,0.8,0.5,1.3c0.1,0.5,0.1,1.1,0.1,1.7v6.4c0,0.7-0.2,1.2-0.5,1.5   c-0.3,0.3-0.7,0.5-1.2,0.5c-1.1,0-1.7-0.7-1.7-2v-5.7c0-1.1-0.2-1.9-0.5-2.5c-0.3-0.6-0.9-0.9-1.8-0.9c-0.6,0-1.1,0.2-1.6,0.5   c-0.5,0.3-0.8,0.8-1.1,1.4c-0.2,0.5-0.3,1.4-0.3,2.7v4.4c0,0.7-0.1,1.2-0.4,1.5c-0.3,0.3-0.7,0.5-1.2,0.5c-1.1,0-1.7-0.7-1.7-2   v-14.5c0-0.7,0.1-1.2,0.4-1.5c0.3-0.3,0.7-0.5,1.2-0.5c0.5,0,0.9,0.2,1.2,0.5C865.4,131.7,865.6,132.2,865.6,132.9L865.6,132.9z    M303.6,179.8l-0.9-2.3h-7.3l-0.9,2.3c-0.3,0.9-0.6,1.5-0.9,1.8c-0.2,0.3-0.6,0.5-1.2,0.5c-0.5,0-0.9-0.2-1.2-0.5   c-0.4-0.3-0.5-0.7-0.5-1.1c0-0.2,0-0.5,0.1-0.8c0.1-0.3,0.2-0.6,0.4-1.1l4.6-11.7c0.1-0.3,0.3-0.7,0.5-1.2c0.2-0.5,0.4-0.9,0.6-1.2   c0.2-0.3,0.5-0.6,0.8-0.8c0.3-0.2,0.8-0.3,1.3-0.3c0.5,0,0.9,0.1,1.3,0.3c0.3,0.2,0.6,0.4,0.8,0.7c0.2,0.3,0.4,0.6,0.5,1   c0.1,0.3,0.3,0.8,0.5,1.4l4.7,11.6c0.4,0.9,0.6,1.5,0.6,1.9c0,0.4-0.2,0.8-0.5,1.1c-0.3,0.3-0.8,0.5-1.3,0.5c-0.3,0-0.5,0-0.7-0.2   c-0.2-0.1-0.4-0.2-0.5-0.4c-0.2-0.3-0.3-0.5-0.4-0.8C303.8,180.5,303.7,180.1,303.6,179.8L303.6,179.8z M296.3,174.8h5.4l-2.7-7.4   L296.3,174.8z M318.6,180.3v-0.4c-0.4,0.5-0.8,0.9-1.3,1.3c-0.4,0.3-0.9,0.6-1.4,0.8c-0.6,0.2-1.2,0.3-1.8,0.3   c-0.8,0-1.5-0.2-2.2-0.5c-0.6-0.3-1.1-0.8-1.5-1.4c-0.4-0.7-0.6-1.7-0.6-3.1v-6.6c0-0.7,0.2-1.2,0.5-1.5c0.3-0.3,0.7-0.5,1.2-0.5   c0.5,0,0.9,0.2,1.2,0.5c0.3,0.3,0.5,0.8,0.5,1.5v5.4c0,0.8,0.1,1.4,0.2,2c0.1,0.5,0.4,0.9,0.7,1.2c0.3,0.3,0.8,0.4,1.4,0.4   c0.6,0,1.1-0.2,1.6-0.5c0.5-0.3,0.9-0.8,1.1-1.3c0.2-0.5,0.3-1.5,0.3-3.1v-4.1c0-0.7,0.2-1.2,0.5-1.5c0.3-0.3,0.7-0.5,1.2-0.5   c0.5,0,0.9,0.2,1.2,0.5c0.3,0.3,0.5,0.8,0.5,1.5v9.7c0,0.6-0.1,1.1-0.4,1.4c-0.3,0.3-0.7,0.5-1.1,0.5c-0.5,0-0.8-0.2-1.1-0.5   C318.8,181.3,318.6,180.9,318.6,180.3L318.6,180.3z M334.3,180.2v-0.3c-0.4,0.5-0.9,0.9-1.3,1.3c-0.4,0.3-0.9,0.6-1.4,0.7   c-0.5,0.2-1.1,0.3-1.7,0.3c-0.8,0-1.5-0.2-2.2-0.5c-0.7-0.3-1.3-0.8-1.8-1.5s-0.9-1.4-1.1-2.2c-0.3-0.9-0.4-1.8-0.4-2.8   c0-2.1,0.5-3.7,1.5-4.9c1-1.2,2.4-1.8,4-1.8c1,0,1.8,0.2,2.4,0.5c0.7,0.3,1.3,0.8,1.9,1.5v-4.9c0-0.7,0.1-1.2,0.4-1.6   c0.3-0.4,0.7-0.5,1.2-0.5c0.5,0,0.9,0.2,1.2,0.5c0.3,0.3,0.4,0.8,0.4,1.4v14.8c0,0.6-0.1,1.1-0.4,1.4c-0.3,0.3-0.7,0.5-1.1,0.5   c-0.5,0-0.8-0.2-1.1-0.5C334.4,181.3,334.3,180.9,334.3,180.2L334.3,180.2z M327.7,175.3c0,0.9,0.1,1.7,0.4,2.3   c0.3,0.6,0.7,1.1,1.2,1.4c0.5,0.3,1,0.5,1.6,0.5c0.6,0,1.1-0.2,1.6-0.5c0.5-0.3,0.9-0.8,1.2-1.4c0.3-0.6,0.4-1.4,0.4-2.4   c0-0.9-0.1-1.7-0.4-2.3c-0.3-0.6-0.7-1.1-1.2-1.5c-0.5-0.3-1-0.5-1.6-0.5c-0.6,0-1.2,0.2-1.6,0.5c-0.5,0.3-0.9,0.8-1.1,1.5   C327.8,173.7,327.7,174.5,327.7,175.3z M342.5,167c-0.5,0-0.9-0.1-1.2-0.4c-0.3-0.3-0.5-0.7-0.5-1.2c0-0.5,0.2-0.9,0.5-1.2   c0.3-0.3,0.7-0.5,1.2-0.5c0.4,0,0.8,0.1,1.2,0.4c0.3,0.3,0.5,0.7,0.5,1.2c0,0.5-0.2,0.9-0.5,1.2C343.3,166.8,343,167,342.5,167z    M344.2,170.4v9.7c0,0.7-0.2,1.2-0.5,1.5c-0.3,0.3-0.7,0.5-1.2,0.5c-0.5,0-0.9-0.2-1.2-0.5c-0.3-0.4-0.5-0.9-0.5-1.5v-9.6   c0-0.7,0.2-1.2,0.5-1.5c0.3-0.3,0.7-0.5,1.2-0.5c0.5,0,0.9,0.2,1.2,0.5C344,169.4,344.2,169.8,344.2,170.4z M347.8,168.8h0.4v-2   c0-0.5,0-1,0-1.3c0-0.3,0.1-0.6,0.2-0.8c0.3-0.5,0.8-0.8,1.4-0.8c0.4,0,0.8,0.2,1.2,0.5c0.2,0.2,0.4,0.5,0.4,0.8   c0.1,0.3,0.1,0.7,0.1,1.3v2.3h1.2c0.5,0,0.8,0.1,1.1,0.3c0.2,0.2,0.4,0.5,0.4,0.9c0,0.4-0.2,0.8-0.5,0.9c-0.4,0.2-0.9,0.3-1.5,0.3   h-0.6v6.2c0,0.5,0,0.9,0.1,1.2c0,0.3,0.1,0.5,0.3,0.7c0.2,0.2,0.4,0.3,0.8,0.3c0.2,0,0.5,0,0.8-0.1c0.3-0.1,0.5-0.1,0.8-0.1   c0.3,0,0.5,0.1,0.7,0.3c0.2,0.2,0.3,0.5,0.3,0.8c0,0.5-0.3,1-0.9,1.2c-0.6,0.3-1.4,0.4-2.5,0.4c-1,0-1.8-0.2-2.4-0.5   c-0.5-0.3-0.9-0.9-1.1-1.5c-0.2-0.6-0.3-1.5-0.3-2.5v-6.4h-0.4c-0.5,0-0.9-0.1-1.1-0.3c-0.2-0.2-0.4-0.5-0.4-0.9   c0-0.4,0.1-0.6,0.4-0.9C346.9,168.9,347.3,168.8,347.8,168.8L347.8,168.8z M367.3,177.8c0,0.9-0.2,1.7-0.7,2.4   c-0.4,0.7-1.1,1.2-2,1.5c-0.9,0.3-1.9,0.5-3.2,0.5c-1.2,0-2.2-0.2-3.1-0.6c-0.9-0.4-1.5-0.8-1.9-1.4c-0.4-0.6-0.6-1.1-0.6-1.7   c0-0.4,0.1-0.7,0.4-0.9c0.3-0.3,0.6-0.4,1-0.4c0.4,0,0.6,0.1,0.8,0.3c0.2,0.2,0.4,0.4,0.5,0.7c0.3,0.6,0.8,1,1.2,1.3   c0.5,0.3,1.1,0.4,2,0.4c0.7,0,1.2-0.2,1.7-0.4c0.4-0.3,0.6-0.6,0.6-1c0-0.6-0.2-1-0.7-1.3c-0.4-0.3-1.2-0.5-2.2-0.8   c-1.2-0.3-2.1-0.6-2.8-0.9c-0.7-0.3-1.3-0.7-1.7-1.2c-0.4-0.5-0.6-1.2-0.6-1.9c0-0.7,0.2-1.3,0.6-1.9c0.4-0.6,1-1.1,1.8-1.4   c0.8-0.4,1.7-0.5,2.8-0.5c0.8,0,1.6,0.1,2.3,0.3c0.7,0.2,1.3,0.4,1.7,0.7c0.5,0.3,0.8,0.6,1.1,1c0.2,0.4,0.4,0.7,0.4,1.1   c0,0.4-0.1,0.7-0.4,0.9c-0.3,0.2-0.6,0.4-1.1,0.4c-0.3,0-0.6-0.1-0.9-0.3c-0.3-0.3-0.6-0.6-0.8-0.9c-0.2-0.3-0.5-0.6-0.9-0.8   c-0.3-0.2-0.8-0.3-1.4-0.3c-0.6,0-1.1,0.1-1.5,0.4c-0.4,0.3-0.6,0.6-0.6,1c0,0.4,0.1,0.6,0.4,0.9c0.3,0.2,0.7,0.4,1.2,0.6   c0.5,0.1,1.2,0.3,2.1,0.5c1,0.3,1.9,0.6,2.5,0.9c0.7,0.4,1.2,0.8,1.5,1.2C367.2,176.6,367.3,177.2,367.3,177.8L367.3,177.8z    M384.9,180.3c-0.8,0.6-1.6,1.1-2.4,1.4c-0.8,0.3-1.7,0.5-2.5,0.5c-0.9,0-1.6-0.2-2.3-0.5c-0.6-0.3-1.1-0.8-1.5-1.4   c-0.3-0.6-0.5-1.2-0.5-1.9c0-0.9,0.3-1.7,0.9-2.3c0.6-0.6,1.4-1.1,2.4-1.3c0.2,0,0.7-0.2,1.6-0.3c0.7-0.1,1.4-0.3,2.2-0.5   c0.6-0.1,1.3-0.3,2-0.5c0-0.9-0.2-1.5-0.5-1.9c-0.3-0.4-1-0.6-2-0.6c-0.9,0-1.5,0.1-1.9,0.4c-0.4,0.2-0.8,0.6-1.1,1.1   c-0.3,0.5-0.5,0.8-0.7,0.9c-0.1,0.2-0.4,0.2-0.8,0.2c-0.4,0-0.7-0.1-1-0.4c-0.3-0.2-0.4-0.6-0.4-0.9c0-0.6,0.2-1.2,0.6-1.7   c0.4-0.6,1.1-1,2-1.4c0.9-0.4,2-0.5,3.3-0.5c1.5,0,2.6,0.2,3.5,0.5c0.8,0.3,1.4,0.9,1.8,1.7c0.3,0.8,0.5,1.8,0.5,3   c0,1.3,0,2.6,0,3.8c0,0.6,0.1,1.3,0.3,2c0.2,0.7,0.3,1.1,0.3,1.3c0,0.3-0.2,0.7-0.5,0.9c-0.3,0.3-0.7,0.4-1.1,0.4   c-0.3,0-0.7-0.2-1-0.5C385.7,181.3,385.3,180.9,384.9,180.3L384.9,180.3z M384.7,175.4c-0.5,0.2-1.2,0.4-2.1,0.6   c-0.9,0.2-1.6,0.3-1.9,0.4c-0.4,0.1-0.7,0.3-1,0.6c-0.3,0.3-0.5,0.7-0.5,1.1c0,0.5,0.2,0.9,0.6,1.3c0.4,0.4,0.9,0.5,1.5,0.5   c0.7,0,1.3-0.1,1.8-0.4c0.6-0.3,1-0.7,1.2-1.1c0.3-0.5,0.5-1.3,0.5-2.5L384.7,175.4L384.7,175.4z M394.4,170.4v0.4   c0.6-0.8,1.2-1.3,1.9-1.7c0.7-0.4,1.5-0.5,2.4-0.5c0.9,0,1.7,0.2,2.4,0.6c0.7,0.4,1.2,0.9,1.6,1.6c0.2,0.4,0.4,0.9,0.4,1.3   c0.1,0.5,0.1,1.1,0.1,1.8v6.2c0,0.7-0.2,1.2-0.5,1.5c-0.3,0.3-0.7,0.5-1.2,0.5c-0.5,0-0.9-0.2-1.2-0.5c-0.3-0.4-0.5-0.9-0.5-1.5   v-5.6c0-1.1-0.2-2-0.5-2.5c-0.3-0.6-0.9-0.9-1.8-0.9c-0.6,0-1.1,0.2-1.6,0.5c-0.5,0.4-0.9,0.9-1.1,1.5c-0.2,0.5-0.2,1.4-0.2,2.8   v4.2c0,0.7-0.2,1.2-0.5,1.5c-0.3,0.3-0.7,0.5-1.2,0.5c-0.5,0-0.9-0.2-1.2-0.5c-0.3-0.4-0.5-0.9-0.5-1.5v-9.7c0-0.6,0.1-1.1,0.4-1.4   c0.3-0.3,0.7-0.5,1.1-0.5c0.3,0,0.6,0.1,0.8,0.2c0.2,0.1,0.4,0.3,0.6,0.6C394.4,169.6,394.4,170,394.4,170.4L394.4,170.4z    M415.8,180.2v-0.3c-0.4,0.5-0.8,0.9-1.3,1.3c-0.4,0.3-0.9,0.6-1.4,0.7c-0.5,0.2-1.1,0.3-1.7,0.3c-0.8,0-1.5-0.2-2.2-0.5   c-0.7-0.3-1.3-0.8-1.8-1.5s-0.9-1.4-1.1-2.2c-0.3-0.9-0.4-1.8-0.4-2.8c0-2.1,0.5-3.7,1.5-4.9c1-1.2,2.4-1.8,4-1.8   c1,0,1.8,0.2,2.4,0.5c0.7,0.3,1.3,0.8,1.9,1.5v-4.9c0-0.7,0.1-1.2,0.4-1.6c0.3-0.4,0.7-0.5,1.2-0.5s0.9,0.2,1.2,0.5   c0.3,0.3,0.4,0.8,0.4,1.4v14.8c0,0.6-0.1,1.1-0.4,1.4c-0.3,0.3-0.7,0.5-1.1,0.5c-0.5,0-0.8-0.2-1.1-0.5   C415.9,181.3,415.8,180.9,415.8,180.2L415.8,180.2z M409.2,175.3c0,0.9,0.1,1.7,0.4,2.3c0.3,0.6,0.7,1.1,1.2,1.4   c0.5,0.3,1,0.5,1.6,0.5c0.6,0,1.1-0.2,1.6-0.5c0.5-0.3,0.9-0.8,1.2-1.4c0.3-0.6,0.4-1.4,0.4-2.4c0-0.9-0.1-1.7-0.4-2.3   c-0.3-0.6-0.7-1.1-1.2-1.5c-0.5-0.3-1-0.5-1.6-0.5c-0.6,0-1.2,0.2-1.6,0.5c-0.5,0.3-0.9,0.8-1.1,1.5   C409.3,173.7,409.2,174.5,409.2,175.3z M444.2,176.2c0,0.6-0.1,1.2-0.4,1.9c-0.3,0.7-0.7,1.3-1.3,2c-0.6,0.6-1.4,1.2-2.3,1.6   c-0.9,0.4-2,0.6-3.3,0.6c-0.9,0-1.8-0.1-2.6-0.3c-0.7-0.2-1.5-0.4-2.1-0.8c-0.7-0.4-1.3-0.9-1.8-1.5c-0.5-0.6-0.9-1.2-1.2-1.9   c-0.3-0.7-0.6-1.4-0.8-2.2s-0.3-1.6-0.3-2.5c0-1.4,0.2-2.7,0.6-3.9c0.4-1.1,1-2.1,1.8-2.9c0.8-0.8,1.7-1.4,2.8-1.9   c1.1-0.4,2.2-0.6,3.4-0.6c1.5,0,2.8,0.3,3.9,0.9s2,1.3,2.6,2.2c0.6,0.9,0.9,1.7,0.9,2.4c0,0.4-0.1,0.8-0.4,1.1   c-0.3,0.3-0.7,0.5-1.1,0.5c-0.5,0-0.8-0.1-1.1-0.3c-0.2-0.2-0.5-0.6-0.8-1.1c-0.5-0.9-1-1.6-1.7-2c-0.6-0.4-1.4-0.7-2.4-0.7   c-1.5,0-2.7,0.6-3.6,1.7c-0.9,1.1-1.3,2.8-1.3,4.9c0,1.4,0.2,2.6,0.6,3.5c0.4,0.9,0.9,1.6,1.7,2.1c0.7,0.5,1.6,0.7,2.5,0.7   c1,0,1.9-0.3,2.7-0.8c0.7-0.5,1.3-1.3,1.6-2.3c0.2-0.5,0.3-0.9,0.6-1.2c0.2-0.3,0.6-0.4,1.1-0.4c0.4,0,0.8,0.2,1.1,0.5   S444.2,175.7,444.2,176.2L444.2,176.2z M459.8,175.3c0,1-0.2,1.9-0.5,2.8c-0.3,0.8-0.7,1.6-1.3,2.2c-0.6,0.6-1.3,1.1-2.1,1.4   c-0.8,0.3-1.7,0.5-2.8,0.5c-1,0-1.9-0.2-2.7-0.5c-0.8-0.3-1.5-0.8-2.1-1.4c-0.6-0.6-1.1-1.4-1.4-2.2c-0.3-0.9-0.5-1.8-0.5-2.8   c0-1,0.2-1.9,0.5-2.8c0.3-0.8,0.7-1.5,1.3-2.2c0.6-0.6,1.3-1.1,2.1-1.4c0.8-0.3,1.7-0.5,2.7-0.5c1,0,1.9,0.2,2.8,0.5   c0.8,0.3,1.5,0.8,2.1,1.4c0.6,0.6,1.1,1.4,1.3,2.2C459.6,173.5,459.8,174.4,459.8,175.3L459.8,175.3z M456.4,175.3   c0-1.4-0.3-2.4-0.9-3.2c-0.6-0.8-1.4-1.1-2.4-1.1c-0.6,0-1.2,0.2-1.7,0.5c-0.5,0.3-0.9,0.8-1.2,1.5c-0.3,0.7-0.4,1.4-0.4,2.3   c0,0.9,0.1,1.6,0.4,2.3c0.3,0.7,0.6,1.2,1.1,1.5c0.5,0.3,1.1,0.5,1.8,0.5c1,0,1.8-0.4,2.4-1.1C456.1,177.7,456.4,176.7,456.4,175.3   L456.4,175.3z M465.4,170.4v0.4c0.6-0.8,1.2-1.3,1.9-1.7c0.7-0.4,1.5-0.5,2.4-0.5c0.9,0,1.7,0.2,2.4,0.6c0.7,0.4,1.2,0.9,1.6,1.6   c0.2,0.4,0.4,0.9,0.4,1.3c0.1,0.5,0.1,1.1,0.1,1.8v6.2c0,0.7-0.2,1.2-0.5,1.5c-0.3,0.3-0.7,0.5-1.2,0.5c-0.5,0-0.9-0.2-1.2-0.5   c-0.3-0.4-0.5-0.9-0.5-1.5v-5.6c0-1.1-0.2-2-0.5-2.5c-0.3-0.6-0.9-0.9-1.8-0.9c-0.6,0-1.1,0.2-1.6,0.5c-0.5,0.4-0.9,0.8-1.1,1.5   c-0.2,0.5-0.2,1.4-0.2,2.8v4.2c0,0.7-0.2,1.2-0.5,1.5c-0.3,0.3-0.8,0.5-1.2,0.5c-0.5,0-0.9-0.2-1.2-0.5c-0.3-0.4-0.5-0.9-0.5-1.5   v-9.7c0-0.6,0.1-1.1,0.4-1.4c0.3-0.3,0.7-0.5,1.1-0.5c0.3,0,0.6,0.1,0.8,0.2c0.2,0.1,0.4,0.3,0.6,0.6   C465.4,169.6,465.4,170,465.4,170.4L465.4,170.4z M477.3,168.8h0.8v-1c0-1,0.1-1.9,0.4-2.5c0.3-0.6,0.7-1.1,1.4-1.4   c0.6-0.3,1.5-0.4,2.6-0.4c2,0,2.9,0.5,2.9,1.4c0,0.3-0.1,0.6-0.3,0.8c-0.2,0.2-0.4,0.3-0.7,0.3c-0.1,0-0.4,0-0.7-0.1   c-0.3,0-0.5-0.1-0.8-0.1c-0.6,0-1,0.2-1.2,0.5c-0.2,0.4-0.3,0.9-0.3,1.5v0.8h0.8c1.3,0,1.9,0.4,1.9,1.2c0,0.5-0.2,0.9-0.5,1   c-0.3,0.1-0.8,0.2-1.4,0.2h-0.8v8.9c0,0.7-0.2,1.2-0.5,1.5c-0.3,0.3-0.8,0.5-1.2,0.5c-0.5,0-0.9-0.2-1.2-0.5   c-0.3-0.3-0.5-0.9-0.5-1.5v-8.9h-0.9c-0.5,0-0.9-0.1-1.2-0.3c-0.3-0.2-0.4-0.5-0.4-0.9C475.6,169.2,476.2,168.8,477.3,168.8z    M487.7,167c-0.5,0-0.9-0.1-1.2-0.4c-0.3-0.3-0.5-0.7-0.5-1.2c0-0.5,0.2-0.9,0.5-1.2c0.3-0.3,0.7-0.5,1.2-0.5   c0.4,0,0.8,0.1,1.2,0.4c0.3,0.3,0.5,0.7,0.5,1.2c0,0.5-0.2,0.9-0.5,1.2C488.5,166.8,488.1,167,487.7,167z M489.3,170.4v9.7   c0,0.7-0.2,1.2-0.5,1.5c-0.3,0.3-0.7,0.5-1.2,0.5c-0.5,0-0.9-0.2-1.2-0.5c-0.3-0.4-0.5-0.9-0.5-1.5v-9.6c0-0.7,0.2-1.2,0.5-1.5   s0.7-0.5,1.2-0.5c0.5,0,0.9,0.2,1.2,0.5C489.2,169.4,489.3,169.8,489.3,170.4z M502,180.2v-0.3c-0.4,0.5-0.9,0.9-1.3,1.3   c-0.4,0.3-0.9,0.6-1.4,0.7c-0.5,0.2-1.1,0.3-1.7,0.3c-0.8,0-1.5-0.2-2.2-0.5c-0.7-0.3-1.3-0.8-1.8-1.5c-0.5-0.6-0.9-1.4-1.1-2.2   c-0.3-0.9-0.4-1.8-0.4-2.8c0-2.1,0.5-3.7,1.5-4.9c1-1.2,2.4-1.8,4-1.8c1,0,1.8,0.2,2.4,0.5c0.7,0.3,1.3,0.8,1.9,1.5v-4.9   c0-0.7,0.1-1.2,0.4-1.6c0.3-0.4,0.7-0.5,1.2-0.5c0.5,0,0.9,0.2,1.2,0.5c0.3,0.3,0.4,0.8,0.4,1.4v14.8c0,0.6-0.1,1.1-0.4,1.4   c-0.3,0.3-0.7,0.5-1.1,0.5c-0.5,0-0.8-0.2-1.1-0.5C502.1,181.3,502,180.9,502,180.2L502,180.2z M495.4,175.3c0,0.9,0.1,1.7,0.4,2.3   c0.3,0.6,0.7,1.1,1.2,1.4c0.5,0.3,1,0.5,1.6,0.5c0.6,0,1.1-0.2,1.6-0.5c0.5-0.3,0.9-0.8,1.2-1.4c0.3-0.6,0.4-1.4,0.4-2.4   c0-0.9-0.1-1.7-0.4-2.3c-0.3-0.6-0.7-1.1-1.2-1.5c-0.5-0.3-1-0.5-1.6-0.5c-0.6,0-1.2,0.2-1.6,0.5c-0.5,0.3-0.9,0.8-1.1,1.5   C495.5,173.7,495.4,174.5,495.4,175.3z M517.8,176.2h-6.6c0,0.8,0.2,1.4,0.5,2c0.3,0.6,0.7,1,1.2,1.3c0.5,0.3,1,0.4,1.6,0.4   c0.4,0,0.8,0,1.1-0.1c0.3-0.1,0.7-0.2,1-0.4c0.3-0.2,0.6-0.4,0.9-0.6c0.3-0.2,0.6-0.5,1-0.9c0.2-0.1,0.4-0.2,0.7-0.2   c0.3,0,0.6,0.1,0.8,0.3c0.2,0.2,0.3,0.5,0.3,0.8c0,0.3-0.1,0.7-0.4,1.1c-0.2,0.4-0.6,0.8-1.1,1.2s-1.1,0.7-1.8,0.9   c-0.7,0.2-1.6,0.4-2.5,0.4c-2.2,0-3.8-0.6-5-1.8c-1.2-1.2-1.8-2.9-1.8-5c0-1,0.1-1.9,0.4-2.8c0.3-0.8,0.7-1.6,1.3-2.2   c0.6-0.6,1.3-1.1,2.1-1.4c0.8-0.3,1.7-0.5,2.8-0.5c1.3,0,2.4,0.3,3.4,0.8c0.9,0.6,1.6,1.3,2.1,2.1c0.5,0.9,0.7,1.8,0.7,2.7   c0,0.8-0.2,1.4-0.7,1.6C519.4,176,518.7,176.2,517.8,176.2L517.8,176.2z M511.3,174.3h6.1c-0.1-1.1-0.4-2-0.9-2.6   c-0.5-0.6-1.2-0.9-2.1-0.9c-0.8,0-1.5,0.3-2.1,0.9C511.7,172.3,511.4,173.1,511.3,174.3z M526.5,170.4v0.4c0.6-0.8,1.2-1.3,1.9-1.7   c0.7-0.4,1.5-0.5,2.4-0.5c0.9,0,1.7,0.2,2.4,0.6c0.7,0.4,1.2,0.9,1.6,1.6c0.2,0.4,0.4,0.9,0.4,1.3c0.1,0.5,0.1,1.1,0.1,1.8v6.2   c0,0.7-0.2,1.2-0.5,1.5c-0.3,0.3-0.7,0.5-1.2,0.5c-0.5,0-0.9-0.2-1.2-0.5c-0.3-0.4-0.5-0.9-0.5-1.5v-5.6c0-1.1-0.2-2-0.5-2.5   c-0.3-0.6-0.9-0.9-1.8-0.9c-0.6,0-1.1,0.2-1.6,0.5c-0.5,0.4-0.9,0.9-1.1,1.5c-0.2,0.5-0.2,1.4-0.2,2.8v4.2c0,0.7-0.2,1.2-0.5,1.5   c-0.3,0.3-0.8,0.5-1.2,0.5c-0.5,0-0.9-0.2-1.2-0.5c-0.3-0.4-0.5-0.9-0.5-1.5v-9.7c0-0.6,0.1-1.1,0.4-1.4c0.3-0.3,0.7-0.5,1.1-0.5   c0.3,0,0.6,0.1,0.8,0.2c0.2,0.1,0.4,0.3,0.6,0.6C526.4,169.6,526.5,170,526.5,170.4L526.5,170.4z M538.8,168.8h0.4v-2   c0-0.5,0-1,0-1.3c0-0.3,0.1-0.6,0.2-0.8c0.3-0.5,0.8-0.8,1.4-0.8c0.4,0,0.8,0.2,1.2,0.5c0.2,0.2,0.4,0.5,0.4,0.8   c0.1,0.3,0.1,0.7,0.1,1.3v2.3h1.2c0.5,0,0.8,0.1,1.1,0.3c0.2,0.2,0.4,0.5,0.4,0.9c0,0.4-0.2,0.8-0.5,0.9c-0.4,0.2-0.9,0.3-1.5,0.3   h-0.6v6.2c0,0.5,0,0.9,0.1,1.2c0,0.3,0.1,0.5,0.3,0.7c0.2,0.2,0.4,0.3,0.8,0.3c0.2,0,0.5,0,0.8-0.1c0.3-0.1,0.5-0.1,0.8-0.1   c0.3,0,0.5,0.1,0.7,0.3c0.2,0.2,0.3,0.5,0.3,0.8c0,0.5-0.3,1-0.9,1.2c-0.6,0.3-1.4,0.4-2.5,0.4c-1,0-1.8-0.2-2.4-0.5   c-0.5-0.3-0.9-0.9-1.1-1.5c-0.2-0.6-0.3-1.5-0.3-2.5v-6.4h-0.4c-0.5,0-0.9-0.1-1.1-0.3c-0.2-0.2-0.4-0.5-0.4-0.9   c0-0.4,0.1-0.6,0.4-0.9C537.9,168.9,538.3,168.8,538.8,168.8z M549.2,167c-0.5,0-0.9-0.1-1.2-0.4c-0.3-0.3-0.5-0.7-0.5-1.2   c0-0.5,0.2-0.9,0.5-1.2c0.3-0.3,0.7-0.5,1.2-0.5c0.4,0,0.8,0.1,1.2,0.4c0.3,0.3,0.5,0.7,0.5,1.2c0,0.5-0.2,0.9-0.5,1.2   C550.1,166.8,549.7,167,549.2,167z M550.9,170.4v9.7c0,0.7-0.2,1.2-0.5,1.5c-0.3,0.3-0.8,0.5-1.2,0.5c-0.5,0-0.9-0.2-1.2-0.5   c-0.3-0.4-0.5-0.9-0.5-1.5v-9.6c0-0.7,0.2-1.2,0.5-1.5c0.3-0.3,0.7-0.5,1.2-0.5c0.5,0,0.9,0.2,1.2,0.5   C550.7,169.4,550.9,169.8,550.9,170.4z M562.8,180.3c-0.8,0.6-1.6,1.1-2.4,1.4c-0.8,0.3-1.7,0.5-2.5,0.5c-0.9,0-1.6-0.2-2.3-0.5   c-0.6-0.3-1.1-0.8-1.5-1.4c-0.3-0.6-0.5-1.2-0.5-1.9c0-0.9,0.3-1.7,0.9-2.3c0.6-0.6,1.4-1.1,2.4-1.3c0.2,0,0.7-0.2,1.6-0.3   c0.7-0.1,1.4-0.3,2.2-0.5c0.6-0.1,1.3-0.3,2-0.5c0-0.9-0.2-1.5-0.5-1.9c-0.3-0.4-1-0.6-2-0.6c-0.9,0-1.5,0.1-1.9,0.4   c-0.4,0.2-0.8,0.6-1.1,1.1c-0.3,0.5-0.5,0.8-0.7,0.9c-0.1,0.2-0.4,0.2-0.8,0.2c-0.4,0-0.7-0.1-1-0.4c-0.3-0.2-0.4-0.6-0.4-0.9   c0-0.6,0.2-1.2,0.6-1.7c0.4-0.6,1.1-1,2-1.4c0.9-0.4,2-0.5,3.3-0.5c1.5,0,2.6,0.2,3.5,0.5c0.8,0.3,1.4,0.9,1.8,1.7   c0.3,0.8,0.5,1.8,0.5,3c0,0.8,0,1.5,0,2l0,1.8c0,0.6,0.1,1.3,0.3,2c0.2,0.7,0.3,1.1,0.3,1.3c0,0.3-0.2,0.7-0.5,0.9   c-0.3,0.3-0.7,0.4-1.1,0.4c-0.3,0-0.7-0.2-1-0.5C563.6,181.3,563.2,180.9,562.8,180.3L562.8,180.3z M562.6,175.4   c-0.5,0.2-1.2,0.4-2.1,0.6c-0.9,0.2-1.6,0.3-1.9,0.4c-0.4,0.1-0.7,0.3-1,0.6c-0.3,0.3-0.5,0.7-0.5,1.1c0,0.5,0.2,0.9,0.6,1.3   c0.4,0.4,0.9,0.5,1.5,0.5c0.7,0,1.3-0.1,1.8-0.4c0.6-0.3,1-0.7,1.2-1.1c0.3-0.5,0.5-1.3,0.5-2.5L562.6,175.4L562.6,175.4z    M569.3,180.1v-14.5c0-0.7,0.2-1.2,0.5-1.5c0.3-0.3,0.7-0.5,1.2-0.5c0.5,0,0.9,0.2,1.2,0.5c0.3,0.3,0.5,0.9,0.5,1.5v14.5   c0,0.7-0.2,1.2-0.5,1.5c-0.3,0.3-0.7,0.5-1.2,0.5c-0.5,0-0.9-0.2-1.2-0.5C569.4,181.3,569.3,180.8,569.3,180.1z M594.5,166.7h-8.2   v4.4h7.6c0.6,0,1,0.1,1.2,0.4s0.4,0.6,0.4,1c0,0.4-0.1,0.7-0.4,1c-0.3,0.3-0.7,0.4-1.3,0.4h-7.6v5.1h8.5c0.6,0,1,0.1,1.3,0.4   c0.3,0.3,0.4,0.6,0.4,1.1c0,0.4-0.1,0.8-0.4,1c-0.3,0.3-0.7,0.4-1.3,0.4h-9.9c-0.8,0-1.4-0.2-1.7-0.5c-0.3-0.4-0.5-0.9-0.5-1.7   v-13.5c0-0.5,0.1-1,0.2-1.3c0.2-0.3,0.4-0.6,0.7-0.7c0.3-0.2,0.8-0.2,1.3-0.2h9.6c0.6,0,1,0.1,1.3,0.4c0.3,0.3,0.4,0.6,0.4,1   c0,0.4-0.1,0.8-0.4,1C595.5,166.5,595.1,166.7,594.5,166.7L594.5,166.7z M602.2,170.4v0.4c0.6-0.8,1.2-1.3,1.9-1.7   c0.7-0.4,1.5-0.5,2.4-0.5c0.9,0,1.7,0.2,2.4,0.6c0.7,0.4,1.2,0.9,1.6,1.6c0.2,0.4,0.4,0.9,0.4,1.3c0.1,0.5,0.1,1.1,0.1,1.8v6.2   c0,0.7-0.2,1.2-0.5,1.5c-0.3,0.3-0.7,0.5-1.2,0.5c-0.5,0-0.9-0.2-1.2-0.5c-0.3-0.4-0.5-0.9-0.5-1.5v-5.6c0-1.1-0.2-2-0.5-2.5   c-0.3-0.6-0.9-0.9-1.8-0.9c-0.6,0-1.1,0.2-1.6,0.5c-0.5,0.4-0.9,0.9-1.1,1.5c-0.2,0.5-0.2,1.4-0.2,2.8v4.2c0,0.7-0.2,1.2-0.5,1.5   c-0.3,0.3-0.7,0.5-1.2,0.5c-0.5,0-0.9-0.2-1.2-0.5c-0.3-0.4-0.5-0.9-0.5-1.5v-9.7c0-0.6,0.1-1.1,0.4-1.4c0.3-0.3,0.7-0.5,1.1-0.5   c0.3,0,0.6,0.1,0.8,0.2c0.2,0.1,0.4,0.3,0.6,0.6C602.1,169.6,602.2,170,602.2,170.4L602.2,170.4z M623.5,184.9v-4.7   c-0.6,0.6-1.3,1.1-2,1.5c-0.7,0.3-1.5,0.5-2.3,0.5c-1,0-2-0.3-2.8-0.8c-0.9-0.5-1.5-1.3-2-2.4c-0.5-1-0.7-2.2-0.7-3.6   c0-1.4,0.2-2.6,0.7-3.7c0.5-1,1.2-1.8,2-2.3c0.9-0.5,1.9-0.8,2.9-0.8c0.9,0,1.7,0.2,2.4,0.6c0.7,0.4,1.3,0.9,1.8,1.7v-0.4   c0-0.6,0.1-1.1,0.4-1.4c0.3-0.3,0.7-0.5,1.1-0.5c0.5,0,0.8,0.2,1.1,0.5c0.3,0.3,0.4,0.8,0.4,1.4v14.5c0,1.5-0.5,2.2-1.6,2.2   c-0.7,0-1.1-0.2-1.3-0.6C623.6,186.1,623.5,185.6,623.5,184.9L623.5,184.9z M617,175.3c0,0.9,0.1,1.7,0.4,2.3   c0.3,0.6,0.7,1.1,1.1,1.4c0.5,0.3,1,0.5,1.5,0.5c0.6,0,1.1-0.2,1.6-0.5c0.5-0.3,0.9-0.8,1.2-1.4c0.3-0.6,0.5-1.4,0.5-2.4   c0-0.7-0.1-1.3-0.3-1.8c-0.1-0.5-0.4-0.9-0.7-1.3c-0.3-0.3-0.6-0.6-1-0.8c-0.4-0.2-0.8-0.3-1.3-0.3c-0.9,0-1.6,0.4-2.2,1.1   C617.3,172.9,617,173.9,617,175.3L617,175.3z M638.8,180.3v-0.4c-0.4,0.5-0.8,0.9-1.3,1.3c-0.4,0.3-0.9,0.6-1.5,0.8   c-0.5,0.2-1.1,0.3-1.8,0.3c-0.8,0-1.5-0.2-2.2-0.5c-0.6-0.3-1.1-0.8-1.5-1.4c-0.4-0.7-0.6-1.7-0.6-3.1v-6.6c0-0.7,0.2-1.2,0.5-1.5   c0.3-0.3,0.7-0.5,1.2-0.5c0.5,0,0.9,0.2,1.2,0.5c0.3,0.3,0.5,0.8,0.5,1.5v5.4c0,0.8,0.1,1.4,0.2,2c0.1,0.5,0.4,0.9,0.7,1.2   c0.3,0.3,0.8,0.4,1.4,0.4c0.6,0,1.1-0.2,1.6-0.5c0.5-0.3,0.9-0.8,1.1-1.3c0.2-0.5,0.3-1.5,0.3-3.1v-4.1c0-0.7,0.2-1.2,0.5-1.5   s0.7-0.5,1.2-0.5c0.5,0,0.9,0.2,1.2,0.5c0.3,0.3,0.5,0.8,0.5,1.5v9.7c0,0.6-0.1,1.1-0.4,1.4c-0.3,0.3-0.7,0.5-1.1,0.5   c-0.5,0-0.8-0.2-1.1-0.5C638.9,181.3,638.8,180.9,638.8,180.3L638.8,180.3z M647,167c-0.5,0-0.9-0.1-1.2-0.4   c-0.3-0.3-0.5-0.7-0.5-1.2c0-0.5,0.2-0.9,0.5-1.2c0.3-0.3,0.7-0.5,1.2-0.5c0.4,0,0.8,0.1,1.2,0.4c0.3,0.3,0.5,0.7,0.5,1.2   c0,0.5-0.2,0.9-0.5,1.2C647.8,166.8,647.4,167,647,167L647,167z M648.6,170.4v9.7c0,0.7-0.2,1.2-0.5,1.5c-0.3,0.3-0.8,0.5-1.2,0.5   c-0.5,0-0.9-0.2-1.2-0.5c-0.3-0.4-0.5-0.9-0.5-1.5v-9.6c0-0.7,0.2-1.2,0.5-1.5c0.3-0.3,0.7-0.5,1.2-0.5c0.5,0,0.9,0.2,1.2,0.5   C648.5,169.4,648.6,169.8,648.6,170.4z M655.4,177.3v2.8c0,0.7-0.2,1.2-0.5,1.5c-0.3,0.3-0.8,0.5-1.2,0.5c-0.5,0-0.9-0.2-1.2-0.5   c-0.3-0.3-0.5-0.9-0.5-1.5v-9.3c0-1.5,0.5-2.3,1.6-2.3c0.6,0,1,0.2,1.2,0.5c0.2,0.4,0.4,0.9,0.4,1.6c0.4-0.7,0.8-1.2,1.2-1.6   c0.4-0.4,1-0.5,1.7-0.5c0.7,0,1.4,0.2,2.1,0.5c0.7,0.4,1,0.8,1,1.4c0,0.4-0.1,0.7-0.4,1c-0.3,0.3-0.6,0.4-0.9,0.4   c-0.1,0-0.4-0.1-0.9-0.2c-0.4-0.1-0.8-0.2-1.2-0.2c-0.5,0-0.9,0.1-1.2,0.4c-0.3,0.3-0.6,0.6-0.7,1.1c-0.2,0.6-0.3,1.2-0.4,1.8   C655.4,175.6,655.4,176.5,655.4,177.3L655.4,177.3z M664.8,167c-0.5,0-0.9-0.1-1.2-0.4c-0.3-0.3-0.5-0.7-0.5-1.2   c0-0.5,0.2-0.9,0.5-1.2c0.3-0.3,0.7-0.5,1.2-0.5c0.4,0,0.8,0.1,1.2,0.4c0.3,0.3,0.5,0.7,0.5,1.2c0,0.5-0.2,0.9-0.5,1.2   C665.6,166.8,665.2,167,664.8,167L664.8,167z M666.5,170.4v9.7c0,0.7-0.2,1.2-0.5,1.5c-0.3,0.3-0.7,0.5-1.2,0.5   c-0.5,0-0.9-0.2-1.2-0.5c-0.3-0.4-0.5-0.9-0.5-1.5v-9.6c0-0.7,0.2-1.2,0.5-1.5c0.3-0.3,0.7-0.5,1.2-0.5c0.5,0,0.9,0.2,1.2,0.5   C666.3,169.4,666.5,169.8,666.5,170.4z M679.3,176.2h-6.6c0,0.8,0.2,1.4,0.5,2c0.3,0.6,0.7,1,1.2,1.3c0.5,0.3,1,0.4,1.6,0.4   c0.4,0,0.8,0,1.1-0.1c0.3-0.1,0.7-0.2,1-0.4c0.3-0.2,0.6-0.4,0.9-0.6c0.3-0.2,0.6-0.5,1-0.9c0.2-0.1,0.4-0.2,0.7-0.2   c0.3,0,0.6,0.1,0.8,0.3c0.2,0.2,0.3,0.5,0.3,0.8c0,0.3-0.1,0.7-0.4,1.1c-0.2,0.4-0.6,0.8-1.1,1.2s-1.1,0.7-1.8,0.9   c-0.7,0.2-1.6,0.4-2.5,0.4c-2.2,0-3.8-0.6-5-1.8c-1.2-1.2-1.8-2.9-1.8-5c0-1,0.1-1.9,0.4-2.8c0.3-0.8,0.7-1.6,1.3-2.2   c0.6-0.6,1.3-1.1,2.1-1.4c0.8-0.3,1.7-0.5,2.8-0.5c1.3,0,2.4,0.3,3.4,0.8c0.9,0.6,1.6,1.3,2.1,2.1c0.5,0.9,0.7,1.8,0.7,2.7   c0,0.8-0.2,1.4-0.7,1.6C680.8,176,680.1,176.2,679.3,176.2L679.3,176.2z M672.7,174.3h6.1c-0.1-1.1-0.4-2-0.9-2.6   c-0.5-0.6-1.2-0.9-2.1-0.9c-0.8,0-1.5,0.3-2.1,0.9C673.2,172.3,672.8,173.1,672.7,174.3z M695.7,177.8c0,0.9-0.2,1.7-0.7,2.4   c-0.4,0.7-1.1,1.2-2,1.5c-0.9,0.3-1.9,0.5-3.2,0.5c-1.2,0-2.2-0.2-3.1-0.6c-0.9-0.4-1.5-0.8-1.9-1.4c-0.4-0.6-0.6-1.1-0.6-1.7   c0-0.4,0.1-0.7,0.4-0.9c0.3-0.3,0.6-0.4,1-0.4c0.4,0,0.6,0.1,0.8,0.3c0.2,0.2,0.4,0.4,0.5,0.7c0.3,0.6,0.8,1,1.2,1.3   c0.5,0.3,1.1,0.4,2,0.4c0.7,0,1.2-0.2,1.7-0.4c0.4-0.3,0.6-0.6,0.6-1c0-0.6-0.2-1-0.7-1.3c-0.4-0.3-1.2-0.5-2.2-0.8   c-1.2-0.3-2.1-0.6-2.8-0.9c-0.7-0.3-1.3-0.7-1.7-1.2c-0.4-0.5-0.7-1.2-0.7-1.9c0-0.7,0.2-1.3,0.6-1.9c0.4-0.6,1-1.1,1.8-1.4   c0.8-0.4,1.7-0.5,2.8-0.5c0.9,0,1.6,0.1,2.3,0.3c0.7,0.2,1.3,0.4,1.7,0.7c0.5,0.3,0.8,0.6,1.1,1c0.2,0.4,0.4,0.7,0.4,1.1   c0,0.4-0.1,0.7-0.4,0.9c-0.3,0.2-0.6,0.4-1.1,0.4c-0.3,0-0.6-0.1-0.9-0.3c-0.3-0.3-0.6-0.6-0.8-0.9c-0.2-0.3-0.5-0.6-0.9-0.8   c-0.3-0.2-0.8-0.3-1.4-0.3c-0.6,0-1.1,0.1-1.5,0.4c-0.4,0.3-0.6,0.6-0.6,1c0,0.4,0.1,0.6,0.4,0.9c0.3,0.2,0.7,0.4,1.2,0.6   c0.5,0.1,1.2,0.3,2.1,0.5c1,0.3,1.9,0.6,2.5,0.9c0.7,0.4,1.2,0.8,1.5,1.2C695.5,176.6,695.7,177.2,695.7,177.8L695.7,177.8z    M713.3,180.3c-0.8,0.6-1.6,1.1-2.4,1.4c-0.8,0.3-1.7,0.5-2.5,0.5c-0.9,0-1.6-0.2-2.3-0.5c-0.6-0.3-1.1-0.8-1.5-1.4   c-0.3-0.6-0.5-1.2-0.5-1.9c0-0.9,0.3-1.7,0.9-2.3c0.6-0.6,1.4-1.1,2.4-1.3c0.2,0,0.7-0.2,1.6-0.3c0.7-0.1,1.4-0.3,2.2-0.5   c0.6-0.1,1.3-0.3,2-0.5c0-0.9-0.2-1.5-0.5-1.9c-0.3-0.4-1-0.6-2-0.6c-0.9,0-1.5,0.1-1.9,0.4c-0.5,0.3-0.8,0.6-1.1,1.1   c-0.3,0.5-0.5,0.8-0.7,0.9c-0.1,0.2-0.4,0.2-0.8,0.2c-0.4,0-0.7-0.1-1-0.4c-0.3-0.2-0.4-0.6-0.4-0.9c0-0.6,0.2-1.2,0.6-1.7   s1.1-1,2-1.4c0.9-0.4,2-0.5,3.3-0.5c1.5,0,2.6,0.2,3.5,0.5c0.8,0.3,1.4,0.9,1.8,1.7c0.3,0.8,0.5,1.8,0.5,3c0,0.8,0,1.5,0,2   c0,0.5,0,1.2,0,1.8c0,0.6,0.1,1.3,0.3,2c0.2,0.7,0.3,1.1,0.3,1.3c0,0.3-0.2,0.7-0.5,0.9c-0.3,0.3-0.7,0.4-1.1,0.4   c-0.3,0-0.7-0.2-1-0.5C714,181.3,713.6,180.9,713.3,180.3L713.3,180.3z M713,175.4c-0.5,0.2-1.2,0.4-2.1,0.6   c-0.9,0.2-1.6,0.3-1.9,0.4c-0.4,0.1-0.7,0.3-1,0.6c-0.3,0.3-0.5,0.7-0.5,1.1c0,0.5,0.2,0.9,0.6,1.3c0.4,0.4,0.9,0.5,1.5,0.5   c0.6,0,1.3-0.1,1.8-0.4c0.6-0.3,1-0.7,1.2-1.1c0.3-0.5,0.5-1.3,0.5-2.5L713,175.4L713,175.4z M731.7,178c0,0.4-0.1,0.9-0.4,1.3   c-0.3,0.5-0.6,0.9-1.1,1.4c-0.5,0.4-1.2,0.8-1.9,1c-0.8,0.3-1.7,0.4-2.6,0.4c-2.1,0-3.7-0.6-4.9-1.8c-1.2-1.2-1.7-2.8-1.7-4.9   c0-1.4,0.3-2.6,0.8-3.6c0.5-1.1,1.3-1.9,2.3-2.5c1-0.6,2.2-0.9,3.6-0.9c0.9,0,1.7,0.1,2.4,0.4c0.7,0.3,1.3,0.6,1.8,1   c0.5,0.4,0.9,0.8,1.2,1.3c0.3,0.5,0.4,0.9,0.4,1.3c0,0.4-0.2,0.7-0.4,1c-0.3,0.3-0.7,0.4-1.1,0.4c-0.2,0-0.5-0.1-0.7-0.2   c-0.2-0.2-0.4-0.4-0.6-0.7c-0.4-0.6-0.8-1.1-1.3-1.4c-0.4-0.3-1-0.5-1.7-0.5c-1,0-1.8,0.4-2.4,1.2c-0.6,0.8-0.9,1.8-0.9,3.2   c0,0.6,0.1,1.2,0.2,1.7c0.2,0.5,0.4,1,0.7,1.3c0.3,0.4,0.6,0.7,1.1,0.8c0.4,0.2,0.9,0.3,1.4,0.3c0.7,0,1.2-0.2,1.7-0.5   c0.5-0.3,0.9-0.8,1.3-1.4c0.2-0.4,0.4-0.7,0.7-0.9c0.2-0.2,0.6-0.3,0.9-0.3c0.4,0,0.7,0.2,1,0.5C731.6,177.3,731.7,177.6,731.7,178   L731.7,178z M738,177.3v2.8c0,0.7-0.2,1.2-0.5,1.5c-0.3,0.3-0.8,0.5-1.2,0.5c-0.5,0-0.9-0.2-1.2-0.5c-0.3-0.3-0.5-0.9-0.5-1.5v-9.3   c0-1.5,0.5-2.3,1.6-2.3c0.6,0,1,0.2,1.2,0.5c0.2,0.4,0.4,0.9,0.4,1.6c0.4-0.7,0.8-1.2,1.2-1.6c0.4-0.4,1-0.5,1.7-0.5   c0.7,0,1.4,0.2,2.1,0.5c0.7,0.4,1,0.8,1,1.4c0,0.4-0.1,0.7-0.4,1c-0.3,0.3-0.6,0.4-0.9,0.4c-0.1,0-0.4-0.1-0.9-0.2   c-0.4-0.1-0.8-0.2-1.2-0.2c-0.5,0-0.9,0.1-1.2,0.4c-0.3,0.3-0.6,0.6-0.7,1.1c-0.2,0.6-0.3,1.2-0.4,1.8   C738,175.6,738,176.5,738,177.3L738,177.3z M758.2,175.3c0,1-0.2,1.9-0.5,2.8c-0.3,0.8-0.8,1.6-1.3,2.2c-0.6,0.6-1.3,1.1-2.1,1.4   c-0.8,0.3-1.7,0.5-2.8,0.5c-1,0-1.9-0.2-2.7-0.5c-1.6-0.6-2.9-1.9-3.5-3.6c-0.3-0.9-0.5-1.8-0.5-2.8c0-1,0.2-1.9,0.5-2.8   c0.3-0.8,0.7-1.5,1.3-2.2c0.6-0.6,1.3-1.1,2.1-1.4c0.8-0.3,1.7-0.5,2.7-0.5c1,0,1.9,0.2,2.8,0.5c0.8,0.3,1.5,0.8,2.1,1.4   c0.6,0.6,1,1.3,1.3,2.2C758.1,173.4,758.2,174.3,758.2,175.3L758.2,175.3z M754.9,175.3c0-1.4-0.3-2.4-0.9-3.2   c-0.6-0.8-1.4-1.1-2.4-1.1c-0.7,0-1.2,0.2-1.7,0.5s-0.9,0.8-1.2,1.5c-0.3,0.7-0.4,1.4-0.4,2.3c0,0.9,0.1,1.6,0.4,2.3   s0.6,1.2,1.1,1.5c0.5,0.3,1.1,0.5,1.7,0.5c1,0,1.8-0.4,2.4-1.1C754.6,177.7,754.9,176.7,754.9,175.3L754.9,175.3z M771.7,177.8   c0,0.9-0.2,1.7-0.7,2.4c-0.4,0.7-1.1,1.2-2,1.5c-0.9,0.3-1.9,0.5-3.2,0.5c-1.2,0-2.2-0.2-3.1-0.6c-0.9-0.4-1.5-0.8-1.9-1.4   c-0.4-0.6-0.6-1.1-0.6-1.7c0-0.4,0.1-0.7,0.4-0.9c0.3-0.3,0.6-0.4,1-0.4c0.4,0,0.6,0.1,0.8,0.3c0.2,0.2,0.4,0.4,0.5,0.7   c0.3,0.6,0.8,1,1.2,1.3c0.5,0.3,1.1,0.4,2,0.4c0.7,0,1.2-0.2,1.7-0.4c0.4-0.3,0.6-0.6,0.6-1c0-0.6-0.2-1-0.7-1.3   c-0.4-0.3-1.2-0.5-2.2-0.8c-1.2-0.3-2.1-0.6-2.8-0.9c-0.7-0.3-1.3-0.7-1.7-1.2c-0.4-0.5-0.7-1.2-0.7-1.9c0-0.7,0.2-1.3,0.6-1.9   c0.4-0.6,1-1.1,1.8-1.4c0.8-0.4,1.7-0.5,2.8-0.5c0.9,0,1.6,0.1,2.3,0.3c0.7,0.2,1.3,0.4,1.7,0.7c0.5,0.3,0.8,0.6,1.1,1   c0.2,0.4,0.4,0.7,0.4,1.1c0,0.4-0.1,0.7-0.4,0.9c-0.3,0.2-0.6,0.4-1.1,0.4c-0.3,0-0.6-0.1-0.9-0.3c-0.3-0.3-0.6-0.6-0.8-0.9   c-0.2-0.3-0.5-0.6-0.9-0.8c-0.3-0.2-0.8-0.3-1.4-0.3c-0.6,0-1.1,0.1-1.5,0.4c-0.4,0.3-0.6,0.6-0.6,1c0,0.4,0.1,0.6,0.4,0.9   c0.3,0.2,0.7,0.4,1.2,0.6c0.5,0.1,1.2,0.3,2.1,0.5c1,0.3,1.9,0.6,2.5,0.9c0.7,0.4,1.2,0.8,1.5,1.2   C771.5,176.6,771.7,177.2,771.7,177.8L771.7,177.8z M785.3,177.8c0,0.9-0.2,1.7-0.7,2.4c-0.5,0.7-1.1,1.2-2,1.5   c-0.9,0.3-1.9,0.5-3.2,0.5c-1.2,0-2.2-0.2-3.1-0.6c-0.9-0.4-1.5-0.8-1.9-1.4c-0.4-0.6-0.6-1.1-0.6-1.7c0-0.4,0.1-0.7,0.4-0.9   c0.3-0.3,0.6-0.4,1-0.4c0.4,0,0.6,0.1,0.8,0.3c0.2,0.2,0.4,0.4,0.5,0.7c0.3,0.6,0.8,1,1.2,1.3c0.5,0.3,1.1,0.4,2,0.4   c0.7,0,1.2-0.2,1.7-0.4c0.4-0.3,0.6-0.6,0.6-1c0-0.6-0.2-1-0.7-1.3c-0.4-0.3-1.2-0.5-2.2-0.8c-1.2-0.3-2.1-0.6-2.8-0.9   c-0.7-0.3-1.3-0.7-1.7-1.2c-0.4-0.5-0.6-1.2-0.6-1.9c0-0.7,0.2-1.3,0.6-1.9c0.4-0.6,1-1.1,1.8-1.4c0.8-0.4,1.7-0.5,2.8-0.5   c0.8,0,1.6,0.1,2.3,0.3c0.7,0.2,1.3,0.4,1.7,0.7c0.5,0.3,0.8,0.6,1.1,1c0.2,0.4,0.4,0.7,0.4,1.1c0,0.4-0.1,0.7-0.4,0.9   c-0.3,0.2-0.6,0.4-1.1,0.4c-0.3,0-0.6-0.1-0.9-0.3c-0.3-0.3-0.6-0.6-0.8-0.9c-0.2-0.3-0.5-0.6-0.9-0.8c-0.3-0.2-0.8-0.3-1.4-0.3   c-0.6,0-1.1,0.1-1.5,0.4c-0.4,0.3-0.6,0.6-0.6,1c0,0.3,0.2,0.7,0.4,0.9c0.3,0.2,0.7,0.4,1.2,0.6c0.5,0.1,1.2,0.3,2.1,0.5   c1,0.3,1.9,0.6,2.5,0.9c0.7,0.4,1.2,0.8,1.5,1.2C785.1,176.6,785.3,177.2,785.3,177.8L785.3,177.8z M794.6,168.8h0.4v-2   c0-0.5,0-1,0-1.3c0-0.3,0.1-0.6,0.2-0.8c0.3-0.5,0.8-0.8,1.4-0.8c0.4,0,0.8,0.2,1.2,0.5c0.2,0.2,0.4,0.5,0.4,0.8   c0.1,0.3,0.1,0.7,0.1,1.3v2.3h1.2c0.5,0,0.8,0.1,1.1,0.3c0.2,0.2,0.4,0.5,0.4,0.9c0,0.4-0.2,0.8-0.5,0.9c-0.4,0.2-0.9,0.3-1.5,0.3   h-0.6v6.2c0,0.5,0,0.9,0.1,1.2c0,0.3,0.1,0.5,0.3,0.7c0.2,0.2,0.4,0.3,0.8,0.3c0.2,0,0.5,0,0.8-0.1c0.3-0.1,0.6-0.1,0.8-0.1   c0.3,0,0.5,0.1,0.7,0.3c0.2,0.2,0.3,0.5,0.3,0.8c0,0.5-0.3,1-0.9,1.2c-0.6,0.3-1.4,0.4-2.5,0.4c-1,0-1.8-0.2-2.4-0.5   c-0.5-0.3-0.9-0.9-1.1-1.5c-0.2-0.6-0.3-1.5-0.3-2.5v-6.4h-0.4c-0.5,0-0.9-0.1-1.1-0.3c-0.2-0.2-0.4-0.5-0.4-0.9   c0-0.4,0.1-0.6,0.4-0.9C793.7,168.9,794.1,168.8,794.6,168.8L794.6,168.8z M806.6,165.6v5c0.4-0.5,0.8-0.9,1.2-1.2   c0.4-0.3,0.9-0.5,1.3-0.6c0.5-0.1,1-0.2,1.6-0.2c0.9,0,1.6,0.2,2.3,0.5c0.7,0.4,1.2,0.9,1.6,1.6c0.2,0.4,0.4,0.8,0.5,1.3   c0.1,0.5,0.1,1.1,0.1,1.7v6.4c0,0.7-0.2,1.2-0.5,1.5c-0.3,0.3-0.7,0.5-1.2,0.5c-1.1,0-1.7-0.7-1.7-2v-5.7c0-1.1-0.2-1.9-0.5-2.5   c-0.3-0.6-0.9-0.9-1.8-0.9c-0.6,0-1.1,0.2-1.6,0.5c-0.5,0.3-0.9,0.8-1.1,1.4c-0.2,0.5-0.3,1.4-0.3,2.7v4.4c0,0.7-0.1,1.2-0.4,1.5   c-0.3,0.3-0.7,0.5-1.2,0.5c-1.1,0-1.7-0.7-1.7-2v-14.5c0-0.7,0.1-1.2,0.4-1.5c0.3-0.3,0.7-0.5,1.2-0.5c0.5,0,0.9,0.2,1.2,0.5   C806.5,164.4,806.6,164.9,806.6,165.6L806.6,165.6z M827.9,176.2h-6.6c0,0.8,0.2,1.4,0.5,2c0.3,0.6,0.7,1,1.2,1.3   c0.5,0.3,1,0.4,1.6,0.4c0.4,0,0.8,0,1.1-0.1c0.3-0.1,0.7-0.2,1-0.4c0.3-0.2,0.6-0.4,0.9-0.6c0.3-0.2,0.6-0.5,1-0.9   c0.2-0.1,0.4-0.2,0.7-0.2c0.3,0,0.6,0.1,0.8,0.3c0.2,0.2,0.3,0.5,0.3,0.8c0,0.3-0.1,0.7-0.4,1.1c-0.2,0.4-0.6,0.8-1.1,1.2   c-0.5,0.4-1.1,0.7-1.8,0.9c-0.7,0.2-1.6,0.4-2.5,0.4c-2.2,0-3.8-0.6-5-1.8c-1.2-1.2-1.8-2.9-1.8-5c0-1,0.1-1.9,0.4-2.8   c0.3-0.8,0.7-1.6,1.3-2.2c0.6-0.6,1.3-1.1,2.1-1.4c0.8-0.3,1.7-0.5,2.8-0.5c1.3,0,2.4,0.3,3.4,0.8c0.9,0.6,1.6,1.3,2.1,2.1   c0.5,0.9,0.7,1.8,0.7,2.7c0,0.8-0.2,1.4-0.7,1.6C829.4,176,828.7,176.2,827.9,176.2L827.9,176.2z M821.3,174.3h6.1   c-0.1-1.1-0.4-2-0.9-2.6c-0.5-0.6-1.2-0.9-2.1-0.9c-0.8,0-1.5,0.3-2.1,0.9C821.8,172.3,821.4,173.1,821.3,174.3z M840,174.4v-8.7   c0-0.7,0.2-1.3,0.5-1.7c0.3-0.4,0.8-0.6,1.3-0.6c0.6,0,1,0.2,1.3,0.6c0.3,0.4,0.5,0.9,0.5,1.7v8.9c0,1,0.1,1.8,0.3,2.5   c0.2,0.7,0.6,1.2,1.2,1.6c0.6,0.4,1.4,0.6,2.4,0.6c1.4,0,2.4-0.4,3-1.1c0.6-0.8,0.9-1.9,0.9-3.4v-8.9c0-0.7,0.2-1.3,0.5-1.7   c0.3-0.4,0.8-0.5,1.3-0.5c0.6,0,1,0.2,1.3,0.5c0.3,0.4,0.5,0.9,0.5,1.7v8.7c0,1.4-0.1,2.6-0.4,3.5c-0.3,1-0.8,1.8-1.6,2.5   c-0.7,0.6-1.4,1.1-2.3,1.3c-0.9,0.3-1.9,0.4-3,0.4c-1.4,0-2.6-0.1-3.6-0.4c-1-0.3-1.8-0.8-2.4-1.4c-0.6-0.6-1.1-1.4-1.4-2.4   C840.2,176.9,840,175.8,840,174.4L840,174.4z M862.8,165.7v6.3l7.2-7.5c0.3-0.4,0.6-0.6,0.9-0.8c0.2-0.2,0.6-0.3,1-0.3   c0.5,0,0.9,0.2,1.3,0.5c0.3,0.3,0.5,0.7,0.5,1.1c0,0.5-0.3,1.1-0.8,1.6l-4.4,4.2l5.1,7.3c0.4,0.5,0.6,1,0.8,1.3   c0.2,0.4,0.3,0.8,0.3,1.1c0,0.4-0.2,0.7-0.5,1c-0.3,0.3-0.7,0.4-1.3,0.4c-0.5,0-0.9-0.1-1.2-0.3c-0.3-0.2-0.6-0.5-0.8-0.9   c-0.2-0.3-0.4-0.7-0.6-1l-4.3-6.6l-3,2.9v3.7c0,0.8-0.2,1.3-0.5,1.7c-0.3,0.4-0.8,0.5-1.3,0.5c-0.3,0-0.6-0.1-0.9-0.2   c-0.3-0.2-0.5-0.4-0.7-0.7c-0.1-0.3-0.2-0.5-0.2-0.8c0-0.4,0-0.9,0-1.3v-13.4c0-0.7,0.2-1.3,0.5-1.7c0.3-0.4,0.8-0.6,1.3-0.6   c0.5,0,1,0.2,1.3,0.5C862.6,164.4,862.8,165,862.8,165.7L862.8,165.7z" fill="#6A3B77"  />
	
</g><path d="M237,97l-10.1-40.1v43.5c0,2.4-0.5,4.2-1.6,5.4  c-1.1,1.2-2.5,1.8-4.3,1.8c-1.7,0-3.1-0.6-4.2-1.8s-1.6-3-1.6-5.4V50.5c0-2.8,0.7-4.6,2.1-5.6c1.4-1,3.4-1.4,5.8-1.4h4  c2.4,0,4.1,0.2,5.2,0.6c1.1,0.4,1.9,1.2,2.4,2.3c0.5,1.1,1.1,2.9,1.8,5.5l9.2,34.5l9.2-34.5c0.7-2.5,1.2-4.3,1.8-5.5  c0.5-1.1,1.3-1.9,2.4-2.3c1.1-0.4,2.8-0.6,5.2-0.6h4c2.4,0,4.4,0.5,5.8,1.4c1.4,1,2.1,2.8,2.1,5.6v49.9c0,2.4-0.5,4.2-1.6,5.4  c-1.1,1.2-2.5,1.8-4.3,1.8c-1.7,0-3.1-0.6-4.2-1.8c-1.1-1.2-1.6-3-1.6-5.4V56.9L254.1,97c-0.7,2.6-1.2,4.5-1.6,5.7  c-0.4,1.2-1.2,2.3-2.3,3.3c-1.1,1-2.7,1.5-4.6,1.5c-1.5,0-2.8-0.3-3.8-1c-1-0.6-1.8-1.5-2.4-2.5c-0.6-1-1-2.2-1.4-3.3  C237.6,99.6,237.3,98.3,237,97z M322.1,106.5h-19.3c-2.8,0-4.8-0.6-6-1.9c-1.2-1.2-1.8-3.2-1.8-6V51.3c0-2.8,0.6-4.8,1.8-6  c1.2-1.2,3.2-1.8,5.9-1.8h20.4c3,0,5.6,0.2,7.8,0.6c2.2,0.4,4.2,1.1,5.9,2.1c1.5,0.9,2.8,2,4,3.4c1.1,1.3,2,2.9,2.6,4.5  c0.6,1.6,0.9,3.4,0.9,5.2c0,6.3-3.2,10.9-9.5,13.8c8.3,2.6,12.4,7.8,12.4,15.4c0,3.5-0.9,6.7-2.7,9.5c-1.7,2.8-4.3,5-7.3,6.3  c-1.9,0.8-4.1,1.4-6.6,1.7C328.3,106.4,325.4,106.5,322.1,106.5L322.1,106.5z M307.9,53.1v16.3h11.7c3.2,0,5.6-0.3,7.4-0.9  c1.7-0.6,3.1-1.7,4-3.4c0.7-1.2,1.1-2.5,1.1-4c0-3.2-1.1-5.3-3.4-6.3c-2.3-1-5.7-1.6-10.4-1.6L307.9,53.1L307.9,53.1z M321.1,78.6  h-13.3v18.4h13.7c8.6,0,12.9-3.1,12.9-9.3c0-3.2-1.1-5.5-3.4-6.9C328.9,79.3,325.6,78.6,321.1,78.6z M381.8,79.6h-4.5v20.2  c0,2.7-0.6,4.6-1.8,5.9s-2.7,1.9-4.6,1.9c-2,0-3.6-0.7-4.7-2c-1.1-1.3-1.7-3.3-1.7-5.8V51.3c0-2.8,0.6-4.7,1.8-6  c1.2-1.2,3.2-1.8,6-1.8h20.8c2.9,0,5.3,0.1,7.3,0.4c2,0.2,3.9,0.7,5.5,1.5c2,0.8,3.8,2,5.2,3.6c1.5,1.5,2.7,3.4,3.5,5.4  c0.8,2,1.2,4.2,1.2,6.5c0,4.7-1.3,8.5-4,11.3c-2.7,2.8-6.7,4.8-12.1,6c2.3,1.2,4.4,3,6.5,5.3c2.1,2.3,3.9,4.8,5.5,7.5  c1.6,2.6,2.9,5,3.8,7.2c0.9,2.1,1.4,3.6,1.4,4.4c0,0.8-0.3,1.7-0.8,2.5c-0.5,0.8-1.3,1.5-2.2,1.9c-0.9,0.5-2,0.7-3.2,0.7  c-1.4,0-2.6-0.3-3.6-1c-1-0.7-1.8-1.6-2.5-2.6c-0.7-1-1.7-2.5-2.9-4.6l-5.1-8.5c-1.8-3.1-3.5-5.5-4.9-7.1s-2.9-2.8-4.4-3.4  C385.9,79.9,384.1,79.6,381.8,79.6L381.8,79.6z M389.1,53.1h-11.8v17.3h11.4c3.1,0,5.6-0.3,7.7-0.8c2.1-0.5,3.7-1.4,4.8-2.7  c1.1-1.3,1.7-3,1.7-5.3c0-1.7-0.4-3.3-1.3-4.6c-0.9-1.3-2.1-2.3-3.7-3C396.4,53.4,393.5,53.1,389.1,53.1L389.1,53.1z M451.3,79.6  h-4.5v20.2c0,2.7-0.6,4.6-1.8,5.9c-1.2,1.3-2.7,1.9-4.6,1.9c-2,0-3.6-0.7-4.7-2c-1.1-1.3-1.7-3.3-1.7-5.8V51.3c0-2.8,0.6-4.7,1.8-6  c1.2-1.2,3.2-1.8,6-1.8h20.8c2.9,0,5.3,0.1,7.4,0.4c2,0.2,3.9,0.7,5.5,1.5c2,0.8,3.8,2,5.2,3.6c1.5,1.5,2.7,3.4,3.5,5.4  c0.8,2,1.2,4.2,1.2,6.5c0,4.7-1.3,8.5-4,11.3c-2.7,2.8-6.7,4.8-12.1,6c2.3,1.2,4.4,3,6.5,5.3c2.1,2.3,3.9,4.8,5.5,7.5  c1.6,2.6,2.9,5,3.8,7.2c0.9,2.1,1.4,3.6,1.4,4.4c0,0.8-0.3,1.7-0.8,2.5c-0.5,0.8-1.3,1.5-2.2,1.9c-0.9,0.5-2,0.7-3.2,0.7  c-1.4,0-2.6-0.3-3.6-1c-1-0.7-1.8-1.5-2.5-2.6s-1.7-2.5-2.9-4.6l-5.1-8.5c-1.8-3.1-3.5-5.5-4.9-7.1s-2.9-2.8-4.4-3.4  C455.4,79.9,453.5,79.6,451.3,79.6L451.3,79.6z M458.6,53.1h-11.8v17.3h11.4c3.1,0,5.6-0.3,7.7-0.8c2.1-0.5,3.7-1.4,4.8-2.7  c1.1-1.3,1.7-3,1.7-5.3c0-1.7-0.4-3.3-1.3-4.6c-0.9-1.3-2.1-2.3-3.7-3C465.9,53.4,463,53.1,458.6,53.1z M543.9,99.4l-3-7.9h-25.6  l-3,8.1c-1.2,3.2-2.2,5.3-3,6.4c-0.8,1.1-2.2,1.7-4.1,1.7c-1.6,0-3-0.6-4.3-1.8c-1.2-1.2-1.9-2.5-1.9-4c0-0.9,0.1-1.7,0.4-2.7  c0.3-0.9,0.8-2.2,1.4-3.8L517,54.4l1.7-4.2c0.6-1.6,1.3-3,2.1-4.1c0.7-1.1,1.7-2,2.9-2.6c1.2-0.7,2.7-1,4.4-1c1.8,0,3.3,0.3,4.4,1  c1.1,0.6,2.1,1.5,2.9,2.6c0.7,1.1,1.4,2.2,1.8,3.4c0.5,1.2,1.1,2.8,1.9,4.9L555.6,95c1.3,3.1,1.9,5.3,1.9,6.7c0,1.5-0.6,2.8-1.8,4  c-1.2,1.2-2.7,1.8-4.4,1.8c-1,0-1.9-0.2-2.6-0.5c-0.7-0.3-1.3-0.8-1.8-1.5c-0.5-0.6-1-1.6-1.6-2.8  C544.8,101.5,544.3,100.4,543.9,99.4L543.9,99.4z M518.6,81.9h18.8l-9.5-26C528,55.9,518.6,81.9,518.6,81.9z M626.7,86.6  c0,2-0.5,4.2-1.5,6.5c-1,2.3-2.5,4.6-4.7,6.9c-2.1,2.3-4.8,4.1-8.1,5.5c-3.3,1.4-7.1,2.1-11.5,2.1c-3.3,0-6.3-0.3-9.1-0.9  c-2.7-0.6-5.2-1.6-7.4-2.9c-2.2-1.3-4.3-3.1-6.1-5.3c-1.7-2-3.1-4.3-4.3-6.6c-1.2-2.5-2.1-5.1-2.6-7.8c-0.6-2.8-0.9-5.7-0.9-8.9  c0-5.1,0.7-9.6,2.2-13.6c1.5-4,3.6-7.4,6.3-10.3c2.7-2.8,6-5.1,9.7-6.5c3.7-1.5,7.6-2.2,11.8-2.2c5.1,0,9.6,1,13.6,3.1  c4,2,7,4.5,9.2,7.5c2.1,3,3.2,5.8,3.2,8.5c0,1.5-0.5,2.8-1.5,3.9c-1,1.1-2.3,1.7-3.7,1.7c-1.6,0-2.9-0.4-3.7-1.2  c-0.8-0.8-1.7-2.1-2.7-4c-1.7-3.1-3.6-5.5-5.9-7c-2.3-1.5-5-2.3-8.3-2.3c-5.2,0-9.4,2-12.5,6c-3.1,4-4.7,9.6-4.7,17  c0,4.9,0.7,9,2.1,12.2c1.4,3.3,3.3,5.7,5.8,7.3c2.5,1.6,5.5,2.4,8.9,2.4c3.7,0,6.8-0.9,9.3-2.7c2.5-1.8,4.5-4.5,5.7-8  c0.5-1.7,1.2-3,2-4.1c0.8-1,2.1-1.6,3.9-1.6c1.5,0,2.8,0.5,3.9,1.6C626.2,83.7,626.7,85.1,626.7,86.6z M685.9,53.4h-28.8v15.5h26.5  c1.9,0,3.4,0.4,4.4,1.3c1,0.9,1.4,2,1.4,3.5c0,1.4-0.5,2.6-1.4,3.5c-0.9,0.9-2.4,1.4-4.4,1.4h-26.5v17.9h29.7c2,0,3.5,0.5,4.5,1.4  c1,0.9,1.5,2.2,1.5,3.7c0,1.5-0.5,2.7-1.5,3.6c-1,0.9-2.5,1.4-4.5,1.4h-34.7c-2.8,0-4.8-0.6-6-1.8c-1.2-1.2-1.8-3.2-1.8-6V51.3  c0-1.8,0.3-3.3,0.8-4.5c0.5-1.2,1.4-2,2.6-2.5c1.2-0.5,2.6-0.8,4.4-0.8h33.7c2,0,3.5,0.4,4.5,1.4c1,0.9,1.5,2.1,1.5,3.5  c0,1.5-0.5,2.7-1.5,3.6C689.4,52.9,687.9,53.4,685.9,53.4z M723.9,88.8h-13.6c-2.1,0-3.6-0.5-4.7-1.4c-1.1-1-1.6-2.2-1.6-3.7  c0-1.5,0.5-2.8,1.6-3.8c1-1,2.6-1.4,4.8-1.4h13.6c2.1,0,3.7,0.5,4.8,1.4c1,1,1.6,2.2,1.6,3.8c0,1.5-0.5,2.8-1.5,3.7  C727.6,88.3,726,88.8,723.9,88.8z" fill="#6A3B77"  stroke="#6A3B77"  stroke-miterlimit="10"  /><path d="M744.8,80.5V50.2c0-2.6,0.6-4.5,1.7-5.8c1.2-1.3,2.7-1.9,4.6-1.9  c2,0,3.5,0.6,4.7,1.9c1.2,1.3,1.7,3.2,1.7,5.8v31c0,3.5,0.4,6.5,1.2,8.8c0.8,2.4,2.2,4.2,4.2,5.5c2,1.3,4.8,2,8.4,2  c5,0,8.5-1.3,10.6-4c2.1-2.6,3.1-6.7,3.1-12.1V50.2c0-2.6,0.6-4.6,1.7-5.8c1.1-1.3,2.7-1.9,4.6-1.9c1.9,0,3.5,0.6,4.7,1.9  c1.2,1.3,1.8,3.2,1.8,5.8v30.3c0,4.9-0.5,9-1.4,12.3c-1,3.3-2.8,6.2-5.4,8.7c-2.3,2.1-5,3.7-8,4.6c-3,1-6.6,1.5-10.7,1.5  c-4.8,0-9-0.5-12.5-1.6c-3.5-1-6.3-2.7-8.6-4.9c-2.2-2.2-3.8-5-4.9-8.4C745.3,89.3,744.8,85.2,744.8,80.5L744.8,80.5z M830.6,50.2  v22.1l25.1-26.1c1.2-1.3,2.2-2.2,3.1-2.8c0.8-0.6,2-0.9,3.4-0.9c1.8,0,3.3,0.5,4.4,1.6c1.1,1.1,1.7,2.4,1.7,3.9c0,1.9-1,3.7-2.9,5.5  l-15.5,14.7l17.9,25.6c1.3,1.8,2.2,3.3,2.8,4.7c0.6,1.3,0.9,2.6,0.9,3.9c0,1.4-0.6,2.6-1.7,3.7c-1.1,1-2.6,1.5-4.5,1.5  c-1.8,0-3.2-0.4-4.3-1.1c-1.1-0.8-2.1-1.8-2.8-3c-0.8-1.3-1.5-2.4-2.1-3.4l-15.1-23.2l-10.4,10v13c0,2.6-0.6,4.6-1.8,5.9  c-1.2,1.3-2.8,1.9-4.6,1.9c-1.1,0-2.2-0.3-3.1-0.9c-1-0.5-1.8-1.3-2.3-2.3c-0.4-0.8-0.6-1.7-0.7-2.8c-0.1-1.1-0.1-2.6-0.1-4.6V50.2  c0-2.6,0.6-4.5,1.7-5.8c1.1-1.3,2.7-1.9,4.6-1.9c1.9,0,3.5,0.6,4.7,1.9C830,45.6,830.6,47.6,830.6,50.2z" fill="#A385AE"  stroke="#A385AE"  stroke-miterlimit="10"  /><path d="M152.2,9.9C147.1,5,141.3,2,134.7,0.7c-6.6-1.3-14-0.9-22.4,2.2c-3.4,1.3-9.4,3.9-15.8,8.7  c-4.1,2.9-9.3,7.8-13,12.3c-3.7,4.5-6.1,8.4-6.1,8.4c0,0-2.2,3.3-4.5,7.9C70.6,44.9,68.3,51,67.2,56c-2.9,11.4-2.2,21.4-1.4,26.2  c1.4,8.9,4.6,15.5,9,20.6c4.3,5.1,9.8,8.7,16.6,10.8c-5-5-7.7-9.9-10-15c-2.2-5.1-3.9-10.6-5-18c-0.6-3.9-1.2-12.3,1.3-22.1  c1-4.3,2.9-9.6,4.9-13.6c2-4.1,3.9-6.9,3.8-6.9c0,0,2.1-3.4,5.3-7.3c3.2-3.9,7.7-8.1,11.2-10.6c5.5-4.1,10.4-6.3,13.3-7.4  c6.9-2.6,12.6-3.8,18.1-4.4C139.8,8,145.4,8,152.2,9.9z M88.8,154.9c-3.2,6.3-5.2,12-6.5,18.2c-1.2,6.2-1.7,13-0.7,21.5  c0.4,3.5,1.3,9.6,3.3,17.1c2.8,10.4,7.7,22.8,15.3,34.2c7.5,11.4,17.7,21.9,29.1,28.5c5.6,3.3,11.5,5.7,17,7.1  c5.5,1.4,10.7,1.9,14.9,1.9c8.6,0,13.6-1.4,13.6-1.3c0,0,4.4-0.7,11.2-3.2c6.8-2.5,16-7.1,24.9-14.2c9-7,17.8-16.4,24.8-26.9  c7.1-10.5,12.5-21.9,16-32.4c1.4-4.3,2.6-8.6,3.6-12.9c0.9-4.8,2-8.3,2.6-10.7c2.3-7.5,4.2-13.2,6.4-18.3c1.1-2.6,2.3-5.1,3.9-7.4  c1.6-2.3,3.7-4.6,6.8-6.2c-3.5-0.1-7,1.1-9.9,2.9c-2.9,1.8-5.3,4-7.5,6.5c-4.3,5.1-7.5,11.3-10,19.4c-1.2,3.8-2.2,7.7-2.9,11.6  c-0.9,4-2,7.9-3.3,11.7c-3.2,9.7-8.2,20.2-14.8,29.8c-6.5,9.6-14.5,18.2-22.6,24.5c-8.1,6.4-16.1,10.4-22,12.6  c-5.9,2.2-9.7,2.7-9.6,2.8c0-0.1-4.3,1.1-11.4,1.1c-3.5,0-7.8-0.4-12.4-1.6c-4.6-1.2-9.5-3.2-14.3-6c-9.7-5.6-18.8-14.8-25.6-25.2  c-6.8-10.3-11.3-21.6-13.9-31.1c-1.4-5.1-2.4-10.3-3.1-15.6c-1-7.8-1.5-13.9-2.1-19.8C89.6,167.6,89,161.9,88.8,154.9L88.8,154.9z" fill="#6A3B77"  /><path d="M137.2,235.7c2.4,2.6,3.9,5.3,6,7.8c2.1,2.5,4.2,5,8.1,6.6c1.9,0.8,4.6,1,6.7,0.6c2.2-0.4,4.2-1.2,6.1-2.3  c1.9-1.2,3.9-2.6,5.5-5.7c0.5-0.9,0.8-1.9,0.9-3c0.1-0.6,0.1-1,0.2-1.3c0.1-0.7,0.3-1.5,0.5-2.2c0.7-2.4,2.3-5.9,7.6-7.2  c0.5-0.1,1-0.2,1.5-0.3l0.8-0.1c0.3,0,0.4,0,1.3-0.1l1.2-0.2c0.4-0.1,0.8-0.1,1.2-0.3c1.7-0.7,2.7-1.3,3.9-2.3  c1.2-0.9,2.4-2.4,3.1-4.1c0.7-1.6,1-3.6,0.9-5.3c-0.1-0.8-0.2-1.6-0.4-2.4c-0.2-0.8-0.5-1.6-0.9-2.3c-0.4-0.9-0.9-1.6-1.6-2.3  c-0.5-0.6-1.1-1.1-1.7-1.6c-0.9-0.7-1.9-1.4-2.8-2c-0.9-0.6-1.8-1.1-2.7-1.6l-1.4-0.8c0,0-0.6-0.3-0.9-0.6l-5-3l-2.4-1.5l-0.6-0.4  l-0.3-0.2l0,0c0.2,0.1-1.5-0.7-0.8-0.4l0,0l0,0l0,0l0,0l0,0l0,0c-0.5,1.2,1.2-2.6-1.2,2.6l0.1-0.3l0.5-1.1l0.5-1  c0.1-0.2,0.1-0.1,0.1-0.1l0,0l0,0c0,0,0,0,0,0l-0.1-0.1c-0.2-0.2-0.1-0.1-0.2-0.2c0-0.1-0.1-0.3,0.1-0.8c0.3-1,1.4-2.7,2.3-5  c0.4-1.2,0.8-2.5,0.8-3.9l0-0.5l0-0.2l0-0.5l0-0.9L174,184l0-1.3c0-0.2,0-0.4,0-0.5c0-0.1,0-0.2,0-0.3l0-0.1c0.1-0.1,0-0.3-0.1-0.5  l-0.9-3.8l-0.4-1.8c-0.2-0.6-0.3-1.8-0.8-2.1c-0.3-0.3-0.5-0.7-0.6-1.1c0-0.1-0.1-0.2-0.1-0.3l0,0c0,0,0,0,0,0c0,0-0.2,0.1-0.4,0.1  c-0.6,0.1-1.2,0.2-1.7,0.2l-0.8,0c-0.2,0-0.5-0.1-0.7-0.1c-0.1,0-0.2,0-0.3-0.1l-0.1,0l-0.1,0c1.7,0.5-3.9-1.2,3.9,1.2l0,0l0,0  l0.1-0.3l0-0.1l0.2-0.2c0.2-0.2,0.6-0.4,1.2-0.6l0.4-0.2l0.2-0.1c0,0,0,0,0,0c0.7-0.2,1.3-0.4,2-0.8c1.5-0.7,2.7-1.8,3.8-3  c1.9-2.4,2.8-4.8,3.4-7.3l0.5-2.9c0.1-0.8,0.3-1.7,0.5-2.5c0.4-1.7,0.8-3.3,1.3-4.7c0.3-0.7,0.5-1.4,0.8-2c0.1-0.3,0.3-0.6,0.4-0.9  c0.1-0.2-0.1,0.1,0.3-0.4c1-1.3,2-2.5,2.9-3.4c3.1-3.2,6.8-5.1,10.2-6.3c2.9-1,6-1.2,7.8-1.3c7.1-0.1,12.7,1.3,18,3  c5.3,1.8,10.5,4.1,16.3,8.1c-3.2-6.3-7.2-11.2-12.7-15.1c-5.4-3.8-12.4-6.7-21.8-6.7c-2.6,0.1-6.3,0.1-11.3,1.8  c-2.2,0.8-4.6,1.8-7.1,3.3c-2.7,1.6-5.1,3.5-7.2,5.7c-1.3,1.4-2.6,2.9-3.7,4.3c-0.2,0.2-0.9,1.2-1.2,1.8c-0.3,0.5-0.5,1-0.8,1.5  c-0.5,1-0.9,2-1.2,3c-0.7,2-1.2,4-1.6,6c-0.2,1-0.4,2-0.6,3l-0.4,2.6c-0.2,1.1-0.7,2.2-1.1,2.6c-0.2,0.2-0.3,0.3-0.4,0.3  c0,0,0,0,0,0c0,0,0.1,0-0.4,0.1c-0.2,0-0.4,0.1-0.6,0.2l-0.4,0.2l-0.8,0.3c-1,0.5-2.1,1-3.2,1.8c-1.1,0.8-2.3,2-3.1,3.4  c-0.4,0.7-0.7,1.4-0.9,2.1c-0.1,0.3-0.1,0.1-0.3,1.2c-0.1,0.5-0.1,0.7-0.1,1c0,0.3,0,0.6,0,0.8c0.1,1.9,0.6,3,1,4  c0.5,1.3,1.2,2.4,1.9,3.3c0.2,0.3,0.1,0.1,0.2,0.2l0,0c0,0,0,0,0,0l-0.1,0.4c0,0.2-0.1,0.5-0.1,0.7c0,0.5,0,0.9,0,1.2  c0,1.3,0.1,1.9,0.1,1.9l0.1,1.4l0,0.6l0,0.4l0,0.2l0,0.1v0c0.2,0-0.5,0.1,0.5-0.1h0l-0.1,0c-0.4,0-0.4,0-0.4,0  c0,0.1-0.1,0.2-0.1,0.4c-0.2,0.8-1.4,2.4-2.5,5.7c-0.5,1.6-0.8,3.8-0.3,6.2c0.5,2.3,1.9,4.7,3.8,6.2h0c0.6,0.5,1.3,1,2.1,1.4  l0.3,0.2l0.2,0.1l0.2,0.1l0,0l0,0l0,0c0.7,0.3-0.9-0.5-0.8-0.4l0,0l0.3,0.2l0.6,0.4l2.4,1.5l5,3c0.5,0.3,0.6,0.4,1.5,0.9l1.1,0.6  c0.8,0.4,1.5,0.9,2.2,1.3c0.7,0.4,1.4,0.9,1.9,1.3c0.3,0.2,0.5,0.4,0.4,0.3l0,0c0-0.1,0.1,0.2,0.1,0.3c0,0.2,0.1,0.3,0.1,0.4  c0,0.2,0,0.1,0,0.1c0,0,0,0-0.2,0.2c-0.1,0.1-0.7,0.5-0.6,0.4l0,0h0l-0.9,0.1c-1.4,0.1-2.7,0.3-4,0.7c-4.6,1.1-8.6,3.7-11.1,6.7  c-2.5,3-3.6,6-4.2,8c-0.3,1.2-0.6,2.4-0.7,3.7l-0.1,0.9l0,0.4l0,0.2l0,0.1v0c3.9,0.5,1.1,0.1,1.9,0.2l0,0l-0.1,0  c-0.3,0-0.6-0.1-0.9-0.2c-0.2-0.1-0.3-0.1-0.5-0.2l-0.3-0.1c0,0,0,0,0,0c0,0.2-0.8,1.3-1.6,2c-0.8,0.7-1.8,1.3-2.7,1.8  c-0.9,0.4-1.4,0.6-2.5,0.6c-2-0.1-4.7-1.2-7.3-2.6C143.4,238.8,140.6,236.9,137.2,235.7L137.2,235.7z M167.4,21.9  c0.1,0.8-0.3,1.6-0.8,2.1c-0.6,0.5-1.2,0.8-1.9,1.1c-1.4,0.5-2.8,0.8-4.3,1c-2.9,0.4-5.8,0.6-8.7,0.9c-3,0.2-6,0.5-9.4,0.9  c-1.8,0.2-3.6,0.5-5.4,0.8c-2.2,0.4-4.2,1-6.3,1.7c-2.4,0.8-4.8,1.9-7,3.1c-2.8,1.6-6.1,3.8-9.1,6.9c-4.3,4.3-7.9,10.6-10.2,17.2  c-2.3,6.6-3.7,13.3-4.9,19.3c-2,11.6-5.8,19.4-5.8,19.4c0,0-0.8,1.7-2.3,4.3c-1.5,2.6-3.9,6.1-7.3,9.4c-3.4,3.3-7.9,6.2-12.9,8.2  c-5,2-10.4,3.2-15.3,3.8c-9.9,1.4-17.5-1.1-21.3-2.6c-6.9-2.7-12.2-5.7-17.5-8.4c-5.6-2.9-11.2-5.7-16.9-8.4  c4.2,5.6,7.8,10.3,12.3,14.7c4.5,4.3,9.9,8.6,18.3,12c3.3,1.3,6.8,2.3,10.3,3c4.5,0.8,10.3,1.1,16.1,0.3c5.6-0.7,12-2,18.1-4.5  c6.2-2.4,11.9-6.2,16.3-10.4c4.4-4.2,7.3-8.5,9.2-11.7c1.8-3.2,2.7-5.2,2.7-5.2c0,0,1.1-2.3,2.6-6.2c1.4-3.9,3-9.5,4.1-15.5  c1.2-5.8,2.5-12.2,4.5-17.8c2-5.6,4.7-10.3,7.7-13.3c4.3-4.4,9.2-6.4,12-7.4c1.7-0.6,3.4-1.2,4.9-1.5l5-1.3c3.3-0.9,6.4-1.8,9.3-3  c2.9-1.2,5.8-2.5,8.6-4.3c1.4-0.9,2.8-1.9,4-3.2C167.3,25.7,168.5,23.7,167.4,21.9L167.4,21.9z" fill="#A385AE"  /><path d="M174.4,24.2c1.8,3,2.6,6.1,3.1,8.9c0.5,2.9,0.7,5.6,0.6,8.4c-0.1,2.8-0.3,5.5-0.8,8.5  c-0.3,1.6-0.6,3.1-0.9,4.7c-0.4,1.6-0.8,3.3-1.4,5.3c-0.6,2.1-1.2,4.3-1.8,6.4l-1.4,4.4c-0.5,1.6-1.1,3.5-1.4,6  c-0.2,1.7-0.2,3.8,0.2,5.8c0.4,1.9,1,3.5,1.7,5.2c0.7,1.6,1.4,3.1,2.2,4.7l1.2,2.3l0.7,1.3l0,0v0v0l0.4,0.2v0h0l0,0l-0.2-0.1  l-0.1-0.1c0,0,0,0,0,0c0,0,0,0-0.1,0.1c-0.1,0.1-0.2,0.2-0.7,0.5c-0.8,0.4-1.7,0.8-2.5,1c-0.9,0.3-2.2,0.4-4.3,1.4  c-1.1,0.6-2.2,1.5-2.9,2.5c-0.6,0.8-1,1.6-1.4,2.5c-0.4,1.1-0.7,2.4-0.8,3.6c-0.1,2-0.1,2-0.1,2.1c-0.1,0.1,0.2,0.6-0.9,3  c-0.5,1.1-1.3,2.4-2.4,3.9c-0.6,0.8-1.2,1.5-1.8,2.2l-0.7,0.8c-0.4,0.4-0.6,0.9-1,1.4c-0.3,0.5-0.6,1-0.8,1.5l-0.4,1l-0.2,0.6  l-0.2,0.6l-1.5,4l0,0c-0.1,0.1-0.3,0.2-0.4,0.3c-0.2,0.1-0.4,0.2-0.5,0.3c-1.5,0.7-2.7,0.7-4.2,0c-0.4-0.2-0.8-0.4-1.1-0.6  c-0.4-0.2-0.7-0.5-1.3-0.9l-2.9-2.2c-1.7-1.3-3.5-2.7-5.2-4.1l-4.2-3.5l-3.3-2.9c-0.4-0.3-0.8-0.6-1.3-0.8l-0.7-0.3l-0.5-0.2  c-0.7-0.3-1.4-0.5-2.1-0.7c-1.4-0.4-2.9-0.6-4.3-0.5c-3,0-5.8,1.2-7.8,2.8c-2,1.6-3.3,3.4-4.2,5.2c-0.9,1.7-1.5,3.5-1.9,5.4  c-0.7,3.6-0.4,7.2,1,10.6c1.3,3.2,3.5,6,6.2,8.2c-2.7-6.5-2.1-12.3,0.2-16.4c1.1-2,2.9-4.3,4.5-5c0.8-0.4,1.4-0.5,2.1-0.4  c0.4,0,0.8,0.1,1.3,0.3c0.2,0.1,0.5,0.2,0.7,0.3l0.2,0.1c0,0,0,0,0,0l0,0l2.9,2.6l4.4,3.7c1.8,1.5,3.6,2.9,5.5,4.4l3.1,2.3  c0.5,0.4,1.2,0.9,2,1.4c0.8,0.5,1.6,0.9,2.5,1.3c1.8,0.8,4,1.4,6.4,1.4c2.4,0,4.8-0.6,6.9-1.7c0.5-0.3,1-0.6,1.5-0.9  c0.5-0.4,0.9-0.6,1.5-1.1c1.2-1,2.4-2.1,2.8-3.7l0.4-1l0.2-0.6l0.4-1.1l0.8-2.2l0.2-0.6l0.2-0.6l0.2-0.7l0.5-0.5  c0.8-0.9,1.6-1.9,2.4-2.9c1.4-1.9,2.6-3.8,3.5-5.7c0.9-1.8,1.4-3.5,1.7-4.9c0.3-1.4,0.3-2.1,0.3-2.1l0.1-1.8c0-0.2,0-0.3,0.2-0.7  c0-0.2,0.2,0-0.5-0.3c-0.5-0.3-0.8-0.4-1-0.6c-0.4-0.3-0.3-0.4,0.3,0.6c0.1,0.2,0.2,0.3,0.3,0.5c0,0.1,0.3,0.6,0.2,0.5  c0,0,0,0,0.1,0l0.5-0.1l1.8-0.5c1.6-0.4,3.2-1.1,4.7-1.8c1.5-0.8,3.9-2.4,5.3-5.1c1.4-2.6,1.5-5.7,0.6-8.5c-0.1-0.4-0.3-0.8-0.4-1.1  c-0.1-0.3-0.5-0.8-0.5-0.9l-0.5-1l-1.1-2c-0.7-1.3-1.3-2.6-1.8-3.9c-0.5-1.2-0.9-2.4-1.1-3.3c-0.2-0.7-0.2-1.4-0.1-2.2  c0.1-1.1,0.6-2.7,1-4.2l1.3-4.4c0.7-2.2,1.3-4.5,1.9-6.8c0.5-2,1-4,1.3-6.1c0.3-2,0.5-3.9,0.5-5.8c0.1-3.7-0.4-7.2-1.3-10.5  c-0.9-3.3-2.3-6.3-4.2-9C179.8,28.6,177.5,26,174.4,24.2L174.4,24.2z" fill="#6A3B77"  /></svg>