<svg viewBox="0 0 959.7 283.5" role="img" aria-labelledby="minidex--title" xmlns="http://www.w3.org/2000/svg" xmlns:xlink="http://www.w3.org/1999/xlink"><title id="minidex--title">MINIDEX</title><path d="M86.7,174.8h14.5v108.6H85.6v-84.5l-33.4,42h-2.9l-33.8-42v84.5H0V174.8h14.7l36.1,44.6L86.7,174.8z" fill="#78B5D7"  /><path d="M127.6,174.8h15.6v108.6h-15.6C127.6,283.5,127.6,174.8,127.6,174.8z" fill="#0077AD"  /><path d="M255.3,174.8h14.8v108.6h-13.4l-72.6-83.7v83.7h-14.6V174.8H182l73.3,84.4L255.3,174.8L255.3,174.8z" fill="#78B5D7"  /><path d="M296.4,174.8h15.5v108.6h-15.5V174.8z M330.3,283.5V58.3h76c30.7,0,54.9,4.6,72.8,13.8  c17.9,9.2,32.1,22.7,42.6,40.6c10.5,17.9,15.8,37.3,15.8,58.4c0,15.1-2.9,29.5-8.7,43.3c-5.8,13.8-14.1,25.9-24.9,36.3  c-11,10.8-23.7,18.9-38.2,24.4c-8.5,3.3-16.3,5.6-23.4,6.7c-7.1,1.1-20.7,1.7-40.7,1.7L330.3,283.5L330.3,283.5z M403,87h-40.3  v167.7h41.3c16.1,0,28.7-1.1,37.6-3.3c8.9-2.2,16.4-5,22.4-8.4c6-3.4,11.4-7.6,16.4-12.5c15.9-16.1,23.9-36.5,23.9-61.2  c0-24.2-8.2-43.9-24.5-59.2c-6-5.7-12.9-10.4-20.7-14c-7.8-3.7-15.2-6.1-22.2-7.3C429.7,87.6,418.5,87,403,87L403,87z M566.8,58.3  h127.8V87h-95.5v68.8h92.3v28.9h-92.3v70h98.6v28.7H566.8V58.3z M914.4,58h39l-90.2,108.7l96.5,116.7h-39L843.9,190l-77.5,93.5  h-39.4l97-116.7L733.9,58h39.4l70.8,86.1L914.4,58L914.4,58z M89.7,152.1l-27.1-47l27.1-47H144l27.1,47l-27.1,47H89.7z" fill="#0077AD"  /><path d="M183.1,94L156,47l27.2-47h54.3l27.1,47l-27.1,47H183.1z" fill="#78B5D7"  /><path d="M276.5,152.1l-27.1-47l27.1-47h54.3l27.1,47l-27.1,47H276.5z" fill="#0077AD"  /></svg>