<svg viewBox="0 0 830.6 283.5" role="img" aria-labelledby="pitches--title" xmlns="http://www.w3.org/2000/svg" xmlns:xlink="http://www.w3.org/1999/xlink"><title id="pitches--title">PITCHES</title><path d="M236.6,1.7c-48.5,8.6-92.5,39.8-95.5,92c-8,3-13.8,10.7-13.8,19.7c0,11.6,9.4,21,21,21c11.6,0,21-9.4,21-21  c0-9-5.7-16.7-13.7-19.7c0.1-0.1,0.1-0.1,0.1-0.2c0.4-24,9.8-45.6,26.4-63c8.2-8.6,18.3-15.2,28.9-20.5c3.1-1.5,6.3-2.8,9.5-3.9  c-5.8,2.1,5.3-1.1,8.1-1.6c7-1,14.1-1,21.2-0.7c45.8,2.2,86,35.9,93.4,80.4c1.4-0.6,3.9-1.2,3.8-2.8c-0.4-5.5,5.1-6.7,9.7-8.3  C344.2,22.1,289.1-7.6,236.6,1.7L236.6,1.7z M62.3,150.2c31.9,0,45.8,15.4,46.4,35.8c1.2,32.2-33.3,50.1-60,32.7l0-1.8  c-0.1-0.1,22.5,2.2,29-21.3c0.9-3.3,1.3-7.7,1.2-11.2c-0.5-15.9-9.1-26.3-24-26.3H42.4v109.2c0.1,6.5,5.4,11.7,11.9,11.7h2.4l0,1.9  H0l0-1.9h2.4c6.5,0,11.8-5.2,12-11.7V162.8c0-6.3-5.7-10.8-11.9-10.8H0.1l0-1.9C0.1,150.2,62.3,150.2,62.3,150.2z M178,280.8h-56.7  l0-1.9h2.4c6.5,0,11.8-5.2,12-11.7V163.7c-0.2-6.5-5.4-11.7-12-11.7h-2.4l0-1.9H178l0,1.9h-2.4c-6.5,0-11.8,5.2-11.9,11.6v103.6  c0.1,6.5,5.4,11.7,12,11.7h2.4L178,280.8L178,280.8z M307.4,179.2l-1.9,0v-2.2c0-11.4-7.2-18.8-18.7-19.1h-25.1v109.5  c0.2,6.4,5.5,11.6,12,11.6h2.4l0,1.9h-56.7l0-1.9h2.4c6.4,0,11.7-5.1,11.9-11.4V157.9h-25.1c-11.4,0.3-18.7,7.7-18.7,19.1v2.2  l-1.9,0v-32.5c3.4,1.5,14.1,3.3,22.1,3.4h75.1c8-0.1,18.7-1.9,22.1-3.4L307.4,179.2z M442.6,226.4l1.8,32.1  c-8.4,13.8-24.3,25-52.4,25c-45.8-0.2-75.7-25.5-75.7-68.1c0-41.7,28.8-67.7,76.2-67.7c19.9,0,35.8,4.6,46.4,10.1l0.4,32h-1.6  c-6.8-24.5-22.8-34.3-43.3-34.3c-29.6,0-47.7,22.8-47.7,59.5c0,36.9,17.5,59.9,45.3,60.7c28.7,0,43.3-12.5,49.1-49.2L442.6,226.4  L442.6,226.4z M549.2,280.8l0-1.9h2.4c6.5,0,11.8-5.2,12-11.6v-47.6h-60.5v47.5c0.1,6.5,5.4,11.7,12,11.7h2.4l0,1.9h-56.7l0-1.9h2.4  c6.5,0,11.8-5.2,12-11.7V163.8c-0.2-6.5-5.4-11.7-12-11.7h-2.4l0-1.9h56.7l0,1.9H515c-6.5,0-11.8,5.3-11.9,11.7v48.1h60.5v-48.1  c-0.2-6.4-5.5-11.7-12-11.7h-2.4l0-1.9h56.7l0,1.9h-2.4c-6.5,0-11.8,5.2-12,11.7v103.4c0.1,6.5,5.4,11.7,12,11.7h2.4l0,1.9  L549.2,280.8L549.2,280.8L549.2,280.8z M718,280.8h-96.6l0-1.9h2.4c6.5,0,11.8-5.2,12-11.7v-104c-0.4-6.2-5.6-11.1-11.9-11.1h-2.4  l0-1.9H693c8-0.1,18.8-1.9,22.3-3.4v32.6l-1.9,0v-2.2c0-11.2-7-18.6-18.2-19h-31.4v54.3h24.7c9.2-0.2,15.9-6.9,15.8-16v-1.6l1.8,0  V238l-1.8,0v-1.6c0-9-6.5-15.7-15.6-16h-25v52.5h24.5c18.6,0,30.7-11.6,36.5-30.1h1.9L718,280.8L718,280.8z M813.8,213.9  c11.1,7.2,17.5,17,16.8,30.9c-1.1,24.3-19.5,38.6-49.3,38.6c-16.7,0-32.4-4.3-39.2-11.3c-3.1-7.8-0.5-23.5,4.4-31.7h1.6  c-1.5,19.5,12.8,35.5,35.2,35.1c16.2-0.3,25.8-9.3,25.8-21c0-7.6-4.9-12.6-14.9-19.3l-32.5-21.6c-12.8-8.5-19.2-19.9-17.9-33.5  c1.6-19.3,15.7-32.7,39.3-32.7c6,0,16.9,0.8,25.4,1.9h11.7l-2.4,27.4h-1.8c0-13-10.5-21.5-26.3-21.5c-14.7,0-24,7.9-24.4,17.9  c-0.5,7.3,5.2,12.3,13,17.4L813.8,213.9L813.8,213.9z" fill="#328953"  /><path d="M310.4,41.1c-1.1-1.3-2.7-2-4.1-2.2c-2.4-0.4-4.4,0-6.2,0.8c-0.3,0.1-0.2-0.2-0.6-0.4  c-0.8-0.4-1.6-0.8-2.4-1.2c-1.3-0.6-2.7-1.1-4.1-1.5c-2.3-0.7-3.8-0.9-3.8-0.9c0,0-0.6-0.1-1.7-0.3c-1.1-0.1-2.7-0.4-4.9-0.2  c-2,0.2-4.3,0.6-6.7,1.4c-1.2,0.4-2.4,0.8-3.7,1.4c-0.6,0.3-1.2,0.6-1.9,0.9l-1.3,0.7c0,0,0,0,0,0l-0.5-0.2  c-1.1-0.4-2.2-0.6-3.3-0.6c-2.2-0.2-5.1,0.5-6.9,2.8c-0.8,1.1-1.3,2.3-1.4,3.7c-0.1,1.3,0.1,2.6,0.5,3.6c0.8,2,2,3.3,3,4.5l0.5,0.5  c0,0.9,0.1,1.8,0.2,2.6c0.2,1.6,0.6,2.9,0.9,3.8c1.5,4.5,4,7.2,6.4,9.3c2.4,2.1,5.1,3.7,8.3,5.1c-1.9-2.5-3.7-5-5.3-7.7  c-1.5-2.5-3.1-5-4.3-8.4c-0.3-0.9-0.5-1.9-0.7-2.9c-0.1-0.6-0.1-1.3-0.2-2l0-0.6l0-0.3l0,0v0l-0.8-2l0,0l0,0l0,0l-0.1-0.1l-0.1-0.1  l-0.9-0.9c-0.8-0.9-1.6-1.9-1.9-2.8c-0.2-0.5-0.2-0.8-0.2-1.1c0-0.4,0.2-0.7,0.3-0.9c0.3-0.4,1.1-0.8,2.3-0.7c0.6,0,1.2,0.1,1.8,0.4  c0.1,0,1.2,0.5,1.9,0.9c0.8,0.8,1.5-0.1,2.2-0.5c1.3-0.9,1.4-0.9,2-1.2c0.5-0.3,1-0.5,1.5-0.8c1-0.4,2-0.8,3.1-1.2  c2-0.6,4-1,5.5-1.2c1.4-0.2,2.8,0,3.7,0.1c0.9,0.1,1.4,0.2,1.5,0.2c0,0,1.2,0.2,3.2,0.8c1,0.3,2.2,0.7,3.4,1.3  c0.6,0.3,1.3,0.6,1.9,1c0.3,0.2,0.6,0.4,0.9,0.6l0.5,0.3l0.1,0l0,0l0,0c1.8,0.1,1.6,0.1,2.9,0.2l0.3-0.2c1.2-0.6,2.8-0.9,3.8-0.7  c1,0.2,1.3,0.6,1.5,1.6c0.1,0.8-0.6,2.2-1.7,3.4c-0.3,0.3-0.6,0.6-0.9,0.9l-0.5,0.5l-0.1,0.1c-0.3,0.5-0.8,1-0.8,1.8l0,0l0,0l0,0  l0,0.2l0,0.3c0,0.8-0.1,1.6-0.3,2.4c-0.8,4.8-3.3,8.1-4.6,9.7c-2.5,3-4.5,5.4-6.5,7.5c-1,1.1-2,2.2-3.1,3.2c-1.1,1-2.2,2.2-3.9,2.7  c1.8,0.3,3.5-0.3,5.1-0.8c1.5-0.6,2.9-1.3,4.3-2.1c2.8-1.7,5.4-3.9,8.2-7.2c1.2-1.4,2.2-2.9,3.1-4.4c1.3-2.4,2.2-5,2.7-7.8  c0.1-0.8,0.2-1.7,0.3-2.5c0-0.2,0.6-0.7,1-1.1c1.4-1.7,3.1-4,3-7.2C312.1,44,311.5,42.4,310.4,41.1L310.4,41.1z" fill="#328953"  /><path d="M302.9,133.3l-0.1-0.5c-0.1-0.7-0.1-1.3-0.3-2c-0.3-1.1-0.8-2.5-2.7-4.1c-0.5-0.4-1.1-0.8-1.8-1.1l-1.9-0.9  c-0.7-0.3-1.2-0.7-1.6-1c0,0,0-0.2-0.4-1.2c-0.4-1-0.9-1.9-1.3-2.8c-1-1.8-2.1-3.4-2.9-5.1c-0.4-0.8-0.8-1.6-1-2.4  c-0.2-0.7-0.4-1.6-0.5-2.6c-0.3-1.9-0.4-3.8-0.5-5.6c-0.1-3.7-0.1-7.2-0.3-9.7l-0.1-1l-0.1-1.2c-0.1-1-0.2-1.8-0.3-2.4  c-0.2-1.3-0.3-1.9-0.3-1.9c0,0-0.4-2.4-1.6-5.1c-0.3-0.7-0.6-1.5-1-1.7c-0.4-0.8-1.2,1.7-1.1-0.5c0-0.3-0.1-0.7-0.1-0.8l-0.3-0.3  c-0.1-0.1-0.2-0.2-0.3-0.2l-0.4,0.7c-0.1,0.3-0.3,0.4-0.5,0.8l-0.5,1.3c-0.3,0.8-0.6,1.8-1,2.8c-0.6,1.7-1.3,3.5-2.1,5.1  c-0.8,1.7-1.1,2.1-1.5,2.9c-0.1,0.2-0.2,0.4-0.4,0.6c-0.4,0.5-0.9,0.9-1.3,1.4c-2,2.2-4.2,4.3-7,7.1c-2,1.9-4,3.7-6.1,5.5l-3.1,2.6  c-0.1,0.1-0.2,0.1-0.2,0.3l0,0.4l0,0.8l0,1.6l-0.1,1.2c-0.1,1.6-0.4,3.3-0.5,5.2c-0.1,1.9,0,4.3,1.2,6.6c0.6,1.1,1.5,2.1,2.4,2.8  l0.7,0.5l0.5,0.3l0,0c0,0,0.1,0,0,0l-8.4,0c-1.4,0-0.9,0-1,0l-1.1-1.5c-1.1-1.5-2.1-3.1-3.1-4.7c-1.9-3.1-3.6-6.3-4.8-9.7  c-0.2-0.4-0.3-0.8-0.4-1.2l-0.3-0.8l-0.4-1.3l-0.4-1.3c-0.3-0.3-0.8-0.3-1.3-0.4l-2.2-0.5c-1.7-0.4-3.4-0.9-5.1-1.4  c-3.4-1.1-6.6-2.3-9.8-3.6c0,0-1.9-0.8-2.3-1c-0.5-0.2-0.3-0.5-0.3-0.5s0-0.1,1.2-3.3c1.3-3.4,0.4-0.8,0.4-0.8  c0.4-0.9,1-2.5,0.8-2.1l-0.2-0.7c-0.2-0.6-0.4-1.1-0.7-1.7c-0.4-0.9-1.1-1.9-1.8-2.8c-0.1-0.1-0.3-0.3-0.4-0.4l-0.7-0.7l-0.5-0.5  l-0.8-0.7l-0.5-0.4c0.1,0-1.4,1.5-1.4,1.5c0,0,0,0.5,0,0.7l0.1,1.6l0.1,3.1l0.1,3.1l0.1,1.5c0,0,0,0.4,0,0.5c0,0-0.5,1.3-0.8,1.8  l-0.4-0.2l-0.4-0.2c-0.1,0,0,0.3,0.1,0.4l0.2,0.9c-0.8,1.5-1.6,2.5-1.8,2.8l-1.7,2.4c-2.2,2.9-3.4,4.8-3.4,4.8l-5.5,8.6  c-0.6,0.9-1.2,1.7-1.9,2.5c-0.3,0.4-0.7,0.8-1.1,1.2l-0.3,0.3l-0.1,0.1c1,2-2.2-4.5,2.2,4.6h0l0,0l0.2,0c0.2,0,0.5,0,0.7,0  c0.4,0,1,0.1,1.2,0.1l0,0c0,0,0,0,0,0.1c0,0,0,0-0.1,0h-3.6l-8.5,0l-0.7-8.9c-0.3-3.9-0.6-8-0.7-12c-0.3-8.1,0.2-16.3,2.6-24  c2.3-7.6,6.7-14.4,12.6-18.7c5.9-4.4,13-6.3,19.5-6.9c0.8-0.1,1.6-0.1,2.4-0.2l1.6-0.1l1.4,0l2.6,0L238,59c4.4,0.1,7.8-0.7,10.8-1.6  c3-1,5.7-2.2,8.9-3.8c-7.1-0.4-16.2,0-19.5,0l-3.9-0.2l-2.8,0l-1.5,0l-1.7,0.1c-0.9,0.1-1.8,0.1-2.7,0.2c-7.1,0.7-15.3,2.8-22.2,7.9  c-7,5-12.1,13-14.6,21.4c-2.6,8.5-3.1,17.4-2.9,25.7c0.1,4.2,0.4,8.3,0.7,12.3l0.4,5.9l0.2,2.9l0.2,2.7l0.1,1.4l0,0.7  c0,0.1-0.1,0.3,0.1,0.3h0.4l13.1,0h2.6c0.5,0,0.7,0,1.4,0l2.1-0.2l4-0.4c1.1-0.2,3.4,0.2,2.1-1.4c-1-2.3-1.7-4.6-3.5-6.5  c-0.7-0.7-1.5-1.2-2.4-1.6c0.3-0.4,0.5-0.7,0.7-1.1v0l5.6-8.7c0,0,1-1.6,3.2-4.6l0.9-1.3l0.6,2.5l1.3,5.5c1.3,5.5,3.1,10,4.5,12.1  c0.5,1,1.2,1.9,1.9,2.7l0.5,0.6l0.7,0.8l0.9,0.9c0.2,0.1,0.3,0.3,0.5,0.4l0.6,0c2,0,2.3-0.1,3.2-0.2l2.3-0.3c3.1-0.5,5.9-1.1,9.4-2  c-3.4-0.9-6.3-1.5-9.4-2l-2.3-0.3c-0.7-0.1-2-0.2-1.7-0.2c0,0,0-0.1,0-0.1l0,0l-0.2-0.2l-0.3-0.5c-0.5-0.7-0.9-1.4-1.4-2.2  c-1-1.7-2.6-5.6-3.9-10.8l-1.3-5.4l-0.1-0.4l0,0l0,0c0,0,0,0,0,0l0,0l0,0l0,0l0.5,0.2l1,0.4c2.8,1.1,6.3,2.1,8.7,2.8  c1.3,0.4,1.6,0.5,1.7,0.5c0,0,0,0,0,0c0,0,0,0,0,0c0,0.1,0,0.4-0.1,0.6c-0.1,0.4-0.2,0.8-0.2,1.2c-0.4,1.7-1.2,3.4-1.5,5.5  c-0.4,2.2,0.1,4.5,1.5,6.2c1.5,1.7,3.2,2.2,4.6,2.6c1.5,0.5,2.9,0.9,4.3,2c-1.3-3.4-5.2-5-5.7-6.9c-0.3-0.9-0.3-1.9,0.1-3  c0.3-1.1,1-2.4,1.6-4.3c1.2,2.8,2.7,5.5,4.3,8c1,1.7,2.1,3.3,3.2,4.9l2.2,3.2l0.4,0.6c0,0.1,0.2,0.2,0.3,0.1h3.6l5.7,0  c1,0,1.8,0,2.9,0l4.2-0.5l4.2-0.5l2.1-0.3l0.5-0.1c0.1,0,0.1-0.1,0-0.1l-0.1-0.2l-0.4-0.9c-0.6-1.1-0.9-1.9-1.7-2.9  c-0.7-0.9-1.8-1.9-3.4-2.9l-2.4-1.4l-0.7-0.4l-0.4-0.3c-0.5-0.4-0.9-0.8-1.1-1.3c-0.5-0.9-0.7-2.2-0.6-3.7c0.1-1.5,0.4-3.3,0.5-5.1  c0.1-1.5,0.1-1.8,0.1-1.9l0.4-0.4c0.2,0.6,0.5,1.2,0.8,1.8c1,2.1,2.1,3.6,2.8,4.6c2.6,3.5,5,5.6,7,7.7c1,1.1,2.1,2.2,3.3,3.3  c1.2,1,2.6,2.2,4.3,2.8c-1.2-1.3-1.8-2.8-2.4-4.1c-0.6-1.4-1.2-2.8-1.9-4.2c-1.5-2.9-3.6-5.5-5.9-8.6c-0.6-0.9-1.5-2.1-2.3-3.8  c-0.3-0.6-0.5-1.2-0.7-1.8l1.2-1.1c2.5-2.3,5.2-5.2,7.6-8.4c1.2-1.6,2.3-3.2,3.3-5c0.4-0.6,0.7-1.3,1.1-1.9l0-0.1c0-0.2,0.1,0,0.1,0  l0.1,1.2c0.1,2.4,0.1,5.7,0.3,9.6c0.1,1.9,0.2,4,0.5,6.2c0.2,1.1,0.3,2.2,0.7,3.4c0.4,1.2,0.8,2.3,1.3,3.3c1,2,2.1,3.7,3,5.2  c0.4,0.8,0.8,1.5,1,2.1c0.1,0.3,0.2,0.5,0.4,1.4l0.1,0.5c0.1,0.2,0.3,0.3,0.4,0.5c0.3,0.3,0.5,0.6,0.8,0.9c1,0.9,2,1.4,2.8,1.9  l0.3,0.1l0,0l0.1,0c0.1,0,0.2,0.1,0.1,0.2c0,0.1-0.1,0.1-0.2,0.2l-2.3,0.3c-3.1,0.5-5.9,1.1-9.4,2c3.4,0.9,6.3,1.5,9.4,2  c0.8,0.1,1.5,0.2,2.4,0.3c1.2-0.1,2.4-0.2,3.5-0.3l4-0.5l1.1-0.2l0.3,0C302.9,133.4,302.9,133.3,302.9,133.3L302.9,133.3z" fill="#328953"  /><g><path d="M278.2,67.3c0.1,0.9-0.2,2,0,3c0.8,4.1,8.4,4.1,10.7,1.8c1.1-1.1,0.9-2.5,1-4.4c0-1.3,0.6-2.7,0.6-4   c0-2.5-0.8-4.6-1.4-6.9c1,2.7,0,8.2-0.1,10.9c0,0.8,0.2,1.6,0.1,2.2c-0.3,2.1-2.4,2-4.7,1.6c-0.4-0.1-0.1-0.9-0.4-1.1   c0,0.5,0,1-0.3,1.1c-0.9,0.3-2.2,0.1-3.3,0.1c-1.6-0.6-1-2.6-1.2-4.7c-0.3-3.1-0.9-7.3-0.1-10.2C277.6,60.5,278,63.8,278.2,67.3z    M266.3,46.3c-0.1,0-0.2,0.1-0.1,0.3c0.7,2,2.5,3,2.8,5.5C271.1,49.9,268.9,46.3,266.3,46.3z M300.9,52.1c-0.2-2.5,2.1-3.5,2.6-5.6   C301,45.8,298.3,50.2,300.9,52.1z M273.8,53.3c0.1,2.3,3.4,1.8,3.9,0.1C277,52.4,274.5,51.8,273.8,53.3z M294.3,53.3   c-0.3-1.6-3.2-0.9-3.9,0.1C291,55.4,294.7,55.3,294.3,53.3z" fill="#328953"  /><path d="M280,66.4c-0.5,5.1,9.2,4.8,8.1-0.4c-0.4-1.8-2.7-2.2-4.8-1.9C281.2,64.3,280.1,65.2,280,66.4z" fill="#328953"  />
	
	
</g><g><path d="M357.7,97.1c-1.3-1.6-2.4-3.3-3.5-5c-1-1.6-2-3.3-2.8-5.5c-0.2-0.6-0.3-1.2-0.4-1.9   c-0.1-0.4-0.1-0.9-0.1-1.3l0-0.4l0-0.2l0,0v0l-0.5-1.3l0,0l0,0l0,0l-0.1-0.1l-0.6-0.6c-0.5-0.6-1-1.2-1.2-1.8   c-0.1-0.3-0.1-0.5-0.1-0.7c0-0.3,0.1-0.4,0.2-0.6c0.2-0.3,0.7-0.5,1.5-0.5c0.4,0,0.8,0.1,1.2,0.2c0,0,0.8,0.3,1.2,0.6   c0.5,0.5,1-0.1,1.4-0.3c0.9-0.6,0.9-0.6,1.3-0.8c0.3-0.2,0.7-0.3,1-0.5c0.7-0.3,1.4-0.6,2-0.8c1.2-0.4,2.4-0.6,3.6-0.8   c1.9-0.1,3.4,0.3,3.4,0.2c0,0,0.8,0.1,2.1,0.5c0.6,0.2,1.4,0.5,2.2,0.8c0.4,0.2,0.8,0.4,1.2,0.6l0.6,0.4l0.3,0.2l0,0l0,0l0,0   c0.8,0.1-1.9-0.1,1.9,0.1l0,0l0.1,0l0.1-0.1c0.8-0.4,1.8-0.6,2.5-0.5c0.7,0.1,0.9,0.4,1,1c0.1,0.5-0.4,1.4-1.1,2.2   c-0.2,0.2-0.3,0.4-0.6,0.7c-0.5,0.4-0.7,0.9-0.8,1.4c-0.1,1.2-0.1,1.4-0.2,2c-0.5,3.1-2.1,5.2-3,6.3c-1.6,1.9-3,3.5-4.2,4.9   c-0.7,0.7-1.3,1.4-2,2.1c-0.7,0.7-1.4,1.4-2.5,1.8c1.2,0.2,2.3-0.2,3.3-0.5c1-0.4,1.9-0.8,2.8-1.4c1.8-1.1,3.5-2.5,5.3-4.7   c1-1.1,3.1-3.9,3.7-7.9c0.1-0.6,0.2-1.5,0.2-1.5c0-0.2,0-0.2,0-0.1l0.6-0.7c0.9-1.1,2-2.6,2-4.7c-0.1-1-0.4-2-1.2-2.9   c-0.7-0.8-1.7-1.3-2.6-1.4c-1.6-0.3-2.9,0-4,0.5l-0.4-0.3c-0.5-0.3-1-0.5-1.5-0.8c-0.9-0.4-1.8-0.7-2.7-1c-1.5-0.4-2.5-0.6-2.5-0.6   c0,0-1.5-0.4-4.3-0.3c-1.5,0.2-2.9,0.5-4.3,0.9c-0.8,0.2-1.6,0.5-2.4,0.9c-0.4,0.2-0.8,0.4-1.2,0.6l-0.8,0.5l0,0l-0.3-0.1   c-0.7-0.2-1.4-0.4-2.1-0.4c-1.4-0.1-3.3,0.4-4.5,1.8c-0.5,0.7-0.8,1.5-0.9,2.4c-0.1,0.8,0.1,1.7,0.3,2.3c0.5,1.3,1.3,2.2,1.9,2.9   l0.3,0.3c0,0.6,0.1,1.1,0.2,1.7c0.1,1,0.4,1.9,0.6,2.5c1,2.9,2.6,4.7,4.1,6C353.9,95.2,355.6,96.2,357.7,97.1L357.7,97.1z" fill="#8CBB94"  /><path d="M358.6,92.4c0,0.6-0.1,1.3,0,2c0.6,2.7,5.4,2.7,7,1.2c0.7-0.7,0.6-1.6,0.6-2.9c0-0.9,0.4-1.7,0.4-2.6   c0-1.6-0.5-3-0.9-4.5c0.6,1.8,0,5.3-0.1,7.1c0,0.5,0.2,1,0.1,1.4c-0.2,1.4-1.6,1.3-3,1.1c-0.2-0.1-0.1-0.6-0.3-0.7   c0,0.3,0,0.6-0.2,0.7c-0.6,0.2-1.4,0-2.1,0.1c-1.1-0.4-0.7-1.7-0.8-3c-0.2-2-0.6-4.8-0.1-6.6C358.2,88,358.4,90.1,358.6,92.4   L358.6,92.4z M350.8,78.8c-0.1,0-0.1,0.1-0.1,0.2c0.5,1.3,1.6,1.9,1.8,3.6C354,81.1,352.5,78.8,350.8,78.8z M373.4,82.5   c-0.2-1.6,1.3-2.3,1.7-3.7C373.4,78.5,371.7,81.3,373.4,82.5z M355.8,83.3c0.1,1.5,2.2,1.2,2.5,0.1   C357.8,82.7,356.2,82.3,355.8,83.3z M369.1,83.3c-0.2-1-2.1-0.6-2.5,0.1C366.9,84.7,369.3,84.6,369.1,83.3z" fill="#8CBB94"  /><path d="M359.8,91.8c-0.3,3.3,6,3.1,5.3-0.3c-0.2-1.1-1.8-1.4-3.1-1.3C360.5,90.4,359.9,91,359.8,91.8z    M374.7,135.3l0-0.3c-0.1-0.5-0.1-0.9-0.2-1.3c-0.2-0.7-0.5-1.7-1.8-2.7c-0.3-0.3-0.7-0.5-1.1-0.7l-1.2-0.6c-0.4-0.2-0.8-0.5-1-0.6   c0,0,0.1,0.1-0.3-0.8c-0.2-0.6-0.5-1.3-0.9-1.8c-0.6-1.2-1.3-2.2-1.9-3.3c-0.6-1.1-0.8-2-1-3.2c-0.2-1.2-0.2-2.5-0.3-3.7   c-0.1-2.4-0.1-4.7-0.2-6.3c-0.1-1-0.2-2.1-0.3-3c-0.1-0.8-0.2-1.3-0.2-1.3c0,0.1-0.3-1.6-1-3.3l-0.3-0.6l-0.2-0.3   c0-0.1-0.1-0.1-0.1-0.2l-0.1,0.1c-0.3,0.1-0.7,0.6-0.8-0.2l-0.3-0.8c0-0.1-0.1-0.3-0.1-0.3l-0.3,0.6c-0.4,0.9-0.8,1.6-1.2,2.9   l-0.6,1.8l-0.7,1.5c-0.6,1.2-0.7,1.4-1,2c-0.1,0.2-0.2,0.3-0.3,0.5c-1.5,1.7-3.1,3.2-5.3,5.4c-0.9,0.9-1.9,1.8-2.9,2.6l-2.3,1.9   l-0.6,0.5c-0.2,0.2-0.5,0.3-0.4,0.6c0,0.2,0,1.7,0,2.4c-0.1,1.6-0.6,3.4-0.2,5.7c0.2,1.2,0.8,2.4,1.7,3.3c0.4,0.4,1,0.8,1.3,1.1   l0,0c0,0,0,0,0,0l-2.6,0h-3.5l-0.3-0.4c-2.2-3.2-4.2-6.3-5.5-9.6c-0.2-0.4-0.3-0.8-0.5-1.3l-0.6-2.1l-2.5-0.6l-1.3-0.4   c-1.7-0.5-3.4-1-5.1-1.7l-2.6-1l-0.6-0.3c0,0,0,0,0,0c0,0,0,0,0,0c0.2-0.5,0.3-1.2,0.3-1.7c0.1-0.9,0.1-2.2-0.2-3.2v0   c-0.6-2-3.3-5-3.3-5c-1.1,0.4-1.7,1.5-2.3,2.6l0,0l0,0l0.5,0.6c0.2,0.2,0.3,0.5,0.4,0.7c0.2,0.5,0.3,1,0.3,1.5   c0,1.1-0.3,2.2-0.8,3.2l-0.2-0.1c-0.1,0,0,0.2,0,0.2l0,0.1c-0.4,0.8-0.9,1.6-1.3,2.3l-3.6,5.4c0,0-1.1,1.9-3.1,4.8h0   c-0.3,0.5-2.1,2.6-2.1,2.6l0,0l0,0c0.5,1,1,2,1.5,3.1H309l-6,0c0,0,0,0,0,0l-0.1-1.4l-0.3-3.8c-0.2-2.6-0.4-5.2-0.5-7.8   c-0.2-5.3,0.1-10.6,1.5-15.7c1.4-5,4.2-9.5,8-12.4c3.8-2.9,8.5-4.3,12.7-4.7l2.9-0.2c0.3,0,2.6,0,2.6,0l2.6,0.1   c5.8,0,8.6-1.6,12.8-3.5c-4.6-0.3-7.7,0.1-12.7,0l-4.4-0.1c-0.3,0-2.4,0.1-2.4,0.1l-1.7,0.1c-4.7,0.5-10,2-14.5,5.4   c-4.5,3.4-7.7,8.7-9.3,14.2c-1.6,5.5-1.9,11.3-1.7,16.8c0.1,2.7,0.3,5.4,0.5,7.9l0.3,3.8l0.2,2.4c0,0,0.1,2.1,0.2,2.2h1.4l7.9,0   l1.6,0c0.2,0,0.8-0.1,1.2-0.1l1.3-0.1l2.6-0.2l0.6-0.1c0.2,0,0.5,0,0.3-0.2l-0.5-1.1c-0.6-1.4-1.1-2.9-2.5-4   c-0.3-0.3-0.8-0.5-1.2-0.7c0.2-0.2,0.3-0.5,0.5-0.7h0c2.1-3.2,3.1-4.9,3.1-4.9c0,0,1.9-2.9,3.1-4.7l0.4,1.8l0.8,3.6   c0.8,3.5,2.1,6.5,2.9,7.9c0.4,0.6,0.8,1.2,1.2,1.8c0.3,0.3,0.3,0.4,0.8,0.9l0.6,0.6c0.1,0.1,0.2,0.2,0.3,0.3l0.4,0   c1.3,0,1.5-0.1,2.1-0.1l1.5-0.2c2-0.3,3.9-0.7,6.1-1.3c-2.2-0.6-4.1-1-6.1-1.3l-1.5-0.2c-0.5-0.1-1.3-0.1-1.1-0.1c0,0,0,0,0-0.1   c0,0-0.3-0.3-0.4-0.5c-0.3-0.4-0.6-0.9-0.9-1.4c-0.7-1.1-1.7-3.6-2.5-7l-0.8-3.5c-0.1-0.4-0.1-0.2-0.1-0.3c0,0,0,0,0,0l0,0l0,0l0,0   l0.3,0.1l0.7,0.3c1.8,0.7,4.1,1.4,5.7,1.8l1,0.3l0.2,0.1l0,0v0c0,0.1,0,0.3,0,0.4c0,0.3-0.1,0.5-0.2,0.8c-0.3,1.1-0.8,2.2-1,3.6   c-0.2,1.4,0,3,1,4.1c2,2.1,4,1.5,5.8,3c-0.9-2.2-3.4-3.3-3.7-4.5c-0.2-0.5-0.2-1.2,0.1-1.9c0.2-0.7,0.6-1.6,1-2.8   c1.4,3.3,3.3,6.3,5.3,9.1c0.2,0.2,0.8,1.4,1.4,1.9h5.2c1,0,1.8,0,3,0l4.3-0.5l2.1-0.2c0,0,0.6-0.1,0.6-0.2l-0.6-1.1   c-0.6-1-1-1.9-2.4-2.9c-0.7-0.5-1.6-0.9-2.3-1.4c-0.4-0.3-0.6-0.4-0.8-0.6c-0.4-0.4-0.6-0.9-0.7-1.5c-0.2-1.2,0.1-3,0.3-4.8l0-0.7   l0-0.5v0l0,0l0.3-0.2c0.2,0.4,0.3,0.8,0.5,1.1c0.7,1.4,1.4,2.4,1.8,3c1.7,2.3,3.2,3.6,4.5,5c1.4,1.4,2.7,3,4.9,3.9   c-1.5-1.8-1.9-3.6-2.8-5.4c-1-1.9-2.3-3.6-3.8-5.6c-0.4-0.6-1-1.4-1.5-2.4c-0.2-0.4-0.4-0.8-0.5-1.2c-0.1-0.2,0.8-0.7,0.8-0.7   c1.6-1.5,3.4-3.4,5-5.5c1.2-1.5,2.7-4.1,2.9-4.5c0,0,0,0,0,0l0,0.7c0.1,1.5,0.1,3.7,0.2,6.2c0,1.3,0.1,2.6,0.3,4   c0.1,1.3,0.6,3.1,1.3,4.3c0.7,1.3,1.4,2.4,1.9,3.4c0.3,0.5,0.5,1,0.7,1.4c0.1,0.2,0.2,1.5,1.1,2.1c0.7,0.6,1.3,0.9,1.8,1.2l0.2,0.1   l0,0c0,0,0.1,0.1,0.1,0.1c0,0-0.1,0.1-0.1,0.1l-1.5,0.2c-2,0.3-3.9,0.7-6.1,1.3c2.2,0.6,4.1,1,6.1,1.3c0.5,0.1,1,0.1,1.5,0.2   c0.8,0,1.5-0.1,2.3-0.2l2.6-0.3l0.7-0.1l0.2,0C374.7,135.4,374.7,135.4,374.7,135.3L374.7,135.3z" fill="#8CBB94"  />
	
	
	
</g></svg>