<svg viewBox="0 0 657.4 283.5" role="img" aria-labelledby="sift--title" xmlns="http://www.w3.org/2000/svg" xmlns:xlink="http://www.w3.org/1999/xlink"><title id="sift--title">SIFT - Speed of Increasing Milk Feeds</title><path d="M37.2,193.5c-10.3-0.1-18.4-3-24.2-8.7c-5.9-5.8-8.8-13.9-8.8-24.1C4.3,140.2,16.4,128,36.6,128l17.4-0.1  C11.3,118.8,4.2,86.6,4.2,66.3C4,47.2,9.5,31.9,20.4,20.8C33.2,8,53,1.4,79.4,1.4h63.3c20.5,0.1,32.9,12.4,33.1,33  c0,20.8-12.1,33.2-32.3,33.3l-13.3,0c38.9,10.5,45.7,41.7,45.8,61.7c0,23.8-9.8,63.8-75.6,64.1h-0.1  C100.4,193.5,37.2,193.5,37.2,193.5z" fill="#4A3C7A"  /><path d="M163.8,34.5c0,14-6.8,21.1-20.3,21.1l-64-0.1C65.3,55.7,58.2,59.2,58,66.3c0.2,6.7,7.4,10,21.6,9.9h20.7  c42.3,0.1,63.5,17.9,63.7,53.3c0,34.4-21.2,51.7-63.6,51.9H37.2c-14-0.1-21-6.9-20.9-20.6c0.1-13.9,7-20.9,20.7-20.7l63.4-0.3  c14.2-0.1,21.2-3.7,21.2-10.8c0-7.2-7.1-10.7-21.4-10.6H79.5c-42.1-0.1-63.2-17.4-63.2-52C16,31.1,37.1,13.5,79.5,13.5h63.3  C156.6,13.5,163.7,20.6,163.8,34.5L163.8,34.5z" fill="#FFFFFF"  /><path d="M37.2,193.5c-10.3-0.1-18.4-3-24.2-8.7c-5.9-5.8-8.8-13.9-8.8-24.1C4.3,140.2,16.4,128,36.6,128l17.4-0.1  C11.3,118.8,4.2,86.6,4.2,66.3C4,47.2,9.5,31.9,20.4,20.8C33.2,8,53,1.4,79.4,1.4h63.3c20.5,0.1,32.9,12.4,33.1,33  c0,20.8-12.1,33.2-32.3,33.3l-13.3,0c38.9,10.5,45.7,41.7,45.8,61.7c0,23.8-9.8,63.8-75.6,64.1h-0.1  C100.4,193.5,37.2,193.5,37.2,193.5z" fill="#4A3C7A"  /><path d="M163.8,34.5c0,14-6.8,21.1-20.3,21.1l-64-0.1C65.3,55.7,58.2,59.2,58,66.3c0.2,6.7,7.4,10,21.6,9.9h20.7  c42.3,0.1,63.5,17.9,63.7,53.3c0,34.4-21.2,51.7-63.6,51.9H37.2c-14-0.1-21-6.9-20.9-20.6c0.1-13.9,7-20.9,20.7-20.7l63.4-0.3  c14.2-0.1,21.2-3.7,21.2-10.8c0-7.2-7.1-10.7-21.4-10.6H79.5c-42.1-0.1-63.2-17.4-63.2-52C16,31.1,37.1,13.5,79.5,13.5h63.3  C156.6,13.5,163.7,20.6,163.8,34.5L163.8,34.5z" fill="#FFFFFF"  /><path d="M268.2,193.7c-20.6,0-33-12.1-33.1-32.4V34.5C235.2,14,247.5,1.6,268,1.2l106.7,0.2  c19.9,0.3,31.7,12.4,31.8,32.4c0,16.7-7.8,28.1-21.5,32.2c13.6,4,21.4,15.2,21.5,31.4c-0.3,20.9-12.7,33.2-33,33.2l-72,0.1v30  c-0.1,20.5-12.5,32.8-33.1,33L268.2,193.7L268.2,193.7z" fill="#4A3C7A"  /><path d="M268.2,13.3l106.4,0.2c13.1,0.2,19.7,7,19.8,20.4c0,14.3-7.1,21.6-21.2,21.8h-83.8v20.8h84.1  c13.9,0.2,20.9,7.2,20.9,21c-0.2,14-7.2,21-20.9,21l-84.1,0.1v42.1c-0.1,13.8-7.1,20.8-21.1,20.9c-13.9,0-21-6.8-21-20.4V34.5  C247.3,20.6,254.3,13.5,268.2,13.3L268.2,13.3z" fill="#FFFFFF"  /><path d="M268.2,193.7c-20.6,0-33-12.1-33.1-32.4V34.5C235.2,14,247.5,1.6,268,1.2l106.7,0.2  c19.9,0.3,31.7,12.4,31.8,32.4c0,16.7-7.8,28.1-21.5,32.2c13.6,4,21.4,15.2,21.5,31.4c-0.3,20.9-12.7,33.2-33,33.2l-72,0.1v30  c-0.1,20.5-12.5,32.8-33.1,33L268.2,193.7L268.2,193.7z" fill="#4A3C7A"  /><path d="M268.2,13.3l106.4,0.2c13.1,0.2,19.7,7,19.8,20.4c0,14.3-7.1,21.6-21.2,21.8h-83.8v20.8h84.1  c13.9,0.2,20.9,7.2,20.9,21c-0.2,14-7.2,21-20.9,21l-84.1,0.1v42.1c-0.1,13.8-7.1,20.8-21.1,20.9c-13.9,0-21-6.8-21-20.4V34.5  C247.3,20.6,254.3,13.5,268.2,13.3L268.2,13.3z" fill="#FFFFFF"  /><g><path d="M488.8,193.7c-20.7,0-33.1-12.1-33.1-32.5l0.1-93.5h-19.4c-20.7,0-33.1-12.4-33.1-33.2   c0.1-20.5,12.4-32.9,32.9-33.3l106.7,0.2c19.9,0.3,31.7,12.4,31.8,32.4c0,20.9-12.4,33.6-33.1,33.9h-19.5l0.1,93   c-0.2,20.5-12.6,32.8-33.1,33L488.8,193.7L488.8,193.7z" fill="#4A3C7A"  /><path d="M436.3,13.3l106.4,0.2c13.1,0.2,19.7,7,19.8,20.4c0,14.3-7.1,21.6-21.2,21.8h-31.4l0.1,105   c-0.1,13.8-7.2,20.8-21.1,20.9c-14,0-21-6.8-21-20.4l0.1-105.6h-31.5c-14,0-21-7-21-21.1C415.4,20.6,422.4,13.5,436.3,13.3   L436.3,13.3z" fill="#FFFFFF"  /><path d="M488.8,193.7c-20.7,0-33.1-12.1-33.1-32.5l0.1-93.5h-19.4c-20.7,0-33.1-12.4-33.1-33.2   c0.1-20.5,12.4-32.9,32.9-33.3l106.7,0.2c19.9,0.3,31.7,12.4,31.8,32.4c0,20.9-12.4,33.6-33.1,33.9h-19.5l0.1,93   c-0.2,20.5-12.6,32.8-33.1,33L488.8,193.7L488.8,193.7z" fill="#4A3C7A"  /><path d="M436.3,13.3l106.4,0.2c13.1,0.2,19.7,7,19.8,20.4c0,14.3-7.1,21.6-21.2,21.8h-31.4l0.1,105   c-0.1,13.8-7.2,20.8-21.1,20.9c-14,0-21-6.8-21-20.4l0.1-105.6h-31.5c-14,0-21-7-21-21.1C415.4,20.6,422.4,13.5,436.3,13.3   L436.3,13.3z" fill="#FFFFFF"  />
	
	
	
	
</g><g><path d="M537.6,229.2H5.9c-3.3,0-5.9-2.8-5.9-6.1c0-3.2,2.7-5.8,5.9-5.9h529.2l61.2-63.1c2.3-2.3,6.1-2.3,8.5,0   c2.3,2.3,2.3,6,0.1,8.3l-63,65C540.8,228.6,539.2,229.2,537.6,229.2z M588.5,229.2c-3.3,0-6-2.7-6-6c0-1.6,0.6-3,1.7-4.2l63-65   c2.3-2.4,6.1-2.4,8.5-0.1c2.4,2.3,2.4,6.1,0.1,8.5l-63,65C591.6,228.6,590.1,229.2,588.5,229.2z" fill="#9081AE"  />
	
</g><g><path d="M7.6,266.7l3.4-0.3c0.2,1.4,0.5,2.5,1.1,3.4c0.6,0.9,1.5,1.6,2.7,2.1c1.2,0.5,2.6,0.8,4.2,0.8   c1.4,0,2.6-0.2,3.7-0.6c1.1-0.4,1.8-1,2.4-1.7c0.5-0.7,0.8-1.5,0.8-2.3c0-0.8-0.2-1.6-0.7-2.2c-0.5-0.6-1.3-1.2-2.5-1.6   c-0.7-0.3-2.4-0.7-4.9-1.3c-2.5-0.6-4.3-1.2-5.3-1.7c-1.3-0.7-2.3-1.5-2.9-2.5c-0.6-1-1-2.1-1-3.4c0-1.4,0.4-2.7,1.2-3.9   c0.8-1.2,1.9-2.1,3.4-2.7c1.5-0.6,3.2-0.9,5-0.9c2,0,3.8,0.3,5.4,1c1.5,0.7,2.7,1.6,3.6,2.9c0.8,1.3,1.3,2.7,1.3,4.3l-3.5,0.3   c-0.2-1.7-0.8-3-1.9-3.9c-1.1-0.9-2.7-1.3-4.8-1.3c-2.2,0-3.8,0.4-4.8,1.2c-1,0.8-1.5,1.8-1.5,2.9c0,1,0.4,1.8,1.1,2.4   c0.7,0.6,2.5,1.3,5.4,1.9c2.9,0.7,4.9,1.2,6,1.7c1.6,0.7,2.8,1.7,3.5,2.8c0.8,1.1,1.1,2.4,1.1,3.9c0,1.5-0.4,2.8-1.2,4.1   c-0.8,1.3-2,2.3-3.6,3c-1.6,0.7-3.3,1.1-5.3,1.1c-2.5,0-4.5-0.4-6.2-1.1c-1.7-0.7-3-1.8-3.9-3.2C8.2,270.1,7.7,268.5,7.6,266.7   L7.6,266.7z M33.9,283v-27.4h3.1v2.6c0.7-1,1.5-1.8,2.4-2.3c0.9-0.5,2-0.8,3.3-0.8c1.7,0,3.2,0.4,4.5,1.3c1.3,0.9,2.3,2.1,2.9,3.7   c0.7,1.6,1,3.3,1,5.2c0,2-0.4,3.8-1.1,5.5c-0.7,1.6-1.8,2.9-3.2,3.7c-1.4,0.9-2.8,1.3-4.4,1.3c-1.1,0-2.1-0.2-3-0.7   c-0.8-0.4-1.6-1-2.2-1.8v9.6L33.9,283L33.9,283L33.9,283z M36.9,265.7c0,2.5,0.5,4.4,1.5,5.6c1,1.2,2.3,1.8,3.7,1.8   c1.5,0,2.8-0.6,3.8-1.9c1.1-1.3,1.6-3.2,1.6-5.9c0-2.5-0.5-4.4-1.6-5.7c-1-1.3-2.3-1.9-3.7-1.9c-1.4,0-2.7,0.7-3.8,2   C37.5,261.2,36.9,263.1,36.9,265.7z M68.6,269.1l3.5,0.4c-0.5,2-1.6,3.6-3,4.7s-3.4,1.7-5.7,1.7c-2.9,0-5.2-0.9-6.9-2.7   c-1.7-1.8-2.5-4.3-2.5-7.5c0-3.3,0.9-5.9,2.6-7.7c1.7-1.8,3.9-2.8,6.7-2.8c2.6,0,4.8,0.9,6.5,2.7c1.7,1.8,2.5,4.3,2.5,7.6   c0,0.2,0,0.5,0,0.9H57.4c0.1,2.2,0.7,3.8,1.8,5c1.1,1.2,2.5,1.7,4.1,1.7c1.2,0,2.3-0.3,3.1-1C67.4,271.5,68.1,270.5,68.6,269.1z    M57.6,263.7h11c-0.1-1.7-0.6-2.9-1.3-3.7c-1.1-1.3-2.5-1.9-4.2-1.9c-1.5,0-2.8,0.5-3.9,1.5C58.3,260.6,57.7,261.9,57.6,263.7z    M89.8,269.1l3.5,0.4c-0.5,2-1.6,3.6-3,4.7c-1.5,1.1-3.4,1.7-5.7,1.7c-2.9,0-5.2-0.9-6.9-2.7c-1.7-1.8-2.5-4.3-2.5-7.5   c0-3.3,0.9-5.9,2.6-7.7c1.7-1.8,3.9-2.8,6.7-2.8c2.6,0,4.8,0.9,6.5,2.7c1.7,1.8,2.5,4.3,2.5,7.6c0,0.2,0,0.5,0,0.9H78.6   c0.1,2.2,0.7,3.8,1.8,5c1.1,1.2,2.5,1.7,4.1,1.7c1.2,0,2.3-0.3,3.1-1C88.6,271.5,89.3,270.5,89.8,269.1z M78.8,263.7h11   c-0.1-1.7-0.6-2.9-1.3-3.7c-1.1-1.3-2.5-1.9-4.1-1.9c-1.5,0-2.8,0.5-3.9,1.5C79.5,260.6,78.9,261.9,78.8,263.7z M110.3,275.4v-2.5   c-1.3,2-3.1,2.9-5.5,2.9c-1.5,0-3.1-0.4-4.3-1.3c-1.3-0.9-2.3-2.1-3.1-3.6c-0.7-1.6-1.1-3.3-1.1-5.4c0-2,0.3-3.8,1-5.4   c0.7-1.6,1.6-2.8,3-3.7c1.3-0.9,2.8-1.3,4.4-1.3c1.2,0,2.3,0.3,3.2,0.8c0.9,0.5,1.7,1.1,2.3,2v-9.8h3.3v27.3L110.3,275.4   C110.3,275.4,110.3,275.4,110.3,275.4z M99.7,265.6c0,2.5,0.5,4.4,1.6,5.7c1.1,1.3,2.3,1.9,3.8,1.9c1.5,0,2.7-0.6,3.7-1.8   c1-1.2,1.5-3,1.5-5.5c0-2.7-0.5-4.7-1.6-6c-1-1.3-2.3-1.9-3.9-1.9c-1.5,0-2.7,0.6-3.7,1.8C100.2,261,99.7,263,99.7,265.6   L99.7,265.6z M128.1,265.6c0-3.7,1-6.4,3.1-8.1c1.7-1.5,3.8-2.2,6.2-2.2c2.7,0,4.9,0.9,6.7,2.7c1.7,1.8,2.6,4.2,2.6,7.4   c0,2.5-0.4,4.5-1.1,6c-0.7,1.4-1.9,2.6-3.3,3.4c-1.5,0.8-3.1,1.2-4.8,1.2c-2.8,0-5-0.9-6.7-2.7   C128.9,271.5,128.1,268.9,128.1,265.6L128.1,265.6z M131.5,265.6c0,2.5,0.6,4.4,1.7,5.7c1.1,1.3,2.5,1.9,4.2,1.9   c1.7,0,3-0.6,4.2-1.9c1.1-1.3,1.7-3.2,1.7-5.8c0-2.4-0.6-4.3-1.7-5.6c-1.1-1.3-2.5-1.9-4.1-1.9c-1.7,0-3.1,0.6-4.2,1.9   C132.1,261.1,131.5,263,131.5,265.6L131.5,265.6z M151.3,275.4v-17.2h-3v-2.6h3v-2.1c0-1.3,0.1-2.3,0.4-3c0.3-0.9,0.9-1.6,1.7-2.1   c0.8-0.5,2-0.8,3.4-0.8c0.9,0,2,0.1,3.1,0.3l-0.5,2.9c-0.7-0.1-1.3-0.2-2-0.2c-1,0-1.7,0.2-2.2,0.7c-0.4,0.4-0.6,1.2-0.6,2.4v1.8   h3.9v2.6h-3.9v17.2L151.3,275.4L151.3,275.4z M171.7,252v-3.9h3.3v3.9H171.7z M171.7,275.4v-19.8h3.3v19.8H171.7z M180.2,275.4   v-19.8h3v2.8c1.5-2.2,3.5-3.3,6.3-3.3c1.2,0,2.3,0.2,3.3,0.6c1,0.4,1.7,1,2.2,1.7c0.5,0.7,0.8,1.5,1,2.5c0.1,0.6,0.2,1.7,0.2,3.3   v12.2h-3.4v-12c0-1.4-0.1-2.4-0.4-3.1c-0.3-0.7-0.8-1.3-1.4-1.6c-0.7-0.4-1.4-0.6-2.3-0.6c-1.4,0-2.7,0.5-3.7,1.4   c-1,0.9-1.6,2.6-1.6,5.2v10.8L180.2,275.4L180.2,275.4L180.2,275.4z M214.3,268.2l3.3,0.4c-0.4,2.3-1.3,4.1-2.8,5.3   c-1.5,1.3-3.3,1.9-5.5,1.9c-2.7,0-4.9-0.9-6.5-2.7c-1.6-1.8-2.5-4.3-2.5-7.6c0-2.1,0.4-4,1.1-5.6c0.7-1.6,1.8-2.8,3.2-3.6   c1.4-0.8,3.1-1.2,4.7-1.2c2.1,0,3.9,0.5,5.3,1.6c1.4,1.1,2.2,2.6,2.6,4.6L214,262c-0.3-1.3-0.9-2.3-1.6-3c-0.8-0.7-1.7-1-2.9-1   c-1.7,0-3.1,0.6-4.1,1.8c-1.1,1.2-1.6,3.1-1.6,5.7c0,2.7,0.5,4.6,1.5,5.8c1,1.2,2.3,1.8,4,1.8c1.3,0,2.4-0.4,3.3-1.2   C213.5,271.1,214.1,269.9,214.3,268.2L214.3,268.2z M220.4,275.4v-19.8h3v3c0.8-1.4,1.5-2.3,2.1-2.8c0.6-0.4,1.4-0.7,2.2-0.7   c1.1,0,2.3,0.4,3.4,1.1l-1.2,3.1c-0.8-0.5-1.6-0.7-2.5-0.7c-0.7,0-1.4,0.2-2,0.7c-0.6,0.4-1,1-1.2,1.8c-0.4,1.2-0.6,2.5-0.6,3.9   v10.4L220.4,275.4L220.4,275.4L220.4,275.4z M246.7,269.1l3.5,0.4c-0.5,2-1.6,3.6-3,4.7c-1.5,1.1-3.4,1.7-5.7,1.7   c-2.9,0-5.2-0.9-6.9-2.7c-1.7-1.8-2.5-4.3-2.5-7.5c0-3.3,0.9-5.9,2.6-7.7c1.7-1.8,3.9-2.8,6.7-2.8c2.6,0,4.8,0.9,6.5,2.7   c1.7,1.8,2.5,4.3,2.5,7.6c0,0.2,0,0.5,0,0.9h-14.8c0.1,2.2,0.7,3.8,1.8,5c1.1,1.2,2.5,1.7,4.1,1.7c1.2,0,2.3-0.3,3.1-1   C245.5,271.5,246.2,270.5,246.7,269.1z M235.7,263.7h11c-0.1-1.7-0.6-2.9-1.3-3.7c-1.1-1.3-2.5-1.9-4.1-1.9c-1.5,0-2.8,0.5-3.9,1.5   C236.4,260.6,235.8,261.9,235.7,263.7L235.7,263.7z M267.3,273c-1.2,1.1-2.4,1.8-3.6,2.2c-1.2,0.4-2.4,0.7-3.7,0.6   c-2.2,0-3.8-0.5-5-1.6c-1.2-1.1-1.8-2.4-1.8-4.1c0-1,0.2-1.9,0.7-2.7c0.4-0.8,1-1.4,1.7-1.9c0.7-0.5,1.6-0.9,2.4-1.1   c0.7-0.2,1.7-0.3,3-0.5c2.7-0.3,4.7-0.7,6-1.2c0-0.5,0-0.8,0-0.9c0-1.4-0.3-2.3-0.9-2.9c-0.9-0.8-2.1-1.1-3.8-1.1   c-1.6,0-2.7,0.3-3.5,0.8c-0.8,0.6-1.3,1.5-1.7,2.9l-3.3-0.4c0.3-1.4,0.8-2.5,1.5-3.4c0.7-0.9,1.7-1.5,3-2c1.3-0.5,2.8-0.7,4.5-0.7   c1.7,0,3.1,0.2,4.1,0.6c1.1,0.4,1.8,0.9,2.3,1.5c0.5,0.6,0.8,1.4,1,2.3c0.1,0.6,0.2,1.6,0.2,3.1v4.5c0,3.1,0.1,5.1,0.2,5.9   c0.1,0.8,0.4,1.6,0.8,2.4h-3.5C267.6,274.7,267.4,273.9,267.3,273L267.3,273z M267,265.5c-1.2,0.5-3,0.9-5.5,1.3   c-1.4,0.2-2.4,0.4-2.9,0.7c-0.5,0.2-1,0.6-1.3,1.1c-0.3,0.5-0.5,1-0.5,1.6c0,0.9,0.3,1.6,1,2.2c0.7,0.6,1.7,0.9,3,0.9   c1.3,0,2.4-0.3,3.4-0.8c1-0.6,1.7-1.3,2.2-2.3c0.4-0.8,0.5-1.9,0.5-3.4L267,265.5L267,265.5z M274.2,269.5l3.3-0.5   c0.2,1.3,0.7,2.3,1.6,3.1c0.9,0.7,2,1.1,3.6,1.1c1.5,0,2.7-0.3,3.4-0.9c0.7-0.6,1.1-1.4,1.1-2.2c0-0.8-0.3-1.4-1-1.8   c-0.5-0.3-1.6-0.7-3.4-1.1c-2.5-0.6-4.2-1.2-5.1-1.6c-1-0.5-1.7-1.1-2.2-1.9c-0.5-0.8-0.7-1.7-0.7-2.7c0-0.9,0.2-1.7,0.6-2.4   c0.4-0.7,1-1.4,1.7-1.9c0.5-0.4,1.2-0.7,2.1-1c0.9-0.3,1.9-0.4,2.9-0.4c1.6,0,2.9,0.2,4.1,0.7c1.2,0.4,2,1.1,2.6,1.8   c0.6,0.8,0.9,1.8,1.2,3.1l-3.3,0.4c-0.1-1-0.6-1.8-1.3-2.4c-0.7-0.6-1.7-0.9-3-0.9c-1.5,0-2.6,0.3-3.3,0.8c-0.7,0.5-1,1.1-1,1.8   c0,0.4,0.1,0.8,0.4,1.2c0.3,0.4,0.7,0.7,1.3,0.9c0.3,0.1,1.3,0.4,3,0.9c2.4,0.6,4,1.2,5,1.6c0.9,0.4,1.7,1,2.2,1.8   c0.5,0.8,0.8,1.7,0.8,2.9c0,1.1-0.3,2.2-1,3.2c-0.7,1-1.6,1.8-2.8,2.3c-1.2,0.5-2.6,0.8-4.2,0.8c-2.6,0-4.5-0.5-5.9-1.6   C275.5,273.2,274.6,271.6,274.2,269.5L274.2,269.5z M294.7,252v-3.9h3.3v3.9H294.7z M294.7,275.4v-19.8h3.3v19.8H294.7z    M303.1,275.4v-19.8h3v2.8c1.5-2.2,3.5-3.3,6.3-3.3c1.2,0,2.3,0.2,3.3,0.6c1,0.4,1.7,1,2.2,1.7c0.5,0.7,0.8,1.5,1,2.5   c0.1,0.6,0.2,1.7,0.2,3.3v12.2h-3.4v-12c0-1.4-0.1-2.4-0.4-3.1c-0.3-0.7-0.7-1.2-1.4-1.6c-0.7-0.4-1.4-0.6-2.3-0.6   c-1.4,0-2.7,0.5-3.7,1.4c-1,0.9-1.6,2.6-1.6,5.2v10.8L303.1,275.4L303.1,275.4L303.1,275.4z M323.7,277.1l3.3,0.5   c0.1,1,0.5,1.7,1.1,2.2c0.8,0.6,2,0.9,3.4,0.9c1.5,0,2.7-0.3,3.6-0.9c0.8-0.6,1.4-1.5,1.7-2.6c0.2-0.7,0.3-2.1,0.2-4.3   c-1.5,1.7-3.3,2.6-5.5,2.6c-2.7,0-4.8-1-6.3-2.9c-1.5-2-2.2-4.3-2.2-7.1c0-1.9,0.3-3.6,1-5.2c0.7-1.6,1.7-2.8,3-3.7   c1.3-0.9,2.8-1.3,4.6-1.3c2.3,0,4.3,0.9,5.8,2.8v-2.4h3.1v17.1c0,3.1-0.3,5.3-0.9,6.5c-0.6,1.3-1.6,2.3-3,3c-1.4,0.7-3,1.1-5,1.1   c-2.4,0-4.3-0.5-5.7-1.6C324.4,280.8,323.7,279.2,323.7,277.1L323.7,277.1z M326.5,265.2c0,2.6,0.5,4.5,1.5,5.7   c1,1.2,2.3,1.8,3.9,1.8c1.5,0,2.8-0.6,3.9-1.8c1-1.2,1.6-3,1.6-5.6c0-2.4-0.5-4.2-1.6-5.5c-1.1-1.2-2.4-1.8-3.9-1.8   c-1.5,0-2.8,0.6-3.8,1.8C327,261,326.5,262.8,326.5,265.2L326.5,265.2z M356.1,275.4v-19.8h3v2.8c0.6-1,1.5-1.8,2.5-2.3   c1-0.6,2.2-0.9,3.5-0.9c1.5,0,2.7,0.3,3.6,0.9c0.9,0.6,1.6,1.5,2,2.6c1.6-2.3,3.6-3.5,6.1-3.5c2,0,3.5,0.5,4.5,1.6   c1.1,1.1,1.6,2.8,1.6,5v13.6h-3.3V263c0-1.3-0.1-2.3-0.3-2.9c-0.2-0.6-0.6-1.1-1.2-1.4c-0.6-0.4-1.2-0.5-2-0.5   c-1.4,0-2.5,0.5-3.5,1.4c-0.9,0.9-1.4,2.4-1.4,4.4v11.5h-3.4v-12.8c0-1.5-0.3-2.6-0.8-3.4c-0.5-0.7-1.4-1.1-2.7-1.1   c-0.9,0-1.8,0.3-2.6,0.7c-0.8,0.5-1.4,1.2-1.7,2.2c-0.4,1-0.5,2.3-0.5,4.1v10.3L356.1,275.4L356.1,275.4L356.1,275.4L356.1,275.4z    M387.9,252v-3.9h3.4v3.9H387.9z M387.9,275.4v-19.8h3.4v19.8H387.9z M396.3,275.4v-27.3h3.4v27.3H396.3z M404.9,275.4v-27.3h3.4   v15.6l7.9-8h4.3l-7.6,7.3l8.3,12.4h-4.1l-6.5-10.1l-2.4,2.3v7.8L404.9,275.4L404.9,275.4z M435.3,275.4v-17.2h-3v-2.6h3v-2.1   c0-1.3,0.1-2.3,0.4-3c0.3-0.9,0.9-1.6,1.7-2.1c0.8-0.5,2-0.8,3.4-0.8c0.9,0,2,0.1,3.1,0.3l-0.5,2.9c-0.7-0.1-1.3-0.2-2-0.2   c-1,0-1.7,0.2-2.2,0.7c-0.4,0.4-0.6,1.2-0.6,2.4v1.8h3.9v2.6h-3.9v17.2L435.3,275.4L435.3,275.4z M458.6,269.1l3.5,0.4   c-0.5,2-1.6,3.6-3,4.7c-1.5,1.1-3.4,1.7-5.7,1.7c-2.9,0-5.2-0.9-6.9-2.7c-1.7-1.8-2.5-4.3-2.5-7.5c0-3.3,0.9-5.9,2.6-7.7   c1.7-1.8,3.9-2.8,6.7-2.8c2.6,0,4.8,0.9,6.5,2.7c1.7,1.8,2.5,4.3,2.5,7.6c0,0.2,0,0.5,0,0.9h-14.8c0.1,2.2,0.7,3.8,1.8,5   c1.1,1.2,2.5,1.7,4.1,1.7c1.2,0,2.3-0.3,3.1-1C457.4,271.5,458.1,270.5,458.6,269.1L458.6,269.1z M447.6,263.7h11   c-0.1-1.7-0.6-2.9-1.3-3.7c-1.1-1.3-2.5-1.9-4.2-1.9c-1.5,0-2.8,0.5-3.9,1.5C448.3,260.6,447.7,261.9,447.6,263.7L447.6,263.7z    M479.8,269.1l3.5,0.4c-0.5,2-1.6,3.6-3,4.7c-1.5,1.1-3.4,1.7-5.7,1.7c-2.9,0-5.2-0.9-6.9-2.7c-1.7-1.8-2.5-4.3-2.5-7.5   c0-3.3,0.9-5.9,2.6-7.7c1.7-1.8,3.9-2.8,6.7-2.8c2.6,0,4.8,0.9,6.5,2.7c1.7,1.8,2.5,4.3,2.5,7.6c0,0.2,0,0.5,0,0.9h-14.7   c0.1,2.2,0.7,3.8,1.8,5c1.1,1.2,2.5,1.7,4.1,1.7c1.2,0,2.3-0.3,3.1-1C478.6,271.5,479.3,270.5,479.8,269.1L479.8,269.1z    M468.8,263.7h11c-0.1-1.7-0.6-2.9-1.3-3.7c-1.1-1.3-2.5-1.9-4.2-1.9c-1.5,0-2.8,0.5-3.9,1.5C469.5,260.6,468.9,261.9,468.8,263.7   L468.8,263.7z M500.3,275.4v-2.5c-1.3,2-3.1,2.9-5.5,2.9c-1.5,0-3.1-0.4-4.3-1.3c-1.3-0.9-2.3-2.1-3.1-3.6   c-0.7-1.6-1.1-3.3-1.1-5.4c0-2,0.3-3.8,1-5.4c0.7-1.6,1.6-2.8,3-3.7c1.3-0.9,2.8-1.3,4.4-1.3c1.2,0,2.3,0.3,3.2,0.8s1.7,1.2,2.3,2   v-9.8h3.3v27.3L500.3,275.4L500.3,275.4L500.3,275.4L500.3,275.4z M489.7,265.6c0,2.5,0.5,4.4,1.6,5.7c1.1,1.3,2.3,1.9,3.8,1.9   c1.5,0,2.7-0.6,3.7-1.8c1-1.2,1.5-3,1.5-5.5c0-2.7-0.5-4.7-1.6-6c-1-1.3-2.3-1.9-3.9-1.9c-1.5,0-2.7,0.6-3.7,1.8   C490.2,261,489.7,263,489.7,265.6L489.7,265.6z M507.4,269.5l3.3-0.5c0.2,1.3,0.7,2.3,1.6,3.1c0.8,0.7,2,1.1,3.6,1.1   c1.5,0,2.7-0.3,3.4-0.9c0.7-0.6,1.1-1.4,1.1-2.2c0-0.8-0.3-1.4-1-1.8c-0.5-0.3-1.6-0.7-3.4-1.1c-2.5-0.6-4.2-1.2-5.1-1.6   c-0.9-0.5-1.7-1.1-2.2-1.9c-0.5-0.8-0.7-1.7-0.7-2.7c0-0.9,0.2-1.7,0.6-2.4c0.4-0.7,1-1.4,1.6-1.9c0.5-0.4,1.2-0.7,2.1-1   c0.9-0.3,1.9-0.4,2.9-0.4c1.6,0,2.9,0.2,4.1,0.7c1.2,0.4,2,1.1,2.6,1.8c0.6,0.8,0.9,1.8,1.2,3.1l-3.3,0.4c-0.1-1-0.6-1.8-1.3-2.4   c-0.7-0.6-1.7-0.9-3-0.9c-1.5,0-2.6,0.3-3.3,0.8c-0.7,0.5-1,1.1-1,1.8c0,0.4,0.1,0.8,0.4,1.2c0.3,0.4,0.7,0.7,1.3,0.9   c0.3,0.1,1.3,0.4,3,0.9c2.4,0.6,4,1.2,5,1.6c0.9,0.4,1.7,1,2.2,1.8c0.5,0.8,0.8,1.7,0.8,2.9c0,1.1-0.3,2.2-1,3.2   c-0.6,1-1.6,1.8-2.8,2.3c-1.2,0.5-2.6,0.8-4.2,0.8c-2.6,0-4.5-0.5-5.9-1.6C508.6,273.2,507.7,271.6,507.4,269.5L507.4,269.5z" fill="#4A3C7A"  />
	
</g><g><path d="M205.2,194.1c-20.6-0.4-32.9-12.9-32.9-33.3V34.4c-0.1-10.2,2.9-18.3,8.7-24.2c5.8-5.8,13.9-8.8,24.2-8.8   c20.7,0.2,33.2,12.4,33.5,32.7l0,126.6c-0.2,20.7-12.6,33.1-33,33.4l-0.2,0C205.4,194.1,205.3,194.1,205.2,194.1L205.2,194.1z" fill="#4A3C7A"  /><path d="M205.2,13.5c14,0.1,21.1,7.1,21.3,20.8v126.4c-0.1,14-7.2,21.1-21.1,21.3c-14-0.3-21-7.4-21-21.2V34.4   C184.3,20.5,191.3,13.5,205.2,13.5z" fill="#FFFFFF"  /><path d="M239.5,34.8c0.1-8-2.6-15.8-7.6-22c-0.6-0.7-1.2-1.4-1.9-2.1c-0.1-0.1-0.2-0.2-0.3-0.3c0,0,0,0-0.1-0.1   c-0.1-0.1-0.3-0.3-0.4-0.4c-6.3-6.3-14.7-9.8-23.6-9.9l-0.5,0c-18.6,0-34,15.2-34.3,33.8c-0.1,3.5,0.4,7,1.5,10.4v116.6   c0,20.5,12.3,32.9,32.9,33.3l0.2,0l0.2,0c20.5-0.3,32.8-12.8,33-33.4l0-119C239.1,39.4,239.4,37.1,239.5,34.8z" fill="#4A3C7A"  /><path d="M228.7,34.6c0.2-13-10.2-23.7-23.2-23.9l-0.3,0c-12.8,0-23.3,10.4-23.5,23.2c-0.1,4,0.9,7.9,2.7,11.4v115.5   c0,13.9,7,21,21,21.2c13.9-0.2,21-7.3,21.1-21.3V43.9C227.9,41,228.6,37.8,228.7,34.6z" fill="#FFFFFF"  />
	
	
	
	
</g><path d="M229.7,10.4C223.4,3.8,214.8,0.1,205.7,0l-0.5,0c-18.6,0-34,15.2-34.3,33.8c-0.3,18.9,14.9,34.5,33.8,34.8  l0.5,0c18.6,0,34-15.2,34.3-33.8C239.6,25.6,236.1,17,229.7,10.4L229.7,10.4z M205.2,57.8l-0.3,0c-6.2-0.1-12.2-2.6-16.5-7.1  c-4.4-4.5-6.7-10.5-6.6-16.7c0.2-12.8,10.7-23.2,23.5-23.2l0.3,0c13,0.2,23.4,10.9,23.2,23.9C228.5,47.4,217.9,57.8,205.2,57.8  L205.2,57.8z" fill="#9081AE"  /></svg>