<svg viewBox="0 0 834.8 283.5" role="img" focusable="false" aria-labelledby="staff-area--title" xmlns="http://www.w3.org/2000/svg" xmlns:xlink="http://www.w3.org/1999/xlink"><title id="staff-area--title">NPEU: Staff Area</title><g><path d="M347.4,281.3c-3-0.9-5.4-2.2-7.2-3.8c-0.8-0.7-1.2-1.6-1.2-2.7c0-0.8,0.2-1.5,0.7-2c0.4-0.5,1-0.8,1.6-0.8c0.6,0,1.4,0.3,2.2,0.9c3.9,2.9,8.3,4.3,13.3,4.3c3.5,0,6.2-0.7,8.1-2c1.9-1.3,2.8-3.2,2.8-5.6c0-1.9-0.9-3.4-2.6-4.3c-1.7-1-4.5-1.9-8.4-2.8c-3.7-0.8-6.7-1.7-9-2.7c-2.4-1-4.2-2.4-5.5-4.1c-1.3-1.7-2-3.9-2-6.6s0.7-5,2.2-7.1c1.5-2.1,3.5-3.7,6.1-4.9c2.6-1.2,5.6-1.7,9-1.7c3.1,0,6,0.4,8.6,1.3c2.6,0.9,4.9,2.2,6.7,3.9c0.9,0.7,1.3,1.6,1.3,2.7c0,0.7-0.2,1.4-0.7,2c-0.5,0.6-1,0.9-1.6,0.9c-0.6,0-1.3-0.3-2.2-0.9c-2-1.5-3.9-2.6-5.7-3.3c-1.8-0.7-3.9-1-6.4-1c-3.4,0-6,0.7-7.9,2.1c-1.9,1.4-2.8,3.3-2.8,5.7c0,2.1,0.8,3.7,2.5,4.8c1.7,1.1,4.3,2,8,2.9c3.8,0.9,7,1.8,9.3,2.7c2.4,0.9,4.3,2.2,5.7,3.9c1.4,1.6,2.1,3.8,2.1,6.3c0,2.6-0.7,5-2.2,7c-1.5,2-3.5,3.6-6.2,4.7c-2.6,1.1-5.7,1.7-9.1,1.7C353.5,282.7,350.4,282.2,347.4,281.3z" fill="#5F4776"  /><path d="M398.1,278.2c0.4,0.4,0.6,1,0.6,1.7c0,0.9-0.3,1.5-1,2c-0.7,0.5-1.7,0.6-3,0.6l-1.8-0.1c-3.5-0.3-6.2-1.3-7.9-3.2c-1.7-1.9-2.6-4.7-2.6-8.4v-15.4h-3.9c-1.9,0-2.9-0.9-2.9-2.6c0-0.8,0.3-1.4,0.8-1.9c0.5-0.5,1.2-0.7,2.1-0.7h3.9v-6.8c0-1,0.3-1.8,0.9-2.4c0.6-0.6,1.4-0.9,2.4-0.9c1,0,1.8,0.3,2.4,0.9c0.6,0.6,0.9,1.4,0.9,2.4v6.8h6.5c0.9,0,1.6,0.2,2.1,0.7c0.5,0.5,0.8,1.1,0.8,1.9c0,0.8-0.3,1.5-0.8,1.9c-0.5,0.4-1.2,0.7-2.1,0.7H389v15.9c0,2.1,0.4,3.6,1.3,4.5c0.9,1,2.2,1.5,3.9,1.6l1.8,0.1C397,277.5,397.7,277.8,398.1,278.2z" fill="#5F4776"  /><path d="M424.8,252.6c2.1,2.1,3.1,5.4,3.1,9.8v17c0,1-0.3,1.8-0.9,2.3c-0.6,0.5-1.4,0.8-2.4,0.8c-1,0-1.7-0.3-2.3-0.9c-0.6-0.6-0.9-1.3-0.9-2.3v-2.4c-0.8,1.8-2.1,3.2-3.7,4.2c-1.6,1-3.6,1.5-5.7,1.5c-2.1,0-4-0.4-5.8-1.3c-1.7-0.9-3.1-2-4.1-3.6c-1-1.5-1.5-3.2-1.5-5.1c0-2.3,0.6-4.1,1.8-5.5c1.2-1.3,3.2-2.3,6-2.8c2.8-0.6,6.6-0.9,11.4-0.9h1.5v-1.9c0-2.4-0.5-4.2-1.5-5.3c-1-1.1-2.6-1.6-4.9-1.6c-1.5,0-3,0.2-4.3,0.6c-1.4,0.4-2.8,1-4.5,1.7c-1.2,0.7-2,1-2.5,1c-0.7,0-1.2-0.2-1.6-0.7c-0.4-0.5-0.6-1.1-0.6-1.8c0-0.7,0.2-1.2,0.6-1.7c0.4-0.5,1-1,1.8-1.5c1.5-0.8,3.3-1.5,5.4-2c2.1-0.5,4-0.8,6-0.8C419.6,249.4,422.8,250.4,424.8,252.6z M419.2,275.2c1.5-1.6,2.3-3.7,2.3-6.3v-1.7h-1.2c-3.4,0-6,0.2-7.9,0.5c-1.8,0.3-3.1,0.8-3.9,1.5c-0.8,0.7-1.2,1.8-1.2,3.1c0,1.6,0.6,2.9,1.7,3.9c1.1,1,2.6,1.5,4.3,1.5C415.7,277.7,417.7,276.9,419.2,275.2z" fill="#5F4776"  /><path d="M445.7,243c-1,1.2-1.6,3-1.6,5.3v1.8h6.5c0.9,0,1.6,0.2,2.1,0.7c0.5,0.5,0.8,1.1,0.8,1.9c0,0.8-0.3,1.4-0.8,1.9c-0.5,0.5-1.2,0.7-2.1,0.7h-6.5v24c0,1.1-0.3,1.9-1,2.4c-0.6,0.5-1.4,0.8-2.4,0.8c-1,0-1.7-0.3-2.4-0.8c-0.6-0.5-0.9-1.3-0.9-2.4v-24h-3.9c-0.9,0-1.6-0.2-2.1-0.7c-0.5-0.5-0.8-1.1-0.8-1.9c0-0.8,0.3-1.4,0.8-1.9c0.5-0.5,1.2-0.7,2.1-0.7h3.9v-0.9c0-4,1-7.2,3.1-9.5c2.1-2.3,5-3.6,8.7-3.8l1.7-0.1c1.4-0.1,2.4,0.1,3.1,0.5c0.6,0.4,1,1,1,1.9c0,1.5-0.9,2.4-2.8,2.6l-1.7,0.1C448.3,241.1,446.7,241.8,445.7,243z" fill="#5F4776"  /><path d="M466.5,243c-1,1.2-1.6,3-1.6,5.3v1.8h6.5c0.9,0,1.6,0.2,2.1,0.7c0.5,0.5,0.8,1.1,0.8,1.9c0,0.8-0.3,1.4-0.8,1.9c-0.5,0.5-1.2,0.7-2.1,0.7h-6.5v24c0,1.1-0.3,1.9-1,2.4c-0.6,0.5-1.4,0.8-2.4,0.8c-1,0-1.7-0.3-2.4-0.8c-0.6-0.5-0.9-1.3-0.9-2.4v-24h-3.9c-0.9,0-1.6-0.2-2.1-0.7c-0.5-0.5-0.8-1.1-0.8-1.9c0-0.8,0.3-1.4,0.8-1.9c0.5-0.5,1.2-0.7,2.1-0.7h3.9v-0.9c0-4,1-7.2,3.1-9.5c2.1-2.3,5-3.6,8.7-3.8l1.7-0.1c1.4-0.1,2.4,0.1,3.1,0.5c0.6,0.4,1,1,1,1.9c0,1.5-0.9,2.4-2.8,2.6l-1.7,0.1C469.2,241.1,467.6,241.8,466.5,243z" fill="#5F4776"  /><path d="M534.8,279.5c0,0.8-0.3,1.5-1,2.1c-0.7,0.6-1.4,0.9-2.3,0.9c-0.6,0-1.1-0.2-1.6-0.5c-0.5-0.3-0.9-0.8-1.1-1.4l-4.3-9.8h-24l-4.3,9.8c-0.3,0.6-0.7,1.1-1.2,1.4c-0.5,0.3-1.1,0.5-1.6,0.5c-0.9,0-1.7-0.3-2.3-0.9c-0.7-0.6-1-1.3-1-2.1c0-0.3,0.1-0.8,0.3-1.3l18.5-40.5c0.3-0.7,0.8-1.2,1.5-1.6c0.7-0.4,1.4-0.6,2.1-0.6c0.7,0,1.5,0.2,2.1,0.6c0.7,0.4,1.2,0.9,1.5,1.6l18.5,40.5C534.7,278.7,534.8,279.2,534.8,279.5z M502.8,265.4h19.2l-9.6-21.7L502.8,265.4z" fill="#5F4776"  /><path d="M559.4,252.2c0,1-0.2,1.7-0.7,2.2s-1.3,0.8-2.5,0.9l-2,0.2c-2.8,0.3-4.8,1.2-6.1,2.9c-1.3,1.7-2,3.7-2,6v15c0,1.1-0.3,1.8-0.9,2.4c-0.6,0.5-1.4,0.8-2.4,0.8s-1.8-0.3-2.4-0.8c-0.6-0.5-1-1.3-1-2.4v-26.7c0-1,0.3-1.8,1-2.3c0.6-0.5,1.4-0.8,2.4-0.8c0.9,0,1.6,0.3,2.2,0.8c0.6,0.5,0.9,1.3,0.9,2.3v3.1c0.9-1.9,2.1-3.4,3.8-4.4c1.7-1,3.5-1.6,5.6-1.8l0.9-0.1C558.3,249.4,559.4,250.3,559.4,252.2z" fill="#5F4776"  /><path d="M588.4,274.8c0.4,0.5,0.6,1.1,0.6,1.8c0,1.3-0.8,2.3-2.4,3.2c-1.5,0.9-3.2,1.6-5,2c-1.8,0.5-3.6,0.7-5.2,0.7c-5.1,0-9.1-1.5-12-4.4c-2.9-3-4.4-7-4.4-12.1c0-3.3,0.6-6.2,1.9-8.7c1.3-2.5,3.1-4.5,5.4-5.9c2.3-1.4,5-2.1,8-2.1c4.3,0,7.7,1.4,10.2,4.1c2.5,2.8,3.7,6.5,3.7,11.1c0,1.8-0.8,2.6-2.4,2.6h-20.3c0.4,6.8,3.7,10.2,9.8,10.2c1.6,0,3-0.2,4.2-0.7c1.2-0.4,2.4-1,3.7-1.7c0.1-0.1,0.5-0.3,1.1-0.6c0.6-0.3,1.1-0.4,1.5-0.4C587.5,274.1,588,274.3,588.4,274.8z M569.4,256.6c-1.5,1.6-2.4,3.9-2.8,6.8h16.9c-0.1-3-0.9-5.3-2.3-6.9c-1.4-1.6-3.3-2.4-5.8-2.4C573,254.2,570.9,255,569.4,256.6z" fill="#5F4776"  /><path d="M617.9,252.6c2.1,2.1,3.1,5.4,3.1,9.8v17c0,1-0.3,1.8-0.9,2.3c-0.6,0.5-1.4,0.8-2.4,0.8c-1,0-1.7-0.3-2.3-0.9c-0.6-0.6-0.9-1.3-0.9-2.3v-2.4c-0.8,1.8-2.1,3.2-3.7,4.2c-1.6,1-3.6,1.5-5.7,1.5c-2.1,0-4-0.4-5.8-1.3c-1.7-0.9-3.1-2-4.1-3.6c-1-1.5-1.5-3.2-1.5-5.1c0-2.3,0.6-4.1,1.8-5.5c1.2-1.3,3.2-2.3,6-2.8c2.8-0.6,6.6-0.9,11.4-0.9h1.5v-1.9c0-2.4-0.5-4.2-1.5-5.3c-1-1.1-2.6-1.6-4.9-1.6c-1.5,0-3,0.2-4.3,0.6c-1.4,0.4-2.8,1-4.5,1.7c-1.2,0.7-2,1-2.5,1c-0.7,0-1.2-0.2-1.6-0.7c-0.4-0.5-0.6-1.1-0.6-1.8c0-0.7,0.2-1.2,0.6-1.7c0.4-0.5,1-1,1.8-1.5c1.5-0.8,3.3-1.5,5.4-2c2.1-0.5,4-0.8,6-0.8C612.7,249.4,615.8,250.4,617.9,252.6z M612.3,275.2c1.5-1.6,2.3-3.7,2.3-6.3v-1.7h-1.2c-3.4,0-6,0.2-7.9,0.5c-1.8,0.3-3.1,0.8-3.9,1.5c-0.8,0.7-1.2,1.8-1.2,3.1c0,1.6,0.6,2.9,1.7,3.9c1.1,1,2.6,1.5,4.3,1.5C608.8,277.7,610.8,276.9,612.3,275.2z" fill="#5F4776"  /></g><path d="M335,202.1c0-2.3,1.9-4.2,4.2-4.2h491.4c2.3,0,4.2,1.9,4.2,4.2c0,2.3-1.9,4.2-4.2,4.2H339.2C336.9,206.3,335,204.4,335,202.1" fill="#5F4776"  /><path d="M178.8,77.3c0-42.7-34.6-77.3-77.3-77.3C58.7,0,24.1,34.6,24.1,77.3c0,42.7,34.6,77.3,77.3,77.3C144.2,154.7,178.8,120.1,178.8,77.3" fill="#007F6E"  /><path d="M283.4,65.4c5.8-14.7-1.4-31.4-16.1-37.2c-14.7-5.8-31.4,1.4-37.2,16.1c-5.8,14.7,1.4,31.4,16.1,37.2C261,87.4,277.6,80.2,283.4,65.4" fill="#5F4776"  /><path d="M158.7,191.1c8.6,1.1,36.5,4.4,74-18.2c27.8-16.7,46-41.1,47.8-55.6c1.7-11.7-6.5-22.6-18.2-24.2c-5-0.7-9.1,0.3-13.8,2.7c-14.6,7.6-18.1,34.5-31.7,54.5c-20.2,29.6-45.4,30.7-57.5,31.2c-2.6,0-4.8,2.1-4.8,4.8C154.5,188.8,156.4,190.8,158.7,191.1" fill="#5F4776"  /><path d="M275.9,153.9c-12.7,15.7-51,50-97.4,50c-46.5,0-69.5-23.3-104.2-37.7c-27.2-11.5-58.6,1.3-70.1,28.5c-8.5,20.1-3.7,42.5,10.4,57.4c23.7,26,71.9,44.8,150.1,18.8c78.2-26,116.1-100.9,121.5-110.7c1.5-3,0.2-6.5-2.8-8C280.7,150.9,277.6,151.7,275.9,153.9" fill="#007F6E"  /><g><path d="M447,28.7c1.8,1.9,2.6,4.3,2.6,7.3v119.8c0,3-0.9,5.5-2.7,7.3c-1.8,1.9-4.2,2.8-7.1,2.8c-3.4,0-6-1.3-7.8-3.9L355.1,60.8v95.1c0,3-0.9,5.5-2.6,7.3c-1.8,1.9-4.1,2.8-7,2.8c-2.9,0-5.2-0.9-6.9-2.7c-1.7-1.8-2.5-4.3-2.5-7.4V36.1c0-3,0.9-5.5,2.7-7.3c1.8-1.9,4.2-2.8,7.1-2.8c3.4,0,6,1.3,7.8,3.9l76.8,101.6V36.1c0-3,0.9-5.5,2.6-7.3c1.7-1.9,4-2.8,6.9-2.8C442.9,25.9,445.2,26.8,447,28.7z" fill="#007F6E"  /><path d="M484.1,163.3c-1.8-1.8-2.7-4.3-2.7-7.4V36.7c0-3,0.9-5.4,2.6-7.2c1.8-1.8,4.2-2.6,7.3-2.6h47.2c14.6,0,26,3.6,34.1,10.8c8.1,7.2,12.2,17.4,12.2,30.6c0,13.1-4.1,23.3-12.2,30.6c-8.1,7.3-19.5,11-34.1,11h-37.1v46.1c0,3.1-0.9,5.6-2.6,7.4c-1.8,1.8-4.3,2.7-7.5,2.7C488.4,166,486,165.1,484.1,163.3z M536.5,93.5c19.3,0,29-8.4,29-25.3c0-16.7-9.7-25.1-29-25.1h-34.9v50.4H536.5z" fill="#007F6E"  /><path d="M611.5,162.4c-1.8-1.8-2.6-4.1-2.6-7.2V36.7c0-3,0.9-5.4,2.6-7.2c1.8-1.8,4.2-2.6,7.3-2.6h72.1c3,0,5.3,0.7,7,2.2c1.6,1.4,2.4,3.5,2.4,6.1c0,2.6-0.8,4.6-2.4,6c-1.6,1.4-4,2.1-7,2.1h-62.3v43.5H687c3,0,5.3,0.7,7,2.2c1.6,1.4,2.5,3.5,2.5,6.1s-0.8,4.6-2.5,6.1c-1.6,1.4-4,2.2-7,2.2h-58.4v45.7h62.3c6.3,0,9.4,2.7,9.4,8c0,2.6-0.8,4.6-2.4,6.1c-1.6,1.4-4,2.2-7,2.2h-72.1C615.7,165.1,613.2,164.2,611.5,162.4z" fill="#007F6E"  /><path d="M736.4,152.3c-9.5-9.5-14.3-23.6-14.3-42.2V36.1c0-3.1,0.9-5.6,2.7-7.4c1.8-1.8,4.2-2.7,7.3-2.7 c3,0,5.4,0.9,7.3,2.7c1.8,1.8,2.7,4.3,2.7,7.4v75.5c0,12.7,3,22.3,9.1,28.8c6.1,6.5,15.1,9.8,27.1,9.8c11.9,0,20.9-3.3,27.1-9.8c6.1-6.5,9.2-16.1,9.2-28.8V36.1c0-3,0.9-5.5,2.7-7.3c1.8-1.9,4.2-2.8,7.3-2.8s5.4,0.9,7.3,2.7c1.8,1.8,2.7,4.3,2.7,7.4v74.1c0,18.4-4.8,32.4-14.4,42.1c-9.6,9.6-23.6,14.4-41.9,14.4C759.9,166.6,746,161.9,736.4,152.3z" fill="#007F6E"  /></g></svg>