<svg viewBox="0 0 478.1 284.1" role="img" aria-labelledby="toby-register--title" xmlns="http://www.w3.org/2000/svg" xmlns:xlink="http://www.w3.org/1999/xlink"><title id="toby-register--title">UK Toby Cooling Register</title><g><path d="M167.9,115.3h-12.2v40.3c0,2.3-0.5,4-1.6,5.2c-1,1.1-2.4,1.7-4,1.7c-1.7,0-3-0.6-4.1-1.7   c-1-1.1-1.6-2.9-1.6-5.1v-40.3h-12.2c-1.9,0-3.3-0.4-4.3-1.3c-0.9-0.8-1.4-2-1.4-3.3c0-1.4,0.5-2.6,1.5-3.4c1-0.8,2.4-1.2,4.2-1.2   h35.7c1.9,0,3.4,0.4,4.3,1.3c0.9,0.9,1.4,2,1.4,3.4c0,1.4-0.5,2.5-1.4,3.3C171.2,114.9,169.8,115.3,167.9,115.3z M203.7,105.1   c5.7,0,10.7,1.2,14.8,3.5c4.1,2.3,7.2,5.6,9.4,9.9c2.1,4.3,3.2,9.3,3.2,15.1c0,4.3-0.6,8.2-1.7,11.7c-1.2,3.5-2.9,6.5-5.2,9.1   c-2.3,2.6-5.2,4.5-8.5,5.9c-3.4,1.4-7.2,2-11.6,2c-4.3,0-8.2-0.7-11.6-2.1c-3.4-1.4-6.3-3.4-8.6-5.9c-2.3-2.5-4-5.6-5.2-9.2   c-1.2-3.6-1.8-7.4-1.8-11.6c0-4.3,0.6-8.2,1.8-11.7c1.2-3.6,3-6.6,5.3-9.1c2.3-2.5,5.1-4.4,8.5-5.7   C195.6,105.8,199.4,105.1,203.7,105.1z M219.6,133.6c0-4.1-0.7-7.6-2-10.6c-1.3-3-3.2-5.2-5.6-6.7c-2.4-1.5-5.2-2.3-8.4-2.3   c-2.2,0-4.3,0.4-6.2,1.3c-1.9,0.8-3.6,2.1-4.9,3.7c-1.4,1.6-2.5,3.7-3.3,6.2c-0.8,2.5-1.2,5.3-1.2,8.4c0,3.1,0.4,6,1.2,8.5   c0.8,2.5,1.9,4.7,3.4,6.3c1.4,1.7,3.1,2.9,5,3.8c1.9,0.8,3.9,1.2,6.2,1.2c2.9,0,5.5-0.7,7.9-2.2c2.4-1.4,4.3-3.7,5.7-6.7   C218.9,141.7,219.6,138,219.6,133.6z M264.3,161.5h-16.9c-2.4,0-4.2-0.5-5.2-1.6c-1-1.1-1.6-2.8-1.6-5.2v-41.7   c0-2.4,0.5-4.2,1.6-5.3c1.1-1.1,2.8-1.6,5.2-1.6h18c2.7,0,4.9,0.2,6.9,0.5c1.9,0.3,3.7,1,5.2,1.9c1.3,0.8,2.5,1.8,3.5,3   c1,1.2,1.8,2.5,2.3,4c0.5,1.4,0.8,3,0.8,4.6c0,5.5-2.8,9.6-8.3,12.2c7.3,2.3,10.9,6.8,10.9,13.5c0,3.1-0.8,5.9-2.4,8.4   c-1.6,2.5-3.7,4.3-6.4,5.5c-1.7,0.7-3.6,1.2-5.8,1.5C269.7,161.3,267.2,161.5,264.3,161.5z M251.8,114.5v14.3H262   c2.8,0,5-0.3,6.5-0.8c1.5-0.5,2.7-1.5,3.5-3c0.6-1.1,0.9-2.2,0.9-3.6c0-2.8-1-4.7-3-5.6c-2-0.9-5-1.4-9.1-1.4L251.8,114.5   L251.8,114.5z M263.4,136.8h-11.7V153h12.1c7.6,0,11.4-2.7,11.4-8.2c0-2.8-1-4.8-2.9-6.1C270.3,137.5,267.3,136.8,263.4,136.8z    M308.6,155.6V138l-13.5-21c-1.2-1.9-2-3.4-2.5-4.4c-0.5-1.1-0.7-2-0.7-2.8c0-1.3,0.5-2.4,1.5-3.3c1-0.9,2.2-1.4,3.7-1.4   c1.5,0,2.7,0.4,3.5,1.3c0.8,0.9,2,2.6,3.6,5.2l10.4,16.8l10.5-16.8c0.6-1,1.2-1.9,1.6-2.6c0.4-0.7,0.9-1.4,1.4-2   c0.5-0.6,1.1-1.1,1.7-1.4c0.6-0.3,1.4-0.5,2.3-0.5c1.4,0,2.6,0.5,3.5,1.4c0.9,0.9,1.4,2,1.4,3.2c0,1-0.2,2-0.7,2.9   c-0.5,1-1.3,2.3-2.5,4.1L319.9,138v17.6c0,2.3-0.5,4-1.6,5.1c-1.1,1.1-2.4,1.7-4,1.7c-1.7,0-3-0.6-4-1.7   C309.2,159.6,308.6,157.9,308.6,155.6L308.6,155.6z" fill="#347822"  />
	
</g><g><path d="M148.5,191.6v4.7c0,1.1-0.3,2-0.9,2.6c-0.6,0.6-1.3,0.9-2.2,0.9c-0.9,0-1.6-0.3-2.1-0.9   c-0.6-0.6-0.8-1.4-0.8-2.6v-15.7c0-2.5,1-3.8,2.9-3.8c1,0,1.7,0.3,2.1,0.9c0.4,0.6,0.7,1.5,0.7,2.6c0.7-1.2,1.4-2,2.2-2.6   c0.8-0.6,1.7-0.9,3-0.9c1.2,0,2.5,0.3,3.7,0.9c1.2,0.6,1.8,1.4,1.8,2.3c0,0.7-0.3,1.3-0.8,1.7c-0.5,0.4-1,0.7-1.6,0.7   c-0.2,0-0.7-0.1-1.6-0.4c-0.8-0.3-1.6-0.4-2.2-0.4c-0.9,0-1.6,0.2-2.1,0.6c-0.6,0.4-1,1.1-1.3,1.9c-0.3,0.9-0.5,1.9-0.6,3   C148.6,188.4,148.5,189.9,148.5,191.6L148.5,191.6z M182,189.6h-11.7c0,1.3,0.3,2.4,0.8,3.4c0.5,1,1.2,1.7,2.1,2.2   c0.9,0.5,1.9,0.7,2.9,0.7c0.7,0,1.3-0.1,2-0.2c0.6-0.2,1.2-0.4,1.7-0.7c0.5-0.3,1.1-0.7,1.5-1.1c0.6-0.5,1.2-1,1.8-1.6   c0.3-0.2,0.7-0.4,1.3-0.4c0.6,0,1.1,0.2,1.5,0.5c0.4,0.3,0.6,0.8,0.6,1.3c0,0.5-0.2,1.1-0.6,1.8c-0.4,0.7-1.1,1.3-1.9,2   c-0.9,0.6-1.9,1.1-3.2,1.6c-1.3,0.4-2.8,0.6-4.4,0.6c-3.8,0-6.8-1-8.9-3.1c-2.1-2.1-3.2-4.9-3.2-8.4c0-1.7,0.3-3.2,0.8-4.6   c0.5-1.4,1.3-2.6,2.3-3.7c1-1,2.2-1.8,3.7-2.3c1.5-0.5,3.1-0.8,4.9-0.8c2.3,0,4.3,0.5,6,1.4c1.7,0.9,2.9,2.1,3.7,3.6   c0.8,1.5,1.2,3,1.2,4.5c0,1.4-0.4,2.3-1.3,2.8C184.8,189.4,183.5,189.6,182,189.6L182,189.6z M170.3,186.4h10.8   c-0.1-1.9-0.7-3.4-1.6-4.3c-1-1-2.2-1.4-3.8-1.4c-1.5,0-2.7,0.5-3.7,1.5C171.1,183.1,170.5,184.5,170.3,186.4L170.3,186.4z    M217,180.9v16.4c0,1.9-0.2,3.5-0.6,4.8c-0.4,1.4-1.1,2.5-2,3.3c-0.9,0.9-2.2,1.5-3.7,2c-1.5,0.4-3.4,0.6-5.6,0.6   c-2.1,0-3.9-0.3-5.5-0.8c-1.6-0.5-2.9-1.2-3.7-2.1c-0.9-0.9-1.3-1.7-1.3-2.6c0-0.7,0.2-1.2,0.7-1.7c0.5-0.4,1.1-0.6,1.8-0.6   c0.9,0,1.6,0.4,2.3,1.1c0.3,0.4,0.7,0.8,1,1.1c0.3,0.4,0.7,0.7,1.1,1c0.4,0.3,0.9,0.5,1.5,0.6c0.6,0.1,1.2,0.2,2,0.2   c1.5,0,2.7-0.2,3.6-0.6c0.9-0.4,1.5-1,1.8-1.7c0.3-0.7,0.5-1.5,0.6-2.3c0.1-0.8,0.1-2.2,0.1-4c-0.9,1.2-2,2.1-3.2,2.8   c-1.2,0.6-2.6,0.9-4.3,0.9c-2,0-3.7-0.5-5.2-1.4c-1.5-1-2.6-2.3-3.4-4c-0.8-1.7-1.2-3.7-1.2-6c0-1.7,0.2-3.2,0.7-4.6   c0.5-1.4,1.2-2.5,2.1-3.4c0.9-0.9,1.9-1.6,3.1-2.1c1.2-0.5,2.5-0.7,3.9-0.7c1.7,0,3.2,0.3,4.4,0.9c1.2,0.6,2.4,1.6,3.5,2.9v-0.8   c0-1,0.3-1.7,0.8-2.3c0.5-0.5,1.2-0.8,2-0.8c1.1,0,1.9,0.4,2.3,1.1C216.8,178.6,217,179.6,217,180.9L217,180.9z M199.7,188.1   c0,2.3,0.5,4,1.6,5.2c1.1,1.2,2.4,1.8,4.1,1.8c1,0,1.9-0.3,2.8-0.8c0.9-0.5,1.6-1.3,2.2-2.3c0.6-1,0.8-2.2,0.8-3.7   c0-2.3-0.5-4.1-1.6-5.4c-1.1-1.3-2.5-1.9-4.2-1.9c-1.7,0-3.1,0.6-4.1,1.8C200.2,184.1,199.7,185.8,199.7,188.1L199.7,188.1z    M229.1,174.2c-0.8,0-1.5-0.2-2.1-0.7c-0.6-0.5-0.9-1.2-0.9-2c0-0.8,0.3-1.5,0.9-2c0.6-0.5,1.3-0.8,2.1-0.8c0.8,0,1.5,0.2,2.1,0.7   c0.6,0.5,0.9,1.1,0.9,2c0,0.9-0.3,1.5-0.9,2C230.6,173.9,229.9,174.2,229.1,174.2L229.1,174.2z M232.1,180v16.3   c0,1.1-0.3,2-0.9,2.6c-0.6,0.6-1.3,0.9-2.2,0.9c-0.9,0-1.6-0.3-2.1-0.9c-0.5-0.6-0.8-1.4-0.8-2.5v-16.1c0-1.1,0.3-1.9,0.8-2.5   c0.5-0.6,1.3-0.9,2.1-0.9c0.9,0,1.6,0.3,2.2,0.9C231.8,178.2,232.1,179,232.1,180L232.1,180z M260.6,192.3c0,1.6-0.4,2.9-1.2,4   c-0.8,1.1-2,2-3.6,2.5c-1.6,0.6-3.5,0.9-5.7,0.9c-2.1,0-4-0.3-5.5-0.9c-1.5-0.6-2.7-1.4-3.4-2.3c-0.7-0.9-1.1-1.9-1.1-2.8   c0-0.6,0.2-1.1,0.7-1.6c0.5-0.4,1.1-0.7,1.8-0.7c0.6,0,1.1,0.1,1.4,0.4c0.3,0.3,0.7,0.7,1,1.2c0.6,1,1.3,1.8,2.2,2.2   c0.9,0.5,2,0.7,3.5,0.7c1.2,0,2.2-0.3,2.9-0.8c0.8-0.5,1.1-1.1,1.1-1.7c0-1-0.4-1.7-1.2-2.2c-0.8-0.5-2.1-0.9-3.9-1.3   c-2.1-0.5-3.7-1-5-1.5c-1.3-0.5-2.3-1.2-3.1-2.1c-0.8-0.9-1.2-1.9-1.2-3.2c0-1.1,0.4-2.2,1.1-3.2c0.7-1,1.8-1.8,3.2-2.4   c1.4-0.6,3.1-0.9,5-0.9c1.5,0,2.9,0.1,4.2,0.4c1.2,0.3,2.3,0.7,3.1,1.2c0.8,0.5,1.4,1.1,1.9,1.7c0.4,0.6,0.7,1.2,0.7,1.8   c0,0.6-0.2,1.2-0.7,1.6c-0.5,0.4-1.1,0.6-2,0.6c-0.6,0-1.1-0.2-1.6-0.5c-0.4-0.3-0.9-0.8-1.5-1.5c-0.4-0.5-1-1-1.6-1.3   c-0.6-0.3-1.4-0.5-2.5-0.5c-1.1,0-2,0.2-2.7,0.6c-0.7,0.4-1.1,1-1.1,1.6c0,0.6,0.3,1.1,0.8,1.5c0.5,0.4,1.2,0.7,2.1,0.9   c0.9,0.3,2.1,0.5,3.7,0.9c1.8,0.4,3.4,0.9,4.5,1.5c1.2,0.6,2.1,1.3,2.7,2.1C260.3,190.4,260.6,191.3,260.6,192.3L260.6,192.3z    M269.1,177.3h0.7v-3.4c0-0.9,0-1.6,0.1-2.1c0.1-0.5,0.2-1,0.4-1.3c0.2-0.4,0.6-0.7,1-0.9c0.4-0.2,0.9-0.4,1.5-0.4   c0.8,0,1.4,0.3,2.1,0.8c0.4,0.3,0.7,0.8,0.8,1.3c0.1,0.5,0.2,1.2,0.2,2.2v3.8h2.2c0.9,0,1.5,0.2,1.9,0.6c0.4,0.4,0.7,0.9,0.7,1.5   c0,0.8-0.3,1.3-1,1.6c-0.6,0.3-1.5,0.5-2.7,0.5h-1.1v10.3c0,0.9,0,1.6,0.1,2c0.1,0.5,0.2,0.9,0.5,1.2c0.3,0.3,0.7,0.4,1.4,0.4   c0.3,0,0.8-0.1,1.4-0.2c0.6-0.1,1.1-0.2,1.4-0.2c0.5,0,0.9,0.2,1.3,0.5c0.4,0.4,0.6,0.8,0.6,1.4c0,0.9-0.5,1.6-1.6,2.1   c-1,0.5-2.6,0.7-4.5,0.7c-1.9,0-3.3-0.3-4.2-0.9c-1-0.6-1.6-1.4-1.9-2.5c-0.3-1-0.5-2.4-0.5-4.2v-10.8H269c-0.9,0-1.5-0.2-2-0.6   c-0.4-0.4-0.7-0.9-0.7-1.5c0-0.6,0.2-1.1,0.7-1.5C267.5,177.5,268.2,177.3,269.1,177.3L269.1,177.3z M304.4,189.6h-11.7   c0,1.3,0.3,2.4,0.8,3.4c0.5,1,1.2,1.7,2.1,2.2c0.9,0.5,1.9,0.7,2.9,0.7c0.7,0,1.4-0.1,2-0.2c0.6-0.2,1.2-0.4,1.7-0.7   c0.5-0.3,1-0.7,1.5-1.1c0.6-0.5,1.2-1,1.8-1.6c0.3-0.2,0.7-0.4,1.3-0.4c0.6,0,1.1,0.2,1.5,0.5c0.4,0.3,0.6,0.8,0.6,1.3   c0,0.5-0.2,1.1-0.6,1.8c-0.4,0.7-1.1,1.3-1.9,2c-0.9,0.6-1.9,1.1-3.2,1.6c-1.3,0.4-2.8,0.6-4.4,0.6c-3.8,0-6.8-1-8.9-3.1   c-2.1-2.1-3.2-4.9-3.2-8.4c0-1.7,0.3-3.2,0.8-4.6c0.5-1.4,1.3-2.6,2.3-3.7c1-1,2.2-1.8,3.7-2.3c1.5-0.5,3.1-0.8,4.9-0.8   c2.3,0,4.3,0.5,6,1.4c1.7,0.9,2.9,2.1,3.7,3.6c0.8,1.5,1.2,3,1.2,4.5c0,1.4-0.4,2.3-1.3,2.8C307.2,189.4,306,189.6,304.4,189.6   L304.4,189.6z M292.8,186.4h10.8c-0.1-1.9-0.7-3.4-1.6-4.3c-1-1-2.2-1.4-3.8-1.4c-1.5,0-2.7,0.5-3.7,1.5   C293.5,183.1,293,184.5,292.8,186.4z M323.4,191.6v4.7c0,1.1-0.3,2-0.9,2.6c-0.6,0.6-1.3,0.9-2.2,0.9c-0.9,0-1.6-0.3-2.1-0.9   c-0.6-0.6-0.8-1.4-0.8-2.6v-15.7c0-2.5,1-3.8,2.9-3.8c1,0,1.7,0.3,2.1,0.9c0.4,0.6,0.7,1.5,0.7,2.6c0.7-1.2,1.4-2,2.2-2.6   c0.7-0.6,1.8-0.9,3-0.9c1.2,0,2.5,0.3,3.6,0.9c1.2,0.6,1.8,1.4,1.8,2.3c0,0.7-0.3,1.3-0.8,1.7c-0.5,0.4-1,0.7-1.6,0.7   c-0.2,0-0.7-0.1-1.6-0.4c-0.8-0.3-1.6-0.4-2.2-0.4c-0.9,0-1.6,0.2-2.1,0.6c-0.6,0.4-1,1.1-1.3,1.9c-0.3,0.9-0.5,1.9-0.6,3   C323.4,188.4,323.4,189.9,323.4,191.6L323.4,191.6z" fill="#347822"  />
	
</g><g><path d="M178.1,89.4c0,0.7-0.2,1.5-0.7,2.2c-0.4,0.8-1.1,1.6-2.1,2.3c-0.9,0.7-2.1,1.3-3.5,1.7   c-1.4,0.4-3,0.7-4.7,0.7c-3.7,0-6.6-1-8.7-3c-2.1-2-3.1-4.7-3.1-8.2c0-2.3,0.5-4.4,1.4-6.1c1-1.8,2.3-3.1,4.1-4.1   c1.8-1,4-1.5,6.5-1.5c1.6,0,3,0.2,4.3,0.6c1.3,0.4,2.4,1,3.3,1.6c0.9,0.7,1.6,1.4,2.1,2.2c0.5,0.8,0.7,1.5,0.7,2.1   c0,0.7-0.3,1.2-0.8,1.7c-0.5,0.5-1.2,0.7-1.9,0.7c-0.5,0-0.9-0.1-1.2-0.4c-0.3-0.2-0.7-0.6-1.1-1.2c-0.7-1-1.5-1.8-2.3-2.4   c-0.8-0.5-1.8-0.8-3.1-0.8c-1.8,0-3.2,0.6-4.3,2c-1.1,1.3-1.6,3.1-1.6,5.3c0,1.1,0.1,2,0.4,2.9c0.3,0.9,0.7,1.6,1.2,2.3   c0.5,0.6,1.2,1.1,1.9,1.4c0.8,0.3,1.6,0.5,2.5,0.5c1.2,0,2.2-0.3,3.1-0.8c0.9-0.5,1.6-1.3,2.3-2.4c0.4-0.6,0.8-1.1,1.2-1.5   c0.4-0.4,1-0.5,1.6-0.5c0.7,0,1.3,0.3,1.8,0.8C177.8,88.3,178.1,88.8,178.1,89.4z M206.7,85c0,1.7-0.3,3.2-0.8,4.6   c-0.6,1.4-1.4,2.6-2.4,3.7c-1.1,1-2.3,1.8-3.8,2.3c-1.5,0.5-3.1,0.8-5,0.8c-1.8,0-3.5-0.3-4.9-0.8c-1.4-0.5-2.7-1.3-3.8-2.4   c-1.1-1-1.9-2.3-2.4-3.6c-0.6-1.4-0.8-2.9-0.8-4.6c0-1.7,0.3-3.3,0.8-4.7c0.6-1.4,1.4-2.6,2.4-3.6c1-1,2.3-1.8,3.8-2.3   c1.5-0.5,3.1-0.8,4.9-0.8c1.8,0,3.5,0.3,5,0.8c1.5,0.5,2.8,1.3,3.8,2.4c1.1,1,1.9,2.3,2.4,3.6C206.4,81.7,206.7,83.3,206.7,85   L206.7,85z M200.7,85c0-2.3-0.5-4.1-1.6-5.4c-1.1-1.3-2.5-1.9-4.4-1.9c-1.2,0-2.2,0.3-3.1,0.9c-0.9,0.6-1.6,1.4-2.1,2.5   c-0.5,1.1-0.7,2.4-0.7,3.9c0,1.5,0.2,2.8,0.7,3.9c0.5,1.1,1.2,1.9,2.1,2.5c0.9,0.6,1.9,0.9,3.1,0.9c1.8,0,3.3-0.6,4.4-1.9   C200.1,89,200.7,87.2,200.7,85L200.7,85z M234.9,85c0,1.7-0.3,3.2-0.8,4.6c-0.5,1.4-1.4,2.6-2.4,3.7c-1.1,1-2.3,1.8-3.8,2.3   c-1.5,0.5-3.1,0.8-5,0.8c-1.8,0-3.5-0.3-4.9-0.8c-1.4-0.5-2.7-1.3-3.8-2.4c-1.1-1-1.9-2.3-2.4-3.6c-0.5-1.4-0.8-2.9-0.8-4.6   c0-1.7,0.3-3.3,0.8-4.7c0.6-1.4,1.4-2.6,2.4-3.6c1-1,2.3-1.8,3.8-2.3c1.5-0.5,3.1-0.8,4.9-0.8c1.8,0,3.5,0.3,5,0.8   c1.5,0.5,2.8,1.3,3.8,2.4c1.1,1,1.9,2.3,2.4,3.6C234.6,81.7,234.9,83.3,234.9,85L234.9,85z M228.9,85c0-2.3-0.5-4.1-1.6-5.4   c-1.1-1.3-2.5-1.9-4.4-1.9c-1.2,0-2.2,0.3-3.1,0.9c-0.9,0.6-1.6,1.4-2.1,2.5c-0.5,1.1-0.7,2.4-0.7,3.9c0,1.5,0.2,2.8,0.7,3.9   c0.5,1.1,1.2,1.9,2.1,2.5c0.9,0.6,1.9,0.9,3.1,0.9c1.8,0,3.3-0.6,4.4-1.9C228.3,89,228.9,87.2,228.9,85z M240.6,93V68.6   c0-1.1,0.3-2,0.8-2.6c0.5-0.6,1.3-0.9,2.2-0.9c0.9,0,1.6,0.3,2.2,0.9c0.6,0.6,0.8,1.4,0.8,2.6V93c0,1.1-0.3,2-0.9,2.6   c-0.6,0.6-1.3,0.9-2.2,0.9c-0.9,0-1.6-0.3-2.2-0.9C240.8,94.9,240.6,94.1,240.6,93L240.6,93z M256.8,70.9c-0.8,0-1.6-0.2-2.2-0.7   c-0.6-0.5-0.9-1.2-0.9-2c0-0.8,0.3-1.5,0.9-2c0.6-0.5,1.3-0.8,2.1-0.8c0.8,0,1.5,0.2,2.1,0.7c0.6,0.5,0.9,1.1,0.9,2   c0,0.9-0.3,1.5-0.9,2C258.3,70.7,257.6,70.9,256.8,70.9L256.8,70.9z M259.7,76.7V93c0,1.1-0.3,2-0.9,2.6c-0.6,0.6-1.3,0.9-2.2,0.9   c-0.9,0-1.6-0.3-2.2-0.9c-0.6-0.6-0.8-1.4-0.8-2.5V76.9c0-1.1,0.3-1.9,0.8-2.5c0.5-0.6,1.3-0.8,2.2-0.8c0.9,0,1.6,0.3,2.2,0.8   C259.5,74.9,259.7,75.7,259.7,76.7z M272.3,76.6v0.7c1.1-1.3,2.2-2.3,3.5-2.9c1.3-0.6,2.7-0.9,4.3-0.9c1.6,0,3,0.3,4.3,1   c1.2,0.7,2.2,1.6,2.8,2.7c0.4,0.7,0.6,1.4,0.8,2.2c0.1,0.8,0.2,1.8,0.2,3.1V93c0,1.1-0.3,2-0.8,2.6c-0.5,0.6-1.3,0.9-2.2,0.9   s-1.6-0.3-2.2-0.9c-0.6-0.6-0.8-1.4-0.8-2.5v-9.4c0-1.9-0.3-3.3-0.8-4.3c-0.6-1-1.7-1.5-3.3-1.5c-1,0-2.1,0.3-2.9,0.9   c-0.9,0.6-1.5,1.4-1.9,2.5c-0.3,0.8-0.4,2.4-0.4,4.7V93c0,1.1-0.3,2-0.9,2.6c-0.6,0.6-1.3,0.9-2.2,0.9c-0.9,0-1.6-0.3-2.1-0.9   c-0.6-0.6-0.8-1.4-0.8-2.5V76.7c0-1.1,0.3-1.9,0.8-2.4c0.5-0.5,1.2-0.8,2.1-0.8c0.5,0,1,0.1,1.4,0.4c0.4,0.2,0.8,0.6,1,1.1   C272.2,75.4,272.3,76,272.3,76.6L272.3,76.6z M317.2,77.6V94c0,1.9-0.2,3.5-0.6,4.8c-0.4,1.4-1.1,2.5-2.1,3.3   c-0.9,0.9-2.2,1.5-3.7,2c-1.5,0.4-3.4,0.6-5.7,0.6c-2.1,0-3.9-0.3-5.6-0.8c-1.6-0.5-2.9-1.2-3.8-2.1c-0.9-0.9-1.3-1.7-1.3-2.7   c0-0.7,0.3-1.2,0.8-1.7c0.5-0.4,1.1-0.6,1.8-0.6c0.9,0,1.7,0.4,2.3,1.1c0.3,0.4,0.6,0.8,1,1.1c0.4,0.4,0.7,0.7,1.1,1   c0.4,0.3,0.9,0.5,1.5,0.6c0.6,0.1,1.3,0.2,2,0.2c1.6,0,2.8-0.2,3.6-0.6c0.9-0.4,1.5-1,1.8-1.7c0.3-0.7,0.5-1.5,0.6-2.3   c0.1-0.8,0.1-2.2,0.1-4c-0.9,1.2-2,2.1-3.2,2.8c-1.2,0.6-2.7,0.9-4.3,0.9c-2,0-3.8-0.5-5.3-1.4c-1.5-1-2.7-2.3-3.5-4   c-0.8-1.7-1.2-3.7-1.2-6c0-1.7,0.2-3.2,0.7-4.6c0.5-1.4,1.2-2.5,2.1-3.4c0.9-0.9,2-1.6,3.1-2.1c1.2-0.5,2.5-0.7,3.9-0.7   c1.7,0,3.2,0.3,4.4,0.9c1.2,0.6,2.4,1.6,3.5,2.9v-0.8c0-1,0.3-1.7,0.8-2.3c0.5-0.5,1.2-0.8,2-0.8c1.2,0,1.9,0.4,2.3,1.1   C317,75.3,317.2,76.3,317.2,77.6L317.2,77.6z M299.8,84.8c0,2.3,0.5,4,1.6,5.2c1.1,1.2,2.4,1.8,4.1,1.8c1,0,1.9-0.3,2.8-0.8   c0.9-0.5,1.6-1.3,2.2-2.3c0.6-1,0.8-2.2,0.8-3.7c0-2.3-0.5-4.1-1.6-5.4c-1.1-1.3-2.5-1.9-4.3-1.9c-1.7,0-3.1,0.6-4.1,1.8   C300.3,80.8,299.8,82.5,299.8,84.8L299.8,84.8z" fill="#347822"  />
	
</g><path d="M8.2,0.3c0,0-7.9,0-7.9,7.9v50.9c0,0,0,7.9,7.9,7.9h46.3c0,0,7.9,0,7.9-7.9V8.2c0,0,0-7.9-7.9-7.9H8.2z" fill="#EBF0E6"  /><path d="M8.2,0.3c0,0-7.9,0-7.9,7.9v50.9c0,0,0,7.9,7.9,7.9h46.3  c0,0,7.9,0,7.9-7.9V8.2c0,0,0-7.9-7.9-7.9H8.2z" fill="none"  stroke="#EBF0E6"  stroke-width="0.621"  /><path d="M94.6,0.3c0,0-7.9,0-7.9,7.9v50.9c0,0,0,7.9,7.9,7.9h46.3c0,0,7.9,0,7.9-7.9V8.2c0,0,0-7.9-7.9-7.9H94.6z" fill="#A4BC8F"  /><path d="M94.6,0.3c0,0-7.9,0-7.9,7.9v50.9c0,0,0,7.9,7.9,7.9h46.3  c0,0,7.9,0,7.9-7.9V8.2c0,0,0-7.9-7.9-7.9H94.6z" fill="none"  stroke="#A4BC8F"  stroke-width="0.621"  /><path d="M180.7,0.3c0,0-7.9,0-7.9,7.9v50.9c0,0,0,7.9,7.9,7.9h46.3c0,0,7.9,0,7.9-7.9V8.2c0,0,0-7.9-7.9-7.9H180.7z" fill="#CBD9C0"  /><path d="M180.7,0.3c0,0-7.9,0-7.9,7.9v50.9c0,0,0,7.9,7.9,7.9h46.3  c0,0,7.9,0,7.9-7.9V8.2c0,0,0-7.9-7.9-7.9H180.7z" fill="none"  stroke="#CBD9C0"  stroke-width="0.621"  /><path d="M267.1,0.3c0,0-7.9,0-7.9,7.9v50.9c0,0,0,7.9,7.9,7.9h46.3c0,0,7.9,0,7.9-7.9V8.2c0,0,0-7.9-7.9-7.9H267.1z" fill="#EBF0E6"  /><path d="M267.1,0.3c0,0-7.9,0-7.9,7.9v50.9c0,0,0,7.9,7.9,7.9h46.3  c0,0,7.9,0,7.9-7.9V8.2c0,0,0-7.9-7.9-7.9H267.1z" fill="none"  stroke="#EBF0E6"  stroke-width="0.621"  /><g><path d="M5.2,31V16.4c0-1.2,0.3-2.2,0.8-2.8c0.6-0.6,1.3-0.9,2.2-0.9c0.9,0,1.7,0.3,2.3,0.9   c0.6,0.6,0.8,1.5,0.8,2.8v14.9c0,1.7,0.2,3.1,0.6,4.2c0.4,1.1,1,2,2,2.6c1,0.6,2.3,0.9,4,0.9c2.4,0,4.1-0.6,5.1-1.9   c1-1.3,1.5-3.2,1.5-5.8v-15c0-1.2,0.3-2.2,0.8-2.8c0.6-0.6,1.3-0.9,2.2-0.9c0.9,0,1.7,0.3,2.2,0.9c0.6,0.6,0.9,1.5,0.9,2.8V31   c0,2.4-0.2,4.3-0.7,5.9c-0.5,1.6-1.3,3-2.6,4.2c-1.1,1-2.4,1.8-3.8,2.2c-1.5,0.5-3.2,0.7-5.1,0.7c-2.3,0-4.3-0.3-6-0.8   c-1.7-0.5-3-1.3-4.1-2.3c-1.1-1.1-1.8-2.4-2.3-4C5.5,35.2,5.2,33.2,5.2,31z M41.8,16.4V27l12-12.5c0.6-0.6,1.1-1.1,1.5-1.3   c0.4-0.3,0.9-0.4,1.6-0.4c0.9,0,1.6,0.3,2.1,0.8c0.5,0.5,0.8,1.1,0.8,1.9c0,0.9-0.5,1.8-1.4,2.7L51,25.1l8.6,12.3   c0.6,0.9,1.1,1.6,1.4,2.2c0.3,0.6,0.5,1.3,0.5,1.9c0,0.7-0.3,1.3-0.8,1.8c-0.5,0.5-1.2,0.7-2.2,0.7c-0.9,0-1.5-0.2-2.1-0.5   c-0.5-0.4-1-0.8-1.4-1.5c-0.4-0.6-0.7-1.2-1-1.7l-7.2-11.1l-5,4.8v6.2c0,1.3-0.3,2.2-0.9,2.8c-0.6,0.6-1.3,0.9-2.2,0.9   c-0.5,0-1.1-0.1-1.5-0.4c-0.5-0.3-0.9-0.6-1.1-1.1c-0.2-0.4-0.3-0.8-0.4-1.3c0-0.5-0.1-1.2-0.1-2.2V16.4c0-1.2,0.3-2.2,0.8-2.8   c0.5-0.6,1.3-0.9,2.2-0.9c0.9,0,1.7,0.3,2.2,0.9C41.5,14.2,41.8,15.2,41.8,16.4z" fill="#347822"  />
	
</g><path d="M164.7,217.1c0,0-7.9,0-7.9,7.9v50.8c0,0,0,7.9,7.9,7.9H211  c0,0,7.9,0,7.9-7.9V225c0,0,0-7.9-7.9-7.9L164.7,217.1L164.7,217.1z" fill="none"  stroke="#EBF0E6"  stroke-width="0.621"  /><path d="M251.1,217.1c0,0-7.9,0-8.4,7.9l-3.2,50.9c0,0-0.5,7.9,7.4,7.9h50.5  c0,0,7.9,0,7.9-7.9V225c0,0,0-7.9-7.9-7.9L251.1,217.1L251.1,217.1L251.1,217.1z" fill="none"  stroke="#A4BC8F"  stroke-width="0.621"  /><path d="M337.2,217.1c0,0-7.9,0-7.9,7.9v50.8c0,0,0,7.9,7.9,7.9h46.3  c0,0,7.9,0,7.9-7.9V225c0,0,0-7.9-7.9-7.9L337.2,217.1L337.2,217.1z" fill="none"  stroke="#CBD9C0"  stroke-width="0.621"  /><g><path d="M164.7,217.1c0,0-7.9,0-7.9,7.9v50.8c0,0,0,7.9,7.9,7.9H211c0,0,7.9,0,7.9-7.9V225c0,0,0-7.9-7.9-7.9   L164.7,217.1L164.7,217.1z" fill="#EBF0E6"  /><path d="M251.1,217.1c0,0-7.9,0-8.4,7.9l-3.2,50.9c0,0-0.5,7.9,7.4,7.9h50.5c0,0,7.9,0,7.9-7.9V225   c0,0,0-7.9-7.9-7.9L251.1,217.1L251.1,217.1z" fill="#A4BC8F"  /><path d="M337.2,217.1c0,0-7.9,0-7.9,7.9v50.8c0,0,0,7.9,7.9,7.9h46.3c0,0,7.9,0,7.9-7.9V225c0,0,0-7.9-7.9-7.9   L337.2,217.1L337.2,217.1z" fill="#CBD9C0"  /><path d="M423.6,217.1c0,0-7.9,0-7.9,7.9v50.8c0,0,0,7.9,7.9,7.9h46.3c0,0,7.9,0,7.9-7.9V225c0,0,0-7.9-7.9-7.9   L423.6,217.1L423.6,217.1z" fill="#EBF0E6"  />
	
	
	
	
</g><path d="M423.6,217.1c0,0-7.9,0-7.9,7.9v50.8c0,0,0,7.9,7.9,7.9h46.3  c0,0,7.9,0,7.9-7.9V225c0,0,0-7.9-7.9-7.9L423.6,217.1L423.6,217.1z" fill="none"  stroke="#EBF0E6"  stroke-width="0.621"  /><g><path d="M329.3,248.7H144.2c-24,0-35.5-12.9-40.9-23.7c-5.6-11.2-5.7-22.5-5.7-22.9V83.4c0-24,12.9-35.5,23.7-40.9   c11.3-5.6,22.5-5.7,22.9-5.7h185.1c24,0,35.5,12.9,40.9,23.7c5.6,11.3,5.7,22.5,5.7,22.9V202c0,24-12.9,35.5-23.7,40.9   C341,248.6,329.8,248.7,329.3,248.7L329.3,248.7z M144.2,50.8c-0.1,0-8.7,0.1-17,4.4c-10.4,5.4-15.5,14.6-15.5,28.2V202   c0,0.1,0.1,8.7,4.4,17c5.4,10.4,14.6,15.5,28.2,15.5h185.1c0.3,0,8.8-0.2,17.1-4.4c10.4-5.4,15.5-14.6,15.5-28.2V83.4   c0-0.1-0.1-8.7-4.4-17c-5.4-10.4-14.6-15.5-28.2-15.5H144.2z" fill="#347822"  />
	
</g></svg>