<svg viewBox="0 0 489 283.5" role="img" aria-labelledby="toby-xe--title" xmlns="http://www.w3.org/2000/svg" xmlns:xlink="http://www.w3.org/1999/xlink"><title id="toby-xe--title">TOBY Xe</title><path d="M11.3,0.5c0,0-11.3,0-11.3,11.3v44c0,0,0,11.3,11.3,11.3H52c0,0,11.3,0,11.3-11.3v-44c0,0,0-11.3-11.3-11.3  C52,0.5,11.3,0.5,11.3,0.5z" fill="#EAE2EF"  /><path d="M83.1,0c0,0-11.3,0-11.3,11.3v44c0,0,0,11.3,11.3,11.3h40.7c0,0,11.3,0,11.3-11.3v-44c0,0,0-11.3-11.3-11.3  L83.1,0z" fill="#F1ECF5"  /><path d="M154.5,0.5c0,0-11.3,0-11.3,11.3v44c0,0,0,11.3,11.3,11.3h40.7c0,0,11.3,0,11.3-11.3v-44  c0,0,0-11.3-11.3-11.3C195.2,0.5,154.5,0.5,154.5,0.5z" fill="#DCCFE4"  /><path d="M225.7,0c0,0-11.3,0-11.3,11.3v44c0,0,0,11.3,11.3,11.3h40.7c0,0,11.3,0,11.3-11.3v-44c0,0,0-11.3-11.3-11.3  L225.7,0z" fill="#EAE2EF"  /><g><path d="M144.3,118.2h-11.9v39.2c0,2.3-0.5,3.9-1.5,5s-2.3,1.6-3.9,1.6c-1.6,0-2.9-0.6-4-1.7c-1-1.1-1.5-2.8-1.5-5   v-39.2h-11.9c-1.9,0-3.3-0.4-4.2-1.2c-0.9-0.8-1.4-1.9-1.4-3.3c0-1.4,0.5-2.5,1.4-3.3c0.9-0.8,2.3-1.2,4.1-1.2h34.7   c1.9,0,3.3,0.4,4.2,1.3c0.9,0.8,1.4,1.9,1.4,3.3c0,1.3-0.5,2.4-1.4,3.3C147.5,117.8,146.1,118.2,144.3,118.2z M173.9,108.3   c5.6,0,10.4,1.1,14.4,3.4c4,2.3,7,5.5,9.1,9.7c2.1,4.2,3.1,9.1,3.1,14.7c0,4.2-0.6,8-1.7,11.4c-1.1,3.4-2.8,6.4-5.1,8.9   c-2.3,2.5-5,4.4-8.3,5.7c-3.3,1.3-7.1,2-11.3,2c-4.2,0-8-0.7-11.3-2c-3.3-1.4-6.1-3.3-8.4-5.8c-2.2-2.5-3.9-5.5-5.1-8.9   c-1.1-3.5-1.7-7.3-1.7-11.3c0-4.1,0.6-8,1.8-11.4c1.2-3.5,2.9-6.4,5.2-8.8s5-4.3,8.2-5.6C166.1,108.9,169.8,108.3,173.9,108.3   L173.9,108.3z M189.4,136c0-4-0.6-7.4-1.9-10.3s-3.1-5.1-5.5-6.6c-2.4-1.5-5.1-2.2-8.2-2.2c-2.2,0-4.2,0.4-6.1,1.2   c-1.8,0.8-3.5,2-4.8,3.6c-1.3,1.6-2.4,3.6-3.2,6c-0.8,2.4-1.2,5.2-1.2,8.2c0,3.1,0.4,5.8,1.2,8.3c0.8,2.5,1.9,4.5,3.3,6.2   c1.4,1.6,3,2.9,4.9,3.7c1.8,0.8,3.8,1.2,6,1.2c2.8,0,5.4-0.7,7.7-2.1c2.3-1.4,4.2-3.6,5.6-6.5C188.7,143.9,189.4,140.3,189.4,136z    M227.7,163.2h-16.5c-2.4,0-4.1-0.5-5.1-1.6c-1-1.1-1.5-2.8-1.5-5.1v-40.6c0-2.4,0.5-4.1,1.6-5.1c1-1,2.7-1.6,5.1-1.6h17.5   c2.6,0,4.8,0.2,6.7,0.5c1.9,0.3,3.6,0.9,5.1,1.8c1.3,0.8,2.4,1.7,3.4,2.9c1,1.1,1.7,2.5,2.2,3.9c0.5,1.4,0.8,2.9,0.8,4.5   c0,5.4-2.7,9.4-8.1,11.9c7.1,2.3,10.6,6.7,10.6,13.2c0,3-0.8,5.7-2.3,8.1c-1.5,2.4-3.6,4.2-6.3,5.4c-1.6,0.7-3.5,1.2-5.7,1.5   C233,163,230.6,163.2,227.7,163.2z M215.5,117.4v13.9h10c2.7,0,4.8-0.3,6.3-0.8c1.5-0.5,2.6-1.5,3.4-2.9c0.6-1,0.9-2.2,0.9-3.5   c0-2.7-1-4.5-2.9-5.4c-1.9-0.9-4.9-1.3-8.9-1.3L215.5,117.4L215.5,117.4z M226.9,139.2h-11.4V155h11.7c7.4,0,11.1-2.7,11.1-8   c0-2.7-1-4.7-2.9-5.9C233.6,139.8,230.7,139.2,226.9,139.2L226.9,139.2z M265.6,157.4v-17.1l-13.2-20.4c-1.2-1.8-2-3.3-2.4-4.3   c-0.5-1-0.7-1.9-0.7-2.7c0-1.2,0.5-2.3,1.5-3.2c1-0.9,2.2-1.4,3.6-1.4c1.5,0,2.6,0.4,3.4,1.3c0.8,0.8,1.9,2.5,3.5,5.1l10.1,16.4   l10.2-16.4c0.6-1,1.1-1.9,1.5-2.5c0.4-0.7,0.9-1.3,1.4-1.9c0.5-0.6,1.1-1.1,1.7-1.4c0.6-0.3,1.4-0.5,2.2-0.5c1.4,0,2.5,0.4,3.4,1.3   c0.9,0.9,1.4,1.9,1.4,3.1c0,1-0.2,1.9-0.7,2.9c-0.5,1-1.3,2.3-2.4,4l-13.5,20.7v17.1c0,2.2-0.5,3.9-1.5,5c-1,1.1-2.3,1.7-3.9,1.7   c-1.6,0-2.9-0.5-3.9-1.6C266.1,161.4,265.6,159.7,265.6,157.4L265.6,157.4z M307,152.7l12.1-17.6l-10.2-15.7   c-1-1.5-1.7-2.8-2.2-3.9c-0.5-1.1-0.7-2.1-0.7-3.1c0-1,0.5-1.9,1.4-2.8c0.9-0.8,2-1.2,3.4-1.2c1.5,0,2.7,0.4,3.6,1.3   c0.8,0.9,2,2.6,3.5,5l8.1,13.1l8.6-13.1l1.8-2.8c0.5-0.8,1-1.4,1.5-2c0.4-0.5,1-0.9,1.6-1.2c0.6-0.3,1.2-0.4,2-0.4   c1.4,0,2.5,0.4,3.4,1.2c0.9,0.8,1.3,1.8,1.3,2.9c0,1.6-0.9,3.9-2.8,6.7L332.7,135l11.4,17.6c1,1.5,1.8,2.8,2.2,3.8   c0.5,1,0.7,2,0.7,2.9c0,0.9-0.2,1.6-0.6,2.4c-0.4,0.7-1,1.3-1.8,1.7c-0.8,0.4-1.7,0.6-2.6,0.6c-1,0-1.9-0.2-2.6-0.6   c-0.7-0.4-1.3-0.9-1.7-1.6c-0.4-0.6-1.3-1.9-2.5-3.7l-9.5-14.9l-10.1,15.4c-0.8,1.2-1.3,2.1-1.7,2.6c-0.4,0.5-0.8,1-1.2,1.4   c-0.5,0.5-1,0.8-1.7,1.1c-0.6,0.3-1.4,0.4-2.2,0.4c-1.3,0-2.4-0.4-3.3-1.2c-0.9-0.8-1.3-2-1.3-3.5   C304.3,157.5,305.2,155.3,307,152.7L307,152.7z" fill="#8B5F9A"  /><path d="M376.6,146.1H357c0,2.3,0.5,4.3,1.4,6c0.9,1.7,2.1,3.1,3.6,3.9c1.5,0.9,3.1,1.3,4.9,1.3   c1.2,0,2.3-0.1,3.3-0.4c1-0.3,2-0.7,2.9-1.3c0.9-0.6,1.8-1.2,2.6-1.9c1-0.9,2.1-1.8,3.1-2.8c0.5-0.4,1.2-0.7,2.2-0.7   c1,0,1.9,0.3,2.5,0.8c0.6,0.6,1,1.4,1,2.4c0,0.9-0.4,2-1.1,3.2c-0.7,1.2-1.8,2.4-3.2,3.5c-1.4,1.1-3.2,2-5.4,2.8   c-2.2,0.7-4.7,1.1-7.5,1.1c-6.5,0-11.5-1.8-15.1-5.5c-3.6-3.7-5.4-8.7-5.4-15c0-3,0.4-5.7,1.3-8.3c0.9-2.5,2.2-4.7,3.9-6.5   c1.7-1.8,3.8-3.2,6.3-4.2c2.5-1,5.2-1.5,8.2-1.5c3.9,0,7.3,0.8,10.1,2.5c2.8,1.7,4.9,3.8,6.3,6.4c1.4,2.6,2.1,5.3,2.1,8   c0,2.5-0.7,4.2-2.2,4.9C381.3,145.8,379.2,146.1,376.6,146.1L376.6,146.1z M357,140.4h18.2c-0.2-3.4-1.2-6-2.8-7.7   c-1.6-1.7-3.7-2.6-6.3-2.6c-2.5,0-4.6,0.9-6.2,2.6C358.3,134.5,357.3,137,357,140.4z" fill="#8B5F9A"  />
	
	
</g><path d="M222.6,216.9c0,0-11.3,0-11.3,11.3v44c0,0,0,11.3,11.3,11.3h40.7c0,0,11.3,0,11.3-11.3v-44  c0,0,0-11.3-11.3-11.3L222.6,216.9L222.6,216.9z" fill="#EAE2EF"  /><path d="M294.3,216.3c0,0-11.3,0-11.3,11.3v44c0,0,0,11.3,11.3,11.3H335c0,0,11.3,0,11.3-11.3v-44  c0,0,0-11.3-11.3-11.3L294.3,216.3L294.3,216.3z" fill="#F1ECF5"  /><path d="M365.8,216.9c0,0-11.3,0-11.3,11.3v44c0,0,0,11.3,11.3,11.3h40.7c0,0,11.3,0,11.3-11.3v-44  c0,0,0-11.3-11.3-11.3L365.8,216.9L365.8,216.9z" fill="#DCCFE4"  /><path d="M437,216.3c0,0-11.3,0-11.3,11.3v44c0,0,0,11.3,11.3,11.3h40.7c0,0,11.3,0,11.3-11.3v-44  c0,0,0-11.3-11.3-11.3L437,216.3L437,216.3z" fill="#EAE2EF"  /><path d="M385,251.7H106.4c-16.6,0-22.6-13.5-22.6-22.6V55.2c0-16.6,13.5-22.6,22.6-22.6H385  c16.6,0,22.6,13.5,22.6,22.6v173.8C407.6,245.7,394.1,251.7,385,251.7z M106.4,43.9c-2.6,0-11.3,1-11.3,11.3v173.8  c0,2.6,1,11.3,11.3,11.3H385c2.7-0.1,11.3-1,11.3-11.3V55.2c0-2.6-1-11.3-11.3-11.3C385,43.9,106.4,43.9,106.4,43.9z" fill="#8B5F9A"  /></svg>