<svg viewBox="0 0 1259.7 283.5" role="img" focusable="false" aria-labelledby="ukoss--title" xmlns="http://www.w3.org/2000/svg" xmlns:xlink="http://www.w3.org/1999/xlink"><title id="ukoss--title">UKOSS - UK Obstetric Surveillance System</title><path d="M655.3,119.6c0-26.7-21.3-48-48-48s-48.1,21.3-48.1,48s21.3,48,48,48C633.4,167.6,655.3,145.8,655.3,119.6" fill="#9E1E54"  /><path d="M720.1,112c3.6-9.3-0.8-19.6-10.3-23.1c-9.3-3.6-19.6,0.8-23.1,10.3c-3.6,9.3,0.8,19.6,10.3,23.1 C705.9,125.7,716.6,121.3,720.1,112" fill="#66B7E7"  /><path d="M642.7,189.9c5.3,0.8,22.7,2.6,45.8-11.1c17.4-10.3,28.5-25.3,29.8-34.6c0.8-7.1-4-13.8-11.1-15.2 c-3.1-0.4-5.8,0-8.5,1.8c-8.9,4.9-11.1,21.3-19.6,33.8c-12.4,18.2-28,19.1-35.6,19.6c-1.8,0-3.1,1.4-3.1,3.1 C640.1,188.5,640.9,189.9,642.7,189.9" fill="#66B7E7"  /><path d="M715.2,167.2c-8.1,9.7-31.6,31.2-60.5,31.2c-28.9,0-43.1-14.6-64.4-23.5c-16.8-7.1-36.4,0.8-43.5,17.8 c-5.3,12.4-2.2,26.3,6.7,35.6c14.6,16,44.5,28,92.9,11.5c48.4-16,72-62.7,75.5-68.4c0.8-1.8,0-4-1.8-4.9 C718.3,165,716,165.4,715.2,167.2" fill="#9E1E54"  /><g><path d="M5.8,10.3c3.6-3.6,8.1-4.9,12.9-4.9c5.3,0,9.7,1.8,12.9,4.9c3.6,3.6,4.9,7.5,4.9,12.9V186 c0,12.4,3.1,23.5,9.7,33.4s15.9,17.1,27.4,22.5c11.5,5.3,25.3,8.1,40.5,8.1c14.2,0,27.1-2.6,38.7-8.1c11.5-5.3,20.4-12.9,26.7-22.7 c6.3-9.7,9.7-20.9,9.7-33.4V23.5c0-5.3,1.8-9.7,5.3-12.9c3.6-3.6,8.1-4.9,12.9-4.9c5.3,0,9.3,1.8,12.9,4.9 c3.6,3.6,4.9,7.5,4.9,12.9v162.7c0,18.6-4.9,35.1-14.2,50.2c-9.3,14.6-22.7,26.3-39.5,34.6c-16.8,8.5-36,12.4-57.3,12.4 c-22.3,0-41.7-4-59.1-12.4c-17.4-8.5-30.7-19.6-40.5-34.2C4.9,222.3,0,205.3,0,186.7V23.5C0.8,18.2,2.2,13.8,5.8,10.3z" fill="#66B7E7"  /><path d="M326.7,272.5c-3.6,3.6-8.1,5.3-12.9,5.3s-9.3-1.8-12.9-5.3c-3.6-3.6-5.3-8.1-5.3-12.9v-236 c0-5.3,1.8-9.3,5.3-12.9c3.6-3.6,8.1-5.3,12.9-5.3c5.3,0,9.3,1.8,12.9,5.3c3.6,3.6,5.3,8.1,5.3,12.9V128L447.6,12.4 c2.6-2.6,5.3-4.9,7.5-5.8c2.2-0.8,4.9-1.8,7.5-1.8c4.9,0,8.5,1.4,11.5,4.5c2.6,3.1,4,6.7,4,10.7c0,6.3-2.2,11.1-6.7,15.6 l-88.9,89.3l90.7,123.5c2.2,3.1,3.6,7.1,3.6,11.1c0,4.5-1.4,8.9-4.5,12.4c-3.1,3.6-6.7,5.3-11.5,5.3c-6.7,0-11.5-2.6-15.2-7.5 l-88.9-119.6l-25.3,25.3v84C331.6,264.4,329.8,268.9,326.7,272.5z" fill="#66B7E7"  /><path d="M711.6,19.6c20.9,12,37.3,28.5,49.4,49.4c11.5,21.3,17.8,45.3,17.8,72c0,27.1-5.8,51.2-17.8,72.5 c-11.5,21.3-28,37.8-49,49.8c-20.9,12-44.9,17.8-72,17.8s-51.2-5.8-72-17.8c-20.9-12-37.3-28.5-49-49.8s-17.4-45.3-17.4-72.5 s5.8-51.2,17.4-72c11.5-21.3,28-37.8,49-49.4c20.9-12,44.9-17.8,72-17.8C666.8,1.8,690.7,7.5,711.6,19.6z M586.7,48.4 c-15.6,9.3-28,22.3-36.9,38.2c-8.9,16.4-13.4,34.2-13.4,54.2s4.5,38.2,13.4,54.2c8.9,16.4,21.3,29.3,36.9,38.7 c16,9.3,33.8,14.2,53.3,14.2c19.6,0,37.3-4.9,53.3-14.2c16-9.3,28-22.3,36.9-38.7c8.9-16.4,13.4-34.2,13.4-54.2 s-4.5-38.2-13.4-54.2c-8.9-16.4-20.9-28.9-36.9-38.2c-15.6-9.3-33.4-13.8-53.3-13.8C620.1,34.6,602.3,39.1,586.7,48.4z" fill="#66B7E7"  /><path d="M977.5,14.2c13.8,8.1,25.3,19.6,34.6,34.6c2.6,4.5,4,8.5,4,12.4c0,5.3-2.2,9.3-7.1,12.4 c-2.6,1.8-5.8,2.2-8.9,2.2c-3.6,0-6.7-0.8-9.7-2.6s-5.3-4-7.1-7.1c-6.3-10.7-14.2-18.2-23.5-24.1c-9.3-5.3-21.3-8.1-35.6-8.1 c-17.8,0-32,3.6-43.1,10.3C870,50.9,864.7,61.1,864.7,74c0,12,4.9,22.3,14.6,30.2c9.7,8.1,27.1,13.4,52.4,16 c28,2.6,49.4,11.1,65,25.3c15.6,14.2,23.1,32.4,23.1,55.5c0,16.8-4.5,31.2-13.8,43.1c-8.9,12-20.9,20.9-36,26.7 c-15.2,5.8-31.2,8.9-48.4,8.9c-22.7,0-43.1-5.3-61.8-15.6s-31.2-23.5-38.2-40.1c-1.4-2.6-1.8-4.9-1.8-7.1c0-3.6,1.4-6.7,4-9.3 c2.6-2.6,6.3-4.5,10.7-5.3c0.8-0.4,1.8-0.4,3.6-0.4c3.6,0,7.1,0.8,10.7,3.1c3.6,2.2,5.8,5.3,7.5,8.9c4,8.9,12.4,16.8,24.9,23.1 c12.4,6.3,25.7,9.3,40.9,9.3c17.4,0,32-4,44.5-12c12-8.1,18.2-19.1,18.2-32.8c0-13.4-5.3-24.5-15.6-34.2 c-10.3-9.3-25.7-15.2-46.7-17.4c-28.9-2.6-51.6-11.1-68-25.3c-16.4-14.2-24.9-31.6-24.9-52.9c0-14.6,4.5-27.5,12.9-38.7 c8.5-10.7,20-19.1,34.6-24.9S908.5,0,926.8,0C946.8,2.2,963.6,6.3,977.5,14.2z" fill="#66B7E7"  /><path d="M1217.5,14.2c13.8,8.1,25.3,19.6,34.6,34.6c2.6,4.5,4,8.5,4,12.4c0,5.3-2.2,9.3-7.1,12.4 c-2.6,1.8-5.8,2.2-8.9,2.2c-3.6,0-6.7-0.8-9.7-2.6c-3.1-1.8-5.3-4-7.1-7.1c-6.3-10.7-14.2-18.2-23.5-24.1 c-9.3-5.3-21.3-8.1-35.6-8.1c-17.8,0-32,3.6-43.1,10.3s-16.4,16.8-16.4,29.8c0,12,4.9,22.3,14.6,30.2c9.7,8.1,27.1,13.4,52.4,16 c28,2.6,49.4,11.1,65,25.3c15.6,14.2,23.1,32.4,23.1,55.5c0,16.8-4.5,31.2-13.8,43.1c-8.9,12-20.9,20.9-36,26.7 c-15.2,5.8-31.2,8.9-48.4,8.9c-22.7,0-43.1-5.3-61.8-15.6s-31.2-23.5-38.2-40.1c-1.4-2.6-1.8-4.9-1.8-7.1c0-3.6,1.4-6.7,4-9.3 c2.6-2.6,6.3-4.5,10.7-5.3c0.8-0.4,1.8-0.4,3.6-0.4c3.6,0,7.1,0.8,10.7,3.1c3.6,2.2,5.8,5.3,7.5,8.9c4,8.9,12.4,16.8,24.9,23.1 c12.4,6.3,25.7,9.3,40.9,9.3c17.4,0,32-4,44.5-12c12-8.1,18.2-19.1,18.2-32.8c0-13.4-5.3-24.5-15.6-34.2 c-10.3-9.3-25.7-15.2-46.7-17.4c-28.9-2.6-51.6-11.1-68-25.3s-24.9-31.6-24.9-52.9c0-14.6,4.5-27.5,12.9-38.7 c8.5-10.7,20-19.1,34.6-24.9c14.6-5.8,31.4-8.2,49.7-8.2C1186.9,2.2,1203.7,6.3,1217.5,14.2z" fill="#66B7E7"  />
    
    
    
    
    
  </g></svg>