<svg viewBox="0 0 1483.7 283.5" role="img" focusable="false" aria-labelledby="valentia--title" xmlns="http://www.w3.org/2000/svg" xmlns:xlink="http://www.w3.org/1999/xlink"><title id="valentia--title">Valentia</title><g><path d="M1470.5,132c-8.8-15.4-20.8-27.5-36.1-36.2c-15.3-8.8-32.3-13.2-51-13.2c-18.8,0-35.8,4.4-51,13.2 c-15.3,8.8-27.3,20.9-36.1,36.2c-8.8,15.4-13.2,32.5-13.2,51.2s4.3,35.8,12.8,51c8.5,15.3,20.2,27.3,35,36.1s31.3,13.2,49.6,13.2 c15.6,0,29.9-3.3,42.9-9.9s23.7-15.7,32.1-27.2V268c0,4.1,1.3,7.4,4,9.9c2.6,2.5,6,3.8,10.1,3.8s7.4-1.3,10.1-4 c2.6-2.6,4-5.9,4-9.7v-84.8C1483.7,164.5,1479.3,147.4,1470.5,132z M1450.7,213.2c-0.5-2.3-1.3-4.9-2.5-8 c-1.8-4.9-3.6-9.7-5.5-14.6c-1.8-4.7-3.2-9.6-5.1-14.3c-1.6-3.9-4.1-7.2-7.1-10c-6.5-6.8-14.3-10.7-23.3-11.8h-0.1 c-1.9-0.2-3.8-0.4-5.7-0.4c-11.5,0-23.1,0-34.6,0c-8,0-15.6,1.9-22.3,6.5c-6,4.1-11.2,8.9-14,15.7c-2,4.7-3.3,9.6-5.1,14.3 c-1.8,4.9-3.6,9.7-5.5,14.6c-1.7,4.4-2.5,7.9-3,10.7c-4.5-9.9-6.7-20.9-6.7-32.7c0-14.2,3.2-27,9.6-38.4 c6.4-11.4,15.1-20.4,26.3-27c3.2-1.9,6.5-3.5,10-4.8c-0.2,1.1-0.4,2.2-0.4,3.3c-0.6,11.3,3.9,20,13,26.2c9.7,6.6,24.1,5.8,33.4-1.9 c8.4-6.9,11.8-17.4,10.1-27.1c2.9,1.2,5.7,2.6,8.4,4.3c11.1,6.6,19.8,15.6,26.1,27c6.4,11.4,9.6,24.2,9.6,38.4 C1456.3,194,1454.4,204,1450.7,213.2z" fill="#5F6DB2"  /><path d="M420.7,132c-8.8-15.4-20.8-27.5-36.1-36.2c-15.3-8.8-32.3-13.2-51-13.2c-18.8,0-35.8,4.4-51,13.2 c-15.3,8.8-27.3,20.9-36.1,36.2c-8.8,15.4-13.2,32.5-13.2,51.2s4.3,35.8,12.8,51c8.5,15.3,20.2,27.3,35,36.1s31.3,13.2,49.6,13.2 c15.6,0,29.9-3.3,42.9-9.9s23.7-15.7,32.1-27.2V268c0,4.1,1.3,7.4,4,9.9c2.6,2.5,6,3.8,10.1,3.8s7.4-1.3,10.1-4 c2.6-2.6,4-5.9,4-9.7v-84.8C433.9,164.5,429.5,147.4,420.7,132z M269.9,221.6c-6.4-11.4-9.6-24.2-9.6-38.4s3.2-27,9.6-38.4 c5.5-9.9,12.9-18,22-24.3c-1.1,13.7,1.5,25,4.4,38.1c0.9,4.1,1.9,8.4,2.8,13c-0.8,4.1-2.3,8.5-3.9,13c-3.7,10.7-7.9,22.8-4.6,36 c0.1,0.2,0.1,0.5,0.2,0.7c4.1,11,6.7,20.8,8.3,28.7c-1-0.5-2-1-3-1.6C285.1,242,276.3,233,269.9,221.6z M396.9,221.6 c-6.4,11.4-15.1,20.4-26.1,26.9c-4.9,2.9-10.2,5.1-15.6,6.7c1.9-9.3,2.7-17.6,2.4-25c3.4-3.4,4.6-5.6,4.8-9.2 c0.6-0.4,1.1-0.8,1.6-1.3c2.3-0.2,4.6-1.2,6.2-3.1c1-1.2,1.7-2.6,1.9-4c0.1-0.1,0.1-0.2,0.2-0.2c0.3-0.4,0.6-0.7,0.8-1.1 c3.8-3.6,4-8.6,0.6-14.7c8.5-18.1-0.2-34.2-7.1-45.5c0.2-1.5,0.6-3,0.9-4.6c1.4-5.9,3.3-14-4-22.6c-0.2-0.2-0.4-0.5-0.6-0.7 c-6.5-5.8-10.7-9.8-14.9-14c8.2,1.5,15.8,4.4,22.9,8.6c11.1,6.6,19.8,15.6,26.1,27c6.4,11.4,9.6,24.2,9.6,38.4 C406.4,197.4,403.3,210.2,396.9,221.6z" fill="#5F6DB2"  /><path d="M340.2,217.3c-4.2,0-7.7-2.8-8.8-7.2c-1-3.9,0.2-9,5.1-11.6c0.1-0.1,0.2-0.1,0.4-0.1c0.4,0,0.6-0.4,0.9-1.1 c0.4-0.7,0.9-1.8,2.1-1.8c1.8-0.9,3.1-1.3,4.3-1.3c0.6,0,1.1,0.1,1.7,0.3c-0.8-1.6-1.9-3.8-2.9-3.8c-0.3,0-0.7,0.2-1.2,0.7 c-0.4,0.5-1.2,0.9-2.3,0.9c-0.9,0-1.7-0.3-2.2-0.9c-0.1-0.1-0.2-0.3-0.2-0.5c-0.4-2-0.3-3.4,0.5-4.3c0.6-0.8,1.6-1.2,3-1.2 c0,0,0,0,0.1,0c-1.3-0.9-2.3-1.8-2.2-3.1c0-1.1,0.9-2.1,2.6-3c0.1-0.1,0.3-0.1,0.5-0.1l0,0c1.1,0,1.8,0.8,2.4,1.5 c-0.7-2.8-0.2-5.3,0.4-7.5c-0.4,0-0.8,0.1-1.2,0.2c-0.6,0.1-1.2,0.3-1.8,0.3c-1.2,0-1.8-0.6-2.1-1.1c-0.2-0.3-0.2-0.6-0.1-0.9 c1.1-3.4,6.2-5.2,9.5-5.2c0.4,0,0.8,0,1.1,0.1c0.2,0,0.3,0.1,0.5,0.2c1.5,1.2,1.2,3,0.9,4.5c-0.1,0.6-0.2,1.1-0.2,1.6 c2.3-2,4.5-3,6.5-3c2.8,0,5.1,2,6.6,5.5c2.7,6.5,2.1,18-2.8,22.9C351.9,214.8,344.1,217.3,340.2,217.3L340.2,217.3z" fill="#FFFFFF"  /><path d="M1380.1,244c-3.6-1-12.9-6.7-13.9-10.1c-5.9,1.7-10.4,0.2-13.2-1.4c-4.3-2.5-7.6-7.1-8.5-11.8 c-1.6-9.3,4.4-18.2,13.4-19.9c4.6-0.9,9.4,0.3,13.2,3.1c3.4,2.6,5.7,6.4,6.6,10.8c0.9-0.4,1.7-0.9,2.6-1.2 c4.2-1.7,8.7-1.6,13.8,0.3c6.9,2.6,13.7,5.3,20.5,7.9l7.3,2.8c0.2,0.1,0.4,0.2,0.7,0.4l0.5,0.3c0.4,0.2,0.6,0.6,0.7,1.1 c0.1,0.4-0.1,0.9-0.4,1.2c-0.6,0.5-1.1,1-1.7,1.6c-1.2,1.2-2.4,2.3-3.7,3.3C1409.2,239.4,1390.9,248.1,1380.1,244z" fill="#FFFFFF"  /><path d="M240.7,3.6c2.3,2.4,3.4,5.4,3.4,9c0,2.4-0.6,5-1.8,7.9L134.9,272.6c-2.7,6-6.9,9-12.6,9 c-3.1,0-5.7-0.7-7.8-2c-2-1.3-3.8-3.7-5.2-7L2.2,22C0.7,18.4,0,15.3,0,12.6c0-3.8,1.3-6.9,3.8-9.2S9.6,0,13.7,0c6.2,0,10.6,3,13,9 l95.6,228.6L217.5,9.7c1.4-3.6,3.2-6.1,5.4-7.6c2.2-1.4,5-2.2,8.7-2.2C235.4,0,238.4,1.2,240.7,3.6z" fill="#EA6852"  /><path d="M484.7,3.8c2.6-2.5,5.9-3.8,9.7-3.8c4.1,0,7.4,1.3,9.9,3.8s3.8,5.8,3.8,9.9v205.6c0,10.3,2.1,18.8,6.3,25.2 c4.2,6.5,9.6,9.7,16,9.7h9c3.6,0,6.5,1.3,8.7,3.8s3.2,5.8,3.2,9.9s-1.5,7.4-4.5,9.9s-6.9,3.8-11.7,3.8h-4.7 c-14.7,0-26.6-5.8-35.9-17.5c-9.3-11.7-13.9-26.6-13.9-44.9V13.7C480.7,9.6,482,6.3,484.7,3.8z" fill="#EA6852"  /><path d="M710.1,95c13.7,8.3,24.3,19.8,31.9,34.4c7.6,14.7,11.4,31.4,11.4,50.1c0,3.8-1.2,6.9-3.6,9.2 c-2.4,2.3-5.5,3.4-9.4,3.4H594.7c1.9,19.7,9.6,35.7,23.1,48s30.3,18.4,50.5,18.4c8.7,0,17.4-1.5,26.1-4.5c8.8-3,15.8-6.8,21.1-11.4 c3.1-2.4,6.4-3.6,9.7-3.6c2.6,0,5.3,1,7.9,2.9c3.1,2.9,4.7,6.1,4.7,9.7c0,3.1-1.3,5.9-4,8.3c-7.9,6.7-18,12.3-30.3,16.8 s-24,6.7-35.3,6.7c-19.2,0-36.4-4.3-51.6-12.8c-15.1-8.5-27-20.4-35.5-35.7s-12.8-32.5-12.8-51.8c0-19.5,4-36.8,12.1-52.1 s19.2-27.2,33.5-35.7s30.6-12.8,48.9-12.8C680.6,82.6,696.4,86.7,710.1,95z M617.4,124.4c-12,11.3-19.4,26.2-22,44.7h132 c-1.9-18.5-8.7-33.4-20.2-44.7s-26.3-17-44.4-17C644.6,107.5,629.4,113.1,617.4,124.4z" fill="#EA6852"  /><path d="M939.6,93c13.6,7.2,24.2,17.7,31.9,31.6c7.7,13.8,11.5,30.4,11.5,49.6V268c0,3.8-1.3,7.1-4,9.7 s-5.9,4-9.7,4c-4.1,0-7.5-1.3-10.1-4c-2.6-2.6-4-5.9-4-9.7v-93.8c0-21.4-6-37.7-17.9-48.9c-11.9-11.2-27.5-16.8-46.7-16.8 c-11.8,0-22.4,2.3-31.9,6.9s-17,10.9-22.5,18.9c-5.5,8.1-8.3,17-8.3,26.9V268c0,4.1-1.3,7.4-3.8,9.9s-5.8,3.8-9.9,3.8 c-4.1,0-7.5-1.3-10.1-3.8s-4-5.8-4-9.9V98.5c0-4.1,1.3-7.5,4-10.1c2.6-2.6,6-4,10.1-4s7.4,1.3,9.9,4c2.5,2.6,3.8,6,3.8,10.1v12.3 c7.9-8.9,17.5-15.9,28.9-20.9c11.3-5,23.6-7.6,36.8-7.6C910.7,82.2,926.1,85.8,939.6,93z" fill="#EA6852"  /><path d="M1140.7,257.9c2.4,2.6,3.6,6,3.6,10.1c0,3.8-1.4,7.1-4.3,9.7s-6.5,4-10.8,4h-7.6c-12.7,0-24.2-3.1-34.3-9.2 c-10.1-6.1-18-14.4-23.6-24.9c-5.7-10.5-8.5-22.3-8.5-35.5v-96.3h-23.4c-3.9,0-6.9-1.1-9.2-3.4s-3.4-5.1-3.4-8.5 c0-3.6,1.1-6.5,3.4-8.8c2.3-2.3,5.3-3.4,9.2-3.4h23.4v-56c0-4.1,1.3-7.4,3.8-10.1c2.5-2.6,5.8-4,9.9-4s7.5,1.3,10.1,4 c2.6,2.6,4,6,4,10.1v55.9h40.8c3.8,0,6.9,1.1,9.2,3.4c2.3,2.3,3.4,5.2,3.4,8.8c0,3.4-1.1,6.2-3.4,8.5s-5.4,3.4-9.2,3.4H1083V212 c0,12.3,3.6,22.3,10.8,30.1c7.2,7.8,16.5,11.7,27.8,11.7h9.7C1135.2,253.9,1138.3,255.2,1140.7,257.9z" fill="#EA6852"  /><path d="M1227.6,13c3.8,3.6,5.8,8.3,5.8,14.1c0,5.5-1.9,10.2-5.8,14.1c-3.8,3.8-8.5,5.8-14.1,5.8 c-5.5,0-10.2-1.9-13.9-5.8c-3.7-3.8-5.6-8.5-5.6-14.1c0-5.8,1.9-10.5,5.8-14.1c3.8-3.6,8.5-5.4,14.1-5.4 C1219.2,7.6,1223.8,9.4,1227.6,13z M1203.8,88.4c2.6-2.6,6-4,10.1-4s7.4,1.3,9.9,4c2.5,2.6,3.8,6,3.8,10.1v169.1 c0,4.1-1.3,7.5-3.8,10.1s-5.8,4-9.9,4s-7.5-1.3-10.1-4c-2.6-2.6-4-6-4-10.1V98.5C1199.8,94.4,1201.2,91,1203.8,88.4z" fill="#EA6852"  />
    
    
    
    
    
    
    
    
    
    
  </g></svg>