<svg viewBox="0 0 385.4 283.5" role="img" aria-labelledby="amoss--title" xmlns="http://www.w3.org/2000/svg" xmlns:xlink="http://www.w3.org/1999/xlink"><title id="amoss--title">AMOSS</title><path d="M260.1,15.4c-1.2-1.2-3.4-5.9-10.9-1.6  C252,13.4,256.5,12.9,260.1,15.4" fill-rule="evenodd"  clip-rule="evenodd"  fill="#5D074A"  /><path d="M276.4,143.7c18.4,12.2,62.7,52.2-7.4,101.2  C332.7,195.3,289.9,157.1,276.4,143.7" fill-rule="evenodd"  clip-rule="evenodd"  fill="#5D074A"  /><path d="M264.5,115.7c14.2,3.5,18.4,12,13,25.9  C277.2,129.9,277.7,124,264.5,115.7" fill-rule="evenodd"  clip-rule="evenodd"  fill="#5D074A"  /><path d="M131.8,72.6c-6,4.2-10.8,8.9-14.6,14.5  c-3.7,5.6-4.3,12.2-11.8,16.5c6.1-2.6,8.3-4.5,13.9-13.9C124.4,81,126,78.1,131.8,72.6" fill-rule="evenodd"  clip-rule="evenodd"  fill="#C6BCDE"  /><path d="M139.9,73.9c2.1,5.6,3.7,8.1,8.9,9.3c5.1,1.2,5.6,0,3.7-5.2  c-1.9-5.2,1.6-13,4.9-12.9c3.3,0.2,14.9,3.1,13-2.1c-1.9-5.2,19.8-0.7,23.2,0.4c3.4,1.1-6.7,7.8-6,15.3c0.7,7.5,12.3,12.7,15.3,14.2  c-9.7-3-14.6-6.4-17.2-12c-2.6-5.6,1.9-12,3.4-14.6c1.5-2.6-13.5-6.7-15.3-3.4c-1.9,3.4-11.6,3.7-13.8,3.7c-2.2,0-4.9,1.5-6,4.5  c-1.1,3,3.9,10.2-0.1,13.1C149.9,87.3,140.4,85.1,139.9,73.9" fill-rule="evenodd"  clip-rule="evenodd"  fill="#C6BCDE"  /><path d="M244.4,259.2c5.2,3,7.5,4.9,11.2,3c3.7-1.9,8.2-7.5,8.6-2.6  c0.4,4.9-5.2,24.3-10.8,23.9c-5.6-0.4-6.7-4.5-7.1-7.1c3,3,10.8,3.4,13.5-3.4c2.6-6.7,7.5-16.4,1.9-12.7  C256,264,252.3,269.3,244.4,259.2" fill-rule="evenodd"  clip-rule="evenodd"  fill="#C6BCDE"  /><path d="M187.9,211.1c1.5-3.7,6.4-10.8,11.4-10.5c5.9,0.4,7.8,8.6,8.5,11.8  c2.6,12.3,2.2,26.1,26.7,29.4c-11.4,0.9-21.5-2.8-24.5-11.2c-2.9-8.5-4-24.2-9.1-26.5C197.7,202.6,191.6,203.7,187.9,211.1" fill-rule="evenodd"  clip-rule="evenodd"  fill="#C6BCDE"  /><path d="M257.4,23.4c0,0-1.5,1.7-7.4-2.2c0,0,2.6,2.8,4.3,3.6c1.7,0.9,3.1-1,3.1-1V23.4z" fill="#5D074A"  /><path d="M269.7,8.3c0,6.2-1.1,10-2.6,14.4c-1.6,4.4-2.4,6.8-1,10.1  c1.4,3.3,5.8,7.2-0.7,8.9c2-0.9,3.4-2,1.9-4.5c-1.5-2.5-3.8-6.1-3.3-9.9C264.3,23.5,269.8,14.5,269.7,8.3" fill-rule="evenodd"  clip-rule="evenodd"  fill="#5D074A"  /><path d="M264.5,41.5c-2.2,0.7-4.2,1.6-4.5-1.4  C259,43.6,260.4,44.5,264.5,41.5" fill-rule="evenodd"  clip-rule="evenodd"  fill="#5D074A"  /><path d="M262.5,48.2c-2.2,1.3-7.2,2.4-9.7,2.4c2.7,0.5,7.2,0.9,8.4,0.3  C262.4,50.3,263.5,48.7,262.5,48.2" fill-rule="evenodd"  clip-rule="evenodd"  fill="#5D074A"  /><path d="M261,53.1c-0.3,0.8-0.8,2-2.2,2.1c-1,0.1-3.1,1.8-3,3.7  c-0.7-2.8,0.1-3.8,1.2-4.3C258.1,54.1,259.3,54.5,261,53.1" fill-rule="evenodd"  clip-rule="evenodd"  fill="#5D074A"  /><path d="M255.9,61.7c0.8,3,1.7,7.8-4,7.9c-5.7,0.1-8.3-2.7-10.5-3.2  c4.9,1.1,9.8,2.4,12,1.5C255.6,67,256.4,65.1,255.9,61.7" fill-rule="evenodd"  clip-rule="evenodd"  fill="#5D074A"  /><path d="M256.6,0c-4.7,11.1-16.5,15.3-27.3,19.9c-10.8,4.5-18.7,18-21,37.6  c5.3-28.6,22.4-32.6,29.9-36.2C250.1,15.7,255.7,7.2,256.6,0" fill-rule="evenodd"  clip-rule="evenodd"  fill="#5D074A"  /><path d="M236.8,68.1c-0.6,3.7-3.4,9.2-3.6,11.7c-0.2,2.5-0.3,5.1,2.5,8.9  c-6.4-5.1-3.9-10.1-2.2-13.2C235.2,72.3,236,69.9,236.8,68.1" fill-rule="evenodd"  clip-rule="evenodd"  fill="#5D074A"  /><path d="M233.4,85.3c2.8,4.6,7.3,11.1,11.7,13.1c4.5,2.1,4,2.5,5,3.8  c-3.9-2.2-4.5-1.6-7.2-3.3C240.3,97.1,234.5,87.1,233.4,85.3" fill-rule="evenodd"  clip-rule="evenodd"  fill="#5D074A"  /><path d="M68,191.5c0.7,3.2,0.7,11.7-4.3,15.3c1.6,7.7,9.8,12.6,27.9,10.7  c20.9-2.2,27.5-11.7,36.8-16.2c5.8-2.8,21.1-11.8,35.2-6c4.6,1.9,17,9.1,21.3,17.6c-1.8-7.9-10.9-17.5-23.9-21.2  c-15.2-4.3-37.4,8.1-45.8,13.5c-8.3,5.4-20.3,10.4-30.9,10.6c-12,0.2-14.9-3-18-7.8C70.6,199.5,70.5,196.1,68,191.5" fill-rule="evenodd"  clip-rule="evenodd"  fill="#C6BCDE"  /><path d="M28.7,168.7v-2c4.4-0.6,5.1-1.1,4.2-3.9c-0.9-2.7-2.3-6.5-3.9-10.8H14c-1.1,3.2-2.2,6.1-3.1,9.1  c-1.5,4.4-0.9,5.1,4.4,5.6v2H0v-2c4.4-0.6,5.4-1.1,7.9-7.3l14.6-36.9l2.2-0.6c4.4,12.1,9.1,25.5,13.6,37.7c2.3,6.1,3.2,6.7,7.7,7.1  v2H28.7z M21.8,131.1h-0.1c-2.3,6.1-4.5,12.2-6.6,17.9h13L21.8,131.1z" fill="#5D074A"  /><path d="M89.3,168.7v-2c5.7-0.6,6-0.9,5.9-8.4L95,129.7h-0.3l-17.2,38.6h-1.4l-15.8-37.6h-0.1l-1.1,20.1  c-0.3,5.8-0.3,8.9-0.2,11.7c0.1,3.4,1.8,3.9,6.5,4.4v2H49.1v-2c4.1-0.5,5.5-1.3,6-4.2c0.4-2.5,0.8-5.6,1.3-12.9l1-14.6  c0.6-9.2,0.3-9.4-6.1-10.1v-2h11.5l16,35.2L95.1,123h12v2c-6.2,0.6-6.7,0.7-6.5,8l0.7,25.5c0.2,7.5,0.4,7.8,6.5,8.4v2H89.3z" fill="#5D074A"  /><path d="M136.1,121.9c11.9,0,22.7,9.3,22.7,23.4c0,15.2-10.6,24.5-23.5,24.5c-12.7,0-22.9-9.9-22.9-23.4  C112.4,133.7,121.3,121.9,136.1,121.9L136.1,121.9z M134.6,124.4c-7.8,0-15,6.8-15,19.9c0,13.2,7.3,22.9,17.2,22.9  c7.8,0,14.8-6.5,14.8-20.1C151.6,132.3,143.9,124.4,134.6,124.4L134.6,124.4z" fill="#5D074A"  /><path d="M188.6,133.7c-1.3-4.5-3.1-9.4-9.2-9.4c-5.4,0-7.8,3.9-7.8,7.7c0,5.1,3.4,7.5,8.9,10.4  c5.5,2.8,12.2,6.1,12.2,14c0,7.4-6.3,13.3-15.6,13.3c-2.9,0-5.1-0.6-6.9-1.1c-1.8-0.6-2.8-1.1-3.4-1.5c-0.6-1.5-1.5-7.5-1.9-10.9  l2-0.5c1.1,4.3,4.3,11.4,11.5,11.4c5.3,0,8.4-3.3,8.4-8.4c0-5.2-3.9-7.7-9.1-10.5c-4.5-2.4-11.6-5.9-11.6-13.9  c0-6.8,5.4-12.5,14.5-12.5c3.2,0,6.2,0.8,8.9,1.6c0.3,2.5,0.6,5.3,1.2,9.7L188.6,133.7z" fill="#5D074A"  /><path d="M222,133.7c-1.3-4.5-3.1-9.4-9.2-9.4c-5.4,0-7.8,3.9-7.8,7.7c0,5.1,3.4,7.5,8.9,10.4  c5.5,2.8,12.2,6.1,12.2,14c0,7.4-6.3,13.3-15.6,13.3c-2.9,0-5.1-0.6-6.9-1.1c-1.8-0.6-2.8-1.1-3.4-1.5c-0.6-1.5-1.5-7.5-1.9-10.9  l2-0.5c1.1,4.3,4.3,11.4,11.5,11.4c5.3,0,8.4-3.3,8.4-8.4c0-5.2-3.9-7.7-9.1-10.5c-4.5-2.4-11.6-5.9-11.6-13.9  c0-6.8,5.4-12.5,14.5-12.5c3.2,0,6.2,0.8,8.9,1.6c0.3,2.5,0.6,5.3,1.2,9.7L222,133.7z" fill="#5D074A"  /><path d="M352.5,185.8c6.3,4.1,4.8,4.1,8.3,7.6c4.1,4.2,4.8,16.1,2,20.8  c-2.2,3.8-2.5,8.1,3.4,11.3c1,2.3-2.3,6.4,0.3,9.7c-3.6-2.7-2.3-6.1-4.1-8.1c-2.7-3.1-7.1-4.6-5-9.7c3.4-8.3,4.4-15.2,2.2-20.3  C358.4,193.9,355.7,192.6,352.5,185.8" fill-rule="evenodd"  clip-rule="evenodd"  fill="#C5BBDE"  /><path d="M365.6,205c5.2,3,7.5,4.9,11.2,3c3.7-1.9,8.2-7.5,8.6-2.6  c0.2,2.7-4,10.7-8.4,14.2c-4,3.2,0.2,12.6-2.3,12.4c-5.6-0.4-6.7-4.5-7.1-7.1c3,3,4.6-0.5,7.2-7.2c2.6-6.7,13.6-15.3,8-11.5  C377.1,209.9,373.4,215.1,365.6,205" fill-rule="evenodd"  clip-rule="evenodd"  fill="#5D074A"  /><path d="M351.9,227.7c4.7,2.2-4.6,7.5-5,12.5c-0.4,5.9-13.2,9.1-16.2,13.7  c-2.6,4.1-7.8,3.5-6.2,10c-1.1,2.3-6.3,2.5-7.1,6.6c-0.3-4.5,3.1-5.8,3.4-8.4c0.5-4.1-0.7-6.4,4.4-8.1c8.5-2.9,13.9-8.7,16.3-13.7  C343.1,237.1,348.8,234.6,351.9,227.7" fill-rule="evenodd"  clip-rule="evenodd"  fill="#C6BCDE"  /><path d="M355.5,227.7c2.2,0.3-0.4,0.4,0.5,2.7c0.3,0.8,1.3,0.6,2.7,0.5  c5.5-0.6,5.6,6.4,2.5,9.2c-2.5,2.2-6.7,7.4-10.5,12.7c-3.2,4.5-9.4,18.6-11.9,21.1c-2.5,2.5-7,4.5-14.1,1.9c-7-2.6-4.2-3.1-5.9-5  c2-0.3,2.6,0.1,8.4,2.2c6.3,2.2,9.3-2.8,11-3.8c2.6-1.5,5.3-10.5,7.7-13.5c3.8-4.7,4.4-5.8,5.8-7.5c1.3-1.6,8.9-9.7,8.6-12.8  c-0.3-3-5.2-0.1-5.9-2.7C353.3,229.4,353.3,227.9,355.5,227.7" fill-rule="evenodd"  clip-rule="evenodd"  fill="#5D074A"  /></svg>