<svg viewBox="0 0 1042.9 283.5" role="img" aria-labelledby="bapm--title" xmlns="http://www.w3.org/2000/svg" xmlns:xlink="http://www.w3.org/1999/xlink"><title id="bapm--title">BAPM: British Association of Perinatal Medicine (BAPM)</title><g><g><path d="M130.8,185.3c-1.9-0.4-3.6-0.9-5.3-1.2c-24.5-4.2-45.6,1.9-61.8,21.4c-5.5,6.6-8.8,14.3-9.9,22.8    c-0.3,2.6-0.1,5.4,0.4,7.9c0.5,2.5,2,2.9,4,1.2c0.7-0.6,1.3-1.3,1.8-2c1.9-2.6,3.8-5.2,5.7-7.9c10.3-14.9,24.6-24.3,41.9-28.9    c8.4-2.3,17.1-3.9,25.6-5.8c0.3-0.1,0.5,0,0.8,0c1.4,1.6,2.7,3.3,4.1,4.8c2.2,2.3,4.8,4,7.9,4.9c0.4,0.1,0.9,0.4,1.3,0.3    c0.9-0.1,2,0,2.6-0.5c0.9-0.9-0.1-1.9-0.6-2.7c-1.1-1.5-2.3-2.9-3.3-4.5c-4.1-6.4-4.9-13.2-2.4-20.4c0.6-1.6,1.5-3.2,2.5-4.6    c1.8-2.5,4.3-3.7,7.4-3.4c2.5,0.2,4.9,0.5,7.6,0.8c1.1-2.6,2.1-5.2,3.2-7.7c1.8-4.2,4.8-6.7,9.4-7.3c8.8-1.1,16.1,4.1,17.9,12.8    c2,9.7-0.4,18.5-5.8,26.6c-1.4,2.1-3.2,4.1-4.8,6.1c-0.6,0.8-1.4,1.5-1.9,2.4c-0.4,0.6-0.7,1.7-0.4,2.2c0.3,0.5,1.4,0.9,2.2,0.8    c3.1-0.3,5.9-1.4,8.5-3.1c9.1-5.7,14.5-14,16.9-24.4c1.7-7.5,1.4-14.9-1.6-22c-4.7-11.4-13.7-17.4-25.7-18.7    c-8.2-0.9-15.8,1-22.2,6.6c-2.4,2.1-4.5,4.4-5.9,7.2c-0.5,1.1-1.3,1.6-2.5,1.9c-10,2.6-15.4,9.6-17.7,19.3c-1,4.2-1,8.4-0.2,12.6    C130.6,183.6,130.7,184.3,130.8,185.3z" fill="#1B468E"  /><path d="M133.5,256.2c14.1-0.1,28-1.5,41.4-6.1c8.6-2.9,16.6-7,23.4-13.3c8.4-7.8,13.2-17.5,13.8-29    c0.2-3-0.6-6-1.1-9c-0.1-0.7-1.1-1.8-1.7-1.9c-0.6-0.1-1.6,0.8-2,1.5c-1.1,2-2,4.1-3,6.2c-2.6,5.8-5.6,11.2-10.1,15.8    c-5.9,6-13.2,9.6-21.1,12.2c-10.1,3.4-20.6,5-31.1,6.1c-14,1.5-28.1,2-42.2,2.8c-5.3,0.3-10.6,1-16,1.6c-0.9,0.1-1.9,0.3-2.7,0.7    c-0.8,0.4-1.8,1.1-1.8,1.7c0,0.7,0.9,1.5,1.6,2c1,0.6,2.1,1.1,3.3,1.4c5.8,1.5,11.6,3.2,17.4,4.3    C112.2,255.2,122.8,256.2,133.5,256.2z" fill="#1B468E"  /><path d="M167.4,37.7c-0.6-1.2-0.7-2.7-1.1-4c-2.4-7.5-7-13.5-12.7-18.8c-8.8-8.1-19.4-12.5-31.1-14.3    c-12.2-1.8-23.9,0-34.9,5.6c-7,3.5-12.8,8.5-17.5,14.8c-5.1,6.9-7.9,14.7-10,22.8c-2.4,9.4-3.5,18.8-4.1,28.5    c-0.1,1.6,0,3-0.1,4.6c0,9.5-0.2,19,0,28.5c0.1,5.9,1,11.8,1.5,17.6c0.1,0.7,0.2,1.5,0.3,2.3c-0.6,0.1-1.1,0.2-1.6,0.2    c-22.6-0.3-40.8,12.3-49,33.8c-3.5,9.2-5.5,18.8-6.1,28.6c-0.6,9.5-1,19-1,28.5c0,10.1,1.5,20,5.6,29.5    c5.8,13.6,15.8,22.9,29.3,28.7c8.7,3.7,17.9,5.7,27.3,6.9c19.1,2.5,38.3,1.8,57.5,1.5c5.6-0.1,11.2-0.6,16.9-1    c1.7-0.1,3.5-0.2,4.9-1.6c-0.4-1.5-1.7-1.8-2.7-2.1c-4.2-1.1-8.4-2.4-12.6-3.1c-10.9-1.7-21.9-3.1-32.9-4.6    c-13.5-1.8-27.1-3.3-40.3-7.1c-5.6-1.6-11-3.8-16-6.8c-9.9-6-15.5-15-17.9-26.2c-1.3-6.1-1.8-12.2-1.8-18.4    c0-8.3-0.1-16.6,0.1-24.9c0.2-8.2,1.3-16.3,3.7-24.3c3.9-12.7,11.7-22,23.7-27.8c4.2-2,8.6-3.8,13-5.5c2.6-1,4.2-2.5,4.7-5.2    c1.4-7.1,2.9-14.1,4.2-21.2c1.5-8.5,2.8-17.3,4.1-25.8c0.6-2.8,0.5-5.7,1.1-8.5c1.9-10,3.7-19.9,7.6-29.3    c4.6-11.2,12.9-18.4,24.4-21.8c15.2-4.6,29.6-2.1,43.2,5.9c4.5,2.6,8.3,6.2,12.3,9.6c2.8,2.4,3.6,5,3,8.6    c-0.8,5.8-1.8,11.5-3.8,17c-1.4,3.9-3.2,7.7-6.3,10.6c-1.9,1.8-4.3,3.1-6.5,4.6c-0.6,0.4-0.6,0.5-1.2,0.8    c-0.9,0.4-1.1,1.4-0.9,2.3c-0.2,2.6-0.3,5.3-0.5,7.9c-1.1,13.1-7,23.9-15.9,33.3c-1.6,1.7-3.4,3.1-5.1,4.7    c-1.8,1.6-3.9,2.3-6.3,2.4c-6,0.3-11.7-1.2-17.3-3.2c-6.1-2.2-11.8-5.3-17.4-8.5c-1.5-0.9-3.1-1.7-4.7-2.4    c-0.7-0.3-1.8-0.3-2.2,0.1c-0.4,0.4-0.3,1.6,0,2.2c1.2,3.3,3.3,6,5.6,8.5c8.5,9.2,18.6,15.6,31,18.1c8.2,1.6,15.7,0.4,22.5-4.9    c13.6-10.5,22.6-23.9,25.6-41c0.5-2.9,0.7-5.9,0.8-8.8c0.1-1.3,0.5-2.2,1.4-3.1c1.7-1.8,2.3-3.4,3.9-5.4c3-4.8,4.9-10.1,5.7-15.7    C171.6,53.4,171.3,45.3,167.4,37.7z" fill="#1B468E"  />
		
		
		
	</g><g><path d="M309.4,114.5c1.8,2.4,2.7,5.3,2.7,8.7c0,4.8-1.7,8.5-5.1,11.2c-3.4,2.7-8.1,4.1-14.1,4.1h-20.5    c-1.5,0-2.7-0.4-3.6-1.3c-0.9-0.8-1.3-2-1.3-3.6V87.4c0-1.5,0.4-2.7,1.3-3.6c0.9-0.8,2.1-1.3,3.6-1.3h19.7    c5.8,0,10.4,1.3,13.7,3.9c3.3,2.6,5,6.2,5,10.8c0,3-0.8,5.5-2.3,7.7c-1.6,2.2-3.7,3.8-6.5,4.8    C305.2,110.5,307.7,112.2,309.4,114.5z M277.5,106.1h12.9c7,0,10.6-2.6,10.6-7.9c0-2.6-0.9-4.6-2.6-5.9c-1.7-1.3-4.4-1.9-7.9-1.9    h-12.9V106.1z M299.9,128.6c1.7-1.3,2.5-3.4,2.5-6.2c0-2.8-0.9-4.9-2.6-6.3c-1.7-1.4-4.4-2.1-8.1-2.1h-14.3v16.5h14.3    C295.5,130.6,298.2,129.9,299.9,128.6z" fill="#1B468E"  /><path d="M345.7,99.8c0.8,0.7,1.2,1.7,1.2,3.1c0,1.4-0.3,2.5-1,3.2c-0.7,0.7-1.9,1.1-3.7,1.4l-2.4,0.2    c-3.1,0.3-5.4,1.4-6.9,3.2c-1.5,1.8-2.2,4.1-2.2,6.8v16.7c0,1.5-0.5,2.7-1.4,3.5c-1,0.8-2.1,1.2-3.6,1.2c-1.4,0-2.6-0.4-3.5-1.2    c-0.9-0.8-1.4-2-1.4-3.5v-30.7c0-1.5,0.5-2.6,1.4-3.4c0.9-0.8,2.1-1.2,3.5-1.2s2.5,0.4,3.3,1.2c0.8,0.8,1.3,1.9,1.3,3.3v3.2    c1-2.3,2.5-4.1,4.5-5.4c2-1.3,4.2-2,6.6-2.1l1.1-0.1C343.8,98.8,344.9,99.1,345.7,99.8z" fill="#1B468E"  /><path d="M351.8,90.3c-1.1-1-1.6-2.3-1.6-3.9c0-1.6,0.5-2.9,1.6-3.8c1.1-1,2.5-1.4,4.3-1.4c1.7,0,3.2,0.5,4.2,1.4    c1.1,1,1.6,2.2,1.6,3.8c0,1.6-0.5,2.9-1.6,3.9c-1.1,1-2.5,1.5-4.3,1.5C354.2,91.8,352.8,91.3,351.8,90.3z M352.5,137.8    c-0.9-0.8-1.4-2-1.4-3.5v-30.7c0-1.5,0.5-2.7,1.4-3.5c0.9-0.8,2.1-1.2,3.5-1.2c1.4,0,2.6,0.4,3.6,1.2c1,0.8,1.4,2,1.4,3.5v30.7    c0,1.5-0.5,2.7-1.4,3.5c-1,0.8-2.1,1.2-3.6,1.2C354.6,139,353.4,138.6,352.5,137.8z" fill="#1B468E"  /><path d="M395.4,135.2c0,1.3-0.5,2.2-1.5,2.9c-1,0.7-2.5,0.9-4.4,0.8l-2.1-0.2c-8.9-0.6-13.3-5.4-13.3-14.3v-17.3    h-4c-1.4,0-2.5-0.3-3.3-1c-0.8-0.6-1.2-1.6-1.2-2.8c0-1.2,0.4-2.1,1.2-2.8c0.8-0.6,1.9-1,3.3-1h4v-7.3c0-1.4,0.4-2.6,1.4-3.4    c0.9-0.8,2.1-1.3,3.7-1.3c1.5,0,2.7,0.4,3.6,1.3c0.9,0.8,1.4,2,1.4,3.4v7.3h6.8c1.4,0,2.5,0.3,3.3,1c0.8,0.6,1.2,1.6,1.2,2.8    c0,1.2-0.4,2.1-1.2,2.8c-0.8,0.6-1.9,1-3.3,1h-6.8v18c0,3.9,1.8,6,5.4,6.3l2.1,0.2C394,131.8,395.4,133,395.4,135.2z" fill="#1B468E"  /><path d="M401.1,90.3c-1.1-1-1.6-2.3-1.6-3.9c0-1.6,0.5-2.9,1.6-3.8c1.1-1,2.5-1.4,4.3-1.4c1.7,0,3.2,0.5,4.2,1.4    c1.1,1,1.6,2.2,1.6,3.8c0,1.6-0.5,2.9-1.6,3.9c-1.1,1-2.5,1.5-4.3,1.5C403.6,91.8,402.1,91.3,401.1,90.3z M401.8,137.8    c-0.9-0.8-1.4-2-1.4-3.5v-30.7c0-1.5,0.5-2.7,1.4-3.5c0.9-0.8,2.1-1.2,3.5-1.2c1.4,0,2.6,0.4,3.6,1.2c1,0.8,1.4,2,1.4,3.5v30.7    c0,1.5-0.5,2.7-1.4,3.5c-1,0.8-2.1,1.2-3.6,1.2C403.9,139,402.8,138.6,401.8,137.8z" fill="#1B468E"  /><path d="M420.6,135.7c-1.7-1-2.5-2.4-2.5-4.3c0-1.1,0.3-1.9,0.9-2.6s1.3-1,2.1-1c0.9,0,2.1,0.4,3.7,1.3    c1.7,0.8,3.2,1.4,4.6,1.8c1.4,0.4,3.2,0.6,5.4,0.6c2.2,0,4-0.4,5.2-1.1c1.2-0.7,1.9-1.8,1.9-3.1c0-0.9-0.3-1.6-0.8-2.1    c-0.5-0.5-1.4-1-2.7-1.5c-1.3-0.4-3.3-1-5.9-1.5c-4.7-1-8.1-2.3-10.1-4.1c-2-1.7-3.1-4.2-3.1-7.2c0-2.3,0.7-4.4,2.1-6.3    c1.4-1.9,3.3-3.3,5.7-4.4c2.4-1,5.2-1.6,8.2-1.6c2.2,0,4.4,0.3,6.4,0.8c2.1,0.6,3.9,1.4,5.6,2.4c1.7,1.1,2.5,2.5,2.5,4.2    c0,1.1-0.3,1.9-0.9,2.7c-0.6,0.7-1.3,1.1-2.1,1.1c-0.6,0-1.2-0.1-1.7-0.4c-0.6-0.2-1.3-0.6-2.1-1.1c-1.5-0.8-2.9-1.4-4-1.8    c-1.1-0.4-2.5-0.6-4.1-0.6c-2,0-3.5,0.4-4.6,1.2c-1.1,0.8-1.7,1.9-1.7,3.3c0,1.3,0.6,2.3,1.7,3c1.2,0.7,3.4,1.4,6.8,2.1    c3.5,0.7,6.3,1.6,8.3,2.5c2,1,3.5,2.1,4.3,3.6c0.9,1.4,1.3,3.3,1.3,5.5c0,3.6-1.5,6.5-4.5,8.7c-3,2.2-7,3.3-12,3.3    C428.8,139.2,424.2,138,420.6,135.7z" fill="#1B468E"  /><path d="M495.4,114.7v19.5c0,1.5-0.4,2.7-1.3,3.5c-0.9,0.8-2.1,1.3-3.6,1.3c-1.5,0-2.8-0.4-3.7-1.3    c-0.9-0.8-1.4-2-1.4-3.5v-19.5c0-2.8-0.6-4.9-1.7-6.2c-1.1-1.3-2.9-1.9-5.4-1.9c-2.9,0-5.2,0.9-6.9,2.7c-1.7,1.8-2.6,4.2-2.6,7.2    v17.7c0,1.5-0.4,2.7-1.4,3.5c-0.9,0.8-2.1,1.3-3.7,1.3c-1.5,0-2.7-0.4-3.6-1.3c-0.9-0.8-1.3-2-1.3-3.5V86.7c0-1.4,0.5-2.5,1.4-3.3    c0.9-0.8,2.1-1.3,3.6-1.3s2.7,0.4,3.6,1.2c0.9,0.8,1.4,1.9,1.4,3.3v18.5c1.3-2.1,3.1-3.6,5.3-4.7c2.2-1.1,4.7-1.6,7.5-1.6    C490.8,98.7,495.4,104,495.4,114.7z" fill="#1B468E"  /><path d="M579,134.5c0,1.2-0.5,2.3-1.5,3.1c-1,0.9-2.1,1.3-3.4,1.3c-0.8,0-1.6-0.2-2.4-0.7    c-0.7-0.5-1.3-1.2-1.7-2.1l-4.8-10.6h-28l-4.8,10.6c-0.4,1-1,1.7-1.7,2.1c-0.7,0.5-1.6,0.7-2.5,0.7c-1.2,0-2.3-0.4-3.3-1.3    c-1-0.8-1.5-1.9-1.5-3.1c0-0.7,0.2-1.4,0.5-2.1l21.9-47.1c0.5-1.1,1.2-1.9,2.2-2.4c1-0.6,2-0.8,3.1-0.8s2.2,0.3,3.1,0.8    c1,0.6,1.7,1.4,2.2,2.4l22,47.1C578.8,133.1,579,133.8,579,134.5z M540.7,117.5h21l-10.5-23.6L540.7,117.5z" fill="#1B468E"  /><path d="M585.2,135.7c-1.7-1-2.5-2.4-2.5-4.3c0-1.1,0.3-1.9,0.9-2.6c0.6-0.7,1.3-1,2.1-1c0.9,0,2.1,0.4,3.7,1.3    c1.7,0.8,3.2,1.4,4.6,1.8c1.4,0.4,3.2,0.6,5.4,0.6c2.2,0,4-0.4,5.2-1.1c1.2-0.7,1.9-1.8,1.9-3.1c0-0.9-0.3-1.6-0.8-2.1    c-0.5-0.5-1.4-1-2.7-1.5c-1.3-0.4-3.3-1-5.9-1.5c-4.7-1-8.1-2.3-10.1-4.1c-2-1.7-3.1-4.2-3.1-7.2c0-2.3,0.7-4.4,2.1-6.3    c1.4-1.9,3.3-3.3,5.7-4.4c2.4-1,5.2-1.6,8.2-1.6c2.2,0,4.4,0.3,6.4,0.8c2.1,0.6,3.9,1.4,5.6,2.4c1.7,1.1,2.5,2.5,2.5,4.2    c0,1.1-0.3,1.9-0.9,2.7c-0.6,0.7-1.3,1.1-2.1,1.1c-0.6,0-1.2-0.1-1.7-0.4c-0.6-0.2-1.3-0.6-2.1-1.1c-1.5-0.8-2.9-1.4-4-1.8    c-1.1-0.4-2.5-0.6-4.1-0.6c-2,0-3.5,0.4-4.6,1.2c-1.1,0.8-1.7,1.9-1.7,3.3c0,1.3,0.6,2.3,1.7,3c1.2,0.7,3.4,1.4,6.8,2.1    c3.5,0.7,6.3,1.6,8.3,2.5c2,1,3.5,2.1,4.3,3.6c0.9,1.4,1.3,3.3,1.3,5.5c0,3.6-1.5,6.5-4.5,8.7c-3,2.2-7,3.3-12,3.3    C593.4,139.2,588.7,138,585.2,135.7z" fill="#1B468E"  /><path d="M623.6,135.7c-1.7-1-2.5-2.4-2.5-4.3c0-1.1,0.3-1.9,0.9-2.6c0.6-0.7,1.3-1,2.1-1c0.9,0,2.1,0.4,3.7,1.3    c1.7,0.8,3.2,1.4,4.6,1.8c1.4,0.4,3.2,0.6,5.4,0.6c2.2,0,4-0.4,5.2-1.1c1.2-0.7,1.9-1.8,1.9-3.1c0-0.9-0.3-1.6-0.8-2.1    c-0.5-0.5-1.4-1-2.7-1.5c-1.3-0.4-3.3-1-5.9-1.5c-4.7-1-8.1-2.3-10.1-4.1c-2-1.7-3.1-4.2-3.1-7.2c0-2.3,0.7-4.4,2.1-6.3    c1.4-1.9,3.3-3.3,5.7-4.4c2.4-1,5.2-1.6,8.2-1.6c2.2,0,4.4,0.3,6.4,0.8c2.1,0.6,3.9,1.4,5.6,2.4c1.7,1.1,2.5,2.5,2.5,4.2    c0,1.1-0.3,1.9-0.9,2.7c-0.6,0.7-1.3,1.1-2.1,1.1c-0.6,0-1.2-0.1-1.7-0.4s-1.3-0.6-2.1-1.1c-1.5-0.8-2.9-1.4-4-1.8    c-1.1-0.4-2.5-0.6-4.1-0.6c-2,0-3.5,0.4-4.6,1.2c-1.1,0.8-1.7,1.9-1.7,3.3c0,1.3,0.6,2.3,1.7,3c1.2,0.7,3.4,1.4,6.8,2.1    c3.5,0.7,6.3,1.6,8.3,2.5c2,1,3.5,2.1,4.3,3.6c0.9,1.4,1.3,3.3,1.3,5.5c0,3.6-1.5,6.5-4.5,8.7c-3,2.2-7,3.3-12,3.3    C631.8,139.2,627.2,138,623.6,135.7z" fill="#1B468E"  /><path d="M669.2,136.7c-3-1.6-5.3-4-7-7.1c-1.6-3.1-2.5-6.6-2.5-10.7c0-4.1,0.8-7.6,2.5-10.7c1.6-3,4-5.4,7-7    c3-1.6,6.5-2.5,10.4-2.5c4,0,7.5,0.8,10.4,2.5c3,1.6,5.3,4,6.9,7c1.6,3,2.4,6.6,2.4,10.7c0,4.1-0.8,7.7-2.4,10.7    c-1.6,3.1-3.9,5.4-6.9,7.1c-3,1.6-6.5,2.5-10.4,2.5C675.7,139.2,672.2,138.3,669.2,136.7z M687,128.3c1.7-2.1,2.5-5.2,2.5-9.4    c0-4.1-0.8-7.2-2.5-9.3c-1.7-2.1-4.1-3.2-7.3-3.2c-3.2,0-5.6,1.1-7.3,3.2c-1.7,2.1-2.6,5.3-2.6,9.3c0,4.1,0.8,7.3,2.5,9.4    c1.7,2.1,4.1,3.2,7.3,3.2C682.8,131.5,685.3,130.4,687,128.3z" fill="#1B468E"  /><path d="M714.6,136.7c-2.9-1.6-5.2-4-6.8-7c-1.6-3-2.4-6.5-2.4-10.6c0-4,0.8-7.6,2.5-10.7c1.7-3.1,4-5.5,7-7.2    c3-1.7,6.5-2.5,10.4-2.5c2.1,0,4.1,0.3,6.2,0.9c2.1,0.6,3.9,1.4,5.5,2.4c1.7,1.1,2.5,2.5,2.5,4.2c0,1.2-0.3,2.1-0.8,2.8    c-0.6,0.7-1.3,1.1-2.2,1.1c-0.6,0-1.2-0.1-1.8-0.4c-0.6-0.3-1.3-0.6-1.9-1c-1.2-0.7-2.3-1.2-3.3-1.6c-1.1-0.4-2.3-0.6-3.7-0.6    c-3.3,0-5.8,1.1-7.6,3.2c-1.8,2.1-2.7,5.2-2.7,9.3c0,4,0.9,7,2.7,9.2c1.8,2.1,4.3,3.2,7.6,3.2c1.3,0,2.5-0.2,3.5-0.6    c1-0.4,2.2-0.9,3.5-1.6c0.8-0.5,1.5-0.8,2.1-1.1c0.6-0.2,1.2-0.4,1.7-0.4c0.8,0,1.6,0.4,2.1,1.1c0.6,0.7,0.9,1.7,0.9,2.8    c0,0.9-0.2,1.7-0.6,2.3c-0.4,0.7-1,1.3-1.9,1.8c-1.6,1.1-3.5,1.9-5.7,2.5c-2.2,0.6-4.4,0.9-6.7,0.9    C721,139.2,717.6,138.3,714.6,136.7z" fill="#1B468E"  /><path d="M746.9,90.3c-1.1-1-1.6-2.3-1.6-3.9c0-1.6,0.5-2.9,1.6-3.8c1.1-1,2.5-1.4,4.3-1.4c1.7,0,3.2,0.5,4.2,1.4    c1.1,1,1.6,2.2,1.6,3.8c0,1.6-0.5,2.9-1.6,3.9c-1.1,1-2.5,1.5-4.3,1.5C749.4,91.8,748,91.3,746.9,90.3z M747.7,137.8    c-0.9-0.8-1.4-2-1.4-3.5v-30.7c0-1.5,0.5-2.7,1.4-3.5c0.9-0.8,2.1-1.2,3.5-1.2c1.4,0,2.6,0.4,3.6,1.2c1,0.8,1.4,2,1.4,3.5v30.7    c0,1.5-0.5,2.7-1.4,3.5c-1,0.8-2.1,1.2-3.6,1.2C749.8,139,748.6,138.6,747.7,137.8z" fill="#1B468E"  /><path d="M795.2,102.7c2.6,2.7,3.9,6.7,3.9,12.2v19.4c0,1.4-0.4,2.6-1.3,3.4c-0.8,0.8-2,1.2-3.5,1.2    c-1.4,0-2.5-0.4-3.4-1.3c-0.9-0.8-1.3-2-1.3-3.3v-1.7c-0.9,2.1-2.3,3.7-4.3,4.8c-1.9,1.2-4.2,1.7-6.7,1.7c-2.6,0-5-0.5-7.1-1.6    c-2.1-1.1-3.8-2.5-5-4.4c-1.2-1.9-1.8-3.9-1.8-6.2c0-2.9,0.7-5.1,2.2-6.8c1.5-1.6,3.8-2.8,7.1-3.6c3.3-0.7,7.8-1.1,13.6-1.1h2    v-1.8c0-2.6-0.6-4.5-1.7-5.7c-1.1-1.2-2.9-1.8-5.4-1.8c-1.5,0-3.1,0.2-4.7,0.7c-1.6,0.5-3.5,1.1-5.6,1.9c-1.4,0.7-2.4,1-3,1    c-1,0-1.7-0.3-2.3-1c-0.6-0.7-0.9-1.6-0.9-2.7c0-0.9,0.2-1.7,0.7-2.3c0.4-0.7,1.2-1.3,2.3-1.9c1.9-1,4.1-1.8,6.6-2.4    c2.6-0.6,5.1-0.9,7.6-0.9C788.6,98.7,792.6,100.1,795.2,102.7z M787.2,129.3c1.7-1.8,2.5-4.1,2.5-6.9v-1.7h-1.4    c-3.5,0-6.3,0.2-8.3,0.5c-2,0.3-3.4,0.9-4.2,1.7c-0.8,0.8-1.3,1.9-1.3,3.3c0,1.7,0.6,3.1,1.8,4.2c1.2,1.1,2.7,1.6,4.4,1.6    C783.4,132,785.6,131.1,787.2,129.3z" fill="#1B468E"  /><path d="M833.3,135.2c0,1.3-0.5,2.2-1.5,2.9c-1,0.7-2.5,0.9-4.4,0.8l-2.1-0.2c-8.9-0.6-13.3-5.4-13.3-14.3v-17.3    h-4c-1.4,0-2.5-0.3-3.3-1c-0.8-0.6-1.2-1.6-1.2-2.8c0-1.2,0.4-2.1,1.2-2.8c0.8-0.6,1.9-1,3.3-1h4v-7.3c0-1.4,0.4-2.6,1.3-3.4    c0.9-0.8,2.1-1.3,3.7-1.3c1.5,0,2.7,0.4,3.6,1.3c0.9,0.8,1.4,2,1.4,3.4v7.3h6.8c1.4,0,2.5,0.3,3.3,1c0.8,0.6,1.2,1.6,1.2,2.8    c0,1.2-0.4,2.1-1.2,2.8c-0.8,0.6-1.9,1-3.3,1h-6.8v18c0,3.9,1.8,6,5.4,6.3l2.1,0.2C832,131.8,833.3,133,833.3,135.2z" fill="#1B468E"  /><path d="M839.1,90.3c-1.1-1-1.6-2.3-1.6-3.9c0-1.6,0.5-2.9,1.6-3.8c1.1-1,2.5-1.4,4.3-1.4c1.7,0,3.2,0.5,4.2,1.4    c1.1,1,1.6,2.2,1.6,3.8c0,1.6-0.5,2.9-1.6,3.9c-1.1,1-2.5,1.5-4.3,1.5C841.5,91.8,840.1,91.3,839.1,90.3z M839.8,137.8    c-0.9-0.8-1.4-2-1.4-3.5v-30.7c0-1.5,0.5-2.7,1.4-3.5c0.9-0.8,2.1-1.2,3.5-1.2c1.4,0,2.6,0.4,3.6,1.2c1,0.8,1.4,2,1.4,3.5v30.7    c0,1.5-0.5,2.7-1.4,3.5c-1,0.8-2.1,1.2-3.6,1.2C841.9,139,840.7,138.6,839.8,137.8z" fill="#1B468E"  /><path d="M865.8,136.7c-3-1.6-5.3-4-7-7.1c-1.6-3.1-2.5-6.6-2.5-10.7c0-4.1,0.8-7.6,2.5-10.7c1.6-3,4-5.4,7-7    c3-1.6,6.5-2.5,10.4-2.5c4,0,7.5,0.8,10.4,2.5c3,1.6,5.3,4,6.9,7c1.6,3,2.4,6.6,2.4,10.7c0,4.1-0.8,7.7-2.4,10.7    c-1.6,3.1-3.9,5.4-6.9,7.1c-3,1.6-6.5,2.5-10.4,2.5C872.3,139.2,868.8,138.3,865.8,136.7z M883.5,128.3c1.7-2.1,2.5-5.2,2.5-9.4    c0-4.1-0.8-7.2-2.5-9.3c-1.7-2.1-4.1-3.2-7.3-3.2c-3.2,0-5.6,1.1-7.3,3.2c-1.7,2.1-2.6,5.3-2.6,9.3c0,4.1,0.8,7.3,2.5,9.4    c1.7,2.1,4.1,3.2,7.3,3.2C879.4,131.5,881.9,130.4,883.5,128.3z" fill="#1B468E"  /><path d="M937.1,102.7c2.3,2.6,3.4,6.6,3.4,12v19.5c0,1.5-0.4,2.7-1.3,3.5c-0.9,0.8-2.1,1.3-3.6,1.3    c-1.5,0-2.8-0.4-3.7-1.3c-0.9-0.8-1.4-2-1.4-3.5v-19c0-3-0.6-5.2-1.7-6.6c-1.1-1.4-2.9-2.1-5.4-2.1c-2.9,0-5.2,0.9-6.9,2.7    c-1.7,1.8-2.6,4.2-2.6,7.2v17.7c0,1.5-0.4,2.7-1.4,3.5c-0.9,0.8-2.1,1.3-3.7,1.3c-1.5,0-2.7-0.4-3.6-1.3c-0.9-0.8-1.3-2-1.3-3.5    v-30.7c0-1.4,0.5-2.5,1.4-3.3c0.9-0.8,2.1-1.3,3.7-1.3c1.4,0,2.5,0.4,3.4,1.2c0.9,0.8,1.3,1.9,1.3,3.2v2.1c1.3-2.2,3.1-3.8,5.3-5    c2.2-1.2,4.7-1.7,7.5-1.7C931.3,98.7,934.8,100,937.1,102.7z" fill="#1B468E"  /><path d="M979.2,136.7c-3-1.6-5.3-4-7-7.1c-1.6-3.1-2.5-6.6-2.5-10.7c0-4.1,0.8-7.6,2.5-10.7c1.6-3,4-5.4,7-7    c3-1.6,6.5-2.5,10.4-2.5c4,0,7.5,0.8,10.4,2.5c3,1.6,5.3,4,6.9,7c1.6,3,2.4,6.6,2.4,10.7c0,4.1-0.8,7.7-2.4,10.7    c-1.6,3.1-3.9,5.4-6.9,7.1c-3,1.6-6.5,2.5-10.4,2.5C985.7,139.2,982.2,138.3,979.2,136.7z M997,128.3c1.7-2.1,2.5-5.2,2.5-9.4    c0-4.1-0.8-7.2-2.5-9.3c-1.7-2.1-4.1-3.2-7.3-3.2c-3.2,0-5.6,1.1-7.3,3.2c-1.7,2.1-2.6,5.3-2.6,9.3c0,4.1,0.8,7.3,2.5,9.4    c1.7,2.1,4.1,3.2,7.3,3.2C992.8,131.5,995.3,130.4,997,128.3z" fill="#1B468E"  /><path d="M1031.6,92.1c-1.1,1.3-1.7,3.2-1.7,5.7v1.8h6.8c3,0,4.4,1.2,4.4,3.7c0,2.5-1.5,3.7-4.4,3.7h-6.8v27.1    c0,1.5-0.5,2.7-1.4,3.5c-0.9,0.8-2.1,1.2-3.5,1.2c-1.4,0-2.6-0.4-3.6-1.2c-1-0.8-1.4-2-1.4-3.5v-27.1h-4c-3,0-4.4-1.2-4.4-3.7    c0-2.5,1.5-3.7,4.4-3.7h4v-0.6c0-5,1.3-8.9,3.9-11.7c2.6-2.8,6.3-4.4,11.1-4.8l2.1-0.2c2.1-0.2,3.6,0.1,4.5,0.7    c0.9,0.6,1.3,1.5,1.3,2.8c0,2.3-1.3,3.5-3.9,3.8l-2.1,0.2C1034.5,90.1,1032.7,90.8,1031.6,92.1z" fill="#1B468E"  /><path d="M268.9,232.9c-0.9-0.9-1.4-2.2-1.4-3.8v-46.5c0-1.5,0.4-2.7,1.3-3.6c0.9-0.8,2.1-1.3,3.6-1.3h19.5    c6,0,10.6,1.5,14,4.5c3.3,3,5,7.2,5,12.6c0,5.4-1.7,9.6-5,12.6c-3.3,3-8,4.5-14,4.5h-14.2v17.1c0,1.6-0.5,2.9-1.4,3.8    c-0.9,0.9-2.2,1.4-3.8,1.4C271,234.3,269.8,233.9,268.9,232.9z M290.7,204.2c7,0,10.6-3.1,10.6-9.2c0-6.1-3.5-9.2-10.6-9.2h-12.9    v18.4H290.7z" fill="#1B468E"  /><path d="M350.4,224.2c0.6,0.7,0.8,1.6,0.8,2.8c0,1.6-1,3-2.9,4.1c-1.8,1-3.8,1.8-6.1,2.4c-2.3,0.6-4.4,0.9-6.5,0.9    c-6.2,0-11.2-1.8-14.9-5.4c-3.7-3.6-5.5-8.5-5.5-14.8c0-4,0.8-7.5,2.4-10.6c1.6-3.1,3.8-5.5,6.7-7.1c2.9-1.7,6.2-2.5,9.8-2.5    c3.5,0,6.5,0.8,9.1,2.3c2.6,1.5,4.6,3.7,6,6.5c1.4,2.8,2.1,6.1,2.1,9.9c0,2.3-1,3.4-3,3.4h-23.4c0.3,3.7,1.4,6.3,3.1,8.1    c1.7,1.7,4.3,2.6,7.6,2.6c1.7,0,3.2-0.2,4.5-0.6c1.3-0.4,2.8-1,4.4-1.7c1.6-0.8,2.8-1.3,3.5-1.3    C349.2,223.2,349.9,223.6,350.4,224.2z M328,203.6c-1.6,1.7-2.6,4.1-2.9,7.3h18c-0.1-3.2-0.9-5.7-2.4-7.4    c-1.5-1.7-3.5-2.5-6.2-2.5C331.8,201,329.7,201.9,328,203.6z" fill="#1B468E"  /><path d="M384.6,195.1c0.8,0.7,1.2,1.7,1.2,3.1c0,1.4-0.3,2.5-1,3.2c-0.7,0.7-1.9,1.1-3.7,1.4l-2.4,0.2    c-3.1,0.3-5.4,1.4-6.9,3.2c-1.5,1.8-2.2,4.1-2.2,6.8v16.7c0,1.5-0.5,2.7-1.4,3.5c-1,0.8-2.1,1.2-3.6,1.2c-1.4,0-2.6-0.4-3.5-1.2    c-0.9-0.8-1.4-2-1.4-3.5v-30.7c0-1.5,0.5-2.6,1.4-3.4c0.9-0.8,2.1-1.2,3.5-1.2s2.5,0.4,3.3,1.2c0.8,0.8,1.3,1.9,1.3,3.3v3.2    c1-2.3,2.5-4.1,4.5-5.4c2-1.3,4.2-2,6.6-2.1l1.1-0.1C382.7,194.1,383.8,194.4,384.6,195.1z" fill="#1B468E"  /><path d="M390.6,185.7c-1.1-1-1.6-2.3-1.6-3.9c0-1.6,0.5-2.9,1.6-3.8c1.1-1,2.5-1.4,4.3-1.4c1.7,0,3.2,0.5,4.2,1.4    c1.1,1,1.6,2.2,1.6,3.8c0,1.6-0.5,2.9-1.6,3.9c-1.1,1-2.5,1.5-4.3,1.5C393.1,187.1,391.7,186.7,390.6,185.7z M391.4,233.1    c-0.9-0.8-1.4-2-1.4-3.5v-30.7c0-1.5,0.5-2.7,1.4-3.5c0.9-0.8,2.1-1.2,3.5-1.2c1.4,0,2.6,0.4,3.6,1.2c1,0.8,1.4,2,1.4,3.5v30.7    c0,1.5-0.5,2.7-1.4,3.5c-1,0.8-2.1,1.2-3.6,1.2C393.5,234.3,392.3,233.9,391.4,233.1z" fill="#1B468E"  /><path d="M443,198c2.3,2.7,3.4,6.7,3.4,12v19.5c0,1.5-0.4,2.6-1.3,3.5c-0.9,0.8-2.1,1.3-3.6,1.3    c-1.5,0-2.8-0.4-3.7-1.3c-0.9-0.8-1.4-2-1.4-3.5v-19c0-3-0.6-5.2-1.7-6.6c-1.1-1.4-2.9-2.1-5.4-2.1c-2.9,0-5.2,0.9-6.9,2.7    c-1.7,1.8-2.6,4.2-2.6,7.2v17.7c0,1.5-0.4,2.6-1.4,3.5c-0.9,0.8-2.1,1.3-3.7,1.3c-1.5,0-2.7-0.4-3.6-1.3c-0.9-0.8-1.3-2-1.3-3.5    v-30.7c0-1.4,0.5-2.5,1.4-3.3c0.9-0.8,2.1-1.3,3.7-1.3c1.4,0,2.5,0.4,3.4,1.2c0.9,0.8,1.3,1.9,1.3,3.2v2.1c1.3-2.2,3.1-3.8,5.3-5    c2.2-1.2,4.7-1.7,7.5-1.7C437.3,194.1,440.8,195.4,443,198z" fill="#1B468E"  /><path d="M485.3,198.1c2.6,2.7,3.9,6.7,3.9,12.2v19.4c0,1.4-0.4,2.6-1.3,3.4c-0.8,0.8-2,1.2-3.5,1.2    c-1.4,0-2.5-0.4-3.4-1.3c-0.9-0.8-1.3-2-1.3-3.3v-1.7c-0.9,2.1-2.3,3.7-4.2,4.8c-1.9,1.2-4.2,1.7-6.7,1.7c-2.6,0-5-0.5-7.1-1.6    c-2.1-1.1-3.8-2.5-5-4.4c-1.2-1.9-1.8-3.9-1.8-6.2c0-2.9,0.7-5.1,2.2-6.8c1.5-1.6,3.8-2.8,7.1-3.6c3.3-0.7,7.8-1.1,13.6-1.1h2    v-1.8c0-2.6-0.6-4.5-1.7-5.7c-1.1-1.2-2.9-1.8-5.4-1.8c-1.5,0-3.1,0.2-4.7,0.7c-1.6,0.5-3.5,1.1-5.6,1.9c-1.4,0.7-2.4,1-3,1    c-1,0-1.7-0.3-2.3-1s-0.9-1.6-0.9-2.7c0-0.9,0.2-1.7,0.7-2.3c0.4-0.7,1.2-1.3,2.3-1.9c1.9-1,4.1-1.8,6.6-2.4    c2.6-0.6,5.1-0.9,7.6-0.9C478.7,194.1,482.7,195.4,485.3,198.1z M477.3,224.7c1.7-1.8,2.5-4.1,2.5-6.9v-1.7h-1.4    c-3.5,0-6.3,0.2-8.3,0.5c-2,0.3-3.4,0.9-4.2,1.7c-0.8,0.8-1.3,1.9-1.3,3.3c0,1.7,0.6,3.1,1.8,4.2c1.2,1.1,2.7,1.6,4.4,1.6    C473.5,227.3,475.6,226.5,477.3,224.7z" fill="#1B468E"  /><path d="M523.4,230.5c0,1.3-0.5,2.2-1.5,2.9c-1,0.7-2.5,0.9-4.4,0.8l-2.1-0.2c-8.9-0.6-13.3-5.4-13.3-14.3v-17.3    h-4c-1.4,0-2.5-0.3-3.3-1c-0.8-0.6-1.2-1.6-1.2-2.8c0-1.2,0.4-2.1,1.2-2.8c0.8-0.6,1.9-1,3.3-1h4v-7.3c0-1.4,0.4-2.6,1.4-3.4    c0.9-0.8,2.1-1.3,3.7-1.3c1.5,0,2.7,0.4,3.6,1.3c0.9,0.9,1.4,2,1.4,3.4v7.3h6.8c1.4,0,2.5,0.3,3.3,1c0.8,0.6,1.2,1.6,1.2,2.8    c0,1.2-0.4,2.1-1.2,2.8c-0.8,0.6-1.9,1-3.3,1h-6.8v18c0,3.9,1.8,6,5.4,6.3l2.1,0.2C522.1,227.1,523.4,228.3,523.4,230.5z" fill="#1B468E"  /><path d="M557.4,198.1c2.6,2.7,3.9,6.7,3.9,12.2v19.4c0,1.4-0.4,2.6-1.3,3.4c-0.8,0.8-2,1.2-3.5,1.2    c-1.4,0-2.5-0.4-3.4-1.3c-0.9-0.8-1.3-2-1.3-3.3v-1.7c-0.9,2.1-2.3,3.7-4.2,4.8c-1.9,1.2-4.2,1.7-6.7,1.7c-2.6,0-5-0.5-7.1-1.6    c-2.1-1.1-3.8-2.5-5-4.4c-1.2-1.9-1.8-3.9-1.8-6.2c0-2.9,0.7-5.1,2.2-6.8c1.5-1.6,3.8-2.8,7.1-3.6c3.3-0.7,7.8-1.1,13.6-1.1h2    v-1.8c0-2.6-0.6-4.5-1.7-5.7c-1.1-1.2-2.9-1.8-5.4-1.8c-1.5,0-3.1,0.2-4.7,0.7c-1.6,0.5-3.5,1.1-5.6,1.9c-1.4,0.7-2.4,1-3,1    c-1,0-1.7-0.3-2.3-1c-0.6-0.7-0.9-1.6-0.9-2.7c0-0.9,0.2-1.7,0.7-2.3c0.4-0.7,1.2-1.3,2.3-1.9c1.9-1,4.1-1.8,6.6-2.4    c2.6-0.6,5.1-0.9,7.6-0.9C550.8,194.1,554.8,195.4,557.4,198.1z M549.4,224.7c1.7-1.8,2.5-4.1,2.5-6.9v-1.7h-1.4    c-3.5,0-6.3,0.2-8.3,0.5c-2,0.3-3.4,0.9-4.2,1.7c-0.8,0.8-1.3,1.9-1.3,3.3c0,1.7,0.6,3.1,1.8,4.2c1.2,1.1,2.7,1.6,4.4,1.6    C545.5,227.3,547.7,226.5,549.4,224.7z" fill="#1B468E"  /><path d="M572.7,233.1c-0.9-0.8-1.4-2-1.4-3.5v-47.4c0-1.5,0.5-2.7,1.4-3.5s2.1-1.2,3.5-1.2c1.4,0,2.6,0.4,3.6,1.2    s1.4,2,1.4,3.5v47.4c0,1.5-0.5,2.7-1.4,3.5c-1,0.8-2.1,1.2-3.6,1.2C574.8,234.3,573.7,233.9,572.7,233.1z" fill="#1B468E"  /><path d="M667.1,178.8c0.9,0.9,1.4,2.2,1.4,3.7v47c0,1.5-0.4,2.6-1.3,3.5c-0.8,0.8-2,1.3-3.3,1.3    c-1.4,0-2.5-0.4-3.3-1.3c-0.8-0.8-1.2-2-1.2-3.5v-32.7l-13.5,25.6c-0.6,1.2-1.3,2-2.1,2.6c-0.7,0.6-1.6,0.8-2.6,0.8    c-1,0-1.9-0.3-2.6-0.8c-0.7-0.5-1.4-1.4-2.1-2.6l-13.6-25.2v32.3c0,1.4-0.4,2.6-1.2,3.5c-0.8,0.9-1.9,1.3-3.3,1.3    c-1.4,0-2.5-0.4-3.3-1.3c-0.8-0.8-1.2-2-1.2-3.5v-47c0-1.5,0.4-2.8,1.3-3.7c0.9-0.9,2.1-1.4,3.5-1.4c2.1,0,3.7,1.1,4.8,3.4    l17.6,33.6l17.6-33.6c1.2-2.3,2.7-3.4,4.7-3.4C665,177.5,666.2,177.9,667.1,178.8z" fill="#1B468E"  /><path d="M712.5,224.2c0.6,0.7,0.8,1.6,0.8,2.8c0,1.6-1,3-2.9,4.1c-1.8,1-3.8,1.8-6.1,2.4c-2.3,0.6-4.4,0.9-6.5,0.9    c-6.2,0-11.2-1.8-14.9-5.4c-3.7-3.6-5.5-8.5-5.5-14.8c0-4,0.8-7.5,2.4-10.6c1.6-3.1,3.8-5.5,6.7-7.1c2.9-1.7,6.2-2.5,9.8-2.5    c3.5,0,6.5,0.8,9.1,2.3c2.6,1.5,4.6,3.7,6,6.5c1.4,2.8,2.1,6.1,2.1,9.9c0,2.3-1,3.4-3,3.4h-23.4c0.3,3.7,1.3,6.3,3.1,8.1    c1.7,1.7,4.3,2.6,7.6,2.6c1.7,0,3.2-0.2,4.5-0.6c1.3-0.4,2.8-1,4.4-1.7c1.6-0.8,2.8-1.3,3.5-1.3    C711.3,223.2,712,223.6,712.5,224.2z M690.1,203.6c-1.6,1.7-2.6,4.1-2.9,7.3h18c-0.1-3.2-0.9-5.7-2.4-7.4    c-1.5-1.7-3.5-2.5-6.2-2.5C693.9,201,691.8,201.9,690.1,203.6z" fill="#1B468E"  /><path d="M757.8,178.7c1,0.8,1.4,2,1.4,3.3v47.5c0,1.4-0.5,2.6-1.4,3.4c-0.9,0.9-2.1,1.3-3.6,1.3    c-1.5,0-2.7-0.4-3.6-1.3c-0.9-0.8-1.3-2-1.3-3.4v-2c-1.2,2.2-2.8,3.9-5,5.1c-2.2,1.2-4.7,1.8-7.5,1.8c-3.3,0-6.3-0.8-8.9-2.5    c-2.6-1.7-4.7-4.1-6.1-7.2c-1.5-3.1-2.2-6.7-2.2-10.7c0-4,0.7-7.5,2.2-10.6c1.5-3,3.5-5.4,6.1-7c2.6-1.6,5.6-2.5,9-2.5    c2.8,0,5.3,0.6,7.5,1.7c2.2,1.2,3.8,2.8,5,4.9v-18.8c0-1.3,0.4-2.4,1.3-3.2c0.9-0.8,2.1-1.2,3.5-1.2S756.8,177.9,757.8,178.7z     M746.8,223.5c1.7-2.2,2.6-5.3,2.6-9.3c0-4-0.9-7.1-2.6-9.3c-1.7-2.1-4.1-3.2-7.3-3.2c-3.2,0-5.6,1.1-7.4,3.2    c-1.7,2.1-2.6,5.2-2.6,9.1c0,4,0.9,7.1,2.6,9.4c1.7,2.2,4.2,3.3,7.3,3.3C742.6,226.8,745.1,225.7,746.8,223.5z" fill="#1B468E"  /><path d="M770,185.7c-1.1-1-1.6-2.3-1.6-3.9c0-1.6,0.5-2.9,1.6-3.8c1.1-1,2.5-1.4,4.3-1.4c1.7,0,3.2,0.5,4.2,1.4    c1.1,1,1.6,2.2,1.6,3.8c0,1.6-0.5,2.9-1.6,3.9c-1.1,1-2.5,1.5-4.3,1.5C772.5,187.1,771.1,186.7,770,185.7z M770.8,233.1    c-0.9-0.8-1.4-2-1.4-3.5v-30.7c0-1.5,0.5-2.7,1.4-3.5c0.9-0.8,2.1-1.2,3.5-1.2c1.4,0,2.6,0.4,3.6,1.2c1,0.8,1.4,2,1.4,3.5v30.7    c0,1.5-0.5,2.7-1.4,3.5c-1,0.8-2.1,1.2-3.6,1.2C772.9,234.3,771.7,233.9,770.8,233.1z" fill="#1B468E"  /><path d="M796.5,232c-2.9-1.6-5.2-4-6.8-7c-1.6-3-2.4-6.5-2.4-10.6c0-4,0.8-7.6,2.5-10.7c1.7-3.1,4-5.5,7-7.2    c3-1.7,6.5-2.5,10.4-2.5c2.1,0,4.1,0.3,6.2,0.9c2.1,0.6,3.9,1.4,5.5,2.4c1.7,1.1,2.5,2.5,2.5,4.2c0,1.2-0.3,2.1-0.8,2.8    c-0.6,0.7-1.3,1.1-2.2,1.1c-0.6,0-1.2-0.1-1.8-0.4c-0.6-0.3-1.3-0.6-1.9-1c-1.2-0.7-2.3-1.2-3.3-1.6c-1.1-0.4-2.3-0.6-3.7-0.6    c-3.3,0-5.8,1.1-7.6,3.2c-1.8,2.1-2.7,5.2-2.7,9.3c0,4,0.9,7,2.7,9.2c1.8,2.1,4.3,3.2,7.6,3.2c1.3,0,2.5-0.2,3.5-0.6    c1-0.4,2.2-0.9,3.5-1.6c0.8-0.5,1.5-0.8,2.1-1.1c0.6-0.2,1.2-0.4,1.7-0.4c0.8,0,1.6,0.4,2.1,1.1c0.6,0.7,0.9,1.7,0.9,2.8    c0,0.9-0.2,1.7-0.6,2.3c-0.4,0.7-1,1.3-1.9,1.8c-1.6,1.1-3.5,1.9-5.7,2.5c-2.2,0.6-4.4,0.9-6.7,0.9    C802.9,234.5,799.5,233.7,796.5,232z" fill="#1B468E"  /><path d="M828.8,185.7c-1.1-1-1.6-2.3-1.6-3.9c0-1.6,0.5-2.9,1.6-3.8c1.1-1,2.5-1.4,4.3-1.4c1.7,0,3.2,0.5,4.2,1.4    c1.1,1,1.6,2.2,1.6,3.8c0,1.6-0.5,2.9-1.6,3.9c-1.1,1-2.5,1.5-4.3,1.5C831.3,187.1,829.9,186.7,828.8,185.7z M829.6,233.1    c-0.9-0.8-1.4-2-1.4-3.5v-30.7c0-1.5,0.5-2.7,1.4-3.5c0.9-0.8,2.1-1.2,3.5-1.2c1.4,0,2.6,0.4,3.6,1.2c1,0.8,1.4,2,1.4,3.5v30.7    c0,1.5-0.5,2.7-1.4,3.5c-1,0.8-2.1,1.2-3.6,1.2C831.7,234.3,830.5,233.9,829.6,233.1z" fill="#1B468E"  /><path d="M881.2,198c2.3,2.7,3.4,6.7,3.4,12v19.5c0,1.5-0.4,2.6-1.3,3.5c-0.9,0.8-2.1,1.3-3.6,1.3    c-1.5,0-2.8-0.4-3.7-1.3c-0.9-0.8-1.4-2-1.4-3.5v-19c0-3-0.6-5.2-1.7-6.6c-1.1-1.4-2.9-2.1-5.4-2.1c-2.9,0-5.2,0.9-6.9,2.7    c-1.7,1.8-2.6,4.2-2.6,7.2v17.7c0,1.5-0.4,2.6-1.4,3.5c-0.9,0.8-2.1,1.3-3.7,1.3c-1.5,0-2.7-0.4-3.6-1.3c-0.9-0.8-1.3-2-1.3-3.5    v-30.7c0-1.4,0.5-2.5,1.4-3.3c0.9-0.8,2.1-1.3,3.7-1.3c1.4,0,2.5,0.4,3.4,1.2c0.9,0.8,1.3,1.9,1.3,3.2v2.1c1.3-2.2,3.1-3.8,5.3-5    c2.2-1.2,4.7-1.7,7.5-1.7C875.5,194.1,879,195.4,881.2,198z" fill="#1B468E"  /><path d="M927.6,224.2c0.6,0.7,0.8,1.6,0.8,2.8c0,1.6-1,3-2.9,4.1c-1.8,1-3.8,1.8-6.1,2.4c-2.3,0.6-4.4,0.9-6.5,0.9    c-6.2,0-11.2-1.8-14.9-5.4c-3.7-3.6-5.5-8.5-5.5-14.8c0-4,0.8-7.5,2.4-10.6c1.6-3.1,3.8-5.5,6.7-7.1c2.9-1.7,6.2-2.5,9.8-2.5    c3.5,0,6.5,0.8,9.1,2.3c2.6,1.5,4.6,3.7,6,6.5c1.4,2.8,2.1,6.1,2.1,9.9c0,2.3-1,3.4-3,3.4h-23.4c0.3,3.7,1.3,6.3,3.1,8.1    c1.7,1.7,4.3,2.6,7.6,2.6c1.7,0,3.2-0.2,4.5-0.6c1.3-0.4,2.8-1,4.4-1.7c1.6-0.8,2.8-1.3,3.5-1.3    C926.3,223.2,927,223.6,927.6,224.2z M905.2,203.6c-1.6,1.7-2.6,4.1-2.9,7.3h18c-0.1-3.2-0.9-5.7-2.4-7.4    c-1.5-1.7-3.5-2.5-6.2-2.5C909,201,906.8,201.9,905.2,203.6z" fill="#1B468E"  />
		
		
		
		
		
		
		
		
		
		
		
		
		
		
		
		
		
		
		
		
		
		
		
		
		
		
		
		
		
		
		
		
		
		
		
		
		
	</g>
	
	
</g></svg>