<svg viewBox="0 0 434.4 283.5" role="img" aria-labelledby="best-beginnings--title" xmlns="http://www.w3.org/2000/svg" xmlns:xlink="http://www.w3.org/1999/xlink"><title id="best-beginnings--title">Best Beginnings</title><path d="M193.1,161.1c-32.9-4.4-30.4-43.5-30.4-43.5c1.7-31.9,18.7-36.8,26.4-37.4c1.9,14.9,11.4,11,11.4,11  c-8.9,0-5.6-10.6-5.6-10.6l1.9,0c26.4,3.6,24.6,28.4,24.6,28.4c-0.5,24.6-22.5,29.3-22.5,29.3c-13.4,2.9-20.6-10.1-20.6-10.1  c9.3,25,41,16.6,43.5,15.7c40.2-14.7,29.6-53.1,29.6-53.1c-15-45.5-65.7-39-65.7-39c-60.2,8.7-56.1,71.3-56.1,71.3  c1.7,60.8,61.8,62.8,61.8,62.8c58.6,0.6,63.7-53.8,63.7-53.8C231.6,167.7,193.1,161.1,193.1,161.1L193.1,161.1z M61.1,154.5  c17.8,0,26.6-18.5,26.6-34.5c0-16.2-8.8-34.9-26.6-34.9c-18.3,0-26.9,17.1-26.9,33.7C34.2,135.4,42.3,154.5,61.1,154.5 M0,19  C0,7.6,7.1,0,17.1,0c10,0,17.1,7.6,17.1,19v46.6c9-7.8,20.7-11.9,32.6-11.9c36.8,0,55.1,34.5,55.1,67.7c0,32.3-21.9,64.4-56.3,64.4  c-11.6,0-24.9-5.2-31.4-15.7c-2.1,9-7.6,14.3-17.1,14.3c-10,0-17.1-7.6-17.1-19L0,19L0,19z M336,93.6c-6.4,0-19.5-10-30.7-10  c-6.2,0-11.7,2.8-11.7,9.5c0,15.9,59.4,13.5,59.4,52.5c0,22.8-19.3,40.2-48.7,40.2c-19.2,0-47.8-10.9-47.8-26.4  c0-5.2,5.2-15.2,14.7-15.2c13.3,0,19.2,11.7,35.4,11.7c10.4,0,13.5-3.3,13.5-9.7c0-15.7-59.4-13.3-59.4-52.5  c0-23.8,19.3-39.9,46.3-39.9c16.9,0,42.8,7.8,42.8,24.7C350,86.3,344.1,93.6,336,93.6 M373.6,86.5H366c-9.3,0-15-5.7-15-15  c0-8.6,6.4-15,15-15h7.6V36.1c0-11.4,7.1-19,17.1-19c10,0,17.1,7.6,17.1,19v20.4h9.8c8.8,0,16.4,4,16.4,15c0,10.7-7.6,15-16.4,15  h-9.8v78.9c0,11.4-7.1,19-17.1,19c-10,0-17.1-7.6-17.1-19L373.6,86.5L373.6,86.5z" fill="#5FA9DD"  /><g><path d="M23.5,252.5c6.9,0,10.3-7.1,10.3-13.3c0-6.2-3.4-13.5-10.3-13.5c-7.1,0-10.3,6.6-10.3,13   C13.2,245.2,16.3,252.5,23.5,252.5 M0,200.4c0-4.4,2.8-7.3,6.6-7.3s6.6,2.9,6.6,7.3v17.9c3.5-3,7.9-4.6,12.5-4.6   c14.2,0,21.2,13.3,21.2,26.1c0,12.4-8.4,24.8-21.7,24.8c-4.5,0-9.6-2-12.1-6c-0.8,3.5-2.9,5.5-6.6,5.5c-3.8,0-6.6-2.9-6.6-7.3   L0,200.4L0,200.4z M83.8,234.8c-0.7-5.8-4.4-10.1-10.5-10.1c-5.9,0-9.8,4.5-10.4,10.1H83.8L83.8,234.8z M63.2,243.6   c0.9,6.5,6.3,9.5,12.4,9.5c6.8,0,11.4-5.3,14.9-5.3c2.8,0,5.4,2.8,5.4,5.7c0,5.7-11.7,11.2-21.5,11.2c-14.8,0-24.7-10.8-24.7-25.4   c0-13.4,9.7-25.5,23.6-25.5c14.3,0,23.7,13,23.7,24c0,3.9-1.7,5.9-5.8,5.9L63.2,243.6L63.2,243.6z M123.2,225.8   c-6.9,0-10.3,7.2-10.3,13.3c0,7,3.4,13.4,10.3,13.4c7,0,10.3-6.6,10.3-13C133.5,233.1,130.4,225.8,123.2,225.8 M146.7,259.7   c0,15.8-10.4,23.8-25.4,23.8c-5.4,0-20.8-2.7-20.8-9.9c0-2.5,2.7-5.8,5.3-5.8c4.2,0,8.9,4.1,16.5,4.1c6.4,0,11.2-3.8,11.2-10.4   v-3.1h-0.2c-2.7,4-7.2,6.2-13.3,6.2c-13.8,0-20.3-12.2-20.3-25.2c0-13.3,8.4-25.6,21.7-25.6c4.5,0,9.6,2,12.1,6   c0.8-3.5,2.9-5.5,6.6-5.5c3.8,0,6.6,2.9,6.6,7.3L146.7,259.7L146.7,259.7z M154,221.6c0-4.4,2.7-7.3,6.6-7.3c3.8,0,6.6,2.9,6.6,7.3   v35.1c0,4.4-2.8,7.3-6.6,7.3c-3.8,0-6.6-2.9-6.6-7.3V221.6L154,221.6z M168,201.7c0,4.1-3.3,7.6-7.4,7.6c-3.9,0-7.4-3.6-7.4-7.6   c0-3.7,3.5-7.2,7.4-7.2C164.6,194.5,168,197.9,168,201.7 M174.5,221.6c0-4.4,2.7-7.3,6.6-7.3c3.4,0,5.6,1.8,6,4.8   c2.6-3.6,6.5-5.4,12.7-5.4c10.3,0,18,6.6,18,17.8v25.3c0,4.4-2.7,7.3-6.6,7.3c-3.9,0-6.6-2.9-6.6-7.3v-23c0-6.1-3.9-9.1-8.6-9.1   c-5.4,0-8.4,3.9-8.4,9.1v23c0,4.4-2.7,7.3-6.6,7.3c-3.8,0-6.6-2.9-6.6-7.3V221.6L174.5,221.6z M225.4,221.6c0-4.4,2.7-7.3,6.6-7.3   c3.4,0,5.6,1.8,6,4.8c2.6-3.6,6.5-5.4,12.7-5.4c10.3,0,18,6.6,18,17.8v25.3c0,4.4-2.8,7.3-6.6,7.3c-3.8,0-6.6-2.9-6.6-7.3v-23   c0-6.1-3.8-9.1-8.6-9.1c-5.4,0-8.4,3.9-8.4,9.1v23c0,4.4-2.8,7.3-6.6,7.3s-6.6-2.9-6.6-7.3L225.4,221.6L225.4,221.6z M276.1,221.6   c0-4.4,2.7-7.3,6.6-7.3c3.8,0,6.6,2.9,6.6,7.3v35.1c0,4.4-2.8,7.3-6.6,7.3c-3.8,0-6.6-2.9-6.6-7.3L276.1,221.6L276.1,221.6z    M290.1,201.7c0,4.1-3.3,7.6-7.4,7.6c-3.9,0-7.4-3.6-7.4-7.6c0-3.7,3.5-7.2,7.4-7.2C286.6,194.5,290.1,197.9,290.1,201.7    M296.6,221.6c0-4.4,2.8-7.3,6.6-7.3c3.4,0,5.6,1.8,6.1,4.8c2.6-3.6,6.5-5.4,12.7-5.4c10.3,0,18,6.6,18,17.8v25.3   c0,4.4-2.8,7.3-6.6,7.3c-3.8,0-6.6-2.9-6.6-7.3v-23c0-6.1-3.8-9.1-8.6-9.1c-5.4,0-8.4,3.9-8.4,9.1v23c0,4.4-2.7,7.3-6.6,7.3   c-3.8,0-6.6-2.9-6.6-7.3L296.6,221.6L296.6,221.6z M369,225.8c-6.9,0-10.2,7.2-10.2,13.3c0,7,3.4,13.4,10.2,13.4   c7,0,10.3-6.6,10.3-13C379.4,233.1,376.2,225.8,369,225.8 M392.5,259.7c0,15.8-10.4,23.8-25.4,23.8c-5.4,0-20.8-2.7-20.8-9.9   c0-2.5,2.8-5.8,5.3-5.8c4.2,0,8.9,4.1,16.5,4.1c6.4,0,11.2-3.8,11.2-10.4v-3.1h-0.2c-2.7,4-7.2,6.2-13.3,6.2   c-13.8,0-20.3-12.2-20.3-25.2c0-13.3,8.4-25.6,21.7-25.6c4.5,0,9.6,2,12.1,6c0.8-3.5,2.9-5.5,6.6-5.5c3.9,0,6.6,2.9,6.6,7.3   L392.5,259.7L392.5,259.7z M427.8,229.1c-2.5,0-7.5-3.9-11.8-3.9c-2.4,0-4.5,1.1-4.5,3.7c0,6.1,22.9,5.2,22.9,20.2   c0,8.8-7.4,15.5-18.8,15.5c-7.4,0-18.4-4.2-18.4-10.2c0-2,2-5.9,5.7-5.9c5.1,0,7.4,4.5,13.6,4.5c4,0,5.2-1.3,5.2-3.7   c0-6-22.9-5.1-22.9-20.2c0-9.2,7.4-15.4,17.9-15.4c6.5,0,16.5,3,16.5,9.5C433.2,226.3,430.9,229.1,427.8,229.1" fill="#5FA9DD"  />
	
</g><path d="M192.6,111.1c0,1.5-1.3,2.8-2.8,2.8c-1.5,0-2.8-1.3-2.8-2.8c0-1.5,1.3-2.8,2.8-2.8  C191.3,108.3,192.6,109.6,192.6,111.1 M204.7,111.1c0,1.5-1.3,2.8-2.8,2.8c-1.5,0-2.8-1.3-2.8-2.8c0-1.5,1.3-2.8,2.8-2.8  C203.5,108.3,204.7,109.6,204.7,111.1 M195.8,125.3c-3,0-5.8-1-7.9-2.7c0.7,4.8,3.9,8.5,7.9,8.5c4,0,7.2-3.7,7.9-8.5  C201.6,124.2,198.9,125.3,195.8,125.3 M195.8,120c-1,0-1.8-0.4-2.3-0.9c0.2,1.1,1.2,1.9,2.3,1.9c1.2,0,2.1-0.8,2.3-1.9  C197.6,119.7,196.8,120,195.8,120" fill="#5FA9DD"  /></svg>