<svg viewBox="0 0 689.2 283.5" role="img" aria-labelledby="child-bereavement-uk--title" xmlns="http://www.w3.org/2000/svg" xmlns:xlink="http://www.w3.org/1999/xlink"><title id="child-bereavement-uk--title">Child Bereavement UK - rebuilding lives together</title><linearGradient id="SVGID_1_" gradientUnits="userSpaceOnUse" x1="228.2565" y1="122.3282" x2="496.461" y2="122.3282" gradientTransform="matrix(1 0 0 1 4.000000e-02 -44.102)"><stop offset="2.900000e-02" stop-color="#E9B429" ></stop><stop offset="0.253" stop-color="#D27A53" ></stop><stop offset="0.309" stop-color="#D07450" ></stop><stop offset="0.398" stop-color="#CB6348" ></stop><stop offset="0.509" stop-color="#C5473C" ></stop><stop offset="0.539" stop-color="#C33F39" ></stop>
	
	
	
	
	
	
</linearGradient><path d="M239.5,122.9c-6.2,0-11.2,5-11.2,11.2c0,6.2,5,11.2,11.2,11.2h22.4c6.2,0,11.2-5,11.2-11.2  c0-6.2-5-11.2-11.2-11.2H239.5z M463,122.9c-6.2,0-11.2,5-11.2,11.2c0,6.2,5,11.2,11.2,11.2h22.3c6.2,0,11.2-5,11.2-11.2  c0-6.2-5-11.2-11.2-11.2H463L463,122.9z M295.3,134.1c0,7.9,1.4,15.4,3.9,22.3h24.5c-3.8-6.6-6-14.2-6-22.3  c0-24.7,20-44.7,44.7-44.7c24.7,0,44.7,20,44.7,44.7c0,8.2-2.2,15.8-6,22.3h24.5c2.5-7,3.9-14.5,3.9-22.3c0-37-30-67-67.1-67  C325.4,67.1,295.3,97.1,295.3,134.1 M267.6,39.3c-4.4,4.4-4.4,11.4,0,15.8l15.8,15.8c4.4,4.4,11.4,4.4,15.8,0  c4.4-4.4,4.4-11.4,0-15.8l-15.8-15.8c-2.2-2.2-5-3.3-7.9-3.3C272.6,36,269.8,37.1,267.6,39.3 M441.4,39.3l-15.8,15.8  c-4.4,4.4-4.4,11.4,0,15.8c4.4,4.4,11.4,4.4,15.8,0l15.8-15.8c4.4-4.4,4.4-11.4,0-15.8c-2.2-2.2-5.1-3.3-7.9-3.3  C446.5,36,443.6,37.1,441.4,39.3 M351.2,11.2v22.3c0,6.2,5,11.2,11.2,11.2c6.2,0,11.2-5,11.2-11.2V11.2c0-6.2-5-11.2-11.2-11.2  C356.2,0,351.2,5,351.2,11.2" fill="url(#SVGID_1_)"  /><path d="M51.7,156.2c-4.9,1.1-10.1,2.1-15.2,2.1C15,158.2,0,147.5,0,125c0-22.8,13.9-35.6,36.5-35.6  c4.4,0,10.2,0.9,15.1,2.8l-1,11.3c-5.1-2.9-9.6-3.5-14.4-3.5c-13.7,0-22.3,10.5-22.3,24.1c0,13.5,8.4,23.7,22.6,23.7  c5.2,0,11.4-1.1,14.6-2.8L51.7,156.2L51.7,156.2z M56.4,85.6h12.8v29.1h0.2c3.2-4.8,8.8-7.8,15.5-7.8c11.6,0,16.7,8.2,16.7,19.3v31  H88.7v-26.2c0-6-0.1-14.1-8.3-14.1c-9.3,0-11.3,10-11.3,16.3v24H56.4V85.6z M110.9,86.8h12.8V99h-12.8V86.8z M110.9,108h12.8v49.1  h-12.8V108L110.9,108z M133.4,85.6h12.8v71.5h-12.8L133.4,85.6z M188.4,151.6h-0.2c-3.8,4.8-9.1,6.7-15.1,6.7  c-15.1,0-20.6-12.4-20.6-25.8c0-13.5,5.5-25.6,20.6-25.6c6.4,0,10.9,2.2,14.7,6.9h0.2V85.6h12.8v71.5h-12.4L188.4,151.6L188.4,151.6  z M176.6,148.3c8.5,0,11.3-9,11.3-15.9c0-6.9-3.2-15.6-11.4-15.6c-8.3,0-10.6,9.1-10.6,15.6C165.9,139.2,168.2,148.3,176.6,148.3   M3.2,172.1h23.3c8.6,0,21.5,2.5,21.5,17.1c0,7.9-5.3,13.5-13.3,14.9v0.2c9.1,0.9,15.3,7,15.3,15.2c0,16.8-15.1,19.3-23.5,19.3H3.2  V172.1z M16.6,199H22c5.6,0,12.6-1.2,12.6-8.1c0-7.7-6.8-8.3-12.9-8.3h-5.1L16.6,199L16.6,199z M16.6,228.1h6.3  c6.2,0,13.7-1.5,13.7-9.3c0-8.7-7.1-10-13.7-10h-6.3L16.6,228.1L16.6,228.1z M95.8,235.9c-4.7,2.6-10,3.9-16.9,3.9  c-16.2,0-25.7-9.3-25.7-25.5c0-14.2,7.5-26,22.8-26c18.2,0,23.4,12.5,23.4,29.7h-34c0.6,7.9,6.1,12.4,14,12.4c6.2,0,11.5-2.3,16.3-5  L95.8,235.9L95.8,235.9z M87.2,209.3c-0.4-6.2-3.2-11.5-10.4-11.5c-7.2,0-10.8,5-11.3,11.5H87.2z M105.7,189.5H117v11.2h0.2  c0.6-4.6,5.8-12.3,13.5-12.3c1.2,0,2.6,0,3.9,0.4v12.9c-1.1-0.7-3.4-1-5.7-1c-10.4,0-10.4,13-10.4,20v18h-12.8L105.7,189.5  L105.7,189.5z M177.9,235.9c-4.7,2.6-10,3.9-16.9,3.9c-16.2,0-25.7-9.3-25.7-25.5c0-14.2,7.5-26,22.8-26c18.2,0,23.4,12.5,23.4,29.7  h-34c0.6,7.9,6.1,12.4,14,12.4c6.2,0,11.5-2.3,16.3-5V235.9z M169.3,209.3c-0.4-6.2-3.2-11.5-10.4-11.5c-7.2,0-10.8,5-11.4,11.5  H169.3L169.3,209.3z M189.7,192.1c5-2.3,11.6-3.7,17.1-3.7c15,0,21.2,6.2,21.2,20.7v6.3c0,5,0.1,8.7,0.2,12.3  c0.1,3.7,0.3,7.2,0.6,11h-11.3c-0.5-2.6-0.5-5.8-0.6-7.3h-0.2c-3,5.4-9.4,8.5-15.2,8.5c-8.7,0-17.2-5.2-17.2-14.6  c0-7.3,3.5-11.6,8.4-14c4.9-2.4,11.2-2.9,16.5-2.9h7.1c0-7.9-3.5-10.6-11.1-10.6c-5.4,0-10.9,2.1-15.2,5.3L189.7,192.1L189.7,192.1z   M204.7,230.4c3.9,0,7-1.7,9-4.4c2.1-2.8,2.7-6.3,2.7-10.1h-5.5c-5.7,0-14.2,1-14.2,8.5C196.6,228.6,200.1,230.4,204.7,230.4   M231.1,189.5h13.7l12.2,35.8h0.2l11.8-35.8h12.8l-18.1,49.1h-14.4 M324.9,235.9c-4.7,2.6-10,3.9-16.9,3.9  c-16.2,0-25.7-9.3-25.7-25.5c0-14.2,7.5-26,22.8-26c18.2,0,23.4,12.5,23.4,29.7h-34c0.6,7.9,6.1,12.4,14,12.4c6.2,0,11.5-2.3,16.3-5  L324.9,235.9L324.9,235.9z M316.3,209.3c-0.4-6.2-3.2-11.5-10.4-11.5c-7.2,0-10.8,5-11.4,11.5H316.3L316.3,209.3z M334.4,189.5h11.9  v6.9h0.2c4-6,9.8-8,14.6-8c6.9,0,11.7,2.6,14.5,8.7c3-5.9,9.4-8.7,15.4-8.7c12.1,0,15.5,8.3,15.5,19.3v31h-12.8v-29.3  c0-4.6,0-11.1-7.3-11.1c-8.5,0-9.5,10.1-9.5,16.5v23.8H364v-29.3c0-4.6,0-11.1-7.3-11.1c-8.5,0-9.5,10.1-9.5,16.5v23.8h-12.8  L334.4,189.5L334.4,189.5z M454.7,235.9c-4.7,2.6-10,3.9-16.9,3.9c-16.2,0-25.7-9.3-25.7-25.5c0-14.2,7.5-26,22.8-26  c18.2,0,23.4,12.5,23.4,29.7h-34c0.6,7.9,6.1,12.4,14,12.4c6.2,0,11.5-2.3,16.3-5L454.7,235.9L454.7,235.9z M446.1,209.3  c-0.4-6.2-3.2-11.5-10.4-11.5c-7.2,0-10.8,5-11.4,11.5H446.1L446.1,209.3z M464.3,189.5h12.1v6.7h0.2c4-5.6,9.4-7.8,16.1-7.8  c11.6,0,16.7,8.2,16.7,19.3v31h-12.8v-26.2c0-6-0.1-14.1-8.3-14.1c-9.3,0-11.3,10-11.3,16.3v24h-12.8L464.3,189.5L464.3,189.5z   M522.8,198.9h-9.4v-9.4h9.4v-9.8l12.8-4.1v13.9h11.3v9.4h-11.3v22.9c0,4.2,1.1,8.1,6,8.1c2.3,0,4.5-0.5,5.8-1.3l0.4,10.1  c-2.7,0.8-5.6,1.1-9.4,1.1c-10,0-15.5-6.2-15.5-15.9L522.8,198.9L522.8,198.9z" fill="#54564C"  /><path d="M619.4,211.1c0,18.7-9.4,28.7-25.8,28.7c-16.4,0-25.9-10-25.9-28.7v-39h9.5v37.8c0,12.8,4,21.6,16.3,21.6  c12.3,0,16.3-8.8,16.3-21.6v-37.8h9.5L619.4,211.1L619.4,211.1z M633,172.1h9.5v29.3l28.4-29.3h12.7l-31.3,31.5l33.8,35.1h-13.9  L642.5,206v32.6H633 M181.8,261.3h4.9c4.9,0,10.7-0.2,10.7,5.9c0,2.6-1.8,4.7-4.7,5.1v0.1c1.2,0.1,2,1.3,2.4,2.3l3.6,8.5h-5.1  l-2.7-6.8c-0.7-1.6-1.2-2.2-3.2-2.2h-1.5v9.1h-4.6L181.8,261.3L181.8,261.3L181.8,261.3z M186.3,270.6h1.5c2.2,0,4.8-0.3,4.8-3  c0-2.6-2.5-2.8-4.8-2.8h-1.5V270.6L186.3,270.6z M204.5,261.3h13.4v3.4H209v5.4h8.1v3.4H209v6.1h8.9v3.4h-13.5 M225,261.3h7.9  c2.9,0,7.3,0.8,7.3,5.6c0,2.6-1.8,4.4-4.5,4.9v0.1c3.1,0.3,5.2,2.3,5.2,5c0,5.5-5.1,6.3-8,6.3H225V261.3L225,261.3z M229.6,270.1  h1.9c1.9,0,4.3-0.4,4.3-2.7c0-2.5-2.3-2.7-4.4-2.7h-1.8V270.1z M229.6,279.7h2.1c2.1,0,4.7-0.5,4.7-3c0-2.8-2.4-3.3-4.7-3.3h-2.1  L229.6,279.7L229.6,279.7z M247.2,261.3h4.6v12.6c0,3.7,1.2,6.2,4.7,6.2c3.5,0,4.7-2.4,4.7-6.1v-12.6h4.6v13.9  c0,5.8-3.4,8.2-9.3,8.2c-5.8,0-9.3-2.4-9.3-8.2L247.2,261.3L247.2,261.3z M272.8,261.3h4.6v21.8h-4.6L272.8,261.3z M284.7,261.3h4.6  v18.4h8.8v3.4h-13.4 M303.4,261.3h6.2c7,0,13.1,2.2,13.1,10.9c0,8.6-6.2,10.9-13.1,10.9h-6.2L303.4,261.3L303.4,261.3z M308,279.7  h2.5c3.8,0,7.5-2.7,7.5-7.5c0-4.7-3.7-7.5-7.5-7.5H308V279.7L308,279.7z M328.9,261.3h4.6v21.8h-4.6V261.3z M340.6,261.3h5.6  l8.6,16.3h0.1v-16.3h4.4v21.8h-5.6l-8.7-16.3h-0.1v16.3h-4.4 M384.5,265.5c-1.8-0.8-4-1.2-5.9-1.2c-5.3,0-8.2,3.4-8.2,7.9  c0,4.4,2.9,7.8,7.7,7.8c1.2,0,2.2-0.1,3-0.3V274h-4.8v-3.4h9.2v11.7c-2.4,0.6-4.9,1.1-7.4,1.1c-7.3,0-12.5-3.5-12.5-10.9  c0-7.5,4.8-11.6,12.5-11.6c2.6,0,4.7,0.3,6.7,0.9L384.5,265.5L384.5,265.5z M404.1,261.3h4.6v18.4h8.8v3.4h-13.4 M422.4,261.3h4.6  v21.8h-4.6V261.3z M432,261.3h4.9l5.8,17.1h0.1l5.8-17.1h4.5l-7.6,21.8h-5.6 M458.4,261.3h13.4v3.4H463v5.4h8.1v3.4H463v6.1h8.9v3.4  h-13.5 M491.1,265.3c-1.4-0.6-3-0.9-4.6-0.9c-1.6,0-3.6,0.6-3.6,3c0,3.8,10,2.2,10,9.5c0,4.8-3.9,6.6-8.5,6.6  c-2.5,0-3.6-0.3-5.8-0.8l0.4-3.9c1.6,0.8,3.4,1.3,5.1,1.3c1.7,0,4-0.8,4-2.8c0-4.1-10-2.4-10-9.6c0-4.9,3.9-6.7,7.9-6.7  c2,0,3.8,0.3,5.4,0.8L491.1,265.3L491.1,265.3z M515.1,264.7h-6.5v-3.4h17.6v3.4h-6.5v18.4h-4.6 M541.5,260.9  c7.1,0,11.1,4.6,11.1,11.2c0,6.6-3.9,11.3-11.1,11.3c-7.3,0-11.1-4.6-11.1-11.3C530.4,265.4,534.3,260.9,541.5,260.9 M541.5,280  c4.7,0,6.4-4,6.4-7.9c0-3.8-1.9-7.8-6.4-7.8c-4.5,0-6.4,3.9-6.4,7.8C535.1,276.1,536.8,280,541.5,280 M576.9,265.5  c-1.8-0.8-4-1.2-5.9-1.2c-5.3,0-8.2,3.4-8.2,7.9c0,4.4,2.9,7.8,7.7,7.8c1.2,0,2.2-0.1,3-0.3V274h-4.8v-3.4h9.2v11.7  c-2.4,0.6-4.9,1.1-7.4,1.1c-7.3,0-12.5-3.5-12.5-10.9c0-7.5,4.7-11.6,12.5-11.6c2.6,0,4.7,0.3,6.7,0.9L576.9,265.5L576.9,265.5z   M585.1,261.3h13.4v3.4h-8.8v5.4h8.1v3.4h-8.1v6.1h8.9v3.4h-13.5 M609.8,264.7h-6.5v-3.4h17.6v3.4h-6.5v18.4h-4.6 M626.2,261.3h4.6  v8.8h9.1v-8.8h4.6v21.8h-4.6v-9.6h-9.1v9.6h-4.6 M652.1,261.3h13.4v3.4h-8.8v5.4h8.1v3.4h-8.1v6.1h8.9v3.4h-13.5 M672.2,261.3h4.9  c4.9,0,10.7-0.2,10.7,5.9c0,2.6-1.8,4.7-4.7,5.1v0.1c1.2,0.1,2,1.3,2.4,2.3l3.6,8.5h-5.1l-2.7-6.8c-0.7-1.6-1.2-2.2-3.2-2.2h-1.5  v9.1h-4.6L672.2,261.3L672.2,261.3z M676.8,270.6h1.5c2.2,0,4.8-0.3,4.8-3c0-2.6-2.5-2.8-4.8-2.8h-1.5L676.8,270.6L676.8,270.6z" fill="#C33F39"  /></svg>