<svg viewBox="0 0 655.4 283.5" role="img" aria-labelledby="hrp--title" xmlns="http://www.w3.org/2000/svg" xmlns:xlink="http://www.w3.org/1999/xlink"><title id="hrp--title">HPR - Human reproduction programme - research for impact</title><g><path d="M655.4,140.7c0,24.3-20.3,44.1-45.4,44.1s-45.4-19.7-45.4-44.1c0-24.3,20.3-44,45.4-44   C635.1,96.7,655.4,116.4,655.4,140.7" fill="#636466"  /><path d="M566.9,198.3c0,14.2-11.9,25.8-26.5,25.8c-14.7,0-26.5-11.5-26.5-25.8c0-14.2,11.9-25.8,26.5-25.8   S566.9,184,566.9,198.3" fill="#007DC5"  /><path d="M334.6,196.9c0,2.8-2.4,5.1-5.3,5.1s-5.3-2.3-5.3-5.1s2.4-5.1,5.3-5.1C332.3,191.8,334.6,194.1,334.6,196.9" /><path d="M8.3,234.9H0.9v-27.2h6.9v3.9c1.2-1.8,2.2-3.1,3.2-3.6c0.9-0.6,2-0.9,3.2-0.9c1.7,0,3.3,0.5,4.8,1.4   l-2.3,6.3c-1.2-0.8-2.4-1.2-3.5-1.2c-1,0-1.9,0.3-2.6,0.8c-0.7,0.5-1.3,1.6-1.7,3c-0.4,1.5-0.6,4.5-0.6,9.1V234.9z" fill="#007DC5"  /><path d="M38.8,219c0-2.1-0.6-3.7-1.7-4.8c-1.1-1.1-2.3-1.6-3.8-1.6c-1.6,0-2.9,0.6-4,1.7c-1,1.1-1.6,2.7-1.6,4.7   L38.8,219L38.8,219z M38.4,226.3l7.3,1.2c-1,2.6-2.5,4.6-4.5,6c-2,1.4-4.6,2.1-7.7,2.1c-4.8,0-8.4-1.5-10.8-4.6   c-1.8-2.5-2.8-5.6-2.8-9.4c0-4.5,1.2-8,3.6-10.6c2.4-2.6,5.5-3.9,9.2-3.9c4.2,0,7.4,1.3,9.8,4s3.6,6.8,3.6,12.3H27.6   c0.1,2.1,0.7,3.8,1.8,5c1.1,1.2,2.5,1.8,4.2,1.8c1.2,0,2.2-0.3,2.9-0.9C37.3,228.6,37.9,227.7,38.4,226.3" fill="#007DC5"  /><path d="M49.5,227.2l7.4-1.1c0.3,1.4,1,2.5,1.9,3.2c1,0.7,2.3,1.1,4.1,1.1c1.9,0,3.3-0.3,4.3-1c0.7-0.5,1-1.1,1-1.9   c0-0.5-0.2-1-0.6-1.3c-0.4-0.4-1.2-0.7-2.5-1c-5.9-1.3-9.7-2.5-11.3-3.5c-2.2-1.5-3.3-3.5-3.3-6.1c0-2.4,1-4.3,2.9-6   c1.9-1.6,4.9-2.4,8.9-2.4c3.8,0,6.7,0.6,8.5,1.8c1.9,1.2,3.1,3,3.9,5.4l-7,1.3c-0.3-1.1-0.9-1.9-1.7-2.5c-0.8-0.6-2-0.8-3.6-0.8   c-2,0-3.4,0.3-4.2,0.8c-0.6,0.4-0.8,0.9-0.8,1.5c0,0.5,0.2,1,0.7,1.3c0.7,0.5,3,1.2,6.9,2c3.9,0.9,6.7,1.9,8.2,3.2   c1.6,1.3,2.3,3,2.3,5.3c0,2.5-1.1,4.6-3.2,6.4c-2.1,1.8-5.3,2.7-9.5,2.7c-3.8,0-6.8-0.8-9.1-2.3C51.7,231.8,50.2,229.8,49.5,227.2" fill="#007DC5"  /><path d="M98.7,219c-0.1-2.1-0.6-3.7-1.7-4.8c-1-1.1-2.3-1.6-3.8-1.6c-1.6,0-2.9,0.6-4,1.7c-1,1.1-1.6,2.7-1.6,4.7   L98.7,219L98.7,219z M98.3,226.3l7.3,1.2c-1,2.6-2.5,4.6-4.5,6c-2,1.4-4.6,2.1-7.7,2.1c-4.9,0-8.4-1.5-10.8-4.6   c-1.8-2.5-2.8-5.6-2.8-9.4c0-4.5,1.2-8,3.6-10.6c2.4-2.6,5.5-3.9,9.2-3.9c4.2,0,7.4,1.3,9.8,4c2.4,2.7,3.6,6.8,3.6,12.3H87.5   c0,2.1,0.6,3.8,1.8,5c1.1,1.2,2.6,1.8,4.2,1.8c1.2,0,2.1-0.3,2.9-0.9C97.3,228.6,97.9,227.7,98.3,226.3" fill="#007DC5"  /><path d="M127.5,221.9c-0.9,0.3-2.5,0.7-4.5,1.1s-3.4,0.8-4,1.3c-1,0.7-1.5,1.5-1.5,2.5s0.4,1.9,1.2,2.6   c0.8,0.7,1.8,1.1,3,1.1c1.3,0,2.6-0.4,3.8-1.2c0.9-0.7,1.5-1.5,1.8-2.4c0.2-0.6,0.3-1.8,0.3-3.5L127.5,221.9L127.5,221.9z    M117.6,216.1l-6.7-1.2c0.8-2.6,2.1-4.6,3.9-5.9c1.8-1.3,4.6-1.9,8.2-1.9c3.3,0,5.8,0.4,7.4,1.1c1.6,0.8,2.7,1.7,3.4,2.9   c0.6,1.2,1,3.3,1,6.4l-0.1,8.4c0,2.4,0.1,4.1,0.4,5.3c0.2,1.2,0.7,2.4,1.3,3.6H129c-0.2-0.5-0.4-1.2-0.7-2.1l-0.3-0.9   c-1.3,1.2-2.6,2.1-4.1,2.7c-1.4,0.6-3,0.9-4.6,0.9c-2.9,0-5.1-0.8-6.8-2.3c-1.7-1.5-2.5-3.4-2.5-5.8c0-1.5,0.4-2.9,1.1-4.1   c0.8-1.2,1.8-2.1,3.2-2.8c1.3-0.6,3.3-1.2,5.9-1.7c3.5-0.6,5.8-1.2,7.2-1.8v-0.7c0-1.4-0.4-2.4-1-3c-0.7-0.6-2-0.9-4-0.9   c-1.3,0-2.3,0.3-3.1,0.8C118.6,213.9,118,214.8,117.6,216.1" fill="#007DC5"  /><path d="M149.1,234.9h-7.4v-27.2h6.9v3.9c1.2-1.8,2.2-3.1,3.2-3.6c0.9-0.6,2-0.9,3.2-0.9c1.7,0,3.3,0.5,4.9,1.4   l-2.3,6.3c-1.3-0.8-2.4-1.2-3.5-1.2c-1,0-1.9,0.3-2.6,0.8c-0.7,0.5-1.3,1.6-1.7,3c-0.4,1.5-0.6,4.5-0.6,9.1L149.1,234.9   L149.1,234.9z" fill="#007DC5"  /><path d="M187.4,215.8l-7.3,1.3c-0.3-1.4-0.8-2.5-1.7-3.2c-0.9-0.7-2-1.1-3.4-1.1c-1.8,0-3.3,0.6-4.4,1.8   c-1.1,1.2-1.6,3.3-1.6,6.2c0,3.2,0.6,5.5,1.7,6.9c1.1,1.3,2.6,2,4.5,2c1.4,0,2.6-0.4,3.5-1.2c0.9-0.8,1.5-2.1,1.9-4l7.2,1.2   c-0.7,3.2-2.2,5.7-4.3,7.3c-2.1,1.7-5,2.5-8.6,2.5c-4.1,0-7.3-1.3-9.8-3.8c-2.4-2.5-3.6-6-3.6-10.4c0-4.5,1.2-8,3.7-10.5   c2.4-2.5,5.7-3.8,9.9-3.8c3.4,0,6.1,0.7,8.1,2.1C185,210.7,186.5,212.9,187.4,215.8" fill="#007DC5"  /><path d="M200.4,197.4v13.8c2.4-2.7,5.2-4.1,8.5-4.1c1.7,0,3.3,0.3,4.6,0.9c1.4,0.6,2.4,1.4,3.1,2.4   c0.7,1,1.1,2,1.4,3.2c0.3,1.2,0.4,3,0.4,5.4v15.9H211v-14.4c0-2.8-0.1-4.6-0.4-5.4c-0.3-0.8-0.8-1.4-1.5-1.8   c-0.7-0.5-1.6-0.7-2.7-0.7c-1.2,0-2.3,0.3-3.3,0.9c-1,0.6-1.7,1.5-2.1,2.6c-0.4,1.2-0.7,2.9-0.7,5.2v13.6H193v-37.6L200.4,197.4   L200.4,197.4z" fill="#007DC5"  /><path d="M237.7,207.8h4.1v-2.1c0-2.3,0.3-4,0.8-5.1s1.4-2,2.7-2.7c1.3-0.7,3-1.1,5.1-1.1s4.2,0.3,6.2,0.9l-1,5   c-1.2-0.3-2.3-0.4-3.4-0.4c-1.1,0-1.8,0.2-2.3,0.7s-0.7,1.4-0.7,2.8v1.9h5.5v5.7h-5.5v21.5h-7.4v-21.5h-4.1L237.7,207.8   L237.7,207.8z" fill="#007DC5"  /><path d="M264.7,221.4c0,2.7,0.7,4.8,2,6.2c1.3,1.4,2.9,2.1,4.9,2.1c1.9,0,3.6-0.7,4.9-2.1c1.3-1.4,2-3.5,2-6.3   c0-2.6-0.6-4.7-2-6.1c-1.3-1.4-2.9-2.2-4.9-2.2c-1.9,0-3.6,0.7-4.9,2.2C265.4,216.6,264.7,218.7,264.7,221.4 M257.2,221   c0-2.4,0.6-4.7,1.8-6.9c1.2-2.2,2.9-4,5.1-5.1c2.2-1.2,4.7-1.8,7.4-1.8c4.2,0,7.7,1.3,10.4,4c2.7,2.7,4.1,6.1,4.1,10.1   c0,4.1-1.4,7.5-4.1,10.2c-2.7,2.7-6.1,4.1-10.3,4.1c-2.6,0-5-0.6-7.3-1.7c-2.3-1.1-4.1-2.8-5.3-5   C257.8,226.7,257.2,224.1,257.2,221" fill="#007DC5"  /><path d="M298.9,234.9h-7.4v-27.2h6.9v3.9c1.2-1.8,2.2-3.1,3.2-3.6c0.9-0.6,2-0.9,3.2-0.9c1.7,0,3.3,0.5,4.9,1.4   l-2.3,6.3c-1.2-0.8-2.4-1.2-3.5-1.2c-1,0-1.9,0.3-2.6,0.8s-1.3,1.6-1.7,3c-0.4,1.5-0.6,4.5-0.6,9.1L298.9,234.9L298.9,234.9z" fill="#007DC5"  />
	
	
	
	
	
	
	
	
	
	
	
	
	
	
</g><g><rect x="325.7" y="207.8" width="7.4" height="27.2" />
	
</g><g><path d="M340.3,207.8h6.8v3.7c2.4-2.9,5.3-4.3,8.7-4.3c1.8,0,3.3,0.4,4.7,1.1c1.3,0.7,2.4,1.8,3.2,3.2c1.2-1.4,2.6-2.5,4-3.2   s2.9-1.1,4.5-1.1c2.1,0,3.8,0.4,5.2,1.2s2.5,2,3.2,3.6c0.5,1.2,0.8,3.1,0.8,5.7v17.4H374v-15.6c0-2.7-0.2-4.4-0.7-5.2   c-0.7-1-1.8-1.5-3.2-1.5c-1,0-2,0.3-2.9,0.9c-0.9,0.6-1.6,1.5-2,2.7c-0.4,1.2-0.6,3.1-0.6,5.6v13.1h-7.4V220c0-2.7-0.1-4.4-0.4-5.1   c-0.3-0.8-0.7-1.3-1.2-1.7c-0.6-0.4-1.3-0.6-2.2-0.6c-1.2,0-2.2,0.3-3.1,0.9c-0.9,0.6-1.6,1.5-2,2.6c-0.4,1.1-0.6,3-0.6,5.6v13.2   h-7.4L340.3,207.8L340.3,207.8z" /><path d="M396,220.9c0,3.1,0.6,5.3,1.9,6.8c1.2,1.5,2.8,2.2,4.5,2.2s3.2-0.7,4.3-2c1.1-1.4,1.7-3.5,1.7-6.6c0-2.9-0.6-5-1.8-6.4   c-1.2-1.4-2.6-2.1-4.4-2.1c-1.8,0-3.3,0.7-4.5,2C396.6,216.2,396,218.2,396,220.9 M388.6,207.8h6.9v4c0.9-1.4,2.1-2.5,3.6-3.3   c1.5-0.9,3.2-1.3,5.1-1.3c3.3,0,6,1.2,8.3,3.7c2.3,2.5,3.4,5.9,3.4,10.4s-1.2,8.1-3.4,10.6c-2.3,2.5-5,3.8-8.3,3.8   c-1.6,0-2.9-0.3-4.2-0.9c-1.3-0.6-2.6-1.6-4-3.1v13.7h-7.4V207.8z" /><path d="M437.1,221.9c-0.9,0.3-2.5,0.7-4.5,1.1s-3.4,0.8-4,1.3c-1,0.7-1.5,1.5-1.5,2.5s0.4,1.9,1.2,2.6c0.8,0.7,1.8,1.1,3,1.1   c1.3,0,2.6-0.4,3.8-1.2c0.9-0.7,1.5-1.5,1.8-2.4c0.2-0.6,0.3-1.8,0.3-3.5L437.1,221.9L437.1,221.9z M427.2,216.1l-6.7-1.2   c0.8-2.6,2.1-4.6,3.9-5.9c1.8-1.3,4.6-1.9,8.2-1.9c3.3,0,5.8,0.4,7.4,1.1c1.6,0.8,2.7,1.7,3.4,2.9c0.6,1.2,1,3.3,1,6.4l-0.1,8.4   c0,2.4,0.1,4.1,0.4,5.3c0.2,1.2,0.7,2.4,1.3,3.6h-7.3c-0.2-0.5-0.4-1.2-0.7-2.1l-0.3-0.9c-1.3,1.2-2.6,2.1-4.1,2.7   c-1.4,0.6-3,0.9-4.6,0.9c-2.9,0-5.1-0.8-6.8-2.3c-1.7-1.5-2.5-3.4-2.5-5.8c0-1.5,0.4-2.9,1.1-4.1c0.8-1.2,1.8-2.1,3.2-2.8   c1.3-0.6,3.3-1.2,5.9-1.7c3.5-0.6,5.9-1.2,7.2-1.8v-0.7c0-1.4-0.3-2.4-1-3c-0.7-0.6-2-0.9-4-0.9c-1.3,0-2.4,0.3-3.1,0.8   C428.3,213.9,427.7,214.8,427.2,216.1" /><path d="M476.1,215.8l-7.3,1.3c-0.3-1.4-0.8-2.5-1.7-3.2s-2-1.1-3.4-1.1c-1.8,0-3.3,0.6-4.4,1.8c-1.1,1.2-1.6,3.3-1.6,6.2   c0,3.2,0.5,5.5,1.7,6.9c1.1,1.3,2.6,2,4.5,2c1.4,0,2.6-0.4,3.5-1.2c0.9-0.8,1.5-2.1,1.9-4l7.2,1.2c-0.7,3.2-2.2,5.7-4.3,7.3   c-2.1,1.7-5,2.5-8.6,2.5c-4.1,0-7.4-1.3-9.8-3.8c-2.4-2.5-3.6-6-3.6-10.4c0-4.5,1.2-8,3.7-10.5c2.4-2.5,5.7-3.8,9.9-3.8   c3.4,0,6.1,0.7,8.1,2.1C473.8,210.7,475.2,212.9,476.1,215.8" /><path d="M494.5,207.8v5.7h-5.1v10.9c0,2.2,0,3.5,0.1,3.9l0.7,0.9c0.3,0.2,0.8,0.4,1.2,0.4c0.7,0,1.7-0.2,3-0.7l0.6,5.6   c-1.7,0.7-3.7,1.1-5.8,1.1c-1.3,0-2.5-0.2-3.6-0.7c-1.1-0.4-1.9-1-2.4-1.7s-0.8-1.6-1-2.8c-0.1-0.8-0.2-2.5-0.2-5.1v-11.8h-3.4   v-5.7h3.4v-5.4l7.4-4.2v9.6H494.5z" /><path d="M122.3,55.2V21.9h4.2v12c2-2.2,4.4-3.3,7.4-3.3c1.8,0,3.4,0.4,4.8,1.1c1.3,0.7,2.3,1.7,2.9,2.9   c0.6,1.2,0.9,3,0.9,5.4v15.3h-4.2V39.9c0-2.1-0.5-3.5-1.4-4.5c-0.9-0.9-2.2-1.4-3.8-1.4c-1.3,0-2.4,0.3-3.5,1   c-1.1,0.6-1.9,1.5-2.3,2.6c-0.5,1.1-0.7,2.6-0.7,4.4v13.2H122.3z" fill="#696A6D"  /><path d="M165.5,55.2v-3.6c-1.9,2.7-4.5,4.1-7.8,4.1c-1.5,0-2.8-0.3-4.1-0.8c-1.3-0.5-2.2-1.2-2.8-2s-1.1-1.8-1.3-3   c-0.2-0.8-0.3-2.1-0.3-3.8v-15h4.2v13.4c0,2.1,0.1,3.6,0.3,4.3c0.3,1.1,0.8,1.9,1.7,2.5c0.8,0.6,1.9,0.9,3.2,0.9s2.4-0.3,3.5-0.9   c1.1-0.6,1.9-1.5,2.3-2.6c0.5-1.1,0.7-2.7,0.7-4.7V31.1h4.2v24.1H165.5z" fill="#696A6D"  /><path d="M176.2,55.2V31.1h3.7v3.4c0.8-1.2,1.8-2.1,3.1-2.9c1.3-0.7,2.8-1.1,4.4-1.1c1.8,0,3.4,0.4,4.5,1.1   c1.2,0.7,2,1.8,2.5,3.1c2-2.8,4.5-4.2,7.7-4.2c2.5,0,4.3,0.7,5.7,2c1.3,1.3,2,3.4,2,6.1v16.6h-4.2V40c0-1.6-0.1-2.8-0.4-3.5   s-0.8-1.3-1.5-1.7c-0.7-0.4-1.6-0.7-2.5-0.7c-1.7,0-3.2,0.6-4.3,1.7c-1.2,1.1-1.7,2.9-1.7,5.4v14H191V39.5c0-1.8-0.3-3.2-1-4.1   c-0.7-0.9-1.8-1.4-3.3-1.4c-1.2,0-2.3,0.3-3.3,0.9c-1,0.6-1.7,1.5-2.2,2.7c-0.4,1.2-0.7,2.9-0.7,5v12.5L176.2,55.2L176.2,55.2z" fill="#696A6D"  /><path d="M232.1,43.1c-1.5,0.6-3.8,1.1-6.8,1.6c-1.7,0.3-3,0.5-3.7,0.8s-1.3,0.7-1.7,1.3c-0.4,0.6-0.6,1.2-0.6,2   c0,1.1,0.4,2,1.3,2.7c0.9,0.7,2.1,1.1,3.7,1.1c1.6,0,3-0.3,4.3-1c1.3-0.7,2.2-1.6,2.8-2.8c0.5-0.9,0.7-2.3,0.7-4.1V43.1z    M232.5,52.2c-1.6,1.3-3.1,2.2-4.5,2.7c-1.4,0.5-3,0.8-4.6,0.8c-2.7,0-4.8-0.6-6.3-1.9c-1.5-1.3-2.2-2.9-2.2-5   c0-1.2,0.3-2.3,0.8-3.2c0.6-1,1.3-1.8,2.2-2.4c0.9-0.6,1.9-1,3-1.3c0.8-0.2,2.1-0.4,3.7-0.6c3.4-0.4,5.9-0.9,7.5-1.4   c0-0.5,0-0.9,0-1c0-1.7-0.4-2.8-1.2-3.5c-1.1-0.9-2.7-1.4-4.8-1.4c-2,0-3.4,0.3-4.4,1c-0.9,0.7-1.7,1.9-2.1,3.6l-4.1-0.5   c0.4-1.7,1-3.1,1.8-4.2c0.9-1.1,2.1-1.9,3.7-2.4c1.6-0.6,3.5-0.9,5.6-0.9s3.8,0.2,5.2,0.7c1.3,0.5,2.3,1.1,2.9,1.8   c0.6,0.7,1.1,1.7,1.3,2.8c0.1,0.7,0.2,2,0.2,3.8v5.4c0,3.8,0.1,6.2,0.3,7.2c0.2,1,0.5,2,1.1,2.9h-4.4   C232.9,54.3,232.6,53.3,232.5,52.2" fill="#696A6D"  /><path d="M243.3,55.2V31.1h3.8v3.4c1.8-2.7,4.4-4,7.9-4c1.5,0,2.9,0.3,4.1,0.8c1.3,0.5,2.2,1.2,2.8,2.1   c0.6,0.8,1,1.9,1.3,3c0.2,0.8,0.3,2.1,0.3,4v14.8h-4.2V40.5c0-1.7-0.2-2.9-0.5-3.7s-0.9-1.5-1.7-2c-0.8-0.5-1.8-0.7-2.9-0.7   c-1.8,0-3.3,0.6-4.6,1.7c-1.3,1.1-1.9,3.2-1.9,6.3v13.2L243.3,55.2L243.3,55.2z" fill="#696A6D"  /><path d="M0.5,97.9V73.8h3.8v3.6c1-1.7,1.9-2.8,2.7-3.4c0.8-0.5,1.7-0.8,2.7-0.8c1.4,0,2.8,0.4,4.3,1.3l-1.4,3.8   c-1-0.6-2-0.9-3.1-0.9c-0.9,0-1.7,0.3-2.5,0.8c-0.7,0.5-1.2,1.3-1.6,2.3c-0.5,1.4-0.7,3-0.7,4.8v12.6C4.7,97.9,0.5,97.9,0.5,97.9z" fill="#696A6D"  /><path d="M20,83.5h13.8c-0.2-2-0.7-3.6-1.6-4.6c-1.3-1.6-3.1-2.4-5.2-2.4c-1.9,0-3.6,0.6-4.9,1.9   C20.8,79.7,20.1,81.4,20,83.5 M33.7,90.1l4.3,0.5c-0.7,2.5-1.9,4.4-3.8,5.7c-1.9,1.4-4.2,2-7.1,2c-3.6,0-6.5-1.1-8.6-3.3   c-2.1-2.2-3.2-5.2-3.2-9.2c0-4.1,1.1-7.2,3.2-9.5c2.1-2.2,4.9-3.4,8.4-3.4c3.3,0,6,1.1,8.1,3.3c2.1,2.2,3.2,5.3,3.2,9.3   c0,0.3,0,0.6,0,1.1H19.7c0.2,2.6,0.9,4.7,2.3,6.1c1.4,1.4,3.1,2.1,5.2,2.1c1.5,0,2.9-0.4,3.9-1.2C32.2,93.1,33.1,91.8,33.7,90.1" fill="#696A6D"  /><path d="M47.5,85.9c0,3.1,0.6,5.4,1.9,6.9c1.3,1.5,2.9,2.2,4.7,2.2c1.9,0,3.5-0.8,4.8-2.3c1.3-1.5,2-3.9,2-7.2   c0-3.1-0.7-5.4-2-6.9c-1.3-1.5-2.9-2.3-4.7-2.3s-3.4,0.8-4.7,2.4C48.2,80.5,47.5,82.8,47.5,85.9 M43.7,107.1V73.7h3.8v3.1   c0.9-1.2,1.9-2.1,3.1-2.8c1.1-0.6,2.5-0.9,4.1-0.9c2.1,0,4,0.5,5.6,1.6c1.6,1.1,2.8,2.6,3.7,4.5c0.8,1.9,1.2,4,1.2,6.3   c0,2.5-0.5,4.7-1.4,6.7c-0.9,2-2.2,3.5-4,4.5c-1.7,1.1-3.6,1.6-5.5,1.6c-1.4,0-2.7-0.3-3.8-0.9c-1.1-0.6-2-1.3-2.7-2.2v11.7h-4.1   V107.1z" fill="#696A6D"  /><path d="M70.5,97.9V73.8h3.8v3.6c1-1.7,1.9-2.8,2.7-3.4c0.8-0.5,1.7-0.8,2.7-0.8c1.4,0,2.8,0.4,4.3,1.3l-1.4,3.8   c-1-0.6-2.1-0.9-3.1-0.9c-0.9,0-1.7,0.3-2.5,0.8c-0.7,0.5-1.2,1.3-1.5,2.3c-0.5,1.4-0.7,3-0.7,4.8v12.6   C74.8,97.9,70.5,97.9,70.5,97.9z" fill="#696A6D"  /><path d="M89.5,85.8c0,3.1,0.7,5.4,2.1,6.9c1.4,1.5,3.1,2.3,5.2,2.3c2.1,0,3.8-0.8,5.2-2.3c1.4-1.5,2.1-3.9,2.1-7   c0-3-0.7-5.3-2.1-6.8c-1.4-1.5-3.1-2.3-5.2-2.3c-2.1,0-3.8,0.8-5.2,2.3C90.2,80.4,89.5,82.7,89.5,85.8 M85.2,85.8   c0-4.5,1.3-7.8,3.8-9.9c2.1-1.8,4.7-2.7,7.8-2.7c3.4,0,6.2,1.1,8.4,3.3c2.2,2.2,3.2,5.2,3.2,9c0,3.1-0.5,5.6-1.4,7.3   c-1,1.8-2.3,3.2-4.2,4.1c-1.8,1-3.8,1.5-6,1.5c-3.5,0-6.2-1.1-8.4-3.3C86.3,93,85.2,89.9,85.2,85.8" fill="#696A6D"  /><path d="M116.5,85.8c0,3.1,0.7,5.4,2,6.9c1.3,1.5,2.9,2.3,4.7,2.3s3.4-0.7,4.6-2.2c1.3-1.5,1.9-3.7,1.9-6.7   c0-3.3-0.7-5.7-2-7.3c-1.3-1.5-2.9-2.3-4.8-2.3s-3.4,0.7-4.7,2.2C117.1,80.3,116.5,82.6,116.5,85.8 M129.8,97.9v-3   c-1.6,2.4-3.9,3.6-6.9,3.6c-2,0-3.8-0.5-5.4-1.6c-1.7-1.1-2.9-2.5-3.8-4.4c-0.9-1.9-1.4-4.1-1.4-6.5s0.4-4.6,1.2-6.6   c0.8-2,2.1-3.5,3.7-4.5s3.5-1.6,5.5-1.6c1.5,0,2.8,0.3,4,0.9c1.2,0.6,2.1,1.4,2.8,2.4v-12h4.2v33.3   C133.7,97.9,129.8,97.9,129.8,97.9z" fill="#696A6D"  /><path d="M156.8,97.9v-3.6c-1.9,2.7-4.5,4.1-7.8,4.1c-1.5,0-2.8-0.3-4.1-0.8c-1.3-0.5-2.2-1.2-2.8-2s-1-1.8-1.3-3   c-0.2-0.8-0.3-2.1-0.3-3.8v-15h4.2v13.4c0,2.1,0.1,3.6,0.3,4.3c0.3,1.1,0.8,1.9,1.7,2.5c0.9,0.6,1.9,0.9,3.2,0.9   c1.2,0,2.4-0.3,3.5-0.9s1.9-1.5,2.4-2.6s0.7-2.7,0.7-4.7V73.8h4.2v24.1H156.8z" fill="#696A6D"  /><path d="M183.7,89l4.1,0.5c-0.5,2.8-1.6,4.9-3.5,6.5c-1.9,1.6-4.2,2.3-6.9,2.3c-3.4,0-6.1-1.1-8.2-3.2   c-2.1-2.2-3.1-5.2-3.1-9.3c0-2.6,0.4-4.9,1.3-6.8c0.9-2,2.2-3.4,4.1-4.4c1.8-1,3.8-1.5,5.9-1.5c2.7,0,4.9,0.7,6.6,2   c1.7,1.3,2.8,3.2,3.3,5.6l-4.1,0.6c-0.4-1.6-1.1-2.8-2.1-3.6c-1-0.8-2.2-1.2-3.6-1.2c-2.1,0-3.9,0.7-5.2,2.2c-1.3,1.5-2,3.8-2,7   s0.6,5.6,1.9,7.1c1.3,1.5,2.9,2.2,5,2.2c1.6,0,3-0.5,4.1-1.5C182.7,92.6,183.4,91.1,183.7,89" fill="#696A6D"  /><path d="M200.9,94.2l0.6,3.6c-1.2,0.2-2.3,0.4-3.2,0.4c-1.5,0-2.7-0.2-3.5-0.7c-0.8-0.5-1.4-1.1-1.8-1.9   c-0.3-0.8-0.5-2.4-0.5-4.8V76.9h-3.1v-3.2h3.1v-6l4.2-2.4v8.4h4.2v3.2h-4.2V91c0,1.2,0.1,1.9,0.2,2.3l0.7,0.8   c0.3,0.2,0.8,0.3,1.4,0.3C199.5,94.4,200.1,94.3,200.9,94.2" fill="#696A6D"  />
	
	
	
	
	
	
	
	
	
	
	
	
	
	
	
	
	
	
	
</g><g><path d="M205.3,97.9h4.2V73.7h-4.2V97.9z M205.3,69.3h4.2v-4.7h-4.2V69.3z" fill="#696A6D"  />
	
</g><g><path d="M219,85.8c0,3.1,0.7,5.4,2.1,6.9c1.4,1.5,3.1,2.3,5.2,2.3c2.1,0,3.8-0.8,5.2-2.3c1.4-1.5,2.1-3.9,2.1-7   c0-3-0.7-5.3-2.1-6.8c-1.4-1.5-3.1-2.3-5.2-2.3s-3.8,0.8-5.2,2.3C219.7,80.4,219,82.7,219,85.8 M214.7,85.8c0-4.5,1.3-7.8,3.8-9.9   c2.1-1.8,4.7-2.7,7.8-2.7c3.4,0,6.2,1.1,8.4,3.3c2.2,2.2,3.2,5.2,3.2,9c0,3.1-0.5,5.6-1.4,7.3c-1,1.8-2.4,3.2-4.2,4.1   c-1.8,1-3.8,1.5-6,1.5c-3.5,0-6.3-1.1-8.4-3.3C215.8,93,214.7,89.9,214.7,85.8" fill="#696A6D"  /><path d="M243.3,97.9V73.8h3.8v3.4c1.8-2.7,4.4-4,7.9-4c1.5,0,2.9,0.3,4.1,0.8c1.3,0.5,2.2,1.2,2.8,2.1   c0.6,0.8,1,1.9,1.3,3c0.2,0.8,0.3,2.1,0.3,4v14.8h-4.2V83.2c0-1.6-0.2-2.9-0.5-3.7c-0.3-0.8-0.9-1.5-1.7-2   c-0.8-0.5-1.8-0.7-2.9-0.7c-1.8,0-3.3,0.6-4.6,1.7c-1.3,1.1-1.9,3.2-1.9,6.3V98L243.3,97.9L243.3,97.9z" fill="#696A6D"  /><path d="M26.7,128.6c0,3.1,0.7,5.4,1.9,6.9c1.3,1.5,2.9,2.2,4.7,2.2c1.9,0,3.5-0.8,4.8-2.3c1.3-1.5,2-3.9,2-7.2   c0-3.1-0.6-5.4-2-6.9c-1.3-1.5-2.9-2.3-4.6-2.3c-1.8,0-3.4,0.8-4.7,2.4C27.4,123.1,26.7,125.5,26.7,128.6 M22.9,149.8v-33.3h3.8   v3.1c0.9-1.2,1.9-2.1,3.1-2.8c1.1-0.6,2.5-0.9,4.1-0.9c2.1,0,4,0.5,5.6,1.6s2.8,2.6,3.7,4.5c0.8,1.9,1.2,4,1.2,6.3   c0,2.5-0.5,4.7-1.4,6.7c-0.9,2-2.2,3.5-4,4.5c-1.7,1-3.6,1.6-5.5,1.6c-1.4,0-2.6-0.3-3.8-0.9c-1.1-0.6-2-1.3-2.7-2.2v11.7   L22.9,149.8L22.9,149.8z" fill="#696A6D"  /><path d="M49.8,140.5v-24.1h3.8v3.6c1-1.7,1.9-2.8,2.7-3.4c0.8-0.5,1.7-0.8,2.7-0.8c1.4,0,2.8,0.4,4.3,1.3l-1.4,3.8   c-1-0.6-2.1-0.9-3.1-0.9c-0.9,0-1.7,0.3-2.5,0.8c-0.7,0.5-1.2,1.3-1.5,2.3c-0.5,1.4-0.7,3-0.7,4.8v12.6L49.8,140.5L49.8,140.5z" fill="#696A6D"  /><path d="M68.8,128.5c0,3.1,0.7,5.4,2.1,6.9s3.1,2.3,5.2,2.3c2.1,0,3.8-0.8,5.2-2.3c1.4-1.5,2.1-3.9,2.1-7   c0-3-0.7-5.3-2.1-6.8s-3.1-2.3-5.2-2.3c-2.1,0-3.8,0.8-5.2,2.3C69.5,123.1,68.8,125.4,68.8,128.5 M64.5,128.5   c0-4.5,1.3-7.8,3.8-9.9c2.1-1.8,4.7-2.7,7.8-2.7c3.4,0,6.2,1.1,8.4,3.3c2.2,2.2,3.2,5.2,3.2,9c0,3.1-0.5,5.6-1.4,7.3   c-0.9,1.8-2.3,3.2-4.2,4.1c-1.8,1-3.8,1.5-6,1.5c-3.5,0-6.2-1.1-8.4-3.3C65.6,135.7,64.5,132.5,64.5,128.5" fill="#696A6D"  /><path d="M95.6,128c0,3.2,0.7,5.5,1.9,6.9c1.3,1.4,2.9,2.2,4.8,2.2s3.6-0.7,4.9-2.2c1.3-1.4,2-3.7,2-6.8   c0-2.9-0.7-5.2-2-6.7c-1.3-1.5-3-2.3-4.9-2.3s-3.4,0.7-4.8,2.2C96.3,123,95.6,125.1,95.6,128 M92.2,142.5l4.1,0.6   c0.2,1.2,0.6,2.1,1.4,2.7c1,0.8,2.5,1.1,4.3,1.1c2,0,3.5-0.4,4.5-1.1c1.1-0.8,1.8-1.8,2.1-3.2c0.2-0.8,0.3-2.6,0.3-5.3   c-1.8,2.1-4.1,3.2-6.8,3.2c-3.4,0-6-1.2-7.9-3.6s-2.8-5.3-2.8-8.6c0-2.3,0.4-4.4,1.3-6.4c0.9-1.9,2.1-3.5,3.7-4.5   c1.6-1.1,3.5-1.6,5.7-1.6c2.9,0,5.3,1.2,7.2,3.5v-2.9h3.8v20.8c0,3.7-0.4,6.4-1.2,8c-0.8,1.6-2,2.8-3.7,3.7   c-1.7,0.9-3.8,1.4-6.3,1.4c-2.9,0-5.3-0.7-7.2-2C93,147.1,92.1,145.1,92.2,142.5" fill="#696A6D"  /><path d="M119.8,140.5v-24.1h3.8v3.6c1-1.7,1.9-2.8,2.7-3.4c0.8-0.5,1.7-0.8,2.7-0.8c1.4,0,2.8,0.4,4.3,1.3l-1.4,3.8   c-1-0.6-2-0.9-3.1-0.9c-0.9,0-1.7,0.3-2.5,0.8c-0.7,0.5-1.2,1.3-1.5,2.3c-0.5,1.4-0.7,3-0.7,4.8v12.6L119.8,140.5L119.8,140.5z" fill="#696A6D"  /><path d="M151.8,128.4c-1.5,0.6-3.8,1.1-6.8,1.6c-1.7,0.3-3,0.5-3.7,0.8c-0.7,0.3-1.3,0.7-1.7,1.3   c-0.4,0.6-0.6,1.2-0.6,2c0,1.1,0.4,2,1.3,2.7c0.9,0.7,2.1,1.1,3.7,1.1s3-0.3,4.3-1c1.3-0.7,2.2-1.6,2.8-2.8   c0.5-0.9,0.7-2.3,0.7-4.1V128.4z M152.2,137.6c-1.6,1.3-3.1,2.2-4.5,2.7c-1.4,0.5-3,0.8-4.6,0.8c-2.7,0-4.8-0.6-6.3-1.9   c-1.5-1.3-2.2-2.9-2.2-5c0-1.2,0.3-2.3,0.8-3.2c0.5-1,1.3-1.8,2.2-2.4c0.9-0.6,1.9-1,3-1.3c0.8-0.2,2.1-0.4,3.7-0.6   c3.4-0.4,5.9-0.9,7.5-1.4c0-0.5,0-0.9,0-1c0-1.7-0.4-2.8-1.2-3.5c-1.1-0.9-2.7-1.4-4.8-1.4c-2,0-3.4,0.3-4.4,1   c-0.9,0.7-1.6,1.9-2.1,3.6l-4.1-0.5c0.4-1.7,1-3.1,1.8-4.2c0.9-1.1,2.1-1.9,3.7-2.4c1.6-0.6,3.5-0.9,5.6-0.9c2.1,0,3.9,0.2,5.2,0.7   s2.3,1.1,2.9,1.8c0.6,0.7,1.1,1.7,1.3,2.8c0.1,0.7,0.2,2,0.2,3.8v5.4c0,3.8,0.1,6.2,0.3,7.2c0.2,1,0.5,2,1.1,2.9h-4.4   C152.6,139.7,152.3,138.7,152.2,137.6" fill="#696A6D"  /><path d="M163,140.5v-24.1h3.7v3.4c0.8-1.2,1.8-2.1,3.1-2.9c1.3-0.7,2.8-1.1,4.4-1.1c1.8,0,3.4,0.4,4.5,1.1   c1.2,0.7,2,1.8,2.5,3.1c2-2.8,4.5-4.2,7.7-4.2c2.5,0,4.3,0.7,5.7,2c1.3,1.3,2,3.4,2,6.1v16.6h-4.2v-15.2c0-1.6-0.1-2.8-0.4-3.5   c-0.3-0.7-0.8-1.3-1.5-1.7c-0.7-0.4-1.6-0.7-2.5-0.7c-1.7,0-3.2,0.6-4.3,1.7c-1.2,1.1-1.7,2.9-1.7,5.4v14h-4.2v-15.7   c0-1.8-0.3-3.2-1-4.1c-0.7-0.9-1.8-1.4-3.3-1.4c-1.2,0-2.3,0.3-3.3,0.9s-1.7,1.5-2.2,2.7c-0.4,1.2-0.7,2.9-0.7,5v12.5L163,140.5   L163,140.5z" fill="#696A6D"  /><path d="M203.1,140.5v-24.1h3.7v3.4c0.8-1.2,1.8-2.1,3.1-2.9c1.3-0.7,2.8-1.1,4.4-1.1c1.9,0,3.4,0.4,4.5,1.1   c1.2,0.7,2,1.8,2.5,3.1c2-2.8,4.5-4.2,7.7-4.2c2.5,0,4.3,0.7,5.7,2c1.3,1.3,2,3.4,2,6.1v16.6h-4.2v-15.2c0-1.6-0.1-2.8-0.4-3.5   c-0.3-0.7-0.8-1.3-1.5-1.7c-0.7-0.4-1.6-0.7-2.5-0.7c-1.7,0-3.2,0.6-4.3,1.7c-1.2,1.1-1.7,2.9-1.7,5.4v14h-4.2v-15.7   c0-1.8-0.3-3.2-1-4.1c-0.7-0.9-1.8-1.4-3.3-1.4c-1.2,0-2.3,0.3-3.3,0.9c-1,0.6-1.7,1.5-2.2,2.7c-0.4,1.2-0.7,2.9-0.7,5v12.5   L203.1,140.5L203.1,140.5z" fill="#696A6D"  /><path d="M246.4,126.2h13.9c-0.2-2-0.7-3.6-1.6-4.6c-1.3-1.6-3.1-2.4-5.2-2.4c-1.9,0-3.6,0.6-4.9,1.9   C247.3,122.4,246.5,124.1,246.4,126.2 M260.2,132.8l4.3,0.5c-0.7,2.5-1.9,4.4-3.8,5.7c-1.9,1.4-4.2,2-7.1,2c-3.6,0-6.5-1.1-8.6-3.2   c-2.1-2.2-3.2-5.2-3.2-9.2c0-4.1,1.1-7.2,3.2-9.4c2.1-2.2,4.9-3.4,8.4-3.4c3.3,0,6,1.1,8.1,3.3c2.1,2.2,3.2,5.3,3.2,9.3   c0,0.3,0,0.6,0,1.1h-18.5c0.1,2.6,0.9,4.7,2.3,6.1c1.4,1.4,3.1,2.1,5.2,2.1c1.5,0,2.9-0.4,3.9-1.2   C258.7,135.8,259.6,134.5,260.2,132.8" fill="#696A6D"  /><path d="M363.5,140.7V81.3c0-4.6-0.5-8.8-1.5-12.6c-1-3.8-2.7-7-5-9.8c-2.3-2.7-5.2-4.8-8.9-6.3   c-3.6-1.5-8-2.2-13-2.2c-4.8,0-9.1,0.9-13.1,2.7c-4,1.8-7.4,4.3-10.3,7.4c-2.9,3.1-5.1,6.8-6.7,11.1c-1.6,4.2-2.4,8.8-2.4,13.7   v55.3h-13.7V0h13.7v42.6c0,2.2,0,4.4-0.1,6.7c-0.1,2.3-0.2,4.4-0.3,6.3c-0.1,1.9-0.1,3.6-0.2,4.9c-0.1,1.3-0.2,2.1-0.2,2.3h0.4   c4.2-7.6,9.4-13.3,15.6-17c6.1-3.7,13.5-5.5,22.1-5.5c6.6,0,12.2,0.9,16.8,2.7c4.7,1.8,8.5,4.4,11.5,7.7s5.2,7.2,6.6,11.9   c1.4,4.6,2.1,9.8,2.1,15.6v62.7h-13.4V140.7z" fill="#007DC5"  /><path d="M432.8,51c-4.6,0-8.6,1.1-12,3.3s-6.3,5.2-8.6,8.8c-2.3,3.7-4,7.9-5.1,12.7c-1.1,4.8-1.7,9.7-1.7,14.9v50   h-13.7V66.4c0-2.2,0-4.6,0-7.3c0-2.7-0.1-5.3-0.2-7.7c-0.1-2.4-0.1-4.5-0.1-6.3c0-1.7-0.1-2.8-0.1-3.2h12.4c0,0.2,0.1,1.3,0.2,3.2   c0.1,1.9,0.2,4.1,0.3,6.5c0.1,2.4,0.1,4.9,0.2,7.3c0.1,2.4,0.1,4.3,0.1,5.5h0.4c1.4-4.1,2.9-7.6,4.6-10.6c1.7-3,3.8-5.5,6.3-7.5   c2.4-2,5.2-3.5,8.3-4.5c3.1-1,6.7-1.6,10.7-1.6c3,0,5.3,0.3,7,1v10.9c-1.2-0.4-2.5-0.7-4.1-0.9C436.4,51.1,434.7,51,432.8,51" fill="#007DC5"  /><path d="M536,91c0-6.3-0.7-12-2.1-17c-1.4-5-3.5-9.3-6.4-12.8c-2.8-3.5-6.4-6.2-10.7-8.1c-4.3-1.9-9.3-2.9-15-2.9   c-4.6,0-8.9,0.7-13.1,2.2c-4.1,1.5-7.8,3.8-10.9,7.1c-3.1,3.2-5.7,7.5-7.6,12.7c-1.9,5.3-2.8,11.7-2.8,19.4   c0,7.5,0.9,13.9,2.8,19.1c1.9,5.2,4.4,9.4,7.5,12.6c3.1,3.2,6.7,5.5,10.9,6.9c4.1,1.4,8.5,2.1,13.1,2.1c11.1,0,19.6-3.6,25.5-10.7   C533,114.5,536,104.3,536,91 M550.1,91c0,7.3-0.9,14.2-2.8,20.5c-1.8,6.3-4.6,11.8-8.3,16.4s-8.4,8.2-14.1,10.8   c-5.7,2.6-12.3,3.9-19.9,3.9c-8.5,0-16.1-1.8-22.5-5.3c-6.5-3.6-11.4-8.5-14.8-14.7h-0.4c0,0.1,0,0.7,0.1,1.8c0,1.1,0,2.6,0.1,4.3   c0,1.8,0,3.7,0.1,5.8c0.1,2.1,0.1,4.2,0.1,6.2v47.1H454V63c0-2.6,0-5,0-7.4c0-2.4-0.1-4.5-0.1-6.4c-0.1-1.9-0.1-3.5-0.1-4.7   c0-1.3-0.1-2.1-0.1-2.5h12.8c0.1,0.2,0.1,0.9,0.2,2.2c0.1,1.3,0.2,2.9,0.2,4.7c0.1,1.9,0.2,4,0.3,6.1c0.1,2.1,0.1,4.1,0.1,5.9h0.4   c3.8-6.7,8.9-11.8,15.2-15.4c6.3-3.6,14.3-5.4,24-5.4c7.4,0,13.8,1.3,19.2,3.8c5.4,2.6,9.9,6.1,13.4,10.7s6.2,10,7.9,16.2   C549.2,77,550.1,83.7,550.1,91" fill="#007DC5"  /><path d="M11.3,266.4h2.3v9.7c0,1.7-0.2,3-0.6,4s-1.1,1.8-2.1,2.4s-2.4,0.9-4,0.9s-2.9-0.3-4-0.8c-1-0.5-1.8-1.3-2.2-2.3   S0,277.9,0,276.1v-9.7h2.3v9.7c0,1.5,0.1,2.5,0.4,3.2s0.8,1.2,1.4,1.6c0.7,0.4,1.5,0.6,2.5,0.6c1.7,0,2.9-0.4,3.6-1.1   c0.7-0.7,1.1-2.2,1.1-4.3C11.3,276.1,11.3,266.4,11.3,266.4z" />
	
	
	
	
	
	
	
	
	
	
	
	
	
	
	
</g><g><polygon points="17.1,283.2 17.1,266.4 19.5,266.4 28.5,279.6 28.5,266.4 30.7,266.4 30.7,283.2 28.3,283.2 19.3,270 19.3,283.2" />
	
</g><g><path d="M36.6,281.2h3.7c1.1,0,2-0.1,2.7-0.3c0.7-0.2,1.2-0.5,1.5-0.9c0.5-0.5,1-1.2,1.3-2.1c0.3-0.9,0.5-2,0.5-3.2   c0-1.7-0.3-3.1-0.9-4c-0.6-0.9-1.3-1.6-2.2-1.9c-0.6-0.2-1.6-0.4-2.9-0.4h-3.6L36.6,281.2L36.6,281.2z M34.3,283.2v-16.7h5.9   c1.3,0,2.4,0.1,3.1,0.2c1,0.2,1.8,0.6,2.5,1.2c0.9,0.7,1.6,1.7,2,2.9c0.4,1.2,0.7,2.5,0.7,4c0,1.3-0.2,2.4-0.5,3.4   c-0.3,1-0.7,1.8-1.2,2.4c-0.5,0.6-1,1.1-1.6,1.5c-0.6,0.4-1.3,0.6-2.1,0.8c-0.8,0.2-1.7,0.3-2.8,0.3L34.3,283.2L34.3,283.2z" /><path d="M53.8,274.4h4.4c1.5,0,2.5-0.3,3.1-0.8c0.6-0.5,0.9-1.3,0.9-2.2c0-0.7-0.2-1.3-0.5-1.8c-0.4-0.5-0.8-0.8-1.4-1   c-0.4-0.1-1.1-0.2-2.1-0.2h-4.4V274.4z M51.5,283.2v-16.7H58c1.1,0,2,0.1,2.6,0.2c0.8,0.1,1.5,0.4,2.1,0.8c0.6,0.4,1,0.9,1.4,1.6   c0.3,0.7,0.5,1.5,0.5,2.3c0,1.4-0.5,2.6-1.4,3.6c-0.9,1-2.6,1.5-5,1.5h-4.4v6.8L51.5,283.2L51.5,283.2z" /><path d="M72.8,274.8c0,0.5-0.2,0.9-0.5,1.2c-0.4,0.3-0.8,0.5-1.3,0.5s-0.9-0.2-1.3-0.5c-0.4-0.3-0.5-0.8-0.5-1.2   c0-0.5,0.2-0.9,0.5-1.3c0.4-0.3,0.8-0.5,1.3-0.5s0.9,0.2,1.3,0.5C72.7,273.9,72.8,274.3,72.8,274.8" /><path d="M89.7,266.4H92v9.7c0,1.7-0.2,3-0.6,4c-0.4,1-1.1,1.8-2.1,2.4c-1,0.6-2.4,0.9-4,0.9c-1.6,0-2.9-0.3-4-0.8   c-1-0.5-1.8-1.3-2.2-2.3s-0.7-2.4-0.7-4.2v-9.7h2.3v9.7c0,1.5,0.1,2.5,0.4,3.2c0.3,0.7,0.8,1.2,1.4,1.6c0.7,0.4,1.5,0.6,2.5,0.6   c1.7,0,2.9-0.4,3.6-1.1c0.7-0.7,1.1-2.2,1.1-4.3L89.7,266.4L89.7,266.4z" />
	
	
	
	
</g><g><polygon points="95.6,283.2 95.6,266.4 97.9,266.4 106.9,279.6 106.9,266.4 109.1,266.4 109.1,283.2 106.8,283.2 97.8,270 97.8,283.2" /><polygon points="112.9,283.2 112.9,266.4 124.5,266.4 124.5,268.4 115.2,268.4 115.2,273.6 123.2,273.6 123.2,275.6 115.2,275.6 115.2,283.2" />
	
	
</g><g><path d="M129.6,274.4h4.4c1.5,0,2.5-0.3,3.1-0.8c0.6-0.5,0.9-1.3,0.9-2.2c0-0.7-0.2-1.3-0.5-1.8c-0.4-0.5-0.8-0.8-1.4-1   c-0.4-0.1-1.1-0.2-2.1-0.2h-4.4V274.4z M127.3,283.2v-16.7h6.5c1.1,0,2,0.1,2.6,0.2c0.8,0.1,1.5,0.4,2.1,0.8c0.6,0.4,1,0.9,1.4,1.6   c0.3,0.7,0.5,1.5,0.5,2.3c0,1.4-0.5,2.6-1.4,3.6c-0.9,1-2.6,1.5-5,1.5h-4.4v6.8L127.3,283.2L127.3,283.2z" /><path d="M146.2,276.3h5.8l-1.8-4.6c-0.5-1.4-0.9-2.6-1.2-3.5c-0.2,1.1-0.5,2.1-0.9,3.2L146.2,276.3z M141.3,283.2l6.6-16.7h2.5   l7,16.7h-2.6l-2-5.1h-7.2l-1.9,5.1H141.3z" /><path d="M165.1,274.8c0,0.5-0.2,0.9-0.5,1.2c-0.4,0.3-0.8,0.5-1.3,0.5c-0.5,0-0.9-0.2-1.3-0.5c-0.4-0.3-0.5-0.8-0.5-1.2   c0-0.5,0.2-0.9,0.5-1.3c0.4-0.3,0.8-0.5,1.3-0.5c0.5,0,0.9,0.2,1.3,0.5C164.9,273.9,165.1,274.3,165.1,274.8" /><path d="M182.6,266.4h2.3v9.7c0,1.7-0.2,3-0.6,4c-0.4,1-1.1,1.8-2.1,2.4c-1,0.6-2.4,0.9-4,0.9c-1.6,0-2.9-0.3-4-0.8   c-1-0.5-1.8-1.3-2.2-2.3s-0.7-2.4-0.7-4.2v-9.7h2.3v9.7c0,1.5,0.1,2.5,0.4,3.2s0.8,1.2,1.4,1.6c0.7,0.4,1.5,0.6,2.5,0.6   c1.7,0,2.9-0.4,3.6-1.1c0.7-0.7,1.1-2.2,1.1-4.3V266.4z" />
	
	
	
	
</g><g><polygon points="188.5,283.2 188.5,266.4 190.8,266.4 199.9,279.6 199.9,266.4 202.1,266.4 202.1,283.2 199.7,283.2 190.7,270 190.7,283.2" /><rect x="206.1" y="266.5" width="2.3" height="16.7" />
	
	
</g><g><path d="M224.5,277.3l2.3,0.6c-0.5,1.8-1.3,3.2-2.6,4.2c-1.2,1-2.8,1.4-4.5,1.4c-1.8,0-3.3-0.4-4.5-1.1c-1.2-0.7-2-1.8-2.7-3.2   c-0.6-1.4-0.9-2.9-0.9-4.5c0-1.7,0.3-3.3,1-4.6c0.7-1.3,1.7-2.3,2.9-3c1.3-0.7,2.7-1,4.2-1c1.7,0,3.2,0.4,4.3,1.3   c1.2,0.9,2,2.1,2.4,3.6l-2.2,0.5c-0.4-1.2-1-2.1-1.7-2.7c-0.8-0.6-1.7-0.8-2.9-0.8c-1.3,0-2.4,0.3-3.3,0.9   c-0.9,0.6-1.5,1.4-1.9,2.5c-0.4,1-0.5,2.1-0.5,3.2c0,1.4,0.2,2.7,0.6,3.7c0.4,1.1,1.1,1.9,2,2.4c0.9,0.5,1.9,0.8,2.9,0.8   c1.3,0,2.4-0.4,3.2-1.1C223.6,279.8,224.2,278.7,224.5,277.3" />
	
</g><g><polygon points="229.4,283.2 229.4,266.4 241.9,266.4 241.9,268.4 231.7,268.4 231.7,273.6 241.2,273.6 241.2,275.5 231.7,275.5 231.7,281.2 242.3,281.2 242.3,283.2" /><polygon points="245.3,283.2 245.3,266.4 256.9,266.4 256.9,268.4 247.6,268.4 247.6,273.6 255.7,273.6 255.7,275.6 247.6,275.6 247.6,283.2" />
	
	
</g><g><path d="M265.9,274.8c0,0.5-0.2,0.9-0.5,1.2c-0.4,0.3-0.8,0.5-1.3,0.5s-0.9-0.2-1.3-0.5c-0.4-0.3-0.5-0.8-0.5-1.2   c0-0.5,0.2-0.9,0.5-1.3c0.4-0.3,0.8-0.5,1.3-0.5s0.9,0.2,1.3,0.5C265.7,273.9,265.9,274.3,265.9,274.8" /><path d="M275.8,283.2l-4.6-16.7h2.3l2.6,11c0.3,1.2,0.5,2.3,0.7,3.4c0.4-1.8,0.7-2.8,0.8-3.1l3.3-11.3h2.8l2.5,8.5   c0.6,2.1,1.1,4.1,1.3,5.9c0.2-1.1,0.5-2.3,0.9-3.6l2.7-10.8h2.3l-4.7,16.7h-2.2l-3.6-12.7c-0.3-1.1-0.5-1.7-0.5-2   c-0.2,0.8-0.4,1.4-0.5,2l-3.7,12.7H275.8z" />
	
	
</g><g><polygon points="295.4,283.2 295.4,266.4 297.7,266.4 297.7,273.3 306.6,273.3 306.6,266.4 308.9,266.4 308.9,283.2 306.6,283.2 306.6,275.3 297.7,275.3 297.7,283.2" />
	
</g><g><path d="M314.2,275.1c0,2,0.6,3.6,1.7,4.8c1.1,1.2,2.5,1.7,4.2,1.7s3.1-0.6,4.2-1.8c1.1-1.2,1.7-2.8,1.7-5c0-1.4-0.2-2.5-0.7-3.6   c-0.5-1-1.2-1.8-2.1-2.4c-0.9-0.6-1.9-0.8-3.1-0.8c-1.6,0-3,0.5-4.2,1.6C314.7,270.8,314.2,272.5,314.2,275.1 M311.8,275   c0-2.8,0.8-5,2.3-6.5c1.5-1.6,3.5-2.4,5.9-2.4c1.6,0,3,0.4,4.3,1.1s2.2,1.8,2.9,3.1c0.7,1.3,1,2.8,1,4.5s-0.4,3.2-1.1,4.5   c-0.7,1.3-1.7,2.4-3,3c-1.3,0.7-2.7,1-4.2,1c-1.6,0-3.1-0.4-4.3-1.1c-1.3-0.8-2.2-1.8-2.9-3.1C312.1,277.9,311.8,276.5,311.8,275" /><path d="M337.2,274.8c0,0.5-0.2,0.9-0.5,1.2c-0.4,0.3-0.8,0.5-1.3,0.5s-0.9-0.2-1.3-0.5c-0.4-0.3-0.5-0.8-0.5-1.2   c0-0.5,0.2-0.9,0.5-1.3c0.4-0.3,0.8-0.5,1.3-0.5s0.9,0.2,1.3,0.5C337,273.9,337.2,274.3,337.2,274.8" /><path d="M345.8,283.2l-4.6-16.7h2.3l2.6,11c0.3,1.2,0.5,2.3,0.7,3.4c0.4-1.8,0.7-2.8,0.8-3.1l3.3-11.3h2.7l2.5,8.5   c0.6,2.1,1.1,4.1,1.3,5.9c0.2-1.1,0.5-2.3,0.9-3.6l2.7-10.8h2.3l-4.7,16.7h-2.2l-3.6-12.7c-0.3-1.1-0.5-1.7-0.5-2   c-0.2,0.8-0.4,1.4-0.5,2l-3.7,12.7H345.8z" /><path d="M366.9,275.1c0,2,0.6,3.6,1.7,4.8c1.1,1.2,2.5,1.7,4.2,1.7s3.1-0.6,4.2-1.8c1.1-1.2,1.7-2.8,1.7-5c0-1.4-0.2-2.5-0.7-3.6   c-0.5-1-1.2-1.8-2.1-2.4c-0.9-0.6-1.9-0.8-3.1-0.8c-1.6,0-3,0.5-4.2,1.6C367.5,270.8,366.9,272.5,366.9,275.1 M364.6,275   c0-2.8,0.8-5,2.3-6.5c1.5-1.6,3.5-2.4,5.9-2.4c1.6,0,3,0.4,4.3,1.1c1.3,0.7,2.2,1.8,2.9,3.1c0.7,1.3,1,2.8,1,4.5s-0.4,3.2-1.1,4.5   s-1.7,2.4-3,3c-1.3,0.7-2.7,1-4.2,1c-1.6,0-3.1-0.4-4.3-1.1c-1.3-0.8-2.2-1.8-2.9-3.1C364.9,277.9,364.6,276.5,364.6,275" /><path d="M386.1,273.8h4.9c1,0,1.9-0.1,2.4-0.3c0.6-0.2,1-0.5,1.3-1c0.3-0.5,0.5-1,0.5-1.5c0-0.8-0.3-1.4-0.9-2   c-0.6-0.5-1.5-0.8-2.8-0.8h-5.4V273.8z M383.8,283.2v-16.7h7.6c1.5,0,2.7,0.1,3.5,0.5c0.8,0.3,1.4,0.8,1.9,1.6   c0.5,0.8,0.7,1.6,0.7,2.5c0,1.2-0.4,2.2-1.2,3c-0.8,0.8-2,1.3-3.7,1.5c0.6,0.3,1.1,0.6,1.4,0.8c0.7,0.6,1.3,1.3,1.9,2.2l3,4.6h-2.8   l-2.3-3.5c-0.7-1-1.2-1.8-1.6-2.3c-0.4-0.5-0.8-0.9-1.2-1.1l-1-0.4c-0.3-0.1-0.7-0.1-1.3-0.1h-2.6v7.4H383.8z" />
	
	
	
	
	
</g><g><polygon points="400.8,283.2 400.8,266.4 403,266.4 403,281.2 411.5,281.2 411.5,283.2" />
	
</g><g><path d="M416.3,281.2h3.7c1.1,0,2-0.1,2.7-0.3c0.7-0.2,1.2-0.5,1.5-0.9c0.5-0.5,1-1.2,1.3-2.1s0.5-2,0.5-3.2c0-1.7-0.3-3.1-0.9-4   c-0.6-0.9-1.3-1.6-2.2-1.9c-0.6-0.2-1.6-0.4-2.9-0.4h-3.6L416.3,281.2L416.3,281.2z M414.1,283.2v-16.7h5.9c1.3,0,2.4,0.1,3.1,0.2   c1,0.2,1.8,0.6,2.5,1.2c0.9,0.7,1.6,1.7,2,2.9c0.4,1.2,0.7,2.5,0.7,4c0,1.3-0.2,2.4-0.5,3.4c-0.3,1-0.7,1.8-1.2,2.4   c-0.5,0.6-1,1.1-1.6,1.5c-0.6,0.4-1.3,0.6-2.1,0.8c-0.8,0.2-1.7,0.3-2.8,0.3L414.1,283.2L414.1,283.2z" /><path d="M439.9,281.2h4.3c0.7,0,1.2,0,1.5-0.1c0.5-0.1,1-0.2,1.3-0.5l0.9-0.9c0.2-0.4,0.3-0.9,0.3-1.4c0-0.6-0.2-1.2-0.5-1.6   c-0.3-0.5-0.8-0.8-1.4-1c-0.6-0.2-1.4-0.3-2.5-0.3h-4v5.8H439.9z M439.9,273.5h3.7c1,0,1.7-0.1,2.2-0.2c0.6-0.2,1-0.5,1.3-0.8   c0.3-0.4,0.4-0.9,0.4-1.5c0-0.5-0.1-1-0.4-1.5c-0.3-0.4-0.7-0.7-1.2-0.9s-1.4-0.2-2.6-0.2h-3.4V273.5z M437.6,283.2v-16.7h6.5   c1.3,0,2.4,0.2,3.2,0.5c0.8,0.3,1.4,0.9,1.9,1.6c0.4,0.7,0.7,1.4,0.7,2.2c0,0.7-0.2,1.4-0.6,2c-0.4,0.6-1,1.1-1.8,1.5   c1,0.3,1.9,0.8,2.4,1.5c0.6,0.7,0.8,1.6,0.8,2.5c0,0.8-0.2,1.5-0.5,2.2s-0.8,1.2-1.3,1.6c-0.5,0.4-1.1,0.6-1.9,0.8   c-0.8,0.2-1.7,0.3-2.8,0.3H437.6z" /><path d="M456.7,276.3h5.8l-1.8-4.6c-0.5-1.4-0.9-2.6-1.2-3.5c-0.2,1.1-0.5,2.1-0.9,3.2L456.7,276.3z M451.7,283.2l6.6-16.7h2.5   l7,16.7h-2.6l-2-5.1H456l-1.9,5.1H451.7z" />
	
	
	
</g><g><polygon points="469.4,283.2 469.4,266.4 471.7,266.4 480.8,279.6 480.8,266.4 483,266.4 483,283.2 480.6,283.2 471.6,270 471.6,283.2" /><polygon points="486.5,283.2 486.5,266.4 488.8,266.4 488.8,274.8 497.3,266.4 500.4,266.4 493.2,273.2 500.7,283.2 497.7,283.2 491.6,274.7 488.8,277.4 488.8,283.2" />
	
	
</g></svg>