<svg viewBox="0 0 1080.3 283.5" role="img" aria-labelledby="imperial-college-london--title" xmlns="http://www.w3.org/2000/svg" xmlns:xlink="http://www.w3.org/1999/xlink"><title id="imperial-college-london--title">Imperial College London</title><path d="M0,119.3V5.7h22.3v113.6C22.3,119.3,0,119.3,0,119.3z M55,47.7h0.3c5.4-7.3,15.6-11.5,25-11.5  c9.9,0,18.5,4.1,23.2,11.5c6.6-6.5,16.9-11.4,26.2-11.5c17.8-0.2,27.2,11,27.5,29.7v53.2h-21V69.8c0-9.4-3.2-19.1-13.6-19.1  c-10.1,0-16.4,6.2-16.4,20.3v48.4h-21V69.8c0-11.4-4.9-19.1-13.9-19.1c-10,0-16.1,7-16.1,20.8v47.9h-21V38.1H55  C55,38.1,55,47.7,55,47.7z M210,49.2c12,0,18,14,18,27.9c0,14.3-4.7,31.2-18.8,31.2c-11.4,0-19.4-11.5-19.4-28.6  C189.8,61,196.7,49.2,210,49.2z M189.8,38.1h-21v121.7h21v-50.6c5.9,7.2,14.1,12,23.7,12c22.6,0,36.8-22.9,36.8-44.3  c0-17.9-10.1-40.7-34.9-40.7c-9.5,0-19.7,4.9-25.3,13.1h-0.3L189.8,38.1L189.8,38.1z M280.4,69c-0.2-10.9,5.2-20.8,17.2-20.8  c10.4,0,14.7,8.4,13.9,20.8H280.4z M331.2,80.6c1.6-24.2-8.7-44.5-33.3-44.5c-22.6,0-40.3,15.9-40.3,40.9  c0,26.8,17.8,44.1,41.7,44.1c9,0,20.2-2.6,31-9.1l-6-11.4c-5.2,3.7-13.4,6.5-21.2,6.5c-13.1,0-23.5-11.4-23-26.6L331.2,80.6  L331.2,80.6z M362.2,52.4h0.3l4.3-6.3c2.5-3.4,7.1-9.9,13.6-9.9c4.7,0,9.8,2.6,14.2,7.3l-7.9,14.9c-3.5-1.8-5.7-2.8-10-2.8  c-7.3,0-14.4,6-14.4,23.5v40.1h-21V38.1h20.9C362.2,38.1,362.2,52.4,362.2,52.4z M422.2,38.1v81.1h-21V38.1H422.2z M399.3,13.8  c0-6.2,5.1-12.5,12.2-12.5c7.3,0,13,6.2,13,12.5c0,7-4.9,13.6-12.6,13.6C404.2,27.4,399.3,20.8,399.3,13.8z M479.3,72.2  c1.6,23.8-9.3,34.6-17.7,34.6c-5.1,0-9.5-4.9-9.5-12c0-9.2,5.2-15.4,15.5-18.7C467.6,76.1,479.3,72.2,479.3,72.2z M478.9,107.4  c0,4.4,0.5,9.1,2,11.8h22.3c-2.5-5.7-3.3-13.3-3.3-19.8v-33c0-25.3-17.8-30.2-32.4-30.2c-10.9,0-20.5,2.8-30.3,11l6.8,10.2  c5.5-4.9,11.9-8.3,20.9-8.3c6.8,0,13.3,4.7,14.4,12.2L460.6,67c-18.3,5.3-29.2,14.1-29.2,29.5c0,14.9,10.3,24.7,22.6,24.7  c7.3,0,14.4-5,20.2-9.7L478.9,107.4L478.9,107.4z M513.1,119.3V0h21v119.3H513.1z M672.7,26.3c-5.4-2.9-14.4-6.3-22.9-6.3  c-22.7,0-39.2,16.4-39.2,42.2c0,26.9,18.2,42.8,39.8,42.8c8.5,0,16.4-2.4,22.3-5.7l6.2,14.1c-6.8,4.1-18.6,7.8-29.4,7.8  c-38.4,0-62.6-26-62.6-59.4c0-31,24-58.1,62.9-58.1c11.5,0,22.3,4.2,29.9,8.8C679.7,12.5,672.7,26.3,672.7,26.3z" fill="#003C70"  /><path d="M720.5,109.2c-15,0-19.1-17.2-19.1-31.5c0-13.5,4.7-29.5,19.1-29.5c14.7,0,19.3,16.1,19.3,29.5  C739.8,92,735.8,109.2,720.5,109.2z M720.5,121.2c24.8,0,41.5-18.3,41.5-43.5c0-26.3-20.2-41.5-41.5-41.5  c-21.2,0-41.4,15.3-41.4,41.5C679.1,102.9,695.9,121.2,720.5,121.2z M771.1,119.3V0h21v119.3H771.1z M805.3,119.3V0h21v119.3H805.3z   M857.8,69c-0.2-10.9,5.2-20.8,17.2-20.8c10.4,0,14.7,8.4,13.9,20.8H857.8L857.8,69z M908.7,80.6c1.6-24.2-8.7-44.5-33.3-44.5  c-22.6,0-40.3,15.9-40.3,40.9c0,26.8,17.9,44.1,41.7,44.1c9,0,20.2-2.6,31-9.1l-6-11.4c-5.2,3.7-13.4,6.5-21.2,6.5  c-13.1,0-23.5-11.4-23.1-26.6L908.7,80.6L908.7,80.6z M1029.4,69c-0.2-10.9,5.2-20.8,17.2-20.8c10.4,0,14.7,8.4,13.9,20.8H1029.4z   M1080.2,80.6c1.6-24.2-8.7-44.5-33.3-44.5c-22.6,0-40.3,15.9-40.3,40.9c0,26.8,17.8,44.1,41.7,44.1c9,0,20.2-2.6,31-9.1l-6-11.4  c-5.2,3.7-13.4,6.5-21.2,6.5c-13.1,0-23.5-11.4-23.1-26.6L1080.2,80.6L1080.2,80.6z M957.8,49.2c12.6,0,19.1,13.1,19.1,27.3  c0,16.2-6,31.8-20.1,31.8c-12.2,0-18.1-15.3-18.1-31C938.7,61.5,944.2,49.2,957.8,49.2z M997.9,38.1h-21V48h-0.3  c-4.4-7.3-13.9-11.8-23.5-11.8c-21.5,0-36.6,20.4-36.6,41.5c0,26,13.7,43.5,34.8,43.5c12,0,20.2-6.8,25.4-13.6h0.3v10.7  c0,18.8-10.7,27.6-24.6,27.6c-10.7,0-19.7-2.1-27.5-7l-4.1,13.3c9.3,4.9,21.3,7.6,33.2,7.6c23.5,0,44.1-11.9,44.1-47.9V38.1H997.9z   M0,168h22.4v98.3h47.2v15.3H0V168z M192.9,210c7.5-7.8,17.9-11.5,28.4-11.5c19.4,0,28.8,10.4,28.8,30.8v52.2H229v-49.8  c0-11.4-5.2-18.8-16.6-18.8c-10.8,0-19.3,7-19.3,20.3v48.4H172v-81.1h20.9V210z M304.7,211.4c13.3,0,20.1,13.1,20.1,27.2  c0,16.2-6.3,31.8-21.1,31.8c-12.8,0-19.1-15.3-19.1-31S290.5,211.4,304.7,211.4z M324.9,281.5H346V162.3h-21.1v47.5h-0.3  c-5-7.2-14.6-11.4-25.4-11.4c-22.3,0-37.9,20.4-37.9,41.5c0,26,14.5,43.5,36.2,43.5c13,0,21.6-6.8,27.1-13.6h0.3V281.5L324.9,281.5z   M400.7,271.5c-15.8,0-20.1-17.2-20.1-31.5c0-13.5,5-29.5,20.1-29.5c15.5,0,20.3,16.1,20.3,29.5C421,254.3,416.9,271.5,400.7,271.5z   M400.7,283.5c26.1,0,43.7-18.3,43.7-43.5c0-26.3-21.3-41.5-43.7-41.5c-22.3,0-43.6,15.3-43.6,41.5  C357.3,265.1,374.9,283.5,400.7,283.5z M476.9,210c7.5-7.8,18-11.5,28.4-11.5c19.4,0,28.8,10.4,28.8,30.8v52.2h-21.2v-49.8  c0-11.4-5.2-18.8-16.6-18.8c-10.8,0-19.3,7-19.3,20.3v48.4h-21.1v-81.1h21V210z M116.4,271.5c-15.8,0-20.1-17.2-20.1-31.5  c0-13.5,5-29.5,20.1-29.5c15.5,0,20.3,16.1,20.3,29.5C136.7,254.3,132.5,271.5,116.4,271.5z M116.4,283.5  c26.1,0,43.7-18.3,43.7-43.5c0-26.3-21.3-41.5-43.7-41.5c-22.3,0-43.6,15.3-43.6,41.5C72.9,265.1,90.5,283.5,116.4,283.5z" fill="#003C70"  /></svg>