<svg xmlns="http://www.w3.org/2000/svg" width="921.2" height="283.5" viewBox="0 0 921.2 283.5"><path d="M46.1 69.1H39v47.4L11.1 69.1H2.9v59.5h7.5l-.3-47.5 28.3 47.5h7.7zM98.8 85.3h-7.5v34.1c-.7.7-1.9 1.3-3.9 1.9-2.6 1.3-5.2 1.6-7.5 1.6-2.6 0-4.5-.7-6.2-2.3-1-1-1.6-2.6-1.9-4.2-.3-1.3-.3-3.6-.3-6.8V85.3H64v25c0 4.2.3 7.1.7 8.8.7 2.6 1.6 4.9 3.6 6.8 2.3 2.3 5.9 3.6 10.4 3.6s9.1-1.3 13.3-4.2v3.3h6.8V85.3zM179.4 68.5c-1-1-1.9-1.3-3.3-1.3-1.3 0-2.3.3-3.3 1.3-1 .9-1.3 1.9-1.3 3.3s.3 2.3 1.3 3.3 1.9 1.3 3.3 1.3c1.3 0 2.3-.3 3.3-1.3s1.3-1.9 1.3-3.3-.3-2.4-1.3-3.3"/><path d="M180 128.6V85.3h-27.6v-5.2c0-4.2.7-6.8 1.9-8.5 1.6-1.3 3.3-1.9 5.9-1.9 2.3 0 4.5.7 6.2 1.9l2.9-5.2c-.7-.7-1.6-1-2.9-1.6-2.3-1.3-4.5-1.6-7.1-1.6-4.2 0-7.8 1.3-10.1 3.6-2.9 2.9-4.2 7.1-4.2 13.3v5.2h-19.8v-5.2c0-4.2.7-6.8 1.9-8.5 1.3-1.3 3.3-2.3 5.9-2.3 2.3 0 4.5.7 6.2 1.9l2.9-4.9c-.7-.7-1.6-1-2.9-1.6-2.3-1.3-4.9-1.6-7.1-1.6-4.2 0-7.8 1.3-10.1 3.6-2.9 2.9-4.2 7.1-4.2 13.3v5.2h-7.5v6.2h7.5v36.9h7.5V91.5h19.9v37.1h7.5V91.5h19.8v37.1h7.5zM222.3 103.2h-22.8c.3-3.9 1.6-6.8 3.9-9.4 2.3-2.3 5.2-3.6 8.5-3.6 3.6 0 6.5 1.6 8.1 4.5 1.7 2.3 2.3 5.3 2.3 8.5m7.2 2.6c0-6.8-1.6-12-4.9-16-3.3-3.9-7.5-5.9-13-5.9-5.9 0-10.7 1.9-14.6 6.2-3.6 4.2-5.5 9.7-5.5 16.6 0 6.5 1.6 12 5.2 16 3.6 4.2 8.8 6.2 15.3 6.2 5.9 0 11.1-1.6 15.6-4.5l-2.9-5.2c-4.5 2.3-8.5 3.3-12.4 3.3-4.5 0-7.8-1.3-10.4-4.2-2.3-2.6-3.3-5.9-3.3-9.7h29.9V107c1-.2 1-.8 1-1.2M241.5 64.2h7.5v64.4h-7.5z"/><g><path d="M292.9 119.5c-3.6 2.3-7.1 3.6-10.1 3.6-3.6 0-6.8-1.3-9.1-4.2-2.3-2.9-3.6-6.5-3.6-11.4 0-5.2 1.3-9.4 3.9-12.4 2.6-2.9 5.9-4.5 10.1-4.5 3.3 0 5.9 1 8.8 2.9v26zm7.4 9.1V64.2h-7.5v22.4c-2.9-1.6-5.9-2.6-9.4-2.6-6.2 0-11.1 2.3-15 6.5-3.9 4.2-5.9 9.7-5.9 16.9 0 6.5 1.6 11.7 5.2 16 3.6 4.2 8.1 6.2 14 6.2 4.5 0 8.8-1.3 12-4.2v3.3l6.6-.1zM380 98.4c0 7.8-1.9 13.6-5.9 17.9-2.6 2.6-5.5 4.2-9.1 5.2-2.6.7-6.2 1-10.4 1h-7.5V75.6h5.2c5.9 0 10.1.3 12.7 1 3.6.7 6.5 2.3 8.8 4.9 3.9 3.8 6.2 9.7 6.2 16.9m8.1 0c0-8.8-2.9-16.2-8.5-21.8-3.3-3.3-7.1-5.5-12-6.5-3.3-.7-8.5-1.3-15.3-1.3h-13v59.5h13c6.5 0 11.7-.3 15-1.3 4.9-1.3 9.1-3.6 12.4-6.8 5.5-5.3 8.4-12.8 8.4-21.8M426.8 103.2H404c.3-3.9 1.6-6.8 3.9-9.4 2.3-2.3 5.2-3.6 8.5-3.6 3.6 0 6.5 1.6 8.1 4.5 1.6 2.3 2.3 5.3 2.3 8.5m7.5 2.6c0-6.8-1.6-12-4.9-16-3.3-3.9-7.5-5.9-13-5.9-5.9 0-10.7 1.9-14.6 6.2-3.6 4.2-5.5 9.7-5.5 16.6 0 6.5 1.6 12 5.2 16 3.6 4.2 8.8 6.2 15.3 6.2 5.9 0 11.1-1.6 15.6-4.5l-2.9-5.2c-4.5 2.3-8.5 3.3-12.4 3.3-4.5 0-7.8-1.3-10.4-4.2-2.3-2.6-3.3-5.9-3.3-9.7h29.9V107c1-.2 1-.8 1-1.2M477.8 106.2c0 5.2-1.3 9.4-3.9 12.4-2.6 2.9-5.9 4.5-10.1 4.5-3.3 0-5.9-1-8.8-2.9v-26c3.6-2.6 6.8-3.9 10.1-3.9 3.6 0 6.8 1.3 9.1 4.2 2.3 3.5 3.6 7.1 3.6 11.7m7.8 0c0-6.5-1.6-11.7-5.2-16-3.6-4.2-8.1-6.2-14-6.2-4.5 0-8.8 1.3-12 4.2V85h-6.8v62.7h7.5v-20.8c2.9 1.6 5.9 2.6 9.4 2.6 6.2 0 11.1-2.3 15-6.5 3.8-4.2 6.1-9.7 6.1-16.8M522.6 120.1c-4.2 2.3-7.8 3.3-10.7 3.3-2.6 0-4.9-.7-6.2-1.9-1.6-1.3-2.3-3.3-2.3-5.2s.7-3.6 1.9-4.9c2.6-2.6 7.5-3.9 15.3-3.9h2.3v12.7l-.3-.1zm7.5 8.5v-27c0-3.3-.3-5.9-.7-7.5-.3-2.3-1.3-3.9-2.9-5.5-2.9-2.9-7.1-4.2-12.4-4.2-3.9 0-7.5.7-11.1 1.9-1.9 1-3.6 1.6-4.2 2.3l2.9 5.2c3.9-2.3 7.8-3.3 11.7-3.3 3.6 0 6.2.7 7.5 2.3 1.3 1.3 1.6 3.3 1.6 6.2v2.9h-1.9c-16.2 0-24.7 4.9-24.7 14.6 0 3.9 1.3 7.1 3.9 9.7 2.6 2.6 5.9 3.6 10.1 3.6 4.2 0 8.5-1.3 13.3-4.2v3.3h6.8l.1-.3zM565.6 84.3c-3.6 0-7.1 1-10.1 3.3-1.6 1-2.9 2.3-3.9 3.6v-5.9h-6.8v43.3h7.5V98c3.6-4.5 7.8-7.1 12.7-7.1 1 0 2.3 0 3.3.3l1.6-6.2c-1.1-.3-2.7-.7-4.3-.7M601 122.1c-2.6.7-4.5 1.3-5.9 1.3-2.6 0-4.5-1-5.5-2.6-.7-1-1-2.9-1-5.9V91.5h13.3v-6.2h-13.3v-12h-7.5v12h-7.5v6.2h7.5v22.1c0 3.6 0 5.9.3 7.1.3 2.3 1.3 4.2 2.6 5.5 2.3 2.3 5.5 3.3 9.7 3.3 3.3 0 6.5-.7 9.4-2.3l-2.1-5.1zM672.8 103.6c0-3.9-.3-6.8-.7-8.8-.7-2.6-1.9-4.9-3.6-6.8-2.6-2.6-5.9-3.9-10.4-3.9s-9.7 1.6-15 4.9c-2.6-3.3-6.2-4.9-10.7-4.9-4.5 0-8.8 1.3-13.3 4.2V85h-6.8v43.3h7.5V94.1c3.6-2.3 7.1-3.6 11.1-3.6 2.3 0 4.2.7 5.5 1.9 1 1 1.6 2.6 1.9 4.9.3 1.3.3 3.6.3 7.1v23.7h7.5v-24c0-5.5-.3-9.1-.7-10.1 3.9-2.3 7.8-3.6 11.4-3.6 2.6 0 4.5.7 5.9 2.3 1.3 1.6 1.9 4.9 1.9 10.4v25.4h7.5v-25h.7zM717.6 103.2h-22.8c.3-3.9 1.6-6.8 3.9-9.4 2.3-2.3 5.2-3.6 8.5-3.6 3.6 0 6.5 1.6 8.1 4.5 1.7 2.3 2.3 5.3 2.3 8.5m7.5 2.6c0-6.8-1.6-12-4.9-16-3.3-3.9-7.5-5.9-13-5.9-5.9 0-10.7 1.9-14.6 6.2-3.6 4.2-5.5 9.7-5.5 16.6 0 6.5 1.6 12 5.2 16 3.6 4.2 8.8 6.2 15.3 6.2 5.9 0 11.1-1.6 15.6-4.5l-2.9-5.2c-4.5 2.3-8.5 3.3-12.4 3.3-4.5 0-7.8-1.3-10.4-4.2-2.3-2.6-3.3-5.9-3.3-9.7h29.9V107c1-.2 1-.8 1-1.2M773.3 103.6c0-3.9-.3-6.8-.7-8.8-.7-2.6-1.9-4.9-3.6-6.8-2.6-2.6-5.9-3.9-10.4-3.9s-9.1 1.3-13.3 4.2V85h-6.8v43.3h7.5V94.5c.7-.7 1.9-1.3 3.9-1.9 2.6-1.3 5.2-1.6 7.5-1.6 2.6 0 4.5.7 6.2 2.3 1 1 1.6 2.6 1.9 4.2.3 1.3.3 3.6.3 6.8v24.4h7.5v-25.1zM809.6 122.1c-2.6.7-4.5 1.3-5.9 1.3-2.6 0-4.5-1-5.5-2.6-.7-1-1-2.9-1-5.9V91.5h13.3v-6.2h-13.3v-12h-7.5v12h-7.5v6.2h7.5v22.1c0 3.6 0 5.9.3 7.1.3 2.3 1.3 4.2 2.6 5.5 2.3 2.3 5.5 3.3 9.7 3.3 3.3 0 6.5-.7 9.4-2.3l-2.1-5.1zM874.3 107.1c0 4.9-1 8.8-3.3 11.7-2.3 2.9-5.2 4.2-9.4 4.2-3.9 0-6.8-1.6-9.4-4.5-2.3-2.9-3.6-7.1-3.6-12s1.3-8.8 3.6-11.7c2.3-2.9 5.2-4.5 9.1-4.5 3.9 0 6.8 1.6 9.1 4.5 2.7 3.2 3.9 7.4 3.9 12.3m7.5 0c0-6.8-1.9-12.4-5.5-16.6-3.6-4.2-8.5-6.2-14.6-6.2s-11.4 1.9-15 6.2c-3.9 4.2-5.5 9.7-5.5 16.6s1.9 12.4 5.5 16.2c3.6 4.2 8.5 6.2 14.6 6.2s11.4-1.9 15-6.2c3.6-4.2 5.5-9.7 5.5-16.2M918.2 64.5c-2.3-1-4.5-1.3-7.1-1.3-4.2 0-7.8 1.3-10.1 3.6-2.9 2.9-4.2 7.1-4.2 13.3v5.2h-7.5v6.2h7.5v37h7.5v-37h13.3v-6.2h-13.3v-5.2c0-4.2.7-6.8 1.9-8.5 1.3-1.7 3.3-2.3 5.9-2.3 2.3 0 4.5.7 6.2 1.9l2.9-5.2c-.4-.2-1.3-.8-3-1.5M907.2 152.6h-8.8v27.6h-30.6v-27.6H859v66h8.8v-30.9H898v30.9h8.8v-66h.4zm-60.2 0h-47.5v7.5H819v58.8h8.8v-59.1H847v-7.2zm-40.6 58.5h-27.3v-58.5h-8.8v66h36.4v-7.5h-.3zm-88.8-17.2l11.1-32.2 11.1 32.2h-22.2zm16-41.3h-9.4l-24 66h8.8l6.2-17.2h27.3l6.2 17.2h9.4l-24.5-66zm-40 58.5H665v-23.4h26v-7.1h-26v-20.8h28v-7.5h-36.4v66H694v-7.1h-.4zm-55.9-58.5H629v27.6h-30.3v-27.6h-8.8v66h8.8v-30.9h30.2v30.9h8.8v-66zm-92.6 0H537l.3 52.7-31.2-52.7h-8.8v66h8.1l-.3-52.7 31.2 52.7h8.8v-66zm-75.5 51.7c-3.9 5.2-9.1 7.8-15.6 7.8-6.2 0-11.4-2.6-15.3-7.5s-6.2-11.4-6.2-19.2c0-8.1 1.9-14.6 5.9-19.5 3.9-4.9 8.8-7.5 15-7.5 6.2 0 11.4 2.3 15.6 7.1 3.9 4.9 5.9 11.1 5.9 18.8 0 8.7-1.7 15.1-5.3 20m5.9-43.5c-5.5-6.2-12.7-9.4-21.4-9.4-9.1 0-16.2 3.3-22.1 9.7-5.5 6.5-8.5 14.6-8.5 24.7s2.9 18.2 8.5 24.7 12.7 9.7 21.4 9.7c9.1 0 16.2-3.3 21.8-9.7 5.5-6.5 8.5-14.6 8.5-25 .3-10.4-2.6-18.6-8.2-24.7m-67.3-8.2h-8.8v66h8.8v-66zm-21.7 0h-47.8v7.5h19.5v58.8h8.8v-59.1h19.2v-7.1h.3v-.1zm-81.6 41.3l11.1-32.2 11.1 32.2h-22.2zm15.9-41.3h-9.4l-24 66h8.8l6.2-17.2h27.3l6.2 17.2h9.4l-24.5-66zm-37.1 58.5h-27.3v-58.5h-8.8v66H284v-7.5h-.3zm-54.2-58.5h-8.8v35.1c0 6.8 0 11.1-.3 13-.3 3.3-1.6 5.9-3.6 7.8-2.6 2.6-6.2 3.9-11.1 3.9s-8.8-1.3-11.7-4.2c-1.6-1.6-2.9-3.9-3.3-6.5-.3-1.3-.3-3.9-.3-7.5v-41.6h-8.8v40.7c0 4.5.3 8.1.7 10.1.7 3.9 2.6 7.1 5.2 9.7 4.5 4.5 10.7 6.8 18.2 6.8 7.8 0 13.6-2.3 17.9-6.5 2.9-2.9 4.5-6.5 5.2-11.4.3-2.6.7-7.8.7-16v-33.4zm-76.1 28.9c-1.6 1.6-3.9 2.6-6.8 2.9-1.6.3-4.5.3-9.4.3h-4.5V159h7.1c7.1 0 11.7 1 13.6 2.9 2.6 2.6 3.6 5.5 3.6 9.4.3 4.7-1 8-3.6 10.2m7.2-23.7c-2.3-2.3-5.2-3.9-8.8-4.5-2.6-.7-6.2-.7-11.1-.7h-16.6v66h8.8v-26.3h4.5c6.2 0 10.7-.3 12.7-.7 4.2-.7 7.5-2.6 10.4-5.2 3.6-3.6 5.5-8.5 5.5-14.3.1-5.8-1.8-10.7-5.4-14.3m-63.1 46.5c-3.9 5.2-9.1 7.8-15.6 7.8-6.2 0-11.4-2.6-15.3-7.5-3.9-4.9-6.2-11.4-6.2-19.2 0-8.1 1.9-14.6 5.9-19.5 3.9-4.9 8.8-7.5 15-7.5 6.2 0 11.4 2.3 15.6 7.1 3.9 4.9 5.9 11.1 5.9 18.8-.1 8.7-1.7 15.1-5.3 20m5.8-43.5c-5.5-6.2-12.7-9.4-21.4-9.4-9.1 0-16.2 3.3-22.1 9.7-5.5 6.5-8.5 14.6-8.5 24.7s2.9 18.2 8.5 24.7 12.7 9.7 21.4 9.7c9.1 0 16.2-3.3 21.8-9.7 5.5-6.5 8.5-14.6 8.5-25 .3-10.4-2.6-18.6-8.2-24.7m-74.1 20.7c-1.6 1.6-3.9 2.6-6.8 2.9-1.6.3-4.5.3-9.4.3H8.8V159H16c7.1 0 11.7 1 13.6 2.9 2.6 2.6 3.6 5.5 3.6 9.4 0 4.7-1.4 8-4 10.2m7.2-23.7c-2.3-2.3-5.2-3.9-8.8-4.5-2.6-.7-6.2-.7-11.1-.7H0v66h8.8v-26.3h4.5c6.2 0 10.7-.3 12.7-.7 4.2-.7 7.5-2.6 10.4-5.2 3.6-3.6 5.5-8.5 5.5-14.3 0-5.8-1.6-10.7-5.5-14.3"/></g></svg>