<svg viewBox="0 0 925.6 283.5" role="img" aria-labelledby="nhs-manchester-university--title" xmlns="http://www.w3.org/2000/svg" xmlns:xlink="http://www.w3.org/1999/xlink"><title id="nhs-manchester-university--title">NHS Manchester University - NHS Foundation Trust</title><rect width="302" height="121.6" fill="#FFFFFF"  /><path d="M302,121.6V0H0v121.6H302z M121.5,11.7l-20.9,97.9H67.9L47.3,41.9H47l-13.7,67.7H8.6l21-97.9h32.8l20.2,67.9  h0.3l13.8-67.9H121.5z M215,11.7l-20.4,97.9h-26.4l8.7-41.9h-31.2l-8.7,41.9h-26.3l20.4-97.9h26.4l-7.7,37.4h31.1l7.8-37.4H215z   M290.7,14.4l-6.3,19.5c-6.8-3.1-14.2-4.6-21.7-4.5c-10.4,0-18.9,1.5-18.9,9.4c0,13.9,38.2,8.7,38.2,38.4  c0,27.1-25.2,34.1-48.1,34.1c-10.3-0.3-20.6-2-30.4-5.1l6.2-19.9c5.2,3.4,15.6,5.6,24.2,5.6c8.2,0,21-1.5,21-11.6  c0-15.7-38.2-9.9-38.2-37.4c0-25.2,22.3-32.8,43.8-32.8C272.7,10.1,284.1,11.3,290.7,14.4L290.7,14.4z" fill="#005EB8"  /><path d="M18.2,153.9l14.7,42.2c1,3.3,1.5,6.7,1.7,10.1c0.1-3.4,0.7-6.8,1.7-10.1l15.3-42.2h18v60.7H58.1v-44.8  c0-3.6,0.3-7.3,0.8-10.9c-1.1,4.8-2,7.8-2.4,8.8l-17,46.9H28.9l-16.6-46.5c-1-3-1.8-6.1-2.3-9.3c0.4,5.7,0.7,9.4,0.7,10.9v44.8H0.1  v-60.7H18.2z M119.8,214.6h-10.1l-0.2-7.2c-3.2,5.2-8.9,8.4-15.1,8.3c-9.1,0-14.9-6-14.9-14c0-9.8,7.8-14.8,23.4-14.8h5.9v-0.6  c0-6.1-4-9.6-10.9-9.6c-4.5,0.1-8.8,1.4-12.7,3.6l-0.2-8.1c4.9-2.1,10.2-3.1,15.6-3.2c13.4,0,19.2,6.3,19.2,20.2L119.8,214.6z   M90.8,201.2c0,3.8,2.8,6.6,7.3,6.6c6,0,10.8-4.6,10.8-11.9v-2.4h-4C95.4,193.5,90.8,196.1,90.8,201.2z M174.3,214.6h-11.5v-23.9  c0-8.1-2.7-12-8.8-12s-10.4,5-10.4,13.9v22.1h-11.4v-44.4h10.4v8.1c3-5.9,9.2-9.5,15.8-9.2c10.3,0,15.8,6.5,15.8,19.1L174.3,214.6z   M218.9,180.4c-2.8-1.3-5.9-2-8.9-2.3c-8.8,0-14.3,6-14.3,14.3s5.6,14.5,14.1,14.5c3.5-0.1,6.8-1.1,9.8-2.9l0.4,9.1  c-4,1.6-8.2,2.5-12.4,2.7c-14.6,0-23.8-9.5-23.8-23.8c0-12.9,9.6-22.9,23.8-22.9c4.2,0.2,8.3,1,12.3,2.3L218.9,180.4z M241,149.2  V177c3.1-5.1,8.8-8.1,14.8-7.8c10.3,0,15.8,6.5,15.8,19.1v26.4h-11.5v-23.9c0-8.1-2.7-12-8.8-12s-10.4,5-10.4,13.9v22.1h-11.4v-65.5  H241z M323.5,195.6h-31.3c0.6,7.4,6,12.1,14.5,12.1c4.6,0,9-1.1,13-3.2v8.8c-4.8,1.8-9.9,2.7-15.1,2.6c-14.8,0-23.7-9-23.7-24.1  c0-13.5,8.9-22.6,22.1-22.6s20.4,8.5,20.4,22.9L323.5,195.6z M303,176.6c-5.8,0-9.9,4.3-10.8,11.9h20.9  C312.5,180.9,308.6,176.6,303,176.6L303,176.6z M359.7,180.1c-3.5-1.9-7.5-3-11.5-3.1c-4.2,0-6.4,1.5-6.4,4c0,3.2,3.2,4.4,8.1,6.6  c8.3,3.7,12.5,7,12.5,13.7c0,8.2-6.9,13.7-18.8,13.7c-4.7,0-9.3-0.7-13.7-2.3l0.6-8.8c4.1,2,8.5,3.1,13,3.2c4.6,0,7.1-1.7,7.1-4.3  c0-3.4-3.4-5-9-7.8c-7.1-3.5-11.2-6.5-11.2-12.8c0-7.4,6.8-13.2,18-13.2c4.2,0.2,8.3,1.1,12.2,2.5L359.7,180.1z M387.6,170.3h10.7  v8.5h-10.7v19.4c0,6.4,1.7,9.3,6.6,9.3c1.5,0,3-0.3,4.4-0.8l0.2,8.1c-2.6,0.6-5.2,1-7.9,1c-10.8,0-14.7-5.1-14.7-16.8v-20.2h-8.8  v-8.5h9.3v-10.8l10.9-3.7L387.6,170.3z M446.9,195.6h-31.3c0.6,7.4,6,12.1,14.5,12.1c4.6,0,9-1.1,13-3.2v8.8  c-4.8,1.8-9.9,2.7-15.1,2.6c-14.8,0-23.7-9-23.7-24.1c0-13.5,8.9-22.6,22.1-22.6c13.1,0,20.4,8.5,20.4,22.9L446.9,195.6z   M426.4,176.6c-5.8,0-9.9,4.3-10.8,11.9h20.9C435.9,180.9,432.1,176.6,426.4,176.6z M482.7,179.9c-1.3-0.4-2.6-0.6-3.9-0.6  c-7.4,0-11.6,5-11.6,14.6v20.7h-11.4v-44.3H466v8.8c2.8-6.6,7.2-9.9,13.1-9.9c1.3,0,2.6,0.2,3.9,0.4L482.7,179.9z M528.1,153.9v35.6  c0,11.6,3.7,17.1,12.3,17.1c8.6,0,12.9-5.9,12.9-17.5v-35.2h11.3v35.3c0,17.8-8.1,26.7-24.3,26.7c-15.8,0-24.1-8.8-24.1-26.2v-35.8  L528.1,153.9z M620.1,214.6h-11.5v-23.9c0-8.1-2.7-12-8.8-12s-10.4,5-10.4,13.9v22.1h-11.4v-44.4h10.4v8.1c3-5.9,9.2-9.5,15.8-9.2  c10.3,0,15.8,6.5,15.8,19.1L620.1,214.6z M644,150.4v11h-11.7v-11H644z M643.8,170.3v44.3h-11.4v-44.3H643.8z M663.6,170.3  l10.6,34.1l10.9-34.2h11.4l-16.1,44.3h-13.1l-15.8-44.4L663.6,170.3z M742.5,195.6h-31.3c0.6,7.4,6,12.1,14.5,12.1  c4.6,0,9-1.1,13-3.2v8.8c-4.8,1.8-9.9,2.7-15.1,2.6c-14.8,0-23.7-9-23.7-24.1c0-13.5,8.9-22.6,22.1-22.6s20.4,8.5,20.4,22.9  L742.5,195.6z M722,176.6c-5.8,0-9.9,4.3-10.8,11.9h20.9C731.6,180.9,727.7,176.6,722,176.6z M778.3,179.9c-1.3-0.4-2.6-0.6-3.9-0.6  c-7.4,0-11.6,5-11.6,14.6v20.7h-11.4v-44.3h10.2v8.8c2.8-6.6,7.2-9.9,13.1-9.9c1.3,0,2.6,0.2,3.9,0.4L778.3,179.9z M813.4,180.1  c-3.5-1.9-7.5-3-11.5-3.1c-4.2,0-6.4,1.5-6.4,4c0,3.2,3.2,4.4,8.1,6.6c8.3,3.7,12.5,7,12.5,13.7c0,8.2-6.9,13.7-18.8,13.7  c-4.7,0-9.3-0.7-13.7-2.3l0.6-8.8c4.1,2,8.5,3.1,13,3.2c4.6,0,7.1-1.7,7.1-4.3c0-3.4-3.4-5-9-7.8c-7.1-3.5-11.2-6.5-11.2-12.8  c0-7.4,6.8-13.2,18-13.2c4.2,0.2,8.3,1.1,12.2,2.5L813.4,180.1z M837.4,150.4v11h-11.7v-11H837.4z M837.2,170.3v44.3h-11.4v-44.3  H837.2z M865.6,170.3h10.7v8.5h-10.7v19.4c0,6.4,1.7,9.3,6.6,9.3c1.5,0,3-0.3,4.4-0.8l0.2,7.9c-2.6,0.6-5.2,1-7.9,1  c-10.8,0-14.7-5.1-14.7-16.8v-20.1h-8.8v-8.5h9.3v-10.8l10.9-3.7L865.6,170.3z M892.3,170.3l11,33.9l10.8-33.9h11.5l-17.5,46.4  c-4.4,11.7-8.9,17.1-18.9,17.1c-2.2-0.1-4.3-0.3-6.5-0.7l1-8.9c1.2,0.4,2.4,0.6,3.7,0.6c4.6,0,7.4-2.6,10.2-8.5l-17.5-46  L892.3,170.3z" fill="#231F20"  /><path d="M9.6,244l14.1,26.9c1,2.3,1.9,4.6,2.5,7c-0.5-2.9-0.9-5.9-0.9-8.8v-25h6.8v38.5h-9.3L8.2,255  c-1-2.1-1.8-4.4-2.3-6.7c0.7,5,1,8,1,9.2v24.9H0.1V244H9.6z M48.3,244v15.6h14.9V244h7.6v38.5h-7.6v-17H48.3v17h-7.6V244H48.3z   M101.2,251.1c-2.7-1.2-5.6-1.9-8.5-1.9c-4.2,0-6.5,1.7-6.5,4.3s2.6,3.8,7.1,6.1c6.4,3.3,10,6.1,10,11.9c0,6.8-5.5,12.1-14.7,12.1  c-3.5-0.3-6.9-1.1-10.2-2.3l0.7-6.6c2.9,1.6,6.1,2.6,9.5,2.8c4.4,0,6.8-2.3,6.8-5c0-3-2.7-4.3-6.8-6.5c-2.7-1.2-5.1-2.8-7.2-4.8  c-1.8-1.9-2.7-4.4-2.7-7c0-6.2,5.1-10.9,14.1-10.9c3.1,0.2,6.1,0.8,9.1,1.8L101.2,251.1z M149.1,244v5.6h-14.7v10.5h14.1v5.7h-14.1  v16.7h-7.6V244H149.1z M181.8,268.4c0,9.2-5.7,14.8-14.9,14.8c-9.2,0-14.9-5.6-14.9-14.8s5.6-14.7,14.9-14.7  C176.2,253.7,181.8,259.2,181.8,268.4L181.8,268.4z M159.5,268.4c0,5.8,3.1,9.4,7.4,9.4c4.3,0,7.4-3.6,7.4-9.4s-3-9.5-7.4-9.5  C162.6,259,159.5,262.6,159.5,268.4L159.5,268.4z M195,254.4v14.9c0,5.1,1.7,7.6,5.5,7.6c4.2,0,6.6-3.4,6.6-10v-12.5h7.3v28.1h-6.6  v-5.4c-1.9,3.7-5.8,6-10,5.8c-6.5,0-10.1-4.1-10.1-12.1v-16.4L195,254.4z M249.3,282.5h-7.2v-15.3c0-5.1-1.7-7.6-5.5-7.6  s-6.6,3.2-6.6,8.8v14h-7.2v-28.1h6.6v5.1c1.9-3.7,5.8-6,10-5.8c6.5,0,10,4.1,10,12.1L249.3,282.5z M284,241.1v41.5h-6.5v-5.7  c-1.9,3.8-5.9,6.2-10.2,6.1c-6.7,0-11.9-5.9-11.9-14.9c0-8.8,4.9-14.3,11.7-14.3c3.8-0.2,7.5,1.7,9.6,4.9v-17.6L284,241.1z   M263,268.3c0,5.8,2.7,9.1,6.8,9.1c4.1,0,7-3.4,7-9.1s-2.8-9.2-7.1-9.2C265.9,259.1,263,262.6,263,268.3z M315.7,282.5h-6.4  l-0.1-4.5c-2,3.3-5.6,5.3-9.5,5.3c-5.8,0-9.4-3.8-9.4-8.9c0-6.2,4.9-9.4,14.8-9.4h3.7v-0.4c0-3.9-2.5-6-6.9-6  c-2.8,0.1-5.6,0.9-8,2.3l-0.1-5.1c3.1-1.3,6.5-2,9.9-2c8.5,0,12.1,4,12.1,12.8V282.5z M297.4,274c0,2.3,1.9,4.2,4.2,4.2  c0.1,0,0.3,0,0.4,0c3.8,0,6.8-2.9,6.8-7.5v-1.5h-2.5C300.3,269.1,297.4,270.8,297.4,274L297.4,274z M333.2,254.4h6.8v5.3h-6.8V272  c0,4,1.1,5.9,4.2,5.9c0.9,0,1.9-0.2,2.8-0.5l0.1,5.1c-1.6,0.4-3.3,0.6-5,0.6c-6.8,0-9.3-3.2-9.3-10.6v-12.7h-5.5v-5.3h5.9v-6.8  l6.9-2.3L333.2,254.4z M353,241.8v7h-7.4v-7H353z M352.9,254.4v28.1h-7.2v-28.1L352.9,254.4z M389.2,268.4c0,9.2-5.7,14.8-14.9,14.8  s-14.9-5.6-14.9-14.8s5.6-14.7,14.9-14.7S389.2,259.2,389.2,268.4L389.2,268.4z M366.9,268.4c0,5.8,3.1,9.4,7.4,9.4s7.4-3.6,7.4-9.4  s-3-9.5-7.4-9.5C369.9,259,366.9,262.6,366.9,268.4L366.9,268.4z M422.3,282.5H415v-15.3c0-5.1-1.7-7.6-5.5-7.6s-6.6,3.2-6.6,8.8v14  h-7.2v-28.1h6.6v5.1c1.9-3.7,5.8-6,10-5.8c6.5,0,10,4.1,10,12.1L422.3,282.5z M470.9,244v5.9h-10.2v32.5h-7.7V250h-10.2v-5.9  L470.9,244z M487.8,260.5c-0.8-0.3-1.6-0.4-2.5-0.4c-4.7,0-7.3,3.2-7.3,9.2v13.2h-7.2v-28.1h6.5v5.6c1.7-4.2,4.5-6.3,8.3-6.3  c0.8,0,1.7,0.1,2.5,0.3L487.8,260.5z M499.3,254.4v14.9c0,5.1,1.7,7.6,5.5,7.6c4.2,0,6.6-3.4,6.6-10v-12.5h7.3v28.1h-6.6v-5.4  c-1.9,3.7-5.8,6-10,5.8c-6.5,0-10.1-4.1-10.1-12.1v-16.4L499.3,254.4z M544.4,260.6c-2.2-1.2-4.7-1.9-7.3-1.9c-2.7,0-4,0.9-4,2.5  c0,2.1,2.1,2.8,5.1,4.2c5.3,2.3,7.9,4.4,7.9,8.7c0,5.2-4.4,8.7-11.9,8.7c-3,0-5.9-0.5-8.7-1.4l0.4-5.5c2.6,1.3,5.4,2,8.2,2  c2.9,0,4.5-1.1,4.5-2.7c0-2.1-2.2-3.2-5.7-4.9c-4.5-2.2-7.1-4.1-7.1-8.1c0-4.7,4.3-8.4,11.4-8.4c2.6,0.2,5.2,0.7,7.7,1.6  L544.4,260.6z M562,254.4h6.8v5.3H562V272c0,4,1.1,5.9,4.2,5.9c0.9,0,1.9-0.2,2.8-0.5l0.1,5.1c-1.6,0.4-3.3,0.6-5,0.6  c-6.8,0-9.3-3.2-9.3-10.6v-12.7h-5.5v-5.3h5.9v-6.8l6.9-2.3L562,254.4z" fill="#005EB8"  /></svg>