<svg viewBox="0 0 186 283.5" role="img" aria-labelledby="react--title" xmlns="http://www.w3.org/2000/svg" xmlns:xlink="http://www.w3.org/1999/xlink"><title id="react--title">REACT</title><path d="M7.9,30.8V50h-7V2.8h10.3c3,0,5.4,0.2,7.1,0.6c1.7,0.4,3.1,1.1,4.3,2C24,6.6,25,8,25.8,9.8  c0.8,1.8,1.2,3.8,1.2,5.9c0,3.8-0.9,8-2.6,10.1c-1.8,2.1-4.4,3.4-7.8,3.9l15,20.3h-8.4L9.3,30.8H7.9z M7.8,24.5h1.4  c4.1,0,6.8-0.5,8.2-1.5c1.3-1,2.9-3.3,2.9-6.4s-1.6-4.6-3-5.7c-1.4-1.1-4.1-1.6-8-1.6H7.8V24.5z M38.4,50V2.8h26.3v6.5H45.9v11.8  h18.2v6.7H45.9v15.3h18.8V50H38.4z M174.9,9.3V50h-6.8V9.3H157V2.8h29v6.5H174.9z M106.5,50h8.2l-23-50L68.6,50h8.1l5.1-11.4h19.7  L106.5,50z M91.9,15.9l7,15.9l-14.2-0.1C84.7,31.7,91.9,15.9,91.9,15.9z M153.3,38.6c-2,1.6-4.1,2.9-6.2,3.8c-2.4,1-5,1.5-7.7,1.5  c-4.6,0-8.4-1.6-11.5-4.9c-3-3.3-4.5-7.5-4.5-12.5c0-5.2,1.6-9.5,4.7-12.8c3.1-3.3,7.1-4.9,12.1-4.9c2.6,0,5,0.5,7.3,1.4  c2,0.8,3.9,1.9,5.8,3.4V5.7c-1.9-1.2-3.8-2.1-5.8-2.8c-2.4-0.8-5-1.2-7.6-1.2c-3.4,0-6.5,0.6-9.5,1.8c-2.9,1.2-5.5,2.9-7.8,5.2  c-2.3,2.3-4,4.9-5.2,8c-1.2,3-1.8,6.2-1.8,9.7c0,3.4,0.6,6.7,1.8,9.7c1.2,3,2.9,5.7,5.1,7.9c2.2,2.3,4.8,4,7.8,5.2  c2.9,1.2,6.2,1.8,9.6,1.8c2.7,0,5.3-0.4,7.6-1.1c2-0.6,3.9-1.6,5.7-2.8L153.3,38.6L153.3,38.6z M32.3,220l14.3-22  c-12.6-11.2-20.5-27.5-20.5-45.7c0-33.8,27.4-61.3,61.3-61.3c33.8,0,61.3,27.4,61.3,61.3c0,18.2-7.9,34.5-20.5,45.7l14.1,21.8  c19.5-16,32-40.3,32-67.5c0-48.1-39-87.2-87.2-87.2S0,104.2,0,152.3C0,179.7,12.6,204.1,32.3,220z" fill="#1176BC"  /><path d="M80.2,146.2l7.1-11l7.1,11l19.7,30.3c5.7-6.4,9.2-14.9,9.2-24.2c0-20-16.2-36.2-36.2-36.2  s-36.2,16.2-36.2,36.2c0,9.4,3.6,18,9.5,24.4C60.4,176.7,80.2,146.2,80.2,146.2z" fill="#1176BC"  /><path d="M87.4,150.9l86.1,132.6l-86.1-44.3L1.3,283.5" fill="#1176BC"  /></svg>