<svg viewBox="0 0 616.5 283.5" role="img" aria-labelledby="sands--title" xmlns="http://www.w3.org/2000/svg" xmlns:xlink="http://www.w3.org/1999/xlink"><title id="sands--title">SANDS - Stillbirth and Neonatal Death Charity</title><path d="M85.4,187.9c0-37.9-56-36.6-56-59.2c0-8.1,8.2-12.4,18.7-12.4c10.6,0,20.2,3.3,30.2,8.5l0.4-20  c-7.1-3.7-18.1-6.8-31.8-6.8c-27.1,0-42.2,15.3-42.2,33.5c0,9.4,3.3,16.5,8.4,21.8c15.7,16.6,47.1,19.8,47.1,37.2  c0,10.2-11.4,14.1-21.4,14.1c-12.2,0-22.2-4.6-29.3-9.2L0,211.8c8.6,5.5,21.6,11.1,39.9,11.1C65.4,222.9,85.4,209.4,85.4,187.9   M373.7,156.3c0-5.2,4.8-7.6,12.4-7.6c9.4,0,17.4,2.8,24.8,5.7V136c-7.2-2.8-16.1-4.4-25.5-4.4c-21.1,0-33.1,10.7-33.1,25.9  c0,29.8,40.4,23.9,40.4,39.6c0,5.9-5.9,9.2-15,9.2c-8.7,0-17-3.3-23.5-7.8l-7.2,16.3c7.2,4.5,18,8.1,32.4,8.1  c18.9,0,35.5-7.6,35.5-27.2C414.7,165.6,373.7,170.2,373.7,156.3 M230.8,221.1h22.2V163c0-23.5-14.3-31.4-27.6-31.4  c-11.5,0-20.7,4.2-29.8,10.8v-8.8h-22.2v87.5h22.2v-61.2c6.9-5.2,14.4-9.2,22.2-9.2c11.3,0,13,10,13,19.1L230.8,221.1 M130.4,131.5  c-11.7,0-22.6,1.8-34.2,9.6l7.2,13.9c5.5-3.3,13-6.5,22-6.5c9.8,0,17.2,4.1,17.2,14.8v2.2l-15.5,0.6c-22.4,0.7-36.7,10.5-36.7,28.7  c0,17.2,12.6,28.1,28.7,28.1c10.7,0,18.3-3.7,23.9-8.4v6.5h22.2v-57.7C165.2,140.4,152,131.5,130.4,131.5 M142.6,199.8  c-3,2.6-8,5.5-15.7,5.5c-9.3,0-14.3-5-14.3-12.2c0-7.4,5.4-11.5,17.4-11.8l12.6-0.4L142.6,199.8L142.6,199.8z M341.4,215.9V103.6  c0-6.1-4.9-11-11-11h-11.2v39.6c-3.1-0.6-6.7-0.7-11.1-0.7c-28.3,0-48.5,19.2-48.5,46.4c0,29.6,21.5,45,47.6,45  C322.1,222.9,333.1,220.1,341.4,215.9 M281.8,176.9c0-17.2,11.3-27.7,27-27.7c4.8,0,7.4,0.6,10.4,1.3v52.9c-2.6,0.7-6.5,1.3-10,1.3  C292.2,204.6,281.8,192.8,281.8,176.9L281.8,176.9z" fill="#D8882E"  /><path d="M16.4,258.2c-3.7-1.4-5.3-2.4-5.3-4.5c0-1.7,1.4-3.3,4.6-3.3c2.6,0,4.5,0.8,5.6,1.3l1.2-4.1  c-1.4-0.7-3.6-1.4-6.7-1.4c-6.1,0-9.9,3.4-9.9,8c0,4,2.9,6.4,7.6,8.1c3.5,1.3,4.9,2.5,4.9,4.6c0,2.3-1.8,3.8-5,3.8  c-2.6,0-5.1-0.8-6.7-1.8l-1.2,4.2c1.5,0.9,4.6,1.7,7.6,1.7c7.1,0,10.5-3.8,10.5-8.3C23.5,262.5,21.2,260.1,16.4,258.2 M33,249.1  l-5,1.4v3.8h-2.8v3.8H28v9.4c0,2.6,0.5,4.5,1.6,5.7c0.9,1,2.5,1.6,4.4,1.6c1.6,0,2.9-0.2,3.7-0.5l-0.1-3.8c-0.6,0.2-1.1,0.2-2,0.2  c-1.9,0-2.6-1.2-2.6-3.7v-8.8h4.8v-3.8H33L33,249.1 M41.3,274.4v-20.1h5.1v20.1 M43.8,245.9c-1.7,0-2.9,1.2-2.9,2.8  c0,1.5,1.1,2.7,2.8,2.7h0c1.7,0,2.8-1.2,2.8-2.7C46.6,247.1,45.6,245.9,43.8,245.9 M51.6,274.4V245h5.1v29.4 M62,274.4V245H67v29.4   M83.9,253.8c-3,0-5.2,1.3-6.4,3.2h-0.1v-12h-5.1v23.7c0,2-0.1,4.2-0.2,5.6h4.3l0.3-3h0.1c1.4,2.5,3.8,3.5,6.4,3.5  c4.5,0,9.1-3.6,9.1-10.8C92.4,257.9,88.8,253.8,83.9,253.8 M82,270.8c-2.2,0-4-1.5-4.5-3.6c-0.1-0.4-0.1-0.8-0.1-1.2v-3.3  c0-0.5,0.1-1,0.2-1.3c0.5-2.2,2.4-3.7,4.5-3.7c3.4,0,5.1,2.9,5.1,6.4C87.2,268.3,85.2,270.8,82,270.8L82,270.8z M96.4,274.4v-20.1  h5.1v20.1 M99,245.9c-1.7,0-2.9,1.2-2.9,2.8c0,1.5,1.1,2.7,2.8,2.7h0c1.7,0,2.8-1.2,2.8-2.7C101.8,247.1,100.7,245.9,99,245.9   M111.3,258.1h-0.1l-0.2-3.8h-4.4c0.1,1.8,0.2,3.8,0.2,6.5v13.6h5.1v-10.4c0-0.5,0-1.1,0.1-1.5c0.5-2.3,2.1-3.8,4.5-3.8  c0.6,0,1.1,0,1.5,0.1v-4.7c-0.4-0.1-0.7-0.1-1.2-0.1C114.7,253.8,112.3,255.3,111.3,258.1 M147.7,253.8c-1.3,0-2.5,0.3-3.5,0.9  c-1,0.5-1.9,1.3-2.5,2.3h-0.1v-12h-5.1v29.4h5.1v-12.1c0-0.5,0-1.1,0.2-1.5c0.6-1.5,2-2.8,4-2.8c2.8,0,3.9,2.2,3.9,5.1v11.3h5.1  v-11.9C154.7,256.1,151.1,253.8,147.7,253.8 M192.5,258.7h-4.6c-0.4,2.9-1.3,5.5-2.5,7.4c-1.6-1.7-3.7-4.2-5.6-6.4v-0.2  c4.1-2.1,5.8-4.4,5.8-7.3c0-3.8-3-6.2-6.9-6.2c-5.1,0-7.8,3.6-7.8,7.1c0,2,0.9,4,2.2,5.5v0.2c-3.2,1.7-5.4,4.3-5.4,8.1  c0,4,3.1,7.8,9.2,7.8c3.2,0,5.8-1,7.9-2.8c0.9,0.9,1.5,1.6,2.2,2.3h5.9c-1.7-1.8-3.2-3.5-4.8-5.3C190.4,266.5,191.7,263,192.5,258.7   M178.4,249.4L178.4,249.4c1.9,0,2.8,1.7,2.8,3.1c0,1.9-1.4,3.2-3.8,4.7c-1.2-1.5-2-2.8-2-4.5C175.4,251,176.5,249.4,178.4,249.4  L178.4,249.4z M177.7,271.1L177.7,271.1c-3.1,0-5.1-2.2-5.1-4.9c0-2.3,1.5-3.8,2.8-4.7c2.6,3,5.3,6,7,7.7  C181.3,270.2,179.7,271.1,177.7,271.1L177.7,271.1z M215.9,253.8c-3.3,0-5.5,1.9-6.4,3.5h-0.1l-0.2-3h-4.4c0.1,1.7,0.2,3.7,0.2,6  v14.1h5.1v-11.9c0-0.6,0.1-1.2,0.2-1.6c0.5-1.5,1.9-3,4-3c2.8,0,3.8,2.2,3.8,5.1v11.4h5.1v-11.9  C223.1,256.1,219.4,253.8,215.9,253.8 M236.8,253.8c-6.4,0-9.8,5.2-9.8,10.8c0,6.1,3.8,10.2,10.4,10.2c2.9,0,5.3-0.5,7-1.3l-0.7-3.5  c-1.6,0.5-3.2,0.9-5.6,0.9c-3.2,0-6.1-1.6-6.2-5.2h13.5c0.1-0.4,0.2-1.2,0.2-2.1C245.5,259.2,243.3,253.8,236.8,253.8 M231.9,262.2  c0.2-2.1,1.5-4.9,4.7-4.9c3.4,0,4.2,3.1,4.2,4.9L231.9,262.2L231.9,262.2z M258.8,253.8c-6.1,0-10.4,4-10.4,10.7  c0,6.5,4.4,10.4,10.1,10.4h0c5.1,0,10.3-3.3,10.3-10.7C268.8,258,264.8,253.8,258.8,253.8 M258.7,271.2L258.7,271.2  c-3.1,0-5-2.9-5-6.8c0-3.3,1.4-6.9,5-6.9c3.5,0,4.9,3.6,4.9,6.8C263.6,268.4,261.5,271.2,258.7,271.2L258.7,271.2z M283.9,253.8  c-3.4,0-5.5,1.9-6.4,3.5h-0.1l-0.2-3h-4.4c0.1,1.7,0.2,3.7,0.2,6v14.1h5.1v-11.9c0-0.6,0.1-1.2,0.2-1.6c0.5-1.5,1.9-3,4-3  c2.8,0,3.8,2.2,3.8,5.1v11.4h5.1v-11.9C291,256.1,287.4,253.8,283.9,253.8 M311.8,262.3c0-4.4-1.9-8.5-8.3-8.5  c-3.2,0-5.8,0.9-7.3,1.8l1,3.3c1.4-0.9,3.4-1.5,5.4-1.5c3.6,0,4.1,2.2,4.1,3.5v0.3c-7.4,0-11.9,2.6-11.9,7.6c0,3.1,2.3,6,6.3,6  c2.7,0,4.8-1.1,6-2.7h0.1l0.4,2.2h4.6c-0.3-1.2-0.3-3-0.3-4.8L311.8,262.3 M306.8,267.3c0,0.4,0,0.7-0.1,1.1c-0.5,1.5-1.9,2.8-4,2.8  c-1.6,0-2.9-0.9-2.9-2.9c0-3.1,3.4-3.8,7-3.8V267.3L306.8,267.3z M322.5,249.1l-5,1.4v3.8h-2.8v3.8h2.9v9.4c0,2.6,0.5,4.5,1.6,5.7  c0.9,1,2.5,1.6,4.4,1.6c1.6,0,2.9-0.2,3.7-0.5l-0.1-3.8c-0.6,0.2-1.1,0.2-2,0.2c-1.9,0-2.6-1.2-2.6-3.7v-8.8h4.8v-3.8h-4.8  L322.5,249.1 M346.8,262.3c0-4.4-1.9-8.5-8.3-8.5c-3.2,0-5.8,0.9-7.3,1.8l1,3.3c1.4-0.9,3.4-1.5,5.4-1.5c3.6,0,4.1,2.2,4.1,3.5v0.3  c-7.4,0-11.9,2.6-11.9,7.6c0,3.1,2.3,6,6.3,6c2.6,0,4.7-1.1,5.9-2.7h0.1l0.4,2.2h4.6c-0.3-1.2-0.3-3-0.3-4.8L346.8,262.3   M341.9,267.3c0,0.4,0,0.7-0.1,1.1c-0.5,1.5-1.9,2.8-4,2.8c-1.6,0-2.9-0.9-2.9-2.9c0-3.1,3.4-3.8,7-3.8L341.9,267.3L341.9,267.3z   M351.9,274.4V245h5.1v29.4 M390.2,245h-5.1v11.4H385c-0.9-1.5-2.9-2.6-5.7-2.6c-4.8,0-9.1,4-9,10.7c0,6.2,3.8,10.3,8.6,10.3  c2.9,0,5.3-1.4,6.5-3.6h0.1l0.3,3.2h4.5c-0.1-1.4-0.2-3.6-0.2-5.7L390.2,245 M385.1,265.7c0,0.5,0,1-0.2,1.5  c-0.5,2.2-2.3,3.6-4.4,3.6c-3.2,0-5-2.7-5-6.4c0-3.7,1.8-6.6,5.1-6.6c2.3,0,3.9,1.6,4.4,3.6c0.1,0.4,0.1,0.9,0.1,1.4L385.1,265.7  L385.1,265.7z M404,253.8c-6.5,0-9.8,5.2-9.8,10.8c0,6.1,3.8,10.2,10.4,10.2c2.9,0,5.3-0.5,7-1.3l-0.7-3.5c-1.6,0.5-3.2,0.9-5.6,0.9  c-3.2,0-6.1-1.6-6.2-5.2h13.5c0.1-0.4,0.2-1.2,0.2-2.1C412.7,259.2,410.5,253.8,404,253.8 M399,262.2c0.2-2.1,1.5-4.9,4.7-4.9  c3.4,0,4.2,3.1,4.2,4.9L399,262.2L399,262.2z M432.3,262.3c0-4.4-1.9-8.5-8.3-8.5c-3.2,0-5.8,0.9-7.3,1.8l1,3.3  c1.4-0.9,3.4-1.5,5.4-1.5c3.6,0,4.1,2.2,4.1,3.5v0.3c-7.4,0-11.9,2.6-11.9,7.6c0,3.1,2.3,6,6.3,6c2.6,0,4.7-1.1,5.9-2.7h0.1l0.4,2.2  h4.6c-0.3-1.2-0.3-3-0.3-4.8L432.3,262.3 M427.3,267.3c0,0.4,0,0.7-0.1,1.1c-0.5,1.5-1.9,2.8-4,2.8c-1.6,0-2.9-0.9-2.9-2.9  c0-3.1,3.4-3.8,7-3.8V267.3L427.3,267.3z M442.9,249.1l-5,1.4v3.8h-2.9v3.8h2.9v9.4c0,2.6,0.5,4.5,1.6,5.7c0.9,1,2.5,1.6,4.4,1.6  c1.6,0,2.9-0.2,3.7-0.5l-0.1-3.8c-0.6,0.2-1.1,0.2-2,0.2c-1.9,0-2.6-1.2-2.6-3.7v-8.8h4.8v-3.8h-4.8L442.9,249.1 M462.6,253.8  c-1.3,0-2.5,0.3-3.5,0.9c-1,0.5-1.9,1.3-2.5,2.3h-0.1v-12h-5.1v29.4h5.1v-12.1c0-0.5,0-1.1,0.2-1.5c0.6-1.5,2-2.8,4-2.8  c2.8,0,3.9,2.2,3.9,5.1v11.3h5.1v-11.9C469.6,256.1,466,253.8,462.6,253.8 M494.1,257.8c1.8,0,3,0.4,3.9,0.8l0.9-3.8  c-1.2-0.5-3.1-0.9-4.9-0.9c-7.1,0-11.2,4.7-11.2,10.7c0,6.2,4.1,10.3,10.4,10.3c2.5,0,4.6-0.5,5.7-1l-0.7-3.8c-1,0.4-2.3,0.8-4,0.8  c-3.5,0-6.2-2.4-6.2-6.5C487.9,260.6,490.2,257.8,494.1,257.8 M513.6,253.8c-1.3,0-2.5,0.3-3.5,0.9c-1,0.5-1.9,1.3-2.5,2.3h-0.1v-12  h-5.1v29.4h5.1v-12.1c0-0.5,0-1.1,0.2-1.5c0.6-1.5,2-2.8,4-2.8c2.8,0,3.9,2.2,3.9,5.1v11.3h5.1v-11.9  C520.6,256.1,517,253.8,513.6,253.8 M541.4,262.3c0-4.4-1.9-8.5-8.3-8.5c-3.2,0-5.8,0.9-7.3,1.8l1,3.3c1.4-0.9,3.4-1.5,5.4-1.5  c3.6,0,4.1,2.2,4.1,3.5v0.3c-7.4,0-11.9,2.6-11.9,7.6c0,3.1,2.3,6,6.3,6c2.7,0,4.8-1.1,6-2.7h0.1l0.4,2.2h4.6  c-0.2-1.2-0.3-3-0.3-4.8L541.4,262.3 M536.4,267.3c0,0.4,0,0.7-0.1,1.1c-0.5,1.5-1.9,2.8-4,2.8c-1.6,0-2.9-0.9-2.9-2.9  c0-3.1,3.4-3.8,7-3.8L536.4,267.3L536.4,267.3z M551,258.1h-0.1l-0.2-3.8h-4.4c0.1,1.8,0.2,3.8,0.2,6.5v13.6h5.1v-10.4  c0-0.5,0-1.1,0.1-1.5c0.5-2.3,2.2-3.8,4.5-3.8c0.6,0,1.1,0,1.5,0.1v-4.7c-0.4-0.1-0.7-0.1-1.2-0.1C554.4,253.8,552,255.3,551,258.1   M560.9,274.4v-20.1h5.1v20.1 M563.4,245.9c-1.7,0-2.9,1.2-2.9,2.8c0,1.5,1.1,2.7,2.8,2.7h0c1.7,0,2.8-1.2,2.8-2.7  C566.3,247.1,565.2,245.9,563.4,245.9 M577,249.1l-5,1.4v3.8h-2.9v3.8h2.9v9.4c0,2.6,0.5,4.5,1.6,5.7c0.9,1,2.5,1.6,4.4,1.6  c1.6,0,2.9-0.2,3.7-0.5l-0.1-3.8c-0.6,0.2-1.1,0.2-2,0.2c-1.9,0-2.6-1.2-2.6-3.7v-8.8h4.8v-3.8H577L577,249.1 M595.5,265  c-0.4,1.3-0.8,2.8-1.1,3.9h-0.1c-0.3-1.1-0.7-2.6-1.2-3.9l-3.6-10.8H584l7.4,18.4c0.2,0.5,0.3,0.8,0.3,1c0,0.3-0.1,0.5-0.3,0.9  c-0.7,1.4-1.9,2.6-2.8,3.2c-1,0.7-2.1,1.2-2.9,1.4l1.1,4.2c1.2-0.2,3.3-0.8,5.3-2.6c2.4-2.1,4.2-5.4,7-12.9l5-13.7h-5.4L595.5,265   M615.9,70.1C593.6,27.5,548.2,0,500.4,0c-49.8,0-95.9,29-117.6,73.8c-0.3,0.7-0.5,1.4-0.5,2.2c0,0.6,0.1,1.1,0.3,1.7  c0.4,1.3,1.4,2.3,2.6,2.9c2.5,1.2,5.5,0.2,6.7-2.3c20-41.4,62.6-68.1,108.6-68.1c21.1,0,42,5.8,60.7,16.8  c18.5,11,33.8,26.6,44.2,45.1l0.3,0.5l-0.3,0.5c-10.4,18.5-25.7,34.1-44.2,45.1c-4.8,2.8-9.7,5.3-14.8,7.5  c11.2-11.5,18.1-27.2,18.1-44.5c0-35.2-28.7-63.9-64-63.9c-35.3,0-64,28.7-64,63.9c0,35.2,28.7,63.9,64,63.9  c10.3,0,20.4-1.3,30.3-3.7c-7.8,7.3-14,13.7-14.9,21.5c-0.1,0.5-0.1,0.9-0.2,1.4c-1,12.8,7.9,24,19.8,24.9c12,1,22.5-8.7,23.5-21.5  c0.6-7.4-2.1-14.3-6.9-18.9c-5-4.7-6.1-11-0.1-14.6c27-11.8,50-32.6,64-59.2C616.7,73.4,616.7,71.6,615.9,70.1 M447.3,81.1  c0-8.1,1.8-15.8,5.1-22.7c0,0.3,0,0.5,0.1,0.8c0.7,5.2,3.1,8.5,3.9,9.8c1.9,2.9,3.1,3.8,3.6,4.9c0.3,1.3-2.1,2.9-3.2,6.8  c-0.7,2.5-1.9,6.2-0.9,10c0.8,3.1,1.7,6.2,3,9.3c8.9,19.9,30.1,30.4,50.7,26.6c0.4,0,0.8-0.1,1.2-0.2c5.8-1.3,9.5-2.3,10.6-9  c0.9-5.9-0.5-8.8-0.5-8.8s4.3,5.8,6.1,7.3c1.8,1.5,4.6,2.6,6.9,0.1c2.3-2.5,2.6-8.9,2.5-10.4c0-1.5,0-6.8-0.5-7.5  c-0.5-0.7-2.1-1.6-3.6-1.1c-1.5,0.5-4.1,5.9-4.1,5.9l-3.1-7.9c0,0,0.5,0,2.7-1.6c2.2-1.6,4.3-3.6,6.8-4.5c2.5-1,4.4-1.7,5.4-2.1  c1-0.4,1.6-3.5,1.2-7.3c-0.4-3.8-1.2-7.2-2.6-10.3c-1.4-3-3.1-5.6-4.2-6.4c-1-0.8-2.5-0.9-3.2-0.3c-0.7,0.6-0.9,2.9-0.6,4.9  c0.2,2,0.4,3.5,0.5,5.3c0.1,1.5,0.2,3.6-0.7,5.4c-0.8,1.6-1.8,3.4-5.5,5.2c-3.7,1.9-6.4,2.5-6.4,2.5s-3.1-4.5-5.3-5.2  c-2.1-0.7-3.9-1.7-6.2-0.7c-2.3,1-4,3.6-3.8,5.8c0.2,2.2,1.7,6.1,1.7,6.1s-0.7,0.6-1.2,1c-0.5,0.4-1.1,1.3-1.1,1.3s-1.5-4.1-3.4-6  c-0.6-0.6-1.7-1.4-3.1-2.2c0.5-2.2,0.6-3.6,1.2-5.6c0.8-2.7,2.1-2.4,3.2-2.9c1-0.5,2.5-1.5,2.6-2.4c0.1-0.9-1.2-2-1.2-2  s1-1.3,0.9-2.3c-0.1-1-1.3-1.8-1.3-1.8s0.8-1.1,0.5-2.3c-0.3-1.2-1.8-1.4-1.8-1.4s0.3-1.4-0.7-2.1c-1-0.7-2.4-1.3-3-1.2  c-0.6,0.1-1.1,0.9-0.9,1.7c0.3,0.8,0.4,1.7,0.4,1.7l-1,0.2c0,0,0.3-0.7-0.1-2.2c-0.4-1.5-1.1-1.8-2-1.7c-0.4,0.1-1,0.8-1.5,1.9v-0.1  c0-0.9-0.3-2.2-0.4-2.6c-0.1-0.5-0.5-1.6-0.5-1.6s1.4-1.5,1.3-2.2c-0.1-0.7-2.4-2.4-3.3-2.9c-0.8-0.5-0.9-0.8-1-2.7  c-0.1-1.9-0.9-3.8-1.6-5.1c-1.2-2-2.6-4.2-6.1-5.1c-4.3-1.1-7.9-1.2-12.4,0c-1.6,0.4-3.1,1.1-4.4,1.8c9.6-9.3,22.6-15,37-15  c29.3,0,53,23.8,53,53c0,29.2-23.8,53-53,53C471.1,134.1,447.3,110.3,447.3,81.1L447.3,81.1z M491,75.9c-0.3,1.4-1,4-1.7,6.3  c-5.1-1.9-5.7-3.2-5.9-4.6c-0.3-1.5,1.2-3.4,2.1-3.9c0.9-0.6,2.4-1.4,3.3-2.2c0.9-0.7,0.8-1.2,0.8-2.2c0.1-0.9,0.8-2,1.3-3  c0.1-0.1,0.1-0.2,0.2-0.3c0,0.4-0.1,0.7-0.1,1.1C491.3,69.7,491.5,73.5,491,75.9L491,75.9z M128.1,249.1l-5,1.4v3.8h-2.8v3.8h2.8  v9.4c0,2.6,0.5,4.5,1.6,5.7c0.9,1,2.5,1.6,4.4,1.6c1.6,0,2.9-0.2,3.7-0.5l-0.1-3.8c-0.6,0.2-1.1,0.2-2,0.2c-1.9,0-2.6-1.2-2.6-3.7  v-8.8h4.8v-3.8h-4.8L128.1,249.1" fill="#2F4C83"  /></svg>