<svg viewBox="0 0 768.4 284.5" role="img" aria-labelledby="the-compassionate-friends--title" xmlns="http://www.w3.org/2000/svg" xmlns:xlink="http://www.w3.org/1999/xlink"><title id="the-compassionate-friends--title">The Compassionate Friends</title><path d="M1.1,115.1c0,63,51,114,114,114c63,0,114-51,114-114c0-63-51-114-114-114C52.1,1.1,1.1,52.1,1.1,115.1" fill="#81B5DE"  /><path d="M1.1,115.1c0,63,51,114,114,114  c63,0,114-51,114-114c0-63-51-114-114-114C52.1,1.1,1.1,52.1,1.1,115.1z" fill="none"  stroke="#FFFFFF"  stroke-width="2.141"  stroke-miterlimit="10"  /><path d="M114.4,32.3c3,0,5.5-2.7,5.5-6.1c0-0.1,0-0.2,0-0.3c-0.1-1.8-0.8-3.3-1.9-4.4c-1-0.9-2.2-1.5-3.6-1.5  c-3,0-5.5,2.7-5.5,6.1C108.9,29.6,111.4,32.3,114.4,32.3" fill="#FFFFFF"  /><path d="M116.8,33.3c-0.6-0.3-1.3-0.5-2.1-0.5c-0.5,0-0.9,0.1-1.4,0.2c-2.5,0.7-4.3,2.6-5.6,5  c-4,7.5-3.2,20.1-3.2,20.1l2.4-1.9c0,0.8,0.1,1.7,0.2,2.7c1.3,10.3,8.6,25.9,8.6,25.9l0.9-3.5l3.6,3.8l0.8-12.8l1.1-19.2l3.6,5  C125.7,58.1,124,36.8,116.8,33.3" fill="#FFFFFF"  /><g><defs><path id="SVGID_1_" d="M1.1,115.1c0,63,51,114,114,114c63,0,114-51.1,114-114c0-63-51-114-114-114C52.1,1.1,1.1,52.1,1.1,115.1" />
		
	</defs><clipPath id="SVGID_2_"><use xlink:href="#SVGID_1_" overflow="visible" ></use>
		
	</clipPath><path d="M99.8,61.4l-40.5,56.9c0.5,0.1,0.9,0.1,1.4,0.2L99.8,61.4z" clip-path="url(#SVGID_2_)"  fill="#FFFFFF"  /><path d="M94.4,61.4l-51.3,54.9c0.6,0,1.2,0.1,1.8,0.2L94.4,61.4z" clip-path="url(#SVGID_2_)"  fill="#FFFFFF"  /><path d="M89.6,61.4l-68.2,56.1c1.1-0.2,2.1-0.5,3.2-0.6L89.6,61.4z" clip-path="url(#SVGID_2_)"  fill="#FFFFFF"  /><polygon points="-32.7,139 -31.4,141 82.8,61.4" clip-path="url(#SVGID_2_)"  fill="#FFFFFF"  /><polygon points="76.9,61.4 -14,110 -12.8,112.1" clip-path="url(#SVGID_2_)"  fill="#FFFFFF"  /><path d="M130.4,61.4l39.1,57.1c0.5-0.1,0.9-0.1,1.4-0.2L130.4,61.4z" clip-path="url(#SVGID_2_)"  fill="#FFFFFF"  /><path d="M135.8,61.4l49.5,55.1c0.6-0.1,1.2-0.1,1.8-0.2L135.8,61.4z" clip-path="url(#SVGID_2_)"  fill="#FFFFFF"  /><path d="M140.5,61.4l65,55.5c1.1,0.2,2.1,0.4,3.2,0.6L140.5,61.4z" clip-path="url(#SVGID_2_)"  fill="#FFFFFF"  /><polygon points="147.3,61.4 261.6,141 262.9,139" clip-path="url(#SVGID_2_)"  fill="#FFFFFF"  /><polygon points="244.2,110 153.3,61.4 243,112.1" clip-path="url(#SVGID_2_)"  fill="#FFFFFF"  /><path d="M159.5,121.5c-4.8-0.4-10.6-1-15.3-2.4c-6.8-2.1-4.9,2.6-1.8,6.1   c2.4,2.7,11,5,14.6,5.5c5.4,0.7,19.1,0.1,19,3.9c-0.2,3.8-8.2,12.6-19.4,18.7c-11.2,6-29.6,12.3-31.7,12.8   c-2.1,0.4-6.2,4.6-1.8,5.3c16.9,2.7,29.3-7.3,39.2-6.7c2.8,0.1,5,1.8,0.7,4.4c-14,8.6-25.2,9.9-41.4,10.6c-4.1,0.2-5.6,1.6-4.2,3.7   c1.1,1.7,3.8,2.7,6.3,3c22.2,2.4,38.4-6.7,45.1-6.6c2.2,0,2.6,0.6,1.5,2.5c-0.9,1.6-4,2.1-7,3.2c-11.9,4.2-34.9,6.4-36.9,7.7   c-6.1,4.1,14.9,3.6,15.7,3.6c7.4-0.5,14.8-1.2,21.3-2.7c4.3-0.9,7.9-2.7,11.5-3c3.1-0.3,3.4,0.9-2.5,4.4   c-11.9,7.1-27.2,3.7-21.4,8.5c3,2.4,17.1,0.6,23-2c30.2-13.4,47.5-48.6,79.3-52.4C215.7,110.9,200.9,115.6,159.5,121.5" clip-path="url(#SVGID_2_)"  fill="#FFFFFF"  /><path d="M70.7,121.5c4.8-0.4,10.6-1,15.3-2.4c6.8-2.1,4.9,2.6,1.8,6.1   c-2.4,2.7-11,5-14.6,5.5c-5.4,0.7-19.1,0.1-19,3.9c0.2,3.8,8.2,12.6,19.4,18.7c11.2,6,29.6,12.3,31.7,12.8c2.1,0.4,6.2,4.6,1.8,5.3   C90.2,174,77.8,164,68,164.6c-2.8,0.1-5,1.8-0.6,4.4c14,8.6,25.2,9.9,41.4,10.6c4.1,0.2,5.6,1.6,4.2,3.7c-1.1,1.7-3.8,2.7-6.3,3   c-22.2,2.4-38.4-6.7-45.1-6.6c-2.2,0-2.6,0.6-1.5,2.5c0.9,1.6,4,2.1,7,3.2c11.9,4.2,34.9,6.4,36.9,7.7c6.1,4.1-14.9,3.6-15.7,3.6   c-7.4-0.5-14.8-1.2-21.3-2.7c-4.3-0.9-7.9-2.7-11.5-3c-3.1-0.3-3.4,0.9,2.5,4.4c11.9,7.1,27.2,3.7,21.4,8.5c-3,2.4-17.1,0.6-23-2   c-30.2-13.4-47.5-48.6-79.3-52.4C14.5,110.9,29.2,115.6,70.7,121.5" clip-path="url(#SVGID_2_)"  fill="#FFFFFF"  />
	
	
	
	
	
	
	
	
	
	
	
	
	
	
</g><path d="M307.3,85.1l-3.8,2.9c-2.1-2.7-4.6-4.8-7.5-6.2c-2.9-1.4-6.2-2.1-9.7-2.1c-3.8,0-7.4,0.9-10.7,2.8  c-3.3,1.8-5.8,4.3-7.6,7.4c-1.8,3.1-2.7,6.6-2.7,10.5c0,5.9,2,10.8,6,14.7c4,3.9,9.1,5.9,15.2,5.9c6.7,0,12.4-2.6,16.9-7.9l3.8,2.9  c-2.4,3.1-5.4,5.4-9,7.1c-3.6,1.7-7.6,2.5-12,2.5c-8.4,0-15.1-2.8-19.9-8.4c-4.1-4.7-6.1-10.5-6.1-17.2c0-7,2.5-13,7.4-17.8  c4.9-4.8,11.1-7.2,18.6-7.2c4.5,0,8.6,0.9,12.2,2.7C302,79.4,305,81.9,307.3,85.1" fill="#24246C"  /><path d="M333.1,92.3c-3.8,0-7.1,1.4-9.8,4.2c-2.7,2.8-4.1,6.2-4.1,10.2c0,2.6,0.6,5,1.9,7.2c1.2,2.2,2.9,3.9,5.1,5.2  c2.1,1.2,4.5,1.8,7,1.8c2.5,0,4.9-0.6,7-1.8c2.1-1.2,3.8-2.9,5.1-5.2c1.2-2.2,1.9-4.6,1.9-7.2c0-4-1.4-7.4-4.1-10.2  C340.1,93.7,336.9,92.3,333.1,92.3 M333.1,87.8c5.5,0,10,2,13.6,6c3.3,3.6,4.9,7.9,4.9,12.9c0,5-1.7,9.3-5.2,13  c-3.5,3.7-7.9,5.6-13.4,5.6c-5.5,0-9.9-1.9-13.4-5.6c-3.5-3.7-5.2-8.1-5.2-13c0-4.9,1.6-9.2,4.9-12.8  C323,89.8,327.6,87.8,333.1,87.8" fill="#24246C"  /><path d="M360.1,88.7h4.6v6.2c1.6-2.3,3.2-3.9,4.9-5c2.3-1.4,4.8-2.1,7.3-2.1c1.7,0,3.4,0.3,4.9,1  c1.6,0.7,2.8,1.6,3.8,2.7c1,1.1,1.8,2.7,2.6,4.8c1.5-2.8,3.4-4.9,5.7-6.4c2.3-1.5,4.7-2.2,7.4-2.2c2.5,0,4.6,0.6,6.5,1.9  c1.9,1.2,3.3,3,4.2,5.2c0.9,2.2,1.4,5.6,1.4,10v19.4h-4.7v-19.4c0-3.8-0.3-6.4-0.8-7.9c-0.5-1.4-1.5-2.6-2.8-3.5  c-1.3-0.9-2.9-1.3-4.7-1.3c-2.2,0-4.2,0.7-6.1,2c-1.8,1.3-3.2,3.1-4,5.2c-0.8,2.2-1.3,5.8-1.3,10.9v13.9h-4.6v-18.2  c0-4.3-0.3-7.2-0.8-8.8c-0.5-1.5-1.5-2.8-2.8-3.7c-1.3-0.9-2.9-1.4-4.7-1.4c-2.1,0-4.1,0.6-5.9,1.9c-1.8,1.3-3.2,3-4.1,5.2  c-0.9,2.2-1.3,5.5-1.3,9.9v15.1h-4.6V88.7z" fill="#24246C"  /><path d="M441.4,92.2c-4,0-7.3,1.4-10,4.2c-2.7,2.8-4.1,6.2-4.1,10.3c0,2.7,0.6,5.1,1.8,7.3c1.2,2.2,2.9,3.9,5.2,5.1  c2.3,1.3,4.6,1.9,7.1,1.9c2.5,0,4.8-0.6,6.9-1.9c2.2-1.3,3.9-3.1,5.2-5.3c1.3-2.3,1.9-4.7,1.9-7.2c0-2.5-0.6-4.9-1.9-7.2  c-1.3-2.3-3-4-5.1-5.3C446.3,92.8,444,92.2,441.4,92.2 M423.1,88.7h4.6v6.5c1.8-2.5,3.9-4.4,6.2-5.6c2.4-1.2,5-1.9,7.9-1.9  c5.1,0,9.4,1.8,13,5.5c3.6,3.6,5.4,8,5.4,13.2c0,5.2-1.8,9.7-5.3,13.3c-3.6,3.7-7.9,5.5-12.9,5.5c-2.8,0-5.4-0.6-7.8-1.8  c-2.4-1.2-4.5-2.9-6.4-5.3v19.2h-4.6V88.7z" fill="#24246C"  /><path d="M485.9,92.2c-2.6,0-4.9,0.6-7.1,1.9c-2.2,1.3-3.9,3-5.2,5.3c-1.3,2.3-1.9,4.7-1.9,7.2c0,2.5,0.6,4.9,1.9,7.2  c1.3,2.3,3,4.1,5.2,5.3c2.2,1.3,4.5,1.9,7,1.9c2.5,0,4.9-0.6,7.1-1.9c2.2-1.3,4-3,5.2-5.1c1.2-2.2,1.8-4.6,1.8-7.3  c0-4.1-1.4-7.6-4.1-10.3C493.2,93.6,489.9,92.2,485.9,92.2 M504.2,88.7v35.6h-4.5v-6.1c-1.9,2.3-4.1,4.1-6.5,5.3  c-2.4,1.2-5,1.8-7.8,1.8c-5,0-9.3-1.8-12.9-5.5c-3.6-3.7-5.4-8.1-5.4-13.3c0-5.1,1.8-9.5,5.4-13.2c3.6-3.6,7.9-5.5,13-5.5  c2.9,0,5.6,0.6,7.9,1.9c2.4,1.2,4.4,3.1,6.2,5.6v-6.5H504.2z" fill="#24246C"  /><path d="M532.5,92.6l-2.9,3c-2.4-2.4-4.8-3.6-7.2-3.6c-1.5,0-2.8,0.5-3.8,1.5c-1.1,1-1.6,2.1-1.6,3.4  c0,1.2,0.4,2.3,1.3,3.3c0.9,1.1,2.7,2.3,5.5,3.8c3.4,1.8,5.7,3.5,7,5.1c1.2,1.7,1.8,3.5,1.8,5.6c0,2.9-1,5.4-3.1,7.4  c-2,2-4.6,3-7.7,3c-2.1,0-4-0.4-5.9-1.3c-1.9-0.9-3.4-2.1-4.6-3.7l2.9-3.3c2.3,2.6,4.8,4,7.4,4c1.8,0,3.4-0.6,4.7-1.8  c1.3-1.2,1.9-2.6,1.9-4.2c0-1.3-0.4-2.5-1.3-3.5c-0.9-1-2.8-2.3-5.8-3.8c-3.2-1.7-5.4-3.3-6.6-4.9c-1.2-1.6-1.7-3.5-1.7-5.5  c0-2.7,0.9-5,2.8-6.7c1.9-1.8,4.2-2.7,7-2.7C525.8,87.8,529.1,89.4,532.5,92.6" fill="#24246C"  /><path d="M558.5,92.6l-2.9,3c-2.4-2.4-4.8-3.6-7.2-3.6c-1.5,0-2.8,0.5-3.8,1.5c-1.1,1-1.6,2.1-1.6,3.4  c0,1.2,0.4,2.3,1.3,3.3c0.9,1.1,2.7,2.3,5.5,3.8c3.4,1.8,5.7,3.5,7,5.1c1.2,1.7,1.8,3.5,1.8,5.6c0,2.9-1,5.4-3.1,7.4  c-2,2-4.6,3-7.7,3c-2.1,0-4-0.4-5.9-1.3c-1.9-0.9-3.4-2.1-4.6-3.7l2.9-3.3c2.3,2.6,4.8,4,7.5,4c1.8,0,3.4-0.6,4.7-1.8  c1.3-1.2,1.9-2.6,1.9-4.2c0-1.3-0.4-2.5-1.3-3.5c-0.9-1-2.8-2.3-5.8-3.8c-3.2-1.7-5.4-3.3-6.6-4.9c-1.2-1.6-1.7-3.5-1.7-5.5  c0-2.7,0.9-5,2.8-6.7c1.9-1.8,4.2-2.7,7-2.7C551.9,87.8,555.2,89.4,558.5,92.6" fill="#24246C"  /><path d="M565.9,88.7h4.6v35.6h-4.6V88.7z M568.2,74c1,0,1.9,0.4,2.7,1.1c0.7,0.7,1.1,1.6,1.1,2.7  c0,1-0.4,1.9-1.1,2.7c-0.7,0.7-1.6,1.1-2.7,1.1c-1,0-1.9-0.4-2.6-1.1c-0.7-0.7-1.1-1.6-1.1-2.7c0-1,0.4-1.9,1.1-2.7  C566.3,74.4,567.2,74,568.2,74" fill="#24246C"  /><path d="M596.9,92.3c-3.8,0-7.1,1.4-9.8,4.2c-2.7,2.8-4.1,6.2-4.1,10.2c0,2.6,0.6,5,1.9,7.2c1.2,2.2,2.9,3.9,5.1,5.2  c2.1,1.2,4.5,1.8,7,1.8c2.5,0,4.9-0.6,7-1.8c2.1-1.2,3.8-2.9,5.1-5.2c1.3-2.2,1.9-4.6,1.9-7.2c0-4-1.4-7.4-4.1-10.2  C603.9,93.7,600.7,92.3,596.9,92.3 M596.9,87.8c5.5,0,10,2,13.6,6c3.3,3.6,4.9,7.9,4.9,12.9c0,5-1.7,9.3-5.2,13  c-3.5,3.7-7.9,5.6-13.4,5.6c-5.5,0-9.9-1.9-13.4-5.6c-3.5-3.7-5.2-8.1-5.2-13c0-4.9,1.6-9.2,4.9-12.8  C586.8,89.8,591.4,87.8,596.9,87.8" fill="#24246C"  /><path d="M623.9,88.7h4.6v6.4c1.8-2.4,3.9-4.3,6.1-5.5c2.2-1.2,4.6-1.8,7.3-1.8c2.7,0,5,0.7,7.1,2  c2.1,1.4,3.6,3.2,4.6,5.5c1,2.3,1.5,5.9,1.5,10.7v18.3h-4.6v-17c0-4.1-0.2-6.8-0.5-8.2c-0.5-2.4-1.5-4.1-3.1-5.3  c-1.5-1.2-3.5-1.8-5.9-1.8c-2.8,0-5.3,0.9-7.4,2.7c-2.2,1.8-3.6,4.1-4.3,6.8c-0.4,1.8-0.7,5-0.7,9.7v13.1h-4.6V88.7z" fill="#24246C"  /><path d="M682,92.2c-2.6,0-4.9,0.6-7.1,1.9c-2.2,1.3-3.9,3-5.2,5.3c-1.3,2.3-1.9,4.7-1.9,7.2c0,2.5,0.6,4.9,1.9,7.2  c1.3,2.3,3,4.1,5.2,5.3c2.2,1.3,4.5,1.9,7,1.9c2.5,0,4.9-0.6,7.1-1.9c2.2-1.3,4-3,5.2-5.1c1.2-2.2,1.8-4.6,1.8-7.3  c0-4.1-1.4-7.6-4.1-10.3C689.3,93.6,686,92.2,682,92.2 M700.3,88.7v35.6h-4.5v-6.1c-1.9,2.3-4.1,4.1-6.5,5.3c-2.4,1.2-5,1.8-7.8,1.8  c-5,0-9.3-1.8-12.9-5.5c-3.6-3.7-5.4-8.1-5.4-13.3c0-5.1,1.8-9.5,5.4-13.2c3.6-3.6,7.9-5.5,13-5.5c2.9,0,5.6,0.6,7.9,1.9  c2.4,1.2,4.4,3.1,6.2,5.6v-6.5H700.3z" fill="#24246C"  /><polygon points="714.6,75.5 719.2,75.5 719.2,88.7 726.5,88.7 726.5,92.6 719.2,92.6 719.2,124.3 714.6,124.3 714.6,92.6 708.4,92.6 708.4,88.7 714.6,88.7" fill="#24246C"  /><path d="M763.3,102.9c-0.6-2.4-1.5-4.4-2.7-5.9c-1.2-1.5-2.7-2.6-4.6-3.5c-1.9-0.9-4-1.3-6.1-1.3  c-3.5,0-6.5,1.1-9,3.4c-1.8,1.6-3.2,4.1-4.2,7.4H763.3z M763.3,112.5l3.9,2c-1.3,2.5-2.7,4.5-4.4,6c-1.7,1.5-3.5,2.7-5.6,3.5  c-2.1,0.8-4.4,1.2-7,1.2c-5.8,0-10.4-1.9-13.6-5.7c-3.3-3.8-4.9-8.1-4.9-12.9c0-4.5,1.4-8.5,4.2-12.1c3.5-4.5,8.2-6.7,14.1-6.7  c6.1,0,10.9,2.3,14.5,6.9c2.6,3.2,3.9,7.3,3.9,12.2h-32.1c0.1,4.1,1.4,7.5,4,10.2c2.6,2.6,5.7,4,9.5,4c1.8,0,3.6-0.3,5.3-0.9  c1.7-0.6,3.2-1.5,4.4-2.5C760.6,116.5,761.9,114.8,763.3,112.5" fill="#24246C"  /><polygon points="262.5,156.6 286.6,156.6 286.6,161.3 267.3,161.3 267.3,176.4 286.6,176.4 286.6,181.1 267.3,181.1 267.3,204.8 262.5,204.8" fill="#24246C"  /><path d="M292.5,169.1h4.7v5.2c1.4-2.1,2.9-3.6,4.4-4.6c1.5-1,3.2-1.5,4.8-1.5c1.3,0,2.6,0.4,4.1,1.2l-2.4,3.9  c-1-0.4-1.8-0.6-2.4-0.6c-1.5,0-3,0.6-4.4,1.9c-1.4,1.3-2.5,3.2-3.2,5.8c-0.6,2-0.9,6.1-0.9,12.3v12h-4.7V169.1z" fill="#24246C"  /><path d="M313.7,169.1h4.6v35.6h-4.6V169.1z M316,154.5c1,0,1.9,0.4,2.7,1.1c0.7,0.7,1.1,1.6,1.1,2.7  c0,1-0.4,1.9-1.1,2.7c-0.7,0.7-1.6,1.1-2.7,1.1c-1,0-1.9-0.4-2.6-1.1c-0.7-0.7-1.1-1.6-1.1-2.7c0-1,0.4-1.9,1.1-2.7  C314.1,154.9,315,154.5,316,154.5" fill="#24246C"  /><path d="M357.8,183.4c-0.6-2.4-1.5-4.4-2.7-5.9c-1.2-1.5-2.7-2.6-4.6-3.5c-1.9-0.9-3.9-1.3-6.1-1.3  c-3.5,0-6.5,1.1-9,3.4c-1.8,1.6-3.2,4.1-4.2,7.4H357.8z M357.8,192.9l3.9,2c-1.3,2.5-2.7,4.5-4.4,6c-1.7,1.5-3.5,2.7-5.6,3.5  c-2.1,0.8-4.4,1.2-7,1.2c-5.8,0-10.4-1.9-13.6-5.7c-3.3-3.8-4.9-8.1-4.9-12.9c0-4.5,1.4-8.5,4.2-12.1c3.5-4.5,8.2-6.7,14.1-6.7  c6.1,0,10.9,2.3,14.6,6.9c2.6,3.2,3.9,7.3,3.9,12.2h-32.1c0.1,4.1,1.4,7.5,4,10.2c2.6,2.6,5.7,4,9.5,4c1.8,0,3.6-0.3,5.3-0.9  c1.7-0.6,3.2-1.5,4.4-2.5C355.1,197,356.4,195.3,357.8,192.9" fill="#24246C"  /><path d="M371.4,169.1h4.6v6.4c1.8-2.4,3.9-4.3,6.1-5.5c2.2-1.2,4.6-1.8,7.3-1.8c2.7,0,5,0.7,7.1,2  c2.1,1.4,3.6,3.2,4.6,5.5c1,2.3,1.5,5.9,1.5,10.7v18.3h-4.6v-17c0-4.1-0.2-6.8-0.5-8.2c-0.5-2.4-1.5-4.1-3.1-5.3  c-1.5-1.2-3.5-1.8-5.9-1.8c-2.8,0-5.3,0.9-7.5,2.7c-2.2,1.8-3.6,4.1-4.3,6.8c-0.4,1.8-0.7,5-0.7,9.7v13.1h-4.6V169.1z" fill="#24246C"  /><path d="M429.5,172.7c-2.6,0-4.9,0.6-7.1,1.9c-2.2,1.3-3.9,3-5.2,5.3c-1.3,2.3-1.9,4.7-1.9,7.2  c0,2.5,0.6,4.9,1.9,7.2c1.3,2.3,3,4.1,5.2,5.3c2.2,1.3,4.5,1.9,7,1.9c2.5,0,4.9-0.6,7.1-1.9c2.2-1.3,4-3,5.2-5.1  c1.2-2.2,1.8-4.6,1.8-7.3c0-4.1-1.4-7.6-4.1-10.3C436.8,174,433.5,172.7,429.5,172.7 M447.8,155.4v49.4h-4.5v-6.1  c-1.9,2.3-4.1,4.1-6.5,5.3c-2.4,1.2-5,1.8-7.8,1.8c-5,0-9.3-1.8-12.9-5.5s-5.4-8.1-5.4-13.3c0-5.1,1.8-9.5,5.4-13.2  c3.6-3.6,7.9-5.5,13-5.5c2.9,0,5.6,0.6,7.9,1.9c2.4,1.2,4.4,3.1,6.2,5.6v-20.3H447.8z" fill="#24246C"  /><path d="M476.1,173l-2.9,3c-2.5-2.4-4.8-3.6-7.2-3.6c-1.5,0-2.8,0.5-3.8,1.5c-1.1,1-1.6,2.1-1.6,3.4  c0,1.2,0.4,2.3,1.3,3.3c0.9,1.1,2.7,2.3,5.5,3.8c3.4,1.8,5.7,3.5,7,5.1c1.2,1.7,1.8,3.5,1.8,5.6c0,2.9-1,5.4-3.1,7.4  c-2.1,2-4.6,3-7.7,3c-2.1,0-4-0.4-5.9-1.3c-1.9-0.9-3.4-2.1-4.6-3.7l2.9-3.3c2.3,2.6,4.8,4,7.4,4c1.8,0,3.4-0.6,4.7-1.8  c1.3-1.2,1.9-2.6,1.9-4.2c0-1.3-0.4-2.5-1.3-3.5c-0.9-1-2.8-2.3-5.8-3.8c-3.2-1.7-5.4-3.3-6.6-4.9c-1.2-1.6-1.7-3.5-1.7-5.5  c0-2.7,0.9-5,2.8-6.7c1.8-1.8,4.2-2.7,7-2.7C469.5,168.2,472.8,169.8,476.1,173" fill="#24246C"  /><polygon points="260.2,29 260.3,26.2 276.1,26.3 276.1,29.1 269.6,29 269.5,55.1 266.5,55.1 266.7,29" fill="#24246C"  /><path d="M279.8,25.6l2.7,0l-0.1,12.1c1.1-1.5,2.4-2.5,3.7-3.3c1.3-0.7,2.8-1.1,4.3-1.1c1.6,0,3,0.4,4.2,1.2  c1.2,0.8,2.1,1.9,2.7,3.3c0.6,1.4,0.9,3.5,0.8,6.4l-0.1,11l-2.8,0l0.1-10.2c0-2.5-0.1-4.1-0.3-4.9c-0.3-1.4-0.9-2.5-1.8-3.2  c-0.9-0.7-2.1-1.1-3.5-1.1c-1.7,0-3.2,0.5-4.5,1.6c-1.3,1.1-2.2,2.4-2.6,4.1c-0.3,1-0.4,3-0.4,5.8l0,7.8l-2.8,0L279.8,25.6z" fill="#24246C"  /><path d="M322.2,42.6c-0.4-1.5-0.9-2.6-1.6-3.5c-0.7-0.9-1.6-1.6-2.8-2.1c-1.2-0.5-2.4-0.8-3.6-0.8  c-2.1,0-3.9,0.6-5.4,2c-1.1,1-2,2.4-2.5,4.4L322.2,42.6z M322.2,48.4l2.3,1.2c-0.8,1.5-1.7,2.7-2.7,3.6c-1,0.9-2.1,1.6-3.4,2.1  c-1.2,0.5-2.7,0.7-4.2,0.7c-3.5,0-6.2-1.2-8.2-3.5c-1.9-2.3-2.9-4.9-2.9-7.8c0-2.7,0.9-5.1,2.5-7.2c2.1-2.7,5-4,8.5-4  c3.6,0,6.5,1.4,8.7,4.2c1.5,2,2.3,4.4,2.3,7.3L306,44.9c0,2.5,0.8,4.5,2.3,6.1c1.5,1.6,3.4,2.4,5.7,2.4c1.1,0,2.1-0.2,3.2-0.5  c1-0.4,1.9-0.9,2.6-1.5C320.6,50.8,321.3,49.7,322.2,48.4" fill="#24246C"  /><path d="M23,270.4c0,1.3-0.2,2.4-0.7,3.4c-0.5,1-1.1,1.8-1.9,2.4c-0.8,0.6-1.8,1.1-2.9,1.5s-2.3,0.5-3.5,0.5  c-0.8,0-1.6-0.1-2.3-0.2c-0.7-0.1-1.4-0.3-1.9-0.5c-0.6-0.2-1-0.4-1.4-0.6c-0.4-0.2-0.6-0.4-0.8-0.6c-0.2-0.2-0.3-0.4-0.3-0.7  c-0.1-0.3-0.1-0.7-0.1-1.3c0-0.4,0-0.7,0-1c0-0.3,0.1-0.5,0.1-0.6c0.1-0.2,0.1-0.3,0.2-0.3c0.1-0.1,0.2-0.1,0.3-0.1  c0.2,0,0.4,0.1,0.7,0.3c0.3,0.2,0.7,0.4,1.2,0.7c0.5,0.3,1.1,0.5,1.8,0.7c0.7,0.2,1.5,0.3,2.4,0.3c0.6,0,1.1-0.1,1.6-0.2  c0.5-0.1,0.9-0.3,1.2-0.6c0.3-0.3,0.6-0.6,0.8-1c0.2-0.4,0.3-0.8,0.3-1.3c0-0.6-0.2-1-0.5-1.4c-0.3-0.4-0.7-0.7-1.2-1.1  c-0.5-0.3-1-0.6-1.6-0.9c-0.6-0.3-1.2-0.6-1.9-0.9c-0.7-0.3-1.3-0.6-1.9-1c-0.6-0.4-1.2-0.8-1.6-1.4c-0.5-0.5-0.9-1.2-1.2-1.9  c-0.3-0.7-0.5-1.6-0.5-2.6c0-1.2,0.2-2.2,0.6-3.1c0.4-0.9,1-1.6,1.7-2.2c0.7-0.6,1.6-1,2.6-1.3c1-0.3,2.1-0.4,3.2-0.4  c0.6,0,1.2,0,1.7,0.1c0.6,0.1,1.1,0.2,1.6,0.4c0.5,0.2,0.9,0.3,1.3,0.5c0.4,0.2,0.6,0.3,0.8,0.5c0.1,0.1,0.2,0.2,0.3,0.3  c0,0.1,0.1,0.2,0.1,0.3c0,0.1,0.1,0.3,0.1,0.5c0,0.2,0,0.5,0,0.8c0,0.4,0,0.7,0,0.9c0,0.3-0.1,0.5-0.1,0.6c0,0.2-0.1,0.3-0.2,0.4  c-0.1,0.1-0.2,0.1-0.3,0.1c-0.1,0-0.4-0.1-0.7-0.3c-0.3-0.2-0.7-0.4-1.1-0.6c-0.4-0.2-0.9-0.4-1.5-0.6c-0.6-0.2-1.2-0.3-1.9-0.3  c-0.5,0-1,0.1-1.4,0.2c-0.4,0.1-0.7,0.3-1,0.5c-0.3,0.2-0.5,0.5-0.6,0.8c-0.1,0.3-0.2,0.7-0.2,1c0,0.5,0.1,1,0.4,1.4  c0.3,0.4,0.7,0.7,1.2,1.1c0.5,0.3,1.1,0.6,1.7,0.9c0.6,0.3,1.3,0.6,1.9,0.9c0.7,0.3,1.3,0.6,1.9,1c0.6,0.4,1.2,0.8,1.7,1.4  c0.5,0.5,0.9,1.2,1.2,1.9C22.9,268.5,23,269.4,23,270.4z M42.7,277c0,0.1,0,0.2-0.1,0.3c-0.1,0.1-0.2,0.2-0.3,0.2  c-0.2,0.1-0.4,0.1-0.6,0.1c-0.3,0-0.6,0-1,0c-0.4,0-0.7,0-1,0c-0.3,0-0.5-0.1-0.6-0.1c-0.2-0.1-0.3-0.1-0.3-0.2  c-0.1-0.1-0.1-0.2-0.1-0.3v-1.9c-0.9,1-1.9,1.8-2.8,2.3c-1,0.5-2,0.8-3,0.8c-1.2,0-2.1-0.2-2.9-0.6c-0.8-0.4-1.4-0.9-1.9-1.5  c-0.5-0.7-0.8-1.4-1-2.3c-0.2-0.9-0.3-1.9-0.3-3.2v-10.3c0-0.1,0-0.2,0.1-0.3c0.1-0.1,0.2-0.2,0.4-0.2c0.2-0.1,0.4-0.1,0.7-0.1  c0.3,0,0.7,0,1.1,0c0.5,0,0.8,0,1.1,0c0.3,0,0.5,0.1,0.7,0.1c0.2,0.1,0.3,0.1,0.4,0.2c0.1,0.1,0.1,0.2,0.1,0.3v9.5  c0,0.9,0.1,1.5,0.2,2c0.1,0.5,0.3,0.9,0.5,1.2c0.2,0.3,0.5,0.6,0.9,0.8c0.4,0.2,0.8,0.3,1.3,0.3c0.6,0,1.2-0.2,1.8-0.7  c0.6-0.4,1.3-1.1,1.9-1.9v-11.2c0-0.1,0-0.2,0.1-0.3c0.1-0.1,0.2-0.2,0.4-0.2c0.2-0.1,0.4-0.1,0.7-0.1c0.3,0,0.7,0,1.1,0  c0.5,0,0.8,0,1.1,0c0.3,0,0.5,0.1,0.7,0.1c0.2,0.1,0.3,0.1,0.4,0.2s0.1,0.2,0.1,0.3V277z M64.5,268.4c0,1.5-0.2,2.8-0.5,4  c-0.3,1.2-0.8,2.2-1.4,3.1c-0.6,0.8-1.4,1.5-2.3,1.9c-0.9,0.5-2,0.7-3.1,0.7c-0.5,0-0.9,0-1.3-0.1c-0.4-0.1-0.8-0.2-1.2-0.4  c-0.4-0.2-0.8-0.4-1.1-0.7c-0.4-0.3-0.8-0.6-1.2-1v7.9c0,0.1,0,0.2-0.1,0.3c-0.1,0.1-0.2,0.2-0.4,0.3c-0.2,0.1-0.4,0.1-0.7,0.2  c-0.3,0-0.7,0.1-1.1,0.1c-0.5,0-0.8,0-1.1-0.1c-0.3,0-0.5-0.1-0.7-0.2c-0.2-0.1-0.3-0.2-0.4-0.3c-0.1-0.1-0.1-0.2-0.1-0.3v-23.4  c0-0.1,0-0.2,0.1-0.3c0.1-0.1,0.2-0.2,0.3-0.2c0.2-0.1,0.4-0.1,0.6-0.1c0.3,0,0.6,0,1,0c0.4,0,0.7,0,0.9,0c0.3,0,0.5,0.1,0.6,0.1  c0.2,0.1,0.3,0.1,0.3,0.2c0.1,0.1,0.1,0.2,0.1,0.3v2c0.5-0.5,1-0.9,1.4-1.3c0.5-0.4,0.9-0.7,1.4-1c0.5-0.3,1-0.4,1.5-0.6  c0.5-0.1,1.1-0.2,1.7-0.2c1.2,0,2.3,0.2,3.1,0.7c0.9,0.5,1.6,1.1,2.1,2c0.5,0.8,0.9,1.8,1.2,2.9C64.4,265.9,64.5,267.1,64.5,268.4z   M59.6,268.7c0-0.7-0.1-1.4-0.2-2.1c-0.1-0.7-0.3-1.2-0.5-1.8c-0.3-0.5-0.6-0.9-1-1.2c-0.4-0.3-0.9-0.5-1.6-0.5  c-0.3,0-0.6,0-0.9,0.1c-0.3,0.1-0.6,0.2-0.9,0.5c-0.3,0.2-0.6,0.5-1,0.8c-0.3,0.3-0.7,0.8-1.1,1.3v5.5c0.7,0.8,1.3,1.5,1.9,1.9  c0.6,0.5,1.2,0.7,1.9,0.7c0.6,0,1.1-0.2,1.6-0.5c0.4-0.3,0.8-0.7,1.1-1.2c0.3-0.5,0.5-1.1,0.6-1.7C59.5,270,59.6,269.4,59.6,268.7z   M85.4,268.4c0,1.5-0.2,2.8-0.5,4c-0.3,1.2-0.8,2.2-1.4,3.1c-0.6,0.8-1.4,1.5-2.3,1.9c-0.9,0.5-2,0.7-3.1,0.7c-0.5,0-0.9,0-1.3-0.1  c-0.4-0.1-0.8-0.2-1.2-0.4c-0.4-0.2-0.8-0.4-1.1-0.7c-0.4-0.3-0.8-0.6-1.2-1v7.9c0,0.1,0,0.2-0.1,0.3c-0.1,0.1-0.2,0.2-0.4,0.3  c-0.2,0.1-0.4,0.1-0.7,0.2c-0.3,0-0.7,0.1-1.1,0.1c-0.5,0-0.8,0-1.1-0.1c-0.3,0-0.5-0.1-0.7-0.2c-0.2-0.1-0.3-0.2-0.4-0.3  c-0.1-0.1-0.1-0.2-0.1-0.3v-23.4c0-0.1,0-0.2,0.1-0.3c0.1-0.1,0.2-0.2,0.3-0.2c0.2-0.1,0.4-0.1,0.6-0.1c0.3,0,0.6,0,1,0  c0.4,0,0.7,0,0.9,0c0.3,0,0.5,0.1,0.6,0.1c0.2,0.1,0.3,0.1,0.3,0.2c0.1,0.1,0.1,0.2,0.1,0.3v2c0.5-0.5,1-0.9,1.4-1.3  c0.5-0.4,0.9-0.7,1.4-1c0.5-0.3,1-0.4,1.5-0.6c0.5-0.1,1.1-0.2,1.7-0.2c1.2,0,2.3,0.2,3.1,0.7c0.9,0.5,1.6,1.1,2.1,2  c0.5,0.8,0.9,1.8,1.2,2.9C85.3,265.9,85.4,267.1,85.4,268.4z M80.4,268.7c0-0.7-0.1-1.4-0.2-2.1c-0.1-0.7-0.3-1.2-0.5-1.8  c-0.3-0.5-0.6-0.9-1-1.2c-0.4-0.3-0.9-0.5-1.6-0.5c-0.3,0-0.6,0-0.9,0.1c-0.3,0.1-0.6,0.2-0.9,0.5c-0.3,0.2-0.6,0.5-1,0.8  c-0.3,0.3-0.7,0.8-1.1,1.3v5.5c0.7,0.8,1.3,1.5,1.9,1.9c0.6,0.5,1.2,0.7,1.9,0.7c0.6,0,1.1-0.2,1.6-0.5c0.4-0.3,0.8-0.7,1.1-1.2  c0.3-0.5,0.5-1.1,0.6-1.7C80.4,270,80.4,269.4,80.4,268.7z M106.3,268.5c0,1.4-0.2,2.7-0.6,3.9c-0.4,1.2-0.9,2.2-1.7,3  c-0.8,0.9-1.7,1.5-2.9,2c-1.2,0.5-2.5,0.7-4,0.7c-1.5,0-2.8-0.2-3.9-0.6c-1.1-0.4-2-1-2.7-1.8c-0.7-0.8-1.3-1.8-1.6-2.9  c-0.4-1.2-0.5-2.5-0.5-3.9c0-1.4,0.2-2.7,0.6-3.9c0.4-1.2,1-2.2,1.7-3c0.8-0.8,1.7-1.5,2.9-2c1.1-0.5,2.5-0.7,4-0.7  c1.5,0,2.8,0.2,3.9,0.6c1.1,0.4,2,1,2.7,1.8c0.7,0.8,1.3,1.8,1.6,2.9C106.1,265.7,106.3,267,106.3,268.5z M101.5,268.7  c0-0.8-0.1-1.6-0.2-2.3c-0.1-0.7-0.4-1.3-0.7-1.8c-0.3-0.5-0.7-0.9-1.3-1.2c-0.5-0.3-1.2-0.4-2-0.4c-0.7,0-1.3,0.1-1.8,0.4  c-0.5,0.3-1,0.6-1.3,1.1c-0.3,0.5-0.6,1.1-0.8,1.8c-0.2,0.7-0.3,1.5-0.3,2.4c0,0.8,0.1,1.6,0.2,2.3c0.1,0.7,0.4,1.3,0.7,1.8  c0.3,0.5,0.7,0.9,1.3,1.2s1.2,0.4,2,0.4c0.7,0,1.3-0.1,1.9-0.4c0.5-0.3,1-0.6,1.3-1.1s0.6-1.1,0.8-1.8  C101.4,270.3,101.5,269.6,101.5,268.7z M121,261.8c0,0.5,0,0.8,0,1.1c0,0.3-0.1,0.5-0.1,0.7c-0.1,0.2-0.1,0.3-0.2,0.3  c-0.1,0.1-0.2,0.1-0.3,0.1c-0.1,0-0.2,0-0.3-0.1c-0.1,0-0.3-0.1-0.4-0.1c-0.2,0-0.3-0.1-0.5-0.1c-0.2,0-0.4-0.1-0.6-0.1  c-0.3,0-0.5,0.1-0.8,0.2c-0.3,0.1-0.5,0.3-0.8,0.5c-0.3,0.2-0.6,0.5-0.9,0.9c-0.3,0.4-0.6,0.8-1,1.4V277c0,0.1,0,0.2-0.1,0.3  c-0.1,0.1-0.2,0.2-0.4,0.2c-0.2,0.1-0.4,0.1-0.7,0.1c-0.3,0-0.7,0-1.1,0c-0.5,0-0.8,0-1.1,0c-0.3,0-0.5-0.1-0.7-0.1  c-0.2-0.1-0.3-0.1-0.4-0.2c-0.1-0.1-0.1-0.2-0.1-0.3v-16.8c0-0.1,0-0.2,0.1-0.3c0.1-0.1,0.2-0.2,0.3-0.2c0.2-0.1,0.4-0.1,0.6-0.1  c0.3,0,0.6,0,1,0c0.4,0,0.7,0,1,0c0.3,0,0.5,0.1,0.6,0.1c0.1,0.1,0.2,0.1,0.3,0.2c0.1,0.1,0.1,0.2,0.1,0.3v2.1  c0.4-0.6,0.9-1.1,1.2-1.6c0.4-0.4,0.8-0.7,1.1-1c0.4-0.2,0.7-0.4,1.1-0.5c0.4-0.1,0.7-0.1,1.1-0.1c0.2,0,0.3,0,0.5,0  c0.2,0,0.4,0.1,0.6,0.1c0.2,0,0.4,0.1,0.5,0.2c0.2,0.1,0.3,0.1,0.3,0.2c0.1,0.1,0.1,0.1,0.2,0.2c0,0.1,0.1,0.2,0.1,0.3  c0,0.1,0,0.3,0.1,0.6C121,261,121,261.4,121,261.8z M140.5,259.6c0.5,0,0.9,0.1,1.1,0.3c0.2,0.2,0.3,0.6,0.3,1V277  c0,0.1,0,0.2-0.1,0.3c-0.1,0.1-0.2,0.2-0.4,0.2c-0.2,0.1-0.4,0.1-0.7,0.1c-0.3,0-0.7,0-1.1,0c-0.5,0-0.8,0-1.2,0  c-0.3,0-0.5-0.1-0.7-0.1c-0.2-0.1-0.3-0.1-0.4-0.2c-0.1-0.1-0.1-0.2-0.1-0.3v-13.6h-7.5v7.9c0,0.9,0.1,1.6,0.4,2.1  c0.3,0.5,0.8,0.7,1.5,0.7c0.3,0,0.5,0,0.7-0.1c0.2,0,0.4-0.1,0.5-0.2c0.2-0.1,0.3-0.1,0.4-0.2c0.1,0,0.2-0.1,0.3-0.1  c0.1,0,0.1,0,0.2,0.1c0.1,0,0.1,0.1,0.2,0.3c0,0.1,0.1,0.3,0.1,0.5c0,0.2,0,0.5,0,0.9c0,0.6,0,1-0.1,1.3c-0.1,0.3-0.2,0.5-0.3,0.6  s-0.3,0.2-0.5,0.3c-0.2,0.1-0.5,0.2-0.8,0.2c-0.3,0.1-0.6,0.1-1,0.2c-0.3,0-0.7,0.1-1,0.1c-0.9,0-1.8-0.1-2.4-0.4  c-0.7-0.2-1.3-0.6-1.7-1.1c-0.5-0.5-0.8-1.1-1-1.9c-0.2-0.8-0.3-1.6-0.3-2.7v-8.6h-2c-0.2,0-0.4-0.1-0.5-0.4  c-0.1-0.3-0.2-0.8-0.2-1.5c0-0.4,0-0.7,0-0.9c0-0.3,0.1-0.4,0.1-0.6c0.1-0.1,0.1-0.2,0.2-0.3c0.1-0.1,0.2-0.1,0.3-0.1h2v-3.7  c0-0.1,0-0.2,0.1-0.3c0.1-0.1,0.2-0.2,0.4-0.3c0.2-0.1,0.4-0.1,0.7-0.2c0.3,0,0.7,0,1.1,0c0.5,0,0.8,0,1.2,0c0.3,0,0.5,0.1,0.7,0.2  c0.2,0.1,0.3,0.2,0.4,0.3c0.1,0.1,0.1,0.2,0.1,0.3v3.7H140.5z M142.3,254.6c0,1-0.2,1.6-0.6,2c-0.4,0.4-1.1,0.5-2.2,0.5  c-1.1,0-1.8-0.2-2.2-0.5c-0.4-0.4-0.6-1-0.6-1.9c0-1,0.2-1.6,0.6-2c0.4-0.4,1.1-0.6,2.2-0.6c1.1,0,1.8,0.2,2.1,0.5  C142.1,253,142.3,253.7,142.3,254.6z M162.9,277c0,0.1,0,0.2-0.1,0.3s-0.2,0.2-0.4,0.2c-0.2,0.1-0.4,0.1-0.7,0.1c-0.3,0-0.7,0-1.1,0  c-0.5,0-0.8,0-1.2,0c-0.3,0-0.5-0.1-0.7-0.1c-0.2-0.1-0.3-0.1-0.4-0.2c-0.1-0.1-0.1-0.2-0.1-0.3v-9.6c0-0.8-0.1-1.5-0.2-1.9  c-0.1-0.5-0.3-0.9-0.5-1.2c-0.2-0.3-0.5-0.6-0.9-0.8c-0.4-0.2-0.8-0.3-1.3-0.3c-0.6,0-1.2,0.2-1.8,0.7c-0.6,0.4-1.3,1.1-1.9,1.9V277  c0,0.1,0,0.2-0.1,0.3s-0.2,0.2-0.4,0.2c-0.2,0.1-0.4,0.1-0.7,0.1c-0.3,0-0.7,0-1.1,0c-0.5,0-0.8,0-1.1,0c-0.3,0-0.5-0.1-0.7-0.1  c-0.2-0.1-0.3-0.1-0.4-0.2s-0.1-0.2-0.1-0.3v-16.8c0-0.1,0-0.2,0.1-0.3c0.1-0.1,0.2-0.2,0.3-0.2c0.2-0.1,0.4-0.1,0.6-0.1  c0.3,0,0.6,0,1,0c0.4,0,0.7,0,1,0c0.3,0,0.5,0.1,0.6,0.1c0.1,0.1,0.2,0.1,0.3,0.2c0.1,0.1,0.1,0.2,0.1,0.3v1.9  c0.9-1,1.9-1.8,2.8-2.3c1-0.5,2-0.8,3-0.8c1.1,0,2.1,0.2,2.9,0.6c0.8,0.4,1.4,0.9,1.9,1.5c0.5,0.6,0.8,1.4,1,2.3  c0.2,0.9,0.3,1.9,0.3,3.1V277z M182.8,261.4c0,0.6-0.1,1-0.2,1.3c-0.1,0.3-0.3,0.4-0.5,0.4h-2c0.3,0.3,0.5,0.6,0.6,1  c0.1,0.4,0.2,0.8,0.2,1.2c0,1-0.2,1.8-0.5,2.6c-0.3,0.8-0.8,1.4-1.4,1.9c-0.6,0.5-1.3,0.9-2.2,1.2c-0.9,0.3-1.8,0.4-2.9,0.4  c-0.5,0-1.1-0.1-1.5-0.2c-0.5-0.1-0.9-0.3-1.1-0.5c-0.2,0.2-0.3,0.4-0.4,0.6c-0.1,0.2-0.2,0.5-0.2,0.8c0,0.4,0.2,0.7,0.5,0.9  c0.3,0.2,0.8,0.4,1.3,0.4l4.1,0.2c1,0,1.8,0.2,2.5,0.4c0.7,0.2,1.4,0.6,1.9,1c0.5,0.4,0.9,0.9,1.2,1.5c0.3,0.6,0.4,1.3,0.4,2  c0,0.8-0.2,1.6-0.5,2.3c-0.4,0.7-0.9,1.4-1.6,1.9c-0.7,0.5-1.6,1-2.7,1.3c-1.1,0.3-2.4,0.5-3.8,0.5c-1.4,0-2.6-0.1-3.7-0.3  c-1-0.2-1.8-0.5-2.5-0.9c-0.6-0.4-1.1-0.9-1.4-1.4c-0.3-0.6-0.4-1.2-0.4-1.8c0-0.4,0.1-0.8,0.2-1.2c0.1-0.4,0.3-0.7,0.5-1.1  c0.2-0.3,0.5-0.7,0.8-1c0.3-0.3,0.6-0.6,1-0.9c-0.5-0.3-1-0.7-1.3-1.2c-0.3-0.5-0.4-1-0.4-1.6c0-0.7,0.2-1.4,0.5-2  c0.3-0.6,0.8-1.2,1.3-1.6c-0.4-0.4-0.8-1-1.1-1.6c-0.3-0.6-0.4-1.4-0.4-2.3c0-1,0.2-1.9,0.5-2.6c0.3-0.8,0.8-1.4,1.4-2  c0.6-0.5,1.3-0.9,2.2-1.2c0.9-0.3,1.8-0.4,2.8-0.4c0.5,0,1,0,1.5,0.1c0.5,0.1,0.9,0.2,1.3,0.3h5.3c0.2,0,0.4,0.1,0.5,0.4  C182.8,260.3,182.8,260.8,182.8,261.4z M177.9,278.8c0-0.6-0.2-1-0.7-1.3c-0.5-0.3-1.1-0.5-1.9-0.5l-3.4-0.1  c-0.3,0.2-0.6,0.5-0.8,0.7c-0.2,0.2-0.4,0.4-0.5,0.6c-0.1,0.2-0.2,0.4-0.2,0.6c0,0.2-0.1,0.4-0.1,0.6c0,0.6,0.3,1.1,0.9,1.4  c0.6,0.3,1.5,0.5,2.7,0.5c0.7,0,1.3-0.1,1.8-0.2c0.5-0.1,0.9-0.3,1.2-0.6c0.3-0.2,0.5-0.5,0.6-0.8  C177.8,279.4,177.9,279.1,177.9,278.8z M176.8,265.4c0-0.9-0.3-1.6-0.8-2.1c-0.5-0.5-1.2-0.8-2.1-0.8c-0.5,0-0.9,0.1-1.2,0.2  c-0.4,0.2-0.6,0.4-0.9,0.6c-0.2,0.3-0.4,0.6-0.5,0.9c-0.1,0.4-0.2,0.7-0.2,1.1c0,0.9,0.3,1.5,0.8,2c0.5,0.5,1.2,0.7,2.1,0.7  c0.5,0,0.9-0.1,1.2-0.2c0.4-0.2,0.6-0.4,0.9-0.6c0.2-0.3,0.4-0.6,0.5-0.9C176.7,266.1,176.8,265.8,176.8,265.4z M212,268.4  c0,1.5-0.2,2.8-0.5,4c-0.3,1.2-0.8,2.2-1.4,3c-0.6,0.8-1.4,1.5-2.3,1.9c-0.9,0.5-1.9,0.7-3.1,0.7c-0.6,0-1.1-0.1-1.6-0.2  c-0.5-0.1-1-0.3-1.4-0.5c-0.4-0.2-0.9-0.5-1.3-0.9c-0.4-0.4-0.9-0.8-1.3-1.3v1.8c0,0.1,0,0.3-0.1,0.3c-0.1,0.1-0.2,0.2-0.3,0.2  c-0.2,0.1-0.4,0.1-0.6,0.1c-0.3,0-0.6,0-1,0c-0.4,0-0.7,0-1,0c-0.3,0-0.5-0.1-0.6-0.1c-0.2-0.1-0.3-0.1-0.3-0.2  c-0.1-0.1-0.1-0.2-0.1-0.3v-24.7c0-0.1,0-0.2,0.1-0.3c0.1-0.1,0.2-0.2,0.4-0.3c0.2-0.1,0.4-0.1,0.7-0.2c0.3,0,0.7-0.1,1.1-0.1  c0.5,0,0.8,0,1.1,0.1c0.3,0,0.5,0.1,0.7,0.2c0.2,0.1,0.3,0.2,0.4,0.3c0.1,0.1,0.1,0.2,0.1,0.3v9.3c0.4-0.4,0.9-0.8,1.3-1.1  c0.4-0.3,0.9-0.5,1.3-0.7c0.4-0.2,0.9-0.3,1.3-0.4c0.5-0.1,0.9-0.1,1.4-0.1c1.2,0,2.3,0.2,3.2,0.7c0.9,0.5,1.6,1.2,2.1,2  c0.5,0.8,0.9,1.8,1.2,2.9C211.8,266,212,267.2,212,268.4z M207,268.8c0-0.7-0.1-1.4-0.2-2.1c-0.1-0.7-0.3-1.3-0.6-1.8  c-0.3-0.5-0.6-0.9-1-1.2c-0.4-0.3-0.9-0.5-1.6-0.5c-0.3,0-0.6,0-0.9,0.1c-0.3,0.1-0.6,0.2-0.9,0.5c-0.3,0.2-0.6,0.5-1,0.8  c-0.3,0.3-0.7,0.8-1.1,1.3v5.6c0.7,0.9,1.3,1.5,1.9,1.9c0.6,0.4,1.2,0.7,1.9,0.7c0.6,0,1.1-0.2,1.6-0.5c0.4-0.3,0.8-0.7,1.1-1.2  c0.3-0.5,0.5-1.1,0.6-1.7C207,270,207,269.4,207,268.8z M231.4,268.2c0,0.6-0.1,1-0.4,1.3c-0.3,0.3-0.6,0.4-1.1,0.4h-10.2  c0,0.7,0.1,1.4,0.3,1.9c0.2,0.6,0.4,1.1,0.8,1.5c0.4,0.4,0.8,0.7,1.4,0.9c0.6,0.2,1.3,0.3,2.1,0.3c0.8,0,1.6-0.1,2.2-0.2  c0.6-0.1,1.2-0.3,1.6-0.4c0.5-0.1,0.8-0.3,1.1-0.4c0.3-0.1,0.5-0.2,0.7-0.2c0.1,0,0.2,0,0.3,0.1c0.1,0,0.1,0.1,0.2,0.2  c0,0.1,0.1,0.3,0.1,0.5c0,0.2,0,0.5,0,0.8c0,0.3,0,0.5,0,0.7c0,0.2,0,0.4-0.1,0.5c0,0.1-0.1,0.3-0.1,0.3c-0.1,0.1-0.1,0.2-0.2,0.3  c-0.1,0.1-0.3,0.2-0.7,0.4c-0.4,0.2-0.8,0.3-1.4,0.4c-0.6,0.1-1.2,0.3-1.9,0.4c-0.7,0.1-1.5,0.2-2.3,0.2c-1.5,0-2.8-0.2-3.9-0.6  c-1.1-0.4-2.1-0.9-2.8-1.7c-0.8-0.8-1.3-1.7-1.7-2.9c-0.4-1.2-0.6-2.5-0.6-4.1c0-1.5,0.2-2.8,0.6-4c0.4-1.2,1-2.2,1.7-3  c0.7-0.8,1.6-1.5,2.7-1.9c1.1-0.4,2.3-0.7,3.6-0.7c1.4,0,2.6,0.2,3.6,0.6c1,0.4,1.8,1,2.5,1.7c0.6,0.7,1.1,1.6,1.4,2.6  c0.3,1,0.5,2.1,0.5,3.3V268.2z M226.8,266.8c0-1.3-0.2-2.4-0.8-3.1c-0.6-0.8-1.5-1.1-2.6-1.1c-0.6,0-1.1,0.1-1.6,0.3  c-0.4,0.2-0.8,0.5-1.1,0.9c-0.3,0.4-0.5,0.8-0.7,1.4c-0.2,0.5-0.2,1.1-0.3,1.7H226.8z M246.3,261.8c0,0.5,0,0.8,0,1.1  c0,0.3-0.1,0.5-0.1,0.7c-0.1,0.2-0.1,0.3-0.2,0.3c-0.1,0.1-0.2,0.1-0.3,0.1c-0.1,0-0.2,0-0.3-0.1c-0.1,0-0.3-0.1-0.4-0.1  c-0.2,0-0.3-0.1-0.5-0.1c-0.2,0-0.4-0.1-0.6-0.1c-0.3,0-0.5,0.1-0.8,0.2c-0.3,0.1-0.5,0.3-0.8,0.5c-0.3,0.2-0.6,0.5-0.9,0.9  c-0.3,0.4-0.6,0.8-1,1.4V277c0,0.1,0,0.2-0.1,0.3c-0.1,0.1-0.2,0.2-0.4,0.2c-0.2,0.1-0.4,0.1-0.7,0.1c-0.3,0-0.7,0-1.1,0  c-0.5,0-0.8,0-1.1,0c-0.3,0-0.5-0.1-0.7-0.1c-0.2-0.1-0.3-0.1-0.4-0.2c-0.1-0.1-0.1-0.2-0.1-0.3v-16.8c0-0.1,0-0.2,0.1-0.3  c0.1-0.1,0.2-0.2,0.3-0.2c0.2-0.1,0.4-0.1,0.6-0.1c0.3,0,0.6,0,1,0c0.4,0,0.7,0,1,0c0.3,0,0.5,0.1,0.6,0.1c0.1,0.1,0.2,0.1,0.3,0.2  c0.1,0.1,0.1,0.2,0.1,0.3v2.1c0.4-0.6,0.9-1.1,1.2-1.6c0.4-0.4,0.8-0.7,1.1-1c0.4-0.2,0.7-0.4,1.1-0.5c0.4-0.1,0.7-0.1,1.1-0.1  c0.2,0,0.3,0,0.5,0c0.2,0,0.4,0.1,0.6,0.1c0.2,0,0.4,0.1,0.5,0.2c0.2,0.1,0.3,0.1,0.3,0.2c0.1,0.1,0.1,0.1,0.2,0.2  c0,0.1,0.1,0.2,0.1,0.3c0,0.1,0,0.3,0.1,0.6C246.3,261,246.3,261.4,246.3,261.8z M264.4,268.2c0,0.6-0.1,1-0.4,1.3  c-0.3,0.3-0.6,0.4-1.1,0.4h-10.2c0,0.7,0.1,1.4,0.3,1.9c0.2,0.6,0.4,1.1,0.8,1.5c0.4,0.4,0.8,0.7,1.4,0.9c0.6,0.2,1.3,0.3,2.1,0.3  c0.8,0,1.6-0.1,2.2-0.2c0.6-0.1,1.2-0.3,1.6-0.4c0.5-0.1,0.8-0.3,1.1-0.4c0.3-0.1,0.5-0.2,0.7-0.2c0.1,0,0.2,0,0.3,0.1  c0.1,0,0.1,0.1,0.2,0.2c0,0.1,0.1,0.3,0.1,0.5c0,0.2,0,0.5,0,0.8c0,0.3,0,0.5,0,0.7c0,0.2,0,0.4-0.1,0.5c0,0.1-0.1,0.3-0.1,0.3  c-0.1,0.1-0.1,0.2-0.2,0.3c-0.1,0.1-0.3,0.2-0.7,0.4c-0.4,0.2-0.8,0.3-1.4,0.4c-0.6,0.1-1.2,0.3-1.9,0.4c-0.7,0.1-1.5,0.2-2.3,0.2  c-1.5,0-2.8-0.2-3.9-0.6c-1.1-0.4-2.1-0.9-2.8-1.7c-0.8-0.8-1.3-1.7-1.7-2.9c-0.4-1.2-0.6-2.5-0.6-4.1c0-1.5,0.2-2.8,0.6-4  c0.4-1.2,1-2.2,1.7-3c0.7-0.8,1.6-1.5,2.7-1.9c1.1-0.4,2.3-0.7,3.6-0.7c1.4,0,2.6,0.2,3.6,0.6c1,0.4,1.8,1,2.5,1.7  c0.6,0.7,1.1,1.6,1.4,2.6c0.3,1,0.5,2.1,0.5,3.3V268.2z M259.9,266.8c0-1.3-0.2-2.4-0.8-3.1c-0.6-0.8-1.5-1.1-2.6-1.1  c-0.6,0-1.1,0.1-1.6,0.3c-0.4,0.2-0.8,0.5-1.1,0.9c-0.3,0.4-0.5,0.8-0.7,1.4c-0.2,0.5-0.2,1.1-0.3,1.7H259.9z M282.8,277.1  c0,0.2-0.1,0.3-0.2,0.4c-0.1,0.1-0.3,0.2-0.6,0.2c-0.3,0-0.7,0.1-1.2,0.1c-0.6,0-1,0-1.2-0.1c-0.3,0-0.4-0.1-0.5-0.2  c-0.1-0.1-0.2-0.2-0.2-0.4v-1.3c-0.7,0.7-1.5,1.3-2.4,1.7c-0.9,0.4-1.9,0.6-2.9,0.6c-0.9,0-1.7-0.1-2.5-0.3c-0.7-0.2-1.4-0.6-1.9-1  c-0.5-0.5-1-1-1.3-1.7c-0.3-0.7-0.5-1.5-0.5-2.4c0-1,0.2-1.8,0.6-2.5c0.4-0.7,1-1.3,1.7-1.8c0.8-0.5,1.7-0.8,2.8-1  c1.1-0.2,2.4-0.3,3.9-0.3h1.6v-1c0-0.5-0.1-1-0.2-1.4c-0.1-0.4-0.3-0.7-0.5-1c-0.2-0.3-0.6-0.5-1-0.6c-0.4-0.1-0.9-0.2-1.5-0.2  c-0.8,0-1.5,0.1-2.1,0.3c-0.6,0.2-1.2,0.4-1.6,0.6c-0.5,0.2-0.9,0.4-1.2,0.6c-0.3,0.2-0.6,0.3-0.8,0.3c-0.1,0-0.3,0-0.4-0.1  c-0.1-0.1-0.2-0.2-0.3-0.4c-0.1-0.2-0.1-0.4-0.2-0.6c0-0.2-0.1-0.5-0.1-0.8c0-0.4,0-0.7,0.1-0.9c0.1-0.2,0.2-0.4,0.4-0.6  c0.2-0.2,0.5-0.4,0.9-0.6c0.4-0.2,1-0.4,1.5-0.6c0.6-0.2,1.2-0.3,1.9-0.5c0.7-0.1,1.4-0.2,2.2-0.2c1.3,0,2.4,0.1,3.4,0.4  c0.9,0.3,1.7,0.7,2.3,1.2c0.6,0.5,1,1.2,1.3,2.1c0.3,0.8,0.4,1.8,0.4,3V277.1z M278.2,269.9h-1.8c-0.8,0-1.4,0.1-2,0.2  c-0.5,0.1-1,0.3-1.3,0.5c-0.3,0.2-0.6,0.5-0.7,0.8c-0.2,0.3-0.2,0.7-0.2,1.1c0,0.7,0.2,1.3,0.7,1.7c0.4,0.4,1.1,0.6,1.9,0.6  c0.7,0,1.3-0.2,1.8-0.5c0.6-0.3,1.1-0.8,1.7-1.5V269.9z M302.6,260.2c0,0.1,0,0.1,0,0.2c0,0.1,0,0.2,0,0.3c0,0.1,0,0.2-0.1,0.4  c0,0.1-0.1,0.3-0.1,0.5l-5,15.2c-0.1,0.2-0.1,0.4-0.3,0.5c-0.1,0.1-0.3,0.2-0.5,0.3c-0.2,0.1-0.6,0.1-1,0.2c-0.4,0-1,0-1.6,0  c-0.7,0-1.2,0-1.6,0c-0.4,0-0.7-0.1-1-0.2c-0.2-0.1-0.4-0.2-0.5-0.3c-0.1-0.1-0.2-0.3-0.3-0.5l-5-15.2c-0.1-0.3-0.1-0.5-0.2-0.7  c0-0.2-0.1-0.3-0.1-0.4c0-0.1,0-0.2,0-0.2c0-0.1,0-0.2,0.1-0.3c0.1-0.1,0.2-0.2,0.4-0.2c0.2-0.1,0.4-0.1,0.7-0.1c0.3,0,0.7,0,1.2,0  c0.5,0,0.9,0,1.2,0c0.3,0,0.6,0.1,0.7,0.1c0.2,0.1,0.3,0.1,0.4,0.2c0.1,0.1,0.1,0.2,0.2,0.4l3.8,12.3l0.1,0.5l0.1-0.5l3.8-12.3  c0-0.2,0.1-0.3,0.2-0.4c0.1-0.1,0.2-0.2,0.4-0.2c0.2-0.1,0.4-0.1,0.7-0.1c0.3,0,0.7,0,1.2,0c0.5,0,0.8,0,1.1,0  c0.3,0,0.5,0.1,0.7,0.1c0.2,0.1,0.3,0.1,0.3,0.2C302.6,260,302.6,260.1,302.6,260.2z M320.7,268.2c0,0.6-0.1,1-0.4,1.3  c-0.3,0.3-0.6,0.4-1.1,0.4h-10.2c0,0.7,0.1,1.4,0.3,1.9c0.2,0.6,0.4,1.1,0.8,1.5c0.4,0.4,0.8,0.7,1.4,0.9c0.6,0.2,1.3,0.3,2.1,0.3  c0.8,0,1.6-0.1,2.2-0.2c0.6-0.1,1.2-0.3,1.6-0.4c0.5-0.1,0.8-0.3,1.1-0.4c0.3-0.1,0.5-0.2,0.7-0.2c0.1,0,0.2,0,0.3,0.1  c0.1,0,0.1,0.1,0.2,0.2c0,0.1,0.1,0.3,0.1,0.5c0,0.2,0,0.5,0,0.8c0,0.3,0,0.5,0,0.7c0,0.2,0,0.4-0.1,0.5c0,0.1-0.1,0.3-0.1,0.3  c-0.1,0.1-0.1,0.2-0.2,0.3c-0.1,0.1-0.3,0.2-0.7,0.4c-0.4,0.2-0.8,0.3-1.4,0.4c-0.6,0.1-1.2,0.3-1.9,0.4c-0.7,0.1-1.5,0.2-2.3,0.2  c-1.5,0-2.8-0.2-3.9-0.6c-1.1-0.4-2.1-0.9-2.8-1.7c-0.8-0.8-1.3-1.7-1.7-2.9c-0.4-1.2-0.6-2.5-0.6-4.1c0-1.5,0.2-2.8,0.6-4  c0.4-1.2,1-2.2,1.7-3c0.7-0.8,1.6-1.5,2.7-1.9c1.1-0.4,2.3-0.7,3.6-0.7c1.4,0,2.6,0.2,3.6,0.6c1,0.4,1.8,1,2.5,1.7  c0.6,0.7,1.1,1.6,1.4,2.6c0.3,1,0.5,2.1,0.5,3.3V268.2z M316.1,266.8c0-1.3-0.2-2.4-0.8-3.1c-0.6-0.8-1.5-1.1-2.6-1.1  c-0.6,0-1.1,0.1-1.6,0.3c-0.4,0.2-0.8,0.5-1.1,0.9c-0.3,0.4-0.5,0.8-0.7,1.4c-0.2,0.5-0.2,1.1-0.3,1.7H316.1z M340.7,277  c0,0.1,0,0.3-0.1,0.3c-0.1,0.1-0.2,0.2-0.3,0.2c-0.2,0.1-0.4,0.1-0.6,0.1c-0.3,0-0.6,0-0.9,0c-0.4,0-0.7,0-1,0  c-0.3,0-0.5-0.1-0.6-0.1c-0.2-0.1-0.3-0.1-0.3-0.2c-0.1-0.1-0.1-0.2-0.1-0.3v-1.9c-0.9,0.9-1.8,1.6-2.7,2.2c-0.9,0.5-2,0.8-3.1,0.8  c-1.3,0-2.4-0.2-3.2-0.7c-0.9-0.5-1.6-1.2-2.2-2c-0.6-0.8-1-1.8-1.2-2.9c-0.3-1.1-0.4-2.3-0.4-3.5c0-1.5,0.2-2.8,0.5-4  c0.3-1.2,0.8-2.2,1.4-3c0.6-0.8,1.4-1.5,2.3-1.9c0.9-0.5,2-0.7,3.2-0.7c0.9,0,1.8,0.2,2.6,0.6c0.8,0.4,1.5,0.9,2.3,1.7v-9.1  c0-0.1,0-0.2,0.1-0.3c0.1-0.1,0.2-0.2,0.4-0.3c0.2-0.1,0.4-0.1,0.7-0.2c0.3,0,0.7-0.1,1.1-0.1c0.5,0,0.8,0,1.1,0.1  c0.3,0,0.5,0.1,0.7,0.2c0.2,0.1,0.3,0.2,0.4,0.3c0.1,0.1,0.1,0.2,0.1,0.3V277z M336,265.8c-0.7-0.9-1.3-1.5-1.9-2  c-0.6-0.5-1.3-0.7-1.9-0.7c-0.6,0-1.1,0.2-1.6,0.5c-0.4,0.3-0.8,0.7-1.1,1.2c-0.3,0.5-0.5,1.1-0.6,1.7c-0.1,0.6-0.2,1.3-0.2,1.9  c0,0.7,0.1,1.4,0.2,2c0.1,0.7,0.3,1.3,0.6,1.8c0.3,0.5,0.6,0.9,1,1.3c0.4,0.3,1,0.5,1.6,0.5c0.3,0,0.6,0,0.9-0.1  c0.3-0.1,0.6-0.2,0.9-0.5c0.3-0.2,0.6-0.5,1-0.8c0.3-0.3,0.7-0.8,1.1-1.3V265.8z M371.4,268.4c0,1.5-0.2,2.8-0.5,4  c-0.3,1.2-0.8,2.2-1.4,3.1c-0.6,0.8-1.4,1.5-2.3,1.9c-0.9,0.5-2,0.7-3.1,0.7c-0.5,0-0.9,0-1.3-0.1c-0.4-0.1-0.8-0.2-1.2-0.4  c-0.4-0.2-0.8-0.4-1.1-0.7c-0.4-0.3-0.8-0.6-1.2-1v7.9c0,0.1,0,0.2-0.1,0.3c-0.1,0.1-0.2,0.2-0.4,0.3c-0.2,0.1-0.4,0.1-0.7,0.2  c-0.3,0-0.7,0.1-1.1,0.1c-0.5,0-0.8,0-1.1-0.1c-0.3,0-0.5-0.1-0.7-0.2c-0.2-0.1-0.3-0.2-0.4-0.3c-0.1-0.1-0.1-0.2-0.1-0.3v-23.4  c0-0.1,0-0.2,0.1-0.3c0.1-0.1,0.2-0.2,0.3-0.2c0.2-0.1,0.4-0.1,0.6-0.1c0.3,0,0.6,0,1,0c0.4,0,0.7,0,0.9,0c0.3,0,0.5,0.1,0.6,0.1  c0.2,0.1,0.3,0.1,0.3,0.2c0.1,0.1,0.1,0.2,0.1,0.3v2c0.5-0.5,1-0.9,1.4-1.3c0.5-0.4,0.9-0.7,1.4-1c0.5-0.3,1-0.4,1.5-0.6  c0.5-0.1,1.1-0.2,1.7-0.2c1.2,0,2.3,0.2,3.1,0.7c0.9,0.5,1.6,1.1,2.1,2c0.5,0.8,0.9,1.8,1.2,2.9  C371.3,265.9,371.4,267.1,371.4,268.4z M366.5,268.7c0-0.7-0.1-1.4-0.2-2.1c-0.1-0.7-0.3-1.2-0.5-1.8c-0.3-0.5-0.6-0.9-1-1.2  c-0.4-0.3-0.9-0.5-1.6-0.5c-0.3,0-0.6,0-0.9,0.1c-0.3,0.1-0.6,0.2-0.9,0.5c-0.3,0.2-0.6,0.5-1,0.8c-0.3,0.3-0.7,0.8-1.1,1.3v5.5  c0.7,0.8,1.3,1.5,1.9,1.9c0.6,0.5,1.2,0.7,1.9,0.7c0.6,0,1.1-0.2,1.6-0.5c0.4-0.3,0.8-0.7,1.1-1.2c0.3-0.5,0.5-1.1,0.6-1.7  C366.5,270,366.5,269.4,366.5,268.7z M389.7,277.1c0,0.2-0.1,0.3-0.2,0.4c-0.1,0.1-0.3,0.2-0.6,0.2c-0.3,0-0.7,0.1-1.2,0.1  c-0.6,0-1,0-1.2-0.1c-0.3,0-0.4-0.1-0.5-0.2c-0.1-0.1-0.2-0.2-0.2-0.4v-1.3c-0.7,0.7-1.5,1.3-2.4,1.7c-0.9,0.4-1.9,0.6-2.9,0.6  c-0.9,0-1.7-0.1-2.5-0.3c-0.7-0.2-1.4-0.6-1.9-1c-0.5-0.5-1-1-1.3-1.7c-0.3-0.7-0.5-1.5-0.5-2.4c0-1,0.2-1.8,0.6-2.5  c0.4-0.7,1-1.3,1.7-1.8c0.8-0.5,1.7-0.8,2.8-1c1.1-0.2,2.4-0.3,3.9-0.3h1.6v-1c0-0.5-0.1-1-0.2-1.4c-0.1-0.4-0.3-0.7-0.5-1  c-0.2-0.3-0.6-0.5-1-0.6c-0.4-0.1-0.9-0.2-1.5-0.2c-0.8,0-1.5,0.1-2.1,0.3c-0.6,0.2-1.2,0.4-1.6,0.6c-0.5,0.2-0.9,0.4-1.2,0.6  c-0.3,0.2-0.6,0.3-0.8,0.3c-0.1,0-0.3,0-0.4-0.1c-0.1-0.1-0.2-0.2-0.3-0.4c-0.1-0.2-0.1-0.4-0.2-0.6c0-0.2-0.1-0.5-0.1-0.8  c0-0.4,0-0.7,0.1-0.9c0.1-0.2,0.2-0.4,0.4-0.6c0.2-0.2,0.5-0.4,0.9-0.6c0.4-0.2,1-0.4,1.5-0.6c0.6-0.2,1.2-0.3,1.9-0.5  c0.7-0.1,1.4-0.2,2.2-0.2c1.3,0,2.4,0.1,3.4,0.4c0.9,0.3,1.7,0.7,2.3,1.2c0.6,0.5,1,1.2,1.3,2.1c0.3,0.8,0.4,1.8,0.4,3V277.1z   M385.1,269.9h-1.8c-0.8,0-1.4,0.1-2,0.2c-0.5,0.1-1,0.3-1.3,0.5c-0.3,0.2-0.6,0.5-0.7,0.8c-0.2,0.3-0.2,0.7-0.2,1.1  c0,0.7,0.2,1.3,0.7,1.7c0.4,0.4,1.1,0.6,1.9,0.6c0.7,0,1.3-0.2,1.8-0.5c0.6-0.3,1.1-0.8,1.7-1.5V269.9z M405.4,261.8  c0,0.5,0,0.8,0,1.1c0,0.3-0.1,0.5-0.1,0.7c-0.1,0.2-0.1,0.3-0.2,0.3c-0.1,0.1-0.2,0.1-0.3,0.1c-0.1,0-0.2,0-0.3-0.1  c-0.1,0-0.3-0.1-0.4-0.1c-0.2,0-0.3-0.1-0.5-0.1c-0.2,0-0.4-0.1-0.6-0.1c-0.3,0-0.5,0.1-0.8,0.2c-0.3,0.1-0.5,0.3-0.8,0.5  c-0.3,0.2-0.6,0.5-0.9,0.9c-0.3,0.4-0.6,0.8-1,1.4V277c0,0.1,0,0.2-0.1,0.3c-0.1,0.1-0.2,0.2-0.4,0.2c-0.2,0.1-0.4,0.1-0.7,0.1  c-0.3,0-0.7,0-1.1,0c-0.5,0-0.8,0-1.1,0c-0.3,0-0.5-0.1-0.7-0.1c-0.2-0.1-0.3-0.1-0.4-0.2c-0.1-0.1-0.1-0.2-0.1-0.3v-16.8  c0-0.1,0-0.2,0.1-0.3c0.1-0.1,0.2-0.2,0.3-0.2c0.2-0.1,0.4-0.1,0.6-0.1c0.3,0,0.6,0,1,0c0.4,0,0.7,0,1,0c0.3,0,0.5,0.1,0.6,0.1  c0.1,0.1,0.2,0.1,0.3,0.2c0.1,0.1,0.1,0.2,0.1,0.3v2.1c0.4-0.6,0.9-1.1,1.2-1.6c0.4-0.4,0.8-0.7,1.1-1c0.4-0.2,0.7-0.4,1.1-0.5  c0.4-0.1,0.7-0.1,1.1-0.1c0.2,0,0.3,0,0.5,0c0.2,0,0.4,0.1,0.6,0.1c0.2,0,0.4,0.1,0.5,0.2c0.2,0.1,0.3,0.1,0.3,0.2  c0.1,0.1,0.1,0.1,0.2,0.2c0,0.1,0.1,0.2,0.1,0.3c0,0.1,0,0.3,0.1,0.6C405.4,261,405.4,261.4,405.4,261.8z M423.6,268.2  c0,0.6-0.1,1-0.4,1.3c-0.3,0.3-0.6,0.4-1.1,0.4h-10.2c0,0.7,0.1,1.4,0.3,1.9c0.2,0.6,0.4,1.1,0.8,1.5c0.4,0.4,0.8,0.7,1.4,0.9  c0.6,0.2,1.3,0.3,2.1,0.3c0.8,0,1.6-0.1,2.2-0.2c0.6-0.1,1.2-0.3,1.6-0.4c0.5-0.1,0.8-0.3,1.1-0.4c0.3-0.1,0.5-0.2,0.7-0.2  c0.1,0,0.2,0,0.3,0.1c0.1,0,0.1,0.1,0.2,0.2c0,0.1,0.1,0.3,0.1,0.5c0,0.2,0,0.5,0,0.8c0,0.3,0,0.5,0,0.7c0,0.2,0,0.4-0.1,0.5  c0,0.1-0.1,0.3-0.1,0.3c-0.1,0.1-0.1,0.2-0.2,0.3c-0.1,0.1-0.3,0.2-0.7,0.4c-0.4,0.2-0.8,0.3-1.4,0.4c-0.6,0.1-1.2,0.3-1.9,0.4  c-0.7,0.1-1.5,0.2-2.3,0.2c-1.5,0-2.8-0.2-3.9-0.6c-1.1-0.4-2.1-0.9-2.8-1.7c-0.8-0.8-1.3-1.7-1.7-2.9c-0.4-1.2-0.6-2.5-0.6-4.1  c0-1.5,0.2-2.8,0.6-4c0.4-1.2,1-2.2,1.7-3c0.7-0.8,1.6-1.5,2.7-1.9c1.1-0.4,2.3-0.7,3.6-0.7c1.4,0,2.6,0.2,3.6,0.6  c1,0.4,1.8,1,2.5,1.7c0.6,0.7,1.1,1.6,1.4,2.6c0.3,1,0.5,2.1,0.5,3.3V268.2z M419,266.8c0-1.3-0.2-2.4-0.8-3.1  c-0.6-0.8-1.5-1.1-2.6-1.1c-0.6,0-1.1,0.1-1.6,0.3c-0.4,0.2-0.8,0.5-1.1,0.9c-0.3,0.4-0.5,0.8-0.7,1.4c-0.2,0.5-0.2,1.1-0.3,1.7H419  z M443.7,277c0,0.1,0,0.2-0.1,0.3c-0.1,0.1-0.2,0.2-0.4,0.2c-0.2,0.1-0.4,0.1-0.7,0.1c-0.3,0-0.7,0-1.1,0c-0.5,0-0.8,0-1.2,0  c-0.3,0-0.5-0.1-0.7-0.1c-0.2-0.1-0.3-0.1-0.4-0.2c-0.1-0.1-0.1-0.2-0.1-0.3v-9.6c0-0.8-0.1-1.5-0.2-1.9c-0.1-0.5-0.3-0.9-0.5-1.2  c-0.2-0.3-0.5-0.6-0.9-0.8c-0.4-0.2-0.8-0.3-1.3-0.3c-0.6,0-1.2,0.2-1.8,0.7c-0.6,0.4-1.3,1.1-1.9,1.9V277c0,0.1,0,0.2-0.1,0.3  c-0.1,0.1-0.2,0.2-0.4,0.2c-0.2,0.1-0.4,0.1-0.7,0.1c-0.3,0-0.7,0-1.1,0c-0.5,0-0.8,0-1.1,0c-0.3,0-0.5-0.1-0.7-0.1  c-0.2-0.1-0.3-0.1-0.4-0.2c-0.1-0.1-0.1-0.2-0.1-0.3v-16.8c0-0.1,0-0.2,0.1-0.3c0.1-0.1,0.2-0.2,0.3-0.2c0.2-0.1,0.4-0.1,0.6-0.1  c0.3,0,0.6,0,1,0c0.4,0,0.7,0,1,0c0.3,0,0.5,0.1,0.6,0.1c0.1,0.1,0.2,0.1,0.3,0.2c0.1,0.1,0.1,0.2,0.1,0.3v1.9  c0.9-1,1.9-1.8,2.8-2.3c1-0.5,2-0.8,3-0.8c1.1,0,2.1,0.2,2.9,0.6c0.8,0.4,1.4,0.9,1.9,1.5c0.5,0.6,0.8,1.4,1,2.3  c0.2,0.9,0.3,1.9,0.3,3.1V277z M458.1,275.4c0,0.6,0,1-0.1,1.3c-0.1,0.3-0.2,0.5-0.3,0.6c-0.1,0.1-0.3,0.2-0.5,0.3  c-0.2,0.1-0.5,0.2-0.8,0.2c-0.3,0.1-0.6,0.1-1,0.2c-0.3,0-0.7,0.1-1,0.1c-0.9,0-1.8-0.1-2.4-0.4c-0.7-0.2-1.3-0.6-1.7-1.1  c-0.5-0.5-0.8-1.1-1-1.9c-0.2-0.8-0.3-1.6-0.3-2.7v-8.6h-2c-0.2,0-0.4-0.1-0.5-0.4c-0.1-0.3-0.2-0.8-0.2-1.5c0-0.4,0-0.7,0-0.9  c0-0.3,0.1-0.4,0.1-0.6c0.1-0.1,0.1-0.2,0.2-0.3c0.1-0.1,0.2-0.1,0.3-0.1h2v-3.7c0-0.1,0-0.2,0.1-0.3c0.1-0.1,0.2-0.2,0.4-0.3  c0.2-0.1,0.4-0.1,0.7-0.2c0.3,0,0.7,0,1.1,0c0.5,0,0.8,0,1.2,0c0.3,0,0.5,0.1,0.7,0.2c0.2,0.1,0.3,0.2,0.4,0.3  c0.1,0.1,0.1,0.2,0.1,0.3v3.7h3.6c0.1,0,0.2,0,0.3,0.1c0.1,0.1,0.2,0.2,0.2,0.3c0.1,0.1,0.1,0.3,0.1,0.6c0,0.3,0,0.6,0,0.9  c0,0.7-0.1,1.2-0.2,1.5c-0.1,0.3-0.3,0.4-0.5,0.4h-3.7v7.9c0,0.9,0.1,1.6,0.4,2.1c0.3,0.5,0.8,0.7,1.5,0.7c0.3,0,0.5,0,0.7-0.1  c0.2,0,0.4-0.1,0.5-0.2c0.2-0.1,0.3-0.1,0.4-0.2c0.1,0,0.2-0.1,0.3-0.1c0.1,0,0.1,0,0.2,0.1c0.1,0,0.1,0.1,0.2,0.3  c0,0.1,0.1,0.3,0.1,0.5C458.1,274.7,458.1,275,458.1,275.4z M473.5,272.3c0,1-0.2,1.8-0.5,2.5c-0.4,0.7-0.9,1.3-1.5,1.8  c-0.7,0.5-1.4,0.9-2.3,1.1c-0.9,0.2-1.9,0.4-2.9,0.4c-0.6,0-1.2,0-1.8-0.1c-0.6-0.1-1.1-0.2-1.5-0.4c-0.5-0.1-0.8-0.3-1.1-0.4  c-0.3-0.2-0.5-0.3-0.7-0.4c-0.1-0.1-0.2-0.3-0.3-0.6c-0.1-0.3-0.1-0.7-0.1-1.3c0-0.4,0-0.7,0-0.9c0-0.2,0.1-0.4,0.1-0.5  c0-0.1,0.1-0.2,0.2-0.3c0.1,0,0.2-0.1,0.3-0.1c0.1,0,0.3,0.1,0.6,0.2c0.3,0.2,0.6,0.3,1,0.5c0.4,0.2,0.9,0.4,1.4,0.5  c0.5,0.2,1.1,0.2,1.8,0.2c0.4,0,0.8,0,1.1-0.1c0.3-0.1,0.6-0.2,0.9-0.4c0.2-0.2,0.4-0.4,0.6-0.6c0.1-0.3,0.2-0.5,0.2-0.9  c0-0.4-0.1-0.7-0.3-1c-0.2-0.3-0.5-0.5-0.9-0.7c-0.4-0.2-0.8-0.4-1.3-0.6c-0.5-0.2-1-0.4-1.5-0.6c-0.5-0.2-1-0.5-1.5-0.7  c-0.5-0.3-0.9-0.6-1.3-1c-0.4-0.4-0.7-0.9-0.9-1.4c-0.2-0.6-0.3-1.2-0.3-2c0-0.8,0.2-1.5,0.5-2.2c0.3-0.7,0.8-1.2,1.4-1.7  c0.6-0.5,1.3-0.8,2.2-1.1c0.8-0.3,1.8-0.4,2.8-0.4c0.5,0,1,0,1.5,0.1c0.5,0.1,0.9,0.2,1.3,0.3c0.4,0.1,0.7,0.2,1,0.4  c0.3,0.1,0.5,0.2,0.6,0.3c0.1,0.1,0.2,0.2,0.3,0.3c0,0.1,0.1,0.2,0.1,0.3c0,0.1,0,0.3,0.1,0.5c0,0.2,0,0.4,0,0.7c0,0.3,0,0.6,0,0.8  c0,0.2-0.1,0.4-0.1,0.5c0,0.1-0.1,0.2-0.2,0.3c-0.1,0-0.2,0.1-0.3,0.1c-0.1,0-0.3-0.1-0.5-0.2c-0.2-0.1-0.5-0.3-0.9-0.4  c-0.4-0.2-0.8-0.3-1.2-0.4c-0.5-0.1-1-0.2-1.6-0.2c-0.4,0-0.8,0-1.1,0.1c-0.3,0.1-0.6,0.2-0.8,0.4c-0.2,0.2-0.4,0.4-0.5,0.6  c-0.1,0.2-0.2,0.5-0.2,0.7c0,0.4,0.1,0.7,0.4,1c0.2,0.3,0.6,0.5,0.9,0.7c0.4,0.2,0.8,0.4,1.3,0.6c0.5,0.2,1,0.4,1.5,0.6  c0.5,0.2,1,0.4,1.5,0.7c0.5,0.3,0.9,0.6,1.3,1c0.4,0.4,0.7,0.9,0.9,1.4C473.4,270.9,473.5,271.5,473.5,272.3z M500.5,277.1  c0,0.2-0.1,0.3-0.2,0.4c-0.1,0.1-0.3,0.2-0.6,0.2c-0.3,0-0.7,0.1-1.2,0.1c-0.6,0-1,0-1.2-0.1c-0.3,0-0.4-0.1-0.5-0.2  c-0.1-0.1-0.2-0.2-0.2-0.4v-1.3c-0.7,0.7-1.5,1.3-2.4,1.7c-0.9,0.4-1.9,0.6-2.9,0.6c-0.9,0-1.7-0.1-2.5-0.3c-0.7-0.2-1.4-0.6-1.9-1  c-0.5-0.5-1-1-1.3-1.7c-0.3-0.7-0.5-1.5-0.5-2.4c0-1,0.2-1.8,0.6-2.5c0.4-0.7,1-1.3,1.7-1.8c0.8-0.5,1.7-0.8,2.8-1  c1.1-0.2,2.4-0.3,3.9-0.3h1.6v-1c0-0.5-0.1-1-0.2-1.4c-0.1-0.4-0.3-0.7-0.5-1c-0.2-0.3-0.6-0.5-1-0.6c-0.4-0.1-0.9-0.2-1.5-0.2  c-0.8,0-1.5,0.1-2.1,0.3c-0.6,0.2-1.2,0.4-1.6,0.6c-0.5,0.2-0.9,0.4-1.2,0.6c-0.3,0.2-0.6,0.3-0.8,0.3c-0.1,0-0.3,0-0.4-0.1  c-0.1-0.1-0.2-0.2-0.3-0.4c-0.1-0.2-0.1-0.4-0.2-0.6c0-0.2-0.1-0.5-0.1-0.8c0-0.4,0-0.7,0.1-0.9c0.1-0.2,0.2-0.4,0.4-0.6  c0.2-0.2,0.5-0.4,0.9-0.6c0.4-0.2,1-0.4,1.5-0.6c0.6-0.2,1.2-0.3,1.9-0.5c0.7-0.1,1.4-0.2,2.2-0.2c1.3,0,2.4,0.1,3.4,0.4  c0.9,0.3,1.7,0.7,2.3,1.2c0.6,0.5,1,1.2,1.3,2.1c0.3,0.8,0.4,1.8,0.4,3V277.1z M495.8,269.9H494c-0.8,0-1.4,0.1-2,0.2  c-0.5,0.1-1,0.3-1.3,0.5c-0.3,0.2-0.6,0.5-0.7,0.8c-0.2,0.3-0.2,0.7-0.2,1.1c0,0.7,0.2,1.3,0.7,1.7c0.4,0.4,1.1,0.6,1.9,0.6  c0.7,0,1.3-0.2,1.8-0.5c0.6-0.3,1.1-0.8,1.7-1.5V269.9z M521.4,277c0,0.1,0,0.2-0.1,0.3c-0.1,0.1-0.2,0.2-0.4,0.2  c-0.2,0.1-0.4,0.1-0.7,0.1c-0.3,0-0.7,0-1.1,0c-0.5,0-0.8,0-1.2,0c-0.3,0-0.5-0.1-0.7-0.1c-0.2-0.1-0.3-0.1-0.4-0.2  c-0.1-0.1-0.1-0.2-0.1-0.3v-9.6c0-0.8-0.1-1.5-0.2-1.9c-0.1-0.5-0.3-0.9-0.5-1.2c-0.2-0.3-0.5-0.6-0.9-0.8c-0.4-0.2-0.8-0.3-1.3-0.3  c-0.6,0-1.2,0.2-1.8,0.7c-0.6,0.4-1.3,1.1-1.9,1.9V277c0,0.1,0,0.2-0.1,0.3c-0.1,0.1-0.2,0.2-0.4,0.2c-0.2,0.1-0.4,0.1-0.7,0.1  c-0.3,0-0.7,0-1.1,0c-0.5,0-0.8,0-1.1,0c-0.3,0-0.5-0.1-0.7-0.1c-0.2-0.1-0.3-0.1-0.4-0.2c-0.1-0.1-0.1-0.2-0.1-0.3v-16.8  c0-0.1,0-0.2,0.1-0.3c0.1-0.1,0.2-0.2,0.3-0.2c0.2-0.1,0.4-0.1,0.6-0.1c0.3,0,0.6,0,1,0c0.4,0,0.7,0,1,0c0.3,0,0.5,0.1,0.6,0.1  c0.1,0.1,0.2,0.1,0.3,0.2c0.1,0.1,0.1,0.2,0.1,0.3v1.9c0.9-1,1.9-1.8,2.8-2.3c1-0.5,2-0.8,3-0.8c1.1,0,2.1,0.2,2.9,0.6  c0.8,0.4,1.4,0.9,1.9,1.5c0.5,0.6,0.8,1.4,1,2.3c0.2,0.9,0.3,1.9,0.3,3.1V277z M542.2,277c0,0.1,0,0.3-0.1,0.3  c-0.1,0.1-0.2,0.2-0.3,0.2c-0.2,0.1-0.4,0.1-0.6,0.1c-0.3,0-0.6,0-0.9,0c-0.4,0-0.7,0-1,0c-0.3,0-0.5-0.1-0.6-0.1  c-0.2-0.1-0.3-0.1-0.3-0.2c-0.1-0.1-0.1-0.2-0.1-0.3v-1.9c-0.9,0.9-1.8,1.6-2.7,2.2c-0.9,0.5-2,0.8-3.1,0.8c-1.3,0-2.4-0.2-3.2-0.7  c-0.9-0.5-1.6-1.2-2.2-2c-0.6-0.8-1-1.8-1.2-2.9c-0.3-1.1-0.4-2.3-0.4-3.5c0-1.5,0.2-2.8,0.5-4c0.3-1.2,0.8-2.2,1.4-3  c0.6-0.8,1.4-1.5,2.3-1.9c0.9-0.5,2-0.7,3.2-0.7c0.9,0,1.8,0.2,2.6,0.6c0.8,0.4,1.5,0.9,2.3,1.7v-9.1c0-0.1,0-0.2,0.1-0.3  c0.1-0.1,0.2-0.2,0.4-0.3c0.2-0.1,0.4-0.1,0.7-0.2c0.3,0,0.7-0.1,1.1-0.1c0.5,0,0.8,0,1.1,0.1c0.3,0,0.5,0.1,0.7,0.2  c0.2,0.1,0.3,0.2,0.4,0.3c0.1,0.1,0.1,0.2,0.1,0.3V277z M537.5,265.8c-0.7-0.9-1.3-1.5-1.9-2c-0.6-0.5-1.3-0.7-1.9-0.7  c-0.6,0-1.1,0.2-1.6,0.5c-0.4,0.3-0.8,0.7-1.1,1.2c-0.3,0.5-0.5,1.1-0.6,1.7c-0.1,0.6-0.2,1.3-0.2,1.9c0,0.7,0.1,1.4,0.2,2  c0.1,0.7,0.3,1.3,0.6,1.8c0.3,0.5,0.6,0.9,1,1.3c0.4,0.3,1,0.5,1.6,0.5c0.3,0,0.6,0,0.9-0.1c0.3-0.1,0.6-0.2,0.9-0.5  c0.3-0.2,0.6-0.5,1-0.8c0.3-0.3,0.7-0.8,1.1-1.3V265.8z M566,275.4c0,0.6,0,1-0.1,1.3c-0.1,0.3-0.2,0.5-0.3,0.6  c-0.1,0.1-0.3,0.2-0.5,0.3c-0.2,0.1-0.5,0.2-0.8,0.2c-0.3,0.1-0.6,0.1-1,0.2c-0.3,0-0.7,0.1-1,0.1c-0.9,0-1.8-0.1-2.4-0.4  c-0.7-0.2-1.3-0.6-1.7-1.1c-0.5-0.5-0.8-1.1-1-1.9c-0.2-0.8-0.3-1.6-0.3-2.7v-8.6h-2c-0.2,0-0.4-0.1-0.5-0.4  c-0.1-0.3-0.2-0.8-0.2-1.5c0-0.4,0-0.7,0-0.9c0-0.3,0.1-0.4,0.1-0.6c0.1-0.1,0.1-0.2,0.2-0.3c0.1-0.1,0.2-0.1,0.3-0.1h2v-3.7  c0-0.1,0-0.2,0.1-0.3c0.1-0.1,0.2-0.2,0.4-0.3c0.2-0.1,0.4-0.1,0.7-0.2c0.3,0,0.7,0,1.1,0c0.5,0,0.8,0,1.2,0c0.3,0,0.5,0.1,0.7,0.2  c0.2,0.1,0.3,0.2,0.4,0.3c0.1,0.1,0.1,0.2,0.1,0.3v3.7h3.6c0.1,0,0.2,0,0.3,0.1c0.1,0.1,0.2,0.2,0.2,0.3c0.1,0.1,0.1,0.3,0.1,0.6  c0,0.3,0,0.6,0,0.9c0,0.7-0.1,1.2-0.2,1.5c-0.1,0.3-0.3,0.4-0.5,0.4h-3.7v7.9c0,0.9,0.1,1.6,0.4,2.1c0.3,0.5,0.8,0.7,1.5,0.7  c0.3,0,0.5,0,0.7-0.1c0.2,0,0.4-0.1,0.5-0.2c0.2-0.1,0.3-0.1,0.4-0.2c0.1,0,0.2-0.1,0.3-0.1c0.1,0,0.1,0,0.2,0.1  c0.1,0,0.1,0.1,0.2,0.3c0,0.1,0.1,0.3,0.1,0.5C565.9,274.7,566,275,566,275.4z M585.6,277c0,0.1,0,0.2-0.1,0.3s-0.2,0.2-0.4,0.2  c-0.2,0.1-0.4,0.1-0.7,0.1c-0.3,0-0.7,0-1.1,0c-0.5,0-0.8,0-1.2,0c-0.3,0-0.5-0.1-0.7-0.1c-0.2-0.1-0.3-0.1-0.4-0.2  c-0.1-0.1-0.1-0.2-0.1-0.3v-9.6c0-0.8-0.1-1.5-0.2-1.9c-0.1-0.5-0.3-0.9-0.5-1.2c-0.2-0.3-0.5-0.6-0.9-0.8c-0.4-0.2-0.8-0.3-1.3-0.3  c-0.6,0-1.2,0.2-1.8,0.7c-0.6,0.4-1.3,1.1-1.9,1.9V277c0,0.1,0,0.2-0.1,0.3c-0.1,0.1-0.2,0.2-0.4,0.2c-0.2,0.1-0.4,0.1-0.7,0.1  c-0.3,0-0.7,0-1.1,0c-0.5,0-0.8,0-1.1,0c-0.3,0-0.5-0.1-0.7-0.1c-0.2-0.1-0.3-0.1-0.4-0.2s-0.1-0.2-0.1-0.3v-24.7  c0-0.1,0-0.2,0.1-0.3c0.1-0.1,0.2-0.2,0.4-0.3c0.2-0.1,0.4-0.1,0.7-0.2c0.3,0,0.7-0.1,1.1-0.1c0.5,0,0.8,0,1.1,0.1  c0.3,0,0.5,0.1,0.7,0.2c0.2,0.1,0.3,0.2,0.4,0.3c0.1,0.1,0.1,0.2,0.1,0.3v9.3c0.8-0.8,1.6-1.4,2.5-1.8c0.8-0.4,1.7-0.6,2.6-0.6  c1.1,0,2.1,0.2,2.9,0.6c0.8,0.4,1.4,0.9,1.9,1.5c0.5,0.7,0.8,1.4,1,2.3c0.2,0.9,0.3,1.9,0.3,3.2V277z M605.9,268.2  c0,0.6-0.1,1-0.4,1.3c-0.3,0.3-0.6,0.4-1.1,0.4h-10.2c0,0.7,0.1,1.4,0.3,1.9c0.2,0.6,0.4,1.1,0.8,1.5c0.4,0.4,0.8,0.7,1.4,0.9  c0.6,0.2,1.3,0.3,2.1,0.3c0.8,0,1.6-0.1,2.2-0.2c0.6-0.1,1.2-0.3,1.6-0.4c0.5-0.1,0.8-0.3,1.1-0.4c0.3-0.1,0.5-0.2,0.7-0.2  c0.1,0,0.2,0,0.3,0.1c0.1,0,0.1,0.1,0.2,0.2c0,0.1,0.1,0.3,0.1,0.5c0,0.2,0,0.5,0,0.8c0,0.3,0,0.5,0,0.7c0,0.2,0,0.4-0.1,0.5  c0,0.1-0.1,0.3-0.1,0.3c-0.1,0.1-0.1,0.2-0.2,0.3c-0.1,0.1-0.3,0.2-0.7,0.4c-0.4,0.2-0.8,0.3-1.4,0.4c-0.6,0.1-1.2,0.3-1.9,0.4  c-0.7,0.1-1.5,0.2-2.3,0.2c-1.5,0-2.8-0.2-3.9-0.6c-1.1-0.4-2.1-0.9-2.8-1.7c-0.8-0.8-1.3-1.7-1.7-2.9c-0.4-1.2-0.6-2.5-0.6-4.1  c0-1.5,0.2-2.8,0.6-4c0.4-1.2,1-2.2,1.7-3c0.7-0.8,1.6-1.5,2.7-1.9c1.1-0.4,2.3-0.7,3.6-0.7c1.4,0,2.6,0.2,3.6,0.6  c1,0.4,1.8,1,2.5,1.7c0.6,0.7,1.1,1.6,1.4,2.6c0.3,1,0.5,2.1,0.5,3.3V268.2z M601.4,266.8c0-1.3-0.2-2.4-0.8-3.1  c-0.6-0.8-1.5-1.1-2.6-1.1c-0.6,0-1.1,0.1-1.6,0.3c-0.4,0.2-0.8,0.5-1.1,0.9c-0.3,0.4-0.5,0.8-0.7,1.4c-0.2,0.5-0.2,1.1-0.3,1.7  H601.4z M615.1,254.6c0,1-0.2,1.6-0.6,2c-0.4,0.4-1.1,0.5-2.2,0.5c-1.1,0-1.8-0.2-2.2-0.5c-0.4-0.4-0.6-1-0.6-1.9c0-1,0.2-1.6,0.6-2  c0.4-0.4,1.1-0.6,2.2-0.6c1.1,0,1.8,0.2,2.1,0.5C614.9,253,615.1,253.7,615.1,254.6z M614.8,277c0,0.1,0,0.2-0.1,0.3  c-0.1,0.1-0.2,0.2-0.4,0.2c-0.2,0.1-0.4,0.1-0.7,0.1c-0.3,0-0.7,0-1.1,0c-0.5,0-0.8,0-1.1,0c-0.3,0-0.5-0.1-0.7-0.1  c-0.2-0.1-0.3-0.1-0.4-0.2s-0.1-0.2-0.1-0.3v-16.7c0-0.1,0-0.2,0.1-0.3c0.1-0.1,0.2-0.2,0.4-0.2c0.2-0.1,0.4-0.1,0.7-0.2  c0.3,0,0.7-0.1,1.1-0.1c0.5,0,0.8,0,1.1,0.1c0.3,0,0.5,0.1,0.7,0.2c0.2,0.1,0.3,0.2,0.4,0.2c0.1,0.1,0.1,0.2,0.1,0.3V277z   M630.5,261.8c0,0.5,0,0.8,0,1.1c0,0.3-0.1,0.5-0.1,0.7c-0.1,0.2-0.1,0.3-0.2,0.3c-0.1,0.1-0.2,0.1-0.3,0.1c-0.1,0-0.2,0-0.3-0.1  c-0.1,0-0.3-0.1-0.4-0.1c-0.2,0-0.3-0.1-0.5-0.1c-0.2,0-0.4-0.1-0.6-0.1c-0.3,0-0.5,0.1-0.8,0.2c-0.3,0.1-0.5,0.3-0.8,0.5  c-0.3,0.2-0.6,0.5-0.9,0.9c-0.3,0.4-0.6,0.8-1,1.4V277c0,0.1,0,0.2-0.1,0.3c-0.1,0.1-0.2,0.2-0.4,0.2c-0.2,0.1-0.4,0.1-0.7,0.1  c-0.3,0-0.7,0-1.1,0c-0.5,0-0.8,0-1.1,0c-0.3,0-0.5-0.1-0.7-0.1c-0.2-0.1-0.3-0.1-0.4-0.2s-0.1-0.2-0.1-0.3v-16.8  c0-0.1,0-0.2,0.1-0.3c0.1-0.1,0.2-0.2,0.3-0.2c0.2-0.1,0.4-0.1,0.6-0.1c0.3,0,0.6,0,1,0c0.4,0,0.7,0,1,0c0.3,0,0.5,0.1,0.6,0.1  c0.1,0.1,0.2,0.1,0.3,0.2c0.1,0.1,0.1,0.2,0.1,0.3v2.1c0.4-0.6,0.9-1.1,1.2-1.6c0.4-0.4,0.8-0.7,1.1-1c0.4-0.2,0.7-0.4,1.1-0.5  c0.4-0.1,0.7-0.1,1.1-0.1c0.2,0,0.3,0,0.5,0c0.2,0,0.4,0.1,0.6,0.1c0.2,0,0.4,0.1,0.5,0.2c0.2,0.1,0.3,0.1,0.3,0.2  c0.1,0.1,0.1,0.1,0.2,0.2c0,0.1,0.1,0.2,0.1,0.3c0,0.1,0,0.3,0.1,0.6C630.4,261,630.5,261.4,630.5,261.8z M652.6,253.9  c0,0.4,0,0.7,0,0.9c0,0.2-0.1,0.4-0.1,0.5c-0.1,0.1-0.1,0.2-0.2,0.2c-0.1,0-0.1,0.1-0.2,0.1c-0.1,0-0.2,0-0.3-0.1  c-0.1,0-0.2-0.1-0.4-0.1c-0.2,0-0.3-0.1-0.6-0.1c-0.2,0-0.5-0.1-0.8-0.1c-0.3,0-0.6,0.1-0.9,0.2c-0.2,0.1-0.4,0.3-0.6,0.5  c-0.2,0.2-0.3,0.5-0.4,0.9c-0.1,0.4-0.1,0.8-0.1,1.4v1.5h3.1c0.1,0,0.2,0,0.3,0.1c0.1,0.1,0.2,0.2,0.2,0.3c0.1,0.1,0.1,0.3,0.1,0.6  c0,0.3,0,0.6,0,0.9c0,0.7-0.1,1.2-0.2,1.5c-0.1,0.3-0.3,0.4-0.5,0.4h-3.1V277c0,0.1,0,0.2-0.1,0.3c-0.1,0.1-0.2,0.2-0.4,0.2  c-0.2,0.1-0.4,0.1-0.7,0.1c-0.3,0-0.7,0-1.1,0c-0.5,0-0.8,0-1.1,0c-0.3,0-0.6-0.1-0.7-0.1c-0.2-0.1-0.3-0.1-0.4-0.2  c-0.1-0.1-0.1-0.2-0.1-0.3v-13.6h-2.1c-0.2,0-0.4-0.1-0.5-0.4c-0.1-0.3-0.2-0.8-0.2-1.5c0-0.4,0-0.7,0-0.9c0-0.3,0.1-0.4,0.1-0.6  c0.1-0.1,0.1-0.2,0.2-0.3c0.1-0.1,0.2-0.1,0.3-0.1h2.1v-1.4c0-1.1,0.1-2.1,0.3-3c0.2-0.9,0.6-1.6,1.1-2.1c0.5-0.6,1.1-1,1.8-1.3  c0.7-0.3,1.6-0.4,2.6-0.4c0.5,0,1,0,1.4,0.1c0.4,0.1,0.8,0.2,1,0.3c0.3,0.1,0.4,0.2,0.5,0.3c0.1,0.1,0.2,0.2,0.2,0.4  c0.1,0.2,0.1,0.4,0.1,0.6C652.5,253.2,652.6,253.5,652.6,253.9z M668.5,277.1c0,0.2-0.1,0.3-0.2,0.4c-0.1,0.1-0.3,0.2-0.6,0.2  c-0.3,0-0.7,0.1-1.2,0.1c-0.6,0-1,0-1.2-0.1c-0.3,0-0.4-0.1-0.5-0.2c-0.1-0.1-0.2-0.2-0.2-0.4v-1.3c-0.7,0.7-1.5,1.3-2.4,1.7  c-0.9,0.4-1.9,0.6-2.9,0.6c-0.9,0-1.7-0.1-2.5-0.3c-0.7-0.2-1.4-0.6-1.9-1c-0.5-0.5-1-1-1.3-1.7c-0.3-0.7-0.5-1.5-0.5-2.4  c0-1,0.2-1.8,0.6-2.5c0.4-0.7,1-1.3,1.7-1.8c0.8-0.5,1.7-0.8,2.8-1c1.1-0.2,2.4-0.3,3.9-0.3h1.6v-1c0-0.5-0.1-1-0.2-1.4  c-0.1-0.4-0.3-0.7-0.5-1c-0.2-0.3-0.6-0.5-1-0.6c-0.4-0.1-0.9-0.2-1.5-0.2c-0.8,0-1.5,0.1-2.1,0.3c-0.6,0.2-1.2,0.4-1.6,0.6  c-0.5,0.2-0.9,0.4-1.2,0.6c-0.3,0.2-0.6,0.3-0.8,0.3c-0.1,0-0.3,0-0.4-0.1c-0.1-0.1-0.2-0.2-0.3-0.4c-0.1-0.2-0.1-0.4-0.2-0.6  c0-0.2-0.1-0.5-0.1-0.8c0-0.4,0-0.7,0.1-0.9c0.1-0.2,0.2-0.4,0.4-0.6c0.2-0.2,0.5-0.4,0.9-0.6c0.4-0.2,1-0.4,1.5-0.6  c0.6-0.2,1.2-0.3,1.9-0.5c0.7-0.1,1.4-0.2,2.2-0.2c1.3,0,2.4,0.1,3.4,0.4c0.9,0.3,1.7,0.7,2.3,1.2c0.6,0.5,1,1.2,1.3,2.1  c0.3,0.8,0.4,1.8,0.4,3V277.1z M663.8,269.9H662c-0.8,0-1.4,0.1-2,0.2c-0.5,0.1-1,0.3-1.3,0.5c-0.3,0.2-0.6,0.5-0.7,0.8  c-0.2,0.3-0.2,0.7-0.2,1.1c0,0.7,0.2,1.3,0.7,1.7c0.4,0.4,1.1,0.6,1.9,0.6c0.7,0,1.3-0.2,1.8-0.5c0.6-0.3,1.1-0.8,1.7-1.5V269.9z   M700.1,277c0,0.1,0,0.2-0.1,0.3c-0.1,0.1-0.2,0.2-0.4,0.2c-0.2,0.1-0.4,0.1-0.7,0.1c-0.3,0-0.7,0-1.1,0c-0.5,0-0.9,0-1.2,0  c-0.3,0-0.5-0.1-0.7-0.1c-0.2-0.1-0.3-0.1-0.4-0.2c-0.1-0.1-0.1-0.2-0.1-0.3v-9.9c0-0.6-0.1-1.1-0.2-1.5c-0.1-0.5-0.3-0.9-0.5-1.2  c-0.2-0.3-0.5-0.6-0.8-0.8c-0.3-0.2-0.7-0.3-1.2-0.3c-0.6,0-1.1,0.2-1.7,0.7c-0.6,0.4-1.2,1.1-1.9,1.9V277c0,0.1,0,0.2-0.1,0.3  s-0.2,0.2-0.4,0.2c-0.2,0.1-0.4,0.1-0.7,0.1c-0.3,0-0.7,0-1.1,0c-0.5,0-0.8,0-1.1,0c-0.3,0-0.5-0.1-0.7-0.1  c-0.2-0.1-0.3-0.1-0.4-0.2s-0.1-0.2-0.1-0.3v-9.9c0-0.6-0.1-1.1-0.2-1.5c-0.1-0.5-0.3-0.9-0.5-1.2c-0.2-0.3-0.5-0.6-0.8-0.8  c-0.3-0.2-0.7-0.3-1.2-0.3c-0.6,0-1.2,0.2-1.7,0.7c-0.6,0.4-1.2,1.1-1.9,1.9V277c0,0.1,0,0.2-0.1,0.3s-0.2,0.2-0.4,0.2  c-0.2,0.1-0.4,0.1-0.7,0.1c-0.3,0-0.7,0-1.1,0c-0.5,0-0.8,0-1.1,0c-0.3,0-0.5-0.1-0.7-0.1c-0.2-0.1-0.3-0.1-0.4-0.2  c-0.1-0.1-0.1-0.2-0.1-0.3v-16.8c0-0.1,0-0.2,0.1-0.3c0.1-0.1,0.2-0.2,0.3-0.2c0.2-0.1,0.4-0.1,0.6-0.1c0.3,0,0.6,0,1,0  c0.4,0,0.7,0,1,0c0.3,0,0.5,0.1,0.6,0.1c0.1,0.1,0.2,0.1,0.3,0.2c0.1,0.1,0.1,0.2,0.1,0.3v1.9c0.9-1,1.9-1.8,2.8-2.3  c0.9-0.5,1.9-0.8,2.9-0.8c0.7,0,1.3,0.1,1.9,0.2c0.6,0.1,1,0.4,1.5,0.6c0.4,0.3,0.8,0.6,1.1,1c0.3,0.4,0.6,0.8,0.8,1.3  c0.5-0.5,1-1,1.5-1.4c0.5-0.4,1-0.7,1.4-0.9c0.5-0.2,0.9-0.4,1.4-0.5c0.5-0.1,0.9-0.2,1.4-0.2c1.1,0,2.1,0.2,2.8,0.6  c0.8,0.4,1.4,0.9,1.9,1.5c0.5,0.6,0.8,1.4,1,2.3c0.2,0.9,0.3,1.8,0.3,2.7V277z M710,254.6c0,1-0.2,1.6-0.6,2  c-0.4,0.4-1.1,0.5-2.2,0.5c-1.1,0-1.8-0.2-2.2-0.5c-0.4-0.4-0.6-1-0.6-1.9c0-1,0.2-1.6,0.6-2c0.4-0.4,1.1-0.6,2.2-0.6  c1.1,0,1.8,0.2,2.1,0.5C709.8,253,710,253.7,710,254.6z M709.6,277c0,0.1,0,0.2-0.1,0.3s-0.2,0.2-0.4,0.2c-0.2,0.1-0.4,0.1-0.7,0.1  c-0.3,0-0.7,0-1.1,0c-0.5,0-0.8,0-1.1,0c-0.3,0-0.5-0.1-0.7-0.1c-0.2-0.1-0.3-0.1-0.4-0.2s-0.1-0.2-0.1-0.3v-16.7  c0-0.1,0-0.2,0.1-0.3c0.1-0.1,0.2-0.2,0.4-0.2c0.2-0.1,0.4-0.1,0.7-0.2c0.3,0,0.7-0.1,1.1-0.1c0.5,0,0.8,0,1.1,0.1  c0.3,0,0.5,0.1,0.7,0.2c0.2,0.1,0.3,0.2,0.4,0.2c0.1,0.1,0.1,0.2,0.1,0.3V277z M719.3,277c0,0.1,0,0.2-0.1,0.3s-0.2,0.2-0.4,0.2  c-0.2,0.1-0.4,0.1-0.7,0.1c-0.3,0-0.7,0-1.1,0c-0.5,0-0.8,0-1.1,0c-0.3,0-0.5-0.1-0.7-0.1c-0.2-0.1-0.3-0.1-0.4-0.2  c-0.1-0.1-0.1-0.2-0.1-0.3v-24.7c0-0.1,0-0.2,0.1-0.3c0.1-0.1,0.2-0.2,0.4-0.3c0.2-0.1,0.4-0.1,0.7-0.2c0.3,0,0.7-0.1,1.1-0.1  c0.5,0,0.8,0,1.1,0.1c0.3,0,0.5,0.1,0.7,0.2c0.2,0.1,0.3,0.2,0.4,0.3c0.1,0.1,0.1,0.2,0.1,0.3V277z M729.3,254.6c0,1-0.2,1.6-0.6,2  c-0.4,0.4-1.1,0.5-2.2,0.5c-1.1,0-1.8-0.2-2.2-0.5c-0.4-0.4-0.6-1-0.6-1.9c0-1,0.2-1.6,0.6-2c0.4-0.4,1.1-0.6,2.2-0.6  c1.1,0,1.8,0.2,2.1,0.5C729.2,253,729.3,253.7,729.3,254.6z M729,277c0,0.1,0,0.2-0.1,0.3s-0.2,0.2-0.4,0.2  c-0.2,0.1-0.4,0.1-0.7,0.1c-0.3,0-0.7,0-1.1,0c-0.5,0-0.8,0-1.1,0c-0.3,0-0.5-0.1-0.7-0.1c-0.2-0.1-0.3-0.1-0.4-0.2  c-0.1-0.1-0.1-0.2-0.1-0.3v-16.7c0-0.1,0-0.2,0.1-0.3c0.1-0.1,0.2-0.2,0.4-0.2c0.2-0.1,0.4-0.1,0.7-0.2c0.3,0,0.7-0.1,1.1-0.1  c0.5,0,0.8,0,1.1,0.1c0.3,0,0.5,0.1,0.7,0.2c0.2,0.1,0.3,0.2,0.4,0.2c0.1,0.1,0.1,0.2,0.1,0.3V277z M749.4,268.2  c0,0.6-0.1,1-0.4,1.3c-0.3,0.3-0.6,0.4-1.1,0.4h-10.2c0,0.7,0.1,1.4,0.3,1.9c0.2,0.6,0.4,1.1,0.8,1.5c0.4,0.4,0.8,0.7,1.4,0.9  c0.6,0.2,1.3,0.3,2.1,0.3c0.8,0,1.6-0.1,2.2-0.2c0.6-0.1,1.2-0.3,1.6-0.4c0.5-0.1,0.8-0.3,1.1-0.4c0.3-0.1,0.5-0.2,0.7-0.2  c0.1,0,0.2,0,0.3,0.1c0.1,0,0.1,0.1,0.2,0.2c0,0.1,0.1,0.3,0.1,0.5c0,0.2,0,0.5,0,0.8c0,0.3,0,0.5,0,0.7c0,0.2,0,0.4-0.1,0.5  c0,0.1-0.1,0.3-0.1,0.3c-0.1,0.1-0.1,0.2-0.2,0.3c-0.1,0.1-0.3,0.2-0.7,0.4c-0.4,0.2-0.8,0.3-1.4,0.4c-0.6,0.1-1.2,0.3-1.9,0.4  c-0.7,0.1-1.5,0.2-2.3,0.2c-1.5,0-2.8-0.2-3.9-0.6c-1.1-0.4-2.1-0.9-2.8-1.7c-0.8-0.8-1.3-1.7-1.7-2.9c-0.4-1.2-0.6-2.5-0.6-4.1  c0-1.5,0.2-2.8,0.6-4c0.4-1.2,1-2.2,1.7-3c0.7-0.8,1.6-1.5,2.7-1.9c1.1-0.4,2.3-0.7,3.6-0.7c1.4,0,2.6,0.2,3.6,0.6  c1,0.4,1.8,1,2.5,1.7c0.6,0.7,1.1,1.6,1.4,2.6c0.3,1,0.5,2.1,0.5,3.3V268.2z M744.8,266.8c0-1.3-0.2-2.4-0.8-3.1  c-0.6-0.8-1.5-1.1-2.6-1.1c-0.6,0-1.1,0.1-1.6,0.3c-0.4,0.2-0.8,0.5-1.1,0.9c-0.3,0.4-0.5,0.8-0.7,1.4c-0.2,0.5-0.2,1.1-0.3,1.7  H744.8z M765.3,272.3c0,1-0.2,1.8-0.5,2.5c-0.4,0.7-0.9,1.3-1.5,1.8c-0.7,0.5-1.4,0.9-2.3,1.1c-0.9,0.2-1.9,0.4-2.9,0.4  c-0.6,0-1.2,0-1.8-0.1c-0.6-0.1-1.1-0.2-1.5-0.4c-0.5-0.1-0.8-0.3-1.1-0.4c-0.3-0.2-0.5-0.3-0.7-0.4c-0.1-0.1-0.2-0.3-0.3-0.6  c-0.1-0.3-0.1-0.7-0.1-1.3c0-0.4,0-0.7,0-0.9c0-0.2,0.1-0.4,0.1-0.5c0-0.1,0.1-0.2,0.2-0.3c0.1,0,0.2-0.1,0.3-0.1  c0.1,0,0.3,0.1,0.6,0.2c0.3,0.2,0.6,0.3,1,0.5c0.4,0.2,0.9,0.4,1.4,0.5c0.5,0.2,1.1,0.2,1.8,0.2c0.4,0,0.8,0,1.1-0.1  c0.3-0.1,0.6-0.2,0.9-0.4c0.2-0.2,0.4-0.4,0.6-0.6c0.1-0.3,0.2-0.5,0.2-0.9c0-0.4-0.1-0.7-0.3-1c-0.2-0.3-0.5-0.5-0.9-0.7  c-0.4-0.2-0.8-0.4-1.3-0.6c-0.5-0.2-1-0.4-1.5-0.6c-0.5-0.2-1-0.5-1.5-0.7c-0.5-0.3-0.9-0.6-1.3-1c-0.4-0.4-0.7-0.9-0.9-1.4  c-0.2-0.6-0.3-1.2-0.3-2c0-0.8,0.2-1.5,0.5-2.2c0.3-0.7,0.8-1.2,1.4-1.7c0.6-0.5,1.3-0.8,2.2-1.1c0.8-0.3,1.8-0.4,2.8-0.4  c0.5,0,1,0,1.5,0.1c0.5,0.1,0.9,0.2,1.3,0.3c0.4,0.1,0.7,0.2,1,0.4c0.3,0.1,0.5,0.2,0.6,0.3c0.1,0.1,0.2,0.2,0.3,0.3  c0,0.1,0.1,0.2,0.1,0.3c0,0.1,0,0.3,0.1,0.5c0,0.2,0,0.4,0,0.7c0,0.3,0,0.6,0,0.8c0,0.2-0.1,0.4-0.1,0.5c0,0.1-0.1,0.2-0.2,0.3  c-0.1,0-0.2,0.1-0.3,0.1c-0.1,0-0.3-0.1-0.5-0.2c-0.2-0.1-0.5-0.3-0.9-0.4c-0.4-0.2-0.8-0.3-1.2-0.4c-0.5-0.1-1-0.2-1.6-0.2  c-0.4,0-0.8,0-1.1,0.1c-0.3,0.1-0.6,0.2-0.8,0.4c-0.2,0.2-0.4,0.4-0.5,0.6c-0.1,0.2-0.2,0.5-0.2,0.7c0,0.4,0.1,0.7,0.4,1  c0.2,0.3,0.6,0.5,0.9,0.7c0.4,0.2,0.8,0.4,1.3,0.6c0.5,0.2,1,0.4,1.5,0.6s1,0.4,1.5,0.7c0.5,0.3,0.9,0.6,1.3,1  c0.4,0.4,0.7,0.9,0.9,1.4C765.2,270.9,765.3,271.5,765.3,272.3z" fill="#81B5DE"  /></svg>