<svg viewBox="0 0 646.1 283.5" role="img" aria-labelledby="the-royal-college-of-midwives--title" xmlns="http://www.w3.org/2000/svg" xmlns:xlink="http://www.w3.org/1999/xlink"><rect x="2.8" y="2.8" width="640.6" height="278" fill="#0060A9"  /><title id="the-royal-college-of-midwives--title">The Royal College of Midwives</title><path d="M5.5,5.5h635.1V278H5.5V5.5z M0,283.5h646.1V0H0V283.5z" fill="#FFFFFF"  /><path d="M246.8,141.7c0,35.9-18.8,67.4-47.2,85.2c-11.2,7-23.9,11.9-37.5,14.1c-5.2,0.8-10.5,1.2-15.8,1.2  c-24.6,0-47.2-8.9-64.7-23.6c-21.9-18.4-35.8-46-35.8-76.9c0-55.5,45-100.5,100.5-100.5S246.8,86.2,246.8,141.7" fill="#FFFFFF"  /><path d="M246.8,141.7c0,35.9-18.8,67.4-47.2,85.2  c-11.2,7-23.9,11.9-37.5,14.1c-5.2,0.8-10.5,1.2-15.8,1.2c-24.6,0-47.2-8.9-64.7-23.6c-21.9-18.4-35.8-46-35.8-76.9  c0-55.5,45-100.5,100.5-100.5S246.8,86.2,246.8,141.7z" fill="none"  stroke="#FFFFFF"  stroke-width="1.012"  stroke-miterlimit="10"  /><path d="M210.4,120.7c-2.2-3.6-7.3-6.4-13.8-8c-7.4-1.8-11.5-1.2-16.2-2.7c-0.7-0.2-1.6-1.2-2.4-2.3  c6.7-4.9,10.7-14.4,9.7-24.8c-1.5-14.4-12.2-25.2-23.9-24c-11.7,1.2-20.1,13.8-18.6,28.3c1.1,11.3,7.9,20.2,16.4,23.1  c-0.3,0.9-0.7,1.7-0.9,2.1c-1.4,2.4-7.7,3.4-8.9,3.8c-2.8,0.9-5.7,1-8.1,2.5c-1.7,1-2.1,1.3-3.6,4.6c-1,2.5-1,5-1.2,7.5l-5.8,106.5  l0,0.2c9.6,3.1,19.9,4.7,30.6,4.7c5.4,0,11.3-3.8,16.5-4.6c13.2-2.1,19.5-10.7,30.5-17.4l-0.9-1.4c-7.1-9.8-8-9.2-14.1-18.6  c0,0,12.1-8.3,16.5-13.3c5.2-6,7.7-6.5,9.3-21.7C222.8,150.9,217.2,131.8,210.4,120.7" fill="#0060A9"  /><path d="M158.6,243c-25.1,0-53.1-2-70.8-16.9l-0.7-0.6l0.5-0.8c0.1-0.1,10.3-14.5,11.6-16.3c0-0.1,0.1-0.3,0.1-0.4  c0.3-1.2,0.3-1.3,0-1.5c-1.3-0.5-2.7-1-4-1.4c-4.2-1.5-8.1-2.8-12.4-5c-3.2-1.7-6.7-4.5-9.2-7.2c-3.5-4.4-4.7-8.8-3.7-14.1  c2.2-11.8,5.3-19.8,8.1-26.2c4.2-9.5,8.1-18.5,15.9-24.9c3.7-3.1,6-4.4,11.6-5.9c0.1,0,0.8-0.3,4.3-1.7c0.1,0,1.1-0.4,2.2-1.3  c1-0.8,1.8-2.6,1.8-3c0-0.1,0.1-0.4,0.1-0.8c-7.9-6.2-10.7-18.3-6.8-29.7c3.9-11.5,13.6-19.5,23.7-19.5c2,0,4,0.3,5.9,1  c11.6,3.9,17.1,18.6,12.4,32.7c-3,8.8-9.2,15.6-16.8,18.3c-0.1,1.2-0.1,2.5,0.2,3c2.4,2,6,1.9,9.3,1.8c0.7,0,1.3,0,2,0  c3.9,0,8.7,0.6,10.7,2c4.6,3.1,10.2,9.7,12.6,12.8l0.2,0.3c3.9,5,9.7,12.6,14.2,21.7c2.5,5.1,6.1,18.4,4.4,26.5  c-1,4.6-3.5,7.5-5.8,9.7c-5.1,4.8-10.8,7-16.7,9.4c-1.8,0.7-3.7,1.5-5.5,2.3c1.3,5.1,3.4,8.4,6.5,13.2c0.7,1.2,1.6,2.4,2.4,3.8  c2.3,3.7,3.6,6.6,5.1,10.3c0.5,1.1,0.9,2.2,1.5,3.4l0.5,1.2l-1.3,0.2c-2,0.3-3.9,1-5.8,1.8C164.3,241.9,161.7,243,158.6,243" fill="#00AEEF"  /><path d="M190.4,175.3c-8.5,9.2-21.1,11.4-28.2,4.9c-7.1-6.5-6-19.3,2.5-28.5c8.5-9.2,21.1-11.4,28.2-4.9  C200,153.3,198.9,166.1,190.4,175.3" fill="#00AEEF"  /><path d="M246.8,141.7c0,35.9-18.8,67.4-47.2,85.2  c-11.2,7-23.9,11.9-37.5,14.1c-5.2,0.8-10.5,1.2-15.8,1.2c-24.6,0-47.2-8.9-64.7-23.6c-21.9-18.4-35.8-46-35.8-76.9  c0-55.5,45-100.5,100.5-100.5S246.8,86.2,246.8,141.7z" fill="none"  stroke="#FFFFFF"  stroke-width="1.012"  stroke-miterlimit="10"  /><path d="M602.4,193.6c-1.4-1.5-3.2-2.7-5.4-3.6c-2.1-0.9-4.6-1.3-7.3-1.3c-1.8,0-3.6,0.3-5.4,0.9  c-1.8,0.6-3.4,1.5-4.9,2.8c-1.5,1.3-2.7,2.9-3.6,4.9c-0.9,2-1.4,4.3-1.4,7.1c0,2.1,0.3,3.8,0.8,5.3c0.5,1.5,1.2,2.8,2.1,3.9  c0.9,1.1,2,2.1,3.1,2.9c1.2,0.8,2.5,1.5,3.8,2.2c2.1,1.1,3.8,2.1,4.9,3c1.1,1,1.7,2.2,1.7,3.9c0,1.6-0.5,2.8-1.4,3.7  c-0.9,0.9-2.1,1.3-3.4,1.3c-1.4,0-2.9-0.3-4.3-1c-1.4-0.7-2.6-1.6-3.7-2.7l-5.7,8.4c1.5,1.5,3.5,2.8,5.9,3.9  c2.4,1.1,5.2,1.7,8.1,1.7c2,0,3.9-0.3,5.8-1c1.9-0.7,3.5-1.7,4.9-3c1.4-1.3,2.6-3,3.4-5c0.8-2,1.3-4.4,1.3-7c0-2.1-0.3-4-1-5.6  c-0.7-1.6-1.5-2.9-2.6-4c-1-1.1-2.2-2.1-3.4-2.8c-1.2-0.8-2.4-1.4-3.5-2c-2-1-3.5-2-4.5-2.8c-1-0.9-1.5-2.1-1.5-3.6  c0-1.8,0.5-3.1,1.5-3.9c1-0.8,2.1-1.2,3.4-1.2c1.2,0,2.4,0.3,3.5,0.8c1.1,0.5,2.1,1.3,2.9,2.3L602.4,193.6z" fill="#FFFFFF"  /><polygon points="565.1,239.4 565.1,229.4 551,229.4 551,218.8 563.2,218.8 563.2,209.6 551,209.6 551,199.9 564.2,199.9 564.2,190 540.4,190 540.4,239.4" fill="#FFFFFF"  /><polygon points="531.5,190 519.3,190 512.7,226.2 512.6,226.2 505.9,190 493.2,190 505.2,239.4 519.3,239.4" fill="#FFFFFF"  /><rect x="473.1" y="190" width="11.2" height="49.4" fill="#FFFFFF"  /><polygon points="463.6,190 452.8,190 447.7,224.4 447.5,224.4 441.9,190 431.1,190 425.7,224.4 425.5,224.4 420.4,190 409,190 418.3,239.4 430.1,239.4 436.2,206.3 436.3,206.3 442.4,239.4 454.2,239.4" fill="#FFFFFF"  /><path d="M400.2,204.6c-0.8-3-2.1-5.7-3.7-7.8c-1.7-2.2-3.8-3.8-6.4-5c-2.6-1.2-5.7-1.7-9.2-1.7H367v49.4h13.9  c3.5,0,6.6-0.6,9.2-1.7c2.6-1.2,4.7-2.8,6.4-5c1.7-2.1,2.9-4.7,3.7-7.8c0.8-3,1.2-6.4,1.2-10.1C401.4,211,401,207.6,400.2,204.6   M387.7,225.9c-1.7,2.5-3.9,3.8-6.6,3.8h-2.7v-29.9h2.7c2.7,0,4.9,1.3,6.6,3.8c1.7,2.5,2.5,6.3,2.5,11.3  C390.2,219.7,389.4,223.3,387.7,225.9" fill="#FFFFFF"  /><rect x="342.1" y="190" width="11.2" height="49.4" fill="#FFFFFF"  /><polygon points="327.9,239.4 327.9,190 313,190 305.2,221.8 305,221.8 297,190 282.9,190 282.9,239.4 293,239.4 292.7,205.5 292.9,205.5 300.9,239.4 308.8,239.4 317.1,205.5 317.4,205.5 317,239.4" fill="#FFFFFF"  /><polygon points="602.4,124.7 602.4,117.2 580.2,117.2 580.2,166.6 588.7,166.6 588.7,145.4 601.3,145.4 601.3,138.3 588.6,138.3 588.6,124.7" fill="#8ED8F8"  /><path d="M566.9,123.1c-1.5-2.3-3.4-4-5.6-5.3c-2.2-1.2-4.7-1.8-7.4-1.8c-2.8,0-5.3,0.6-7.5,1.8  c-2.2,1.2-4.1,3-5.6,5.3c-1.5,2.3-2.7,5-3.5,8.2c-0.8,3.2-1.2,6.7-1.2,10.6c0,3.9,0.4,7.5,1.2,10.7c0.8,3.2,2,5.9,3.5,8.2  c1.5,2.3,3.4,4,5.6,5.3c2.2,1.3,4.7,1.9,7.5,1.9c2.8,0,5.2-0.6,7.4-1.9c2.2-1.3,4.1-3,5.6-5.3c1.5-2.3,2.7-5,3.5-8.2  c0.8-3.2,1.2-6.7,1.2-10.7c0-3.9-0.4-7.4-1.2-10.6C569.6,128.1,568.4,125.3,566.9,123.1 M562.4,148.9c-0.4,2.2-0.9,4.1-1.7,5.8  c-0.8,1.6-1.7,2.9-2.9,3.8c-1.1,0.9-2.5,1.4-4,1.4c-1.5,0-2.9-0.5-4-1.4c-1.1-0.9-2.1-2.2-2.9-3.8c-0.8-1.6-1.3-3.6-1.7-5.8  c-0.4-2.2-0.6-4.6-0.6-7.1c0-2.5,0.2-4.9,0.6-7.1c0.4-2.2,0.9-4.1,1.7-5.7c0.8-1.6,1.7-2.9,2.9-3.8c1.1-0.9,2.5-1.4,4-1.4  c1.5,0,2.8,0.5,3.9,1.4c1.1,0.9,2.1,2.2,2.9,3.8c0.8,1.6,1.4,3.5,1.7,5.7c0.4,2.2,0.6,4.6,0.6,7.1  C563,144.4,562.8,146.7,562.4,148.9" fill="#8ED8F8"  /><polygon points="511.2,166.6 511.2,159.2 496.4,159.2 496.4,144.6 509.5,144.6 509.5,137.7 496.4,137.7 496.4,124.6 510.5,124.6 510.5,117.2 488.4,117.2 488.4,166.6" fill="#8ED8F8"  /><path d="M478.3,163.6v-25.1h-13.6v7.3h6v12.8c-0.6,0.4-1.3,0.8-2.2,1c-0.9,0.3-1.9,0.4-3,0.4c-1.8,0-3.3-0.5-4.6-1.4  c-1.3-0.9-2.3-2.2-3.2-3.9c-0.8-1.7-1.5-3.6-1.9-5.8c-0.4-2.2-0.6-4.6-0.6-7.1c0-2.4,0.2-4.7,0.6-6.9c0.4-2.2,1-4.1,1.9-5.8  c0.8-1.7,1.9-3,3.2-3.9c1.3-1,2.8-1.5,4.5-1.5c3.2,0,5.7,1.4,7.5,4.1l4.8-5.9c-1.3-1.9-3.1-3.4-5.2-4.4c-2.1-1.1-4.7-1.6-7.6-1.6  c-2.8,0-5.3,0.6-7.5,1.9c-2.2,1.3-4.2,3.1-5.7,5.4c-1.6,2.3-2.8,5-3.6,8.2c-0.8,3.2-1.3,6.6-1.3,10.4c0,3.9,0.4,7.4,1.3,10.5  c0.9,3.2,2.1,5.9,3.7,8.2c1.6,2.3,3.6,4,5.9,5.3c2.3,1.2,5,1.9,7.9,1.9c2.9,0,5.4-0.4,7.4-1.1C475,165.8,476.8,164.9,478.3,163.6" fill="#8ED8F8"  /><polygon points="440.5,166.6 440.5,159.2 425.7,159.2 425.7,144.6 438.8,144.6 438.8,137.7 425.7,137.7 425.7,124.6 439.8,124.6 439.8,117.2 417.7,117.2 417.7,166.6" fill="#8ED8F8"  /><polygon points="411.5,166.6 411.5,158.9 397.8,158.9 397.8,117.2 389.4,117.2 389.4,166.6" fill="#8ED8F8"  /><polygon points="383.2,166.6 383.2,158.9 369.5,158.9 369.5,117.2 361.1,117.2 361.1,166.6" fill="#8ED8F8"  /><path d="M352,131.2c-0.8-3.2-2-5.9-3.5-8.2c-1.5-2.3-3.4-4-5.6-5.3c-2.2-1.2-4.7-1.8-7.4-1.8c-2.8,0-5.3,0.6-7.5,1.8  c-2.2,1.2-4.1,3-5.6,5.3c-1.5,2.3-2.7,5-3.5,8.2c-0.8,3.2-1.2,6.7-1.2,10.6c0,3.9,0.4,7.5,1.2,10.7c0.8,3.2,2,5.9,3.5,8.2  c1.5,2.3,3.4,4,5.6,5.3c2.2,1.3,4.7,1.9,7.5,1.9c2.7,0,5.2-0.6,7.4-1.9c2.2-1.3,4.1-3,5.6-5.3c1.5-2.3,2.7-5,3.5-8.2  c0.8-3.2,1.2-6.7,1.2-10.7C353.2,137.9,352.8,134.4,352,131.2 M344,148.9c-0.4,2.2-0.9,4.1-1.7,5.8c-0.8,1.6-1.7,2.9-2.9,3.8  c-1.1,0.9-2.5,1.4-4,1.4c-1.5,0-2.9-0.5-4-1.4c-1.1-0.9-2.1-2.2-2.9-3.8c-0.8-1.6-1.3-3.6-1.7-5.8c-0.4-2.2-0.6-4.6-0.6-7.1  c0-2.5,0.2-4.9,0.6-7.1c0.4-2.2,0.9-4.1,1.7-5.7c0.8-1.6,1.7-2.9,2.9-3.8c1.1-0.9,2.5-1.4,4-1.4c1.5,0,2.8,0.5,3.9,1.4  c1.1,0.9,2.1,2.2,2.9,3.8c0.8,1.6,1.3,3.5,1.7,5.7c0.4,2.2,0.6,4.6,0.6,7.1C344.5,144.4,344.4,146.7,344,148.9" fill="#8ED8F8"  /><path d="M314,161.3l-4.8-5.7c-0.8,1.2-1.8,2.2-3,3.1c-1.2,0.8-2.6,1.3-4.2,1.3c-1.7,0-3.2-0.5-4.5-1.4  c-1.3-1-2.3-2.2-3.2-3.9c-0.8-1.6-1.5-3.6-1.9-5.8c-0.4-2.2-0.6-4.6-0.6-7c0-2.5,0.2-4.9,0.6-7.1c0.4-2.2,1-4.1,1.9-5.8  c0.8-1.6,1.9-2.9,3.1-3.9c1.3-1,2.7-1.4,4.4-1.4c3,0,5.5,1.4,7.4,4.1l4.8-5.9c-1.3-2-3.1-3.5-5.2-4.5c-2.1-1-4.6-1.6-7.5-1.6  c-2.7,0-5.3,0.6-7.5,1.9c-2.3,1.3-4.2,3.1-5.8,5.4c-1.6,2.3-2.8,5.1-3.7,8.2c-0.9,3.2-1.3,6.7-1.3,10.4c0,3.8,0.4,7.2,1.3,10.4  c0.9,3.2,2.1,5.9,3.6,8.2c1.6,2.3,3.5,4.1,5.7,5.4c2.3,1.3,4.8,2,7.6,2c3.1,0,5.6-0.6,7.7-1.8C311,164.9,312.7,163.3,314,161.3" fill="#8ED8F8"  /><polygon points="588.8,85.9 588.8,44.2 580.3,44.2 580.3,93.6 602.4,93.6 602.4,85.9" fill="#8ED8F8"  /><path d="M548.3,44.2L536,93.6h8.4l2.5-10.5h13l2.4,10.5h8.7L559,44.2H548.3z M548,76.6l5.4-24.5h0.3l5.2,24.5H548z" fill="#8ED8F8"  /><polygon points="517.5,66.1 517.3,66.2 509.9,44.2 500.8,44.2 513.2,74.7 513.2,93.6 521.4,93.6 521.4,74.7 533.9,44.2 525.1,44.2" fill="#8ED8F8"  /><path d="M490.5,50c-1.5-2.3-3.4-4-5.6-5.3c-2.2-1.2-4.7-1.8-7.4-1.8c-2.8,0-5.3,0.6-7.5,1.8c-2.2,1.2-4.1,3-5.6,5.3  c-1.5,2.3-2.7,5-3.5,8.2c-0.8,3.2-1.2,6.7-1.2,10.6c0,3.9,0.4,7.5,1.2,10.7c0.8,3.2,2,5.9,3.5,8.2c1.5,2.3,3.4,4.1,5.6,5.3  c2.2,1.3,4.7,1.9,7.5,1.9c2.8,0,5.2-0.6,7.4-1.9c2.2-1.3,4.1-3,5.6-5.3c1.5-2.3,2.7-5,3.5-8.2c0.8-3.2,1.2-6.7,1.2-10.7  c0-3.9-0.4-7.4-1.2-10.6C493.2,55,492,52.3,490.5,50 M486,75.9c-0.4,2.2-1,4.1-1.7,5.8c-0.8,1.6-1.7,2.9-2.9,3.8  c-1.1,0.9-2.5,1.4-4,1.4c-1.5,0-2.9-0.5-4-1.4c-1.1-0.9-2.1-2.2-2.9-3.8c-0.8-1.6-1.3-3.6-1.7-5.8c-0.4-2.2-0.6-4.6-0.6-7.1  c0-2.5,0.2-4.9,0.6-7.1c0.4-2.2,0.9-4.1,1.7-5.7c0.8-1.6,1.7-2.9,2.9-3.8c1.1-0.9,2.5-1.4,4-1.4c1.5,0,2.8,0.5,3.9,1.4  c1.1,0.9,2.1,2.2,2.9,3.8c0.8,1.6,1.3,3.5,1.7,5.7c0.4,2.2,0.6,4.6,0.6,7.1C486.6,71.3,486.4,73.7,486,75.9" fill="#8ED8F8"  /><path d="M445,69.6c0.9-0.6,1.7-1.5,2.5-2.5c0.7-1,1.4-2.3,1.8-3.7c0.5-1.5,0.7-3.2,0.7-5.1c0-2.5-0.4-4.6-1.1-6.4  c-0.7-1.8-1.7-3.2-2.9-4.4c-1.2-1.2-2.7-2-4.4-2.5c-1.7-0.5-3.6-0.8-5.7-0.8h-14.1v49.4h8.1V72.5h4.7l7.7,21.1h8.8l-8.9-22.8  C443.2,70.6,444.1,70.2,445,69.6 M439.8,64.5c-1.3,1.3-3,1.9-5.1,1.9H430V51.2h4.8c0.8,0,1.7,0.1,2.5,0.3c0.8,0.2,1.6,0.6,2.3,1.2  c0.7,0.6,1.2,1.3,1.6,2.3c0.4,1,0.6,2.2,0.6,3.7C441.8,61.3,441.2,63.2,439.8,64.5" fill="#8ED8F8"  /><polygon points="388.4,93.6 388.4,86.1 373.6,86.1 373.6,71.5 386.7,71.5 386.7,64.7 373.6,64.7 373.6,51.6 387.7,51.6 387.7,44.2 365.6,44.2 365.6,93.6" fill="#8ED8F8"  /><polygon points="352.9,93.6 352.9,44.2 344.6,44.2 344.6,64.2 329.7,64.2 329.7,44.2 321.4,44.2 321.4,93.6 329.7,93.6 329.7,71.7 344.6,71.7 344.6,93.6" fill="#8ED8F8"  /><polygon points="309.7,51.3 309.7,44.2 282.9,44.2 282.9,51.3 292.2,51.3 292.2,93.6 300.4,93.6 300.4,51.3" fill="#8ED8F8"  /></svg>