<svg viewBox="0 0 989.7 283.5" role="img" aria-labelledby="the-breastfeeding-network--title" xmlns="http://www.w3.org/2000/svg" xmlns:xlink="http://www.w3.org/1999/xlink"><title id="the-breastfeeding-network--title">The Breastfeeding Network</title><g id="Colour_shapes_1"><radialGradient id="SVGID_1_" cx="110.6731" cy="67.65" r="65.8204" gradientTransform="matrix(1 0 0 -1 0 286)" gradientUnits="userSpaceOnUse"><stop offset="0" stop-color="#E0BFD1" ></stop><stop offset="0.3322" stop-color="#DAB2C7" ></stop><stop offset="0.9518" stop-color="#C88EAD" ></stop><stop offset="1" stop-color="#C78BAB" ></stop>
		
		
		
		
	</radialGradient><path d="M71,272.6c8.2,7.6,17.8,10.8,27.8,10.8c18.4,0,37.9-10.9,51.8-25.9c14.8-15.9,27.6-39.5,26.6-59.6   l0,0c-0.4-6.8-2.3-13.2-6.3-18.8l0,0c-1.3-1.9-2.9-3.6-4.7-5.3c-3.3-3-7.4-5.8-12.2-8.2c-14.9-7.7-35.8-12.3-55.1-12.3   c-18.4,0-35.4,4.2-44.4,13.9c-2.3,2.5-4.2,5.5-5.7,8.8C36.3,203,50.4,253.5,71,272.6" fill="url(#SVGID_1_)"  />
	
		
	
</g><g id="Colour_shapes_2"><path d="M165.9,183.8C165.9,183.8,165.9,183.9,165.9,183.8c0.1-0.1,0.3-0.2,0.4-0.3C166.2,183.6,166,183.7,165.9,183.8   " fill="none"  /><path d="M166.3,183.5c0.1-0.1,0.2-0.2,0.3-0.2C166.5,183.3,166.4,183.4,166.3,183.5" fill="none"  /><path d="M166.7,183.2C166.7,183.2,166.6,183.2,166.7,183.2C166.6,183.2,166.7,183.2,166.7,183.2L166.7,183.2" fill="none"  /><path d="M166.7,183.2l0.1-0.1C166.8,183.1,166.7,183.2,166.7,183.2" fill="none"  /><path d="M166.9,183C166.9,183.1,166.8,183.1,166.9,183C166.8,183.1,166.9,183,166.9,183L166.9,183" fill="none"  /><radialGradient id="SVGID_2_" cx="199.5686" cy="133.15" r="46.0222" gradientTransform="matrix(1 0 0 -1 0 286)" gradientUnits="userSpaceOnUse"><stop offset="0" stop-color="#D8DF86" ></stop><stop offset="0.2179" stop-color="#D7DE83" ></stop><stop offset="0.3972" stop-color="#D4DB79" ></stop><stop offset="0.5628" stop-color="#CED767" ></stop><stop offset="0.7201" stop-color="#C6D04F" ></stop><stop offset="0.8701" stop-color="#BDC830" ></stop><stop offset="1" stop-color="#B2BF0F" ></stop>
		
		
		
		
		
		
		
	</radialGradient><path d="M159.7,187.8c-3.9-5.5-5.7-13.4-5.7-22.3l0,0c0-3.1,0.2-6.3,0.6-9.6c2.2-17.4,9.7-35.6,19.2-43.8   c4.7-4.1,10.2-5.8,15.9-5.8c0.6,0,1.1,0,1.7,0.1l0,0c14,0.8,29.4,11.5,39.3,23c14.4,16.7,21.1,42,4.4,56.4   c-9.5,8.2-27.7,13.6-44.3,13.6c-4.8,0-9.4-0.4-13.7-1.4c-6.8-1.5-12.6-4.4-16.5-8.8C160.4,188.8,160.1,188.4,159.7,187.8   L159.7,187.8z" fill="url(#SVGID_2_)"  />
	
	
	
	
	
	
		
	
</g><g id="Colour_shapes_3"><g><radialGradient id="SVGID_3_" cx="145.783" cy="127.9324" r="141.1474" gradientTransform="matrix(1 0 0 -1 0 286)" gradientUnits="userSpaceOnUse"><stop offset="0" stop-color="#AA90B1" ></stop><stop offset="0.3015" stop-color="#94739D" ></stop><stop offset="0.7608" stop-color="#774B81" ></stop><stop offset="1" stop-color="#6C3C77" ></stop>
			
			
			
			
		</radialGradient><path d="M191.5,106.4c-0.1-33.8-8.8-68.9-23.8-87.4C156.8,5.4,141.6,0,125.1,0C97.4,0,65.8,15.2,43.2,33.5    C18.7,53.3,0.2,82.8,0,110.9v1.1c0.1,12.9,4.1,25.6,13.3,36.8c8.1,10,20.7,19.4,35.5,27.1c33.6,17.5,78.3,26.3,106.4,14.2l0,0    c0.6-0.3,1.2-0.5,1.8-0.8l0,0c0.2-0.1,0.3-0.2,0.5-0.2c0,0,0.1,0,0.1-0.1c0.1-0.1,0.3-0.1,0.4-0.2c0,0,0.1,0,0.1-0.1    c0.1-0.1,0.3-0.2,0.5-0.2c0,0,0,0,0.1,0c0.2-0.1,0.3-0.2,0.5-0.3c0.1,0,0.2-0.1,0.2-0.1c0.1,0,0.2-0.1,0.2-0.1    c1.5-0.8,2.9-1.7,4.3-2.7c-0.1,0-0.1,0.1-0.2,0.1c0.1-0.1,0.2-0.1,0.3-0.2l-0.1,0.1c0.2-0.1,0.3-0.2,0.5-0.3s0.3-0.2,0.5-0.4    c0.1-0.1,0.3-0.2,0.5-0.3c0,0,0.1-0.1,0.2-0.1c0.1-0.1,0.1-0.1,0.2-0.2c-0.2,0.1-0.3,0.2-0.5,0.4c0.3-0.2,0.7-0.5,1-0.7    c0.1-0.1,0.2-0.2,0.3-0.3c0,0,0,0,0.1,0l0,0l0,0c0.1-0.1,0.3-0.2,0.4-0.4c-0.1,0-0.1,0.1-0.2,0.1l0.1-0.1c0.1-0.1,0.2-0.2,0.3-0.3    s0.2-0.2,0.4-0.3c0.8-0.7,1.6-1.5,2.4-2.3c0,0,0.1,0,0.1-0.1c0.1-0.1,0.1-0.1,0.2-0.2c0.1-0.1,0.2-0.2,0.3-0.3l0,0    c0.1-0.1,0.2-0.2,0.3-0.3l0.1-0.1c0.1-0.1,0.2-0.2,0.3-0.3l0.1-0.1c0.1-0.1,0.2-0.2,0.3-0.3l0.1-0.1c0.1-0.1,0.2-0.2,0.2-0.3    l0.1-0.1c0.1-0.1,0.1-0.2,0.2-0.3l0.1-0.1c0.1-0.1,0.1-0.2,0.2-0.3c0.1-0.1,0.2-0.3,0.3-0.4l0.1-0.1c0.1-0.1,0.1-0.2,0.2-0.3    l0.1-0.1c0.1-0.1,0.1-0.2,0.2-0.3l0.1-0.1c0.1-0.1,0.2-0.2,0.2-0.3c0,0,0-0.1,0.1-0.1c0.1-0.1,0.2-0.2,0.2-0.3c0,0,0,0,0-0.1    c0.1-0.1,0.2-0.2,0.3-0.4l0,0c7.5-10.4,12.4-24.8,14.8-40.8c0-0.1,0-0.2,0-0.4v-0.1c0-0.2,0-0.4,0.1-0.6v-0.1    c0-0.2,0.1-0.4,0.1-0.6c0,0,0,0,0-0.1C191,123.6,191.5,115,191.5,106.4c-0.6,0-1.2-0.1-1.7-0.1    C190.4,106.3,190.9,106.3,191.5,106.4z M159.7,187.8c0.6-0.3,1.1-0.6,1.6-0.9C160.8,187.2,160.3,187.5,159.7,187.8z M162.2,186.4    c0.2-0.2,0.5-0.3,0.7-0.5C162.7,186.1,162.5,186.2,162.2,186.4z M168.9,181.2c0.1-0.1,0.1-0.1,0.2-0.2    C169,181,169,181.1,168.9,181.2z" fill="url(#SVGID_3_)"  /><radialGradient id="SVGID_4_" cx="145.783" cy="127.9324" r="141.1474" gradientTransform="matrix(1 0 0 -1 0 286)" gradientUnits="userSpaceOnUse"><stop offset="0" stop-color="#AA90B1" ></stop><stop offset="0.3015" stop-color="#94739D" ></stop><stop offset="0.7608" stop-color="#774B81" ></stop><stop offset="1" stop-color="#6C3C77" ></stop>
			
			
			
			
		</radialGradient><path d="M165.9,183.9c0.2-0.1,0.3-0.2,0.5-0.4C166.2,183.6,166,183.7,165.9,183.9    C165.9,183.8,165.9,183.9,165.9,183.9z" fill="url(#SVGID_4_)"  /><radialGradient id="SVGID_5_" cx="145.783" cy="127.9324" r="141.1474" gradientTransform="matrix(1 0 0 -1 0 286)" gradientUnits="userSpaceOnUse"><stop offset="0" stop-color="#AA90B1" ></stop><stop offset="0.3015" stop-color="#94739D" ></stop><stop offset="0.7608" stop-color="#774B81" ></stop><stop offset="1" stop-color="#6C3C77" ></stop>
			
			
			
			
		</radialGradient><path d="M166.8,183.1C166.8,183.1,166.9,183,166.8,183.1C166.9,183,166.9,183,166.8,183.1    C166.9,183.1,166.8,183.1,166.8,183.1z" fill="url(#SVGID_5_)"  />
		
			
		
		
			
		
		
			
		
	</g>
	
</g><g id="Lighten_shapes"><path d="M166.3,183.5c-2,1.6-4.2,3.1-6.6,4.4c0.3,0.4,0.7,0.9,1,1.3   c3.8,4.4,9.6,7.2,16.4,8.7c-0.4-6.8-2.3-13.2-6.3-18.8C169.5,180.7,168,182.2,166.3,183.5" opacity="0.35"  fill="#FFFFFF"  enable-background="new    "  /><path d="M165.9,183.8C165.9,183.8,165.9,183.9,165.9,183.8   c0.1-0.1,0.3-0.2,0.4-0.3C166.2,183.6,166,183.7,165.9,183.8 M166.3,183.5c0.1-0.1,0.2-0.2,0.3-0.2   C166.5,183.3,166.4,183.4,166.3,183.5 M166.7,183.2C166.7,183.2,166.6,183.2,166.7,183.2C166.6,183.2,166.7,183.2,166.7,183.2   L166.7,183.2 M166.7,183.2l0.1-0.1C166.8,183.1,166.7,183.2,166.7,183.2 M166.9,183C166.9,183.1,166.8,183.1,166.9,183   C166.8,183.1,166.9,183,166.9,183L166.9,183 M54.5,167.1c-2.3,2.5-4.2,5.5-5.7,8.8c33.6,17.5,78.3,26.3,106.4,14.2l0,0   c0.6-0.3,1.2-0.5,1.8-0.8l0,0c0.2-0.1,0.3-0.2,0.5-0.2c0,0,0.1,0,0.1-0.1c0.1-0.1,0.3-0.1,0.4-0.2c0,0,0.1,0,0.1-0.1   c0.1-0.1,0.3-0.2,0.5-0.2c0,0,0,0,0.1,0c0.2-0.1,0.3-0.2,0.5-0.3c0.1,0,0.2-0.1,0.2-0.1c0.1,0,0.2-0.1,0.2-0.1   c2-1.1,3.9-2.4,5.7-3.7c0,0,0.1-0.1,0.2-0.1c0.1-0.1,0.1-0.1,0.2-0.2c-1.9,1.5-4,2.8-6.1,4c-3.9-5.5-5.7-13.4-5.7-22.3   c-14.9-7.7-35.8-12.3-55.1-12.3C80.5,153.3,63.5,157.5,54.5,167.1 M173.9,112.1c-11.2,9.7-19.8,33.7-19.8,53.4   c4.8,2.5,8.9,5.2,12.2,8.2c1.8,1.7,3.3,3.4,4.7,5.3c-1.3,1.4-2.6,2.7-4,3.9l0.1-0.1c1.1-0.9,2.1-1.9,3.1-2.9c0,0,0.1,0,0.1-0.1   c0.1-0.1,0.1-0.1,0.2-0.2c0.1-0.1,0.2-0.2,0.3-0.3l0,0c0.1-0.1,0.2-0.2,0.3-0.3l0.1-0.1c0.1-0.1,0.2-0.2,0.3-0.3l0.1-0.1   c0.1-0.1,0.2-0.2,0.3-0.3l0.1-0.1c0.1-0.1,0.2-0.2,0.2-0.3l0.1-0.1c0.1-0.1,0.1-0.2,0.2-0.3l0.1-0.1c0.1-0.1,0.1-0.2,0.2-0.3   c0.1-0.1,0.2-0.3,0.3-0.4l0.1-0.1c0.1-0.1,0.1-0.2,0.2-0.3l0.1-0.1c0.1-0.1,0.1-0.2,0.2-0.3l0.1-0.1c0.1-0.1,0.2-0.2,0.2-0.3   c0,0,0-0.1,0.1-0.1c0.1-0.1,0.2-0.2,0.2-0.3c0,0,0,0,0-0.1c0.1-0.1,0.2-0.2,0.3-0.4l0,0c7.5-10.4,12.4-24.8,14.8-40.8   c0-0.1,0-0.2,0-0.4v-0.1c0-0.2,0-0.4,0.1-0.6v-0.1c0-0.2,0.1-0.4,0.1-0.6c0,0,0,0,0-0.1c1.2-8.2,1.7-16.8,1.7-25.4   c-0.6,0-1.2-0.1-1.7-0.1C184.1,106.3,178.6,108,173.9,112.1" opacity="0.2"  fill="#FFFFFF"  enable-background="new    "  /><path d="M159.7,187.8c2.3-1.3,4.6-2.7,6.6-4.3c1.6-1.3,3.1-2.8,4.6-4.4   c-1.3-1.9-2.9-3.6-4.7-5.3c-3.3-3-7.4-5.8-12.2-8.2C154.1,174.4,155.8,182.4,159.7,187.8" opacity="0.46"  fill="#FFFFFF"  enable-background="new    "  />
	
	
	
</g><g id="Text"><g><path d="M590.7,187.6c0-8.3-5.5-12.4-12.3-12.4c-9.4,0-16,7.5-18.7,14.6v-21.7h-8.1v60.4h8.1v-17.6    c3.8,0,7.2-0.4,10.2-1l11.1,18.6h9.5l-12.9-21.2C587.6,202.3,590.7,193.4,590.7,187.6 M582.5,188.5c0,10.3-8.7,16.8-22.9,16.5    c1.6-10.4,9.2-22.9,17.1-22.9C580.1,182,582.5,184.2,582.5,188.5 M356.5,188.2c0-7.7-5.5-12.9-15.2-12.9    c-15.8,0-24.2,12.7-24.2,28.1c0,15.5,6.9,26.6,23.1,26.6c8.3,0,14.4-3.7,17-5.9l-3.1-5.3c-2,1.5-6.4,4.8-13.3,4.8    c-11,0-15.2-9-15.6-17.5c0.8,0,1.7,0.1,2.7,0.1C338,206.1,356.5,203.6,356.5,188.2 M348.9,189.1c0,9.4-14.6,11-21.7,11    c-0.8,0-1.5-0.1-2.1-0.1c0.3-8.2,4.6-18.7,15.7-18.7C345.6,181.3,348.9,184.2,348.9,189.1 M302.8,228.5h8.1v-35.3    c0-11.9-5.8-17.9-16.6-17.9c-6.8,0-12.8,3.1-16.8,9l-0.9-7.5h-7l0.5,7.8v43.9h8.1v-33.9c0-6.3,6-12.8,14.1-12.8    c8.7,0,10.4,6.3,10.4,13.9L302.8,228.5L302.8,228.5z M362.9,168.1v46.2c0,7.6,0.4,15.6,14.3,15.6c4.2,0,8.7-1.4,11.8-3.4l-2.4-5.4    c-1.8,1-4.4,2.5-7.9,2.5c-4.9,0-7.6-2.2-7.6-9.1v-30.8h14.8v-7h-14.8v-8.6H362.9z M400.9,176.7h-8.1v35.7c0,12,5.1,17.5,16.3,17.5    c6.7,0,12.7-2.4,17.4-10c1.6,5.9,5.9,10,13.8,10c15.8,0,21.8-12.8,21.8-31.4c0-8.2-1.9-15.4-3.7-21.8h-7.9    c1.8,6.5,3.7,13.5,3.7,22.2c0,9.5-1.5,24.6-13.6,24.6c-8.7,0-9.3-7.2-9.3-15v-31.8h-8.1v33.9c0,6.7-5.5,12.8-12.8,12.8    c-9.2,0-9.5-7.1-9.5-15.3L400.9,176.7L400.9,176.7z M467.9,202.2c0,18.7,8.1,27.7,21.3,27.7c13,0,23.1-8.5,23.1-28.8    c0-23.5-14.2-25.8-21.3-25.8C480.7,175.3,467.9,180.7,467.9,202.2 M476,201.2c0-11.2,4.5-19.6,14.4-19.6    c10.1,0,13.7,8.8,13.7,21.2c0,11.4-4.3,20.8-14.2,20.8C478.1,223.7,476,211.5,476,201.2 M524.7,176.7h-7l0.6,7.1v44.7h8v-33    c0.3-7,4.6-13,11.2-13c2.6,0,5,1,6.8,2l2.5-7.2c-2-1.3-5-2-8.2-2c-5.9,0-10.5,3.1-13,9L524.7,176.7z" fill="#B2BF0F"  /><path d="M335.7,22.7v37.5c0,4.9,0.3,10.1,9.2,10.1c2.7,0,5.6-0.9,7.6-2.2l-1.5-3.5c-1.1,0.7-2.8,1.6-5.1,1.6    c-3.2,0-4.9-1.4-4.9-5.8V40.5h9.5V36H341V22.7H335.7 M361.6,69.3V47.5c0-4,4-8.3,8.9-8.3c5.8,0,6.8,4.1,6.8,8.8v21.3h5.2V46.6    c0-7.6-3.7-11.5-10.7-11.5c-3.8,0-7.4,1.5-10.3,5V22.7h-5.2v46.6H361.6z M402.2,35.1c-10.2,0-15.6,8.2-15.6,18.1    c0,10,4.4,17.1,14.9,17.1c5.4,0,9.3-2.4,10.9-3.8l-2-3.4c-1.3,0.9-4.1,3.1-8.6,3.1c-7.1,0-9.8-5.8-10.1-11.3    c0.5,0,1.1,0.1,1.7,0.1c6.5,0,18.4-1.6,18.4-11.5C412,38.4,408.4,35.1,402.2,35.1 M407.1,44c0,6-9.4,7.1-13.9,7.1    c-0.5,0-0.9-0.1-1.3-0.1c0.2-5.3,3-12.1,10.1-12.1C404.9,39,407.1,40.8,407.1,44" fill="#C78BAB"  /><path d="M357.9,109.7c0.1-6.1,4-9.7,9.7-9.7c3.5,0,6.8,0.8,9.6,2.3l3.6-18.5c-3.5-1.7-7.7-2.5-11-2.5    c-5.7,0-12.4,3.1-16,11.4l-1.7-9.4H334l1.7,13v55.1h22.2L357.9,109.7" fill="#6C3C77"  /><path d="M435.2,102c0-14-9.3-20.7-23.3-20.7c-22.7,0-34.2,18.6-34.2,37.9c0,20.2,9.2,34.3,32.6,34.3    c14.9,0,24.9-6.9,25.5-7.6l-5.9-14.6c-4.3,2.8-10.1,5.6-16.5,5.6c-8.1,0-12.6-4.9-13.2-10.9C413.3,125.1,435.2,121.3,435.2,102     M415.9,102.2c0,6.5-9.4,9.8-16.6,10.2c0.4-9.2,4.8-15.7,11.4-15.7C413.9,96.8,415.9,98.9,415.9,102.2" fill="#6C3C77"  /><path d="M500.5,151.3L499,137V86.5c-10.8-4.1-21-5.3-25.8-5.3c-24.2,0-36,15.7-36,39.1c0,16.6,5.2,33,25.5,33    c6.9,0,13.2-2.1,17.2-8.4l0.8,0.1l0.9,6.3H500.5 M476.9,129.9c0,3.9-2.9,7.6-8.1,7.6c-7.7,0-9.6-8.5-9.6-18.8    c0-11.4,2.9-21.8,11.6-21.8c2.4,0,4.7,0.4,6.1,0.9V129.9z" fill="#6C3C77"  /><path d="M503.8,146c4.1,2.9,14.5,7.4,26.9,7.4c16.4,0,27.1-7.8,27.1-22.7c0-14.1-11-18.4-20.9-21.6    c-5.5-1.7-9.2-3.5-9.2-7.3c0-3.2,2.4-4.8,6.1-4.8c4.1,0,9.6,2.4,15.4,6.9l10.1-12.8c-6.5-6-16.1-10-26.7-10    c-14.9,0-26.6,7.8-26.6,22.5c0,14.4,10.5,18.4,21,21.7c4.8,1.5,8.6,2.8,8.6,6.8c0,3.7-2.4,5.1-6.4,5.1c-6,0-14.9-3.7-19.8-6.9    L503.8,146" fill="#6C3C77"  /><path d="M563.1,58.9V127c0,13.3,0.9,26.5,23.5,26.5c7.5,0,14.8-2.3,18.9-4.9l-4.8-14c-2.3,1.2-4.6,2.1-7.2,2.1    c-4.5,0-8-1.9-8-9.2v-26.9h16.6V83.2h-16.6V58.9H563.1" fill="#6C3C77"  /><path d="M631.3,100.6h18.4V83.2h-18.4v-3.6c0-5.7,2.4-7.8,6.7-7.8c2.8,0,8.8,1.2,12.2,2.9l5.2-14.6    c-5.1-2.7-14.9-4.5-21.3-4.5c-22.6,0-25,14.1-25,26.5v97.2h22.2L631.3,100.6" fill="#6C3C77"  /><path d="M707.2,102c0-14-9.3-20.7-23.3-20.7c-22.7,0-34.2,18.6-34.2,37.9c0,20.2,9.2,34.3,32.6,34.3    c14.9,0,24.9-6.9,25.5-7.6l-5.9-14.6c-4.3,2.8-10.1,5.6-16.5,5.6c-8.1,0-12.6-4.9-13.2-10.9C685.4,125.1,707.2,121.3,707.2,102     M687.9,102.2c0,6.5-9.4,9.8-16.6,10.2c0.4-9.2,4.8-15.7,11.4-15.7C685.9,96.8,687.9,98.9,687.9,102.2" fill="#6C3C77"  /><path d="M766.4,102c0-14-9.3-20.7-23.3-20.7c-22.7,0-34.2,18.6-34.2,37.9c0,20.2,9.2,34.3,32.6,34.3    c14.9,0,24.9-6.9,25.5-7.6l-5.9-14.6c-4.3,2.8-10.1,5.6-16.5,5.6c-8.1,0-12.6-4.9-13.2-10.9C744.6,125.1,766.4,121.3,766.4,102     M747.1,102.2c0,6.5-9.4,9.8-16.6,10.2c0.4-9.2,4.8-15.7,11.4-15.7C745.1,96.8,747.1,98.9,747.1,102.2" fill="#6C3C77"  /><path d="M831.7,151.3l-1.5-14.5V58.9h-22.1v23c-1.6-0.4-3.5-0.7-6.4-0.7c-21,0-33.4,16.4-33.4,39.4    c0,15.3,3.8,32.7,26.2,32.7c7.6,0,13-2.8,16.5-8.4h0.8l1.2,6.4H831.7 M808.2,130.2c0,3.5-3.2,7.3-8.4,7.3c-7.3,0-9.3-8.4-9.3-18.6    c0-10,2.1-21.8,12.5-21.8c2,0,3.7,0.4,5.2,0.9V130.2z" fill="#6C3C77"  />
		
		
		
		
		
		
		
		
		
		
		
	</g><g><path d="M887.5,151.3v-43.1c0-5.7,3.2-10,8.6-10c5.2,0,5.9,4.3,5.9,10.4v42.7h22.4v-46.6    c0-16.2-8.2-23.5-21.3-23.5c-8.9,0-15.2,3.6-19.4,9.3l-1.3-7.3h-18.5l1.6,13.7v54.4H887.5" fill="#6C3C77"  /><path d="M989.7,138.3V86.5c-8.2-3.6-19.3-5.3-27.3-5.3c-20.5,0-34.9,12-34.9,34.8c0,16.2,9.6,26.6,20.4,28.2    c-8.8,6.4-14,13.4-14,23.1c0,11.8,8,19.2,23.9,19.2c20.1,0,29.9-12.4,31.4-32.7C989.6,150.1,989.7,141.7,989.7,138.3 M967.7,124.2    c0,6-3.9,9.2-8.2,9.2c-8.6,0-9.6-9.2-9.6-17.6c0-9.4,3.2-18.8,12.4-18.8c2.3,0,3.9,0.3,5.5,0.7v26.5H967.7z M967.9,151.5    c0,12.2-0.9,19.2-7.8,19.2c-3.9,0-6.1-1.9-6.1-6.7c0-7.3,5.9-14.6,14-19.3v6.8H967.9z" fill="#6C3C77"  />
		
		
	</g><g><path d="M269.7,96.4v51.7c8.2,3.6,19.3,5.3,27.3,5.3c20.5,0,34.9-12,34.9-34.9c0-16.2-9.6-26.6-20.4-28.2    c8.8-6.4,14-13.4,14-23.1c0-11.8-8-19.2-23.9-19.2c-20.1,0-29.9,12.4-31.4,32.7C269.8,84.5,269.7,92.9,269.7,96.4 M291.7,110.5    c0-6,3.9-9.2,8.2-9.2c8.6,0,9.6,9.2,9.6,17.6c0,9.4-3.2,18.8-12.4,18.8c-2.3,0-3.9-0.3-5.5-0.7L291.7,110.5L291.7,110.5z     M291.5,83.2c0-12.2,0.9-19.2,7.8-19.2c3.9,0,6.1,1.9,6.1,6.7c0,7.3-5.9,14.6-14,19.3v-6.8H291.5z" fill="#6C3C77"  /><rect x="836.5" y="83.2" width="22.4" height="68.1" fill="#6C3C77"  /><path d="M835.9,65.6c0,6.4,4.5,11,11.8,11c7,0,11.8-4.7,11.8-11c0-6.1-4.8-11-11.8-11    C840.4,54.6,835.9,59.5,835.9,65.6" fill="#6C3C77"  />
		
		
		
	</g>
	
	
	
</g></svg>