<svg viewBox="0 0 254.1 283.5" role="img" aria-labelledby="timms--title" xmlns="http://www.w3.org/2000/svg" xmlns:xlink="http://www.w3.org/1999/xlink"><title id="timms--title">TIMMS</title><g><ellipse cx="159.3" cy="45.4" rx="29.4" ry="45.4" fill="#008576"  /><path d="M77.5,118c0,15-8.4,27.2-18.8,27.2S39.9,133,39.9,118s8.4-27.2,18.8-27.2S77.5,103,77.5,118z" fill="#008576"  /><path d="M3.4,219.8h244.7c0,0-25.8-127-90.3-127.1c-43.6,0-68.9,67.8-68.9,67.8s-14.1-12.8-30.3-12.8   C14.1,147.8,3.4,219.8,3.4,219.8z" fill="#008576"  /><path d="M193.1,137.1c-11,0-20,8.6-20.8,19.5c-9.4-6.6-26.2-7.4-42.7-1.1c-21.1,8.1-33.5,24.8-27.7,37.3   s27.6,16.2,48.7,8.1c15.7-6,26.6-16.8,28.8-27.1c3.7,3.3,8.5,5.2,13.8,5.2c11.5,0,20.8-9.4,20.8-20.9   C213.9,146.4,204.6,137.1,193.1,137.1z" fill="#FFFFFF"  /><path d="M250.7,231.5c0.3,3.6,0.6,7.3,0.9,10.9c-3.7-1-5.3-1.1-7.7-1.6   c-2-0.3-4.1,0-6.8,0.8c-2.8,0.8-3.4,5.5-1.7,7c2.6,1.3,9.7,5.5,10.3,5.5c5.2,3.2,8.7,7.4,8.6,15.6c-0.3,0,0.2,5.3-7.7,10.9   c-6.5,4-17.5,3-25.7,1.6c-0.6-3.9-1.1-7.8-1.7-11.7c2.9,0.8,5.7,1.6,8.6,2.3c6.1,1.3,11.9-0.5,12-5.5c-1.3-3.8-18.1-11.7-18.8-14   c-1.3-2.2-0.9-7.6-0.9-10.9c0-5,7.7-9.4,7.7-9.4S232.7,231.1,250.7,231.5L250.7,231.5z" fill-rule="evenodd"  clip-rule="evenodd"  fill="#008576"  /><path d="M41.9,231.5c0.3,3.9,0.6,7.8,0.9,11.7c-5-0.4-8.3-1.5-14.5-1.6c-0.1,13.9-0.7,28.6,1.7,40.5   c-5.7,0-11.4,0-17.1,0c2.3-11.8,1.7-26.6,1.7-40.5c-6.3-0.1-9.3,1.3-14.5,1.6c0-0.3,0.9-8,0.9-10.9   C4.1,231.2,32.8,231.5,41.9,231.5L41.9,231.5z M48.8,231.5c5.4,0,10.8,0,16.3,0c-0.6,9.9,0,49.1,0,50.7c-5.4,0-10.8,0-16.3,0   C48.8,279.1,49.1,245.3,48.8,231.5L48.8,231.5z M79.6,231.5c5.4,0,10.8,0,16.3,0c0.4,2.4,9.3,25.8,11.1,29.6   c1-0.9,9.7-23.1,11.1-29.6c5.1,0,10.3,0,15.4,0c1.7,13.3,7.3,47.1,7.7,50.7c-5.1,0-10.3,0-15.4,0c0.1-12-1.6-21.7-1.7-32.7   c-0.6,0-1.1,0-1.7,0c-0.3,1.7-8.6,24.4-11.1,32.7c-3.1,0-6.3,0-9.4,0c-2.6-8.6-10.4-30.4-11.1-33.5c-0.3,0-0.6,0-0.9,0   c-0.9,10.1-2.3,22.8-2.6,33.5c-4.8,0-9.7,0-14.5,0C72.8,277.6,78.7,240.6,79.6,231.5L79.6,231.5z M152.3,231.5c5.4,0,10.8,0,16.3,0   c0.4,2.4,9.3,25.8,11.1,29.6c1-0.9,9.7-23.1,11.1-29.6c5.1,0,10.3,0,15.4,0c1.7,13.3,7.3,47.1,7.7,50.7c-5.1,0-10.3,0-15.4,0   c0.1-12-1.6-21.7-1.7-32.7c-0.6,0-1.1,0-1.7,0c-0.3,1.7-8.6,24.4-11.1,32.7c-3.1,0-6.3,0-9.4,0c-2.6-8.6-10.4-30.4-11.1-33.5   c-0.3,0-0.6,0-0.9,0c-0.9,10.1-2.3,22.8-2.6,33.5c-4.8,0-9.7,0-14.5,0C145.5,277.6,151.5,240.6,152.3,231.5L152.3,231.5z" fill="#008576"  />
	
	
	
	
	
	
</g></svg>