<svg viewBox="0 0 785.5 283.5" role="img" aria-labelledby="ucl--title" xmlns="http://www.w3.org/2000/svg" xmlns:xlink="http://www.w3.org/1999/xlink"><title id="ucl--title">UCL</title><path d="M0,0v283.5h184.5c-2.8-2-5.3-4-7.6-6.2c-20.4-19.7-20.7-42.7-21.3-64.1V91.3h65.3v128c0,8.7,0.3,17.7,7.6,24.7  c5.2,5.5,13.1,7.5,20.7,7.5c10.2,0,16.9-3.8,20.7-7.2c7.6-7.3,7.9-16.3,7.9-25v-128h65.6v109.1c0,23.5,0,54-24.2,76.9  c-2.3,2.2-4.9,4.2-7.6,6.2h97.8c-28.8-20.6-42.3-55.2-42.3-88.6c0-55.1,37-111.1,106.7-111.1c31.2,0,60.9,11,82.5,33.1  c8.7,9,12.8,16,17.2,24.1l-54.5,27c-5.2-12.2-15.2-34-42.6-34c-14.3,0-23.3,6.7-27.7,11c-15.4,14.8-15.4,38-15.4,46.1  c0,30.5,11.4,59.2,43.4,59.2c30.3,0,39.3-26.7,41.7-33.7l55.4,26.7c-5.2,9.9-10.2,19.1-20.1,29c-4.3,4.2-8.9,7.9-13.7,11.1h59.9V91  h65v151.3h84.1v41.2h36.6V0H0z" /><path d="M68.2,148.2L32,156l0.6,2h0.1c0,0,0.6-0.1,0.9,0.5l0.6,3.2h68.3l0.6-3.1c0.3-0.6,0.9-0.5,0.9-0.5h0.1l0.5-2  L68.2,148.2z" fill="#FFFFFF"  /><path d="M41.4,162.6C41.4,162.6,41.4,162.5,41.4,162.6l0.1-0.9c0,0,0-0.1-0.1-0.1H36c0,0-0.1,0-0.1,0.1v0.9  c0,0.1,0,0.1,0.1,0.1h0.2c0.1,0,0.1,0.1,0.1,0.2s0.1,0.9,0.6,1.3c0.1,0.1,0.1,0.2,0,0.2h-0.2c-0.1,0-0.1,0.1-0.1,0.2  s0.1,0.3,0.1,0.4v0.4c0,0.1,0,0.1,0.1,0.1h0.1c0,0,0.1,0,0.1,0.1c0,0.1-0.1,9.4-0.1,9.4v10.9l-0.3,0.3v0.5h-0.3  c-0.1,0-0.1,0-0.1,0.1v0.6h5.4v-0.6c0,0,0-0.1-0.1-0.1H41h-0.1v-0.4v-0.1l-0.3-0.3V175c0,0-0.1-9.3-0.1-9.4c0-0.1,0.1-0.1,0.1-0.1  h0.1c0.1,0,0.1-0.1,0.1-0.1V165c0-0.1,0-0.4,0.1-0.4c0-0.1,0-0.2-0.1-0.2h-0.2c-0.2,0-0.1-0.2,0-0.2c0.5-0.4,0.6-1.1,0.6-1.3  C41.2,162.8,41.2,162.7,41.4,162.6L41.4,162.6L41.4,162.6z M53.2,162.6C53.2,162.6,53.3,162.5,53.2,162.6l0.1-0.9c0,0,0-0.1-0.1-0.1  h-5.4c0,0-0.1,0-0.1,0.1v0.9c0,0.1,0,0.1,0.1,0.1H48c0.1,0,0.1,0.1,0.1,0.2s0.1,0.9,0.6,1.3c0.1,0.1,0.1,0.2,0,0.2h-0.2  c-0.1,0-0.1,0.1-0.1,0.2s0.1,0.3,0.1,0.4v0.4c0,0.1,0,0.1,0.1,0.1h0.1c0,0,0.1,0,0.1,0.1c0,0.1-0.1,9.4-0.1,9.4v10.9l-0.3,0.3v0.5  H48c0,0-0.1,0-0.1,0.1v0.6h5.4v-0.6c0,0,0-0.1-0.1-0.1h-0.3h-0.1v-0.4v-0.1l-0.3-0.3V175c0,0-0.1-9.3-0.1-9.4c0-0.1,0.1-0.1,0.1-0.1  h0.1c0.1,0,0.1-0.1,0.1-0.1V165c0-0.1,0-0.4,0.1-0.4c0-0.1,0-0.2-0.1-0.2h-0.2c-0.2,0-0.1-0.2,0-0.2c0.5-0.4,0.5-1.1,0.5-1.3  C53,162.8,53,162.7,53.2,162.6L53.2,162.6L53.2,162.6z M65,162.6C65,162.6,65.1,162.5,65,162.6l0.1-0.9c0,0,0-0.1-0.1-0.1h-5.4  c0,0-0.1,0-0.1,0.1v0.9c0,0.1,0,0.1,0.1,0.1h0.2c0.1,0,0.1,0.1,0.1,0.2s0.1,0.9,0.6,1.3c0.1,0.1,0.1,0.2-0.1,0.2h-0.2  c-0.1,0-0.1,0.1-0.1,0.2c0.1,0.1,0.1,0.3,0.1,0.4v0.4c0,0.1,0,0.1,0.1,0.1h0.1c0,0,0.1,0,0.1,0.1c0,0.1-0.1,9.4-0.1,9.4v10.9  l-0.3,0.3v0.5h-0.4c0,0-0.1,0-0.1,0.1v0.6H65v-0.6c0,0,0-0.1-0.1-0.1h-0.3h-0.1v-0.4v-0.1l-0.3-0.3V175c0,0-0.1-9.3-0.1-9.4v-0.1  h0.1c0.1,0,0.1-0.1,0.1-0.1V165c0-0.1,0.1-0.4,0.1-0.4c0-0.1,0-0.2-0.1-0.2h-0.2c-0.2,0-0.1-0.2,0-0.2c0.5-0.4,0.5-1.1,0.5-1.3  c0-0.1,0-0.2,0.1-0.2L65,162.6L65,162.6z M76.8,162.6C76.9,162.6,76.9,162.5,76.8,162.6l0.1-0.9c0,0,0-0.1-0.1-0.1h-5.4  c0,0-0.1,0-0.1,0.1v0.9c0,0.1,0,0.1,0.1,0.1h0.3c0.1,0,0.1,0.1,0.1,0.2s0.1,0.9,0.6,1.3c0.1,0.1,0.1,0.2,0,0.2h-0.2  c-0.1,0-0.1,0.1-0.1,0.2s0.1,0.3,0.1,0.4v0.4c0,0.1,0,0.1,0.1,0.1h0.1c0,0,0.1,0,0.1,0.1c0,0.1-0.1,9.4-0.1,9.4v10.9l-0.3,0.3v0.5  h-0.4c-0.1,0-0.1,0-0.1,0.1v0.6H77v-0.6c0,0,0-0.1-0.1-0.1h-0.3h-0.1v-0.4v-0.1l-0.3-0.3V175c0,0-0.1-9.3-0.1-9.4v-0.1h0.1  c0.1,0,0.1-0.1,0.1-0.1V165c0-0.1,0-0.4,0.1-0.4c0-0.1,0-0.2-0.1-0.2H76c-0.2,0-0.1-0.2,0-0.2c0.5-0.4,0.5-1.1,0.5-1.3  c0-0.1,0-0.2,0.1-0.2L76.8,162.6L76.8,162.6z M88.7,162.6C88.7,162.6,88.7,162.5,88.7,162.6l0.1-0.9c0,0,0-0.1-0.1-0.1h-5.4  c0,0-0.1,0-0.1,0.1v0.9c0,0.1,0,0.1,0.1,0.1h0.2c0.1,0,0.1,0.1,0.1,0.2s0.1,0.9,0.6,1.3c0.1,0.1,0.1,0.2,0,0.2H84  c-0.1,0-0.1,0.1-0.1,0.2c0.1,0.1,0.1,0.3,0.1,0.4v0.4c0,0.1,0,0.1,0.1,0.1h0.1c0,0,0.1,0,0.1,0.1c0,0.1-0.1,9.4-0.1,9.4v10.9  l-0.3,0.3v0.5h-0.4c0,0-0.1,0-0.1,0.1v0.6h5.4v-0.6c0,0,0-0.1-0.1-0.1h-0.3h-0.1v-0.4v-0.1l-0.3-0.3V175c0,0-0.2-9.3-0.2-9.4  c0-0.1,0.1-0.1,0.1-0.1H88c0.1,0,0.1-0.1,0.1-0.1V165c0-0.1,0-0.4,0.1-0.4c0-0.1,0-0.2-0.1-0.2h-0.2c-0.2,0-0.1-0.2-0.1-0.2  c0.5-0.4,0.6-1.1,0.6-1.3c0-0.1,0-0.2,0.1-0.2L88.7,162.6L88.7,162.6z M100.5,162.6C100.5,162.6,100.6,162.5,100.5,162.6l0.1-0.9  c0,0,0-0.1-0.1-0.1h-5.3c-0.1,0-0.1,0-0.1,0.1v0.9c0,0.1,0,0.1,0.1,0.1h0.2c0.1,0,0.1,0.1,0.1,0.2s0.1,0.9,0.6,1.3  c0.1,0.1,0.1,0.2,0,0.2h-0.2c-0.1,0-0.1,0.1-0.1,0.2c0.1,0.1,0.1,0.3,0.1,0.4v0.4c0,0.1,0,0.1,0.1,0.1c0,0,0.1,0,0.1,0.1  c0,0.1-0.1,9.4-0.1,9.4v10.9l-0.3,0.3v0.5h-0.4c0,0-0.1,0-0.1,0.1v0.6h5.4v-0.6c0,0,0-0.1-0.1-0.1h-0.3h-0.1v-0.4v-0.1l-0.3-0.3V175  c0,0-0.2-9.3-0.2-9.4c0-0.1,0.1-0.1,0.1-0.1h0.1c0.1,0,0.1-0.1,0.1-0.1V165c0-0.1,0.1-0.4,0.1-0.4c0-0.1,0-0.2-0.1-0.2h-0.1  c-0.2,0-0.1-0.2-0.1-0.2c0.5-0.4,0.6-1.1,0.6-1.3C100.3,162.8,100.3,162.7,100.5,162.6L100.5,162.6L100.5,162.6z M85,141.2h-0.6  c-0.1,0-0.1-0.1-0.1-0.1v-0.6c0-0.2-0.1-0.2-0.1-0.2h-0.6c-0.1,0-0.1-0.1-0.1-0.1v-0.5c0,0,0-0.1-0.2-0.1H83c-0.1,0-0.2-0.1-0.2-0.3  c0-0.8,0.2-6.2-2.6-10.1c-2.2-3.4-5.3-5.1-7-5.9c0-0.7-1.1-1-1.5-1.2c-0.2-0.1-0.4-0.2-0.4-0.4v-0.3c0-0.2,0.2-0.3,0.5-0.3  c0.1,0,0.2-0.1,0.2-0.1v-0.7c0-0.1-0.1-0.2-0.2-0.2H71c-0.2,0-0.2-0.1-0.2-0.2v-0.3c0-0.2-0.2-0.3-0.3-0.4v-4c0-0.1,0.1-0.1,0.2-0.1  c0.1,0,0.1,0,0.1-0.1v-0.4c0,0,0-0.1-0.1-0.1h-0.2c0,0-0.1-0.1-0.1-0.3c0-0.2,0.1-0.3,0.1-0.3h0.1c0.1,0,0.1,0,0.1-0.1v-0.4  c0-0.1,0-0.1-0.1-0.1h-0.2c-0.1,0-0.1-0.1-0.2-0.1c-0.7-0.5-1.4-1.3-1.4-1.5v-0.1c0-0.1-0.1-0.3-0.3-0.3c-0.2,0-0.2-0.2-0.1-0.2  c0.1,0,0.1,0,0.1-0.1v-0.3c0-0.1-0.3-0.6-0.3-0.6s-0.4,0.5-0.4,0.6v0.3c0,0.1,0,0.1,0.1,0.1c0.1,0,0.1,0.2-0.1,0.2  c-0.2,0-0.3,0.2-0.3,0.3v0.1c0,0.1-0.7,0.9-1.4,1.5c-0.1,0.1-0.1,0.1-0.3,0.1h-0.2c-0.1,0-0.1,0-0.1,0.1v0.4c0,0.1,0,0.1,0.1,0.1H66  c0.1,0,0.1,0.1,0.1,0.3c0,0.2,0,0.3-0.1,0.3h-0.2c-0.1,0-0.1,0.1-0.1,0.1v0.4c0,0,0,0.1,0.1,0.1h0.1c0.1,0,0.2,0,0.2,0.1v4  c-0.1,0.1-0.3,0.2-0.3,0.4v0.3c0,0.1-0.1,0.2-0.2,0.2H65c-0.1,0-0.2,0.1-0.2,0.2v0.7c0,0.1,0.1,0.1,0.2,0.1c0.3,0,0.5,0.1,0.5,0.3  v0.3c0,0.2-0.2,0.3-0.4,0.4c-0.4,0.2-1.5,0.4-1.5,1.2c-1.7,0.8-4.8,2.5-7,5.9c-2.9,3.9-2.6,9.3-2.6,10.1c0,0.2-0.1,0.3-0.3,0.3h-0.3  c-0.2,0-0.2,0.1-0.2,0.1v0.5c0,0,0,0.1-0.1,0.1h-0.6c0,0-0.1,0-0.1,0.2v0.6c0,0,0,0.1-0.1,0.1h-0.6c0,0-0.2,0-0.2,0.2v0.7  c0,0.1,0,0.1,0.1,0.1c0.2,0,0.5,0.2,0.5,0.5c0,0.6,0.4,0.7,0.5,0.7v2.4c0,0.5-0.4,0.8-0.7,0.8l-0.1,0.1v3.9l16.5-3.7l16.5,3.7v-3.9  c0,0,0-0.1-0.1-0.1c-0.3,0-0.7-0.3-0.7-0.8v-2.4c0.2,0,0.5,0,0.5-0.7c0-0.4,0.3-0.5,0.5-0.5c0.1,0,0.1,0,0.1-0.1v-0.7  C85.2,141.2,85,141.2,85,141.2" fill="#FFFFFF"  /></svg>