<svg viewBox="0 0 283.5 283.5" role="img" aria-labelledby="university-of-oxford--title" xmlns="http://www.w3.org/2000/svg" xmlns:xlink="http://www.w3.org/1999/xlink"><title id="university-of-oxford--title">University of Oxford</title><path d="M0,0h283.5v283.5H0V0z" fill="#002147"  /><g><path d="M38.5,200.7c-0.9,0.9-2.4,1.7-4.6,1.7c-1.8,0-3.5-0.6-4.7-1.7c-1.5-1.5-1.5-3.5-1.5-5.1v-10.5H30v10.7   c0,1.3,0,2.6,1,3.6c0.7,0.7,1.8,1.1,3,1.1c1.3,0,2.2-0.4,2.8-1c1.1-1.1,1-2.4,1-5.3v-9H40v8.6C40,196.9,40.1,199.1,38.5,200.7z    M56.4,202.1l-8-13.5l0,13.5h-2.1v-17h2.3l8,13.6l-0.1-13.6h2.1v17H56.4z M65.6,202.1v-17h2.3v17H65.6z M80.6,202.1h-2.5l-5.9-17   h2.4l4.8,14.7l4.9-14.7h2.2C86.6,185.1,80.6,202.1,80.6,202.1z M91,202.1v-17h9.4v1.9h-7.2v5.4h6.7v1.8h-6.7v6h7.4v1.9   C100.6,202.1,91,202.1,91,202.1z M115.2,202.1l-2-4.4c-1.2-2.6-1.7-2.9-4-2.9h-1.1v7.3h-2.2v-17h3.8c2.3,0,4,0,5.4,1.4   c0.8,0.8,1.3,2,1.3,3.4c0,1.2-0.3,2.2-1,2.9c-0.6,0.7-1.6,1.2-2.7,1.4c0.6,0,1.1,0.4,1.5,0.7c0.5,0.5,0.9,1.3,1.3,2.4l2.2,4.9   L115.2,202.1L115.2,202.1z M113.4,187.8c-0.9-0.9-2.1-0.9-3.5-0.9h-1.8v6.1h0.8c1.6,0,3.3,0,4.4-1c0.5-0.5,0.8-1.3,0.8-2.1   C114.1,188.9,113.8,188.2,113.4,187.8z M126.4,202.4c-3,0-5-1.6-5.2-1.8l1.1-1.6c0.3,0.2,2,1.5,4,1.5c2.1,0,3.3-1.2,3.3-2.8   c0-1.9-2.1-2.8-3.9-3.7c-2.2-1-4-2.2-4-4.7c0-2.7,2.2-4.6,5.3-4.6c3.1,0,4.7,1.6,4.8,1.7l-1.1,1.5c-0.2-0.2-1.6-1.3-3.5-1.3   c-1.9,0-3.2,0.9-3.2,2.4c0,1.6,1.5,2.2,3.2,3.1c1.5,0.8,4.8,1.9,4.8,5.3C131.9,200.3,129.9,202.4,126.4,202.4z M137.3,202.1v-17   h2.3v17H137.3z M151.3,187v15.1H149V187h-5v-1.9h12.3v1.9H151.3z M166.2,195.4v6.7h-2.3v-6.7l-5.4-10.3h2.5l4.1,8l4.1-8h2.3   C171.6,185.1,166.2,195.4,166.2,195.4z M190.6,202.4c-4.5,0-7.7-3.6-7.7-8.8c0-5.3,3.2-8.9,7.9-8.9c4.5,0,7.7,3.6,7.7,8.7   C198.4,198.8,195.3,202.4,190.6,202.4z M190.6,186.7c-3.2,0-5.4,2.7-5.4,6.9c0,4.1,2.4,6.9,5.5,6.9c3.5,0,5.4-3,5.4-7   C196.1,189.4,193.8,186.7,190.6,186.7z M206.2,187v5.4h6.5v1.8h-6.5v7.9h-2.3v-17h9.2v1.9H206.2z M62.1,235.5   c0,10.9-8.4,18.8-18.9,18.8c-10.7,0-18.9-8-18.9-18.4c0-10.9,8.4-18.8,18.9-18.8C54,217.1,62.1,225.1,62.1,235.5z M56.1,235.7   c0-9.9-4.7-16.6-12.8-16.6c-8.8,0-12.8,8.1-12.8,16.6c0,9.9,4.7,16.6,12.8,16.6C52.1,252.3,56.1,244.2,56.1,235.7z M177.4,235.5   c0,10.9-8.4,18.8-18.9,18.8c-10.7,0-18.9-8-18.9-18.4c0-10.9,8.4-18.8,18.9-18.8C169.2,217.1,177.4,225.1,177.4,235.5z    M171.3,235.7c0-9.9-4.7-16.6-12.8-16.6c-8.8,0-12.8,8.1-12.8,16.6c0,9.9,4.7,16.6,12.8,16.6C167.3,252.3,171.3,244.2,171.3,235.7z    M192,235.8h4.5c6.8,0,8.2-4.2,8.2-8.3c0-3.1-1.3-5.6-4.5-7c-1.7-0.7-3.3-0.8-5.5-0.8H192V235.8z M200.2,241.7   c-2.1-3-2.9-3.9-5.5-3.9H192v12c0,1,0.3,1.5,1.5,1.7l4.1,0.8v1.4h-16.2v-1.4l3.7-0.8c1.2-0.3,1.5-0.7,1.5-1.7v-28.2   c0-1-0.4-1.5-1.5-1.7l-3.7-0.8v-1.4h15.8c3.3,0,5.6,0.3,7.5,1c3.9,1.5,6.1,5.2,6.1,8.7c0,4.4-3.3,8.1-8.8,9.4v0.2   c1.1,0.5,1.7,1.2,5.6,6.3l5,6.5c0.7,1,1.5,1.7,2.8,1.9l3.4,0.6v1.4h-8.7c-1,0-1.5-0.3-2.4-1.5C207.7,252.2,200.2,241.7,200.2,241.7   z M129.8,230.1h1.7V242h-1.7l-0.7-3.4c-0.3-1.3-1.1-1.8-2.3-1.8h-8.7v13c0,1,0.3,1.5,1.5,1.7l4.1,0.8v1.4h-16.2v-1.4l3.7-0.8   c1.2-0.3,1.5-0.7,1.5-1.7v-28.2c0-1-0.4-1.5-1.5-1.7l-3.7-0.8v-1.4h27.3v9h-1.7l-1.4-5.1c-0.4-1.4-1.2-1.9-2.4-1.9h-11.2v15.1h8.7   c1.2,0,2-0.5,2.3-1.8L129.8,230.1L129.8,230.1z M221.7,253.7v-1.4l3.7-0.8c1.2-0.3,1.5-0.7,1.5-1.7v-28.2c0-1-0.4-1.5-1.5-1.7   l-3.7-0.8v-1.4h16.9c4.6,0,7.9,0.6,10.6,1.8c6.8,3.1,9.9,9.8,9.9,16.4c0,6.4-2.4,12.4-8.5,15.6c-2.8,1.5-6.7,2.2-11.8,2.2   L221.7,253.7L221.7,253.7L221.7,253.7z M232.2,219.8v30.4c0,1.3,0.3,1.6,1.6,1.6h4.4c4.2,0,7.3-0.5,9.5-2.1   c3.7-2.7,5.3-7.4,5.3-13.6c0-6.1-1.6-11.9-6.6-14.8c-2.1-1.2-4.8-1.5-9-1.5H232.2L232.2,219.8z M76.3,252.3v1.4H63.4v-1.4l3.2-0.7   c1.2-0.3,2.1-0.7,2.8-1.6l10.8-13.8l-10.8-14.6c-0.7-1-1.6-1.5-2.7-1.8l-3-0.7v-1.4h15.9v1.4l-3.4,0.6c-1.1,0.2-1,0.5-0.4,1.3   l8,11.3H84l8.3-11.1c0.6-0.8,0.6-1.2-0.3-1.4l-3.2-0.7v-1.4h12.9v1.4l-3.2,0.7c-1.2,0.3-2.1,0.7-2.8,1.6l-10.3,12.9l11.5,15.5   c0.7,1,1.6,1.5,2.7,1.8l3,0.7v1.4H86.7v-1.4l3.4-0.6c1.1-0.2,1-0.5,0.4-1.3l-8.7-12.2h-0.2l-8.9,12.2c-0.6,0.8-0.7,1,0.4,1.2   L76.3,252.3L76.3,252.3z" fill="#FFFFFF"  />
	
</g><path d="M199.8,69.9c0-2.1-0.7-3.8-2.2-4.7c-1-0.6-2.3-0.8-3.9-0.8l-11.6,0v23.6h12.7c2.9,0,4.7,0.7,4.8,3.3h0.3  C199.8,91.4,199.8,69.9,199.8,69.9z M201.8,69.9c0-2.1,0.7-3.8,2.2-4.7c1-0.6,2.3-0.8,3.9-0.8l11.7,0v23.6h-12.8  c-2.9,0-4.7,0.7-4.8,3.3h-0.3C201.8,91.4,201.8,69.9,201.8,69.9z" fill="#FFFFFF"  /><path d="M222.3,66v25.3h-18.4l-0.3,0.6c-0.3,0.7-0.8,1.4-2.8,1.4c-1.9,0-2.5-0.7-2.8-1.4l-0.3-0.6h-18.4V66h-2v0.7  l-1.4-0.4c-0.2-0.6-0.8-1.1-1.5-1.1c-0.9,0-1.6,0.7-1.6,1.6s0.7,1.6,1.6,1.6c0.4,0,0.7-0.1,1-0.3l1.9,0.6v1.9l-1.4-0.2  c-0.4-0.8-1.3-1.1-2.1-0.7c-0.8,0.4-1.1,1.3-0.7,2.1c0.4,0.8,1.3,1.1,2.1,0.7c0.2-0.1,0.3-0.2,0.4-0.3l1.7,0.3v2l-1.5-0.1  c-0.5-0.7-1.4-0.9-2.2-0.5c-0.4,0.3-0.7,0.8-0.7,1.3c0,0.9,0.7,1.6,1.6,1.6c0.5,0,0.9-0.2,1.2-0.6l1.5,0.1v2.1l-1.5,0.1  c-0.3-0.4-0.8-0.6-1.2-0.6c-0.9,0-1.5,0.8-1.5,1.6c0,0.8,0.7,1.5,1.5,1.5c0.5,0,1-0.3,1.3-0.7l1.4-0.1v2l-1.7,0.3  c-0.6-0.6-1.6-0.6-2.2,0c-0.3,0.3-0.5,0.7-0.5,1.1c0,0.9,0.7,1.6,1.6,1.6c0.6,0,1.2-0.4,1.4-0.9l1.4-0.2v1.9l-1.8,0.6  c-0.3-0.2-0.6-0.3-0.9-0.3c-0.9,0-1.5,0.8-1.5,1.6c0,0.8,0.7,1.5,1.5,1.5c0.7,0,1.3-0.5,1.5-1.1l1.3-0.4v1.9l-2.1,0.9  c-0.7-0.5-1.7-0.2-2.1,0.5c-0.2,0.3-0.2,0.6-0.2,0.9c0,0.9,0.8,1.5,1.6,1.5c0.7,0,1.3-0.5,1.5-1.2l1.4-0.6v1.8h19.1  c0.8,1.4,2.2,2,4.2,2c2.1,0,3.4-0.7,4.2-2h19.2V66C224.3,66,222.3,66,222.3,66z" fill="#FFFFFF"  /><g><ellipse cx="188.3" cy="59.1" rx="7" ry="1.3" fill="#FFFFFF"  /><path d="M197.9,49.2l-4,2.8l0,0.3l1,0.4c0.2,0.1,0.2,0.2,0.1,0.3l-2.5,2.1l-0.2,0l-1.8-2.6   c-0.1-0.2-0.1-0.3,0.1-0.4l1.2-0.2v-0.3l-3.1-4.4H188l-3.1,4.4v0.3l1.2,0.2c0.2,0,0.3,0.2,0.1,0.4l-1.8,2.6l-0.2,0l-2.4-2.1   c-0.1-0.1-0.1-0.2,0.1-0.3l1-0.4l0-0.3l-4.2-2.8l-0.3,0.1l2.5,7.5c1.2-0.6,4.1-1,7.5-1c3.4,0,6.2,0.4,7.5,1l2.5-7.5   C198.2,49.3,197.9,49.2,197.9,49.2z" fill="#FFFFFF"  />
	
	
</g><g><ellipse cx="200.8" cy="109.6" rx="7" ry="1.3" fill="#FFFFFF"  /><path d="M210.4,99.6l-4,2.8l0,0.3l1,0.4c0.2,0.1,0.2,0.2,0.1,0.3l-2.5,2.1l-0.2,0l-1.8-2.6   c-0.1-0.2-0.1-0.3,0.1-0.4l1.2-0.2v-0.3l-3.1-4.4h-0.5l-3.1,4.4v0.3l1.2,0.2c0.2,0,0.3,0.2,0.1,0.4l-1.8,2.6l-0.2,0l-2.4-2.1   c-0.1-0.1-0.1-0.2,0.1-0.3l1-0.4l0-0.3l-4.2-2.8l-0.3,0.1l2.5,7.5c1.3-0.6,4.1-1,7.5-1c3.4,0,6.2,0.4,7.5,1l2.5-7.5L210.4,99.6   L210.4,99.6z" fill="#FFFFFF"  />
	
	
</g><g><ellipse cx="213.3" cy="59.1" rx="7" ry="1.3" fill="#FFFFFF"  /><path d="M222.9,49.2l-4,2.8l0,0.3l1,0.4c0.2,0.1,0.2,0.2,0.1,0.3l-2.5,2.1l-0.2,0l-1.8-2.6   c-0.1-0.2-0.1-0.3,0.1-0.4l1.2-0.2v-0.3l-3.1-4.4H213l-3.1,4.4v0.3l1.2,0.2c0.2,0,0.3,0.2,0.1,0.4l-1.8,2.6l-0.2,0l-2.4-2.2   c-0.1-0.1-0.1-0.2,0.1-0.3l1-0.4l0-0.3l-4.2-2.8l-0.3,0.1l2.5,7.5c1.3-0.6,4.1-1,7.5-1c3.4,0,6.2,0.4,7.5,1l2.5-7.5L222.9,49.2   L222.9,49.2z" fill="#FFFFFF"  />
	
	
</g><circle cx="200.7" cy="28.9" r="1.4" fill="#FFFFFF"  /><circle cx="234.1" cy="42.2" r="1.4" fill="#FFFFFF"  /><g><path d="M185,68.1c0.6,0,1.2,0.1,1.5,0.5c0.2,0.2,0.4,0.6,0.4,1.1c0,1.3-1,1.9-2.2,1.9h-1.3v-0.2   c0.4,0,0.4-0.1,0.4-0.6V69c0-0.6,0-0.6-0.4-0.6v-0.2C183.5,68.1,185,68.1,185,68.1z M184.7,70.7c0,0.5,0.1,0.6,0.4,0.6   c0.4,0,0.9-0.5,0.9-1.4c0-1.1-0.6-1.4-1-1.4c-0.1,0-0.2,0-0.2,0c0,0,0,0.1,0,0.3C184.7,68.7,184.7,70.7,184.7,70.7z M190.9,69.8   c0,1.1-0.8,1.8-1.8,1.8c-1.1,0-1.7-0.8-1.7-1.7c0-0.8,0.6-1.8,1.8-1.8C190.2,68.1,190.9,68.8,190.9,69.8z M188.4,69.7   c0,0.9,0.4,1.6,0.9,1.6c0.4,0,0.7-0.4,0.7-1.4c0-1-0.4-1.6-0.8-1.6C188.7,68.3,188.4,68.8,188.4,69.7z M195.5,68.1v0.2   c-0.4,0-0.4,0.1-0.4,0.6l0.1,1.7c0,0.6,0,0.6,0.4,0.6v0.2h-1.6v-0.2c0.4,0,0.4-0.1,0.4-0.6l0-1.8h0l-1,2.6H193l-0.9-2.4h0l0,1.2   c0,0.4,0,0.7,0,0.9c0,0.2,0.1,0.2,0.5,0.3v0.2h-1.3v-0.2c0.2,0,0.3-0.1,0.4-0.3c0-0.2,0.1-0.4,0.1-0.9l0.1-1.1c0-0.7,0-0.7-0.4-0.7   v-0.2h1.2l0.9,2.1l0.8-2.1L195.5,68.1L195.5,68.1L195.5,68.1z M197.2,70.7c0,0.6,0,0.6,0.4,0.6v0.2h-1.7v-0.2   c0.4,0,0.4-0.1,0.4-0.6V69c0-0.6,0-0.6-0.4-0.6v-0.2h1.7v0.2c-0.4,0-0.4,0.1-0.4,0.6V70.7z" fill="#002147"  />
	
</g><g><path d="M188.8,77.8h-0.4l-1.9-2.5h0v1c0,0.5,0,0.8,0,1c0,0.2,0.2,0.2,0.5,0.3v0.2h-1.3v-0.2c0.2,0,0.4-0.1,0.4-0.3   c0-0.2,0-0.4,0-1v-1c0-0.4,0-0.5-0.1-0.6c-0.1-0.1-0.2-0.1-0.4-0.2v-0.2h1.2l1.7,2.2h0v-0.7c0-0.5,0-0.8,0-1c0-0.2-0.2-0.2-0.5-0.3   v-0.2h1.3v0.2c-0.3,0-0.4,0.1-0.4,0.3c0,0.3,0,0.7,0,1C188.8,75.8,188.8,77.8,188.8,77.8z M190.9,77.8c-0.4-0.9-0.9-2.2-1-2.7   c-0.2-0.4-0.3-0.5-0.5-0.5v-0.2h1.7v0.2l-0.2,0c-0.2,0-0.2,0.1-0.1,0.3c0.1,0.3,0.5,1.3,0.7,1.8c0.2-0.4,0.5-1.4,0.6-1.7   c0.1-0.3,0.1-0.4-0.2-0.4l-0.2,0v-0.2h1.3v0.2c-0.3,0-0.4,0.1-0.6,0.5c0,0.1-0.7,1.6-1.1,2.7L190.9,77.8L190.9,77.8z M193.3,76.7   c0.1,0.3,0.4,0.9,0.9,0.9c0.3,0,0.5-0.2,0.5-0.5c0-0.3-0.2-0.5-0.5-0.6l-0.1,0c-0.4-0.2-0.9-0.5-0.9-1c0-0.6,0.4-1.1,1.2-1.1   c0.2,0,0.3,0,0.5,0.1c0.1,0,0.2,0,0.3,0.1c0,0.2,0.1,0.5,0.1,0.8l-0.2,0c-0.1-0.3-0.3-0.7-0.7-0.7c-0.2,0-0.4,0.2-0.5,0.4   c0,0,0,0,0,0c0,0.3,0.2,0.4,0.5,0.6l0.1,0c0.5,0.2,0.9,0.5,0.9,1.1c0,0.6-0.5,1.1-1.3,1.1c-0.2,0-0.4,0-0.6-0.1   c-0.1,0-0.2-0.1-0.3-0.1c0-0.2-0.1-0.5-0.2-0.9L193.3,76.7L193.3,76.7z" fill="#002147"  />
	
</g><g><path d="M186.5,83.2c0,0.6,0,0.6,0.4,0.6V84h-1.7v-0.2c0.4,0,0.4-0.1,0.4-0.6v-1.7c0-0.6,0-0.6-0.4-0.6v-0.2h1.7   v0.2c-0.4,0-0.4,0.1-0.4,0.6V83.2z M188.6,83.2c0,0.3,0,0.4,0.1,0.4c0.1,0,0.2,0,0.4,0c0.2,0,0.4,0,0.5-0.1   c0.1-0.1,0.2-0.2,0.3-0.5l0.2,0c0,0.2-0.1,0.7-0.2,0.9h-2.6v-0.2c0.4,0,0.4-0.1,0.4-0.6v-1.7c0-0.6,0-0.6-0.4-0.6v-0.2h1.7v0.2   c-0.4,0-0.4,0.1-0.4,0.6L188.6,83.2L188.6,83.2L188.6,83.2z M191.5,83.2c0,0.3,0,0.4,0.1,0.4c0.1,0,0.2,0,0.4,0   c0.2,0,0.4,0,0.5-0.1c0.1-0.1,0.2-0.2,0.3-0.5l0.2,0c0,0.2-0.1,0.7-0.2,0.9h-2.6v-0.2c0.4,0,0.4-0.1,0.4-0.6v-1.7   c0-0.6,0-0.6-0.4-0.6v-0.2h1.7v0.2c-0.4,0-0.4,0.1-0.4,0.6L191.5,83.2L191.5,83.2z M194,84c-0.4-0.9-0.9-2.2-1-2.7   c-0.2-0.4-0.3-0.5-0.5-0.5v-0.2h1.7v0.2l-0.2,0c-0.2,0-0.2,0.1-0.1,0.3c0.1,0.3,0.5,1.3,0.7,1.8c0.2-0.4,0.5-1.4,0.6-1.7   c0.1-0.3,0.1-0.4-0.2-0.4l-0.2,0v-0.2h1.3v0.2c-0.3,0-0.4,0.1-0.6,0.5c0,0.1-0.7,1.6-1.1,2.7C194.4,84,194,84,194,84z" fill="#002147"  />
	
</g><g><path d="M208.3,68.2v0.2c-0.4,0-0.4,0.1-0.4,0.6l0.1,1.7c0,0.6,0,0.6,0.4,0.6v0.2h-1.6v-0.2c0.4,0,0.4-0.1,0.4-0.6   l0-1.8h0l-1,2.6h-0.3l-1-2.4h0l0,1.2c0,0.4,0,0.7,0,0.9c0,0.2,0.1,0.2,0.5,0.3v0.2H204v-0.2c0.3,0,0.3-0.1,0.4-0.3   c0-0.2,0.1-0.4,0.1-0.9l0.1-1.1c0-0.7,0-0.7-0.4-0.7v-0.2h1.2l0.9,2.1l0.8-2.1L208.3,68.2C208.3,68.2,208.3,68.2,208.3,68.2z    M210,70.8c0,0.6,0,0.6,0.4,0.6v0.2h-1.7v-0.2c0.4,0,0.4-0.1,0.4-0.6v-1.7c0-0.6,0-0.6-0.4-0.6v-0.2h1.7v0.2   c-0.4,0-0.4,0.1-0.4,0.6V70.8z M213.9,71.7h-0.4l-1.9-2.5h0v1c0,0.5,0,0.8,0,1c0,0.2,0.2,0.3,0.5,0.3v0.2h-1.3v-0.2   c0.2,0,0.4-0.1,0.4-0.3c0-0.2,0-0.4,0-1v-1c0-0.4,0-0.5-0.1-0.6c-0.1-0.1-0.2-0.1-0.4-0.2v-0.2h1.1l1.7,2.2h0v-0.7c0-0.3,0-0.7,0-1   c0-0.2-0.2-0.2-0.5-0.3v-0.2h1.3v0.2c-0.3,0-0.4,0.1-0.4,0.3c0,0.3-0.1,0.7,0,1C213.9,69.7,213.9,71.7,213.9,71.7z M216.1,71.4   l0.2,0c0.2,0,0.2-0.1,0.1-0.3l-0.2-0.5h-0.9l-0.2,0.5c-0.1,0.2-0.1,0.3,0.2,0.3l0.1,0v0.2h-1.2v-0.2c0.3,0,0.3-0.1,0.5-0.5l1-2.7   l0.4-0.1l0.4,1c0.2,0.6,0.4,1.2,0.6,1.8c0.2,0.5,0.3,0.5,0.5,0.5v0.2h-1.6C216.1,71.6,216.1,71.4,216.1,71.4z M215.4,70.3h0.7   l-0.3-1h0L215.4,70.3z" fill="#002147"  />
	
</g><g><path d="M208.3,77c0,0.6,0,0.6,0.5,0.6v0.2h-1.8v-0.2c0.4,0,0.5-0.1,0.5-0.6v-2.3h-0.1c-0.3,0-0.5,0.1-0.6,0.2   c-0.1,0.1-0.1,0.2-0.2,0.5h-0.2c0-0.4,0.1-0.8,0.1-1.1h0.2c0.1,0.1,0.1,0.1,0.3,0.1h2.1c0.1,0,0.2,0,0.2-0.1h0.2c0,0.2,0,0.7,0.1,1   l-0.2,0c-0.1-0.3-0.1-0.4-0.2-0.5c-0.1-0.1-0.3-0.1-0.5-0.1h-0.1L208.3,77L208.3,77L208.3,77z M211,77c0,0.6,0,0.6,0.4,0.6v0.2   h-1.7v-0.2c0.4,0,0.4-0.1,0.4-0.6v-1.7c0-0.6,0-0.6-0.4-0.6v-0.2h1.7v0.2c-0.4,0-0.4,0.1-0.4,0.6V77z M215.3,76.1   c0,1.1-0.8,1.8-1.8,1.8c-1.1,0-1.7-0.8-1.7-1.7c0-0.8,0.6-1.8,1.8-1.8C214.6,74.4,215.3,75.1,215.3,76.1z M212.8,76.1   c0,0.9,0.4,1.6,0.9,1.6c0.4,0,0.7-0.4,0.7-1.4c0-1-0.4-1.6-0.8-1.6C213.1,74.7,212.8,75.1,212.8,76.1z" fill="#002147"  />
	
</g><g><path d="M209.8,80.7v0.2c-0.4,0-0.4,0.1-0.4,0.6l0.1,1.7c0,0.6,0,0.6,0.4,0.6v0.2h-1.6v-0.2c0.4,0,0.4-0.1,0.4-0.6   l0-1.8h0l-1,2.6h-0.3l-1-2.4h0l0,1.2c0,0.3,0,0.6,0,0.9c0,0.2,0.1,0.2,0.5,0.3v0.2h-1.3v-0.2c0.3,0,0.4-0.1,0.4-0.3   c0-0.2,0.1-0.4,0.1-0.9l0.1-1.1c0-0.7,0-0.7-0.4-0.7v-0.2h1.2l0.9,2.1l0.8-2.1H209.8L209.8,80.7z M210.6,81.6c0-0.6,0-0.6-0.4-0.6   v-0.2h2.5c0,0.1,0,0.5,0.1,0.9l-0.2,0c-0.1-0.3-0.1-0.4-0.2-0.5c-0.1-0.1-0.3-0.1-0.5-0.1h-0.1c-0.2,0-0.2,0-0.2,0.2v1h0.3   c0.4,0,0.5,0,0.5-0.4h0.2V83h-0.2c-0.1-0.5-0.1-0.5-0.5-0.5h-0.3v0.8c0,0.3,0,0.4,0.1,0.4c0.1,0,0.2,0,0.4,0c0.2,0,0.4,0,0.6-0.2   c0.1-0.1,0.2-0.3,0.3-0.5l0.2,0c0,0.3-0.1,0.6-0.2,0.9h-2.6v-0.2c0.4,0,0.4-0.1,0.4-0.6C210.6,83.3,210.6,81.6,210.6,81.6z    M214.8,83.9l0.2,0c0.2,0,0.2-0.1,0.1-0.3l-0.2-0.5h-0.9l-0.2,0.5c-0.1,0.2-0.1,0.3,0.2,0.3l0.2,0v0.2H213v-0.2   c0.3,0,0.3-0.1,0.5-0.5l1-2.7l0.4-0.1l0.4,1c0.2,0.6,0.4,1.2,0.6,1.8c0.2,0.5,0.3,0.5,0.5,0.5v0.2h-1.6   C214.8,84.1,214.8,83.9,214.8,83.9z M214.2,82.8h0.7l-0.3-1h0L214.2,82.8z" fill="#002147"  />
	
</g><circle cx="194.6" cy="127" r="1.4" fill="#FFFFFF"  /><circle cx="208.7" cy="129.3" r="1.4" fill="#FFFFFF"  /><path d="M162.5,100c0.5,0,1.9,0.1,3,1.8c0.5,0.7,0.8,1.5,0.8,2.3c0,1.4-0.7,2.2-2.3,3.4l-4.4,3.1l-1.2-1.7l4.9-3.4  c0.5-0.3,1.1-0.8,1.1-1.5c0-0.4,0-0.7-0.4-1.1c-0.5-0.7-1.1-0.8-1.4-0.8c-0.5,0-1,0.3-2.1,1.1l-4.2,2.8l-1.2-1.6l4.5-2.9  C160.9,100.4,161.6,100,162.5,100z M154.7,96l6-2.3l0.6,1.7l-9,3.5l-0.6-1.7l4.7-5.9l-6,2.1l-0.6-1.8l9.1-3.2l0.6,1.7  C159.4,90,154.7,96,154.7,96z M148.2,84.1l9.6-1.5l0.3,2l-9.6,1.5L148.2,84.1z M157.5,76.2l-9.8,2.9l0.1-2.1l7.4-2l-7.2-2.6l0.1-2  l9.5,3.8C157.6,74.2,157.5,76.2,157.5,76.2z M149.1,65.2l1.6-5.6l1.6,0.5l-1,3.7l2.2,0.6l1-3.5l1.6,0.4l-1,3.5l2.4,0.7l1.1-3.8  l1.6,0.5l-1.6,5.8C158.4,67.9,149.1,65.2,149.1,65.2z M163.8,54.4l-2.9-0.3c-1.4-0.1-1.5,0.2-1.9,0.9l-0.1,0.2l3.4,1.8l-1,1.8  l-8.5-4.7l1.4-2.5c0.6-1.1,1.3-2.3,3-2.3c1.1,0,2.6,0.9,2.6,2.5c0,0.3-0.1,0.6-0.2,0.9c0.4-0.6,1.1-0.6,1.7-0.6c0.3,0,0.7,0.1,1,0.1  l2.6,0.2C164.9,52.5,163.8,54.4,163.8,54.4z M156.7,51.4c-0.5,0.1-0.7,0.5-1.1,1.2l-0.3,0.5l2.3,1.3l0.4-0.7  c0.3-0.6,0.4-0.9,0.3-1.4c-0.1-0.3-0.4-0.6-0.7-0.8C157.3,51.4,157,51.4,156.7,51.4z M168.1,35.3l1.6-1.2l5.8,7.7L174,43  C174,43,168.1,35.3,168.1,35.3z M179,30.5l3.7,7.1l-1.8,0.9l-3.7-7.1l-2.4,1.2l-0.8-1.5l6.5-3.4l0.8,1.5  C181.3,29.3,179,30.5,179,30.5z M190.3,31l0.9,3.7l-1.9,0.5l-0.9-3.7l-4.4-4.9l2-0.5l2.9,3.4l1-4.3l1.9-0.5  C191.9,24.6,190.3,31,190.3,31z M225.4,34.5l3.1,1.8l-0.8,1.4l-3.1-1.8l-2.1,3.6l-1.7-1l5-8.3l5,3l-0.9,1.4l-3.2-1.9L225.4,34.5z   M242.8,66l2.6-2.9l-3.8-0.9l-0.6-2l5.7,1.5l3.6-4.2l0.7,2.1l-2.5,2.7l3.6,0.9l0.6,2l-5.3-1.4l-3.9,4.4L242.8,66L242.8,66z   M252,72.9l-2.2,0.2l0.2,3.6l-1.6,0.1l-0.2-3.5l-4.1,0.3l-0.1-1.9l9.7-0.8l0.4,5.8l-1.7,0.1L252,72.9L252,72.9z" fill="#FFFFFF"  /><path d="M258.8,77.6c0.3-31.9-25.6-58.1-57.6-58.4c-15-0.1-29.2,5.4-40.1,15.6c-11.7,11-18.3,25.8-18.4,41.8  c-0.2,19.1,9.1,37,24.8,48c1.5,6.2,7.1,10.8,13.8,10.8c1.9,0,3.8-0.4,5.5-1.1c1.9,0.6,3.8,1.1,5.7,1.5c-0.6,1.7-1.5,3.3-2.3,4.8  l1.4,1.4c0.3-0.2,0.7-0.3,1.1-0.3c1.1,0,2.1,0.7,2.1,2c0,1.1-0.7,2.1-2.2,2.1c-0.8,0-1.9-0.4-2.4-1.6c0,0-0.4,1.2-0.4,2.6  c0,4.3,4.7,9,10.9,11c6.3-2,11-6.7,11-11c0-1.4-0.4-2.6-0.4-2.6c-0.6,1.2-1.6,1.6-2.4,1.6c-1.5,0-2.2-1-2.2-2.1c0-1.3,1-2,2.1-2  c0.4,0,0.8,0.1,1.1,0.3l1.3-1.3l0,0l0.1-0.1c0,0,0,0,0,0l0,0l0,0l0,0v0c-0.6-1.4-1-2.7-1.4-4.2c10.4-1.4,19.2-5.8,26.1-13.2l0,0  C250.3,112.3,258.7,95.7,258.8,77.6L258.8,77.6z M181.4,133.5c-6.7,0-12.1-5.5-12.1-12.2c0-2.1,0.5-4.1,1.5-5.8  c0.6,0.6,1.3,1.1,2,1.7c-0.6,1.3-0.9,2.7-0.9,4.1c0,3.6,1.8,6.7,5.3,8.7c2,1.2,4.3,2.3,6.7,3.2C183,133.4,182.2,133.5,181.4,133.5z   M200.8,115.7c-2.3,0-4.5-0.2-6.7-0.6c-2.4-4.8-7.4-7.9-12.7-7.9c-1.3,0-2.7,0.2-4,0.6c-9.5-7.3-15.2-18.7-15.2-30.7  c0-21.3,17.3-38.6,38.6-38.6c21.3,0,38.6,17.3,38.6,38.6C239.4,98.4,222.1,115.7,200.8,115.7z M209,116.9c-1,1.6-1.6,3.7-1.8,5.8  c-3.3-0.9-6.5-2-9.6-3.4c0.4-0.8,1.3-1.6,2.9-1.6c0.1,0,0.2,0,0.3,0C203.6,117.7,206.4,117.4,209,116.9z M196.7,117.5  c-0.3,0.3-0.6,0.6-0.8,0.9c-1.2-0.5-3.6-1.6-4.4-2.1C192.7,116.7,195.5,117.4,196.7,117.5z M181.4,109.2c4.1,0,7.9,2.1,10.1,5.4  c-2-0.5-3.9-1.1-5.8-1.9l0,0l-0.1,0c-1.3-0.6-2.7-0.9-4.2-0.9c-3.1,0-6,1.5-7.9,4c-0.7-0.4-1.5-0.8-2.2-1.3  C173.6,111.3,177.2,109.2,181.4,109.2z M208.5,139.9c-2.2,0-3.9,1.7-3.9,3.9c0,2.5,1.7,4,4,4c0.3,0,0.6,0,0.8-0.1  c-0.7,3.1-4.4,6.5-8.8,8c-4.4-1.5-8.1-4.9-8.8-8c0.3,0.1,0.5,0.1,0.8,0.1c2.3,0,4-1.5,4-4c0-2.1-1.7-3.9-3.9-3.9  c0.6-1,1.2-2.3,1.7-3.6c2.6,0.4,5.2,0.7,7.6,0.7c1.9,0,3.8-0.1,5.7-0.3c0.2,0.9,0.8,2.8,1,3.2C208.7,139.9,208.6,139.9,208.5,139.9z   M202.1,135c-7.7,0-17.4-2.6-24-6.5c-2-1.2-4.3-3.3-4.3-7c0-1,0.2-1.9,0.5-2.7c2.5,2.1,5.1,4,6.7,4.9c0.4,0.2,0.6,0.3,1,0.3  c1.1,0,1.9-0.9,1.9-1.9c0-0.8-0.5-1.5-1.2-1.8c-1.4-0.6-4.3-1.8-7.4-3.4c2.2-2.9,6.1-3.8,9.3-2.3l2.1,1.2  c6.7,4.1,23.8,14.6,44.6,9.1C223.6,131.6,214,135,202.1,135z M234.6,121.7c-9.3,3.3-18,3.1-25.4,1.4c0.2-3.2,1.4-6.7,3.4-7.2  c16.7-5.1,28.9-20.5,28.9-38.8c0-22.4-18.2-40.6-40.6-40.6s-40.6,18.2-40.6,40.6c0,12.2,5.6,23.8,15.1,31.5  c-2.2,1.1-4.1,2.7-5.5,4.7c-0.7-0.5-1.3-0.9-1.9-1.4l-0.4,0.4c0.4,0.5,1,1.1,1.8,1.9c-1.3,2.2-2,4.7-2,7.2c0,0.2,0,0.4,0,0.5  c-14.2-10.7-22.5-27.4-22.4-45.2c0.1-15.5,6.4-29.9,17.8-40.5c10.5-9.8,24.2-15.2,38.6-15.1c30.9,0.2,55.8,25.6,55.5,56.4  C256.6,95.1,248.6,111.2,234.6,121.7z" fill="#FFFFFF"  /><path d="M169.9,45.7c0,0.8-0.4,1.7-1.1,2.5c-1.4,1.5-2.9,1.7-3,1.7l-0.4-1.6c0.2-0.1,1.3-0.3,2.1-1.1  c0.3-0.4,0.5-0.8,0.5-1.1c0-0.4-0.3-1-1-1c-0.8,0-2.2,1.2-3.7,1.2c-0.6,0-1.2-0.1-1.8-0.7c-0.6-0.5-0.9-1.3-0.9-2  c0-0.8,0.4-1.6,1-2.4c1.3-1.4,2.7-1.5,2.8-1.5l0.3,1.6c-0.2,0-1.2,0.3-1.9,1c-0.3,0.4-0.5,0.8-0.5,1.1c0,0.4,0.2,0.8,0.9,0.9  c0.7,0,2.4-1.3,3.8-1.3c0.7,0,1.1,0.1,1.8,0.7C169.6,44.1,169.9,44.9,169.9,45.7z M214.5,36c-2.5,0-4.7-1.9-4.7-4.7  c0-2.5,1.7-5.5,4.8-5.5c2.5,0,4.8,1.8,4.8,4.6C219.4,32.6,217.9,36,214.5,36z M217.3,30.4c0-0.7-0.2-1.4-0.6-1.9  c-0.5-0.6-1.2-1-1.9-1c-1.7,0-3,2.2-3,3.9c0,1.7,1.1,2.8,2.6,2.8C216.4,34.2,217.3,31.7,217.3,30.4z M241.3,56.7  c-2.9,0-4.6-2.8-4.6-4.7c0-2.9,3.1-5.1,5.5-5.1c2.6,0,4.6,2.5,4.6,4.8C246.9,54.2,244.2,56.7,241.3,56.7L241.3,56.7z M241,54.7  c1.7,0,4.1-1.5,4.1-3.4c0-1.3-1-2.4-2.4-2.4c0,0,0,0-0.1,0c-1.6,0-4,1.4-4,3.4C238.6,53.3,239.4,54.7,241,54.7z M243.2,85.2  c0-2.4,1.6-4.7,4.8-4.7c2.7,0,5.3,1.7,5.3,4.7c0,2.5-1.6,4.8-4.8,4.8C245.9,89.9,243.2,88.2,243.2,85.2z M248.7,87.9  c1.7,0,3-1.1,3-2.6c0-1.8-2.1-2.8-3.8-2.8c-2.1,0-3,1.4-3,2.7C245,87.2,247.4,87.9,248.7,87.9z M239.6,96.6l2.9,0  c1.4,0,1.5-0.3,1.8-1l0.1-0.2l-3.5-1.6l0.8-1.8l8.8,4l-1.1,2.5c-0.8,1.7-1.4,2.6-3,2.6c-1,0-2.5-0.9-2.5-2.4c0-0.2,0-0.5,0.1-0.8  c-0.5,0.9-1.8,0.8-2.6,0.8l-2.6,0L239.6,96.6L239.6,96.6z M245.2,97.7c0,0.7,0.6,1.3,1.3,1.3c0.6,0,1-0.3,1.4-1.1l0.3-0.7l-2.4-1.1  l-0.4,0.9C245.3,97.1,245.2,97.4,245.2,97.7z M233.7,107.3c0-2,0.9-3.1,2.1-4.5l1.3-1.5l7.5,6.1l-1.7,2.1c-0.9,1.2-2.1,2.6-4.2,2.6  c-1.2,0-2.3-0.6-3.1-1.2C234.6,110.1,233.7,108.8,233.7,107.3L233.7,107.3z M238.8,110.1c1,0,1.6-0.3,2.8-1.7l0.4-0.5l-5-4.1  l-0.6,0.8c-0.6,0.7-0.9,1.5-0.9,2.2c0,0.9,0.5,1.8,1.4,2.5C237.6,109.9,238.2,110.1,238.8,110.1L238.8,110.1z" fill="#FFFFFF"  /></svg>