<svg viewBox="0 0 457.6 283.5" role="img" aria-labelledby="athena-swan-silver--title" xmlns="http://www.w3.org/2000/svg" xmlns:xlink="http://www.w3.org/1999/xlink"><title id="athena-swan-silver--title">Athena SWAN Solver Award - ECU Gender Charter</title><path d="M140.4,204.7c-34.1,0-61.8-27.8-61.8-61.8S106.3,81,140.4,81V2.3C62.9,2.3,0,65.1,0,142.9  c0,77.5,62.9,140.6,140.6,140.6c77.5,0,140.6-62.9,140.6-140.6h-78.8C202.2,176.9,174.5,204.7,140.4,204.7" fill="#6C6F70"  /><path d="M73.3,64.5L80,59l-5.1-6.3l-7.6,6.1L65.7,57l9.8-8.2L90,66.3l-9.4,7.8L79,72.2l7.1-5.9l-4.5-5.5l-6.7,5.5  L73.3,64.5z M50.2,75.7c0.2-1.2,1.2-3.3,3.1-5.3c4.1-4.9,10.2-6.1,15.9-1.4c5.5,4.5,6.1,11.2,1.6,16.7C69,88,67.3,89,66.5,89.2  l-1.4-2c1.2-0.6,2.4-1.4,3.7-2.9c3.5-4.1,3.1-9-1.6-12.9c-4.3-3.5-9.2-3.3-12.7,1c-1.2,1.4-2,3.1-2.2,4.3  C52.3,76.7,50.2,75.7,50.2,75.7z M63.7,95.3l-12-6.1c-4.5-2.2-7.6-1.2-8.8,1.4c-1.4,3.1-0.4,5.9,4.1,8.2l12,6.1l-1.4,2.7l-11.8-5.9  c-6.3-3.1-7.1-7.8-4.9-12c2-4.1,6.1-6.1,12.2-2.9l12,5.9C65.1,92.7,63.7,95.3,63.7,95.3z" fill="#FFFFFF"  /><path d="M29.6,136.3c-0.2-1.4-0.8-4.1-0.4-7.1c0.4-3.5,1.6-6.1,4.1-8c2-1.6,5.3-2.4,8.8-2c6.7,0.8,11,6.1,10,13.7  c-0.4,2.7-1.2,4.5-1.8,5.5l-2.2-1c0.6-1.2,1.2-2.7,1.6-4.9c0.8-5.5-2.2-9.6-8-10.2c-5.7-0.8-9.6,2.2-10.2,7.6  c-0.2,1.8-0.2,3.3,0,3.9l6.7,0.8l0.6-4.5l2.2,0.2l-1,7.3C40,137.6,29.6,136.3,29.6,136.3z M40.2,156.1l-0.6-9l-8.2,0.6l0.6,9.8  l-2.4,0.2L28.8,145l22.7-1.6l0.8,12.2l-2.4,0.2l-0.6-9.4l-7.1,0.6l0.6,8.8C42.8,155.8,40.2,156.1,40.2,156.1z M31,166.5l21.8-6.3  l0.8,3.1l-9,10.2c-2,2.4-4.1,4.3-5.9,5.9c2.9-1,5.5-2,9-2.9l9.2-2.7l0.8,2.7l-21.8,6.3l-0.8-2.9l9-10.2c2-2.2,4.1-4.5,6.1-6.1  c-2.7,1-5.3,1.8-9,2.9l-9.4,2.7C31.8,169.2,31,166.5,31,166.5z M59,181c1,1.4,2.4,3.3,3.5,5.1c2,3.7,2.7,6.7,2,9.4  c-0.6,2.7-2.2,5.1-5.5,6.7c-3.3,1.8-6.3,2.2-9.4,1.6c-2.9-0.8-5.7-3.3-7.8-7.1c-1-1.8-1.8-3.5-2.4-4.7L59,181z M42.9,193.5  c0.2,0.6,0.8,1.6,1.2,2.7c3.1,5.5,7.8,6.7,13.3,3.7c4.7-2.7,6.1-6.9,3.1-12.2c-0.8-1.2-1.4-2.2-2-2.9L42.9,193.5z M69.8,216.5  l-5.9-6.5l-6.1,5.5l6.5,7.3l-1.8,1.6l-8.4-9.6l16.9-15l8.2,9.2l-1.8,1.6l-6.1-6.9l-5.3,4.7l5.9,6.5  C71.9,214.9,69.8,216.5,69.8,216.5z M82.2,212.2c1.4,0.6,3.1,1.8,4.7,3.1c2.4,1.8,3.7,3.7,4.1,5.5c0.2,1.4-0.2,3.1-1.2,4.5  c-1.8,2.4-4.5,2.9-6.9,2c1,1.6,0.8,3.5-0.2,5.7c-1.4,3.1-2.2,5.1-2.4,5.9l-2.4-1.8c0-0.8,0.8-2.7,2-5.3c1.4-2.9,1.2-4.5-0.8-6.3  l-2.2-1.6l-5.9,7.8l-2.2-1.8C68.8,229.9,82.2,212.2,82.2,212.2z M78.4,222.2l2.4,1.8c2.4,1.8,5.1,1.8,6.7-0.2  c1.8-2.2,0.8-4.7-1.6-6.5c-1-0.8-2-1.4-2.4-1.6L78.4,222.2z" fill="#FFFFFF"  /><path d="M113.3,253.7c-1.2,0.2-3.5,0-5.9-1c-5.9-2.2-9.2-7.8-6.5-14.7c2.4-6.7,8.6-9.6,15.3-7.1  c2.7,1,4.1,2.2,4.7,2.9l-1.4,2c-0.8-0.8-2.2-1.8-4.1-2.4c-5.1-1.8-9.6,0.2-11.6,5.7c-1.8,5.3-0.2,9.6,5.1,11.6  c1.6,0.6,3.5,0.8,4.9,0.8L113.3,253.7z M127.3,234.3l-1.2,9.4l10.8,1.4l1.2-9.4l2.9,0.4l-2.9,22.4l-2.9-0.4l1.4-10.6l-10.8-1.4  l-1.4,10.6l-2.9-0.4l2.9-22.4C124.4,233.9,127.3,234.3,127.3,234.3z M149.2,251.4l-1.8,7.3l-3.1,0.2l5.9-23.3l3.5-0.2l9.4,22  l-3.1,0.2l-2.9-6.9C157.1,250.7,149.2,251.4,149.2,251.4z M156.3,248.6l-2.7-6.3c-0.6-1.4-1-2.9-1.4-4.1c-0.2,1.4-0.4,2.9-0.8,4.3  l-1.6,6.7C149.8,249.2,156.3,248.6,156.3,248.6z M165.1,233.9c1.4-0.6,3.3-1.4,5.3-2c3.1-0.8,5.1-0.8,6.7,0c1.4,0.6,2.4,2,2.9,3.7  c0.8,2.9-0.4,5.3-2.4,6.7c1.8,0,3.3,1.4,4.5,3.5c1.6,2.9,2.7,4.7,3.5,5.5l-2.9,0.8c-0.6-0.6-1.6-2.2-3.1-4.7  c-1.6-2.9-3.1-3.7-5.7-2.9l-2.4,0.6l2.9,9.4l-2.9,0.8C171.5,255.3,165.1,233.9,165.1,233.9z M170.8,243.1l2.9-0.8  c3.1-0.8,4.5-3.1,3.7-5.5c-0.8-2.9-3.3-3.5-6.1-2.7c-1.4,0.4-2.2,0.8-2.7,1C168.6,235.1,170.8,243.1,170.8,243.1z M188.2,228  l-6.1,3.3l-1.2-2.2l14.9-7.8l1.2,2.2l-6.1,3.3l9.4,18l-2.7,1.4C197.6,246.2,188.2,228,188.2,228z M213.3,220.8l-6.9,5.5l5.1,6.3  l7.8-6.1l1.6,1.8l-10,8l-14.1-17.8l9.6-7.6l1.6,1.8l-7.3,5.9l4.5,5.7l6.9-5.5C212.1,218.8,213.3,220.8,213.3,220.8z M210.2,208.2  c0.8-1.2,2-3.1,3.3-4.5c2-2.4,3.9-3.5,5.7-3.9c1.4-0.2,3.1,0.4,4.5,1.4c2.2,2,2.7,4.7,1.6,6.9c1.6-1,3.5-0.6,5.7,0.4  c2.9,1.4,4.9,2.4,5.9,2.7l-2,2.2c-0.8-0.2-2.4-1-5.1-2.4c-2.9-1.6-4.5-1.4-6.3,0.6l-1.8,2l7.6,6.3l-1.8,2.2  C227.5,222.1,210.2,208.2,210.2,208.2z M219.8,212.7l2-2.2c2-2.4,2-5.1,0-6.7c-2.2-1.8-4.5-1.2-6.5,1.2c-1,1-1.4,1.8-1.6,2.4  L219.8,212.7z" fill="#FFFFFF"  /><path d="M323.4,28v7.8h7.3v5.7h-7.3V55c0,3.7,1,5.7,3.9,5.7c1.4,0,2-0.2,3.1-0.4l0.2,5.9c-1.2,0.4-3.1,0.8-5.5,0.8  c-2.9,0-5.3-1-6.7-2.7c-1.6-1.8-2.4-4.5-2.4-8.6V41.4h-4.5v-5.7h4.5V30L323.4,28z M373.8,53.3c0.2,5.5,4.5,8,9.4,8  c3.7,0,6.1-0.4,8.4-1.4l1.2,5.3c-2.7,1-6.3,2-10.6,2c-10,0-15.7-6.1-15.7-15.5c0-8.4,5.1-16.5,14.9-16.5c10,0,13.3,8.2,13.3,14.9  c0,1.4-0.2,2.7-0.2,3.3C394.4,53.3,373.8,53.3,373.8,53.3L373.8,53.3z M387,48c0-2.9-1.2-7.6-6.3-7.6c-4.7,0-6.7,4.3-7.1,7.6H387z   M399.1,44.9c0-3.5,0-6.5-0.2-9.2h6.7l0.4,4.5h0.2c1.2-2.4,4.7-5.3,9.8-5.3c5.3,0,10.8,3.5,10.8,13.1v18.2H419v-17  c0-4.5-1.6-7.8-5.9-7.8c-3.1,0-5.3,2.2-6.1,4.5c-0.2,0.6-0.4,1.6-0.4,2.4v18h-7.7L399.1,44.9z M456.8,59.2c0,2.9,0.2,5.5,0.4,7.3  h-6.9l-0.4-3.5h-0.2c-1.8,2.4-5.1,4.1-9,4.1c-6.1,0-9.6-4.5-9.6-9.2c0-7.8,6.9-11.6,18.2-11.6v-0.4c0-2-0.8-5.3-6.1-5.3  c-3.1,0-6.1,1-8.2,2.2l-1.4-5.1c2.2-1.4,6.1-2.7,11-2.7c9.8,0,12.7,6.1,12.7,12.9v11.2C457.2,59.2,456.8,59.2,456.8,59.2z   M449.3,51.4c-5.5-0.2-10.6,1-10.6,5.7c0,3.1,2,4.5,4.3,4.5c3.1,0,5.3-2,6.1-4.3c0.2-0.6,0.2-1.2,0.2-1.6  C449.3,55.7,449.3,51.4,449.3,51.4z M351.7,35.1c-2,0-3.7,0.4-5.3,1.4c-1.6,0.8-2.9,2-3.9,3.5h-0.2V25.3h-7.8v41h7.8V48.2  c0-0.8,0-1.6,0.4-2.2c0.8-2.2,2.9-4.3,5.9-4.3c4.3,0,5.9,3.3,5.9,7.8v17.1h7.8v-18C362.3,38.6,356.8,35.1,351.7,35.1 M298.7,25.5h-9  l-13.1,41h8l3.7-12h11.6l3.9,12h8.4L298.7,25.5z M289.3,48.6l3.9-12.7h1.4l3.9,12.7C298.5,48.6,289.3,48.6,289.3,48.6z M329.5,99.4  c2,1,5.3,2,8.6,2c3.5,0,5.5-1.4,5.5-3.7c0-2-1.6-3.3-5.7-4.9c-5.7-2-9.4-5.1-9.4-10c0-5.9,4.9-10.2,12.9-10.2c3.9,0,6.7,0.8,8.8,1.6  l-1.6,6.3c-1.4-0.6-3.9-1.6-7.1-1.6s-4.9,1.4-4.9,3.3c0,2.2,1.8,3.1,6.3,4.9c6.1,2.2,9,5.3,9,10.2c0,5.7-4.5,10.6-13.9,10.6  c-3.9,0-7.8-1-9.6-2C328.4,105.9,329.5,99.4,329.5,99.4z M360.7,107.4l-8.2-34.3h8.4l2.7,14.1c0.8,4.1,1.4,8.6,2,12  c0.6-3.7,1.4-7.8,2.2-12l2.9-14.1h8.2l2.7,14.5c0.8,4.1,1.2,7.8,1.8,11.4h0.2c0.4-3.9,1.2-7.8,2-11.8l2.9-14.1h8l-8.8,34.3h-8.4  l-2.9-14.7c-0.6-3.5-1.2-6.7-1.6-10.6c-0.6,3.9-1.2,7.1-2,10.6l-3.3,14.7L360.7,107.4L360.7,107.4z M405.4,98.6l-2.4,8.8h-8  l10.4-34.3h10.2l10.6,34.3h-8.4l-2.7-8.8C415.1,98.6,405.4,98.6,405.4,98.6z M414,92.9l-2-7.3c-0.6-2-1.2-4.5-1.6-6.5h-0.2  c-0.4,2-1,4.7-1.6,6.5l-2,7.3C406.6,92.9,414,92.9,414,92.9z M429.1,107.4V73.1h9l7.1,12.4c2,3.7,4.1,8,5.5,11.6h0.2  c-0.4-4.5-0.6-9.2-0.6-14.3v-10h7.1v34.3h-8.2l-7.3-13.2c-2-3.7-4.3-8.2-5.9-12h-0.2c0.2,4.5,0.2,9.4,0.2,14.9V107h-6.9V107.4z" fill="#163964"  /><g><path d="M322.9,132.2c1,0.6,2.7,1,4.1,1c2,0,3.1-1,3.1-2.4c0-1.2-0.8-2-3.1-2.9c-2.9-1-4.7-2.4-4.7-5.1   c0-2.9,2.4-4.9,6.1-4.9c1.8,0,3.3,0.4,4.1,0.8l-0.8,2.4c-0.6-0.4-1.8-0.8-3.5-0.8c-2,0-2.9,1-2.9,2c0,1.4,1,2,3.3,2.9   c3.1,1.2,4.5,2.7,4.5,5.1c0,2.9-2,5.1-6.5,5.1c-1.8,0-3.7-0.6-4.7-1C321.9,134.4,322.9,132.2,322.9,132.2z M339.7,119.6   c0,1-0.6,1.6-1.8,1.6c-1,0-1.8-0.8-1.8-1.6c0-1,0.8-1.6,1.8-1.6S339.5,118.6,339.7,119.6z M336.2,135.5v-12.4h3.3v12.4H336.2z    M342.7,117.3h3.3v18.2h-3.3V117.3z M351.3,123.1l2,6.3c0.4,1,0.6,2,0.8,3.1c0.2-1,0.6-2,0.8-3.1l2-6.3h3.3l-4.7,12.4h-3.1   l-4.7-12.4L351.3,123.1L351.3,123.1z M364.2,130.2c0,2.2,1.8,3.3,3.9,3.3c1.4,0,2.4-0.2,3.5-0.6l0.4,2.2c-1,0.4-2.7,0.8-4.3,0.8   c-4.1,0-6.3-2.4-6.3-6.3c0-3.5,2-6.7,6.1-6.7s5.3,3.3,5.3,6.1v1.4L364.2,130.2z M369.7,128c0-1.2-0.4-3.1-2.7-3.1   c-2,0-2.9,1.8-2.9,3.1H369.7z M375.2,127.1c0-1.6,0-2.9-0.2-4.1h2.7v2.4c0.6-1.8,2-2.7,3.5-2.7h0.8v3.1c-0.2,0-0.6-0.2-1-0.2   c-1.4,0-2.4,1-2.9,2.4v7.5H375v-8.6h0.2V127.1z M393.1,130.6l-1.4,4.9h-3.3l5.5-17.3h4.1l5.5,17.3H400l-1.6-4.9   C398.4,130.6,393.1,130.6,393.1,130.6z M398,128.4l-1.4-4.3c-0.4-1-0.6-2.2-0.8-3.3c-0.2,1-0.6,2.2-0.8,3.3l-1.4,4.3   C393.6,128.4,398,128.4,398,128.4z M407,123.1l1.2,5.7c0.2,1.4,0.6,2.7,0.8,4.1c0.2-1.4,0.6-2.7,1-4.1l1.6-5.7h2.7l1.6,5.5   c0.4,1.4,0.8,2.9,1,4.1c0.2-1.4,0.4-2.7,0.8-4.1l1.4-5.5h3.1l-3.9,12.4h-2.9l-1.4-5.1c-0.4-1.2-0.6-2.4-1-4.1   c-0.2,1.6-0.6,2.9-1,4.1l-1.6,5.1h-2.9l-3.7-12.4C403.8,123.1,407,123.1,407,123.1z M431.1,135.5l-0.2-1.4c-0.8,1-2,1.6-3.7,1.6   c-2.4,0-3.9-1.8-3.9-3.7c0-3.1,2.9-4.7,7.3-4.7v-0.2c0-0.8-0.4-2.2-2.4-2.2c-1.2,0-2.4,0.4-3.3,1l-0.6-2c1-0.6,2.4-1,4.5-1   c4.1,0,5.1,2.4,5.1,5.3v4.5c0,1.2,0,2.2,0.2,3.1H431v-0.3L431.1,135.5z M430.7,129.6c-2.2,0-4.3,0.4-4.3,2.2c0,1.2,0.8,1.8,1.8,1.8   c1.2,0,2.2-0.8,2.4-1.6v-0.6C430.6,131.4,430.7,129.6,430.7,129.6z M437,127.1c0-1.6,0-2.9-0.2-4.1h2.7v2.4h0.2   c0.6-1.8,2-2.7,3.5-2.7h0.8v3.1c-0.2,0-0.6-0.2-1-0.2c-1.4,0-2.4,1-2.9,2.4v7.5H437V127.1z M457.4,117.3V132c0,1.2,0,2.7,0.2,3.5   h-2.9l-0.2-2c-0.8,1.4-2.2,2.2-4.1,2.2c-3.1,0-5.3-2.4-5.3-6.3c0-4.1,2.7-6.7,5.5-6.7c1.6,0,2.9,0.8,3.5,1.6v-7.1L457.4,117.3   C457.4,117.2,457.4,117.3,457.4,117.3z M454.4,128.4v-0.8c-0.2-1.2-1.2-2.2-2.7-2.2c-2,0-3.1,1.8-3.1,4.1c0,2.2,1.2,3.9,3.1,3.9   c1.2,0,2.4-0.8,2.7-2.2V128.4z" fill="#6C6F70"  />
	
</g><path d="M197.3,40.2l38.6-15.3c0,0,5.7-3.3,15.9,14.1c10,17.3,16.9,27.3,16.9,27.3s8,11.2,14.5,8.8  c6.3-2.2-39.6,15.7-39.6,15.7s-6.9,1.8-14.5-13.1s-11.8-21.2-14.5-24.9C212,49.4,205.1,37.8,197.3,40.2" fill="#9A9A9B"  /><g opacity="0.4" ><path d="M229,69.8h17.8V91H229V69.8z" fill="none"  /><path d="M229,77.6C229,77.6,229,77.8,229,77.6c6.3,12.4,12.2,13.4,14,13.2l3.9-21.2C245.1,76.5,234.7,77.4,229,77.6   " fill="#6F6F72"  />
	
	
</g><path d="M243.3,61.8l-5.9,41.2c0,0,0,6.5-20.2,6.7c-20,0-32,1-32,1s-13.7,1.4-14.9,8.2c-1.2,6.7,6.1-42.2,6.1-42.2  s1.8-6.9,18.6-6.1c16.5,1,24.3,0.4,28.8,0C227.9,70,241.4,69.6,243.3,61.8" fill="#838384"  /><g opacity="0.4" ><path d="M182.8,70.4h25.3v19.8h-25.3V70.4z" fill="none"  /><path d="M207.1,90.2c-5.1-4.5-1.2-13.9,1-19.2c-3.7,0-8.2-0.2-13.5-0.4c-5.3-0.2-9.2,0.2-12,1L207.1,90.2z" fill="#6F6F72"  />
	
	
</g><path d="M201.4,91.8l-33.1-25.1c0,0-5.7-3.3,3.9-20.8c9.8-17.6,14.7-28.6,14.7-28.6s5.3-12.7,0.2-16.9  C181.8-3.9,221,26.3,221,26.3s5.1,5.1-3.7,19.2c-9,14.1-12,21-13.9,25.1C201.8,74.5,195.5,86.5,201.4,91.8" fill="#6F6F72"  /><g opacity="0.4" ><path d="M197.3,39h23.5v16.9h-23.5V39z" fill="none"  /><path d="M220.8,39l-23.5,9.4c5.3-1.6,10.2,3.3,13.7,7.6c1.6-3.1,3.9-6.5,6.5-10.6C219,42.9,220,40.8,220.8,39" fill="#838384"  />
	
	
</g><path d="M214.7,53.1c1.6,2.2,4.1,5.7,7.3,11.6c7.6-10.8,17.8-19.8,31-23.5c-0.4-0.8-0.8-1.4-1.4-2.2  c-10-17.3-15.9-14.1-15.9-14.1l-38.6,15.3C205.1,37.8,212,49.4,214.7,53.1" fill="#9A9A9B"  /></svg>