<?xml version="1.0" encoding="utf-8"?>
<!-- Generator: Adobe Illustrator 24.2.3, SVG Export Plug-In . SVG Version: 6.00 Build 0)  -->
<svg version="1.1" id="Layer_1" xmlns="http://www.w3.org/2000/svg" xmlns:xlink="http://www.w3.org/1999/xlink" x="0px" y="0px"
	 width="921.2px" height="283.5px" viewBox="0 0 921.2 283.5" style="enable-background:new 0 0 921.2 283.5;" xml:space="preserve"
	>
<polygon points="46.1,69.1 39,69.1 39,116.5 11.1,69.1 2.9,69.1 2.9,128.6 10.4,128.6 10.1,81.1 38.4,128.6 46.1,128.6 "/>
<g>
	<path d="M98.8,85.3h-7.5v34.1c-0.7,0.7-1.9,1.3-3.9,1.9c-2.6,1.3-5.2,1.6-7.5,1.6c-2.6,0-4.5-0.7-6.2-2.3c-1-1-1.6-2.6-1.9-4.2
		c-0.3-1.3-0.3-3.6-0.3-6.8V85.3H64v25c0,4.2,0.3,7.1,0.7,8.8c0.7,2.6,1.6,4.9,3.6,6.8c2.3,2.3,5.9,3.6,10.4,3.6
		c4.5,0,9.1-1.3,13.3-4.2v3.3h6.8C98.8,128.6,98.8,85.3,98.8,85.3z"/>
	<path d="M179.4,68.5c-1-1-1.9-1.3-3.3-1.3c-1.3,0-2.3,0.3-3.3,1.3c-1,0.9-1.3,1.9-1.3,3.3s0.3,2.3,1.3,3.3c1,1,1.9,1.3,3.3,1.3
		c1.3,0,2.3-0.3,3.3-1.3c1-1,1.3-1.9,1.3-3.3S180.4,69.4,179.4,68.5"/>
	<path d="M180,128.6V85.3h-7.5h-0.3h-19.8v-5.2c0-4.2,0.7-6.8,1.9-8.5c1.6-1.3,3.3-1.9,5.9-1.9c2.3,0,4.5,0.7,6.2,1.9l2.9-5.2
		c-0.7-0.7-1.6-1-2.9-1.6c-2.3-1.3-4.5-1.6-7.1-1.6c-4.2,0-7.8,1.3-10.1,3.6c-2.9,2.9-4.2,7.1-4.2,13.3v5.2h-6.5h-1h-12.3v-5.2
		c0-4.2,0.7-6.8,1.9-8.5c1.3-1.3,3.3-2.3,5.9-2.3c2.3,0,4.5,0.7,6.2,1.9l2.9-4.9c-0.7-0.7-1.6-1-2.9-1.6c-2.3-1.3-4.9-1.6-7.1-1.6
		c-4.2,0-7.8,1.3-10.1,3.6c-2.9,2.9-4.2,7.1-4.2,13.3v5.2h-7.5v6.2h7.5v36.9h7.5V91.5h12.4h1h6.5v37.1h7.5V91.5h19.8v37.1H180z"/>
	<path d="M222.3,103.2h-22.8c0.3-3.9,1.6-6.8,3.9-9.4c2.3-2.3,5.2-3.6,8.5-3.6c3.6,0,6.5,1.6,8.1,4.5
		C221.7,97,222.3,100,222.3,103.2 M229.5,105.8c0-6.8-1.6-12-4.9-16c-3.3-3.9-7.5-5.9-13-5.9c-5.9,0-10.7,1.9-14.6,6.2
		c-3.6,4.2-5.5,9.7-5.5,16.6c0,6.5,1.6,12,5.2,16c3.6,4.2,8.8,6.2,15.3,6.2c5.9,0,11.1-1.6,15.6-4.5l-2.9-5.2
		c-4.5,2.3-8.5,3.3-12.4,3.3c-4.5,0-7.8-1.3-10.4-4.2c-2.3-2.6-3.3-5.9-3.3-9.7h29.9c0-0.3,0-0.7,0-1.6
		C229.5,106.8,229.5,106.2,229.5,105.8"/>
</g>
<rect x="241.5" y="64.2" width="7.5" height="64.4"/>
<g>
	<path d="M292.9,119.5c-3.6,2.3-7.1,3.6-10.1,3.6c-3.6,0-6.8-1.3-9.1-4.2c-2.3-2.9-3.6-6.5-3.6-11.4c0-5.2,1.3-9.4,3.9-12.4
		c2.6-2.9,5.9-4.5,10.1-4.5c3.3,0,5.9,1,8.8,2.9C292.9,93.5,292.9,119.5,292.9,119.5z M300.3,128.6V64.2h-7.5v22.4
		c-2.9-1.6-5.9-2.6-9.4-2.6c-6.2,0-11.1,2.3-15,6.5c-3.9,4.2-5.9,9.7-5.9,16.9c0,6.5,1.6,11.7,5.2,16c3.6,4.2,8.1,6.2,14,6.2
		c4.5,0,8.8-1.3,12-4.2v3.3L300.3,128.6L300.3,128.6z"/>
	<path d="M380,98.4c0,7.8-1.9,13.6-5.9,17.9c-2.6,2.6-5.5,4.2-9.1,5.2c-2.6,0.7-6.2,1-10.4,1h-7.5V75.6h5.2c5.9,0,10.1,0.3,12.7,1
		c3.6,0.7,6.5,2.3,8.8,4.9C377.7,85.3,380,91.2,380,98.4 M388.1,98.4c0-8.8-2.9-16.2-8.5-21.8c-3.3-3.3-7.1-5.5-12-6.5
		c-3.3-0.7-8.5-1.3-15.3-1.3h-13v59.5h13c6.5,0,11.7-0.3,15-1.3c4.9-1.3,9.1-3.6,12.4-6.8C385.2,114.9,388.1,107.4,388.1,98.4"/>
	<path d="M426.8,103.2H404c0.3-3.9,1.6-6.8,3.9-9.4c2.3-2.3,5.2-3.6,8.5-3.6c3.6,0,6.5,1.6,8.1,4.5C426.1,97,426.8,100,426.8,103.2
		 M434.3,105.8c0-6.8-1.6-12-4.9-16c-3.3-3.9-7.5-5.9-13-5.9c-5.9,0-10.7,1.9-14.6,6.2c-3.6,4.2-5.5,9.7-5.5,16.6
		c0,6.5,1.6,12,5.2,16c3.6,4.2,8.8,6.2,15.3,6.2c5.9,0,11.1-1.6,15.6-4.5l-2.9-5.2c-4.5,2.3-8.5,3.3-12.4,3.3
		c-4.5,0-7.8-1.3-10.4-4.2c-2.3-2.6-3.3-5.9-3.3-9.7h29.9c0-0.3,0-0.7,0-1.6C434.3,106.8,434.3,106.2,434.3,105.8"/>
	<path d="M477.8,106.2c0,5.2-1.3,9.4-3.9,12.4c-2.6,2.9-5.9,4.5-10.1,4.5c-3.3,0-5.9-1-8.8-2.9v-26c3.6-2.6,6.8-3.9,10.1-3.9
		c3.6,0,6.8,1.3,9.1,4.2C476.5,98,477.8,101.6,477.8,106.2 M485.6,106.2c0-6.5-1.6-11.7-5.2-16c-3.6-4.2-8.1-6.2-14-6.2
		c-4.5,0-8.8,1.3-12,4.2V85h-6.8v62.7h7.5v-20.8c2.9,1.6,5.9,2.6,9.4,2.6c6.2,0,11.1-2.3,15-6.5
		C483.3,118.8,485.6,113.3,485.6,106.2"/>
	<path d="M522.6,120.1c-4.2,2.3-7.8,3.3-10.7,3.3c-2.6,0-4.9-0.7-6.2-1.9c-1.6-1.3-2.3-3.3-2.3-5.2s0.7-3.6,1.9-4.9
		c2.6-2.6,7.5-3.9,15.3-3.9h2.3v12.7L522.6,120.1L522.6,120.1z M530.1,128.6v-27c0-3.3-0.3-5.9-0.7-7.5c-0.3-2.3-1.3-3.9-2.9-5.5
		c-2.9-2.9-7.1-4.2-12.4-4.2c-3.9,0-7.5,0.7-11.1,1.9c-1.9,1-3.6,1.6-4.2,2.3l2.9,5.2c3.9-2.3,7.8-3.3,11.7-3.3
		c3.6,0,6.2,0.7,7.5,2.3c1.3,1.3,1.6,3.3,1.6,6.2v2.9h-1.9c-16.2,0-24.7,4.9-24.7,14.6c0,3.9,1.3,7.1,3.9,9.7
		c2.6,2.6,5.9,3.6,10.1,3.6c4.2,0,8.5-1.3,13.3-4.2v3.3h6.8L530.1,128.6L530.1,128.6z"/>
	<path d="M565.6,84.3c-3.6,0-7.1,1-10.1,3.3c-1.6,1-2.9,2.3-3.9,3.6v-5.9h-6.8v43.3h7.5V98c3.6-4.5,7.8-7.1,12.7-7.1
		c1,0,2.3,0,3.3,0.3l1.6-6.2C568.8,84.7,567.2,84.3,565.6,84.3"/>
	<path d="M601,122.1c-2.6,0.7-4.5,1.3-5.9,1.3c-2.6,0-4.5-1-5.5-2.6c-0.7-1-1-2.9-1-5.9V91.5h13.3v-6.2h-13.3v-12h-7.5v12h-7.5v6.2
		h7.5v22.1c0,3.6,0,5.9,0.3,7.1c0.3,2.3,1.3,4.2,2.6,5.5c2.3,2.3,5.5,3.3,9.7,3.3c3.3,0,6.5-0.7,9.4-2.3L601,122.1z"/>
	<path d="M672.8,103.6c0-3.9-0.3-6.8-0.7-8.8c-0.7-2.6-1.9-4.9-3.6-6.8c-2.6-2.6-5.9-3.9-10.4-3.9s-9.7,1.6-15,4.9
		c-2.6-3.3-6.2-4.9-10.7-4.9c-4.5,0-8.8,1.3-13.3,4.2v-3.3h-6.8v43.3h7.5V94.1c3.6-2.3,7.1-3.6,11.1-3.6c2.3,0,4.2,0.7,5.5,1.9
		c1,1,1.6,2.6,1.9,4.9c0.3,1.3,0.3,3.6,0.3,7.1v23.7h7.5v-24c0-5.5-0.3-9.1-0.7-10.1c3.9-2.3,7.8-3.6,11.4-3.6
		c2.6,0,4.5,0.7,5.9,2.3c1.3,1.6,1.9,4.9,1.9,10.4v25.4h7.5v-25H672.8z"/>
	<path d="M717.6,103.2h-22.8c0.3-3.9,1.6-6.8,3.9-9.4c2.3-2.3,5.2-3.6,8.5-3.6c3.6,0,6.5,1.6,8.1,4.5C717,97,717.6,100,717.6,103.2
		 M725.1,105.8c0-6.8-1.6-12-4.9-16c-3.3-3.9-7.5-5.9-13-5.9c-5.9,0-10.7,1.9-14.6,6.2c-3.6,4.2-5.5,9.7-5.5,16.6
		c0,6.5,1.6,12,5.2,16c3.6,4.2,8.8,6.2,15.3,6.2c5.9,0,11.1-1.6,15.6-4.5l-2.9-5.2c-4.5,2.3-8.5,3.3-12.4,3.3
		c-4.5,0-7.8-1.3-10.4-4.2c-2.3-2.6-3.3-5.9-3.3-9.7h29.9c0-0.3,0-0.7,0-1.6C725.1,106.8,725.1,106.2,725.1,105.8"/>
	<path d="M773.3,103.6c0-3.9-0.3-6.8-0.7-8.8c-0.7-2.6-1.9-4.9-3.6-6.8c-2.6-2.6-5.9-3.9-10.4-3.9c-4.5,0-9.1,1.3-13.3,4.2v-3.3
		h-6.8v43.3h7.5V94.5c0.7-0.7,1.9-1.3,3.9-1.9c2.6-1.3,5.2-1.6,7.5-1.6c2.6,0,4.5,0.7,6.2,2.3c1,1,1.6,2.6,1.9,4.2
		c0.3,1.3,0.3,3.6,0.3,6.8v24.4h7.5L773.3,103.6L773.3,103.6z"/>
	<path d="M809.6,122.1c-2.6,0.7-4.5,1.3-5.9,1.3c-2.6,0-4.5-1-5.5-2.6c-0.7-1-1-2.9-1-5.9V91.5h13.3v-6.2h-13.3v-12h-7.5v12h-7.5
		v6.2h7.5v22.1c0,3.6,0,5.9,0.3,7.1c0.3,2.3,1.3,4.2,2.6,5.5c2.3,2.3,5.5,3.3,9.7,3.3c3.3,0,6.5-0.7,9.4-2.3L809.6,122.1z"/>
	<path d="M874.3,107.1c0,4.9-1,8.8-3.3,11.7c-2.3,2.9-5.2,4.2-9.4,4.2c-3.9,0-6.8-1.6-9.4-4.5c-2.3-2.9-3.6-7.1-3.6-12
		c0-4.9,1.3-8.8,3.6-11.7c2.3-2.9,5.2-4.5,9.1-4.5c3.9,0,6.8,1.6,9.1,4.5C873.1,98,874.3,102.2,874.3,107.1 M881.8,107.1
		c0-6.8-1.9-12.4-5.5-16.6c-3.6-4.2-8.5-6.2-14.6-6.2s-11.4,1.9-15,6.2c-3.9,4.2-5.5,9.7-5.5,16.6s1.9,12.4,5.5,16.2
		c3.6,4.2,8.5,6.2,14.6,6.2s11.4-1.9,15-6.2C879.9,119.1,881.8,113.6,881.8,107.1"/>
	<path d="M918.2,64.5c-2.3-1-4.5-1.3-7.1-1.3c-4.2,0-7.8,1.3-10.1,3.6c-2.9,2.9-4.2,7.1-4.2,13.3v5.2h-7.5v6.2h7.5v37h7.5V91.5h13.3
		v-6.2h-13.3v-5.2c0-4.2,0.7-6.8,1.9-8.5c1.3-1.7,3.3-2.3,5.9-2.3c2.3,0,4.5,0.7,6.2,1.9l2.9-5.2C920.8,65.8,919.9,65.2,918.2,64.5"
		/>
	<path d="M907.2,152.6h-8.8v27.6h-30.6v-27.6h-8.8v66h8.8v-30.9h30.2v30.9h8.8v-66H907.2z M847,152.6h-47.5v7.5h19.5v58.8h8.8v-59.1
		H847L847,152.6L847,152.6z M806.4,211.1h-27.3v-58.5h-8.8v66h36.4v-7.5H806.4z M717.6,193.9l11.1-32.2l11.1,32.2H717.6z
		 M733.6,152.6h-9.4l-24,66h8.8l6.2-17.2h27.3l6.2,17.2h9.4L733.6,152.6z M693.6,211.1H665v-23.4h26v-7.1h-26v-20.8h28v-7.5h-36.4
		v66H694v-7.1H693.6z M637.7,152.6H629v27.6h-30.3v-27.6h-8.8v66h8.8v-30.9h30.2v30.9h8.8L637.7,152.6L637.7,152.6z M545.1,152.6
		h-8.1l0.3,52.7l-31.2-52.7h-8.8v66h8.1l-0.3-52.7l31.2,52.7h8.8V152.6z M469.6,204.3c-3.9,5.2-9.1,7.8-15.6,7.8
		c-6.2,0-11.4-2.6-15.3-7.5s-6.2-11.4-6.2-19.2c0-8.1,1.9-14.6,5.9-19.5c3.9-4.9,8.8-7.5,15-7.5c6.2,0,11.4,2.3,15.6,7.1
		c3.9,4.9,5.9,11.1,5.9,18.8C474.9,193,473.2,199.4,469.6,204.3 M475.5,160.8c-5.5-6.2-12.7-9.4-21.4-9.4c-9.1,0-16.2,3.3-22.1,9.7
		c-5.5,6.5-8.5,14.6-8.5,24.7c0,10.1,2.9,18.2,8.5,24.7s12.7,9.7,21.4,9.7c9.1,0,16.2-3.3,21.8-9.7c5.5-6.5,8.5-14.6,8.5-25
		C484,175.1,481.1,166.9,475.5,160.8 M408.2,152.6h-8.8v66h8.8V152.6z M386.5,152.6h-47.8v7.5h19.5v58.8h8.8v-59.1h19.2v-7.1H386.5
		L386.5,152.6z M304.9,193.9l11.1-32.2l11.1,32.2H304.9z M320.8,152.6h-9.4l-24,66h8.8l6.2-17.2h27.3l6.2,17.2h9.4L320.8,152.6z
		 M283.7,211.1h-27.3v-58.5h-8.8v66h36.4v-7.5H283.7z M229.5,152.6h-8.8v35.1c0,6.8,0,11.1-0.3,13c-0.3,3.3-1.6,5.9-3.6,7.8
		c-2.6,2.6-6.2,3.9-11.1,3.9s-8.8-1.3-11.7-4.2c-1.6-1.6-2.9-3.9-3.3-6.5c-0.3-1.3-0.3-3.9-0.3-7.5v-41.6h-8.8v40.7
		c0,4.5,0.3,8.1,0.7,10.1c0.7,3.9,2.6,7.1,5.2,9.7c4.5,4.5,10.7,6.8,18.2,6.8c7.8,0,13.6-2.3,17.9-6.5c2.9-2.9,4.5-6.5,5.2-11.4
		c0.3-2.6,0.7-7.8,0.7-16L229.5,152.6L229.5,152.6z M153.4,181.5c-1.6,1.6-3.9,2.6-6.8,2.9c-1.6,0.3-4.5,0.3-9.4,0.3h-4.5v-25.7h7.1
		c7.1,0,11.7,1,13.6,2.9c2.6,2.6,3.6,5.5,3.6,9.4C157.3,176,156,179.3,153.4,181.5 M160.6,157.8c-2.3-2.3-5.2-3.9-8.8-4.5
		c-2.6-0.7-6.2-0.7-11.1-0.7h-16.6v66h8.8v-26.3h4.5c6.2,0,10.7-0.3,12.7-0.7c4.2-0.7,7.5-2.6,10.4-5.2c3.6-3.6,5.5-8.5,5.5-14.3
		C166.1,166.3,164.2,161.4,160.6,157.8 M97.5,204.3c-3.9,5.2-9.1,7.8-15.6,7.8c-6.2,0-11.4-2.6-15.3-7.5c-3.9-4.9-6.2-11.4-6.2-19.2
		c0-8.1,1.9-14.6,5.9-19.5c3.9-4.9,8.8-7.5,15-7.5c6.2,0,11.4,2.3,15.6,7.1c3.9,4.9,5.9,11.1,5.9,18.8
		C102.7,193,101.1,199.4,97.5,204.3 M103.3,160.8c-5.5-6.2-12.7-9.4-21.4-9.4c-9.1,0-16.2,3.3-22.1,9.7c-5.5,6.5-8.5,14.6-8.5,24.7
		c0,10.1,2.9,18.2,8.5,24.7s12.7,9.7,21.4,9.7c9.1,0,16.2-3.3,21.8-9.7c5.5-6.5,8.5-14.6,8.5-25
		C111.8,175.1,108.9,166.9,103.3,160.8 M29.2,181.5c-1.6,1.6-3.9,2.6-6.8,2.9c-1.6,0.3-4.5,0.3-9.4,0.3H8.8v-25.7H16
		c7.1,0,11.7,1,13.6,2.9c2.6,2.6,3.6,5.5,3.6,9.4C33.2,176,31.8,179.3,29.2,181.5 M36.4,157.8c-2.3-2.3-5.2-3.9-8.8-4.5
		c-2.6-0.7-6.2-0.7-11.1-0.7H0v66h8.8v-26.3h4.5c6.2,0,10.7-0.3,12.7-0.7c4.2-0.7,7.5-2.6,10.4-5.2c3.6-3.6,5.5-8.5,5.5-14.3
		C41.9,166.3,40.3,161.4,36.4,157.8"/>
</g>
</svg>
