<?xml version="1.0" encoding="utf-8"?>
<!-- Generator: Adobe Illustrator 24.2.3, SVG Export Plug-In . SVG Version: 6.00 Build 0)  -->
<svg version="1.1" id="Layer_1" xmlns="http://www.w3.org/2000/svg" xmlns:xlink="http://www.w3.org/1999/xlink" x="0px" y="0px"
	 width="921.3px" height="283.5px" viewBox="0 0 921.3 283.5" style="enable-background:new 0 0 921.3 283.5;" xml:space="preserve"
	>
<style type="text/css">
	.st0{fill:#22284B;}
	.st1{fill:#FFFFFF;}
</style>
<rect y="0" class="st0" width="921.2" height="283.5"/>
<g>
	<g>
		<path class="st1" d="M375.3,176.8c0,26.3-20.3,45.3-45.6,45.3c-25.8,0-45.6-19.3-45.6-44.4c0-26.3,20.3-45.4,45.6-45.4
			C355.6,132.3,375.3,151.7,375.3,176.8L375.3,176.8L375.3,176.8z M360.9,177.2c0-23.9-11.6-40.6-31.1-40.6
			c-21.2,0-31.1,20-31.1,40.6c0,23.9,11.6,40.5,31.1,40.5C351,217.8,360.9,197.8,360.9,177.2L360.9,177.2L360.9,177.2z"/>
		<path class="st1" d="M653.8,176.8c0,26.3-20.3,45.3-45.6,45.3c-25.8,0-45.6-19.3-45.6-44.4c0-26.3,20.3-45.4,45.6-45.4
			C634,132.3,653.8,151.7,653.8,176.8L653.8,176.8L653.8,176.8z M639.3,177.2c0-23.9-11.6-40.6-31.1-40.6c-21.2,0-31.1,20-31.1,40.6
			c0,23.9,11.6,40.5,31.1,40.5C629.4,217.8,639.3,197.8,639.3,177.2L639.3,177.2L639.3,177.2z"/>
		<path class="st1" d="M689,177.7h10.9c16.4,0,20-10.4,20-20.3c0-7.5-3.4-14.5-11.1-17.9c-4.1-1.7-8-1.7-13.3-1.7H689L689,177.7
			L689,177.7z M709,191.7c-5.1-7.2-7-9.9-13.3-9.9h-6.8v29.4c0,2.4,1,3.6,3.6,4.1l9.9,2.2v3.2h-38.9v-3.2l8.9-2.2
			c2.6-0.7,3.6-1.7,3.6-4.1v-68.1c0-2.4-1-3.4-3.6-4.1l-8.9-2.2v-3.1h37.9c8,0,13.5,0.7,18.1,2.4c9.4,3.6,14.7,12.6,14.7,21
			c0,10.6-8,19.6-21.2,22.7v0.5c2.7,1.2,4.1,2.9,13.5,15.2l11.8,15.7c1.7,2.4,3.9,3.8,6.5,4.3l8.7,1.9v3.2h-20.6
			c-2.4,0-3.6-0.7-5.8-3.6L709,191.7L709,191.7z"/>
		<path class="st1" d="M538.9,163.5h3.6v29h-3.6l-2.2-8.7c-0.7-3.2-2.7-4.3-5.5-4.3h-21v31.9c0,2.4,1,3.6,3.6,4.1l9.9,2.2v3.2h-38.9
			v-3.2l8.9-2.2c2.7-0.7,3.6-1.7,3.6-4.1v-68.1c0-2.4-1-3.4-3.6-4.1l-8.9-2.2v-3.1h65.6v21.7h-3.6l-4.1-13.1c-1-3.4-2.4-4.6-5.3-4.6
			h-27.3v37.4h21c2.9,0,4.6-1.2,5.5-4.3L538.9,163.5L538.9,163.5z"/>
		<path class="st1" d="M760.7,220.7v-3.2l8.9-2.2c2.7-0.7,3.6-1.7,3.6-4.1v-68.1c0-2.4-1-3.4-3.6-4.1l-8.9-2.2v-3.1h40.8
			c11.1,0,19.1,1.5,25.6,4.3c16.4,7.5,23.9,23.7,23.9,39.6c0,15.5-5.8,29.9-20.5,37.6c-6.8,3.6-16.2,5.3-28.5,5.3h-41.3V220.7z
			 M786,137.9v74.8c0,3.2,0.7,3.9,3.9,3.9h10.6c10.1,0,17.6-1.5,22.9-5.3c8.9-6.5,13-18.3,13-33.3c0-14.7-4.1-29.2-16.2-36.2
			c-5.1-2.9-11.6-3.9-21.7-3.9H786L786,137.9z"/>
		<path class="st1" d="M409.3,217.5v3.2h-30.7v-3.2l7.7-1.9c2.9-0.7,4.8-1.7,6.8-3.9l26.6-33.3l-26.6-35.2c-1.7-2.4-3.8-3.6-6.5-4.3
			l-7.2-1.9v-3.1h38.1v3.1l-8.2,1.7c-2.9,0.5-2.2,1.7-0.7,3.6l19.6,28h0.5l20-28c1.4-1.9,1.9-2.7-0.7-3.4l-7.7-1.9v-3.1H471v3.1
			l-7.7,1.9c-2.9,0.7-4.8,1.7-6.8,3.9l-25.1,31.6l28,36.9c1.7,2.4,3.9,3.6,6.5,4.3l7.2,1.9v3.2h-38.2v-3.2l8.2-1.7
			c2.9-0.5,2.4-1.4,1-3.4l-21.2-29.9h-0.5l-21.5,29.7c-1.5,1.9-1.9,2.6,0.7,3.4L409.3,217.5L409.3,217.5z"/>
	</g>
	<path class="st1" d="M318,92.9c-2.4,2.4-6,4-11,4c-4.4,0-8.4-1.4-11.2-4.1c-3.8-3.7-3.6-8.5-3.6-13.6V55h4.9v26
		c0,3.3-0.1,6.5,2.4,9c1.8,1.8,4.5,2.7,7.6,2.7c3,0,5.5-1,7-2.6c2.8-2.8,2.6-5.9,2.6-13.3V55h4.9v20.5
		C321.6,83.2,321.9,88.9,318,92.9z"/>
	<path class="st1" d="M361.7,96.1l-19.8-33.7l0.1,33.7h-4.5V55h5.1l19.9,33.9L362.3,55h4.5v41.2L361.7,96.1L361.7,96.1z"/>
	<path class="st1" d="M384,96.1V55h5v41.2L384,96.1L384,96.1z"/>
	<path class="st1" d="M419.6,96.1h-5.7L399.8,55h5.2l12,36.3L429.3,55h4.8L419.6,96.1z"/>
	<path class="st1" d="M445.3,96.1V55h22.4v4.1h-17.5v13.6h16.5v4h-16.5v15.2h18v4.2C468.2,96.1,445.3,96.1,445.3,96.1z"/>
	<path class="st1" d="M499.4,61.2c-2.4-2.4-5.4-2.3-8.8-2.3H486v15.4h1.6c4.2,0,8.6,0.2,11.5-2.6c1.4-1.4,2.1-3.3,2.1-5.4
		C501.3,64,500.4,62.1,499.4,61.2z M503.9,96.1l-4.7-10.7c-2.9-6.6-4.3-7.2-10.2-7.2h-2.9v17.9h-4.9V55h8.9c5.5,0,9.6,0,12.9,3.2
		c2.1,2.1,3.2,4.8,3.2,8.2c0,2.9-0.8,5.2-2.6,7.1c-1.5,1.6-3.9,3-6.6,3.2c1.5,0.1,2.6,0.9,3.4,1.6c1.1,1.1,1.9,2.8,3.1,5.5l5.5,12.3
		H503.9L503.9,96.1z"/>
	<path class="st1" d="M557.2,96.1V55h5v41.2L557.2,96.1L557.2,96.1z"/>
	<path class="st1" d="M590.4,59.1v37.1h-4.9V59.1h-12.2V55h29.4v4.1H590.4z"/>
	<path class="st1" d="M626.3,79.8v16.3h-4.9V79.8L608.3,55h5.7l10.1,19.3L634,55h5.4L626.3,79.8z"/>
	<path class="st1" d="M685.5,58.4c-8.1,0-13.3,6.8-13.3,17.1c0,10.2,5.8,17.2,13.6,17.2c8.6,0,13.4-7.3,13.4-17.5
		C699.2,65.1,693.5,58.4,685.5,58.4z M685.5,96.9c-10.6,0-18.4-8.8-18.4-21.2c0-12.7,7.7-21.5,18.8-21.5c10.8,0,18.4,8.7,18.4,21.2
		C704.3,88.1,696.7,96.9,685.5,96.9z"/>
	<path class="st1" d="M722.7,59.1v13.6h15.9v4h-15.9v19.5h-4.9V55h21.9v4.1H722.7L722.7,59.1z"/>
	<path class="st1" d="M519.1,65c0-6.3,5.1-10.8,12.5-10.8c7.5,0,11.1,3.9,11.5,4.3l-2.4,2.9c-0.9-0.7-4.2-3.1-8.8-3.1
		c-5.3,0-8.2,2.7-8.2,6.5c0,1.8,0.7,3.1,1.9,4.2c1.4,1.3,3.5,2.2,5.7,3.2c2.8,1.3,6.5,2.7,9.1,5.3c1.8,1.8,3.1,4.2,3.1,7.4
		c0,6.8-4.8,12.1-13.3,12.1c-7.3,0-11.9-4-12.3-4.4l2.3-3.3c1.2,0.9,5.7,3.6,9.9,3.6c6.2,0,8.5-3.4,8.5-7.5c0-1.9-0.9-3.4-2.1-4.7
		c-1.9-1.8-4.8-3.1-7.6-4.4s-5.4-2.6-7.3-4.6C520.3,70.4,519.1,68.2,519.1,65z"/>
</g>
<path class="st1" d="M140.9,110.8c0-3.6-1.2-6.6-3.9-8.1c-1.7-1-3.9-1.3-6.7-1.3H110v41h22.1c5.1,0,8.1,1.1,8.3,5.7h0.5L140.9,110.8
	z"/>
<path class="st1" d="M143.7,110.8c0-3.6,1.2-6.6,3.9-8.1c1.7-1,3.9-1.3,6.7-1.3h20.4v41h-22.2c-5.1,0-8.1,1.1-8.3,5.7h-0.5
	L143.7,110.8z"/>
<path class="st1" d="M179.1,104.3c0,0,0,40.6,0,43.3c-2.6,0-31.4,0-31.4,0l-0.4,0.9c-0.5,1.4-1.5,2.6-4.9,2.6s-4.4-1.3-4.9-2.6
	l-0.4-0.9c0,0-28.7,0-31.3,0c0-2.7,0-43.3,0-43.3H103v1.3l-2.7-0.8c-0.3-1.1-1.3-1.9-2.5-1.9c-1.4,0-2.6,1.2-2.6,2.6
	c0,1.4,1.2,2.6,2.6,2.6c0.6,0,1.2-0.2,1.6-0.6l3.5,1.1v3.5l-2.7-0.5c-0.4-0.9-1.3-1.6-2.4-1.6c-1.4,0-2.6,1.2-2.6,2.6
	c0,1.4,1.2,2.6,2.6,2.6c0.7,0,1.4-0.3,1.9-0.8l3.2,0.6v3.5l-2.8-0.1c-0.4-0.8-1.3-1.3-2.2-1.3c-1.4,0-2.6,1.2-2.6,2.6
	c0,1.4,1.2,2.6,2.6,2.6c0.9,0,1.6-0.4,2.1-1.1l2.9,0.1v3.9l-2.8,0.1c-0.5-0.7-1.2-1.1-2.1-1.1c-1.4,0-2.6,1.2-2.6,2.6
	c0,1.4,1.2,2.6,2.6,2.6c0.9,0,1.7-0.5,2.2-1.2l2.7-0.1v3.6l-3.1,0.5c-0.5-0.5-1.1-0.8-1.9-0.8c-1.4,0-2.6,1.2-2.6,2.6
	s1.2,2.6,2.6,2.6c1.1,0,2-0.6,2.4-1.5l2.6-0.5v3.5l-3.4,1c-0.4-0.4-1-0.6-1.6-0.6c-1.4,0-2.6,1.2-2.6,2.6c0,1.4,1.2,2.6,2.6,2.6
	c1.2,0,2.1-0.8,2.5-1.9l2.6-0.8v3.4l-3.8,1.6c-0.4-0.3-0.9-0.4-1.4-0.4c-1.4,0-2.6,1.2-2.6,2.6s1.2,2.6,2.6,2.6
	c1.3,0,2.3-0.9,2.5-2.1l2.6-1.1v3.1c0,0,30.9,0,32.4,0c1.3,2.3,3.6,3.5,7.1,3.5s5.7-1.2,7.1-3.5c1.5,0,32.5,0,32.5,0v-46.1h-2.9
	V104.3z"/>
<g>
	<ellipse class="st1" cx="121" cy="92.2" rx="11.9" ry="2.3"/>
	<path class="st1" d="M137.4,75.7l-6.8,4.8l-0.1,0.5l1.6,0.7c0.3,0.2,0.3,0.4,0.2,0.6l-4.3,3.6h-0.4l-3-4.5
		c-0.2-0.3-0.1-0.6,0.2-0.6l2-0.3V80l-5.3-7.5h-0.9l-5.3,7.5v0.5l2,0.3c0.4,0.1,0.4,0.4,0.2,0.6l-3,4.5h-0.4l-4-3.6
		c-0.2-0.2-0.2-0.4,0.2-0.6l1.6-0.7l-0.1-0.5l-7.1-4.8l-0.6,0.2l4.2,12.8c2.1-1,7-1.6,12.7-1.7c5.7,0,10.6,0.7,12.7,1.7l4.2-12.8
		L137.4,75.7z"/>
</g>
<g>
	<ellipse class="st1" cx="142.3" cy="178" rx="11.9" ry="2.3"/>
	<path class="st1" d="M158.6,161.5l-6.8,4.8l-0.1,0.5l1.6,0.7c0.3,0.2,0.3,0.4,0.2,0.6l-4.3,3.6h-0.4l-3-4.5
		c-0.2-0.3-0.1-0.6,0.2-0.6l2-0.3v-0.5l-5.3-7.5h-0.9l-5.3,7.5v0.5l2,0.3c0.4,0.1,0.4,0.4,0.2,0.6l-3,4.5h-0.4l-4-3.6
		c-0.2-0.2-0.2-0.4,0.2-0.6l1.6-0.7l-0.1-0.5l-7.1-4.8l-0.6,0.2l4.2,12.8c2.1-1,7-1.6,12.7-1.7c5.7,0,10.6,0.7,12.7,1.7l4.2-12.8
		L158.6,161.5z"/>
</g>
<g>
	<path class="st1" d="M163.5,89.9c-6.6,0-11.9,1-11.9,2.3s5.3,2.3,11.9,2.3c6.5,0,11.9-1,11.9-2.3S170.1,89.9,163.5,89.9z"/>
	<path class="st1" d="M179.8,75.7l-6.8,4.8l-0.1,0.5l1.6,0.7c0.3,0.2,0.3,0.4,0.2,0.6l-4.3,3.6H170l-3-4.5c-0.2-0.3-0.1-0.6,0.2-0.6
		l2-0.3V80l-5.3-7.5H163l-5.3,7.5v0.5l2,0.3c0.4,0.1,0.4,0.4,0.2,0.6l-3,4.5h-0.4l-4-3.7c-0.2-0.2-0.2-0.4,0.2-0.6l1.6-0.7l-0.1-0.5
		l-7.1-4.8l-0.6,0.2l4.2,12.8c2.1-1,7-1.6,12.7-1.7c5.7,0,10.6,0.7,12.7,1.7l4.2-12.8L179.8,75.7z"/>
</g>
<g>
	<path class="st0" d="M115.2,107.8c1.1,0,2,0.2,2.6,0.8c0.4,0.4,0.8,1.1,0.8,1.9c0,2.2-1.7,3.2-3.8,3.2h-2.3v-0.4
		c0.7-0.1,0.7-0.1,0.7-1.1v-3c0-1-0.1-1-0.7-1.1v-0.4L115.2,107.8L115.2,107.8z M114.8,112.2c0,0.8,0.2,1,0.6,1
		c0.8,0,1.6-0.9,1.6-2.5c0-1.9-1-2.5-1.8-2.5c-0.2,0-0.3,0-0.4,0.1c0,0-0.1,0.2-0.1,0.4C114.8,108.8,114.8,112.2,114.8,112.2z"/>
	<path class="st0" d="M125.5,110.7c0,1.9-1.3,3.1-3.1,3.1c-1.8,0-3-1.3-3-3c0-1.5,1-3.2,3.1-3.2
		C124.2,107.7,125.5,108.9,125.5,110.7z M121.1,110.5c0,1.6,0.6,2.8,1.5,2.8c0.8,0,1.2-0.7,1.2-2.4c0-1.8-0.6-2.8-1.4-2.8
		C121.7,108.1,121.1,108.9,121.1,110.5z"/>
	<path class="st0" d="M133.5,107.8v0.4c-0.7,0.1-0.7,0.1-0.7,1l0.1,3c0,1,0,1,0.7,1.1v0.4h-2.8v-0.4c0.7-0.1,0.7-0.1,0.7-1.1V109
		l0,0l-1.7,4.5h-0.5l-1.7-4.2l0,0l-0.1,2c0,0.8,0,1.2,0,1.5s0.2,0.4,0.8,0.5v0.4H126v-0.4c0.4,0,0.6-0.1,0.7-0.5
		c0-0.3,0.1-0.8,0.1-1.6l0.1-1.8c0.1-1.1,0-1.2-0.7-1.3v-0.4h2.1l1.6,3.6l1.4-3.6C131.3,107.8,133.5,107.8,133.5,107.8z"/>
	<path class="st0" d="M136.4,112.2c0,1,0.1,1,0.7,1.1v0.4h-2.9v-0.4c0.6-0.1,0.7-0.1,0.7-1.1v-3c0-1-0.1-1-0.7-1.1v-0.4h2.9v0.4
		c-0.6,0.1-0.7,0.1-0.7,1.1V112.2z"/>
</g>
<g>
	<path class="st0" d="M121.9,124.6h-0.8l-3.3-4.3l0,0v1.7c0,0.9,0,1.4,0.1,1.7c0,0.3,0.3,0.4,0.9,0.5v0.4h-2.2v-0.4
		c0.4,0,0.6-0.1,0.7-0.5c0-0.3,0.1-0.8,0.1-1.7v-1.7c0-0.7,0-0.8-0.2-1c-0.1-0.2-0.4-0.3-0.7-0.3v-0.4h2l3,3.7l0,0v-1.2
		c0-0.9,0-1.4-0.1-1.7c0-0.3-0.3-0.4-0.9-0.5v-0.4h2.3v0.4c-0.4,0-0.7,0.1-0.7,0.5c0,0.3-0.1,0.8-0.1,1.7L121.9,124.6L121.9,124.6z"
		/>
	<path class="st0" d="M125.5,124.6c-0.6-1.6-1.5-3.9-1.8-4.7c-0.3-0.8-0.5-0.8-0.9-0.9v-0.4h2.9v0.4h-0.3c-0.3,0-0.3,0.1-0.2,0.4
		c0.2,0.5,0.9,2.3,1.2,3.2c0.3-0.8,0.9-2.5,1-2.9c0.2-0.6,0.1-0.7-0.3-0.7h-0.3v-0.4h2.2v0.4c-0.5,0.1-0.6,0.1-1,0.9
		c-0.1,0.1-1.2,2.8-1.8,4.7H125.5L125.5,124.6z"/>
	<path class="st0" d="M129.6,122.7c0.2,0.5,0.7,1.5,1.6,1.5c0.5,0,0.8-0.3,0.8-0.9c0-0.5-0.4-0.8-0.9-1.1l-0.1-0.1
		c-0.7-0.3-1.6-0.8-1.6-1.8s0.7-1.9,2.2-1.9c0.3,0,0.6,0,0.8,0.1s0.4,0.1,0.5,0.1c0,0.4,0.1,0.8,0.2,1.4l-0.4,0.1
		c-0.2-0.6-0.5-1.2-1.2-1.2c-0.5,0-0.8,0.4-0.8,0.8c0,0.5,0.4,0.7,0.9,1l0.2,0.1c0.8,0.4,1.5,0.8,1.5,1.9c0,1.1-0.9,1.9-2.3,1.9
		c-0.4,0-0.7-0.1-1-0.2c-0.3-0.1-0.5-0.2-0.6-0.2c-0.1-0.4-0.2-0.9-0.3-1.5L129.6,122.7z"/>
</g>
<g>
	<path class="st0" d="M117.8,133.9c0,1,0.1,1,0.7,1.1v0.4h-2.9V135c0.6-0.1,0.7-0.1,0.7-1.1v-3c0-1-0.1-1-0.7-1.1v-0.4h2.9v0.4
		c-0.6,0.1-0.7,0.1-0.7,1.1V133.9z"/>
	<path class="st0" d="M121.4,134c0,0.5,0,0.7,0.2,0.8c0.1,0.1,0.4,0.1,0.6,0.1c0.3,0,0.7,0,0.9-0.3c0.1-0.2,0.3-0.4,0.4-0.9l0.4,0.1
		c-0.1,0.3-0.2,1.3-0.3,1.6h-4.5V135c0.7-0.1,0.8-0.1,0.8-1.1v-3c0-1-0.1-1-0.7-1.1v-0.4h2.9v0.4c-0.7,0.1-0.7,0.1-0.7,1.1
		C121.4,130.9,121.4,134,121.4,134z"/>
	<path class="st0" d="M126.4,134c0,0.5,0,0.7,0.2,0.8c0.1,0.1,0.4,0.1,0.6,0.1c0.3,0,0.7,0,0.9-0.3c0.1-0.2,0.3-0.4,0.4-0.9l0.4,0.1
		c-0.1,0.3-0.2,1.3-0.3,1.6h-4.5V135c0.7-0.1,0.8-0.1,0.8-1.1v-3c0-1-0.1-1-0.7-1.1v-0.4h2.9v0.4c-0.7,0.1-0.7,0.1-0.7,1.1
		L126.4,134L126.4,134z"/>
	<path class="st0" d="M130.8,135.4c-0.6-1.6-1.5-3.9-1.8-4.7c-0.3-0.8-0.5-0.8-0.9-0.9v-0.4h2.9v0.4h-0.3c-0.3,0-0.3,0.1-0.2,0.4
		c0.2,0.5,0.9,2.3,1.2,3.2c0.3-0.8,0.9-2.5,1-2.9c0.2-0.6,0.1-0.7-0.3-0.7h-0.3v-0.4h2.2v0.4c-0.5,0.1-0.6,0.1-1,0.9
		c-0.1,0.1-1.2,2.8-1.8,4.6L130.8,135.4L130.8,135.4z"/>
</g>
<g>
	<path class="st0" d="M155,107.8v0.4c-0.7,0.1-0.7,0.1-0.7,1l0.1,3c0,1,0,1,0.7,1.1v0.4h-2.8v-0.4c0.7-0.1,0.7-0.1,0.7-1.1V109l0,0
		l-1.7,4.5h-0.5l-1.7-4.2l0,0l-0.1,2c0,0.8,0,1.2,0,1.5s0.2,0.4,0.8,0.5v0.4h-2.2v-0.4c0.4,0,0.6-0.1,0.7-0.5c0-0.3,0.1-0.8,0.1-1.6
		l0.1-1.8c0.1-1.1,0-1.2-0.7-1.3v-0.4h2.1l1.6,3.6l1.4-3.6C152.8,107.8,155,107.8,155,107.8z"/>
	<path class="st0" d="M157.9,112.2c0,1,0.1,1,0.7,1.1v0.4h-2.9v-0.4c0.6-0.1,0.7-0.1,0.7-1.1v-3c0-1-0.1-1-0.7-1.1v-0.4h2.9v0.4
		c-0.6,0.1-0.7,0.1-0.7,1.1V112.2z"/>
	<path class="st0" d="M164.7,113.7h-0.8l-3.3-4.3l0,0v1.7c0,0.9,0,1.4,0.1,1.7c0,0.3,0.3,0.4,0.9,0.5v0.4h-2.3v-0.4
		c0.4,0,0.6-0.1,0.7-0.5c0-0.3,0.1-0.8,0.1-1.7v-1.7c0-0.7,0-0.8-0.2-1c-0.1-0.2-0.4-0.3-0.7-0.3v-0.4h2l3,3.7l0,0v-1.2
		c0-0.9,0-1.4-0.1-1.7c0-0.3-0.3-0.4-0.9-0.5v-0.4h2.3v0.4c-0.5,0-0.7,0.1-0.7,0.5c0,0.3-0.1,0.8-0.1,1.7V113.7z"/>
	<path class="st0" d="M168.4,113.3h0.3c0.3,0,0.4-0.1,0.2-0.5l-0.3-0.9h-1.5l-0.3,0.9c-0.1,0.4-0.1,0.5,0.3,0.5h0.3v0.4h-2.1v-0.4
		c0.5-0.1,0.6-0.1,0.9-0.9l1.8-4.7l0.6-0.1l0.6,1.7c0.4,1.1,0.8,2.1,1.1,3.1c0.3,0.8,0.5,0.8,0.9,0.9v0.4h-2.8
		C168.4,113.7,168.4,113.3,168.4,113.3z M167.3,111.4h1.2l-0.6-1.7l0,0L167.3,111.4z"/>
</g>
<g>
	<path class="st0" d="M154.9,123.1c0,1,0.1,1,0.8,1.1v0.4h-3.2v-0.4c0.7-0.1,0.8-0.1,0.8-1.1v-4h-0.2c-0.6,0-0.8,0.1-1,0.3
		c-0.1,0.1-0.2,0.4-0.3,0.9h-0.4c0-0.8,0.1-1.4,0.1-1.8h0.3c0.1,0.2,0.2,0.2,0.5,0.2h3.6c0.2,0,0.3-0.1,0.4-0.2h0.3
		c0,0.4,0.1,1.1,0.1,1.8h-0.4c-0.1-0.5-0.2-0.8-0.4-0.9c-0.2-0.2-0.5-0.2-0.9-0.2h-0.2L154.9,123.1L154.9,123.1z"/>
	<path class="st0" d="M159.7,123.1c0,1,0.1,1,0.7,1.1v0.4h-2.9v-0.4c0.6-0.1,0.7-0.1,0.7-1.1v-3c0-1-0.1-1-0.7-1.1v-0.4h2.9v0.4
		c-0.6,0.1-0.7,0.1-0.7,1.1V123.1z"/>
	<path class="st0" d="M167.2,121.5c0,1.9-1.3,3.1-3.1,3.1s-3-1.3-3-3c0-1.5,1-3.2,3.1-3.2C165.9,118.5,167.2,119.7,167.2,121.5z
		 M162.8,121.4c0,1.6,0.6,2.8,1.5,2.8c0.8,0,1.2-0.8,1.2-2.4c0-1.8-0.6-2.8-1.4-2.8C163.4,119,162.8,119.8,162.8,121.4z"/>
</g>
<g>
	<path class="st0" d="M157.6,129.5v0.4c-0.7,0.1-0.7,0.1-0.7,1l0.1,3c0,1,0,1,0.7,1.1v0.4h-2.8V135c0.7-0.1,0.7-0.1,0.7-1.1v-3.2
		l0,0l-1.7,4.5h-0.5l-1.7-4.2l0,0l-0.1,2c0,0.8,0,1.2,0,1.5c0,0.3,0.2,0.4,0.8,0.5v0.4h-2.2V135c0.4,0,0.6-0.1,0.7-0.5
		c0-0.3,0.1-0.8,0.1-1.6l0.1-1.8c0.1-1.1,0-1.2-0.7-1.3v-0.4h2.1l1.6,3.6l1.4-3.6L157.6,129.5L157.6,129.5z"/>
	<path class="st0" d="M159,130.9c0-1-0.1-1-0.7-1.1v-0.4h4.3c0,0.2,0.1,0.8,0.1,1.5h-0.4c-0.1-0.4-0.2-0.7-0.3-0.8
		c-0.1-0.2-0.4-0.2-0.9-0.2h-0.2c-0.3,0-0.4,0-0.4,0.3v1.7h0.4c0.8,0,0.8-0.1,0.9-0.7h0.4v2.1h-0.4c-0.1-0.8-0.1-0.8-0.9-0.8h-0.4
		v1.5c0,0.5,0,0.7,0.2,0.8c0.1,0.1,0.4,0.1,0.6,0.1c0.4,0,0.8-0.1,1-0.3c0.2-0.2,0.3-0.5,0.4-0.9l0.4,0.1c0,0.4-0.2,1.4-0.3,1.6
		h-4.6V135c0.7-0.1,0.8-0.1,0.8-1.1L159,130.9L159,130.9z"/>
	<path class="st0" d="M166.3,135h0.3c0.3,0,0.4-0.1,0.2-0.5l-0.3-0.9H165l-0.3,0.9c-0.1,0.4-0.1,0.5,0.3,0.5h0.3v0.4h-2.1V135
		c0.5-0.1,0.6-0.1,0.9-0.9l1.8-4.7l0.6-0.1l0.6,1.7c0.4,1.1,0.8,2.1,1.1,3.1c0.3,0.8,0.5,0.8,0.9,0.9v0.4h-2.8V135z M165.2,133h1.2
		l-0.6-1.7l0,0L165.2,133z"/>
</g>
<path class="st1" d="M134.2,208c0,1.3-1.1,2.4-2.4,2.4c-1.3,0-2.4-1.1-2.4-2.4c0-1.3,1.1-2.4,2.4-2.4
	C133.1,205.6,134.2,206.7,134.2,208z"/>
<circle class="st1" cx="155.7" cy="211.9" r="2.4"/>
<path class="st1" d="M66.3,79.2L66.3,79.2L66.3,79.2z"/>
<path class="st1" d="M165.6,36.5L165.6,36.5L165.6,36.5z"/>
<path class="st1" d="M203.7,83.5L203.7,83.5L203.7,83.5z"/>
<path class="st1" d="M222,160.3L222,160.3L222,160.3z"/>
<path class="st1" d="M144.6,41.3c0,1.3-1.1,2.4-2.4,2.4c-1.3,0-2.4-1.1-2.4-2.4c0-1.3,1.1-2.4,2.4-2.4
	C143.5,38.9,144.6,40,144.6,41.3z"/>
<circle class="st1" cx="198.4" cy="63.3" r="2.4"/>
<g>
	<path class="st1" d="M82.3,164.7c0.9,1.3,1.4,2.7,1.4,4.2c0,1.6-0.6,3-3.5,5l-8.5,6.1l-1.6-2.3c0,0,8.7-6.2,8.9-6.3
		c1.5-1,2.1-1.8,2.2-3c0-0.8-0.3-1.6-0.8-2.4c-0.9-1.2-1.9-1.6-2.9-1.6c-0.9,0-1.8,0.6-3.5,1.8l-8,5.4l-1.5-2.2l7.6-5.2
		c2.1-1.5,3.8-2.5,5.4-2.5C79.6,161.8,81.3,163.3,82.3,164.7z"/>
</g>
<g>
	<path class="st1" d="M55.1,148.1l16.2-5.7l0.9,2.5l-9.3,11.3l11.7-4.6l0.9,2.4l-16,6.2l-0.9-2.5l9.3-11.4l-12,4.2L55.1,148.1z"/>
</g>
<g>
	<path class="st1" d="M52.6,135.2l17-2.5l0.4,2.7l-17,2.5L52.6,135.2z"/>
</g>
<g>
	<path class="st1" d="M52.1,114.7l0.1-2.8l16.9,6.9l-0.1,2.8l-17.4,5.2v-2.9l14.1-4L52.1,114.7z"/>
</g>
<path class="st1" d="M67.6,76.3c-2.4,0-3.5,1.4-5.1,4.2l-2,3.6l15.1,8.2l1.3-2.4l-6.3-3.4l0.4-0.7c1.1-1.9,1.4-2.2,4.1-2l4.9,0.4
	l1.4-2.5l-5.6-0.5c-1.1-0.1-2-0.2-2.8,0c-0.2,0.1-0.5,0.2-0.8,0.4c0.1-0.3,0.2-0.6,0.2-0.9c0-0.5-0.1-1-0.2-1.4
	c-0.3-1-1-1.8-2.1-2.4C69.3,76.5,68.5,76.3,67.6,76.3z M64.6,81.5c1-1.8,1.7-2.5,2.8-2.5c0.4,0,0.9,0.1,1.4,0.4
	c0.6,0.4,1.1,0.9,1.3,1.6c0.1,0.2,0.1,0.5,0.1,0.7c0,1-0.6,2-1.2,3.1l-0.4,0.6l-4.8-2.6L64.6,81.5z"/>
<g>
	<path class="st1" d="M86.4,52l2.2-1.7L99,64l-2.2,1.7L86.4,52z"/>
</g>
<g>
	<path class="st1" d="M95.9,45.3l11.1-5.8l1.1,2.1l-4.3,2.2l6.8,13.1l-2.4,1.3l-6.8-13.1l-4.3,2.3L95.9,45.3z"/>
</g>
<g>
	<path class="st1" d="M123.6,34.3l2.9-0.8L124.1,45l1.9,6.5l-2.6,0.8l-1.8-6.5l-8.2-8.5l2.8-0.8l5.9,6.1L123.6,34.3z"/>
</g>
<g>
	<path class="st1" d="M175.9,57.8l8.7-14.8l8.2,4.8l-1.2,2l-5.9-3.5l-2.4,4.1l5.5,3.2l-1.2,2l-5.5-3.2l-3.9,6.7L175.9,57.8z"/>
</g>
<g>
	<path class="st1" d="M220.1,96l6.3-7.5l1,3l-4.7,5.3l6.9,1.6l0.9,2.8l-9.5-2.3l-6.7,8.1l-1-2.9l5.1-5.9l-7.6-1.7l-0.9-2.8L220.1,96
		z"/>
</g>
<g>
	<path class="st1" d="M215.1,112.9l17.1-1.4l0.8,9.5l-2.3,0.2l-0.6-6.8l-4.7,0.4l0.5,6.4l-2.3,0.2l-0.5-6.4l-7.7,0.6L215.1,112.9z"
		/>
</g>
<path class="st1" d="M222.7,128.2c-2,0-3.8,0.5-5.3,1.6c-2.6,1.9-3.1,4.6-3.1,6.2c0,5.8,5.5,8.1,9.5,8.1c2,0,3.8-0.5,5.2-1.6
	c2.9-2.1,3-5.2,3-6.3C232.2,131.2,227.5,128.2,222.7,128.2z M224.1,141.3c-3.3,0-7.3-1.8-7.3-5.2c0-1.2,0.4-2.9,1.9-4
	c1-0.7,2.3-1.1,3.8-1.1c1.7,0,4.8,0.5,6.4,2.7c0.6,0.8,0.8,1.7,0.8,2.6c0,1.3-0.5,2.9-1.9,3.9C226.9,140.9,225.5,141.3,224.1,141.3z
	"/>
<path class="st1" d="M212.7,71.1c-1.7,0-3.6,0.6-5.4,1.7c-3.3,2.1-4.5,5.1-4.5,7.3c0,1.4,0.4,2.8,1.2,4.1c1.8,2.9,4.6,3.6,6.4,3.6
	s3.6-0.6,5.4-1.7c2.1-1.3,4.5-3.8,4.5-7.2c0-1.4-0.4-2.8-1.2-4.1C217.7,72.3,215.3,71.1,212.7,71.1z M210.1,85.1
	c-1.5,0-2.9-0.6-3.9-2.2c-0.5-0.8-0.7-1.6-0.7-2.4c0-1.9,1.2-3.9,3.5-5.4c1.5-0.9,3-1.4,4.3-1.4c1.7,0,3,0.7,3.9,2.1
	c0.5,0.8,0.8,1.7,0.8,2.6c0,1.9-1.2,3.8-3.4,5.1C213,84.5,211.4,85.1,210.1,85.1z"/>
<path class="st1" d="M165.9,35.7c-3.6,0-6.7,2.4-7.9,6.7c-0.3,0.9-0.5,1.9-0.5,2.8c0,1.7,0.3,3.1,1,4.4c1.6,2.9,4.5,3.9,6.7,3.9
	c1.3,0,2.5-0.3,3.6-0.9c2.9-1.6,4.8-5.3,4.8-8.8c0-1.5-0.3-3-1-4.2C171.2,37.1,168.6,35.7,165.9,35.7z M165,51c-1.2,0-3-0.6-4-2.4
	c-0.5-0.9-0.7-2-0.7-3.1c0-3.1,2.1-7.4,5.8-7.4c2.1,0,4.7,1.6,4.7,5.4C170.8,46,169.1,51,165,51z"/>
<path class="st1" d="M70.8,98l2.3,0.7l-2.6,9.4l-16.6-4.6l2.8-9.5l2.3,0.6l-2.1,6.9l4.6,1.3l1.8-6.2l2.2,0.6l-1.8,6.2l5.2,1.4
	L70.8,98z"/>
<g>
	<g>
		<path class="st1" d="M75.2,62.1c2.4-2.7,4.8-2.5,4.8-2.5l0.4,2.3c0,0-1.9,0.1-3.4,1.7c-0.6,0.7-1,1.5-1,2.1c0,0.6,0.2,1,0.7,1.4
			c1.2,1.1,3.2-0.1,4.5-0.6c1-0.4,2.4-1,3.8-1c1,0,2.1,0.3,3.1,1.2c1.1,1,1.7,2.3,1.7,3.6c0,1.5-0.6,2.8-1.7,4
			C85.9,76.8,83,77,83,77l-0.6-2.3c1.7-0.4,3-1.1,3.8-2c0.6-0.7,0.9-1.5,0.9-2.2c0-0.6-0.3-1.3-0.8-1.7c-0.4-0.4-1-0.5-1.5-0.5
			c-1.1,0-2.4,0.6-3.5,1.1C79.2,70.3,77,71,75,69.2c-1-0.9-1.5-2-1.5-3.3C73.5,64.8,74.1,63.4,75.2,62.1z"/>
	</g>
</g>
<path class="st1" d="M210.6,150.4l6.5,2.9l-0.3,0.7c-0.9,2-1.2,2.3-3.9,2.3H208l-1.2,2.6h5.7c1.1,0,2,0,2.7-0.3
	c0.2-0.1,0.5-0.2,0.7-0.4c0,0.1-0.1,0.3-0.1,0.4c0,0.6,0.1,1.3,0.3,1.8c0.8,1.8,2.9,2.7,4.4,2.7c2.7,0,3.8-1.6,5.1-4.6
	c0-0.1,1.6-3.7,1.6-3.7l-15.6-7L210.6,150.4z M220.7,160.6c-0.8,0-2.1-0.4-2.6-1.7c-0.1-0.3-0.2-0.7-0.2-1c0-0.9,0.5-1.9,0.9-2.9
	l0.3-0.7l4.9,2.2l-0.5,1.3C222.6,159.9,222,160.6,220.7,160.6z"/>
<path class="st1" d="M201.5,166.7c-1.8,2.2-3.1,4.2-3.1,6.8c0,2.2,1,4.7,3.5,6.7c1.7,1.3,3.5,2,5.5,2c2.4,0,4.3-0.7,7.3-4.4l2.7-3.4
	L204,163.6L201.5,166.7z M207.7,179.6c-1.4,0-2.6-0.5-4-1.6c-1.3-1.1-2.8-2.8-2.8-4.9c0-1.5,0.8-2.9,2.1-4.5l1.1-1.4l9.8,7.8
	l-0.8,0.9C211.3,178.3,210.1,179.6,207.7,179.6z"/>
<path class="st1" d="M240.7,123.3c0-54.1-44.1-98.2-98.3-98.2S44,69.1,44,123.3c0,32.5,16,62.8,42.9,81.1
	c2.6,9.8,11.6,17.1,22.4,17.1c2.9,0,5.7-0.5,8.4-1.6c3.6,1.2,7.3,2.2,11,2.9c-1,3-2.6,5.8-4,8.3c0,0,0,0,0.1,0c0,0-0.1,0-0.1,0.1
	l2.1,2.1c0.5-0.3,1.1-0.5,1.8-0.5c2,0,3.7,1.6,3.7,3.7c0,2-1.6,3.7-3.7,3.7c-1.8,0-3.3-1.1-4.1-2.3c0,0-0.5,1.7-0.5,3.8
	c0,7.1,7.7,15.1,18.4,18.5c10.7-3.3,18.4-11.4,18.4-18.5c0-2.4-0.5-3.8-0.5-3.8c-0.8,1-2.1,2.3-4.2,2.3c-2,0-3.7-1.6-3.7-3.7
	c0-2,1.7-3.7,3.7-3.7c0.7,0,1.4,0.2,1.9,0.6l2-2h0.1c-1.1-2.7-1.9-5.2-2.5-7.5c17.7-2.4,32.6-9.9,44.5-22.3l0,0
	C226.5,182.7,240.7,154.2,240.7,123.3z M109.2,218.7c-11.2,0-20.3-9.1-20.3-20.3c0-3.5,0.9-6.8,2.5-9.7c1,0.9,2.2,1.9,3.3,2.9
	c-1,2.1-1.5,4.4-1.5,6.8c0,6.1,3.1,11.1,8.9,14.6c3.3,2,7.1,3.7,11.1,5.3C111.9,218.6,110.6,218.7,109.2,218.7z M142.3,189.2
	c-4.2,0-8.4-0.4-12.4-1.2c-3.9-7.7-12-12.6-20.7-12.6c-2.1,0-4.2,0.3-6.2,0.9c-16.7-12.4-26.7-32.1-26.7-52.9
	c0-36.3,29.6-65.9,65.9-65.9s65.9,29.6,65.9,65.9C208.2,159.6,178.7,189.2,142.3,189.2z M157,190.4c-2,2.8-3.2,6.7-3.5,10.7
	c-6.2-1.6-11.9-3.8-16.8-6c0.9-1.8,3.6-3.1,5.7-3.1C147.4,191.9,152.3,191.4,157,190.4z M136.1,191.7c-0.8,0.6-1.5,1.4-2,2.2
	c-2.5-1.2-5.6-2.8-7.7-3.9C129.3,190.6,133.1,191.4,136.1,191.7z M109.2,178.1c6.8,0,13.1,3.5,16.9,9.1c-3.3-0.8-6.5-1.9-9.6-3.2
	l0,0l-0.1-0.1c-2.2-1-4.5-1.6-6.9-1.6c-5.4,0-10.2,2.7-13.1,6.7c-1.2-0.7-2.5-1.4-3.7-2.2C96.3,181.6,102.3,178.1,109.2,178.1z
	 M155.9,229.9c-3.6,0-6.6,2.6-6.6,6.5s3,6.5,6.6,6.5c0.5,0,1.1-0.1,1.6-0.2c-0.8,5.5-7.1,11.6-15.3,14.3
	c-8.1-2.7-14.5-8.9-15.3-14.3c0.5,0.1,1,0.2,1.6,0.2c3.9,0,6.6-2.7,6.6-6.5c0-3.6-2.8-6.4-6.5-6.5c1.1-2,2.2-4.2,3-6.5
	c4.5,0.8,8.9,1.2,13.1,1.2c3.4,0,6.7-0.2,9.9-0.5c0.4,1.9,1.1,3.8,1.8,5.8C156.1,229.9,156,229.9,155.9,229.9z M144.6,221.9
	c-13.2,0-29.6-4.5-41-11.2c-3.4-2-7.5-5.8-7.5-12.2c0-1.7,0.3-3.4,0.9-4.9c4.2,3.5,8.6,6.8,11.3,8.3c0.6,0.3,1,0.5,1.7,0.5
	c1.8,0,3.2-1.4,3.2-3.2c0-1.3-0.7-2.4-1.9-3c-2.3-1-7.2-3-12.5-5.8c2.4-3.2,6.3-5.3,10.6-5.3c2,0,3.9,0.4,5.7,1.3l3.6,2.1
	c11.5,7,41.1,25,76.8,15.1C181.9,215.8,165.2,221.9,144.6,221.9z M199.9,199.3c-16,5.6-30.9,5.3-43.6,2.4c0.4-5.7,2.8-11.8,6.4-12.9
	c28-8.7,48.4-34.8,48.4-65.6c0-37.9-30.9-68.7-68.8-68.7s-68.8,30.8-68.8,68.7c0,21.1,9.8,41.1,26.4,54.1c-3.9,1.7-7.3,4.5-9.7,8
	c-1.3-0.9-2.5-1.7-3.6-2.7l-0.6,0.6c0.8,0.9,1.9,2.1,3.3,3.4c-2,3.4-3.2,7.4-3.2,11.7c0,0.7,0,1.3,0.1,2
	c-24.6-18-39.3-46.5-39.3-77.1c0-52.6,42.8-95.4,95.4-95.4s95.4,42.8,95.4,95.4C237.8,153.4,224,181.1,199.9,199.3z"/>
</svg>
